<svg width="24" height="24" viewBox="0 0 24 24" fill="none" xmlns="http://www.w3.org/2000/svg">
<g clip-path="url(#clip0_208_22162)">
<mask id="mask0_208_22162" style="mask-type:luminance" maskUnits="userSpaceOnUse" x="0" y="0" width="25" height="25">
<path d="M0.0820312 0H24.4978V24.4125H0.0853127L0.0820312 0Z" fill="white"/>
</mask>
<g mask="url(#mask0_208_22162)">
<path fill-rule="evenodd" clip-rule="evenodd" d="M30.0984 24.4125H-4.78125V0H30.0984V24.4125Z" fill="#BA0000"/>
<path fill-rule="evenodd" clip-rule="evenodd" d="M13.4827 17.9321C13.4925 17.8993 13.5155 17.6039 13.5024 17.6039C13.4892 17.6039 13.0528 17.0855 13.0627 17.0855C13.0725 17.0855 13.627 17.2102 13.627 17.1905C13.627 17.1741 13.8502 16.6458 13.8502 16.6327L14.1192 17.2791L14.6639 17.5186L14.28 17.8336L14.3686 18.4571C14.3686 18.4669 13.9847 18.0961 13.9847 18.0961L13.5581 18.1421C13.5581 18.1421 13.5024 17.9518 13.4827 17.9321Z" fill="#FFEF00" stroke="black" stroke-width="0.28"/>
<path fill-rule="evenodd" clip-rule="evenodd" d="M10.5096 9.8667C10.1486 10.0537 8.74754 11.655 8.55395 11.9011C8.39317 12.2653 8.07817 12.7214 7.75332 13.0167C7.40879 13.2792 7.2152 13.6401 7.26442 13.9748C7.26114 14.3981 7.4941 14.6836 7.68442 14.9822C7.79598 15.1134 7.94692 15.202 8.10442 15.2119C8.43254 15.2578 8.46207 15.3562 8.62285 15.4186C9.26926 16.2979 10.2307 16.9444 10.9197 17.4529C11.2342 17.6037 11.5223 17.8043 11.7729 18.0469C11.919 18.3413 11.9673 18.6746 11.9107 18.9984L11.3988 20.9344C11.3102 21.4626 11.7696 21.3445 11.7925 21.2395C12.0025 20.9704 12.311 21.1608 12.7507 19.6054L13.3577 18.7851C13.3577 18.7851 13.5939 18.6933 13.5939 18.6703C13.9483 18.2437 13.676 18.0009 13.4758 17.9222L13.0329 17.7581C13.0329 17.7581 12.5177 17.2462 12.4947 17.2462C12.2519 16.5342 11.051 15.0183 10.7754 14.8083C10.6399 14.653 10.4817 14.5191 10.3061 14.4112C10.0272 14.2767 9.93535 14.2308 9.76473 14.1619C9.62035 14.1061 9.72207 13.9486 9.81395 13.8764C10.7622 13.3612 11.5136 12.787 12.4258 12.2029L12.5669 12.1078L12.2388 10.2375L10.7196 9.70264C10.6408 9.75842 10.5818 9.81092 10.5096 9.8667Z" fill="white" stroke="black" stroke-width="0.3325"/>
<path fill-rule="evenodd" clip-rule="evenodd" d="M11.7788 19.7038C11.7854 19.6842 12.7304 19.5103 12.7304 19.5103L12.6155 19.8613L11.6738 20.1435L11.7788 19.7038Z" fill="#FFEC00"/>
<path d="M9.31543 16.1437C9.41262 15.9202 9.55399 15.7187 9.73104 15.5512C9.9081 15.3837 10.1172 15.2538 10.3457 15.1692" stroke="black" stroke-width="0.28"/>
<path d="M11.7462 19.7105C11.8085 19.6941 12.0776 19.612 12.1563 19.6022L12.4057 19.5366C12.5009 19.5136 12.5566 19.4972 12.6551 19.4808C12.7305 19.448 12.806 19.4316 12.8848 19.4119M11.5723 20.2945C11.5821 20.2847 11.6477 20.2289 11.6937 20.1994C11.7495 20.183 11.9332 20.1009 12.0054 20.0911L12.2285 20.0255C12.3105 20.0058 12.3598 19.9861 12.4484 19.9697C12.5165 19.9414 12.5867 19.9184 12.6584 19.9008" stroke="black" stroke-width="0.30625"/>
<path d="M11.9594 16.2815H11.9463C11.9889 16.2815 11.9627 16.2783 11.9036 16.3472C11.8839 16.4029 11.71 16.5243 11.5788 16.5243C11.5132 16.5309 11.418 16.5375 11.3557 16.5375C11.336 16.5375 11.313 16.5243 11.2933 16.5243M11.9463 19.0772H12.0119C12.0841 19.0772 12.153 19.087 12.2153 19.0903C12.2843 19.0903 12.3532 19.11 12.4221 19.11C12.4877 19.1198 12.573 19.1165 12.6419 19.1264C12.7207 19.1264 12.7863 19.1428 12.8683 19.1428M12.8683 19.1428C12.9339 19.1428 12.97 19.1559 13.0455 19.1559L12.8683 19.1428ZM11.4836 20.7309C11.4902 20.7211 11.5493 20.6653 11.5919 20.6358C11.6411 20.6193 11.8118 20.5406 11.8774 20.5275L12.0808 20.4618C12.1563 20.4422 12.2055 20.4225 12.2843 20.4061C12.3466 20.3765 12.4089 20.3568 12.4746 20.3404M12.7568 18.3717C12.7174 18.4833 12.7666 18.5128 12.7896 18.5587C12.8224 18.6047 12.9143 18.6768 13.0586 18.7228L13.2227 18.7753C13.2653 18.7818 13.285 18.7917 13.3178 18.8048M7.38535 14.2833H7.39847C7.35582 14.2833 7.38207 14.2865 7.45426 14.2308C7.49691 14.1815 7.53301 14.1586 7.57566 14.1093M8.26472 15.2512C8.27129 15.2512 9.05222 14.8575 9.13754 14.7722C9.1966 14.7295 9.23926 14.6868 9.31144 14.6376C9.35738 14.6147 9.39019 14.5818 9.43285 14.5556C9.46894 14.5031 9.51488 14.4736 9.54113 14.4243C9.59035 14.385 9.57066 14.339 9.60676 14.2898C9.62644 14.2373 9.66254 14.152 9.67238 14.1028M10.6666 14.6868C10.6699 14.7164 10.6535 14.8017 10.6568 14.8673C10.6535 14.9428 10.555 15.179 10.4369 15.2512" stroke="black" stroke-width="0.28"/>
<path d="M9.2625 14.6804L9.58734 14.7788C9.8633 14.9011 10.127 15.0495 10.3748 15.2218C10.4241 15.2611 10.5127 15.2972 10.5488 15.3432C10.6013 15.3891 10.6406 15.4416 10.68 15.4941C10.7272 15.5443 10.769 15.5993 10.8047 15.6582C10.9556 15.7796 11.3625 16.6261 11.3756 16.6754C11.3994 16.7237 11.4213 16.773 11.4412 16.823C11.4741 16.8558 11.4937 16.9051 11.5233 16.9576C11.5528 17.0232 11.5856 17.056 11.6217 17.1085C11.6644 17.1413 11.7234 17.1971 11.7825 17.2299C11.8416 17.2824 11.9006 17.3021 11.9466 17.3382C12.0089 17.3644 12.7242 17.8172 12.757 17.8402C12.8227 17.8927 13.0195 18.1027 12.8817 18.2504C12.8227 18.2996 12.7702 18.3685 12.7177 18.398C12.6636 18.4428 12.6011 18.4763 12.5339 18.4965C12.2123 18.5949 12.0483 18.5621 11.9859 18.5621H11.9203M7.6875 13.0824C7.77609 13.1152 7.74 13.089 7.82203 13.1283C7.87781 13.1513 7.91391 13.1513 7.96969 13.171C8.02547 13.1907 8.18625 13.2202 8.265 13.299C8.32078 13.3482 8.36344 13.3908 8.42906 13.4302C8.49696 13.4752 8.56958 13.5126 8.64563 13.5418C8.72438 13.5713 8.80969 13.6041 8.88844 13.6074H9.2625H9.06562H9.25594" stroke="black" stroke-width="0.28"/>
<path fill-rule="evenodd" clip-rule="evenodd" d="M7.66452 13.9847C7.86795 13.9716 8.20592 14.0339 8.21249 14.0339L8.66202 14.0274C8.89499 14.0044 8.94749 13.9125 8.98686 13.8502C9.07545 13.7157 9.13452 13.6664 9.20342 13.5647C9.3117 13.4827 9.46264 13.673 9.46592 13.673C9.84983 14.0339 9.54467 14.4736 9.5217 14.49C9.33139 14.6607 9.29202 14.6738 9.17717 14.5622C9.06233 14.4277 9.02624 14.3653 8.93108 14.3194C8.75061 14.2308 8.36999 14.2997 8.36342 14.2997L8.16655 14.3719C8.07139 14.4047 8.01233 14.4867 7.85483 14.5163C7.69077 14.5261 7.63499 14.5097 7.55624 14.3785C7.44467 14.2111 7.50045 14.0077 7.66452 13.9847Z" fill="#FFE606" stroke="black" stroke-width="0.28"/>
<path fill-rule="evenodd" clip-rule="evenodd" d="M18.2895 5.7553C18.26 5.75858 17.9942 5.88655 17.9942 5.8964C17.9942 5.90624 17.7645 6.54608 17.7612 6.53624C17.7579 6.5264 17.5906 5.97843 17.5742 5.99155C17.5578 6.0014 16.9901 6.06702 16.9836 6.0703C16.9737 6.07687 17.4101 5.52233 17.4101 5.52233L17.3511 4.92843L17.817 5.10562L18.319 4.72499C18.3256 4.72171 18.1878 5.24015 18.1878 5.24015L18.4372 5.58468C18.4372 5.58468 18.2961 5.72905 18.2895 5.7553Z" fill="#FFEF00" stroke="black" stroke-width="0.28"/>
<path fill-rule="evenodd" clip-rule="evenodd" d="M12.718 12.2981C13.0593 12.5246 15.1396 12.961 15.4513 13.0069C15.845 12.9675 16.4029 13.0167 16.8163 13.1546C17.2133 13.3285 17.6202 13.3186 17.8925 13.1152C18.26 12.9117 18.3946 12.5639 18.5619 12.2555C18.6243 12.0914 18.6275 11.9175 18.5586 11.7731C18.4339 11.468 18.5094 11.3925 18.4832 11.2219C18.9327 10.231 19.0246 9.07596 19.1329 8.21955C19.1102 7.87198 19.1434 7.52302 19.2313 7.18596C19.4149 6.91519 19.6806 6.71048 19.9893 6.6019L21.9318 6.09987C22.4338 5.91612 22.1057 5.57487 22.0007 5.60768C21.666 5.55518 21.6791 5.19424 20.1074 5.57487L19.0968 5.44362C19.0968 5.44362 18.8999 5.28612 18.8802 5.29596C18.3355 5.19752 18.2568 5.5519 18.2896 5.76518L18.3618 6.23112C18.3618 6.23112 18.1649 6.93002 18.178 6.95299C17.6793 7.5108 16.9344 9.31549 16.8852 9.66002C16.8655 9.98487 16.7408 9.92581 16.7736 10.2408C16.7736 10.4902 16.7474 10.336 16.8294 10.8446C16.8491 10.9955 16.6621 10.9856 16.5538 10.943C15.6383 10.3655 14.7688 9.99143 13.8139 9.48612L13.663 9.40737L12.1963 10.6083L12.4719 12.1964C12.5572 12.2391 12.636 12.2621 12.718 12.2981Z" fill="white" stroke="black" stroke-width="0.3325"/>
<path fill-rule="evenodd" clip-rule="evenodd" d="M20.6684 6.37213C20.6487 6.37541 20.0352 5.63713 20.0352 5.63713L20.3961 5.56494L21.1048 6.24744L20.6684 6.37213Z" fill="#FFEC00"/>
<path d="M18.7751 10.2637C18.5325 10.2889 18.2874 10.2647 18.0545 10.1925C17.8216 10.1203 17.6057 10.0017 17.4199 9.84375" stroke="black" stroke-width="0.28"/>
<path d="M20.6911 6.3985C20.6484 6.35256 20.445 6.15568 20.3957 6.09006C20.3381 6.02748 20.2778 5.96728 20.2153 5.90959L20.0446 5.71928C19.984 5.66635 19.9269 5.60935 19.874 5.54865M21.285 6.26068C21.2359 6.24629 21.1886 6.22648 21.1439 6.20162C21.1045 6.16225 20.9437 6.03756 20.8978 5.98506C20.8445 5.92789 20.7886 5.87315 20.7304 5.821L20.5729 5.65693C20.5157 5.61184 20.4619 5.56248 20.4121 5.50928" stroke="black" stroke-width="0.30625"/>
<path d="M17.5966 7.89135L17.6032 7.90448C17.5835 7.86838 17.5934 7.89135 17.682 7.90448C17.741 7.89791 17.9313 7.98979 17.997 8.10135C18.0403 8.16292 18.0808 8.22643 18.1184 8.29167C18.1282 8.30807 18.1282 8.3376 18.138 8.35073M20.0412 6.53292L20.0346 6.52307L20.0084 6.47385C19.9755 6.41479 19.9493 6.3426 19.9198 6.2901C19.887 6.23104 19.8705 6.16213 19.8377 6.10307C19.8115 6.03745 19.7688 5.97182 19.7426 5.90291C19.7065 5.83073 19.6901 5.76838 19.6474 5.6962M19.6474 5.6962C19.6146 5.63713 19.608 5.59776 19.572 5.53541L19.6474 5.6962ZM21.7113 6.12604C21.6982 6.12604 21.6195 6.09979 21.5768 6.07682C21.5374 6.04401 21.3832 5.93245 21.3405 5.87995C21.2903 5.83046 21.2377 5.78338 21.183 5.73885C21.1273 5.67979 21.0879 5.64698 21.0354 5.58792C20.9805 5.54838 20.929 5.50449 20.8812 5.45667M19.0305 6.1687C19.1487 6.14901 19.1487 6.08995 19.1782 6.05057C19.2012 5.99479 19.2176 5.87995 19.188 5.73229C19.1741 5.67714 19.1631 5.62128 19.1552 5.56495C19.1388 5.52557 19.1355 5.49932 19.1323 5.46651M18.0987 12.8526L18.0921 12.8428C18.1151 12.8756 18.1052 12.8559 18.0199 12.8198C17.9543 12.8067 17.9182 12.787 17.8559 12.7739M18.5121 11.6156C18.5088 11.6057 17.7837 11.1201 17.6688 11.0873C17.6032 11.0545 17.5376 11.0414 17.4621 11.002C17.4195 10.9724 17.3768 10.9593 17.3309 10.9364C17.2685 10.9298 17.2193 10.9035 17.1668 10.9035C17.1045 10.8839 17.0749 10.9232 17.0126 10.9134L16.8223 10.9462M16.842 9.79776C16.8649 9.77807 16.9502 9.75182 17.006 9.71573C17.0716 9.68292 17.3276 9.6501 17.4457 9.72229" stroke="black" stroke-width="0.28"/>
<path d="M17.5217 11.025L17.4528 10.6968C17.4242 10.3967 17.4242 10.0946 17.4528 9.7945C17.4627 9.72888 17.4495 9.637 17.4725 9.58122C17.4889 9.51232 17.5152 9.44997 17.5381 9.39091C17.5644 9.31872 17.5906 9.25638 17.6202 9.20388C17.653 9.01357 18.1911 8.24247 18.2272 8.20966C18.2582 8.16462 18.2911 8.12083 18.3256 8.07841C18.3388 8.03247 18.3716 7.98982 18.4044 7.93732C18.447 7.88153 18.4602 7.83888 18.4864 7.7831C18.493 7.72732 18.5127 7.64528 18.5127 7.57966C18.5291 7.50091 18.5192 7.44185 18.5291 7.38278C18.5192 7.31716 18.5619 6.4706 18.5684 6.43122C18.5816 6.34919 18.6636 6.07357 18.8637 6.12279C18.9359 6.14904 19.0213 6.16216 19.0705 6.19169C19.1427 6.21138 19.1984 6.26388 19.2509 6.30325C19.4905 6.53622 19.543 6.697 19.5725 6.75279L19.6053 6.81185M16.9016 13.1578L16.895 13.1447C16.9114 13.1775 16.9016 13.1611 16.8786 13.0922L16.8458 12.8953C16.8327 12.8329 16.8031 12.764 16.813 12.7247C16.79 12.6656 16.8031 12.6131 16.813 12.554C16.8261 12.4786 16.8359 12.4261 16.8359 12.3539C16.8458 12.2653 16.8359 12.1997 16.8425 12.1143C16.8195 12.0487 16.8163 11.9864 16.7769 11.9175C16.7441 11.8518 16.7211 11.7895 16.685 11.7206L16.5898 11.5565" stroke="black" stroke-width="0.28"/>
<path fill-rule="evenodd" clip-rule="evenodd" d="M17.7054 12.7608C17.5938 12.5902 17.479 12.2654 17.4757 12.2588L17.2493 11.8716C17.1181 11.6747 17.0098 11.6747 16.9376 11.6747C16.7735 11.6616 16.7046 11.6321 16.5832 11.6222C16.4585 11.5697 16.5504 11.3466 16.5471 11.3401C16.6751 10.8315 17.2067 10.8807 17.2296 10.8938C17.4757 10.9726 17.5052 11.0054 17.4659 11.1563C17.4002 11.3269 17.3674 11.386 17.3707 11.491C17.3838 11.6944 17.6299 11.993 17.6332 11.9996L17.7973 12.1308C17.8695 12.1965 17.9679 12.2096 18.0729 12.3343C18.1615 12.4721 18.1746 12.5279 18.0992 12.6624C18.004 12.8396 17.8038 12.8921 17.7054 12.7608Z" fill="#FFE606" stroke="black" stroke-width="0.28"/>
<path fill-rule="evenodd" clip-rule="evenodd" d="M5.10147 8.04564C5.12444 8.06533 5.37709 8.21955 5.38366 8.20971C5.39022 8.19986 6.04975 8.04893 6.04647 8.05877C6.04319 8.06861 5.67569 8.50502 5.69209 8.51158C5.7085 8.52143 6.076 8.96111 6.08584 8.96439L5.39022 8.90533L4.92428 9.28268L4.81928 8.79377L4.22866 8.58377C4.21881 8.58049 4.72741 8.40986 4.72741 8.40986L4.87834 8.01611C4.87834 8.01611 5.07522 8.05221 5.10147 8.04564Z" fill="#FFEF00" stroke="black" stroke-width="0.28"/>
<path fill-rule="evenodd" clip-rule="evenodd" d="M13.6261 9.12185C13.6294 8.71169 12.855 6.72982 12.7238 6.44435C12.4414 6.08004 12.23 5.66601 12.1003 5.22372C12.0281 4.79716 11.7984 4.45919 11.4769 4.34763C11.1061 4.15075 10.7419 4.22622 10.3941 4.25575C10.2202 4.29185 10.0725 4.387 9.99048 4.52153C9.80345 4.7906 9.69845 4.77091 9.57048 4.88903C8.49423 5.0531 7.47704 5.61091 6.70266 5.98825C6.42433 6.19737 6.1141 6.36024 5.78391 6.4706C5.34751 6.47388 5.02923 6.26716 4.87829 6.1556L3.39516 4.81028C2.9686 4.48872 2.86032 4.9481 2.94235 5.02028C3.08673 5.32872 2.77829 5.51247 3.95298 6.62153L4.39923 7.54028C4.39923 7.54028 4.37298 7.78966 4.39595 7.80278C4.60923 8.31138 4.95376 8.18341 5.11126 8.03903L5.46235 7.72075C5.46235 7.72075 6.15141 7.50419 6.16454 7.48122C6.9061 7.59278 8.82235 7.22857 9.13735 7.07763C9.42282 6.92013 9.43923 7.05466 9.68532 6.8545C9.89204 6.71669 9.78048 6.82497 10.1611 6.47716C10.2759 6.37872 10.3711 6.54278 10.3908 6.65435C10.4138 7.73716 10.5745 8.66575 10.673 9.74528L10.6927 9.90935L12.5006 10.4836L13.6786 9.38106C13.6655 9.28591 13.6458 9.20716 13.6294 9.11857L13.6261 9.12185Z" fill="white" stroke="black" stroke-width="0.3325"/>
<path fill-rule="evenodd" clip-rule="evenodd" d="M4.31406 5.71595C4.33047 5.72908 4.04828 6.64783 4.04828 6.64783L3.78906 6.38533L3.97281 5.41736L4.31406 5.71267V5.71595Z" fill="#FFEC00"/>
<path d="M8.60645 5.16797C8.76059 5.35662 8.87494 5.57452 8.94261 5.80855C9.01028 6.04258 9.02987 6.28789 9.0002 6.52969" stroke="black" stroke-width="0.28"/>
<path d="M4.32465 5.68317C4.31152 5.74551 4.25902 6.02114 4.22949 6.09661C4.20853 6.18007 4.19102 6.26436 4.17699 6.34926L4.11137 6.59536C4.10152 6.67411 4.08512 6.75286 4.06215 6.83161M3.88496 5.25989C3.89152 5.27301 3.91121 5.35832 3.91449 5.41082C3.90465 5.46661 3.88824 5.66676 3.86527 5.73895C3.8488 5.8138 3.83566 5.88934 3.8259 5.96536L3.77012 6.18848C3.7645 6.26029 3.75354 6.33158 3.7373 6.40176" stroke="black" stroke-width="0.30625"/>
<path d="M7.27105 7.44845L7.27434 7.43861C7.25793 7.47798 7.27434 7.45501 7.23496 7.37298C7.19559 7.32704 7.16934 7.11704 7.2284 7.0022C7.25566 6.93185 7.28632 6.86286 7.32027 6.79548C7.32684 6.77908 7.35309 6.76267 7.35965 6.74954M4.79371 6.15236L4.79043 6.1622L4.76418 6.21142C4.73137 6.27705 4.68871 6.32955 4.65918 6.38533C4.62637 6.44767 4.57715 6.49689 4.54762 6.55923C4.50824 6.61501 4.47215 6.69048 4.42949 6.74626C4.39012 6.81517 4.34746 6.86767 4.31137 6.93986M4.31137 6.93986C4.27856 6.99892 4.24902 7.02517 4.21621 7.0908L4.31137 6.93986ZM3.53699 4.97767C3.54355 4.9908 3.5698 5.06955 3.5698 5.11876C3.56324 5.17126 3.55668 5.3583 3.53699 5.42064C3.52387 5.49283 3.51074 5.56173 3.50418 5.63392L3.45496 5.84064C3.45141 5.90685 3.44263 5.97268 3.42871 6.03751M5.04309 7.1958C4.96105 7.11048 4.91184 7.14001 4.86262 7.13673C4.80355 7.14658 4.69856 7.1958 4.59027 7.3008C4.55212 7.34352 4.51159 7.38405 4.46887 7.4222C4.4459 7.45501 4.42621 7.47142 4.40324 7.49439M11.1462 4.31158L11.1396 4.3247C11.1593 4.28533 11.1429 4.3083 11.1626 4.39689C11.1856 4.45923 11.1889 4.50189 11.2151 4.56095M9.88293 4.64626C9.87965 4.65283 9.86652 5.52892 9.90262 5.64048C9.91574 5.71267 9.93543 5.77173 9.94527 5.86033C9.94527 5.90955 9.95512 5.95548 9.9584 6.0047C9.99121 6.06048 9.99449 6.11626 10.024 6.1622C10.0404 6.22455 10.0896 6.22783 10.1159 6.28361C10.1553 6.32298 10.2143 6.39517 10.2504 6.4247M9.2759 7.0383C9.24965 7.02845 9.17746 6.97267 9.12168 6.94642C9.05606 6.90704 8.89199 6.71345 8.88215 6.57564" stroke="black" stroke-width="0.28"/>
<path d="M9.93229 5.79799L9.69605 6.03752C9.46056 6.22501 9.20787 6.38981 8.94136 6.52971C8.8823 6.55596 8.81011 6.62159 8.75104 6.62815C8.68542 6.65768 8.61979 6.66752 8.55417 6.68065C8.48198 6.69706 8.41636 6.71346 8.35729 6.71346C8.17683 6.79221 7.24167 6.76268 7.18917 6.75284C7.13437 6.75171 7.07964 6.74843 7.02511 6.74299C6.98245 6.75284 6.92667 6.74956 6.86761 6.75284C6.79542 6.74627 6.75276 6.7594 6.69042 6.76924C6.64448 6.79221 6.56245 6.82174 6.50995 6.85784C6.43448 6.88737 6.38854 6.92674 6.33604 6.94971C6.06626 7.11979 5.79276 7.28389 5.51573 7.4419C5.44026 7.47471 5.16464 7.55674 5.09573 7.36315C5.07933 7.28768 5.04323 7.20893 5.03995 7.14987C5.02026 7.08096 5.03011 7.00549 5.03667 6.93987C5.1023 6.61174 5.20401 6.48049 5.23355 6.42471L5.26636 6.36565M12.0585 5.15159L12.052 5.16143C12.0684 5.12862 12.0618 5.14831 12.0159 5.20409C11.9667 5.24346 11.9109 5.30252 11.8682 5.3419C11.8256 5.38456 11.7829 5.44362 11.7435 5.46002C11.7042 5.51252 11.655 5.52565 11.6025 5.55846C11.5383 5.58028 11.4767 5.60888 11.4187 5.64377C11.34 5.68643 11.2875 5.72581 11.2153 5.76846C11.1726 5.82752 11.1267 5.86362 11.084 5.93252C11.0512 5.99487 11.0118 6.04737 10.9757 6.11627L10.8871 6.2869M11.445 9.77159L11.4614 9.74862C11.4384 9.79456 11.445 9.78143 11.4679 9.70596C11.4679 9.61737 11.4876 9.50909 11.4909 9.42705C11.504 9.34502 11.5171 9.25315 11.5171 9.16455C11.5139 9.06612 11.5139 8.97752 11.4975 8.88237C11.4975 8.79377 11.4876 8.7019 11.4843 8.61331C11.4841 8.53167 11.4753 8.45029 11.4581 8.37049C11.4564 8.29563 11.4487 8.22102 11.4351 8.14737C11.445 8.08502 11.4285 8.02924 11.4154 7.98331L11.3564 7.73721L11.3071 7.54034C11.2973 7.46815 11.2579 7.37627 11.2415 7.31065C11.2168 7.25855 11.1991 7.20337 11.189 7.14659C11.166 7.09409 11.1365 7.03502 11.1234 6.97596L11.0512 6.79877L10.9856 6.62815C10.9626 6.56252 10.9298 6.50674 10.9167 6.43784C10.8937 6.41487 10.8871 6.3919 10.874 6.37221" stroke="black" stroke-width="0.28"/>
<path fill-rule="evenodd" clip-rule="evenodd" d="M11.2836 4.69549C11.2015 4.88252 10.9915 5.15487 10.9883 5.16143L10.7914 5.56174C10.6995 5.78159 10.7586 5.87018 10.7947 5.93252C10.8734 6.07362 10.8898 6.14909 10.9489 6.25737C10.9718 6.38862 10.7323 6.43784 10.729 6.44112C10.2369 6.61174 9.98419 6.13924 9.98091 6.11299C9.91529 5.8669 9.92513 5.82424 10.0761 5.77502C10.25 5.73237 10.3189 5.73237 10.4042 5.67002C10.5683 5.54862 10.6831 5.17784 10.6864 5.17127L10.7094 4.96455C10.7225 4.86612 10.6765 4.77424 10.7258 4.62002C10.7914 4.47237 10.8308 4.42971 10.9883 4.41659C11.1851 4.40018 11.3426 4.54127 11.2836 4.69549Z" fill="#FFE606" stroke="black" stroke-width="0.28"/>
<path fill-rule="evenodd" clip-rule="evenodd" d="M10.6339 9.51888C10.5617 9.45326 12.0382 10.057 12.2417 10.0636C12.5206 9.96185 13.669 8.9906 13.669 8.9906C13.6789 9.08904 13.7215 9.33185 13.8331 9.38435C13.3868 9.74529 12.9865 10.0898 12.5436 10.4508C12.5764 11.0217 12.4714 11.6254 12.7601 12.262C12.7601 12.262 12.4123 12.2686 12.4123 12.262C12.1071 11.9569 11.9989 10.4836 11.9989 10.4836L10.542 9.84373C10.6142 9.79779 10.67 9.65669 10.6404 9.52216L10.6339 9.51888Z" fill="#FFEF00" stroke="black" stroke-width="0.28"/>
<path d="M12.0418 11.0282C12.068 11.0118 11.7793 11.166 11.7005 11.2021C10.3552 11.9207 9.66616 12.9642 9.6235 13.0035C9.60053 13.0462 9.55787 13.1053 9.5185 13.1643C9.48569 13.2135 9.43975 13.2628 9.41022 13.312C9.35585 13.388 9.29781 13.4614 9.23631 13.5318C9.22975 13.5646 9.25928 13.522 9.24944 13.5417M12.9605 10.1784C12.9343 10.1653 13.2033 10.3523 13.2723 10.4015C14.5257 11.2678 15.766 11.4089 15.8218 11.4285C15.8743 11.4285 15.9465 11.4384 16.0154 11.4482C16.0712 11.4515 16.1368 11.4712 16.1958 11.4745C16.2615 11.4843 16.4058 11.5073 16.4715 11.5303C16.5043 11.5204 16.4518 11.5139 16.4715 11.5139" stroke="black" stroke-width="0.28"/>
</g>
</g>
<defs>
<clipPath id="clip0_208_22162">
<rect width="24" height="24" rx="12" fill="white"/>
</clipPath>
</defs>
</svg>
