<svg width="24" height="24" viewBox="0 0 24 24" fill="none" xmlns="http://www.w3.org/2000/svg">
<g clip-path="url(#clip0_208_25623)">
<mask id="mask0_208_25623" style="mask-type:luminance" maskUnits="userSpaceOnUse" x="0" y="0" width="24" height="24">
<path d="M0 0H23.9963V23.9963H0V0Z" fill="white"/>
</mask>
<g mask="url(#mask0_208_25623)">
<path fill-rule="evenodd" clip-rule="evenodd" d="M0 23.7738L46.2848 0H0V23.7738Z" fill="#0000D6"/>
<path fill-rule="evenodd" clip-rule="evenodd" d="M47.9976 0L1.27246 23.9963H47.9976V0Z" fill="#006000"/>
<path fill-rule="evenodd" clip-rule="evenodd" d="M48.0023 0H45.4285L0 22.753V23.9963H2.56896L47.9975 1.2869V0H48.0023Z" fill="#FFCC00"/>
<path fill-rule="evenodd" clip-rule="evenodd" d="M1.88717 4.64933L2.44837 3.03828L0.987305 2.04166H2.79187L3.34823 0.425781L3.9046 2.04166H5.70432L4.2481 3.03828L4.80446 4.64449L3.34823 3.65271L1.88717 4.64933ZM10.8471 4.64933L11.4083 3.03828L9.94722 2.04166H11.7518L12.3082 0.425781L12.8645 2.04166H14.6594L13.208 3.03828L13.7644 4.64449L12.3082 3.64787L10.8471 4.64933ZM10.8471 11.4225L11.4083 9.81144L9.94722 8.81482H11.7518L12.3082 7.19894L12.8645 8.81482H14.6594L13.208 9.81144L13.7692 11.4225L12.313 10.4259L10.8471 11.4225ZM6.39615 8.07461L6.95252 6.46357L5.49629 5.46694H7.29602L7.85238 3.8559L8.40875 5.46694H10.2133L8.75224 6.46357L9.30861 8.07461L7.85722 7.07799L6.39615 8.07461ZM1.88717 11.4225L2.44837 9.81144L0.987305 8.81482H2.79187L3.34823 7.19894L3.9046 8.81482H5.70432L4.2481 9.81144L4.80446 11.4176L3.34823 10.421L1.88717 11.4225Z" fill="white"/>
</g>
</g>
<defs>
<clipPath id="clip0_208_25623">
<rect width="24" height="24" rx="12" fill="white"/>
</clipPath>
</defs>
</svg>
