<svg width="24" height="24" viewBox="0 0 24 24" fill="none" xmlns="http://www.w3.org/2000/svg">
<g clip-path="url(#clip0_208_25764)">
<path fill-rule="evenodd" clip-rule="evenodd" d="M0 0H24V24H0V0Z" fill="white"/>
<path fill-rule="evenodd" clip-rule="evenodd" d="M1.03027 7.85376L3.95621 3.4665L4.68742 3.95416L1.76148 8.34142L1.03027 7.85376ZM2.12709 8.58524L5.05303 4.19799L5.78424 4.68564L2.8583 9.0729L2.12709 8.58524ZM3.2239 9.31673L6.14984 4.92947L6.88105 5.41713L3.95511 9.80438L3.2239 9.31673Z" fill="black"/>
<path fill-rule="evenodd" clip-rule="evenodd" d="M1.03027 7.85376L3.95621 3.4665L4.68742 3.95416L1.76148 8.34142L1.03027 7.85376ZM2.12709 8.58524L5.05303 4.19799L5.78424 4.68564L2.8583 9.0729L2.12709 8.58524ZM3.2239 9.31673L6.14984 4.92947L6.88105 5.41713L3.95511 9.80438L3.2239 9.31673Z" fill="black"/>
<path fill-rule="evenodd" clip-rule="evenodd" d="M18.2139 16.1448L21.8699 18.5831L18.2139 16.1448Z" fill="black"/>
<path d="M18.2139 16.1448L21.8699 18.5831" stroke="white" stroke-width="1.17188"/>
<path fill-rule="evenodd" clip-rule="evenodd" d="M7.61133 9.07373C8.38734 7.91016 9.59379 7.10251 10.9653 6.82846C12.3368 6.55441 13.761 6.8364 14.9245 7.61241C16.0881 8.38842 16.8957 9.59487 17.1698 10.9664C17.4438 12.3378 17.1619 13.762 16.3858 14.9256L7.61133 9.07373Z" fill="#CD2E3A"/>
<path fill-rule="evenodd" clip-rule="evenodd" d="M7.61148 9.07368C6.83548 10.2373 6.55348 11.6614 6.82753 13.0329C7.10158 14.4044 7.90923 15.6109 9.0728 16.3869C10.2364 17.1629 11.6606 17.4449 13.0321 17.1708C14.4035 16.8968 15.61 16.0891 16.386 14.9256C16.774 14.3438 16.915 13.6317 16.778 12.9459C16.641 12.2602 16.2371 11.657 15.6553 11.269C15.0736 10.881 14.3615 10.74 13.6757 10.877C12.99 11.014 12.3867 11.4178 11.9987 11.9996L7.61148 9.07368Z" fill="#0047A0"/>
<path d="M11.9987 11.9996C12.8066 10.7881 12.4795 9.15102 11.268 8.34304C10.0565 7.53507 8.41938 7.8622 7.61141 9.0737C6.80343 10.2852 7.13056 11.9223 8.34207 12.7303C9.55357 13.5383 11.1907 13.2112 11.9987 11.9996Z" fill="#CD2E3A"/>
<path fill-rule="evenodd" clip-rule="evenodd" d="M3.95801 20.5327L1.03207 16.1455L1.76328 15.6578L4.68922 20.0451L3.95801 20.5327ZM5.05482 19.8012L2.12888 15.414L2.86009 14.9263L5.78603 19.3136L5.05482 19.8012ZM6.15164 19.0697L3.2257 14.6825L3.95691 14.1948L6.88285 18.5821L6.15164 19.0697Z" fill="black"/>
<path fill-rule="evenodd" clip-rule="evenodd" d="M3.95801 20.5327L1.03207 16.1455L1.76328 15.6578L4.68922 20.0451L3.95801 20.5327ZM5.05482 19.8012L2.12888 15.414L2.86009 14.9263L5.78603 19.3136L5.05482 19.8012ZM6.15164 19.0697L3.2257 14.6825L3.95691 14.1948L6.88285 18.5821L6.15164 19.0697Z" fill="black"/>
<path fill-rule="evenodd" clip-rule="evenodd" d="M3.40918 17.7295L4.50599 16.998L3.40918 17.7295ZM18.2162 7.85445L19.4958 7.00105L18.2162 7.85445ZM20.5926 6.26957L21.6894 5.53809L20.5926 6.26957Z" fill="black"/>
<path d="M3.40918 17.7295L4.50599 16.998M18.2162 7.85445L19.4958 7.00105M20.5926 6.26957L21.6894 5.53809" stroke="white" stroke-width="1.17188"/>
</g>
<defs>
<clipPath id="clip0_208_25764">
<rect width="24" height="24" rx="12" fill="white"/>
</clipPath>
</defs>
</svg>
