<svg width="24" height="24" viewBox="0 0 24 24" fill="none" xmlns="http://www.w3.org/2000/svg">
<g clip-path="url(#clip0_208_27953)">
<mask id="mask0_208_27953" style="mask-type:luminance" maskUnits="userSpaceOnUse" x="-1" y="-1" width="25" height="25">
<path d="M-0.00585938 -0.00183105H23.994V23.9981H-0.00585938V-0.00183105Z" fill="white"/>
</mask>
<g mask="url(#mask0_208_27953)">
<path fill-rule="evenodd" clip-rule="evenodd" d="M-8.34375 -0.00183105L11.7613 11.9981L-8.34375 23.9981V-0.00183105ZM31.8526 -0.00183105L11.7613 11.9981L31.8389 23.9981L31.8526 -0.00183105Z" fill="#18B637"/>
<path fill-rule="evenodd" clip-rule="evenodd" d="M-8.34375 -0.00183105L11.7613 11.9981L31.8389 -0.00183105H-8.34375ZM-8.34375 23.9981L11.7613 11.9981L31.8389 23.9981H-8.34375Z" fill="#CF0921"/>
<path fill-rule="evenodd" clip-rule="evenodd" d="M31.8526 -0.00183105H28.1086L-8.34375 21.7626V23.9981H-4.59977L31.8526 2.23358V-0.00183105Z" fill="white"/>
<path fill-rule="evenodd" clip-rule="evenodd" d="M18.7011 11.9981C18.7011 13.8386 17.9699 15.6036 16.6686 16.905C15.3672 18.2064 13.6021 18.9375 11.7617 18.9375C9.92122 18.9375 8.15616 18.2064 6.85477 16.905C5.55338 15.6036 4.82227 13.8386 4.82227 11.9981C4.82227 10.1577 5.55338 8.39261 6.85477 7.09122C8.15616 5.78983 9.92122 5.05872 11.7617 5.05872C13.6021 5.05872 15.3672 5.78983 16.6686 7.09122C17.9699 8.39261 18.7011 10.1577 18.7011 11.9981Z" fill="white"/>
<path fill-rule="evenodd" clip-rule="evenodd" d="M-8.34375 -0.00183105V2.23358L28.1086 23.9981H31.8526V21.7626L-4.59977 -0.00183105H-8.34375Z" fill="white"/>
<path fill-rule="evenodd" clip-rule="evenodd" d="M13.1193 9.37866L12.2142 9.39238L11.7479 10.1604L11.2816 9.39238L10.3902 9.37866L10.8291 8.58324L10.3902 7.80153L11.2954 7.7741L11.7616 7.0061L12.2279 7.78781H13.1193L12.6942 8.58324L13.1193 9.37866ZM10.1022 14.6175H9.19708L8.7308 15.3992L8.26451 14.6312L7.35938 14.6038L7.79823 13.8221L7.37309 13.0266L8.26451 13.0129L8.7308 12.2449L9.19708 13.0129L10.1022 13.0404L9.66336 13.8221L10.1022 14.6175ZM16.2188 14.6175H15.3136L14.8473 15.3992L14.3811 14.6312L13.4896 14.6038L13.9148 13.8221L13.4896 13.0266L14.3948 13.0129L14.8611 12.2449L15.3273 13.0129L16.2188 13.0404L15.7799 13.8221L16.2188 14.6175Z" fill="#CF0921" stroke="#18B637" stroke-width="0.487617"/>
</g>
</g>
<defs>
<clipPath id="clip0_208_27953">
<rect width="24" height="24" rx="12" fill="white"/>
</clipPath>
</defs>
</svg>
