<svg width="24" height="24" viewBox="0 0 24 24" fill="none" xmlns="http://www.w3.org/2000/svg">
<g clip-path="url(#clip0_208_22477)">
<path d="M0 0H24V24H0V0Z" fill="#00785E"/>
<path d="M12.7738 6.90937L12.0004 4.52344L11.227 6.91406L13.2566 5.4375H10.7441L12.7738 6.90937Z" fill="#FBD116"/>
<path d="M12.0002 16.5797H6.87676C6.81304 16.5152 6.75053 16.4496 6.68926 16.3828H12.0002C12.0197 16.39 12.0367 16.4026 12.0492 16.4193C12.0617 16.4359 12.0691 16.4558 12.0705 16.4765C12.0705 16.5234 12.0424 16.5656 12.0002 16.5797ZM12.0002 15.014C12.0283 14.9531 12.0893 14.8125 12.0611 14.639C12.0515 14.5721 12.0309 14.5072 12.0002 14.4469C11.5388 14.8844 10.982 15.2086 10.3736 15.3937C9.99362 15.5087 9.59877 15.5671 9.20176 15.5672H6.04238C6.13614 15.7049 6.23463 15.8394 6.3377 15.9703H9.38457C10.3422 15.9716 11.2692 15.6327 12.0002 15.014ZM6.52051 13.7812C6.36582 13.8402 6.20297 13.875 6.0377 13.8844C6.41735 14.3159 6.88463 14.6617 7.4084 14.8985C7.93216 15.1353 8.50038 15.2578 9.0752 15.2578C9.62169 15.2583 10.1626 15.1481 10.6653 14.9338C11.1681 14.7195 11.6221 14.4055 12.0002 14.0109C12.1411 13.0342 12.2163 12.0492 12.2252 11.0625C12.2372 9.93025 12.162 8.79877 12.0002 7.6781C11.6721 7.97341 11.0533 8.6156 10.7627 9.59529C10.6512 9.96953 10.5944 10.3579 10.5939 10.7484C10.5927 11.5513 10.831 12.3363 11.2783 13.0031C10.7292 12.2933 10.4323 11.4208 10.4346 10.5234C10.4323 9.92392 10.5636 9.33144 10.8189 8.78904C10.6454 8.60546 10.517 8.38398 10.4439 8.14216C10.0986 8.75093 9.91763 9.43912 9.91895 10.139C9.9186 11.007 10.198 11.8519 10.7158 12.5484C10.246 12.0532 9.67493 11.6649 9.04159 11.4101C8.40824 11.1553 7.72744 11.04 7.04551 11.0719C7.18278 11.1998 7.29696 11.3504 7.38301 11.5172C8.02547 11.5176 8.66118 11.6482 9.25174 11.9012C9.84229 12.1541 10.3754 12.5242 10.8189 12.989C9.96205 12.2722 8.87986 11.8805 7.7627 11.8828C7.11582 11.8828 6.49707 12.0093 5.93457 12.2484C6.2467 13.0713 6.81779 13.7704 7.56179 14.2405C8.30579 14.7105 9.18241 14.9261 10.0596 14.8547C9.82137 14.8979 9.57979 14.9199 9.3377 14.9203C8.28619 14.9216 7.27559 14.513 6.52051 13.7812ZM12.0002 18.2203H9.34707C10.1914 18.5556 11.0917 18.7273 12.0002 18.7265C12.04 18.6497 12.0609 18.5646 12.0611 18.4781C12.0622 18.3885 12.0413 18.3 12.0002 18.2203ZM12.0002 16.9922H7.31738C7.44494 17.1014 7.57627 17.2062 7.71113 17.3062H12.0002C12.0408 17.2648 12.0643 17.2095 12.0658 17.1515C12.0658 17.0578 12.0096 17.0062 12.0002 16.9922ZM12.0002 17.6203H8.16582C8.39862 17.7668 8.63964 17.8998 8.8877 18.0187H12.0002C12.0394 17.9555 12.059 17.8821 12.0564 17.8078C12.0546 17.7414 12.0352 17.6767 12.0002 17.6203Z" fill="white"/>
<path d="M7.29375 9.92339L6.96563 8.21714L6.22969 9.79214L7.74844 8.94839L6.02344 8.73745L7.29375 9.92339ZM9.60469 7.16714L8.21719 6.12183L8.72344 7.7812L9.29062 6.14058L7.87031 7.13901L9.60469 7.16714Z" fill="#FBD116"/>
<path d="M11.9998 16.5797H17.1232C17.187 16.5152 17.2495 16.4496 17.3107 16.3828H11.9998C11.9803 16.39 11.9633 16.4026 11.9508 16.4193C11.9383 16.4359 11.9309 16.4558 11.9295 16.4765C11.9295 16.5234 11.9576 16.5656 11.9998 16.5797ZM11.9998 15.014C11.9717 14.9531 11.9107 14.8125 11.9389 14.639C11.9485 14.5721 11.9691 14.5072 11.9998 14.4469C12.4612 14.8844 13.018 15.2086 13.6264 15.3937C14.0064 15.5087 14.4012 15.5671 14.7982 15.5672H17.9576C17.8639 15.7049 17.7654 15.8394 17.6623 15.9703H14.6154C13.6578 15.9716 12.7308 15.6327 11.9998 15.014ZM17.4795 13.7812C17.6342 13.8402 17.797 13.875 17.9623 13.8844C17.5826 14.3159 17.1154 14.6617 16.5916 14.8985C16.0678 15.1353 15.4996 15.2578 14.9248 15.2578C14.3783 15.2583 13.8374 15.1481 13.3347 14.9338C12.8319 14.7195 12.3779 14.4055 11.9998 14.0109C11.8589 13.0342 11.7837 12.0492 11.7748 11.0625C11.7628 9.93025 11.838 8.79877 11.9998 7.6781C12.3279 7.97341 12.9467 8.6156 13.2373 9.59529C13.3488 9.96953 13.4056 10.3579 13.4061 10.7484C13.4073 11.5513 13.169 12.3363 12.7217 13.0031C13.2708 12.2933 13.5677 11.4208 13.5654 10.5234C13.5677 9.92392 13.4364 9.33144 13.1811 8.78904C13.3546 8.60546 13.483 8.38398 13.5561 8.14216C13.9014 8.75093 14.0824 9.43912 14.0811 10.139C14.0814 11.007 13.802 11.8519 13.2842 12.5484C13.754 12.0532 14.3251 11.6649 14.9584 11.4101C15.5918 11.1553 16.2726 11.04 16.9545 11.0719C16.8172 11.1998 16.703 11.3504 16.617 11.5172C15.9745 11.5176 15.3388 11.6482 14.7483 11.9012C14.1577 12.1541 13.6246 12.5242 13.1811 12.989C14.038 12.2722 15.1201 11.8805 16.2373 11.8828C16.8842 11.8828 17.5029 12.0093 18.0654 12.2484C17.7533 13.0713 17.1822 13.7704 16.4382 14.2405C15.6942 14.7105 14.8176 14.9261 13.9404 14.8547C14.1786 14.8979 14.4202 14.9199 14.6623 14.9203C15.7138 14.9216 16.7244 14.513 17.4795 13.7812ZM11.9998 18.2203H14.6529C13.8086 18.5556 12.9083 18.7273 11.9998 18.7265C11.96 18.6497 11.9391 18.5646 11.9389 18.4781C11.9378 18.3885 11.9587 18.3 11.9998 18.2203ZM11.9998 16.9922H16.6826C16.5551 17.1014 16.4237 17.2062 16.2889 17.3062H11.9998C11.9592 17.2648 11.9357 17.2095 11.9342 17.1515C11.9342 17.0578 11.9904 17.0062 11.9998 16.9922ZM11.9998 17.6203H15.8342C15.6014 17.7668 15.3604 17.8998 15.1123 18.0187H11.9998C11.9606 17.9555 11.941 17.8821 11.9436 17.8078C11.9454 17.7414 11.9648 17.6767 11.9998 17.6203Z" fill="white"/>
<path d="M16.7062 9.92339L17.0344 8.21714L17.7703 9.79214L16.2516 8.94839L17.9766 8.73745L16.7062 9.92339ZM14.3953 7.16714L15.7828 6.12183L15.2766 7.7812L14.7094 6.14058L16.1297 7.13901L14.3953 7.16714Z" fill="#FBD116"/>
</g>
<defs>
<clipPath id="clip0_208_22477">
<rect width="24" height="24" rx="12" fill="white"/>
</clipPath>
</defs>
</svg>
