<svg width="24" height="24" viewBox="0 0 24 24" fill="none" xmlns="http://www.w3.org/2000/svg">
<g clip-path="url(#clip0_208_26388)">
<mask id="mask0_208_26388" style="mask-type:luminance" maskUnits="userSpaceOnUse" x="-1" y="0" width="25" height="24">
<path d="M-0.000976562 0H23.9953V23.9963H-0.000976562V0Z" fill="white"/>
</mask>
<g mask="url(#mask0_208_26388)">
<path fill-rule="evenodd" clip-rule="evenodd" d="M-6 0H29.9945V23.9963H-6V0Z" fill="#3E5EB9"/>
<path fill-rule="evenodd" clip-rule="evenodd" d="M-6 4.28638H29.9945V19.7147H-6V4.28638Z" fill="#FFD900"/>
<path fill-rule="evenodd" clip-rule="evenodd" d="M-6 5.99902H29.9945V17.9972H-6V5.99902Z" fill="#B10C0C"/>
<path d="M26.4822 11.7417H-2.15858C-2.29752 11.7417 -2.41016 11.8565 -2.41016 11.9981C-2.41016 12.1397 -2.29752 12.2545 -2.15858 12.2545H26.4822C26.6211 12.2545 26.7338 12.1397 26.7338 11.9981C26.7338 11.8565 26.6211 11.7417 26.4822 11.7417Z" fill="#FFD900" stroke="black" stroke-width="0.167716"/>
<path fill-rule="evenodd" clip-rule="evenodd" d="M23.5677 9.25708L22.1104 9.77087L23.5677 10.2847L25.0251 9.77087L23.5677 9.25708Z" fill="white" stroke="black" stroke-width="0.160693"/>
<path d="M22.6069 9.59863H1.55685C1.45264 9.59863 1.36816 9.67444 1.36816 9.76796V9.7728C1.36816 9.86632 1.45264 9.94213 1.55685 9.94213H22.6069C22.7111 9.94213 22.7955 9.86632 22.7955 9.7728V9.76796C22.7955 9.67444 22.7111 9.59863 22.6069 9.59863Z" fill="#FFD900" stroke="black" stroke-width="0.167716"/>
<path d="M22.2818 9.94213C22.3665 9.94213 22.4512 9.85505 22.4512 9.76796C22.4512 9.68088 22.3665 9.59863 22.2818 9.59863" stroke="black" stroke-width="0.161267"/>
<path d="M22.1129 9.94213C22.1976 9.94213 22.2822 9.85505 22.2822 9.76796C22.2822 9.68088 22.1976 9.59863 22.1129 9.59863" stroke="black" stroke-width="0.161267"/>
<path d="M21.9391 9.94701C22.0237 9.94701 22.1084 9.85993 22.1084 9.77284C22.1084 9.68576 22.0237 9.60352 21.9391 9.60352" stroke="black" stroke-width="0.161267"/>
<path fill-rule="evenodd" clip-rule="evenodd" d="M22.1986 10.2874L20.7412 10.8011L22.1986 11.3149L23.656 10.8011L22.1986 10.2874Z" fill="white" stroke="black" stroke-width="0.160693"/>
<path d="M21.2377 10.6289H0.187705C0.0834999 10.6289 -0.000976562 10.7047 -0.000976562 10.7982V10.8031C-0.000976562 10.8966 0.0834999 10.9724 0.187705 10.9724H21.2377C21.3419 10.9724 21.4264 10.8966 21.4264 10.8031V10.7982C21.4264 10.7047 21.3419 10.6289 21.2377 10.6289Z" fill="#FFD900" stroke="black" stroke-width="0.167716"/>
<path d="M20.9127 10.9724C20.9974 10.9724 21.082 10.8853 21.082 10.7982C21.082 10.7112 20.9974 10.6289 20.9127 10.6289" stroke="black" stroke-width="0.161267"/>
<path d="M20.7438 10.9724C20.8284 10.9724 20.9131 10.8853 20.9131 10.7982C20.9131 10.7112 20.8284 10.6289 20.7438 10.6289" stroke="black" stroke-width="0.161267"/>
<path d="M20.5699 10.9773C20.6546 10.9773 20.7393 10.8902 20.7393 10.8031C20.7393 10.716 20.6546 10.6338 20.5699 10.6338" stroke="black" stroke-width="0.161267"/>
<path fill-rule="evenodd" clip-rule="evenodd" d="M24.6749 11.7949C24.4186 12.2431 24.8754 11.6467 25.9987 12.3986C26.2038 12.5359 26.3856 12.9046 26.3856 13.1613C26.3343 13.1251 26.2923 13.0529 26.2364 12.9986C26.1525 13.0818 26.3157 13.4541 26.339 13.6312C26.1618 13.5336 26.1805 13.4866 26.1199 13.3637C26.1339 13.5083 26.0919 13.9132 26.1618 14.065C26.022 14.0288 26.0313 13.9168 25.9614 13.8915C26.008 14.0686 25.9148 14.2566 25.9428 14.4554C25.8589 14.3758 25.775 14.3108 25.7377 14.2782C25.733 14.3722 25.5839 14.618 25.5792 14.7084C25.5093 14.665 25.4906 14.6 25.4813 14.5566C25.3974 14.665 25.0944 15.0626 25.0758 15.1783C24.8427 14.9723 24.2461 14.4734 24.1669 14.206C24.0969 14.3578 23.9991 14.4084 23.8033 14.5204C23.7241 14.0975 23.4304 13.624 23.5889 13.2625C23.4816 13.3294 23.3789 13.4006 23.2812 13.4758C23.3485 13.1355 23.5074 12.81 23.7475 12.5204C23.9876 12.2308 24.3036 11.9836 24.6749 11.7949Z" fill="#3D5DA7" stroke="black" stroke-width="0.145946"/>
<path fill-rule="evenodd" clip-rule="evenodd" d="M23.71 14.0251C23.8212 13.8074 23.918 13.7349 23.9906 13.5994C24.1115 13.3575 24.1309 13.164 24.2325 13.1882C24.3437 13.2172 24.3437 13.3188 24.2034 13.5607C24.068 13.8026 24.0002 13.851 23.71 14.0251ZM24.4405 14.538C24.426 14.3735 24.4744 14.3057 24.4647 14.1993C24.4502 14.0106 24.3776 13.8848 24.4744 13.8752C24.5711 13.8655 24.6195 13.9284 24.6195 14.1171C24.6195 14.3057 24.5905 14.3541 24.4405 14.538ZM24.992 14.8573C24.9533 14.6299 24.9823 14.5283 24.9533 14.3783C24.9049 14.1219 24.8082 13.9477 24.9049 13.9235C24.9969 13.8994 25.0501 13.9864 25.0839 14.2477C25.1226 14.5138 25.1033 14.5863 24.9969 14.8573H24.992ZM25.5726 13.2511C25.4323 13.1543 25.3549 13.1446 25.2678 13.0769C25.113 12.9608 25.0356 12.835 24.9872 12.8979C24.9388 12.9608 24.9727 13.0285 25.1323 13.135C25.2968 13.2414 25.35 13.2511 25.5677 13.2511H25.5726ZM25.4758 14.0155C25.4032 13.8655 25.3307 13.8268 25.2823 13.7349C25.2001 13.5655 25.2001 13.4204 25.113 13.4591C25.0259 13.493 25.0162 13.5704 25.113 13.7349C25.2097 13.8945 25.2581 13.9235 25.4758 14.0155Z" fill="#A70000"/>
<path fill-rule="evenodd" clip-rule="evenodd" d="M-1.1551 12.2278C-1.17109 12.095 -1.13911 12.0802 -1.22439 11.9818C-1.10712 12.031 -1.10179 12.1638 -0.95787 12.0704C-0.904565 12.0409 -0.883243 12.0409 -0.947208 11.8982C-0.797955 11.8982 -0.307552 12.0704 -0.232925 12.0753C-0.0250366 12.0851 0.348097 11.8588 0.60396 12.1343C0.854492 12.3852 0.769205 12.6459 0.769205 12.9952C0.673257 12.946 0.7159 12.9264 0.609291 12.7985C0.694578 13.1035 0.609291 13.6544 0.609291 13.9791C0.566647 13.9004 0.571976 13.9299 0.534663 13.8512C0.428053 14.1464 0.300122 14.2103 0.300122 14.5547C0.262809 14.4219 0.300123 14.4465 0.257479 14.3776C0.15087 14.599 -0.542092 14.7908 -0.275568 15.0171C-0.510109 14.8794 -0.616719 14.8941 -0.728658 14.7662C-0.776633 14.7957 -0.813946 14.8548 -0.85659 14.9335C-1.28303 14.7367 -1.12311 14.3186 -1.45893 14.0381C-1.51224 14.1562 -1.49092 14.1365 -1.55488 14.3284C-1.61885 14.0627 -1.64017 13.8906 -1.7148 13.6987C-1.77876 13.8069 -1.7681 13.7627 -1.8907 13.9299C-1.94401 13.6052 -2.01863 13.5265 -1.98665 13.315C-2.11458 13.4035 -2.0293 13.3642 -2.15723 13.4773C-2.03996 12.641 -1.5229 12.031 -1.1551 12.2278Z" fill="#3D5DA7" stroke="black" stroke-width="0.182074"/>
<path fill-rule="evenodd" clip-rule="evenodd" d="M-1.67578 13.5849C-1.56451 13.3188 -1.46775 13.2317 -1.39518 13.0624C-1.27423 12.7576 -1.25004 12.5157 -1.14844 12.5544C-1.04201 12.5883 -1.04685 12.714 -1.18715 13.014C-1.28313 13.2512 -1.45272 13.4513 -1.67094 13.5849H-1.67578ZM-1.25972 14.2525C-1.21617 14.0106 -1.14844 13.9235 -1.11941 13.7687C-1.07104 13.4978 -1.10006 13.2994 -1.0033 13.3091C-0.906544 13.3188 -0.882354 13.4204 -0.945248 13.6962C-1.01298 13.9622 -1.05652 14.0251 -1.25972 14.2525ZM-0.766243 14.717C-0.756567 14.4847 -0.698512 14.3928 -0.693674 14.2428C-0.67916 13.9816 -0.727539 13.7929 -0.635618 13.7929C-0.538859 13.7929 -0.509831 13.8897 -0.538859 14.1509C-0.567886 14.4122 -0.601752 14.4799 -0.766243 14.717ZM0.293272 13.1978C0.0900776 12.9947 -0.030872 12.9559 -0.161497 12.8302C-0.39372 12.6028 -0.504993 12.3851 -0.587238 12.4625C-0.669484 12.5399 -0.621104 12.656 -0.379206 12.8689C-0.137307 13.0866 -0.0502235 13.1204 0.293272 13.1978ZM0.172323 13.9816C0.0368596 13.7784 -0.0598998 13.7252 -0.142145 13.5946C-0.29696 13.3623 -0.34534 13.1688 -0.432423 13.2172C-0.519507 13.2656 -0.500155 13.3672 -0.335664 13.5897C-0.171173 13.8123 -0.108279 13.851 0.172323 13.9768V13.9816Z" fill="#A70000"/>
<path fill-rule="evenodd" clip-rule="evenodd" d="M20.5704 11.9973C18.8577 13.7099 16.5709 17.141 11.9974 17.141C7.99803 17.141 5.14038 13.7128 3.42773 11.9973C5.14038 10.2846 7.99803 6.85645 11.9974 6.85645C16.5709 6.85645 18.8545 10.2817 20.5704 11.9973Z" fill="white" stroke="black" stroke-width="0.16319"/>
<path fill-rule="evenodd" clip-rule="evenodd" d="M11.4027 8.64552C11.8574 9.15834 11.4752 9.36637 11.959 9.40024C12.467 9.43411 12.1816 9.94209 12.6073 9.95661C12.9073 9.97112 12.5783 11.1661 12.8686 11.5628C13.1588 11.974 13.4056 11.6838 13.4104 11.9789C13.4153 12.2885 12.6122 12.2546 12.5976 13.2029C12.5734 13.7496 11.9203 13.7834 11.8865 14.1366C11.8478 14.4656 13.1782 14.6494 13.1588 14.9494C13.1443 15.2397 11.7268 15.1913 11.6639 15.5299C11.6349 15.8347 13.6088 16.0815 13.7684 16.9523C13.4781 17.0491 12.6363 17.1458 11.9977 17.1458C8.00157 17.1458 5.14233 13.7109 3.42969 11.9982C5.14233 10.2856 8.00157 6.85547 11.9977 6.85547C11.9977 6.85547 10.8124 7.94401 11.4027 8.64552Z" fill="black"/>
<path fill-rule="evenodd" clip-rule="evenodd" d="M6.62695 10.1694H7.04302V11.5434H6.62695V10.1694ZM6.62695 12.4578H7.04302V13.8269H6.62695V12.4578ZM7.45908 10.1694H7.87515V11.5434H7.45908V10.1694ZM7.45908 12.4578H7.87515V13.8269H7.45908V12.4578ZM8.29121 10.1694H8.70728V11.5434H8.29121V10.1694ZM8.29121 12.4578H8.70728V13.8269H8.29121V12.4578ZM9.12335 10.1694H9.53941V11.5434H9.12335V10.1694ZM9.12335 12.4578H9.53941V13.8269H9.12335V12.4578ZM9.95064 10.1694H10.3667V11.5434H9.95064V10.1694ZM9.95064 12.4578H10.3667V13.8269H9.95064V12.4578ZM10.7828 10.1694H11.1988V11.5434H10.7876L10.7828 10.1694ZM10.7828 12.4578H11.1988V13.8269H10.7876L10.7828 12.4578Z" fill="white"/>
<path fill-rule="evenodd" clip-rule="evenodd" d="M12.917 10.1694H13.3282V11.5434H12.917V10.1694ZM12.917 12.4578H13.3282V13.8269H12.917V12.4578ZM13.7443 10.1694H14.1604V11.5434H13.7443V10.1694ZM13.7443 12.4578H14.1604V13.8269H13.7443V12.4578ZM14.5764 10.1694H14.9925V11.5434H14.5764V10.1694ZM14.5764 12.4578H14.9925V13.8269H14.5764V12.4578ZM15.4085 10.1694H15.8246V11.5434H15.4085V10.1694ZM15.4085 12.4578H15.8246V13.8269H15.4085V12.4578ZM16.2407 10.1694H16.6567V11.5434H16.2407V10.1694ZM16.2407 12.4578H16.6567V13.8269H16.2407V12.4578ZM17.068 10.1694H17.484V11.5434H17.068V10.1694ZM17.068 12.4578H17.484V13.8269H17.068V12.4578Z" fill="black"/>
<path fill-rule="evenodd" clip-rule="evenodd" d="M9.22573 7.77441C8.99128 8.23213 9.64348 7.62307 10.6665 8.39086C10.9235 8.66888 11.0846 9.00413 11.1312 9.35797C10.9138 9.31368 10.5259 9.09958 10.5259 9.09958C10.5259 9.09958 10.9777 9.54992 10.9777 10.0741C10.82 9.97441 10.739 9.98918 10.6878 9.86737C10.6878 10.0335 10.8285 10.1442 10.8285 10.4063C10.7326 10.3279 10.6284 10.2575 10.5173 10.1959C10.6665 10.458 10.2403 10.9674 10.4534 11.1372C10.0825 11.0818 9.69889 10.8419 9.5497 10.5835C9.46871 10.6352 9.46444 10.7201 9.45592 10.8123C9.4687 10.8197 8.88897 10.3805 8.94439 10.2107C8.8634 10.3214 8.85487 10.3805 8.83782 10.506C8.61218 10.3136 8.44647 10.0748 8.35613 9.812L8.16005 10.0593C8.09184 9.62743 8.09184 9.6422 8.23251 9.27307C8.1344 9.34135 8.04049 9.41405 7.95117 9.49086C8.01246 9.14328 8.15764 8.81078 8.37724 8.51503C8.59685 8.21929 8.88596 7.96693 9.22573 7.77441Z" fill="#3D5DA7" stroke="black" stroke-width="0.141039"/>
<path fill-rule="evenodd" clip-rule="evenodd" d="M8.63965 10.0146C8.67835 9.70016 8.7606 9.57921 8.78479 9.37601C8.83317 9.018 8.77995 8.75192 8.90574 8.76159C9.03152 8.76643 9.07023 8.90189 9.00733 9.2599C8.94444 9.61791 8.89122 9.70016 8.63965 10.0146ZM9.30245 10.5952C9.27826 10.3243 9.32664 10.213 9.31213 10.0388C9.2831 9.73886 9.19118 9.53567 9.30245 9.51632C9.41372 9.49696 9.46694 9.59856 9.48145 9.90335C9.49113 10.2081 9.4621 10.2904 9.30245 10.5952ZM10.3378 11.0645C10.2265 10.8371 10.1297 10.7645 10.0572 10.6194C9.93139 10.3581 9.90236 10.1404 9.8056 10.184C9.70884 10.2178 9.70884 10.3291 9.85398 10.5855C9.99912 10.8419 10.062 10.8951 10.3378 11.0693V11.0645ZM10.6958 8.99865C10.4103 8.84384 10.2604 8.84384 10.0765 8.74708C9.75238 8.57775 9.5637 8.38423 9.49597 8.49067C9.42824 8.5971 9.52016 8.70354 9.85398 8.85835C10.1926 9.01317 10.2894 9.018 10.6958 8.99865ZM10.8022 9.85981C10.5942 9.68564 10.4684 9.66629 10.3378 9.55018C10.0959 9.35666 9.97977 9.16314 9.90236 9.24055C9.82011 9.31796 9.87333 9.41956 10.1249 9.6034C10.3716 9.79208 10.4587 9.81143 10.8022 9.85981Z" fill="#A70000"/>
</g>
</g>
<defs>
<clipPath id="clip0_208_26388">
<rect width="24" height="24" rx="12" fill="white"/>
</clipPath>
</defs>
</svg>
