<svg width="24" height="24" viewBox="0 0 24 24" fill="none" xmlns="http://www.w3.org/2000/svg">
<g clip-path="url(#clip0_208_26541)">
<path d="M24 24V0H0V24H24Z" fill="#000066"/>
<path d="M22.0824 10.2844C22.0824 12.9938 21.6512 15.9188 18.1262 17.3157C14.6199 15.9188 14.1887 12.9938 14.1699 10.2844H22.0824Z" fill="#8FC5FF" stroke="white" stroke-width="0.443326"/>
<path d="M18.1262 17.2968C19.4618 16.8299 20.5762 15.8826 21.2527 14.639H20.9199C20.8215 14.625 17.5449 14.3109 17.1465 14.1422C16.8184 14.025 15.5152 14.2593 14.9199 14.4703C15.5766 15.7975 16.7279 16.8141 18.1262 17.3015V17.2968Z" fill="#366CC9" stroke="black" stroke-width="0.443326"/>
<path d="M15.6654 15.6374H15.867C15.9139 15.6374 15.9139 15.6374 15.9326 15.5906C15.9514 15.539 15.9982 15.5531 16.0311 15.5718C16.0639 15.5859 16.1342 15.5718 16.167 15.539C16.1998 15.5062 16.1998 15.5062 16.2326 15.539C16.2654 15.5718 16.2795 15.5531 16.317 15.539C16.3311 15.539 16.3967 15.5062 16.4107 15.4546C16.4295 15.4077 16.4811 15.389 16.4998 15.4218C16.5139 15.4546 16.5467 15.4546 16.5795 15.4546C16.617 15.4546 16.617 15.4734 16.617 15.5202C16.617 15.5531 16.617 15.5671 16.6967 15.5062C16.7623 15.5718 16.7811 15.539 16.7811 15.4734C16.7811 15.4031 16.7811 15.1406 16.7482 15.1218C16.7154 15.1077 16.7014 14.9906 16.6826 14.9062C16.6826 14.7421 16.6826 14.7421 16.5139 14.6577C16.5139 14.6109 16.4811 14.5921 16.3498 14.5921C16.3639 14.5734 16.3498 14.5218 16.317 14.5077C16.2842 14.489 16.2842 14.4749 16.317 14.4093C16.3498 14.4093 16.4107 14.4093 16.4295 14.3577C16.467 14.3249 16.5654 14.3249 16.6311 14.3577C16.6967 14.3906 16.7623 14.3906 16.8795 14.3577L17.0811 14.2593C17.1654 14.2124 17.1795 14.1937 17.1795 14.1234C17.1795 13.9593 17.1326 13.7952 17.0951 13.7109C17.0482 13.6265 17.0482 13.5421 16.9826 13.3921C16.9123 13.2609 16.9123 13.2281 16.8467 13.1437C16.8139 13.1109 16.7998 13.0968 16.7998 13.0452C16.795 12.9801 16.7647 12.9195 16.7154 12.8765C16.5795 12.764 16.5467 12.3796 16.4811 12.0984C16.4482 11.9296 16.4811 11.5499 16.4154 11.4796C16.2982 11.3999 16.2467 11.414 16.167 11.3859C16.1014 11.2968 16.0826 11.1515 16.017 11.0015C15.9326 11.0156 15.8811 11.0952 15.8295 11.1327C15.7826 11.1656 15.7686 11.1656 15.7686 11.2499C15.7686 11.3156 15.717 11.414 15.6514 11.5499C15.5857 11.6812 15.4357 11.6296 15.3186 11.8124C15.0842 11.5312 15.0842 11.4468 15.0701 11.3671C15.0701 11.2827 15.0186 11.264 14.8826 11.1468V10.8984C14.7701 10.8187 14.7045 10.8327 14.6529 10.8984C14.6061 10.9452 14.5686 11.0343 14.4889 11.0671C14.4514 11.1327 14.3201 11.264 14.2217 11.4468C14.3201 12.9468 14.6529 14.4421 15.6654 15.6374Z" fill="#5D3100" stroke="black" stroke-width="0.05"/>
<path d="M22.0824 10.2844C22.0824 9.25311 22.0355 8.25467 22.0496 7.39217C20.7991 6.90641 19.4676 6.66302 18.1262 6.67498C17.2449 6.67498 15.5152 6.81092 14.2027 7.39217C14.2355 8.25467 14.1699 9.25311 14.1699 10.2844H22.0824Z" fill="#FFFF00" stroke="white" stroke-width="0.443326"/>
<path d="M14.3906 11.461C14.4328 11.5313 14.5125 11.6485 14.5172 11.7141C14.5547 11.6532 14.5734 11.6204 14.5781 11.5875C14.5875 11.55 14.6344 11.4704 14.6156 11.4329C14.5922 11.3907 14.5875 11.3579 14.6344 11.386C14.6813 11.4188 14.6719 11.4704 14.6625 11.5454C14.6344 11.7563 14.5453 11.8032 14.5312 11.9485C14.6578 12.2438 14.5641 12.3516 14.7 12.6469C14.7234 12.661 14.7797 12.6375 14.7984 12.6469C14.8734 12.5907 14.925 12.6094 15.0328 12.6282C15.1313 12.6516 15.1875 12.7219 15.1875 12.7922C15.1875 12.8579 15.1875 12.8719 15.2109 12.9094C15.2344 12.9563 15.2813 13.0125 15.2672 13.05C15.2578 13.0969 15.2766 13.1204 15.2906 13.1438C15.3047 13.1672 15.2859 13.2094 15.2719 13.2422C15.2578 13.2797 15.2625 13.3125 15.3187 13.3829C15.3656 13.4438 15.4875 13.711 15.4875 13.875C15.4875 14.0297 15.4969 14.1094 15.5625 14.1375C15.6281 14.1704 15.6516 14.1938 15.6375 14.2641C15.6416 14.4258 15.6557 14.587 15.6797 14.7469C15.6891 14.8032 15.7078 14.7938 15.7313 14.8219C15.7594 14.85 15.7781 14.8875 15.8625 14.8875C15.9562 14.8875 16.0312 14.8735 16.0922 14.8875C16.1672 14.9907 16.2141 15.136 16.2328 15.2297C16.2469 15.3235 16.2469 15.4454 16.2797 15.4454C16.3078 15.4454 16.3406 15.4454 16.3266 15.3375C16.3172 15.225 16.3125 15.2063 16.275 15.15C16.2328 15.0938 16.2141 15.0657 16.2328 15.0329C16.2562 15 16.2609 14.9391 16.2516 14.8969C16.2422 14.8547 16.2328 14.7891 16.3031 14.8735L16.425 15.0141C16.4484 15.0469 16.4531 15.0985 16.4484 15.1547C16.4437 15.2016 16.4531 15.225 16.4813 15.2016C16.5141 15.1735 16.5516 15.2204 16.5328 15.2766C16.5188 15.3328 16.5328 15.3704 16.5891 15.3844C16.6453 15.3985 16.6641 15.4125 16.6734 15.45C16.6828 15.4875 16.7344 15.5063 16.7344 15.4313C16.7344 15.3516 16.7016 15.1875 16.6828 15.136C16.6594 15.0844 16.6406 14.9719 16.6359 14.9016C16.6359 14.8407 16.6219 14.8266 16.5891 14.8079C16.5609 14.7985 16.5328 14.7797 16.5281 14.7422C16.5281 14.7094 16.4953 14.7094 16.4813 14.7094C16.4625 14.7094 16.4438 14.6907 16.4344 14.6719C16.425 14.6485 16.4109 14.6485 16.3875 14.6438C16.3688 14.6438 16.3313 14.6532 16.3219 14.6204C16.3125 14.5875 16.2938 14.536 16.275 14.5079C16.2563 14.475 16.2328 14.4704 16.2281 14.3672C16.2281 14.2735 16.2281 14.2641 16.1953 14.2266C16.1561 14.1751 16.1216 14.1202 16.0922 14.0625C16.0734 14.0297 16.0453 13.9875 16.0453 14.0672C16.0453 14.1469 16.0453 14.1938 16.1016 14.2219C16.1531 14.2547 16.1672 14.2547 16.1437 14.2969C16.1203 14.3391 16.1438 14.3719 16.1531 14.4C16.1625 14.4329 16.1813 14.461 16.1531 14.4938C16.125 14.5219 16.1016 14.5125 16.1063 14.4657C16.1084 14.4167 16.0971 14.368 16.0734 14.325C16.05 14.2829 16.0312 14.2547 16.0078 14.2782C15.9797 14.3016 15.9609 14.2782 15.975 14.2594C15.9937 14.2454 15.9891 14.2266 15.975 14.2125C15.9609 14.2079 15.9609 14.1891 15.9844 14.1657C16.0078 14.1375 16.0031 14.1235 15.9891 14.0625C15.975 14.0063 15.8812 13.7016 15.8391 13.6313C15.7922 13.561 15.8016 13.5094 15.8531 13.5844C15.9094 13.65 15.9609 13.7063 15.9609 13.7672C15.9703 13.8235 15.9844 13.861 15.9938 13.8797C16.0078 13.9032 16.0313 13.8891 16.0359 13.8469C16.0406 13.8 16.0828 13.8141 16.0172 13.7204C15.9609 13.6313 15.8484 13.4813 15.8063 13.2047C15.7594 12.9329 15.7453 12.7547 15.6984 12.6844C15.6562 12.6094 15.6422 12.5907 15.6375 12.5204C15.6375 12.45 15.6375 12.3797 15.6047 12.3329C15.5719 12.286 15.5578 12.2719 15.5531 12.3516C15.5474 12.446 15.5553 12.5407 15.5766 12.6329C15.6 12.661 15.5906 12.736 15.5812 12.7829C15.5766 12.825 15.5109 12.8672 15.6516 12.9563C15.7078 12.9891 15.6984 13.036 15.6891 13.0641C15.6844 13.0969 15.675 13.0922 15.6422 13.0454C15.6141 12.9985 15.5813 12.961 15.5484 12.9329C15.5203 12.9047 15.5203 12.886 15.5203 12.8297C15.525 12.7735 15.5391 12.7266 15.5203 12.7032C15.5063 12.6844 15.4969 12.7032 15.4875 12.736C15.4781 12.7688 15.4734 12.8625 15.4547 12.886C15.4359 12.9094 15.4266 12.9 15.4125 12.8391C15.3984 12.7829 15.4172 12.6985 15.4453 12.6C15.4781 12.4969 15.4969 12.3985 15.4734 12.2672C15.4453 12.136 15.4594 12.0985 15.3563 11.986C15.2578 11.8829 15.15 11.7797 15.0984 11.6438C15.0516 11.5079 15.0422 11.3954 14.9906 11.3344C14.9421 11.272 14.8835 11.2181 14.8172 11.175V10.9688C14.8172 10.9219 14.7937 10.8938 14.7422 10.9032C14.6859 10.9125 14.6484 10.9547 14.6156 11.025C14.5828 11.086 14.5547 11.0579 14.5078 11.1657C14.4562 11.2782 14.3906 11.3344 14.3906 11.4563V11.461Z" fill="#CF6200"/>
<path d="M14.705 12.7313C14.7378 12.7548 14.7707 12.7642 14.8222 12.7407C14.8691 12.7173 14.9347 12.6376 15.0097 12.7126C15.0759 12.7951 15.1122 12.8975 15.1128 13.0032C15.1128 13.097 15.1128 13.2751 15.2207 13.3735C15.3285 13.472 15.3894 13.5751 15.3894 13.7063C15.3941 13.8376 15.441 14.0345 15.4597 14.0907C15.4691 14.1376 15.4972 14.1985 15.53 14.2313C15.5675 14.2688 15.591 14.372 15.6003 14.4657C15.6003 14.5782 15.5863 14.6532 15.6003 14.7001C15.6144 14.747 15.6003 14.7938 15.5582 14.7657C15.5207 14.7423 15.5113 14.7329 15.4925 14.686C15.4738 14.6392 15.441 14.6532 15.4644 14.7188C15.4878 14.7892 15.5488 14.8407 15.605 14.8407C15.6613 14.8407 15.68 14.8501 15.7128 14.8876C15.7457 14.9204 15.755 14.9392 15.816 14.9392C15.8769 14.9392 15.8816 14.9392 15.9378 14.9579C15.9941 14.972 15.9941 14.9626 16.0269 14.9579C16.055 14.9485 16.0878 14.972 16.1066 15.0282C16.1253 15.0892 16.1816 15.2438 16.1816 15.2813C16.1816 15.3235 16.1816 15.3704 16.2097 15.4126C16.2425 15.4595 16.2332 15.5017 16.1957 15.4735C16.1628 15.4454 16.1628 15.4595 16.1394 15.4595C16.1113 15.4642 16.0925 15.4548 16.0597 15.4313C16.0269 15.4079 16.0457 15.4126 16.0128 15.361C15.98 15.3142 15.9566 15.2907 15.9566 15.3282C15.9566 15.3657 15.9566 15.4173 15.9238 15.3985C15.9003 15.3751 15.8863 15.3751 15.8628 15.3985C15.8394 15.422 15.8347 15.436 15.8066 15.3938C15.7832 15.3517 15.755 15.347 15.7269 15.3376C15.6988 15.3282 15.6988 15.3329 15.6894 15.2907C15.6753 15.2532 15.6378 15.2438 15.6003 15.2438C15.5675 15.2438 15.5488 15.2298 15.5441 15.2017C15.5441 15.1735 15.5207 15.1548 15.5019 15.1454C15.4832 15.1313 15.4972 15.0985 15.4878 15.0704C15.4832 15.0423 15.4597 15.0517 15.441 15.047C15.4222 15.0423 15.4128 15.047 15.4128 15.0001C15.4128 14.9532 15.3941 14.9438 15.38 14.911C15.3707 14.8782 15.38 14.8501 15.3894 14.8173C15.3933 14.8027 15.3936 14.7875 15.3903 14.7728C15.3871 14.7581 15.3803 14.7444 15.3707 14.7329C15.3425 14.7001 15.366 14.672 15.2957 14.611C15.23 14.5501 15.1925 14.6017 15.1691 14.4563C15.1525 14.2921 15.1179 14.1302 15.066 13.9735C15.0332 13.9267 15.0003 13.8938 14.9628 13.8798C14.9253 13.8657 14.8972 13.8798 14.8972 13.7907C14.8878 13.711 14.8644 13.6079 14.8128 13.5563L14.7097 13.4626C14.6863 13.4485 14.6769 13.4063 14.7097 13.3313C14.7472 13.2563 14.7332 13.1579 14.7285 13.111C14.7285 13.0642 14.7097 13.0032 14.7238 12.9517C14.7332 12.9048 14.7238 12.8345 14.7097 12.8017C14.7003 12.7688 14.6816 12.7548 14.705 12.7313ZM15.7457 11.5032C15.6888 11.5786 15.6208 11.645 15.5441 11.7001C15.4597 11.7563 15.3566 11.7985 15.4128 11.9017C15.4738 11.9954 15.5207 12.0095 15.53 12.0845C15.5441 12.1595 15.5582 12.2204 15.6144 12.2392C15.6753 12.2579 15.6988 12.2438 15.6988 12.3657C15.6988 12.4876 15.6988 12.5345 15.7503 12.5767C15.8066 12.6235 15.7972 12.6704 15.816 12.7829C15.8394 12.8907 15.8394 13.1251 15.9097 13.2845C15.9847 13.4438 16.1394 13.7532 16.1207 13.8142C16.1019 13.8751 16.0785 13.9267 16.1488 14.0017C16.2113 14.0718 16.2534 14.1577 16.2707 14.2501C16.2753 14.3157 16.2847 14.3392 16.355 14.3157C16.4253 14.2923 16.4582 14.2688 16.4816 14.236C16.505 14.2079 16.5472 14.2173 16.6128 14.2501C16.6785 14.2829 16.7769 14.3157 16.8332 14.2829C16.8894 14.2501 16.9222 14.1985 16.9738 14.1985C17.0535 14.1376 17.0816 14.0157 17.1003 13.9829C17.1144 13.9501 17.1003 13.9501 17.0675 13.9173C17.0347 13.8845 17.0535 13.8235 17.0441 13.7673C17.0333 13.6708 17.0013 13.578 16.9503 13.4954C16.88 13.3688 16.8378 13.2142 16.791 13.1673C16.7441 13.1298 16.7253 13.036 16.7207 12.9892C16.7113 12.9423 16.6597 12.9001 16.6269 12.8673C16.5894 12.8345 16.5566 12.7829 16.5191 12.5767C16.4769 12.3751 16.4488 12.2345 16.4488 12.2017C16.4488 12.1642 16.4394 12.1548 16.4019 12.1501C16.3738 12.136 16.355 12.0798 16.3644 12.047C16.3738 12.0188 16.355 11.9907 16.341 11.9532C16.3269 11.9251 16.341 11.8595 16.3644 11.822C16.3878 11.7892 16.3832 11.6907 16.3597 11.611C16.3363 11.5313 16.3128 11.461 16.2238 11.447C16.13 11.4376 16.116 11.4142 16.0785 11.3392C16.041 11.2642 16.0082 11.1329 15.9941 11.1048C15.9847 11.072 15.9707 11.072 15.9003 11.1282C15.83 11.1845 15.8066 11.2032 15.8066 11.311C15.8066 11.3767 15.816 11.4048 15.8394 11.447C15.8628 11.4845 15.8722 11.4938 15.8863 11.6063C15.905 11.7188 16.0035 11.8876 15.8769 11.986C15.7457 12.0892 15.7691 12.1079 15.7738 12.1735C15.7738 12.2438 15.741 12.2907 15.7175 12.1923C15.6941 12.0985 15.7175 12.0376 15.7832 11.9907C15.8535 11.9438 15.9191 11.8876 15.8722 11.822C15.8253 11.761 15.8066 11.611 15.8066 11.5407C15.8019 11.4751 15.7832 11.447 15.7457 11.5032Z" fill="#CF6200"/>
<path d="M14.7191 12.9704L14.7285 13.111C14.7285 13.1579 14.7472 13.2563 14.7097 13.3266C14.6769 13.4016 14.6863 13.4438 14.7097 13.4673C14.7238 13.4632 14.7369 13.4561 14.7481 13.4465C14.7592 13.437 14.7682 13.4252 14.7744 13.4118C14.7806 13.3985 14.7839 13.384 14.7841 13.3693C14.7842 13.3546 14.7813 13.3401 14.7753 13.3266C14.7661 13.3057 14.7621 13.2827 14.7637 13.2599C14.7654 13.237 14.7726 13.2148 14.7847 13.1954C14.8035 13.1579 14.8035 13.1345 14.7847 13.1063C14.766 13.0782 14.766 13.0782 14.7847 12.9938C14.8082 12.9235 14.7566 12.9235 14.7191 12.9704ZM15.4597 14.0907C15.441 14.0345 15.3941 13.8376 15.3894 13.7063C15.3856 13.6423 15.3686 13.5797 15.3396 13.5224C15.3105 13.4652 15.2701 13.4145 15.2207 13.3735C15.1363 13.2985 15.1222 13.172 15.1128 13.0782C15.0519 13.036 15.0238 13.0548 15.0332 13.1251C15.0332 13.2048 15.1128 13.2423 15.1035 13.3501C15.0894 13.4673 15.0894 13.4345 15.1457 13.4907C15.1972 13.5516 15.2207 13.5985 15.1925 13.622C15.1644 13.6454 15.1597 13.6829 15.1972 13.697C15.2394 13.7157 15.2441 13.7579 15.2347 13.8001C15.2347 13.8376 15.2675 13.847 15.291 13.8751C15.3033 13.8965 15.3098 13.9207 15.3098 13.9454C15.3098 13.9701 15.3033 13.9943 15.291 14.0157C15.2722 14.0532 15.2675 14.1141 15.3097 14.0813C15.3519 14.0485 15.366 14.0813 15.3988 14.1376C15.4222 14.1845 15.4457 14.1704 15.4785 14.1516C15.4686 14.1306 15.4607 14.1086 15.455 14.086L15.4597 14.0907ZM16.0175 15.0938C15.9894 15.1407 15.9613 15.1266 15.9378 15.0985C15.9097 15.0751 15.8769 15.0751 15.891 15.0282C15.905 14.9813 15.9003 14.972 15.8628 14.9438C15.8597 14.9438 15.8566 14.9438 15.8535 14.9438H15.816C15.755 14.9438 15.7457 14.9204 15.7128 14.8876C15.707 14.8795 15.7007 14.8716 15.6941 14.8641V14.897C15.6941 14.9438 15.6941 14.9345 15.6472 14.9485C15.6003 14.9626 15.605 14.9016 15.5957 14.8641C15.5948 14.8562 15.5932 14.8484 15.591 14.8407C15.5394 14.8313 15.4832 14.7751 15.4644 14.7188C15.441 14.6485 15.4644 14.6438 15.4878 14.686C15.5066 14.7235 15.5207 14.7423 15.5582 14.7657C15.5957 14.7891 15.605 14.7516 15.5957 14.7001C15.5933 14.6814 15.5933 14.6625 15.5957 14.6438C15.5816 14.6251 15.5722 14.611 15.5535 14.6016C15.4878 14.5735 15.5066 14.5641 15.5113 14.5079C15.5113 14.4563 15.5019 14.4563 15.4597 14.4798C15.4128 14.5173 15.4128 14.4798 15.4128 14.3907C15.4128 14.3063 15.3519 14.3063 15.3425 14.3673C15.3285 14.4282 15.3097 14.386 15.2816 14.3016C15.2582 14.2126 15.2207 14.1938 15.216 14.2782C15.216 14.3438 15.1972 14.3626 15.1503 14.3251L15.1691 14.4563C15.1925 14.597 15.2253 14.5501 15.2957 14.611C15.366 14.672 15.3425 14.7048 15.366 14.7329C15.3941 14.761 15.3988 14.7798 15.3894 14.8173C15.38 14.8501 15.366 14.8829 15.38 14.911C15.3941 14.9438 15.4128 14.9579 15.4128 14.9954C15.4128 15.0376 15.4222 15.0376 15.441 15.047L15.4738 15.0516L15.5066 15.0048C15.5628 14.9579 15.6472 15.0095 15.666 15.0751C15.6894 15.136 15.7222 15.1595 15.7597 15.1079C15.7972 15.061 15.7878 15.061 15.83 15.1079C15.8675 15.1548 15.891 15.1501 15.891 15.1501C15.891 15.1501 15.9378 15.1313 15.966 15.1595C15.9941 15.1829 16.0128 15.1782 16.0644 15.0985C16.1253 15.0188 16.041 15.0423 16.0175 15.0985V15.0938ZM16.1722 12.722C16.1863 12.5954 16.1722 12.4688 16.2285 12.422C16.2753 12.3751 16.341 12.286 16.3363 12.4829C16.3363 12.6751 16.3269 12.6704 16.2894 12.7079C16.2425 12.7548 16.2097 12.7688 16.2519 12.8485C16.2941 12.9188 16.2988 12.9235 16.2941 13.036C16.2847 13.1532 16.2847 13.2001 16.3316 13.2563C16.3785 13.3173 16.3878 13.322 16.3972 13.3876C16.4141 13.4596 16.4497 13.5259 16.5003 13.5798C16.5472 13.6266 16.6128 13.7579 16.6175 13.8516C16.6269 13.9454 16.7066 13.9688 16.7816 14.0298C16.8519 14.0954 16.7628 14.1376 16.7066 14.1141C16.6503 14.0766 16.6738 14.1141 16.6363 14.147C16.6035 14.1938 16.5894 14.1938 16.5613 14.1282C16.5285 14.0626 16.4347 14.011 16.3878 13.9923C16.3457 13.9782 16.3035 13.9032 16.2613 13.8282C16.2455 13.7959 16.2217 13.7682 16.1921 13.7477C16.1626 13.7272 16.1283 13.7145 16.0925 13.711C16.116 13.7579 16.1253 13.8001 16.116 13.8141C16.1019 13.8798 16.0785 13.9266 16.1488 14.0016C16.2113 14.0718 16.2534 14.1577 16.2707 14.2501C16.2707 14.311 16.2847 14.3345 16.3503 14.311C16.4253 14.2876 16.4582 14.2641 16.4816 14.236C16.505 14.2079 16.5472 14.2126 16.6128 14.2501C16.6738 14.2829 16.7722 14.3157 16.8285 14.2829C16.8894 14.2501 16.9175 14.1985 16.9691 14.1985C17.0535 14.1376 17.0769 14.0157 17.0957 13.9829C17.1144 13.9501 17.1003 13.9501 17.0675 13.9173C17.0347 13.8845 17.0535 13.8235 17.0441 13.7673C17.0394 13.7063 17.016 13.622 16.9457 13.4954C16.8753 13.3641 16.8378 13.2141 16.791 13.1673C16.7441 13.1298 16.7253 13.036 16.716 12.9845C16.716 12.9376 16.6597 12.9001 16.6222 12.8626C16.5894 12.8298 16.5566 12.7829 16.5144 12.5813L16.4488 12.2345C16.4113 12.3048 16.3832 12.3188 16.3644 12.272C16.3503 12.2251 16.3269 12.1923 16.3035 12.2251C16.28 12.2579 16.2707 12.197 16.2707 12.1688C16.2707 12.1407 16.2707 12.136 16.2378 12.136C16.2097 12.136 16.2332 12.0891 16.2191 12.0001C16.2097 11.9157 16.191 11.9063 16.1816 12.0095C16.1722 12.1126 16.116 12.1735 16.1347 12.197C16.1582 12.2204 16.1488 12.2673 16.1253 12.3376C16.1019 12.4032 16.1113 12.4454 16.13 12.4923C16.1488 12.5391 16.116 12.6282 16.1066 12.6985C16.0925 12.7735 16.1535 12.8485 16.1722 12.722ZM15.1175 11.6907C15.0707 11.6907 15.0425 11.7282 15.0707 11.8595C15.0847 11.9391 15.0238 11.9251 15.005 11.8829C14.9769 11.8407 14.9582 11.7563 14.9113 11.6813C14.8691 11.6063 14.8878 11.7282 14.8878 11.8032C14.8785 11.8688 14.9253 11.8688 14.9675 11.9298C15.0097 11.9907 14.9675 12.0095 14.9253 12.0095C14.8832 12.0095 14.9019 12.1032 14.9113 12.1641C14.9253 12.2298 14.9019 12.2391 14.8691 12.1876C14.8363 12.136 14.855 12.0563 14.8644 11.9532C14.8691 11.8595 14.8738 11.8829 14.8082 11.8595C14.7472 11.836 14.7613 11.8266 14.78 11.7657C14.8035 11.7095 14.8269 11.6813 14.7988 11.6485C14.7707 11.6251 14.7753 11.6063 14.8222 11.6016C14.8691 11.5923 14.8503 11.5595 14.8878 11.5454C14.93 11.536 14.9488 11.5548 14.9582 11.4798C14.9582 11.4141 14.9816 11.3766 15.0238 11.4001C15.0566 11.4938 15.0894 11.6438 15.1175 11.686V11.6907ZM15.6941 12.3657C15.6941 12.4876 15.6941 12.5345 15.7457 12.5766C15.8019 12.6235 15.7925 12.6704 15.816 12.7829C15.8394 12.8907 15.8394 13.1251 15.9097 13.2845L15.9847 13.4579C16.0202 13.4284 16.049 13.3916 16.0691 13.3501C16.0878 13.3126 16.0363 13.2329 15.9941 13.1626C15.9519 13.0923 15.9988 13.0688 16.041 12.9845C16.0785 12.8907 16.0316 12.8907 15.9707 12.8673C15.905 12.8438 15.905 12.7876 15.8722 12.6938C15.8394 12.6001 15.8441 12.5626 15.8722 12.511C15.8863 12.4595 15.8722 12.4173 15.8253 12.4079C15.7785 12.3938 15.7925 12.361 15.8066 12.3048C15.83 12.2438 15.8394 12.2345 15.7691 12.2485C15.7175 12.2626 15.7035 12.272 15.6847 12.2954C15.6941 12.3095 15.6941 12.3329 15.6941 12.3657Z" fill="#00B800"/>
<path d="M16.359 12.6094C16.359 12.6751 16.359 12.7079 16.3403 12.7313C16.3215 12.7547 16.3309 12.7922 16.3497 12.8251C16.3637 12.8626 16.3778 12.9094 16.3637 12.9657C16.345 13.0313 16.3731 13.0876 16.4059 13.1063C16.4387 13.1204 16.4575 13.1063 16.4481 13.186C16.4441 13.2227 16.4484 13.2598 16.4605 13.2947C16.4727 13.3296 16.4925 13.3613 16.5184 13.3876C16.5606 13.4204 16.5887 13.4766 16.5887 13.5094C16.5794 13.5422 16.6122 13.5797 16.6544 13.5985C16.6965 13.6126 16.6872 13.6219 16.6872 13.6454C16.6872 13.6688 16.7059 13.6688 16.7528 13.6782C16.7997 13.6876 16.8325 13.7204 16.8887 13.7813C16.9403 13.8469 17.0106 13.8844 17.0012 13.8094C16.9919 13.7344 17.0012 13.6969 16.9356 13.6594C16.8606 13.6266 16.809 13.4579 16.7809 13.3454C16.7518 13.23 16.6919 13.1246 16.6075 13.0407C16.6028 12.9657 16.6122 12.9235 16.5606 12.886C16.5399 12.87 16.5231 12.8494 16.5118 12.8258C16.5004 12.8022 16.4946 12.7763 16.495 12.7501C16.495 12.7079 16.4622 12.6563 16.4434 12.6516C16.42 12.6376 16.4106 12.6047 16.4106 12.5719C16.4106 12.5391 16.3637 12.5438 16.3637 12.6047L16.359 12.6094Z" fill="#5D3100"/>
<path d="M16.0547 15.6938C16.198 15.6744 16.3382 15.6366 16.4719 15.5813C16.5428 15.6351 16.6243 15.6734 16.7109 15.6938C16.6125 15.7172 16.5469 15.7032 16.5234 15.6844C16.5328 15.7172 16.5703 15.7641 16.5891 15.7688C16.4953 15.7641 16.3875 15.7407 16.3547 15.7079C16.2703 15.7407 16.1344 15.75 16.0547 15.6985V15.6938ZM16.2422 15.8344L16.4859 15.8672C16.425 15.9235 16.4766 15.9704 16.5797 15.961C16.5281 15.9704 16.4766 15.9891 16.5094 15.9938C16.6378 15.9953 16.7652 15.9714 16.8844 15.9235C16.8047 16.0266 16.4062 16.125 16.2422 15.8297V15.8344ZM16.4062 16.0875C16.4531 16.0641 16.5797 16.0735 16.6406 16.1016C16.5703 16.125 16.4437 16.125 16.4062 16.0875Z" fill="#00D860"/>
<path d="M16.5936 16.0875C16.6779 16.0734 16.9264 16.1344 17.0154 16.0781C16.9826 16.1578 16.8279 16.1719 16.7764 16.1531C16.7201 16.1344 16.6732 16.1109 16.6357 16.1156C16.6498 16.1016 16.6217 16.1016 16.5889 16.0875H16.5936Z" fill="black"/>
<path d="M16.6826 16.2095C16.7482 16.2188 16.9873 16.1907 17.0576 16.1626C17.1373 16.186 17.292 16.2329 17.3248 16.2235C17.2545 16.2704 17.1139 16.2423 17.067 16.2235C16.9357 16.2704 16.8326 16.2798 16.6826 16.2095Z" fill="#00D860"/>
<path d="M16.7953 16.2515C16.8937 16.2703 16.9734 16.2562 17.0672 16.2234C17.1195 16.2436 17.1752 16.2531 17.2313 16.2515C17.2781 16.275 17.3344 16.3078 17.3906 16.3125C17.2856 16.3302 17.1778 16.3222 17.0766 16.289C16.9593 16.2878 16.8429 16.3101 16.7344 16.3546C16.7344 16.3218 16.7531 16.2796 16.7953 16.2515Z" fill="#00D860"/>
<path d="M16.6833 15.764C16.7583 15.7874 17.0301 15.778 17.1661 15.7171C17.2223 15.6843 17.2551 15.7265 17.1895 15.7499C16.9692 15.8249 16.7911 15.8577 16.6598 15.7921C16.6083 15.7593 16.6036 15.7359 16.6833 15.764Z" fill="black"/>
<path d="M18.0046 15.3938C17.6765 15.5532 17.4562 15.6 16.9921 15.4594C16.9499 15.4454 16.9218 15.4594 16.9687 15.4875C17.084 15.5374 17.2053 15.572 17.3296 15.5907C17.3905 15.5907 17.3671 15.6235 17.3296 15.6329C17.2921 15.6422 17.2827 15.6704 17.3296 15.6469C17.3858 15.6282 17.6577 15.6235 17.7749 15.6844C17.8218 15.7079 17.8405 15.7032 17.8312 15.6844C17.8265 15.661 17.8546 15.6516 17.8921 15.6469C17.9296 15.6469 17.9483 15.6329 17.9202 15.6188C17.8968 15.6047 17.8874 15.6 17.9108 15.5907C17.9343 15.5813 17.9343 15.5719 17.9015 15.5625C17.8687 15.5625 17.8499 15.5485 17.878 15.5297C17.9108 15.5157 17.953 15.5063 17.9905 15.5063C17.9952 15.4829 17.9812 15.4125 18.0046 15.3985V15.3938Z" fill="#00D860"/>
<path d="M17.4565 15.436C17.7209 15.4396 17.9782 15.35 18.1831 15.1829C18.244 15.2204 18.3378 15.2625 18.3847 15.2766C18.4315 15.2813 18.4784 15.3235 18.3987 15.3235C18.3284 15.3235 18.2206 15.2907 18.1737 15.2766C17.9579 15.4069 17.7084 15.4705 17.4565 15.4594C17.4097 15.4547 17.3909 15.4313 17.4565 15.436Z" fill="black"/>
<path d="M16.8939 14.3999C16.9872 14.4732 17.1034 14.5114 17.222 14.5077C17.2938 14.5613 17.3748 14.601 17.4611 14.6249C17.3626 14.6671 17.2548 14.6999 17.2267 14.7327C17.1798 14.6905 17.1236 14.6999 17.1048 14.6765C17.0673 14.7093 17.072 14.7327 17.1001 14.7515C17.1236 14.7702 17.3439 14.803 17.4001 14.789C17.4517 14.7702 17.4658 14.8218 17.4236 14.8358C17.3017 14.8733 17.0767 14.8358 17.0017 14.7093C16.922 14.5874 16.8611 14.5405 16.6455 14.653C16.622 14.5921 16.622 14.578 16.5798 14.578C16.533 14.578 16.4626 14.5218 16.5189 14.5265C16.5798 14.5265 16.7533 14.503 16.8939 14.3999Z" fill="#00D860"/>
<path d="M16.9451 14.6719C16.9123 14.6859 16.8044 14.7422 16.7669 14.7422C16.7341 14.7469 16.6685 14.8031 16.7341 14.8031C16.8044 14.8031 16.8888 14.7328 16.9357 14.7234C16.9873 14.7141 16.9873 14.6625 16.9451 14.6766V14.6719ZM17.1513 14.8969C17.1279 14.8969 17.0154 14.925 16.9826 14.9203C16.9498 14.9203 16.9263 14.9297 16.931 14.9484C16.931 14.9719 16.9404 14.9813 16.8982 14.9813C16.8513 14.9813 16.8091 14.9953 16.7951 15.0047C16.781 15.0188 16.781 15.0328 16.8279 15.0422C16.8748 15.0469 16.8935 15.0469 16.9451 15.0234C17.0013 15 17.0482 14.9625 17.1044 14.9578C17.1607 14.9578 17.2169 14.8875 17.1513 14.8922V14.8969Z" fill="#00D860"/>
<path d="M16.9969 15.0282C17.0438 15.061 17.2782 15.136 17.3626 15.1313C17.4469 15.1267 17.4329 15.1642 17.3672 15.1782C17.236 15.2063 17.0766 15.1501 16.9641 15.0657C16.9172 15.0188 16.9641 15.0048 16.9969 15.0282Z" fill="black"/>
<path d="M18.103 15.1405C17.9249 15.1968 17.7421 15.178 17.6718 15.1593C17.5968 15.1452 17.5311 15.1358 17.578 15.1827C17.6296 15.2296 17.789 15.2624 17.8827 15.2389C17.5593 15.3139 17.4749 15.3046 17.3952 15.2905C17.297 15.2811 17.1981 15.2811 17.0999 15.2905C17.053 15.2905 16.9874 15.2905 16.9593 15.2671C16.9358 15.2483 16.9218 15.2202 17.0061 15.2296C17.0905 15.2389 17.0999 15.2202 17.0296 15.2061C16.9546 15.1968 16.8515 15.2296 16.9546 15.2905C17.053 15.3561 17.2686 15.2905 17.4093 15.328C17.5499 15.3655 17.8405 15.3936 18.1218 15.1686C18.1358 15.1593 18.1593 15.1218 18.103 15.1405ZM17.2265 14.878V14.9389C17.2218 14.953 17.2218 14.9718 17.2452 14.953C17.2733 14.9343 17.2921 14.9061 17.3202 14.9202C17.3644 14.9328 17.4107 14.936 17.4561 14.9296C17.489 14.9296 17.4936 14.9202 17.4468 14.8968C17.3999 14.878 17.353 14.8733 17.3249 14.8733C17.3015 14.878 17.2686 14.8733 17.2452 14.8639C17.2218 14.8499 17.2218 14.8593 17.2265 14.878Z" fill="#00D860"/>
<path d="M17.6861 14.9625C17.641 14.958 17.5968 14.9469 17.5549 14.9297C17.5174 14.9156 17.4611 14.9109 17.5033 14.9578C17.5408 15.0094 17.7002 15.0375 17.7564 15.0141C17.8174 14.9906 17.7892 14.9672 17.8455 14.9953C17.9017 15.0281 17.958 15.0563 18.0002 15.0563C18.0424 15.0563 18.0564 15.0563 18.0095 15.0281C17.9627 15.0047 17.9439 14.9953 17.9439 14.9766C17.9439 14.9578 17.9299 14.9438 17.972 14.9578C18.0095 14.9719 18.0564 14.9906 18.0892 14.9719C18.1267 14.9578 18.183 14.9203 18.2392 14.9203L18.2533 14.8875C18.1736 14.8781 18.1267 14.9016 18.0986 14.9109C18.0672 14.9228 18.0332 14.9261 18.0002 14.9203C17.958 14.9109 17.9064 14.9062 17.8924 14.8969C17.8783 14.8875 17.8783 14.8734 17.9111 14.8688C17.9439 14.8641 17.958 14.8406 17.9111 14.85C17.8642 14.8594 17.7377 14.85 17.672 14.8312C17.6017 14.8125 17.5783 14.8078 17.5455 14.8172C17.5174 14.8266 17.522 14.8594 17.5642 14.8641C17.6017 14.8641 17.6955 14.8734 17.733 14.9016C17.7658 14.9344 17.7564 14.9344 17.7189 14.9203C17.6861 14.9016 17.6205 14.9109 17.6861 14.9672V14.9625Z" fill="#00D860"/>
<path d="M18.2486 14.8874L18.2393 14.9202C18.354 14.9155 18.4686 14.933 18.5768 14.9718C18.6377 14.9249 18.6236 14.9109 18.6705 14.9202C18.7174 14.9249 18.7643 14.9437 18.7924 14.9296C18.8158 14.9155 18.8299 14.9202 18.858 14.9202C18.8814 14.9296 18.9377 14.9202 18.9705 14.8968C18.9986 14.878 19.0689 14.8499 19.1111 14.8499C19.1486 14.8499 19.1955 14.8452 19.1252 14.8312C19.0525 14.827 18.9796 14.8349 18.9096 14.8546C18.8721 14.8687 18.7596 14.878 18.6939 14.878C18.633 14.878 18.5393 14.9109 18.4689 14.8921C18.3939 14.8734 18.2908 14.8874 18.2486 14.8874Z" fill="#00D860"/>
<path d="M19.2515 14.85C19.1249 14.9438 18.9655 14.9625 18.7827 14.9766C18.7265 14.9766 18.7452 14.9953 18.7921 15C18.9796 15.0188 19.2093 14.9532 19.2796 14.8688C19.303 14.85 19.303 14.8125 19.2515 14.85Z" fill="black"/>
<path d="M18.3701 15.0655C18.4217 15.0655 18.6186 15.1218 18.6842 15.1405C18.7311 15.1405 18.7451 15.1265 18.7311 15.1077C18.7217 15.089 18.717 15.0749 18.8014 15.0749H19.1295C19.1576 15.0655 19.2232 15.014 19.2561 15.0093C19.1764 15.0187 18.8482 15.0327 18.8107 15.028C18.7803 15.0228 18.749 15.0278 18.7217 15.0421C18.6936 15.0562 18.6842 15.0655 18.6467 15.0515C18.6139 15.0421 18.5576 15.0187 18.5295 15.0421C18.492 15.0608 18.4264 15.0421 18.3701 15.0655Z" fill="#00D860"/>
<path d="M19.125 15.0751C19.1578 15.0657 19.2234 15.0094 19.2562 15.0094C19.3125 15.0094 19.3734 15.0282 19.4062 15.0329C19.4343 15.0329 19.4671 15.0329 19.4437 15.0094C19.4203 14.986 19.4437 14.9438 19.5375 14.9579C19.6218 14.9673 19.6687 14.9813 19.7531 14.9719C19.8375 14.9673 19.8796 15.0282 20.039 14.9626C20.0296 15.0282 20.0625 15.0282 20.0906 15.0188C20.1234 15.0094 20.1562 15.0094 20.2078 15.0516C20.2546 15.0891 20.5734 15.0985 20.6484 15.0798C20.7187 15.0657 20.7609 15.1032 20.7046 15.1266C20.6484 15.1407 20.6343 15.1641 20.6484 15.1829C20.6578 15.2016 20.6718 15.2204 20.6015 15.2157C20.5359 15.2063 20.5218 15.2251 20.489 15.2532C20.4562 15.2813 20.4421 15.286 20.3484 15.2673C20.2546 15.2532 20.2359 15.2673 20.1843 15.2766C20.1281 15.286 20.1234 15.2813 20.0671 15.2673C19.9918 15.241 19.9107 15.2361 19.8328 15.2532C19.7625 15.2719 19.7156 15.3001 19.6546 15.2813C19.5937 15.2626 19.589 15.2673 19.6265 15.2344C19.6687 15.1969 19.6734 15.1969 19.7484 15.1876C19.8234 15.1782 19.8796 15.1548 19.8281 15.1266C19.7718 15.0985 19.7578 15.0985 19.6875 15.136C19.6218 15.1688 19.5843 15.1923 19.5046 15.1501C19.4296 15.1032 19.3921 15.1126 19.3359 15.1266C19.2843 15.1407 19.2 15.1126 19.125 15.0798V15.0751ZM19.3875 15.2063C19.2843 15.2204 19.2609 15.1594 19.1531 15.1735C19.125 15.1735 19.0593 15.2204 19.1437 15.211C19.2234 15.2063 19.3125 15.2485 19.3875 15.2438C19.4671 15.2344 19.4343 15.2016 19.3875 15.2063ZM19.2656 15.2813C19.3218 15.2626 19.4296 15.3001 19.4718 15.2907C19.5187 15.286 19.5656 15.3094 19.514 15.3282C19.4625 15.3423 19.35 15.3001 19.2984 15.3141C19.2515 15.3282 19.1953 15.3094 19.2656 15.2813ZM18.2343 15.5626C18.3046 15.5626 18.5625 15.5532 18.6656 15.3376C18.6703 15.3188 18.6796 15.3141 18.7125 15.3376C18.7406 15.361 18.8625 15.4313 19.0875 15.4454C19.1484 15.4548 19.214 15.4829 19.0875 15.4735C18.9609 15.4641 18.764 15.436 18.6984 15.3891C18.5859 15.5673 18.3843 15.5907 18.2296 15.586C18.1453 15.586 18.1687 15.5579 18.2296 15.5626H18.2343Z" fill="#00D860"/>
<path d="M18.7971 15.2671C18.7596 15.314 18.6424 15.3984 18.5908 15.4078C18.5299 15.4078 18.3705 15.389 18.3283 15.375C18.2908 15.3609 18.2346 15.3656 18.2955 15.4078C18.3761 15.4501 18.4674 15.468 18.558 15.4593C18.6189 15.45 18.6846 15.4265 18.7268 15.4593C18.7736 15.4921 18.8627 15.539 18.9096 15.5296C18.9716 15.5171 19.0357 15.5187 19.0971 15.5343C19.1252 15.5484 19.1814 15.5953 19.0971 15.5671C19.0127 15.539 18.9471 15.5671 18.9049 15.5437C18.9518 15.6046 19.0455 15.7031 19.1299 15.7031C19.1486 15.7031 19.1627 15.7359 19.1205 15.7546C19.158 15.7781 19.2564 15.7921 19.308 15.7453C19.2939 15.764 19.3033 15.7781 19.3221 15.7875C19.3408 15.7968 19.3689 15.8156 19.3314 15.8156C19.2939 15.8203 19.2049 15.8296 19.1768 15.8203C19.2611 15.8718 19.4814 15.9609 19.7018 15.914C19.7486 15.914 19.7674 15.8906 19.7018 15.8953C19.5518 15.8953 19.5471 15.8953 19.5189 15.8812C19.4908 15.8671 19.5002 15.8531 19.5424 15.839C19.5799 15.825 19.683 15.8156 19.7299 15.8156C19.7721 15.8156 19.8143 15.7921 19.7299 15.7921C19.6455 15.7921 19.5283 15.7921 19.4861 15.7781C19.4439 15.7687 19.4111 15.7453 19.4533 15.7125C19.5002 15.6796 19.5471 15.6937 19.5705 15.6656C19.4299 15.6656 19.2518 15.5906 19.3502 15.5156C19.3736 15.5015 19.3643 15.5015 19.3268 15.4968C19.2893 15.4968 19.1861 15.464 19.1393 15.4359C19.0924 15.4078 19.1252 15.389 19.158 15.3843C19.0783 15.3984 18.9096 15.3515 18.7924 15.2671H18.7971ZM20.0627 15.2625C19.9767 15.3158 19.8779 15.3449 19.7768 15.3468C19.7158 15.3468 19.7018 15.3656 19.7533 15.375C19.8002 15.3796 19.8518 15.3843 19.8752 15.3796C19.8986 15.375 19.908 15.375 19.9455 15.3843C19.9965 15.4045 20.0528 15.4061 20.1049 15.389C20.1705 15.3708 20.2385 15.3629 20.3064 15.3656C20.3486 15.3656 20.3955 15.3656 20.3064 15.3468C20.2259 15.3316 20.1432 15.3316 20.0627 15.3468C20.0346 15.3515 19.9455 15.3468 19.9924 15.3375C20.0319 15.3242 20.0685 15.3035 20.1002 15.2765C20.0861 15.2765 20.0768 15.2671 20.0627 15.2625ZM20.0205 15.4312C19.944 15.4881 19.853 15.5222 19.758 15.5296C19.8518 15.5625 19.9268 15.6609 19.983 15.6562C19.9549 15.6703 19.9174 15.6937 19.8846 15.7031C19.9408 15.7171 20.0346 15.7031 20.1096 15.6562C20.2408 15.6937 20.4096 15.6703 20.4658 15.6234C20.3839 15.6238 20.3038 15.5993 20.2361 15.5531C20.2783 15.5531 20.3158 15.5296 20.3393 15.5062C20.2361 15.5203 20.0674 15.4687 20.0205 15.4312Z" fill="#00D860"/>
<path d="M19.8848 15.7031C19.9223 15.7031 19.9551 15.6702 19.9832 15.6562C19.8167 15.6683 19.6503 15.6308 19.5051 15.5484C19.416 15.464 19.416 15.5296 19.4816 15.5859C19.5347 15.636 19.5989 15.6728 19.669 15.6932C19.7391 15.7136 19.8131 15.717 19.8848 15.7031ZM20.1098 15.8999C20.0723 15.9234 19.8848 15.9327 19.8285 15.9234C19.7676 15.9093 19.7348 15.914 19.7535 15.9374C19.7723 15.9609 19.777 15.9843 19.7254 15.9796C19.6672 15.9722 19.6082 15.977 19.552 15.9937C19.5191 16.0077 19.4676 16.0406 19.552 16.0265C19.6223 16.0171 19.6926 15.9984 19.7535 16.0171C19.8098 16.0312 20.0207 16.0359 20.0629 16.0171C20.1004 15.9937 20.077 15.9984 20.0535 15.9984C20.0348 15.9984 20.0301 15.989 20.0535 15.9749C20.0816 15.9609 20.1051 15.9281 20.1098 15.8999ZM18.3145 15.6468C18.1838 15.6955 18.0488 15.7316 17.9113 15.7546C17.8486 15.7874 17.7802 15.8081 17.7098 15.8156C17.7426 15.8437 17.8551 15.8718 17.902 15.8577C17.87 15.8856 17.8335 15.9077 17.7941 15.9234C17.8645 15.9187 17.9441 15.9327 17.9816 15.9374C17.8956 15.984 17.798 16.0052 17.7004 15.9984C17.7191 16.0312 17.7473 16.0593 17.7941 16.0593C17.7177 16.0807 17.637 16.0823 17.5598 16.064C17.5785 16.1109 17.602 16.1343 17.6301 16.139C17.5645 16.1484 17.4754 16.1577 17.4004 16.1156C17.4566 16.1906 17.5832 16.2187 17.7754 16.1952C17.9115 16.1799 18.0418 16.1316 18.1551 16.0546C18.0754 16.064 17.9723 16.0687 17.9207 16.0546C18.0513 16.0223 18.1762 15.9702 18.291 15.8999C18.2495 15.901 18.2087 15.8896 18.1738 15.8671C18.2301 15.8718 18.4457 15.8484 18.5066 15.8202C18.4485 15.8074 18.397 15.7741 18.3613 15.7265C18.5961 15.7949 18.8444 15.803 19.0832 15.7499C19.116 15.7406 19.1254 15.6937 19.0551 15.7031C18.9332 15.7077 18.6988 15.6749 18.6379 15.6468C18.6894 15.6843 18.7487 15.7099 18.8113 15.7218C18.6988 15.7546 18.5395 15.7781 18.3145 15.6468Z" fill="#00D860"/>
<path d="M17.7938 15.9281L17.9016 15.8624C17.8349 15.866 17.7685 15.8514 17.7094 15.8202C17.7516 15.8202 17.8219 15.7968 17.9109 15.7593C17.7516 15.7546 17.6438 15.7546 17.5828 15.7265C17.5196 15.7043 17.4516 15.6995 17.3859 15.7124C17.3484 15.7218 17.3625 15.7827 17.5266 15.7687C17.4258 15.816 17.3132 15.8323 17.2031 15.8156C17.2219 15.8718 17.2359 15.9281 17.2172 15.9562C17.3109 16.0077 17.5453 16.0781 17.6625 16.064C17.5594 16.0265 17.5031 15.9843 17.5875 15.9749C17.6719 15.9656 17.7188 15.9468 17.7938 15.9281Z" fill="#00D860"/>
<path d="M17.531 16.2093C17.7325 16.1906 18.0091 16.1859 18.2341 16.0031C18.2903 15.9515 18.3278 15.9702 18.2716 16.0171C18.0741 16.1677 17.8353 16.2544 17.5872 16.2656C17.4747 16.2656 17.4231 16.2187 17.531 16.2093Z" fill="black"/>
<path d="M19.0785 15.8625C19.027 15.886 18.8817 15.9094 18.8395 15.9047C18.7926 15.9 18.7317 15.8954 18.6988 15.9141C18.6613 15.9329 18.6613 15.9469 18.7082 15.9563L18.8488 15.961C18.8193 15.9771 18.7937 15.9995 18.7738 16.0266C18.8395 16.0079 18.9707 16.0407 19.0082 16.0641C18.9754 16.0688 18.9473 16.0594 18.9238 16.0454C19.041 16.1719 19.3879 16.1719 19.4395 16.1485C19.416 16.1672 19.3926 16.186 19.3645 16.1954C19.4629 16.2094 19.5754 16.2094 19.6832 16.1438C19.6252 16.1458 19.5672 16.1427 19.5098 16.1344C19.5338 16.1123 19.5627 16.0963 19.5942 16.0875C19.5236 16.0791 19.452 16.0839 19.3832 16.1016C19.3973 16.0735 19.416 16.0407 19.4442 16.0313C19.291 16.0424 19.1371 16.0265 18.9895 15.9844C19.1113 15.9985 19.2426 15.9282 19.3035 15.9282C19.2098 15.9282 19.102 15.9047 19.0785 15.8625ZM18.6426 15.961C18.5597 15.9764 18.4782 15.9983 18.3988 16.0266C18.3613 16.0454 18.3285 16.0641 18.3988 16.0641C18.4082 16.061 18.4176 16.0578 18.427 16.0547C18.3988 16.0547 18.3613 16.0547 18.4176 16.036C18.4738 16.0172 18.5488 15.9797 18.6426 15.961ZM18.4738 16.1625C18.502 16.1625 18.6379 16.1625 18.6848 16.1157C18.741 16.1579 18.8442 16.2188 18.9098 16.2188C18.9801 16.2188 18.9707 16.2329 18.9098 16.2422C18.8535 16.2469 18.741 16.2094 18.6848 16.1672C18.6051 16.1954 18.5395 16.1719 18.4692 16.1579L18.4738 16.1625ZM17.4707 16.7438C17.6067 16.7954 17.7801 16.8375 17.9113 16.7907C17.9863 16.8563 18.1363 16.861 18.2207 16.8422C18.3004 16.8282 18.3754 16.8141 18.4645 16.8422C18.5582 16.875 18.741 16.8797 18.7926 16.9219C18.7457 16.9219 18.6473 16.9219 18.6192 16.9313C18.5957 16.936 18.6098 16.95 18.652 16.9782C18.4848 16.9723 18.3193 17.0129 18.1738 17.0954C18.1953 17.0466 18.2309 17.0053 18.276 16.9769C18.3211 16.9485 18.3737 16.9343 18.427 16.936C18.352 16.9079 18.0988 16.9079 18.0192 16.9547C17.9957 16.9313 17.9676 16.8891 17.9676 16.875C17.8317 16.9454 17.5785 16.8375 17.4707 16.7438ZM17.1285 16.5C17.2879 16.4813 17.4004 16.4297 17.4473 16.3782C17.4707 16.4063 17.5879 16.4344 17.7145 16.3922C17.7038 16.4011 17.6962 16.4132 17.6929 16.4267C17.6895 16.4402 17.6905 16.4544 17.6957 16.4672C17.5938 16.476 17.4941 16.5013 17.4004 16.5422C17.3488 16.5657 17.1895 16.5891 17.1379 16.561C17.091 16.5329 17.0863 16.5047 17.1285 16.5Z" fill="#00D860"/>
<path d="M17.6957 16.4671C17.6113 16.4671 17.4566 16.514 17.4004 16.5421L17.4238 16.6218C17.6322 16.5615 17.8495 16.5378 18.066 16.5515C18.0051 16.5515 17.8785 16.6218 17.8129 16.6312C17.9816 16.6171 18.141 16.6546 18.1879 16.664C18.2301 16.6733 18.2348 16.7108 18.2066 16.739C18.1738 16.7671 18.1598 16.7718 18.2301 16.7718C18.2957 16.7718 18.441 16.7718 18.5066 16.7062C18.4785 16.678 18.4129 16.6874 18.3941 16.6687C18.4364 16.6539 18.4749 16.6299 18.5066 16.5983C18.4407 16.6014 18.3746 16.5966 18.3098 16.5843C18.2723 16.5749 18.2441 16.5655 18.291 16.5374C18.3231 16.5211 18.3517 16.4988 18.3754 16.4718C18.291 16.4952 18.1598 16.5187 18.0473 16.4249C18.0941 16.4437 18.1879 16.4343 18.2207 16.4202C18.1832 16.3968 18.1551 16.3874 18.127 16.3874C18.2113 16.3405 18.3848 16.303 18.6051 16.3874C18.707 16.3792 18.8096 16.3855 18.9098 16.4062C18.9473 16.3733 19.0176 16.289 19.0551 16.2702C18.802 16.289 18.3473 16.2421 18.352 16.1108C18.2723 16.2187 18.0848 16.2796 18.0004 16.2608C17.991 16.2983 18.0238 16.3452 18.052 16.3733C17.9723 16.3874 17.8223 16.4062 17.752 16.3874C17.7895 16.4296 17.8645 16.4624 17.9113 16.4577C17.8176 16.4577 17.7707 16.4765 17.6957 16.4671Z" fill="#00D860"/>
<path d="M18.2295 16.7719C18.2951 16.7719 18.4404 16.7719 18.5061 16.7062C18.4779 16.6781 18.4123 16.6875 18.3936 16.6688C18.4358 16.6539 18.4742 16.6299 18.5061 16.5984C18.6889 16.5797 18.8482 16.5891 18.9279 16.5656C19.0076 16.5422 19.2092 16.5562 19.242 16.5422C19.0732 16.575 19.0404 16.5891 19.0264 16.6172C19.017 16.6453 19.0873 16.6641 19.1248 16.6641C19.0498 16.6641 18.9514 16.7437 18.9373 16.7766C18.8436 16.7203 18.792 16.7906 18.7779 16.8141C18.7333 16.8031 18.6869 16.8016 18.6417 16.8096C18.5965 16.8177 18.5535 16.8352 18.5154 16.8609C18.4217 16.8375 18.3607 16.8188 18.267 16.8375C18.3279 16.8234 18.3139 16.7812 18.2295 16.7766V16.7719ZM19.0545 16.2656C19.1154 16.2656 19.242 16.275 19.2889 16.2656C19.2592 16.2796 19.2323 16.2986 19.2092 16.3219C19.3592 16.3031 19.5561 16.2937 19.6123 16.3031C19.5467 16.2891 19.4717 16.3359 19.4342 16.3641C19.3967 16.3875 19.4201 16.3969 19.467 16.4062C19.5186 16.4109 19.5889 16.4531 19.4951 16.4391C19.3908 16.4277 19.2857 16.4262 19.1811 16.4344C19.1389 16.4391 19.1154 16.4203 19.1811 16.4109C19.2373 16.3969 19.2842 16.3781 19.3123 16.3641C19.2533 16.3735 19.1932 16.3735 19.1342 16.3641C19.1014 16.3547 19.0826 16.3359 19.1154 16.3312C19.1482 16.3266 19.1295 16.3078 19.092 16.3125C19.0545 16.3219 18.9607 16.3594 18.9092 16.4062C18.9654 16.35 19.017 16.2984 19.0545 16.2703V16.2656Z" fill="#00D860"/>
<path d="M18.3985 16.3688C18.4346 16.4101 18.4794 16.4429 18.5296 16.4648C18.5799 16.4867 18.6344 16.4971 18.6892 16.4954C18.7173 16.4954 18.7689 16.5329 18.6985 16.5376C18.5204 16.5423 18.4314 16.5048 18.3517 16.3876C18.3329 16.3595 18.361 16.3266 18.3985 16.3641V16.3688ZM19.4767 14.8548C19.6167 14.9106 19.7666 14.9377 19.9173 14.9345C19.9454 14.9345 19.9923 14.9579 19.9314 14.9673C19.7712 14.9867 19.6089 14.9556 19.4673 14.8782C19.4345 14.8595 19.4439 14.8407 19.4814 14.8548H19.4767Z" fill="black"/>
<path d="M19.5748 14.8593C19.7248 14.8499 19.8373 14.8499 19.8795 14.8968C19.9639 14.8686 20.1139 14.8499 20.1467 14.8639C20.1842 14.8733 20.2217 14.8499 20.142 14.8311C20.0623 14.8124 19.8748 14.803 19.8186 14.8171C19.7623 14.8264 19.5842 14.8358 19.5186 14.8264C19.542 14.8311 19.5607 14.8358 19.5748 14.8499V14.8593ZM20.1467 14.9108C20.217 14.8733 20.4186 14.9108 20.4748 14.8827C20.4279 14.9343 20.6154 14.9389 20.7701 14.8968C20.7092 14.9343 20.5826 14.9436 20.5264 14.9671C20.4701 14.9905 20.4373 14.9718 20.3951 14.9577C20.3482 14.9389 20.2404 14.8968 20.1467 14.9108Z" fill="#00D860"/>
<path d="M20.7701 14.8969C20.6154 14.9437 20.4326 14.9344 20.4795 14.8828C20.4139 14.9109 20.217 14.8734 20.1514 14.9109C20.217 14.8688 20.2732 14.9016 20.3248 14.8125C20.3623 14.8219 20.4326 14.8266 20.4654 14.7891C20.5153 14.7992 20.563 14.8182 20.6061 14.8453C20.6342 14.8688 20.6717 14.8406 20.6389 14.7984C20.7045 14.775 20.6623 14.8359 20.8311 14.7891C20.8639 14.7797 20.9482 14.7656 20.9811 14.7656C20.9178 14.8175 20.8486 14.8615 20.7748 14.8969H20.7701Z" fill="#00D860"/>
<path d="M17.7139 14.175L17.6764 10.486C17.6764 10.3172 17.5967 10.35 17.5967 10.486V14.1422L17.7139 14.175ZM18.9092 10.2844L19.0404 14.175L19.0264 14.2079H18.9373L18.8529 10.2844H18.9092ZM20.0389 13.575L19.9732 10.4157C19.9732 10.3219 19.8889 10.336 19.8889 10.4344L19.9545 13.575H20.0389Z" fill="#FFFF00" stroke="black" stroke-width="0.05"/>
<path d="M18.244 10.9313L17.0815 10.9173C17.0346 11.1517 17.3159 11.1329 17.4096 11.0813C17.5503 11.1657 17.644 11.1657 17.7143 11.0813C17.8081 11.1657 17.9487 11.147 17.9956 11.0813C18.1268 11.1985 18.2768 11.0813 18.244 10.9173V10.9313ZM18.3284 11.4985H17.1659C16.9456 11.7001 17.2128 11.7985 17.4471 11.6626C17.48 11.7329 17.6112 11.7657 17.7143 11.7142C17.8081 11.7798 17.9487 11.7329 18.0096 11.6673C18.1268 11.7142 18.2768 11.7329 18.3425 11.4985H18.3284ZM18.2956 12.2485H17.1659C17.1471 12.4313 17.3815 12.4126 17.4612 12.361C17.5456 12.497 17.7425 12.4642 17.8128 12.3798C17.93 12.4642 18.0284 12.4454 18.08 12.3798C18.1925 12.4782 18.3143 12.347 18.2956 12.2485ZM18.3612 12.9798L17.0815 12.961C17.0159 13.1767 17.2128 13.2095 17.2971 13.1626C17.33 13.2751 17.494 13.2423 17.5456 13.1626C17.6112 13.2095 17.6956 13.1767 17.7331 13.1298C17.7471 13.2423 17.8971 13.261 18.0143 13.1626C18.2487 13.3267 18.4596 13.1298 18.3425 12.9751L18.3612 12.9798ZM19.4721 12.6798H18.4268C18.4737 12.8767 18.5768 12.9282 18.7409 12.811C18.8768 12.947 19.0737 12.8954 19.1253 12.8298C19.3596 13.0126 19.4721 12.797 19.4721 12.661V12.6798ZM19.3784 11.9485L18.3471 11.9157C18.3612 12.1782 18.6096 12.1642 18.7409 12.0657C18.8253 12.1782 18.994 12.1454 19.0737 12.0657C19.1909 12.197 19.4065 12.1126 19.3737 11.9485H19.3784ZM19.5096 11.1329H18.4128C18.4128 11.3157 18.6612 11.4142 18.844 11.2501C18.8909 11.4657 19.0925 11.4001 19.1721 11.3157C19.3081 11.4798 19.594 11.2829 19.5096 11.147V11.1329ZM19.4393 10.5845L18.4456 10.5985C18.4456 10.7673 18.68 10.8329 18.7596 10.7017C18.8065 10.7813 18.9753 10.7673 19.0268 10.7017C19.0925 10.8188 19.1909 10.7345 19.2237 10.7017C19.3409 10.7813 19.4581 10.7345 19.4393 10.5845ZM20.5878 10.9501L19.3925 10.9313C19.3925 11.0485 19.5096 11.1001 19.5893 11.0485C19.5893 11.1845 19.7581 11.2173 19.8706 11.1142C19.9409 11.2313 20.1518 11.2501 20.2409 11.1142C20.405 11.2642 20.6065 11.147 20.569 10.9501H20.5878ZM20.5737 11.9345H19.4065C19.4065 12.0985 19.594 12.1454 19.7065 12.0657C19.7253 12.197 19.8753 12.211 19.955 12.1313C20.0721 12.2485 20.2362 12.2626 20.3393 12.1313C20.4706 12.1782 20.5878 12.0657 20.5737 11.9298V11.9345ZM20.5034 12.811H19.5753C19.5753 12.9798 19.7721 12.9798 19.8565 12.8954C19.955 13.0126 20.0909 13.0126 20.1706 12.9282C20.2878 13.0267 20.4893 12.9938 20.5034 12.811Z" fill="white" stroke="black" stroke-width="0.05"/>
<path d="M19.0268 14.2078C18.5252 14.2078 18.0096 14.2078 17.6627 14.175C17.3111 14.1421 17.2127 14.0765 16.9643 13.9265L16.0315 13.3593C15.9518 13.3218 15.8674 13.3734 15.9846 13.439L16.9127 14.0531C17.1658 14.2218 17.3299 14.3718 17.4752 14.5546C17.6768 14.7703 17.8127 14.7703 17.9111 14.7375C18.0096 14.7046 18.1455 14.6531 18.2955 14.6859C18.4268 14.7187 18.6236 14.7328 18.7268 14.7187C18.8111 14.8031 19.0268 14.7843 19.144 14.7515C19.235 14.7231 19.3318 14.7182 19.4252 14.7375H19.7065C19.7908 14.7375 20.0065 14.6859 20.1565 14.7046C20.3205 14.7375 20.4705 14.7046 20.5736 14.7046C20.6807 14.6766 20.7922 14.6702 20.9018 14.6859C20.983 14.6292 21.0425 14.5466 21.0705 14.4515C21.169 14.4375 21.2018 14.4187 21.2205 14.3718L21.319 14.1046H21.3518V14.0062L21.2861 13.9031L21.319 13.739L21.4033 13.7062L21.3705 13.5375L19.908 13.5703C19.8537 13.6195 19.8174 13.6855 19.8049 13.7578L19.3736 13.8234C19.3268 13.8375 19.2752 13.8375 19.2236 13.9031L19.0268 14.2078Z" fill="black" stroke="black" stroke-width="0.05"/>
<path d="M20.7699 13.561L20.9855 12.7454C21.0184 12.661 20.9387 12.647 20.9012 12.7454L20.6855 13.561H20.7699Z" fill="black" stroke="black" stroke-width="0.05"/>
<path d="M21.6189 12.647C21.4361 12.7267 21.3377 12.7782 21.2533 12.7454C21.1689 12.7126 21.0658 12.6985 21.0049 12.7267C21.0056 12.7329 21.0056 12.7392 21.0049 12.7454C20.9432 12.9566 20.8807 13.1675 20.8174 13.3782C20.958 13.4251 21.1877 13.4251 21.2393 13.3782C21.3049 13.3126 21.4549 13.3313 21.5346 13.3313C21.5814 13.261 21.6002 13.1767 21.5814 13.1438C21.5674 13.111 21.5814 13.0267 21.5814 12.9798C21.5814 12.9282 21.6518 12.7454 21.6189 12.647Z" fill="white" stroke="black" stroke-width="0.05"/>
<path d="M17.4281 11.0812C17.1069 11.9207 16.6595 12.7062 16.1016 13.4109M16.4297 13.6078C17.1679 13.0144 17.8085 12.3089 18.3281 11.5171M17.1656 12.2296C17.1141 12.6796 16.9781 13.4765 16.9125 13.8937M17.3484 13.2281C17.1797 13.3921 16.9641 13.6593 16.7812 13.8093M18.8906 12.3281C18.7594 12.464 18.6094 12.6281 18.4594 12.6609M18.975 12.3609C19.0973 12.5017 19.2516 12.611 19.425 12.6796M18.8906 11.6484C18.7459 11.775 18.5768 11.8707 18.3937 11.9296M18.9562 11.6625C19.0597 11.78 19.1856 11.8756 19.3266 11.9437M18.4219 11.1375C18.5885 11.0893 18.7423 11.0044 18.8719 10.889M18.9188 10.889C19.0359 11.0062 19.2516 11.1234 19.3688 11.1515M18.4547 10.6031C18.6112 10.5751 18.7526 10.4919 18.8531 10.3687M18.9 10.3406C19.0219 10.439 19.2375 10.575 19.3547 10.589M19.8844 10.7203C19.8188 10.8046 19.6359 10.9359 19.5187 10.9359M19.9688 10.7203C20.0156 10.8046 20.1516 10.9359 20.2359 10.9359M19.4391 11.9343C19.6165 11.8679 19.7755 11.7602 19.9031 11.6203M19.9828 11.6343C20.0638 11.7582 20.173 11.861 20.3016 11.9343M19.6219 12.7968C19.6922 12.7968 19.875 12.6937 19.9219 12.5812M20.025 12.5296C20.1158 12.6431 20.2271 12.7385 20.3531 12.8109M17.2453 12.9609C17.5684 12.8338 17.8585 12.635 18.0938 12.3796M17.6953 12.6937C17.8551 12.8188 18.0361 12.9141 18.2297 12.975M17.1984 12.2296C17.3449 12.1711 17.4798 12.087 17.5969 11.9812M17.6766 11.9625C17.7281 12.0281 18.0797 12.2437 18.2297 12.2437M17.5969 11.264C17.4701 11.3622 17.3295 11.4412 17.1797 11.4984M17.6766 11.264C17.7938 11.3484 18.0422 11.4984 18.1922 11.4984M17.5969 10.5984C17.4831 10.7265 17.3484 10.8343 17.1984 10.9171M17.6766 10.6171C17.7469 10.7343 17.9438 10.8984 18.0797 10.9171M19.4062 11.3437C19.7698 11.9723 20.2636 12.5157 20.8547 12.9375M18.5109 10.7296C18.9797 11.3953 19.8703 12.839 20.7375 13.3734M20.9016 12.8109C20.6798 13.1114 20.405 13.3687 20.0906 13.5703M20.8406 12.989C20.5547 12.5203 20.4047 11.9437 20.1703 11.1609M18.1734 14.2218L17.8453 13.2234H17.6953M17.7797 13.2046L18.0938 14.2031M17.6953 13.1578L17.9953 14.189M17.6625 13.1718L17.8969 14.189M17.8969 14.1515H18.1781M18.1453 14.0578H17.8781M18.1125 13.9687H17.8453M18.0797 13.889H17.8125M18.0281 13.7859H17.8125M17.7938 13.7062H18.0094M17.775 13.6406H17.9953M17.7609 13.5562H17.9625M17.7469 13.4906H17.9297M17.7281 13.4062H17.8969M17.7094 13.3406H17.8781M17.6953 13.289H17.8594M17.4141 13.2234L17.2125 14.0531M17.4609 13.2234L17.2969 14.0859M17.5125 13.1906L17.3812 14.1046M17.5781 13.1718L17.4797 14.1375M17.5969 14.0718H17.2641M17.5922 13.9875H17.2172M17.5922 13.889H17.25M17.5828 13.8046H17.2687M17.5969 13.7203H17.2828M17.6016 13.6218H17.3203M17.6016 13.5375H17.3203M17.5828 13.4531H17.3344M17.5828 13.3734H17.3672M17.5828 13.289H17.3859M17.5828 13.2421H17.4M17.5687 14.1515V13.1718M18.6469 12.8437L17.9813 14.189M18.6984 12.825L18.1359 14.2031M18.7313 12.8062L18.2812 14.2031M18.7828 12.8437L18.4172 14.2031M18.4313 14.1562H18.0141M18.4641 14.0203H18.0656M18.4828 13.9218H18.1406M18.5391 13.8234H18.2062M18.5531 13.7203H18.2391M18.5906 13.6218H18.2906M18.6188 13.5046H18.3563M18.6375 13.4203H18.3891M18.6703 13.3265H18.4359M18.6891 13.2562H18.4734M18.7078 13.1906H18.4734M18.6891 13.125H18.5203M18.6891 13.0734H18.5391M18.7031 13.0078H18.5719M18.7359 12.9421H18.6094M18.7406 12.8906H18.6281M19.1906 12.8718L19.4719 13.8046L19.7719 12.9421M19.2375 12.8906L19.5891 13.7859L19.8563 12.9046M19.2891 12.8906L19.7109 13.7718M19.8047 13.6875L19.3406 12.8718M19.8094 13.7062H19.4719M19.7719 13.5703H19.4437M19.725 13.4718H19.4062M19.6547 13.3546H19.3734M19.5891 13.2562H19.3406M19.5281 13.139H19.3078M19.4719 13.0218H19.275M19.4062 12.9234H19.2422M19.7062 13.7718L19.9078 12.9421M19.9547 12.975L19.7906 13.7531M19.5094 13.7062H19.7906M19.5422 13.6031H19.8234M19.575 13.4906H19.8422M19.6219 13.3875H19.875M19.6547 13.2703H19.8891M19.6922 13.1765H19.9078M19.7391 13.0546H19.9406M19.7719 12.9609H19.9406M20.0906 12.975L20.2219 13.5703M20.1375 12.9421L20.325 13.5515M20.2078 12.9421L20.4047 13.5515M20.2875 12.975L20.5031 13.5562M20.4891 13.5093H20.2078M20.4562 13.4203H20.1891M20.4234 13.3406H20.1703M20.3906 13.2375H20.1375M20.3391 13.1578H20.1047M20.3063 13.0734H20.0906M20.2734 12.989H20.0719" stroke="black" stroke-width="0.05"/>
<path d="M17.541 14.5173C17.615 14.4772 17.6985 14.4578 17.7827 14.4611C17.8668 14.4644 17.9485 14.4903 18.0191 14.536C18.1598 14.4563 18.4082 14.4798 18.5254 14.5829C18.7035 14.461 18.8535 14.4423 19.027 14.5595C19.1676 14.4657 19.3645 14.4563 19.5285 14.5688C19.6832 14.4938 19.8566 14.4329 20.0066 14.597C19.9129 14.5313 19.7254 14.4751 19.5285 14.6251C19.3738 14.4751 19.1113 14.5313 19.027 14.6345C18.9955 14.6001 18.9571 14.5729 18.9143 14.5545C18.8715 14.5362 18.8253 14.5271 18.7787 14.528C18.7322 14.5289 18.6864 14.5397 18.6443 14.5597C18.6022 14.5796 18.5649 14.6083 18.5348 14.6438C18.3801 14.5126 18.1457 14.5079 18.0191 14.611C17.9207 14.5313 17.7754 14.4657 17.541 14.5173Z" fill="#00B800"/>
<path d="M19.8983 14.3344C19.0621 14.4225 18.2181 14.4068 17.3858 14.2875C17.278 14.2547 17.3061 14.2172 17.3998 14.2407C17.9403 14.3145 18.4868 14.3333 19.0311 14.2969L19.2983 13.936C19.3452 13.8844 19.3545 13.875 19.4389 13.861L19.8139 13.8V13.8516L19.7858 13.8797C19.7858 13.9641 19.8045 14.1797 19.8186 14.2641C19.8373 14.2641 19.8608 14.25 19.8655 14.25C19.903 14.2407 19.9311 14.3204 19.903 14.3297L19.8983 14.3344Z" fill="#CF6200"/>
<path d="M21.0279 14.3671H21.117C21.1361 14.3661 21.1544 14.3593 21.1695 14.3475C21.1845 14.3358 21.1957 14.3197 21.2014 14.3015L21.2951 14.0296L21.2248 13.9265C21.2372 13.8517 21.2481 13.7767 21.2576 13.7015L21.3514 13.6687C21.3514 13.65 21.3467 13.5937 21.3233 13.575C21.0279 13.589 20.1514 13.6218 19.9826 13.6218C19.9451 13.6218 19.9264 13.6218 19.9123 13.6734C19.8279 13.9828 19.9451 14.414 20.2545 14.6578C20.2779 14.6812 20.3014 14.6625 20.2639 14.6296C20.1926 14.5601 20.1311 14.4813 20.0811 14.3953L20.3014 14.3859C20.3201 14.4562 20.3717 14.6109 20.3858 14.6343C20.3951 14.6625 20.4186 14.6718 20.4092 14.6343C20.3764 14.5406 20.3623 14.4328 20.3483 14.3859L20.5826 14.3812L20.592 14.6015C20.592 14.6343 20.6201 14.6343 20.6201 14.6015V14.3765L20.8217 14.3718L20.8029 14.5921C20.8029 14.625 20.817 14.6484 20.8264 14.5921L20.8592 14.3718H20.9998C20.9998 14.4093 20.9529 14.5546 20.9389 14.5875C20.9295 14.625 20.9436 14.625 20.9576 14.5875C20.9894 14.517 21.013 14.443 21.0279 14.3671Z" fill="#CF6200"/>
<path d="M20.0441 14.3297C20.0254 14.2828 19.9504 14.1141 19.9457 13.9922L20.2363 13.9828C20.2494 14.0977 20.2682 14.2119 20.2926 14.325L20.0441 14.3297ZM20.2926 13.9828L20.3395 14.325H20.5738L20.5645 13.9781L20.2926 13.9828ZM19.9551 13.6828C19.9457 13.7437 19.941 13.875 19.9457 13.9359L20.2316 13.9313L20.2082 13.6734L19.9551 13.6828ZM20.2645 13.6734L20.2832 13.9266L20.5645 13.9219L20.5504 13.6641L20.2645 13.6734ZM20.6066 13.6641C20.6066 13.7203 20.616 13.8797 20.6113 13.9219L20.8598 13.9125C20.8598 13.8562 20.8691 13.6969 20.8645 13.6547L20.6066 13.6641ZM20.9113 13.6547L20.9066 13.9125L21.1691 13.9031C21.1832 13.8516 21.2066 13.7016 21.2066 13.6406L20.9113 13.6547ZM21.1832 13.9594L20.902 13.9688C20.8948 14.083 20.8854 14.1971 20.8738 14.3109L21.141 14.3016C21.1776 14.216 21.2089 14.1284 21.2348 14.0391L21.1832 13.9594ZM20.6207 13.9734L20.6254 14.3156L20.827 14.3109L20.8551 13.9688L20.6207 13.9734ZM19.4676 13.9078L19.3598 13.9313C19.2726 14.0572 19.1819 14.1807 19.0879 14.3016L19.4816 14.2922L19.4676 13.9125V13.9078ZM19.5191 13.8984L19.5332 14.2875L19.7676 14.2687L19.7348 13.8609L19.5191 13.8984Z" fill="black"/>
<path d="M18.3607 12.9797H17.0811V12.9469L18.3607 12.9609V12.9797ZM19.3592 11.9484C19.3732 11.9484 19.3732 11.9484 19.3592 11.9484L18.3607 11.9297C18.342 11.9297 18.342 11.9297 18.3607 11.9297H19.3592V11.9484ZM18.2951 12.2297C18.3092 12.2297 18.3092 12.2484 18.2951 12.2484H17.1654C17.1467 12.2484 17.1654 12.2297 17.1654 12.2297H18.2951ZM18.3279 11.4984C18.342 11.4984 18.342 11.5172 18.3279 11.5172H17.1467C17.1279 11.5172 17.1279 11.4984 17.1467 11.4984H18.3279ZM18.2436 10.9172C18.2623 10.9172 18.2623 10.9312 18.2436 10.9312H17.0951C17.0811 10.9312 17.0951 10.8984 17.0951 10.8984L18.2623 10.9172H18.2436Z" fill="black"/>
<path d="M19.3592 11.9484C19.3732 11.9484 19.3732 11.9484 19.3592 11.9484ZM19.3592 11.9484L18.3607 11.9297M19.3592 11.9484V11.9297H18.3607M18.3607 11.9297C18.342 11.9297 18.342 11.9297 18.3607 11.9297ZM18.3607 12.9797H17.0811V12.9469L18.3607 12.9609V12.9797ZM18.2951 12.2297C18.3092 12.2297 18.3092 12.2484 18.2951 12.2484H17.1654C17.1467 12.2484 17.1654 12.2297 17.1654 12.2297H18.2951ZM18.3279 11.4984C18.342 11.4984 18.342 11.5172 18.3279 11.5172H17.1467C17.1279 11.5172 17.1279 11.4984 17.1467 11.4984H18.3279ZM18.2436 10.9172C18.2623 10.9172 18.2623 10.9312 18.2436 10.9312H17.0951C17.0811 10.9312 17.0951 10.8984 17.0951 10.8984L18.2623 10.9172H18.2436Z" stroke="black" stroke-width="0.05"/>
<path d="M19.4391 10.5845L18.4453 10.5985" stroke="black" stroke-width="0.05"/>
<path d="M19.4906 11.1468C19.5094 11.1468 19.5094 11.1468 19.4906 11.1468H18.4125C18.3937 11.1468 18.3937 11.1468 18.4125 11.1468H19.4906ZM20.5688 11.9155V11.9296H19.4063C19.3734 11.9296 19.3734 11.9296 19.4063 11.9296H20.5781L20.5688 11.9155ZM20.5688 10.9312C20.6063 10.9312 20.6063 10.9499 20.5688 10.9499H19.3922C19.3734 10.9499 19.3734 10.9312 19.3922 10.9312H20.5875H20.5688ZM19.4719 12.6655C19.4906 12.6655 19.4906 12.6796 19.4719 12.6796H18.4125V12.6608L19.4719 12.6655ZM20.5031 12.8108C20.5219 12.8108 20.5219 12.8108 20.5031 12.8108V12.8108Z" fill="black"/>
<path d="M19.4906 11.1468C19.5094 11.1468 19.5094 11.1468 19.4906 11.1468ZM19.4906 11.1468H18.4125M18.4125 11.1468C18.3937 11.1468 18.3937 11.1468 18.4125 11.1468ZM19.4063 11.9296H20.5688V11.9155L20.5781 11.9296H19.4063ZM19.4063 11.9296C19.3734 11.9296 19.3734 11.9296 19.4063 11.9296ZM20.5031 12.8108C20.5219 12.8108 20.5219 12.8108 20.5031 12.8108ZM20.5031 12.8108H19.575M20.5688 10.9312C20.6063 10.9312 20.6063 10.9499 20.5688 10.9499H19.3922C19.3734 10.9499 19.3734 10.9312 19.3922 10.9312H20.5875H20.5688ZM19.4719 12.6655C19.4906 12.6655 19.4906 12.6796 19.4719 12.6796H18.4125V12.6608L19.4719 12.6655Z" stroke="black" stroke-width="0.05"/>
<path d="M21.3512 12.9796C21.3699 12.9026 21.3699 12.8222 21.3512 12.7452C21.319 12.7542 21.2849 12.7542 21.2527 12.7452C21.2378 12.7334 21.2221 12.7224 21.2059 12.7124C21.2059 12.778 21.1684 12.9608 21.1355 13.0265C21.0887 13.0265 20.9715 13.0265 20.9199 12.9937L20.873 13.1624C20.9549 13.1803 21.0396 13.1803 21.1215 13.1624C21.1215 13.2562 21.1027 13.3452 21.0512 13.4108C21.1355 13.4108 21.2199 13.4108 21.2387 13.364C21.2855 13.2937 21.2855 13.1952 21.3043 13.1437L21.384 13.1296L21.4684 13.0921L21.5855 13.078V12.9796L21.6184 12.9093L21.3512 12.9937V12.9796Z" fill="#EF072D" stroke="black" stroke-width="0.05"/>
<path d="M17.2312 7.35934C17.0633 7.35111 16.895 7.36212 16.7296 7.39216C16.6827 7.42497 16.664 7.43903 16.7624 7.45778C16.8656 7.47653 17.0437 7.54216 17.1468 7.58903C17.2007 7.62551 17.2441 7.67537 17.2729 7.73372C17.3017 7.79207 17.3147 7.8569 17.3109 7.92184C17.2742 8.12733 17.3029 8.33913 17.3929 8.52746C17.4828 8.7158 17.6296 8.87121 17.8124 8.97184C17.8265 8.98591 17.8452 9.00466 17.8265 9.07028L17.7796 9.25778C17.7796 9.28591 17.7609 9.31872 17.8124 9.30466C17.7604 9.39634 17.7041 9.4855 17.6437 9.57184C17.3812 9.53434 17.1468 9.57184 17.1468 9.86716C17.1468 9.89997 17.1468 9.93747 17.1796 9.86716C17.2265 9.80153 17.2781 9.73591 17.3952 9.70309C17.3296 9.82028 17.2968 9.91872 17.3109 9.98434C17.3109 10.0312 17.3484 10.0687 17.3812 9.98434C17.3952 9.91872 17.4609 9.85309 17.5124 9.80153C17.5452 9.78747 17.5452 9.78747 17.5312 9.83434C17.5124 9.88122 17.5452 9.98434 17.5781 10.0218C17.6109 10.05 17.6249 10.0359 17.6109 9.98434C17.6109 9.91872 17.6109 9.80153 17.6952 9.76872C17.7937 9.70309 17.8968 9.73591 17.9296 9.80153C17.9765 9.88591 18.0093 9.80153 17.9624 9.73591C17.9156 9.67028 17.8593 9.58591 17.7937 9.58591L17.9624 9.30466C17.9624 9.27184 17.9952 9.25778 18.0281 9.27184C18.0281 9.28591 18.0609 9.28591 18.0749 9.23903L18.1921 9.00466L18.2952 8.97184L18.4593 9.22028V9.31872C18.4593 9.38903 18.3937 9.53434 18.3749 9.58591C18.1781 9.58591 18.0796 9.58591 18.0093 9.70309C17.9765 9.74997 18.0281 9.76872 18.0796 9.74997C18.1292 9.72015 18.1858 9.70398 18.2437 9.70309C18.2765 9.70309 18.2906 9.73591 18.2437 9.74997C18.1265 9.80153 18.0421 9.88591 18.0421 10.0031C18.0421 10.0359 18.0796 10.05 18.0937 10.0031C18.1406 9.91872 18.2296 9.85309 18.3093 9.83434C18.3093 9.91872 18.3281 10.05 18.3937 10.0828C18.4406 10.1203 18.4406 10.0828 18.4265 10.0359C18.3937 9.95153 18.4265 9.86716 18.4734 9.82028C18.5577 9.71716 18.7593 9.85309 18.8109 9.88591C18.8437 9.91872 18.8765 9.93278 18.8437 9.83903C18.8249 9.71716 18.6562 9.67028 18.5109 9.63747L18.7077 8.93434C18.7921 8.98591 18.8765 8.85466 19.0077 8.90622C19.2421 9.00466 19.589 9.22028 19.6406 9.27184C19.7062 9.31872 19.7249 9.30466 19.7577 9.27184C19.7906 9.25309 19.8421 9.27184 19.889 9.27184C19.9218 9.28591 19.9546 9.30466 19.9077 9.20622C19.8135 9.02987 19.6765 8.87998 19.5093 8.77028C19.6406 8.77028 19.8046 8.77028 19.8046 8.73747C19.8046 8.70466 19.6077 8.63903 19.5234 8.63903C19.6228 8.62075 19.7153 8.57533 19.7906 8.50778C19.8234 8.47028 19.7906 8.45622 19.6546 8.45622C19.3077 8.45622 19.1249 8.45622 18.9421 8.35778C18.6421 8.18903 18.4593 7.99216 18.3093 7.92184C18.2437 7.87497 18.1921 7.77184 18.1452 7.68747C18.0609 7.44372 18.0609 7.31247 17.8452 7.22341C17.7397 7.19284 17.6282 7.18927 17.5209 7.21302C17.4136 7.23677 17.314 7.28709 17.2312 7.35934Z" fill="black" stroke="black" stroke-width="0.05"/>
<path d="M17.2497 7.42499H16.9638L17.2122 7.49061C17.2591 7.49061 17.2451 7.53749 17.2122 7.52343C17.1794 7.50936 17.1466 7.52343 17.1794 7.55624C17.3482 7.67343 17.381 7.72499 17.3482 8.17499L17.4279 8.24061C17.4607 8.24061 17.4466 8.27343 17.4279 8.25468C17.4138 8.24061 17.3482 8.25468 17.3951 8.28749C17.4419 8.32499 17.4794 8.32499 17.4279 8.32499C17.381 8.32499 17.3294 8.3578 17.4279 8.33905C17.5122 8.33905 17.5638 8.37186 17.4279 8.38593C17.3294 8.38593 17.3622 8.42343 17.4279 8.42343C17.5451 8.42343 17.5122 8.45624 17.4747 8.45624C17.4466 8.45624 17.4279 8.48905 17.5122 8.48905H17.6294C17.6435 8.48905 17.6622 8.48905 17.6294 8.5078C17.5966 8.5078 17.5966 8.54061 17.6435 8.54061C17.6951 8.54061 17.7279 8.54061 17.6763 8.55468C17.6622 8.55468 17.6294 8.57343 17.6763 8.58749C17.7935 8.58749 17.8122 8.6203 17.7794 8.63436C17.7466 8.65311 17.7326 8.65311 17.7794 8.65311C17.8263 8.65311 17.8779 8.67186 17.8263 8.69061C17.7935 8.69061 17.7794 8.72343 17.8263 8.72343C17.8779 8.72343 17.9107 8.75624 17.8779 8.7703C17.8451 8.78905 17.831 8.80311 17.8779 8.80311C17.9247 8.80311 17.9435 8.82186 17.9107 8.83593C17.8779 8.87343 17.8638 8.87343 17.8263 8.83593C17.8263 8.80311 17.7935 8.80311 17.7935 8.83593L17.7607 8.78905C17.7466 8.74218 17.7138 8.74218 17.7138 8.78905C17.7138 8.83593 17.6763 8.80311 17.6435 8.78905C17.7236 8.88243 17.8328 8.94614 17.9536 8.96995C18.0743 8.99375 18.1995 8.97627 18.3091 8.9203C18.3279 8.9203 18.3419 8.9203 18.356 8.96718L18.4591 9.15468C18.4779 9.18749 18.506 9.15468 18.506 9.12186L18.6091 8.84061C18.6091 8.78905 18.6747 8.75624 18.656 8.88749C18.7076 8.85468 18.9091 8.84061 19.0779 8.88749C19.2362 8.95125 19.3858 9.03472 19.5232 9.13593C19.5349 9.14526 19.5486 9.15181 19.5632 9.15506C19.5778 9.15831 19.593 9.15818 19.6076 9.15468C19.6544 9.15468 19.6732 9.15468 19.5888 9.0703C19.5091 8.98593 19.5419 8.95311 19.5888 8.98593C19.6404 9.02343 19.6732 9.00468 19.6216 8.95311L19.4576 8.80311C19.4388 8.80311 19.4388 8.7703 19.3591 8.7703H19.106C19.0732 8.7703 19.0404 8.7703 19.1435 8.80311C19.2372 8.83593 19.4247 8.97186 19.4716 9.00468C19.5232 9.03749 19.5419 9.10311 19.4576 9.03749C19.2682 8.9097 19.0673 8.79985 18.8576 8.70936C18.4122 8.75624 18.0419 8.80311 17.7794 8.52186C17.6435 8.37186 17.6435 8.05311 17.8591 7.92186C17.8263 7.88905 17.8263 7.85624 17.8451 7.85624V7.7578C17.8122 7.73905 17.7794 7.71093 17.7794 7.67343C17.7326 7.67343 17.6951 7.58905 17.6107 7.62655C17.531 7.65936 17.5122 7.62655 17.4794 7.6078C17.4607 7.57499 17.4466 7.57499 17.3951 7.57499C17.3482 7.57499 17.3107 7.57499 17.3107 7.54218C17.3107 7.50936 17.3482 7.50936 17.4138 7.54218C17.531 7.58905 17.6294 7.62655 17.7138 7.50936C17.7794 7.40624 17.6763 7.32186 17.5451 7.29374C17.3951 7.26093 17.2966 7.37343 17.231 7.42499H17.2497Z" fill="white" stroke="black" stroke-width="0.05"/>
<path d="M17.9767 7.37354C17.929 7.33147 17.8732 7.29957 17.8127 7.27979C17.7658 7.27979 17.7658 7.30791 17.7799 7.32666V7.4251C17.8127 7.44385 17.8267 7.47197 17.7799 7.47197C17.747 7.50947 17.7799 7.62666 17.8267 7.58916H17.8595C17.8595 7.58916 17.8595 7.64072 17.897 7.64072C17.9299 7.64072 17.897 7.67354 17.897 7.6876H17.9299C17.9627 7.6876 17.9439 7.75791 17.9111 7.77197C17.958 7.77197 17.9767 7.77197 17.9767 7.80947C17.9955 7.84229 18.0424 7.85635 18.0424 7.90322C18.0424 7.95947 18.0424 7.95947 17.9767 7.94072C17.9111 7.92197 17.9111 7.94072 17.897 7.97354C17.8783 8.00635 17.8595 8.02041 17.897 8.02041C17.9299 8.02041 17.9627 8.03916 17.9111 8.05791C17.8642 8.07197 17.8127 8.05791 17.7939 8.10478C17.7939 8.15635 17.7939 8.1751 17.8267 8.15635L17.9439 8.09072L18.0283 8.10478C18.0611 8.12353 18.0283 8.18916 17.9955 8.15635C17.9627 8.12354 17.9299 8.15635 17.9111 8.1751L17.8267 8.20791C17.7939 8.20791 17.7611 8.20791 17.7799 8.2876C17.7799 8.52197 17.9627 8.69072 18.2955 8.69072H18.8439C18.7408 8.62041 18.6752 8.5876 18.6283 8.5876H18.5767C18.5955 8.57353 18.5767 8.54072 18.558 8.54072C18.5439 8.54072 18.5111 8.50791 18.4783 8.54072L18.3095 8.62041C18.2767 8.62041 18.2299 8.62041 18.2767 8.5876L18.4267 8.52197C18.4595 8.52197 18.4455 8.48916 18.4455 8.48916C18.4455 8.48916 18.4455 8.44228 18.4924 8.45635C18.583 8.52314 18.6845 8.57388 18.7924 8.60635C18.8392 8.60635 18.858 8.57354 18.8252 8.55947C18.8124 8.55224 18.8015 8.54211 18.7934 8.5299C18.7852 8.51768 18.7801 8.50373 18.7783 8.48916C18.7783 8.47041 18.7924 8.45635 18.858 8.48916C18.9249 8.53196 18.9975 8.56509 19.0736 8.5876C19.1252 8.60635 19.158 8.60635 19.0736 8.55479L18.6939 8.27354C18.647 8.22666 18.647 8.27353 18.6611 8.30635C18.6752 8.33916 18.6142 8.35322 18.5767 8.3251C18.5439 8.2876 18.5299 8.27354 18.5767 8.25479C18.6236 8.24072 18.6095 8.22197 18.558 8.1751C18.4924 8.12353 18.4783 8.12353 18.4924 8.1751C18.5111 8.22197 18.5111 8.25479 18.4595 8.24072C18.4127 8.22197 18.3611 8.19385 18.4127 8.1751C18.4455 8.14228 18.4924 8.12353 18.4127 8.07197C18.3283 8.0251 18.3752 8.07197 18.3611 8.10478C18.3424 8.14228 18.2955 8.14228 18.2767 8.10478C18.2627 8.07197 18.2299 8.05791 18.2439 8.03916C18.2627 8.0251 18.2627 8.00635 18.2908 8.03916C18.3283 8.07197 18.3611 8.03916 18.3095 7.99229C18.2627 7.94072 18.2439 7.95947 18.2627 7.99229C18.2767 8.0251 18.2299 8.05791 18.1595 7.99229C18.1267 7.97354 18.1267 7.94072 18.1595 7.92197C18.1924 7.92197 18.1924 7.90791 18.1595 7.8751C18.0424 7.67353 18.0939 7.52354 17.9627 7.37354H17.9767Z" fill="white" stroke="black" stroke-width="0.05"/>
<path d="M17.9862 7.40615C17.9769 7.4249 17.9722 7.4249 17.9534 7.43896C17.9253 7.45303 17.9206 7.50459 17.9628 7.49521C17.9956 7.49521 18.0097 7.47178 18.019 7.4624C18.0098 7.44274 17.9988 7.42392 17.9862 7.40615ZM17.8503 7.29834C17.8175 7.33115 17.8128 7.34521 17.8269 7.34521C17.8503 7.34521 17.8409 7.34521 17.8269 7.36865C17.8128 7.39209 17.855 7.40146 17.8737 7.39209C17.8878 7.37803 17.8925 7.36865 17.9019 7.39209C17.9112 7.40615 17.9347 7.39209 17.9581 7.37334C17.9258 7.3435 17.8895 7.31826 17.8503 7.29834ZM17.7894 7.48584C17.7472 7.50928 17.7659 7.61709 17.8269 7.58896C17.8503 7.57959 17.869 7.57959 17.8644 7.59834V7.62646C17.893 7.61522 17.9186 7.59758 17.9394 7.5749C17.9815 7.52803 17.9394 7.52803 17.8831 7.52803C17.8222 7.52803 17.8034 7.52334 17.8644 7.48584C17.9112 7.45303 17.8784 7.43428 17.8081 7.44365C17.8175 7.45772 17.8081 7.47646 17.7894 7.48584ZM18.0425 7.73897C18.005 7.70615 18.0284 7.6874 18.0659 7.67334L18.08 7.65459L18.0519 7.54678C18.0331 7.54678 18.0144 7.58896 18.005 7.6124C18.0003 7.64053 17.9909 7.65928 17.9628 7.64522C17.9347 7.64053 17.9112 7.66865 17.9065 7.70147H17.9206C17.9347 7.70147 17.944 7.72021 17.9394 7.73428C18.019 7.73428 18.0331 7.78584 18.0425 7.82803C18.0565 7.86553 18.0753 7.85615 18.0894 7.8374C18.0987 7.81396 18.0706 7.77178 18.0425 7.73428V7.73897Z" fill="#CF6200"/>
<path d="M18.0605 8.18901C18.0465 8.22183 18.0465 8.22183 17.9996 8.22183C17.9527 8.22183 17.8965 8.23589 17.873 8.25933C17.859 8.27339 17.7793 8.27808 17.7793 8.31558C17.7793 8.34839 17.7793 8.37651 17.8121 8.3812C17.8449 8.3812 17.8496 8.39058 17.8402 8.41401C17.8262 8.43745 17.8168 8.48433 17.873 8.48433C17.934 8.48901 17.9809 8.47495 17.9949 8.50776C18.009 8.54058 17.9949 8.60151 18.0043 8.61558C18.0184 8.63901 18.0605 8.65308 18.1215 8.67183C18.1684 8.6812 18.323 8.69058 18.3746 8.68589C18.4215 8.67651 18.4074 8.65308 18.3559 8.6437C18.309 8.6437 18.2668 8.63433 18.2527 8.59683C18.2434 8.56401 18.234 8.54526 18.2668 8.51245C18.2902 8.47964 18.3184 8.46089 18.3043 8.40933C18.2855 8.36245 18.2574 8.29683 18.2012 8.28276C18.1449 8.2687 18.1637 8.18901 18.1074 8.18433L18.0605 8.18901Z" fill="#FFFF00"/>
<path d="M17.7797 8.6626C17.8312 8.6626 17.8734 8.67667 17.8359 8.69073C17.7891 8.7001 17.7656 8.72354 17.8219 8.72823C17.8734 8.73292 17.9156 8.75167 17.8781 8.76573C17.8406 8.77979 17.8312 8.80323 17.8781 8.79854C17.925 8.79854 17.9484 8.82667 17.9156 8.84542C17.8828 8.86417 17.8594 8.87823 17.8359 8.84542C17.8172 8.8126 17.8031 8.79854 17.7938 8.82667C17.7891 8.8501 17.775 8.83135 17.7562 8.79385C17.7422 8.75167 17.7094 8.74698 17.7188 8.7751C17.7281 8.80792 17.6859 8.80792 17.6484 8.79385C17.6867 8.83273 17.7292 8.86731 17.775 8.89698C17.8219 8.87823 17.8875 8.89698 17.9062 8.89698C17.925 8.89698 17.9953 8.91573 18.0281 8.92979C18.0656 8.94854 18.0891 8.91573 18.075 8.88292C18.0609 8.83604 18.0562 8.85479 18.0422 8.87354C18.0187 8.89698 18.0187 8.86417 18.0187 8.81729C18.0187 8.78448 17.9953 8.79385 17.9813 8.81729C17.9719 8.84073 17.9578 8.80323 17.9672 8.77979C17.9766 8.75635 17.9672 8.74698 17.9437 8.75167C17.925 8.76104 17.925 8.75167 17.9203 8.70479C17.9203 8.6626 17.9016 8.67198 17.8969 8.68604C17.8875 8.70479 17.8734 8.68135 17.8453 8.64854C17.8219 8.61573 17.7984 8.63448 17.7516 8.65323L17.7844 8.6626H17.7797Z" fill="#CF6200"/>
<path d="M18.3045 8.92511C18.0701 9.02354 17.9013 8.98136 17.7701 8.89229C17.8263 8.87823 17.8873 8.89229 17.906 8.89229C17.9486 8.90003 17.9897 8.91426 18.0279 8.93448C18.0654 8.95323 18.0888 8.91573 18.0748 8.87823C18.1123 8.92042 18.131 8.94854 18.1685 8.94854C18.2154 8.94386 18.2717 8.93917 18.3092 8.92511H18.3045ZM17.8029 7.84229C17.7888 7.79542 17.7748 7.78136 17.7467 7.78136L17.681 7.77198C17.6529 7.75792 17.6107 7.77198 17.6107 7.82354C17.6107 7.87979 17.5732 7.90323 17.531 7.93136C17.4842 7.96417 17.4607 7.99229 17.4607 8.04386C17.4607 8.09073 17.4467 8.10948 17.4232 8.14229L17.3717 8.19854L17.4279 8.23604C17.456 8.24542 17.4467 8.26886 17.4138 8.25948C17.381 8.25479 17.3529 8.26886 17.4045 8.28292C17.4513 8.29229 17.4795 8.31573 17.4326 8.31573C17.381 8.31573 17.3248 8.35323 17.4232 8.34386C17.517 8.33448 17.5545 8.37667 17.442 8.37667C17.3248 8.38604 17.3717 8.42354 17.4326 8.42354C17.5404 8.42354 17.5076 8.45167 17.4795 8.45167C17.4513 8.45167 17.4373 8.48448 17.5076 8.47979H17.5123C17.5217 8.47042 17.531 8.45636 17.5357 8.43761C17.5451 8.40479 17.5592 8.30636 17.6013 8.27354C17.6388 8.24542 17.6623 8.20792 17.6623 8.17979C17.6786 8.10994 17.7125 8.04541 17.7607 7.99229C17.8029 7.95948 17.817 7.88917 17.8076 7.84229H17.8029Z" fill="#FFFF00"/>
<path d="M17.719 7.84207C17.6769 7.81395 17.6347 7.8327 17.6347 7.87957C17.6347 7.93113 17.6112 7.94988 17.5784 7.96395C17.56 7.97508 17.5442 7.99005 17.532 8.00785C17.5199 8.02564 17.5117 8.04584 17.5081 8.06707C17.4987 8.10457 17.5128 8.1327 17.48 8.16551C17.4565 8.19832 17.4472 8.22176 17.4706 8.24051C17.494 8.25926 17.494 8.25926 17.4987 8.28738C17.5081 8.31082 17.555 8.28738 17.555 8.25457C17.555 8.22176 17.569 8.22176 17.6019 8.2077C17.6347 8.18895 17.6862 8.10457 17.6722 8.08113C17.6628 8.06238 17.6347 8.04363 17.6722 8.01082C17.7097 7.97332 17.7472 7.97332 17.7472 7.94051C17.7472 7.9077 17.7565 7.90301 17.7706 7.88895C17.78 7.87957 17.7425 7.86082 17.719 7.84207Z" fill="#CF6200"/>
<path d="M17.7184 7.79988C17.6902 7.7905 17.6762 7.84675 17.7137 7.85613C17.7512 7.86082 17.7559 7.80925 17.7137 7.79988H17.7184ZM17.709 7.87488C17.6856 7.87488 17.6481 7.91238 17.6996 7.90769C17.7465 7.903 17.7652 7.8655 17.709 7.87488ZM17.6574 7.9405C17.6246 7.95925 17.634 7.99675 17.6715 7.96863C17.7137 7.93582 17.7277 7.90769 17.6574 7.94519V7.9405ZM17.6106 8.00613C17.5777 8.02019 17.5871 8.05769 17.6293 8.02957C17.6715 8.00144 17.6856 7.96863 17.6106 8.00613Z" fill="black"/>
<path d="M17.5496 8.02965C17.5168 8.04371 17.5403 8.0859 17.5824 8.05778C17.6293 8.03434 17.6246 7.99215 17.5496 8.03434V8.02965ZM17.5824 8.06715C17.5543 8.08121 17.5778 8.1234 17.6153 8.09528C17.6574 8.06715 17.6621 8.02965 17.5824 8.06715Z" fill="black"/>
<path d="M17.536 8.08121C17.5032 8.09996 17.522 8.13746 17.5689 8.10933C17.6157 8.08121 17.6064 8.04371 17.536 8.08121ZM17.5689 8.12808C17.536 8.14215 17.5548 8.17965 17.6017 8.15152C17.6439 8.1234 17.6392 8.09058 17.5642 8.12808H17.5689Z" fill="black"/>
<path d="M17.5172 8.15165C17.4844 8.16571 17.5079 8.20321 17.5547 8.17509C17.6016 8.15165 17.5876 8.11415 17.5172 8.15165Z" fill="black"/>
<path d="M17.5214 8.189C17.4886 8.20307 17.5073 8.24057 17.5542 8.21244C17.6011 8.189 17.5917 8.1515 17.5214 8.189Z" fill="black"/>
<path d="M17.4986 8.55466C17.4657 8.55466 17.4517 8.60154 17.4845 8.60623C17.522 8.6156 17.5314 8.6156 17.5314 8.64841C17.5314 8.67654 17.5407 8.71404 17.5829 8.71873C17.6251 8.71873 17.6626 8.67185 17.6251 8.66248C17.5876 8.64841 17.5548 8.63435 17.5548 8.60623C17.5548 8.56873 17.522 8.54998 17.4986 8.55466Z" fill="#CF6200"/>
<path d="M18.5625 8.30613L18.5766 8.32488C18.6047 8.34832 18.661 8.32488 18.6516 8.30613C18.6469 8.2827 18.6188 8.22176 18.6844 8.27332L19.0829 8.54988C19.1625 8.60613 19.111 8.61551 19.0735 8.59676L18.8625 8.49832C18.7969 8.46082 18.7922 8.47488 18.7782 8.48426C18.7735 8.49832 18.7782 8.52176 18.8016 8.5452C18.7641 8.54988 18.7032 8.5452 18.6844 8.49832C18.661 8.45145 18.6094 8.39051 18.5766 8.34363C18.5625 8.32488 18.5532 8.31551 18.5579 8.30613H18.5625Z" fill="#FFFF00"/>
<path d="M20.7044 15.3845C20.6481 15.4173 20.5731 15.4829 20.6247 15.572L20.6388 15.5626C20.8459 15.3112 21.0295 15.0413 21.1872 14.7563V14.7329C21.1307 14.7809 21.0676 14.8204 20.9997 14.8501C21.0231 14.9204 20.9059 15.0095 20.8356 15.0376C20.8638 15.0845 20.8544 15.1454 20.7981 15.1595C20.8122 15.197 20.7653 15.197 20.7184 15.2204C20.6669 15.2438 20.6388 15.2532 20.6247 15.286C20.6481 15.2673 20.6903 15.2532 20.7091 15.2626C20.7278 15.272 20.7372 15.3001 20.695 15.3095C20.6575 15.3188 20.6294 15.3376 20.62 15.3563C20.6763 15.3376 20.7559 15.347 20.6997 15.3845H20.7044Z" fill="#00D860"/>
<path d="M18.1406 8.22183C18.0796 8.17496 18.0609 8.20777 18.0796 8.22183C18.0937 8.24058 18.0796 8.28746 18.0281 8.30621H17.8593C17.8265 8.30621 17.7796 8.37183 17.8593 8.35308L18.1265 8.30621C18.1593 8.30621 18.1921 8.2734 18.1265 8.22183H18.1406ZM18.2624 8.32496C18.2109 8.2734 18.1921 8.28746 18.2109 8.32496C18.2296 8.35777 18.1921 8.37183 18.164 8.37183L17.9296 8.43746C17.8593 8.43746 17.8593 8.48902 17.9437 8.48902C18.0281 8.48902 18.1921 8.40465 18.2109 8.40465C18.2296 8.40465 18.2437 8.35777 18.2578 8.37183C18.2765 8.39058 18.3093 8.37183 18.2578 8.32496H18.2624ZM18.3093 8.45621L18.1453 8.54058C18.0984 8.54058 18.0609 8.58746 18.1453 8.58746C18.2296 8.58746 18.3093 8.50777 18.3421 8.48902L18.4124 8.45621C18.4124 8.45621 18.4781 8.43746 18.4124 8.39058C18.3421 8.34371 18.2765 8.39058 18.3093 8.40465C18.3421 8.4234 18.3093 8.45152 18.3093 8.45152V8.45621Z" fill="black" stroke="black" stroke-width="0.05"/>
<path d="M17.6294 7.37339C17.5262 7.30777 17.4044 7.44839 17.5216 7.52808C17.6247 7.59839 17.7325 7.43902 17.6294 7.37339Z" fill="black"/>
<path d="M17.4988 7.43896H17.5317C17.5223 7.47178 17.5551 7.51865 17.6067 7.50928C17.5645 7.5374 17.4895 7.50459 17.4988 7.43896ZM17.9114 9.00928C17.9442 9.01865 18.052 9.03271 18.0895 9.03271L18.0426 9.12646C18.0285 9.15459 18.0239 9.15928 18.0239 9.11709C18.0239 9.07021 17.9957 9.04209 17.977 9.08896L17.9301 9.16865C17.9207 9.1874 17.902 9.19678 17.9067 9.1499V9.01397L17.9114 9.00928Z" fill="white"/>
<path d="M22.0824 10.2844C22.0824 12.9937 21.6512 15.9187 18.1262 17.3156C14.6199 15.9187 14.1887 12.9937 14.1699 10.2844M22.0824 10.2844H14.1699M22.0824 10.2844C22.0824 9.25311 22.0355 8.25467 22.0496 7.39217C20.7991 6.90641 19.4676 6.66302 18.1262 6.67498C17.2449 6.67498 15.5152 6.81092 14.2027 7.39217C14.2355 8.25467 14.1699 9.25311 14.1699 10.2844" stroke="black" stroke-width="0.1375"/>
<path d="M0 0H12V12H0V0Z" fill="#012169"/>
<path d="M12 0V1.5L7.54688 6L12 10.3828V12H10.4297L5.95312 7.59375L1.59375 12H0V10.4062L4.35938 6.02344L0 1.73438V0H1.45312L5.95312 4.40625L10.3125 0H12Z" fill="white"/>
<path d="M4.3125 7.59375L4.57031 8.39062L0.984375 12H0V11.9297L4.3125 7.59375ZM7.21875 7.3125L8.48438 7.5L12 10.9453V12L7.21875 7.3125ZM12 0L7.5 4.59375L7.40625 3.5625L10.9219 0H12ZM0 0.0234375L4.52344 4.45312L3.14062 4.26562L0 1.14844V0.0234375Z" fill="#C8102E"/>
<path d="M4.125 0V12H7.875V0H4.125ZM0 4.125V7.875H12V4.125H0Z" fill="white"/>
<path d="M0 4.875V7.125H12V4.875H0ZM4.875 0V12H7.125V0H4.875Z" fill="#C8102E"/>
</g>
<defs>
<clipPath id="clip0_208_26541">
<rect width="24" height="24" rx="12" fill="white"/>
</clipPath>
</defs>
</svg>
