<svg width="24" height="24" viewBox="0 0 24 24" fill="none" xmlns="http://www.w3.org/2000/svg">
<g clip-path="url(#clip0_208_25549)">
<mask id="mask0_208_25549" style="mask-type:luminance" maskUnits="userSpaceOnUse" x="0" y="0" width="24" height="25">
<path d="M0 0H24.0005V24.0005H0V0Z" fill="white"/>
</mask>
<g mask="url(#mask0_208_25549)">
<path fill-rule="evenodd" clip-rule="evenodd" d="M0 0H36.0007V12.0002H16.0003L0 0Z" fill="#ED2939"/>
<path fill-rule="evenodd" clip-rule="evenodd" d="M0 24.0005H36.0007V12.0002H16.0003L0 24.0005Z" fill="#002395"/>
<path fill-rule="evenodd" clip-rule="evenodd" d="M0 0L16.0003 12.0002L0 24.0005V0Z" fill="white"/>
<path d="M8.0749 9.05606L8.08023 8.87473C8.08023 8.87473 7.9789 8.71472 8.09623 8.54405C8.09623 8.54405 7.85089 8.41072 7.90956 8.20805C7.90956 8.20805 7.68556 8.15471 7.70156 7.90937C7.70156 7.90937 7.46155 7.89337 7.43489 7.68537C7.43489 7.68537 7.19488 7.72804 7.09355 7.52537C7.09355 7.52537 6.85887 7.57337 6.78954 7.40803C6.78954 7.40803 6.56554 7.48803 6.42687 7.29603C6.42687 7.29603 6.18686 7.39203 6.08553 7.21069C5.98952 7.39203 5.74952 7.29603 5.74952 7.29603C5.61618 7.48803 5.38685 7.4027 5.38685 7.4027C5.32284 7.57337 5.08817 7.52537 5.08817 7.52537C4.9815 7.7227 4.7415 7.68537 4.7415 7.68537C4.72017 7.88804 4.47483 7.90404 4.47483 7.90404C4.48277 7.9698 4.46736 8.03627 4.43129 8.09183C4.39523 8.14739 4.34079 8.18853 4.27749 8.20805C4.33082 8.41072 4.09082 8.53872 4.09082 8.53872C4.20816 8.70939 4.10682 8.86939 4.10682 8.86939V9.04006L8.0749 9.05606Z" fill="#FFFF00"/>
<path d="M8.07596 9.05824V8.87019C8.07596 8.87019 7.97924 8.709 8.09745 8.54781C8.09745 8.54781 7.85027 8.41349 7.90938 8.20932C7.90938 8.20932 7.6837 8.15559 7.69982 7.90844C7.69982 7.90844 7.45801 7.89232 7.43115 7.68815C7.43115 7.68815 7.19471 7.72576 7.09262 7.52696C7.09262 7.52696 6.85619 7.56995 6.79171 7.40876C6.79171 7.40876 6.56065 7.48935 6.42631 7.29593C6.42631 7.29593 6.18451 7.39264 6.08779 7.20996C5.98569 7.39264 5.74389 7.29593 5.74389 7.29593C5.61492 7.48398 5.38387 7.40338 5.38387 7.40338C5.31938 7.56994 5.08833 7.52696 5.08833 7.52696C4.98086 7.72576 4.73905 7.68815 4.73905 7.68815C4.71756 7.88695 4.47576 7.90306 4.47576 7.90306C4.48464 7.96878 4.46938 8.03549 4.43282 8.09082C4.39626 8.14615 4.34088 8.18634 4.27694 8.20395C4.33067 8.40812 4.08887 8.53707 4.08887 8.53707C4.20708 8.709 4.10499 8.87019 4.10499 8.87019V9.04212L8.07596 9.05824Z" stroke="black" stroke-width="0.0429854"/>
<path d="M7.98405 8.82684C7.36004 8.76284 6.64003 8.61351 6.08535 8.92818C5.71201 8.70951 5.19467 8.72017 4.75199 8.76818C4.51732 8.80551 4.23465 8.80551 3.98398 8.84818L3.94664 8.85351C3.48797 8.88551 3.07729 8.74684 2.68262 8.57617C2.81062 9.28552 2.94929 10.0162 3.01862 10.7629C3.16796 11.8616 2.49595 12.7896 2.76795 13.8776C2.93329 14.4003 3.5093 14.7043 4.03731 14.763C4.54331 14.7961 5.04609 14.8674 5.54134 14.9763C5.63107 14.9984 5.71856 15.0287 5.80268 15.067C5.91743 15.1167 6.02086 15.1893 6.10668 15.2803C6.39469 14.987 6.8107 14.907 7.22671 14.8643C7.96272 14.7736 8.88007 14.8216 9.33341 14.1496V14.1123C9.57875 13.7389 9.54675 13.1736 9.44008 12.7523C9.42941 12.6083 9.39208 12.4802 9.37075 12.3362C8.9174 11.1416 9.30675 9.79753 9.49875 8.59217C9.26408 8.72017 8.99741 8.78418 8.73073 8.84818C8.5174 8.87484 8.28806 8.86418 8.06939 8.84818L7.98405 8.82684Z" fill="#FF0000"/>
<path d="M8.91734 12.2615C8.91201 12.3415 8.95467 12.4001 8.97067 12.4748C9.05601 12.9975 9.14134 13.6908 8.59733 14.0162C8.01065 14.3895 7.22664 14.2295 6.53863 14.4322C6.39996 14.4695 6.20795 14.5922 6.11195 14.6828C6.04795 14.6455 5.98928 14.5815 5.90928 14.5442C5.3386 14.2455 4.60259 14.3415 3.96258 14.1815C3.64257 14.0748 3.30656 13.8295 3.22123 13.4988C3.01322 12.6348 3.51457 11.8988 3.4559 11.0454C3.41495 10.4047 3.31497 9.7691 3.15723 9.14673C3.6741 9.37243 4.24922 9.42845 4.79993 9.30673C5.21593 9.2534 5.70661 9.2534 6.09062 9.42407C6.31506 9.3389 6.55016 9.28506 6.7893 9.26406C7.23197 9.30673 7.70665 9.38673 8.15999 9.38673C8.45241 9.36536 8.73824 9.28938 9.00267 9.16273C8.84267 10.1761 8.544 11.2428 8.91201 12.2561" fill="#80CFE1"/>
<path d="M8.01593 12.4643L8.0106 11.5097H8.12793L6.66657 10.5656V10.0803H6.80524L6.07456 9.55762L5.34921 10.0803H5.48788V10.5656L4.04785 11.5097H4.15452L4.16519 12.459H8.00526" fill="white"/>
<path d="M8.0115 12.4646V11.5082H8.12434L6.67351 10.568L6.66814 10.0844H6.80785L6.07706 9.55786L5.35164 10.079H5.49135L5.49673 10.568L4.0459 11.5082H4.16411V12.4592H8.0115V12.4646Z" stroke="black" stroke-width="0.171941"/>
<path d="M8.46393 13.7124V14.011H3.77051V13.707H8.46393" fill="white"/>
<path d="M8.46299 13.7166V14.0121H3.7666V13.7112H8.46299V13.7166Z" stroke="black" stroke-width="0.171941"/>
<path d="M4.08 13.6962V12.6829H4.26667L4.25601 13.7069L4.26667 12.6935L4 12.6882V12.4749H8.19208V12.6882H7.93074H8.12275V13.7015" fill="white"/>
<path d="M4.07865 13.695V12.6849H4.26672L4.25597 13.7057L4.26672 12.6956L3.99805 12.6849V12.47L8.18933 12.4753V12.6903H7.9314L7.93678 13.7111L7.92603 12.6903H8.11947L8.12485 13.7004" stroke="black" stroke-width="0.171941"/>
<path d="M4.98169 13.448V12.7441H4.41211V13.4426L4.97632 13.448" stroke="black" stroke-width="0.171941"/>
<path d="M4.57276 12.8892V13.2975H4.83068V12.8892H4.56738M7.73771 13.448L7.73234 12.7495H7.1735V13.448H7.73771Z" stroke="black" stroke-width="0.171941"/>
<path d="M7.3238 12.8945V13.3028H7.58172V12.8945H7.3238ZM7.73218 12.3035V11.605H7.16797V12.3035H7.73218Z" stroke="black" stroke-width="0.171941"/>
<path d="M7.31914 11.7501V12.1584H7.57706V11.7501H7.31914ZM4.97632 12.3035V11.5996H4.41211V12.2981H4.97632V12.3035Z" stroke="black" stroke-width="0.171941"/>
<path d="M5.99672 12.3035V11.5996H5.43251V12.2981H5.99672M4.56738 11.7447V12.153H4.82531V11.7447H4.56738Z" stroke="black" stroke-width="0.171941"/>
<path d="M5.58301 11.7447V12.153H5.84093V11.7447H5.58301ZM6.78129 12.3035V11.605L6.21707 11.5996V12.2981L6.78129 12.3035Z" stroke="black" stroke-width="0.171941"/>
<path d="M6.36719 11.7446V12.153H6.63049V11.7446H6.36719Z" stroke="black" stroke-width="0.171941"/>
<path d="M6.9226 12.0908L6.92793 13.7121H5.30123L5.2959 12.0854H6.9226" fill="white"/>
<path d="M5.28201 12.5506H6.92628M5.4862 13.7112V12.5614M6.72747 13.7112V12.5667M6.92091 12.0885L6.92628 13.7112H5.29813L5.29276 12.0885H6.92091ZM7.51736 11.3954L6.60388 10.7292H5.5668L4.65332 11.3954H7.51736ZM5.64741 10.1704V10.5788H6.5179V10.1704H5.64741Z" stroke="black" stroke-width="0.171941"/>
<path d="M6.07785 9.69751L6.56145 10.0414H5.59961L6.08322 9.69751M5.8844 10.2724V10.4766H6.28204V10.2724H5.8844Z" stroke="black" stroke-width="0.171941"/>
<path d="M8.03199 9.47221C8.17066 9.47221 8.20266 10.0375 8.20266 10.3202C8.39333 10.3945 8.56342 10.5134 8.69867 10.6669H7.37598C7.5082 10.5147 7.6745 10.3959 7.86132 10.3202C7.86132 10.0375 7.89332 9.46687 8.03199 9.47221Z" fill="white"/>
<path d="M6.43748 12.1315H6.55569L6.51808 12.2014C6.51808 12.2014 6.57719 12.2712 6.51808 12.3572L6.55032 12.4109H6.44285L6.46972 12.3572C6.46972 12.3572 6.41598 12.2605 6.46972 12.196L6.43748 12.1369M8.02802 9.47192C8.16773 9.47192 8.19997 10.0361 8.19997 10.3208C8.31818 10.3531 8.58148 10.5196 8.69432 10.6647H7.37246C7.4853 10.5196 7.7486 10.3531 7.86144 10.3208C7.86144 10.0361 7.89368 9.47192 8.02802 9.47192ZM5.36816 12.1315H5.48638L5.45414 12.196C5.45414 12.196 5.50787 12.2712 5.45414 12.3572L5.48638 12.4109H5.36816L5.40041 12.3572C5.40041 12.3572 5.34667 12.2605 5.40041 12.196L5.36816 12.1315ZM5.60997 12.1315H5.72819L5.69594 12.196C5.69594 12.196 5.74968 12.2712 5.69594 12.3572L5.72819 12.4109H5.60997L5.64221 12.3572C5.64221 12.3572 5.58848 12.2605 5.64221 12.196L5.60997 12.1315ZM5.87864 12.1315H5.99148L5.95924 12.196C5.95924 12.196 6.01298 12.2712 5.95924 12.3572L5.99148 12.4109H5.87864L5.90551 12.3572C5.90551 12.3572 5.85177 12.2605 5.90551 12.196L5.87327 12.1315H5.87864ZM6.17418 12.1315H6.2924L6.25478 12.2014C6.25478 12.2014 6.31389 12.2712 6.25478 12.3572L6.28702 12.4109H6.17418L6.20642 12.3572C6.20642 12.3572 6.15269 12.2605 6.20642 12.196L6.17418 12.1369V12.1315ZM6.70078 12.1369H6.81899L6.78138 12.2014C6.78138 12.2014 6.84049 12.2712 6.78138 12.3572L6.81362 12.4109H6.70615L6.73302 12.3572C6.73302 12.3572 6.67928 12.2605 6.73302 12.196L6.70078 12.1369Z" stroke="black" stroke-width="0.171941"/>
<path d="M6.11699 15.7869C6.70012 15.8022 7.2804 15.7006 7.82369 15.4882L8.60237 15.4189L8.61304 16.3576C7.96236 16.7203 6.453 16.8003 6.11699 16.7949C5.78632 16.7949 4.25562 16.7203 3.59961 16.3576L3.61028 15.4136L4.38362 15.4829C4.93634 15.6958 5.52474 15.8008 6.11699 15.7922" fill="#FFFF00"/>
<path d="M6.11487 15.7904C6.72744 15.7904 7.47435 15.6668 7.829 15.4842L8.5974 15.4197L8.61352 16.3599C7.96333 16.7199 6.44802 16.8005 6.12024 16.7951C5.78709 16.7951 4.25566 16.7199 3.59473 16.3546L3.60547 15.4143L4.37925 15.4842C4.7339 15.6668 5.50767 15.7904 6.11487 15.7904Z" stroke="black" stroke-width="0.0429854"/>
<path d="M1.61075 11.771L2.29343 11.9843L2.08543 13.0884L1.44541 13.1897C1.44541 13.1897 1.33875 12.6083 1.61075 11.771Z" fill="#FFFF00"/>
<path d="M1.61219 11.7715L2.28924 11.9864L2.08505 13.0878L1.44024 13.1899C1.44024 13.1899 1.33277 12.6097 1.61219 11.7715Z" stroke="black" stroke-width="0.0429854"/>
<path d="M2.08532 13.0775L1.44531 13.1895L1.85065 12.6082L2.08532 13.0775Z" fill="#7E7E7E"/>
<path d="M2.08524 13.0773L1.44043 13.1848L1.84881 12.6099L2.08524 13.0773Z" stroke="black" stroke-width="0.0429854"/>
<path d="M1.2053 12.5657L1.86131 12.6137C1.87731 13.1684 1.94132 15.2857 4.4747 15.4031L4.3947 16.1764C1.31197 16.2084 1.08263 13.5737 1.2053 12.5657Z" fill="#FFFF00"/>
<path d="M3.61087 16.3331L4.38465 16.1665M1.20357 12.5667L1.85913 12.6096C1.87525 13.1684 1.93973 15.2853 4.476 15.4035L4.39539 16.1772C1.31104 16.2095 1.07998 13.5768 1.20357 12.5667Z" stroke="black" stroke-width="0.0429854"/>
<path d="M10.566 11.7761L9.88867 11.9895L10.102 13.0935L10.7474 13.2002C10.7474 13.2002 10.854 12.6135 10.566 11.7761Z" fill="#FFFF00"/>
<path d="M10.5647 11.7769L9.8877 11.9918L10.1026 13.0932L10.7474 13.2007C10.7474 13.2007 10.8549 12.6204 10.5647 11.7769Z" stroke="black" stroke-width="0.0429854"/>
<path d="M10.1016 13.0829L10.7469 13.1949L10.3362 12.6189L10.1016 13.0829Z" fill="#7E7E7E"/>
<path d="M10.1025 13.0827L10.7474 13.1955L10.3336 12.6206L10.1025 13.0827Z" stroke="black" stroke-width="0.0429854"/>
<path d="M10.9815 12.5708L10.3254 12.6188C10.3148 13.1735 10.2668 15.2962 7.7334 15.4082L7.81873 16.1762C10.9015 16.2135 11.1148 13.5788 10.9815 12.5708Z" fill="#FFFF00"/>
<path d="M8.60292 16.3331L7.82914 16.1719M10.978 12.572L10.3224 12.615C10.3117 13.1738 10.2687 15.2961 7.73242 15.4089L7.8184 16.1772C10.9028 16.2148 11.1123 13.5821 10.978 12.5774V12.572Z" stroke="black" stroke-width="0.0429854"/>
<path d="M5.70651 16.2564C5.69051 16.2671 5.66384 16.2671 5.63717 16.2671L5.5145 16.2618L5.52517 16.1071L5.64784 16.1124C5.66917 16.1124 5.69051 16.1231 5.70117 16.1284C5.72784 16.1391 5.73851 16.1658 5.73317 16.1978C5.73317 16.2244 5.72251 16.2458 5.70651 16.2511M5.4985 16.4964L5.5145 16.3098L5.65317 16.3204C5.69141 16.3229 5.72927 16.3115 5.75984 16.2884C5.78118 16.2618 5.79718 16.2351 5.79718 16.1978C5.79934 16.1804 5.79759 16.1627 5.79206 16.1461C5.78652 16.1295 5.77733 16.1144 5.76518 16.1018C5.73862 16.0783 5.70459 16.0651 5.66917 16.0644L5.4665 16.0538L5.43984 16.4911H5.4985M5.94651 16.1284H6.09585L6.14918 16.1391C6.16518 16.1498 6.17585 16.1711 6.17585 16.2031C6.17585 16.2351 6.17052 16.2564 6.15452 16.2671C6.13852 16.2778 6.11185 16.2831 6.08518 16.2831H5.94118V16.1284M5.94118 16.5178V16.3311H6.07985C6.10652 16.3311 6.12785 16.3311 6.13852 16.3418C6.15985 16.3471 6.17052 16.3684 6.17052 16.3951V16.4698L6.17585 16.5071L6.18118 16.5231H6.25585V16.5124C6.25043 16.51 6.24567 16.5063 6.24196 16.5017C6.23825 16.497 6.2357 16.4916 6.23452 16.4858V16.3898C6.23452 16.3631 6.22385 16.3418 6.21318 16.3364C6.20441 16.3221 6.19135 16.3109 6.17585 16.3044L6.22918 16.2671L6.23985 16.1978C6.23985 16.1498 6.21852 16.1124 6.17585 16.0964C6.14876 16.0854 6.11974 16.08 6.09052 16.0804H5.88251V16.5178H5.94118ZM6.41052 16.4271C6.38198 16.3923 6.36518 16.3494 6.36252 16.3044C6.36252 16.2404 6.37319 16.1978 6.39985 16.1658C6.42652 16.1284 6.46386 16.1124 6.51186 16.1124C6.56519 16.1124 6.59719 16.1231 6.62919 16.1551C6.65586 16.1818 6.67719 16.2244 6.68253 16.2778C6.68253 16.3258 6.67186 16.3684 6.65053 16.4058C6.62386 16.4431 6.59186 16.4644 6.53319 16.4698C6.47986 16.4698 6.43719 16.4591 6.41052 16.4271ZM6.33585 16.1498C6.30694 16.1959 6.29384 16.2502 6.29852 16.3044C6.30027 16.3637 6.32295 16.4203 6.36252 16.4644C6.3848 16.4844 6.41103 16.4995 6.43951 16.5087C6.468 16.5179 6.4981 16.521 6.52786 16.5178C6.5606 16.5188 6.59312 16.5121 6.62277 16.4982C6.65243 16.4843 6.67839 16.4636 6.69853 16.4378C6.73049 16.3888 6.74548 16.3307 6.74119 16.2724C6.74128 16.218 6.72243 16.1652 6.68786 16.1231C6.64519 16.0751 6.58119 16.0538 6.50652 16.0591C6.42652 16.0591 6.37319 16.0911 6.33585 16.1498ZM8.39989 15.5151C8.43708 15.5073 8.47562 15.5092 8.5119 15.5204C8.56523 15.5364 8.59723 15.5738 8.61857 15.6271L8.55456 15.6378C8.55042 15.6241 8.54357 15.6113 8.5344 15.6003C8.52524 15.5893 8.51396 15.5803 8.50123 15.5738C8.4721 15.5635 8.44069 15.5617 8.41056 15.5684C8.39041 15.5702 8.3709 15.5764 8.3534 15.5865C8.33589 15.5967 8.32082 15.6105 8.30923 15.6271C8.28789 15.6644 8.28256 15.7071 8.29323 15.7711C8.29856 15.8244 8.31989 15.8618 8.34656 15.8884C8.37856 15.9204 8.41589 15.9311 8.46923 15.9204C8.50684 15.9155 8.54117 15.8964 8.56523 15.8671C8.58657 15.8458 8.59723 15.8031 8.58656 15.7551L8.4479 15.7764L8.43723 15.7284L8.63457 15.6964L8.6719 15.9311H8.63457L8.61323 15.8778C8.59876 15.8986 8.5807 15.9166 8.5599 15.9311C8.5322 15.9535 8.49909 15.9682 8.4639 15.9738C8.41358 15.9816 8.36217 15.9701 8.31989 15.9418C8.295 15.9224 8.27418 15.8982 8.25863 15.8708C8.24307 15.8433 8.23308 15.8131 8.22922 15.7818C8.22236 15.7509 8.22165 15.719 8.22714 15.6879C8.23263 15.6568 8.24422 15.627 8.26122 15.6004C8.27667 15.5769 8.2971 15.5571 8.32107 15.5423C8.34503 15.5276 8.37194 15.5183 8.39989 15.5151ZM8.8479 15.4831L8.98657 15.4297C9.00361 15.4235 9.02196 15.4216 9.03991 15.4244C9.06124 15.4244 9.08257 15.4404 9.09324 15.4724C9.10391 15.4991 9.10391 15.5204 9.09324 15.5364L9.03457 15.5738L8.90124 15.6271L8.8479 15.4831ZM8.98657 15.8458L8.91724 15.6698L9.05057 15.6218C9.06761 15.6152 9.08565 15.6116 9.10391 15.6111C9.12524 15.6111 9.14124 15.6271 9.15724 15.6538L9.18391 15.7231L9.19991 15.7551L9.21058 15.7658L9.27991 15.7391V15.7338C9.26924 15.7338 9.25858 15.7231 9.24791 15.7124L9.23191 15.6804L9.21058 15.6271C9.19991 15.6004 9.18924 15.5844 9.17324 15.5738C9.15823 15.5667 9.14184 15.563 9.12524 15.5631C9.14124 15.5471 9.15191 15.5311 9.15724 15.5097C9.16145 15.4883 9.1596 15.4662 9.15191 15.4457C9.13058 15.3977 9.09857 15.3711 9.05057 15.3711C9.02924 15.3711 8.99724 15.3711 8.96524 15.3817L8.7679 15.4564L8.9279 15.8671L8.98657 15.8458ZM9.49858 15.6324L9.24791 15.2591L9.52525 15.0831L9.55725 15.1311L9.32791 15.2751L9.40791 15.3817L9.61592 15.2537L9.64259 15.2964L9.43458 15.4297L9.51992 15.5524L9.74925 15.4031L9.78125 15.4457L9.49858 15.6271M9.72259 14.9817L9.79192 14.9017C9.82392 14.8644 9.86126 14.8484 9.89859 14.8537C9.94479 14.8594 9.98786 14.88 10.0213 14.9124C10.0518 14.9394 10.074 14.9745 10.0853 15.0137C10.0959 15.0404 10.0906 15.0671 10.0853 15.0884L10.0533 15.1257L9.97859 15.2057L9.72259 14.9817ZM10.0959 15.1524C10.1493 15.0991 10.1653 15.0351 10.1333 14.9657C10.1145 14.9249 10.0872 14.8885 10.0533 14.8591C10.0136 14.8225 9.96299 14.8 9.90926 14.7951C9.88101 14.7925 9.85256 14.797 9.82648 14.8082C9.80041 14.8193 9.77753 14.8368 9.75992 14.8591L9.63725 14.9871L9.97859 15.2857L10.1013 15.1524M10.3626 14.8111L9.97326 14.5817L10.0053 14.5284L10.3946 14.7577L10.3626 14.8111ZM10.5173 14.5444L10.0906 14.3791L10.2186 14.0804L10.2719 14.1017L10.1653 14.3471L10.2933 14.3951L10.3893 14.1711L10.4426 14.1924L10.3466 14.4164L10.4853 14.4697L10.5919 14.2244L10.6453 14.2457L10.5173 14.5444ZM10.7093 14.0271L10.2666 13.9311L10.2826 13.8617L10.6879 13.723L10.3306 13.6484L10.3413 13.595L10.7839 13.6857L10.7733 13.755L10.3626 13.8937L10.7199 13.9737L10.7093 14.0271ZM10.6719 13.467L10.6773 13.4137C10.7039 13.4137 10.7306 13.4137 10.7413 13.3977C10.7733 13.3817 10.7946 13.3497 10.7946 13.3017V13.2377C10.7839 13.2004 10.7626 13.1844 10.7306 13.179C10.7039 13.179 10.6879 13.179 10.6773 13.195C10.6666 13.211 10.6506 13.2324 10.6453 13.2644L10.6239 13.3177L10.5866 13.403C10.5653 13.4297 10.5333 13.4404 10.4959 13.435C10.4771 13.4335 10.4587 13.4279 10.4422 13.4187C10.4256 13.4095 10.4112 13.3969 10.3999 13.3817C10.3733 13.355 10.3679 13.3177 10.3733 13.2644C10.3733 13.2217 10.3893 13.1844 10.4159 13.1524C10.4426 13.1257 10.4799 13.1097 10.5279 13.115V13.1684C10.5013 13.1684 10.4799 13.1737 10.4693 13.1844C10.4426 13.2004 10.4266 13.227 10.4266 13.275C10.4213 13.307 10.4266 13.3284 10.4373 13.3497C10.4533 13.3657 10.4693 13.3764 10.4906 13.3764C10.5119 13.3764 10.5279 13.3764 10.5439 13.355L10.5759 13.2804L10.5919 13.2217C10.6026 13.1897 10.6133 13.1684 10.6293 13.1524C10.6419 13.1402 10.657 13.131 10.6736 13.1255C10.6903 13.12 10.7079 13.1182 10.7253 13.1204C10.7786 13.1257 10.8106 13.147 10.8319 13.1844C10.8479 13.2217 10.8533 13.2644 10.8479 13.3124C10.8484 13.3355 10.8439 13.3584 10.8347 13.3795C10.8255 13.4007 10.8118 13.4197 10.7946 13.435C10.7774 13.4485 10.7577 13.4582 10.7366 13.4637C10.7155 13.4692 10.6935 13.4703 10.6719 13.467ZM1.50376 13.4404L1.51443 13.4937C1.49309 13.499 1.47176 13.5097 1.46109 13.5257C1.42909 13.547 1.42376 13.579 1.42909 13.6324L1.45042 13.691C1.47176 13.723 1.49843 13.739 1.53043 13.7337C1.55176 13.7284 1.56776 13.7177 1.57843 13.7017L1.58909 13.627V13.563L1.61043 13.4777C1.62109 13.451 1.64776 13.4297 1.6851 13.4244C1.70375 13.421 1.72291 13.4216 1.74131 13.4262C1.7597 13.4308 1.7769 13.4393 1.79176 13.451C1.82377 13.4724 1.8451 13.5044 1.8451 13.5577C1.85151 13.5778 1.85387 13.5991 1.85204 13.6201C1.85021 13.6412 1.84422 13.6617 1.83443 13.6804C1.81843 13.7124 1.78643 13.7337 1.73843 13.7444L1.72776 13.691C1.7491 13.6804 1.7651 13.675 1.7811 13.659C1.7971 13.6377 1.80243 13.6057 1.7971 13.563C1.79176 13.531 1.7811 13.5097 1.75976 13.4937C1.75246 13.4875 1.74395 13.4829 1.73477 13.4801C1.72559 13.4774 1.71594 13.4765 1.70643 13.4777C1.69653 13.4793 1.68727 13.4836 1.67972 13.4902C1.67218 13.4968 1.66664 13.5054 1.66376 13.515C1.65515 13.5408 1.65153 13.5679 1.6531 13.595V13.659C1.65222 13.6853 1.6449 13.711 1.63176 13.7337C1.62353 13.7482 1.61201 13.7606 1.59811 13.7699C1.58422 13.7792 1.56834 13.785 1.55176 13.787C1.49843 13.7977 1.46109 13.787 1.43442 13.755C1.4058 13.7218 1.38729 13.6811 1.38109 13.6377C1.36916 13.5929 1.37489 13.5451 1.39709 13.5044C1.40896 13.4864 1.4247 13.4713 1.44316 13.4603C1.46162 13.4492 1.48233 13.4424 1.50376 13.4404ZM1.47709 14.0217L1.9091 13.8884L2.01577 14.1924L1.96243 14.2137L1.8771 13.9631L1.74376 14.0004L1.81843 14.2297L1.7651 14.2457L1.69576 14.0164L1.54643 14.0591L1.63176 14.3151L1.57843 14.3311L1.47709 14.0217ZM1.6691 14.5497L2.0691 14.3364L2.11177 14.4111L1.83443 14.6991L2.23444 14.6351L2.27711 14.7044L1.8771 14.9177L1.85043 14.8644L2.0851 14.7417L2.12777 14.7204L2.18644 14.6884L1.78643 14.7577L1.75976 14.7044L2.03177 14.4164L2.01577 14.4271L1.9731 14.4484C1.95959 14.4584 1.94532 14.4673 1.93043 14.4751L1.69576 14.5977L1.6691 14.5444M2.41044 15.1311C2.38911 15.1311 2.37311 15.1204 2.35178 15.0991L2.26644 15.0137L2.37844 14.9071L2.46378 14.9924L2.49578 15.0404C2.50645 15.0671 2.49578 15.0937 2.47444 15.1097C2.45311 15.1311 2.43178 15.1417 2.41044 15.1364M2.09044 15.1737L2.22911 15.0457L2.32511 15.1524C2.35279 15.1782 2.38869 15.1933 2.42644 15.1951C2.46093 15.1927 2.49326 15.1774 2.51711 15.1524C2.54378 15.1257 2.55978 15.0991 2.55978 15.0617C2.55978 15.0297 2.54378 15.0031 2.51711 14.9711L2.37844 14.8271L2.04777 15.1311L2.09044 15.1737ZM2.49044 15.5257L2.72512 15.1524L3.00779 15.3231L2.98112 15.3711L2.74645 15.2324L2.67712 15.3444L2.89045 15.4724L2.85845 15.5151L2.64511 15.3871L2.56511 15.5151L2.79978 15.6538L2.77312 15.7018L2.48511 15.5257M3.19446 15.4564L3.33846 15.4991L3.38113 15.5257C3.39713 15.5418 3.40246 15.5684 3.3918 15.5951C3.38646 15.6218 3.37046 15.6378 3.34913 15.6484L3.27979 15.6431L3.14646 15.6004L3.19446 15.4564ZM3.07179 15.8244L3.12512 15.6431L3.26379 15.6858L3.31713 15.7124C3.32779 15.7284 3.33313 15.7498 3.32246 15.7764L3.30646 15.8404L3.29579 15.8778V15.8884L3.37046 15.9151V15.9044L3.3598 15.8724C3.3598 15.8671 3.3598 15.8511 3.37046 15.8351L3.38646 15.7818C3.3918 15.7551 3.39713 15.7391 3.38646 15.7284C3.38178 15.712 3.37253 15.6972 3.3598 15.6858C3.38113 15.6804 3.40246 15.6751 3.41846 15.6591C3.43446 15.6484 3.44513 15.6271 3.4558 15.6058C3.4718 15.5524 3.46113 15.5151 3.42913 15.4831C3.4078 15.4724 3.38646 15.4564 3.34913 15.4457L3.15179 15.3817L3.01312 15.7978L3.06646 15.8191" fill="#009FC5"/>
<path d="M3.68042 8.23471C3.73375 8.10671 4.20843 7.77071 5.78179 7.91471C5.78179 7.91471 6.04847 8.08005 6.20314 8.05871C6.28847 8.04805 6.1498 8.06404 6.03247 7.96804C5.91513 7.87204 5.88846 7.6747 6.16047 7.68004C6.42714 7.68537 7.44049 7.74404 7.45649 7.83471C7.47249 7.92538 6.92315 7.96271 6.72048 7.95738C6.51248 7.95738 6.53914 8.05871 6.74181 8.04804C7.38183 8.02671 8.07517 7.80271 8.82185 8.32538C8.90719 8.38405 8.59252 8.39472 8.35251 8.29338C8.35251 8.29338 7.70183 8.33072 7.42449 8.28272C7.42449 8.28272 7.21116 8.45872 6.92315 8.44272C6.96048 8.53339 6.81648 8.86939 5.93646 8.61872C5.78713 8.66139 5.25912 8.75206 5.31245 8.59206C5.17378 8.59206 4.92844 8.63472 4.89111 8.55472C4.85911 8.48005 5.32312 8.35738 5.40845 8.27205C5.40845 8.27205 4.41643 8.28272 4.22976 8.21872C4.22976 8.21872 3.64309 8.34672 3.68042 8.23471Z" fill="#BC715F"/>
<path d="M3.99963 9.62156C4.01563 9.59489 4.0263 9.54156 4.06896 9.54156C4.1703 9.56822 4.2343 9.74956 4.35697 9.63223C4.39964 9.62156 4.4103 9.68023 4.44764 9.68556C4.47431 9.7869 4.55431 9.66956 4.60764 9.67489C4.74761 9.61669 4.90181 9.60183 5.05032 9.63223C5.05032 9.72823 4.97565 9.8349 4.87965 9.89356C4.87965 9.98957 4.97032 10.0536 4.97032 10.1549C4.95431 10.1922 4.97032 10.2509 4.91698 10.2616C4.84231 10.2456 4.77298 10.2402 4.71431 10.2029C4.70364 10.1922 4.69831 10.1816 4.68764 10.1816C4.67698 10.2189 4.73031 10.2509 4.75164 10.2882C4.71431 10.3416 4.65564 10.2882 4.60764 10.2882C4.59164 10.3256 4.60764 10.3682 4.57031 10.3949C4.50631 10.3896 4.49031 10.3202 4.45297 10.2882C4.41564 10.3309 4.48497 10.3576 4.49031 10.3896C4.46897 10.5176 4.46897 10.6456 4.34097 10.7309L4.25563 10.7736C4.2343 10.7042 4.24497 10.6082 4.22897 10.5389C4.17563 10.6242 4.1383 10.6989 4.06896 10.7682C3.9783 10.7362 3.92496 10.6349 3.90896 10.5496C3.88966 10.4998 3.88544 10.4454 3.89682 10.3933C3.9082 10.3411 3.93468 10.2935 3.97296 10.2562C3.9463 10.2029 3.85029 10.2189 3.83963 10.1442C3.70096 10.0536 3.62629 10.3042 3.53562 10.1709C3.52141 10.1084 3.52222 10.0434 3.53798 9.98133C3.55374 9.91921 3.584 9.86172 3.62629 9.81356C3.61029 9.76023 3.54629 9.77623 3.50895 9.74956C3.41829 9.67489 3.29562 9.60022 3.30095 9.46689C3.41917 9.42338 3.54742 9.41482 3.67037 9.44225C3.79332 9.46968 3.90578 9.53193 3.9943 9.62156" fill="#008737"/>
<path d="M4.1174 9.6109C4.1174 9.71756 4.19207 9.63756 4.25073 9.70156C4.20273 9.68556 4.17073 9.78157 4.12807 9.72823L4.09606 9.7549C4.11206 9.79223 4.1494 9.79757 4.11206 9.8349C4.06406 9.85623 4.05873 9.79223 4.03206 9.7709C4.03206 9.76023 4.0374 9.7389 4.0214 9.73356C3.99473 9.7549 3.96806 9.76557 3.92539 9.76023C3.91473 9.7389 3.89339 9.7069 3.91473 9.69623C3.95206 9.6429 4.01073 9.71223 4.0374 9.68023C4.04273 9.64823 4.01606 9.6109 4.0534 9.58423C4.07473 9.58956 4.10673 9.5789 4.1174 9.60556M4.41074 9.69623C4.41074 9.71756 4.40007 9.74957 4.42674 9.76023C4.46407 9.74423 4.50141 9.76023 4.52274 9.79223C4.52274 9.81357 4.52807 9.8349 4.50141 9.84557L4.44807 9.8349C4.44807 9.82423 4.43207 9.8189 4.42674 9.80823C4.40007 9.79757 4.3894 9.8189 4.3734 9.82957C4.38407 9.8509 4.41607 9.8669 4.4054 9.89357C4.3734 9.92557 4.3574 9.86157 4.32007 9.87757C4.29874 9.8669 4.33074 9.8189 4.2934 9.8029C4.2454 9.8029 4.2774 9.87757 4.21873 9.8509C4.1974 9.82423 4.17607 9.79757 4.20273 9.76557C4.21632 9.75833 4.23181 9.75547 4.24709 9.75738C4.26237 9.75929 4.27668 9.76587 4.28807 9.77623C4.3254 9.7389 4.3254 9.58423 4.41074 9.69623ZM4.04806 9.85623C4.0694 9.88823 4.04273 9.93624 4.0694 9.97357C4.12273 9.8829 4.1654 9.9949 4.22407 9.98424C4.24007 10.0056 4.22407 10.0376 4.2294 10.0589C4.16007 10.0802 4.07473 10.1016 4.01606 10.0429L3.99473 10.0642C4.03206 10.0962 4.0694 10.1389 4.0374 10.1976C3.98406 10.2082 3.90406 10.2082 3.87739 10.1549C3.86673 10.1069 3.90939 10.0749 3.86139 10.0429C3.82939 10.0856 3.82939 10.1442 3.75472 10.1016C3.7444 10.0965 3.73521 10.0894 3.72771 10.0807C3.7202 10.072 3.71454 10.0618 3.71105 10.0509C3.70756 10.0399 3.70633 10.0284 3.70742 10.0169C3.70851 10.0055 3.7119 9.99434 3.71739 9.98424C3.77072 9.90957 3.85073 9.98424 3.89873 9.9469C3.90939 9.8829 3.88273 9.82957 3.94139 9.79223C3.99473 9.7869 4.01606 9.82423 4.04806 9.85623Z" fill="#FFFF00"/>
<path d="M4.24557 9.89362C4.22423 10.0003 4.1389 9.88829 4.10156 9.88295C4.1549 9.79229 4.1869 9.91495 4.24557 9.89362ZM4.50157 10.011C4.44824 10.027 4.44824 9.95762 4.42157 9.93095L4.44824 9.90962L4.50157 10.0163" fill="white"/>
<path d="M4.42683 9.98944C4.43749 10.0268 4.38416 10.0588 4.43216 10.0854L4.46949 10.0481C4.51216 10.0588 4.55483 10.0694 4.5815 10.1014C4.6135 10.1868 4.52816 10.1868 4.48549 10.2081H4.44283C4.45349 10.1814 4.42149 10.1708 4.41083 10.1548C4.40159 10.1525 4.39185 10.1533 4.38315 10.1572C4.37446 10.161 4.3673 10.1677 4.36283 10.1761C4.37349 10.2294 4.43749 10.2668 4.36816 10.3094C4.31482 10.3094 4.23482 10.3308 4.24016 10.2561C4.21882 10.2134 4.29349 10.1494 4.21349 10.1494C4.18682 10.2028 4.16015 10.2561 4.09082 10.2028L4.09615 10.1228C4.16016 10.1228 4.24016 10.1334 4.27216 10.0588C4.28816 10.0054 4.24016 9.95744 4.28282 9.91477C4.35216 9.89877 4.38949 9.94677 4.42149 9.98944" fill="#FFFF00"/>
<path d="M4.37311 10.1123C4.39444 10.155 4.34644 10.1549 4.31978 10.1763C4.29311 10.1763 4.27711 10.1656 4.25577 10.1443C4.24511 10.0963 4.28244 10.0909 4.30911 10.0749C4.34111 10.0589 4.35178 10.0963 4.37311 10.1123Z" fill="black"/>
<path d="M4.33616 10.1335C4.33083 10.1495 4.32016 10.1442 4.3095 10.1495L4.29883 10.0962C4.32016 10.0962 4.34683 10.1069 4.33616 10.1389" fill="white"/>
</g>
</g>
<defs>
<clipPath id="clip0_208_25549">
<rect width="24" height="24" rx="12" fill="white"/>
</clipPath>
</defs>
</svg>
