<svg width="24" height="24" viewBox="0 0 24 24" fill="none" xmlns="http://www.w3.org/2000/svg">
<g clip-path="url(#clip0_208_22956)">
<path fill-rule="evenodd" clip-rule="evenodd" d="M0 0H8.00156V24H0V0Z" fill="#00319C"/>
<path fill-rule="evenodd" clip-rule="evenodd" d="M8.00195 0H15.9988V24H8.00195V0Z" fill="#FFDE00"/>
<path fill-rule="evenodd" clip-rule="evenodd" d="M15.998 0H23.9996V24H15.998V0Z" fill="#DE2110"/>
<path fill-rule="evenodd" clip-rule="evenodd" d="M13.5782 15.0713L14.5016 16.4036C14.5538 16.4789 14.6045 16.5521 14.5279 16.6006C14.4491 16.6505 14.474 16.8454 14.5262 16.9207C14.6291 17.0692 14.7579 17.096 14.8345 17.0475L15.535 16.6042C15.6116 16.5558 15.636 16.432 15.5331 16.2835C15.475 16.2089 15.3028 16.1103 15.2262 16.1587C15.1474 16.2086 15.0966 16.1354 15.0459 16.0622L14.1196 14.7257" fill="#FF1900"/>
<path d="M13.5782 15.0713L14.5016 16.4036C14.5538 16.4789 14.6045 16.5521 14.5279 16.6006C14.4491 16.6505 14.474 16.8454 14.5262 16.9207C14.6291 17.0692 14.7579 17.096 14.8345 17.0475L15.535 16.6042C15.6116 16.5558 15.636 16.432 15.5331 16.2835C15.475 16.2089 15.3028 16.1103 15.2262 16.1587C15.1474 16.2086 15.0966 16.1354 15.0459 16.0622L14.1196 14.7257" stroke="black" stroke-width="0.0912883"/>
<path fill-rule="evenodd" clip-rule="evenodd" d="M13.9356 14.1288C14.348 14.5972 14.4914 15.1342 14.2564 15.3232C14.0213 15.5121 13.4921 15.2852 13.0798 14.8167C12.6674 14.3483 12.5259 13.8097 12.761 13.6207C12.996 13.4318 13.5235 13.6568 13.9376 14.1272L13.9356 14.1288Z" fill="#A77B3B" stroke="black" stroke-width="0.212256"/>
<path fill-rule="evenodd" clip-rule="evenodd" d="M9.82666 14.5256L9.01144 15.9209C8.96537 15.9997 8.92058 16.0764 8.84035 16.0336C8.75783 15.9896 8.58801 16.1001 8.54194 16.179C8.45107 16.3345 8.48523 16.4561 8.56546 16.4989L9.29899 16.8903C9.37922 16.9331 9.50552 16.897 9.59639 16.7415C9.63916 16.658 9.65182 16.4665 9.57159 16.4237C9.48906 16.3797 9.53386 16.303 9.57865 16.2264L10.3964 14.8267" fill="#FF1900"/>
<path d="M9.82666 14.5256L9.01144 15.9209C8.96537 15.9997 8.92058 16.0764 8.84035 16.0336C8.75783 15.9896 8.58801 16.1001 8.54194 16.179C8.45107 16.3345 8.48523 16.4561 8.56546 16.4989L9.29899 16.8903C9.37922 16.9331 9.50552 16.897 9.59639 16.7415C9.63916 16.658 9.65182 16.4665 9.57159 16.4237C9.48906 16.3797 9.53386 16.303 9.57865 16.2264L10.3964 14.8267" stroke="black" stroke-width="0.0912813"/>
<path fill-rule="evenodd" clip-rule="evenodd" d="M12.4601 13.5554H11.7172C11.6909 13.5805 11.4809 14.9101 11.2525 15.4219C10.9742 16.044 10.1367 16.5934 10.1367 16.5934C10.1367 16.5934 10.6355 16.7439 10.7878 16.8443C10.8246 16.8342 11.6227 16.6662 11.7172 15.6903C11.8091 16.6662 11.158 17.1102 11.158 17.1102C11.158 17.1102 12.09 17.3761 12.09 18.0008C12.09 17.3786 13.0193 17.1102 13.0193 17.1102C13.0193 17.1102 12.552 16.6662 12.4601 15.6878C12.6439 16.6662 13.3527 16.8342 13.3921 16.8418C13.5418 16.7439 14.0406 16.5909 14.0406 16.5909C14.0406 16.5909 13.2057 16.0465 12.9274 15.4219C12.699 14.9126 12.4864 13.578 12.4628 13.5554H12.4601Z" fill="#A77B3B" stroke="black" stroke-width="0.21215"/>
<path fill-rule="evenodd" clip-rule="evenodd" d="M9.2959 9.10793L10.6926 9.55196C10.9338 9.53666 11.161 9.43819 11.3319 9.27484C11.5029 9.1115 11.6059 8.8944 11.6219 8.6639C11.6377 7.67549 11.2491 7.32929 11.1573 7.32929L11.341 7.15369L11.0654 6.88275C11.0654 6.88275 11.1599 6.42116 12.0892 6.43872C13.0186 6.45628 13.0186 6.88275 13.0186 7.32679C13.0186 7.77333 12.5539 7.77333 12.5539 8.66139C12.5706 8.89211 12.6742 9.10924 12.8455 9.27254C13.0169 9.43583 13.2444 9.53422 13.4859 9.54945L14.88 9.10542V13.5558H9.2959V9.10793Z" fill="#A77B3B" stroke="black" stroke-width="0.21215"/>
<path d="M11.4355 9.2854L11.5283 9.55271L11.6216 9.2854L11.7144 9.55271L11.9005 9.2854L11.9913 9.56697L12.0866 9.2854L12.2238 9.56697L12.3654 9.2854L12.4581 9.55271L12.5515 9.2854" stroke="black" stroke-width="0.0170226"/>
<path d="M11.8094 8.30774L11.623 9.28612M11.9013 8.30774V9.28612M12.0877 8.30774V9.28612M12.2741 8.30774L12.366 9.28612M12.4605 8.30774L12.5524 9.28612" stroke="black" stroke-width="0.0205306"/>
<path fill-rule="evenodd" clip-rule="evenodd" d="M8.3672 6.44128C7.43784 6.88532 7.43784 7.77589 7.43784 8.21992C7.46934 8.62382 7.43784 17.1081 7.43784 17.1081C7.43784 17.1081 7.49822 16.6064 7.90252 16.22L8.36458 15.776L8.82926 15.332C9.17056 15.0359 9.29395 14.4414 9.29395 13.9974V7.77589C9.29395 7.77589 9.29395 7.32935 8.36458 6.44128H8.3672Z" fill="#A77B3B" stroke="black" stroke-width="0.21215"/>
<path d="M9.2959 8.22162C9.2854 8.22162 8.83122 7.77759 8.83122 7.77759L8.36653 8.22162L7.90185 7.77759L7.43717 8.22162" stroke="black" stroke-width="0.21215"/>
<path d="M9.2959 8.66278C9.2854 8.66278 8.83122 9.10681 8.83122 9.10681L8.36653 8.66278L7.90185 9.10681L7.43717 8.66278" stroke="black" stroke-width="0.21215"/>
<path d="M9.2959 9.99347C9.2854 9.99347 8.83122 9.54944 8.83122 9.54944L8.36653 9.99347L7.90185 9.54944L7.43717 9.99347" stroke="black" stroke-width="0.21215"/>
<path d="M8.82678 7.77734L8.83203 15.3349" stroke="black" stroke-width="0.292205"/>
<path d="M8.36682 8.22363L8.37207 15.7628" stroke="black" stroke-width="0.276829"/>
<path d="M7.90295 7.77734L7.9082 16.2229" stroke="black" stroke-width="0.292997"/>
<path fill-rule="evenodd" clip-rule="evenodd" d="M15.8115 6.44128C16.7409 6.88532 16.7409 7.77589 16.7409 8.21992C16.7094 8.62382 16.7409 17.1081 16.7409 17.1081C16.7409 17.1081 16.6805 16.6064 16.2762 16.22L15.8141 15.776L15.3494 15.332C15.0082 15.0359 14.8848 14.4414 14.8848 13.9974V7.77589C14.8848 7.77589 14.8848 7.32935 15.8141 6.44128H15.8115Z" fill="#A77B3B" stroke="black" stroke-width="0.21215"/>
<path d="M14.8818 8.22162C14.8923 8.22162 15.3465 7.77759 15.3465 7.77759L15.8112 8.22162L16.2759 7.77759L16.7406 8.22162" stroke="black" stroke-width="0.21215"/>
<path d="M14.8818 8.66278C14.8923 8.66278 15.3465 9.10681 15.3465 9.10681L15.8112 8.66278L16.2759 9.10681L16.7406 8.66278" stroke="black" stroke-width="0.21215"/>
<path d="M14.8818 9.99347C14.8923 9.99347 15.3465 9.54944 15.3465 9.54944L15.8112 9.99347L16.2759 9.54944L16.7406 9.99347" stroke="black" stroke-width="0.21215"/>
<path d="M15.3519 7.77734L15.3467 15.3349" stroke="black" stroke-width="0.292205"/>
<path d="M15.8109 8.22363L15.8057 15.7628" stroke="black" stroke-width="0.276829"/>
<path d="M16.2748 7.77734L16.2695 16.2229" stroke="black" stroke-width="0.292997"/>
<path fill-rule="evenodd" clip-rule="evenodd" d="M10.8663 14.4026C10.6199 14.9676 10.1863 15.3358 9.90281 15.2229C9.61927 15.11 9.58756 14.5566 9.83394 13.9915C10.0803 13.4265 10.5163 13.0593 10.7999 13.1722C11.0834 13.2851 11.1161 13.8362 10.8687 14.4035L10.8663 14.4026Z" fill="#A77B3B" stroke="black" stroke-width="0.212205"/>
<path fill-rule="evenodd" clip-rule="evenodd" d="M9.2998 9.5531H14.8779V12.2203H9.2998V9.5531Z" fill="#FF0000"/>
<path fill-rule="evenodd" clip-rule="evenodd" d="M9.2998 12.2203H14.8779V13.5468C14.8779 14.4375 13.4857 14.4375 12.0889 15.3281C10.692 14.4375 9.2998 14.4375 9.2998 13.5468V12.2156V12.2203Z" fill="#564DFF"/>
<path d="M9.2959 9.552H14.8773V13.5558C14.8773 14.4439 13.4833 14.4439 12.0866 15.3345C10.6926 14.4439 9.2959 14.4439 9.2959 13.5533V9.55451V9.552Z" stroke="#FFFF00" stroke-width="0.171089"/>
<path fill-rule="evenodd" clip-rule="evenodd" d="M11.0656 9.73328C11.0656 9.73328 10.1357 10.387 10.1357 11.0126C10.1357 11.6381 11.1116 11.8477 11.1116 11.8477C11.1116 11.8477 10.7863 11.8477 10.7863 12.6817C10.7863 13.0999 11.7621 12.8914 11.7621 13.0999C11.7621 13.3084 11.7493 13.8126 11.7621 14.1436C11.7621 14.3521 11.1116 14.1436 11.1116 14.3521C11.1116 14.4558 11.6004 14.9776 12.0893 14.9776C12.5781 14.9776 13.0651 14.4558 13.0651 14.3521C13.0651 14.1436 12.4145 14.3521 12.4145 14.1436V13.0999C12.4145 12.8914 13.3904 13.0999 13.3904 12.6817C13.3904 11.8477 13.0651 11.8477 13.0651 11.8477C13.0651 11.8477 14.0428 11.6392 14.0428 11.0126C14.0428 10.3859 13.111 9.73328 13.111 9.73328C13.111 9.73328 13.6348 10.5955 13.6348 11.0126C13.6348 11.2211 13.3904 11.6392 12.7398 11.6392C12.7398 11.6392 12.5744 11.4296 12.4145 11.6392C12.4145 11.6392 12.2271 11.4296 12.0893 11.6392C12.0415 11.7099 11.9569 11.4296 11.7621 11.6392C11.6813 11.6946 11.6151 11.4296 11.4369 11.6392C11.1116 11.6392 10.461 11.4296 10.461 11.0126C10.461 10.5955 11.0656 9.73328 11.0656 9.73328Z" fill="#FFFF00" stroke="black" stroke-width="0.117706"/>
<path fill-rule="evenodd" clip-rule="evenodd" d="M11.0829 13.4683C11.0168 13.5107 11.1675 14.1904 11.2116 14.2198C11.2777 14.2611 11.6692 14.2611 11.7335 14.2198C11.7795 14.1904 11.7335 13.5519 11.6692 13.5107C11.603 13.4683 11.1289 13.44 11.0811 13.4683H11.0829Z" fill="#FFFF00" stroke="black" stroke-width="0.117706"/>
<path fill-rule="evenodd" clip-rule="evenodd" d="M13.0948 13.4683C13.1609 13.5107 13.0102 14.1904 12.9661 14.2198C12.9 14.2611 12.5085 14.2611 12.4442 14.2198C12.3983 14.1904 12.4442 13.5519 12.5085 13.5107C12.5747 13.4683 13.0488 13.44 13.0966 13.4683H13.0948Z" fill="#FFFF00" stroke="black" stroke-width="0.117706"/>
<path fill-rule="evenodd" clip-rule="evenodd" d="M11.7531 13.2179C11.7531 13.2802 11.7175 13.3399 11.6541 13.384C11.5907 13.4281 11.5048 13.4528 11.4151 13.4528C11.3255 13.4528 11.2395 13.4281 11.1761 13.384C11.1128 13.3399 11.0771 13.2802 11.0771 13.2179C11.0771 13.1555 11.1128 13.0958 11.1761 13.0517C11.2395 13.0077 11.3255 12.9829 11.4151 12.9829C11.5048 12.9829 11.5907 13.0077 11.6541 13.0517C11.7175 13.0958 11.7531 13.1555 11.7531 13.2179Z" fill="#FFFF00" stroke="black" stroke-width="0.140897"/>
<path fill-rule="evenodd" clip-rule="evenodd" d="M13.0988 13.218C13.0988 13.2803 13.0632 13.3401 12.9998 13.3841C12.9364 13.4282 12.8505 13.453 12.7608 13.453C12.6712 13.453 12.5852 13.4282 12.5218 13.3841C12.4585 13.3401 12.4229 13.2803 12.4229 13.218C12.4229 13.1557 12.4585 13.0959 12.5218 13.0519C12.5852 13.0078 12.6712 12.983 12.7608 12.983C12.8505 12.983 12.9364 13.0078 12.9998 13.0519C13.0632 13.0959 13.0988 13.1557 13.0988 13.218Z" fill="#FFFF00" stroke="black" stroke-width="0.140899"/>
<path fill-rule="evenodd" clip-rule="evenodd" d="M12.6748 14.5781C12.6748 14.6344 12.5998 14.6812 12.5107 14.6812C12.4217 14.6812 12.3514 14.6344 12.3514 14.5781C12.3514 14.5219 12.4217 14.475 12.5107 14.475C12.5998 14.475 12.6748 14.5219 12.6748 14.5781ZM11.8311 14.5781C11.8311 14.6344 11.7561 14.6812 11.667 14.6812C11.5779 14.6812 11.5029 14.6344 11.5029 14.5781C11.5029 14.5219 11.5779 14.475 11.667 14.475C11.7561 14.475 11.8264 14.5219 11.8264 14.5781H11.8311Z" fill="black"/>
<path fill-rule="evenodd" clip-rule="evenodd" d="M12.0891 11.244L11.8893 10.9919L11.5615 11.0335L11.6076 10.7203L11.3438 10.5318L11.6076 10.3409L11.5615 10.0276L11.8893 10.0717L12.0891 9.81958L12.2889 10.0717L12.6142 10.0276L12.5706 10.3409L12.8319 10.5318L12.5706 10.7227L12.6142 11.0335L12.2863 10.9919L12.0891 11.244Z" fill="#FFFF00" stroke="black" stroke-width="0.089022"/>
<path fill-rule="evenodd" clip-rule="evenodd" d="M13.4814 12.2187L14.0406 12.4871L14.5998 12.2187L14.0406 11.9528L13.4841 12.2187H13.4814Z" fill="#FFFF00" stroke="black" stroke-width="0.0912473"/>
<path fill-rule="evenodd" clip-rule="evenodd" d="M9.48242 12.2187L10.0416 12.4871L10.6008 12.2187L10.0416 11.9528L9.48505 12.2187H9.48242Z" fill="#FFFF00" stroke="black" stroke-width="0.0912473"/>
<path fill-rule="evenodd" clip-rule="evenodd" d="M14.3502 13.8118C14.179 13.7033 13.8906 13.7574 13.729 13.8461C13.5673 13.9348 13.4057 14.0235 13.384 14.345C13.1983 14.036 13.3445 13.7504 13.5904 13.6155C13.7208 13.5542 13.8701 13.5406 14.0103 13.5772C14.1504 13.6137 14.2718 13.6979 14.3515 13.814L14.3502 13.8118Z" fill="#FFFF00" stroke="black" stroke-width="0.091283"/>
<path fill-rule="evenodd" clip-rule="evenodd" d="M10.5088 13.2861C10.5088 13.333 10.4893 13.378 10.4546 13.4112C10.4199 13.4443 10.3728 13.463 10.3238 13.463C10.2747 13.463 10.2276 13.4443 10.1929 13.4112C10.1582 13.378 10.1387 13.333 10.1387 13.2861C10.1387 13.2392 10.1582 13.1942 10.1929 13.1611C10.2276 13.1279 10.2747 13.1093 10.3238 13.1093C10.3728 13.1093 10.4199 13.1279 10.4546 13.1611C10.4893 13.1942 10.5088 13.2392 10.5088 13.2861Z" fill="#FFFF00" stroke="black" stroke-width="0.0912473"/>
<path fill-rule="evenodd" clip-rule="evenodd" d="M10.3213 13.9095C10.3213 13.9564 10.3018 14.0014 10.2671 14.0346C10.2324 14.0678 10.1853 14.0864 10.1363 14.0864C10.0872 14.0864 10.0401 14.0678 10.0054 14.0346C9.97067 14.0014 9.95117 13.9564 9.95117 13.9095C9.95117 13.8626 9.97067 13.8176 10.0054 13.7845C10.0401 13.7513 10.0872 13.7327 10.1363 13.7327C10.1853 13.7327 10.2324 13.7513 10.2671 13.7845C10.3018 13.8176 10.3213 13.8626 10.3213 13.9095Z" fill="#FFFF00" stroke="black" stroke-width="0.0912473"/>
<path fill-rule="evenodd" clip-rule="evenodd" d="M10.2276 13.5533C10.2276 13.6002 10.2081 13.6452 10.1734 13.6784C10.1387 13.7116 10.0916 13.7302 10.0425 13.7302C9.99342 13.7302 9.94634 13.7116 9.91163 13.6784C9.87692 13.6452 9.85742 13.6002 9.85742 13.5533C9.85742 13.5064 9.87692 13.4614 9.91163 13.4283C9.94634 13.3951 9.99342 13.3765 10.0425 13.3765C10.0916 13.3765 10.1387 13.3951 10.1734 13.4283C10.2081 13.4614 10.2276 13.5064 10.2276 13.5533Z" fill="#FFFF00" stroke="black" stroke-width="0.0912473"/>
<path fill-rule="evenodd" clip-rule="evenodd" d="M10.6924 13.9095C10.6924 13.9564 10.6729 14.0014 10.6382 14.0346C10.6035 14.0678 10.5564 14.0864 10.5074 14.0864C10.4583 14.0864 10.4112 14.0678 10.3765 14.0346C10.3418 14.0014 10.3223 13.9564 10.3223 13.9095C10.3223 13.8626 10.3418 13.8176 10.3765 13.7845C10.4112 13.7513 10.4583 13.7327 10.5074 13.7327C10.5564 13.7327 10.6035 13.7513 10.6382 13.7845C10.6729 13.8176 10.6924 13.8626 10.6924 13.9095Z" fill="#FFFF00" stroke="black" stroke-width="0.0912473"/>
<path fill-rule="evenodd" clip-rule="evenodd" d="M10.7862 13.5533C10.7862 13.6002 10.7667 13.6452 10.732 13.6784C10.6973 13.7116 10.6502 13.7302 10.6011 13.7302C10.552 13.7302 10.5049 13.7116 10.4702 13.6784C10.4355 13.6452 10.416 13.6002 10.416 13.5533C10.416 13.5064 10.4355 13.4614 10.4702 13.4283C10.5049 13.3951 10.552 13.3765 10.6011 13.3765C10.6502 13.3765 10.6973 13.3951 10.732 13.4283C10.7667 13.4614 10.7862 13.5064 10.7862 13.5533Z" fill="#FFFF00" stroke="black" stroke-width="0.0912473"/>
<path fill-rule="evenodd" clip-rule="evenodd" d="M10.5088 13.6424C10.5088 13.6893 10.4893 13.7343 10.4546 13.7675C10.4199 13.8007 10.3728 13.8193 10.3238 13.8193C10.2747 13.8193 10.2276 13.8007 10.1929 13.7675C10.1582 13.7343 10.1387 13.6893 10.1387 13.6424C10.1387 13.5955 10.1582 13.5505 10.1929 13.5174C10.2276 13.4842 10.2747 13.4656 10.3238 13.4656C10.3728 13.4656 10.4199 13.4842 10.4546 13.5174C10.4893 13.5505 10.5088 13.5955 10.5088 13.6424Z" fill="#FFFF00" stroke="black" stroke-width="0.0912473"/>
<path fill-rule="evenodd" clip-rule="evenodd" d="M11.1889 7.45308C10.7201 7.45308 10.6592 7.52339 10.4482 7.5937C10.4482 7.39214 10.9686 7.15308 11.4373 7.15308C11.4373 7.30308 11.3154 7.44839 11.1889 7.44839V7.45308Z" fill="#DA4500"/>
<path fill-rule="evenodd" clip-rule="evenodd" d="M11.9062 6.975C11.9062 7.07344 11.8219 7.15313 11.7188 7.15313C11.6156 7.15313 11.5312 7.07344 11.5312 6.975C11.5312 6.87656 11.6156 6.79688 11.7188 6.79688C11.8219 6.79688 11.9062 6.87656 11.9062 6.975Z" fill="#CAC9C7"/>
<path fill-rule="evenodd" clip-rule="evenodd" d="M9.94696 6.35342V6.61934H10.4116V7.95144H10.6926V6.61934H11.1572V6.35342H10.6926V5.99719H10.409V6.35342H9.94434H9.94696Z" fill="#FFFF00" stroke="black" stroke-width="0.0912473"/>
<path fill-rule="evenodd" clip-rule="evenodd" d="M11.4369 7.15308C11.0589 7.13224 10.6804 7.18313 10.3213 7.30308C10.3213 7.02651 10.64 6.70776 11.1885 6.70776C11.315 6.70776 11.4369 7.00308 11.4369 7.15308Z" fill="#DA4500"/>
<path fill-rule="evenodd" clip-rule="evenodd" d="M6.60076 11.8718C6.46687 11.5832 6.46998 11.4911 6.70817 11.8213L9.57725 17.2606L9.48943 17.2854L6.60224 11.8729L6.60076 11.8718Z" fill="#008500" stroke="black" stroke-width="0.0335496"/>
<path fill-rule="evenodd" clip-rule="evenodd" d="M8.54524 15.4499C8.57805 15.0468 7.84211 14.6109 7.8093 14.639C7.78118 14.6671 7.85618 14.9015 7.9968 15.0234C7.72493 14.8874 7.44368 14.8031 7.4343 14.864C7.41555 14.9437 7.85618 15.1359 7.89368 15.2109C7.89368 15.2624 7.56555 15.2578 7.57493 15.3093C7.57961 15.3656 8.49836 15.8249 8.54524 15.4499ZM7.8093 14.2781C7.83743 13.8749 7.10149 13.4343 7.06868 13.4671C7.04055 13.4953 7.11555 13.7296 7.25618 13.8515C6.98899 13.7109 6.70774 13.6265 6.69836 13.6874C6.67961 13.7671 7.12024 13.9593 7.15305 14.0343C7.15774 14.0906 6.82961 14.0812 6.83899 14.1374C6.84368 14.189 7.76243 14.6531 7.8093 14.2781ZM7.2468 13.2093C7.27493 12.8062 6.5343 12.3703 6.50618 12.3984C6.47805 12.4265 6.55305 12.6609 6.69368 12.7828C6.4218 12.6421 6.14055 12.5624 6.13586 12.6234C6.11243 12.7031 6.55774 12.8953 6.59055 12.9703C6.59524 13.0218 6.26711 13.0171 6.2718 13.0687C6.28118 13.1203 7.19524 13.5843 7.24211 13.2093H7.2468ZM6.6843 12.0562C6.71711 11.6531 5.98118 11.2124 5.94836 11.2453C5.92024 11.2734 5.99524 11.5078 6.13586 11.6296C5.86399 11.489 5.58274 11.4046 5.57805 11.4656C5.55461 11.5453 5.99524 11.7374 6.03274 11.8124C6.03743 11.8687 5.7093 11.8593 5.71399 11.9156C5.71868 11.9624 6.63743 12.4312 6.6843 12.0562Z" fill="#008F00"/>
<path fill-rule="evenodd" clip-rule="evenodd" d="M6.87652 12C7.23746 11.7844 7.16714 10.9594 7.12496 10.9547C7.08277 10.9453 6.92808 11.1422 6.90933 11.325C6.86246 11.0344 6.76871 10.7672 6.72183 10.8C6.63746 10.8328 6.73589 11.2828 6.69371 11.3578C6.65152 11.3906 6.45933 11.1375 6.42183 11.1703C6.37964 11.2078 6.53433 12.1875 6.87652 12ZM7.39214 13.0172C7.80933 12.9234 8.02964 12.1265 7.99683 12.1078C7.95933 12.089 7.74371 12.225 7.66402 12.389C7.72496 12.1031 7.72496 11.8219 7.66402 11.8312C7.57964 11.8359 7.50933 12.2906 7.44839 12.3469C7.39683 12.3703 7.30777 12.0656 7.25621 12.089C7.20464 12.1078 7.00777 13.0828 7.39683 13.0172H7.39214ZM8.01558 14.0531C8.39058 13.8656 8.39996 13.0406 8.35777 13.0312C8.31558 13.0219 8.14683 13.2047 8.10933 13.3828C8.09058 13.0922 8.02496 12.8203 7.96871 12.8437C7.88433 12.8672 7.93589 13.3265 7.88902 13.3969C7.84214 13.425 7.68277 13.1531 7.63589 13.1859C7.58902 13.2187 7.65464 14.2125 8.01089 14.0531H8.01558ZM8.68121 15.4125C9.07496 15.2625 9.17339 14.4375 9.13121 14.4281C9.09371 14.4094 8.90152 14.5734 8.84996 14.7469C8.86402 14.4562 8.82183 14.1797 8.76558 14.1984C8.67652 14.2172 8.68589 14.6765 8.62964 14.7422C8.58277 14.7703 8.44683 14.4844 8.39996 14.5078C8.35308 14.5406 8.30621 15.5297 8.68121 15.4078V15.4125Z" fill="#008F00"/>
<path fill-rule="evenodd" clip-rule="evenodd" d="M9.55045 16.8204C9.45063 16.9912 9.13491 17.0067 8.8415 16.8501C8.54809 16.6936 8.39618 16.4287 8.49601 16.2578C8.59583 16.087 8.91384 16.0727 9.20496 16.228C9.49608 16.3834 9.65028 16.6495 9.55045 16.8204Z" fill="#FF1900" stroke="black" stroke-width="0.0912813"/>
<path fill-rule="evenodd" clip-rule="evenodd" d="M17.1248 11.0975L17.1742 10.97L17.3073 11.0119L17.3567 10.8844L17.4897 10.9263L17.441 11.052L17.5779 11.0951L17.5278 11.2244L17.3909 11.1813L17.2678 11.4992L17.1347 11.4573L17.2579 11.1394L17.1248 11.0975ZM16.8391 12.2204L16.9721 12.2623L15.5424 15.9525L15.4094 15.9106L16.8391 12.2204Z" fill="#FFFF00" stroke="black" stroke-width="0.0313435"/>
<path fill-rule="evenodd" clip-rule="evenodd" d="M15.3649 15.8261L15.6348 15.9111L15.2403 16.9293L14.9704 16.8443L15.3649 15.8261ZM16.9519 11.5428L17.3568 11.6703C17.6248 11.7547 17.017 12.3491 17.017 12.3491L16.749 12.2647C16.749 12.2647 16.682 11.4578 16.9519 11.5428ZM17.324 11.5512C17.3031 11.605 17.2275 11.6296 17.1534 11.6062C17.0793 11.5829 17.0351 11.5206 17.0553 11.4686C17.0755 11.4165 17.1518 11.3902 17.2259 11.4135C17.3 11.4368 17.3442 11.4991 17.3233 11.553L17.324 11.5512Z" fill="#FFFF00" stroke="black" stroke-width="0.0313435"/>
<path fill-rule="evenodd" clip-rule="evenodd" d="M15.5848 16.3588C15.6979 16.5219 15.5674 16.7971 15.2872 16.9744C15.007 17.1517 14.691 17.1591 14.5779 16.996C14.4648 16.8328 14.5975 16.5563 14.8755 16.3804C15.1535 16.2044 15.4717 16.1956 15.5848 16.3588Z" fill="#FF1900" stroke="black" stroke-width="0.0912883"/>
</g>
<defs>
<clipPath id="clip0_208_22956">
<rect width="24" height="24" rx="12" fill="white"/>
</clipPath>
</defs>
</svg>
