<svg width="24" height="24" viewBox="0 0 24 24" fill="none" xmlns="http://www.w3.org/2000/svg">
<g clip-path="url(#clip0_208_25540)">
<mask id="mask0_208_25540" style="mask-type:luminance" maskUnits="userSpaceOnUse" x="0" y="0" width="24" height="25">
<path d="M0.000976562 0H23.9989V24.0013H0.000976562V0Z" fill="white"/>
</mask>
<g mask="url(#mask0_208_25540)">
<path fill-rule="evenodd" clip-rule="evenodd" d="M-0.9375 0H35.0628V24.0013H-0.9375V0Z" fill="white"/>
<path fill-rule="evenodd" clip-rule="evenodd" d="M-0.9375 0H35.0628V11.999H-0.9375V0Z" fill="#DF0000"/>
<path fill-rule="evenodd" clip-rule="evenodd" d="M7.36694 2.01165C6.41957 2.21463 5.5709 2.73744 4.96348 3.49227C4.35607 4.2471 4.0269 5.18796 4.03127 6.15682C4.03564 7.12568 4.37328 8.06354 4.98748 8.81285C5.60168 9.56217 6.45503 10.0773 7.40419 10.2717C6.76511 10.4588 6.09131 10.4947 5.43595 10.3768C4.78059 10.2589 4.1616 9.99026 3.62781 9.59217C3.09402 9.19408 2.66004 8.67741 2.36009 8.0829C2.06015 7.48839 1.90246 6.83231 1.89946 6.16643C1.89645 5.50055 2.04822 4.84309 2.34279 4.2459C2.63736 3.64871 3.06666 3.12813 3.59684 2.72525C4.12702 2.32236 4.74356 2.04818 5.39783 1.92434C6.0521 1.8005 6.7262 1.83039 7.36694 2.01165Z" fill="white"/>
<path fill-rule="evenodd" clip-rule="evenodd" d="M5.90375 5.49997L5.26367 5.0326L6.05954 5.02583L6.30338 4.2706L6.55738 5.02583H7.34986L6.71317 5.49997L6.95701 6.25519L6.31015 5.79122L5.66669 6.25858L5.90375 5.49997ZM6.78429 8.10432L6.14082 7.63696L6.93669 7.63018L7.18391 6.87495L7.43453 7.6268H8.2304L7.58693 8.10093L7.83416 8.85616L7.19069 8.39557L6.54722 8.86293L6.78429 8.10432ZM9.70698 8.084L9.06352 7.61663L9.856 7.60986L10.1032 6.85463L10.3538 7.60986H11.1531L10.513 8.084L10.7602 8.83922L10.1134 8.37525L9.46992 8.84261L9.70698 8.084ZM10.5774 5.50335L9.93389 5.03599L10.7298 5.02922L10.9736 4.27399L11.2276 5.02583H12.0201L11.3834 5.49997L11.6272 6.25519L10.9804 5.79461L10.3369 6.26197L10.5774 5.50335ZM8.26426 3.79308L7.6208 3.32572L8.41666 3.31895L8.66389 2.56372L8.9145 3.31895H9.71037L9.0669 3.79308L9.31413 4.54492L8.67066 4.08434L8.0272 4.5517L8.26426 3.79308Z" fill="white"/>
</g>
</g>
<defs>
<clipPath id="clip0_208_25540">
<rect width="24" height="24" rx="12" fill="white"/>
</clipPath>
</defs>
</svg>
