<svg width="24" height="24" viewBox="0 0 24 24" fill="none" xmlns="http://www.w3.org/2000/svg">
<g clip-path="url(#clip0_208_20552)">
<path fill-rule="evenodd" clip-rule="evenodd" d="M0 -0.00512695H23.9999V23.9967H0V-0.00512695Z" fill="white"/>
<path d="M23.9999 20.5045L3.43997 -0.00512695H0V3.41511L20.6399 23.9967H23.9999V20.5045Z" fill="#0099CC"/>
<path d="M11.8149 17.6141C8.61484 17.6141 8.71618 14.5982 8.71618 14.5982V9.95959H14.9188V14.5982C14.9188 14.5982 15.0255 17.6141 11.8149 17.6141" fill="#005BBF"/>
<path d="M11.8149 17.6141C8.61485 17.6141 8.71618 14.5982 8.71618 14.5982V9.95959H14.9189V14.5982C14.9189 14.5982 15.0255 17.6141 11.8149 17.6141Z" stroke="black" stroke-width="0.142283"/>
<path d="M11.7887 7.04509C11.7887 7.04509 11.1274 6.72479 10.5034 7.19453C10.5034 7.19453 9.37803 7.0344 9.29272 8.11267C9.29272 8.15537 9.28203 8.23548 9.30336 8.26211C9.32469 8.28348 9.34601 8.32618 9.34601 8.3582C9.34601 8.39022 9.36204 8.40625 9.37273 8.41693C9.37273 8.43292 9.39401 8.45429 9.39936 8.50768C9.39936 8.56637 9.38872 8.59309 9.44736 8.65178C9.5007 8.70522 9.5007 8.87068 9.5007 8.91868C9.5007 8.96673 9.53272 9.09484 9.55405 9.12151C9.58072 9.14823 9.62337 9.21761 9.62337 9.27634C9.62337 9.32968 9.6447 9.48986 9.63401 9.52722C9.62337 9.56987 9.69805 9.61797 9.76203 9.63929C9.82601 9.66067 10.6153 9.91689 11.7673 9.89551C12.9194 9.87953 13.3354 9.81545 13.8154 9.64464C13.8406 9.63629 13.8623 9.61959 13.8769 9.59728C13.8914 9.57498 13.8979 9.54838 13.8954 9.52187C13.8847 9.48986 13.8954 9.38312 13.9114 9.3564C13.9327 9.32968 14.0714 9.11087 14.0394 9.07351C14.0127 9.03081 14.0127 8.9454 14.0394 8.91334C14.066 8.87598 14.1514 8.71586 14.1673 8.64648C14.1834 8.5824 14.1887 8.50234 14.2207 8.48101C14.2474 8.45964 14.258 8.37958 14.2633 8.36354C14.2771 8.33011 14.2991 8.30072 14.3274 8.27814C14.3274 8.27814 14.3807 8.00593 14.3487 7.87248C14.3114 7.73903 14.1087 7.16251 13.2927 7.28528C13.2927 7.28528 12.6847 6.82089 11.7887 7.04509Z" fill="#D81126"/>
<path d="M11.7887 7.04508C11.7887 7.04508 11.1274 6.7248 10.5034 7.19454C10.5034 7.19454 9.37804 7.0344 9.29271 8.11265C9.29271 8.15536 9.28204 8.23543 9.30337 8.26212C9.32471 8.28347 9.34604 8.32617 9.34604 8.3582C9.34604 8.39023 9.36204 8.40624 9.37271 8.41691C9.37271 8.43293 9.39404 8.45428 9.39937 8.50766C9.39937 8.56638 9.38871 8.59306 9.44737 8.65178C9.50071 8.70516 9.50071 8.87064 9.50071 8.91868C9.50071 8.96672 9.53271 9.09483 9.55404 9.12152C9.58071 9.14821 9.62337 9.2176 9.62337 9.27631C9.62337 9.32969 9.64471 9.48983 9.63404 9.5272C9.62337 9.5699 9.69804 9.61794 9.76204 9.63929C9.82604 9.66064 10.6154 9.91686 11.7674 9.89551C12.9194 9.8795 13.3354 9.81544 13.8154 9.64463C13.8407 9.63628 13.8623 9.61958 13.8769 9.59727C13.8914 9.57496 13.8979 9.54837 13.8954 9.52186C13.8847 9.48983 13.8954 9.38307 13.9114 9.35638C13.9327 9.32969 14.0714 9.11084 14.0394 9.07347C14.0127 9.03077 14.0127 8.94537 14.0394 8.91334C14.066 8.87597 14.1514 8.71584 14.1674 8.64644C14.1834 8.58239 14.1887 8.50232 14.2207 8.48097C14.2474 8.45962 14.258 8.37955 14.2634 8.36354C14.2771 8.3301 14.2992 8.30071 14.3274 8.27813C14.3274 8.27813 14.3807 8.0059 14.3487 7.87245C14.3114 7.739 14.1087 7.16251 13.2927 7.28528C13.2927 7.28528 12.6847 6.82088 11.7887 7.04508Z" stroke="black" stroke-width="0.213425"/>
<path d="M14.0017 9.05215C11.495 8.25682 9.55371 9.01479 9.55371 9.01479C9.55371 9.01479 9.57504 9.1002 9.59637 9.12687C9.61769 9.15354 9.64971 9.21762 9.64971 9.26567V9.41515C9.64971 9.45251 9.62838 9.61264 9.76704 9.60729C9.76704 9.60729 11.5164 8.92404 13.7884 9.64465C13.7884 9.64465 13.8524 9.59126 13.8524 9.5112C13.8512 9.43659 13.8696 9.36297 13.9057 9.29768C13.9324 9.25503 14.0017 9.11623 14.0017 9.05215Z" fill="#BCAC0B"/>
<path d="M11.6768 13.2423H10.5835C10.5835 13.2423 10.4768 14.2191 11.3194 14.5181V14.6035H11.4955V14.7209C11.4955 14.7209 11.1861 14.9985 11.4581 15.3187V15.4148H11.5008V15.575H11.5541V15.8258C11.5541 15.8258 11.5114 16.7333 10.6154 17.171V17.2244H12.9995V17.171C12.1088 16.7386 12.0661 15.8258 12.0661 15.8258V15.575H12.1195V15.4148H12.1621V15.3187C12.4288 14.9985 12.1195 14.7209 12.1195 14.7209V14.6035H12.3008V14.5181C13.1381 14.2191 13.0315 13.2423 13.0315 13.2423H11.6768Z" fill="#C8B100" fill-opacity="0.9"/>
<path d="M11.6768 13.2423H10.5835C10.5835 13.2423 10.4768 14.2191 11.3195 14.5181V14.6035H11.4955V14.7209C11.4955 14.7209 11.1861 14.9985 11.4581 15.3188V15.4148H11.5008V15.575H11.5541V15.8259C11.5541 15.8259 11.5115 16.7333 10.6155 17.171V17.2244H12.9995V17.171C12.1088 16.7386 12.0661 15.8259 12.0661 15.8259V15.575H12.1195V15.4148H12.1621V15.3188C12.4288 14.9985 12.1195 14.7209 12.1195 14.7209V14.6035H12.3008V14.5181C13.1381 14.2191 13.0315 13.2423 13.0315 13.2423H11.6768Z" stroke="black" stroke-width="0.142283"/>
<path d="M11.2822 14.5021H12.3329M11.3195 14.5821H12.3009M11.5009 14.7156H12.1142M11.4582 15.3294H12.1569M11.4955 15.4042H12.1142M11.4955 15.5536H12.1089M11.1222 16.792H12.4822M10.7382 17.107H12.8715M10.6582 17.155H12.9515" stroke="black" stroke-width="0.0426849"/>
<path d="M11.8156 13.1889C12.0002 13.1889 12.1772 13.1156 12.3077 12.9849C12.4383 12.8543 12.5116 12.6771 12.5116 12.4924C12.5116 12.3076 12.4383 12.1304 12.3077 11.9998C12.1772 11.8692 12.0002 11.7958 11.8156 11.7958C11.6327 11.7973 11.4578 11.8711 11.329 12.001C11.2002 12.131 11.1279 12.3066 11.1279 12.4897C11.1279 12.6727 11.2002 12.8484 11.329 12.9784C11.4578 13.1083 11.6327 13.1821 11.8156 13.1836" fill="#CCCCCC"/>
<path d="M11.8154 13.189C12 13.189 12.177 13.1156 12.3076 12.9849C12.4381 12.8543 12.5114 12.6771 12.5114 12.4924C12.5114 12.3076 12.4381 12.1304 12.3076 11.9998C12.177 11.8692 12 11.7958 11.8154 11.7958C11.6315 11.7958 11.4552 11.8689 11.3251 11.999C11.1951 12.1292 11.1221 12.3057 11.1221 12.4897C11.1221 12.6737 11.1951 12.8502 11.3251 12.9804C11.4552 13.1105 11.6315 13.1836 11.8154 13.1836V13.189Z" stroke="black" stroke-width="0.142283"/>
<path d="M10.1996 11.1445H9.76763V10.7068H9.38363V11.1445H8.94629V11.5288H9.38363V11.9559H9.76763V11.5288H10.1943V11.1445" fill="#CCCCCC"/>
<path d="M10.1996 11.1446H9.76762V10.7069H9.38362V11.1446H8.94629V11.5289H9.38362V11.956H9.76762V11.5289H10.1943V11.1446" stroke="black" stroke-width="0.142283"/>
<path d="M14.7055 11.1445H14.2735V10.7068H13.8895V11.1445H13.4521V11.5288H13.8895V11.9559H14.2735V11.5288H14.7055V11.1445Z" fill="#CCCCCC"/>
<path d="M14.7065 11.1446H14.2745V10.7069H13.8905V11.1446H13.4531V11.5289H13.8905V11.956H14.2745V11.5289H14.7065V11.1446Z" stroke="black" stroke-width="0.142283"/>
<path d="M12.4228 10.5948H11.9855V10.1677H11.6015V10.5948H11.1748V10.9791H11.6015V11.4168H11.9855V10.9791H12.4228V10.5948Z" fill="#CCCCCC"/>
<path d="M12.4238 10.5948H11.9864V10.1677H11.6024V10.5948H11.1758V10.9791H11.6024V11.4168H11.9864V10.9791H12.4238V10.5948Z" stroke="black" stroke-width="0.142283"/>
<path d="M10.1996 13.0235H9.76763V12.5858H9.38363V13.0235H8.94629V13.4079H9.38363V13.8349H9.76763V13.4079H10.1943V13.0235" fill="#CCCCCC"/>
<path d="M10.1996 13.0235H9.76762V12.5858H9.38362V13.0235H8.94629V13.4079H9.38362V13.8349H9.76762V13.4079H10.1943V13.0235" stroke="black" stroke-width="0.142283"/>
<path d="M14.7055 13.0235H14.2735V12.5858H13.8895V13.0235H13.4521V13.4079H13.8895V13.8349H14.2735V13.4079H14.7055V13.0235Z" fill="#CCCCCC"/>
<path d="M14.7065 13.0235H14.2745V12.5858H13.8905V13.0235H13.4531V13.4079H13.8905V13.8349H14.2745V13.4079H14.7065V13.0235Z" stroke="black" stroke-width="0.142283"/>
<path d="M10.1996 14.9185H9.76763V14.4861H9.38363V14.9185H8.94629V15.3028H9.38363V15.7351H9.76763V15.3081H10.1943V14.9185" fill="#CCCCCC"/>
<path d="M10.1996 14.9185H9.76762V14.4861H9.38362V14.9185H8.94629V15.3028H9.38362V15.7352H9.76762V15.3081H10.1943V14.9185" stroke="black" stroke-width="0.142283"/>
<path d="M14.7055 14.9185H14.2735V14.4861H13.8895V14.9185H13.4521V15.3028H13.8895V15.7351H14.2735V15.3081H14.7055V14.9185Z" fill="#CCCCCC"/>
<path d="M14.7065 14.9185H14.2745V14.4861H13.8905V14.9185H13.4531V15.3028H13.8905V15.7352H14.2745V15.3081H14.7065V14.9185Z" stroke="black" stroke-width="0.142283"/>
<path d="M11.8098 6.1163C11.8651 6.11689 11.92 6.10648 11.9713 6.08568C12.0227 6.06489 12.0693 6.03412 12.1087 5.99515C12.148 5.95618 12.1793 5.90978 12.2006 5.85865C12.2219 5.80752 12.2329 5.75267 12.2329 5.69726C12.2329 5.64186 12.2219 5.587 12.2006 5.53587C12.1793 5.48474 12.148 5.43835 12.1087 5.39938C12.0693 5.36041 12.0227 5.32963 11.9713 5.30884C11.92 5.28804 11.8651 5.27764 11.8098 5.27822C11.6995 5.27939 11.5941 5.32405 11.5166 5.40251C11.439 5.48097 11.3955 5.58689 11.3955 5.69726C11.3955 5.80764 11.439 5.91355 11.5166 5.99201C11.5941 6.07047 11.6995 6.11513 11.8098 6.1163Z" fill="#005BBF"/>
<path d="M11.8103 6.11625C11.9213 6.11625 12.0278 6.0721 12.1063 5.99352C12.1848 5.91494 12.2289 5.80835 12.2289 5.69722C12.2289 5.58609 12.1848 5.47951 12.1063 5.40093C12.0278 5.32235 11.9213 5.2782 11.8103 5.2782C11.6992 5.2782 11.5927 5.32235 11.5142 5.40093C11.4357 5.47951 11.3916 5.58609 11.3916 5.69722C11.3916 5.80835 11.4357 5.91494 11.5142 5.99352C11.5927 6.0721 11.6992 6.11625 11.8103 6.11625Z" stroke="black" stroke-width="0.142283"/>
<path d="M12.1991 5.62516H11.8578V5.07002H11.9911V4.96329H11.8578V4.82983H11.7511V4.95794H11.6178V5.07002H11.7458V5.62516H11.4258V5.69988H12.1991V5.62516Z" fill="#FFCC00"/>
<path d="M12.1991 5.62518H11.8578V5.07004H11.9911V4.96328H11.8578V4.82983H11.7511V4.95794H11.6178V5.07004H11.7458V5.62518H11.4258V5.69991H12.1991V5.62518Z" fill="#BCAC0B" stroke="black" stroke-width="0.0711416"/>
<path d="M10.1403 6.61272C10.1403 6.61272 10.4496 6.58071 10.6256 6.65008C10.6256 6.65008 10.4229 6.88493 10.4656 7.18924C10.487 7.34937 10.5189 7.42943 10.5669 7.50949C10.6096 7.57887 10.6576 7.73904 10.631 7.8618H10.6896C10.6896 7.8618 10.7483 7.60558 10.6523 7.46679C10.5941 7.38873 10.5584 7.29624 10.549 7.19933C10.5396 7.10242 10.5569 7.00479 10.5989 6.91699C10.7003 6.71416 10.8443 6.6341 10.8443 6.6341C11.0043 6.69813 11.3563 6.6341 11.4523 6.56472C11.5536 6.4953 11.6016 6.39387 11.4203 6.38852C11.2336 6.37788 10.9243 6.38318 10.711 6.54335C10.711 6.54335 10.5989 6.41524 10.0389 6.47397C9.47896 6.53801 9.07893 6.77819 8.95096 7.27994C8.88693 7.53616 9.12693 8.07532 9.34565 8.20338C9.34565 8.20338 9.3403 8.11802 9.36159 8.05394C9.36159 8.05394 8.98827 7.63226 9.09496 7.24258C9.21229 6.85826 9.66032 6.60204 10.1403 6.61272Z" fill="#FFCC00"/>
<path d="M10.1403 6.61273C10.1403 6.61273 10.4496 6.5807 10.6256 6.65009C10.6256 6.65009 10.423 6.88496 10.4656 7.18922C10.487 7.34935 10.519 7.42942 10.567 7.50949C10.6096 7.57888 10.6576 7.73902 10.631 7.86179H10.6896C10.6896 7.86179 10.7483 7.60557 10.6523 7.46679C10.5941 7.38873 10.5584 7.29624 10.549 7.19933C10.5396 7.10242 10.5569 7.00478 10.599 6.91699C10.7003 6.71415 10.8443 6.63408 10.8443 6.63408C11.0043 6.69813 11.3563 6.63408 11.4523 6.56468C11.5536 6.49529 11.6016 6.39387 11.4203 6.38853C11.2336 6.37786 10.9243 6.3832 10.711 6.54333C10.711 6.54333 10.599 6.41522 10.039 6.47394C9.47895 6.538 9.07895 6.7782 8.95095 7.27996C8.88695 7.53618 9.12695 8.07531 9.34562 8.20342C9.34562 8.20342 9.34029 8.11801 9.36162 8.05396C9.36162 8.05396 8.98828 7.63226 9.09495 7.2426C9.21229 6.85827 9.66029 6.60205 10.1403 6.61273Z" fill="#BCAC0B" stroke="black" stroke-width="0.0995982"/>
<path d="M11.1916 6.53794C11.2876 6.52725 11.3676 6.51122 11.3623 6.50058C11.3623 6.48455 11.2823 6.48455 11.1863 6.48989C11.0903 6.49523 11.0156 6.51661 11.0156 6.52725C11.0156 6.54328 11.0956 6.54328 11.1916 6.53794Z" fill="white"/>
<path d="M10.8394 6.62869C10.9461 6.52193 11.1807 6.45788 11.3141 6.48457C11.4421 6.51659 11.2874 6.53261 11.2447 6.53794C11.2021 6.53794 11.1167 6.55396 10.9887 6.53794" stroke="black" stroke-width="0.0995982"/>
<path d="M13.4736 6.64999C13.4736 6.64999 13.1696 6.61263 12.9883 6.68205C13.0811 6.80261 13.1367 6.94772 13.148 7.0995C13.1594 7.25127 13.1261 7.40305 13.0523 7.53611C13.0043 7.61618 12.9563 7.77096 12.9829 7.89377H12.9296C12.9296 7.89377 12.8657 7.64285 12.967 7.49871C13.0233 7.42071 13.0575 7.32894 13.0659 7.2331C13.0744 7.13725 13.0568 7.04091 13.015 6.95425C12.9639 6.83732 12.8807 6.73733 12.775 6.66597C12.6096 6.73539 12.2576 6.66597 12.1616 6.5966C12.0656 6.52722 12.0123 6.43113 12.199 6.42049C12.3803 6.4098 12.6949 6.41514 12.9083 6.58061C12.9083 6.58061 13.015 6.44716 13.5803 6.51124C14.135 6.56993 14.5403 6.81011 14.663 7.31186C14.727 7.56813 14.4924 8.10724 14.2736 8.23535C14.2736 8.23535 14.2736 8.14994 14.2577 8.08591C14.2577 8.08591 14.631 7.66952 14.519 7.27985C14.4069 6.89022 13.9589 6.6393 13.4736 6.64999Z" fill="#FFCC00"/>
<path d="M13.4736 6.65001C13.4736 6.65001 13.1696 6.61265 12.9883 6.68204C13.0811 6.80259 13.1367 6.94771 13.148 7.09948C13.1594 7.25126 13.1261 7.40304 13.0523 7.5361C13.0043 7.61617 12.9563 7.77097 12.983 7.89374H12.9296C12.9296 7.89374 12.8656 7.64286 12.967 7.49874C13.0233 7.42074 13.0574 7.32896 13.0659 7.23312C13.0743 7.13728 13.0567 7.04093 13.015 6.95427C12.9639 6.83735 12.8807 6.73738 12.775 6.66603C12.6096 6.73542 12.2576 6.66603 12.1616 6.59663C12.0656 6.52724 12.0123 6.43116 12.199 6.42048C12.3803 6.40981 12.695 6.41515 12.9083 6.58062C12.9083 6.58062 13.015 6.44717 13.5803 6.51123C14.135 6.56994 14.5403 6.81015 14.663 7.31191C14.727 7.56813 14.4923 8.10726 14.2736 8.23537C14.2736 8.23537 14.2736 8.14996 14.2576 8.0859C14.2576 8.0859 14.631 7.66955 14.519 7.27988C14.407 6.89022 13.959 6.63934 13.4736 6.65001Z" fill="#BCAC0B" stroke="black" stroke-width="0.0995982"/>
<path d="M12.4236 6.57009C12.3276 6.5647 12.2529 6.54871 12.2529 6.53268C12.2529 6.52199 12.3329 6.51665 12.4289 6.52199C12.5249 6.53268 12.6049 6.54871 12.6049 6.55935C12.6049 6.57538 12.5249 6.58073 12.4236 6.57004" fill="white"/>
<path d="M12.7754 6.66071C12.6687 6.55929 12.434 6.48989 12.306 6.52192C12.1727 6.54861 12.3274 6.56463 12.37 6.56996C12.418 6.56996 12.5034 6.59131 12.6314 6.56996" stroke="black" stroke-width="0.0995982"/>
<path d="M11.522 6.30312V7.49346C11.5113 7.61093 11.666 7.7764 11.778 7.8244C11.778 7.8244 12.0447 7.73904 12.0607 7.49346V6.23914H11.97V7.32804C11.97 7.43482 11.8953 7.63765 11.794 7.66967C11.794 7.66967 11.602 7.63765 11.5913 7.32804V6.27115L11.522 6.30317" fill="#FFCC00"/>
<path d="M11.522 6.30307V7.49342C11.5113 7.61085 11.666 7.77633 11.778 7.82437C11.778 7.82437 12.0447 7.73896 12.0607 7.49342V6.23901H11.97V7.32794C11.97 7.4347 11.8953 7.63754 11.794 7.66957C11.794 7.66957 11.602 7.63754 11.5913 7.32794V6.27104L11.522 6.30307Z" fill="#BCAC0B" stroke="black" stroke-width="0.0995982"/>
<path d="M8.89265 7.93109C8.91351 7.93519 8.93502 7.93461 8.95564 7.9294C8.97625 7.92419 8.99545 7.91447 9.01187 7.90095C9.02828 7.88743 9.04151 7.87043 9.05058 7.85119C9.05966 7.83195 9.06437 7.81093 9.06437 7.78965C9.06437 7.76837 9.05966 7.74735 9.05058 7.72811C9.04151 7.70886 9.02828 7.69187 9.01187 7.67835C8.99545 7.66483 8.97625 7.65511 8.95564 7.6499C8.93502 7.64469 8.91351 7.64411 8.89265 7.6482C8.85989 7.65463 8.83039 7.67226 8.80918 7.69806C8.78796 7.72386 8.77637 7.75624 8.77637 7.78965C8.77637 7.82306 8.78796 7.85544 8.80918 7.88124C8.83039 7.90704 8.85989 7.92466 8.89265 7.93109Z" fill="white"/>
<path d="M8.89278 7.93121C8.91364 7.93528 8.93514 7.93468 8.95573 7.92946C8.97633 7.92424 8.99552 7.91452 9.01192 7.901C9.02832 7.88748 9.04153 7.87049 9.0506 7.85126C9.05967 7.83202 9.06437 7.81102 9.06437 7.78975C9.06437 7.76849 9.05967 7.74748 9.0506 7.72825C9.04153 7.70902 9.02832 7.69203 9.01192 7.67851C8.99552 7.66499 8.97633 7.65527 8.95573 7.65004C8.93514 7.64482 8.91364 7.64422 8.89278 7.6483C8.86 7.6547 8.83046 7.67232 8.80922 7.69812C8.78798 7.72393 8.77637 7.75632 8.77637 7.78975C8.77637 7.82319 8.78798 7.85558 8.80922 7.88138C8.83046 7.90719 8.86 7.9248 8.89278 7.93121Z" stroke="black" stroke-width="0.142283"/>
<path d="M8.80195 7.60553C8.82281 7.60963 8.84432 7.60905 8.86493 7.60384C8.88555 7.59863 8.90475 7.58891 8.92117 7.57539C8.93758 7.56186 8.9508 7.54487 8.95988 7.52563C8.96896 7.50638 8.97367 7.48537 8.97367 7.46409C8.97367 7.44281 8.96896 7.42179 8.95988 7.40255C8.9508 7.3833 8.93758 7.36631 8.92117 7.35279C8.90475 7.33926 8.88555 7.32955 8.86493 7.32434C8.84432 7.31912 8.82281 7.31855 8.80195 7.32264C8.76917 7.32905 8.73963 7.34667 8.71839 7.37247C8.69716 7.39828 8.68555 7.43068 8.68555 7.46411C8.68555 7.49755 8.69716 7.52994 8.71839 7.55575C8.73963 7.58156 8.76917 7.59917 8.80195 7.60558" fill="white"/>
<path d="M8.80196 7.60552C8.82282 7.6096 8.84432 7.609 8.86491 7.60378C8.88551 7.59855 8.9047 7.58883 8.9211 7.57531C8.9375 7.56179 8.95071 7.54481 8.95978 7.52557C8.96885 7.50634 8.97355 7.48534 8.97355 7.46407C8.97355 7.4428 8.96885 7.4218 8.95978 7.40257C8.95071 7.38333 8.9375 7.36635 8.9211 7.35283C8.9047 7.3393 8.88551 7.32958 8.86491 7.32436C8.84432 7.31914 8.82282 7.31854 8.80196 7.32262C8.76918 7.32902 8.73964 7.34663 8.7184 7.37244C8.69716 7.39824 8.68555 7.43064 8.68555 7.46407C8.68555 7.4975 8.69716 7.5299 8.7184 7.5557C8.73964 7.58151 8.76918 7.59912 8.80196 7.60552Z" stroke="black" stroke-width="0.142283"/>
<path d="M8.84968 7.21051C8.87054 7.21461 8.89205 7.21403 8.91267 7.20882C8.93328 7.20361 8.95248 7.19389 8.9689 7.18037C8.98532 7.16685 8.99854 7.14985 9.00761 7.13061C9.01669 7.11137 9.0214 7.09035 9.0214 7.06907C9.0214 7.04779 9.01669 7.02677 9.00761 7.00753C8.99854 6.98828 8.98532 6.97129 8.9689 6.95777C8.95248 6.94424 8.93328 6.93453 8.91267 6.92932C8.89205 6.9241 8.87054 6.92353 8.84968 6.92762C8.81692 6.93405 8.78742 6.95168 8.76621 6.97748C8.745 7.00328 8.7334 7.03565 8.7334 7.06907C8.7334 7.10248 8.745 7.13486 8.76621 7.16066C8.78742 7.18646 8.81692 7.20408 8.84968 7.21051Z" fill="white"/>
<path d="M8.84981 7.2105C8.87067 7.21458 8.89217 7.21398 8.91277 7.20876C8.93336 7.20354 8.95255 7.19381 8.96895 7.18029C8.98535 7.16677 8.99856 7.14979 9.00763 7.13055C9.0167 7.11132 9.0214 7.09032 9.0214 7.06905C9.0214 7.04778 9.0167 7.02678 9.00763 7.00755C8.99856 6.98831 8.98535 6.97133 8.96895 6.95781C8.95255 6.94429 8.93336 6.93456 8.91277 6.92934C8.89217 6.92412 8.87067 6.92352 8.84981 6.9276C8.81703 6.934 8.78749 6.95161 8.76625 6.97742C8.74501 7.00322 8.7334 7.03562 8.7334 7.06905C8.7334 7.10248 8.74501 7.13488 8.76625 7.16068C8.78749 7.18649 8.81703 7.2041 8.84981 7.2105Z" stroke="black" stroke-width="0.142283"/>
<path d="M9.06855 6.8796C9.08941 6.88368 9.11091 6.88309 9.13151 6.87786C9.1521 6.87264 9.17129 6.86292 9.1877 6.8494C9.2041 6.83587 9.21731 6.81888 9.22638 6.79965C9.23545 6.78041 9.24015 6.75941 9.24015 6.73813C9.24015 6.71686 9.23545 6.69586 9.22638 6.67662C9.21731 6.65738 9.2041 6.6404 9.1877 6.62687C9.17129 6.61335 9.1521 6.60363 9.13151 6.59841C9.11091 6.59318 9.08941 6.59259 9.06855 6.59667C9.03577 6.60307 9.00623 6.62069 8.985 6.6465C8.96376 6.67231 8.95215 6.7047 8.95215 6.73813C8.95215 6.77157 8.96376 6.80396 8.985 6.82977C9.00623 6.85558 9.03577 6.8732 9.06855 6.8796Z" fill="white"/>
<path d="M9.06856 6.87957C9.08942 6.88365 9.11092 6.88305 9.13151 6.87783C9.15211 6.8726 9.1713 6.86288 9.1877 6.84936C9.2041 6.83584 9.21731 6.81885 9.22638 6.79962C9.23545 6.78039 9.24015 6.75938 9.24015 6.73812C9.24015 6.71685 9.23545 6.69585 9.22638 6.67661C9.21731 6.65738 9.2041 6.64039 9.1877 6.62687C9.1713 6.61335 9.15211 6.60363 9.13151 6.59841C9.11092 6.59319 9.08942 6.59259 9.06856 6.59666C9.03578 6.60307 9.00624 6.62068 8.985 6.64649C8.96376 6.67229 8.95215 6.70468 8.95215 6.73812C8.95215 6.77155 8.96376 6.80394 8.985 6.82975C9.00624 6.85555 9.03578 6.87317 9.06856 6.87957Z" stroke="black" stroke-width="0.142283"/>
<path d="M9.33015 6.63937C9.35101 6.64345 9.3725 6.64285 9.3931 6.63763C9.4137 6.63241 9.43289 6.62269 9.4493 6.60916C9.4657 6.59564 9.47891 6.57865 9.48798 6.55941C9.49704 6.54018 9.50175 6.51917 9.50175 6.4979C9.50175 6.47663 9.49704 6.45562 9.48798 6.43639C9.47891 6.41715 9.4657 6.40016 9.4493 6.38664C9.43289 6.37312 9.4137 6.36339 9.3931 6.35817C9.3725 6.35295 9.35101 6.35236 9.33015 6.35643C9.29739 6.36286 9.26789 6.38049 9.24668 6.40629C9.22546 6.43209 9.21387 6.46446 9.21387 6.49788C9.21387 6.53129 9.22546 6.56367 9.24668 6.58947C9.26789 6.61527 9.29739 6.63294 9.33015 6.63937Z" fill="white"/>
<path d="M9.33028 6.63934C9.35114 6.64341 9.37264 6.64281 9.39323 6.63759C9.41383 6.63237 9.43302 6.62265 9.44942 6.60913C9.46582 6.59561 9.47903 6.57862 9.4881 6.55939C9.49717 6.54015 9.50187 6.51915 9.50187 6.49788C9.50187 6.47662 9.49717 6.45561 9.4881 6.43638C9.47903 6.41715 9.46582 6.40016 9.44942 6.38664C9.43302 6.37312 9.41383 6.3634 9.39323 6.35817C9.37264 6.35295 9.35114 6.35235 9.33028 6.35643C9.2975 6.36283 9.26796 6.38045 9.24672 6.40625C9.22548 6.43206 9.21387 6.46445 9.21387 6.49788C9.21387 6.53132 9.22548 6.56371 9.24672 6.58951C9.26796 6.61532 9.2975 6.63293 9.33028 6.63934Z" stroke="black" stroke-width="0.142283"/>
<path d="M9.67109 6.50595C9.69195 6.51002 9.71344 6.50943 9.73404 6.50421C9.75464 6.49898 9.77383 6.48926 9.79023 6.47574C9.80664 6.46222 9.81985 6.44523 9.82892 6.42599C9.83798 6.40676 9.84269 6.38575 9.84269 6.36448C9.84269 6.34321 9.83798 6.3222 9.82892 6.30296C9.81985 6.28373 9.80664 6.26674 9.79023 6.25322C9.77383 6.23969 9.75464 6.22997 9.73404 6.22475C9.71344 6.21953 9.69195 6.21893 9.67109 6.22301C9.63831 6.22942 9.60877 6.24703 9.58753 6.27284C9.5663 6.29865 9.55469 6.33104 9.55469 6.36448C9.55469 6.39791 9.5663 6.43031 9.58753 6.45611C9.60877 6.48192 9.63831 6.49954 9.67109 6.50595Z" fill="white"/>
<path d="M9.6711 6.50591C9.69196 6.50999 9.71346 6.50939 9.73405 6.50417C9.75465 6.49895 9.77384 6.48922 9.79024 6.4757C9.80664 6.46218 9.81985 6.4452 9.82892 6.42596C9.83799 6.40673 9.84269 6.38573 9.84269 6.36446C9.84269 6.34319 9.83799 6.32219 9.82892 6.30296C9.81985 6.28372 9.80664 6.26674 9.79024 6.25322C9.77384 6.2397 9.75465 6.22997 9.73405 6.22475C9.71346 6.21953 9.69196 6.21893 9.6711 6.22301C9.63832 6.22941 9.60878 6.24702 9.58754 6.27283C9.5663 6.29863 9.55469 6.33103 9.55469 6.36446C9.55469 6.39789 9.5663 6.43028 9.58754 6.45609C9.60878 6.4819 9.63832 6.49951 9.6711 6.50591Z" stroke="black" stroke-width="0.142283"/>
<path d="M10.0236 6.44722C10.0618 6.44722 10.0984 6.43203 10.1255 6.405C10.1525 6.37797 10.1676 6.3413 10.1676 6.30308C10.1676 6.26485 10.1525 6.22819 10.1255 6.20115C10.0984 6.17412 10.0618 6.15894 10.0236 6.15894C9.99085 6.16534 9.96131 6.18296 9.94007 6.20877C9.91884 6.23458 9.90723 6.26697 9.90723 6.3004C9.90723 6.33384 9.91884 6.36623 9.94007 6.39204C9.96131 6.41785 9.99085 6.43547 10.0236 6.44187" fill="white"/>
<path d="M10.0236 6.44718C10.0618 6.44718 10.0985 6.432 10.1255 6.40497C10.1525 6.37794 10.1676 6.34128 10.1676 6.30306C10.1676 6.26483 10.1525 6.22818 10.1255 6.20115C10.0985 6.17412 10.0618 6.15894 10.0236 6.15894C9.99086 6.16534 9.96132 6.18295 9.94008 6.20876C9.91884 6.23456 9.90723 6.26696 9.90723 6.30039C9.90723 6.33382 9.91884 6.36621 9.94008 6.39202C9.96132 6.41783 9.99086 6.43544 10.0236 6.44184V6.44718Z" stroke="black" stroke-width="0.142283"/>
<path d="M10.3588 6.42583C10.378 6.42618 10.397 6.4227 10.4147 6.41562C10.4325 6.40853 10.4487 6.39797 10.4623 6.38455C10.476 6.37113 10.4868 6.35513 10.4942 6.33747C10.5016 6.31982 10.5054 6.30086 10.5054 6.28171C10.5054 6.26257 10.5016 6.24361 10.4942 6.22595C10.4868 6.2083 10.476 6.19229 10.4623 6.17888C10.4487 6.16546 10.4325 6.1549 10.4147 6.14781C10.397 6.14072 10.378 6.13725 10.3588 6.1376C10.3207 6.1376 10.284 6.15278 10.257 6.17981C10.23 6.20685 10.2148 6.24351 10.2148 6.28174C10.2148 6.31997 10.23 6.35663 10.257 6.38366C10.284 6.41069 10.3207 6.42588 10.3588 6.42588" fill="white"/>
<path d="M10.3588 6.42582C10.397 6.42582 10.4337 6.41064 10.4607 6.38361C10.4877 6.35658 10.5028 6.31992 10.5028 6.2817C10.5028 6.24347 10.4877 6.20681 10.4607 6.17979C10.4337 6.15276 10.397 6.13757 10.3588 6.13757C10.3207 6.13757 10.284 6.15276 10.257 6.17979C10.23 6.20681 10.2148 6.24347 10.2148 6.2817C10.2148 6.31992 10.23 6.35658 10.257 6.38361C10.284 6.41064 10.3207 6.42582 10.3588 6.42582Z" stroke="black" stroke-width="0.142283"/>
<path d="M10.6629 6.44721C10.6838 6.4513 10.7053 6.45072 10.7259 6.44551C10.7465 6.4403 10.7657 6.43058 10.7821 6.41706C10.7985 6.40354 10.8117 6.38655 10.8208 6.3673C10.8299 6.34806 10.8346 6.32704 10.8346 6.30576C10.8346 6.28448 10.8299 6.26346 10.8208 6.24422C10.8117 6.22498 10.7985 6.20798 10.7821 6.19446C10.7657 6.18094 10.7465 6.17122 10.7259 6.16601C10.7053 6.1608 10.6838 6.16022 10.6629 6.16432C10.6252 6.165 10.5892 6.18048 10.5627 6.20743C10.5363 6.23439 10.5215 6.27066 10.5215 6.30843C10.5215 6.34621 10.5363 6.38248 10.5627 6.40943C10.5892 6.43639 10.6252 6.45187 10.6629 6.45255" fill="white"/>
<path d="M10.6635 6.4472C10.6844 6.45127 10.7059 6.45068 10.7265 6.44545C10.7471 6.44023 10.7663 6.43051 10.7827 6.41699C10.7991 6.40347 10.8123 6.38648 10.8213 6.36725C10.8304 6.34801 10.8351 6.32701 10.8351 6.30574C10.8351 6.28448 10.8304 6.26347 10.8213 6.24424C10.8123 6.22501 10.7991 6.20802 10.7827 6.1945C10.7663 6.18098 10.7471 6.17126 10.7265 6.16604C10.7059 6.16081 10.6844 6.16022 10.6635 6.16429C10.6253 6.16429 10.5887 6.17947 10.5617 6.2065C10.5347 6.23353 10.5195 6.27019 10.5195 6.30841C10.5195 6.34664 10.5347 6.3833 10.5617 6.41032C10.5887 6.43735 10.6253 6.45254 10.6635 6.45254V6.4472Z" stroke="black" stroke-width="0.142283"/>
<path d="M11.5167 6.3404C11.5375 6.34449 11.559 6.34391 11.5797 6.3387C11.6003 6.33349 11.6195 6.32377 11.6359 6.31025C11.6523 6.29673 11.6655 6.27974 11.6746 6.26049C11.6837 6.24125 11.6884 6.22023 11.6884 6.19895C11.6884 6.17767 11.6837 6.15665 11.6746 6.13741C11.6655 6.11816 11.6523 6.10117 11.6359 6.08765C11.6195 6.07413 11.6003 6.06441 11.5797 6.0592C11.559 6.05399 11.5375 6.05341 11.5167 6.0575C11.4839 6.06394 11.4544 6.08156 11.4332 6.10736C11.412 6.13316 11.4004 6.16554 11.4004 6.19895C11.4004 6.23236 11.412 6.26474 11.4332 6.29054C11.4544 6.31634 11.4839 6.33396 11.5167 6.3404Z" fill="white"/>
<path d="M11.5168 6.34051C11.5377 6.34458 11.5592 6.34399 11.5798 6.33876C11.6004 6.33354 11.6195 6.32382 11.6359 6.3103C11.6523 6.29678 11.6656 6.27979 11.6746 6.26056C11.6837 6.24132 11.6884 6.22032 11.6884 6.19906C11.6884 6.17779 11.6837 6.15678 11.6746 6.13755C11.6656 6.11832 11.6523 6.10133 11.6359 6.08781C11.6195 6.07429 11.6004 6.06457 11.5798 6.05935C11.5592 6.05412 11.5377 6.05353 11.5168 6.0576C11.484 6.064 11.4545 6.08162 11.4332 6.10742C11.412 6.13323 11.4004 6.16562 11.4004 6.19906C11.4004 6.23249 11.412 6.26488 11.4332 6.29069C11.4545 6.31649 11.484 6.3341 11.5168 6.34051Z" stroke="black" stroke-width="0.142283"/>
<path d="M11.7941 6.41525C11.815 6.41932 11.8365 6.41873 11.8571 6.41351C11.8777 6.40829 11.8969 6.39856 11.9133 6.38504C11.9297 6.37152 11.9429 6.35453 11.952 6.33529C11.961 6.31606 11.9657 6.29505 11.9657 6.27378C11.9657 6.25251 11.961 6.2315 11.952 6.21227C11.9429 6.19303 11.9297 6.17604 11.9133 6.16252C11.8969 6.149 11.8777 6.13927 11.8571 6.13405C11.8365 6.12883 11.815 6.12823 11.7941 6.13231C11.7614 6.13872 11.7318 6.15633 11.7106 6.18214C11.6893 6.20795 11.6777 6.24035 11.6777 6.27378C11.6777 6.30721 11.6893 6.33961 11.7106 6.36542C11.7318 6.39122 11.7614 6.40884 11.7941 6.41525Z" fill="white"/>
<path d="M11.7942 6.41522C11.815 6.41929 11.8365 6.41869 11.8571 6.41347C11.8777 6.40825 11.8969 6.39853 11.9133 6.38501C11.9297 6.37148 11.9429 6.3545 11.952 6.33527C11.961 6.31603 11.9657 6.29503 11.9657 6.27376C11.9657 6.25249 11.961 6.23149 11.952 6.21226C11.9429 6.19303 11.9297 6.17604 11.9133 6.16252C11.8969 6.149 11.8777 6.13928 11.8571 6.13405C11.8365 6.12883 11.815 6.12823 11.7942 6.13231C11.7614 6.13871 11.7318 6.15633 11.7106 6.18213C11.6893 6.20794 11.6777 6.24033 11.6777 6.27376C11.6777 6.30719 11.6893 6.33959 11.7106 6.36539C11.7318 6.3912 11.7614 6.40881 11.7942 6.41522Z" stroke="black" stroke-width="0.142283"/>
<path d="M11.7944 7.47212C11.8326 7.47212 11.8692 7.45693 11.8962 7.4299C11.9232 7.40287 11.9384 7.36621 11.9384 7.32798C11.9384 7.28975 11.9232 7.25309 11.8962 7.22606C11.8692 7.19902 11.8326 7.18384 11.7944 7.18384C11.7562 7.18384 11.7196 7.19902 11.6926 7.22606C11.6656 7.25309 11.6504 7.28975 11.6504 7.32798C11.6504 7.36621 11.6656 7.40287 11.6926 7.4299C11.7196 7.45693 11.7562 7.47212 11.7944 7.47212Z" fill="white"/>
<path d="M11.7944 7.47208C11.8326 7.47208 11.8692 7.4569 11.8962 7.42987C11.9232 7.40284 11.9384 7.36618 11.9384 7.32796C11.9384 7.28974 11.9232 7.25308 11.8962 7.22605C11.8692 7.19902 11.8326 7.18384 11.7944 7.18384C11.7562 7.18384 11.7196 7.19902 11.6926 7.22605C11.6656 7.25308 11.6504 7.28974 11.6504 7.32796C11.6504 7.36618 11.6656 7.40284 11.6926 7.42987C11.7196 7.4569 11.7562 7.47208 11.7944 7.47208Z" stroke="black" stroke-width="0.142283"/>
<path d="M14.7325 8.02191C14.7534 8.02601 14.7749 8.02543 14.7955 8.02022C14.8161 8.01501 14.8353 8.00529 14.8517 7.99177C14.8681 7.97825 14.8814 7.96125 14.8904 7.94201C14.8995 7.92277 14.9042 7.90175 14.9042 7.88047C14.9042 7.85919 14.8995 7.83817 14.8904 7.81893C14.8814 7.79968 14.8681 7.78269 14.8517 7.76917C14.8353 7.75565 14.8161 7.74593 14.7955 7.74072C14.7749 7.73551 14.7534 7.73493 14.7325 7.73902C14.6997 7.74545 14.6702 7.76308 14.649 7.78888C14.6278 7.81468 14.6162 7.84705 14.6162 7.88047C14.6162 7.91388 14.6278 7.94626 14.649 7.97206C14.6702 7.99786 14.6997 8.01548 14.7325 8.02191Z" fill="white"/>
<path d="M14.7326 8.02191C14.7535 8.02598 14.775 8.02538 14.7956 8.02016C14.8162 8.01494 14.8354 8.00522 14.8518 7.99169C14.8682 7.97817 14.8814 7.96119 14.8904 7.94195C14.8995 7.92272 14.9042 7.90172 14.9042 7.88045C14.9042 7.85918 14.8995 7.83818 14.8904 7.81895C14.8814 7.79971 14.8682 7.78273 14.8518 7.76921C14.8354 7.75569 14.8162 7.74597 14.7956 7.74074C14.775 7.73552 14.7535 7.73492 14.7326 7.739C14.6998 7.7454 14.6703 7.76301 14.6491 7.78882C14.6278 7.81463 14.6162 7.84702 14.6162 7.88045C14.6162 7.91388 14.6278 7.94628 14.6491 7.97208C14.6703 7.99789 14.6998 8.0155 14.7326 8.02191Z" stroke="black" stroke-width="0.142283"/>
<path d="M14.8077 7.67498C14.8268 7.67532 14.8458 7.67185 14.8636 7.66476C14.8814 7.65767 14.8975 7.64711 14.9112 7.6337C14.9248 7.62028 14.9357 7.60428 14.9431 7.58662C14.9505 7.56896 14.9543 7.55001 14.9543 7.53086C14.9543 7.51171 14.9505 7.49276 14.9431 7.4751C14.9357 7.45744 14.9248 7.44144 14.9112 7.42802C14.8975 7.41461 14.8814 7.40404 14.8636 7.39696C14.8458 7.38987 14.8268 7.3864 14.8077 7.38674C14.7749 7.39317 14.7454 7.4108 14.7242 7.4366C14.703 7.4624 14.6914 7.49477 14.6914 7.52819C14.6914 7.5616 14.703 7.59398 14.7242 7.61978C14.7454 7.64558 14.7749 7.6632 14.8077 7.66963" fill="white"/>
<path d="M14.8068 7.67496C14.845 7.67496 14.8817 7.65978 14.9087 7.63275C14.9357 7.60572 14.9508 7.56907 14.9508 7.53084C14.9508 7.49262 14.9357 7.45596 14.9087 7.42893C14.8817 7.4019 14.845 7.38672 14.8068 7.38672C14.7741 7.39312 14.7445 7.41074 14.7233 7.43654C14.702 7.46235 14.6904 7.49474 14.6904 7.52817C14.6904 7.56161 14.702 7.594 14.7233 7.6198C14.7445 7.64561 14.7741 7.66322 14.8068 7.66963V7.67496Z" stroke="black" stroke-width="0.142283"/>
<path d="M14.7491 7.30133C14.77 7.30543 14.7915 7.30485 14.8121 7.29964C14.8327 7.29443 14.8519 7.28471 14.8683 7.27119C14.8847 7.25767 14.898 7.24067 14.907 7.22143C14.9161 7.20219 14.9208 7.18117 14.9208 7.15989C14.9208 7.13861 14.9161 7.11759 14.907 7.09835C14.898 7.0791 14.8847 7.06211 14.8683 7.04859C14.8519 7.03506 14.8327 7.02535 14.8121 7.02014C14.7915 7.01492 14.77 7.01435 14.7491 7.01844C14.7163 7.02487 14.6868 7.0425 14.6656 7.0683C14.6444 7.0941 14.6328 7.12647 14.6328 7.15989C14.6328 7.1933 14.6444 7.22568 14.6656 7.25148C14.6868 7.27728 14.7163 7.2949 14.7491 7.30133Z" fill="white"/>
<path d="M14.7483 7.30132C14.7691 7.3054 14.7906 7.3048 14.8112 7.29958C14.8318 7.29436 14.851 7.28463 14.8674 7.27111C14.8838 7.25759 14.897 7.24061 14.9061 7.22137C14.9151 7.20214 14.9198 7.18114 14.9198 7.15987C14.9198 7.1386 14.9151 7.1176 14.9061 7.09837C14.897 7.07913 14.8838 7.06215 14.8674 7.04863C14.851 7.03511 14.8318 7.02538 14.8112 7.02016C14.7906 7.01494 14.7691 7.01434 14.7483 7.01842C14.7155 7.02482 14.6859 7.04243 14.6647 7.06824C14.6434 7.09404 14.6318 7.12644 14.6318 7.15987C14.6318 7.1933 14.6434 7.2257 14.6647 7.2515C14.6859 7.27731 14.7155 7.29492 14.7483 7.30132Z" stroke="black" stroke-width="0.142283"/>
<path d="M14.5942 6.9543C14.6324 6.9543 14.669 6.93911 14.696 6.91208C14.723 6.88505 14.7382 6.84839 14.7382 6.81016C14.7382 6.77193 14.723 6.73527 14.696 6.70823C14.669 6.6812 14.6324 6.66602 14.5942 6.66602C14.556 6.66602 14.5194 6.6812 14.4924 6.70823C14.4654 6.73527 14.4502 6.77193 14.4502 6.81016C14.4502 6.84839 14.4654 6.88505 14.4924 6.91208C14.5194 6.93911 14.556 6.9543 14.5942 6.9543Z" fill="white"/>
<path d="M14.5942 6.95426C14.6324 6.95426 14.669 6.93908 14.696 6.91205C14.723 6.88502 14.7382 6.84836 14.7382 6.81014C14.7382 6.77191 14.723 6.73526 14.696 6.70823C14.669 6.6812 14.6324 6.66602 14.5942 6.66602C14.556 6.66602 14.5194 6.6812 14.4924 6.70823C14.4654 6.73526 14.4502 6.77191 14.4502 6.81014C14.4502 6.84836 14.4654 6.88502 14.4924 6.91205C14.5194 6.93908 14.556 6.95426 14.5942 6.95426Z" stroke="black" stroke-width="0.142283"/>
<path d="M14.3322 6.71406C14.3704 6.71406 14.407 6.69888 14.434 6.67184C14.4611 6.64481 14.4762 6.60815 14.4762 6.56992C14.4762 6.53169 14.4611 6.49503 14.434 6.468C14.407 6.44097 14.3704 6.42578 14.3322 6.42578C14.2994 6.43219 14.2699 6.44981 14.2487 6.47561C14.2274 6.50142 14.2158 6.53382 14.2158 6.56725C14.2158 6.60068 14.2274 6.63308 14.2487 6.65889C14.2699 6.6847 14.2994 6.70231 14.3322 6.70872" fill="white"/>
<path d="M14.3322 6.71415C14.3704 6.71415 14.4071 6.69896 14.4341 6.67194C14.4611 6.64491 14.4762 6.60825 14.4762 6.57003C14.4762 6.5318 14.4611 6.49514 14.4341 6.46812C14.4071 6.44109 14.3704 6.4259 14.3322 6.4259C14.2994 6.43231 14.2699 6.44992 14.2487 6.47573C14.2274 6.50153 14.2158 6.53392 14.2158 6.56736C14.2158 6.60079 14.2274 6.63318 14.2487 6.65899C14.2699 6.68479 14.2994 6.70241 14.3322 6.70881V6.71415Z" stroke="black" stroke-width="0.142283"/>
<path d="M14.0177 6.5539C14.0385 6.55799 14.06 6.55741 14.0806 6.5522C14.1012 6.54699 14.1205 6.53727 14.1369 6.52375C14.1533 6.51023 14.1665 6.49324 14.1756 6.47399C14.1847 6.45475 14.1894 6.43373 14.1894 6.41245C14.1894 6.39117 14.1847 6.37015 14.1756 6.35091C14.1665 6.33167 14.1533 6.31467 14.1369 6.30115C14.1205 6.28763 14.1012 6.27791 14.0806 6.2727C14.06 6.26749 14.0385 6.26691 14.0177 6.27101C13.9849 6.27744 13.9554 6.29506 13.9342 6.32086C13.913 6.34666 13.9014 6.37904 13.9014 6.41245C13.9014 6.44586 13.913 6.47824 13.9342 6.50404C13.9554 6.52984 13.9849 6.54747 14.0177 6.5539Z" fill="white"/>
<path d="M14.0178 6.55401C14.0386 6.55808 14.0601 6.55749 14.0807 6.55226C14.1013 6.54704 14.1205 6.53732 14.1369 6.5238C14.1533 6.51028 14.1665 6.49329 14.1756 6.47406C14.1847 6.45483 14.1894 6.43382 14.1894 6.41256C14.1894 6.39129 14.1847 6.37029 14.1756 6.35105C14.1665 6.33182 14.1533 6.31483 14.1369 6.30131C14.1205 6.28779 14.1013 6.27807 14.0807 6.27285C14.0601 6.26762 14.0386 6.26703 14.0178 6.2711C13.985 6.27751 13.9555 6.29512 13.9342 6.32092C13.913 6.34673 13.9014 6.37912 13.9014 6.41256C13.9014 6.44599 13.913 6.47838 13.9342 6.50419C13.9555 6.52999 13.985 6.54761 14.0178 6.55401Z" stroke="black" stroke-width="0.142283"/>
<path d="M13.6553 6.47396C13.6762 6.47804 13.6977 6.47745 13.7183 6.47222C13.7389 6.467 13.7581 6.45728 13.7745 6.44376C13.7909 6.43023 13.8041 6.41325 13.8132 6.39401C13.8222 6.37477 13.8269 6.35377 13.8269 6.33249C13.8269 6.31122 13.8222 6.29022 13.8132 6.27098C13.8041 6.25175 13.7909 6.23476 13.7745 6.22123C13.7581 6.20771 13.7389 6.19799 13.7183 6.19277C13.6977 6.18754 13.6762 6.18695 13.6553 6.19103C13.6226 6.19746 13.5931 6.21508 13.5719 6.24088C13.5507 6.26668 13.5391 6.29906 13.5391 6.33247C13.5391 6.36589 13.5507 6.39826 13.5719 6.42406C13.5931 6.44986 13.6226 6.46749 13.6553 6.47392" fill="white"/>
<path d="M13.6555 6.47393C13.6763 6.47801 13.6978 6.47741 13.7184 6.47219C13.739 6.46696 13.7582 6.45724 13.7746 6.44372C13.791 6.4302 13.8042 6.41321 13.8133 6.39398C13.8224 6.37475 13.8271 6.35374 13.8271 6.33248C13.8271 6.31121 13.8224 6.29021 13.8133 6.27097C13.8042 6.25174 13.791 6.23476 13.7746 6.22123C13.7582 6.20771 13.739 6.19799 13.7184 6.19277C13.6978 6.18755 13.6763 6.18695 13.6555 6.19102C13.6227 6.19743 13.5932 6.21504 13.5719 6.24085C13.5507 6.26665 13.5391 6.29905 13.5391 6.33248C13.5391 6.36591 13.5507 6.3983 13.5719 6.42411C13.5932 6.44991 13.6227 6.46753 13.6555 6.47393Z" stroke="black" stroke-width="0.142283"/>
<path d="M13.3302 6.44721C13.351 6.4513 13.3725 6.45072 13.3931 6.44551C13.4137 6.4403 13.433 6.43058 13.4494 6.41706C13.4658 6.40354 13.479 6.38655 13.4881 6.3673C13.4972 6.34806 13.5019 6.32704 13.5019 6.30576C13.5019 6.28448 13.4972 6.26346 13.4881 6.24422C13.479 6.22498 13.4658 6.20798 13.4494 6.19446C13.433 6.18094 13.4137 6.17122 13.3931 6.16601C13.3725 6.1608 13.351 6.16022 13.3302 6.16432C13.2974 6.17075 13.2679 6.18837 13.2467 6.21417C13.2255 6.23997 13.2139 6.27235 13.2139 6.30576C13.2139 6.33918 13.2255 6.37155 13.2467 6.39735C13.2679 6.42315 13.2974 6.44078 13.3302 6.44721Z" fill="white"/>
<path d="M13.3303 6.4472C13.3511 6.45127 13.3726 6.45068 13.3932 6.44545C13.4138 6.44023 13.433 6.43051 13.4494 6.41699C13.4658 6.40347 13.479 6.38648 13.4881 6.36725C13.4972 6.34801 13.5019 6.32701 13.5019 6.30574C13.5019 6.28448 13.4972 6.26347 13.4881 6.24424C13.479 6.22501 13.4658 6.20802 13.4494 6.1945C13.433 6.18098 13.4138 6.17126 13.3932 6.16604C13.3726 6.16081 13.3511 6.16022 13.3303 6.16429C13.2975 6.17069 13.268 6.18831 13.2467 6.21411C13.2255 6.23992 13.2139 6.27231 13.2139 6.30574C13.2139 6.33918 13.2255 6.37157 13.2467 6.39738C13.268 6.42318 13.2975 6.44079 13.3303 6.4472Z" stroke="black" stroke-width="0.142283"/>
<path d="M13.0317 6.40986C13.0699 6.40986 13.1065 6.39468 13.1335 6.36765C13.1605 6.34061 13.1757 6.30395 13.1757 6.26572C13.1757 6.22749 13.1605 6.19083 13.1335 6.1638C13.1065 6.13677 13.0699 6.12158 13.0317 6.12158C12.9935 6.12158 12.9569 6.13677 12.9299 6.1638C12.9029 6.19083 12.8877 6.22749 12.8877 6.26572C12.8877 6.30395 12.9029 6.34061 12.9299 6.36765C12.9569 6.39468 12.9935 6.40986 13.0317 6.40986Z" fill="white"/>
<path d="M13.0317 6.40983C13.0699 6.40983 13.1065 6.39464 13.1335 6.36762C13.1605 6.34059 13.1757 6.30393 13.1757 6.26571C13.1757 6.22748 13.1605 6.19082 13.1335 6.16379C13.1065 6.13677 13.0699 6.12158 13.0317 6.12158C12.9935 6.12158 12.9569 6.13677 12.9299 6.16379C12.9029 6.19082 12.8877 6.22748 12.8877 6.26571C12.8877 6.30393 12.9029 6.34059 12.9299 6.36762C12.9569 6.39464 12.9935 6.40983 13.0317 6.40983Z" stroke="black" stroke-width="0.142283"/>
<path d="M13.2231 7.5682C13.244 7.57228 13.2655 7.57168 13.2861 7.56646C13.3067 7.56124 13.3258 7.55152 13.3422 7.538C13.3586 7.52447 13.3719 7.50748 13.3809 7.48825C13.39 7.46901 13.3947 7.448 13.3947 7.42673C13.3947 7.40546 13.39 7.38446 13.3809 7.36522C13.3719 7.34598 13.3586 7.32899 13.3422 7.31547C13.3258 7.30195 13.3067 7.29223 13.2861 7.287C13.2655 7.28178 13.244 7.28119 13.2231 7.28526C13.1849 7.28526 13.1483 7.30045 13.1213 7.32748C13.0943 7.35451 13.0791 7.39118 13.0791 7.42941C13.0791 7.46763 13.0943 7.5043 13.1213 7.53133C13.1483 7.55836 13.1849 7.57355 13.2231 7.57355" fill="white"/>
<path d="M13.2231 7.56817C13.244 7.57224 13.2655 7.57165 13.2861 7.56642C13.3067 7.5612 13.3258 7.55148 13.3422 7.53796C13.3586 7.52444 13.3718 7.50745 13.3809 7.48822C13.39 7.46899 13.3947 7.44798 13.3947 7.42672C13.3947 7.40545 13.39 7.38445 13.3809 7.36521C13.3718 7.34598 13.3586 7.32899 13.3422 7.31547C13.3258 7.30195 13.3067 7.29223 13.2861 7.28701C13.2655 7.28178 13.244 7.28119 13.2231 7.28526C13.1849 7.28526 13.1483 7.30045 13.1213 7.32747C13.0943 7.3545 13.0791 7.39116 13.0791 7.42938C13.0791 7.46761 13.0943 7.50427 13.1213 7.5313C13.1483 7.55832 13.1849 7.57351 13.2231 7.57351V7.56817Z" stroke="black" stroke-width="0.142283"/>
<path d="M13.298 7.30122C13.3362 7.30122 13.3729 7.28603 13.3999 7.259C13.4269 7.23197 13.442 7.19531 13.442 7.15708C13.442 7.11885 13.4269 7.08219 13.3999 7.05516C13.3729 7.02813 13.3362 7.01294 13.298 7.01294C13.2653 7.01935 13.2357 7.03696 13.2145 7.06277C13.1933 7.08858 13.1816 7.12097 13.1816 7.15441C13.1816 7.18784 13.1933 7.22024 13.2145 7.24605C13.2357 7.27185 13.2653 7.28947 13.298 7.29588" fill="white"/>
<path d="M13.2981 7.30131C13.3362 7.30131 13.3729 7.28612 13.3999 7.25909C13.4269 7.23207 13.4421 7.19541 13.4421 7.15718C13.4421 7.11896 13.4269 7.0823 13.3999 7.05527C13.3729 7.02825 13.3362 7.01306 13.2981 7.01306C13.2653 7.01947 13.2357 7.03708 13.2145 7.06288C13.1933 7.08869 13.1816 7.12108 13.1816 7.15452C13.1816 7.18795 13.1933 7.22034 13.2145 7.24615C13.2357 7.27195 13.2653 7.28956 13.2981 7.29597V7.30131Z" stroke="black" stroke-width="0.142283"/>
<path d="M12.103 6.38848C12.1221 6.38882 12.1411 6.38535 12.1589 6.37826C12.1767 6.37118 12.1928 6.36061 12.2065 6.3472C12.2201 6.33378 12.231 6.31778 12.2384 6.30012C12.2458 6.28246 12.2496 6.26351 12.2496 6.24436C12.2496 6.22521 12.2458 6.20626 12.2384 6.1886C12.231 6.17094 12.2201 6.15494 12.2065 6.14152C12.1928 6.12811 12.1767 6.11755 12.1589 6.11046C12.1411 6.10337 12.1221 6.0999 12.103 6.10024C12.0648 6.10024 12.0282 6.11543 12.0012 6.14246C11.9742 6.16949 11.959 6.20616 11.959 6.24438C11.959 6.28261 11.9742 6.31928 12.0012 6.34631C12.0282 6.37334 12.0648 6.38848 12.103 6.38848Z" fill="white"/>
<path d="M12.103 6.38847C12.1412 6.38847 12.1778 6.37328 12.2048 6.34625C12.2318 6.31923 12.247 6.28257 12.247 6.24434C12.247 6.20612 12.2318 6.16946 12.2048 6.14243C12.1778 6.1154 12.1412 6.10022 12.103 6.10022C12.0648 6.10022 12.0282 6.1154 12.0012 6.14243C11.9742 6.16946 11.959 6.20612 11.959 6.24434C11.959 6.28257 11.9742 6.31923 12.0012 6.34625C12.0282 6.37328 12.0648 6.38847 12.103 6.38847Z" stroke="black" stroke-width="0.142283"/>
<path d="M11.4102 6.34577C11.4311 6.34986 11.4526 6.34928 11.4732 6.34407C11.4938 6.33886 11.513 6.32914 11.5294 6.31562C11.5459 6.3021 11.5591 6.28511 11.5682 6.26586C11.5772 6.24662 11.5819 6.2256 11.5819 6.20432C11.5819 6.18304 11.5772 6.16202 11.5682 6.14278C11.5591 6.12354 11.5459 6.10654 11.5294 6.09302C11.513 6.0795 11.4938 6.06978 11.4732 6.06457C11.4526 6.05936 11.4311 6.05878 11.4102 6.06288C11.3775 6.06931 11.348 6.08693 11.3268 6.11273C11.3055 6.13853 11.2939 6.17091 11.2939 6.20432C11.2939 6.23773 11.3055 6.27011 11.3268 6.29591C11.348 6.32171 11.3775 6.33934 11.4102 6.34577Z" fill="white"/>
<path d="M11.4104 6.34576C11.4312 6.34983 11.4527 6.34924 11.4733 6.34401C11.4939 6.33879 11.5131 6.32907 11.5295 6.31555C11.5459 6.30203 11.5591 6.28504 11.5682 6.26581C11.5772 6.24657 11.5819 6.22557 11.5819 6.2043C11.5819 6.18304 11.5772 6.16203 11.5682 6.1428C11.5591 6.12357 11.5459 6.10658 11.5295 6.09306C11.5131 6.07954 11.4939 6.06982 11.4733 6.0646C11.4527 6.05937 11.4312 6.05878 11.4104 6.06285C11.3776 6.06925 11.348 6.08687 11.3268 6.11267C11.3056 6.13848 11.2939 6.17087 11.2939 6.2043C11.2939 6.23774 11.3056 6.27013 11.3268 6.29593C11.348 6.32174 11.3776 6.33935 11.4104 6.34576Z" stroke="black" stroke-width="0.142283"/>
<path d="M11.2393 6.3404C11.2602 6.34449 11.2817 6.34391 11.3023 6.3387C11.3229 6.33349 11.3421 6.32377 11.3585 6.31025C11.375 6.29673 11.3882 6.27974 11.3973 6.26049C11.4063 6.24125 11.411 6.22023 11.411 6.19895C11.411 6.17767 11.4063 6.15665 11.3973 6.13741C11.3882 6.11816 11.375 6.10117 11.3585 6.08765C11.3421 6.07413 11.3229 6.06441 11.3023 6.0592C11.2817 6.05399 11.2602 6.05341 11.2393 6.0575C11.2066 6.06394 11.1771 6.08156 11.1559 6.10736C11.1346 6.13316 11.123 6.16554 11.123 6.19895C11.123 6.23236 11.1346 6.26474 11.1559 6.29054C11.1771 6.31634 11.2066 6.33396 11.2393 6.3404Z" fill="white"/>
<path d="M11.2395 6.34051C11.2603 6.34458 11.2818 6.34399 11.3024 6.33876C11.323 6.33354 11.3422 6.32382 11.3586 6.3103C11.375 6.29678 11.3882 6.27979 11.3973 6.26056C11.4063 6.24132 11.411 6.22032 11.411 6.19906C11.411 6.17779 11.4063 6.15678 11.3973 6.13755C11.3882 6.11832 11.375 6.10133 11.3586 6.08781C11.3422 6.07429 11.323 6.06457 11.3024 6.05935C11.2818 6.05412 11.2603 6.05353 11.2395 6.0576C11.2067 6.064 11.1771 6.08162 11.1559 6.10742C11.1347 6.13323 11.123 6.16562 11.123 6.19906C11.123 6.23249 11.1347 6.26488 11.1559 6.29069C11.1771 6.31649 11.2067 6.3341 11.2395 6.34051Z" stroke="black" stroke-width="0.142283"/>
<path d="M10.3322 7.57357C10.3531 7.57765 10.3746 7.57706 10.3952 7.57183C10.4158 7.56661 10.435 7.55689 10.4514 7.54337C10.4678 7.52984 10.481 7.51285 10.49 7.49362C10.4991 7.47438 10.5038 7.45338 10.5038 7.4321C10.5038 7.41083 10.4991 7.38983 10.49 7.37059C10.481 7.35135 10.4678 7.33437 10.4514 7.32084C10.435 7.30732 10.4158 7.2976 10.3952 7.29238C10.3746 7.28715 10.3531 7.28656 10.3322 7.29064C10.2994 7.29704 10.2699 7.31466 10.2487 7.34047C10.2274 7.36628 10.2158 7.39867 10.2158 7.4321C10.2158 7.46554 10.2274 7.49793 10.2487 7.52374C10.2699 7.54955 10.2994 7.56717 10.3322 7.57357Z" fill="white"/>
<path d="M10.3322 7.57354C10.3531 7.57761 10.3746 7.57702 10.3952 7.5718C10.4158 7.56657 10.435 7.55685 10.4514 7.54333C10.4678 7.52981 10.481 7.51282 10.49 7.49359C10.4991 7.47436 10.5038 7.45335 10.5038 7.43209C10.5038 7.41082 10.4991 7.38982 10.49 7.37058C10.481 7.35135 10.4678 7.33436 10.4514 7.32084C10.435 7.30732 10.4158 7.2976 10.3952 7.29238C10.3746 7.28716 10.3531 7.28656 10.3322 7.29063C10.2994 7.29704 10.2699 7.31465 10.2487 7.34046C10.2274 7.36626 10.2158 7.39865 10.2158 7.43209C10.2158 7.46552 10.2274 7.49791 10.2487 7.52372C10.2699 7.54952 10.2994 7.56714 10.3322 7.57354Z" stroke="black" stroke-width="0.142283"/>
<path d="M10.2895 7.23726C10.3277 7.23726 10.3643 7.22207 10.3913 7.19504C10.4183 7.16801 10.4335 7.13134 10.4335 7.09312C10.4335 7.05489 10.4183 7.01822 10.3913 6.99119C10.3643 6.96416 10.3277 6.94897 10.2895 6.94897C10.2513 6.94897 10.2147 6.96416 10.1877 6.99119C10.1607 7.01822 10.1455 7.05489 10.1455 7.09312C10.1455 7.13134 10.1607 7.16801 10.1877 7.19504C10.2147 7.22207 10.2513 7.23726 10.2895 7.23726Z" fill="white"/>
<path d="M10.2895 7.23722C10.3277 7.23722 10.3643 7.22204 10.3913 7.19501C10.4183 7.16798 10.4335 7.13132 10.4335 7.0931C10.4335 7.05487 10.4183 7.01822 10.3913 6.99119C10.3643 6.96416 10.3277 6.94897 10.2895 6.94897C10.2513 6.94897 10.2147 6.96416 10.1877 6.99119C10.1607 7.01822 10.1455 7.05487 10.1455 7.0931C10.1455 7.13132 10.1607 7.16798 10.1877 7.19501C10.2147 7.22204 10.2513 7.23722 10.2895 7.23722Z" stroke="black" stroke-width="0.142283"/>
<path d="M10.3966 6.90631C10.4174 6.91041 10.4389 6.90983 10.4595 6.90462C10.4802 6.89941 10.4994 6.88969 10.5158 6.87617C10.5322 6.86265 10.5454 6.84565 10.5545 6.82641C10.5636 6.80717 10.5683 6.78615 10.5683 6.76487C10.5683 6.74359 10.5636 6.72257 10.5545 6.70333C10.5454 6.68408 10.5322 6.66709 10.5158 6.65357C10.4994 6.64005 10.4802 6.63033 10.4595 6.62512C10.4389 6.61991 10.4174 6.61933 10.3966 6.62342C10.3638 6.62985 10.3343 6.64748 10.3131 6.67328C10.2919 6.69908 10.2803 6.73145 10.2803 6.76487C10.2803 6.79828 10.2919 6.83066 10.3131 6.85646C10.3343 6.88226 10.3638 6.89988 10.3966 6.90631Z" fill="white"/>
<path d="M10.3967 6.9063C10.4175 6.91038 10.439 6.90978 10.4596 6.90456C10.4802 6.89934 10.4994 6.88962 10.5158 6.87609C10.5322 6.86257 10.5454 6.84559 10.5545 6.82635C10.5636 6.80712 10.5683 6.78612 10.5683 6.76485C10.5683 6.74358 10.5636 6.72258 10.5545 6.70335C10.5454 6.68411 10.5322 6.66713 10.5158 6.65361C10.4994 6.64009 10.4802 6.63037 10.4596 6.62514C10.439 6.61992 10.4175 6.61932 10.3967 6.6234C10.3639 6.6298 10.3344 6.64741 10.3131 6.67322C10.2919 6.69902 10.2803 6.73142 10.2803 6.76485C10.2803 6.79828 10.2919 6.83068 10.3131 6.85648C10.3344 6.88229 10.3639 6.8999 10.3967 6.9063Z" stroke="black" stroke-width="0.142283"/>
<path d="M11.0207 6.37252C11.0416 6.3766 11.0631 6.37601 11.0837 6.37078C11.1043 6.36556 11.1234 6.35584 11.1398 6.34232C11.1562 6.32879 11.1695 6.3118 11.1785 6.29257C11.1876 6.27333 11.1923 6.25232 11.1923 6.23105C11.1923 6.20978 11.1876 6.18878 11.1785 6.16954C11.1695 6.1503 11.1562 6.13332 11.1398 6.11979C11.1234 6.10627 11.1043 6.09655 11.0837 6.09133C11.0631 6.0861 11.0416 6.08551 11.0207 6.08959C10.9879 6.09599 10.9584 6.11361 10.9371 6.13942C10.9159 6.16523 10.9043 6.19762 10.9043 6.23105C10.9043 6.26449 10.9159 6.29688 10.9371 6.32269C10.9584 6.3485 10.9879 6.36612 11.0207 6.37252Z" fill="white"/>
<path d="M11.0207 6.37249C11.0416 6.37657 11.0631 6.37597 11.0837 6.37075C11.1043 6.36552 11.1234 6.3558 11.1398 6.34228C11.1563 6.32876 11.1695 6.31177 11.1785 6.29254C11.1876 6.27331 11.1923 6.2523 11.1923 6.23104C11.1923 6.20977 11.1876 6.18877 11.1785 6.16953C11.1695 6.1503 11.1563 6.13331 11.1398 6.11979C11.1234 6.10627 11.1043 6.09655 11.0837 6.09133C11.0631 6.08611 11.0416 6.08551 11.0207 6.08958C10.9879 6.09599 10.9584 6.1136 10.9371 6.13941C10.9159 6.16521 10.9043 6.1976 10.9043 6.23104C10.9043 6.26447 10.9159 6.29686 10.9371 6.32267C10.9584 6.34847 10.9879 6.36609 11.0207 6.37249Z" stroke="black" stroke-width="0.142283"/>
<path d="M10.7803 6.46857C10.8012 6.47266 10.8227 6.47209 10.8433 6.46687C10.8639 6.46166 10.8831 6.45195 10.8996 6.43842C10.916 6.4249 10.9292 6.40791 10.9383 6.38867C10.9474 6.36942 10.9521 6.3484 10.9521 6.32712C10.9521 6.30584 10.9474 6.28483 10.9383 6.26558C10.9292 6.24634 10.916 6.22935 10.8996 6.21582C10.8831 6.2023 10.8639 6.19259 10.8433 6.18737C10.8227 6.18216 10.8012 6.18158 10.7803 6.18568C10.7476 6.19211 10.7181 6.20973 10.6969 6.23553C10.6757 6.26133 10.6641 6.29371 10.6641 6.32712C10.6641 6.36054 10.6757 6.39291 10.6969 6.41871C10.7181 6.44451 10.7476 6.46214 10.7803 6.46857Z" fill="white"/>
<path d="M10.7805 6.46856C10.8013 6.47263 10.8228 6.47204 10.8434 6.46682C10.864 6.46159 10.8832 6.45187 10.8996 6.43835C10.916 6.42483 10.9292 6.40784 10.9383 6.38861C10.9474 6.36938 10.9521 6.34837 10.9521 6.32711C10.9521 6.30584 10.9474 6.28484 10.9383 6.2656C10.9292 6.24637 10.916 6.22938 10.8996 6.21586C10.8832 6.20234 10.864 6.19262 10.8434 6.1874C10.8228 6.18217 10.8013 6.18158 10.7805 6.18565C10.7477 6.19206 10.7182 6.20967 10.6969 6.23548C10.6757 6.26128 10.6641 6.29367 10.6641 6.32711C10.6641 6.36054 10.6757 6.39293 10.6969 6.41874C10.7182 6.44454 10.7477 6.46216 10.7805 6.46856Z" stroke="black" stroke-width="0.142283"/>
<path d="M10.5567 6.66071C10.5776 6.6648 10.5991 6.66423 10.6197 6.65901C10.6403 6.6538 10.6595 6.64409 10.6759 6.63056C10.6923 6.61704 10.7056 6.60005 10.7146 6.5808C10.7237 6.56156 10.7284 6.54054 10.7284 6.51926C10.7284 6.49798 10.7237 6.47697 10.7146 6.45772C10.7056 6.43848 10.6923 6.42148 10.6759 6.40796C10.6595 6.39444 10.6403 6.38472 10.6197 6.37951C10.5991 6.3743 10.5776 6.37372 10.5567 6.37782C10.524 6.38425 10.4944 6.40187 10.4732 6.42767C10.452 6.45347 10.4404 6.48585 10.4404 6.51926C10.4404 6.55268 10.452 6.58505 10.4732 6.61085C10.4944 6.63665 10.524 6.65428 10.5567 6.66071Z" fill="white"/>
<path d="M10.5568 6.6607C10.5777 6.66477 10.5992 6.66418 10.6198 6.65895C10.6404 6.65373 10.6596 6.64401 10.676 6.63049C10.6924 6.61697 10.7056 6.59998 10.7147 6.58075C10.7237 6.56152 10.7284 6.54051 10.7284 6.51925C10.7284 6.49798 10.7237 6.47698 10.7147 6.45774C10.7056 6.43851 10.6924 6.42152 10.676 6.408C10.6596 6.39448 10.6404 6.38476 10.6198 6.37954C10.5992 6.37431 10.5777 6.37372 10.5568 6.37779C10.5241 6.3842 10.4945 6.40181 10.4733 6.42761C10.452 6.45342 10.4404 6.48581 10.4404 6.51925C10.4404 6.55268 10.452 6.58507 10.4733 6.61088C10.4945 6.63668 10.5241 6.6543 10.5568 6.6607Z" stroke="black" stroke-width="0.142283"/>
<path d="M11.794 6.57538C11.8149 6.57948 11.8364 6.5789 11.857 6.57369C11.8776 6.56847 11.8968 6.55876 11.9132 6.54524C11.9297 6.53171 11.9429 6.51472 11.9519 6.49548C11.961 6.47623 11.9657 6.45522 11.9657 6.43393C11.9657 6.41265 11.961 6.39164 11.9519 6.37239C11.9429 6.35315 11.9297 6.33616 11.9132 6.32263C11.8968 6.30911 11.8776 6.2994 11.857 6.29418C11.8364 6.28897 11.8149 6.28839 11.794 6.29249C11.7613 6.29892 11.7318 6.31654 11.7105 6.34235C11.6893 6.36815 11.6777 6.40052 11.6777 6.43393C11.6777 6.46735 11.6893 6.49972 11.7105 6.52553C11.7318 6.55133 11.7613 6.56895 11.794 6.57538Z" fill="white"/>
<path d="M11.7942 6.57537C11.815 6.57945 11.8365 6.57885 11.8571 6.57363C11.8777 6.5684 11.8969 6.55868 11.9133 6.54516C11.9297 6.53164 11.9429 6.51465 11.952 6.49542C11.961 6.47619 11.9657 6.45518 11.9657 6.43392C11.9657 6.41265 11.961 6.39165 11.952 6.37241C11.9429 6.35318 11.9297 6.33619 11.9133 6.32267C11.8969 6.30915 11.8777 6.29943 11.8571 6.29421C11.8365 6.28899 11.815 6.28839 11.7942 6.29246C11.7614 6.29887 11.7318 6.31648 11.7106 6.34229C11.6893 6.36809 11.6777 6.40049 11.6777 6.43392C11.6777 6.46735 11.6893 6.49974 11.7106 6.52555C11.7318 6.55135 11.7614 6.56897 11.7942 6.57537Z" stroke="black" stroke-width="0.142283"/>
<path d="M11.7944 6.84758C11.8135 6.84793 11.8325 6.84446 11.8503 6.83737C11.8681 6.83028 11.8842 6.81972 11.8979 6.8063C11.9115 6.79289 11.9224 6.77688 11.9298 6.75923C11.9372 6.74157 11.941 6.72261 11.941 6.70347C11.941 6.68432 11.9372 6.66536 11.9298 6.64771C11.9224 6.63005 11.9115 6.61405 11.8979 6.60063C11.8842 6.58721 11.8681 6.57665 11.8503 6.56956C11.8325 6.56248 11.8135 6.559 11.7944 6.55935C11.7562 6.55935 11.7196 6.57454 11.6926 6.60157C11.6656 6.6286 11.6504 6.66526 11.6504 6.70349C11.6504 6.74172 11.6656 6.77838 11.6926 6.80541C11.7196 6.83244 11.7562 6.84758 11.7944 6.84758Z" fill="white"/>
<path d="M11.7944 6.84757C11.8326 6.84757 11.8692 6.83239 11.8962 6.80536C11.9232 6.77833 11.9384 6.74167 11.9384 6.70345C11.9384 6.66523 11.9232 6.62857 11.8962 6.60154C11.8692 6.57451 11.8326 6.55933 11.7944 6.55933C11.7562 6.55933 11.7196 6.57451 11.6926 6.60154C11.6656 6.62857 11.6504 6.66523 11.6504 6.70345C11.6504 6.74167 11.6656 6.77833 11.6926 6.80536C11.7196 6.83239 11.7562 6.84757 11.7944 6.84757Z" stroke="black" stroke-width="0.142283"/>
<path d="M11.7944 7.13582C11.8326 7.13582 11.8692 7.12063 11.8962 7.0936C11.9232 7.06657 11.9384 7.0299 11.9384 6.99167C11.9384 6.95345 11.9232 6.91678 11.8962 6.88975C11.8692 6.86272 11.8326 6.84753 11.7944 6.84753C11.7562 6.84753 11.7196 6.86272 11.6926 6.88975C11.6656 6.91678 11.6504 6.95345 11.6504 6.99167C11.6504 7.0299 11.6656 7.06657 11.6926 7.0936C11.7196 7.12063 11.7562 7.13582 11.7944 7.13582Z" fill="white"/>
<path d="M11.7944 7.13578C11.8326 7.13578 11.8692 7.1206 11.8962 7.09357C11.9232 7.06654 11.9384 7.02988 11.9384 6.99166C11.9384 6.95343 11.9232 6.91678 11.8962 6.88975C11.8692 6.86272 11.8326 6.84753 11.7944 6.84753C11.7562 6.84753 11.7196 6.86272 11.6926 6.88975C11.6656 6.91678 11.6504 6.95343 11.6504 6.99166C11.6504 7.02988 11.6656 7.06654 11.6926 7.09357C11.7196 7.1206 11.7562 7.13578 11.7944 7.13578Z" stroke="black" stroke-width="0.142283"/>
<path d="M12.2846 6.35112C12.3038 6.35147 12.3228 6.348 12.3405 6.34091C12.3583 6.33382 12.3745 6.32326 12.3881 6.30984C12.4018 6.29643 12.4126 6.28042 12.42 6.26277C12.4274 6.24511 12.4312 6.22615 12.4312 6.20701C12.4312 6.18786 12.4274 6.1689 12.42 6.15125C12.4126 6.13359 12.4018 6.11759 12.3881 6.10417C12.3745 6.09075 12.3583 6.08019 12.3405 6.0731C12.3228 6.06602 12.3038 6.06254 12.2846 6.06289C12.2464 6.06289 12.2098 6.07808 12.1828 6.10511C12.1558 6.13214 12.1406 6.1688 12.1406 6.20703C12.1406 6.24526 12.1558 6.28192 12.1828 6.30895C12.2098 6.33598 12.2464 6.35112 12.2846 6.35112Z" fill="white"/>
<path d="M12.2846 6.35111C12.3228 6.35111 12.3594 6.33593 12.3864 6.3089C12.4135 6.28187 12.4286 6.24521 12.4286 6.20699C12.4286 6.16877 12.4135 6.13211 12.3864 6.10508C12.3594 6.07805 12.3228 6.06287 12.2846 6.06287C12.2464 6.06287 12.2098 6.07805 12.1828 6.10508C12.1558 6.13211 12.1406 6.16877 12.1406 6.20699C12.1406 6.24521 12.1558 6.28187 12.1828 6.3089C12.2098 6.33593 12.2464 6.35111 12.2846 6.35111Z" stroke="black" stroke-width="0.142283"/>
<path d="M12.4766 6.30844C12.4975 6.31251 12.519 6.31192 12.5396 6.3067C12.5602 6.30147 12.5794 6.29175 12.5958 6.27823C12.6122 6.26471 12.6254 6.24772 12.6345 6.22848C12.6435 6.20925 12.6482 6.18824 12.6482 6.16697C12.6482 6.1457 12.6435 6.12469 12.6345 6.10545C12.6254 6.08622 12.6122 6.06923 12.5958 6.05571C12.5794 6.04218 12.5602 6.03246 12.5396 6.02724C12.519 6.02202 12.4975 6.02142 12.4766 6.0255C12.4439 6.03193 12.4144 6.04955 12.3932 6.07535C12.3719 6.10115 12.3604 6.13353 12.3604 6.16694C12.3604 6.20036 12.3719 6.23273 12.3932 6.25853C12.4144 6.28434 12.4439 6.30196 12.4766 6.30839" fill="white"/>
<path d="M12.4768 6.3084C12.4976 6.31248 12.5191 6.31188 12.5397 6.30666C12.5603 6.30144 12.5795 6.29172 12.5959 6.27819C12.6123 6.26467 12.6255 6.24769 12.6346 6.22845C12.6436 6.20922 12.6484 6.18822 12.6484 6.16695C12.6484 6.14568 12.6436 6.12468 12.6346 6.10545C12.6255 6.08621 12.6123 6.06923 12.5959 6.05571C12.5795 6.04218 12.5603 6.03246 12.5397 6.02724C12.5191 6.02202 12.4976 6.02142 12.4768 6.0255C12.444 6.0319 12.4144 6.04951 12.3932 6.07532C12.372 6.10112 12.3604 6.13352 12.3604 6.16695C12.3604 6.20038 12.372 6.23278 12.3932 6.25858C12.4144 6.28439 12.444 6.302 12.4768 6.3084Z" stroke="black" stroke-width="0.142283"/>
<path d="M12.7006 6.3404C12.7215 6.34449 12.743 6.34391 12.7636 6.3387C12.7842 6.33349 12.8034 6.32377 12.8199 6.31025C12.8363 6.29673 12.8495 6.27974 12.8586 6.26049C12.8677 6.24125 12.8724 6.22023 12.8724 6.19895C12.8724 6.17767 12.8677 6.15665 12.8586 6.13741C12.8495 6.11816 12.8363 6.10117 12.8199 6.08765C12.8034 6.07413 12.7842 6.06441 12.7636 6.0592C12.743 6.05399 12.7215 6.05341 12.7006 6.0575C12.6624 6.0575 12.6258 6.07269 12.5988 6.09972C12.5718 6.12675 12.5566 6.16342 12.5566 6.20165C12.5566 6.23987 12.5718 6.27654 12.5988 6.30357C12.6258 6.3306 12.6624 6.34579 12.7006 6.34579" fill="white"/>
<path d="M12.7006 6.34051C12.7215 6.34458 12.743 6.34399 12.7636 6.33876C12.7842 6.33354 12.8034 6.32382 12.8198 6.3103C12.8362 6.29678 12.8494 6.27979 12.8585 6.26056C12.8675 6.24132 12.8722 6.22032 12.8722 6.19906C12.8722 6.17779 12.8675 6.15678 12.8585 6.13755C12.8494 6.11832 12.8362 6.10133 12.8198 6.08781C12.8034 6.07429 12.7842 6.06457 12.7636 6.05935C12.743 6.05412 12.7215 6.05353 12.7006 6.0576C12.6625 6.0576 12.6258 6.07279 12.5988 6.09981C12.5718 6.12684 12.5566 6.1635 12.5566 6.20172C12.5566 6.23995 12.5718 6.27661 12.5988 6.30363C12.6258 6.33066 12.6625 6.34585 12.7006 6.34585V6.34051Z" stroke="black" stroke-width="0.142283"/>
<path d="M13.2501 6.94892C13.2709 6.95301 13.2924 6.95243 13.3131 6.94722C13.3337 6.94201 13.3529 6.93229 13.3693 6.91877C13.3857 6.90525 13.3989 6.88826 13.408 6.86901C13.4171 6.84977 13.4218 6.82875 13.4218 6.80747C13.4218 6.78619 13.4171 6.76517 13.408 6.74593C13.3989 6.72669 13.3857 6.70969 13.3693 6.69617C13.3529 6.68265 13.3337 6.67293 13.3131 6.66772C13.2924 6.66251 13.2709 6.66193 13.2501 6.66603C13.2173 6.67246 13.1878 6.69008 13.1666 6.71588C13.1454 6.74168 13.1338 6.77406 13.1338 6.80747C13.1338 6.84088 13.1454 6.87326 13.1666 6.89906C13.1878 6.92486 13.2173 6.94248 13.2501 6.94892Z" fill="white"/>
<path d="M13.2502 6.94903C13.2711 6.9531 13.2926 6.95251 13.3132 6.94728C13.3338 6.94206 13.3529 6.93234 13.3693 6.91882C13.3857 6.9053 13.399 6.88831 13.408 6.86908C13.4171 6.84985 13.4218 6.82884 13.4218 6.80758C13.4218 6.78631 13.4171 6.7653 13.408 6.74607C13.399 6.72684 13.3857 6.70985 13.3693 6.69633C13.3529 6.68281 13.3338 6.67309 13.3132 6.66787C13.2926 6.66264 13.2711 6.66205 13.2502 6.66612C13.2174 6.67253 13.1879 6.69014 13.1666 6.71594C13.1454 6.74175 13.1338 6.77414 13.1338 6.80758C13.1338 6.84101 13.1454 6.8734 13.1666 6.89921C13.1879 6.92501 13.2174 6.94262 13.2502 6.94903Z" stroke="black" stroke-width="0.142283"/>
<path d="M12.9194 6.47395C12.9576 6.47395 12.9942 6.45876 13.0212 6.43173C13.0482 6.4047 13.0634 6.36804 13.0634 6.32981C13.0634 6.29158 13.0482 6.25492 13.0212 6.22789C12.9942 6.20085 12.9576 6.18567 12.9194 6.18567C12.8812 6.18567 12.8446 6.20085 12.8176 6.22789C12.7906 6.25492 12.7754 6.29158 12.7754 6.32981C12.7754 6.36804 12.7906 6.4047 12.8176 6.43173C12.8446 6.45876 12.8812 6.47395 12.9194 6.47395Z" fill="white"/>
<path d="M12.9194 6.47391C12.9576 6.47391 12.9942 6.45873 13.0212 6.4317C13.0482 6.40467 13.0634 6.36802 13.0634 6.32979C13.0634 6.29157 13.0482 6.25491 13.0212 6.22788C12.9942 6.20085 12.9576 6.18567 12.9194 6.18567C12.8812 6.18567 12.8446 6.20085 12.8176 6.22788C12.7906 6.25491 12.7754 6.29157 12.7754 6.32979C12.7754 6.36802 12.7906 6.40467 12.8176 6.4317C12.8446 6.45873 12.8812 6.47391 12.9194 6.47391Z" stroke="black" stroke-width="0.142283"/>
<path d="M13.1223 6.6661C13.1431 6.67018 13.1646 6.66958 13.1852 6.66436C13.2058 6.65914 13.225 6.64942 13.2414 6.6359C13.2578 6.62237 13.271 6.60538 13.2801 6.58615C13.2892 6.56691 13.2939 6.5459 13.2939 6.52463C13.2939 6.50336 13.2892 6.48236 13.2801 6.46312C13.271 6.44388 13.2578 6.42689 13.2414 6.41337C13.225 6.39985 13.2058 6.39013 13.1852 6.38491C13.1646 6.37968 13.1431 6.37909 13.1223 6.38317C13.0895 6.38957 13.0599 6.40719 13.0387 6.433C13.0175 6.4588 13.0059 6.4912 13.0059 6.52463C13.0059 6.55807 13.0175 6.59046 13.0387 6.61627C13.0599 6.64208 13.0895 6.65969 13.1223 6.6661Z" fill="white"/>
<path d="M13.1223 6.66607C13.1431 6.67014 13.1646 6.66955 13.1852 6.66432C13.2058 6.6591 13.225 6.64938 13.2414 6.63586C13.2578 6.62234 13.271 6.60535 13.2801 6.58612C13.2892 6.56689 13.2939 6.54588 13.2939 6.52462C13.2939 6.50335 13.2892 6.48235 13.2801 6.46311C13.271 6.44388 13.2578 6.42689 13.2414 6.41337C13.225 6.39985 13.2058 6.39013 13.1852 6.38491C13.1646 6.37968 13.1431 6.37909 13.1223 6.38316C13.0895 6.38957 13.0599 6.40718 13.0387 6.43298C13.0175 6.45879 13.0059 6.49118 13.0059 6.52462C13.0059 6.55805 13.0175 6.59044 13.0387 6.61625C13.0599 6.64205 13.0895 6.65967 13.1223 6.66607Z" stroke="black" stroke-width="0.142283"/>
<path d="M11.7835 8.7959L11.4102 8.98809L11.7462 9.2016L12.1462 8.99873L11.7835 8.7959Z" fill="white"/>
<path d="M11.7835 8.7959L11.4102 8.98806L11.7462 9.20158L12.1462 8.99874L11.7835 8.7959Z" stroke="black" stroke-width="0.0711416"/>
<path d="M10.9615 8.83862L10.4015 8.92403C10.4015 8.92403 10.3909 9.22825 10.4175 9.29767L10.9989 9.22295C10.9989 9.22295 11.0255 8.94006 10.9615 8.83862Z" fill="white"/>
<path d="M10.9615 8.83862L10.4015 8.92403C10.4015 8.92403 10.3909 9.22829 10.4175 9.29768L10.9989 9.22295C10.9989 9.22295 11.0255 8.94004 10.9615 8.83862Z" stroke="black" stroke-width="0.0711416"/>
<path d="M10.9033 8.94531C10.9033 8.94531 10.5619 8.97738 10.4766 9.00939V9.21222C10.4766 9.21222 10.7059 9.17486 10.9086 9.15883L10.9033 8.94531Z" fill="#058E6E" fill-opacity="0.9"/>
<path d="M10.9032 8.94531C10.9032 8.94531 10.5619 8.97734 10.4766 9.00937V9.21221C10.4766 9.21221 10.7059 9.17484 10.9086 9.15883L10.9032 8.94531Z" stroke="black" stroke-width="0.0711416"/>
<path d="M12.5673 8.84924L13.1326 8.93999C13.1326 8.93999 13.138 9.24421 13.1114 9.31359L12.5354 9.23892C12.5354 9.23892 12.5086 8.95598 12.5673 8.85454" fill="white"/>
<path d="M12.5673 8.84924L13.1327 8.93999C13.1327 8.93999 13.138 9.24425 13.1113 9.31364L12.5353 9.23891C12.5353 9.23891 12.5087 8.956 12.5673 8.85458V8.84924Z" stroke="black" stroke-width="0.0711416"/>
<path d="M12.6366 8.9613C12.6366 8.9613 12.9726 8.99332 13.058 9.02538L13.0526 9.22821C13.0526 9.22821 12.8286 9.19085 12.626 9.17482L12.6313 8.9613" fill="#058E6E" fill-opacity="0.9"/>
<path d="M12.6366 8.9613C12.6366 8.9613 12.9726 8.99333 13.058 9.02536L13.0526 9.2282C13.0526 9.2282 12.8286 9.19083 12.626 9.17482L12.6313 8.9613" stroke="black" stroke-width="0.0711416"/>
<path d="M9.55371 9.10555C9.55371 9.10555 11.527 8.37425 14.0444 9.1696M9.63371 9.52724C9.63371 9.52724 11.5484 8.81196 13.9004 9.55927M9.64438 9.07886L10.0284 9.19095L9.76171 9.4792" stroke="black" stroke-width="0.0711416"/>
<path d="M9.64972 9.42576L9.87369 9.23896L9.62305 9.19092C9.62305 9.19092 9.65502 9.22828 9.64972 9.26564V9.42576Z" fill="#FF0000"/>
<path d="M14.0017 9.15356L13.5911 9.2283L13.8684 9.54857M9.64971 9.4258L9.87371 9.23897L9.62305 9.19093C9.62305 9.19093 9.65505 9.2283 9.64971 9.26566V9.4258Z" stroke="black" stroke-width="0.0711416"/>
<path d="M13.8793 9.43638L13.7246 9.27626L13.9486 9.25488C13.9486 9.25488 13.8846 9.29224 13.8846 9.3296C13.8846 9.36166 13.8953 9.40971 13.8846 9.43638" fill="#FF0000"/>
<path d="M13.8794 9.43649L13.7247 9.27635L13.9487 9.255C13.9487 9.255 13.8847 9.29236 13.8847 9.32973C13.8847 9.36176 13.8954 9.4098 13.8847 9.43649H13.8794ZM10.146 9.10554C10.178 9.10554 10.21 9.08419 10.21 9.05216C10.21 9.03081 10.178 9.00412 10.146 9.00412C10.1087 9.00412 10.082 9.03081 10.082 9.0575C10.082 9.08419 10.1087 9.11088 10.146 9.11088V9.10554ZM11.2447 8.98277C11.282 8.98277 11.3087 8.96142 11.3087 8.92939C11.3087 8.9027 11.282 8.88135 11.2447 8.88135C11.2074 8.88135 11.1807 8.9027 11.1807 8.93473C11.1807 8.96142 11.2074 8.98277 11.2447 8.98277ZM11.2447 9.15892C11.282 9.15892 11.3087 9.13757 11.3087 9.11088C11.3087 9.08419 11.282 9.0575 11.2447 9.0575C11.2074 9.0575 11.1807 9.08419 11.1807 9.11088C11.1807 9.13757 11.2074 9.16426 11.2447 9.16426V9.15892ZM12.3274 8.99344C12.3594 8.99344 12.3914 8.96675 12.3914 8.94006C12.3914 8.91337 12.3594 8.88669 12.3274 8.88669C12.29 8.88669 12.2634 8.91337 12.2634 8.94006C12.2634 8.96675 12.29 8.99344 12.3274 8.99344ZM13.3994 9.19094C13.4367 9.19094 13.4634 9.16426 13.4634 9.13757C13.4634 9.11088 13.4367 9.08419 13.3994 9.08419C13.362 9.08419 13.3354 9.11088 13.3354 9.13757C13.3354 9.16426 13.362 9.19094 13.3994 9.19094ZM13.3834 9.32973C13.4154 9.32973 13.4474 9.30838 13.4474 9.27635C13.4474 9.255 13.4154 9.22831 13.3834 9.22831C13.346 9.22831 13.3194 9.255 13.3194 9.28169C13.3194 9.30838 13.346 9.33507 13.3834 9.33507V9.32973ZM12.3274 9.16959C12.3594 9.16959 12.3914 9.14824 12.3914 9.11621C12.3914 9.08953 12.3594 9.06817 12.3274 9.06817C12.29 9.06817 12.2634 9.08953 12.2634 9.12155C12.2634 9.14824 12.29 9.17493 12.3274 9.17493V9.16959ZM10.194 9.32973C10.2314 9.32973 10.2634 9.30838 10.2634 9.27635C10.2634 9.255 10.2314 9.22831 10.1994 9.22831C10.162 9.22831 10.1354 9.255 10.1354 9.28169C10.1354 9.30838 10.162 9.33507 10.1994 9.33507L10.194 9.32973Z" stroke="black" stroke-width="0.0711416"/>
<path d="M9.52194 8.52893C9.52194 8.52893 9.52729 8.9133 9.77793 8.85986C10.0286 8.80643 10.0019 8.49157 10.0179 8.47554C10.0393 8.45955 10.0659 8.45955 10.0659 8.45955C10.0659 8.45955 10.0979 8.76377 10.3326 8.72646C10.5673 8.68905 10.5566 8.31541 10.5299 8.25138L10.5833 8.23535C10.5833 8.23535 10.6739 8.67307 10.9406 8.60899C11.2073 8.54496 11.1806 8.26736 11.1806 8.26736H11.2019C11.2019 8.26736 11.2606 8.56629 11.4793 8.54496C11.6926 8.52893 11.7352 8.45955 11.7086 8.16058L11.8526 8.13391C11.8526 8.13391 11.7993 8.56094 12.0606 8.56094C12.3166 8.54496 12.3273 8.34213 12.3433 8.30472H12.3859C12.3859 8.30472 12.3966 8.60899 12.6153 8.60899C12.8286 8.60899 12.8713 8.35277 12.8713 8.25133L13.0846 8.26202C13.0846 8.26202 12.8606 8.66238 13.1859 8.71577C13.5059 8.76916 13.5166 8.45955 13.5166 8.45955H13.5806C13.5806 8.45955 13.57 8.85986 13.7459 8.87055C13.9273 8.8759 14.0339 8.81716 14.05 8.51824L14.1513 8.55565C14.1513 8.55565 14.066 9.03602 13.73 8.95061C13.5539 8.90257 13.4953 8.69974 13.5059 8.6464C13.5059 8.6464 13.3833 8.87055 13.138 8.79583C12.898 8.72646 12.9246 8.55565 12.9246 8.50225C12.9246 8.50225 12.7806 8.76916 12.578 8.71043C12.3966 8.65704 12.3273 8.59301 12.3273 8.4649C12.3273 8.4649 12.2366 8.67302 12.0606 8.66238C11.8793 8.65704 11.7939 8.54496 11.7833 8.44886C11.7833 8.44886 11.7459 8.64105 11.5059 8.65704C11.3459 8.66238 11.2553 8.58232 11.2179 8.47554C11.2179 8.47554 11.1699 8.66772 10.9406 8.69974C10.7966 8.71577 10.6526 8.63571 10.6206 8.50225C10.6206 8.50225 10.5833 8.76382 10.3539 8.79583C10.1193 8.83319 10.0659 8.67302 10.0659 8.67302C10.0659 8.67302 10.0179 8.8759 9.83127 8.92394C9.64461 8.96665 9.52194 8.88658 9.47394 8.69974C9.43129 8.51294 9.44727 8.43283 9.44727 8.43283L9.52194 8.52893Z" fill="#FFCC00"/>
<path d="M9.52194 8.52904C9.52194 8.52904 9.52727 8.91336 9.77794 8.85999C10.0286 8.80661 10.0019 8.49167 10.0179 8.47566C10.0393 8.45964 10.0659 8.45964 10.0659 8.45964C10.0659 8.45964 10.0979 8.7639 10.3326 8.72654C10.5673 8.68917 10.5566 8.31552 10.5299 8.25147L10.5833 8.23545C10.5833 8.23545 10.6739 8.67316 10.9406 8.60911C11.2073 8.54505 11.1806 8.26748 11.1806 8.26748H11.2019C11.2019 8.26748 11.2606 8.5664 11.4793 8.54505C11.6926 8.52904 11.7353 8.45964 11.7086 8.16072L11.8526 8.13403C11.8526 8.13403 11.7993 8.56106 12.0606 8.56106C12.3166 8.54505 12.3273 8.34221 12.3433 8.30485H12.3859C12.3859 8.30485 12.3966 8.60911 12.6153 8.60911C12.8286 8.60911 12.8713 8.35289 12.8713 8.25147L13.0846 8.26214C13.0846 8.26214 12.8606 8.66248 13.1859 8.71586C13.5059 8.76924 13.5166 8.45964 13.5166 8.45964H13.5806C13.5806 8.45964 13.5699 8.85999 13.7459 8.87066C13.9273 8.876 14.034 8.81728 14.05 8.51836L14.1513 8.55573C14.1513 8.55573 14.066 9.03614 13.7299 8.95073C13.5539 8.90269 13.4953 8.69985 13.5059 8.64647C13.5059 8.64647 13.3833 8.87066 13.1379 8.79593C12.8979 8.72654 12.9246 8.55573 12.9246 8.50235C12.9246 8.50235 12.7806 8.76924 12.5779 8.71052C12.3966 8.65715 12.3273 8.59309 12.3273 8.46498C12.3273 8.46498 12.2366 8.67316 12.0606 8.66248C11.8793 8.65715 11.7939 8.54505 11.7833 8.44897C11.7833 8.44897 11.7459 8.64113 11.5059 8.65715C11.3459 8.66248 11.2553 8.58242 11.2179 8.47566C11.2179 8.47566 11.1699 8.66782 10.9406 8.69985C10.7966 8.71586 10.6526 8.63579 10.6206 8.50235C10.6206 8.50235 10.5833 8.7639 10.3539 8.79593C10.1193 8.8333 10.0659 8.67316 10.0659 8.67316C10.0659 8.67316 10.0179 8.876 9.83128 8.92404C9.64461 8.96674 9.52194 8.88668 9.47394 8.69985C9.43127 8.51302 9.44727 8.43295 9.44727 8.43295L9.52194 8.52904Z" fill="#BCAC0B" stroke="black" stroke-width="0.0995982"/>
<path d="M10.0395 8.54504C10.0529 8.54836 10.0668 8.54859 10.0803 8.54571C10.0937 8.54284 10.1064 8.53693 10.1172 8.52844C10.1281 8.51995 10.1368 8.50911 10.1429 8.49672C10.1489 8.48434 10.152 8.47074 10.152 8.45696C10.152 8.44318 10.1489 8.42959 10.1429 8.4172C10.1368 8.40482 10.1281 8.39397 10.1172 8.38548C10.1064 8.37699 10.0937 8.37108 10.0803 8.36821C10.0668 8.36533 10.0529 8.36556 10.0395 8.36888C10.0199 8.37376 10.0024 8.38509 9.98995 8.40105C9.97748 8.41701 9.9707 8.4367 9.9707 8.45696C9.9707 8.47723 9.97748 8.49691 9.98995 8.51287C10.0024 8.52883 10.0199 8.54016 10.0395 8.54504Z" fill="#FFCC00"/>
<path d="M10.0395 8.54503C10.0529 8.54835 10.0668 8.54858 10.0803 8.5457C10.0938 8.54282 10.1064 8.53692 10.1172 8.52843C10.1281 8.51994 10.1368 8.50909 10.1429 8.49671C10.1489 8.48433 10.152 8.47073 10.152 8.45695C10.152 8.44318 10.1489 8.42958 10.1429 8.4172C10.1368 8.40482 10.1281 8.39397 10.1172 8.38548C10.1064 8.37699 10.0938 8.37109 10.0803 8.36821C10.0668 8.36533 10.0529 8.36556 10.0395 8.36888C10.0199 8.37376 10.0024 8.38508 9.98996 8.40104C9.97748 8.41701 9.9707 8.43669 9.9707 8.45695C9.9707 8.47722 9.97748 8.4969 9.98996 8.51287C10.0024 8.52883 10.0199 8.54015 10.0395 8.54503Z" fill="#BCAC0B" stroke="black" stroke-width="0.0995982"/>
<path d="M11.2016 8.35815C11.215 8.36147 11.2289 8.3617 11.2424 8.35882C11.2559 8.35595 11.2685 8.35004 11.2793 8.34155C11.2902 8.33306 11.2989 8.32222 11.305 8.30983C11.311 8.29745 11.3141 8.28385 11.3141 8.27007C11.3141 8.25629 11.311 8.2427 11.305 8.23031C11.2989 8.21793 11.2902 8.20708 11.2793 8.19859C11.2685 8.1901 11.2559 8.1842 11.2424 8.18132C11.2289 8.17844 11.215 8.17867 11.2016 8.18199C11.182 8.18687 11.1645 8.1982 11.1521 8.21416C11.1396 8.23012 11.1328 8.24981 11.1328 8.27007C11.1328 8.29034 11.1396 8.31002 11.1521 8.32598C11.1645 8.34194 11.182 8.35327 11.2016 8.35815Z" fill="#FFCC00"/>
<path d="M11.2017 8.35814C11.215 8.36146 11.2289 8.36169 11.2424 8.35881C11.2559 8.35593 11.2685 8.35003 11.2793 8.34154C11.2902 8.33305 11.299 8.3222 11.305 8.30982C11.311 8.29744 11.3141 8.28384 11.3141 8.27007C11.3141 8.25629 11.311 8.24269 11.305 8.23031C11.299 8.21793 11.2902 8.20708 11.2793 8.19859C11.2685 8.1901 11.2559 8.1842 11.2424 8.18132C11.2289 8.17845 11.215 8.17867 11.2017 8.18199C11.182 8.18687 11.1645 8.19819 11.1521 8.21415C11.1396 8.23012 11.1328 8.2498 11.1328 8.27007C11.1328 8.29033 11.1396 8.31001 11.1521 8.32598C11.1645 8.34194 11.182 8.35326 11.2017 8.35814Z" fill="#BCAC0B" stroke="black" stroke-width="0.0995982"/>
<path d="M12.3862 8.3955C12.3996 8.39882 12.4135 8.39905 12.427 8.39618C12.4404 8.3933 12.4531 8.38739 12.4639 8.37891C12.4747 8.37042 12.4835 8.35957 12.4895 8.34718C12.4956 8.3348 12.4987 8.3212 12.4987 8.30743C12.4987 8.29365 12.4956 8.28005 12.4895 8.26766C12.4835 8.25528 12.4747 8.24443 12.4639 8.23594C12.4531 8.22745 12.4404 8.22155 12.427 8.21867C12.4135 8.2158 12.3996 8.21603 12.3862 8.21935C12.3666 8.22423 12.3491 8.23555 12.3366 8.25152C12.3242 8.26748 12.3174 8.28716 12.3174 8.30743C12.3174 8.32769 12.3242 8.34737 12.3366 8.36334C12.3491 8.3793 12.3666 8.39062 12.3862 8.3955Z" fill="#FFCC00"/>
<path d="M12.3862 8.39549C12.3996 8.39881 12.4135 8.39904 12.427 8.39616C12.4404 8.39329 12.4531 8.38738 12.4639 8.37889C12.4748 8.3704 12.4835 8.35956 12.4896 8.34717C12.4956 8.33479 12.4987 8.3212 12.4987 8.30742C12.4987 8.29364 12.4956 8.28005 12.4896 8.26766C12.4835 8.25528 12.4748 8.24443 12.4639 8.23595C12.4531 8.22746 12.4404 8.22155 12.427 8.21868C12.4135 8.2158 12.3996 8.21603 12.3862 8.21934C12.3666 8.22422 12.3491 8.23555 12.3366 8.25151C12.3242 8.26747 12.3174 8.28715 12.3174 8.30742C12.3174 8.32769 12.3242 8.34737 12.3366 8.36333C12.3491 8.37929 12.3666 8.39062 12.3862 8.39549Z" fill="#BCAC0B" stroke="black" stroke-width="0.0995982"/>
<path d="M13.5542 8.58239C13.5675 8.58571 13.5815 8.58594 13.5949 8.58307C13.6084 8.58019 13.621 8.57428 13.6319 8.5658C13.6427 8.55731 13.6515 8.54646 13.6575 8.53407C13.6635 8.52169 13.6667 8.50809 13.6667 8.49431C13.6667 8.48054 13.6635 8.46694 13.6575 8.45455C13.6515 8.44217 13.6427 8.43132 13.6319 8.42283C13.621 8.41434 13.6084 8.40844 13.5949 8.40556C13.5815 8.40269 13.5675 8.40292 13.5542 8.40624C13.5345 8.41112 13.5171 8.42244 13.5046 8.4384C13.4921 8.45437 13.4854 8.47405 13.4854 8.49431C13.4854 8.51458 13.4921 8.53426 13.5046 8.55022C13.5171 8.56619 13.5345 8.57751 13.5542 8.58239Z" fill="#FFCC00"/>
<path d="M13.5542 8.58238C13.5676 8.5857 13.5815 8.58593 13.5949 8.58305C13.6084 8.58018 13.621 8.57427 13.6319 8.56578C13.6427 8.55729 13.6515 8.54645 13.6575 8.53406C13.6636 8.52168 13.6667 8.50809 13.6667 8.49431C13.6667 8.48053 13.6636 8.46694 13.6575 8.45455C13.6515 8.44217 13.6427 8.43132 13.6319 8.42284C13.621 8.41435 13.6084 8.40844 13.5949 8.40556C13.5815 8.40269 13.5676 8.40292 13.5542 8.40623C13.5345 8.41111 13.5171 8.42244 13.5046 8.4384C13.4921 8.45436 13.4854 8.47404 13.4854 8.49431C13.4854 8.51458 13.4921 8.53426 13.5046 8.55022C13.5171 8.56618 13.5345 8.5775 13.5542 8.58238Z" fill="#BCAC0B" stroke="black" stroke-width="0.0995982"/>
<path d="M11.7405 8.26205H11.6605C11.6392 8.34216 11.4685 8.39016 11.4685 8.39016C11.4472 8.32613 11.4952 8.23538 11.4952 8.23538C11.2979 8.18199 11.2979 8.11796 11.2979 8.11796C11.3245 8.04858 11.5112 8.0379 11.5112 8.0379C11.4578 7.97916 11.4685 7.87772 11.4685 7.87772C11.5912 7.88841 11.6925 8.01118 11.6925 8.01118C11.6925 8.01118 11.5699 7.94715 11.5859 7.73363C11.5859 7.73363 11.6498 7.73363 11.6925 7.77629C11.6925 7.77629 11.6925 7.54144 11.7885 7.51477H11.7992C11.8952 7.54149 11.8952 7.77633 11.8952 7.77633C11.9378 7.72829 12.0019 7.73363 12.0019 7.73363C12.0179 7.94715 11.8952 8.01118 11.8952 8.01118C11.8952 8.01118 11.9965 7.88841 12.1192 7.88307C12.1192 7.88307 12.1245 7.97916 12.0818 8.04324C12.0818 8.04324 12.2632 8.04854 12.2952 8.11796C12.2952 8.11796 12.2952 8.18733 12.0925 8.23538C12.0925 8.23538 12.1352 8.32613 12.1192 8.3955C12.1192 8.3955 11.9432 8.34216 11.9272 8.26205H11.7405Z" fill="#FFCC00"/>
<path d="M11.7405 8.26208H11.6605C11.6392 8.34214 11.4685 8.39018 11.4685 8.39018C11.4472 8.32613 11.4952 8.23539 11.4952 8.23539C11.2979 8.18201 11.2979 8.11795 11.2979 8.11795C11.3245 8.04856 11.5112 8.03788 11.5112 8.03788C11.4579 7.97917 11.4685 7.87775 11.4685 7.87775C11.5912 7.88842 11.6925 8.01119 11.6925 8.01119C11.6925 8.01119 11.5699 7.94714 11.5859 7.73362C11.5859 7.73362 11.6499 7.73362 11.6925 7.77633C11.6925 7.77633 11.6925 7.54146 11.7885 7.51477H11.7992C11.8952 7.54146 11.8952 7.77633 11.8952 7.77633C11.9379 7.72829 12.0019 7.73362 12.0019 7.73362C12.0179 7.94714 11.8952 8.01119 11.8952 8.01119C11.8952 8.01119 11.9965 7.88842 12.1192 7.88308C12.1192 7.88308 12.1245 7.97917 12.0819 8.04322C12.0819 8.04322 12.2632 8.04856 12.2952 8.11795C12.2952 8.11795 12.2952 8.18734 12.0925 8.23539C12.0925 8.23539 12.1352 8.32613 12.1192 8.39552C12.1192 8.39552 11.9432 8.34214 11.9272 8.26208H11.7405Z" fill="#BCAC0B" stroke="black" stroke-width="0.0995982"/>
<path d="M11.783 8.30479C11.8255 8.30479 11.8662 8.28792 11.8962 8.25789C11.9262 8.22785 11.943 8.18712 11.943 8.14465C11.943 8.10217 11.9262 8.06144 11.8962 8.0314C11.8662 8.00137 11.8255 7.9845 11.783 7.9845C11.7406 7.9845 11.6999 8.00137 11.6699 8.0314C11.6399 8.06143 11.623 8.10215 11.623 8.14462C11.623 8.18709 11.6399 8.22782 11.6699 8.25785C11.6999 8.28788 11.7406 8.30475 11.783 8.30475" fill="white"/>
<path d="M11.783 8.30477C11.8255 8.30477 11.8662 8.2879 11.8962 8.25787C11.9262 8.22784 11.943 8.1871 11.943 8.14463C11.943 8.10216 11.9262 8.06143 11.8962 8.0314C11.8662 8.00137 11.8255 7.9845 11.783 7.9845C11.7406 7.9845 11.6999 8.00137 11.6699 8.0314C11.6399 8.06143 11.623 8.10216 11.623 8.14463C11.623 8.1871 11.6399 8.22784 11.6699 8.25787C11.6999 8.2879 11.7406 8.30477 11.783 8.30477Z" stroke="black" stroke-width="0.0569132"/>
<path d="M11.783 8.23546C11.8071 8.23546 11.8301 8.22589 11.8471 8.20888C11.8641 8.19186 11.8737 8.16877 11.8737 8.14471C11.8737 8.12064 11.8641 8.09755 11.8471 8.08054C11.8301 8.06352 11.8071 8.05396 11.783 8.05396C11.759 8.05396 11.7359 8.06352 11.7189 8.08054C11.7019 8.09755 11.6924 8.12064 11.6924 8.14471C11.6924 8.16877 11.7019 8.19186 11.7189 8.20888C11.7359 8.22589 11.759 8.23546 11.783 8.23546Z" fill="white"/>
<path d="M11.7831 8.23544C11.8071 8.23544 11.8302 8.22588 11.8472 8.20886C11.8642 8.19185 11.8737 8.16877 11.8737 8.1447C11.8737 8.12063 11.8642 8.09755 11.8472 8.08053C11.8302 8.06352 11.8071 8.05396 11.7831 8.05396C11.759 8.05396 11.7359 8.06352 11.7189 8.08053C11.7019 8.09755 11.6924 8.12063 11.6924 8.1447C11.6924 8.16877 11.7019 8.19185 11.7189 8.20886C11.7359 8.22588 11.759 8.23544 11.7831 8.23544Z" stroke="black" stroke-width="0.0426849"/>
<path d="M13.0148 8.36882L13.0948 8.38485C13.0948 8.46491 13.2548 8.55032 13.2548 8.55032C13.2868 8.49692 13.2601 8.39549 13.2601 8.39549C13.4682 8.39014 13.4788 8.32077 13.4788 8.32077C13.4682 8.24605 13.2922 8.198 13.2922 8.198C13.3455 8.14996 13.3615 8.05386 13.3615 8.05386C13.2388 8.03253 13.1161 8.12863 13.1161 8.12863C13.1161 8.12863 13.2495 8.09657 13.2762 7.88305C13.2762 7.88305 13.2175 7.86707 13.1695 7.89908C13.1695 7.89908 13.2175 7.67488 13.1268 7.63218L13.1161 7.62683C13.0148 7.62683 12.9668 7.85638 12.9668 7.85638C12.9348 7.80299 12.8708 7.79764 12.8708 7.79764C12.8122 8.00052 12.9188 8.08593 12.9188 8.08593C12.9188 8.08593 12.8442 7.94713 12.7268 7.91511C12.7268 7.91511 12.7001 8.01121 12.7268 8.07524C12.7268 8.07524 12.5508 8.04852 12.5082 8.10725C12.5082 8.10725 12.4921 8.17663 12.6735 8.26738C12.6735 8.26738 12.6148 8.34744 12.6202 8.41686C12.6202 8.41686 12.7962 8.40083 12.8335 8.32611L12.9135 8.34214L13.0201 8.36347" fill="#FFCC00"/>
<path d="M13.0148 8.3688L13.0948 8.38481C13.0948 8.46488 13.2548 8.55029 13.2548 8.55029C13.2868 8.49691 13.2602 8.39549 13.2602 8.39549C13.4682 8.39015 13.4788 8.32076 13.4788 8.32076C13.4682 8.24603 13.2922 8.19799 13.2922 8.19799C13.3455 8.14994 13.3615 8.05386 13.3615 8.05386C13.2388 8.03251 13.1162 8.12859 13.1162 8.12859C13.1162 8.12859 13.2495 8.09656 13.2762 7.88305C13.2762 7.88305 13.2175 7.86704 13.1695 7.89906C13.1695 7.89906 13.2175 7.67487 13.1268 7.63217L13.1162 7.62683C13.0148 7.62683 12.9668 7.85636 12.9668 7.85636C12.9348 7.80298 12.8708 7.79764 12.8708 7.79764C12.8122 8.00048 12.9188 8.08589 12.9188 8.08589C12.9188 8.08589 12.8442 7.9471 12.7268 7.91508C12.7268 7.91508 12.7002 8.01116 12.7268 8.07521C12.7268 8.07521 12.5508 8.04852 12.5082 8.10724C12.5082 8.10724 12.4922 8.17663 12.6735 8.26738C12.6735 8.26738 12.6148 8.34745 12.6202 8.41684C12.6202 8.41684 12.7962 8.40082 12.8335 8.32609L12.9135 8.34211L13.0202 8.36346" fill="#BCAC0B"/>
<path d="M13.0148 8.3688L13.0948 8.38481C13.0948 8.46488 13.2548 8.55029 13.2548 8.55029C13.2868 8.49691 13.2602 8.39549 13.2602 8.39549C13.4682 8.39015 13.4788 8.32076 13.4788 8.32076C13.4682 8.24603 13.2922 8.19799 13.2922 8.19799C13.3455 8.14994 13.3615 8.05386 13.3615 8.05386C13.2388 8.03251 13.1162 8.12859 13.1162 8.12859C13.1162 8.12859 13.2495 8.09656 13.2762 7.88305C13.2762 7.88305 13.2175 7.86704 13.1695 7.89906C13.1695 7.89906 13.2175 7.67487 13.1268 7.63217L13.1162 7.62683C13.0148 7.62683 12.9668 7.85636 12.9668 7.85636C12.9348 7.80298 12.8708 7.79764 12.8708 7.79764C12.8122 8.00048 12.9188 8.08589 12.9188 8.08589C12.9188 8.08589 12.8442 7.9471 12.7268 7.91508C12.7268 7.91508 12.7002 8.01116 12.7268 8.07521C12.7268 8.07521 12.5508 8.04852 12.5082 8.10724C12.5082 8.10724 12.4922 8.17663 12.6735 8.26738C12.6735 8.26738 12.6148 8.34745 12.6202 8.41684C12.6202 8.41684 12.7962 8.40082 12.8335 8.32609L12.9135 8.34211L13.0202 8.36346" stroke="black" stroke-width="0.0995982"/>
<path d="M12.9569 8.4009C12.9356 8.3962 12.9156 8.38732 12.8978 8.3748C12.88 8.36228 12.8649 8.34635 12.8534 8.32795C12.8418 8.30954 12.834 8.28902 12.8304 8.26757C12.8268 8.24612 12.8275 8.22417 12.8324 8.20299C12.8374 8.18182 12.8464 8.16183 12.8592 8.14419C12.8719 8.12655 12.8879 8.11161 12.9065 8.10023C12.925 8.08885 12.9456 8.08126 12.967 8.0779C12.9885 8.07454 13.0104 8.07548 13.0315 8.08065C13.0733 8.09054 13.1095 8.11643 13.1323 8.15274C13.1552 8.18905 13.1629 8.23289 13.1538 8.27484C13.1447 8.31679 13.1196 8.3535 13.0837 8.37707C13.0479 8.40064 13.0042 8.4092 12.9622 8.4009" fill="white"/>
<path d="M12.957 8.40087C12.936 8.39596 12.9162 8.38696 12.8987 8.37438C12.8811 8.3618 12.8662 8.34588 12.8548 8.32754C12.8434 8.3092 12.8358 8.2888 12.8323 8.26749C12.8288 8.24619 12.8295 8.2244 12.8344 8.20337C12.8393 8.18234 12.8483 8.16248 12.8608 8.14493C12.8734 8.12738 12.8893 8.11248 12.9076 8.10108C12.926 8.08968 12.9463 8.082 12.9676 8.07849C12.9889 8.07497 13.0107 8.07569 13.0317 8.0806C13.0741 8.0898 13.1112 8.11549 13.1347 8.15203C13.1582 8.18857 13.1662 8.23296 13.157 8.27543C13.1478 8.3179 13.1222 8.35497 13.0857 8.3785C13.0492 8.40202 13.0048 8.41007 12.9624 8.40087H12.957Z" stroke="black" stroke-width="0.0569132"/>
<path d="M12.9776 8.33145C12.9648 8.33038 12.9524 8.32659 12.9411 8.32033C12.9299 8.31407 12.9201 8.30549 12.9124 8.29516C12.9048 8.28482 12.8994 8.27297 12.8966 8.26039C12.8939 8.24781 12.8938 8.23479 12.8965 8.22219C12.8992 8.2096 12.9045 8.19771 12.9121 8.18733C12.9197 8.17695 12.9294 8.16831 12.9406 8.16198C12.9518 8.15565 12.9643 8.15179 12.9771 8.15063C12.9899 8.14948 13.0028 8.15107 13.0149 8.1553C13.0358 8.16255 13.0533 8.17718 13.0642 8.19643C13.075 8.21569 13.0785 8.23824 13.0739 8.25987C13.0693 8.2815 13.057 8.3007 13.0392 8.31388C13.0215 8.32706 12.9996 8.33331 12.9776 8.33145" fill="white"/>
<path d="M12.9776 8.33144C12.9648 8.33036 12.9523 8.32656 12.9411 8.3203C12.9299 8.31404 12.9201 8.30546 12.9124 8.29513C12.9047 8.28479 12.8994 8.27295 12.8966 8.26037C12.8939 8.24779 12.8938 8.23478 12.8965 8.22218C12.8992 8.20959 12.9045 8.19771 12.9121 8.18733C12.9197 8.17695 12.9294 8.16831 12.9406 8.16199C12.9518 8.15566 12.9643 8.15179 12.9771 8.15063C12.9899 8.14948 13.0028 8.15107 13.0149 8.15529C13.0358 8.16254 13.0533 8.17716 13.0642 8.19641C13.075 8.21566 13.0785 8.23822 13.0739 8.25984C13.0693 8.28147 13.057 8.30067 13.0393 8.31386C13.0215 8.32704 12.9996 8.33329 12.9776 8.33144Z" stroke="black" stroke-width="0.0426849"/>
<path d="M10.5196 8.34757L10.4397 8.35822C10.429 8.44362 10.2636 8.51834 10.2636 8.51834C10.237 8.45431 10.2636 8.35822 10.2636 8.35822C10.0663 8.33689 10.0557 8.26747 10.0557 8.26747C10.077 8.19809 10.2583 8.16073 10.2583 8.16073C10.205 8.10734 10.1997 8.01125 10.1997 8.01125C10.317 8.00061 10.4343 8.10734 10.4343 8.10734C10.4343 8.10734 10.3064 8.06468 10.2903 7.85112C10.2903 7.85112 10.3597 7.83509 10.4024 7.8725C10.4024 7.8725 10.3756 7.64295 10.4663 7.60559H10.477C10.5783 7.61628 10.6049 7.84578 10.6049 7.84578C10.6423 7.79773 10.7117 7.79239 10.7117 7.79239C10.749 8.0059 10.637 8.08067 10.637 8.08067C10.637 8.08067 10.7223 7.94722 10.8396 7.9205C10.8396 7.9205 10.861 8.02193 10.8237 8.08597C10.8237 8.08597 11.005 8.06998 11.0423 8.1394C11.0423 8.1394 11.053 8.20343 10.861 8.27815C10.861 8.27815 10.9143 8.36356 10.909 8.42764C10.909 8.42764 10.733 8.40092 10.6957 8.32086L10.621 8.33689L10.5143 8.34753" fill="#FFCC00"/>
<path d="M10.5197 8.34756L10.4397 8.35823C10.429 8.44364 10.2637 8.51837 10.2637 8.51837C10.237 8.45432 10.2637 8.35823 10.2637 8.35823C10.0663 8.33688 10.0557 8.26749 10.0557 8.26749C10.077 8.1981 10.2583 8.16073 10.2583 8.16073C10.205 8.10735 10.1997 8.01127 10.1997 8.01127C10.317 8.0006 10.4343 8.10735 10.4343 8.10735C10.4343 8.10735 10.3063 8.06465 10.2903 7.85113C10.2903 7.85113 10.3597 7.83512 10.4023 7.87249C10.4023 7.87249 10.3757 7.64296 10.4663 7.60559H10.477C10.5783 7.61627 10.605 7.8458 10.605 7.8458C10.6423 7.79775 10.7117 7.79242 10.7117 7.79242C10.749 8.00593 10.637 8.08066 10.637 8.08066C10.637 8.08066 10.7223 7.94722 10.8397 7.92053C10.8397 7.92053 10.861 8.02195 10.8237 8.086C10.8237 8.086 11.005 8.06999 11.0423 8.13938C11.0423 8.13938 11.053 8.20343 10.861 8.27817C10.861 8.27817 10.9143 8.36357 10.909 8.42763C10.909 8.42763 10.733 8.40094 10.6957 8.32087L10.621 8.33688L10.5143 8.34756" fill="#BCAC0B"/>
<path d="M10.5197 8.34756L10.4397 8.35823C10.429 8.44364 10.2637 8.51837 10.2637 8.51837C10.237 8.45432 10.2637 8.35823 10.2637 8.35823C10.0663 8.33688 10.0557 8.26749 10.0557 8.26749C10.077 8.1981 10.2583 8.16073 10.2583 8.16073C10.205 8.10735 10.1997 8.01127 10.1997 8.01127C10.317 8.0006 10.4343 8.10735 10.4343 8.10735C10.4343 8.10735 10.3063 8.06465 10.2903 7.85113C10.2903 7.85113 10.3597 7.83512 10.4023 7.87249C10.4023 7.87249 10.3757 7.64296 10.4663 7.60559H10.477C10.5783 7.61627 10.605 7.8458 10.605 7.8458C10.6423 7.79775 10.7117 7.79242 10.7117 7.79242C10.749 8.00593 10.637 8.08066 10.637 8.08066C10.637 8.08066 10.7223 7.94722 10.8397 7.92053C10.8397 7.92053 10.861 8.02195 10.8237 8.086C10.8237 8.086 11.005 8.06999 11.0423 8.13938C11.0423 8.13938 11.053 8.20343 10.861 8.27817C10.861 8.27817 10.9143 8.36357 10.909 8.42763C10.909 8.42763 10.733 8.40094 10.6957 8.32087L10.621 8.33688L10.5143 8.34756" stroke="black" stroke-width="0.0995982"/>
<path d="M10.5675 8.39015C10.5886 8.38734 10.6088 8.38043 10.6272 8.36979C10.6455 8.35916 10.6616 8.34501 10.6745 8.32816C10.6873 8.31131 10.6968 8.29208 10.7022 8.27158C10.7077 8.25108 10.709 8.22971 10.7062 8.20868C10.7034 8.18765 10.6965 8.16738 10.6859 8.14903C10.6753 8.13067 10.6611 8.11459 10.6443 8.10171C10.6275 8.08882 10.6082 8.07938 10.5878 8.07392C10.5673 8.06846 10.5459 8.06709 10.5249 8.0699C10.4824 8.07556 10.444 8.09786 10.418 8.13189C10.392 8.16592 10.3805 8.20889 10.3862 8.25136C10.3918 8.29383 10.4141 8.33231 10.4481 8.35834C10.4821 8.38436 10.5251 8.39581 10.5675 8.39015Z" fill="white"/>
<path d="M10.5675 8.39017C10.5885 8.38737 10.6088 8.38045 10.6271 8.36981C10.6455 8.35917 10.6615 8.34502 10.6744 8.32817C10.6873 8.31132 10.6967 8.29209 10.7022 8.27159C10.7076 8.25109 10.709 8.22971 10.7062 8.20868C10.7034 8.18765 10.6965 8.16738 10.6858 8.14903C10.6752 8.13067 10.6611 8.11459 10.6442 8.1017C10.6274 8.08882 10.6082 8.07937 10.5877 8.07392C10.5672 8.06846 10.5459 8.06709 10.5248 8.0699C10.4824 8.07556 10.444 8.09786 10.418 8.1319C10.392 8.16594 10.3805 8.20892 10.3862 8.25139C10.3918 8.29386 10.4141 8.33234 10.4481 8.35837C10.4821 8.38439 10.5251 8.39583 10.5675 8.39017Z" stroke="black" stroke-width="0.0569132"/>
<path d="M10.557 8.31552C10.5705 8.31675 10.5841 8.31496 10.5967 8.31026C10.6094 8.30556 10.6209 8.29808 10.6303 8.28837C10.6397 8.27866 10.6469 8.26696 10.6512 8.25413C10.6555 8.2413 10.6569 8.22767 10.6553 8.21423C10.6536 8.20079 10.649 8.18789 10.6418 8.17646C10.6345 8.16504 10.6248 8.15539 10.6133 8.14821C10.6019 8.14103 10.5889 8.13651 10.5755 8.13498C10.5621 8.13345 10.5485 8.13495 10.5357 8.13937C10.5161 8.14614 10.4994 8.15943 10.4884 8.17703C10.4774 8.19463 10.4728 8.21546 10.4753 8.23607C10.4778 8.25667 10.4872 8.2758 10.5021 8.29026C10.517 8.30472 10.5364 8.31363 10.557 8.31552Z" fill="white"/>
<path d="M10.557 8.31551C10.5705 8.31674 10.5841 8.31494 10.5968 8.31024C10.6094 8.30554 10.6209 8.29806 10.6303 8.28835C10.6398 8.27864 10.6469 8.26694 10.6512 8.25412C10.6555 8.24129 10.6569 8.22766 10.6553 8.21422C10.6537 8.20079 10.649 8.18789 10.6418 8.17646C10.6345 8.16504 10.6248 8.15539 10.6134 8.14821C10.6019 8.14103 10.589 8.13651 10.5755 8.13498C10.5621 8.13345 10.5485 8.13495 10.5357 8.13936C10.5161 8.14613 10.4994 8.15942 10.4884 8.17702C10.4774 8.19462 10.4728 8.21546 10.4753 8.23606C10.4778 8.25667 10.4872 8.27579 10.5021 8.29025C10.517 8.30471 10.5364 8.31363 10.557 8.31551Z" stroke="black" stroke-width="0.0426849"/>
<path d="M14.1409 8.69445C14.1409 8.69445 14.0983 8.58772 14.0076 8.62508C13.9169 8.66244 13.9276 8.67847 13.8476 8.67847C13.8476 8.67847 13.8156 8.57703 13.8583 8.53433C13.8583 8.53433 13.7303 8.48628 13.6982 8.3742C13.6982 8.3742 13.7676 8.29414 13.9329 8.32616C13.9329 8.32616 13.9276 8.24609 13.9489 8.20873C13.9489 8.20873 14.1249 8.26208 14.1249 8.36352C14.1249 8.36352 14.0716 8.17133 14.1676 8.03258C14.1676 8.03258 14.2476 8.06459 14.2423 8.15534C14.2423 8.15534 14.2796 7.97384 14.5196 8.02189C14.5196 8.02189 14.3916 8.13931 14.3863 8.1927C14.3756 8.24609 14.2689 8.33684 14.2636 8.36886C14.2636 8.39558 14.2529 8.44892 14.2209 8.48094C14.1889 8.513 14.1836 8.56634 14.1836 8.58772C14.1836 8.59841 14.1836 8.67312 14.1409 8.69445Z" fill="#FFCC00"/>
<path d="M14.1409 8.69446C14.1409 8.69446 14.0982 8.58771 14.0076 8.62507C13.9169 8.66244 13.9276 8.67845 13.8476 8.67845C13.8476 8.67845 13.8156 8.57703 13.8582 8.53433C13.8582 8.53433 13.7302 8.48629 13.6982 8.37419C13.6982 8.37419 13.7676 8.29412 13.9329 8.32615C13.9329 8.32615 13.9276 8.24608 13.9489 8.20871C13.9489 8.20871 14.1249 8.26209 14.1249 8.36351C14.1249 8.36351 14.0716 8.17135 14.1676 8.03256C14.1676 8.03256 14.2476 8.06459 14.2422 8.15534C14.2422 8.15534 14.2796 7.97385 14.5196 8.02189C14.5196 8.02189 14.3916 8.13932 14.3862 8.1927C14.3756 8.24608 14.2689 8.33682 14.2636 8.36885C14.2636 8.39554 14.2529 8.44892 14.2209 8.48095C14.1889 8.51297 14.1836 8.56635 14.1836 8.58771C14.1836 8.59838 14.1836 8.67311 14.1409 8.69446Z" fill="#BCAC0B" stroke="black" stroke-width="0.0995982"/>
<path d="M14.0076 8.4809C14.0127 8.45388 14.0247 8.42864 14.0424 8.4076C14.0601 8.38656 14.0829 8.37044 14.1086 8.36078C14.1344 8.35113 14.1621 8.34826 14.1893 8.35247C14.2165 8.35668 14.2421 8.36781 14.2637 8.3848C14.2637 8.41152 14.2476 8.45423 14.221 8.4809C14.189 8.51296 14.1837 8.5663 14.1837 8.58768C14.1847 8.61758 14.1773 8.64717 14.1623 8.67308H14.1356C14.1144 8.66928 14.0942 8.66122 14.0762 8.64939C14.0582 8.63757 14.0427 8.62222 14.0308 8.60427C14.0188 8.58633 14.0106 8.56615 14.0066 8.54494C14.0027 8.52374 14.003 8.50196 14.0077 8.4809" fill="white"/>
<path d="M14.0077 8.48097C14.0128 8.45397 14.0248 8.42873 14.0425 8.4077C14.0602 8.38667 14.083 8.37056 14.1087 8.3609C14.1344 8.35125 14.1622 8.34839 14.1893 8.35259C14.2165 8.35679 14.2421 8.36792 14.2637 8.38489C14.2637 8.41158 14.2477 8.45428 14.221 8.48097C14.189 8.513 14.1837 8.56638 14.1837 8.58773C14.1847 8.61764 14.1773 8.64722 14.1623 8.67314H14.1357C14.1145 8.66933 14.0942 8.66128 14.0762 8.64945C14.0582 8.63763 14.0427 8.62229 14.0308 8.60434C14.0188 8.5864 14.0106 8.56622 14.0066 8.54502C14.0027 8.52382 14.003 8.50204 14.0077 8.48097Z" stroke="black" stroke-width="0.0569132"/>
<path d="M14.0762 8.49701C14.0797 8.4801 14.088 8.46456 14.1001 8.45221C14.1122 8.43987 14.1275 8.43122 14.1443 8.4273C14.1611 8.42337 14.1787 8.42434 14.195 8.43007C14.2112 8.4358 14.2255 8.44606 14.2362 8.45965L14.2202 8.48098C14.1882 8.51304 14.1829 8.56638 14.1829 8.58776V8.59844H14.1508C14.0975 8.5931 14.0709 8.54501 14.0815 8.49166" fill="white"/>
<path d="M14.0762 8.49696C14.0797 8.48006 14.088 8.46454 14.1001 8.4522C14.1122 8.43986 14.1275 8.43122 14.1443 8.4273C14.1611 8.42338 14.1787 8.42433 14.1949 8.43005C14.2112 8.43577 14.2255 8.44602 14.2362 8.45959L14.2202 8.48095C14.1882 8.51297 14.1828 8.56635 14.1828 8.5877V8.59838H14.1508C14.0975 8.59304 14.0708 8.545 14.0815 8.49162L14.0762 8.49696Z" stroke="black" stroke-width="0.0426849"/>
<path d="M9.44681 8.65173C9.44681 8.65173 9.48947 8.54499 9.58017 8.5877C9.66548 8.63574 9.6548 8.64638 9.74016 8.64638C9.74016 8.64638 9.77217 8.55029 9.74016 8.50763C9.74016 8.50763 9.86812 8.47028 9.90014 8.35815C9.90014 8.35815 9.83616 8.27274 9.67083 8.29412C9.67083 8.29412 9.68147 8.21406 9.66014 8.17665C9.66014 8.17665 9.48417 8.21935 9.47883 8.31545C9.47883 8.31545 9.54281 8.12865 9.4575 7.98451C9.4575 7.98451 9.37219 8.01653 9.37219 8.10193C9.37219 8.10193 9.34547 7.92043 9.10547 7.95784C9.10547 7.95784 9.22814 8.0806 9.22814 8.13395C9.22814 8.18729 9.33483 8.28343 9.33483 8.31545C9.33483 8.34217 9.34547 8.40085 9.37748 8.43287C9.4095 8.46493 9.4095 8.51827 9.40416 8.53965C9.40416 8.55034 9.40416 8.62506 9.44681 8.64638" fill="#FFCC00"/>
<path d="M9.44778 8.65175C9.44778 8.65175 9.49045 8.545 9.58111 8.5877C9.66645 8.63574 9.65578 8.64641 9.74111 8.64641C9.74111 8.64641 9.77311 8.55033 9.74111 8.50763C9.74111 8.50763 9.86911 8.47026 9.90111 8.35817C9.90111 8.35817 9.83711 8.27276 9.67178 8.29411C9.67178 8.29411 9.68245 8.21405 9.66111 8.17668C9.66111 8.17668 9.48511 8.21938 9.47978 8.31547C9.47978 8.31547 9.54378 8.12864 9.45845 7.98452C9.45845 7.98452 9.37311 8.01654 9.37311 8.10195C9.37311 8.10195 9.34645 7.92046 9.10645 7.95783C9.10645 7.95783 9.22911 8.0806 9.22911 8.13398C9.22911 8.18736 9.33578 8.28344 9.33578 8.31547C9.33578 8.34216 9.34645 8.40087 9.37845 8.4329C9.41045 8.46493 9.41045 8.51831 9.40511 8.53966C9.40511 8.55033 9.40511 8.62506 9.44778 8.64641V8.65175Z" fill="#BCAC0B" stroke="black" stroke-width="0.0995982"/>
<path d="M9.58612 8.44361C9.58161 8.41744 9.57068 8.3928 9.55429 8.37192C9.53791 8.35103 9.51659 8.33455 9.49226 8.32396C9.46793 8.31337 9.44135 8.309 9.41492 8.31124C9.38848 8.31349 9.36302 8.32228 9.34082 8.33683C9.34082 8.36355 9.35146 8.4062 9.37813 8.43292C9.41015 8.46494 9.41015 8.51828 9.4048 8.53966C9.4048 8.55034 9.40481 8.59305 9.42613 8.63041H9.44746C9.46908 8.62783 9.48994 8.62087 9.50878 8.60995C9.52761 8.59903 9.54402 8.58437 9.557 8.56688C9.56998 8.54939 9.57926 8.52943 9.58427 8.50823C9.58927 8.48702 9.5899 8.46502 9.58612 8.44356" fill="white"/>
<path d="M9.58615 8.4436C9.58165 8.41743 9.57071 8.39279 9.55432 8.3719C9.53793 8.35102 9.51661 8.33454 9.49228 8.32395C9.46794 8.31336 9.44136 8.30899 9.41492 8.31125C9.38848 8.3135 9.36302 8.32229 9.34082 8.33684C9.34082 8.36353 9.35149 8.40623 9.37815 8.43292C9.41015 8.46495 9.41015 8.51833 9.40482 8.53968C9.40482 8.55036 9.40482 8.59306 9.42615 8.63042H9.44749C9.4691 8.62785 9.48997 8.62089 9.5088 8.60997C9.52763 8.59905 9.54404 8.58439 9.55702 8.5669C9.57 8.54941 9.57928 8.52946 9.58429 8.50826C9.5893 8.48706 9.58993 8.46505 9.58615 8.4436Z" stroke="black" stroke-width="0.0569132"/>
<path d="M9.51643 8.45425C9.51451 8.43651 9.5074 8.41973 9.49601 8.40601C9.48461 8.3923 9.46943 8.38225 9.45235 8.37712C9.43528 8.37199 9.41708 8.37202 9.40002 8.37719C9.38296 8.38236 9.36781 8.39245 9.35645 8.4062L9.37777 8.43292C9.40979 8.46494 9.40979 8.51833 9.40445 8.53965V8.55034H9.44176C9.48976 8.55034 9.52177 8.50229 9.51643 8.45425Z" fill="white"/>
<path d="M9.51645 8.45424C9.51452 8.4365 9.50742 8.41973 9.49602 8.40601C9.48462 8.39229 9.46944 8.38224 9.45236 8.37712C9.43529 8.37199 9.41708 8.37202 9.40002 8.37719C9.38296 8.38236 9.36781 8.39245 9.35645 8.4062L9.37778 8.43289C9.40978 8.46491 9.40978 8.51829 9.40445 8.53964V8.55032H9.44178C9.48978 8.55032 9.52178 8.50228 9.51645 8.45424Z" stroke="black" stroke-width="0.0426849"/>
<path d="M9.71387 9.62866C9.71387 9.62866 11.5165 8.92405 13.7885 9.64467" stroke="black" stroke-width="0.213425"/>
<path d="M14.0447 9.06808C11.5327 8.2674 9.52734 9.02538 9.52734 9.02538" stroke="black" stroke-width="0.0711416"/>
<path d="M11.7837 8.89197L11.5811 8.99336L11.7624 9.10548L11.9757 8.9987L11.7837 8.89197Z" fill="#FF0000"/>
<path d="M11.7837 8.89197L11.5811 8.99339L11.7624 9.10548L11.9757 8.99873L11.7837 8.89197Z" stroke="black" stroke-width="0.0711416"/>
</g>
<defs>
<clipPath id="clip0_208_20552">
<rect width="24" height="24" rx="12" fill="white"/>
</clipPath>
</defs>
</svg>
