<svg width="24" height="24" viewBox="0 0 24 24" fill="none" xmlns="http://www.w3.org/2000/svg">
<g clip-path="url(#clip0_208_10091)">
<path d="M0 0H24V24H0V0Z" fill="#000066"/>
<path d="M0 12L24 0V24L0 12Z" fill="#BD1021"/>
<path d="M1.94043 12L23.9717 1.28442V22.7157" fill="white"/>
<path d="M15.6977 13.524C15.9505 13.5393 15.9428 13.792 15.9428 13.792L16.8466 13.815C16.9614 13.4972 17.084 13.5354 17.3023 13.6925C17.4366 13.7839 17.5837 13.8549 17.7388 13.9031C17.8269 13.4512 18.4664 13.5431 18.4664 13.5431C18.7422 12.8921 18.7651 12.8998 18.6005 12.8155C18.5031 12.7666 18.4229 12.6891 18.3707 12.5934C18.2175 12.4058 18.1371 12.1377 18.1179 11.9731C18.0988 11.8084 17.9073 12.0534 17.8729 12.0037C17.8384 11.95 17.555 11.9807 17.555 11.9807C17.624 12.0573 17.3865 12.0114 17.3865 12.0114C17.4095 12.0305 17.3865 12.0994 17.3865 12.0994C17.3636 12.0688 17.1797 12.0381 17.1797 12.0381C17.1644 12.0764 17.1223 12.1186 17.1223 12.1186C17.0227 12.0803 16.8275 12.0841 16.8275 12.0841C16.6355 12.0767 16.4454 12.1245 16.2798 12.2219C16.1994 12.2679 15.9083 12.4134 15.6671 12.647C15.4297 12.8768 15.2956 12.85 15.2956 12.85C15.2267 13.1104 14.6561 13.4244 14.6561 13.4244C14.5642 13.5048 14.277 13.5431 14.1315 13.4244C13.986 13.3019 14.1315 13.0797 14.1315 13.0797C14.1889 12.9802 14.2387 12.984 14.2463 12.6317C14.2502 12.3943 14.4952 12.2028 14.748 11.9271C15.0582 11.5863 15.491 11.0272 15.491 11.0272C15.491 11.1995 15.5867 11.2263 15.5867 11.2263C15.6709 11.054 15.7935 10.9123 15.7935 10.9123C15.8011 10.9276 15.8203 10.9352 15.8203 10.9352C15.916 10.8051 15.9734 10.7552 15.9734 10.7552C15.9428 10.74 15.6709 10.7552 15.422 10.9735C15.1693 11.1918 15.0008 11.1191 15.0008 11.1191C14.8246 11.0616 14.8093 10.9276 14.8093 10.9276C14.6829 10.38 15.1807 9.9894 15.1807 9.9894C14.5106 9.82853 14.9931 8.97456 15.8279 8.61081C16.6589 8.25081 16.6513 8.08614 16.6513 8.08614C16.701 8.14361 16.7394 8.23932 16.7394 8.23932C16.747 8.23548 16.8083 8.14361 17.2908 7.93295C17.7695 7.7185 17.9992 7.5347 17.9992 7.5347C18.0605 7.65343 18.049 7.73767 18.049 7.73767C19.3625 7.27815 20.6531 6.22122 20.6531 6.22122C20.6913 6.30929 20.6722 6.44331 20.6722 6.44331C20.8866 6.24418 21.6602 5.78467 21.6602 5.78467C21.6717 6.07951 21.4304 6.19061 21.4304 6.19061C21.4572 6.2327 21.4687 6.30929 21.4687 6.30929C21.7125 6.15552 21.9525 5.99591 22.1886 5.83061C22.4069 6.01825 22.2116 6.32078 22.2116 6.32078C22.2882 6.30929 22.3418 6.24418 22.3418 6.24418C22.3993 6.562 22.047 6.84156 22.047 6.84156C22.1082 6.84156 22.2116 6.78029 22.2116 6.78029C22.1427 7.12497 21.4879 7.50789 21.4879 7.50789C21.5836 7.59601 21.4917 7.70701 21.4113 7.76064C21.3347 7.81042 21.1968 7.92147 21.239 7.96745C21.281 8.01339 21.5721 7.80657 21.5721 7.80657C21.6219 7.95212 21.2504 8.23932 21.2504 8.23932C21.5108 8.27378 22.2308 7.94448 22.2308 7.94448C22.1733 8.224 21.9014 8.44229 21.5645 8.56867C21.2274 8.69504 21.2466 8.71417 21.2466 8.71417C21.3041 8.76011 21.7674 8.62609 21.7674 8.62609C21.6296 8.93626 21.147 9.15072 21.147 9.15072C21.2773 9.26561 21.4611 9.13159 21.641 9.00906C21.8593 8.87122 22.095 8.76303 22.3418 8.68736C22.6099 8.59548 22.8052 8.66439 22.8052 8.66439C23.035 8.59164 23.2265 8.69504 23.2265 8.69504C23.6592 8.7295 23.7051 8.88648 23.7051 8.88648C23.751 8.89801 23.7894 8.91714 23.9004 9.00137C24.0115 9.08181 24.0038 9.33456 24 9.46093C23.9961 9.58346 23.9617 9.58347 23.9387 9.61412C23.9195 9.65237 23.9158 9.69067 23.9158 9.73665C23.9158 9.78643 23.8047 10.0813 23.1307 10.0813H22.1121C22.0546 10.0813 21.9895 10.1158 21.9895 10.1158C21.7062 10.2574 21.8555 10.02 21.5185 10.2958C21.1815 10.5753 21.0092 10.5255 21.0092 10.5255C20.8212 10.7197 20.6161 10.8965 20.3965 11.054C20.1973 11.1842 20.2318 11.1688 20.408 11.2455C20.5841 11.3221 20.8483 11.2455 20.8483 11.2455C20.6798 11.3603 20.7986 11.4139 20.7986 11.4139C21.0207 11.2761 21.1586 11.3259 21.1586 11.3259C21.2275 11.5212 20.9709 11.8314 20.9709 11.8314C21.0704 11.8428 21.2581 11.8314 21.2581 11.8314C21.2121 11.9616 21.0283 12.1071 20.8905 12.1492C20.7526 12.1951 20.7756 12.2143 20.8177 12.2947C20.856 12.3789 20.8254 12.4632 20.8254 12.4632C20.5841 12.2986 20.5765 12.4441 20.5765 12.4441C20.5497 12.6394 20.5535 12.9227 20.5535 12.9227C20.385 12.8385 20.3773 12.9496 20.3773 12.9496C20.3314 13.1296 20.1246 13.3325 20.1246 13.3325C20.1169 13.2253 20.0135 13.1946 20.0135 13.1946C19.9063 13.4014 19.7072 13.5278 19.7072 13.5278C19.6842 13.704 19.734 13.9567 19.734 13.9567C19.6038 13.9299 19.5578 13.9299 19.5387 13.9605C19.5195 13.9912 19.5655 14.0064 19.5655 14.0064L21.2352 14.0486C21.2581 14.0486 21.3576 14.0639 21.3576 14.2401C21.3615 14.4239 21.2121 14.4316 21.2121 14.4316L19.3893 14.3894C19.3893 14.3894 19.397 14.4392 19.3012 14.489C19.2055 14.5388 19.24 14.4316 19.2132 14.6575C19.1863 14.8796 18.8225 14.6383 18.8225 14.6383C18.7651 14.7264 18.6234 14.8413 18.6234 14.8413C18.5392 14.5924 18.455 14.5158 18.3247 14.7302C18.1945 14.9447 18.5622 14.9064 18.5622 14.9064C18.5622 14.9064 20.7028 14.5924 20.8215 14.5809C20.9364 14.5694 21.0628 14.5771 21.1164 14.7379C21.1662 14.9026 20.856 14.9294 20.856 14.9294L18.6579 15.1668C18.6119 15.297 18.4281 15.2893 18.4281 15.2893C18.4434 15.4119 18.3133 15.4923 18.2481 15.5344C18.1792 15.5804 17.9686 15.5612 17.9686 15.5612C17.7158 15.7336 17.5895 15.5995 17.5895 15.5995C17.4248 15.6684 17.3214 15.6378 17.1836 15.5804C17.0457 15.5191 17.0572 15.3544 17.0572 15.3544L15.6709 15.5C15.6301 15.5143 15.5923 15.5365 15.5599 15.5651C15.6096 15.6302 15.4603 15.7757 15.4603 15.7757C15.5024 15.8025 15.5828 15.8829 15.5944 16.0552C15.6058 16.2391 15.3684 16.2697 15.4871 16.3999C15.602 16.5263 15.8203 16.4191 16.0615 16.3042C16.2989 16.1893 16.5364 16.2046 16.6359 16.2046C16.7393 16.2046 17.0265 16.2812 17.2027 16.3424C17.3827 16.4037 17.444 16.3654 17.4554 16.2735C17.4669 16.1854 17.5473 16.1587 17.5473 16.1587C17.5243 16.2467 17.5742 16.2888 17.5742 16.2888C17.6431 16.2888 17.7618 16.2237 17.7618 16.2237C17.7503 16.2926 17.6623 16.3348 17.6623 16.3348C17.4899 16.4497 17.7274 16.4075 17.7274 16.4075C18.206 16.308 18.3784 16.3194 18.5009 16.331C18.7435 16.4042 18.9814 16.4925 19.2132 16.5952C19.2323 16.5339 19.2208 16.3884 19.2208 16.3884C19.3702 16.4305 19.4315 16.5186 19.4315 16.5186C19.4889 16.4573 19.4506 16.3501 19.4506 16.3501C19.9331 16.622 19.351 16.7446 19.194 16.7981C19.0408 16.8479 19.0408 16.913 19.0408 16.913C19.1711 16.8747 19.2591 16.8556 19.3663 16.8479C19.4735 16.8403 19.4353 16.8479 19.6918 16.7981C19.9484 16.7446 20.0786 16.8556 20.0786 16.8556C19.8642 16.8671 19.8029 16.9322 19.8029 16.9322C19.937 17.0203 19.8067 17.1007 19.8067 17.1007C19.6153 16.8556 19.4467 17.1084 19.4467 17.1084C19.5564 17.1083 19.6648 17.1318 19.7646 17.1773C19.8067 17.2041 19.9101 17.2539 20.0327 17.3113C20.2127 17.3917 20.1782 17.3419 20.316 17.3917C20.4539 17.4453 20.4003 17.5755 20.4003 17.5755C20.3428 17.4683 20.2165 17.43 20.2165 17.43C20.205 17.5755 20.0594 17.6023 20.0594 17.6023C20.2394 17.4032 19.8527 17.3151 19.6689 17.319C19.4889 17.319 19.3548 17.4377 19.3548 17.4377C19.7187 17.7823 19.9714 17.6674 19.9714 17.6674C19.9255 17.7938 19.6267 17.744 19.6267 17.744C19.7646 17.8512 19.7493 17.924 19.7493 17.924C19.6727 17.8512 19.554 17.8857 19.2898 17.7211C19.0294 17.5487 18.7957 17.6062 18.7957 17.6062C19.0523 17.8742 18.7039 18.0389 18.7039 18.0389C18.5736 18.1155 18.7574 18.2112 18.7574 18.2112C18.5967 18.2418 18.5737 18.081 18.5737 18.081C18.4894 18.0619 18.3669 18.1652 18.3669 18.1652C18.3745 18.0006 18.5928 18.0849 18.5966 17.9087C18.6043 17.7364 18.3975 17.6023 17.781 17.6866C17.1606 17.7747 16.9806 17.5755 16.9806 17.5755C16.927 17.5755 16.9193 17.6291 16.9193 17.6291C17.0189 17.7287 17.0648 17.767 17.0495 17.8359C17.0304 17.9049 17.0802 17.9278 17.0802 17.9278C16.9653 17.9202 16.9576 17.7862 16.9576 17.7862C16.9576 17.8436 16.9347 17.8474 16.8964 17.9049C16.8581 17.9623 16.8964 18.0389 16.8964 18.0389C16.8466 17.9967 16.7585 17.947 16.8427 17.8245C16.904 17.7325 16.7087 17.6138 16.7087 17.6138C16.6321 17.5372 16.4292 17.61 16.4292 17.61C16.0079 17.6904 15.7628 17.4262 15.7628 17.4262C15.713 17.4262 15.6211 17.3994 15.6211 17.3994C15.1769 17.5985 14.7863 17.1696 14.7863 17.1696C14.4493 17.2309 14.2962 17.0701 14.1966 16.9092C14.1394 16.799 14.048 16.7104 13.9362 16.6565C13.8021 16.5799 13.6758 16.3463 13.8021 16.2237C13.9094 16.1165 13.8787 16.0935 13.8787 16.0935C13.7026 15.7987 14.1851 15.7068 14.1965 15.634C14.2081 15.5344 14.3115 15.4693 14.4187 15.4617C14.5298 15.454 14.5298 15.4617 14.6025 15.3928C14.6714 15.3161 14.8093 15.4081 14.8093 15.4081C14.8399 15.3889 15.0774 15.2013 15.2918 15.297C15.5062 15.3927 15.6824 15.3276 15.6824 15.3276C15.8356 15.2932 17.084 15.1247 17.084 15.1247C17.1606 15.0021 17.2219 14.8566 17.5665 14.78C17.9111 14.7034 18.1677 14.4813 18.1677 14.4813C18.1064 14.4162 18.0031 14.4201 17.9533 14.4124C17.8997 14.4086 17.7924 14.3128 17.7924 14.3128C17.7274 14.3435 17.6967 14.3282 17.2448 14.6039C16.8389 14.849 16.8274 14.3626 16.8274 14.3626H15.9466C15.9313 14.5502 15.7935 14.623 15.7935 14.623L15.4679 14.6383C15.2918 14.5464 15.2879 14.2286 15.2879 14.2286C14.3191 14.2439 13.783 14.5886 13.783 14.5886C12.6839 14.0295 11.8262 13.8992 11.8262 13.8992C13.1588 13.7575 13.8634 13.3861 13.8634 13.3861C14.2953 13.6484 14.7838 13.8033 15.2879 13.838C15.3148 13.5699 15.4948 13.5048 15.4948 13.5048L15.6977 13.524Z" fill="black"/>
<path d="M14.109 15.7336C13.8333 15.8944 13.8831 15.9864 13.9099 16.0361C13.9329 16.0859 13.9367 16.1357 13.8601 16.2123C13.7835 16.2889 13.7912 16.3157 13.7912 16.3157C13.8027 16.5837 13.9942 16.6412 14.0745 16.7101C14.1435 16.7637 14.2545 16.9399 14.2545 16.9399C14.4001 17.1429 14.5494 17.1467 14.6605 17.1467C14.7753 17.1467 14.7639 17.1352 14.7064 17.0854L14.5417 16.9476C14.6519 16.9959 14.7509 17.0663 14.8328 17.1543C15.1162 17.4645 15.3766 17.4224 15.4914 17.4109C15.6063 17.3956 15.5872 17.3267 15.5872 17.3267C15.5796 17.3152 15.4724 17.3075 15.4724 17.3075C15.0434 17.2692 14.917 16.9897 14.917 16.9897C15.1335 17.1792 15.4106 17.2852 15.6982 17.2884C15.8208 17.2807 15.8131 17.319 15.7864 17.3267C15.7595 17.3305 15.7251 17.3266 15.6676 17.319C15.6102 17.319 15.6102 17.3305 15.6217 17.3573C15.637 17.3764 15.6906 17.3803 15.7557 17.3764C15.8246 17.3764 15.771 17.3841 15.9472 17.5181C16.1233 17.656 16.5599 17.5449 16.5599 17.5449C16.2765 17.476 16.2382 17.3458 16.2382 17.3458C15.8552 17.3918 15.6982 17.162 15.6982 17.162C15.6293 17.0931 15.4225 16.9858 15.4225 16.9858C15.2081 16.8939 15.1736 16.6986 15.1736 16.6986C15.2349 16.7867 15.3536 16.8863 15.503 16.9284C15.6562 16.9667 15.6944 16.9897 15.6944 16.9897C15.6559 16.9977 15.6157 16.9937 15.5796 16.9782C15.4302 16.9322 15.5144 16.9935 15.5144 16.9935C15.6829 17.1276 15.7289 17.116 15.7289 17.116C16.1616 17.162 15.9472 16.9858 15.9472 16.9858C16.2535 17.0624 16.3072 16.9475 16.3072 16.9475C16.3722 17.0816 16.6058 17.0318 16.6058 17.0318C16.2957 17.185 16.5292 17.139 16.5292 17.139C16.8471 17.0816 16.9122 17.162 16.9122 17.162C16.9926 17.2386 17.0807 17.2309 17.0807 17.2309C17.0807 17.2309 17.1381 17.2309 17.2568 17.2539C17.3756 17.2769 17.5632 17.3803 17.7355 17.3611C17.9078 17.3381 17.9385 17.3918 17.9385 17.3918C17.904 17.3803 17.8274 17.3688 17.6934 17.4301C17.5593 17.4913 17.3258 17.5067 16.985 17.4301C16.6441 17.3535 16.6173 17.3612 16.6173 17.3612C16.6978 17.4186 16.7705 17.5066 16.7858 17.5641C16.8011 17.6215 16.8624 17.6253 16.8624 17.6253C16.8854 17.5488 16.985 17.5181 16.985 17.5181C17.0539 17.5794 17.2339 17.6598 17.2339 17.6598C17.253 17.6215 17.2339 17.5909 17.2339 17.5909C17.364 17.7173 17.5172 17.679 17.5172 17.679C17.5555 17.6522 17.544 17.5794 17.544 17.5794C17.5977 17.5794 17.6053 17.6101 17.6436 17.6369C17.6819 17.6598 17.7968 17.6445 17.7968 17.6445C17.7547 17.6253 17.7202 17.5603 17.7202 17.5603C17.8964 17.4415 18.2678 17.4914 18.2678 17.4914C18.5359 17.5411 18.5053 17.7173 18.5053 17.7173C18.5588 17.7403 18.6316 17.8245 18.6316 17.8245C18.6546 17.7632 18.6316 17.6981 18.6316 17.6981C18.758 17.7556 18.7848 17.9011 18.7848 17.9011C18.9265 17.7364 18.647 17.5564 18.647 17.5564C18.781 17.5373 18.9303 17.5488 19.0222 17.5603C19.1141 17.5756 19.2405 17.6215 19.3477 17.7134C19.4549 17.7977 19.6426 17.8398 19.6426 17.8398C19.6387 17.8015 19.5354 17.7402 19.5124 17.7287C19.4894 17.7173 19.4818 17.6828 19.4818 17.6828C19.5736 17.7019 19.6349 17.6904 19.6349 17.6904C19.3132 17.4913 19.229 17.3994 19.229 17.3994C19.3515 17.4147 19.4205 17.3381 19.4205 17.3381C19.1639 17.342 19.1524 17.2769 19.1524 17.2769C19.1869 17.2846 19.3056 17.3152 19.4588 17.2846C19.612 17.2539 19.8225 17.2846 19.8225 17.2846C19.7115 17.1046 19.2826 17.1352 19.1447 17.1429C19.0069 17.1505 18.9533 17.1314 18.9533 17.1314C18.9763 17.1237 18.9992 17.1007 19.1065 17.0969C19.2137 17.0969 19.3209 17.1084 19.4435 17.0203C19.5622 16.9399 19.7307 16.9667 19.7307 16.9667C19.6924 16.8863 19.4971 16.8556 19.3286 16.9667C19.1563 17.0739 19.0031 17.0433 19.0031 17.0433C19.2712 17.005 19.3477 16.9092 19.3477 16.9092C19.2712 16.8863 19.2252 16.9131 19.0605 16.9475C18.8997 16.9782 18.8575 16.9208 18.8575 16.9208C19.0337 16.8174 19.1601 16.7752 19.1601 16.7752C19.0069 16.7408 18.8691 16.6757 18.8691 16.6757C18.712 16.825 18.5895 16.9054 18.287 16.7522C17.9844 16.5914 17.8274 16.6105 17.8274 16.6105C18.0955 16.4574 18.3636 16.5225 18.5627 16.6412C18.7618 16.756 18.8193 16.6642 18.8193 16.6642C18.7541 16.6259 18.7657 16.5876 18.7657 16.5876C19.2443 16.8327 19.4549 16.6833 19.5583 16.6105C19.6656 16.5378 19.5086 16.4421 19.5086 16.4421C19.5009 16.5952 19.3056 16.6718 19.1486 16.6182C18.9954 16.5646 18.8537 16.4995 18.6316 16.4038C18.4095 16.3119 18.1338 16.3616 17.8734 16.4153C17.613 16.4689 17.5823 16.4421 17.5556 16.4229C17.5326 16.4038 17.5211 16.3387 17.3871 16.3923C17.2568 16.4497 16.9467 16.3042 16.7552 16.2582C16.5637 16.2123 16.2497 16.2353 15.9778 16.3846C15.7097 16.5378 15.5719 16.4995 15.4915 16.4612C15.411 16.4229 15.3574 16.3234 15.4455 16.2314C15.5337 16.1394 15.5413 16.1166 15.5336 15.9825C15.5259 15.8523 15.3958 15.7719 15.3958 15.7719C15.5144 15.6494 15.5451 15.6187 15.503 15.5689C15.4647 15.5154 15.5259 15.5154 15.5948 15.4847C15.6637 15.454 15.6331 15.4502 15.6178 15.4081C15.6025 15.3698 15.5604 15.3774 15.5604 15.3774C15.4034 15.3851 15.3153 15.3392 15.3153 15.3392C15.0549 15.2205 14.8098 15.454 14.8098 15.454C14.6605 15.3392 14.626 15.4157 14.5992 15.4426C14.5762 15.4694 14.5226 15.4885 14.4537 15.4962C14.3886 15.5038 14.2929 15.5268 14.2622 15.5881C14.2622 15.5881 14.2316 15.634 14.266 15.6877C14.266 15.6877 14.3043 15.7489 14.2354 15.8217C14.1588 15.8983 14.132 15.9136 14.1588 15.9864C14.1779 16.0553 14.1742 16.1089 14.1435 16.1549C14.1435 16.1549 14.109 16.1166 14.1205 16.0667C14.1282 16.0208 14.1282 15.9902 14.1167 15.9672C14.1167 15.9672 14.0439 16.0361 14.0324 16.0898C14.0324 16.0898 14.0018 16.0093 14.109 15.9021C14.2124 15.7987 14.2622 15.7451 14.2316 15.703C14.2086 15.6723 14.132 15.7221 14.1128 15.7336H14.109Z" fill="#FFC221"/>
<path d="M14.4155 16.9016C14.4155 16.9016 14.2815 16.802 14.2968 16.6603C14.3122 16.5225 14.3122 16.5071 14.2968 16.4726C14.2968 16.4726 14.27 16.488 14.2739 16.5416C14.2739 16.5952 14.2662 16.6488 14.2624 16.6565C14.2624 16.6565 14.1934 16.5416 14.1628 16.5186C14.1628 16.5186 14.1896 16.3961 14.1513 16.3463C14.113 16.2927 14.0747 16.2889 14.0326 16.308C13.9713 16.3271 13.9254 16.3846 14.1283 16.5492C14.1283 16.5492 14.2049 16.6105 14.2547 16.7407C14.3083 16.8748 14.3964 16.8939 14.4117 16.9016H14.4155ZM15.0665 16.5148C15.0665 16.5148 15.0589 16.4382 15.1317 16.2965C15.1556 16.2542 15.1692 16.2067 15.1712 16.1581C15.1732 16.1095 15.1635 16.0611 15.1431 16.017C15.1278 15.9787 15.1164 15.994 15.1891 15.9327C15.2772 15.8561 15.1546 15.7642 15.304 15.634C15.304 15.634 15.3959 15.5536 15.4188 15.5192C15.4188 15.5192 15.2657 15.5996 15.1623 15.6416C15.0627 15.6838 14.6798 15.8714 14.764 15.9978C14.8483 16.1242 14.8406 16.1319 14.8253 16.1854C14.8253 16.1854 14.5955 16.0629 14.6798 15.8676C14.6798 15.8676 14.7143 15.791 14.81 15.6991C14.8981 15.6187 14.8483 15.7182 15.0244 15.6149C15.0244 15.6149 15.1622 15.5306 15.2389 15.4196C15.2389 15.4196 15.1431 15.477 15.1125 15.4885C15.1125 15.4885 14.9057 15.5268 14.8215 15.611C14.741 15.6991 14.5649 15.8485 14.6223 16.017C14.6223 16.017 14.4194 15.994 14.3734 15.7795C14.3734 15.7795 13.9905 16.2467 14.7908 16.4689C14.7908 16.4689 14.9364 16.5072 15.0704 16.5148H15.0665Z" fill="black"/>
<path d="M18.5738 14.9486C18.8725 14.9065 20.5957 14.6422 20.7566 14.6269C20.9251 14.6116 20.9902 14.5886 21.0477 14.7265C21.1127 14.8797 20.8102 14.8835 20.8102 14.8835L18.7538 15.1171C18.6542 15.1286 18.6312 15.0903 18.6312 15.0903L18.5547 14.9869C18.5547 14.9869 18.5278 14.9563 18.5738 14.9486Z" fill="#FFC221"/>
<path d="M14.3612 15.8868C14.3612 15.8868 14.1391 16.354 15.0122 16.4689C15.0122 16.4689 15.016 16.4191 15.0505 16.3425C15.0888 16.2697 15.1654 16.1203 15.0888 16.0246C15.0199 15.9289 15.1501 15.9787 15.1654 15.8523C15.1884 15.7297 15.1539 15.7451 15.2152 15.6647C15.2152 15.6647 14.9433 15.7642 14.8361 15.8868C14.7327 16.0055 14.9778 16.0974 14.8361 16.2314C14.8361 16.2314 14.7097 16.1855 14.637 16.0514C14.637 16.0514 14.4684 16.0552 14.3612 15.8868H14.3612Z" fill="#5A3719"/>
<path d="M15.2197 16.4612C15.2197 16.4612 15.4341 16.6488 15.6907 16.6412C15.9473 16.6297 16.0583 16.5646 16.1234 16.4612C16.1234 16.4612 16.1732 16.5378 16.1732 16.5914C16.1732 16.5914 16.3953 16.4076 16.7783 16.5684C17.1612 16.7293 17.0463 16.6833 17.1306 16.6948C17.1306 16.6948 16.9659 16.668 16.5945 16.8365C16.2115 17.0126 15.2082 16.9514 15.2159 16.4612H15.2197Z" fill="black"/>
<path d="M14.8592 15.634C14.8592 15.634 14.9549 15.6494 15.0507 15.5383C15.0507 15.5383 14.9205 15.5651 14.8592 15.634ZM14.124 16.5033C14.124 16.5033 13.944 16.3616 14.0588 16.3348C14.0588 16.3348 14.1431 16.3195 14.124 16.5033Z" fill="#5A3719"/>
<path d="M18.0527 17.3918C18.0527 17.3918 18.1523 17.2195 18.428 17.2195C18.7037 17.2195 18.7343 17.3497 19.0867 17.3727C19.0867 17.3727 18.6654 17.4875 18.3744 17.3842C18.2212 17.3267 18.0833 17.3727 18.0527 17.3918Z" fill="black"/>
<path d="M15.3115 16.5876C15.3115 16.5876 15.7289 16.8365 16.0965 16.5646C16.0965 16.5646 16.1272 16.5952 16.154 16.6603C16.154 16.6603 16.4336 16.3923 16.9314 16.6833C16.9314 16.6833 16.8701 16.6757 16.6365 16.7752C16.3302 16.9093 15.5643 16.9973 15.3115 16.5837V16.5876Z" fill="#5A3719"/>
<path d="M16.9122 16.8403C16.9122 16.8403 17.3104 16.8863 17.6435 16.8671C17.8504 16.8557 18.0763 16.8174 17.9653 16.8863C17.8504 16.9552 17.9078 16.9629 18.3826 16.9208C18.8575 16.8748 18.3788 17.0088 18.7043 17.0509C18.7043 17.0509 17.9116 17.4569 16.9121 16.8403H16.9122Z" fill="black"/>
<path d="M17.9532 16.5876C17.9532 16.5876 18.1868 16.5034 18.405 16.6029C18.6195 16.7063 18.585 16.714 18.7306 16.7293C18.7306 16.7293 18.631 16.871 18.3936 16.7561C18.1561 16.6412 18.091 16.6183 17.9532 16.5876ZM18.2136 17.3037C18.2136 17.3037 18.4433 17.1889 18.6961 17.3076C18.7268 17.3229 18.7957 17.3535 18.8608 17.365C18.8608 17.365 18.6693 17.4262 18.4702 17.365C18.3859 17.3382 18.3208 17.319 18.2136 17.3037ZM17.0801 16.894C17.0801 16.894 17.5932 16.9399 17.869 16.8863C17.869 16.8863 17.5473 17.0395 18.3553 16.9706C18.3553 16.9706 18.5314 16.9514 18.5085 16.9782C18.4893 17.005 18.474 17.028 18.5621 17.0548C18.5621 17.0548 17.9647 17.3229 17.0801 16.894Z" fill="#5A3719"/>
<path d="M14.5305 16.4612C14.5305 16.4612 14.5382 16.4995 14.6492 16.5493C14.7641 16.6029 14.8254 16.691 14.8484 16.7407C14.8658 16.776 14.8905 16.8072 14.9209 16.8323C14.9512 16.8574 14.9866 16.8758 15.0245 16.8862C15.0245 16.8862 14.6224 16.9705 14.4463 16.7599C14.4463 16.7599 14.3084 16.6105 14.5267 16.4612" fill="black"/>
<path d="M17.6813 17.384C17.6813 17.384 17.5243 17.3726 17.306 17.2998C17.0916 17.2232 17.0342 17.2883 16.9116 17.1965C16.789 17.1045 16.544 17.162 16.498 17.1696C16.4521 17.1734 16.3218 17.1696 16.4827 17.0624C16.4827 17.0624 16.3525 17.0624 16.3027 16.9935C16.3027 16.9935 16.2453 17.0509 16.0232 17.0318C16.0232 17.0318 16.1227 17.185 15.7283 17.139C15.7946 17.2164 15.8825 17.2723 15.9807 17.2996C16.0789 17.3269 16.183 17.3243 16.2797 17.2922C16.2797 17.296 16.2529 17.4147 16.4329 17.4607C16.6206 17.5066 16.655 17.5411 16.7507 17.5794C16.7507 17.5794 16.7622 17.5028 16.521 17.3266C16.521 17.3266 16.6512 17.319 16.8388 17.3649C17.0265 17.4109 17.4515 17.5181 17.6813 17.3841V17.384ZM17.7809 17.5679C17.7809 17.5679 17.8192 17.6598 17.9417 17.6368C18.0604 17.6177 18.2596 17.5832 18.451 17.679C18.451 17.679 18.4855 17.5181 18.0987 17.5066C18.0987 17.5066 17.8574 17.5181 17.7809 17.5679ZM14.5182 16.5186C14.5182 16.5186 14.3688 16.6412 14.5029 16.7675C14.6254 16.8824 14.8169 16.8748 14.9088 16.871C14.9088 16.871 14.8514 16.8403 14.8054 16.7675C14.7556 16.6948 14.7556 16.645 14.6522 16.599C14.5488 16.5531 14.5374 16.5416 14.5182 16.5186ZM14.365 15.8868C14.365 15.8868 14.1391 16.354 15.016 16.4689C15.016 16.4689 15.016 16.4191 15.0543 16.3425C15.0849 16.2697 15.1615 16.1203 15.0926 16.0246C15.016 15.9289 15.1501 15.9787 15.1692 15.8523C15.1884 15.7297 15.1539 15.7451 15.2151 15.6647C15.2151 15.6647 14.9432 15.7642 14.836 15.8868C14.7326 16.0055 14.9777 16.0974 14.836 16.2314C14.836 16.2314 14.7097 16.1855 14.6369 16.0552C14.6369 16.0552 14.4684 16.0552 14.3612 15.8868H14.365Z" fill="#5A3719"/>
<path d="M16.6592 16.9666C16.6592 16.9666 16.843 16.936 17.3102 17.1121C17.7774 17.2845 17.9727 17.2424 18.0416 17.2385C18.0416 17.2385 17.7774 17.3764 17.3714 17.1964C17.0114 17.0355 16.9885 17.0969 16.6592 16.9666Z" fill="black"/>
<path d="M19.5847 16.8633C19.5847 16.8633 19.688 16.8594 19.7531 16.8862C19.7531 16.8862 19.7914 16.8518 19.891 16.8403C19.891 16.8403 19.8259 16.779 19.5847 16.8633ZM19.263 16.6029C19.263 16.6029 19.3702 16.599 19.4047 16.5454C19.4047 16.5454 19.3473 16.4803 19.2668 16.4458C19.2668 16.4458 19.2821 16.5224 19.2668 16.6029H19.263ZM15.6786 15.4119C15.6786 15.4119 15.6557 15.3583 15.7705 15.343L17.3329 15.1171C17.3329 15.1171 17.4095 15.1171 17.421 15.1668C17.4325 15.2243 17.4134 15.2626 17.061 15.3047C16.7126 15.343 15.782 15.4617 15.782 15.4617C15.782 15.4617 15.6863 15.477 15.6786 15.4119Z" fill="#FFC221"/>
<path d="M17.0957 15.3468C17.0957 15.3468 17.0957 15.5536 17.3064 15.5843C17.5093 15.6149 17.5782 15.5728 17.6319 15.4655C17.6472 15.4349 17.7085 15.2205 17.6204 15.2051C17.5821 15.1975 17.5208 15.2051 17.4749 15.2205C17.406 15.2511 17.3408 15.2856 17.36 15.32C17.4136 15.3966 17.4213 15.4158 17.4059 15.4196C17.3523 15.4349 17.3178 15.389 17.3064 15.3583C17.2949 15.32 17.3332 15.2971 17.1992 15.32C17.1417 15.3239 17.0958 15.3239 17.0958 15.3468H17.0957Z" fill="#FFC221"/>
<path d="M17.9691 15.1899C18.0725 15.2014 18.0648 15.4273 17.9384 15.5307C17.8006 15.6417 17.6704 15.5996 17.6704 15.5996C17.5976 15.5728 17.6091 15.5804 17.6627 15.5C17.7125 15.4234 17.7393 15.32 17.7087 15.2473C17.701 15.2243 17.724 15.2052 17.7584 15.1975C17.7584 15.1975 17.858 15.1784 17.9691 15.1899Z" fill="#FFC221"/>
<path d="M18.0606 15.209C18.0606 15.209 18.1372 15.3047 18.0415 15.4808C18.0415 15.4808 17.9993 15.5345 18.0951 15.5268C18.1869 15.5191 18.4014 15.4196 18.3785 15.2894C18.3785 15.2894 18.3708 15.2587 18.3133 15.2587C18.2597 15.2626 18.3057 15.2319 18.3287 15.2204C18.3517 15.2204 18.4244 15.1898 18.2368 15.0673C18.2368 15.0673 18.2061 15.0404 18.1679 15.0519C18.141 15.0634 18.0415 15.1017 18.0415 15.163C18.0415 15.186 18.0606 15.209 18.0606 15.209Z" fill="#FFC221"/>
<path d="M18.2639 15.0482C18.2639 15.0482 18.4171 15.1554 18.4133 15.186C18.4133 15.2167 18.3979 15.2627 18.4401 15.255C18.4784 15.255 18.6392 15.2167 18.5933 15.1133C18.5511 15.0061 18.5051 14.9678 18.4324 14.9409C18.3558 14.9141 18.3367 14.9486 18.2716 14.9984C18.2716 14.9984 18.2256 15.029 18.2639 15.0482ZM17.4597 15.1975C17.4597 15.1975 17.4827 15.1209 17.3486 15.0903C17.3486 15.0903 17.4061 15.0405 17.521 15.0673C17.6321 15.0903 17.6206 15.1669 17.6206 15.1746C17.6206 15.1746 17.5325 15.1746 17.4597 15.1975ZM17.7508 15.1784C17.7508 15.1784 17.9039 15.1516 17.9729 15.1592C17.9729 15.1592 17.8963 14.9907 17.6895 15.0444C17.6895 15.0444 17.7661 15.1324 17.7508 15.1784V15.1784ZM18.015 15.1401C18.015 15.1401 18.015 15.0827 18.1452 15.0329C18.1452 15.0329 18.0839 14.9716 17.992 14.9792C17.8924 14.9831 17.8695 15.0175 17.8695 15.0175C17.8695 15.0175 17.9844 15.0597 18.015 15.1363V15.1401ZM18.0648 14.9563C18.0648 14.9563 18.149 14.9792 18.1988 15.0214C18.1988 15.0214 18.2754 14.9372 18.3405 14.9218C18.3405 14.9218 18.2141 14.8529 18.0648 14.9601V14.9563Z" fill="#FFC221"/>
<path d="M13.7829 14.5465C13.7829 14.5465 14.1429 14.2401 14.3459 14.2784C14.545 14.3167 14.4454 14.2899 14.6637 14.2554C14.8858 14.221 15.1118 14.1979 15.2037 14.2095C15.2037 14.2095 14.9355 14.018 14.4607 14.0218C14.4607 14.0218 14.1276 14.1367 13.894 14.2899C13.894 14.2899 13.4498 14.0448 12.9902 14.1903C12.9902 14.1903 13.488 14.3741 13.7829 14.5465H13.7829Z" fill="#5A3719"/>
<path d="M17.6052 15.0749L17.6665 15.0634C17.6665 15.0634 17.7661 15.1898 17.6933 15.1898C17.6359 15.1898 17.655 15.1745 17.6474 15.1362C17.6405 15.1117 17.6257 15.0901 17.6052 15.0749ZM17.1534 15.0826C17.1534 15.0826 17.1151 15.1285 17.184 15.1209C17.2683 15.1055 17.2529 15.1209 17.3411 15.0596C17.3411 15.0596 17.3985 15.0021 17.5018 15.0366C17.5018 15.0366 17.59 15.0672 17.6589 15.0328C17.7316 14.9945 17.7469 14.9983 17.7852 15.0021C17.8235 15.006 17.8235 15.0136 17.8695 14.9754C17.9231 14.9371 18.0112 14.9677 18.0648 14.9217C18.1222 14.8758 18.1912 14.9141 18.0648 14.826C18.0648 14.826 18.038 14.7992 18.0418 14.7762C18.0418 14.7762 18.0916 14.7915 18.1299 14.826C18.1682 14.8605 18.2295 14.849 18.241 14.8413C18.241 14.8413 18.2486 14.7303 18.3558 14.6269C18.4707 14.5235 18.4707 14.5158 18.4056 14.5158C18.3406 14.5158 18.2295 14.489 18.1912 14.5158C18.1529 14.5426 17.8312 14.7571 17.6397 14.7915C17.4483 14.8298 17.2759 14.8834 17.1534 15.0826ZM12.0909 13.9146C12.0909 13.9146 12.6729 14.0639 12.8031 14.1252C12.8031 14.1252 12.8337 14.0295 12.5695 13.9529C12.5695 13.9529 13.2129 13.9337 13.8907 14.2439C13.8907 14.2439 14.22 13.9605 15.277 14.0486C15.277 14.0486 15.277 13.9567 15.2846 13.8839C15.2846 13.8839 14.5455 13.861 13.8639 13.4474C13.8639 13.4474 13.2512 13.7499 12.0908 13.9146H12.0909ZM15.3267 14.1942C15.2884 13.6006 15.5144 13.5432 15.5144 13.5432C15.5144 13.5432 15.6216 13.547 15.7365 13.5661C15.7365 13.5661 15.5565 13.7806 15.6063 14.2056C15.6063 14.2056 15.6254 14.2745 15.4722 14.2745C15.3191 14.2745 15.3267 14.198 15.3267 14.198V14.1942Z" fill="#FFC221"/>
<path d="M15.4839 14.5886C15.4839 14.5886 15.369 14.4737 15.3613 14.3435C15.3613 14.3435 15.3575 14.3129 15.4685 14.3129C15.5834 14.3167 15.5949 14.3052 15.6217 14.3703C15.6485 14.4316 15.7213 14.5656 15.7366 14.5809L15.4839 14.5886Z" fill="#5A3719"/>
<path d="M15.7213 14.2899C15.7115 14.215 15.7076 14.1395 15.7098 14.064C15.7175 13.7346 15.7711 13.7614 15.7941 13.8036H15.9089C15.9089 13.8036 15.8247 13.4321 15.7251 13.6504C15.6505 13.8145 15.624 13.9964 15.6486 14.175C15.6562 14.2746 15.6677 14.3358 15.6792 14.3703L15.7213 14.2899Z" fill="#FFC221"/>
<path d="M17.0038 14.2899C17.0038 14.2899 17.2221 14.3282 16.8889 14.4047C16.8889 14.4047 16.9042 14.8107 17.2986 14.5273C17.2986 14.5273 17.5361 14.378 17.6969 14.3167C17.6969 14.3167 17.7774 14.2899 17.7697 14.2286C17.7697 14.2286 17.7774 14.152 17.6931 14.1712C17.6931 14.1712 17.6242 14.1712 17.5782 14.1559C17.5782 14.1559 17.5323 14.0984 17.5016 14.1176C17.471 14.1405 17.3944 14.129 17.4557 14.2018C17.5131 14.2707 17.5323 14.2516 17.5591 14.2325C17.5859 14.2133 17.7123 14.1635 17.5974 14.2669C17.4825 14.3703 17.3906 14.2095 17.3523 14.1788L17.0038 14.2899ZM15.9048 14.3397H15.809C15.809 14.3397 15.7554 14.4163 15.7209 14.2899L15.6826 14.3703C15.6826 14.3703 15.7975 14.8069 15.9048 14.3397Z" fill="#5A3719"/>
<path d="M15.7672 13.8342C15.7672 13.8342 15.7175 14.1214 15.7825 14.2937L16.8357 14.3167C16.8357 14.3167 16.8242 14.1137 16.8357 13.8342H16.6901C16.6901 13.8342 16.6671 14.0639 16.6901 14.2056H16.6633C16.6633 14.2056 16.6442 14.0103 16.6633 13.8342H16.5408C16.5408 13.8342 16.5216 14.0486 16.5369 14.2095H16.514C16.514 14.2095 16.4948 14.0218 16.514 13.8342H16.3953C16.3953 13.8342 16.3723 14.0256 16.3953 14.2056H16.3646C16.3646 14.2056 16.3416 14.0142 16.3646 13.8342H16.2305C16.2305 13.8342 16.1999 14.0142 16.2305 14.2095H16.2038C16.2038 14.2095 16.1731 14.0256 16.2038 13.8342H16.0697C16.0697 13.8342 16.0391 14.041 16.0697 14.2095H16.0391C16.0391 14.2095 16.02 14.0103 16.0467 13.8342H15.9204C15.9204 13.8342 15.8859 14.0065 15.9166 14.2095H15.8859C15.8859 14.2095 15.8668 14.0563 15.8936 13.8342H15.7672V13.8342ZM16.8816 14.355C16.8816 14.355 16.8548 13.8418 16.9505 13.704C17.0501 13.5738 17.0731 13.6006 17.2416 13.704C17.4101 13.815 17.6245 13.9299 17.6628 13.9414C17.6973 13.9567 17.747 13.9682 17.747 14.0639C17.747 14.1558 17.7624 14.1827 17.6168 14.0639C17.5977 14.0486 17.5287 13.9873 17.479 13.9721C17.3488 13.9299 17.5096 13.9988 17.5556 14.0678C17.5939 14.1214 17.6283 14.1176 17.525 14.1444C17.3084 14.2079 17.0938 14.2782 16.8816 14.355Z" fill="#FFC221"/>
<path d="M17.2494 13.9835C17.2494 13.9835 17.1728 13.8916 17.2723 13.8686C17.368 13.8457 17.3757 14.0218 17.3949 14.1252C17.4102 14.2324 17.2723 14.018 17.2532 13.9874L17.2494 13.9835ZM17.1115 14.4353C17.1115 14.4353 16.9966 14.4775 17.0732 14.5119C17.146 14.5502 17.3527 14.3779 17.2838 14.3894C17.2072 14.4009 17.1115 14.4353 17.1115 14.4353ZM17.2646 14.2784C17.2646 14.2784 17.3642 14.2669 17.3412 14.309C17.326 14.3549 17.2877 14.3281 17.2723 14.3167C17.257 14.309 17.1881 14.2822 17.2646 14.2784Z" fill="black"/>
<path d="M17.7968 14.1406C17.7968 14.1406 17.8236 14.3397 17.992 14.3895C17.992 14.3895 18.0916 14.4124 18.0686 14.3282C18.0686 14.3282 18.0533 14.2516 18.0419 14.2248C18.0265 14.1942 17.9576 14.175 17.9499 14.1712C17.9423 14.1712 17.9346 14.1482 17.9805 14.1635C18.0265 14.1789 18.0342 14.1827 18.0303 14.1482C18.0303 14.1137 17.9997 14.1291 17.9576 14.1099C17.9423 14.0984 17.9576 14.0869 17.9768 14.0908C17.9959 14.0946 18.038 14.1099 18.038 14.041C18.038 14.041 18.0457 14.0027 17.9959 14.0027C17.9385 13.9989 17.9423 13.972 17.9576 13.9682C17.9768 13.9682 18.0342 14.0065 18.0533 13.9376C18.0686 13.8725 17.9729 13.9108 17.9844 13.8763C17.9997 13.838 18.0686 13.8955 18.0725 13.8534C18.0801 13.8151 18.1337 13.7959 18.038 13.7806C17.9959 13.7768 18.038 13.7538 18.0878 13.7614C18.1414 13.7691 18.172 13.704 18.2026 13.681C18.2371 13.6581 18.4133 13.5547 18.1759 13.5891C17.9423 13.6236 17.8695 13.7385 17.8581 13.7614C17.7992 13.8799 17.7778 14.0135 17.7968 14.1444V14.1406Z" fill="#FFC221"/>
<path d="M18.3483 14.2937C18.3789 14.2899 18.4057 14.2937 18.4172 14.3167C18.4555 14.3971 18.3674 14.3703 18.3177 14.4278C18.2679 14.4852 18.264 14.4737 18.1951 14.4545C18.1262 14.4316 18.0994 14.3281 18.0994 14.3281C18.0917 14.2937 18.1223 14.2899 18.1568 14.2975C18.1568 14.2975 18.2717 14.309 18.3483 14.2975V14.2937ZM18.0917 14.2554C18.0917 14.2554 18.0955 14.2745 18.1377 14.2784C18.176 14.2822 18.2908 14.2937 18.3636 14.2707C18.3636 14.2707 18.3866 14.2669 18.3751 14.2209C18.3751 14.2209 18.3751 14.1903 18.3138 14.2018C18.2487 14.2133 18.1606 14.2018 18.13 14.1979C18.0994 14.1903 18.0764 14.1979 18.0917 14.2516V14.2554ZM18.084 14.1099C18.084 14.1099 18.0802 14.1712 18.1415 14.1788C18.2066 14.1864 18.2832 14.1864 18.3138 14.1788C18.3406 14.1788 18.3866 14.1673 18.3904 14.129C18.3904 14.0907 18.4019 14.0678 18.3253 14.0869C18.2486 14.106 18.1568 14.0907 18.1453 14.0869C18.1377 14.0869 18.084 14.0716 18.084 14.1099ZM18.1108 13.9835C18.1108 13.9835 18.0955 14.0141 18.0994 14.0409C18.0994 14.0678 18.1453 14.0792 18.2257 14.0792C18.3061 14.0792 18.3789 14.0678 18.3866 14.0409C18.3904 14.0103 18.4095 13.9797 18.3483 13.9912C18.2832 13.9988 18.2028 14.0026 18.1683 13.9912C18.1377 13.9758 18.1147 13.972 18.1108 13.9835Z" fill="#FFC221"/>
<path d="M21.1011 14.3014C21.1011 14.3014 21.1011 14.355 21.1432 14.4125L18.8838 14.3473C18.8838 14.3473 18.9144 14.3282 18.9221 14.2401L21.1011 14.3014Z" fill="#5A3719"/>
<path d="M18.1298 13.8916C18.1298 13.8916 18.1107 13.949 18.1489 13.9605C18.1872 13.972 18.26 13.9835 18.3519 13.9682C18.3519 13.9682 18.3979 13.9682 18.4132 13.9222C18.4323 13.8724 18.4285 13.8993 18.2983 13.8763C18.2983 13.8763 18.26 13.8609 18.3749 13.8609C18.3749 13.8609 18.4438 13.8609 18.4515 13.8533C18.463 13.8418 18.551 13.7691 18.4361 13.7767C18.3213 13.7767 18.3787 13.7537 18.4361 13.7537C18.4974 13.7537 18.5127 13.7691 18.5319 13.7499C18.551 13.7307 18.5319 13.7422 18.5013 13.7116C18.4706 13.6809 18.4936 13.6886 18.5166 13.7077C18.5396 13.7231 18.5549 13.7307 18.5779 13.7077C18.6047 13.6848 18.5587 13.6503 18.5779 13.6542C18.597 13.658 18.6085 13.6963 18.6813 13.6618C18.7578 13.6235 18.8574 13.6427 18.8842 13.6618C18.911 13.6848 18.9876 13.7116 19.0374 13.6618C19.0833 13.6159 18.9799 13.5737 19.022 13.5699C19.068 13.5622 19.0986 13.5776 19.114 13.5431C19.1331 13.5048 19.0451 13.4742 19.1293 13.4512C19.2097 13.4282 19.1408 13.1984 19.114 13.1793C19.114 13.1793 19.0221 13.2329 18.9225 13.3937C18.8191 13.5584 18.7617 13.6542 18.6238 13.6044C18.4323 13.5278 18.3289 13.635 18.2983 13.6542C18.2524 13.681 18.3979 13.6925 18.3098 13.6963C18.2255 13.6963 18.2255 13.7077 18.2179 13.7192C18.2102 13.7308 18.2179 13.7422 18.2332 13.746C18.2485 13.746 18.2791 13.7767 18.2294 13.7767C18.1758 13.7767 18.1375 13.7652 18.1528 13.8226C18.1528 13.8226 18.1528 13.8341 18.1834 13.838C18.2141 13.838 18.2255 13.8763 18.1681 13.8763C18.1298 13.8763 18.1298 13.8877 18.1298 13.8916H18.1298ZM18.3366 14.4583C18.3366 14.4583 18.2983 14.4852 18.3519 14.489C18.4093 14.489 18.4362 14.5043 18.4553 14.4736C18.4745 14.443 18.5472 14.4545 18.4974 14.4124C18.4476 14.3741 18.4132 14.3971 18.3366 14.4583Z" fill="#FFC221"/>
<path d="M18.5706 13.7768C18.5706 13.7768 18.7621 13.6006 18.9153 13.7193C19.0761 13.8419 19.0876 13.8572 19.0914 13.861C19.0914 13.861 19.1106 13.8763 19.0685 13.9146C19.0263 13.9529 19.0685 13.9529 19.1144 13.9261C19.1603 13.9031 19.1642 13.9261 19.1871 13.9529C19.2101 13.9759 19.2408 13.9912 19.168 13.9912H18.9382C18.9382 13.9912 18.8348 14.0027 18.8885 13.9568C18.9382 13.9146 18.9306 13.8648 18.9038 13.861C18.877 13.8572 18.9038 13.8878 18.8885 13.9069C18.8693 13.9262 18.8348 13.9453 18.7966 13.9453C18.7583 13.9453 18.7276 13.972 18.7851 13.9912C18.8425 14.0142 18.7774 14.0295 18.7468 14.0295C18.7161 14.0295 18.5706 14.0372 18.72 14.0563C18.8693 14.0755 18.7047 14.0716 18.8157 14.1329C18.9382 14.2018 18.8502 14.3474 18.8042 14.3627C18.8042 14.3627 18.7544 14.3895 18.8157 14.3818C18.8808 14.3741 18.9153 14.3665 18.8693 14.401C18.8272 14.4355 18.7353 14.5465 18.6127 14.4622C18.6127 14.4622 18.5553 14.4355 18.6549 14.4278C18.7582 14.4239 18.5744 14.401 18.54 14.3818C18.5132 14.3627 18.3944 14.244 18.4672 14.2555C18.5438 14.2708 18.517 14.2286 18.471 14.2133C18.4289 14.198 18.4213 14.1329 18.471 14.1444C18.517 14.1597 18.5744 14.1865 18.6166 14.1827C18.6549 14.1827 18.6434 14.1674 18.5591 14.1444C18.4749 14.1138 18.4404 14.1099 18.4596 14.041C18.4787 13.9682 18.5744 14.0678 18.5514 14.0142C18.5285 13.9606 18.4481 13.9874 18.4902 13.9185C18.5323 13.8496 18.5438 13.8802 18.563 13.8878C18.5821 13.8955 18.6127 13.8878 18.5591 13.8495C18.5208 13.8227 18.5591 13.7844 18.5706 13.7768Z" fill="#FFC221"/>
<path d="M18.7041 13.8265C18.7041 13.8265 18.7041 13.8035 18.7424 13.8074C18.773 13.8074 18.7654 13.7958 18.773 13.7882C18.7845 13.7882 18.8688 13.815 18.7883 13.8418C18.7615 13.8533 18.7117 13.8456 18.7079 13.8265H18.7041Z" fill="black"/>
<path d="M18.8878 14.0256C18.8878 14.0256 18.8227 14.0601 18.8801 14.1252C18.9299 14.1827 18.9299 14.2018 18.9261 14.2401C18.9222 14.2784 21.1012 14.3014 21.1012 14.3014C21.1012 14.3014 21.0974 14.1597 21.1893 14.0793L18.8878 14.0256Z" fill="#FFC221"/>
<path d="M21.1357 14.2631C21.1357 14.2631 21.1472 14.1443 21.2123 14.106C21.2506 14.0831 21.2965 14.0946 21.3157 14.1903C21.3463 14.3243 21.2314 14.443 21.1778 14.3894C21.1281 14.3396 21.1395 14.263 21.1395 14.263L21.1357 14.2631Z" fill="#5A3719"/>
<path d="M18.6386 14.7724C18.6386 14.7724 18.7841 14.646 18.8071 14.5924C18.8071 14.5924 19.1977 14.8719 19.1747 14.6153C19.1747 14.6153 19.1747 14.5464 19.1862 14.4813C19.1862 14.4813 19.3279 14.4967 19.3509 14.3818L18.9833 14.3703C18.9833 14.3703 18.945 14.3626 18.8875 14.4239C18.8339 14.4852 18.7152 14.5502 18.608 14.4928C18.608 14.4928 18.562 14.4545 18.5161 14.489C18.4663 14.5196 18.4663 14.5273 18.5046 14.5656C18.5429 14.6039 18.6233 14.7111 18.6386 14.7724ZM19.4811 14.0026L19.2667 13.995C19.2667 13.995 19.1901 13.8839 19.0369 13.7652C19.0369 13.7652 18.9909 13.7423 19.0752 13.6733C19.1633 13.6044 19.1901 13.5316 19.1901 13.4971C19.1939 13.4665 19.1901 13.4129 19.2207 13.4512C19.2513 13.4895 19.4734 13.6925 19.5079 13.635C19.5385 13.5737 19.5462 13.5469 19.5462 13.5278C19.5539 13.5086 19.5615 13.4551 19.5922 13.5125C19.6266 13.5699 19.6458 13.5546 19.6496 13.704C19.6496 13.704 19.6534 13.8571 19.6764 13.9069C19.6764 13.9069 19.3969 13.8188 19.485 14.0026H19.4811ZM18.5505 13.5431C18.5505 13.5431 18.7152 13.6388 18.7956 13.5125C18.8722 13.3899 18.9297 13.3708 18.8684 13.2482C18.8071 13.1334 18.8684 13.0759 18.9143 13.0261C18.9641 12.9764 19.0024 12.9878 19.0062 12.7964C19.0139 12.6049 19.1441 12.5436 19.2054 12.4823C19.2628 12.4249 19.4122 12.3368 19.1862 12.2986C18.9641 12.2603 18.5161 12.1454 18.4012 11.9731C18.2863 11.7969 18.2327 11.9003 18.2327 11.9079C18.2327 11.9156 18.1944 12.042 18.3093 12.2717C18.4242 12.5015 18.5199 12.6509 18.6348 12.7236C18.7459 12.8002 18.8454 12.8385 18.788 12.9916C18.7305 13.1448 18.6348 13.4206 18.5505 13.5469V13.5431Z" fill="#7B3C20"/>
<path d="M19.1563 13.0568C19.1563 13.0568 19.1831 13.4512 19.4703 13.5929C19.4703 13.5929 19.5354 13.4397 19.5086 13.2866C19.5086 13.2866 19.6044 13.2942 19.6312 13.3363C19.6312 13.3363 19.6312 13.2215 19.501 13.1793C19.3631 13.1411 19.4282 12.8806 19.478 12.8538C19.5239 12.8232 19.5086 12.7696 19.478 12.7236C19.4435 12.6777 19.4397 12.6087 19.5507 12.6394C19.6656 12.6662 19.6465 12.6087 19.5775 12.5513C19.5086 12.4977 19.5124 12.4287 19.6082 12.4287C19.704 12.4287 19.8647 12.333 19.769 12.3062C19.6733 12.2756 19.6427 12.2449 19.769 12.2067C19.9031 12.1684 19.9682 12.1224 19.8686 12.1109C19.769 12.0994 19.7039 12.065 19.7997 12.0497C19.8954 12.0305 19.7844 11.9348 19.6733 11.9309C19.5584 11.9233 19.321 11.9692 19.5086 11.8161C19.7001 11.6667 19.2406 11.7777 19.4282 11.6782C19.6197 11.5786 19.3631 11.6208 19.3286 11.6208C19.2942 11.6208 19.2942 11.6208 19.3095 11.571C19.321 11.5212 19.2827 11.4944 19.2252 11.5288C19.1717 11.5595 19.1717 11.5595 19.1755 11.4905C19.1755 11.4178 19.1103 11.4714 19.0682 11.4905C19.0261 11.5059 18.9227 11.5863 18.8768 11.5442C18.8385 11.4982 18.8155 11.456 18.6853 11.5327C18.5551 11.6093 18.5857 11.5442 18.5896 11.5097C18.5896 11.4714 18.6393 11.3374 18.4632 11.4829C18.287 11.6284 18.4287 11.3297 18.2909 11.4293C18.153 11.5327 18.1377 11.5518 18.1147 11.5059C18.0917 11.4599 18.0649 11.4216 17.9117 11.5212C17.7586 11.6169 17.8735 11.4599 17.8926 11.4254C17.9155 11.391 17.9807 11.1689 17.8466 11.345C17.8466 11.345 17.7815 11.4637 17.636 11.2493C17.636 11.2493 17.4828 11.4637 17.4407 11.368C17.4024 11.2722 17.3642 11.2646 17.3105 11.3259C17.2607 11.3871 17.299 11.322 17.2761 11.2684C17.2531 11.2187 17.2416 11.1229 16.985 11.3067C16.7284 11.4982 17.0731 11.3603 16.8778 11.4446C16.6824 11.5288 16.2077 11.7969 16.6404 11.7357C17.0769 11.6743 16.4297 11.9041 16.5791 11.9463C16.7323 11.9884 16.6825 12.1224 17.2493 11.9654C17.8122 11.8122 17.7203 11.9424 18.0113 11.816C18.2985 11.6935 17.9424 11.8582 18.3291 11.8543C18.7159 11.8429 18.3943 11.8543 18.4708 11.9309C18.5474 12.0114 18.8729 12.199 19.1755 12.2335C19.4818 12.2641 19.5584 12.1492 19.4703 12.2832C19.3823 12.4135 19.3516 12.4632 19.298 12.513C19.2482 12.5551 19.1027 12.6624 19.0989 12.8423C19.0989 13.0262 18.8614 13.0568 18.9457 13.2597L19.1563 13.0568Z" fill="#5A3719"/>
<path d="M19.6573 13.4972C19.6573 13.4972 19.5884 13.4474 19.5884 13.3594C19.5884 13.3594 19.6381 13.367 19.6573 13.3976C19.6573 13.3976 19.8335 13.2023 19.619 13.1296C19.4122 13.0568 19.5156 12.8654 19.5884 12.8654C19.6611 12.8654 19.6726 12.8462 19.6113 12.7658C19.5501 12.6892 19.5577 12.6815 19.6765 12.6624C19.7913 12.6432 19.7798 12.6165 19.7262 12.5858C19.6904 12.5656 19.6581 12.5397 19.6305 12.5092C19.6305 12.5092 19.9675 12.3637 19.8603 12.2948C19.7492 12.2296 19.8603 12.245 19.956 12.176C20.0556 12.1071 20.0708 12.0918 20.0824 12.065C20.0824 12.065 19.9867 12.0765 19.9139 12.065C19.9139 12.065 19.9981 12.019 19.9139 11.9501C19.8296 11.8812 19.799 11.8199 19.6611 11.8505C19.5271 11.885 19.5731 11.839 19.6229 11.7855C19.6764 11.728 19.6535 11.6973 19.5577 11.682C19.5577 11.682 19.5692 11.6246 19.642 11.5557C19.642 11.5557 19.4582 11.5672 19.3969 11.5365C19.3969 11.5365 19.4735 11.4867 19.4735 11.4255C19.4735 11.4255 19.3739 11.4599 19.2475 11.4484C19.2475 11.4484 19.3241 11.3834 19.3241 11.3259C19.3241 11.3259 19.102 11.3757 19.0025 11.4523C19.0025 11.4523 18.9795 11.4484 18.9642 11.4255C18.945 11.4025 18.9335 11.3757 18.6885 11.4523C18.6885 11.4523 18.7153 11.3451 18.7765 11.2991C18.834 11.2608 18.8263 11.1727 18.4472 11.4102C18.4472 11.4102 18.3974 11.3795 18.3553 11.2646C18.3553 11.2646 18.271 11.3795 18.2098 11.4178C18.2098 11.4178 18.1561 11.4408 18.1638 11.368C18.1715 11.2914 18.1255 11.3451 18.0872 11.368C18.0489 11.3872 18.0221 11.4408 18.0413 11.2914C18.0605 11.1421 17.9877 11.1114 17.9877 11.1114C17.9877 11.1114 17.8728 11.28 17.8038 11.2991C17.8038 11.2991 17.6813 11.1765 17.6354 11.0961C17.5932 11.0196 17.5932 10.9889 17.5472 11.1268C17.5051 11.2646 17.4515 11.2761 17.4515 11.2761C17.4515 11.2761 17.375 11.211 17.3673 11.1766C17.3673 11.1766 17.3558 11.2148 17.329 11.2302C17.329 11.2302 17.2639 11.1536 17.2677 11.0425C17.2677 11.0425 16.8618 11.2685 16.8082 11.4025C16.8082 11.4025 16.4252 11.3795 16.2682 11.4101C16.2682 11.4101 16.3065 11.2876 16.4061 11.2225C16.4061 11.2225 16.3065 11.211 16.3027 11.1076C16.3027 11.1076 16.3831 11.1191 16.4329 11.1076C16.4827 11.0961 16.364 10.9506 16.4903 10.9468C16.6167 10.943 16.6972 11.008 16.6435 10.8396C16.5861 10.6711 16.6091 10.6711 16.6091 10.6711C16.6091 10.6711 16.8312 10.8013 16.8656 10.7668C16.9039 10.7362 16.8388 10.6673 17.0341 10.6979C17.2294 10.7323 17.1758 10.6213 17.2524 10.6136C17.329 10.6098 17.3673 10.6634 17.3213 10.3073C17.2753 9.9511 17.5588 10.4834 17.3635 9.9473C17.3635 9.9473 17.3175 9.78263 17.1988 9.71372C17.1988 9.71372 17.172 9.82857 17.0418 9.729C16.9077 9.62564 16.6512 9.58735 16.7584 9.50691C16.8695 9.42268 16.9192 9.31543 16.8886 9.24652C16.8886 9.24652 16.7584 9.38058 16.5363 9.28482C16.3601 9.20822 16.3218 9.34608 16.1419 9.30778C16.1419 9.30778 16.1419 9.26185 16.2951 9.13927C16.4482 9.02058 16.2069 9.17757 16.1151 9.20053C16.0193 9.2235 15.9925 9.20438 16.1917 9.04739C16.3908 8.89421 16.789 8.62228 16.7354 8.39635C16.7354 8.39635 16.8273 8.51508 17.0762 8.427C17.3213 8.34277 17.5051 8.31216 17.5779 8.18194C17.6545 8.05557 17.846 7.92919 17.8957 7.89853C17.9494 7.87172 18.0145 7.8526 17.9379 7.97513C17.8613 8.09386 17.7388 8.30063 17.3979 8.44233C17.0571 8.58403 16.9269 8.6836 16.8656 8.76014C16.8044 8.83294 16.4942 8.99761 16.6972 8.9708C16.8963 8.94014 17.2448 8.9708 17.0801 8.92486C16.9193 8.87893 16.7355 8.95547 16.8848 8.81761C17.0341 8.68355 17.061 8.63761 17.2792 8.54574C17.4975 8.45382 17.7388 8.24321 17.7157 8.46914C17.689 8.68739 17.283 8.92482 17.1835 8.99761C17.0839 9.07036 17.1222 9.05888 17.1222 9.08569C17.1222 9.1163 17.1069 9.17757 17.0647 9.20053C17.0265 9.23119 17.0379 9.26185 17.0495 9.32311C17.061 9.38818 17.0379 9.41119 17.0686 9.42268C17.0992 9.43032 17.1299 9.43416 17.1375 9.4801C17.149 9.52603 17.172 9.52988 17.2294 9.52603C17.2869 9.51839 17.3252 9.52603 17.329 9.56053C17.3328 9.59499 17.3903 9.64093 17.3941 9.53757C17.4017 9.43032 17.4401 9.41119 17.3328 9.46097C17.2256 9.50691 17.2026 9.49158 17.2065 9.4418C17.2065 9.39202 17.195 9.4035 17.1528 9.39971C17.1069 9.39586 17.0916 9.3308 17.172 9.28861C17.2486 9.25032 17.2486 9.28861 17.3482 9.20822C17.4477 9.12399 17.4477 9.10482 17.463 9.06268C17.4783 9.02438 17.3213 9.17757 17.2447 9.21207C17.1682 9.24652 17.1911 9.18525 17.2065 9.10097C17.2179 9.01674 17.4056 8.90185 17.4898 8.90185C17.5779 8.90185 17.7694 8.95163 17.689 9.07036C17.6047 9.18521 17.3673 9.32691 17.4668 9.33839C17.5703 9.34608 17.5856 9.30778 17.6468 9.35757C17.7043 9.41119 17.6468 9.51839 17.6239 9.57586C17.597 9.62915 17.5592 9.67613 17.5128 9.71368C17.5128 9.71368 17.4056 9.52224 17.4094 9.67543C17.4094 9.82857 17.3865 9.88219 17.4094 9.88603C17.4324 9.89367 17.5511 9.97411 17.5894 9.97411C17.6277 9.97411 17.3826 10.089 17.486 10.0966C17.5894 10.1043 17.754 10.0507 17.8077 9.94346C17.8077 9.94346 17.5971 9.89368 17.5166 9.81708C17.5166 9.81708 17.7579 9.75966 17.689 9.52608C17.689 9.52608 17.934 9.59114 17.8268 9.70219C17.7234 9.80944 17.6583 9.79411 17.7502 9.82477C17.8421 9.85538 17.8843 9.88219 17.8843 9.88219C17.8843 9.88219 17.9494 9.91285 17.9111 9.96263C17.8728 10.0162 17.8728 10.0928 17.9072 10.089C17.934 10.089 18.0375 10.0392 17.9532 9.98944C17.8651 9.93582 18.0489 9.9473 17.9723 9.90132C17.8957 9.85538 17.8728 9.84774 17.8536 9.82477C17.8306 9.8056 18.8378 9.21207 18.3285 9.43416C18.3285 9.43416 18.4357 9.20438 18.585 9.20438C18.7306 9.20438 18.7421 9.31927 18.6616 9.41119C18.5736 9.49927 18.5199 9.64093 18.3246 9.67158C18.3246 9.67158 18.6042 9.80939 18.271 10.0354C18.271 10.0354 18.1983 10.0698 18.2251 10.0928C18.2519 10.1196 18.451 10.0086 18.4778 9.94346C18.5047 9.88219 18.5467 9.82861 18.6233 9.79411C18.6999 9.75582 19.0714 9.50307 19.1825 9.31163C19.2973 9.12014 19.3241 9.1163 19.5424 8.94014C19.7607 8.76399 19.7224 8.79844 19.753 8.75635C19.7798 8.71421 19.7913 8.64146 19.8909 8.58783C19.9905 8.53041 20.3811 8.31596 20.5036 8.22783C20.6262 8.1398 20.8751 7.97513 20.9823 7.83727C21.0895 7.70321 21.3806 7.5271 21.4533 7.55771C21.5261 7.59221 21.4456 7.69557 21.2772 7.82578C21.1049 7.95216 20.6836 8.29299 20.6147 8.34657C20.4453 8.48295 20.257 8.5939 20.0556 8.67591C19.9215 8.69508 19.9369 8.74102 19.8564 8.8291C19.776 8.91718 19.5884 9.09718 19.5271 9.14691C19.4658 9.20053 19.3165 9.30014 19.3088 9.37285C19.3012 9.44564 19.3356 9.45328 19.2169 9.56433C19.0982 9.67922 18.7497 9.93197 18.6195 9.97027C18.6195 9.97027 18.8454 10.0469 18.7114 10.2001C18.5774 10.3494 18.585 10.3264 18.5774 10.3379C18.5774 10.3379 18.9144 10.2843 18.677 10.5524C18.677 10.5524 18.6272 10.629 18.7344 10.5485C18.8493 10.4604 18.8033 10.3456 18.788 10.3302C18.788 10.3302 18.968 10.2154 19.1786 10.2154C19.3854 10.2115 19.3778 10.1962 19.1901 10.1426C19.1901 10.1426 19.3242 9.9818 19.4352 10.0622C19.5501 10.1388 19.5118 10.1886 19.3969 10.2537C19.2743 10.3149 19.102 10.3379 18.9718 10.4107C18.9718 10.4107 19.2169 10.4604 19.3509 10.357C19.4812 10.2575 19.4888 10.3073 19.5041 10.3264C19.5232 10.3456 19.5386 10.3762 19.4812 10.4605C19.4199 10.5447 19.416 10.5485 19.4199 10.5677C19.4199 10.5868 19.4122 10.6442 19.2935 10.6634C19.1786 10.6825 19.1212 10.7323 19.1633 10.7898C19.2016 10.8472 19.2016 10.9851 19.102 10.9736C19.0025 10.9583 19.0254 10.8779 18.9872 10.8472C18.9488 10.8166 18.8952 10.7706 18.7191 10.8587C18.5391 10.9506 18.5276 10.8434 18.5353 10.7821C18.5353 10.7821 18.4204 10.8855 18.3247 10.7936C18.2289 10.6979 18.3132 10.6634 18.3706 10.6175C18.4242 10.5715 18.6502 10.4719 18.5161 10.4911C18.3783 10.5064 18.1791 10.5141 18.1332 10.4145C18.0834 10.3073 18.2327 10.3187 18.2557 10.3302C18.2787 10.3379 18.3706 10.4145 18.3783 10.3149C18.3783 10.2115 18.5314 10.2001 18.4778 10.1809C18.4281 10.1618 18.3553 10.2268 18.3361 10.2498C18.3361 10.2498 18.2327 10.1043 18.0643 10.1503C17.8957 10.2001 18.1178 10.1809 18.16 10.1886C18.2059 10.1962 18.1792 10.2804 18.0298 10.4183C17.8766 10.5524 17.9455 10.5102 18.0566 10.5102C18.1715 10.5102 18.4472 10.5102 18.2864 10.6404C18.1255 10.7745 18.0604 10.8396 17.98 10.8166C17.8957 10.7936 17.9877 10.74 18.0259 10.7132C18.0643 10.6902 18.0834 10.6519 18.003 10.6825C17.9264 10.7093 17.8996 10.717 17.8345 10.606C17.7732 10.4911 17.7962 10.5294 17.8268 10.4528C17.8536 10.38 17.9149 10.3035 17.8421 10.3302C17.7655 10.357 17.7732 10.3609 17.7809 10.2766C17.7847 10.1924 17.6966 10.1732 17.6966 10.1732C17.6966 10.1732 17.7349 10.2575 17.7005 10.3111C17.6698 10.3647 17.666 10.3838 17.7196 10.3953C17.7732 10.4107 17.823 10.4566 17.7502 10.5064C17.6775 10.5524 17.689 10.5447 17.7311 10.5753C17.777 10.606 17.846 10.6404 17.7732 10.7094C17.7043 10.7783 17.7617 10.7553 17.7962 10.7553C17.8345 10.7553 17.911 10.7859 17.911 10.8549C17.911 10.92 17.9073 10.9353 18.0221 10.874C18.137 10.8089 18.3592 10.8166 18.3592 10.9047C18.3553 10.9928 18.3285 11.0195 18.451 10.943C18.5697 10.8664 18.6233 11.0119 18.7076 10.943C18.788 10.8702 18.8416 10.8013 18.9374 10.9238C19.0331 11.0425 19.0025 11.077 18.8876 11.1651C18.7727 11.2493 18.945 11.1842 19.0331 11.1383C19.1212 11.0923 19.3701 11.0617 19.5118 11.1268C19.6535 11.188 19.6956 11.1766 19.799 11.1306C19.9062 11.0885 19.9598 11.077 20.1168 11.1842C20.2777 11.2914 20.4002 11.3106 20.4845 11.3068C20.4845 11.3068 20.3083 11.3757 20.1092 11.3872C19.9101 11.4025 19.8105 11.4369 19.7722 11.4676C19.7722 11.4676 19.8909 11.5442 19.9139 11.6284C19.9139 11.6284 20.0441 11.6131 20.1053 11.6361C20.1053 11.6361 20.0747 11.7318 20.1551 11.7816C20.2356 11.8314 20.2892 11.8505 20.2317 11.9194C20.1705 11.9884 20.3236 11.9578 20.2356 12.0535C20.1513 12.153 20.1283 12.199 20.1245 12.2794C20.1245 12.356 20.1437 12.3675 20.067 12.3752C19.9905 12.3828 20.0785 12.4709 20.0441 12.5743C20.0096 12.6739 19.7952 12.6624 19.8028 12.9381C19.8028 12.9381 19.8641 12.804 19.9943 12.6854C20.1207 12.5705 20.1245 12.559 20.1207 12.4862C20.1207 12.4173 20.113 12.4326 20.1819 12.379C20.247 12.3254 20.1513 12.2756 20.2202 12.199C20.2853 12.1224 20.2279 12.1378 20.3083 12.0612C20.3849 11.9846 20.2356 11.9769 20.3198 11.8965C20.3964 11.8199 20.1207 11.7241 20.205 11.6744C20.2815 11.6246 20.4194 11.5518 19.956 11.5595C19.956 11.5595 20.0671 11.3757 20.4577 11.414C20.4577 11.414 20.3581 11.4906 20.3466 11.5595C20.3466 11.5595 20.3925 11.5825 20.4232 11.5901C20.4232 11.5901 20.404 11.6438 20.3313 11.705C20.3313 11.705 20.538 11.8199 20.5725 11.8927C20.5725 11.8927 20.4462 11.931 20.4117 11.9845C20.4117 11.9845 20.4691 12.0497 20.4883 12.1301C20.4883 12.1301 20.3466 12.1148 20.3274 12.2182C20.3083 12.3254 20.2662 12.2526 20.2662 12.3139C20.2662 12.3751 20.27 12.402 20.2202 12.4135C20.1705 12.4211 20.2126 12.4748 20.2202 12.5092C20.2279 12.5437 20.247 12.6241 20.2394 12.647C20.2394 12.647 20.1666 12.647 20.1322 12.6586C20.1322 12.6586 20.1551 12.8117 20.0709 12.8309C19.9867 12.8538 20.1168 12.8845 20.025 12.8998C19.9368 12.9151 19.9484 12.9228 19.8373 13.122C19.8373 13.122 19.933 13.0683 20.0287 13.0032C20.1283 12.9381 20.0211 12.9573 20.1819 12.8003C20.3428 12.6394 20.316 12.6279 20.3007 12.5475C20.2891 12.4671 20.2853 12.402 20.3428 12.3254C20.404 12.2488 20.4194 12.1607 20.63 12.1722C20.63 12.1722 20.5687 12.0344 20.4922 11.9999C20.4922 11.9999 20.5917 11.931 20.6951 11.9233C20.6951 11.9233 20.6032 11.8084 20.4155 11.705C20.4155 11.705 20.5687 11.571 20.607 11.5097C20.607 11.5097 20.5342 11.5212 20.4768 11.5097C20.4768 11.5097 20.5036 11.4446 20.6453 11.3527C20.6453 11.3527 20.7219 11.4255 20.7142 11.4982C20.7142 11.4982 20.9555 11.3642 21.0895 11.3795C21.0895 11.3795 21.1584 11.548 20.8253 11.8735C20.8253 11.8735 21.0321 11.8927 21.1201 11.8812C21.1201 11.8812 21.0704 12.0382 20.8215 12.1301C20.5725 12.2258 20.8751 12.3369 20.6185 12.3177C20.3657 12.2986 20.4423 12.3828 20.45 12.5131C20.4577 12.6432 20.4653 12.7773 20.4615 12.8117C20.4615 12.8117 20.2585 12.7466 20.2624 12.9419C20.2662 13.1411 20.1551 13.1832 20.136 13.1985C20.136 13.1985 20.0747 13.1487 19.9867 13.1143C19.9867 13.1143 19.8603 13.3555 19.6573 13.4972V13.4972Z" fill="#5A3719"/>
<path d="M19.367 11.0272C19.367 11.0272 19.4359 11.0157 19.5547 11.0885C19.6695 11.1651 19.7845 11.0119 19.6581 10.9737C19.524 10.9353 19.6581 10.8855 19.7729 10.9813C19.8955 11.077 19.9414 11.0272 19.9836 10.9966C20.0257 10.9621 20.0793 10.943 19.9989 10.8894C19.9185 10.832 20.0525 10.8587 20.1138 10.9009C20.1751 10.9392 20.1521 10.9775 20.1444 10.9889C20.1329 11.0004 20.1291 11.1306 20.2478 11.0119C20.3665 10.8894 20.4278 10.7706 20.424 10.7132C20.424 10.7132 20.4891 10.7515 20.5006 10.8281C20.5082 10.9047 20.6001 10.7898 20.6307 10.7477C20.6614 10.7094 20.7112 10.6022 20.7073 10.5256C20.7073 10.5256 20.7839 10.652 20.9065 10.5256C21.0252 10.403 20.9754 10.4796 21.1171 10.4413C21.2626 10.403 21.4426 10.2996 21.5383 10.1809C21.6379 10.0584 21.6456 10.1426 21.7719 10.112C21.8982 10.0814 22.1549 9.90519 22.1779 9.80562C22.2008 9.71375 22.197 9.65244 22.1625 9.68694C22.1242 9.71754 22.1396 9.69073 22.0859 9.66012C22.0285 9.62183 21.9481 9.70222 21.9481 9.70222C21.9481 9.70222 22.0285 9.76353 21.9672 9.79034C21.906 9.81711 21.8524 9.90518 21.7336 9.86689C21.6188 9.83628 21.4962 9.97798 21.4962 9.97798C21.4962 9.97798 21.5996 10.0584 21.4617 10.112C21.3277 10.1656 21.3469 10.1809 21.2665 10.1235C21.2665 10.1235 21.1209 10.3073 21.0367 10.3456C21.0367 10.3456 20.9984 10.3456 20.9754 10.3073C20.9754 10.3073 20.8797 10.4145 20.8337 10.4337C20.8337 10.4337 20.7724 10.3801 20.7189 10.3571C20.7189 10.3571 20.6039 10.5026 20.5082 10.5447C20.5082 10.5447 20.4814 10.4911 20.4201 10.4566C20.4201 10.4566 20.3895 10.6405 20.1904 10.7477C20.1904 10.7477 20.2018 10.7017 20.1023 10.6328C20.1023 10.6328 19.8534 10.8472 19.7577 10.8702C19.6581 10.8894 19.7462 10.8243 19.7577 10.7937C19.773 10.7668 19.8342 10.6788 19.7155 10.6405C19.5968 10.6022 19.6159 10.6673 19.5891 10.6788C19.5623 10.6902 19.5623 10.6558 19.4781 10.6673C19.4015 10.6788 19.413 10.7132 19.3785 10.7285C19.3402 10.74 19.2024 10.7056 19.21 10.7975C19.2177 10.8893 19.2828 10.9545 19.1602 11.0081C19.0377 11.0617 19.2062 11.0502 19.367 11.0272Z" fill="#7B3C20"/>
<path d="M19.8686 10.7668C19.8686 10.7668 19.8993 10.6442 19.7959 10.5906C19.7959 10.5906 20.4545 10.4872 19.9567 10.2345C19.9567 10.2345 20.5503 10.1158 20.4086 9.9281C20.2707 9.73666 20.1329 9.77496 20.1138 9.7826C20.0946 9.7826 20.2401 9.6715 20.2784 9.68688C20.3167 9.70216 20.7916 9.88216 20.669 9.72518C20.5503 9.57199 20.5579 9.57963 20.5388 9.53369C20.5388 9.53369 20.6959 9.53369 20.9332 9.76347C20.9332 9.76347 20.983 9.71369 20.9792 9.61793C20.9792 9.61793 21.1477 9.66771 21.2013 9.71749C21.2013 9.71749 21.2281 9.66007 21.2166 9.62561C21.2166 9.62561 21.366 9.70216 21.4158 9.78639C21.4158 9.78639 21.4809 9.72897 21.4924 9.66007C21.4924 9.66007 21.6379 9.72133 21.6761 9.76727C21.6761 9.76727 21.7259 9.70216 21.7068 9.61413C21.7068 9.61413 21.948 9.68304 21.9825 9.53754C21.9825 9.53754 22.2237 9.58732 22.0668 9.68304C21.8638 9.80557 22.0476 9.65238 21.837 9.79788C21.6762 9.91282 21.5842 10.043 21.5076 10.0162C21.4502 9.99321 21.3813 10.1617 21.3047 10.0813C21.2281 9.99705 21.2281 10.0353 21.1706 10.1196C21.1171 10.2039 21.029 10.2919 21.029 10.2919C21.029 10.2919 20.9907 10.269 20.9524 10.2345C20.9524 10.2345 20.9103 10.3111 20.849 10.3723C20.849 10.3723 20.7992 10.3072 20.7226 10.2689C20.7226 10.2689 20.6039 10.4068 20.5311 10.4566C20.5311 10.4566 20.4584 10.3877 20.3856 10.3647C20.3856 10.3647 20.3741 10.5523 20.2286 10.6481C20.2286 10.6481 20.198 10.5868 20.1022 10.5485C20.1022 10.5485 20.0295 10.6633 19.8725 10.7629L19.8686 10.7668Z" fill="#5A3719"/>
<path d="M19.524 10.4758C19.524 10.4758 19.4436 10.537 19.4934 10.6021C19.547 10.671 19.5508 10.5906 19.6159 10.5868C19.681 10.5792 20.489 10.4413 19.7576 10.223C19.7576 10.223 19.7882 10.1924 19.9108 10.1847C20.041 10.1694 20.5005 10.0469 20.2861 9.88218C20.0716 9.72135 19.8916 9.93965 20.0716 9.74437C20.2171 9.58734 20.1022 9.51074 20.1022 9.51074C20.1022 9.51074 19.6772 9.7941 19.5814 9.84773C19.4896 9.89751 19.3517 10.0009 19.5125 10.0507C19.6733 10.1005 19.7806 9.87834 19.7959 9.92812C19.8112 9.97795 19.4742 10.1656 19.524 10.2498C19.57 10.3379 19.5623 10.4106 19.6427 10.3915C19.7269 10.3762 19.9491 10.4336 19.7691 10.4298C19.5853 10.4221 19.524 10.4758 19.524 10.4758Z" fill="#5A3719"/>
<path d="M19.8143 10.0698C19.8143 10.0698 19.7377 10.1234 19.8372 10.0966C19.9368 10.0698 20.1321 10.0277 20.0977 9.97791C20.0594 9.92428 19.9292 9.98555 19.8143 10.0698Z" fill="black"/>
<path d="M21.1133 9.22731C21.1133 9.22731 21.4885 9.21583 21.6417 9.32308C21.7949 9.42644 21.8715 9.49539 21.9174 9.51072C21.9174 9.51072 21.9098 9.65237 21.6685 9.54901C21.6685 9.54901 21.6838 9.61792 21.6571 9.68683C21.6571 9.68683 21.5689 9.62561 21.4656 9.60259C21.4656 9.60259 21.4464 9.65622 21.4158 9.68687C21.4158 9.68687 21.3085 9.57962 21.186 9.54517C21.186 9.54517 21.163 9.5988 21.1439 9.62176C21.1439 9.62176 21.0137 9.54517 20.9141 9.54517C20.9141 9.54517 20.9333 9.62561 20.9141 9.66001C20.9141 9.66001 20.6461 9.44176 20.401 9.46858C20.401 9.46858 20.5158 9.64089 20.5924 9.72517C20.5924 9.72517 20.1023 9.68687 20.1865 9.42264C20.2631 9.15841 20.1789 9.22352 20.5006 9.22731H21.1132H21.1133Z" fill="#7B3C20"/>
<path d="M18.8117 9.95877C18.8117 9.95877 18.7542 10.0047 18.8117 10.043C18.8653 10.0813 19.0606 9.94345 19.0874 9.92432C19.1142 9.90135 19.1831 9.90515 19.0874 9.97795C18.9916 10.0507 18.8959 10.1311 18.8308 10.2077C18.8308 10.2077 19.1563 10.1196 19.3669 9.93581C19.5814 9.75201 19.3593 9.8707 19.7192 9.69838C20.0792 9.52223 20.2707 9.24266 20.0754 9.27332C19.8839 9.30393 19.7078 9.52607 19.5546 9.61031C19.4052 9.69454 19.321 9.70602 19.344 9.65624C19.3669 9.60646 19.478 9.62563 19.6886 9.46096C19.8954 9.29245 19.8495 9.30777 19.8495 9.24651C19.8495 9.18904 19.7729 9.04354 20.083 8.87887C20.3971 8.7142 21.3659 8.15127 21.4502 7.95215C21.4502 7.95215 21.1668 7.98276 20.7915 8.25848C20.5858 8.43057 20.3609 8.57835 20.1213 8.69887C20.0179 8.73716 20.0295 8.71035 19.9643 8.79079C19.8954 8.87123 19.5278 9.22734 19.4589 9.28096C19.3937 9.33074 19.3707 9.3652 19.3669 9.47245C19.3669 9.52223 18.9457 9.84009 18.8155 9.95877H18.8117Z" fill="#5A3719"/>
<path d="M20.0939 9.21974C20.0939 9.21974 20.0173 9.25035 19.9484 9.21974C19.8795 9.18145 19.9025 9.03595 20.071 8.94402C20.2685 8.83564 20.4797 8.75448 20.699 8.70276C20.699 8.70276 20.676 8.89424 20.1935 9.05891C20.1935 9.05891 20.2241 9.15852 20.0939 9.21974Z" fill="#5A3719"/>
<path d="M20.2627 9.09328C20.2627 9.09328 20.278 9.13922 20.2627 9.18136C20.2627 9.18136 21.1588 9.26943 21.6221 8.72184C21.6221 8.72184 20.9864 8.78311 20.7337 8.93625C20.7337 8.93625 20.8945 8.73712 21.3694 8.5725C21.8442 8.40782 22.0395 8.20101 22.0817 8.08997C22.0817 8.08997 21.4766 8.30058 21.1933 8.30058C21.1933 8.30058 21.1358 8.30057 21.0784 8.32739C21.0247 8.36184 20.6418 8.63756 20.5422 8.68739C20.5422 8.68739 20.7567 8.66817 20.8333 8.59926C20.8333 8.59926 20.6801 9.00136 20.2627 9.09328Z" fill="#AA5323"/>
<path d="M18.5468 9.60262C18.5468 9.60262 18.432 9.6869 18.4779 9.7252C18.5277 9.76729 18.6081 9.77498 18.7842 9.62943C18.9604 9.48009 19.3855 9.11629 19.1174 9.10096C19.1174 9.10096 18.7728 9.08184 18.7842 9.29245C18.7957 9.50306 18.5621 9.59114 18.5468 9.60262ZM17.7503 9.48009C17.7503 9.48009 17.98 9.61415 17.892 9.72136C17.892 9.72136 18.589 9.13162 18.3898 9.0014C18.1983 8.87503 18.0452 9.11629 18.0911 9.13926C18.1371 9.16607 18.2405 9.12014 18.206 9.16607C18.1677 9.21201 17.7962 9.46087 17.7503 9.48009ZM17.5703 9.2886C17.5703 9.2886 17.7235 9.33454 17.7311 9.4035C17.735 9.46476 18.1907 9.08184 18.072 8.91717C18.0145 8.84442 17.7656 8.81376 17.7503 8.95931C17.7388 9.10481 17.98 8.94398 17.8958 9.04739C17.7886 9.1852 17.6048 9.26564 17.5703 9.2886ZM19.2017 8.96695C19.2017 8.96695 19.1059 9.03585 19.194 9.08179C19.2821 9.12014 19.3357 9.05503 19.3817 9.01673C19.4237 8.97843 19.642 8.8176 19.688 8.71804C19.7416 8.61464 19.8144 8.58398 19.8948 8.53425C19.9714 8.48062 20.5267 8.2049 20.8675 7.89853C21.2083 7.5922 21.0666 7.67259 21.4189 7.47731C21.7713 7.28203 22.0048 7.10203 22.0776 6.88757C22.0776 6.88757 21.9129 6.94115 21.7712 7.03692C21.6257 7.12879 21.3002 7.33176 21.2351 7.36242C21.17 7.38923 21.0819 7.39303 21.0321 7.44281C20.9823 7.49643 20.9862 7.5577 20.8177 7.69556C20.6454 7.83726 19.7684 8.45765 19.6612 8.54573C19.554 8.63381 19.2017 8.96695 19.2017 8.96695Z" fill="#5A3719"/>
<path d="M18.4971 9.17377C18.4971 9.17377 18.5928 9.12015 18.7728 9.13548C18.9528 9.14312 19.6651 8.45382 19.8719 8.31596C20.0786 8.17426 20.7258 7.7109 20.8101 7.62666C20.8981 7.53854 20.9135 7.44666 20.9901 7.39688C21.0667 7.3471 21.1356 7.35474 21.3079 7.25518C21.484 7.15562 22.3227 6.65396 22.2729 6.36292C22.2729 6.36292 21.0245 7.10968 20.7373 7.35479C20.3384 7.66617 19.927 7.96127 19.5042 8.23937C19.3625 8.33124 19.2515 8.48443 19.0102 8.67976C18.7728 8.87124 18.5354 9.03591 18.4971 9.17377Z" fill="#AA5323"/>
<path d="M18.2334 8.90569C18.2334 8.90569 18.4632 8.88272 18.4976 8.99757C18.4976 8.99757 18.9916 8.65678 19.1027 8.51892C19.2175 8.37722 19.0644 8.45766 19.3478 8.27382C19.8072 7.96733 20.258 7.6481 20.6996 7.31649C20.8336 7.2016 21.0902 7.04461 21.2932 6.90671C21.4961 6.76889 22.2888 6.37824 22.2007 6.06042L21.4884 6.53527C21.3544 6.62335 21.297 6.57357 21.1668 6.67692C21.0327 6.78417 20.7379 6.99099 20.6881 7.05989C20.6345 7.12116 20.1864 7.46583 19.9681 7.61133C19.7499 7.75683 19.2635 8.04024 19.0261 8.247C18.7887 8.44997 18.3368 8.8291 18.2334 8.90569H18.2334Z" fill="#AA5323"/>
<path d="M17.5175 8.84062C17.5175 8.84062 17.6324 8.84062 17.6707 8.88655C17.6707 8.88655 17.8851 8.69507 18.1149 8.88655C18.1149 8.88655 18.9574 8.3121 19.0416 8.1704C19.1258 8.02874 19.2637 8.0249 19.5892 7.78748C19.9185 7.54621 20.1254 7.4428 20.3436 7.27818C20.5619 7.10582 20.7457 6.91438 20.9027 6.81477C21.0559 6.71141 21.4542 6.45102 21.3891 6.22888C21.3891 6.22888 21.0674 6.40888 20.8606 6.63862C20.65 6.8684 20.6691 6.67312 20.4547 6.86455C20.2076 7.09227 19.9337 7.28904 19.639 7.45049C19.3671 7.58455 19.5318 7.56918 19.3327 7.69555C19.1373 7.82193 19.1527 7.8028 19.0799 7.82193C19.0033 7.83726 18.8961 7.89084 18.8233 7.97512C18.7467 8.05935 18.5553 8.17424 18.3446 8.29677C18.0513 8.45175 17.7731 8.63381 17.5137 8.84057L17.5175 8.84062Z" fill="#AA5323"/>
<path d="M17.7699 8.40403C17.7699 8.40403 17.7239 8.30831 17.8043 8.23936C17.8848 8.17425 18.0341 7.99809 18.0571 7.88705C18.0801 7.7722 18.0609 7.79517 18.2945 7.69556C18.9714 7.41138 19.6128 7.04894 20.2054 6.61565C20.2973 6.5429 20.5271 6.38592 20.619 6.30933C20.619 6.30933 20.6611 6.43186 20.5616 6.51994C20.2178 6.7885 19.8585 7.03657 19.4855 7.26286C19.3744 7.32028 19.1025 7.45814 19.0068 7.53858C18.9111 7.61897 18.9264 7.64198 18.4975 7.85259C18.0686 8.05936 18.0494 8.08237 18.0609 8.09765C18.0763 8.11683 18.2677 8.03255 18.3596 7.97897C18.4515 7.92534 18.8 7.76451 18.9073 7.68028C19.0106 7.596 19.1868 7.46583 19.2634 7.42369C19.34 7.38539 19.9718 7.00247 20.1556 6.8684C20.3356 6.73434 20.3854 6.69225 20.4237 6.71522C20.462 6.73819 20.5271 6.73819 20.4467 6.81478C20.3662 6.89137 20.1096 7.12115 20.0101 7.18242C19.9106 7.24753 19.6042 7.43133 19.52 7.47347C19.4357 7.5194 19.4012 7.59984 19.3514 7.6343C19.3055 7.67259 19.1638 7.76836 18.9953 7.80661C18.8269 7.84486 18.7962 7.97512 18.6851 8.04787C18.5703 8.11678 17.7814 8.54569 17.7584 8.5649C17.7584 8.5649 17.8043 8.51508 17.7699 8.40403H17.7699Z" fill="#AA5323"/>
<path d="M20.5074 6.62338C20.5074 6.62338 20.4653 6.66168 20.4883 6.68465C20.5189 6.71526 20.63 6.79185 20.7678 6.65399C20.9642 6.47118 21.1742 6.30349 21.3959 6.15234C21.5108 6.07959 21.572 6.01452 21.5682 5.91876C21.5682 5.91876 20.9976 6.22129 20.5074 6.62338ZM21.2887 6.5736C21.2887 6.5736 21.3767 6.42805 21.5912 6.2902C21.8056 6.15238 22.1273 5.95321 22.1656 5.90723C22.1656 5.90723 22.2422 5.99151 22.0775 6.09871C21.8964 6.21246 21.7177 6.32992 21.5414 6.45102C21.5031 6.48168 21.438 6.52762 21.2887 6.5736Z" fill="#AA5323"/>
<path d="M16.9426 8.15508C16.9426 8.15508 16.7052 8.28145 16.7894 8.36184C16.8737 8.43844 17 8.41547 17.0575 8.3925C17.1073 8.37333 17.2068 8.34656 17.2222 8.34272C17.2375 8.33888 17.4443 8.27756 17.4979 8.18189C17.5477 8.08613 17.6894 7.97508 17.8004 7.89464C17.9115 7.81809 17.9536 7.73386 17.9345 7.67639C17.9345 7.67639 17 8.12058 16.9426 8.15508ZM15.5257 9.25411C15.5257 9.25411 15.6942 9.15455 15.924 9.21581C15.924 9.21581 15.9125 9.16219 15.878 9.13158C15.878 9.13158 16.1576 9.05883 16.2188 8.93625C16.2801 8.80992 16.2955 8.83669 16.3452 8.80224C16.4027 8.76394 16.7779 8.46145 16.7358 8.3963C16.6899 8.33123 16.6822 8.24316 16.6516 8.21255C16.6516 8.21255 16.575 8.31975 16.2035 8.49591C15.8397 8.67591 15.43 8.80992 15.1313 9.20817C14.8364 9.61027 14.867 9.84005 15.2308 9.94341C15.2308 9.94341 15.4836 9.78263 16.1078 9.8362C16.7282 9.89363 16.9388 10.1273 16.9809 10.1693C17.0192 10.2115 17.1456 10.3647 17.023 10.6251C17.023 10.6251 17.1494 10.6787 17.1571 10.56C17.1685 10.4413 17.1762 10.4681 17.203 10.4834C17.2337 10.5025 17.2682 10.5063 17.2528 10.4145C17.2413 10.3226 17.1992 10.1196 17.1379 10.0507C17.0843 9.97791 17.1494 10.0124 17.1839 10.0238C17.2222 10.0392 17.3523 10.1464 17.2757 9.94725C17.1992 9.75577 17.1762 9.85153 17.1724 9.85917C17.1724 9.87066 17.1571 9.92044 16.9847 9.79027C16.853 9.68961 16.7036 9.61429 16.5444 9.56813C16.4295 9.53752 16.5099 9.53752 16.5788 9.5145C16.6477 9.48774 16.7358 9.4762 16.7703 9.39966C16.7703 9.39966 16.7014 9.41494 16.5788 9.369C16.4816 9.34094 16.3791 9.33568 16.2795 9.35361C16.1799 9.37155 16.0858 9.4122 16.0044 9.47241C16.0044 9.47241 16.0657 9.24263 15.8819 9.25411C15.698 9.26559 15.5717 9.2618 15.3764 9.41494C15.3764 9.41494 15.3649 9.18136 15.5487 9.05883C15.7325 8.94009 15.7095 9.01289 15.8091 8.98223C15.9125 8.95158 15.924 8.84817 15.878 8.81372C15.878 8.81372 16.1193 8.85586 16.5214 8.52267C16.5214 8.52267 16.3031 8.80608 16.0427 8.8635C16.0427 8.8635 16.0006 9.01669 15.7593 9.04734C15.5219 9.0818 15.5296 9.21966 15.5296 9.25411H15.5257Z" fill="#7B3C20"/>
<path d="M14.8407 10.6366C14.8407 10.6366 14.9556 9.93194 15.6181 9.88216C16.1925 9.83622 16.3763 9.90897 16.4912 9.94727C16.6061 9.98556 16.8895 10.066 16.7784 10.1579C16.6712 10.246 16.6061 10.2306 16.6061 10.2306C16.6061 10.2306 16.7325 10.089 16.6176 10.066C16.5028 10.043 16.4951 10.1119 16.4797 10.1694C16.4606 10.2306 16.4568 10.2996 16.3993 10.3455C16.3993 10.3455 16.3419 10.2804 16.2577 10.3379C16.1734 10.3953 16.2462 10.3991 16.2806 10.3877C16.3112 10.38 16.3572 10.3608 16.3457 10.4145C16.338 10.4643 16.2921 10.5523 16.1542 10.6251C16.0202 10.694 16.024 10.6902 15.8632 10.717C15.6985 10.7438 15.5492 10.8089 15.3424 10.9851C15.1318 11.165 14.9058 11.1038 14.8599 10.9084C14.8216 10.7361 14.8407 10.6404 14.8407 10.6404V10.6366Z" fill="#5A3719"/>
<path d="M15.5944 10.6137C15.5944 10.6137 15.6557 10.4758 15.5446 10.4107C15.5446 10.4107 15.2 10.472 15.0928 10.3686C15.0928 10.3686 15.4719 10.3456 15.7055 10.2537C15.9353 10.1656 15.8701 10.1005 15.7898 10.0852C15.7093 10.0699 15.56 10.1082 15.5446 10.1809C15.5446 10.1809 15.4987 10.1043 15.5561 10.0507C15.6174 9.99712 15.7093 9.98948 15.7898 10.0124C15.874 10.0354 15.9468 10.0737 16.2187 9.93201C16.2187 9.93201 16.3757 9.9703 16.3833 10.0737C16.3833 10.1809 16.3718 10.2231 16.3565 10.2384C16.345 10.2575 16.3259 10.2882 16.2914 10.2843C16.2608 10.2805 16.2148 10.2728 16.1765 10.3456C16.1382 10.4222 16.1114 10.4834 16.0425 10.5332C16.0425 10.5332 16.1191 10.3035 15.9199 10.2499C15.9199 10.2499 15.7553 10.3456 15.6289 10.3533C15.6289 10.3533 15.7897 10.5026 15.5906 10.6137H15.5944Z" fill="black"/>
<path d="M15.9588 10.1924C15.9588 10.1924 15.8822 10.112 15.9817 10.1005C16.0814 10.0928 16.2115 10.1656 16.1886 10.2307C16.1617 10.292 16.0431 10.2882 15.9588 10.1924Z" fill="#5A3719"/>
<path d="M21.6262 9.08189C21.6262 9.08189 21.4424 9.13167 21.6147 9.24656C21.7832 9.36141 21.8675 9.45717 21.99 9.48783C22.1164 9.52228 22.2428 9.56438 22.2428 9.6908C22.2428 9.81333 22.216 9.86311 22.147 9.94735C22.0781 10.0354 22.1853 10.0699 22.2734 10.0239C22.3653 9.97416 22.438 9.94735 22.4993 9.91285C22.5568 9.87839 22.6525 9.88224 22.5683 9.92817C22.4764 9.97411 22.3845 10.0048 22.4994 10.0048C22.6142 10.0086 23.3112 10.0239 23.4567 9.97416C23.6022 9.92822 23.7937 9.91289 23.809 9.72525C23.809 9.72525 23.8167 9.64097 23.8703 9.60267C23.9239 9.56822 23.9622 9.48783 23.8817 9.54141C23.8052 9.59888 23.7439 9.62569 23.7286 9.61031C23.7133 9.59119 23.7056 9.57971 23.7669 9.55289C23.8243 9.52613 23.855 9.55289 23.9086 9.4763C23.9622 9.39591 23.9583 9.40739 23.9277 9.37674C23.9009 9.34613 23.8396 9.32695 23.8703 9.28866C23.9009 9.25036 23.9277 9.13552 23.8014 9.20058C23.675 9.26953 23.4222 9.44185 23.3035 9.4687C23.1887 9.49547 23.1006 9.52992 22.9435 9.56058C22.7904 9.59503 22.6908 9.62949 22.5223 9.72141C22.3538 9.81328 22.3691 9.66778 22.396 9.64866C22.396 9.64866 22.4611 9.7635 22.6295 9.61421C22.798 9.46866 22.7444 9.60652 23.1618 9.46866C23.5754 9.3346 23.4759 9.31163 23.6367 9.22739C23.8014 9.14316 23.9545 9.13931 23.8397 9.02442C23.7248 8.90958 23.7133 8.90189 23.5678 9.02442C23.3341 9.19855 23.06 9.31056 22.7712 9.34997C22.7712 9.34997 23.7094 8.94788 23.6137 8.89041C23.5321 8.836 23.4431 8.79345 23.3495 8.76403C23.2844 8.7487 23.2652 8.73342 23.1159 8.80233C22.9627 8.86744 22.9397 8.88277 22.8976 8.88656C22.8517 8.89041 22.7252 8.91722 22.5453 9.00914C22.3691 9.10102 22.2734 9.13931 22.1508 9.21211C22.1508 9.21211 22.2351 9.0436 22.6066 8.93255C22.9742 8.82145 23.1618 8.72194 23.1235 8.70277C23.0852 8.6836 22.9895 8.66447 22.9206 8.6798C22.8517 8.69128 22.8708 8.67216 22.6449 8.76403C22.4189 8.85216 22.5146 8.83294 22.3347 8.87128C22.1508 8.90958 22.0781 8.94788 21.99 8.98613C21.99 8.98613 22.0283 8.94019 22.147 8.89425C22.2121 8.87128 22.0781 8.84831 22.2542 8.84063H22.304C22.4553 8.80811 22.601 8.75394 22.7368 8.6798C22.6985 8.67216 22.4802 8.64914 22.2581 8.75639C22.0359 8.85595 22.1355 8.8215 22.059 8.83299C21.9824 8.85211 21.8139 8.95552 21.7602 9.00145C21.7028 9.04739 21.6262 9.07805 21.6262 9.07805V9.08189Z" fill="white"/>
<path d="M16.1306 10.0928C16.1306 10.0928 16.2187 10.1196 16.2416 10.1809C16.2646 10.2421 16.3182 10.1541 16.3182 10.1273C16.3144 10.1005 16.2608 9.9741 16.165 10.0354C16.0693 10.089 16.1191 10.089 16.1306 10.0928Z" fill="#5A3719"/>
<path d="M15.8893 11.3029C15.8893 11.3029 16.0731 11.2148 16.2339 11.2263C16.2339 11.2263 16.1688 11.008 16.2798 11.0425C16.3871 11.0808 16.3565 11.0654 16.3794 11.0654C16.3794 11.0654 16.3871 10.9199 16.3565 10.8625C16.3565 10.8625 16.4713 10.8893 16.5824 10.8893C16.5824 10.8893 16.4752 10.6825 16.5939 10.537C16.5939 10.537 16.659 10.6748 16.8045 10.7093V10.5906C16.8045 10.5906 16.8887 10.5791 16.9577 10.6136C17.0266 10.6519 17.0802 10.2344 16.8811 10.1464C16.8811 10.1464 16.8313 10.223 16.6437 10.2613C16.456 10.2995 16.4598 10.3378 16.3833 10.4795C16.3067 10.6213 16.2377 10.6212 16.0769 10.7246C15.9237 10.8242 15.828 11.031 15.8203 11.0501C15.8203 11.0501 15.9008 11.1497 15.8893 11.3029Z" fill="#7B3C20"/>
<path d="M22.1508 8.89419C22.216 8.8827 22.0781 8.84825 22.2542 8.84056H22.304C22.4553 8.80804 22.601 8.75388 22.7368 8.67974C22.6985 8.67209 22.4802 8.64908 22.2581 8.75249C22.036 8.85589 22.1355 8.82139 22.059 8.83672C21.9824 8.85205 21.8139 8.95545 21.7602 9.00139C21.7028 9.04733 21.6262 9.07799 21.6262 9.07799C21.6262 9.07799 21.4424 9.13161 21.6147 9.2465C21.7832 9.36134 21.8675 9.45711 21.99 9.48777C22.1164 9.52222 22.2428 9.56431 22.2428 9.69074C22.2389 9.81327 22.216 9.86305 22.147 9.94728C22.0781 10.0354 22.1853 10.0698 22.2734 10.0239C22.3653 9.97409 22.438 9.94728 22.4993 9.91278C22.5568 9.87833 22.6525 9.88217 22.5645 9.92811C22.4763 9.97405 22.3845 10.0047 22.4993 10.0047C22.6142 10.0085 23.3112 10.0239 23.4567 9.9741C23.6022 9.92816 23.7937 9.91283 23.809 9.72519C23.809 9.72519 23.8167 9.64091 23.8703 9.60261C23.9239 9.56816 23.9622 9.48777 23.8817 9.54134C23.8052 9.59881 23.7401 9.62563 23.7286 9.61025C23.7133 9.59113 23.7056 9.57964 23.7669 9.55283C23.8243 9.52606 23.855 9.55283 23.9086 9.47624C23.9622 9.39585 23.9583 9.40733 23.9277 9.37667C23.9124 9.36139 23.8894 9.34991 23.878 9.33458C23.878 9.33458 23.8358 9.29628 23.786 9.32689C23.7362 9.36139 23.5218 9.44947 23.4376 9.46095C23.3533 9.46859 23.2614 9.50689 23.1082 9.58349C22.955 9.66008 22.6985 9.81327 22.6563 9.66772C22.6563 9.66772 22.5452 9.70602 22.5223 9.72135C22.35 9.80942 22.3653 9.68305 22.396 9.6486C22.396 9.6486 22.304 9.752 22.3078 9.66008C22.3117 9.5682 22.3691 9.58349 22.4725 9.55283C22.5721 9.52222 22.7291 9.45711 22.664 9.40349C22.5989 9.34991 22.53 9.45711 22.4572 9.49161C22.3845 9.52606 22.2389 9.55283 22.216 9.44942C22.193 9.34222 22.193 9.26947 21.9977 9.25799C21.8024 9.2465 21.8062 9.12392 21.8598 9.07035C21.9173 9.01672 21.9632 8.92864 22.147 8.89419H22.1508Z" fill="#999999"/>
<path d="M22.7752 9.84772C22.7752 9.84772 23.0815 9.70986 23.3611 9.64091C23.6445 9.57585 23.4224 9.65239 23.3764 9.66388C23.3266 9.6792 22.8901 9.82475 22.7867 9.87453C22.6833 9.92047 22.7024 9.88217 22.7752 9.85156V9.84772ZM22.8441 9.91283C22.8441 9.91283 23.1888 9.79794 23.2538 9.84392C23.319 9.89366 23.2653 9.87069 23.1888 9.88217C23.1122 9.88986 22.9054 9.92431 22.8518 9.92431C22.7943 9.92431 22.8441 9.91283 22.8441 9.91283ZM23.3994 9.79025C23.3994 9.79025 23.4645 9.77877 23.4721 9.80558C23.476 9.82855 23.4415 9.83239 23.4032 9.82855C23.3687 9.82091 23.3381 9.80178 23.3994 9.79025Z" fill="black"/>
<path d="M14.2922 12.7964C14.2922 12.7964 14.2807 12.49 14.4339 12.3369C14.5871 12.1837 15.3262 11.4139 15.441 11.1995C15.441 11.1995 15.5368 11.2646 15.5406 11.3871C15.5406 11.3871 15.667 11.1727 15.7627 11.0923C15.7627 11.0923 15.8508 11.1804 15.8393 11.3603C15.8393 11.3603 16.0155 11.2646 16.2912 11.2646C16.2912 11.2646 16.1878 11.3833 16.1839 11.4561C16.1839 11.4561 16.5669 11.4101 16.7699 11.4446C16.7699 11.4446 16.2414 11.7394 16.3869 11.7663C16.5401 11.7931 16.6933 11.7663 16.6933 11.7663C16.6933 11.7663 16.5248 11.9348 16.2567 11.9692C16.2567 11.9692 16.5975 11.9654 16.6665 12.042C16.6665 12.042 16.3333 12.0918 16.0691 12.2947C16.0691 12.2947 16.0423 12.2832 16.0423 12.2066C16.0423 12.2066 16.0308 12.2756 15.9541 12.3407C15.8776 12.4019 15.6976 12.5398 15.6287 12.6087C15.5598 12.6738 15.4372 12.8117 15.2993 12.804C15.2993 12.804 15.33 12.7007 15.2304 12.6662C15.1786 12.6488 15.1228 12.6467 15.0697 12.6603C15.0167 12.6739 14.9688 12.7025 14.9317 12.7428C14.9317 12.7428 14.5756 12.7504 14.4607 12.7657C14.4607 12.7657 14.5411 12.6356 14.6138 12.6394C14.6904 12.6394 14.9892 12.6853 15.0159 12.4785C15.0428 12.2756 14.8245 12.3292 14.9049 12.2105C14.9892 12.0879 14.97 12.0956 14.9738 12.0803C14.9738 12.0803 14.9049 12.1186 14.8666 12.2258C14.8283 12.333 14.7977 12.4173 14.656 12.5245C14.5573 12.5876 14.4747 12.6728 14.4147 12.7734C14.4147 12.7734 14.3497 12.7811 14.2922 12.7964Z" fill="white"/>
<path d="M14.6377 12.6126C14.6377 12.6126 14.6492 12.5743 14.7525 12.5552C14.8598 12.536 14.8674 12.4863 14.8521 12.4633C14.8368 12.4441 14.7756 12.4441 14.8751 12.3254C14.8751 12.3254 14.9134 12.3369 14.9364 12.3637C14.9632 12.3943 15.0781 12.6395 14.6377 12.6126Z" fill="white"/>
<path d="M14.3882 12.3981C14.392 12.6011 14.6563 12.5245 14.6563 12.5245C14.5855 12.5752 14.5212 12.6344 14.4648 12.7007C14.4839 12.6011 14.3154 12.5781 14.3154 12.5781C14.3308 12.5168 14.3537 12.4518 14.3882 12.3981ZM15.3571 11.322C15.3953 11.2722 15.426 11.2301 15.4413 11.1995C15.4413 11.1995 15.537 11.2646 15.5409 11.3871C15.5409 11.3871 15.6673 11.1727 15.763 11.0923C15.763 11.0923 15.8511 11.1804 15.8396 11.3603C15.8396 11.3603 16.0157 11.2646 16.2914 11.2646C16.2914 11.2646 16.188 11.3833 16.1842 11.4561C16.1842 11.4561 16.5672 11.4101 16.7701 11.4446C16.7701 11.4446 16.2417 11.7394 16.3872 11.7663C16.5404 11.7931 16.6935 11.7663 16.6935 11.7663C16.6935 11.7663 16.525 11.9348 16.257 11.9692C16.257 11.9692 16.5978 11.9654 16.6667 12.042C16.6667 12.042 16.5672 12.0573 16.4369 12.1032C16.4369 12.1032 16.3412 12.0114 16.054 12.0266C16.054 12.0266 16.2762 11.9003 16.4523 11.8582C16.4523 11.8582 16.3757 11.7586 16.2531 11.8505C16.2531 11.8505 16.0119 11.6859 16.2149 11.5442C16.2149 11.5442 16.0731 11.5173 15.9813 11.5825C15.9813 11.5825 15.9813 11.4676 16.0846 11.4178C16.0846 11.4178 15.8166 11.3718 15.7515 11.571C15.7515 11.571 15.6979 11.4905 15.7247 11.3986C15.7247 11.3986 15.56 11.4905 15.4873 11.5978C15.4873 11.5978 15.4604 11.3948 15.357 11.322M14.8363 12.6011C14.7903 12.6126 14.7214 12.6164 14.6371 12.6126C14.6371 12.6126 14.6448 12.5858 14.7022 12.5666C14.7022 12.5666 14.7175 12.6011 14.8363 12.6011Z" fill="#999999"/>
<path d="M15.3262 11.839C15.3262 11.839 15.4487 11.9348 15.4908 11.9922C15.4908 11.9922 15.6057 11.9156 15.644 11.8505C15.644 11.8505 15.7321 11.908 15.7589 11.9922C15.7589 11.9922 15.824 11.9539 15.8355 11.8927C15.8355 11.8927 15.9887 11.9233 16.0423 11.9731C16.0423 11.9731 16.0653 11.8275 16.0423 11.7318C16.0423 11.7318 16.1495 11.7433 16.2146 11.7701C16.2146 11.7701 16.1533 11.6706 16.4635 11.5442C16.4635 11.5442 16.2299 11.5978 16.138 11.6974C16.138 11.6974 16.0384 11.705 15.9963 11.6744V11.8965C15.9963 11.8965 15.935 11.8697 15.8201 11.8429C15.8201 11.8429 15.7895 11.8927 15.7704 11.9041C15.7704 11.9041 15.6938 11.8429 15.6632 11.7701C15.6632 11.7701 15.5483 11.8735 15.51 11.9156C15.51 11.9156 15.3989 11.839 15.3262 11.839Z" fill="black"/>
<path d="M14.6221 13.367C14.6221 13.367 14.6719 13.39 14.7867 13.2981C14.9016 13.2062 15.2194 13.0032 15.2463 12.8385C15.2807 12.6739 15.1467 12.6662 15.0433 12.7121C14.9361 12.7619 14.982 12.85 14.9859 12.8806C14.9897 12.9113 14.9935 13.0262 14.8212 13.1831L14.6221 13.367Z" fill="#FFC221"/>
<path d="M14.5872 13.4168C14.5872 13.4168 14.3307 13.3095 14.5604 13.1946C14.7902 13.0797 14.8936 13.0491 14.9204 12.9496C14.9472 12.8538 14.9319 12.873 14.8438 12.9113C14.7596 12.9496 14.4341 13.1028 14.3843 12.9611C14.3843 12.9611 14.5183 13.0147 14.6868 12.9342C14.8553 12.85 14.9931 12.827 14.8859 12.7925C14.7787 12.7581 14.3919 12.8002 14.3307 12.8194C14.2656 12.8385 14.2809 12.8347 14.2694 12.8959C14.2579 12.9611 14.189 13.0951 14.1621 13.1334C14.1354 13.1717 14.0703 13.3363 14.189 13.4091C14.3038 13.4818 14.4953 13.4742 14.5872 13.4168Z" fill="#FFC221"/>
<path d="M14.4877 12.8577C14.4877 12.8577 14.4264 12.8654 14.438 12.8884C14.4495 12.9113 14.4647 12.9075 14.4877 12.9075C14.5069 12.9075 14.5413 12.896 14.5452 12.8845C14.549 12.8692 14.5069 12.8501 14.4877 12.8577Z" fill="black"/>
<path d="M14.568 13.3594C14.568 13.3594 14.4493 13.3019 14.5872 13.2292C14.725 13.1526 14.8705 13.0798 14.8935 13.0492C14.8935 13.0492 14.8246 13.1411 14.5718 13.3594L14.568 13.3594Z" fill="white"/>
</g>
<defs>
<clipPath id="clip0_208_10091">
<rect width="24" height="24" rx="12" fill="white"/>
</clipPath>
</defs>
</svg>
