<svg width="24" height="24" viewBox="0 0 24 24" fill="none" xmlns="http://www.w3.org/2000/svg">
<g clip-path="url(#clip0_208_24556)">
<path d="M0 0H24V24H0V0Z" fill="#00247D"/>
<path d="M15.5717 12.5671C15.2105 12.9176 14.9554 13.3627 14.8357 13.8515C14.6154 15.1078 14.3201 15.389 13.8654 15.1171C13.8654 15.7968 14.367 15.8484 14.5826 15.4546C14.5826 16.0875 14.7748 16.6359 15.2107 17.1046C15.3982 17.3062 15.4311 17.1703 15.342 16.95C15.2576 16.7296 15.2576 16.0265 15.0795 15.6187C15.3607 15.8578 15.7732 15.7218 15.7357 15.0656C15.3795 15.3187 15.0232 15.3093 14.9857 14.714C14.9389 14.0156 15.1732 13.0031 15.5717 12.5671ZM15.1451 7.55621C15.1686 7.30777 15.1264 7.04996 14.9717 6.89058C14.6764 6.57652 14.3857 6.67964 14.1701 6.93277C13.8467 6.72183 13.6779 7.46246 13.3076 7.33589C13.3686 7.57496 13.467 7.67808 13.6498 7.59839C13.4576 7.80464 13.6498 8.05308 13.4248 8.30152C13.8326 8.46089 14.0529 8.18902 14.0342 7.72027C14.0672 7.76016 14.1091 7.79168 14.1566 7.81227C14.204 7.83285 14.2557 7.84191 14.3074 7.83871C14.359 7.83551 14.4092 7.82014 14.4538 7.79386C14.4983 7.76757 14.5361 7.73111 14.5639 7.68746C14.3482 7.60777 14.3482 7.38277 14.4326 7.17183C14.5639 6.85777 15.1826 6.87183 15.1451 7.55621Z" fill="#F7E017" stroke="black" stroke-width="0.0458307"/>
<path d="M16.0921 11.1751C15.6281 11.4657 14.7796 11.3438 14.7046 10.6266C14.6249 9.90475 15.2109 9.586 15.3702 9.49225C15.614 9.34693 15.8062 9.60475 15.7265 9.90943C15.9984 9.79225 16.0546 9.41725 15.9281 9.20162C16.2843 9.23443 16.6171 8.911 16.7577 8.45162C16.6312 8.59225 16.289 8.4985 16.0077 8.47506C16.0921 8.36256 16.0921 8.14225 16.064 8.02506C15.7687 8.386 15.3421 8.22193 14.7749 9.27193C14.9091 8.70211 15.0341 8.13016 15.1499 7.55631C15.1827 6.87193 14.5687 6.85318 14.4374 7.17193C14.5781 7.35943 14.5031 7.58912 14.4515 7.93131C14.3906 8.33443 14.264 9.27193 14.1468 9.586C14.114 9.09381 13.8421 9.061 13.7906 8.82662C13.7109 8.88756 13.6687 9.05162 13.6827 9.16881C13.589 9.04225 13.2562 9.19693 13.1343 9.00943C13.0031 9.3235 13.214 9.63287 13.4296 9.76881C13.3031 9.77818 13.2749 9.961 13.1343 9.961C13.3218 10.2235 13.514 10.3266 13.7343 10.3501C13.9593 10.3688 14.1234 10.4672 14.2593 10.7907C14.4796 11.311 15.3093 11.6485 16.0921 11.1751Z" fill="#337321" stroke="black" stroke-width="0.0458307"/>
<path d="M17.2454 10.5421C16.9829 11.4046 16.2657 12.0187 15.9422 12.1125C15.2219 12.3708 14.5547 12.7584 13.9735 13.2562C13.9266 13.2421 13.8797 13.2234 13.8516 13.1953C13.7016 13.0687 13.5797 12.6656 13.8422 12.3187C14.6625 11.4046 15.5438 11.8031 16.0922 11.175C15.6329 11.4656 14.7844 11.3437 14.7047 10.6218C15.2016 10.7812 16.1016 10.7906 16.8141 9.87183C16.9125 9.99839 17.1891 10.3968 17.2454 10.5421Z" fill="#F7E017" stroke="black" stroke-width="0.0458307"/>
<path d="M15.5718 12.5672C15.1546 12.9891 14.9389 14.0204 14.9858 14.7141C14.9999 14.9063 15.0421 15.0422 15.1124 15.1172C15.1405 14.7235 15.3749 13.7016 15.9608 13.2422C16.6862 12.6653 17.2311 11.8926 17.5311 11.0157C17.4749 10.8375 17.3905 10.711 17.2218 10.5891C16.9405 11.5219 16.1718 11.9672 15.5764 12.5719L15.5718 12.5672Z" fill="#337321" stroke="black" stroke-width="0.0458307"/>
<path d="M16.9785 10.1392C16.7874 10.4697 16.5083 10.7407 16.1723 10.922C16.2426 10.8282 16.266 10.7063 16.266 10.6079C15.8582 10.7954 15.0379 10.7767 14.7051 10.6313C15.202 10.786 16.102 10.7954 16.8145 9.88135C16.8848 9.9751 16.9457 10.0548 16.9785 10.1438V10.1392Z" fill="#316D3A" stroke="black" stroke-width="0.0458307"/>
<path d="M13.8427 12.3188C13.177 13.0642 13.6177 13.7157 13.8755 13.861C13.8052 14.3767 14.2177 14.3157 14.2083 14.7517C14.3723 14.6392 14.4192 14.3392 14.3958 14.0954C14.602 14.3673 15.1317 14.0673 15.2489 14.5642C15.3192 14.0157 14.9583 13.4626 14.513 13.5142C14.7005 13.3173 14.5927 12.9985 14.4192 12.9142C14.3864 13.3173 13.9973 13.3173 13.852 13.1954C13.702 13.0688 13.5802 12.6657 13.8427 12.3188Z" fill="#337321" stroke="black" stroke-width="0.0458307"/>
<path d="M15.2811 17.0532C15.2108 17.1001 15.2202 17.2173 15.2624 17.2876C15.3561 17.4329 15.1968 17.7657 15.4968 17.836C15.5811 17.8548 15.6468 17.7892 15.6843 17.672C15.7733 17.3439 15.4827 17.311 15.4546 17.1564C15.4311 16.997 15.3468 17.0157 15.2858 17.0532H15.2811Z" fill="#F7E017" stroke="black" stroke-width="0.0458307"/>
<path d="M15.5346 17.6718C15.4408 17.7187 15.3471 17.7984 15.3939 18.1734C15.408 18.3281 15.3986 18.7031 15.2861 18.7077C15.3564 18.7499 15.5018 18.7921 15.5674 18.6984C15.6236 18.8156 15.7549 18.7827 15.8111 18.6374C15.8768 18.7031 15.9752 18.5906 15.9752 18.4921C16.0361 18.539 16.1627 18.4687 16.1252 18.2484C16.2002 18.2765 16.2986 18.2156 16.3314 18.1546C16.2236 18.1312 15.9471 17.9531 15.8814 17.8124C15.8158 17.6718 15.6471 17.6062 15.5346 17.6718Z" fill="#F7E017" stroke="black" stroke-width="0.0458307"/>
<path d="M14.0205 7.1438C14.0674 7.0688 14.1143 6.9938 14.1705 6.93286M15.6846 8.52192C15.7596 8.47036 15.8721 8.46567 16.008 8.47505M15.5627 18.6985C15.5346 18.6469 15.5205 18.4266 15.5439 18.2954M15.8111 18.6375C15.7643 18.5907 15.6705 18.4407 15.6518 18.3094M15.9752 18.4922C15.8596 18.3782 15.7756 18.236 15.7314 18.0797M16.1252 18.2438C16.0549 18.225 15.8346 18.0563 15.7408 17.8735" stroke="black" stroke-width="0.0458307"/>
<path d="M20.1516 12.3281C21.225 13.4062 21.2906 14.2547 21.1266 14.7562C21.0422 14.2875 20.5969 13.5609 20.1328 13.3734L20.1516 12.3281Z" fill="#F7E017" stroke="black" stroke-width="0.0458307"/>
<path d="M18.234 11.7281H20.2215V14.5312C20.2215 16.9219 19.1012 18.3375 17.9715 19.0875C16.8324 18.3375 15.7168 16.9219 15.7168 14.5312V11.7188H17.109C17.109 11.8688 17.123 12.0844 17.2637 12.3047C17.5918 12.2672 17.9668 11.9766 18.2246 11.7234L18.234 11.7281Z" fill="#337321" stroke="black" stroke-width="0.0458307"/>
<path d="M20.2217 11.7281V14.5312C20.2217 15.2531 20.1186 15.8906 19.9451 16.4391L17.9717 12.1172L15.9936 16.4391C15.8049 15.8209 15.7117 15.1775 15.717 14.5312V11.7188L20.2217 11.7281Z" fill="#006EC7" stroke="black" stroke-width="0.0458307"/>
<path d="M20.0059 16.2375C19.9684 16.3641 19.9074 16.5704 19.8559 16.6969L17.9715 12.5157L16.0777 16.6969C16.0309 16.5704 15.9652 16.3688 15.9277 16.2375L17.9668 11.7375L20.0059 16.2375Z" fill="#F7E017"/>
<path d="M18.8667 17.7751L19.0542 17.8876C19.1572 17.5946 19.1893 17.2814 19.148 16.9735C19.0308 17.3157 18.6464 17.3017 18.5433 17.5126C18.6089 17.5501 18.6652 17.6017 18.7167 17.6438C18.5477 17.8437 18.3406 18.0078 18.1074 18.1267V15.8907C18.1074 15.7313 18.0605 15.6001 18.0605 15.4688V15.0095C18.0605 14.9063 18.0464 14.7563 17.9667 14.7563C17.8871 14.7563 17.873 14.9063 17.873 15.0095V15.4735C17.873 15.6001 17.8261 15.7548 17.8261 15.8907V18.122C17.7324 17.7892 17.3574 17.9017 17.1792 17.5688C17.2496 17.5501 17.3199 17.5407 17.3902 17.5595C17.2589 17.0298 16.9027 16.9876 16.8324 16.8282C16.8324 17.0485 16.7527 17.5595 16.8792 17.7798C16.9027 17.7376 16.9449 17.6954 16.9964 17.6626C17.1417 18.047 17.8121 18.047 17.9667 18.6845C18.0933 18.4501 18.548 18.1782 18.8667 17.7704V17.7751Z" fill="#F7E017" stroke="black" stroke-width="0.0458307"/>
<path d="M17.9676 15.9187C18.1176 15.9187 18.5863 15.8624 18.7598 15.8624C18.8066 15.8624 18.8395 15.7827 18.8395 15.6843C18.8395 15.5905 18.802 15.5108 18.7598 15.5108C18.591 15.5108 18.1176 15.4546 17.9676 15.4546C17.8223 15.4546 17.3488 15.5108 17.1801 15.5108C17.1332 15.5108 17.0957 15.5905 17.0957 15.6843C17.0957 15.7827 17.1332 15.8624 17.1801 15.8624C17.3488 15.8624 17.8223 15.9187 17.9676 15.9187ZM17.8738 15.0046C17.8414 14.9759 17.7999 14.9593 17.7566 14.9577C17.6582 14.9577 17.5738 15.0468 17.5738 15.1499C17.5738 15.2577 17.6535 15.3468 17.7566 15.3468C17.8504 15.3468 17.9348 15.2577 17.9348 15.1499C17.9348 15.0702 18.0332 15.0702 18.0332 15.1499C18.0332 15.3233 17.9113 15.4593 17.752 15.4593C17.5973 15.4593 17.4707 15.3187 17.4707 15.1499C17.4707 14.9812 17.602 14.8452 17.752 14.8452C17.7988 14.8452 17.8457 14.8593 17.8832 14.8827L17.8738 15.0046Z" fill="#F7E017" stroke="black" stroke-width="0.0458307"/>
<path d="M17.1797 15.8625C17.2266 15.8625 17.2594 15.7829 17.2594 15.6844C17.2594 15.5907 17.2219 15.511 17.1797 15.511" fill="#F7E017"/>
<path d="M17.1797 15.8625C17.2266 15.8625 17.2594 15.7829 17.2594 15.6844C17.2594 15.5907 17.2219 15.511 17.1797 15.511" stroke="black" stroke-width="0.0458307"/>
<path d="M17.2455 15.8626C17.2924 15.8626 17.3252 15.7829 17.3252 15.6845C17.3252 15.5907 17.2877 15.511 17.2455 15.511M17.6721 15.9001C17.7283 15.9001 17.7705 15.8063 17.7705 15.6845C17.7705 15.5673 17.7283 15.4735 17.6768 15.4735M17.7752 15.9095C17.8314 15.9095 17.8783 15.8063 17.8783 15.6845C17.8783 15.5626 17.8314 15.4642 17.7752 15.4642M18.1127 15.9095C18.1689 15.9095 18.2111 15.811 18.2111 15.6845C18.2111 15.5626 18.1643 15.4595 18.1127 15.4595M18.2158 15.9048C18.2721 15.9048 18.3189 15.811 18.3189 15.6845C18.3189 15.5673 18.2721 15.4688 18.2158 15.4688M18.6846 15.8673C18.7314 15.8673 18.7689 15.7876 18.7689 15.6845C18.7689 15.586 18.7314 15.5063 18.6846 15.5063M16.9971 17.6673C17.0486 17.6298 17.1143 17.5923 17.1846 17.5735L16.9971 17.6673ZM18.7736 17.6907L18.7221 17.6438L18.7736 17.6907ZM18.8674 17.7751C18.9964 17.6179 19.0921 17.4361 19.1486 17.2407L18.8674 17.7751Z" fill="#F7E017"/>
<path d="M17.2455 15.8626C17.2924 15.8626 17.3252 15.7829 17.3252 15.6845C17.3252 15.5907 17.2877 15.511 17.2455 15.511M17.6721 15.9001C17.7283 15.9001 17.7705 15.8063 17.7705 15.6845C17.7705 15.5673 17.7283 15.4735 17.6768 15.4735M17.7752 15.9095C17.8314 15.9095 17.8783 15.8063 17.8783 15.6845C17.8783 15.5626 17.8314 15.4642 17.7752 15.4642M18.1127 15.9095C18.1689 15.9095 18.2111 15.811 18.2111 15.6845C18.2111 15.5626 18.1643 15.4595 18.1127 15.4595M18.2158 15.9048C18.2721 15.9048 18.3189 15.811 18.3189 15.6845C18.3189 15.5673 18.2721 15.4688 18.2158 15.4688M18.6846 15.8673C18.7314 15.8673 18.7689 15.7876 18.7689 15.6845C18.7689 15.586 18.7314 15.5063 18.6846 15.5063M16.9971 17.6673C17.0486 17.6298 17.1143 17.5923 17.1846 17.5735M18.7736 17.6907L18.7221 17.6438M18.8674 17.7751C18.9964 17.6179 19.0921 17.4361 19.1486 17.2407" stroke="black" stroke-width="0.0458307"/>
<path d="M17.5684 13.7157C17.5684 13.6642 17.6012 13.6407 17.6434 13.6032C17.6902 13.561 17.7137 13.5376 17.7559 13.5376H18.3324C18.3699 13.5376 18.3793 13.5517 18.3793 13.5985V14.5313C18.3793 14.5782 18.3746 14.5923 18.3324 14.5923H17.5684V13.7063" fill="white"/>
<path d="M17.5684 13.7157C17.5684 13.6642 17.6012 13.6407 17.6434 13.6032C17.6902 13.561 17.7137 13.5376 17.7559 13.5376H18.3324C18.3699 13.5376 18.3793 13.5517 18.3793 13.5985V14.5313C18.3793 14.5782 18.3746 14.5923 18.3324 14.5923H17.5684V13.7063" stroke="black" stroke-width="0.0458307"/>
<path d="M18.1875 14.6718C18.2625 14.6718 18.2531 14.6671 18.3047 14.6015C18.3609 14.5359 18.3516 14.5453 18.3516 14.4843V13.6312C18.3516 13.589 18.3422 13.575 18.3047 13.575H17.775C17.7328 13.575 17.7141 13.5984 17.6719 13.6406C17.6344 13.6734 17.6016 13.6921 17.6016 13.739V14.6718H18.1875Z" fill="#E5E5E5" stroke="black" stroke-width="0.0458307"/>
<path d="M18.2434 14.6485C18.2434 14.6954 18.234 14.7094 18.1965 14.7094H17.6199C17.573 14.7094 17.5684 14.6954 17.5684 14.6485V13.7204C17.5684 13.6735 17.5777 13.6594 17.6199 13.6594H18.1918C18.2387 13.6594 18.2434 13.6735 18.2434 13.7204V14.6485Z" fill="white" stroke="black" stroke-width="0.0458307"/>
<path d="M19.3596 11.1843C19.4674 11.3296 19.5002 11.5312 19.4439 11.7233H19.2752C19.3455 11.4749 19.3033 11.2358 19.008 11.2077C18.5627 11.1608 18.0471 12.1827 17.2736 12.3093C17.0393 11.9858 17.0533 11.3718 17.3439 11.0812C17.1939 10.5655 16.8799 10.003 16.6643 9.76397C16.5236 9.73584 16.3549 9.71709 16.2471 9.72647C16.3949 9.41452 16.6422 9.16058 16.9502 9.00459C16.9877 8.92959 17.0346 8.86397 17.0768 8.79834C17.1049 8.39522 18.7033 8.58272 19.0455 8.83116C19.0455 9.28116 19.1861 10.7765 19.3549 11.1843H19.3596Z" fill="#96877D" stroke="black" stroke-width="0.0458307"/>
<path d="M17.4184 11.4562C17.3809 10.7624 17.1465 10.1906 16.8184 9.8015C16.9372 9.83563 17.0625 9.8411 17.1839 9.81747C17.3053 9.79384 17.4194 9.74178 17.5168 9.66556C17.798 9.44056 18.5527 9.03744 18.8293 9.21088C18.8527 9.26713 18.8621 9.39837 18.848 9.47806C18.7824 9.27181 18.0559 9.59525 17.8496 9.69369C17.6574 9.8015 17.5684 9.94681 17.6387 10.2749C17.5262 10.1624 17.5637 10.0499 17.4465 9.97025C17.4934 10.1062 17.5309 10.3453 17.5449 10.5468C17.498 10.4062 17.423 10.1062 17.2543 9.92806C17.433 10.4426 17.5063 10.9878 17.4699 11.5312C17.5871 11.5312 17.8449 11.3906 17.948 11.2968C17.859 11.4515 17.5965 11.5593 17.423 11.6015C17.3393 11.772 17.2975 11.96 17.3012 12.1499C17.2871 11.9578 17.3387 11.4843 17.4184 11.4562ZM19.359 11.1843C19.209 10.9921 18.9371 10.889 18.5949 10.9968C18.6512 10.9687 18.7637 10.9171 18.8621 10.8937C18.8527 10.7859 18.7684 10.3171 18.7543 10.2046L18.848 10.1577C18.8949 10.439 18.9605 10.7578 18.998 10.889C19.0309 10.8984 19.1012 10.9171 19.1621 10.9546C19.134 10.8421 18.984 10.0593 18.9887 9.97025L19.1199 9.89056C19.1583 10.3281 19.2367 10.7611 19.3543 11.1843H19.359Z" fill="black"/>
<path d="M19.2793 11.7282C19.3449 11.4751 19.3027 11.2407 19.0074 11.2079C18.773 11.1845 18.5293 11.4517 18.234 11.7235L19.2793 11.7282ZM17.348 9.48291C17.2168 9.50635 16.9262 9.47353 16.7762 9.41728C16.7855 9.37041 16.7996 9.32354 16.823 9.27197C16.7293 9.34229 16.5559 9.48291 16.4902 9.58604C16.6965 9.63291 17.1324 9.66104 17.348 9.48291Z" fill="#96877D" stroke="black" stroke-width="0.0458307"/>
<path d="M17.3436 11.0812C17.3904 11.25 17.4232 11.4093 17.4279 11.55M16.9498 9.00464C16.8701 9.14526 16.7998 9.29058 16.7764 9.41714C16.9264 9.47339 17.217 9.5062 17.3482 9.48276" stroke="black" stroke-width="0.0458307"/>
<path d="M16.6641 9.76406L16.8187 9.80156C16.9376 9.83569 17.0629 9.84116 17.1843 9.81754C17.3057 9.79391 17.4198 9.74185 17.5172 9.66562C17.7328 9.47812 18.3281 8.89687 18.9984 8.83594" stroke="black" stroke-width="0.0458307"/>
<path d="M16.4902 9.58604C16.7012 9.63291 17.1324 9.66104 17.348 9.48291C17.7606 9.10726 18.28 8.86966 18.834 8.80322" stroke="black" stroke-width="0.0458307"/>
<path d="M20.1517 12.3281C20.8829 12.9375 21.422 13.5188 21.5814 14.4516C21.7407 15.3891 22.036 15.6375 22.4017 15.3891C22.3126 15.9281 21.8626 15.9938 21.4782 15.5766C21.511 16.2 21.3048 16.95 20.761 17.2172C20.7282 16.8422 20.9345 16.5516 20.8735 16.2422C20.8501 16.1063 20.8407 15.7922 20.9907 15.6469C20.7001 15.7641 20.2454 15.5438 20.2032 15.0375C20.5314 15.225 20.9626 15.2531 21.1267 14.7563C21.2907 14.2547 21.2204 13.4016 20.1517 12.3328V12.3281ZM21.0751 7.46251C21.3001 6.75938 21.8954 6.8297 22.097 7.1297C22.6829 6.73595 22.7579 7.62657 23.2595 7.45313C23.25 7.54097 23.2074 7.62188 23.1403 7.67937C23.0733 7.73686 22.9868 7.7666 22.8985 7.76251C23.0907 7.96876 22.8189 8.28282 23.2267 8.47032C22.8798 8.67657 22.3923 8.46095 22.261 7.88907C22.1485 8.15626 21.7407 8.15626 21.572 7.93595C21.9329 7.82813 21.9048 7.4297 21.7032 7.27501C21.5017 7.11563 21.1407 7.18126 21.0751 7.46251ZM19.3032 9.01876C19.4607 9.6149 19.7562 10.1657 20.1657 10.6266C20.5876 11.0813 21.2204 10.9688 21.572 10.5328C21.5814 11.4 20.822 11.4703 20.4001 11.1984C20.2173 11.0766 20.072 11.1375 20.2454 11.3297C20.5173 11.625 21.1079 11.8406 21.8064 12.0188C23.0251 12.3281 22.5939 13.4859 22.2376 13.4719C22.3407 13.4719 22.4251 13.3453 22.2751 13.1859C21.2157 12.0469 19.0595 12.4969 19.0923 9.95626C18.8673 10.6219 17.9345 10.3641 18.3704 9.57188C18.511 9.70782 18.7548 9.7172 18.8251 9.51095C18.8814 9.34688 18.8439 9.06563 18.6001 8.82657C18.6376 8.82188 18.7267 8.82657 18.7173 8.7047C18.7267 8.77501 18.7829 8.87813 18.9189 8.84532C18.9564 8.91563 18.9985 8.9672 19.0548 8.93907C19.0642 8.93438 19.1017 8.91563 19.0829 8.84063C19.097 8.98126 19.2329 9.02813 19.3032 9.01876Z" fill="#337321" stroke="black" stroke-width="0.0458307"/>
<path d="M20.4051 11.1983C20.9113 11.5921 21.4832 11.5921 22.0082 10.8655C22.1723 10.6312 22.4348 10.439 22.6176 10.4155C22.8051 10.3921 22.7957 10.1858 22.9317 10.1437C22.8473 10.1155 22.8098 9.98897 22.6785 10.003C23.0067 9.87178 22.9129 9.55772 23.0723 9.40772C22.941 9.46397 22.7348 9.2296 22.5473 9.5296C22.5942 9.38897 22.5332 9.2296 22.4863 9.16866C22.5004 9.32335 22.2285 9.35616 22.1723 9.74991C22.1442 9.97491 22.0457 9.96085 22.027 9.61397C22.0129 9.36553 21.9145 8.6671 21.7926 8.31553C21.6707 7.96397 21.6426 7.47647 21.8067 7.40616C21.7832 7.3546 21.7457 7.31241 21.7035 7.27491C21.502 7.12022 21.1457 7.18116 21.0754 7.46241C20.8504 8.17022 21.4879 8.57803 21.4317 9.34678C21.3379 8.77491 20.5598 8.6296 20.5692 8.0671C20.316 8.20303 20.3535 8.45147 20.4473 8.64835C20.2926 8.35772 19.9317 8.83585 19.627 8.4421C19.5942 8.96241 19.9785 9.15928 20.2926 9.18272C20.2621 9.2456 20.2445 9.31399 20.241 9.3838C20.2375 9.45361 20.2481 9.52341 20.2722 9.58904C20.2962 9.65466 20.3333 9.71477 20.3811 9.76576C20.4289 9.81676 20.4865 9.8576 20.5504 9.88585C20.5598 9.3046 21.5629 9.54366 21.5723 10.5421C21.5817 11.3952 20.8129 11.4655 20.4004 11.1983H20.4051ZM21.8067 12.0187C23.0254 12.328 22.5942 13.4858 22.2379 13.4718C22.0082 13.4718 21.7926 13.2374 21.7785 13.0452C21.516 13.2093 21.5863 13.5374 21.7879 13.6687C21.2348 13.589 21.0051 14.0202 20.991 14.4937C21.0942 14.2733 21.3988 14.2593 21.5113 14.3062C21.6238 14.353 21.9192 14.3812 22.0363 14.2218C21.9426 14.3202 22.0973 14.5499 21.9613 14.728C22.4207 14.7046 22.6176 14.1983 22.5426 13.9733C23.1332 13.3312 23.0207 12.2765 21.8067 12.0187ZM20.8785 16.9593C20.9582 17.0202 20.9488 17.1468 20.8926 17.2218C20.7848 17.3812 20.9488 17.7562 20.616 17.8218C20.5176 17.8405 20.4473 17.7655 20.4145 17.6343C20.3207 17.2593 20.6488 17.2358 20.6863 17.0624C20.7192 16.889 20.8129 16.9124 20.8785 16.9593Z" fill="#F7E017" stroke="black" stroke-width="0.0458307"/>
<path d="M20.5783 17.6344C20.6861 17.7001 20.7799 17.7891 20.7189 18.2016C20.6955 18.3751 20.6908 18.7969 20.8174 18.811C20.7377 18.8485 20.5736 18.8907 20.508 18.7829C20.4377 18.9094 20.2877 18.8626 20.2361 18.6985C20.1564 18.7688 20.0486 18.6376 20.058 18.5251C19.9877 18.5719 19.8518 18.4922 19.8939 18.2438C19.8096 18.2766 19.7064 18.2016 19.6689 18.136C19.7908 18.1126 20.1049 17.9297 20.1846 17.7751C20.2596 17.6251 20.4518 17.5594 20.5783 17.6344Z" fill="#F7E017" stroke="black" stroke-width="0.0458307"/>
<path d="M20.5076 18.7829C20.5404 18.7267 20.5639 18.4829 20.5404 18.3329M20.2357 18.7032C20.292 18.6563 20.3998 18.4876 20.4232 18.3423M20.0576 18.5298C20.1232 18.4923 20.2967 18.2485 20.3389 18.0798M19.8936 18.2485C20.078 18.1643 20.2318 18.0251 20.3342 17.8501" stroke="black" stroke-width="0.0458307"/>
<path d="M19.0925 9.96104C19.0785 11.0251 19.4535 11.5642 19.9691 11.9157C19.7769 11.7751 19.8566 11.311 19.5988 11.161C19.6597 11.1563 19.7581 11.2548 19.9081 11.2173C19.8378 11.0204 19.716 10.7204 19.43 10.6782C19.505 10.6688 19.6644 10.697 19.7722 10.6501C19.6222 10.3782 19.2285 10.5095 19.0925 9.96104ZM19.0035 8.94385C18.9706 8.92979 18.9425 8.89697 18.9191 8.8501C18.7785 8.88291 18.7316 8.7751 18.7175 8.70947C18.7269 8.82666 18.6378 8.82197 18.6003 8.82666C18.8441 9.07041 18.8816 9.35166 18.8253 9.51103C18.755 9.71728 18.5113 9.70791 18.3706 9.57197C18.3519 10.0173 18.8347 10.1626 19.0081 9.60478C19.0081 9.69853 19.1066 9.68916 19.1347 9.81104C19.2566 9.57666 19.1628 9.22979 19.0035 8.94385Z" fill="#F7E017" stroke="black" stroke-width="0.0458307"/>
<path d="M18.234 6.83434C18.0331 6.58823 17.9238 6.28012 17.9246 5.96246C17.934 5.73746 18.0137 5.48434 18.2902 5.58746C18.2058 5.58746 18.2668 5.7984 18.173 5.82184C18.248 5.84996 18.3465 5.77496 18.3605 5.72809C18.3793 5.80309 18.4918 5.78434 18.5012 5.86871C18.548 5.82184 18.5012 5.62027 18.4308 5.57809C18.4777 5.54996 18.5058 5.39059 18.4824 5.3109C18.4402 5.32027 18.3746 5.39059 18.3605 5.4984C18.384 5.41402 18.3605 5.20309 18.234 5.17027C18.2012 5.23121 18.1918 5.37184 18.2387 5.45152C18.1262 5.41871 17.9574 5.50777 17.9199 5.62027C17.9293 5.47965 17.948 5.28746 18.0137 5.1609C18.0418 5.11871 17.9808 5.0484 17.9387 5.14684C17.8496 4.94996 17.6246 4.84684 17.5262 4.94527C17.423 5.03902 17.2918 4.8984 17.2074 5.05309C17.123 5.20777 16.8418 5.22652 16.8558 5.39059C16.8652 5.48902 16.8465 5.64371 16.8043 5.69996C16.7058 5.83121 16.8512 5.93434 16.8793 6.05152C16.8605 5.65777 17.3902 4.88902 17.9199 5.18902C17.873 5.28746 17.8262 5.48434 17.8121 5.7234C17.7887 6.07965 17.8355 6.57652 18.1215 6.86715L18.234 6.83434Z" fill="#337321" stroke="black" stroke-width="0.0458307"/>
<path d="M18.3937 5.59217C18.389 5.49842 18.5249 5.37655 18.7077 5.38123C18.928 5.38123 19.0968 5.62498 19.2702 5.60155C19.4484 5.57811 19.364 5.6953 19.3265 5.72342C19.3064 5.74017 19.2913 5.76221 19.283 5.78706C19.2747 5.8119 19.2736 5.83857 19.2796 5.86405C19.2937 5.9203 19.2702 5.9578 19.1999 5.90155C19.0405 5.78436 18.8859 5.94842 18.6796 5.85467C18.5015 5.77967 18.3984 5.7328 18.3937 5.59217Z" fill="#C8102E" stroke="black" stroke-width="0.0458307"/>
<path d="M17.4939 8.04839C17.4049 7.72026 17.0721 7.36401 16.9127 7.27964L16.9033 7.1062C16.9924 7.05933 17.2033 6.86714 17.2971 6.75464C17.9533 7.12964 18.8439 6.59995 19.2518 6.05151L19.4111 6.16401L19.3314 6.28589L19.2471 6.23433C19.1486 6.37964 18.7736 6.79683 18.6611 6.89058C18.7969 6.9305 18.937 6.95411 19.0783 6.96089C19.4439 6.65151 19.7346 6.37026 19.8752 6.35151L19.9877 6.53901L19.8846 6.62339L19.8002 6.56714C19.3459 7.08995 19.0015 7.69894 18.7877 8.35776C18.5439 8.29214 17.6721 8.33433 17.4939 8.04839Z" fill="#96877D" stroke="black" stroke-width="0.0458307"/>
<path d="M18.6566 6.89072C18.6004 6.87197 18.5535 6.85322 18.5254 6.83447C18.4551 6.90947 18.2816 6.9751 18.0566 6.98916" stroke="black" stroke-width="0.0458307"/>
<path d="M17.5314 7.93594C17.4705 7.54688 17.5642 7.11563 17.7283 6.98906C17.926 7.13109 18.1645 7.20513 18.408 7.20006C18.6514 7.19499 18.8866 7.11108 19.0783 6.96094" stroke="black" stroke-width="0.0458307"/>
<path d="M17.5312 7.73447C17.8078 7.72041 18.4125 7.78135 18.5625 7.80479C18.7078 7.83291 18.9563 7.90322 18.9234 7.99229M17.6578 7.67822L17.7375 7.58447L17.6578 7.49072L17.5781 7.58447L17.6578 7.67822Z" stroke="black" stroke-width="0.0458307"/>
<path d="M17.8451 5.74224C17.7467 5.57349 17.4701 5.52192 17.4092 5.74224C17.3857 5.84536 17.3436 5.94849 17.2779 5.99536C17.2123 6.04224 17.2311 6.18286 17.2592 6.2438C17.3248 6.39849 17.2639 6.5438 17.3998 6.64224C17.3998 6.52036 17.5498 6.39849 17.6764 6.36567C17.8029 6.33286 17.9951 6.20161 18.0186 6.04692C18.0467 5.89692 18.0889 5.77036 17.8451 5.74224Z" fill="#337321" stroke="black" stroke-width="0.0458307"/>
<path d="M17.2174 7.23755H17.2549V7.5188L17.2736 7.53286L17.4799 7.39224L17.4986 7.42974L17.2924 7.57036V7.59849L17.4986 7.73911L17.4799 7.77661L17.2736 7.63599C17.2687 7.64219 17.2622 7.64702 17.2549 7.65005V7.9313H17.2174V7.65005L17.1986 7.63599L16.9924 7.77661L16.9736 7.7438L17.1799 7.60317V7.57505L16.9736 7.43442L16.9924 7.39692L17.1986 7.53755L17.2174 7.52349V7.23755Z" fill="#96877D" stroke="black" stroke-width="0.0458307"/>
<path d="M17.5311 7.93135C17.4959 7.97617 17.4511 8.01251 17.4 8.03767C17.3488 8.06282 17.2927 8.07615 17.2357 8.07666C17.0061 8.07666 16.8232 7.85635 16.8232 7.58447C16.8232 7.3126 17.0061 7.09229 17.2357 7.09229C17.367 7.09229 17.4889 7.16728 17.5639 7.28447C17.5404 7.3501 17.517 7.48604 17.517 7.55166C17.4982 7.38291 17.3764 7.24697 17.2357 7.24697C17.0764 7.24697 16.9545 7.40166 16.9545 7.58447C16.9545 7.77197 17.0764 7.92197 17.2357 7.92197C17.3623 7.92197 17.4795 7.81416 17.5076 7.66885C17.5076 7.73447 17.5123 7.88447 17.5264 7.93135H17.5311Z" fill="#96877D" stroke="black" stroke-width="0.0458307"/>
<path d="M17.0625 8.40459C17.0193 8.34249 16.9949 8.26926 16.9922 8.19365C17.0297 8.19365 17.1047 8.22178 17.1375 8.26397C17.1375 8.20772 17.1187 8.09522 17.1281 8.04365C17.175 8.06709 17.2734 8.13272 17.3109 8.20772C17.3016 8.16084 17.2828 8.02021 17.3016 7.94053C17.3531 7.97803 17.4422 8.07646 17.4609 8.14209C17.4609 8.03896 17.4937 7.86553 17.5219 7.82334C17.5594 7.87021 17.6203 7.91709 17.6625 7.97803C17.6672 7.89365 17.7047 7.79053 17.7562 7.76709C17.8177 7.85986 17.8563 7.96589 17.8688 8.07647C17.9063 8.05772 17.9625 7.98272 17.9813 7.93584C18.0047 7.98272 18.0281 8.05303 18.0141 8.14209C18.0675 8.08983 18.1077 8.02554 18.1312 7.95459C18.1641 7.9874 18.2297 8.0624 18.2484 8.14678C18.2391 8.08115 18.2437 7.95928 18.225 7.89365C18.2906 7.93115 18.3422 8.00615 18.3563 8.08115C18.375 8.01084 18.4125 7.88428 18.45 7.84678C18.4889 7.93056 18.5097 8.02161 18.5109 8.11397C18.5344 8.06709 18.5719 7.97334 18.6047 7.9499C18.6328 8.00615 18.6328 8.13271 18.6234 8.19834C18.6551 8.14702 18.6965 8.10242 18.7453 8.06709C18.7453 8.09522 18.7547 8.16084 18.7453 8.20772C18.7828 8.17959 18.8484 8.03896 18.8719 7.96396C18.9328 8.00146 18.9937 8.12803 18.9984 8.18896C19.0615 8.14636 19.1143 8.09033 19.1531 8.0249C19.1531 8.05771 19.1672 8.16084 19.1531 8.23584C19.1766 8.20303 19.2 8.14209 19.2141 8.11397C19.2328 8.17022 19.2188 8.29209 19.2047 8.35772C19.2422 8.32022 19.2984 8.29209 19.3359 8.29209C19.3359 8.38115 19.2891 8.53584 19.2375 8.65303C18.8156 8.5124 17.9437 8.46084 17.0625 8.40459Z" fill="#337321" stroke="black" stroke-width="0.0458307"/>
<path d="M18.5205 5.64854C18.5205 5.61104 18.5908 5.52197 18.7221 5.52197C18.8721 5.52197 19.0174 5.6626 19.1439 5.64854C19.2658 5.63916 19.2049 5.69072 19.1768 5.7001C19.1486 5.71416 19.1346 5.73291 19.1439 5.75635C19.1533 5.77979 19.1393 5.79385 19.0877 5.7751C18.9752 5.72822 18.8674 5.79385 18.7221 5.75635C18.5955 5.72354 18.5252 5.70947 18.5205 5.64854Z" fill="#F7E017"/>
<path d="M17.1987 8.71878C17.0675 8.90628 16.9362 8.87347 16.9081 8.75159C16.8847 8.62972 16.9784 8.57347 16.9456 8.47034C16.9081 8.36722 17.0019 8.32034 17.044 8.36722C17.0909 8.41409 17.2315 8.26409 17.2878 8.41878C17.3487 8.57347 17.4003 8.68597 17.3628 8.7469C17.33 8.80784 17.2222 8.77972 17.1987 8.71409V8.71878ZM17.7612 8.43753C17.7331 8.36722 17.869 8.23597 17.9394 8.32972C18.0097 8.42347 18.1222 8.22659 18.1831 8.37659L18.2909 8.68128C18.3237 8.76565 18.1269 8.81253 18.0659 8.73753C18.0753 8.7844 17.8972 8.82659 17.8456 8.68597L17.7612 8.43284V8.43753ZM18.6659 8.5219C18.6331 8.4469 18.7925 8.34378 18.8769 8.47503C18.9003 8.42347 19.055 8.4094 19.0644 8.56878L19.0878 8.88753C19.0878 8.94847 18.994 9.00472 18.919 8.84534C18.7878 8.87815 18.7315 8.79378 18.7175 8.70472L18.6706 8.51722L18.6659 8.5219Z" fill="#F7E017" stroke="black" stroke-width="0.0458307"/>
<path d="M17.283 8.41887C17.2596 8.36262 17.3908 8.25949 17.4799 8.33918C17.5737 8.41887 17.6955 8.27355 17.7471 8.40949C17.8549 8.69543 17.8596 8.71418 17.8315 8.77043C17.7987 8.82668 17.658 8.80324 17.6205 8.72824C17.6158 8.7798 17.494 8.77512 17.433 8.72824C17.358 8.68137 17.3112 8.51262 17.283 8.41887ZM18.2018 8.42824C18.169 8.34855 18.3752 8.27824 18.4643 8.41887C18.5112 8.37199 18.6096 8.3673 18.6658 8.52199C18.7221 8.67199 18.7315 8.75637 18.6893 8.79855C18.6612 8.82668 18.5533 8.84543 18.5205 8.77512C18.4737 8.81262 18.3237 8.7798 18.2908 8.68137C18.258 8.58762 18.2299 8.49855 18.1971 8.42824H18.2018ZM19.069 8.58293C19.0643 8.51262 19.1768 8.47512 19.2143 8.58293C19.2612 8.69074 19.3924 8.5923 19.4018 8.77043C19.4018 8.80324 19.3877 8.93449 19.3455 8.99543C19.3033 9.06105 19.1018 8.99543 19.0877 8.86418C19.0737 8.72824 19.069 8.65324 19.069 8.58293Z" fill="#337321" stroke="black" stroke-width="0.0458307"/>
<path d="M17.1988 8.7187C17.152 8.63901 17.0816 8.51245 17.002 8.64839M17.6254 8.72808C17.5905 8.67446 17.5637 8.61603 17.5457 8.55464M18.066 8.73745C18.0231 8.70119 17.988 8.65652 17.9629 8.6062M18.0238 8.46558C18.1035 8.47495 18.1551 8.55933 18.1785 8.60151C18.202 8.63901 18.2535 8.70933 18.291 8.7187M18.5207 8.77964C18.4926 8.72808 18.4691 8.68589 18.4645 8.64839M18.4645 8.4187C18.4926 8.46558 18.5113 8.49839 18.5254 8.54058M18.9191 8.84526C18.8898 8.77391 18.8411 8.7122 18.7785 8.66714M18.9004 8.55933C18.9051 8.71401 19.0785 8.72339 19.0879 8.8312M19.2191 8.58276C19.2332 8.62026 19.2426 8.66245 19.2426 8.72339" stroke="black" stroke-width="0.0458307"/>
<path d="M0 0H12V12H0V0Z" fill="#012169"/>
<path d="M12 0V1.5L7.54688 6L12 10.3828V12H10.4297L5.95312 7.59375L1.59375 12H0V10.4062L4.35938 6.02344L0 1.73438V0H1.45312L5.95312 4.40625L10.3125 0H12Z" fill="white"/>
<path d="M4.3125 7.59375L4.57031 8.39062L0.984375 12H0V11.9297L4.3125 7.59375ZM7.21875 7.3125L8.48438 7.5L12 10.9453V12L7.21875 7.3125ZM12 0L7.5 4.59375L7.40625 3.5625L10.9219 0H12ZM0 0.0234375L4.52344 4.45312L3.14062 4.26562L0 1.14844V0.0234375Z" fill="#C8102E"/>
<path d="M4.125 0V12H7.875V0H4.125ZM0 4.125V7.875H12V4.125H0Z" fill="white"/>
<path d="M0 4.875V7.125H12V4.875H0ZM4.875 0V12H7.125V0H4.875Z" fill="#C8102E"/>
</g>
<defs>
<clipPath id="clip0_208_24556">
<rect width="24" height="24" rx="12" fill="white"/>
</clipPath>
</defs>
</svg>
