<svg width="24" height="24" viewBox="0 0 24 24" fill="none" xmlns="http://www.w3.org/2000/svg">
<g clip-path="url(#clip0_208_26816)">
<path d="M24 24V0H0V24H24Z" fill="#002868"/>
<path d="M23.0156 8.97656V13.1953C23.0156 16.0078 21.6094 19.0371 18.0938 20.6777C14.5781 19.0371 13.1719 16.0078 13.1719 13.1953V8.97656H23.0156Z" fill="#FCD116" stroke="black"/>
<path d="M23.0156 8.97656V13.1953C23.0156 16.0078 21.6094 19.0371 18.0938 20.6777C14.5781 19.0371 13.1719 16.0078 13.1719 13.1953V8.97656H23.0156Z" stroke="white" stroke-width="0.875"/>
<path d="M16.3184 13.623C16.1895 13.8398 15.9727 13.8866 15.8027 13.8163C15.627 13.746 15.4688 13.3359 15.293 13.1132C15.123 12.8964 15.0762 12.9902 14.959 12.8613C14.8477 12.7382 14.6719 12.6445 14.3965 12.5156C14.2441 12.4452 14.0859 12.3808 13.9805 12.1113C14.0215 11.9999 14.1328 11.9062 14.2207 11.871C14.3086 11.8417 14.3789 11.7128 14.3906 11.6015C14.4023 11.496 14.4961 11.3788 14.625 11.2909C14.5664 11.3027 14.4434 11.2792 14.3848 11.2382C14.332 11.1913 14.2441 11.2031 14.1914 11.2441C14.1387 11.2792 14.0742 11.2909 13.9805 11.2792C14.0156 11.2499 14.0801 11.1855 14.0859 11.1269C14.0918 11.0683 14.1621 11.039 14.2969 11.039C14.4258 11.039 14.5137 10.8866 14.6191 10.8866C14.543 10.8866 14.5605 10.7577 14.6016 10.7519C14.4141 10.7167 14.4375 10.5644 14.5137 10.5644C14.5078 10.5409 14.4844 10.5175 14.3965 10.4882C14.3145 10.4589 14.3555 10.3827 14.4199 10.3359C14.3613 10.2187 14.4141 10.1308 14.5078 10.0546C14.3789 10.0488 14.5195 9.86711 14.5547 9.7675C14.5898 9.67375 14.6074 9.66204 14.6484 9.72063C14.6953 9.77336 14.8008 9.89641 14.9238 9.93157C15.041 9.96672 15.1113 10.0312 15.1348 10.1308C15.1582 10.2363 15.2051 10.289 15.334 10.3359C15.4688 10.3769 15.6504 10.4882 15.627 10.7402C15.7324 10.746 15.8086 10.7753 15.873 10.8281" fill="#FCAD56"/>
<path d="M16.3184 13.623C16.1895 13.8398 15.9727 13.8866 15.8027 13.8163C15.627 13.746 15.4688 13.3359 15.293 13.1132C15.123 12.8964 15.0762 12.9902 14.959 12.8613C14.8477 12.7382 14.6719 12.6445 14.3965 12.5156C14.2441 12.4452 14.0859 12.3808 13.9805 12.1113C14.0215 11.9999 14.1328 11.9062 14.2207 11.871C14.3086 11.8417 14.3789 11.7128 14.3906 11.6015C14.4023 11.496 14.4961 11.3788 14.625 11.2909C14.5664 11.3027 14.4434 11.2792 14.3848 11.2382C14.332 11.1913 14.2441 11.2031 14.1914 11.2441C14.1387 11.2792 14.0742 11.2909 13.9805 11.2792C14.0156 11.2499 14.0801 11.1855 14.0859 11.1269C14.0918 11.0683 14.1621 11.039 14.2969 11.039C14.4258 11.039 14.5137 10.8866 14.6191 10.8866C14.543 10.8866 14.5605 10.7577 14.6016 10.7519C14.4141 10.7167 14.4375 10.5644 14.5137 10.5644C14.5078 10.5409 14.4844 10.5175 14.3965 10.4882C14.3145 10.4589 14.3555 10.3827 14.4199 10.3359C14.3613 10.2187 14.4141 10.1308 14.5078 10.0546C14.3789 10.0488 14.5195 9.86711 14.5547 9.7675C14.5898 9.67375 14.6074 9.66204 14.6484 9.72063C14.6953 9.77336 14.8008 9.89641 14.9238 9.93157C15.041 9.96672 15.1113 10.0312 15.1348 10.1308C15.1582 10.2363 15.2051 10.289 15.334 10.3359C15.4688 10.3769 15.6504 10.4882 15.627 10.7402C15.7324 10.746 15.8086 10.7753 15.873 10.8281" stroke="black" stroke-width="0.034375" stroke-linecap="round" stroke-linejoin="round"/>
<path d="M16.6404 10.4473C16.6404 10.5879 16.7048 10.6758 16.7869 10.7461C16.8748 10.8164 16.9509 10.875 16.9333 10.9629C16.9158 11.0566 16.9509 11.1152 17.0271 11.1738C17.1091 11.2324 17.1677 11.3027 17.1443 11.4199C17.1208 11.5371 17.1384 11.6074 17.1853 11.6953C17.2322 11.7832 17.3142 11.8535 17.279 11.9941C17.2439 12.1348 17.2615 12.3223 17.3083 12.416C17.3494 12.5039 17.3083 12.5742 17.2263 12.7324C17.1443 12.8848 17.0974 12.9434 16.9275 13.002C16.7517 13.0547 16.74 13.1602 16.74 13.3418C16.74 13.5293 16.6169 13.623 16.3884 13.5879C16.154 13.7812 16.0076 13.5527 15.949 13.2656C15.8904 12.9785 15.8787 12.668 15.533 12.416C15.1931 12.1582 15.3279 11.7246 15.615 11.5488C15.9021 11.3789 15.8669 10.875 15.8318 10.5645C15.8025 10.2539 16.0076 10.0781 16.1658 9.9082C16.3767 9.99023 16.6404 10.3125 16.6404 10.4473Z" fill="#FFA1A1" stroke="black" stroke-width="0.034375" stroke-linecap="round" stroke-linejoin="round"/>
<path d="M16.1431 12.4452C16.0786 12.2929 16.0083 12.1406 16.1782 11.8124C16.354 11.4785 16.2427 11.2265 16.1899 11.0566C16.1372 10.8925 16.1255 10.7402 16.1899 10.6699C16.2602 10.6054 16.2895 10.5644 16.2954 10.4531C16.3013 10.3476 16.3892 10.3827 16.4009 10.4355C16.4126 10.4882 16.4243 10.5761 16.3306 10.7343C16.2368 10.8984 16.5942 11.2968 16.4302 11.7245C16.3188 12.0234 16.4653 12.4042 16.5239 12.6679C16.5825 12.9316 16.6177 13.5644 16.231 13.6581C16.4946 13.5292 16.2485 12.6913 16.1431 12.4452Z" fill="#F1B2DC" stroke="black" stroke-width="0.034375" stroke-linecap="round" stroke-linejoin="round"/>
<path d="M14.4023 12.3984C14.4668 12.4102 14.502 12.375 14.5195 12.334C14.5371 12.293 14.5488 12.2695 14.6074 12.2637C14.666 12.2637 14.7598 12.2461 14.7832 12.1992C14.8008 12.1523 14.8711 12.1934 14.9355 12.0762C14.9941 11.9531 15.0352 11.8125 15.1934 11.7598M15.627 10.7402C15.5684 10.7402 15.3984 10.7461 15.3281 10.8984M14.8418 10.0137C14.9824 10.0547 14.9238 10.1484 14.9941 10.2012C15.123 10.3008 15.0059 10.4062 15.1113 10.4355C15.2168 10.4648 15.2109 10.4824 15.1875 10.5996C15.1523 10.7344 15.2812 10.7402 15.2344 10.8281M14.625 11.291C14.707 11.2148 14.9121 11.1562 14.959 11.0742M14.6191 10.8867C14.7422 10.8809 14.9062 10.9277 14.9297 10.8809M14.6016 10.752C14.6602 10.752 14.7832 10.7109 14.8066 10.6289M14.5137 10.5645C14.584 10.5645 14.6719 10.5586 14.7598 10.4941M14.4199 10.3359C14.4727 10.2949 14.5664 10.3418 14.6543 10.2832M14.5078 10.0547C14.5488 10.0547 14.6367 10.043 14.6367 10.0957" stroke="black" stroke-width="0.034375" stroke-linecap="round" stroke-linejoin="round"/>
<path d="M20.1152 11.127C20.1152 11.127 19.7051 10.7812 19.3652 10.5469C19.0254 10.3125 18.6152 10.0254 18.6152 9.9668C18.6797 9.91992 19.0254 10.1426 19.5 10.4297C19.9805 10.7227 20.25 11.0098 20.25 11.0098L20.1152 11.127ZM20.0859 11.3613C20.0859 11.3613 19.6875 11.1211 19.2949 10.9512C18.8848 10.7812 18.2695 10.7812 18.2051 10.7227C18.2051 10.6641 18.9199 10.6289 19.4297 10.834C19.9512 11.0742 20.2207 11.2441 20.2207 11.2441L20.0859 11.3613ZM20.0801 11.7598C20.0801 11.7598 19.6465 11.5605 19.2246 11.4668C18.8145 11.373 18.2285 11.4082 18.1582 11.3555C18.1582 11.2969 18.8848 11.1797 19.4297 11.3555C19.9805 11.5254 20.2148 11.6426 20.2148 11.6426L20.0801 11.7598ZM20.0566 12.1641C20.0566 12.1641 19.7285 11.9414 19.2949 11.8945C18.8848 11.8535 18.3398 12.1641 18.2695 12.1055C18.2695 12.0469 18.7441 11.7012 19.3359 11.7598C19.916 11.8184 20.1914 12.0469 20.1914 12.0469L20.0566 12.1641ZM20.1914 10.8867C20.1914 10.8867 19.7754 10.5059 19.7754 10.248C19.7754 10.0195 20.0273 9.66797 20.1387 9.66797C20.0801 9.78516 19.8867 10.0195 19.8867 10.248C19.8867 10.4824 20.3262 10.7695 20.3262 10.7695L20.1914 10.8867Z" fill="#9E540A" stroke="black" stroke-width="0.034375" stroke-linecap="round" stroke-linejoin="round"/>
<path d="M20.191 10.8867C20.191 10.8867 20.2731 10.5059 20.2731 10.248C20.2731 9.90234 20.027 9.58594 20.0504 9.49805C20.1383 9.58594 20.3844 9.84375 20.3844 10.248C20.3844 10.5996 20.3258 10.7695 20.3258 10.7695L20.191 10.8867Z" fill="#9E540A" stroke="black" stroke-width="0.034375" stroke-linecap="round" stroke-linejoin="round"/>
<path d="M20.291 10.7637C20.291 10.6523 20.25 10.5527 20.1797 10.4766C20.0859 10.3652 19.9453 10.3301 19.7988 10.3535C19.623 10.3828 19.4824 10.4883 19.3945 10.6523C19.2773 10.8691 19.2656 11.1035 19.2598 11.332C19.2598 12.123 19.2891 12.4453 19.3125 13.2246C19.3184 13.4531 19.3594 13.9219 19.2539 14.291C19.2129 14.4492 19.166 14.5957 19.0957 14.748C19.1426 14.5547 19.166 14.4551 19.1895 14.3086C19.2539 13.9277 19.2363 13.5703 19.2246 13.2188C19.2012 12.498 19.1602 12.1289 19.1367 11.2559C19.1309 10.9922 19.1543 10.793 19.2773 10.582C19.4062 10.3652 19.6289 10.207 19.8809 10.207C19.9863 10.207 20.0742 10.2246 20.1621 10.2773C20.3379 10.3711 20.4199 10.5645 20.4199 10.7578L20.291 10.7637Z" fill="#9E540A" stroke="#FCD116" stroke-width="0.1875" stroke-linecap="round" stroke-linejoin="round"/>
<path d="M20.291 10.7637C20.291 10.6523 20.25 10.5527 20.1797 10.4766C20.0859 10.3652 19.9453 10.3301 19.7988 10.3535C19.623 10.3828 19.4824 10.4883 19.3945 10.6523C19.2773 10.8691 19.2656 11.1035 19.2598 11.332C19.2598 12.123 19.2891 12.4453 19.3125 13.2246C19.3184 13.4531 19.3594 13.9219 19.2539 14.291C19.2129 14.4492 19.166 14.5957 19.0957 14.748C19.1426 14.5547 19.166 14.4551 19.1895 14.3086C19.2539 13.9277 19.2363 13.5703 19.2246 13.2188C19.2012 12.498 19.1602 12.1289 19.1367 11.2559C19.1309 10.9922 19.1543 10.793 19.2773 10.582C19.4062 10.3652 19.6289 10.207 19.8809 10.207C19.9863 10.207 20.0742 10.2246 20.1621 10.2773C20.3379 10.3711 20.4199 10.5645 20.4199 10.7578L20.291 10.7637Z" fill="#9E540A"/>
<path d="M20.3267 13.5879C20.3267 13.5879 20.1626 13.8809 20.0395 14.0918C19.9165 14.3027 19.8169 14.3496 19.7231 14.2852C19.6352 14.2207 19.7114 14.0508 19.7817 13.9688C19.852 13.8867 20.2446 13.5059 20.2446 13.5059L20.3267 13.5879Z" fill="#9E540A" stroke="black" stroke-width="0.034375" stroke-linecap="round" stroke-linejoin="round"/>
<path d="M20.367 13.6113C20.367 13.6113 20.3026 13.9453 20.2498 14.1855C20.203 14.4258 20.1209 14.5078 20.0213 14.4785C19.9158 14.4551 19.9334 14.2617 19.9744 14.1621C20.0155 14.0625 20.2615 13.5586 20.2615 13.5586L20.367 13.6113Z" fill="#9E540A" stroke="black" stroke-width="0.034375" stroke-linecap="round" stroke-linejoin="round"/>
<path d="M20.437 13.623V14.209C20.437 14.4551 20.3784 14.5547 20.2671 14.5488C20.1616 14.543 20.1382 14.3555 20.1616 14.2441C20.1792 14.1387 20.3257 13.5938 20.3257 13.5938L20.437 13.623Z" fill="#9E540A" stroke="black" stroke-width="0.034375" stroke-linecap="round" stroke-linejoin="round"/>
<path d="M20.7598 11.127C20.7598 11.127 21.1699 10.7812 21.5098 10.5469C21.8496 10.3125 22.2598 10.0254 22.2598 9.9668C22.1953 9.91992 21.8496 10.1426 21.375 10.4297C20.8945 10.7227 20.625 11.0098 20.625 11.0098L20.7598 11.127ZM20.7891 11.3613C20.7891 11.3613 21.1875 11.1211 21.5801 10.9512C21.9902 10.7812 22.6055 10.7812 22.6699 10.7227C22.6699 10.6641 21.9551 10.6289 21.4453 10.834C20.9238 11.0742 20.6543 11.2441 20.6543 11.2441L20.7891 11.3613ZM20.7949 11.7598C20.7949 11.7598 21.2285 11.5605 21.6504 11.4668C22.0605 11.373 22.6465 11.4082 22.7168 11.3555C22.7168 11.2969 21.9902 11.1797 21.4453 11.3555C20.8945 11.5254 20.6602 11.6426 20.6602 11.6426L20.7949 11.7598ZM20.8184 12.1641C20.8184 12.1641 21.1465 11.9414 21.5801 11.8945C21.9902 11.8535 22.5352 12.1641 22.6055 12.1055C22.6055 12.0469 22.1309 11.7012 21.5391 11.7598C20.959 11.8184 20.6836 12.0469 20.6836 12.0469L20.8184 12.1641ZM20.6836 10.8867C20.6836 10.8867 21.0996 10.5059 21.0996 10.248C21.0996 10.0195 20.8477 9.66797 20.7363 9.66797C20.7949 9.78516 20.9883 10.0195 20.9883 10.248C20.9883 10.4824 20.5488 10.7695 20.5488 10.7695L20.6836 10.8867Z" fill="#9E540A" stroke="black" stroke-width="0.034375" stroke-linecap="round" stroke-linejoin="round"/>
<path d="M20.684 10.8867C20.684 10.8867 20.6019 10.5059 20.6019 10.248C20.6019 9.90234 20.848 9.58594 20.8246 9.49805C20.7367 9.58594 20.4906 9.84375 20.4906 10.248C20.4906 10.5996 20.5492 10.7695 20.5492 10.7695L20.684 10.8867Z" fill="#9E540A" stroke="black" stroke-width="0.034375" stroke-linecap="round" stroke-linejoin="round"/>
<path d="M20.584 10.7637C20.584 10.6523 20.625 10.5527 20.6953 10.4766C20.7891 10.3652 20.9297 10.3301 21.0762 10.3535C21.252 10.3828 21.3926 10.4883 21.4805 10.6523C21.5977 10.8691 21.6094 11.1035 21.6152 11.332C21.6152 12.123 21.5859 12.4453 21.5625 13.2246C21.5566 13.4531 21.5156 13.9219 21.6211 14.291C21.6621 14.4492 21.709 14.5957 21.7793 14.748C21.7324 14.5547 21.709 14.4551 21.6855 14.3086C21.6211 13.9277 21.6387 13.5703 21.6504 13.2188C21.6738 12.498 21.7148 12.1289 21.7383 11.2559C21.7441 10.9922 21.7207 10.793 21.5977 10.582C21.4688 10.3652 21.2461 10.207 20.9941 10.207C20.8887 10.207 20.8008 10.2246 20.7129 10.2773C20.5371 10.3711 20.4551 10.5645 20.4551 10.7578L20.584 10.7637Z" fill="#9E540A" stroke="#FCD116" stroke-width="0.1875" stroke-linecap="round" stroke-linejoin="round"/>
<path d="M20.584 10.7637C20.584 10.6523 20.625 10.5527 20.6953 10.4766C20.7891 10.3652 20.9297 10.3301 21.0762 10.3535C21.252 10.3828 21.3926 10.4883 21.4805 10.6523C21.5977 10.8691 21.6094 11.1035 21.6152 11.332C21.6152 12.123 21.5859 12.4453 21.5625 13.2246C21.5566 13.4531 21.5156 13.9219 21.6211 14.291C21.6621 14.4492 21.709 14.5957 21.7793 14.748C21.7324 14.5547 21.709 14.4551 21.6855 14.3086C21.6211 13.9277 21.6387 13.5703 21.6504 13.2188C21.6738 12.498 21.7148 12.1289 21.7383 11.2559C21.7441 10.9922 21.7207 10.793 21.5977 10.582C21.4688 10.3652 21.2461 10.207 20.9941 10.207C20.8887 10.207 20.8008 10.2246 20.7129 10.2773C20.5371 10.3711 20.4551 10.5645 20.4551 10.7578L20.584 10.7637Z" fill="#9E540A"/>
<path d="M20.5483 13.5879C20.5483 13.5879 20.7124 13.8809 20.8355 14.0918C20.9585 14.3027 21.0581 14.3496 21.1519 14.2852C21.2398 14.2207 21.1636 14.0508 21.0933 13.9688C21.023 13.8867 20.6304 13.5059 20.6304 13.5059L20.5483 13.5879Z" fill="#9E540A" stroke="black" stroke-width="0.034375" stroke-linecap="round" stroke-linejoin="round"/>
<path d="M20.508 13.6113C20.508 13.6113 20.5724 13.9453 20.6252 14.1855C20.672 14.4258 20.7541 14.5078 20.8537 14.4785C20.9592 14.4551 20.9416 14.2617 20.9006 14.1621C20.8595 14.0625 20.6135 13.5586 20.6135 13.5586L20.508 13.6113Z" fill="#9E540A" stroke="black" stroke-width="0.034375" stroke-linecap="round" stroke-linejoin="round"/>
<path d="M20.438 13.623V14.209C20.438 14.4551 20.4966 14.5547 20.6079 14.5488C20.7134 14.543 20.7368 14.3555 20.7134 14.2441C20.6958 14.1387 20.5493 13.5938 20.5493 13.5938L20.438 13.623Z" fill="#9E540A" stroke="black" stroke-width="0.034375" stroke-linecap="round" stroke-linejoin="round"/>
<path d="M20.4375 13.6172C20.127 13.6113 20.0977 13.5 20.0977 13.5C20.0977 13.5 20.0566 13.3594 20.0508 13.2715C20.0449 13.2598 19.9629 13.084 19.9863 13.0078C19.957 12.9375 19.8867 12.7676 19.9512 12.7383C19.9219 12.6562 19.875 12.5625 19.8691 12.4746C19.8457 12.4102 19.7871 12.2695 19.834 12.2227C19.834 12.2227 19.7227 11.9883 19.7754 11.9297C19.7754 11.9297 19.7227 11.7012 19.7754 11.6426C19.7754 11.6426 19.7754 11.4082 19.834 11.3496C19.834 11.3496 19.834 11.1211 19.8867 11.0625C19.8867 11.0742 20.0508 10.7402 20.4375 10.7402L20.4316 11.2383H20.4375V13.6172Z" fill="#9E540A" stroke="black" stroke-width="0.034375" stroke-linecap="round" stroke-linejoin="round"/>
<path d="M20.4375 12.3398C19.9395 12.334 19.834 12.2227 19.834 12.2227M20.4375 12.0469C19.9395 12.0469 19.7754 11.9297 19.7754 11.9297M20.4375 11.7598C19.9395 11.7539 19.7754 11.6426 19.7754 11.6426M20.4375 11.4668C19.9395 11.4609 19.834 11.3496 19.834 11.3496M20.4316 11.2383C20.4375 11.2383 20.0566 11.2383 19.998 11.1797L19.8867 11.0684M20.4375 13.3828C20.291 13.3828 20.127 13.3594 20.0508 13.2715M20.4375 13.1484C20.1621 13.1484 19.998 13.0371 19.998 13.0371C19.998 13.0371 19.9922 13.0254 19.9863 13.0078M20.4375 12.8613C20.0742 12.8555 19.9746 12.7793 19.9512 12.7383M20.4375 12.627C19.9395 12.627 19.8867 12.5098 19.8867 12.5098L19.8691 12.4746" stroke="black" stroke-width="0.034375" stroke-linecap="round" stroke-linejoin="round"/>
<path d="M20.4375 13.6172C20.748 13.6113 20.7773 13.5 20.7773 13.5C20.7773 13.5 20.8184 13.3594 20.8242 13.2715C20.8301 13.2598 20.9121 13.084 20.8887 13.0078C20.918 12.9375 20.9883 12.7676 20.9238 12.7383C20.9531 12.6562 21 12.5625 21.0059 12.4746C21.0293 12.4102 21.0879 12.2695 21.041 12.2227C21.041 12.2227 21.1523 11.9883 21.0996 11.9297C21.0996 11.9297 21.1523 11.7012 21.0996 11.6426C21.0996 11.6426 21.0996 11.4082 21.041 11.3496C21.041 11.3496 21.041 11.1211 20.9883 11.0625C20.9883 11.0742 20.8242 10.7402 20.4375 10.7402L20.4434 11.2383H20.4375V13.6172Z" fill="#9E540A" stroke="black" stroke-width="0.034375" stroke-linecap="round" stroke-linejoin="round"/>
<path d="M20.4375 12.3398C20.9355 12.334 21.041 12.2227 21.041 12.2227M20.4375 12.0469C20.9355 12.0469 21.0996 11.9297 21.0996 11.9297M20.4375 11.7598C20.9355 11.7539 21.0996 11.6426 21.0996 11.6426M20.4375 11.4668C20.9355 11.4609 21.041 11.3496 21.041 11.3496M20.4434 11.2383C20.4375 11.2383 20.8184 11.2383 20.877 11.1797L20.9883 11.0684M20.4375 13.3828C20.584 13.3828 20.748 13.3594 20.8242 13.2715M20.4375 13.1484C20.7129 13.1484 20.877 13.0371 20.877 13.0371C20.877 13.0371 20.8828 13.0254 20.8887 13.0078M20.4375 12.8613C20.8008 12.8555 20.9004 12.7793 20.9238 12.7383M20.4375 12.627C20.9355 12.627 20.9883 12.5098 20.9883 12.5098L21.0059 12.4746" stroke="black" stroke-width="0.034375" stroke-linecap="round" stroke-linejoin="round"/>
<path d="M18.0941 19.0078C17.8421 19.2422 17.3558 19.0898 17.2034 18.9844C17.0452 19.0371 16.6234 18.873 16.512 18.6914C16.2073 18.7324 16.1019 18.2988 16.1546 18.1875C16.2366 18.0234 16.0901 17.918 16.1956 17.8066C16.3421 17.666 16.1136 17.5313 16.2542 17.4375C16.3948 17.3379 16.2191 17.1738 16.3597 17.0684C16.5062 16.957 16.2835 16.8047 16.4359 16.7285C16.5882 16.6523 16.4183 16.4531 16.5472 16.377C16.6761 16.3008 16.471 16.1074 16.6468 16.0195C16.8167 15.9316 16.6644 15.7793 16.7991 15.7148C16.9456 15.6387 16.8109 15.4805 16.9456 15.4277C17.098 15.3633 16.9866 15.1934 17.1155 15.1465C17.2269 15.1055 17.1566 15 17.2269 14.9062H18.0941" fill="#009E49"/>
<path d="M18.0941 19.0078C17.8421 19.2422 17.3558 19.0898 17.2034 18.9844C17.0452 19.0371 16.6234 18.873 16.512 18.6914C16.2073 18.7324 16.1019 18.2988 16.1546 18.1875C16.2366 18.0234 16.0901 17.918 16.1956 17.8066C16.3421 17.666 16.1136 17.5313 16.2542 17.4375C16.3948 17.3379 16.2191 17.1738 16.3597 17.0684C16.5062 16.957 16.2835 16.8047 16.4359 16.7285C16.5882 16.6523 16.4183 16.4531 16.5472 16.377C16.6761 16.3008 16.471 16.1074 16.6468 16.0195C16.8167 15.9316 16.6644 15.7793 16.7991 15.7148C16.9456 15.6387 16.8109 15.4805 16.9456 15.4277C17.098 15.3633 16.9866 15.1934 17.1155 15.1465C17.2269 15.1055 17.1566 15 17.2269 14.9062H18.0941" stroke="black" stroke-width="0.034375" stroke-linecap="round" stroke-linejoin="round"/>
<path d="M17.5138 14.9414C17.3966 15.0586 17.5372 15.1465 17.42 15.2871C17.297 15.4336 17.4083 15.5098 17.3087 15.6387C17.2091 15.7676 17.3556 15.832 17.2443 15.9785C17.1329 16.1191 17.2677 16.207 17.1446 16.3242C17.0275 16.4473 17.1681 16.5527 17.045 16.6816C16.9278 16.8164 17.0685 16.9043 16.9513 17.0215C16.8282 17.1445 16.9689 17.2734 16.8517 17.3906C16.7345 17.5137 16.8751 17.666 16.7403 17.8066C16.6114 17.9473 16.7638 18.0586 16.6583 18.1641C16.547 18.2754 16.6466 18.3867 16.5704 18.4629C16.4943 18.5391 16.4825 18.6445 16.5118 18.6914M17.7423 14.9824C17.6368 15.1289 17.8009 15.1934 17.7013 15.3105C17.6017 15.4336 17.7423 15.4746 17.6661 15.6152C17.59 15.7559 17.7247 15.791 17.6251 15.9316C17.5255 16.0723 17.6778 16.1836 17.5724 16.3242C17.4611 16.4648 17.6251 16.541 17.5255 16.6816C17.4318 16.8281 17.5724 16.9043 17.4845 17.0098C17.3966 17.1211 17.5489 17.2266 17.4376 17.3613C17.3321 17.4902 17.4845 17.5898 17.3966 17.707C17.3087 17.8301 17.4318 17.959 17.3556 18.0586C17.2794 18.1523 17.4083 18.2988 17.297 18.4277C17.1915 18.5566 17.3204 18.6445 17.256 18.7324C17.1915 18.8203 17.1388 18.9492 17.2032 18.9844" stroke="black" stroke-width="0.034375" stroke-linecap="round" stroke-linejoin="round"/>
<path d="M18.0944 19.0078C18.3464 19.2422 18.8327 19.0898 18.985 18.9844C19.1433 19.0371 19.5651 18.873 19.6765 18.6914C19.9811 18.7324 20.0866 18.2988 20.0339 18.1875C19.9518 18.0234 20.0983 17.918 19.9929 17.8066C19.8464 17.666 20.0749 17.5313 19.9343 17.4375C19.7936 17.3379 19.9694 17.1738 19.8288 17.0684C19.6823 16.957 19.905 16.8047 19.7526 16.7285C19.6003 16.6523 19.7702 16.4531 19.6413 16.377C19.5124 16.3008 19.7175 16.1074 19.5417 16.0195C19.3718 15.9316 19.5241 15.7793 19.3893 15.7148C19.2429 15.6387 19.3776 15.4805 19.2429 15.4277C19.0905 15.3633 19.2018 15.1934 19.0729 15.1465C18.9616 15.1055 19.0319 15 18.9616 14.9062H18.0944" fill="#009E49"/>
<path d="M18.0944 19.0078C18.3464 19.2422 18.8327 19.0898 18.985 18.9844C19.1433 19.0371 19.5651 18.873 19.6765 18.6914C19.9811 18.7324 20.0866 18.2988 20.0339 18.1875C19.9518 18.0234 20.0983 17.918 19.9929 17.8066C19.8464 17.666 20.0749 17.5313 19.9343 17.4375C19.7936 17.3379 19.9694 17.1738 19.8288 17.0684C19.6823 16.957 19.905 16.8047 19.7526 16.7285C19.6003 16.6523 19.7702 16.4531 19.6413 16.377C19.5124 16.3008 19.7175 16.1074 19.5417 16.0195C19.3718 15.9316 19.5241 15.7793 19.3893 15.7148C19.2429 15.6387 19.3776 15.4805 19.2429 15.4277C19.0905 15.3633 19.2018 15.1934 19.0729 15.1465C18.9616 15.1055 19.0319 15 18.9616 14.9062H18.0944" stroke="black" stroke-width="0.034375" stroke-linecap="round" stroke-linejoin="round"/>
<path d="M18.6747 14.9414C18.7919 15.0586 18.6513 15.1465 18.7684 15.2871C18.8915 15.4336 18.7802 15.5098 18.8798 15.6387C18.9794 15.7676 18.8329 15.832 18.9442 15.9785C19.0555 16.1191 18.9208 16.207 19.0438 16.3242C19.161 16.4473 19.0204 16.5527 19.1434 16.6816C19.2606 16.8164 19.12 16.9043 19.2372 17.0215C19.3602 17.1445 19.2196 17.2734 19.3368 17.3906C19.454 17.5137 19.3134 17.666 19.4481 17.8066C19.577 17.9473 19.4247 18.0586 19.5302 18.1641C19.6415 18.2754 19.5419 18.3867 19.618 18.4629C19.6942 18.5391 19.7059 18.6445 19.6766 18.6914M18.4462 14.9824C18.5516 15.1289 18.3876 15.1934 18.4872 15.3105C18.5868 15.4336 18.4462 15.4746 18.5223 15.6152C18.5985 15.7559 18.4638 15.791 18.5634 15.9316C18.663 16.0723 18.5106 16.1836 18.6161 16.3242C18.7274 16.4648 18.5634 16.541 18.663 16.6816C18.7567 16.8281 18.6161 16.9043 18.704 17.0098C18.7919 17.1211 18.6395 17.2266 18.7509 17.3613C18.8563 17.4902 18.704 17.5898 18.7919 17.707C18.8798 17.8301 18.7567 17.959 18.8329 18.0586C18.9091 18.1523 18.7802 18.2988 18.8915 18.4277C18.997 18.5566 18.868 18.6445 18.9325 18.7324C18.997 18.8203 19.0497 18.9492 18.9852 18.9844" stroke="black" stroke-width="0.034375" stroke-linecap="round" stroke-linejoin="round"/>
<path d="M18.0938 19.0078V14.9062" stroke="#009E49" stroke-width="0.034375" stroke-linecap="round" stroke-linejoin="round"/>
<path d="M18.0938 15.1172C18.0411 15.3457 18.17 15.5449 18.0938 15.7383C18.0177 15.9258 18.1466 16.002 18.1056 16.1543C18.0587 16.3066 18.1583 16.418 18.0938 16.582C18.0294 16.7461 18.1817 16.875 18.0938 17.0918C18.006 17.3027 18.1524 17.3555 18.0938 17.5723C18.0294 17.8184 18.2052 17.9473 18.0938 18.123C17.9825 18.2988 18.1935 18.3398 18.1056 18.5391C18.0177 18.7324 18.1583 18.8086 18.0938 19.0078" stroke="black" stroke-width="0.034375" stroke-linecap="round" stroke-linejoin="round"/>
<path d="M18.1816 15.8555C18.1523 15.92 18.2695 16.0723 18.2051 16.1895C18.1348 16.3009 18.2402 16.4766 18.1699 16.6173C18.0996 16.7579 18.2812 16.9337 18.2109 17.0977C18.1348 17.2618 18.2461 17.4669 18.2109 17.6192C18.1816 17.7716 18.2871 18.0645 18.2109 18.17C18.1348 18.2813 18.2871 18.3106 18.1992 18.5802C18.1113 18.8497 18.0527 18.6212 18.1055 18.5391C18.2168 18.3575 17.9824 18.2989 18.0938 18.1231C18.2051 17.9473 18.0293 17.8184 18.0938 17.5723C18.1523 17.3555 18.0059 17.3028 18.0938 17.0919C18.1816 16.8751 18.0293 16.7462 18.0938 16.5821C18.1582 16.418 18.0586 16.3067 18.1055 16.1544C18.1465 16.002 18.0176 15.9259 18.0938 15.7384C18.1523 15.5509 18.2109 15.7911 18.1816 15.8555ZM17.6895 16.043C17.6484 16.1134 17.7598 16.2481 17.6602 16.3829C17.5898 16.4766 17.707 16.588 17.6074 16.7227C17.543 16.8165 17.6719 16.9337 17.584 17.0684C17.5254 17.1446 17.625 17.2911 17.5547 17.4024C17.4844 17.5196 17.5898 17.6134 17.4668 17.7657C17.3965 17.8477 17.5195 18.0528 17.4434 18.1173C17.3672 18.1817 17.4375 18.4337 17.3848 18.4688C17.3379 18.5098 17.3848 18.6915 17.2559 18.7325C17.3203 18.6446 17.1914 18.5567 17.2969 18.4278C17.4082 18.2989 17.2793 18.1524 17.3555 18.0587C17.4316 17.9591 17.3086 17.8302 17.3965 17.7071C17.4844 17.5899 17.332 17.4903 17.4375 17.3614C17.5488 17.2266 17.3965 17.1212 17.4844 17.0098C17.5723 16.9044 17.4316 16.8282 17.5254 16.6817C17.625 16.5411 17.4609 16.4649 17.5723 16.3243C17.6777 16.1837 17.5254 16.0723 17.625 15.9317C17.7246 15.7911 17.5898 15.7559 17.666 15.6153C17.8066 15.668 17.7363 15.9727 17.6895 16.043ZM17.3965 15.6622C17.3379 15.7559 17.4199 15.8673 17.332 15.9845C17.2441 16.1075 17.332 16.2598 17.2441 16.3595C17.1562 16.4532 17.2676 16.6407 17.1562 16.7169C17.0449 16.793 17.1152 17.0216 17.0273 17.0977C16.9395 17.1739 17.0273 17.3907 16.9277 17.502C16.8281 17.6134 16.875 17.8419 16.8164 17.8946C16.7637 17.9473 16.8926 18.0587 16.7988 18.1348C16.6992 18.211 16.6992 18.3634 16.5703 18.463C16.6465 18.3868 16.5469 18.2755 16.6582 18.1641C16.7637 18.0587 16.6113 17.9473 16.7402 17.8067C16.875 17.6661 16.7344 17.5137 16.8516 17.3907C16.9688 17.2735 16.8281 17.1446 16.9512 17.0216C17.0684 16.9044 16.9277 16.8165 17.0449 16.6817C17.168 16.5528 17.0273 16.4473 17.1445 16.3243C17.2676 16.2071 17.1328 16.1192 17.2441 15.9786C17.3555 15.8321 17.209 15.7677 17.3086 15.6387C17.3555 15.5802 17.3555 15.5274 17.3555 15.4805C17.4258 15.2989 17.4258 15.6153 17.3965 15.6622Z" fill="#FCD116" stroke="black" stroke-width="0.034375" stroke-linecap="round" stroke-linejoin="round"/>
<path d="M17.2793 15.041C17.2793 13.8105 17.4492 13.3828 18.0938 13.3828C18.7383 13.3828 18.9082 13.8105 18.9082 15.041H17.2793Z" fill="#CE1126" stroke="black" stroke-width="0.034375" stroke-linecap="round" stroke-linejoin="round"/>
<path d="M17.2793 15.041C17.2793 13.8105 17.4492 13.3828 18.0938 13.3828C17.8008 13.3828 17.6191 13.6113 17.5723 13.7637C17.5195 13.916 17.5488 13.9043 17.6133 13.8457C17.6777 13.7871 17.6484 13.916 17.5898 13.9863C17.5371 14.0566 17.4844 14.2617 17.5605 14.1973C17.6367 14.127 17.6953 14.2031 17.6133 14.3203C17.5312 14.4316 17.4609 14.7012 17.543 14.6074C17.625 14.5137 17.6426 14.666 17.5898 14.7422C17.543 14.8184 17.5488 14.8887 17.5898 14.8535C17.6367 14.8184 17.6309 14.9766 17.5898 15.041H17.2793ZM18.3984 15.0176C18.3984 14.8359 18.4043 14.4082 18.3047 14.2676C18.2344 14.1562 18.2344 14.0391 18.3164 14.168C18.3984 14.2969 18.4395 14.2324 18.3809 14.1035C18.3105 13.9395 18.2168 13.7578 18.2402 13.7227C18.2695 13.6816 18.2871 13.6992 18.3457 13.7871C18.4043 13.875 18.416 13.7461 18.3516 13.6582C18.2871 13.5762 18.293 13.5586 18.4277 13.6172C18.668 13.7168 18.7852 14.0039 18.7852 14.9707L18.3984 15.0176Z" fill="black" stroke="black" stroke-width="0.034375" stroke-linecap="round" stroke-linejoin="round"/>
<path d="M18.0942 15.2167C17.8364 15.2167 17.5551 15.1757 17.3676 15.0995C17.1449 15.0116 17.1332 14.9354 17.2094 14.8417C17.268 14.7714 17.3852 14.8124 17.5024 14.8651C17.6137 14.912 17.9301 14.9471 18.0942 14.9471C18.2582 14.9471 18.5746 14.912 18.686 14.8593C18.8031 14.8124 18.9203 14.7714 18.9789 14.8417C19.0551 14.9354 19.0434 15.0116 18.8207 15.0995C18.6332 15.1757 18.352 15.2167 18.0942 15.2167Z" fill="#CE1126" stroke="black" stroke-width="0.034375" stroke-linecap="round" stroke-linejoin="round"/>
<path d="M0 -0.0234375H12V11.9766H0V-0.0234375Z" fill="#012169"/>
<path d="M12 -0.0234375V1.47656L7.54688 5.97656L12 10.3594V11.9766H10.4297L5.95312 7.57031L1.59375 11.9766H0V10.3828L4.35938 6L0 1.71094V-0.0234375H1.45312L5.95312 4.38281L10.3125 -0.0234375H12Z" fill="white"/>
<path d="M4.3125 7.57031L4.57031 8.36719L0.984375 11.9766H0V11.9062L4.3125 7.57031ZM7.21875 7.28906L8.48438 7.47656L12 10.9219V11.9766L7.21875 7.28906ZM12 -0.0234375L7.5 4.57031L7.40625 3.53906L10.9219 -0.0234375H12ZM0 0L4.52344 4.42969L3.14062 4.24219L0 1.125V0Z" fill="#C8102E"/>
<path d="M4.125 -0.0234375V11.9766H7.875V-0.0234375H4.125ZM0 4.10156V7.85156H12V4.10156H0Z" fill="white"/>
<path d="M0 4.85156V7.10156H12V4.85156H0ZM4.875 -0.0234375V11.9766H7.125V-0.0234375H4.875Z" fill="#C8102E"/>
</g>
<defs>
<clipPath id="clip0_208_26816">
<rect width="24" height="24" rx="12" fill="white"/>
</clipPath>
</defs>
</svg>
