<svg width="24" height="24" viewBox="0 0 24 24" fill="none" xmlns="http://www.w3.org/2000/svg">
<g clip-path="url(#clip0_208_23218)">
<mask id="mask0_208_23218" style="mask-type:luminance" maskUnits="userSpaceOnUse" x="-1" y="0" width="25" height="24">
<path d="M-0.00195312 0H23.9992V23.9963H0.0028844L-0.00195312 0Z" fill="white"/>
</mask>
<g mask="url(#mask0_208_23218)">
<path fill-rule="evenodd" clip-rule="evenodd" d="M-6.5625 0H41.435V23.9963H-6.5625V0Z" fill="#002170"/>
<path fill-rule="evenodd" clip-rule="evenodd" d="M-6.5625 10.9725H41.435V13.0238H-6.5625V10.9725Z" fill="#FFB20D"/>
<path fill-rule="evenodd" clip-rule="evenodd" d="M7.58416 20.5323L6.04084 18.9842L5.54737 21.1129L4.98133 18.9987L3.4864 20.5952L4.05728 18.4859L1.96728 19.1148L3.51543 17.5763L1.38672 17.078L3.49607 16.5168L1.89954 15.017L4.0089 15.5879L3.37996 13.4979L4.91844 15.0461L5.41675 12.9174L5.98279 15.0267L7.47288 13.435L6.90684 15.5444L8.99684 14.9154L7.44869 16.4539L9.5774 16.9522L7.46805 17.5134L9.06458 19.0084L6.95038 18.4423L7.58416 20.5323Z" fill="white"/>
</g>
</g>
<defs>
<clipPath id="clip0_208_23218">
<rect width="24" height="24" rx="12" fill="white"/>
</clipPath>
</defs>
</svg>
