<svg width="24" height="24" viewBox="0 0 24 24" fill="none" xmlns="http://www.w3.org/2000/svg">
<g clip-path="url(#clip0_208_26877)">
<mask id="mask0_208_26877" style="mask-type:luminance" maskUnits="userSpaceOnUse" x="-1" y="0" width="25" height="24">
<path d="M-0.000976562 0H23.9953V23.9963H-0.000976562V0Z" fill="white"/>
</mask>
<g mask="url(#mask0_208_26877)">
<path fill-rule="evenodd" clip-rule="evenodd" d="M-6 15.9993H29.9945V20.0003H-6V15.9993Z" fill="#FFE700"/>
<path fill-rule="evenodd" clip-rule="evenodd" d="M-6 11.998H29.9945V15.999H-6V11.998Z" fill="black"/>
<path fill-rule="evenodd" clip-rule="evenodd" d="M-6 8.00195H29.9945V11.9981H-6V8.00195Z" fill="#DE3908"/>
<path fill-rule="evenodd" clip-rule="evenodd" d="M-6 4.00098H29.9945V8.00198H-6V4.00098Z" fill="#FFE700"/>
<path fill-rule="evenodd" clip-rule="evenodd" d="M-6 0H29.9945V4.001H-6V0Z" fill="black"/>
<path fill-rule="evenodd" clip-rule="evenodd" d="M15.7374 11.9981C15.7374 12.9893 15.3436 13.9399 14.6427 14.6408C13.9418 15.3417 12.9912 15.7354 12 15.7354C11.0088 15.7354 10.0582 15.3417 9.35733 14.6408C8.65645 13.9399 8.2627 12.9893 8.2627 11.9981C8.2627 11.0069 8.65645 10.0563 9.35733 9.35538C10.0582 8.6545 11.0088 8.26074 12 8.26074C12.9912 8.26074 13.9418 8.6545 14.6427 9.35538C15.3436 10.0563 15.7374 11.0069 15.7374 11.9981Z" fill="#FFFDFF" stroke="black" stroke-width="0.116111"/>
<path fill-rule="evenodd" clip-rule="evenodd" d="M11.3396 9.134L11.0977 8.68891C11.1944 8.59215 11.3492 8.52441 11.6008 8.52441L11.5766 9.00821L11.3396 9.134Z" fill="#DE3108" stroke="black" stroke-width="0.116111"/>
<path fill-rule="evenodd" clip-rule="evenodd" d="M11.5761 9.01807L11.6052 8.5246C11.6052 8.5246 12.1083 8.49557 12.3792 8.81971L12.1131 9.20675L11.5713 9.01323L11.5761 9.01807Z" fill="#FFE700" stroke="black" stroke-width="0.116111"/>
<path fill-rule="evenodd" clip-rule="evenodd" d="M12.123 9.20173L12.3698 8.8147C12.5343 8.98886 12.602 9.11465 12.631 9.29849C12.631 9.30817 12.2392 9.39525 12.2392 9.39525L12.123 9.20173Z" fill="#DE3108" stroke="black" stroke-width="0.116111"/>
<path fill-rule="evenodd" clip-rule="evenodd" d="M11.4647 15.5249C11.4647 15.5249 11.9291 14.9928 12.829 15.104C12.6935 14.8863 12.2533 14.9105 12.2533 14.9105C12.2533 14.9105 12.1178 13.8752 12.2242 13.8268C12.3307 13.7784 12.7806 13.8268 12.7806 13.8268C12.8435 13.8268 12.9451 13.6672 12.8628 13.5656C12.7806 13.464 12.5435 13.0721 12.6403 12.9947C12.737 12.9173 13.2692 13.0382 13.2692 13.0382L11.7695 11.1127C11.7695 11.1127 11.6146 10.387 11.9243 10.0435C12.292 9.7339 12.2533 9.40492 12.2436 9.40976C12.1952 9.0711 11.6824 8.8292 11.334 9.13883C11.1308 9.38557 11.2663 9.57425 11.2663 9.57425C11.2663 9.57425 10.7341 9.71939 10.7099 9.81615C10.6906 9.90323 11.3147 9.79679 11.3147 9.79679L11.2566 10.2225C11.2566 10.2225 10.0375 11.3353 10.9664 12.2883C10.9809 12.2883 11.0002 12.2448 11.0002 12.2448C11.0002 12.2448 11.3292 12.6512 11.6727 12.7383C11.9968 13.0721 11.963 13.0189 11.963 13.0189C11.963 13.0189 12.0307 13.5414 11.9678 13.6478C11.6274 13.6057 11.2833 13.6024 10.9422 13.6381C10.8309 13.672 10.4051 13.6527 10.5067 14.3445L10.6616 13.9913C10.6616 13.9913 10.6519 14.2429 10.7535 14.33C10.7341 14.0687 10.8502 13.8897 10.8502 13.8897C10.8502 13.8897 10.8696 14.18 10.9373 14.2187C11.0002 14.2671 11.0002 13.7543 11.3534 13.793C11.7066 13.8413 11.963 13.8268 11.963 13.8268C11.963 13.8268 12.0791 14.8234 12.0404 14.9202C11.7888 14.8573 11.1792 14.9444 11.1405 15.0992C11.4985 15.075 11.663 15.1186 11.663 15.1186C11.663 15.1186 11.3727 15.375 11.4647 15.5249Z" fill="black" stroke="black" stroke-width="0.10321" stroke-linecap="round" stroke-linejoin="round"/>
<path fill-rule="evenodd" clip-rule="evenodd" d="M11.6102 10.063C11.6102 10.063 10.72 11.0403 11.1022 11.7901C11.1264 11.6837 11.1167 11.6208 11.1264 11.6257C11.107 11.6111 11.2377 11.7127 11.2231 11.6934C11.2328 11.6402 11.1893 11.5241 11.1893 11.5241L11.3054 11.5531L11.2377 11.4225L11.407 11.4466C11.407 11.4466 11.3489 11.2822 11.3683 11.2822C11.4151 11.2847 11.4619 11.2879 11.5086 11.2918C11.257 10.8419 11.4941 10.4694 11.6053 10.0678L11.6102 10.063Z" fill="#9CA69C" stroke="#9CA69C" stroke-width="0.10321" stroke-linecap="round" stroke-linejoin="round"/>
<path fill-rule="evenodd" clip-rule="evenodd" d="M11.9148 9.23096C11.9148 9.23096 11.9632 9.56961 11.7793 9.66637C11.7503 9.68573 11.6342 9.72443 11.6487 9.79216C11.6729 9.88408 11.7213 9.86473 11.7938 9.85022C11.9874 9.81635 12.2099 9.40512 11.9148 9.23096Z" fill="#9CA69C" stroke="#9CA69C" stroke-width="0.116111"/>
<path fill-rule="evenodd" clip-rule="evenodd" d="M11.5856 9.51617C11.5856 9.53542 11.5779 9.55388 11.5643 9.56749C11.5507 9.5811 11.5322 9.58874 11.513 9.58874C11.4938 9.58874 11.4753 9.5811 11.4617 9.56749C11.4481 9.55388 11.4404 9.53542 11.4404 9.51617C11.4404 9.49693 11.4481 9.47847 11.4617 9.46486C11.4753 9.45125 11.4938 9.4436 11.513 9.4436C11.5322 9.4436 11.5507 9.45125 11.5643 9.46486C11.5779 9.47847 11.5856 9.49693 11.5856 9.51617Z" fill="white"/>
<path fill-rule="evenodd" clip-rule="evenodd" d="M11.3007 9.79688C11.2523 9.83558 11.0104 10.092 11.2523 10.1839C11.5039 10.1162 11.4313 10.0726 11.4893 10.0146C11.4893 9.90331 11.3636 9.86944 11.3007 9.79688Z" fill="#DE3108" stroke="black" stroke-width="0.116111"/>
<path fill-rule="evenodd" clip-rule="evenodd" d="M11.838 12.2109C11.8235 12.269 11.7703 12.4722 11.8477 12.627C12.0605 12.5399 12.1573 12.5641 12.2299 12.6125C12.0557 12.4674 11.988 12.4141 11.838 12.2109Z" fill="#9CA69C" stroke="#9CA69C" stroke-width="0.10321" stroke-linecap="round" stroke-linejoin="round"/>
<path fill-rule="evenodd" clip-rule="evenodd" d="M12.2051 13.1787L12.2148 13.6528C12.2148 13.6528 12.3841 13.6867 12.4567 13.6528C12.5341 13.6238 12.4567 13.3238 12.2051 13.1787Z" fill="white" stroke="white" stroke-width="0.10321" stroke-linecap="round" stroke-linejoin="round"/>
<path fill-rule="evenodd" clip-rule="evenodd" d="M13.4101 13.2366C13.4101 13.2366 13.1005 12.4964 12.3216 12.3077C11.5427 12.119 11.6394 11.2918 11.7023 11.2385C11.7362 11.166 11.7604 11.0547 11.9878 11.1611C12.2152 11.2676 13.2505 11.7901 13.4005 11.8143C13.5504 11.8384 13.4198 13.256 13.4101 13.2366Z" fill="#9CA69C" stroke="black" stroke-width="0.116111"/>
<path fill-rule="evenodd" clip-rule="evenodd" d="M12.6652 12.3079C12.6507 12.3127 13.7102 12.932 13.3909 13.4641C13.6957 13.2658 13.5941 12.9126 13.5941 12.9126C13.5941 12.9126 13.8408 13.5561 13.2409 13.8705C13.3086 13.9286 13.3473 13.9141 13.3473 13.9141L13.2506 14.0157C13.2506 14.0157 13.2022 14.0931 13.6038 13.8995C13.4925 13.9866 13.4828 14.0495 13.4828 14.0495C13.4828 14.0495 13.5167 14.1366 13.7779 13.9044C13.6739 14.0067 13.5858 14.1242 13.5167 14.2527C14.0972 14.1995 15.3454 12.332 13.1248 11.7805L13.2216 11.887L12.6652 12.3079Z" fill="#DE3108" stroke="black" stroke-width="0.10321" stroke-linejoin="round"/>
<path fill-rule="evenodd" clip-rule="evenodd" d="M12.7083 12.1241C12.8534 12.2208 12.9018 12.2595 12.9212 12.3079C12.7905 12.2789 12.6696 12.2886 12.6696 12.2886C12.6696 12.2886 12.389 12.0176 12.3358 11.9983C12.2971 11.9983 12.0745 11.8531 12.0745 11.8531C11.9633 11.7999 11.8617 11.4177 12.268 11.529C12.6938 11.7273 12.7518 11.7419 12.7518 11.7419L13.255 11.9015L13.5453 12.2257C13.5453 12.2257 13.0276 11.9692 12.9647 11.9644C13.1099 12.0805 13.1873 12.2353 13.1873 12.2353C13.0228 12.187 12.8825 12.1483 12.7083 12.1241Z" fill="white" stroke="black" stroke-width="0.10321" stroke-linecap="round" stroke-linejoin="round"/>
<path d="M10.7051 9.83551C10.7051 9.83551 11.1986 9.7194 11.2566 9.73875" stroke="white" stroke-width="0.10321" stroke-linecap="round"/>
<path fill-rule="evenodd" clip-rule="evenodd" d="M-6 20.0002H29.9945V24.0012H-6V20.0002Z" fill="#DE3908"/>
</g>
</g>
<defs>
<clipPath id="clip0_208_26877">
<rect width="24" height="24" rx="12" fill="white"/>
</clipPath>
</defs>
</svg>
