<svg width="24" height="24" viewBox="0 0 24 24" fill="none" xmlns="http://www.w3.org/2000/svg">
<g clip-path="url(#clip0_208_27632)">
<path d="M0 0H24V24H0V0Z" fill="white"/>
<path d="M7.66387 14.8124C7.66387 14.8124 7.64512 14.6765 7.89355 14.578C8.14199 14.4843 8.16074 14.1233 8.11387 13.8843C8.11387 13.8843 7.98262 14.114 7.82324 14.189C7.82324 14.189 7.56543 14.3249 7.55137 14.5827C7.55137 14.5827 7.55137 14.6765 7.53262 14.7468C7.52324 14.789 7.40605 14.428 7.62637 14.1562C7.84668 13.8796 7.90762 13.6546 7.73418 13.2187C7.73418 13.2187 7.71543 13.4812 7.54199 13.6358C7.36387 13.7858 7.34512 13.7999 7.34512 14.1608C7.34512 14.1608 7.34512 14.2874 7.28418 14.3296C7.28418 14.3296 7.14355 14.128 7.11074 14.0015C7.07324 13.8655 7.05918 13.814 7.21387 13.6593C7.21387 13.6593 7.71074 13.3358 7.35449 12.628C7.35449 12.628 7.34043 12.8765 7.16699 13.0171C6.99824 13.1577 7.0123 13.2562 7.00293 13.5046C6.99355 13.753 6.9748 13.739 6.95605 13.7718C6.95605 13.7718 6.64199 13.1905 6.88574 12.8812C7.12949 12.5718 7.26543 12.5062 6.99824 11.9296C6.99824 11.9296 7.00762 12.2249 6.79199 12.3702C6.57637 12.5155 6.62793 12.8624 6.62793 12.8624C6.62793 12.8624 6.64199 12.989 6.59512 13.0827C6.59512 13.0827 6.29043 12.4874 6.58105 12.1687C6.82949 11.8968 6.84824 11.7046 6.7123 11.3202C6.7123 11.3202 6.69824 11.4983 6.5623 11.5968C6.42168 11.6905 6.31855 11.7843 6.34199 12.1593C6.34199 12.1593 6.35137 12.4171 6.31855 12.4874C6.31855 12.4874 6.19199 12.253 6.15449 12.0983C6.12168 11.9437 6.10762 11.8546 6.20137 11.6999C6.29512 11.5452 6.67012 11.0999 6.22012 10.4624C6.22012 10.4624 6.20605 10.6687 6.09355 10.8562C5.98105 11.0437 6.03262 11.264 6.05605 11.4327C6.08418 11.6015 5.9998 11.7655 5.9998 11.7655C5.9998 11.7655 5.80762 11.4093 5.84512 11.0015C5.89199 10.5937 5.72324 10.2515 5.34355 10.0171C5.34355 10.0171 5.07168 10.6499 5.44668 10.9733C5.44668 10.9733 5.76543 11.2921 5.84512 11.6765C5.84512 11.6765 5.60137 11.6483 5.38574 11.2218C5.16543 10.7999 4.71074 10.8655 4.68262 10.8608C4.68262 10.8608 4.75293 11.5171 5.45137 11.7046C5.45137 11.7046 5.90137 11.7843 5.98105 12.1124C5.98105 12.1124 6.05605 12.3374 6.08887 12.4593C6.08887 12.4593 5.94824 12.403 5.81699 12.2108C5.68574 12.014 5.70449 11.9905 5.26387 11.9483C5.26387 11.9483 5.08574 11.9296 4.99199 11.803C4.99199 11.803 5.17949 12.5015 5.65293 12.4968C5.65293 12.4968 6.08887 12.4499 6.33262 13.0218L6.22012 12.9468C6.15918 12.8999 5.99512 12.8202 5.67637 12.8624C5.35762 12.9046 5.26855 12.8437 5.18887 12.8155C5.18887 12.8155 5.5123 13.4108 5.96699 13.2374C6.42168 13.0593 6.64199 13.6968 6.64668 13.7108C6.64668 13.7108 6.58574 13.664 6.50605 13.5843C6.42637 13.5046 6.25762 13.4108 5.94355 13.5093C5.94355 13.5093 5.71387 13.5983 5.48418 13.528C5.48418 13.528 5.70449 13.9546 6.2248 13.8843C6.74043 13.8093 6.87637 14.2687 6.87637 14.2687L6.75918 14.189C6.7123 14.1515 6.53418 14.0483 6.15918 14.1608C5.78418 14.2733 5.64824 14.1421 5.64824 14.1421C5.64824 14.1421 5.85918 14.5218 6.25762 14.564C6.25762 14.564 6.47793 14.564 6.57637 14.5312C6.66687 14.4928 6.76792 14.4873 6.86206 14.5156C6.9562 14.5438 7.03752 14.604 7.09199 14.6858C7.09199 14.6858 7.04512 14.6952 6.97012 14.6624C6.97012 14.6624 6.70293 14.5687 6.50137 14.7374C6.50137 14.7374 6.32324 14.9249 6.06543 14.8874C6.06543 14.8874 6.39355 15.2062 6.92324 14.9343C6.92324 14.9343 7.10137 14.8077 7.22793 14.9062C7.35918 15.0046 7.66387 14.8124 7.66387 14.8124Z" fill="#369443" stroke="#010002" stroke-width="0.15" stroke-miterlimit="10"/>
<path d="M10.584 6.89063C10.584 6.89063 10.523 6.34219 10.959 6.29063C11.409 6.23907 11.634 6.33282 11.634 6.33282L11.8355 6.73125L11.7652 7.00313L11.484 7.12969C11.484 7.12969 11.5308 6.71719 11.1558 6.70782C11.0621 6.70782 11.0012 6.74532 10.8512 6.72188C10.6965 6.69375 10.6168 6.8625 10.584 6.88594V6.89063Z" fill="#F4C53D" stroke="#010002" stroke-width="0.15" stroke-miterlimit="10"/>
<path d="M13.6402 8.23602C13.5746 8.3204 13.3168 8.34852 13.3168 8.34852C13.3168 8.34852 13.584 8.55009 13.6965 8.8454C13.8137 9.13602 10.6121 8.8454 10.6121 8.8454C10.6121 8.8454 10.7527 8.74696 10.8465 8.56415C10.8465 8.56415 10.7059 8.61102 10.5605 8.4704C10.5605 8.4704 10.6684 8.5079 10.8043 8.29696C10.8043 8.29696 11.0105 8.03446 11.1559 7.96415C11.1559 7.96415 11.0855 8.00634 10.9262 7.91727C10.9262 7.91727 11.2074 7.87977 11.3012 7.40634C11.3012 7.40634 11.3199 7.30321 11.4277 7.14852C11.5309 6.99852 11.5074 7.18134 11.7043 6.94696C11.7043 6.94696 11.7934 6.77821 11.7137 6.67977C11.634 6.58134 11.5543 6.61415 11.3902 6.51571C11.2262 6.41727 11.1559 6.36571 11.2121 6.21571C11.2684 6.06571 11.409 6.08915 11.4324 6.08915C11.4512 6.08915 11.4652 5.9579 11.6387 5.86884C11.8736 5.79916 12.1231 5.79431 12.3605 5.85477C12.4309 5.89696 12.7168 5.98134 12.8809 6.39852C13.0496 6.8204 12.834 6.97977 13.2934 7.61727C13.2934 7.61727 13.1059 7.65477 12.9934 7.61727C12.9934 7.61727 13.2277 8.03915 13.6402 8.23602Z" fill="#F4C53D" stroke="#010002" stroke-width="0.15" stroke-miterlimit="10"/>
<path d="M11.6578 6.45942C11.2922 6.44067 11.4328 6.08911 11.4328 6.08911" stroke="#010002" stroke-width="0.15" stroke-miterlimit="10"/>
<path d="M12.2994 6.50635C12.2994 6.50635 12.2338 6.47354 12.1822 6.40323C12.1025 6.3001 11.9291 6.25323 11.8354 6.34698C11.8354 6.34698 11.7416 6.45479 11.6572 6.45948C11.6572 6.45948 11.751 6.4876 11.8166 6.54854C11.8822 6.60948 11.9525 6.65167 12.051 6.64229C12.1447 6.62354 12.1635 6.57198 12.2057 6.54385C12.2525 6.51104 12.2994 6.50635 12.2994 6.50635Z" fill="#F4C53D" stroke="#010002" stroke-width="0.15" stroke-miterlimit="10"/>
<path d="M7.60745 15.6187C7.60745 15.6187 7.59808 15.3843 7.89808 15.3608L8.77933 16.589C8.77933 16.589 8.74652 16.6687 8.34808 16.6593C8.34808 16.6593 8.3012 16.6593 8.28245 16.7062C8.24964 16.7812 7.60745 15.6187 7.60745 15.6187Z" fill="#369443" stroke="#010002" stroke-width="0.15" stroke-miterlimit="10"/>
<path d="M8.57573 14.1912C8.57573 14.1912 8.29401 14.6745 7.95358 14.6824C7.95358 14.6824 7.36813 14.6112 7.20271 14.7642C7.08697 14.8709 6.96898 14.959 6.92043 15.2317C6.873 15.5044 7.01358 15.5631 7.04689 15.5749C7.04689 15.5749 7.07286 15.7697 7.26538 15.7189C7.26538 15.7189 7.27667 15.9221 7.61653 15.8245C7.95696 15.7268 8.0981 15.7579 8.16416 15.4191C8.23134 15.0798 8.29288 15.0855 8.35329 15.0448C8.43458 14.99 8.58758 14.9387 8.70106 14.8732C8.80268 14.8145 9.19336 14.6157 9.32659 14.6005C9.45983 14.5847 9.43047 14.1364 9.43047 14.1364H9.08609L8.91954 13.8908L8.57516 14.1912H8.57573ZM9.65969 11.767C9.65969 11.767 9.3153 12.0475 9.02625 11.767C9.02625 11.767 8.90995 11.907 8.67622 11.8663C8.44362 11.8251 8.40466 11.7026 8.38264 11.6326C8.38264 11.6326 8.18053 11.75 8.01003 11.6569C7.84066 11.5643 7.84066 11.4237 7.84066 11.4237C7.84066 11.4237 7.54427 11.4824 7.3924 11.2814C7.24053 11.081 7.33312 10.8823 7.41498 10.8586C7.41498 10.8586 7.09488 10.9427 7.00737 10.6678C6.98407 10.6064 6.98047 10.5392 6.99706 10.4757C7.01365 10.4122 7.04962 10.3554 7.09996 10.3132C7.09996 10.3132 6.42587 10.3098 6.14924 10.0987C6.14924 10.0987 5.91946 9.95415 6.05665 9.80228C6.05665 9.80228 5.44974 9.70518 5.29788 9.46355C5.29788 9.46355 5.23126 9.39693 5.25327 9.28006C5.25327 9.28006 5.25723 9.21401 5.32385 9.21006C5.32385 9.21006 4.63169 9.10279 4.43184 8.87471C4.43184 8.87471 4.33586 8.7697 4.38385 8.62912C4.38385 8.62912 4.39401 8.59243 4.41038 8.56702C4.41038 8.56702 3.78033 8.43435 3.46982 8.15376C3.46982 8.15376 3.29029 7.99399 3.38288 7.77946C3.38288 7.77946 2.32997 7.49153 2.57386 7.02746C2.57386 7.02746 2.08156 6.86769 2.23738 6.42338C2.23738 6.42338 1.83033 6.21675 2.00761 5.8893C2.17754 5.57597 2.69976 5.94406 3.31739 6.11513C3.31739 6.11513 4.99075 6.6413 5.81445 6.78131L8.15513 10.2664L9.5208 10.7925L9.65912 11.767H9.65969Z" fill="#F4C53D" stroke="#010002" stroke-width="0.15055"/>
<path d="M9.67646 9.20049C9.67646 9.20049 9.45684 9.03564 9.0656 9.22928C9.0656 9.22928 8.93406 9.32018 8.83018 9.22082C8.80765 9.19932 8.79018 9.1731 8.779 9.14404C8.76783 9.11498 8.76324 9.08381 8.76556 9.05276C8.76788 9.02172 8.77706 8.99157 8.79243 8.9645C8.8078 8.93742 8.82898 8.9141 8.85445 8.89619C9.14633 8.67996 9.25416 8.03128 8.81042 7.76199C8.81042 7.76199 8.16682 7.38034 5.80525 6.77965C5.80525 6.77965 5.60765 6.72432 5.50152 6.75085C5.45017 6.76395 5.40332 6.79071 5.36595 6.82828C5.32857 6.86585 5.30207 6.91284 5.28924 6.96426C5.28924 6.96426 5.1831 7.26517 5.53878 7.43736C5.53878 7.43736 5.69911 7.51076 5.86453 7.55818C5.86453 7.55818 5.68274 7.51866 5.60483 7.69819C5.53144 7.86982 5.6387 8.0454 5.9718 8.15831C5.9718 8.15831 6.06213 8.19331 6.19028 8.22436C6.19028 8.22436 5.90518 8.30622 6.04237 8.53657C6.04237 8.53657 6.16431 8.7782 6.59564 8.82111C6.59564 8.82111 6.27384 8.85611 6.50079 9.1621C6.50079 9.1621 6.60072 9.32978 6.91518 9.39188C6.91518 9.39188 6.67694 9.39978 6.79662 9.61375C6.91744 9.82828 7.20028 9.9491 7.47918 9.96886C7.47918 9.96886 7.62992 9.97676 7.73549 9.95305C7.73549 9.95305 7.47015 10.0857 7.62596 10.3076C7.62596 10.3076 7.74057 10.4657 8.02737 10.4578C8.02737 10.4578 7.95341 10.7062 8.16343 10.7999C8.32715 10.8733 8.46321 10.7559 8.46321 10.7559C8.46321 10.7559 8.40788 11.0218 8.64669 11.1155C8.64669 11.1155 8.76582 11.177 8.94365 11.1155C8.94365 11.1155 9.07915 11.4198 9.56241 11.2058C10.0457 10.993 9.67646 9.20106 9.67646 9.20106V9.20049ZM9.70468 11.9635C9.70468 11.9635 9.63411 12.344 9.07237 12.8227C9.07237 12.8227 8.63879 13.2049 8.64952 13.6453C8.66081 14.0941 8.57217 14.1444 8.40167 14.2962C8.40167 14.2962 8.7534 14.3239 8.92333 14.0896C8.92333 14.0896 8.91599 14.4791 8.86405 14.5147C8.86405 14.5147 8.97471 14.5215 9.13448 14.347C9.13448 14.347 9.23045 14.2454 9.31965 14.2065C9.31965 14.2065 9.21577 14.4758 9.29707 14.7253C9.29707 14.7253 9.32304 14.6276 9.46023 14.5847C9.46023 14.5847 9.70864 14.5339 9.80461 14.1754C9.80461 14.1754 9.86728 13.9383 10.2563 13.7272C10.2563 13.7272 10.6966 13.5612 10.6853 13.3444C10.674 13.127 9.70525 11.9635 9.70525 11.9635H9.70468Z" fill="#F4C53D" stroke="#010002" stroke-width="0.15055"/>
<path d="M11.7453 16.8689C11.7453 16.8689 11.6442 17.3138 11.2936 17.2782C11.2936 17.2782 11.0458 17.2545 11.0644 16.8412C11.0644 16.8412 10.698 17.0366 10.6387 16.5533C10.6387 16.5533 10.3056 16.6307 10.3096 16.179C10.3096 16.179 9.99907 16.2332 10.0358 15.8318C10.0358 15.8318 9.69873 15.9221 9.69873 15.5439C9.69873 15.5439 8.9106 15.4129 10.5535 13.9146L12.0191 14.7874L11.7453 16.8689Z" fill="#F4C53D" stroke="#010002" stroke-width="0.15055" stroke-miterlimit="10"/>
<path d="M11.9089 14.8708C11.9089 14.8708 11.6645 15.0876 11.4906 14.7636C11.4906 14.7636 11.2535 14.7523 11.2168 14.5728C11.2168 14.5728 11.0242 14.5536 10.987 14.3701C10.987 14.3701 10.7245 14.343 10.7318 14.1211C10.7318 14.1211 10.2542 14.0838 10.7318 13.543C11.2094 13.0021 12.0196 14.4406 12.0196 14.4406L11.9089 14.8708ZM12.181 14.7365C12.4182 14.7365 12.6863 16.2156 12.6169 17.1071C12.5915 17.4306 12.4182 17.6948 12.181 17.6948C11.9439 17.6948 11.7712 17.4306 11.7463 17.1071C11.6763 16.2156 11.9445 14.7365 12.181 14.7365Z" fill="#F4C53D" stroke="#010002" stroke-width="0.15055"/>
<path d="M12.181 15.2108C12.3618 15.2108 12.5084 14.9934 12.5084 14.7253C12.5084 14.4571 12.3618 14.2397 12.181 14.2397C12.0001 14.2397 11.8535 14.4571 11.8535 14.7253C11.8535 14.9934 12.0001 15.2108 12.181 15.2108Z" fill="#F4C53D" stroke="#010002" stroke-width="0.15055"/>
<path d="M11.0653 16.8412C11.0653 16.8412 11.1026 16.0581 11.7812 14.9352M10.6396 16.5532C10.6396 16.5532 10.5341 16.101 11.491 14.7636C11.491 14.7636 11.3798 14.4446 11.7202 14.2397M10.3105 16.1789C10.3105 16.1789 10.2806 15.6895 11.2172 14.5728C11.2172 14.5728 11.1342 14.2848 11.4735 14.0545M10.0367 15.8317C10.0367 15.8317 10.0717 15.3372 10.9874 14.3701C10.9874 14.3701 10.9422 14.0743 11.2697 13.8908M9.7002 15.5438C9.7002 15.5438 9.76625 14.9787 10.7322 14.1211C10.7322 14.1211 10.6989 13.8987 11.0207 13.6729" stroke="#010002" stroke-width="0.15055" stroke-miterlimit="10"/>
<path d="M2.2373 6.42334C2.2373 6.42334 2.99551 6.86257 5.35877 7.3018M2.57378 7.02742C2.57378 7.02742 4.6271 7.69699 5.58347 7.77942M3.38224 7.77942C3.38224 7.77942 4.58701 8.15768 5.99786 8.39649M4.41031 8.56755C4.41031 8.56755 5.7709 8.89443 6.42128 8.94863M5.32377 9.21002C5.32377 9.21002 6.47491 9.44996 6.76623 9.47875M6.05657 9.80225C6.05657 9.80225 6.89664 9.92984 7.23086 9.92306M7.09988 10.3126C7.09988 10.3126 7.43975 10.2968 7.60291 10.2697M7.41434 10.8585C7.41434 10.8585 7.7034 10.7806 7.87333 10.6717M7.84002 11.4237C7.84002 11.4237 8.06246 11.3379 8.16973 11.1041M8.38257 11.6326C8.38257 11.6326 8.55419 11.4784 8.56549 11.3068M9.02617 11.7669C9.02617 11.7669 8.96181 11.711 9.00584 11.4694M8.94318 11.1149C8.94318 11.1149 8.9093 11.046 8.9206 10.9365M7.72937 7.65465C7.72937 7.65465 8.11779 7.81047 8.24707 8.025C8.37692 8.23954 8.29167 8.44786 8.24707 8.56698C8.22505 8.62739 7.95124 9.15526 8.27304 9.53747M7.73445 9.95186C7.73445 9.95186 7.73671 9.95016 7.87333 9.90669M6.91471 9.39068C6.91471 9.39068 7.14618 9.43697 7.37369 9.43923M6.5946 8.81934C6.5946 8.81934 6.86672 8.84701 7.12246 8.84305M6.18981 8.22316C6.18981 8.22316 6.58218 8.30107 6.79276 8.30503M5.86405 7.55811C5.86405 7.55811 6.34788 7.69586 6.70751 7.74498M7.50693 8.02952C7.50693 8.02952 7.15916 8.35301 7.5775 8.65336C7.5775 8.65336 7.40362 8.92605 7.75139 9.21058M7.6588 9.34495C7.6588 9.34495 7.60686 9.86548 8.24368 9.86548C8.24368 9.86548 8.12118 10.329 8.73598 10.3137C8.73598 10.3137 8.80599 10.6841 9.24974 10.6096M8.27248 14.6829C8.27248 14.6829 8.17142 14.7055 7.95294 14.6829M7.33869 14.9556C7.33869 14.9556 7.03157 14.9087 7.04625 15.5755M7.52387 15.1074C7.52387 15.1074 7.2461 15.0724 7.26417 15.7194M10.2038 13.5487C10.2038 13.5487 10.0706 13.5758 9.97802 13.6814C9.886 13.7864 9.70816 13.7666 9.70816 13.7666C9.70816 13.7666 9.80414 13.6887 9.83801 13.4939C9.87075 13.2991 9.97859 13.2404 9.97859 13.2404M9.66074 13.0564C9.66074 13.0564 9.5275 13.0835 9.43491 13.1885C9.34232 13.2941 9.16449 13.2743 9.16449 13.2743C9.16449 13.2743 9.26046 13.1964 9.29434 13.0016C9.32765 12.8068 9.43491 12.7481 9.43491 12.7481M9.56871 13.8123C9.56871 13.8123 9.45241 13.8366 9.37168 13.9281C9.29095 14.0201 9.13569 14.0032 9.13569 14.0032C9.13569 14.0032 9.22038 13.9354 9.24861 13.7649C9.27796 13.595 9.37168 13.5436 9.37168 13.5436" stroke="#010002" stroke-width="0.15055"/>
<path d="M15.6958 14.1912C15.6958 14.1912 15.9775 14.6745 16.3179 14.6824C16.3179 14.6824 16.9034 14.6112 17.0688 14.7642C17.1845 14.8709 17.3025 14.959 17.3511 15.2317C17.3985 15.5044 17.2579 15.5631 17.2246 15.5749C17.2246 15.5749 17.1986 15.7697 17.0061 15.7189C17.0061 15.7189 16.9948 15.9221 16.655 15.8245C16.3145 15.7268 16.1734 15.7579 16.1073 15.4191C16.0401 15.0798 15.9786 15.0855 15.9182 15.0448C15.8369 14.99 15.6839 14.9387 15.5704 14.8732C15.4688 14.8145 15.0781 14.6157 14.9449 14.6005C14.8117 14.5847 14.841 14.1364 14.841 14.1364H15.1854L15.3519 13.8908L15.6963 14.1912H15.6958ZM14.6118 11.767C14.6118 11.767 14.9562 12.0475 15.2452 11.767C15.2452 11.767 15.3615 11.907 15.5953 11.8663C15.8279 11.8251 15.8668 11.7026 15.8888 11.6326C15.8888 11.6326 16.091 11.75 16.2615 11.6569C16.4308 11.5643 16.4308 11.4237 16.4308 11.4237C16.4308 11.4237 16.7272 11.4824 16.8791 11.2814C17.0309 11.081 16.9384 10.8823 16.8565 10.8586C16.8565 10.8586 17.1766 10.9427 17.2641 10.6678C17.2874 10.6064 17.291 10.5392 17.2744 10.4757C17.2578 10.4122 17.2219 10.3554 17.1715 10.3132C17.1715 10.3132 17.8456 10.3098 18.1222 10.0987C18.1222 10.0987 18.352 9.95415 18.2148 9.80228C18.2148 9.80228 18.8217 9.70518 18.9736 9.46355C18.9736 9.46355 19.0402 9.39693 19.0182 9.28006C19.0182 9.28006 19.0143 9.21401 18.9476 9.21006C18.9476 9.21006 19.6398 9.10279 19.8396 8.87471C19.8396 8.87471 19.9356 8.7697 19.8876 8.62912C19.8876 8.62912 19.8775 8.59243 19.8611 8.56702C19.8611 8.56702 20.4912 8.43435 20.8017 8.15376C20.8017 8.15376 20.9812 7.99399 20.8886 7.77946C20.8886 7.77946 21.9415 7.49153 21.6976 7.02746C21.6976 7.02746 22.1899 6.86769 22.0341 6.42338C22.0341 6.42338 22.4412 6.21675 22.2639 5.8893C22.0939 5.57597 21.5717 5.94406 20.9541 6.11513C20.9541 6.11513 19.2807 6.6413 18.457 6.78131L16.1164 10.2664L14.7507 10.7925L14.6124 11.767H14.6118Z" fill="#F4C53D" stroke="#010002" stroke-width="0.15055"/>
<path d="M14.595 9.20049C14.595 9.20049 14.8146 9.03564 15.2059 9.22928C15.2059 9.22928 15.3374 9.32018 15.4413 9.22082C15.4638 9.19932 15.4813 9.1731 15.4925 9.14404C15.5037 9.11498 15.5082 9.08381 15.5059 9.05276C15.5036 9.02172 15.4944 8.99157 15.4791 8.9645C15.4637 8.93742 15.4425 8.9141 15.417 8.89619C15.1252 8.67996 15.0173 8.03128 15.4611 7.76199C15.4611 7.76199 16.1047 7.38034 18.4662 6.77965C18.4662 6.77965 18.6638 6.72432 18.77 6.75085C18.8213 6.76395 18.8682 6.79071 18.9055 6.82828C18.9429 6.86585 18.9694 6.91284 18.9822 6.96426C18.9822 6.96426 19.0884 7.26517 18.7327 7.43736C18.7327 7.43736 18.5724 7.51076 18.407 7.55818C18.407 7.55818 18.5887 7.51866 18.6667 7.69819C18.74 7.86982 18.6328 8.0454 18.2997 8.15831C18.2997 8.15831 18.2094 8.19331 18.0812 8.22436C18.0812 8.22436 18.3663 8.30622 18.2291 8.53657C18.2291 8.53657 18.1072 8.7782 17.6758 8.82111C17.6758 8.82111 17.9976 8.85611 17.7707 9.1621C17.7707 9.1621 17.6708 9.32978 17.3563 9.39188C17.3563 9.39188 17.5945 9.39978 17.4749 9.61375C17.354 9.82828 17.0712 9.9491 16.7923 9.96886C16.7923 9.96886 16.6416 9.97676 16.536 9.95305C16.536 9.95305 16.8013 10.0857 16.6455 10.3076C16.6455 10.3076 16.5309 10.4657 16.2441 10.4578C16.2441 10.4578 16.3181 10.7062 16.1081 10.7999C15.9443 10.8733 15.8083 10.7559 15.8083 10.7559C15.8083 10.7559 15.8636 11.0218 15.6248 11.1155C15.6248 11.1155 15.5057 11.177 15.3278 11.1155C15.3278 11.1155 15.1923 11.4198 14.7091 11.2058C14.2258 10.993 14.595 9.20106 14.595 9.20106V9.20049ZM14.5668 11.9635C14.5668 11.9635 14.6374 12.344 15.1991 12.8227C15.1991 12.8227 15.6327 13.2049 15.622 13.6453C15.6107 14.0941 15.6993 14.1444 15.8698 14.2962C15.8698 14.2962 15.5181 14.3239 15.3482 14.0896C15.3482 14.0896 15.3555 14.4791 15.4074 14.5147C15.4074 14.5147 15.2968 14.5215 15.137 14.347C15.137 14.347 15.041 14.2454 14.9518 14.2065C14.9518 14.2065 15.0557 14.4758 14.9744 14.7253C14.9744 14.7253 14.9484 14.6276 14.8113 14.5847C14.8113 14.5847 14.5628 14.5339 14.4669 14.1754C14.4669 14.1754 14.4042 13.9383 14.0152 13.7272C14.0152 13.7272 13.5749 13.5612 13.5862 13.3444C13.5974 13.127 14.5662 11.9635 14.5662 11.9635H14.5668Z" fill="#F4C53D" stroke="#010002" stroke-width="0.15055"/>
<path d="M12.5262 16.8689C12.5262 16.8689 12.6273 17.3138 12.9779 17.2782C12.9779 17.2782 13.2257 17.2545 13.2071 16.8412C13.2071 16.8412 13.5735 17.0366 13.6328 16.5533C13.6328 16.5533 13.9659 16.6307 13.9619 16.179C13.9619 16.179 14.2724 16.2332 14.2357 15.8318C14.2357 15.8318 14.5728 15.9221 14.5728 15.5439C14.5728 15.5439 15.3609 15.4129 13.718 13.9146L12.2524 14.7874L12.5262 16.8689Z" fill="#F4C53D" stroke="#010002" stroke-width="0.15055" stroke-miterlimit="10"/>
<path d="M12.3626 14.8708C12.3626 14.8708 12.607 15.0876 12.7809 14.7636C12.7809 14.7636 13.018 14.7523 13.0547 14.5728C13.0547 14.5728 13.2472 14.5536 13.2845 14.3701C13.2845 14.3701 13.547 14.343 13.5397 14.1211C13.5397 14.1211 14.0173 14.0838 13.5397 13.543C13.0621 13.0021 12.2519 14.4406 12.2519 14.4406L12.3626 14.8708ZM12.0904 14.7365C11.8533 14.7365 11.5852 16.2156 11.6546 17.1071C11.68 17.4306 11.8533 17.6948 12.0904 17.6948C12.3276 17.6948 12.5003 17.4306 12.5252 17.1071C12.5952 16.2156 12.327 14.7365 12.0904 14.7365Z" fill="#F4C53D" stroke="#010002" stroke-width="0.15055"/>
<path d="M12.0905 15.2108C11.9097 15.2108 11.7631 14.9934 11.7631 14.7253C11.7631 14.4571 11.9097 14.2397 12.0905 14.2397C12.2714 14.2397 12.418 14.4571 12.418 14.7253C12.418 14.9934 12.2714 15.2108 12.0905 15.2108Z" fill="#F4C53D" stroke="#010002" stroke-width="0.15055"/>
<path d="M13.2062 16.8412C13.2062 16.8412 13.1689 16.0581 12.4903 14.9352M13.6319 16.5532C13.6319 16.5532 13.7374 16.101 12.7805 14.7636C12.7805 14.7636 12.8917 14.4446 12.5513 14.2397M13.961 16.1789C13.961 16.1789 13.9909 15.6895 13.0543 14.5728C13.0543 14.5728 13.1373 14.2848 12.798 14.0545M14.2348 15.8317C14.2348 15.8317 14.1998 15.3372 13.2841 14.3701C13.2841 14.3701 13.3293 14.0743 13.0018 13.8908M14.5713 15.5438C14.5713 15.5438 14.5052 14.9787 13.5393 14.1211C13.5393 14.1211 13.5726 13.8987 13.2508 13.6729" stroke="#010002" stroke-width="0.15055" stroke-miterlimit="10"/>
<path d="M22.0342 6.42334C22.0342 6.42334 21.276 6.86257 18.9127 7.3018M21.6977 7.02742C21.6977 7.02742 19.6444 7.69699 18.688 7.77942M20.8892 7.77942C20.8892 7.77942 19.6845 8.15768 18.2736 8.39649M19.8612 8.56755C19.8612 8.56755 18.5006 8.89443 17.8502 8.94863M18.9477 9.21002C18.9477 9.21002 17.7966 9.44996 17.5053 9.47875M18.2149 9.80225C18.2149 9.80225 17.3748 9.92984 17.0406 9.92306M17.1716 10.3126C17.1716 10.3126 16.8317 10.2968 16.6686 10.2697M16.8571 10.8585C16.8571 10.8585 16.5681 10.7806 16.3982 10.6717M16.4315 11.4237C16.4315 11.4237 16.209 11.3379 16.1018 11.1041M15.8889 11.6326C15.8889 11.6326 15.7173 11.4784 15.706 11.3068M15.2453 11.7669C15.2453 11.7669 15.3097 11.711 15.2656 11.4694M15.3283 11.1149C15.3283 11.1149 15.3622 11.046 15.3509 10.9365M16.5421 7.65465C16.5421 7.65465 16.1537 7.81047 16.0244 8.025C15.8946 8.23954 15.9798 8.44786 16.0244 8.56698C16.0464 8.62739 16.3202 9.15526 15.9984 9.53747M16.537 9.95186C16.537 9.95186 16.5348 9.95016 16.3982 9.90669M17.3568 9.39068C17.3568 9.39068 17.1253 9.43697 16.8978 9.43923M17.6769 8.81934C17.6769 8.81934 17.4048 8.84701 17.149 8.84305M18.0817 8.22316C18.0817 8.22316 17.6893 8.30107 17.4787 8.30503M18.4074 7.55811C18.4074 7.55811 17.9236 7.69586 17.564 7.74498M16.7646 8.02952C16.7646 8.02952 17.1123 8.35301 16.694 8.65336C16.694 8.65336 16.8679 8.92605 16.5201 9.21058M16.6127 9.34495C16.6127 9.34495 16.6646 9.86548 16.0278 9.86548C16.0278 9.86548 16.1503 10.329 15.5355 10.3137C15.5355 10.3137 15.4655 10.6841 15.0217 10.6096M15.999 14.6829C15.999 14.6829 16.1001 14.7055 16.3185 14.6829M16.9328 14.9556C16.9328 14.9556 17.2399 14.9087 17.2252 15.5755M16.7476 15.1074C16.7476 15.1074 17.0254 15.0724 17.0073 15.7194M14.0676 13.5487C14.0676 13.5487 14.2009 13.5758 14.2935 13.6814C14.3855 13.7864 14.5633 13.7666 14.5633 13.7666C14.5633 13.7666 14.4673 13.6887 14.4335 13.4939C14.4007 13.2991 14.2929 13.2404 14.2929 13.2404M14.6107 13.0564C14.6107 13.0564 14.744 13.0835 14.8366 13.1885C14.9292 13.2941 15.107 13.2743 15.107 13.2743C15.107 13.2743 15.011 13.1964 14.9771 13.0016C14.9438 12.8068 14.8366 12.7481 14.8366 12.7481M14.7028 13.8123C14.7028 13.8123 14.8191 13.8366 14.8998 13.9281C14.9805 14.0201 15.1358 14.0032 15.1358 14.0032C15.1358 14.0032 15.0511 13.9354 15.0229 13.7649C14.9935 13.595 14.8998 13.5436 14.8998 13.5436" stroke="#010002" stroke-width="0.15055"/>
<path d="M17.7988 12.7829L17.4754 12.5954L16.941 14.9157L16.7207 14.7563L17.241 12.5345L16.8754 12.5438L17.7426 10.9595L17.7988 12.7876V12.7829ZM19.0645 13.411L18.8629 13.0829L17.2504 14.9907L17.077 14.7938L18.6848 12.9188L18.3566 12.7407L19.8285 11.7704L19.0645 13.411Z" fill="#0081C6" stroke="#010002" stroke-width="0.15" stroke-miterlimit="10"/>
<path d="M18.7408 12.3469L18.4736 12.075L17.0299 14.85L16.8096 14.7188L18.2627 11.9532L17.9064 11.8594L19.1299 10.5657L18.7361 12.3469H18.7408ZM16.6736 15.6985L16.5658 16.1391L16.8611 16.4344L16.4393 18.1969L16.0689 17.7L15.5205 17.9579L15.9424 16.1907L16.3268 16.0829L16.4252 15.6422C16.4252 15.6422 16.5424 15.5954 16.6736 15.6985Z" fill="#0081C6" stroke="#010002" stroke-width="0.15" stroke-miterlimit="10"/>
<path d="M16.7723 15.4031L16.5613 15.8015L16.7723 16.1671L15.9332 17.7609L15.6988 17.175L15.1035 17.2734L15.9426 15.6796H16.341L16.5473 15.2859C16.5473 15.2859 16.6973 15.2859 16.7723 15.4031Z" fill="#0081C6" stroke="#010002" stroke-width="0.15" stroke-miterlimit="10"/>
<path d="M16.8094 15.5203L16.2422 16.2422L16.3734 16.6453L15.2156 18L15.1078 17.3766L14.5078 17.3297L15.6656 15.975L16.0547 16.0687L16.6547 15.3094C16.6547 15.3094 16.8187 15.3891 16.8094 15.5203ZM2.45625 13.8328C2.59219 13.7766 2.69062 13.725 2.69062 13.5797C2.69062 13.5469 2.67187 13.4719 2.62969 13.3547L1.725 10.5844C1.69428 10.482 1.65669 10.3817 1.6125 10.2844C1.57031 10.2047 1.49062 10.1719 1.38281 10.1297H2.53594C2.40937 10.1859 2.29687 10.2328 2.30156 10.3641C2.30156 10.4203 2.31094 10.4906 2.33906 10.5844L3.0375 12.75L3.73125 10.5797C3.75937 10.4859 3.77812 10.4156 3.77812 10.3641C3.77344 10.2234 3.65156 10.1766 3.53437 10.125H4.65469C4.55156 10.1672 4.46719 10.1953 4.425 10.2797C4.40625 10.3172 4.36406 10.4109 4.3125 10.5797L3.40781 13.3453C3.38084 13.4216 3.36046 13.5 3.34687 13.5797C3.34687 13.5797 3.30469 13.7531 3.58125 13.8281H2.45625V13.8328ZM21.7781 13.5516V10.4109C21.7797 10.3685 21.77 10.3265 21.75 10.2891C21.7359 10.2562 21.6562 10.1766 21.5437 10.1297H22.5844C22.5015 10.159 22.4295 10.213 22.3781 10.2844C22.3577 10.3233 22.348 10.367 22.35 10.4109V13.5516C22.35 13.6031 22.3594 13.6453 22.3781 13.6781C22.3969 13.7062 22.4719 13.7813 22.5844 13.8328H21.5437C21.6562 13.7859 21.7312 13.7062 21.75 13.6781C21.7687 13.6453 21.7781 13.6031 21.7781 13.5469V13.5516Z" fill="#0081C6" stroke="#010002" stroke-width="0.15" stroke-miterlimit="10"/>
<path d="M12.1826 14.6157C12.1826 14.6157 14.9576 13.3829 14.967 10.5376H9.39355C9.40293 13.3829 12.1826 14.6157 12.1826 14.6157Z" fill="white" stroke="#010002" stroke-width="0.15"/>
<path d="M9.8252 10.5376V12.3563C9.8252 12.3563 10.0361 12.7782 10.2518 13.0454V10.5376H9.8252ZM10.683 10.5376V13.5376C10.683 13.5376 10.9502 13.8001 11.1096 13.9267V10.5376H10.6783H10.683ZM11.5361 10.5376V14.2407C11.5361 14.2407 11.8455 14.4423 11.9674 14.5079V10.5376H11.5314H11.5361ZM14.5361 10.5376V12.3563C14.5361 12.3563 14.3252 12.7782 14.1096 13.0454V10.5376H14.5361ZM13.6783 10.5376V13.5376C13.6783 13.5376 13.4111 13.8001 13.2564 13.9267V10.5376H13.6783ZM12.8252 10.5376V14.2407C12.8252 14.2407 12.5158 14.4423 12.3939 14.5079V10.5376H12.8252Z" fill="#A60032" stroke="#010002" stroke-width="0.15"/>
<path d="M14.967 8.46567C14.967 8.46567 13.6029 9.17817 12.1826 8.40942C10.7576 9.17817 9.39355 8.46567 9.39355 8.46567V10.5375H14.967V8.46567Z" fill="#162667" stroke="#010002" stroke-width="0.15" stroke-miterlimit="10"/>
</g>
<defs>
<clipPath id="clip0_208_27632">
<rect width="24" height="24" rx="12" fill="white"/>
</clipPath>
</defs>
</svg>
