<svg width="24" height="24" viewBox="0 0 24 24" fill="none" xmlns="http://www.w3.org/2000/svg">
<g clip-path="url(#clip0_208_23023)">
<path d="M0 0H24V24H0V0Z" fill="#C4272F"/>
<path d="M8.00195 0H15.9988V24H8.00195V0Z" fill="#015197"/>
<path d="M4.0127 11.4047C4.73757 11.4047 5.3252 10.817 5.3252 10.0922C5.3252 9.36729 4.73757 8.77966 4.0127 8.77966C3.28782 8.77966 2.7002 9.36729 2.7002 10.0922C2.7002 10.817 3.28782 11.4047 4.0127 11.4047Z" fill="#F9CF02"/>
<path d="M4.0127 10.9219C4.80229 10.9219 5.44238 10.2818 5.44238 9.49219C5.44238 8.70259 4.80229 8.0625 4.0127 8.0625C3.2231 8.0625 2.58301 8.70259 2.58301 9.49219C2.58301 10.2818 3.2231 10.9219 4.0127 10.9219Z" fill="#C4272F"/>
<path fill-rule="evenodd" clip-rule="evenodd" d="M3.42168 7.94531C3.43487 8.09348 3.50304 8.23134 3.61279 8.33175C3.72254 8.43216 3.8659 8.48785 4.01465 8.48785C4.1634 8.48785 4.30676 8.43216 4.41651 8.33175C4.52625 8.23134 4.59443 8.09348 4.60762 7.94531C4.60762 7.70625 4.4623 7.67344 4.4623 7.58438C4.4623 7.49531 4.55137 7.37812 4.36855 7.22812C4.4623 7.37812 4.3123 7.40625 4.3123 7.55625C4.3123 7.70625 4.36855 7.70625 4.36855 7.82344C4.36855 7.85452 4.35621 7.88432 4.33423 7.9063C4.31225 7.92828 4.28245 7.94062 4.25137 7.94062C4.22029 7.94062 4.19048 7.92828 4.1685 7.9063C4.14653 7.88432 4.13418 7.85452 4.13418 7.82344C4.13418 7.70625 4.25137 7.58906 4.25137 7.40625C4.25137 7.22812 4.22324 7.17188 4.13418 7.02188C4.04043 6.87188 3.89512 6.75 4.0123 6.63281C3.83418 6.69375 3.92324 6.93281 3.92324 7.07812C3.92324 7.22812 3.80605 7.31719 3.80605 7.5C3.80605 7.67344 3.89512 7.70625 3.89512 7.82812C3.89512 7.85983 3.88252 7.89023 3.86011 7.91265C3.83769 7.93506 3.80729 7.94766 3.77559 7.94766C3.74388 7.94766 3.71348 7.93506 3.69106 7.91265C3.66865 7.89023 3.65605 7.85983 3.65605 7.82812C3.65605 7.70625 3.71699 7.70625 3.71699 7.55625C3.71699 7.40625 3.56699 7.37812 3.65605 7.22812C3.47793 7.37812 3.56699 7.49531 3.56699 7.58438C3.56699 7.67813 3.41699 7.70625 3.41699 7.94531H3.42168Z" fill="#F9CF02"/>
<path d="M4.01289 10.6875C4.54101 10.6875 4.96914 10.2594 4.96914 9.73127C4.96914 9.20315 4.54101 8.77502 4.01289 8.77502C3.48477 8.77502 3.05664 9.20315 3.05664 9.73127C3.05664 10.2594 3.48477 10.6875 4.01289 10.6875Z" fill="#F9CF02"/>
<path d="M1.3877 11.639V17.3672H2.58301V11.639H1.3877ZM5.44707 11.639V17.3672H6.6377V11.639H5.44707ZM2.82207 12.5953V13.0734H5.20332V12.5953H2.82207ZM2.82207 15.9375V16.4062H5.20332V15.9375H2.82207ZM2.82207 11.639H5.20332L4.00801 12.3562L2.82207 11.639ZM2.82207 16.6547H5.20332L4.00801 17.3672L2.82207 16.6547Z" fill="#F9CF02"/>
<path d="M4.0127 15.7688C4.71168 15.7688 5.27832 15.2022 5.27832 14.5032C5.27832 13.8042 4.71168 13.2375 4.0127 13.2375C3.31371 13.2375 2.74707 13.8042 2.74707 14.5032C2.74707 15.2022 3.31371 15.7688 4.0127 15.7688Z" fill="#F9CF02" stroke="#C4272F" stroke-width="0.375"/>
<path d="M4.0127 13.2375C4.18053 13.2375 4.34149 13.3042 4.46016 13.4229C4.57884 13.5416 4.64551 13.7025 4.64551 13.8704C4.64551 14.0382 4.57884 14.1992 4.46016 14.3178C4.34149 14.4365 4.18053 14.5032 4.0127 14.5032C3.84486 14.5032 3.6839 14.5698 3.56523 14.6885C3.44655 14.8072 3.37988 14.9682 3.37988 15.136C3.37988 15.3038 3.44655 15.4648 3.56523 15.5835C3.6839 15.7021 3.84486 15.7688 4.0127 15.7688" stroke="#C4272F" stroke-width="0.375"/>
<path d="M4.0125 14.1094C4.14453 14.1094 4.25156 14.0023 4.25156 13.8703C4.25156 13.7383 4.14453 13.6312 4.0125 13.6312C3.88047 13.6312 3.77344 13.7383 3.77344 13.8703C3.77344 14.0023 3.88047 14.1094 4.0125 14.1094Z" fill="#C4272F"/>
<path d="M4.0125 15.375C4.14453 15.375 4.25156 15.2679 4.25156 15.1359C4.25156 15.0039 4.14453 14.8969 4.0125 14.8969C3.88047 14.8969 3.77344 15.0039 3.77344 15.1359C3.77344 15.2679 3.88047 15.375 4.0125 15.375Z" fill="#C4272F"/>
</g>
<defs>
<clipPath id="clip0_208_23023">
<rect width="24" height="24" rx="12" fill="white"/>
</clipPath>
</defs>
</svg>
