<svg width="24" height="24" viewBox="0 0 24 24" fill="none" xmlns="http://www.w3.org/2000/svg">
<g clip-path="url(#clip0_208_23637)">
<mask id="mask0_208_23637" style="mask-type:luminance" maskUnits="userSpaceOnUse" x="0" y="0" width="24" height="24">
<path d="M0 0H23.9963V23.9963H0V0Z" fill="white"/>
</mask>
<g mask="url(#mask0_208_23637)">
<path fill-rule="evenodd" clip-rule="evenodd" d="M0 0H24.1705V12.003H0V0Z" fill="white"/>
<path d="M0 0V0.899862L5.76686 3.87038L7.93911 3.93327L0 0Z" fill="#C8102E"/>
<path d="M2.46777 0L9.46348 3.65267V0H2.46777Z" fill="#012169"/>
<path d="M10.3968 0V4.6638H0V7.32468H10.4016V11.9885H13.5947V7.32468H23.9963V4.6638H13.5947V0H10.4016H10.3968Z" fill="#C8102E"/>
<path d="M14.5234 0V3.4398L21.3643 0.0290278L14.5234 0Z" fill="#012169"/>
<path d="M14.7412 3.81718L16.6667 3.80267L24.1365 0.0290527L22.153 0.0580805L14.746 3.82202L14.7412 3.81718Z" fill="#C8102E"/>
<path d="M0 8.10364V10.6581L4.79926 8.12783L0 8.10848V8.10364Z" fill="#012169"/>
<path d="M18.4762 8.21007L16.4733 8.19556L24.0108 11.945L23.9625 11.0887L18.4714 8.21007H18.4762ZM1.87229 12.0127L8.94057 8.29715L7.08762 8.31167L0 12.003" fill="#C8102E"/>
<path d="M24.0882 1.05468L18.3794 3.88489L24.0108 3.90908V8.12295H19.2164L23.9673 10.7016L24.035 12.0078L21.4999 11.9788L14.5526 8.56804V12.0127H9.48242V8.5632L2.96567 11.9982L0.0193519 12.0078V23.9963H47.9926V0.0193519L24.1415 0M0.0290278 1.35463L0 3.84135L5.05084 3.90424L0.0241898 1.35463H0.0290278Z" fill="#012169"/>
<path fill-rule="evenodd" clip-rule="evenodd" d="M0 11.9982H25.3268V23.9963H0V11.9982Z" fill="#FFD900"/>
<path fill-rule="evenodd" clip-rule="evenodd" d="M14.0744 6.06202C14.088 6.34204 14.0445 6.62189 13.9467 6.88462C13.8489 7.14734 13.6987 7.38747 13.5053 7.59044C13.3119 7.79341 13.0794 7.95499 12.8217 8.0654C12.564 8.1758 12.2865 8.23273 12.0062 8.23273C11.7259 8.23273 11.4484 8.1758 11.1907 8.0654C10.933 7.95499 10.7005 7.79341 10.5071 7.59044C10.3137 7.38747 10.1635 7.14734 10.0657 6.88462C9.96788 6.62189 9.92442 6.34204 9.93797 6.06202C9.96367 5.53079 10.1928 5.02983 10.5778 4.66295C10.9629 4.29608 11.4743 4.09143 12.0062 4.09143C12.538 4.09143 13.0495 4.29608 13.4346 4.66295C13.8196 5.02983 14.0487 5.53079 14.0744 6.06202Z" fill="#012169"/>
<path fill-rule="evenodd" clip-rule="evenodd" d="M10.9729 7.45046L11.3744 6.26516L10.3294 5.52979H11.6211L12.0179 4.33965L12.4146 5.52979H13.7063L12.6613 6.26516L13.0629 7.45046L12.0179 6.71026L10.9729 7.45046ZM18.4862 6.62801L18.6846 6.07164L18.1669 5.72331H18.8055L19.0039 5.16694L19.1974 5.72815H19.8409L19.3232 6.06681L19.5215 6.62317L19.0039 6.28451L18.4862 6.62801ZM11.4857 10.7645L11.684 10.2081L11.1664 9.86461H11.8098L12.0033 9.30824L12.2017 9.86461H12.8403L12.3227 10.2033L12.521 10.7645L12.0033 10.421L11.4857 10.7645ZM11.4857 2.68507L11.684 2.12386L11.1664 1.7852H11.8098L12.0033 1.224L12.2017 1.78037H12.8403L12.3227 2.1287L12.521 2.68507L12.0033 2.34641L11.4857 2.68507ZM4.46579 6.61833L4.66415 6.06197L4.14648 5.72331H4.7851L4.98345 5.16211L5.17697 5.71847H5.82042L5.30276 6.06197L5.49628 6.61833L4.98345 6.27968L4.46579 6.61833Z" fill="#FEDD00"/>
</g>
</g>
<defs>
<clipPath id="clip0_208_23637">
<rect width="24" height="24" rx="12" fill="white"/>
</clipPath>
</defs>
</svg>
