<svg width="24" height="24" viewBox="0 0 24 24" fill="none" xmlns="http://www.w3.org/2000/svg">
<g clip-path="url(#clip0_208_27065)">
<path d="M0 0H24V24H0V0Z" fill="white"/>
<path d="M13.3125 2.66724H24V5.33442H13.3125V2.66724ZM13.3125 8.00161H24V10.6688H13.3125V8.00161ZM0 13.3313H24V16.0032H0V13.3313ZM0 18.6657H24V21.3375H0V18.6657Z" fill="#0038A8"/>
<path d="M6.36367 7.96912L6.80505 8.6282C4.99138 9.94072 6.09865 10.7169 4.81337 11.137C5.61276 10.3569 4.68749 10.2911 5.36102 8.66507" fill="#FCD116"/>
<path d="M6.36367 7.96912L6.80505 8.6282C4.99138 9.94072 6.09865 10.7169 4.81337 11.137C5.61276 10.3569 4.68749 10.2911 5.36102 8.66507" stroke="black" stroke-width="0.234667" stroke-miterlimit="20" stroke-linecap="square"/>
<path d="M6.04847 8.15613C5.04781 9.80541 5.70407 10.7122 4.81367 11.1372" stroke="black" stroke-width="0.234667" stroke-miterlimit="20"/>
<path d="M6.66613 6.66553H7.54613L6.66613 11.5055L5.78613 6.66553H6.66613V11.5055V6.66553Z" fill="#FCD116"/>
<path d="M6.66613 6.66553H7.54613L6.66613 11.5055M6.66613 6.66553H5.78613L6.66613 11.5055M6.66613 6.66553V11.5055" stroke="black" stroke-width="0.234667" stroke-miterlimit="20"/>
<path d="M5.53089 7.37392L5.37696 8.15206C3.16641 7.79769 3.40055 9.12947 2.19464 8.51771C3.31154 8.53133 2.70378 7.83057 4.3298 7.15705" fill="#FCD116"/>
<path d="M5.53089 7.37392L5.37696 8.15206C3.16641 7.79769 3.40055 9.12947 2.19464 8.51771C3.31154 8.53133 2.70378 7.83057 4.3298 7.15705" stroke="black" stroke-width="0.234667" stroke-miterlimit="20" stroke-linecap="square"/>
<path d="M5.17639 7.28284C3.30261 7.74149 3.12543 8.84676 2.19534 8.51763" stroke="black" stroke-width="0.234667" stroke-miterlimit="20"/>
<path d="M6.6662 6.66547L7.28845 7.28772L3.2438 10.0879L6.04395 6.04321L6.6662 6.66547L3.2438 10.0879L6.6662 6.66547Z" fill="#FCD116"/>
<path d="M6.6662 6.66547L7.28845 7.28772L3.2438 10.0879M6.6662 6.66547L6.04395 6.04321L3.2438 10.0879M6.6662 6.66547L3.2438 10.0879" stroke="black" stroke-width="0.234667" stroke-miterlimit="20"/>
<path d="M5.36266 6.36367L4.70358 6.80505C3.39107 4.99138 2.61492 6.09865 2.1948 4.81337C2.97493 5.61276 3.04069 4.68749 4.66672 5.36102" fill="#FCD116"/>
<path d="M5.36266 6.36367L4.70358 6.80505C3.39107 4.99138 2.61492 6.09865 2.1948 4.81337C2.97493 5.61276 3.04069 4.68749 4.66672 5.36102" stroke="black" stroke-width="0.234667" stroke-miterlimit="20" stroke-linecap="square"/>
<path d="M5.17517 6.04798C3.52589 5.04732 2.61906 5.70358 2.19412 4.81319" stroke="black" stroke-width="0.234667" stroke-miterlimit="20"/>
<path d="M6.66602 6.6654V7.5454L1.82601 6.6654L6.66602 5.7854V6.6654H1.82601H6.66602Z" fill="#FCD116"/>
<path d="M6.66602 6.6654V7.5454L1.82601 6.6654M6.66602 6.6654V5.7854L1.82601 6.6654M6.66602 6.6654H1.82601" stroke="black" stroke-width="0.234667" stroke-miterlimit="20"/>
<path d="M5.95762 5.53016L5.17948 5.37622C5.53385 3.16568 4.20207 3.39981 4.81383 2.19391C4.80021 3.31081 5.50097 2.70304 6.17449 4.32907" fill="#FCD116"/>
<path d="M5.95762 5.53016L5.17948 5.37622C5.53385 3.16568 4.20207 3.39981 4.81383 2.19391C4.80021 3.31081 5.50097 2.70304 6.17449 4.32907" stroke="black" stroke-width="0.234667" stroke-miterlimit="20" stroke-linecap="square"/>
<path d="M6.04821 5.17493C5.58957 3.30115 4.4843 3.12396 4.81342 2.19388" stroke="black" stroke-width="0.234667" stroke-miterlimit="20"/>
<path d="M6.66583 6.66547L6.04358 7.28772L3.24343 3.24307L7.28809 6.04321L6.66583 6.66547L3.24343 3.24307L6.66583 6.66547Z" fill="#FCD116"/>
<path d="M6.66583 6.66547L6.04358 7.28772L3.24343 3.24307M6.66583 6.66547L7.28809 6.04321L3.24343 3.24307M6.66583 6.66547L3.24343 3.24307" stroke="black" stroke-width="0.234667" stroke-miterlimit="20"/>
<path d="M6.96836 5.36193L6.52698 4.70285C8.34065 3.39034 7.23339 2.61419 8.51866 2.19406C7.71927 2.9742 8.64454 3.03996 7.97101 4.66599" fill="#FCD116"/>
<path d="M6.96836 5.36193L6.52698 4.70285C8.34065 3.39034 7.23339 2.61419 8.51866 2.19406C7.71927 2.9742 8.64454 3.03996 7.97101 4.66599" stroke="black" stroke-width="0.234667" stroke-miterlimit="20" stroke-linecap="square"/>
<path d="M7.28357 5.17492C8.28422 3.52565 7.62796 2.61881 8.51836 2.19387" stroke="black" stroke-width="0.234667" stroke-miterlimit="20"/>
<path d="M6.6659 6.66553H5.7859L6.6659 1.82553L7.5459 6.66553H6.6659V1.82553V6.66553Z" fill="#FCD116"/>
<path d="M6.6659 6.66553H5.7859L6.6659 1.82553M6.6659 6.66553H7.5459L6.6659 1.82553M6.6659 6.66553V1.82553" stroke="black" stroke-width="0.234667" stroke-miterlimit="20"/>
<path d="M7.80114 5.95713L7.95508 5.17899C10.1656 5.53336 9.93148 4.20159 11.1374 4.81334C10.0205 4.79972 10.6283 5.50048 9.00223 6.17401" fill="#FCD116"/>
<path d="M7.80114 5.95713L7.95508 5.17899C10.1656 5.53336 9.93148 4.20159 11.1374 4.81334C10.0205 4.79972 10.6283 5.50048 9.00223 6.17401" stroke="black" stroke-width="0.234667" stroke-miterlimit="20" stroke-linecap="square"/>
<path d="M8.15564 6.04821C10.0294 5.58957 10.2066 4.4843 11.1367 4.81342" stroke="black" stroke-width="0.234667" stroke-miterlimit="20"/>
<path d="M6.66583 6.66559L6.04358 6.04333L10.0882 3.24319L7.28809 7.28784L6.66583 6.66559L10.0882 3.24319L6.66583 6.66559Z" fill="#FCD116"/>
<path d="M6.66583 6.66559L6.04358 6.04333L10.0882 3.24319M6.66583 6.66559L7.28809 7.28784L10.0882 3.24319M6.66583 6.66559L10.0882 3.24319" stroke="black" stroke-width="0.234667" stroke-miterlimit="20"/>
<path d="M7.96937 6.96739L8.62845 6.52601C9.94096 8.33968 10.7171 7.23241 11.1372 8.51769C10.3571 7.71829 10.2913 8.64356 8.66531 7.97004" fill="#FCD116"/>
<path d="M7.96937 6.96739L8.62845 6.52601C9.94096 8.33968 10.7171 7.23241 11.1372 8.51769C10.3571 7.71829 10.2913 8.64356 8.66531 7.97004" stroke="black" stroke-width="0.234667" stroke-miterlimit="20" stroke-linecap="square"/>
<path d="M8.15686 7.28308C9.80614 8.28373 10.713 7.62747 11.1379 8.51787" stroke="black" stroke-width="0.234667" stroke-miterlimit="20"/>
<path d="M6.66602 6.66565V5.78565L11.506 6.66565L6.66602 7.54565V6.66565H11.506H6.66602Z" fill="#FCD116"/>
<path d="M6.66602 6.66565V5.78565L11.506 6.66565M6.66602 6.66565V7.54565L11.506 6.66565M6.66602 6.66565H11.506" stroke="black" stroke-width="0.234667" stroke-miterlimit="20"/>
<path d="M7.37441 7.8009L8.15255 7.95483C7.79818 10.1654 9.12996 9.93124 8.5182 11.1371C8.53182 10.0202 7.83106 10.628 7.15754 9.00198" fill="#FCD116"/>
<path d="M7.37441 7.8009L8.15255 7.95483C7.79818 10.1654 9.12996 9.93124 8.5182 11.1371C8.53182 10.0202 7.83106 10.628 7.15754 9.00198" stroke="black" stroke-width="0.234667" stroke-miterlimit="20" stroke-linecap="square"/>
<path d="M7.28382 8.15613C7.74246 10.0299 8.84774 10.2071 8.51861 11.1372" stroke="black" stroke-width="0.234667" stroke-miterlimit="20"/>
<path d="M6.6662 6.66559L7.28845 6.04333L10.0886 10.088L6.04395 7.28784L6.6662 6.66559L10.0886 10.088L6.6662 6.66559Z" fill="#FCD116"/>
<path d="M6.6662 6.66559L7.28845 6.04333L10.0886 10.088M6.6662 6.66559L6.04395 7.28784L10.0886 10.088M6.6662 6.66559L10.0886 10.088" stroke="black" stroke-width="0.234667" stroke-miterlimit="20"/>
<path d="M6.66607 8.27891C7.55709 8.27891 8.2794 7.5566 8.2794 6.66558C8.2794 5.77456 7.55709 5.05225 6.66607 5.05225C5.77505 5.05225 5.05273 5.77456 5.05273 6.66558C5.05273 7.5566 5.77505 8.27891 6.66607 8.27891Z" fill="#FCD116" stroke="black" stroke-width="0.234667" stroke-miterlimit="20"/>
<path d="M7.85328 6.02033C7.75061 6.13767 7.69194 5.93233 7.32527 5.93233C6.95861 5.93233 6.89994 6.15233 6.84127 6.10833C6.7826 6.06433 7.14927 5.80033 7.26661 5.78567C7.38394 5.771 7.72127 5.88833 7.85328 6.02033ZM7.42794 6.15233C7.53061 6.24034 7.44261 6.431 7.33994 6.431C7.23727 6.431 7.04661 6.255 7.13461 6.13767" fill="black"/>
<path d="M6.94336 6.28444C6.95803 6.10844 7.10469 6.0791 7.33936 6.0791C7.57403 6.0791 7.6767 6.2551 7.7647 6.2991C7.66203 6.2991 7.57403 6.15244 7.33936 6.15244C7.10469 6.15244 7.10469 6.15244 6.94336 6.2991M6.98736 6.32844C7.04603 6.24044 7.11936 6.41644 7.28069 6.41644C7.44203 6.41644 7.53003 6.37244 7.6327 6.2991C7.73536 6.22577 7.48603 6.4751 7.32469 6.4751C7.16336 6.4751 6.94336 6.3871 6.98736 6.32844Z" fill="black"/>
<path d="M7.48647 6.41636C7.67713 6.3137 7.5598 6.16703 7.48647 6.1377C7.5158 6.16703 7.63313 6.3137 7.48647 6.41636ZM6.66513 7.29637C6.75313 7.29637 6.78246 7.26703 6.8998 7.26703C7.01713 7.26703 7.2958 7.42837 7.45713 7.3697C7.1198 7.5017 7.2518 7.4137 6.66513 7.4137H6.5918M7.5158 7.5017C7.45713 7.39903 7.4718 7.42837 7.35447 7.26703C7.4718 7.35503 7.50113 7.39903 7.5158 7.5017ZM6.66513 7.64837C7.0318 7.64837 6.97313 7.57503 7.45713 7.3697C7.10513 7.4137 7.0318 7.53103 6.66513 7.53103H6.5918M6.66513 7.1057C6.7678 7.1057 6.79713 7.03237 6.91446 7.03237C7.0318 7.03237 7.19313 7.07637 7.26647 7.13503C7.28113 7.1497 7.22247 7.0177 7.10513 7.00303C6.9878 6.98836 7.0318 6.7977 6.8998 6.76836C6.8998 6.82703 6.9438 6.81236 6.95846 6.90036C6.95846 6.9737 6.82646 6.9737 6.79713 6.90036C6.82646 7.0177 6.73846 7.0177 6.66513 7.0177" fill="black"/>
<path d="M5.47778 6.02033C5.58045 6.13767 5.63911 5.93233 6.00578 5.93233C6.37245 5.93233 6.43112 6.15233 6.48978 6.10833C6.54845 6.06433 6.18178 5.80033 6.06445 5.78567C5.94711 5.771 5.60978 5.88833 5.47778 6.02033ZM5.90311 6.15233C5.80045 6.24034 5.88845 6.431 5.99111 6.431C6.09378 6.431 6.28445 6.255 6.19645 6.13767" fill="black"/>
<path d="M6.3877 6.28444C6.37303 6.10844 6.22636 6.0791 5.99169 6.0791C5.75703 6.0791 5.65436 6.2551 5.56636 6.2991C5.66903 6.2991 5.75703 6.15244 5.99169 6.15244C6.22636 6.15244 6.22636 6.15244 6.3877 6.2991M6.3437 6.32844C6.28503 6.24044 6.21169 6.41644 6.05036 6.41644C5.88903 6.41644 5.80103 6.37244 5.69836 6.2991C5.59569 6.22577 5.84503 6.4751 6.00636 6.4751C6.16769 6.4751 6.3877 6.3871 6.3437 6.32844Z" fill="black"/>
<path d="M5.84459 6.41636C5.65392 6.3137 5.77125 6.16703 5.84459 6.1377C5.81525 6.16703 5.69792 6.3137 5.84459 6.41636ZM6.66592 7.29637C6.57792 7.29637 6.54859 7.26703 6.43126 7.26703C6.31392 7.26703 6.03526 7.42837 5.87392 7.3697C6.21126 7.5017 6.07926 7.4137 6.66592 7.4137H6.73926M5.81525 7.5017C5.87392 7.39903 5.85925 7.42837 5.97659 7.26703C5.85925 7.35503 5.82992 7.39903 5.81525 7.5017ZM6.66592 7.64837C6.29926 7.64837 6.35792 7.57503 5.87392 7.3697C6.22592 7.4137 6.29926 7.53103 6.66592 7.53103H6.73926M6.66592 7.1057C6.56326 7.1057 6.53392 7.03237 6.41659 7.03237C6.29926 7.03237 6.13792 7.07637 6.06459 7.13503C6.04992 7.1497 6.10859 7.0177 6.22592 7.00303C6.34326 6.98836 6.29926 6.7977 6.43126 6.76836C6.43126 6.82703 6.38726 6.81236 6.37259 6.90036C6.37259 6.9737 6.50459 6.9737 6.53392 6.90036C6.50459 7.0177 6.59259 7.0177 6.66592 7.0177" fill="black"/>
<path d="M6.66566 7.78027C6.59233 7.78027 6.40166 7.82427 6.66566 7.82427C6.92966 7.82427 6.739 7.78027 6.66566 7.78027Z" fill="black"/>
</g>
<defs>
<clipPath id="clip0_208_27065">
<rect width="24" height="24" rx="12" fill="white"/>
</clipPath>
</defs>
</svg>
