<svg width="24" height="24" viewBox="0 0 24 24" fill="none" xmlns="http://www.w3.org/2000/svg">
<g clip-path="url(#clip0_208_24780)">
<path d="M0 0H24V24H0V0Z" fill="#20603D"/>
<path d="M0 0H24V18H0V0Z" fill="#FAD201"/>
<path d="M0 0H24V12H0V0Z" fill="#00A1DE"/>
<path d="M21.4199 6.27186L18.7399 6.42852L21.2865 7.27518L18.6599 6.73185L20.9032 8.20516L18.5033 6.99851L20.2832 9.00848L18.2799 7.22518L19.4866 9.62514L18.0099 7.38184L18.5499 10.0051L17.7066 7.46184L17.5499 10.1418L17.5166 6.23853L21.4199 6.27186Z" fill="#E5BE01"/>
<path d="M21.4199 6.27184L18.7399 6.11518L21.2865 5.26853L18.6599 5.81185L20.9032 4.33854L18.5033 5.54519L20.2832 3.53522L18.2799 5.31852L19.4866 2.91856L18.0099 5.16186L18.5499 2.53857L17.7066 5.08186L17.5499 2.4019L17.5166 6.30518L21.4199 6.27184Z" fill="#E5BE01"/>
<path d="M13.6797 6.27186L16.3597 6.42852L13.8131 7.27518L16.4397 6.73185L14.1964 8.20516L16.5964 6.99851L14.8164 9.00848L16.8197 7.22518L15.613 9.62514L17.0897 7.38184L16.5497 10.0051L17.393 7.46184L17.5497 10.1418L17.583 6.23853L13.6797 6.27186Z" fill="#E5BE01"/>
<path d="M13.6797 6.27184L16.3597 6.11518L13.8131 5.26853L16.4397 5.81185L14.1964 4.33854L16.5964 5.54519L14.8164 3.53522L16.8197 5.31852L15.613 2.91856L17.0897 5.16186L16.5497 2.53857L17.393 5.08186L17.5497 2.4019L17.583 6.30518L13.6797 6.27184Z" fill="#E5BE01"/>
<path d="M17.5496 7.41505C18.181 7.41505 18.6929 6.90317 18.6929 6.27173C18.6929 5.6403 18.181 5.12842 17.5496 5.12842C16.9181 5.12842 16.4062 5.6403 16.4062 6.27173C16.4062 6.90317 16.9181 7.41505 17.5496 7.41505Z" fill="#E5BE01" stroke="#00A1DE" stroke-width="0.302218"/>
</g>
<defs>
<clipPath id="clip0_208_24780">
<rect width="24" height="24" rx="12" fill="white"/>
</clipPath>
</defs>
</svg>
