<svg width="24" height="24" viewBox="0 0 24 24" fill="none" xmlns="http://www.w3.org/2000/svg">
<g clip-path="url(#clip0_208_21852)">
<path d="M0 0H24V8.00156H0V0Z" fill="#FF9933"/>
<path d="M0 8.00159H24V15.9985H0V8.00159Z" fill="white"/>
<path d="M0 15.9984H24V24H0V15.9984Z" fill="#128807"/>
<path d="M11.9998 15.2C13.7671 15.2 15.1998 13.7674 15.1998 12C15.1998 10.2327 13.7671 8.80005 11.9998 8.80005C10.2325 8.80005 8.7998 10.2327 8.7998 12C8.7998 13.7674 10.2325 15.2 11.9998 15.2Z" fill="#000088"/>
<path d="M12.0002 14.8001C13.5466 14.8001 14.8002 13.5465 14.8002 12.0001C14.8002 10.4537 13.5466 9.20007 12.0002 9.20007C10.4538 9.20007 9.2002 10.4537 9.2002 12.0001C9.2002 13.5465 10.4538 14.8001 12.0002 14.8001Z" fill="white"/>
<path d="M11.9995 12.5601C12.3087 12.5601 12.5595 12.3093 12.5595 12.0001C12.5595 11.6908 12.3087 11.4401 11.9995 11.4401C11.6902 11.4401 11.4395 11.6908 11.4395 12.0001C11.4395 12.3093 11.6902 12.5601 11.9995 12.5601Z" fill="#000088"/>
<path d="M14.7575 12.5094C14.8364 12.5198 14.9087 12.4643 14.9191 12.3854C14.9295 12.3066 14.874 12.2343 14.7951 12.2239C14.7163 12.2135 14.6439 12.269 14.6335 12.3478C14.6232 12.4267 14.6787 12.499 14.7575 12.5094Z" fill="#000088"/>
<path d="M12.0003 14.8001L12.0963 13.1201L12.0003 12.3201L11.9043 13.1201L12.0003 14.8001Z" fill="#000088"/>
<path d="M14.5316 13.2056C14.6051 13.236 14.6893 13.2011 14.7198 13.1277C14.7502 13.0542 14.7153 12.9699 14.6418 12.9395C14.5684 12.9091 14.4841 12.944 14.4537 13.0174C14.4232 13.0909 14.4581 13.1751 14.5316 13.2056Z" fill="#000088"/>
<path d="M11.2761 14.7046L11.8036 13.1067L11.9179 12.3091L11.6181 13.057L11.2761 14.7046Z" fill="#000088"/>
<path d="M14.1323 13.8198C14.1954 13.8682 14.2858 13.8563 14.3342 13.7932C14.3826 13.7301 14.3707 13.6397 14.3076 13.5913C14.2445 13.5429 14.1541 13.5548 14.1057 13.6179C14.0573 13.681 14.0692 13.7714 14.1323 13.8198Z" fill="#000088"/>
<path d="M10.599 14.425L11.5221 13.0181L11.839 12.2772L11.3559 12.9221L10.599 14.425Z" fill="#000088"/>
<path d="M13.5896 14.3098C13.6381 14.3729 13.7285 14.3848 13.7915 14.3364C13.8546 14.288 13.8665 14.1976 13.8181 14.1345C13.7697 14.0714 13.6793 14.0595 13.6162 14.1079C13.5531 14.1563 13.5412 14.2467 13.5896 14.3098Z" fill="#000088"/>
<path d="M10.0203 13.98L11.2761 12.8599L11.7739 12.2263L11.1404 12.7241L10.0203 13.98Z" fill="#000088"/>
<path d="M12.9375 14.6425C12.9679 14.716 13.0521 14.7509 13.1256 14.7205C13.1991 14.69 13.234 14.6058 13.2035 14.5323C13.1731 14.4589 13.0889 14.424 13.0154 14.4544C12.9419 14.4848 12.907 14.5691 12.9375 14.6425Z" fill="#000088"/>
<path d="M9.57506 13.4L11.078 12.6432L11.7228 12.16L10.982 12.4769L9.57506 13.4Z" fill="#000088"/>
<path d="M12.2215 14.7952C12.2319 14.8741 12.3043 14.9296 12.3831 14.9192C12.462 14.9088 12.5175 14.8365 12.5071 14.7576C12.4967 14.6788 12.4244 14.6233 12.3455 14.6337C12.2667 14.644 12.2112 14.7164 12.2215 14.7952Z" fill="#000088"/>
<path d="M9.29537 12.7248L10.943 12.3827L11.6909 12.083L10.8933 12.1973L9.29537 12.7248Z" fill="#000088"/>
<path d="M11.4906 14.7574C11.4802 14.8362 11.5357 14.9086 11.6146 14.919C11.6934 14.9293 11.7657 14.8738 11.7761 14.795C11.7865 14.7161 11.731 14.6438 11.6522 14.6334C11.5733 14.623 11.501 14.6785 11.4906 14.7574Z" fill="#000088"/>
<path d="M9.19969 12.0002L10.8797 12.0962L11.6797 12.0002L10.8797 11.9042L9.19969 12.0002Z" fill="#000088"/>
<path d="M10.795 14.5316C10.7646 14.6051 10.7995 14.6893 10.873 14.7198C10.9464 14.7502 11.0307 14.7153 11.0611 14.6418C11.0915 14.5684 11.0566 14.4841 10.9832 14.4537C10.9097 14.4232 10.8255 14.4581 10.795 14.5316Z" fill="#000088"/>
<path d="M9.29548 11.2754L10.8934 11.803L11.691 11.9173L10.9431 11.6175L9.29548 11.2754Z" fill="#000088"/>
<path d="M10.1799 14.1333C10.1315 14.1964 10.1434 14.2867 10.2065 14.3352C10.2696 14.3836 10.36 14.3717 10.4084 14.3086C10.4568 14.2455 10.4449 14.1551 10.3819 14.1067C10.3188 14.0583 10.2284 14.0702 10.1799 14.1333Z" fill="#000088"/>
<path d="M9.57477 10.6001L10.9817 11.5232L11.7225 11.8401L11.0777 11.357L9.57477 10.6001Z" fill="#000088"/>
<path d="M9.68993 13.5895C9.62683 13.6379 9.61493 13.7283 9.66335 13.7914C9.71176 13.8545 9.80215 13.8664 9.86525 13.818C9.92834 13.7696 9.94024 13.6792 9.89183 13.6161C9.84342 13.553 9.75302 13.5411 9.68993 13.5895Z" fill="#000088"/>
<path d="M10.0203 10.0202L11.1403 11.276L11.7739 11.7738L11.2761 11.1402L10.0203 10.0202Z" fill="#000088"/>
<path d="M9.35733 12.9376C9.28386 12.968 9.24897 13.0523 9.2794 13.1257C9.30984 13.1992 9.39407 13.2341 9.46755 13.2037C9.54102 13.1732 9.57591 13.089 9.54548 13.0155C9.51505 12.942 9.43081 12.9072 9.35733 12.9376Z" fill="#000088"/>
<path d="M10.5997 9.57519L11.3566 11.0781L11.8397 11.7229L11.5229 10.9821L10.5997 9.57519Z" fill="#000088"/>
<path d="M9.20441 12.2217C9.12556 12.232 9.07005 12.3044 9.08043 12.3832C9.09081 12.4621 9.16315 12.5176 9.242 12.5072C9.32085 12.4968 9.37635 12.4245 9.36597 12.3456C9.35559 12.2668 9.28325 12.2113 9.20441 12.2217Z" fill="#000088"/>
<path d="M11.2752 9.29549L11.6173 10.9431L11.917 11.691L11.8027 10.8934L11.2752 9.29549Z" fill="#000088"/>
<path d="M9.2415 11.4907C9.16265 11.4803 9.09032 11.5358 9.07994 11.6147C9.06956 11.6935 9.12506 11.7659 9.20391 11.7762C9.28276 11.7866 9.35509 11.7311 9.36548 11.6523C9.37586 11.5734 9.32035 11.5011 9.2415 11.4907Z" fill="#000088"/>
<path d="M11.9987 9.20006L11.9027 10.8801L11.9987 11.6801L12.0947 10.8801L11.9987 9.20006Z" fill="#000088"/>
<path d="M9.46741 10.7945C9.39393 10.7641 9.3097 10.799 9.27926 10.8725C9.24883 10.9459 9.28372 11.0302 9.3572 11.0606C9.43067 11.0911 9.51491 11.0562 9.54534 10.9827C9.57578 10.9092 9.54088 10.825 9.46741 10.7945Z" fill="#000088"/>
<path d="M12.723 9.29548L12.1954 10.8934L12.0811 11.691L12.3809 10.9431L12.723 9.29548Z" fill="#000088"/>
<path d="M9.86674 10.1803C9.80365 10.1319 9.71325 10.1438 9.66484 10.2069C9.61643 10.27 9.62833 10.3604 9.69142 10.4088C9.75452 10.4572 9.84491 10.4453 9.89333 10.3822C9.94174 10.3191 9.92984 10.2287 9.86674 10.1803Z" fill="#000088"/>
<path d="M13.4 9.57513L12.4769 10.9821L12.16 11.7229L12.6432 11.0781L13.4 9.57513Z" fill="#000088"/>
<path d="M10.4094 9.69029C10.361 9.6272 10.2706 9.6153 10.2075 9.66371C10.1444 9.71213 10.1325 9.80252 10.1809 9.86562C10.2293 9.92871 10.3197 9.94061 10.3828 9.8922C10.4459 9.84378 10.4578 9.75339 10.4094 9.69029Z" fill="#000088"/>
<path d="M13.9787 10.0202L12.7229 11.1402L12.2251 11.7738L12.8587 11.276L13.9787 10.0202Z" fill="#000088"/>
<path d="M11.0616 9.3577C11.0311 9.28423 10.9469 9.24933 10.8734 9.27977C10.7999 9.3102 10.765 9.39444 10.7955 9.46791C10.8259 9.54139 10.9101 9.57628 10.9836 9.54585C11.0571 9.51541 11.092 9.43118 11.0616 9.3577Z" fill="#000088"/>
<path d="M14.424 10.6002L12.921 11.3571L12.2762 11.8402L13.017 11.5233L14.424 10.6002Z" fill="#000088"/>
<path d="M11.7775 9.20502C11.7671 9.12617 11.6948 9.07066 11.6159 9.08104C11.5371 9.09142 11.4816 9.16376 11.4919 9.24261C11.5023 9.32146 11.5747 9.37696 11.6535 9.36658C11.7324 9.3562 11.7879 9.28387 11.7775 9.20502Z" fill="#000088"/>
<path d="M14.7037 11.2754L13.0561 11.6175L12.3082 11.9173L13.1057 11.803L14.7037 11.2754Z" fill="#000088"/>
<path d="M12.5084 9.24285C12.5188 9.164 12.4633 9.09166 12.3845 9.08128C12.3056 9.0709 12.2333 9.12641 12.2229 9.20525C12.2125 9.2841 12.268 9.35644 12.3469 9.36682C12.4257 9.3772 12.4981 9.32169 12.5084 9.24285Z" fill="#000088"/>
<path d="M14.7993 12.0001L13.1193 11.9041L12.3193 12.0001L13.1193 12.0961L14.7993 12.0001Z" fill="#000088"/>
<path d="M13.204 9.46863C13.2344 9.39515 13.1995 9.31092 13.1261 9.28048C13.0526 9.25005 12.9684 9.28494 12.9379 9.35842C12.9075 9.43189 12.9424 9.51613 13.0159 9.54656C13.0893 9.577 13.1736 9.5421 13.204 9.46863Z" fill="#000088"/>
<path d="M14.7035 12.7248L13.1056 12.1973L12.308 12.0829L13.0559 12.3827L14.7035 12.7248Z" fill="#000088"/>
<path d="M13.8191 9.86687C13.8675 9.80377 13.8556 9.71338 13.7925 9.66496C13.7294 9.61655 13.639 9.62845 13.5906 9.69154C13.5422 9.75464 13.5541 9.84503 13.6172 9.89345C13.6803 9.94186 13.7707 9.92996 13.8191 9.86687Z" fill="#000088"/>
<path d="M14.4243 13.4L13.0173 12.4769L12.2765 12.16L12.9213 12.6432L14.4243 13.4Z" fill="#000088"/>
<path d="M14.3091 10.4106C14.3722 10.3622 14.3841 10.2718 14.3357 10.2087C14.2873 10.1456 14.1969 10.1337 14.1338 10.1821C14.0707 10.2305 14.0588 10.3209 14.1072 10.384C14.1556 10.4471 14.246 10.459 14.3091 10.4106Z" fill="#000088"/>
<path d="M13.9787 13.9799L12.8587 12.7241L12.2251 12.2263L12.7229 12.8599L13.9787 13.9799Z" fill="#000088"/>
<path d="M14.6417 11.0625C14.7152 11.0321 14.7501 10.9479 14.7196 10.8744C14.6892 10.8009 14.605 10.766 14.5315 10.7965C14.458 10.8269 14.4231 10.9111 14.4535 10.9846C14.484 11.0581 14.5682 11.093 14.6417 11.0625Z" fill="#000088"/>
<path d="M13.3993 14.4249L12.6424 12.922L12.1593 12.2772L12.4762 13.018L13.3993 14.4249Z" fill="#000088"/>
<path d="M14.7946 11.7785C14.8735 11.7681 14.929 11.6957 14.9186 11.6169C14.9082 11.538 14.8359 11.4825 14.757 11.4929C14.6782 11.5033 14.6227 11.5756 14.6331 11.6545C14.6434 11.7333 14.7158 11.7888 14.7946 11.7785Z" fill="#000088"/>
<path d="M12.7239 14.7046L12.3818 13.057L12.082 12.3091L12.1963 13.1067L12.7239 14.7046Z" fill="#000088"/>
</g>
<defs>
<clipPath id="clip0_208_21852">
<rect width="24" height="24" rx="12" fill="white"/>
</clipPath>
</defs>
</svg>
