<svg width="24" height="24" viewBox="0 0 24 24" fill="none" xmlns="http://www.w3.org/2000/svg">
<g clip-path="url(#clip0_208_25651)">
<path d="M0 0H24V24H0V0Z" fill="#000066"/>
<path d="M17.5027 16.3406C17.5027 16.3406 17.3949 16.6219 17.334 16.6219C17.273 16.6219 17.0527 16.5047 17.0527 16.5047C17.0527 16.5047 16.8887 16.7625 16.8043 16.7766C16.7199 16.7953 16.4949 16.7391 16.4949 16.7391C16.4949 16.7391 16.284 16.7391 16.2746 16.7109C16.2652 16.6781 16.284 16.6172 16.284 16.6172C16.284 16.6172 15.9746 16.8609 15.909 16.8469C15.8387 16.8328 15.609 16.5422 15.609 16.5422L15.5715 16.6922L15.1355 16.6781L14.7512 16.4344C14.7512 16.4344 14.5355 16.7859 14.5262 16.7766C14.5215 16.7719 14.1512 16.8609 14.1512 16.8609L14.1277 16.7953L13.884 16.65C13.884 16.65 14.0715 16.3781 14.0715 16.3688L13.9824 16.3359L13.8418 16.4484L13.5605 16.6359L13.2793 16.5047L13.4012 16.2703L13.4152 16.1016L13.6402 15.7687L16.359 13.125L17.6996 15.6L17.5027 16.3406Z" fill="#6A4C2D" stroke="black" stroke-width="0.1125"/>
<path d="M19.4344 16.5L20.1375 16.4766L19.8422 16.3266L22.5375 16.2234L22.1578 16.0828L21.8203 15.6234L20.4234 15.5156C20.4234 15.5156 20.3156 15.4359 20.1422 15.4781C20.1422 15.3703 20.0062 15.225 20.0062 15.225L19.1484 15.1641L18.6094 15.5297L18.9703 16.4578L19.4344 16.5Z" fill="white" stroke="black" stroke-width="0.1125"/>
<path d="M16.6777 8.57339L16.748 8.32964C16.748 8.32964 16.8746 8.1187 16.8746 8.02495C16.8746 7.9312 16.9684 7.82339 16.9684 7.82339C16.9684 7.82339 17.2496 7.7437 17.3152 7.91714C17.6199 7.45308 17.9809 7.8937 17.9809 7.8937L18.0793 7.77651L18.2809 7.52808C18.2809 7.52808 18.5715 7.79995 18.5762 7.84683C18.5762 7.8937 18.623 7.86089 18.623 7.86089L18.9371 7.83276C18.9268 7.89545 18.9325 7.95974 18.9538 8.0196C18.9752 8.07945 19.0113 8.13291 19.059 8.17495C19.1668 8.24058 19.2652 8.62495 19.2652 8.62495L16.6777 8.57339Z" fill="url(#paint0_linear_208_25651)" stroke="black" stroke-width="0.1125"/>
<path d="M19.4346 11.4562C19.4908 11.4234 19.6596 11.3719 19.6361 11.1187C19.6174 10.8703 19.4018 10.8422 19.2799 10.8516C19.1937 10.865 19.1136 10.9042 19.0502 10.9641L18.6518 10.7109C18.6518 10.7109 18.8533 9.44531 19.0643 9.37031C19.2658 9.225 19.2986 9.16406 19.2986 9.13125C19.2986 9.09375 19.2283 9.01406 19.2283 9.01406L17.9252 8.85938L16.6924 9C16.6924 9 16.5986 9.15 16.6127 9.20625C16.6221 9.26719 16.6268 9.32813 16.8471 9.49688C17.0908 9.68438 17.2596 10.7625 17.2596 10.7625C17.2596 10.7625 16.9127 10.9313 16.8939 10.9125C16.8705 10.8938 16.7674 10.8703 16.7158 10.8797C16.6596 10.8891 16.4814 10.9781 16.4814 11.2172C16.4814 11.4516 16.6596 11.5922 16.6596 11.5922C16.6596 11.5922 17.8361 11.4516 18.0143 11.7797C18.183 11.3859 19.3033 11.5219 19.4346 11.4562Z" fill="#656263" stroke="black" stroke-width="0.1125"/>
<path d="M20.7004 10.1485C20.7004 10.1485 20.7145 10.0078 20.8129 9.94689C20.9066 9.88127 21.5629 9.84846 21.7176 9.94689C21.877 10.0406 21.9332 10.5235 21.9332 10.5235C21.9332 10.5235 22.027 10.6969 22.0363 10.8188L22.0551 11.025C22.0551 11.025 22.5801 11.7047 22.5848 12.3188C22.641 12.7313 22.6316 13.8469 22.4676 14.2688C22.4671 14.5743 22.388 14.8745 22.2379 15.1406C22.2379 15.1406 22.2895 15.2344 22.2848 15.3281C22.2801 15.4313 22.2285 15.5203 22.2285 15.5203L22.9879 15.8953L22.7066 15.7922L22.9879 16.0266L22.6691 15.8766L22.8566 16.0641L22.3973 15.8578L22.5988 16.0547L22.252 15.8906L22.4535 16.1016C22.4488 16.0875 22.1535 15.9703 22.1535 15.9703L22.1676 16.0828C22.1676 16.0828 21.9332 16.0688 21.9332 15.8953C21.816 15.825 21.7363 15.736 21.7363 15.736L21.1973 15.6422L20.5879 13.8141L20.7285 10.7203L20.766 10.5656L20.7004 10.1485Z" fill="black" stroke="black" stroke-width="0.1125" stroke-linejoin="round"/>
<path d="M20.2967 20.0345C20.2967 20.0345 19.9779 19.3782 19.8233 19.3642C19.6826 19.097 20.3154 16.8985 21.5342 16.772C22.2045 16.8282 21.5904 17.5454 21.1498 17.3251C21.2014 17.5173 21.4217 17.7938 21.4217 17.7938C21.4217 17.7938 20.5498 18.1688 20.2967 20.0345ZM16.0873 20.1282C16.0873 20.1282 16.3498 19.3782 16.5092 19.3688C16.6639 19.3595 16.0873 16.8657 14.8358 16.847C14.1608 16.9032 14.7795 17.6251 15.2248 17.4048C15.1733 17.6017 14.9483 17.8735 14.9483 17.8735C14.9483 17.8735 15.8295 18.2579 16.0873 20.1282Z" fill="#FFBB00" stroke="black" stroke-width="0.1125"/>
<path d="M17.2357 15.4407C17.2357 15.436 16.9263 15.5345 17.1232 15.872C17.1419 15.7407 17.2779 15.661 17.2779 15.661C17.2779 15.661 17.0669 15.9142 17.2919 16.1251C17.32 15.9235 17.4466 15.8626 17.4466 15.8626C17.4466 15.8626 17.2872 16.322 17.4466 16.4157C17.4654 16.2329 17.5872 16.1532 17.5872 16.1532C17.5872 16.1532 17.4419 16.5657 17.5685 16.6595C17.5825 16.5001 17.6904 16.4345 17.6904 16.4345C17.6904 16.4345 17.6247 16.8563 17.7888 16.8892C17.7935 16.7392 17.9154 16.5938 17.9154 16.5938C17.9154 16.5938 17.8591 16.9407 18.1216 16.9595C18.1216 16.8235 18.1685 16.6735 18.1685 16.6735C18.1685 16.6735 18.2904 17.0485 18.4591 16.9829V16.6688C18.4591 16.6688 18.5669 17.0251 18.7732 16.9595C18.745 16.8563 18.7872 16.7392 18.7872 16.7392C18.7872 16.7392 18.895 16.9595 19.0919 16.8892C19.1247 16.8235 19.0825 16.6923 19.0825 16.6923C19.0825 16.6923 19.3638 16.9876 19.4575 16.8095C19.5419 16.6313 19.2232 16.5751 19.2232 16.5751H19.4388C19.4388 16.5751 19.3732 16.3876 19.0825 16.3501C19.181 16.3032 19.2841 16.3407 19.2841 16.3407C19.2841 16.3407 19.2232 16.111 18.9279 16.0876C19.0404 16.0501 19.1669 16.0782 19.1669 16.0782C19.1669 16.0782 19.1294 15.8626 18.806 15.8017C18.8529 15.7454 18.9935 15.7642 18.9935 15.7642C18.9935 15.7642 18.8622 15.5626 18.7122 15.5767C18.5716 15.586 17.231 15.436 17.2357 15.436V15.4407Z" fill="#00713D" stroke="black" stroke-width="0.1125"/>
<path d="M18.5533 16.528C18.5533 16.528 18.6705 16.5843 18.6705 16.6358M18.6236 16.4343C18.6236 16.4343 18.7736 16.5421 18.7736 16.6218M18.7549 16.3827C18.7549 16.3827 18.8768 16.4577 18.8814 16.5702M18.9564 16.4296C18.9564 16.4296 19.0174 16.5608 18.9986 16.5843M19.0783 16.4999C19.0877 16.603 19.0689 16.6077 19.0689 16.6077M17.5924 15.8483C17.5924 15.8483 17.733 15.9421 17.7236 16.0687M17.583 15.9608C17.583 15.9608 17.6486 16.0218 17.6346 16.064M17.7564 15.853C17.7564 15.853 17.8502 15.9843 17.8221 16.0733M17.9158 15.9374C17.9158 15.9374 17.9627 16.0171 17.9205 16.064M17.9955 15.9749C17.9955 15.9749 18.0424 16.0593 17.9955 16.0874M17.9346 16.2468C17.9346 16.2468 18.0705 16.2749 18.0893 16.3733M18.0143 16.153C18.0143 16.153 18.1549 16.1624 18.1689 16.3124M18.1971 16.1015C18.2018 16.1015 18.2908 16.2655 18.2768 16.3124M18.3752 16.1202C18.3752 16.1202 18.4127 16.2702 18.3846 16.3218M18.4924 16.1765V16.3546M18.3143 15.9374C18.3143 15.9374 18.4033 15.9702 18.3986 16.0546M18.3986 15.8577C18.3986 15.8577 18.5111 15.9233 18.4971 16.0452M18.5252 15.8062C18.5252 15.8062 18.6236 15.9233 18.5861 16.0499M18.6939 15.8343C18.6939 15.8343 18.6611 15.9749 18.6752 16.0358M18.7971 15.9327C18.7971 15.9327 18.7361 15.9796 18.7689 16.0405M18.2486 16.4812C18.2486 16.4812 18.2721 16.5937 18.2486 16.6077M18.1127 16.4202C18.1127 16.4202 18.1783 16.5421 18.1596 16.603M17.9627 16.4155C17.9627 16.4155 18.0424 16.5046 18.0377 16.5749M17.8408 16.4343C17.8408 16.4343 17.9158 16.4999 17.9111 16.5421M17.7799 16.5374C17.7799 16.5374 17.8502 16.6077 17.8455 16.6265" stroke="#3EC26D" stroke-width="0.10688" stroke-linecap="round"/>
<path d="M16.2793 11.5875L17.2777 11.5688C17.2777 11.5688 17.934 11.5688 18.0043 11.7844C18.1309 11.4985 18.7027 11.5172 18.7027 11.5172L19.734 11.4797L19.7527 13.9735C19.6592 14.4114 19.4568 14.8188 19.1643 15.1579C18.8719 15.4971 18.4987 15.7571 18.0793 15.9141C17.6483 15.7679 17.2641 15.5091 16.9666 15.1647C16.6691 14.8202 16.469 14.4025 16.3871 13.9547L16.2793 11.5875Z" fill="white" stroke="black" stroke-width="0.1125"/>
<path d="M16.6357 11.578L18.0889 15.4499L19.4014 11.4937C18.9936 11.5218 18.117 11.428 18.0092 11.803C17.8404 11.4702 16.9217 11.6015 16.6357 11.578Z" fill="#006B00" stroke="black" stroke-width="0.1125"/>
<path d="M17.6246 13.6735C17.6809 13.7017 17.6762 12.6235 17.7512 12.5907L17.8074 12.3657C17.7465 12.2532 17.4605 12.2626 17.3574 12.3563C17.3783 12.4244 17.4018 12.4916 17.4277 12.5579C17.5684 12.7876 17.5402 13.697 17.6246 13.6735Z" fill="#FFC900" stroke="#006B00" stroke-width="0.0625" stroke-linecap="round"/>
<path d="M17.2361 5.3297C17.2361 5.3297 17.3393 5.21251 17.3439 5.18439C17.3439 5.15626 17.8127 5.13751 18.0846 4.62189C18.2393 4.3547 18.0846 4.50939 18.0846 4.50939L18.0752 4.38283C18.0752 4.38283 18.2627 4.19533 18.1971 4.10158C18.1268 4.00314 18.1502 4.22814 18.0377 4.22345C17.9252 4.21876 17.9861 3.9797 17.9861 3.9797C17.9861 3.9797 17.9768 3.95158 17.9439 3.93751C17.8971 3.9422 17.9111 4.02658 17.8689 4.03126C17.8268 4.04533 17.7893 3.84376 17.7893 3.84376C17.7893 3.84376 17.7189 3.75001 17.658 4.04064C17.6908 4.3547 17.8924 4.29376 17.8924 4.49533C17.8924 4.70158 17.7143 4.86095 17.6627 4.87033C17.6158 4.87033 17.6299 4.6922 17.6299 4.6922C17.6299 4.6922 17.6018 4.60783 17.583 4.60783C17.5643 4.60783 17.6861 4.58908 17.6674 4.35939C17.6252 4.07814 17.5924 4.42501 17.5174 4.40626C17.4424 4.39689 17.4986 4.15314 17.5268 4.12501C17.5549 4.09689 17.4939 3.9797 17.3346 4.2797C17.3205 4.42033 17.3018 4.2422 17.2689 4.25158C17.2127 4.36876 17.2221 4.44845 17.3018 4.55626C17.4189 4.66408 17.4893 4.77189 17.4893 4.82814C17.4799 4.88439 17.4189 5.01095 17.3393 5.01095C17.2549 5.01095 17.3393 4.85626 17.3393 4.8047C17.3346 4.75783 17.1939 4.57033 17.1939 4.57033C17.1939 4.57033 17.0955 4.41095 17.1002 4.40626C17.1143 4.40158 17.0955 4.37814 17.0486 4.53751C17.0018 4.70158 16.9455 4.43439 16.9455 4.43439C16.9455 4.43439 16.8799 4.63126 17.0205 4.75314C16.9127 4.73908 16.9033 4.78126 16.9033 4.78126C16.9033 4.83751 17.0439 4.86095 17.0674 4.95939C17.0861 5.05314 16.9174 5.11408 16.9174 5.11408C16.9174 5.11408 16.9877 5.20783 17.1846 5.02033C17.1861 5.09601 17.1593 5.16953 17.1096 5.22658C17.1752 5.2547 17.2268 5.25001 17.2361 5.3297Z" fill="#CDAD56" stroke="black" stroke-width="0.1125" stroke-linejoin="round"/>
<path d="M16.5936 5.32976L16.4999 5.17507C16.4999 5.14695 16.078 5.2032 15.8718 4.68757C15.7405 4.43913 15.8718 4.58445 15.8718 4.58445L15.8811 4.46726C15.8811 4.46726 15.7405 4.29382 15.8014 4.20476C15.8624 4.1157 15.8343 4.32195 15.9139 4.32195C16.0077 4.32195 15.9561 4.10163 15.9561 4.10163C15.9561 4.10163 15.9655 4.07351 15.9936 4.06413C16.0311 4.06413 16.0499 4.19538 16.0874 4.20476C16.1202 4.21413 16.1905 4.05476 16.2139 4.01726C16.2468 4.01726 16.2468 3.8907 16.2983 4.15788C16.2702 4.43913 16.0358 4.38757 16.0358 4.57038C16.0358 4.75788 16.1858 4.9032 16.228 4.90788C16.2749 4.90788 16.2561 4.74851 16.2561 4.74851C16.2561 4.74851 16.2796 4.67351 16.2983 4.67351C16.3124 4.67351 16.1577 4.70163 16.1764 4.4907C16.2093 4.29382 16.2889 4.50476 16.3546 4.4907C16.4155 4.47663 16.3452 4.27976 16.3639 4.25163C16.3639 4.22351 16.4577 4.09226 16.4952 4.3782C16.5093 4.50945 16.5796 4.2657 16.6077 4.27038C16.6546 4.3782 16.5889 4.51882 16.5186 4.61726C16.4249 4.7157 16.378 4.82351 16.378 4.87507C16.3827 4.92195 16.4061 4.98757 16.4811 4.98757C16.5514 4.98757 16.5046 4.89851 16.5093 4.85163C16.5093 4.80476 16.6311 4.65476 16.6311 4.65476C16.6546 4.61726 16.6311 4.54695 16.6593 4.51413C16.6968 4.51413 16.7108 4.46257 16.753 4.60788C16.7905 4.75788 16.8421 4.51413 16.8421 4.51413C16.8421 4.51413 16.8936 4.69695 16.7764 4.80476C16.8702 4.7907 16.8749 4.83288 16.8749 4.83288C16.8749 4.87976 16.828 4.9032 16.8139 4.99226C16.7999 5.08601 16.8608 5.13288 16.8608 5.13288C16.8608 5.13288 16.8046 5.22195 16.6358 5.04851C16.6378 5.11629 16.6607 5.18179 16.7014 5.23601C16.6452 5.25945 16.603 5.25945 16.5936 5.32976Z" fill="#CDAD56" stroke="black" stroke-width="0.1" stroke-linejoin="round"/>
<path d="M19.1578 12.1547C19.0688 12.075 19.0641 12.1453 19.0172 12.1266C18.9984 12.1219 18.9797 12.0984 18.9609 12.0797C18.9469 12.0656 18.9281 12.0609 18.9047 12.0516L18.8812 12.1219C18.8766 12.1453 18.9047 12.1828 18.9047 12.2156C18.9 12.2672 18.8766 12.3094 18.8109 12.3281C18.8297 12.2953 18.8391 12.2906 18.8344 12.2484C18.8344 12.225 18.7688 12.1828 18.7781 12.1641C18.7875 12.1266 18.8062 12.0891 18.7922 12.0563C18.7687 12.075 18.7313 12.0656 18.7031 12.075C18.6844 12.0844 18.6797 12.1266 18.6516 12.1453C18.6187 12.1594 18.5484 12.15 18.4875 12.1172C18.525 12.0891 18.5531 12.1078 18.5906 12.0797C18.6094 12.0656 18.6047 12.0094 18.6234 11.9953L18.7031 11.9531C18.6891 11.9344 18.6891 11.9063 18.675 11.8875C18.6562 11.8688 18.5813 11.8734 18.5672 11.8547C18.5344 11.8172 18.5437 11.7703 18.5109 11.7328C18.5953 11.7609 18.5812 11.8031 18.6047 11.7984C18.6422 11.7797 18.6797 11.775 18.6984 11.7844C18.7219 11.7937 18.7641 11.8453 18.7828 11.8547L18.8109 11.7797C18.8203 11.7563 18.7781 11.7141 18.7828 11.6906C18.8016 11.6437 18.8391 11.6016 18.8531 11.5547L18.8719 11.6859C18.8766 11.7047 18.9188 11.7188 18.9234 11.7422C18.9234 11.7656 18.9 11.8172 18.9047 11.8359H18.9891C19.0125 11.8266 19.0266 11.7703 19.05 11.7656C19.0969 11.7562 19.1344 11.7609 19.1859 11.7656C19.1484 11.8031 19.1203 11.7984 19.0969 11.8312C19.0781 11.8453 19.1062 11.8922 19.05 11.925C19.0312 11.9344 18.9797 11.9203 18.9609 11.9344L19.0078 11.9906C19.0266 12.0094 19.1016 12.0141 19.1156 12.0375C19.1484 12.0703 19.1625 12.1172 19.1578 12.1547ZM16.9219 12.1922C17.0109 12.1172 17.0203 12.1828 17.0625 12.1641C17.0859 12.1594 17.1 12.1359 17.1188 12.1172C17.1328 12.1031 17.1516 12.0984 17.175 12.0891L17.1984 12.1594C17.2078 12.1828 17.175 12.2203 17.175 12.2531C17.1844 12.3094 17.2031 12.3469 17.2687 12.3703C17.25 12.3328 17.2406 12.3281 17.2453 12.2859C17.2453 12.2625 17.3109 12.2203 17.3063 12.2016C17.2922 12.1687 17.2734 12.1266 17.2875 12.0938C17.3156 12.1125 17.3484 12.1031 17.3766 12.1125C17.4 12.1219 17.4 12.1641 17.4328 12.1828C17.4656 12.1969 17.5359 12.1875 17.5922 12.1547C17.5594 12.1266 17.5266 12.1453 17.4938 12.1219C17.475 12.1078 17.475 12.0469 17.4562 12.0328L17.3766 11.9906C17.3953 11.9719 17.3906 11.9437 17.4094 11.925C17.4234 11.9062 17.4984 11.9109 17.5125 11.8922C17.5453 11.8547 17.5406 11.8078 17.5734 11.7703C17.4891 11.7984 17.4984 11.8406 17.4797 11.8359C17.4375 11.8172 17.4 11.8125 17.3766 11.8219C17.3578 11.8312 17.3156 11.8828 17.2969 11.8922L17.2687 11.8172C17.2594 11.7938 17.3063 11.7516 17.2969 11.7281C17.2828 11.6812 17.2406 11.6437 17.2266 11.5969L17.2078 11.7234C17.2078 11.7469 17.1609 11.7563 17.1609 11.7797C17.1563 11.8031 17.1797 11.8547 17.1797 11.8734H17.0953C17.0719 11.8641 17.0531 11.8078 17.0297 11.8031C16.9828 11.7938 16.9453 11.7984 16.8984 11.8031C16.9312 11.8406 16.9594 11.8406 16.9828 11.8687C17.0016 11.8828 16.9781 11.9297 17.0297 11.9625C17.0484 11.9719 17.1 11.9578 17.1188 11.9719L17.0719 12.0281C17.0531 12.0469 16.9781 12.0563 16.9641 12.075C16.9312 12.1078 16.9172 12.1547 16.9219 12.1922Z" fill="#FFC900"/>
<path d="M19.078 12.403C18.9984 12.4687 18.4921 12.5952 18.4874 13.0358C18.4827 13.4765 18.5765 13.5796 18.4827 13.589C18.2952 13.589 18.2718 13.0968 18.2765 12.8812C18.2812 12.6608 18.2859 12.6937 18.2859 12.6937C18.2859 12.6937 18.4124 12.7312 18.403 12.8343C18.3937 12.9421 18.5296 12.5718 18.4827 12.4733C18.5671 12.5577 18.6749 12.5202 18.6749 12.5202C18.6749 12.5108 18.614 12.4452 18.5859 12.3937C18.5624 12.3468 18.6796 12.4218 18.6796 12.4218C18.6796 12.4218 18.6843 12.3374 18.5812 12.3421C18.4405 12.3421 18.6046 12.2952 18.6046 12.2952C18.6046 12.2952 18.6796 12.3702 18.7359 12.2952C18.6749 12.2296 18.5952 12.2015 18.5952 12.2015C18.5952 12.2015 18.5202 12.0608 18.4171 12.0327C18.3046 12.0046 18.3234 12.0796 18.1874 12.0702C18.164 12.1171 18.164 12.1265 18.2155 12.1405C18.1218 12.2015 18.1687 12.328 18.1687 12.328C18.1687 12.328 18.314 12.2671 18.3093 12.3655C18.3046 12.4687 18.2249 12.4499 18.1687 12.389C18.1218 12.3608 18.1077 12.4171 18.1077 12.4171L18.1827 12.4921C18.1827 12.4921 18.0421 12.4921 18.0046 12.5858C18.0458 12.5796 18.0878 12.5845 18.1265 12.5999C18.1265 12.5999 17.9624 12.6749 17.9484 12.7124C17.9296 12.7499 17.9249 12.6655 17.9202 12.6655L17.7655 12.614L17.7093 12.853C17.7093 12.853 17.8171 12.9562 17.8734 12.9233C17.9296 12.8905 18.0374 12.7921 18.0984 12.8202C17.9155 12.9608 17.7327 13.1577 17.6296 13.1858C17.6062 13.1671 17.5171 13.0733 17.4796 13.1202C17.4421 13.1671 17.4702 13.2187 17.5171 13.214C17.564 13.214 17.3671 13.2608 17.4093 13.3452C17.4468 13.4296 17.4421 13.4202 17.4796 13.4015C17.5171 13.378 17.4468 13.3733 17.5874 13.3312C17.7234 13.2937 17.7187 13.2562 17.7187 13.2562C17.7187 13.2562 17.6905 13.3171 17.6155 13.3312C17.5452 13.3499 17.4843 13.3499 17.503 13.3733C17.5171 13.3921 17.5499 13.4343 17.5359 13.4577C17.5265 13.4765 17.6905 13.3405 17.7327 13.4483C17.8405 13.4483 17.9155 13.3077 17.864 13.2327C17.864 13.3171 17.9202 13.3452 17.8874 13.3827C17.8593 13.4202 18.1359 13.2562 17.9999 13.153C18.0374 13.2374 18.0421 13.303 18.0421 13.303C18.0421 13.303 18.103 13.303 18.1218 13.2749C18.1359 13.2562 18.089 13.3405 18.1077 13.3546C18.1312 13.3733 18.2296 13.4671 18.1874 13.5327C18.164 13.4952 18.1546 13.4343 18.1265 13.439C18.0937 13.4437 17.9624 13.5374 17.8827 13.5468C17.8077 13.5468 17.9765 13.8374 17.9765 13.8374C17.9765 13.8374 17.8593 13.8187 17.8405 13.828C17.8265 13.8421 17.7468 13.7296 17.7327 13.7952C17.7046 13.8796 17.7562 13.8468 17.7562 13.8468C17.7562 13.8468 17.6905 13.814 17.653 13.8515C17.6155 13.8937 17.578 13.9312 17.6062 13.9452C17.6343 13.964 17.7468 13.964 17.7655 13.9593C17.7796 13.9546 17.6343 13.9687 17.6249 13.9874C17.6109 14.0015 17.5921 14.0671 17.6249 14.0858C17.653 14.1093 17.7327 14.0765 17.7374 14.0577C17.7421 14.0437 17.7468 14.1187 17.7468 14.1187C17.7468 14.1187 17.8874 14.1327 17.8874 13.9921C17.8874 13.8515 17.8968 14.0905 17.8968 14.0905C17.8968 14.0905 18.0327 14.114 18.0374 13.9733C18.0374 13.8327 18.0515 14.0671 18.0515 14.0671C18.0515 14.0671 18.1452 14.0437 18.1452 14.0202C18.1452 13.9968 18.1359 14.3015 18.0749 14.3858C17.9718 14.3155 17.9109 14.428 17.9109 14.428C17.9109 14.428 17.9155 14.5921 17.9062 14.6296C17.8968 14.6671 17.9718 14.6062 17.9765 14.5921C17.9859 14.5733 18.0796 14.5265 18.0843 14.5171L18.1124 14.4515C18.1124 14.4515 18.0937 14.5265 18.0562 14.5405C18.0187 14.5499 17.9859 14.5874 17.9999 14.6249C18.014 14.6577 18.0749 14.6812 18.0937 14.714C18.1124 14.7468 18.1874 14.5171 18.1874 14.5171L18.1921 14.564C18.1921 14.564 18.2859 14.5452 18.2999 14.503C18.3093 14.4562 18.1968 14.4187 18.2859 14.3437C18.3796 14.2733 18.2859 14.4093 18.2859 14.4093C18.2859 14.4093 18.3187 14.5171 18.3421 14.5171C18.3609 14.5171 18.4124 14.3155 18.3609 14.264L18.4405 14.3296C18.4405 14.3296 18.5155 14.1187 18.4359 14.0952L18.3187 14.053C18.3187 14.053 18.3655 13.9968 18.3421 13.9921C18.3187 13.9874 18.4499 14.114 18.4734 14.0858C18.4921 14.0483 18.5202 13.9452 18.3702 13.8937C18.2202 13.8374 18.3702 13.678 18.3702 13.678C18.3702 13.678 18.464 13.7905 18.5296 13.7296C18.5952 13.6687 18.5249 13.6687 18.5249 13.6687C18.5249 13.6687 18.7171 13.5468 18.7218 13.4812L18.6234 13.4905C18.6234 13.4905 18.7312 13.4155 18.7077 13.303C18.6609 13.3593 18.6093 13.3593 18.6093 13.3593C18.6093 13.3593 18.703 13.2655 18.6843 13.1765C18.628 13.2233 18.6374 13.2562 18.5952 13.2421C18.5624 13.2327 18.5015 12.8812 18.6421 12.8577C18.7921 12.8343 18.7124 13.0312 18.7171 13.0312C18.7218 13.0312 18.9374 12.9374 18.7171 12.7968C18.7687 12.778 18.8812 12.8812 18.8812 12.8812C18.8812 12.8812 18.8343 12.6327 18.5999 12.7874C18.6562 12.7218 18.6937 12.6843 18.7405 12.6937C18.7874 12.7077 18.9515 12.6937 18.9515 12.6421C18.914 12.6046 18.8249 12.6562 18.7734 12.6421C18.7265 12.6233 19.1109 12.5952 19.078 12.4077V12.403Z" fill="#FFC900" stroke="#006B00" stroke-width="0.0625" stroke-linecap="round" stroke-linejoin="round"/>
<path d="M17.4189 12.5486C17.4189 12.5486 17.6299 12.4314 17.733 12.5767M17.8127 12.8017C17.8127 12.8017 17.7424 12.8767 17.7283 12.8767M17.958 13.0361C17.958 13.0361 18.1502 13.0548 18.2768 12.8486" stroke="#006B00" stroke-width="0.0625" stroke-linecap="round"/>
<path d="M18.1684 12.9751C18.1684 12.9751 18.1824 13.0876 18.2152 13.0876C18.2434 13.0876 18.1637 13.1157 18.1309 13.0923C18.1684 13.1392 18.1871 13.2329 18.1309 13.2657" stroke="#006B00" stroke-width="0.0625" stroke-linecap="round"/>
<path d="M18.066 14.3813C18.066 14.3813 18.0004 14.461 17.916 14.4657L18.066 14.3813Z" fill="#E80000"/>
<path d="M18.066 14.3813C18.066 14.3813 18.0004 14.461 17.916 14.4657" stroke="#006B00" stroke-width="0.0625" stroke-linecap="round"/>
<path d="M18.1448 14.025C18.1448 14.025 18.1026 13.8 18.1308 13.7437C18.1448 13.6734 18.2151 13.65 18.2667 13.5515" stroke="#006B00" stroke-width="0.0625" stroke-linecap="round"/>
<path d="M18.127 13.8657C18.127 13.8657 18.0754 13.9969 17.8457 13.9547M18.1879 13.5282C18.1879 13.5282 18.202 13.7063 17.9957 13.6407M17.9301 12.7219C17.9301 12.7219 17.8457 12.8016 17.8832 12.9094" stroke="#006B00" stroke-width="0.0625" stroke-linecap="round"/>
<path d="M18.2441 12.5297C18.2441 12.5297 18.3566 12.4828 18.3754 12.4594C18.4047 12.4312 18.4286 12.3978 18.4457 12.3609C18.4551 12.3281 18.3707 12.2766 18.4129 12.2016C18.441 12.1688 18.4785 12.1641 18.5395 12.2016C18.6004 12.2438 18.4832 12.0797 18.4176 12.075C18.3566 12.0703 18.3145 12.1219 18.3004 12.1078C18.2816 12.0984 18.3004 12.1547 18.277 12.1547C18.2535 12.1547 18.3285 12.2016 18.3238 12.225C18.3238 12.2531 18.4082 12.3469 18.4035 12.3703C18.3988 12.3938 18.2723 12.5203 18.2441 12.5297Z" fill="#006B00"/>
<path d="M18.3281 12.1593C18.375 12.1452 18.3797 12.1593 18.375 12.2061C18.3516 12.1921 18.3422 12.1827 18.3281 12.1593Z" fill="#FFC900" stroke="#FFC900" stroke-width="0.0625" stroke-linecap="round" stroke-linejoin="round"/>
<path d="M17.9904 14.6485C17.9904 14.6485 17.9717 14.7657 18.0139 14.7751C18.0139 14.7282 18.0232 14.7001 18.0326 14.686L17.9857 14.6485H17.9904ZM17.892 14.5032C17.8545 14.5032 17.7842 14.536 17.8029 14.5782C17.8357 14.5454 17.8686 14.5782 17.8873 14.5501C17.8967 14.5407 17.8967 14.5173 17.892 14.5032ZM17.892 14.4235C17.892 14.4235 17.8311 14.4094 17.8217 14.4563C17.8639 14.4516 17.8779 14.4469 17.892 14.4563V14.4235ZM17.6248 13.7626C17.6248 13.7626 17.6623 13.7766 17.6717 13.8188C17.7045 13.8001 17.7186 13.711 17.6248 13.7626ZM17.5311 13.861C17.5357 13.861 17.6107 13.8141 17.6248 13.861C17.6061 13.8751 17.5967 13.8891 17.5826 13.8891C17.5732 13.8891 17.5545 13.861 17.5357 13.861H17.5311ZM17.5264 14.0251C17.5264 14.0251 17.5732 13.9782 17.5967 14.0063C17.6107 14.0391 17.5779 14.0344 17.5779 14.0344L17.5264 14.0251ZM17.4607 13.1251C17.4607 13.1251 17.3951 13.0969 17.367 13.1438C17.4139 13.1485 17.4279 13.1626 17.4467 13.1813C17.4373 13.1626 17.4326 13.1344 17.4607 13.1251ZM17.3436 13.4626C17.3436 13.4626 17.3436 13.3876 17.3764 13.3548C17.3951 13.3688 17.3998 13.3829 17.4139 13.4063C17.3904 13.4157 17.3529 13.4157 17.3389 13.4626H17.3436ZM17.5029 13.4063C17.5029 13.4063 17.4373 13.4391 17.4561 13.4766C17.4795 13.4532 17.5029 13.4626 17.5029 13.4579V13.411V13.4063Z" fill="#E80000" stroke="#006B00" stroke-width="0.0625" stroke-linejoin="round"/>
<path d="M17.4049 12.6796C17.3814 12.7077 17.4377 12.7734 17.4939 12.7593C17.508 12.6937 17.4189 12.6562 17.4049 12.6796Z" fill="#FFC900" stroke="#006B00" stroke-width="0.0625" stroke-linejoin="round"/>
<path d="M17.4707 12.628C17.4707 12.628 17.4801 12.6796 17.527 12.6655C17.5223 12.6233 17.4848 12.5952 17.4848 12.5952C17.4848 12.6046 17.4941 12.6233 17.4707 12.628ZM17.5035 12.7827C17.5035 12.7827 17.527 12.8155 17.5832 12.7499C17.5598 12.7593 17.5129 12.7358 17.5129 12.7358C17.5129 12.7358 17.5129 12.7827 17.5035 12.7827Z" fill="#E80000" stroke="#006B00" stroke-width="0.0625" stroke-linejoin="round"/>
<path d="M17.4051 12.5577C17.3817 12.5858 17.4145 12.6233 17.4707 12.614C17.4848 12.5483 17.4192 12.5343 17.4051 12.5577Z" fill="#FFC900" stroke="#006B00" stroke-width="0.0625" stroke-linejoin="round"/>
<path d="M17.4284 12.286C17.4284 12.286 17.6534 12.2251 17.7706 12.3188C17.8924 12.4126 17.8924 12.3282 17.8924 12.3282C17.8924 12.3282 18.0659 12.3938 18.1174 12.3798C18.1643 12.3657 18.0799 12.3845 18.1502 12.3423C18.2206 12.3001 18.0096 12.3517 17.9909 12.2626C17.9627 12.211 17.9956 12.1407 17.9252 12.1642C17.8737 12.0985 17.9581 12.0517 17.9393 11.986C17.8877 12.0188 17.8596 11.972 17.8174 12.061C17.7237 12.0423 17.8034 11.911 17.7002 11.897C17.7002 11.9907 17.6206 12.0001 17.6159 12.0517C17.569 12.0845 17.3674 12.2063 17.4284 12.286Z" fill="url(#paint1_linear_208_25651)"/>
<path d="M14.8312 19.6312C14.9719 19.5937 15.7687 19.8046 16.0734 20.1328C16.0078 19.5468 15.8484 19.1015 15.8484 19.1015C15.8484 19.1015 15.375 18.9656 15.3094 19.0312C15.2156 19.1296 14.9297 19.4296 14.8312 19.6312ZM14.5875 16.9312C14.5313 16.9406 14.475 16.9781 14.4188 17.0718C14.3531 17.2265 14.3109 17.625 14.2172 17.7187C14.1234 17.8125 14.0391 17.8218 14.0391 17.9062C14.0391 17.9906 14.0484 18.1875 14.3016 18.2578C14.55 18.2671 14.9484 17.8593 14.9484 17.8593C14.9484 17.8593 15.1547 17.6343 15.2344 17.3953C14.7563 17.564 14.4094 17.114 14.5875 16.9312ZM21.5625 19.5375C21.1019 19.5668 20.6623 19.7407 20.3063 20.0343C20.3458 19.6868 20.4212 19.3444 20.5312 19.0125C20.5875 18.9937 21 18.8765 21.0609 18.9421C21.1547 19.0406 21.4594 19.3406 21.5578 19.5375H21.5625ZM21.7828 16.8562C21.8391 16.8656 21.8578 16.9359 21.9047 17.0296C21.9656 17.1843 22.0312 17.414 22.125 17.5078C22.2188 17.6015 22.2984 17.7328 22.2984 17.8171C22.2984 17.9015 22.2797 18.014 22.0312 18.0843C21.7828 18.0937 21.4219 17.775 21.4219 17.775C21.4219 17.775 21.2203 17.5546 21.1406 17.3156C21.6188 17.4796 21.9281 17.0531 21.7828 16.8562Z" fill="#C01500" stroke="black" stroke-width="0.1125"/>
<path d="M14.3105 19.1203C14.3105 19.1203 14.8074 19.4624 14.8168 19.6218C16.1621 17.6249 19.5934 17.0062 21.548 19.4812C21.6846 19.2885 21.8665 19.1323 22.0777 19.0265C20.0152 16.3406 15.923 16.6734 14.3105 19.1203Z" fill="#FFBB00" stroke="black" stroke-width="0.1125"/>
<path d="M19.4061 11.4937H19.6029L19.2561 11.9343L19.6779 12.4218L18.8482 13.4624L19.6264 14.3999C19.542 14.6108 19.4389 14.803 19.3076 14.9765L18.8623 14.4796L19.6732 13.4671L19.0076 12.7124L19.4061 11.4937ZM16.6076 11.5827L16.4014 11.5874L16.7904 12.0093L16.3779 12.5296L17.2404 13.4671L16.5232 14.4233C16.6112 14.6415 16.7261 14.8478 16.8654 15.0374L17.2873 14.503L16.4201 13.5327L17.0576 12.7218L16.6076 11.5827Z" fill="#1E5AA6" stroke="black" stroke-width="0.114005"/>
<path d="M17.5777 14.1001L17.273 14.5126L18.3699 15.7876C18.5668 15.6892 18.7168 15.5767 18.8855 15.4407L18.3137 14.7798L18.548 14.0907L18.8809 14.4798L17.8309 15.8204C17.6347 15.7339 17.4517 15.6203 17.2871 15.4829L17.8402 14.7798L17.5777 14.1001ZM17.2402 13.4626L17.4371 13.7157L17.3105 13.3735L17.2402 13.4626Z" fill="#1E5AA6" stroke="black" stroke-width="0.114005"/>
<path d="M18.6748 13.6875L18.8389 13.4718L18.7779 13.3875L18.6748 13.6875Z" fill="#1E5AA6" stroke="black" stroke-width="0.1125"/>
<path d="M20.9951 10.1812C20.9951 10.1812 21.1873 10.0171 21.3232 10.0125" stroke="#FFF700" stroke-width="0.114005" stroke-linecap="round"/>
<path d="M21.0234 10.1579C21.0234 10.1579 22.1812 9.9938 22.2141 9.9563M21.0281 10.1719C21.0281 10.1625 22.3172 10.0594 22.3172 10.0594" stroke="#FFF700" stroke-width="0.114005" stroke-linecap="round"/>
<path d="M22.477 10.1766C22.3926 10.1062 21.0238 10.1719 21.0238 10.1719L22.3129 10.275M21.0191 10.1719C21.0191 10.1719 22.3598 10.1766 22.3785 10.2094M21.0098 10.1766C21.0145 10.1766 22.3223 10.2937 22.4488 10.4578" stroke="#FFF700" stroke-width="0.114005" stroke-linecap="round"/>
<path d="M22.5189 10.6922C22.5189 10.6922 22.0736 10.1625 21.0049 10.1765" stroke="#FFF700" stroke-width="0.114005" stroke-linecap="round"/>
<path d="M21.0098 10.1812C21.0098 10.1812 21.7504 10.2327 21.9848 10.4905" stroke="#FFF700" stroke-width="0.114005" stroke-linecap="round"/>
<path d="M21.0234 10.1719C21.0234 10.1719 21.5016 10.0782 22.0078 10.6876" stroke="#FFF700" stroke-width="0.114005" stroke-linecap="round"/>
<path d="M20.7191 10.7202C20.7191 10.7202 21.3848 10.7483 21.3848 10.814C21.3848 10.8749 20.8926 11.0015 20.8832 11.2733C20.8785 11.5499 21.2582 11.5687 21.2863 11.9108C21.3144 12.2577 20.991 12.3093 20.9254 12.403C20.8598 12.4499 20.7004 12.9327 20.7238 13.2233C20.7426 13.5046 20.8269 14.4796 20.9769 14.6765C21.0941 14.7655 21.2676 15.0562 21.4598 14.9671C21.6473 14.8733 21.516 14.5452 21.4973 14.4515C21.4785 14.3577 21.5769 14.2124 21.5769 14.0765C21.5769 13.9358 21.5019 13.828 21.5113 13.7952C21.516 13.7624 22.0363 13.9171 22.0035 14.4327C21.9707 14.9483 21.7644 14.789 21.7644 14.789C21.7644 14.789 21.8301 15.4218 21.666 15.5062C21.3754 15.6655 21.1598 15.4733 21.1598 15.4733L21.1879 15.6046L20.9629 15.4874C20.9629 15.4874 20.6769 15.0796 20.6113 14.8968C20.5276 14.5119 20.4883 14.1187 20.4941 13.7249C20.5223 13.5468 20.541 12.5202 20.5269 12.464C20.5129 12.4171 20.4613 11.5546 20.4941 11.4233C20.5269 11.2921 20.7285 10.7202 20.7238 10.7202H20.7191Z" fill="url(#paint2_linear_208_25651)" stroke="black" stroke-width="0.1125"/>
<path d="M20.0059 10.5468C20.0059 10.5468 20.4652 10.1015 20.7324 10.1531C20.873 10.1531 20.7418 10.2515 20.7418 10.2515C20.7418 10.2515 20.9762 10.2703 21.009 10.3734C21.0137 10.4203 20.8965 10.4343 20.8965 10.4343C20.8965 10.4343 20.9902 10.4531 20.9996 10.5375C21.009 10.6218 20.0152 10.5562 20.0059 10.5515V10.5468Z" fill="#FF7000" stroke="black" stroke-width="0.1125"/>
<path d="M20.0293 10.5329C20.0293 10.5329 20.5262 10.4673 20.7324 10.2563" stroke="black" stroke-width="0.1125"/>
<path d="M20.5312 10.3968C20.5312 10.3968 20.8969 10.3827 20.8969 10.4343" stroke="black" stroke-width="0.1125"/>
<path d="M21.8301 15.7219C21.8301 15.7219 22.1395 15.6516 22.2285 15.5391C22.2754 15.5016 22.552 15.9516 21.8301 15.7266V15.7219Z" fill="white" stroke="black" stroke-width="0.1125" stroke-linejoin="round"/>
<path d="M21.7449 13.139C21.7449 13.139 21.7824 13.3781 21.6699 13.5421C21.6137 13.6078 21.4355 13.7156 21.4355 13.7953C21.4355 13.875 21.5012 13.9781 21.4918 14.0671C21.4777 14.1609 21.3793 14.2546 21.384 14.3296C21.384 14.4046 21.4965 14.8218 21.4824 14.8312M21.173 12.3562C21.173 12.3562 20.9246 12.4406 20.873 12.6843" stroke="white" stroke-width="0.1125" stroke-linecap="round"/>
<path d="M21.0654 10.3969C21.0654 10.3969 21.1498 10.6312 21.4264 10.4062C21.2482 10.1672 21.0654 10.4016 21.0654 10.3969Z" fill="#C75B00" stroke="black" stroke-width="0.1125"/>
<path d="M21.2672 10.3875C21.2672 10.3968 21.2578 10.4062 21.2391 10.4062C21.225 10.4062 21.2109 10.3968 21.2109 10.3875C21.2109 10.3734 21.225 10.364 21.2391 10.364C21.2578 10.364 21.2672 10.3734 21.2672 10.3875Z" fill="black"/>
<path d="M18.8297 9.85317C18.8297 9.85317 19.3453 10.4157 19.6828 10.4063C19.7437 10.5704 19.5328 10.725 19.4484 10.7954C19.275 10.7438 19.1203 10.8094 18.7266 10.3172C18.75 10.0079 18.8344 9.86255 18.8297 9.84849V9.85317ZM19.5328 8.54536C19.5984 8.33911 19.7344 8.17036 19.8469 8.1563C19.8187 7.99692 20.0953 7.2938 20.8922 7.02661C20.9391 7.38755 20.55 7.73911 20.55 7.73911C20.55 7.73911 21.7266 7.53755 21.9656 7.23755C21.9422 7.37349 21.7031 8.20786 20.4469 8.20317C20.925 8.65317 20.2969 9.01411 20.025 8.9063C20.5219 8.5313 19.8844 8.29692 19.5328 8.54536Z" fill="white" stroke="black" stroke-width="0.1125"/>
<path d="M19.9355 8.25007C20.1699 8.10007 20.259 8.10007 20.4512 8.1282C20.3105 8.14695 20.3105 8.15632 20.3105 8.15632C20.3105 8.15632 20.3012 8.17507 20.3855 8.25007C20.2918 8.22664 20.2027 8.17507 19.9355 8.25007Z" fill="#CCCCCD" stroke="#CCCCCC" stroke-width="0.1125"/>
<path d="M19.8418 8.15625C19.8418 8.15625 20.3105 7.90312 20.573 7.73438" stroke="black" stroke-width="0.1125"/>
<path d="M19.439 10.7952C19.439 10.7952 20.0859 10.9733 20.1609 10.0452C20.0203 9.6421 19.8234 8.7796 20.1234 8.52647C19.8468 8.33897 19.5515 8.53116 19.5515 8.53116C19.5328 8.57803 19.289 8.92491 19.6171 9.53428C18.8343 9.32803 19.1531 10.064 19.1531 10.064C19.1859 9.94678 19.5984 9.83897 19.7015 10.4296C19.7484 10.5749 19.4203 10.8046 19.439 10.7952Z" fill="#0000FF" stroke="black" stroke-width="0.1125"/>
<path d="M20.1658 10.0548C20.1658 10.0548 20.8502 9.68447 20.8314 8.82666C20.2502 8.83604 20.0439 9.59072 20.0439 9.59072L20.1658 10.0548Z" fill="#0000FF" stroke="black" stroke-width="0.1125"/>
<path d="M17.1049 10.0078C17.1049 10.0078 16.5986 10.4484 16.308 10.3078C16.0971 10.4391 15.8486 10.2141 15.8486 10.2141C15.8486 10.2141 16.1393 11.2922 17.1893 10.5094C17.1784 10.3397 17.1501 10.1717 17.1049 10.0078Z" fill="white" stroke="black" stroke-width="0.1125"/>
<path d="M16.3033 10.289C16.3502 10.064 16.5236 9.95615 16.6642 10.1671C16.8517 10.2046 17.0392 9.43115 16.3689 9.55771C16.5564 8.54521 15.9939 8.16553 15.9939 8.16553C15.9939 8.16553 15.7924 9.29053 15.8814 9.49678C15.9752 9.70303 15.7502 9.1124 15.0236 8.94834C15.0096 9.79209 15.8346 10.1905 15.8346 10.1905C15.8346 10.1905 16.0689 10.4062 16.3033 10.289Z" fill="#0000FF" stroke="black" stroke-width="0.1125"/>
<path d="M16.3688 9.55313C16.3688 9.55313 16.0547 9.82031 16.1251 10.1859M15.8907 9.51562C15.8907 9.51562 15.8157 9.77812 15.9751 10.1484" stroke="black" stroke-width="0.1125"/>
<path d="M15.8438 10.2376C15.8438 10.2376 15.9844 9.99856 16.3031 10.3032" stroke="black" stroke-width="0.1125"/>
<path d="M15.9 8.5876C15.9 8.58291 15.4172 8.5876 15.7078 9.0751C15.4922 9.14541 15.0141 8.83135 15.3469 8.41885C14.2687 8.39072 13.8281 7.8751 13.8281 7.39697C14.1422 7.7251 14.9016 7.59385 15.1688 7.79541C14.8406 7.49072 14.9062 7.06885 14.9062 7.06885C14.9062 7.06885 15.8297 7.34541 15.9938 8.16104C15.9375 8.32041 15.9141 8.60166 15.9 8.5876Z" fill="white" stroke="black" stroke-width="0.1125"/>
<path d="M15.1592 7.77197C15.3373 7.95479 15.792 8.00635 16.0264 8.20791" stroke="black" stroke-width="0.1125"/>
<path d="M15.3701 8.30623C15.3701 8.30623 15.7451 8.25936 15.8576 8.39061C15.7076 8.39061 15.6607 8.3578 15.4451 8.43748C15.5061 8.40467 15.492 8.34842 15.5248 8.34842C15.5576 8.34842 15.3842 8.30623 15.3701 8.30623Z" fill="#CCCCCD" stroke="#CCCCCC" stroke-width="0.075"/>
<path d="M17.2543 5.34373C17.2543 5.34373 17.4605 5.1656 17.6902 5.32966C17.5871 5.63435 17.2215 5.51716 17.2215 5.51716C17.2215 5.51716 17.2309 5.67185 17.1934 5.74216C17.2684 5.79841 17.3293 5.98123 17.3293 5.98123C17.3293 5.98123 17.7043 5.88748 17.7887 6.05623C17.9293 6.03748 18.0371 6.05623 18.0371 6.05623C18.0371 6.05623 18.3277 5.98123 18.4309 5.98123C18.5387 5.98123 18.8668 6.0656 18.8996 6.12654C18.9277 6.18748 19.0402 6.59529 19.1105 6.59529C19.1855 6.58591 18.9324 6.68904 18.8668 6.58591C18.8012 6.48279 18.8199 6.72185 18.8199 6.72185C18.8199 6.72185 19.0262 6.94216 19.0496 6.98904C19.073 7.03591 18.923 7.43435 19.0355 7.71091C18.9371 7.72029 18.9277 7.82341 18.9277 7.82341C18.923 7.94529 18.7684 7.9781 18.7684 7.9781L18.7309 7.81404L18.6277 7.87498L18.6746 7.74373C18.6746 7.74373 18.8152 7.40623 18.8246 7.29373C18.834 7.18591 18.6934 6.98904 18.5855 6.98904C18.4777 6.98904 18.398 7.33591 18.398 7.33591C18.398 7.33591 18.3418 7.59841 18.3605 7.62185L18.2855 7.53748C18.2855 7.53748 18.2387 7.69685 18.2012 7.74373C18.1637 7.7906 18.084 7.81404 18.084 7.81404C18.084 7.81404 18.0324 7.65466 18.0465 7.59373C18.0652 7.53279 18.3465 7.29373 18.3277 7.12498C18.2996 6.95154 18.3277 6.99373 18.3184 6.98904C18.309 6.98435 18.173 6.86248 18.1637 6.79216C18.159 6.72654 17.9809 6.88123 17.7512 6.82966C17.6809 6.95623 17.6715 7.2656 17.6715 7.2656C17.6715 7.2656 17.648 7.63591 17.6949 7.6781C17.7418 7.72498 17.573 7.81404 17.573 7.81404L17.4512 7.9781L17.4043 7.88435L17.3246 7.9406L17.3715 7.81873C17.3715 7.72498 17.4887 7.47185 17.4887 7.25623C17.4887 7.04529 17.5074 6.82029 17.5074 6.82029C17.5074 6.82029 17.2777 6.80623 17.2871 7.03591C17.2918 7.27029 17.2309 7.28435 17.2402 7.34998C17.2543 7.4156 17.3152 7.6031 17.2965 7.65935C17.2777 7.7156 17.2027 7.73435 17.2027 7.73435L17.1887 7.76248C17.1887 7.76248 16.9637 7.8656 16.9684 7.91248L16.9637 7.7906L16.9496 7.61248C16.9496 7.61248 17.0855 7.5281 17.0855 7.31248C17.0855 7.09685 17.0527 7.06873 17.0621 7.02185C17.0621 6.97498 17.0949 6.79216 17.0902 6.77341C17.0855 6.75935 16.9637 6.82029 16.9262 6.82029C16.8887 6.82029 16.9918 6.69841 17.0059 6.60466C17.0152 6.51091 16.884 6.68904 16.7715 6.58591C16.823 6.47341 16.9027 6.4406 16.9121 6.35154C16.9262 6.26716 16.8277 6.42654 16.7434 6.3656C16.748 6.28591 16.8371 6.2156 16.8371 6.2156C16.8371 6.2156 16.7668 6.20623 16.7387 6.2156C16.6824 6.19685 16.7996 6.11248 16.8043 5.98591C16.809 5.86404 16.7387 5.81716 16.7387 5.81248C16.7387 5.8031 16.6168 5.69998 16.598 5.65779C16.5793 5.6156 16.5793 5.56404 16.5793 5.56404C16.5793 5.56404 16.3777 5.71404 16.1387 5.40466C16.3543 5.21716 16.5887 5.35779 16.5887 5.35779C16.5887 5.35779 16.6496 5.18435 16.9309 5.19373C17.2121 5.20779 17.2684 5.36716 17.259 5.34841L17.2543 5.34373Z" fill="#923F00" stroke="black" stroke-width="0.1125"/>
<path d="M18.7924 8.50317C18.7924 8.50317 19.308 8.51724 19.3127 8.7938C19.3174 9.07036 19.158 8.99536 19.1533 8.99536L18.7783 8.94849L18.7924 8.50317Z" fill="#0000FF" stroke="black" stroke-width="0.1125"/>
<path d="M18.291 8.42823C18.291 8.42823 18.9332 8.42354 18.9004 8.7001C18.8629 8.98135 18.6988 8.9251 18.6988 8.9251L18.3895 8.90166L18.291 8.42823Z" fill="#FFFEFF" stroke="black" stroke-width="0.1125"/>
<path d="M17.9295 8.39526L18.3045 8.42808C18.3045 8.42808 18.5248 8.4562 18.5154 8.67183C18.5061 8.88745 18.2857 8.89214 18.2857 8.89214L17.9248 8.8687L17.9295 8.39526Z" fill="#0000FF" stroke="black" stroke-width="0.1125"/>
<path d="M17.0621 8.50317C17.0574 8.50317 16.5465 8.51724 16.5371 8.7938C16.5371 9.07036 16.6965 8.99536 16.7012 8.99536L17.0762 8.94849L17.0621 8.50317Z" fill="white" stroke="black" stroke-width="0.1125"/>
<path d="M17.559 8.42823C17.559 8.42823 16.9215 8.42354 16.9543 8.7001C16.9918 8.98135 17.1559 8.9251 17.1559 8.9251L17.4653 8.90166L17.559 8.42823Z" fill="#0000FF" stroke="black" stroke-width="0.1125"/>
<path d="M17.9207 8.39526L17.5504 8.42808C17.5504 8.42808 17.3254 8.4562 17.3395 8.67183C17.3489 8.88745 17.5645 8.89214 17.5645 8.89214L17.9254 8.8687L17.9207 8.39526Z" fill="white" stroke="black" stroke-width="0.1125"/>
<path d="M18.9138 11.4844C18.9138 11.4844 19.181 11.0906 19.2935 11.1328C19.3919 11.1656 19.3169 11.4703 19.27 11.4984L18.9138 11.4844ZM17.0857 11.5547C17.0013 11.4375 16.8794 11.1141 16.7669 11.2031C16.6732 11.2359 16.7435 11.5406 16.7904 11.5687L17.0857 11.5547Z" fill="#5E0043" stroke="black" stroke-width="0.1125"/>
<path d="M17.2637 10.7766C17.2637 10.7766 17.7793 11.0953 17.9527 11.1047C18.1262 11.1141 18.6652 10.6875 18.6652 10.6875" stroke="black" stroke-width="0.1125"/>
<path d="M17.3154 9.51567L17.4092 9.3938L17.9107 9.64692L18.4217 9.42192L18.5154 9.52974L17.9529 9.92817L17.3154 9.51567Z" fill="#5E0043" stroke="black" stroke-width="0.1125"/>
<path d="M16.9174 9.51562C16.9596 9.5625 17.2783 9.95625 17.3393 10.2797C17.3955 10.6078 17.3064 9.83438 17.3064 9.83438C17.3064 9.83438 17.7049 10.0312 17.7189 10.1578C17.7283 10.2797 17.9064 10.1484 17.9158 10.125L16.7627 9.375L16.9174 9.51562ZM18.8908 9.49219C18.8908 9.49219 18.4689 10.0453 18.5158 10.6453C18.4314 10.3594 18.5018 9.88125 18.5018 9.88125L18.408 9.94219C18.408 9.94219 18.3143 10.3453 18.1971 10.4109C18.1736 10.3641 18.1783 10.3453 18.1783 10.3453C18.1783 10.3453 18.0518 10.5094 18.0236 10.5281C18.0002 10.5422 18.033 11.0906 18.033 11.0906C18.033 11.0906 18.0799 11.4844 18.1268 11.4797C18.0836 11.5013 18.0414 11.5248 18.0002 11.55L17.9486 10.4953L18.0658 10.3781C18.0658 10.3781 18.2252 10.1859 18.2346 9.99844C18.1936 10.0332 18.1457 10.0588 18.0939 10.0734C18.0939 10.0734 18.0705 10.3406 18.0096 10.3781C17.9439 10.4156 17.9439 10.4813 17.9439 10.4813L17.9299 10.1344L18.8908 9.49219Z" fill="#474747" stroke="#474747" stroke-width="0.1125" stroke-linejoin="round"/>
<path d="M17.9297 10.1296L18.0094 11.7937" stroke="black" stroke-width="0.1125" stroke-linecap="round"/>
<path d="M16.9082 10.9219C16.9082 10.9219 17.0957 11.0391 17.166 11.3766C17.7941 11.3297 17.9863 11.5547 17.9863 11.5547C17.9863 11.5547 18.502 11.3062 18.7363 11.3531C18.8234 11.2061 18.9307 11.0719 19.0551 10.9547" stroke="black" stroke-width="0.1125"/>
<path d="M16.641 9.29525L17.93 10.139L19.0832 9.35618C19.0832 9.35618 19.3269 9.22493 19.3035 9.13118C19.2847 9.03743 19.2003 9.07025 19.1628 9.08431C19.116 9.10306 17.9488 9.92806 17.9488 9.92806L16.7066 9.14525C16.7066 9.14525 16.6128 9.11712 16.5988 9.17337C16.58 9.23431 16.6316 9.26712 16.6457 9.29525H16.641Z" fill="#B4B6B9" stroke="black" stroke-width="0.1125"/>
<path d="M18.9379 9.07495C18.9379 9.07495 18.6098 8.93433 18.6098 9.0562C18.6098 9.17808 18.6238 9.19214 18.6754 9.26714C18.727 9.34683 18.6332 9.3937 18.6332 9.3937L18.6051 9.30933C18.5863 9.25776 18.4082 9.21558 18.3941 9.15933C18.3754 9.0937 18.4316 8.99526 18.3238 8.98589C18.2207 8.97183 18.1176 9.02808 18.0941 9.14995C18.0754 9.26714 17.9395 9.55308 17.9395 9.55308L17.9535 8.91089C18.1879 8.92495 18.6191 8.97651 18.9473 9.01401C18.8488 8.99995 18.9848 9.02339 18.9801 9.0562C18.9707 9.08433 18.9379 9.08433 18.9426 9.07495H18.9379ZM17.7801 8.91558C17.7191 8.91558 17.4238 8.94839 17.3535 8.99526C17.2785 9.03745 17.4707 9.10308 17.4473 9.16401C17.4238 9.22026 17.4191 9.34214 17.3254 9.31401C17.2316 9.29058 16.9223 9.13589 16.9129 9.07964C16.9035 9.03276 16.8379 9.02808 16.8379 9.02808C16.8379 9.02808 17.7379 8.9062 17.7754 8.91558H17.7801Z" fill="#474747" stroke="#474747" stroke-width="0.1125" stroke-linejoin="round"/>
<path d="M17.9203 8.84072V9.62822M17.3156 7.9126L16.9453 8.51728" stroke="black" stroke-width="0.1125"/>
<path d="M17.9766 7.89844C17.9766 7.89844 18.1359 8.11406 18.1172 8.175C18.1762 8.24956 18.2221 8.33356 18.2531 8.42344" fill="url(#paint3_linear_208_25651)"/>
<path d="M17.9766 7.89844C17.9766 7.89844 18.1359 8.11406 18.1172 8.175C18.1762 8.24956 18.2221 8.33356 18.2531 8.42344" stroke="black" stroke-width="0.1125"/>
<path d="M18.5812 7.86572C18.5812 7.86572 18.2437 8.33916 18.2531 8.37666" stroke="black" stroke-width="0.1125"/>
<path d="M16.8473 5.5923C16.8426 5.62043 16.8004 5.6298 16.7536 5.61574C16.7067 5.60168 16.6739 5.56886 16.6832 5.54074C16.6926 5.51261 16.7301 5.50324 16.777 5.5173C16.8239 5.53136 16.8567 5.56418 16.8473 5.5923ZM16.9832 5.57824C16.9926 5.61105 17.0348 5.62043 17.0817 5.60636C17.1286 5.5923 17.1567 5.55949 17.152 5.53136C17.1426 5.50324 17.1004 5.49386 17.0582 5.50793C17.0114 5.52199 16.9786 5.5548 16.9832 5.58293V5.57824Z" fill="black"/>
<path d="M20.9535 15.478C20.9535 15.478 20.8223 15.5015 20.827 15.5155C20.8316 15.5249 20.4613 15.539 20.452 15.5249C20.4473 15.5155 20.4004 15.5905 20.4004 15.5905L20.4566 15.553C20.4566 15.553 20.5504 15.6468 20.5785 15.6374C20.602 15.6327 20.5645 15.6749 20.5738 15.6843C20.5785 15.689 20.6066 15.6655 20.6066 15.6655L21.216 15.6562L20.9535 15.478ZM21.1785 15.6702L20.677 15.6843C20.677 15.6843 20.5551 15.7968 20.5457 15.8249C20.5363 15.853 20.6254 15.8577 20.6254 15.8577L20.6535 15.9515L20.7191 15.928C20.7191 15.928 21.141 15.9937 21.5301 15.9046C21.727 15.839 21.7645 15.7546 21.6238 15.703C21.4832 15.6562 21.1785 15.6702 21.1785 15.6702Z" fill="#FF7000" stroke="black" stroke-width="0.1125" stroke-linejoin="round"/>
<path d="M19.4723 16.6875L20.3629 16.65L20.1988 16.5094L22.627 16.4109L22.5426 16.2188L19.8238 16.3266L20.152 16.4813L19.4207 16.5L19.4395 16.5797L19.252 16.5703C19.252 16.5703 19.4629 16.6547 19.4723 16.6922V16.6875Z" fill="url(#paint4_linear_208_25651)" stroke="black" stroke-width="0.1125"/>
<path d="M20.4754 11.7376C20.4051 11.7001 20.091 11.6579 19.7441 11.8876L19.7582 12.6892C19.7582 12.6892 20.2691 12.4126 20.5176 12.4782C20.5035 12.2298 20.5035 11.9064 20.4754 11.7376Z" fill="url(#paint5_linear_208_25651)" stroke="black" stroke-width="0.1125"/>
<path d="M15.5156 14.1798L13.4062 16.2798M16.4578 14.1938L14.7422 16.4579M16.3828 13.6079L14.0906 16.3782M14.0203 16.3407L14.2453 16.0829M16.8187 15.0001L15.9281 16.2282M15.8906 16.3876L15.9141 16.8563M17.2266 15.4313L16.2844 16.6079M17.0578 16.5188L17.4375 15.8907M17.2031 15.7688L16.7438 16.2845M17.0625 15.2767L16.7484 15.661M16.6594 14.7188C16.6594 14.7188 15.6984 16.1204 15.7172 16.2329M16.5609 14.5313C16.5375 14.5501 15.7313 15.6095 15.7313 15.6095M15.6844 15.9517L15.5438 16.1251M15.3563 16.397L15.1359 16.6876" stroke="black" stroke-width="0.114005"/>
<path d="M15.4126 10.9548C15.4126 10.9548 15.347 11.1564 15.4126 11.2595C15.4783 11.3626 15.8814 12.1876 15.8814 12.1876C15.8814 12.1876 16.1626 11.8454 16.2658 11.836C16.3689 11.8267 16.322 12.7267 16.322 12.7267C16.322 12.7267 16.1533 12.8814 16.0501 12.872C15.9517 12.8626 16.3033 13.2235 16.2939 13.5282C16.2845 13.8376 15.8251 15.3564 15.6611 15.3845C15.497 15.4126 15.7361 15.1032 15.7267 15.0235C15.7173 14.9392 15.6705 14.9954 15.633 14.9017C15.5955 14.8079 15.6892 14.6673 15.6705 14.5735C15.6517 14.4845 15.572 14.5032 15.5626 14.4376C15.5533 14.372 15.6142 14.3532 15.6095 14.2829C15.5955 14.2079 15.497 14.2267 15.5064 14.161C15.5158 14.0954 15.5251 14.1235 15.5158 14.0017C15.5064 13.8845 15.4876 14.086 15.3845 14.0954C15.2814 14.1048 15.197 14.3392 15.197 14.3392C15.197 14.3392 14.9955 14.6204 14.7892 14.4939C14.9111 14.7564 14.8173 14.8689 14.7705 14.8735C14.7236 14.8829 14.808 15.0798 14.7001 15.0892C14.5876 15.0985 14.7798 15.5251 14.6533 15.5579C14.7939 15.6235 14.6814 15.7079 14.6814 15.7079C14.6814 15.7079 14.358 15.736 14.4283 16.1532C13.4861 15.8204 13.022 15.2439 13.0314 14.6626C13.0408 14.0767 13.2236 13.547 13.6783 13.3501C13.8095 12.872 14.0298 12.3517 14.0298 12.3517C14.0298 12.3517 13.9923 12.1407 14.0205 12.0001C14.0486 11.8595 14.1798 11.7189 14.1798 11.7189C14.1798 11.7189 14.1611 11.3907 14.1705 11.222C14.1798 11.0532 14.2455 10.9829 14.2548 10.8892C14.2642 10.7954 14.2267 10.3267 14.3205 10.2376C14.4142 10.1579 14.5876 10.1673 14.6814 10.111C14.7751 10.0548 14.8923 9.95167 15.0095 9.96105C15.1361 9.97042 15.2345 10.0548 15.2345 10.0548C15.2345 10.0548 15.6892 10.0548 15.7173 10.2282C15.7455 10.4064 15.6236 10.472 15.6236 10.472C15.6236 10.472 15.6892 10.7204 15.4126 10.9548Z" fill="#8A9396" stroke="#2B2B2B" stroke-width="0.1125"/>
<path d="M15.0095 10.3126C15.0236 10.336 14.9907 10.3829 14.9345 10.4157C14.8782 10.4438 14.822 10.4485 14.8079 10.4157C14.7939 10.3923 14.8267 10.3454 14.8829 10.3173C14.9392 10.2892 14.9954 10.2845 15.0095 10.3126Z" fill="#CECFCF" stroke="#2B2B2B" stroke-width="0.1125"/>
<path d="M14.9299 10.3595C14.9299 10.3735 14.9158 10.3876 14.8971 10.3876C14.8783 10.3876 14.8643 10.3735 14.8643 10.3595C14.8643 10.3407 14.8783 10.3267 14.8971 10.3267C14.9158 10.3267 14.9299 10.3407 14.9299 10.3595Z" fill="black"/>
<path d="M15.6094 10.664C15.6094 10.664 15.7219 11.1656 15.5859 11.5125M15.6422 10.4437C15.6422 10.4437 15.8625 10.7343 15.8344 11.1M15.6656 10.3828C15.6703 10.3828 15.8531 10.5375 15.8438 10.6453M15.7078 10.3171C15.7078 10.3171 15.8297 10.4015 15.8578 10.4859" stroke="#2B2B2B" stroke-width="0.05"/>
<path d="M15.6515 10.2656C15.6515 10.2656 15.2203 10.9687 15.2765 11.4094" stroke="black" stroke-width="0.1125"/>
<path d="M15.6797 10.2468C15.6797 10.2468 15.1078 10.5843 15 11.7" stroke="#2B2B2B" stroke-width="0.05"/>
<path d="M15.6137 10.4531L15.3887 10.6219" stroke="black" stroke-width="0.1125"/>
<path d="M14.7891 11.7656C14.7891 11.7656 15.1078 10.439 15.6703 10.2468" stroke="#2B2B2B" stroke-width="0.05"/>
<path d="M15.891 12.211C15.891 12.211 16.1957 11.8266 16.266 11.8407C16.341 11.8548 16.3176 12.7266 16.3176 12.7266C16.3176 12.7266 16.0926 12.8954 16.041 12.8907C15.9942 12.8813 16.2942 13.2985 16.2895 13.4532L16.2754 13.6126C16.2754 13.6126 16.2754 13.5188 16.2051 13.3688C16.1348 13.2235 16.177 13.0501 15.7176 12.6751C15.6004 12.4407 15.9426 12.8157 16.0129 12.7595C16.0832 12.7032 15.8863 12.2157 15.891 12.211Z" fill="#2B2B2B" stroke="#2B2B2B" stroke-width="0.1125"/>
<path d="M15.3516 10.0547C15.3516 10.0547 15.2203 10.0875 15.2062 10.1437C15.1875 10.1906 15.1125 10.2469 15.0703 10.2281C15.0281 10.2094 14.9531 10.1484 14.9531 10.1484" stroke="#2B2B2B" stroke-width="0.1125"/>
<path d="M14.6253 10.5C14.6253 10.5 14.4332 10.6969 14.5222 10.7203C14.616 10.7391 14.7144 10.5656 14.7144 10.5656C14.7144 10.5656 14.7144 10.8656 14.7988 10.8188C14.8785 10.7719 15.1175 10.6031 15.1175 10.6031C15.1175 10.6031 15.2019 10.5937 15.216 10.6031C15.2347 10.6031 15.4363 10.7812 15.5722 10.7203C15.4972 10.9172 15.4082 10.9406 15.4082 10.9406C15.4082 10.9406 15.2675 11.1187 15.0894 11.0812C14.9066 11.0344 14.8597 10.9641 14.8597 10.9641C14.8597 10.9641 14.7097 10.9734 14.6628 10.9031C14.616 10.8328 14.6019 10.7953 14.6019 10.7953C14.6019 10.7953 14.5128 10.8797 14.4894 10.8422C14.466 10.7953 14.4894 10.5609 14.6253 10.5047V10.5Z" fill="#2B2B2B" stroke="#2B2B2B" stroke-width="0.1125" stroke-linejoin="round"/>
<path d="M15.7129 10.2328C15.7129 10.2328 15.3566 10.1297 15.2348 10.3031C15.1129 10.4813 15.141 10.5797 15.2066 10.5938" stroke="#2B2B2B" stroke-width="0.1125"/>
<path d="M15.7641 10.2234C15.7641 10.2703 15.7359 10.2984 15.6984 10.2984C15.6609 10.2984 15.6328 10.2656 15.6328 10.2234C15.6328 10.1813 15.6609 10.1484 15.6984 10.1484C15.7359 10.1484 15.7641 10.1813 15.7641 10.2234Z" fill="black"/>
<path d="M14.7333 11.1329C14.7333 11.1329 14.8739 11.3532 15.052 11.4141C15.2255 11.4751 14.9301 11.5313 14.7567 11.4141C14.6348 11.2407 14.663 11.1188 14.663 11.1188C14.663 11.1188 14.7005 11.086 14.7333 11.1329ZM15.9708 12.4454C15.9708 12.4454 15.5676 11.8829 15.4505 11.8501C15.3333 11.8173 15.5395 11.7938 15.6614 11.9157C15.788 12.0329 15.6286 11.7188 15.6286 11.7188L15.9708 12.4454Z" fill="#2B2B2B" stroke="#2B2B2B" stroke-width="0.1125"/>
<path d="M14.6954 15.7126C14.85 15.6704 15.5297 16.1017 15.6797 16.2095C15.8344 16.3173 16.1579 16.2517 16.1579 16.2517C16.1579 16.2517 16.0079 16.3407 15.9141 16.3595C15.8204 16.3829 16.1907 16.3829 16.1907 16.3829C16.1907 16.3829 15.3188 16.622 14.4375 16.1579C14.3579 15.797 14.625 15.7173 14.6954 15.7126Z" fill="#2B2B2B" stroke="#2B2B2B" stroke-width="0.1125" stroke-linejoin="round"/>
<path d="M15.6893 12.586C15.6893 12.586 15.5721 12.5626 15.5158 12.4923C15.4549 12.4313 15.3752 12.2626 15.2861 12.197C15.2018 12.1266 14.7705 11.8876 14.6111 11.9063C14.4565 11.9204 14.4096 11.8876 14.3908 11.8688C14.3721 11.8501 14.3065 11.8782 14.3158 11.9626C14.3299 12.0376 14.1986 12.2157 14.2455 12.3001C14.2924 12.3845 14.5174 12.722 14.5596 12.736C14.6065 12.7454 14.5783 12.9329 14.5783 12.9329C14.5783 12.9329 14.7752 13.1345 14.8268 13.1438C14.8736 13.1579 14.9252 13.1907 14.9205 13.2376C14.9158 13.2845 14.7002 13.547 14.7002 13.547C14.7002 13.547 14.4752 13.6641 14.4705 13.7345C14.4705 13.8001 14.5268 13.936 14.7049 13.9829C14.9374 14.0208 15.1754 14.0097 15.4033 13.9501C15.4382 13.8476 15.4541 13.7395 15.4502 13.6313C15.4315 13.6079 15.3096 13.5329 15.2486 13.5423C15.1877 13.5563 15.1361 13.6032 15.1408 13.6173C15.1408 13.6266 15.0518 13.6735 15.0518 13.6313C15.0518 13.5845 15.2346 13.3829 15.2486 13.397C15.2674 13.4157 15.5252 13.4438 15.5721 13.5704C15.619 13.697 15.619 13.7907 15.7502 13.7766C15.8861 13.7626 16.0736 13.636 16.0877 13.3829C16.1065 13.1298 15.9377 12.9563 15.9002 12.9282C15.8533 12.9048 15.7127 12.8204 15.7033 12.7829C15.694 12.7454 15.6658 12.6141 15.6893 12.586Z" fill="#2B2B2B" stroke="#2B2B2B" stroke-width="0.1125"/>
<path d="M13.2801 13.7156C13.2801 13.7156 13.7113 13.6031 13.8238 13.6078C13.9316 13.6078 14.3535 13.8047 14.4801 13.9266C14.5973 14.0437 14.8504 14.3297 15.0145 14.3016C15.1785 14.2781 15.2254 14.2453 15.2254 14.2453L15.1598 14.3672C15.1598 14.3672 15.0285 14.4047 14.9629 14.3859C14.8926 14.3719 14.766 14.3297 14.6348 14.1984C14.5035 14.0719 14.1004 13.7297 13.7535 13.7531C13.4113 13.7766 13.2145 14.1141 13.2145 14.1141C13.2145 14.1141 13.2145 13.95 13.2332 13.9125C13.2473 13.875 13.1582 13.9922 13.1582 13.9922L13.2801 13.7156Z" fill="#2B2B2B" stroke="#2B2B2B" stroke-width="0.1125"/>
<path d="M14.8688 14.0483C14.8688 14.0483 14.9766 14.0812 15.1548 14.0812C15.3329 14.0812 15.4313 14.0015 15.4313 14.0015L15.4173 13.9312L15.4454 13.8374C15.4454 13.8374 15.586 13.978 15.5813 14.0015C15.5766 14.0296 15.5251 14.0437 15.5251 14.0437L15.5063 13.9733L15.4594 14.0343C15.4594 14.0343 15.1969 14.2405 15.0563 14.2077C14.9157 14.1796 14.7844 14.0858 14.8219 14.0671C14.8548 14.0437 14.8735 14.0483 14.8688 14.0483ZM14.2407 14.414C14.2407 14.414 14.086 14.414 14.0157 14.4468C13.9454 14.4796 13.9219 14.5218 13.8751 14.5124C13.8282 14.5124 13.7907 14.4468 13.8048 14.4187C13.8235 14.3858 13.9126 14.3343 14.086 14.3483C14.2641 14.3624 14.2407 14.414 14.2407 14.414ZM14.7844 14.8358C14.7844 14.8312 14.7751 14.6108 14.6907 14.5218C14.6603 14.4888 14.6219 14.4641 14.5792 14.4501C14.5365 14.4362 14.491 14.4334 14.4469 14.4421C14.4001 14.4515 14.6251 14.5499 14.6485 14.6155C14.6673 14.6812 14.7423 14.8593 14.7235 14.9015C14.7001 14.9483 14.6673 14.7749 14.5313 14.728C14.3907 14.6812 14.2032 14.7093 14.2407 14.7702C14.2829 14.8312 14.4329 14.7702 14.5126 14.9062C14.5923 15.0374 14.6532 15.1733 14.6532 15.1733L14.6766 15.0796L14.7423 15.0608L14.7516 14.878L14.7844 14.8358Z" fill="#2B2B2B" stroke="#2B2B2B" stroke-width="0.1125"/>
<path d="M14.6723 15.5485L14.5316 15.2672C14.5316 15.2672 14.4848 15.0844 14.3676 15.0329C14.2504 14.986 14.0863 14.9954 14.0863 15.0563C14.0863 15.1172 14.3441 15.1969 14.3582 15.2297C14.377 15.2625 14.3676 15.3188 14.3441 15.3235C14.3254 15.3235 14.2082 15.2766 14.152 15.2907C14.091 15.3047 14.0582 15.3844 13.9738 15.361C13.8848 15.3375 13.8145 15.061 13.8473 15.0329C13.8801 15.0047 13.7816 15.0797 13.7629 15.0094C13.7441 14.9391 13.791 14.7141 13.7629 14.6813C13.7254 14.6579 13.5613 14.5594 13.5613 14.5407C13.5613 14.5219 13.5707 13.4297 14.4801 14.3344C14.091 13.8704 13.9363 13.9219 13.866 13.9172C13.8098 13.9172 13.4582 13.95 13.3691 14.4C13.2754 14.85 13.1723 14.5688 13.1723 14.5688C13.1723 14.5688 13.1535 14.7657 13.2473 14.8219C13.341 14.8782 13.2004 15.0375 13.2004 15.0375C13.2004 15.0375 13.0363 14.625 13.0598 14.4422C13.0207 14.7532 13.0867 15.0683 13.2473 15.3375C13.5505 15.6838 13.9311 15.9536 14.3582 16.125C14.691 15.6188 14.677 15.5579 14.677 15.5485H14.6723Z" fill="#2B2B2B" stroke="#2B2B2B" stroke-width="0.1125" stroke-linejoin="round"/>
<path d="M14.0762 15.5531C14.0762 15.5531 14.2637 15.5765 14.3106 15.6703C14.3622 15.764 14.3856 15.9093 14.3856 15.9093C14.4137 15.8484 14.4325 15.7968 14.4887 15.75C14.5497 15.7031 14.5965 15.7031 14.5918 15.6656C14.5918 15.6328 14.3997 15.4312 14.3012 15.4218C14.2075 15.4078 14.034 15.525 14.034 15.525C14.034 15.525 14.0012 15.5718 14.0809 15.5531H14.0762Z" fill="#8A9396" stroke="#2B2B2B" stroke-width="0.1125" stroke-linejoin="round"/>
<path d="M14.498 16.0312C14.498 16.0312 14.9762 16.2516 15.759 16.2656" stroke="#8A9396" stroke-width="0.10688" stroke-linecap="round"/>
<path d="M16.0871 13.8235C16.0871 13.8235 16.0449 14.2219 15.7402 15.0094" stroke="#2B2B2B" stroke-width="0.10688" stroke-linecap="round"/>
<path d="M16.0312 14.0671C16.0312 14.0671 15.9375 14.3531 15.6797 14.5687" stroke="#2B2B2B" stroke-width="0.1125"/>
<path d="M14.6348 19.0313L14.7191 18.9376L14.7426 18.961L14.7379 18.9704L14.7285 18.9798V18.9845L14.7379 18.9938L14.8457 19.0876L14.8551 19.097H14.8598L14.8691 19.0923L14.8879 19.0595C14.891 19.047 14.891 19.0345 14.8879 19.022C14.8879 19.0126 14.8832 19.0001 14.8738 18.9845L14.9066 18.9657L14.9535 19.0548L14.827 19.1954L14.7988 19.1767L14.8082 19.1673L14.8129 19.1579V19.1485L14.8035 19.1392L14.6957 19.0454L14.6863 19.036H14.677L14.6723 19.0454L14.6629 19.0548L14.6348 19.0313ZM14.8129 18.8298L14.9676 18.6798L15.0426 18.7173L15.0285 18.7454L14.991 18.7407H14.9629L14.9395 18.7642L14.9113 18.7923L14.9582 18.8392L14.9629 18.8298L14.977 18.811V18.8017L14.9676 18.7876L14.9582 18.7829L14.9816 18.7595L15.0566 18.8345L15.0379 18.8579L15.0285 18.8485L15.0145 18.8392H15.0051L14.991 18.8532L14.9816 18.8626L15.0238 18.9048L15.0285 18.9095H15.0332L15.0426 18.9048L15.0613 18.886L15.0848 18.8532V18.8204C15.0848 18.8048 15.0816 18.7907 15.0754 18.7782L15.1082 18.7642L15.1551 18.8579L14.9957 19.0079L14.9723 18.9845V18.9798L14.9863 18.9657V18.9563L14.977 18.947L14.8785 18.8485L14.8645 18.8392H14.8598L14.8504 18.8438L14.841 18.8532L14.8176 18.8298H14.8129ZM15.1363 18.5251C15.1676 18.497 15.1988 18.4845 15.2301 18.4876C15.2676 18.4876 15.2988 18.5032 15.3238 18.5345C15.3395 18.5532 15.3504 18.5751 15.3566 18.6001C15.3598 18.622 15.3566 18.6438 15.3473 18.6657C15.341 18.6876 15.3254 18.7079 15.3004 18.7267C15.2754 18.7485 15.2473 18.7595 15.216 18.7595C15.1754 18.7595 15.1426 18.7438 15.1176 18.7126C15.0926 18.6813 15.0816 18.6501 15.0848 18.6188C15.0848 18.5813 15.1004 18.5501 15.1316 18.5251H15.1363ZM15.1598 18.5532C15.1473 18.5657 15.141 18.5813 15.141 18.6001C15.141 18.622 15.1504 18.6438 15.1691 18.6657C15.1879 18.6876 15.2082 18.7017 15.2301 18.7079C15.2488 18.7079 15.2645 18.7032 15.277 18.6938C15.2926 18.6813 15.3004 18.6657 15.3004 18.647C15.3004 18.6251 15.291 18.6032 15.2723 18.5813L15.2301 18.5485L15.1926 18.5392C15.1801 18.5392 15.1691 18.5438 15.1598 18.5532ZM15.4129 18.3001L15.4316 18.286H15.4363L15.5582 18.2063L15.5535 18.197L15.5723 18.1829L15.652 18.2392L15.6285 18.2673L15.6004 18.2532H15.5488V18.272L15.6332 18.3892L15.6426 18.4032H15.6566L15.6754 18.3938L15.6941 18.422L15.591 18.4923L15.5723 18.4642H15.577L15.591 18.4501V18.4407L15.5816 18.4267L15.4973 18.3048L15.4926 18.3001H15.4879C15.4816 18.3032 15.477 18.3095 15.4738 18.3188L15.4691 18.347V18.3798L15.4363 18.3892L15.4129 18.2954V18.3001ZM15.6426 18.1501L15.8254 18.0376L15.891 18.0938L15.8676 18.122C15.8582 18.1126 15.8473 18.1063 15.8348 18.1032H15.8066C15.7973 18.1032 15.7879 18.1079 15.7785 18.1173L15.7457 18.136L15.7785 18.1923L15.7879 18.1829L15.802 18.1735C15.8051 18.1704 15.8051 18.1673 15.802 18.1642V18.1454L15.7926 18.136L15.8207 18.122L15.877 18.2157L15.8488 18.2298L15.8441 18.2204L15.8348 18.2063H15.8254L15.8066 18.2157L15.7973 18.2204L15.8254 18.2673L15.8301 18.2813H15.8348L15.8488 18.2767L15.8676 18.2626C15.8801 18.2563 15.8895 18.2485 15.8957 18.2392L15.9098 18.2063V18.1595H15.9426L15.9613 18.2532L15.7738 18.3657L15.7551 18.3376H15.7645L15.7738 18.3235C15.777 18.3235 15.777 18.3204 15.7738 18.3142V18.3001L15.6988 18.1829L15.6895 18.1688H15.6848L15.6707 18.1735L15.6613 18.1782L15.6426 18.1501ZM15.9004 17.9954L16.041 17.9251L16.0691 17.911L16.1066 17.9063L16.1348 17.9157L16.1582 17.9392C16.1676 17.9579 16.1676 17.9751 16.1582 17.9907C16.152 18.0095 16.1426 18.0251 16.1301 18.0376L16.2051 18.0657L16.2191 18.0704H16.2379L16.2473 18.061L16.266 18.0938L16.191 18.1313L16.0691 18.0704L16.0504 18.0798L16.0738 18.1267L16.0832 18.1407H16.102L16.1113 18.1313L16.1301 18.1642L16.0176 18.2204L16.0035 18.1923L16.0129 18.1829L16.0223 18.1782V18.1595L15.952 18.0282L15.9473 18.0188H15.9285L15.9191 18.0282L15.9004 17.9954ZM16.0035 17.9907L16.0316 18.047L16.0691 18.0282L16.0926 18.0095C16.0988 18.0063 16.102 18.0017 16.102 17.9954V17.972L16.0879 17.9626C16.0816 17.9595 16.0754 17.9595 16.0691 17.9626L16.041 17.972L16.0035 17.9907ZM16.1863 17.8501L16.3316 17.7845L16.3645 17.7751H16.3973C16.4098 17.7751 16.4207 17.7782 16.4301 17.7845L16.4488 17.8126C16.4551 17.8282 16.4551 17.8438 16.4488 17.8595C16.4395 17.8782 16.427 17.8938 16.4113 17.9063L16.4863 17.9392L16.5004 17.9438H16.5238L16.5332 17.9392L16.5473 17.9673L16.4723 18.0001L16.3504 17.9345L16.3316 17.9438L16.3551 17.9907L16.3598 18.0048H16.3785L16.3926 18.0001L16.4066 18.0329L16.2895 18.0798L16.2754 18.047H16.2848L16.2988 18.0376V18.0188L16.2379 17.8876L16.2332 17.8735H16.2145L16.2051 17.8829L16.1863 17.8501ZM16.2895 17.8501L16.3176 17.911L16.3504 17.8923L16.3832 17.8782L16.3926 17.8595V17.8407L16.3785 17.8267C16.3723 17.8235 16.366 17.8235 16.3598 17.8267L16.3316 17.8313L16.2895 17.8501ZM16.5707 17.6907L16.627 17.6673L16.7676 17.8267L16.7816 17.8407H16.8004L16.8098 17.8735L16.6973 17.9157L16.6879 17.8782H16.6926C16.6988 17.8782 16.7035 17.8751 16.7066 17.8688V17.8642L16.6973 17.8501L16.6832 17.8313L16.6129 17.8595V17.9017H16.641L16.6504 17.9298L16.5566 17.9626L16.5473 17.9298L16.5613 17.9251V17.9157L16.566 17.9063L16.5707 17.6907ZM16.6129 17.822L16.6598 17.8032L16.6129 17.747V17.822ZM16.7723 17.6157L16.8801 17.5829L16.9645 17.7235V17.5595L17.0816 17.5267L17.091 17.5595L17.077 17.5642C17.0707 17.5642 17.0676 17.5673 17.0676 17.5735V17.5876L17.1051 17.7282L17.1098 17.7423H17.1426L17.152 17.7704L17.0348 17.8079L17.0254 17.7704H17.0348L17.0441 17.7657L17.0488 17.7563V17.747L17.002 17.597V17.8173L16.9691 17.8267L16.8566 17.6438L16.8988 17.7938V17.8032H16.9316L16.941 17.8313L16.8426 17.8642L16.8332 17.8267H16.8426L16.852 17.822L16.8566 17.8126V17.7985L16.8145 17.6579V17.6485H16.7816L16.7723 17.6157ZM17.2785 17.4845L17.4098 17.461L17.4566 17.4563L17.4848 17.4657L17.5082 17.4892L17.5223 17.5173C17.5254 17.5392 17.5207 17.5579 17.5082 17.5735C17.4926 17.5923 17.4707 17.6048 17.4426 17.611L17.3957 17.6157L17.4098 17.6626V17.6767H17.4426L17.4473 17.7095L17.3254 17.7329L17.3207 17.7001H17.3301L17.3441 17.6954V17.672L17.3207 17.5313L17.316 17.522L17.3113 17.5173H17.2879L17.2785 17.4845ZM17.377 17.5079L17.391 17.5782H17.4145L17.4426 17.5642C17.4488 17.561 17.452 17.5563 17.452 17.5501V17.5267C17.452 17.5173 17.4473 17.5095 17.4379 17.5032H17.377V17.5079ZM17.5504 17.4376L17.7051 17.4142H17.7379L17.7707 17.4188C17.7832 17.4251 17.7926 17.4329 17.7988 17.4423L17.8082 17.4704C17.8113 17.4923 17.8066 17.5095 17.7941 17.522C17.7816 17.5345 17.766 17.5438 17.7473 17.5501L17.8082 17.6063L17.8223 17.6157H17.8551V17.6532L17.7754 17.6626L17.6816 17.5642H17.6629V17.6157L17.6723 17.6345C17.6785 17.6376 17.6848 17.6376 17.691 17.6345H17.7004L17.7051 17.672L17.5832 17.686L17.5785 17.6532H17.5879L17.602 17.6485V17.6251L17.5879 17.4845V17.4751L17.5785 17.4704H17.5551L17.5504 17.4329V17.4376ZM17.6441 17.4657L17.6582 17.5313L17.6957 17.5267L17.7285 17.5173L17.7426 17.5032V17.4845L17.7379 17.4657L17.7191 17.4563H17.691L17.6441 17.4657ZM18.0098 17.3813C18.0504 17.3813 18.0832 17.3923 18.1082 17.4142C18.1332 17.4392 18.1488 17.4704 18.1551 17.5079C18.1551 17.5329 18.1488 17.5563 18.1363 17.5782C18.127 17.597 18.1113 17.6126 18.0895 17.6251C18.0738 17.6376 18.0504 17.6454 18.0191 17.6485C17.9816 17.6485 17.9504 17.6392 17.9254 17.6204C17.8941 17.5985 17.8785 17.5673 17.8785 17.5267C17.8785 17.486 17.8895 17.4532 17.9113 17.4282C17.9363 17.4001 17.9676 17.3845 18.0051 17.3813H18.0098ZM18.0098 17.4282C17.991 17.4282 17.9754 17.4345 17.9629 17.447C17.9504 17.4657 17.9457 17.4907 17.9488 17.522C17.9488 17.5501 17.9566 17.572 17.9723 17.5876C17.9848 17.6001 18.0004 17.6063 18.0191 17.6063C18.0379 17.6063 18.0535 17.5985 18.066 17.5829C18.0785 17.5642 18.0832 17.5407 18.0801 17.5126C18.0801 17.4907 18.077 17.4751 18.0707 17.4657C18.0645 17.4501 18.0551 17.4392 18.0426 17.4329C18.0332 17.4267 18.0223 17.4235 18.0098 17.4235V17.4282ZM18.202 17.3813H18.3801L18.4082 17.4001L18.427 17.4282L18.4316 17.4563C18.4316 17.4782 18.4238 17.497 18.4082 17.5126C18.3926 17.5282 18.3691 17.536 18.3379 17.536H18.291V17.5829L18.2957 17.5923L18.3004 17.597H18.3238V17.6345H18.202V17.597H18.2254L18.2301 17.5923V17.4142H18.202V17.3813ZM18.2957 17.4235V17.4938H18.3473L18.3613 17.4798L18.366 17.4563C18.366 17.4438 18.3613 17.4345 18.352 17.4282L18.3238 17.4235H18.2957ZM18.4785 17.3813L18.6332 17.3907C18.6457 17.3907 18.6566 17.3938 18.666 17.4001C18.6785 17.4001 18.6895 17.4048 18.6988 17.4142L18.7223 17.4376V17.4704C18.7223 17.4892 18.716 17.5048 18.7035 17.5173C18.6879 17.5267 18.6707 17.5329 18.652 17.536L18.6988 17.6017L18.7082 17.611L18.7176 17.6157H18.7316L18.741 17.6204V17.6532H18.6566L18.5816 17.536H18.5629L18.5582 17.5829V17.6017L18.5629 17.6063H18.5863V17.6438L18.4598 17.6345V17.6017H18.4879L18.4926 17.597V17.5829L18.5066 17.4423V17.4282L18.502 17.4235H18.4832L18.4738 17.4188V17.3813H18.4785ZM18.5723 17.4282L18.5629 17.4985H18.6379L18.652 17.4845C18.6582 17.4813 18.6613 17.4767 18.6613 17.4704L18.6566 17.4517L18.6426 17.4376H18.6098L18.5676 17.4282H18.5723ZM18.7973 17.4048L18.9145 17.4235V17.4563H18.8863L18.877 17.4751L18.8629 17.6157V17.6345H18.877L18.891 17.6392L18.8863 17.6767L18.7645 17.6579V17.6251H18.7926L18.7973 17.611L18.816 17.4704V17.447H18.802L18.7879 17.4423L18.7926 17.4048H18.7973ZM19.0598 17.4423L19.116 17.4517L19.1582 17.6626L19.1629 17.6813L19.1816 17.686L19.177 17.7235L19.0551 17.7001L19.0598 17.6673H19.0832L19.0879 17.6626V17.6251L19.0082 17.611L18.9941 17.6345L18.9895 17.6438V17.6485L18.9941 17.6532L19.0129 17.6579L19.0082 17.6954L18.9098 17.6767L18.9145 17.6438H18.9285L18.9379 17.6392L18.9473 17.6298L19.0598 17.4423ZM19.027 17.5782L19.0738 17.5876L19.0645 17.5126L19.027 17.5782ZM19.266 17.4845L19.3785 17.5079L19.3832 17.672L19.4676 17.5313L19.5801 17.5595L19.5707 17.5923H19.5473L19.5379 17.6063L19.5051 17.747C19.502 17.7532 19.502 17.7563 19.5051 17.7563V17.7657H19.5145L19.5285 17.7704L19.5191 17.8079L19.402 17.7751L19.4113 17.7423H19.4395V17.7329L19.4816 17.5782L19.3691 17.7657L19.3363 17.761L19.327 17.5454L19.2895 17.6954V17.7142H19.3035L19.3176 17.7188L19.3082 17.7517L19.2051 17.7282L19.2145 17.6954H19.2426L19.252 17.6813L19.2848 17.5407V17.522H19.2754L19.2613 17.5173L19.2707 17.4798L19.266 17.4845ZM19.7816 17.6251L19.9082 17.672C19.9238 17.6751 19.9363 17.6813 19.9457 17.6907C19.9551 17.697 19.9613 17.7048 19.9645 17.7142L19.9738 17.7423V17.7751C19.9645 17.797 19.9488 17.8126 19.927 17.822C19.9082 17.8282 19.8848 17.8251 19.8566 17.8126L19.8145 17.7985L19.8004 17.8454L19.7957 17.8548V17.8642H19.8098L19.8191 17.8735L19.8098 17.9063L19.6926 17.8595L19.7066 17.8313H19.7113L19.7254 17.836H19.7348L19.7395 17.822L19.7863 17.686L19.791 17.672V17.6673L19.777 17.6626L19.7676 17.6579L19.7816 17.6251ZM19.852 17.6954L19.8285 17.761L19.8473 17.7704L19.8754 17.7751L19.8941 17.7704L19.9082 17.7517V17.7235C19.902 17.7142 19.8926 17.7079 19.8801 17.7048L19.852 17.6954ZM20.0395 17.7188L20.1801 17.7845L20.2129 17.7985L20.2363 17.822L20.2504 17.8548L20.241 17.8876C20.2348 17.9032 20.2223 17.9142 20.2035 17.9204C20.1879 17.9267 20.1707 17.9267 20.152 17.9204L20.1754 18.0001V18.0142L20.1848 18.0235L20.1941 18.0282L20.2035 18.0329L20.1895 18.0657L20.1191 18.0329L20.0863 17.897L20.0676 17.8923L20.0488 17.9392L20.0395 17.9532V17.9579L20.0535 17.9673H20.0629L20.0488 18.0048L19.9363 17.9532L19.9504 17.9204L19.9598 17.9251H19.9832V17.911L20.0441 17.7798L20.0488 17.7704V17.7657L20.0395 17.7563H20.0254L20.0395 17.7188ZM20.1098 17.7938L20.0816 17.8548L20.1145 17.8735L20.1473 17.8829L20.1707 17.8782L20.1801 17.8642C20.1832 17.8579 20.1832 17.8517 20.1801 17.8454L20.1754 17.8267L20.1473 17.8126L20.1098 17.7938ZM20.4613 17.9157C20.4957 17.9345 20.5191 17.9595 20.5316 17.9907C20.541 18.0251 20.5363 18.0595 20.5176 18.0938C20.5051 18.1157 20.4895 18.1329 20.4707 18.1454C20.452 18.1579 20.4301 18.1642 20.4051 18.1642C20.3832 18.1642 20.3598 18.1579 20.3348 18.1454C20.3035 18.1267 20.2816 18.1032 20.2691 18.0751C20.2535 18.0407 20.2566 18.0048 20.2785 17.9673C20.2973 17.9329 20.3223 17.911 20.3535 17.9017C20.3879 17.8892 20.4238 17.8938 20.4613 17.9157ZM20.4426 17.9485C20.4238 17.9392 20.4082 17.9392 20.3957 17.9485C20.3707 17.9579 20.352 17.9751 20.3395 18.0001C20.327 18.0251 20.3223 18.0485 20.3254 18.0704C20.3285 18.0892 20.3379 18.1032 20.3535 18.1126C20.3723 18.1188 20.3895 18.1188 20.4051 18.1126C20.427 18.1032 20.4426 18.0876 20.452 18.0657C20.4645 18.0438 20.4707 18.0267 20.4707 18.0142L20.466 17.9767C20.4598 17.9642 20.452 17.9548 20.4426 17.9485ZM20.6488 18.0142L20.6723 18.0282V18.0376L20.7895 18.1126L20.7988 18.1079L20.8176 18.1173L20.7988 18.211L20.7613 18.2017V18.1688L20.7566 18.1407L20.7426 18.1267H20.7379L20.7285 18.1313L20.6535 18.2579L20.6441 18.272V18.2767L20.6488 18.2813L20.6676 18.2954L20.6488 18.3235L20.541 18.2579L20.5598 18.2298H20.5691L20.5832 18.2392H20.5879L20.5973 18.2251L20.677 18.0985C20.6801 18.0923 20.6801 18.0892 20.677 18.0892V18.0845L20.6535 18.0798L20.6254 18.0845L20.5973 18.1032L20.5785 18.0751L20.6488 18.0142ZM20.8785 18.1688L21.052 18.2907L21.0285 18.3751L20.9957 18.3657V18.3282L20.9863 18.3001L20.9629 18.2813L20.9301 18.2579L20.8926 18.3048L20.902 18.3142L20.9207 18.3235H20.9301L20.9441 18.3095V18.3048L20.977 18.3235L20.9113 18.4079L20.8879 18.3892V18.3798C20.8941 18.3767 20.8973 18.372 20.8973 18.3657V18.3563L20.8832 18.3423L20.8738 18.3376L20.841 18.3845L20.8316 18.3938V18.3985L20.841 18.4079L20.8598 18.4173L20.8973 18.436C20.9098 18.4392 20.9223 18.4392 20.9348 18.436L20.9723 18.4173L20.991 18.4454L20.9113 18.5063L20.7285 18.3751L20.752 18.347L20.7707 18.361H20.7801L20.7895 18.347L20.8691 18.2345L20.8785 18.2204V18.2157L20.8691 18.2063L20.8598 18.197L20.8785 18.1688ZM21.1645 18.5345L21.2582 18.6095L21.2348 18.6376H21.2301L21.216 18.6282H21.2113L21.202 18.6376L21.1551 18.6985L21.1223 18.6751V18.6563C21.1098 18.6563 21.0988 18.6532 21.0895 18.647L21.0566 18.6235C21.0379 18.611 21.0238 18.5938 21.0145 18.572C21.0082 18.5501 21.0082 18.5282 21.0145 18.5063C21.0145 18.4845 21.0238 18.4626 21.0426 18.4407C21.0582 18.422 21.077 18.4095 21.0988 18.4032C21.1176 18.3938 21.1379 18.3907 21.1598 18.3938C21.1848 18.397 21.2051 18.4063 21.2207 18.422L21.2441 18.4454L21.2629 18.4735H21.2723L21.291 18.4876L21.2582 18.5673L21.2254 18.5532V18.5063L21.2207 18.4782L21.202 18.4595L21.1738 18.4454L21.1363 18.4548L21.0988 18.4829C21.0863 18.4985 21.0785 18.5142 21.0754 18.5298C21.0691 18.5454 21.0691 18.561 21.0754 18.5767C21.0754 18.586 21.0801 18.5938 21.0895 18.6001L21.1129 18.6142H21.1363L21.1504 18.6048V18.5954L21.1598 18.586V18.5813L21.1504 18.5673L21.141 18.5626L21.1645 18.5345ZM21.4363 18.6142L21.4832 18.6563L21.3988 18.8485V18.872L21.4082 18.886L21.3848 18.9142L21.291 18.8298L21.3191 18.8063H21.3238L21.3379 18.8157H21.3426L21.352 18.8017L21.3613 18.7782L21.3051 18.7313L21.277 18.7407L21.2676 18.7454V18.7595L21.2816 18.7688L21.2582 18.797L21.1879 18.7267L21.2113 18.7032L21.2207 18.7126H21.2301L21.2441 18.7079L21.4363 18.6142ZM21.3426 18.7079L21.3754 18.7454L21.4035 18.6751L21.3379 18.7079H21.3426ZM21.6051 18.7642L21.6238 18.7829L21.6191 18.7876L21.7129 18.8954L21.727 18.8907L21.741 18.9048L21.6988 18.9892L21.666 18.9751L21.6754 18.9423V18.9142C21.6754 18.9048 21.6723 18.8985 21.666 18.8954H21.652L21.5488 18.9985L21.5348 19.0126V19.022L21.5488 19.036L21.5254 19.0642L21.441 18.9704L21.4645 18.947L21.4691 18.9517L21.4832 18.9657H21.4879L21.502 18.9517L21.6098 18.8485L21.6145 18.8438V18.8392L21.5957 18.8298H21.5629L21.5348 18.8345L21.5207 18.8017L21.6051 18.7642Z" fill="black"/>
<path d="M0 0H12V12H0V0Z" fill="#012169"/>
<path d="M12 0V1.5L7.54688 6L12 10.3828V12H10.4297L5.95312 7.59375L1.59375 12H0V10.4062L4.35938 6.02344L0 1.73438V0H1.45312L5.95312 4.40625L10.3125 0H12Z" fill="white"/>
<path d="M4.3125 7.59375L4.57031 8.39062L0.984375 12H0V11.9297L4.3125 7.59375ZM7.21875 7.3125L8.48438 7.5L12 10.9453V12L7.21875 7.3125ZM12 0L7.5 4.59375L7.40625 3.5625L10.9219 0H12ZM0 0.0234375L4.52344 4.45312L3.14062 4.26562L0 1.14844V0.0234375Z" fill="#C8102E"/>
<path d="M4.125 0V12H7.875V0H4.125ZM0 4.125V7.875H12V4.125H0Z" fill="white"/>
<path d="M0 4.875V7.125H12V4.875H0ZM4.875 0V12H7.125V0H4.875Z" fill="#C8102E"/>
</g>
<defs>
<linearGradient id="paint0_linear_208_25651" x1="19.3779" y1="8.30736" x2="19.3923" y2="7.36378" gradientUnits="userSpaceOnUse">
<stop stop-color="#474747"/>
<stop offset="1" stop-color="#FF5500"/>
</linearGradient>
<linearGradient id="paint1_linear_208_25651" x1="19.0575" y1="11.8494" x2="19.0592" y2="12.3825" gradientUnits="userSpaceOnUse">
<stop stop-color="#B50000"/>
<stop offset="1" stop-color="#FFC500"/>
</linearGradient>
<linearGradient id="paint2_linear_208_25651" x1="21.3979" y1="12.1749" x2="22.2686" y2="12.1635" gradientUnits="userSpaceOnUse">
<stop stop-color="#D5DFFF"/>
<stop offset="1" stop-color="white"/>
</linearGradient>
<linearGradient id="paint3_linear_208_25651" x1="19.2123" y1="8.12842" x2="19.5259" y2="8.12842" gradientUnits="userSpaceOnUse">
<stop stop-color="#474747"/>
<stop offset="1" stop-color="#FF5500"/>
</linearGradient>
<linearGradient id="paint4_linear_208_25651" x1="23.7496" y1="16.5536" x2="23.597" y2="15.6053" gradientUnits="userSpaceOnUse">
<stop stop-color="#D5DFFF"/>
<stop offset="1" stop-color="white"/>
</linearGradient>
<linearGradient id="paint5_linear_208_25651" x1="21.6089" y1="12.5001" x2="21.2198" y2="11.8726" gradientUnits="userSpaceOnUse">
<stop stop-color="#D5DFFF"/>
<stop offset="1" stop-color="white"/>
</linearGradient>
<clipPath id="clip0_208_25651">
<rect width="24" height="24" rx="12" fill="white"/>
</clipPath>
</defs>
</svg>
