<svg width="24" height="24" viewBox="0 0 24 24" fill="none" xmlns="http://www.w3.org/2000/svg">
<g clip-path="url(#clip0_208_8823)">
<path d="M0 -0.00939941H24V24H0V-0.00939941Z" fill="#00267F"/>
<path d="M8.00195 -0.00939941H15.9988V24H8.00195V-0.00939941Z" fill="#FFC726"/>
<path d="M11.9997 8.12341C11.7419 8.83123 11.4747 9.57185 10.9075 10.139C11.1293 10.0705 11.3598 10.0342 11.5919 10.0312V13.0125L10.7481 13.139C10.7153 13.139 10.7059 13.0922 10.7059 13.0265C10.6183 12.1711 10.4343 11.3282 10.1575 10.514C10.1387 10.4062 9.81999 9.98435 10.0637 10.0594C10.0965 10.0594 10.4247 10.2 10.3731 10.1344C9.90221 9.65931 9.29381 9.34445 8.63405 9.23435C8.5778 9.22029 8.5403 9.24841 8.59186 9.31404C9.43561 10.6125 10.1434 12.1453 10.1387 13.964C10.4669 13.964 11.2637 13.7718 11.5919 13.7718V15.8765H12.0044L12.0981 9.99841L11.9997 8.12341Z" fill="black"/>
<path d="M12.0003 8.12341C12.2581 8.83123 12.5253 9.57185 13.0925 10.139C12.8707 10.0705 12.6402 10.0342 12.4081 10.0312V13.0125L13.2519 13.139C13.2847 13.139 13.2941 13.0922 13.2941 13.0265C13.3817 12.1711 13.5657 11.3282 13.8425 10.514C13.8613 10.4062 14.18 9.98435 13.9363 10.0594C13.9035 10.0594 13.5753 10.2 13.6269 10.1344C14.0978 9.65931 14.7062 9.34445 15.366 9.23435C15.4222 9.22029 15.4597 9.24841 15.4081 9.31404C14.5644 10.6125 13.8566 12.1453 13.8613 13.964C13.5331 13.964 12.7363 13.7718 12.4081 13.7718V15.8765H11.9956L11.9019 9.99841L12.0003 8.12341Z" fill="black"/>
</g>
<defs>
<clipPath id="clip0_208_8823">
<rect width="24" height="24" rx="12" fill="white"/>
</clipPath>
</defs>
</svg>
