<svg width="24" height="24" viewBox="0 0 24 24" fill="none" xmlns="http://www.w3.org/2000/svg">
<g clip-path="url(#clip0_208_12096)">
<mask id="mask0_208_12096" style="mask-type:luminance" maskUnits="userSpaceOnUse" x="0" y="0" width="24" height="24">
<path d="M0 0H24V24H0V0Z" fill="white"/>
</mask>
<g mask="url(#mask0_208_12096)">
<path fill-rule="evenodd" clip-rule="evenodd" d="M-12.1074 0H36.0566V24H-12.1074V0Z" fill="#108C00"/>
<path fill-rule="evenodd" clip-rule="evenodd" d="M-12.1875 8.35315H36.2156V10.7016H-12.1875V8.35315Z" fill="#FFD600"/>
<path fill-rule="evenodd" clip-rule="evenodd" d="M8.48438 0H10.7578V24H8.48906L8.48438 0Z" fill="#FFD600"/>
<path fill-rule="evenodd" clip-rule="evenodd" d="M10.6777 0H12.9465V24H10.6777V0Z" fill="black"/>
<path fill-rule="evenodd" clip-rule="evenodd" d="M-12.1875 10.6218H36.2156V12.975H-12.1875V10.6218Z" fill="black"/>
<path fill-rule="evenodd" clip-rule="evenodd" d="M-12.1875 12.975H36.2156V15.3234H-12.1875V12.975Z" fill="white"/>
<path fill-rule="evenodd" clip-rule="evenodd" d="M12.9473 0H15.2207V24H12.9473V0Z" fill="white"/>
<path d="M5.6627 12.0188C5.6627 15.5784 8.53577 18.4641 12.0799 18.4641C15.624 18.4641 18.4971 15.5784 18.4971 12.0188C18.4971 8.45915 15.624 5.57349 12.0799 5.57349C8.53577 5.57349 5.6627 8.45915 5.6627 12.0188Z" fill="#E72910"/>
<path fill-rule="evenodd" clip-rule="evenodd" d="M11.742 6.42188L12.0045 5.67188L12.2436 6.40781C12.2436 6.40781 13.0451 6.43125 13.0451 6.41719C13.0451 6.40312 12.4123 6.9 12.4123 6.9L12.6982 7.725C12.6889 7.70156 12.0045 7.21406 12.0045 7.21406C12.0045 7.21406 11.3107 7.70156 11.3248 7.70156C11.3389 7.70156 11.5873 6.90469 11.5873 6.90469L10.9639 6.43125L11.742 6.41719V6.42188Z" fill="black"/>
<path fill-rule="evenodd" clip-rule="evenodd" d="M11.7793 6.45469L11.9996 5.8125L12.2059 6.45C12.2059 6.45 12.9043 6.46875 12.9043 6.45938C12.9043 6.45 12.3559 6.88125 12.3559 6.88125L12.5996 7.59375C12.5902 7.57031 11.9996 7.15313 11.9996 7.15313C11.9996 7.15313 11.3996 7.575 11.409 7.575C11.4184 7.575 11.6434 6.88125 11.6434 6.88125L11.0996 6.46875L11.7746 6.45938L11.7793 6.45469Z" fill="#FFE700"/>
<path fill-rule="evenodd" clip-rule="evenodd" d="M11.8736 6.5625L12.0049 6.1875L12.1268 6.55781C12.1268 6.55781 12.5252 6.56719 12.5252 6.55781C12.5252 6.54844 12.2111 6.80156 12.2111 6.80156L12.3518 7.21406C12.3471 7.2 12.0049 6.96094 12.0049 6.96094L11.6674 7.20469C11.6768 7.20469 11.7986 6.80625 11.7986 6.80625L11.4893 6.57187L11.8736 6.5625Z" fill="#108C00"/>
<path fill-rule="evenodd" clip-rule="evenodd" d="M16.7293 9.9281L16.9918 9.1781L17.2262 9.91404C17.2262 9.91404 18.0324 9.94216 18.0324 9.9281C18.0324 9.91404 17.3996 10.4109 17.3996 10.4109L17.6809 11.2359C17.6715 11.2125 16.9918 10.725 16.9918 10.725C16.9918 10.725 16.298 11.2125 16.3121 11.2125C16.3262 11.2125 16.5746 10.4156 16.5746 10.4156L15.9512 9.93748L16.7293 9.92341V9.9281Z" fill="black"/>
<path fill-rule="evenodd" clip-rule="evenodd" d="M16.7621 9.96565L16.9918 9.31409L17.198 9.95627C17.198 9.95627 17.8918 9.97502 17.8918 9.96565C17.8918 9.95627 17.3434 10.3875 17.3434 10.3875L17.5918 11.0953C17.5824 11.0766 16.9918 10.6547 16.9918 10.6547C16.9918 10.6547 16.3918 11.0766 16.4012 11.0766C16.4105 11.0766 16.6309 10.3828 16.6309 10.3828L16.0918 9.97502L16.7621 9.96565Z" fill="#FFE700"/>
<path fill-rule="evenodd" clip-rule="evenodd" d="M16.8607 10.0734L16.992 9.69836L17.1092 10.064L17.5123 10.0734L17.1936 10.3124C17.1936 10.3124 17.3436 10.7343 17.3342 10.7249C17.3342 10.7109 16.992 10.4718 16.992 10.4718L16.6498 10.7109L16.7811 10.3124L16.4717 10.0781L16.8607 10.0734Z" fill="#108C00"/>
<path fill-rule="evenodd" clip-rule="evenodd" d="M15.2762 15.4968L15.5387 14.7468L15.773 15.4875C15.773 15.4875 16.5793 15.5109 16.5793 15.5015C16.5793 15.4921 15.9465 15.9843 15.9465 15.9843L16.2277 16.8046C16.2184 16.7812 15.5387 16.2984 15.5387 16.2984C15.5387 16.2984 14.8449 16.7812 14.8543 16.7812C14.8637 16.7812 15.1215 15.9843 15.1215 15.9843L14.498 15.5156L15.2762 15.5015V15.4968Z" fill="black"/>
<path fill-rule="evenodd" clip-rule="evenodd" d="M15.309 15.5343L15.5387 14.8875L15.7449 15.525C15.7449 15.525 16.4387 15.5484 16.4387 15.5343C16.4387 15.5203 15.8902 15.9562 15.8902 15.9562L16.1387 16.6687C16.1293 16.6453 15.5387 16.2281 15.5387 16.2281C15.5387 16.2281 14.9387 16.65 14.948 16.65C14.9574 16.65 15.1777 15.9562 15.1777 15.9562L14.6387 15.5484L15.309 15.5343Z" fill="#FFE700"/>
<path fill-rule="evenodd" clip-rule="evenodd" d="M15.4076 15.6421L15.5389 15.2671L15.6561 15.6374C15.6561 15.6374 16.0592 15.6515 16.0592 15.6421C16.0592 15.6327 15.7404 15.8858 15.7404 15.8858L15.8811 16.2937C15.8811 16.2843 15.5389 16.0405 15.5389 16.0405L15.1967 16.2843L15.3279 15.8858L15.0186 15.6515L15.4076 15.6421Z" fill="#108C00"/>
<path fill-rule="evenodd" clip-rule="evenodd" d="M8.30644 15.4968L8.56895 14.7468L8.80332 15.4875C8.80332 15.4875 9.60488 15.5109 9.60488 15.5015C9.60488 15.4921 8.97207 15.9843 8.97207 15.9843L9.2627 16.8046C9.24863 16.7812 8.56895 16.2984 8.56895 16.2984C8.56895 16.2984 7.87519 16.7812 7.88457 16.7812C7.89394 16.7812 8.15176 15.9843 8.15176 15.9843L7.52832 15.5156L8.30644 15.5015V15.4968Z" fill="black"/>
<path fill-rule="evenodd" clip-rule="evenodd" d="M8.34395 15.5343L8.56895 14.8875L8.77519 15.525C8.77519 15.525 9.46895 15.5484 9.46895 15.5343C9.46895 15.5203 8.92051 15.9562 8.92051 15.9562L9.16895 16.6687C9.15957 16.6453 8.56895 16.2281 8.56895 16.2281C8.56895 16.2281 7.96894 16.65 7.97832 16.65C7.98769 16.65 8.20801 15.9562 8.20801 15.9562L7.66895 15.5484L8.33926 15.5343H8.34395Z" fill="#FFE700"/>
<path fill-rule="evenodd" clip-rule="evenodd" d="M8.43789 15.6421L8.56914 15.2671L8.68633 15.6374C8.68633 15.6374 9.08945 15.6515 9.08945 15.6421C9.08945 15.6327 8.7707 15.8858 8.7707 15.8858L8.91133 16.2937C8.91133 16.2843 8.56914 16.0405 8.56914 16.0405L8.22695 16.2843L8.3582 15.8858L8.04883 15.6515L8.43789 15.6421Z" fill="#108C00"/>
<path fill-rule="evenodd" clip-rule="evenodd" d="M7.03105 9.78284L7.29356 9.03284L7.53262 9.77346C7.53262 9.77346 8.33418 9.7969 8.33418 9.78284C8.33418 9.76877 7.70137 10.2703 7.70137 10.2703L7.9873 11.0906C7.97324 11.0672 7.29356 10.5844 7.29356 10.5844C7.29356 10.5844 6.59981 11.0625 6.61387 11.0625C6.62793 11.0625 6.87637 10.2656 6.87637 10.2656L6.25293 9.7969L7.03105 9.78284Z" fill="black"/>
<path fill-rule="evenodd" clip-rule="evenodd" d="M7.06856 9.82034L7.29356 9.17346L7.50449 9.81096C7.50449 9.81096 8.19356 9.8344 8.19356 9.82034C8.19356 9.80627 7.64512 10.2422 7.64512 10.2422L7.89355 10.9547C7.88418 10.9313 7.29356 10.5141 7.29356 10.5141C7.29356 10.5141 6.69356 10.936 6.70762 10.936C6.72168 10.936 6.93262 10.2422 6.93262 10.2422L6.39355 9.8344L7.06856 9.82034Z" fill="#FFE700"/>
<path fill-rule="evenodd" clip-rule="evenodd" d="M7.1627 9.9281L7.29395 9.5531L7.41582 9.92341L7.81426 9.9281L7.5002 10.1719L7.64082 10.5797C7.63613 10.5703 7.29395 10.3265 7.29395 10.3265L6.95644 10.5703C6.96582 10.5703 7.08769 10.1719 7.08769 10.1719L6.77832 9.93748L7.1627 9.9281Z" fill="#108C00"/>
<path fill-rule="evenodd" clip-rule="evenodd" d="M15.2152 8.16091L14.9527 8.91091L14.7184 8.17498C14.7184 8.17498 13.9121 8.15154 13.9121 8.16091C13.9121 8.17029 14.5449 7.6781 14.5449 7.6781L14.2637 6.85779C14.273 6.88123 14.9527 7.36404 14.9527 7.36404C14.9527 7.36404 15.6465 6.88123 15.6324 6.88123C15.6184 6.88123 15.3699 7.6781 15.3699 7.6781L15.9934 8.14685L15.2152 8.16091Z" fill="black"/>
<path fill-rule="evenodd" clip-rule="evenodd" d="M15.1824 8.12346C15.1824 8.13752 14.948 8.77502 14.948 8.77502L14.7465 8.13752C14.7465 8.13752 14.0527 8.11409 14.0527 8.12346C14.0527 8.13284 14.6012 7.70627 14.6012 7.70627L14.3527 6.99377C14.3621 7.01721 14.9527 7.4344 14.9527 7.4344C14.9527 7.4344 15.5527 7.01252 15.5434 7.01252C15.534 7.01252 15.3137 7.70627 15.3137 7.70627L15.8527 8.11409L15.1777 8.12346H15.1824Z" fill="#FFE700"/>
<path fill-rule="evenodd" clip-rule="evenodd" d="M15.0842 8.01565L14.9529 8.39065L14.8357 8.02502C14.8357 8.02502 14.4326 8.01096 14.4326 8.02034C14.4326 8.02971 14.7514 7.77659 14.7514 7.77659L14.6107 7.36877C14.6107 7.37815 14.9529 7.6219 14.9529 7.6219L15.2951 7.37815C15.2857 7.37815 15.1592 7.77659 15.1592 7.77659L15.4732 8.01096L15.0842 8.02034V8.01565Z" fill="#108C00"/>
<path fill-rule="evenodd" clip-rule="evenodd" d="M17.2172 13.6079L16.9547 14.3579L16.7203 13.6172C16.7203 13.6172 15.9141 13.5938 15.9141 13.6079C15.9141 13.6219 16.5469 13.125 16.5469 13.125L16.2656 12.3C16.275 12.3235 16.9547 12.8063 16.9547 12.8063C16.9547 12.8063 17.6484 12.3235 17.6344 12.3235C17.6203 12.3235 17.3719 13.1204 17.3719 13.1204L18 13.5938L17.2219 13.6079H17.2172Z" fill="black"/>
<path fill-rule="evenodd" clip-rule="evenodd" d="M17.1844 13.5704L16.9547 14.2173L16.7484 13.5798C16.7484 13.5798 16.0547 13.561 16.0547 13.5704C16.0547 13.5798 16.6031 13.1485 16.6031 13.1485L16.3547 12.436C16.3641 12.4595 16.9547 12.8767 16.9547 12.8767C16.9547 12.8767 17.5547 12.4548 17.5453 12.4548C17.5359 12.4548 17.3156 13.1485 17.3156 13.1485L17.8547 13.561L17.1797 13.5704H17.1844Z" fill="#FFE700"/>
<path fill-rule="evenodd" clip-rule="evenodd" d="M17.0861 13.4626L16.9549 13.8376L16.8377 13.4673C16.8377 13.4673 16.4346 13.4579 16.4346 13.4673C16.4346 13.4767 16.7533 13.2235 16.7533 13.2235L16.6127 12.811C16.6127 12.8251 16.9549 13.0642 16.9549 13.0642L17.2971 12.8204C17.2877 12.8204 17.1611 13.2235 17.1611 13.2235L17.4752 13.4579L17.0861 13.4626Z" fill="#108C00"/>
<path fill-rule="evenodd" clip-rule="evenodd" d="M12.2533 17.5922L11.9908 18.3422L11.7564 17.6016C11.7564 17.6016 10.9502 17.5782 10.9502 17.5875C10.9502 17.5969 11.583 17.1047 11.583 17.1047L11.3018 16.2844C11.3111 16.3079 11.9908 16.7907 11.9908 16.7907C11.9908 16.7907 12.6846 16.3079 12.6705 16.3079C12.6564 16.3079 12.408 17.1047 12.408 17.1047L13.0314 17.5782L12.2533 17.5922Z" fill="black"/>
<path fill-rule="evenodd" clip-rule="evenodd" d="M12.2205 17.5501L11.9908 18.2063L11.7846 17.5642C11.7846 17.5642 11.0908 17.5407 11.0908 17.5548C11.0908 17.5688 11.6393 17.1329 11.6393 17.1329L11.3908 16.4204C11.4002 16.4438 11.9908 16.861 11.9908 16.861C11.9908 16.861 12.5908 16.4392 12.5814 16.4392C12.5721 16.4392 12.3518 17.1329 12.3518 17.1329L12.8908 17.5407L12.2205 17.5548V17.5501Z" fill="#FFE700"/>
<path fill-rule="evenodd" clip-rule="evenodd" d="M12.1223 17.447L11.991 17.822L11.8738 17.4517C11.8738 17.4517 11.4707 17.4376 11.4707 17.447C11.4707 17.4563 11.7895 17.2032 11.7895 17.2032L11.6488 16.7954C11.6488 16.8048 11.991 17.0485 11.991 17.0485L12.3332 16.8048L12.202 17.2032L12.5113 17.4376L12.1223 17.447Z" fill="#108C00"/>
<path fill-rule="evenodd" clip-rule="evenodd" d="M7.59395 13.6079L7.32676 14.3579L7.09238 13.6172C7.09238 13.6172 6.28613 13.5938 6.28613 13.6079C6.28613 13.6219 6.91895 13.125 6.91895 13.125L6.6377 12.3C6.64707 12.3235 7.32676 12.8063 7.32676 12.8063L8.01582 12.3282L7.74863 13.125L8.37207 13.5985L7.59395 13.6125V13.6079Z" fill="black"/>
<path fill-rule="evenodd" clip-rule="evenodd" d="M7.55644 13.5704L7.32676 14.2173L7.12051 13.5798C7.12051 13.5798 6.42676 13.561 6.42676 13.5704C6.42676 13.5798 6.9752 13.1485 6.9752 13.1485L6.72676 12.436C6.73613 12.4595 7.32676 12.8767 7.32676 12.8767C7.32676 12.8767 7.92676 12.4548 7.91738 12.4548C7.90801 12.4548 7.6877 13.1485 7.6877 13.1485L8.22676 13.561L7.55644 13.5704Z" fill="#FFE700"/>
<path fill-rule="evenodd" clip-rule="evenodd" d="M7.4582 13.4626L7.32695 13.8376L7.20977 13.4673C7.20977 13.4673 6.80664 13.4579 6.80664 13.4673C6.80664 13.4767 7.12539 13.2235 7.12539 13.2235L6.98477 12.811C6.98477 12.8251 7.32695 13.0642 7.32695 13.0642L7.66914 12.8204L7.53789 13.2235L7.84727 13.4579L7.4582 13.4626Z" fill="#108C00"/>
<path fill-rule="evenodd" clip-rule="evenodd" d="M9.31387 8.24063L9.05137 8.99063L8.80762 8.25469C8.80762 8.25469 8.01074 8.23125 8.01074 8.24063C8.01074 8.25 8.64355 7.75781 8.64355 7.75781L8.35762 6.9375C8.36699 6.96094 9.04668 7.44375 9.04668 7.44375C9.04668 7.44375 9.74043 6.96094 9.73106 6.96094C9.72168 6.96094 9.46855 7.75781 9.46855 7.75781L10.0873 8.22656L9.31387 8.24531V8.24063Z" fill="black"/>
<path fill-rule="evenodd" clip-rule="evenodd" d="M9.27617 8.20317L9.04648 8.85942L8.84023 8.21724C8.84023 8.21724 8.14648 8.1938 8.14648 8.20786C8.14648 8.22192 8.69492 7.78599 8.69492 7.78599L8.44648 7.07349C8.45586 7.09692 9.04648 7.51411 9.04648 7.51411C9.04648 7.51411 9.64648 7.09224 9.63711 7.09224C9.62773 7.09224 9.41211 7.78599 9.41211 7.78599L9.94648 8.1938L9.27617 8.20786V8.20317Z" fill="#FFE700"/>
<path fill-rule="evenodd" clip-rule="evenodd" d="M9.17813 8.10005L9.04688 8.47505L8.92969 8.10474C8.92969 8.10474 8.53125 8.09067 8.53125 8.10005C8.53125 8.10942 8.84531 7.8563 8.84531 7.8563L8.70469 7.44849C8.70469 7.45786 9.04688 7.70161 9.04688 7.70161L9.38906 7.45786L9.25781 7.8563L9.56719 8.09067L9.17813 8.10005Z" fill="#108C00"/>
<path d="M13.1339 15.2974C13.3242 15.2779 13.4235 14.5033 13.3557 13.5673C13.288 12.6313 13.0788 11.8884 12.8885 11.9078C12.6982 11.9273 12.5989 12.7019 12.6666 13.6379C12.7344 14.5739 12.9436 15.3169 13.1339 15.2974Z" fill="#009200" stroke="black" stroke-width="0.0668923"/>
<path d="M13.484 15.2929C13.6853 15.2724 13.7921 14.4971 13.7227 13.5612C13.6533 12.6254 13.4338 11.8834 13.2326 11.9039C13.0313 11.9245 12.9245 12.6998 12.9939 13.6356C13.0633 14.5715 13.2828 15.3135 13.484 15.2929Z" fill="#009200" stroke="black" stroke-width="0.068794"/>
<path d="M13.3299 15.5649C13.491 15.5482 13.5622 14.6962 13.4889 13.6617C13.4155 12.6273 13.2254 11.8022 13.0643 11.8189C12.9031 11.8355 12.8319 12.6876 12.9053 13.722C12.9786 14.7564 13.1687 15.5815 13.3299 15.5649Z" fill="#009200" stroke="black" stroke-width="0.064713"/>
<path fill-rule="evenodd" clip-rule="evenodd" d="M10.4973 14.4954C10.7919 14.4821 10.6643 14.3243 10.8131 14.2402C10.9618 14.1562 11.1728 14.2113 11.2365 14.3162C11.2993 14.4211 11.2483 14.5242 11.3307 14.5255C11.4122 14.5267 13.6336 14.4277 13.7134 14.5151C13.7942 14.6026 13.8066 14.7764 13.7239 14.8438C13.6412 14.9111 10.8322 14.9505 10.7354 14.8794C10.6386 14.8094 10.497 14.512 10.4973 14.4954Z" fill="#A95600" stroke="black" stroke-width="0.0673216"/>
<path fill-rule="evenodd" clip-rule="evenodd" d="M12.0709 14.7193C12.0651 14.9427 12.3946 14.879 12.3984 15.0656C12.3882 15.2633 11.8466 15.0777 11.8424 14.7162C11.8655 14.3545 12.3957 14.1762 12.4025 14.383C12.4067 14.554 12.076 14.4959 12.0702 14.7193L12.0709 14.7193Z" fill="#FFFF00" stroke="black" stroke-width="0.0659034"/>
<path fill-rule="evenodd" clip-rule="evenodd" d="M12.2653 14.7242C12.2594 14.9476 12.589 14.8839 12.5927 15.0705C12.5825 15.2682 12.0409 15.0826 12.0367 14.7211C12.0598 14.3594 12.59 14.1811 12.5969 14.3879C12.601 14.5589 12.2704 14.5008 12.2646 14.7242L12.2653 14.7242Z" fill="#FFFF00" stroke="black" stroke-width="0.0659034"/>
<path fill-rule="evenodd" clip-rule="evenodd" d="M12.4743 14.7146C12.4684 14.9379 12.7979 14.8742 12.8017 15.0609C12.7915 15.2585 12.2499 15.073 12.2457 14.7115C12.2688 14.3498 12.799 14.1715 12.8059 14.3782C12.81 14.5493 12.4794 14.4912 12.4735 14.7145L12.4743 14.7146Z" fill="#FFFF00" stroke="black" stroke-width="0.0659034"/>
<path fill-rule="evenodd" clip-rule="evenodd" d="M12.6686 14.7146C12.6628 14.9379 12.9923 14.8742 12.996 15.0609C12.9859 15.2585 12.4443 15.073 12.44 14.7115C12.4631 14.3498 12.9934 14.1715 13.0002 14.3782C13.0044 14.5493 12.6737 14.4912 12.6679 14.7145L12.6686 14.7146Z" fill="#FFFF00" stroke="black" stroke-width="0.0659034"/>
<path d="M13.6049 14.8582C13.7077 14.8597 13.7928 14.7756 13.795 14.6703C13.7972 14.5651 13.7157 14.4786 13.6129 14.4771C13.5101 14.4756 13.425 14.5597 13.4228 14.6649C13.4206 14.7701 13.5022 14.8567 13.6049 14.8582Z" fill="#A95600" stroke="black" stroke-width="0.0582385"/>
<path d="M12.5186 14.4024C12.6103 14.3886 12.6669 14.2133 12.645 14.0109C12.6232 13.8085 12.5311 13.6556 12.4394 13.6694C12.3478 13.6832 12.2912 13.8584 12.313 14.0609C12.3349 14.2633 12.4269 14.4162 12.5186 14.4024Z" fill="#009200" stroke="black" stroke-width="0.0740756"/>
<path d="M12.2335 14.3776C12.3251 14.3638 12.3817 14.1886 12.3599 13.9861C12.338 13.7837 12.246 13.6308 12.1543 13.6446C12.0626 13.6584 12.006 13.8337 12.0279 14.0361C12.0497 14.2385 12.1418 14.3914 12.2335 14.3776Z" fill="#009200" stroke="black" stroke-width="0.0740756"/>
<path d="M12.0303 14.0127C12.122 13.9989 12.1786 13.8236 12.1567 13.6211C12.1349 13.4187 12.0428 13.2658 11.9512 13.2796C11.8595 13.2934 11.8029 13.4687 11.8247 13.6711C11.8466 13.8735 11.9386 14.0265 12.0303 14.0127Z" fill="#009200" stroke="black" stroke-width="0.0740756"/>
<path d="M12.3317 14.0312C12.4199 14.0167 12.472 13.8235 12.448 13.5999C12.424 13.3762 12.333 13.2067 12.2447 13.2213C12.1565 13.2359 12.1044 13.429 12.1284 13.6526C12.1525 13.8763 12.2435 14.0458 12.3317 14.0312Z" fill="#009200" stroke="black" stroke-width="0.0764691"/>
<path d="M12.7271 14.0308C12.8154 14.0174 12.8688 13.8366 12.8462 13.6271C12.8236 13.4176 12.7337 13.2587 12.6453 13.2721C12.557 13.2856 12.5037 13.4663 12.5262 13.6759C12.5488 13.8854 12.6387 14.0443 12.7271 14.0308Z" fill="#009200" stroke="black" stroke-width="0.0739867"/>
<path d="M12.5083 13.8968C12.5967 13.8833 12.65 13.7026 12.6274 13.4931C12.6049 13.2836 12.5149 13.1246 12.4266 13.1381C12.3382 13.1516 12.2849 13.3323 12.3075 13.5418C12.3301 13.7513 12.42 13.9103 12.5083 13.8968Z" fill="#009200" stroke="black" stroke-width="0.0739867"/>
<path d="M12.2349 13.7049C12.3233 13.6914 12.3766 13.5107 12.354 13.3012C12.3314 13.0917 12.2415 12.9327 12.1531 12.9462C12.0648 12.9597 12.0115 13.1404 12.034 13.3499C12.0566 13.5594 12.1466 13.7184 12.2349 13.7049Z" fill="#009200" stroke="black" stroke-width="0.0739867"/>
<path d="M11.98 13.5942C12.0684 13.5807 12.1217 13.4 12.0991 13.1905C12.0765 12.981 11.9866 12.822 11.8983 12.8355C11.8099 12.849 11.7566 13.0297 11.7792 13.2392C11.8017 13.4487 11.8917 13.6076 11.98 13.5942Z" fill="#009200" stroke="black" stroke-width="0.0739867"/>
<path fill-rule="evenodd" clip-rule="evenodd" d="M11.6629 10.0475C11.6629 10.0475 11.1024 10.5369 11.1756 11.8598C11.258 13.1909 12.4385 13.8157 12.4385 13.8157C12.4385 13.8157 12.7355 13.4371 12.6921 12.3688C12.5959 10.8042 12.0359 10.1149 12.0359 10.1149L11.6637 10.0477L11.6629 10.0475Z" fill="#804BFF" stroke="black" stroke-width="0.0589705"/>
<path d="M12.9144 14.456C13.0071 14.4588 13.0941 14.2964 13.1088 14.0934C13.1235 13.8903 13.0603 13.7234 12.9676 13.7206C12.8749 13.7177 12.7879 13.8801 12.7732 14.0832C12.7585 14.2862 12.8217 14.4532 12.9144 14.456Z" fill="#009200" stroke="black" stroke-width="0.0740756"/>
<path d="M12.6371 14.3807C12.7297 14.3835 12.8168 14.2211 12.8315 14.018C12.8461 13.815 12.7829 13.6481 12.6903 13.6452C12.5976 13.6424 12.5106 13.8048 12.4959 14.0078C12.4812 14.2109 12.5444 14.3778 12.6371 14.3807Z" fill="#009200" stroke="black" stroke-width="0.0740756"/>
<path d="M12.5033 13.9853C12.596 13.9881 12.683 13.8257 12.6977 13.6227C12.7124 13.4196 12.6491 13.2527 12.5565 13.2499C12.4638 13.247 12.3768 13.4094 12.3621 13.6125C12.3474 13.8155 12.4106 13.9825 12.5033 13.9853Z" fill="#009200" stroke="black" stroke-width="0.0740756"/>
<path d="M12.796 14.0573C12.8854 14.0588 12.9712 13.8781 12.9876 13.6537C13.0039 13.4294 12.9447 13.2464 12.8553 13.2449C12.7658 13.2435 12.6801 13.4242 12.6637 13.6485C12.6474 13.8729 12.7066 14.0559 12.796 14.0573Z" fill="#009200" stroke="black" stroke-width="0.0764691"/>
<path d="M13.1857 14.1276C13.275 14.1302 13.3598 13.9619 13.375 13.7517C13.3902 13.5416 13.3302 13.3691 13.2409 13.3666C13.1515 13.364 13.0667 13.5323 13.0515 13.7425C13.0363 13.9527 13.0963 14.1251 13.1857 14.1276Z" fill="#009200" stroke="black" stroke-width="0.0739867"/>
<path d="M12.9942 13.9568C13.0836 13.9593 13.1684 13.791 13.1836 13.5808C13.1988 13.3707 13.1388 13.1982 13.0494 13.1957C12.9601 13.1931 12.8753 13.3614 12.8601 13.5716C12.8448 13.7818 12.9049 13.9542 12.9942 13.9568Z" fill="#009200" stroke="black" stroke-width="0.0739867"/>
<path d="M12.7599 13.7191C12.8492 13.7216 12.934 13.5533 12.9492 13.3432C12.9645 13.133 12.9044 12.9605 12.8151 12.958C12.7257 12.9554 12.641 13.1237 12.6257 13.3339C12.6105 13.5441 12.6705 13.7165 12.7599 13.7191Z" fill="#009200" stroke="black" stroke-width="0.0739867"/>
<path d="M12.5284 13.5644C12.6178 13.567 12.7025 13.3987 12.7178 13.1885C12.733 12.9783 12.673 12.8059 12.5836 12.8033C12.4943 12.8008 12.4095 12.9691 12.3943 13.1792C12.379 13.3894 12.4391 13.5619 12.5284 13.5644Z" fill="#009200" stroke="black" stroke-width="0.0739867"/>
<path d="M13.426 13.6825C13.6715 13.5887 13.611 12.9125 13.2909 12.1722C12.9708 11.4319 12.5123 10.9078 12.2668 11.0016C12.0213 11.0955 12.0818 11.7716 12.4019 12.5119C12.722 13.2522 13.1806 13.7763 13.426 13.6825Z" fill="#C90000" stroke="black" stroke-width="0.0284251"/>
<path d="M12.4888 11.1447C12.6032 11.1467 12.6974 11.0662 12.6992 10.9648C12.7009 10.8634 12.6096 10.7797 12.4952 10.7777C12.3808 10.7757 12.2867 10.8562 12.2849 10.9576C12.2831 11.0589 12.3744 11.1427 12.4888 11.1447Z" fill="#009200" stroke="black" stroke-width="0.0660836"/>
<path d="M12.6519 10.8804C12.7544 10.8822 12.839 10.8015 12.8407 10.7001C12.8425 10.5988 12.7608 10.5152 12.6583 10.5134C12.5558 10.5116 12.4712 10.5923 12.4695 10.6937C12.4677 10.795 12.5494 10.8786 12.6519 10.8804Z" fill="#009200" stroke="black" stroke-width="0.0667306"/>
<path d="M12.3999 10.876C12.5025 10.8778 12.587 10.7971 12.5888 10.6957C12.5905 10.5944 12.5089 10.5108 12.4063 10.509C12.3038 10.5072 12.2193 10.5879 12.2175 10.6893C12.2157 10.7906 12.2974 10.8742 12.3999 10.876Z" fill="#009200" stroke="black" stroke-width="0.0667306"/>
<path d="M12.4507 10.6752C12.5579 10.677 12.6461 10.6014 12.6477 10.5063C12.6494 10.4112 12.5639 10.3325 12.4567 10.3307C12.3496 10.3288 12.2613 10.4044 12.2597 10.4995C12.258 10.5947 12.3436 10.6733 12.4507 10.6752Z" fill="#009200" stroke="black" stroke-width="0.0660932"/>
<path d="M12.4312 10.4562C12.5383 10.458 12.6265 10.3824 12.6282 10.2873C12.6299 10.1922 12.5443 10.1135 12.4372 10.1117C12.33 10.1098 12.2418 10.1854 12.2402 10.2805C12.2385 10.3757 12.324 10.4543 12.4312 10.4562Z" fill="#009200" stroke="black" stroke-width="0.0660932"/>
<path d="M12.1597 10.7358C12.2622 10.7376 12.3468 10.6568 12.3485 10.5555C12.3503 10.4541 12.2686 10.3705 12.1661 10.3687C12.0636 10.3669 11.979 10.4476 11.9773 10.549C11.9755 10.6504 12.0572 10.734 12.1597 10.7358Z" fill="#009200" stroke="black" stroke-width="0.0667306"/>
<path d="M12.2116 10.493C12.3141 10.4948 12.3986 10.4158 12.4004 10.3165C12.4021 10.2172 12.3204 10.1353 12.2179 10.1335C12.1153 10.1317 12.0308 10.2107 12.0291 10.31C12.0274 10.4093 12.1091 10.4912 12.2116 10.493Z" fill="#009200" stroke="black" stroke-width="0.0660438"/>
<path d="M11.9078 10.5031C12.0222 10.5051 12.1163 10.4246 12.1181 10.3232C12.1199 10.2218 12.0286 10.1381 11.9142 10.1361C11.7998 10.1341 11.7056 10.2146 11.7038 10.316C11.7021 10.4173 11.7934 10.5011 11.9078 10.5031Z" fill="#009200" stroke="black" stroke-width="0.0660836"/>
<path d="M12.2896 10.1866C12.3967 10.1885 12.4849 10.1129 12.4866 10.0178C12.4883 9.92264 12.4027 9.844 12.2956 9.84213C12.1884 9.84026 12.1002 9.91586 12.0986 10.011C12.0969 10.1061 12.1824 10.1848 12.2896 10.1866Z" fill="#009200" stroke="black" stroke-width="0.0660932"/>
<path d="M12.0319 10.2276C12.1344 10.2294 12.2189 10.1504 12.2207 10.0511C12.2224 9.95183 12.1407 9.8699 12.0382 9.86811C11.9357 9.86632 11.8511 9.94535 11.8494 10.0446C11.8477 10.1439 11.9294 10.2259 12.0319 10.2276Z" fill="#009200" stroke="black" stroke-width="0.0660438"/>
<path d="M11.6333 10.513C11.7359 10.5148 11.8204 10.4341 11.8222 10.3327C11.8239 10.2313 11.7423 10.1477 11.6397 10.1459C11.5372 10.1442 11.4527 10.2249 11.4509 10.3262C11.4491 10.4276 11.5308 10.5112 11.6333 10.513Z" fill="#009200" stroke="black" stroke-width="0.0667306"/>
<path d="M11.6989 10.3723C11.8014 10.3741 11.8859 10.295 11.8877 10.1958C11.8894 10.0965 11.8077 10.0146 11.7052 10.0128C11.6026 10.011 11.5181 10.09 11.5164 10.1893C11.5147 10.2886 11.5964 10.3705 11.6989 10.3723Z" fill="#009200" stroke="black" stroke-width="0.0660438"/>
<path d="M11.7799 10.2231C11.8825 10.2249 11.967 10.1459 11.9687 10.0466C11.9705 9.94732 11.8887 9.86538 11.7862 9.86359C11.6837 9.8618 11.5992 9.94084 11.5974 10.0401C11.5957 10.1394 11.6774 10.2213 11.7799 10.2231Z" fill="#009200" stroke="black" stroke-width="0.0660438"/>
<path d="M13.6653 13.6834C13.9806 13.5716 13.9286 12.7663 13.549 11.8847C13.1694 11.0031 12.6061 10.3791 12.2907 10.4909C11.9754 10.6027 12.0274 11.408 12.407 12.2896C12.7866 13.1712 13.3499 13.7952 13.6653 13.6834Z" fill="#009200" stroke="black" stroke-width="0.0581208"/>
<path d="M13.6232 12.7007C13.6816 12.6729 13.6622 12.5014 13.58 12.3178C13.4977 12.1342 13.3838 12.0079 13.3254 12.0358C13.267 12.0636 13.2864 12.235 13.3686 12.4186C13.4509 12.6023 13.5649 12.7285 13.6232 12.7007Z" fill="#009200" stroke="black" stroke-width="0.059103"/>
<path fill-rule="evenodd" clip-rule="evenodd" d="M13.4191 12.3668C13.913 12.9662 13.8492 13.3479 13.7968 13.6702C13.6414 13.2984 13.5594 13.0646 13.0654 12.4652C12.5715 11.8658 12.8182 11.4448 12.8521 11.2221C12.9263 11.4147 12.9251 11.7675 13.4191 12.3668Z" fill="#009200" stroke="black" stroke-width="0.0605421"/>
<path fill-rule="evenodd" clip-rule="evenodd" d="M13.464 12.8511C13.9579 13.4505 13.8941 13.8321 13.8417 14.1544C13.6863 13.7827 13.6043 13.5488 13.1104 12.9494C12.6164 12.3501 12.8631 11.929 12.897 11.7064C12.9712 11.899 12.9701 12.2517 13.464 12.8511Z" fill="#009200" stroke="black" stroke-width="0.0605421"/>
<path fill-rule="evenodd" clip-rule="evenodd" d="M13.4816 13.2412C13.9879 13.8299 13.932 14.2128 13.8863 14.5361C13.7232 14.1678 13.6363 13.9358 13.13 13.3471C12.6237 12.7585 12.8617 12.3323 12.891 12.109C12.9691 12.2999 12.9753 12.6526 13.4816 13.2412Z" fill="#009200" stroke="black" stroke-width="0.0605408"/>
<path d="M13.3967 12.3961C13.5124 12.3665 13.4885 12.0773 13.3435 11.7501C13.1985 11.4229 12.9871 11.1817 12.8715 11.2114C12.7559 11.241 12.7797 11.5302 12.9247 11.8574C13.0698 12.1845 13.2811 12.4257 13.3967 12.3961Z" fill="#009200" stroke="black" stroke-width="0.0600054"/>
<path d="M13.1414 12.6313C13.2455 12.6132 13.2385 12.3789 13.1258 12.108C13.0132 11.837 12.8374 11.6321 12.7334 11.6501C12.6293 11.6682 12.6363 11.9025 12.7489 12.1734C12.8616 12.4444 13.0373 12.6494 13.1414 12.6313Z" fill="#009200" stroke="black" stroke-width="0.0584232"/>
<path d="M12.8939 12.8567C12.9983 12.8408 12.9961 12.6065 12.8891 12.3334C12.7821 12.0603 12.6108 11.8518 12.5064 11.8677C12.402 11.8836 12.4041 12.1179 12.5111 12.391C12.6182 12.6641 12.7895 12.8726 12.8939 12.8567Z" fill="#009200" stroke="black" stroke-width="0.0584006"/>
<path d="M13.0748 11.9109C13.1589 11.8953 13.1484 11.7191 13.0514 11.5172C12.9544 11.3153 12.8076 11.1642 12.7235 11.1797C12.6395 11.1953 12.6499 11.3716 12.7469 11.5734C12.8439 11.7753 12.9907 11.9264 13.0748 11.9109Z" fill="#009200" stroke="black" stroke-width="0.060281"/>
<path d="M12.8453 12.0737C12.9303 12.0628 12.9312 11.8862 12.8473 11.6793C12.7634 11.4723 12.6265 11.3135 12.5415 11.3244C12.4566 11.3354 12.4557 11.512 12.5396 11.7189C12.6235 11.9258 12.7604 12.0847 12.8453 12.0737Z" fill="#009200" stroke="black" stroke-width="0.0602397"/>
<path fill-rule="evenodd" clip-rule="evenodd" d="M12.5384 11.4615C12.6841 11.8172 12.7429 12.1372 12.6694 12.1761C12.5958 12.2149 12.4181 11.9575 12.2725 11.6018" fill="#009200"/>
<path d="M12.5384 11.4615C12.6841 11.8172 12.7429 12.1372 12.6694 12.1761C12.5958 12.2149 12.4181 11.9575 12.2725 11.6018" stroke="black" stroke-width="0.0595982"/>
<path d="M12.8229 11.6555C12.9078 11.6446 12.9087 11.468 12.8248 11.261C12.7409 11.0541 12.604 10.8953 12.5191 10.9062C12.4341 10.9172 12.4332 11.0938 12.5171 11.3007C12.601 11.5076 12.7379 11.6665 12.8229 11.6555Z" fill="#009200" stroke="black" stroke-width="0.0602397"/>
<path d="M12.5786 11.7731C12.6639 11.7638 12.6686 11.5873 12.5892 11.3788C12.5098 11.1703 12.3763 11.0089 12.2911 11.0182C12.2058 11.0275 12.2011 11.204 12.2805 11.4125C12.3599 11.6209 12.4934 11.7824 12.5786 11.7731Z" fill="#009200" stroke="black" stroke-width="0.0602457"/>
<path fill-rule="evenodd" clip-rule="evenodd" d="M12.2916 10.9842C12.4336 11.2248 12.5102 11.4496 12.4622 11.4861C12.4142 11.5227 12.2602 11.3569 12.1182 11.1163" fill="#009200"/>
<path d="M12.2916 10.9842C12.4336 11.2248 12.5102 11.4496 12.4622 11.4861C12.4142 11.5227 12.2602 11.3569 12.1182 11.1163" stroke="black" stroke-width="0.0597527"/>
<path fill-rule="evenodd" clip-rule="evenodd" d="M12.3903 10.8242C12.5323 11.0648 12.6088 11.2895 12.5608 11.3261C12.5128 11.3626 12.3588 11.1969 12.2168 10.9563" fill="#009200"/>
<path d="M12.3903 10.8242C12.5323 11.0648 12.6088 11.2895 12.5608 11.3261C12.5128 11.3626 12.3588 11.1969 12.2168 10.9563" stroke="black" stroke-width="0.0597527"/>
<path fill-rule="evenodd" clip-rule="evenodd" d="M12.8259 10.8534C13.0234 11.1817 13.1296 11.4885 13.0626 11.5385C12.9957 11.5885 12.7814 11.3623 12.584 11.0341" fill="#009200"/>
<path d="M12.8259 10.8534C13.0234 11.1817 13.1296 11.4885 13.0626 11.5385C12.9957 11.5885 12.7814 11.3623 12.584 11.0341" stroke="black" stroke-width="0.0596285"/>
<path fill-rule="evenodd" clip-rule="evenodd" d="M12.5394 10.6759C12.6819 10.9409 12.7589 11.1884 12.711 11.2285C12.6631 11.2687 12.5087 11.0859 12.3662 10.8209" fill="#009200"/>
<path d="M12.5394 10.6759C12.6819 10.9409 12.7589 11.1884 12.711 11.2285C12.6631 11.2687 12.5087 11.0859 12.3662 10.8209" stroke="black" stroke-width="0.0587628"/>
<path fill-rule="evenodd" clip-rule="evenodd" d="M12.5207 10.3078C12.4257 10.4042 12.5189 10.5833 12.6057 10.6473C12.7027 10.7359 13.2504 11.3127 13.6359 10.8248C13.3267 10.8197 12.7489 10.0939 12.5207 10.3078Z" fill="#804BFF" stroke="black" stroke-width="0.0606898"/>
<path fill-rule="evenodd" clip-rule="evenodd" d="M12.4533 10.0213C12.3584 10.1177 12.4515 10.2968 12.5383 10.3608C12.6353 10.4494 13.183 11.0262 13.5685 10.5383C13.2593 10.5332 12.6816 9.80739 12.4533 10.0213Z" fill="#804BFF" stroke="black" stroke-width="0.0606898"/>
<path fill-rule="evenodd" clip-rule="evenodd" d="M12.3654 9.74935C12.2705 9.84569 12.3636 10.0248 12.4504 10.0889C12.5474 10.1774 13.0951 10.7542 13.4806 10.2663C13.1714 10.2612 12.5937 9.53542 12.3654 9.74935Z" fill="#804BFF" stroke="black" stroke-width="0.0606898"/>
<path fill-rule="evenodd" clip-rule="evenodd" d="M12.176 9.43856C12.081 9.5349 12.1741 9.71404 12.2609 9.77808C12.3579 9.86664 12.9057 10.4434 13.2912 9.95554C12.9819 9.95041 12.4042 9.22463 12.176 9.43856Z" fill="#804BFF" stroke="black" stroke-width="0.0606898"/>
<path fill-rule="evenodd" clip-rule="evenodd" d="M11.4951 9.12439C11.6915 8.98075 12.0532 8.93849 12.3343 9.08212C12.569 9.19715 12.9579 9.66243 13.2511 9.77285C13.1733 9.79004 13.0921 9.79367 13.0124 9.78354C12.9327 9.77341 12.8561 9.74971 12.787 9.71385C12.5254 9.90075 12.4328 9.92769 12.1657 9.9646C11.7965 10.0155 11.4896 9.91929 11.3836 9.72811C11.2727 9.54783 11.3209 9.25871 11.4951 9.12439Z" fill="#804BFF" stroke="black" stroke-width="0.0645634"/>
<path d="M11.896 9.50185C11.9893 9.50348 12.0657 9.4611 12.0666 9.4072C12.0676 9.3533 11.9927 9.30829 11.8994 9.30666C11.8061 9.30503 11.7297 9.34741 11.7288 9.40131C11.7278 9.45521 11.8027 9.50022 11.896 9.50185Z" fill="#FF0000" stroke="black" stroke-width="0.0586604"/>
<path d="M11.4512 9.94889C11.5732 9.90352 11.6497 9.80653 11.622 9.73226C11.5943 9.65799 11.4729 9.63456 11.3509 9.67993C11.2288 9.7253 11.1523 9.82229 11.18 9.89656C11.2078 9.97083 11.3292 9.99426 11.4512 9.94889Z" fill="#FFFF00" stroke="black" stroke-width="0.0637138"/>
<path d="M11.8915 9.45572C11.9247 9.4563 11.9521 9.43344 11.9526 9.40467C11.9531 9.37589 11.9266 9.3521 11.8933 9.35152C11.86 9.35093 11.8326 9.37379 11.8321 9.40256C11.8316 9.43134 11.8582 9.45513 11.8915 9.45572Z" fill="black"/>
<path fill-rule="evenodd" clip-rule="evenodd" d="M11.5318 9.52139C11.5475 9.59597 11.4925 9.69822 11.3725 9.73576C11.2499 9.78812 11.1574 9.90458 11.1045 10.0944C10.9161 9.66504 11.034 9.48091 11.2314 9.43481C11.4016 9.37833 11.5041 9.38425 11.5318 9.52139Z" fill="#FFFF00" stroke="black" stroke-width="0.0756053"/>
<path d="M11.3552 9.59291C11.3788 9.59168 11.3969 9.57125 11.3955 9.54727C11.3942 9.52329 11.3739 9.50485 11.3503 9.50608C11.3267 9.50731 11.3087 9.52774 11.3101 9.55172C11.3114 9.57569 11.3316 9.59414 11.3552 9.59291Z" fill="black"/>
</g>
</g>
<defs>
<clipPath id="clip0_208_12096">
<rect width="24" height="24" rx="12" fill="white"/>
</clipPath>
</defs>
</svg>
