<svg width="24" height="24" viewBox="0 0 24 24" fill="none" xmlns="http://www.w3.org/2000/svg">
<g clip-path="url(#clip0_208_26631)">
<mask id="mask0_208_26631" style="mask-type:luminance" maskUnits="userSpaceOnUse" x="0" y="0" width="24" height="24">
<path d="M0 0H23.9963V23.9963H0V0Z" fill="white"/>
</mask>
<g mask="url(#mask0_208_26631)">
<path fill-rule="evenodd" clip-rule="evenodd" d="M0 0H35.9945V23.9963H0V0Z" fill="#00843D"/>
<path fill-rule="evenodd" clip-rule="evenodd" d="M12.3418 6.44426C13.648 7.0732 15.2059 6.44426 15.7719 5.57343C16.3525 4.76065 16.4202 3.39634 15.4187 2.14331C16.9669 3.43021 17.3152 4.88644 16.5412 6.08626C15.5155 7.4554 13.232 7.4167 12.3418 6.44426Z" fill="white"/>
<path fill-rule="evenodd" clip-rule="evenodd" d="M14.3686 3.68655L14.4412 3.4253L14.2283 3.26564L14.4896 3.25597L14.5766 2.99956L14.6637 3.25597H14.925L14.7169 3.4253L14.7944 3.68171L14.5815 3.52689L14.3686 3.68655ZM13.0624 5.31211L13.1398 5.05569L12.9269 4.8912L13.193 4.88636L13.2752 4.62995L13.3672 4.88153L13.6284 4.88636L13.4204 5.05086L13.4978 5.31211L13.2801 5.15729L13.0624 5.31211ZM13.1494 4.03004L13.2269 3.76879L13.014 3.60914L13.2752 3.59946L13.3623 3.34305L13.4494 3.59946H13.7155L13.5075 3.76879L13.5849 4.02521L13.3672 3.87039L13.1494 4.03004ZM13.1494 2.74314L13.2269 2.48189L13.014 2.32224L13.2752 2.31256L13.3623 2.05615L13.4494 2.31256H13.7155L13.5075 2.48189L13.5849 2.73831L13.3672 2.58833L13.1494 2.74314ZM11.7077 4.37354L11.7803 4.11229L11.5723 3.9478L11.8335 3.94296L11.9206 3.68655L12.0077 3.93812L12.2689 3.94296L12.0609 4.10745L12.1383 4.3687L11.9206 4.21389L11.7077 4.37354Z" fill="white"/>
<path fill-rule="evenodd" clip-rule="evenodd" d="M2.22559 0H9.94215V23.9963H2.23042L2.22559 0Z" fill="#CA3745"/>
<path fill-rule="evenodd" clip-rule="evenodd" d="M2.22559 6.25547V6.08614L2.54973 5.65556L2.482 5.57331L2.67552 5.31206L2.61262 5.22982L2.482 5.39914L2.4191 5.31206L2.86904 4.71215L2.93193 4.79924L2.86904 4.88632L2.99966 5.06049L3.31897 4.62507L2.99482 4.21384L2.86904 4.37349L2.93193 4.45574L2.86904 4.54282L2.4191 3.94292L2.482 3.85583L2.61262 4.03L2.67552 3.94292L2.482 3.6865L2.54973 3.59942L2.23042 3.17368V2.99951L2.67552 3.59942L2.61262 3.6865L2.80614 3.94292L2.67552 4.11224L2.80614 4.28641L2.99966 4.03L3.44959 4.63958L2.99966 5.22498L2.80614 4.96856L2.67552 5.13789L2.80614 5.30722L2.61262 5.56847L2.67552 5.65072L2.23042 6.25063L2.22559 6.25547Z" fill="#FAAE29"/>
<path fill-rule="evenodd" clip-rule="evenodd" d="M2.22559 4.1123L2.29332 4.28647V4.54288H2.48684L2.61262 4.62997L2.48684 4.71221H2.29332V4.97346L2.23042 5.14279V4.1123H2.22559Z" fill="#FAAE29"/>
<path fill-rule="evenodd" clip-rule="evenodd" d="M2.22559 10.3726V10.1984L2.54973 9.7727L2.482 9.68562L2.67552 9.4292L2.61262 9.33728L2.482 9.50661L2.4191 9.43404L2.86904 8.83413L2.93193 8.91638L2.86904 9.00346L2.99966 9.17763L3.31897 8.74705L2.99482 8.33098L2.86904 8.49064L2.93193 8.57772L2.86904 8.65997L2.4191 8.06006L2.482 7.97781L2.61262 8.14714L2.67552 8.06006L2.482 7.80365L2.54973 7.7214L2.23042 7.28598V7.11182L2.67552 7.71172L2.61262 7.79881L2.80614 8.05522L2.67552 8.22939L2.80614 8.39872L2.99966 8.1423L3.44959 8.75189L2.99966 9.34212L2.80614 9.08571L2.67552 9.25504L2.80614 9.43404L2.61262 9.69045L2.67552 9.77754L2.23042 10.3774L2.22559 10.3726Z" fill="#FAAE29"/>
<path fill-rule="evenodd" clip-rule="evenodd" d="M2.22559 8.22461L2.29332 8.39878V8.65519H2.48684L2.61262 8.74227L2.48684 8.82936H2.29332V9.08577L2.23042 9.2551V8.22945L2.22559 8.22461Z" fill="#FAAE29"/>
<path fill-rule="evenodd" clip-rule="evenodd" d="M2.22559 14.4847V14.3154L2.54973 13.8848L2.482 13.7977L2.67552 13.5413L2.61262 13.4591L2.482 13.6284L2.4191 13.5413L2.86904 12.9414L2.93193 13.0285L2.86904 13.1156L2.99966 13.2849L3.31897 12.8543L2.99482 12.4383L2.86904 12.5979L2.93193 12.685L2.86904 12.7721L2.4191 12.1722L2.482 12.0851L2.61262 12.2544L2.67552 12.1722L2.482 11.9158L2.54973 11.8287L2.23042 11.3981V11.2288L2.67552 11.8287L2.61262 11.9158L2.80614 12.1722L2.67552 12.3415L2.80614 12.5157L2.99966 12.2592L3.44959 12.8688L2.99966 13.4591L2.80614 13.1978L2.67552 13.372L2.80614 13.5413L2.61262 13.7977L2.67552 13.8848L2.23042 14.4847H2.22559Z" fill="#FAAE29"/>
<path fill-rule="evenodd" clip-rule="evenodd" d="M2.22559 12.3415L2.29332 12.5157V12.7721H2.48684L2.61262 12.8592L2.48684 12.9414H2.29332V13.1978L2.23042 13.372V12.3367L2.22559 12.3415Z" fill="#FAAE29"/>
<path fill-rule="evenodd" clip-rule="evenodd" d="M2.22559 18.3407V18.1714L2.54973 17.7408L2.482 17.6586L2.67552 17.3973L2.61262 17.3199L2.482 17.4892L2.4191 17.4021L2.86904 16.8022L2.93193 16.8893L2.86904 16.9764L2.99966 17.1506L3.31897 16.7152L2.99482 16.3039L2.86904 16.4636L2.93193 16.5458L2.86904 16.6329L2.4191 16.033L2.482 15.9459L2.61262 16.1201L2.67552 16.033L2.482 15.7766L2.54973 15.6895L2.23042 15.2638V15.0896L2.67552 15.6895L2.61262 15.7718L2.80614 16.0282L2.67552 16.1975L2.80614 16.3717L2.99966 16.1152L3.44959 16.7248L2.99966 17.3151L2.80614 17.0587L2.67552 17.228L2.80614 17.3973L2.61262 17.6586L2.67552 17.7408L2.23042 18.3407H2.22559Z" fill="#FAAE29"/>
<path fill-rule="evenodd" clip-rule="evenodd" d="M2.22559 16.1975L2.29332 16.3716V16.628H2.48684L2.61262 16.7151L2.48684 16.7974H2.29332V17.0586L2.22559 17.2231V16.1926V16.1975Z" fill="#FAAE29"/>
<path fill-rule="evenodd" clip-rule="evenodd" d="M9.94182 6.25547V6.08614L9.62252 5.65556L9.68541 5.57331L9.49189 5.31206L9.55962 5.22982L9.69025 5.39914L9.75314 5.31206L9.30321 4.71215L9.23548 4.79924L9.30321 4.88632L9.16775 5.06049L8.85328 4.62507L9.17259 4.21384L9.30321 4.37349L9.23548 4.45574L9.30321 4.54282L9.75314 3.94292L9.68541 3.85583L9.55962 4.03L9.49673 3.94292L9.69025 3.6865L9.62252 3.59942L9.94182 3.16884V2.99951L9.49673 3.59942L9.55962 3.6865L9.36611 3.94292L9.49673 4.11224L9.36611 4.28641L9.17259 4.03L8.72266 4.63958L9.17259 5.22982L9.36611 4.9734L9.49673 5.14273L9.36611 5.31206L9.55962 5.57331L9.49673 5.65556L9.94182 6.25547Z" fill="#FAAE29"/>
<path fill-rule="evenodd" clip-rule="evenodd" d="M9.94172 4.1123L9.87883 4.28647V4.54288H9.68531L9.55469 4.62997L9.68531 4.71221H9.87883V4.97346L9.94172 5.14279V4.1123Z" fill="#FAAE29"/>
<path fill-rule="evenodd" clip-rule="evenodd" d="M9.96619 10.3724V10.1982L9.64205 9.7725L9.70978 9.68542L9.51626 9.429L9.57916 9.34192L9.70978 9.51609L9.77267 9.429L9.32274 8.8291L9.25985 8.91134L9.32274 8.99842L9.19212 9.17259L8.87281 8.74201L9.19696 8.32595L9.32274 8.4856L9.25985 8.57268L9.32274 8.65493L9.77267 8.05502L9.70978 7.97278L9.57916 8.1421L9.51626 8.05502L9.70978 7.79861L9.64689 7.71636L9.96136 7.28095V7.11646L9.51626 7.71636L9.57916 7.79861L9.38564 8.05502L9.51626 8.22919L9.38564 8.39852L9.19212 8.1421L8.74219 8.75169L9.19696 9.34192L9.39048 9.08551L9.51626 9.25484L9.38564 9.429L9.57916 9.68542L9.51626 9.7725L9.96619 10.3724Z" fill="#FAAE29"/>
<path fill-rule="evenodd" clip-rule="evenodd" d="M9.96614 8.22437L9.89841 8.39853V8.65494H9.70489L9.5791 8.74203L9.70489 8.82911H9.89841V9.08552L9.9613 9.25485V8.2292L9.96614 8.22437Z" fill="#FAAE29"/>
<path fill-rule="evenodd" clip-rule="evenodd" d="M9.94187 14.4847V14.3154L9.6274 13.8848L9.6903 13.7977L9.49678 13.5413L9.56451 13.4591L9.69513 13.6284L9.75803 13.5413L9.3081 12.9414L9.24036 13.0285L9.3081 13.1156L9.17263 13.2849L8.85816 12.8543L9.17747 12.4383L9.3081 12.5979L9.24036 12.685L9.3081 12.7721L9.75803 12.1722L9.6903 12.0851L9.56451 12.2544L9.50161 12.1722L9.69513 11.9158L9.6274 11.8287L9.94671 11.3981V11.2288L9.50161 11.8287L9.56451 11.9158L9.37099 12.1722L9.50161 12.3415L9.37099 12.5157L9.17747 12.2592L8.72754 12.8688L9.17747 13.4591L9.37099 13.1978L9.50161 13.372L9.37099 13.5413L9.56451 13.7977L9.50161 13.8848L9.94671 14.4847H9.94187Z" fill="#FAAE29"/>
<path fill-rule="evenodd" clip-rule="evenodd" d="M9.94172 12.3415L9.87883 12.5157V12.7721H9.68531L9.55469 12.8592L9.68531 12.9414H9.87883V13.1978L9.94172 13.372V12.3367V12.3415Z" fill="#FAAE29"/>
<path fill-rule="evenodd" clip-rule="evenodd" d="M9.94182 18.3407V18.1713L9.62252 17.7408L9.68541 17.6585L9.49189 17.3973L9.55962 17.315L9.69025 17.4843L9.75314 17.3973L9.30321 16.7974L9.23548 16.8844L9.30321 16.9715L9.16775 17.1457L8.85328 16.7103L9.17259 16.299L9.30321 16.4587L9.23548 16.5409L9.30321 16.628L9.75314 16.0281L9.68541 15.941L9.55962 16.1152L9.49673 16.0281L9.69025 15.7717L9.62252 15.6846L9.94182 15.2589V15.0847L9.49673 15.6846L9.55962 15.7717L9.36611 16.0281L9.49673 16.1974L9.36611 16.3716L9.17259 16.1152L8.72266 16.7248L9.17259 17.315L9.36611 17.0586L9.49673 17.2279L9.36611 17.3973L9.55962 17.6585L9.49673 17.7408L9.94182 18.3407Z" fill="#FAAE29"/>
<path fill-rule="evenodd" clip-rule="evenodd" d="M9.94172 16.1975L9.87883 16.3717V16.6281H9.68531L9.55469 16.7152L9.68531 16.7974H9.87883V17.0587L9.94172 17.228V16.1975Z" fill="#FAAE29"/>
<path fill-rule="evenodd" clip-rule="evenodd" d="M2.22559 1.63031V1.4513L2.54973 1.02556L2.482 0.938476L2.67552 0.682064L2.61262 0.59498L2.482 0.764309L2.4191 0.682064L2.86904 0.0821558L2.93193 0.164401L2.86904 0.251485L2.99966 0.435328L3.31897 -8.96873e-05H3.44959L2.99966 0.599818L2.80614 0.343406L2.67552 0.512735L2.80614 0.686902L2.61262 0.943314L2.67552 1.0304L2.23042 1.63031H2.22559ZM2.22559 -8.96873e-05H2.61262L2.48684 0.0869938H2.29332V0.338568L2.23042 0.507897V-8.96873e-05H2.22559ZM9.94215 1.63031V1.4513L9.62284 1.02556L9.68573 0.938476L9.49222 0.682064L9.55995 0.59498L9.68573 0.764309L9.75347 0.682064L9.30353 0.0821558L9.2358 0.164401L9.30353 0.251485L9.16807 0.425652L8.8536 -0.00976562H8.72298L9.17291 0.59498L9.36643 0.338568L9.49705 0.507897L9.36643 0.682064L9.55995 0.938476L9.49705 1.02556L9.94215 1.62547V1.63031ZM9.94215 -8.96873e-05H9.55511L9.68573 0.0869938H9.87925V0.338568L9.94215 0.507897V-8.96873e-05ZM5.44284 23.6576C5.44284 23.6576 5.7186 23.1738 6.4201 23.0238C7.11677 22.8787 7.23772 23.3479 7.63444 23.3479C8.03115 23.3479 8.66492 23.0238 8.66492 23.0238C8.66492 23.0238 8.03599 23.6431 7.54735 23.6286C7.06355 23.614 6.89423 23.3044 6.39592 23.3479C5.8976 23.3963 5.44284 23.6721 5.44284 23.6576Z" fill="#FAAE29"/>
<path fill-rule="evenodd" clip-rule="evenodd" d="M6.78752 23.6575C6.78752 23.6575 6.51175 23.1737 5.81509 23.0237C5.11842 22.8786 4.99263 23.3478 4.59592 23.3478C4.1992 23.3478 3.56543 23.0237 3.56543 23.0237C3.56543 23.0237 4.1992 23.643 4.68784 23.6285C5.17164 23.6139 5.34096 23.3043 5.83928 23.3478C6.33759 23.3962 6.78752 23.672 6.78752 23.6575Z" fill="#FAAE29"/>
<path fill-rule="evenodd" clip-rule="evenodd" d="M4.50976 22.8545C4.44686 22.7238 4.29689 22.1626 4.37429 22.0949C4.50008 22.0465 4.82422 22.6222 4.7952 23.1351C4.58233 23.2512 3.85663 23.0867 3.86631 22.9367C3.91469 22.7238 4.32591 22.7916 4.50976 22.8545Z" fill="#FAAE29"/>
<path fill-rule="evenodd" clip-rule="evenodd" d="M4.06946 22.3659C4.03076 22.2207 3.96787 21.6305 4.05979 21.5821C4.18557 21.5725 4.4178 22.2207 4.30652 22.7142C4.07914 22.7723 3.39215 22.4143 3.42601 22.2643C3.50826 22.0708 3.90013 22.2546 4.06946 22.3611V22.3659Z" fill="#FAAE29"/>
<path fill-rule="evenodd" clip-rule="evenodd" d="M3.71594 21.8192C3.68692 21.6692 3.67724 21.0693 3.76916 21.0403C3.89979 21.0451 4.06912 21.7273 3.9143 22.2014C3.68692 22.2207 3.03863 21.7563 3.08217 21.6208C3.17893 21.437 3.55145 21.6789 3.71111 21.8144L3.71594 21.8192Z" fill="#FAAE29"/>
<path fill-rule="evenodd" clip-rule="evenodd" d="M3.43558 21.2288C3.42107 21.0789 3.48396 20.4886 3.58072 20.4741C3.70651 20.508 3.79359 21.2192 3.59039 21.6546C3.35817 21.6256 2.76794 21.0305 2.83083 20.9047C2.95178 20.7499 3.29044 21.0644 3.43074 21.2288H3.43558Z" fill="#FAAE29"/>
<path fill-rule="evenodd" clip-rule="evenodd" d="M3.23706 20.6193C3.2419 20.4645 3.36769 19.8936 3.46445 19.8985C3.58056 19.9565 3.59507 20.6774 3.3435 21.0693C3.12095 20.9967 2.60329 20.2952 2.67586 20.1791C2.81132 20.0484 3.11128 20.4258 3.23706 20.6145V20.6193Z" fill="#FAAE29"/>
<path fill-rule="evenodd" clip-rule="evenodd" d="M3.29047 19.9226C3.27596 20.5322 3.16468 20.537 2.96149 20.0871C2.8744 19.9178 2.86473 19.2163 2.94214 19.1873C3.05825 19.1873 3.28563 19.6856 3.29047 19.9226Z" fill="#FAAE29"/>
<path fill-rule="evenodd" clip-rule="evenodd" d="M7.6925 22.9174C7.75055 22.7917 7.90537 22.2256 7.82312 22.1579C7.69734 22.1095 7.37319 22.6852 7.40222 23.198C7.61993 23.3142 8.34562 23.1497 8.33595 22.9997C8.28273 22.7917 7.8715 22.8594 7.68766 22.9174H7.6925Z" fill="#FAAE29"/>
<path fill-rule="evenodd" clip-rule="evenodd" d="M8.1277 22.4289C8.1664 22.2837 8.22929 21.6935 8.14221 21.6451C8.01158 21.6354 7.77936 22.2886 7.89064 22.782C8.11802 22.8353 8.80985 22.4773 8.77115 22.3321C8.6889 22.1386 8.29702 22.3176 8.1277 22.4289Z" fill="#FAAE29"/>
<path fill-rule="evenodd" clip-rule="evenodd" d="M8.48583 21.8773C8.51002 21.7322 8.52453 21.1323 8.42777 21.1033C8.30198 21.1129 8.12782 21.7951 8.28263 22.2644C8.51485 22.2886 9.16314 21.8193 9.11476 21.6838C9.018 21.5048 8.64548 21.7467 8.48583 21.8773Z" fill="#FAAE29"/>
<path fill-rule="evenodd" clip-rule="evenodd" d="M8.76623 21.2967C8.77591 21.1419 8.71785 20.5517 8.62109 20.542C8.49531 20.5759 8.40338 21.2822 8.61142 21.7225C8.8388 21.6934 9.42903 21.0935 9.36614 20.9677C9.24519 20.8129 8.91137 21.1274 8.76623 21.2967Z" fill="#FAAE29"/>
<path fill-rule="evenodd" clip-rule="evenodd" d="M8.96016 20.6823C8.95532 20.5323 8.83437 19.9566 8.73761 19.9615C8.61666 20.0195 8.60215 20.7404 8.85372 21.1322C9.08111 21.0597 9.59393 20.3582 9.52136 20.2469C9.3859 20.1163 9.08595 20.4888 8.96016 20.6823Z" fill="#FAAE29"/>
<path fill-rule="evenodd" clip-rule="evenodd" d="M8.90723 19.9856C8.92658 20.5952 9.03785 20.6049 9.23621 20.1501C9.32813 19.9808 9.33781 19.2793 9.25556 19.2502C9.13945 19.2502 8.91206 19.7534 8.90723 19.9856Z" fill="#FAAE29"/>
<path fill-rule="evenodd" clip-rule="evenodd" d="M8.74428 15.4181H8.36061V15.6755H7.99089V15.9328H6.51202L6.26089 16.1976L6.38645 16.3299H7.0073L7.12589 16.1976H6.51202L6.63061 16.0652H7.49561L7.12589 16.4549H6.26786L6.02371 16.3299L5.77258 16.4549H4.90758L4.53786 16.0652H5.40286L5.52843 16.1976H4.90758L5.03315 16.3299H5.65399L5.77258 16.1976L5.52843 15.9328H4.16815V15.6755H3.79843V15.4181H3.42871V14.2415H3.79843V13.9841H4.16815V13.7194H5.52843L5.77258 13.462L5.65399 13.3296H5.03315L4.90758 13.462H5.52843L5.40286 13.587H4.53786L4.90758 13.1973H5.77956L6.03069 13.3296L6.27484 13.1973H7.13984L7.50956 13.587H6.64456L6.52597 13.462H7.13984L7.01428 13.3296H6.4004L6.26786 13.462L6.51899 13.7194H7.99786V13.9841H8.36758V14.2415H8.74428V15.4181Z" fill="#CA3745" stroke="black" stroke-width="0.0190993"/>
<path fill-rule="evenodd" clip-rule="evenodd" d="M3.55273 14.3784V15.2903H3.92245V15.5477H4.29216V15.805H5.53035L6.02562 16.1985L6.51741 15.8087H7.87768V15.5513L8.24739 15.5477V15.2903H8.62408V14.3747H8.25088V14.1174H7.88116V13.8526H6.5209L6.02911 13.4629L5.53384 13.8526H4.29565V14.1174H3.92593V14.3747H3.55622L3.55273 14.3784Z" fill="#00843D" stroke="#FAAE29" stroke-width="0.127328"/>
<path fill-rule="evenodd" clip-rule="evenodd" d="M5.28153 13.9802L4.54102 14.6326V13.9802H5.28153ZM6.76255 13.9802L7.50775 14.6326V13.9802H6.76255ZM5.28153 15.6763L4.54102 15.024V15.6763H5.28153ZM6.76255 15.6763L7.50775 15.024V15.6763H6.76255ZM7.01095 14.3716L6.76255 14.6326H7.25935L7.01095 14.3716ZM5.03313 14.3716L4.78942 14.6326H5.28153L5.03313 14.3716ZM5.03313 15.2849L4.78942 15.024H5.28153L5.03313 15.2849ZM7.01095 15.2849L6.76255 15.024H7.25935L7.01095 15.2849Z" fill="#CA3745"/>
<path fill-rule="evenodd" clip-rule="evenodd" d="M6.02184 15.9374L5.77344 15.6765H6.27024L6.02184 15.9374ZM6.02184 14.6328L5.77344 14.3718H6.27024L6.02184 14.6328ZM6.02184 13.7195L5.77344 13.9863H6.27024L6.02184 13.7195ZM6.02184 15.0242L5.77344 15.2851H6.27024L6.02184 15.0242Z" fill="#FAAE29"/>
<path fill-rule="evenodd" clip-rule="evenodd" d="M6.76465 14.6357H7.26341V14.7644H6.76814L6.76465 14.6357Z" fill="#FAAE29" stroke="black" stroke-width="0.0095496"/>
<path fill-rule="evenodd" clip-rule="evenodd" d="M4.91309 14.7646H5.15724V14.897H4.91309V14.7646ZM6.8907 14.7646H7.13485V14.897H6.8907V14.7646Z" fill="#CC0000" stroke="black" stroke-width="0.0095496"/>
<path fill-rule="evenodd" clip-rule="evenodd" d="M5.77832 13.9851H6.27011V14.1138H5.77832V13.9851ZM5.77832 14.2425H6.27011V14.3749H5.77832V14.2425Z" fill="#990000" stroke="black" stroke-width="0.0095496"/>
<path fill-rule="evenodd" clip-rule="evenodd" d="M5.65234 14.1138H6.39526V14.2461H5.65234V14.1138ZM5.77791 15.2904H6.26969V15.4154H5.77791V15.2904ZM5.77791 15.5477H6.26969V15.6764H5.77791V15.5477ZM5.65234 15.419H6.39526V15.5477H5.65234V15.419Z" fill="#990000" stroke="black" stroke-width="0.0095496"/>
<path fill-rule="evenodd" clip-rule="evenodd" d="M6.76473 14.8968H7.26349V15.0255H6.76822L6.76473 14.8968ZM4.78711 14.6357H5.28239V14.7644H4.78711V14.6357ZM4.78711 14.8931H5.28239V15.0255H4.78711V14.8931ZM4.66504 14.7644H4.90919V14.8968H4.66504V14.7644ZM5.16032 14.7644H5.40447V14.8968H5.16032V14.7644ZM6.64265 14.7644H6.8868V14.8968H6.64265V14.7644ZM7.13793 14.7644H7.38208V14.8968H7.13793V14.7644Z" fill="#FAAE29" stroke="black" stroke-width="0.0095496"/>
<path d="M5.72084 15.5103C5.73818 15.5103 5.75224 15.4955 5.75224 15.4772C5.75224 15.4589 5.73818 15.4441 5.72084 15.4441C5.70351 15.4441 5.68945 15.4589 5.68945 15.4772C5.68945 15.4955 5.70351 15.5103 5.72084 15.5103Z" fill="white"/>
<path d="M6.02456 15.5103C6.04189 15.5103 6.05595 15.4955 6.05595 15.4772C6.05595 15.4589 6.04189 15.4441 6.02456 15.4441C6.00722 15.4441 5.99316 15.4589 5.99316 15.4772C5.99316 15.4955 6.00722 15.5103 6.02456 15.5103Z" fill="white"/>
<path d="M6.33413 15.5103C6.35146 15.5103 6.36552 15.4955 6.36552 15.4772C6.36552 15.4589 6.35146 15.4441 6.33413 15.4441C6.31679 15.4441 6.30273 15.4589 6.30273 15.4772C6.30273 15.4955 6.31679 15.5103 6.33413 15.5103Z" fill="white"/>
<path d="M5.84194 15.3858C5.85928 15.3858 5.87333 15.3709 5.87333 15.3527C5.87333 15.3344 5.85928 15.3196 5.84194 15.3196C5.8246 15.3196 5.81055 15.3344 5.81055 15.3527C5.81055 15.3709 5.8246 15.3858 5.84194 15.3858Z" fill="white"/>
<path d="M6.20815 15.3858C6.22549 15.3858 6.23954 15.3709 6.23954 15.3527C6.23954 15.3344 6.22549 15.3196 6.20815 15.3196C6.19081 15.3196 6.17676 15.3344 6.17676 15.3527C6.17676 15.3709 6.19081 15.3858 6.20815 15.3858Z" fill="white"/>
<path d="M5.83803 15.6406C5.85537 15.6406 5.86942 15.6258 5.86942 15.6076C5.86942 15.5893 5.85537 15.5745 5.83803 15.5745C5.8207 15.5745 5.80664 15.5893 5.80664 15.6076C5.80664 15.6258 5.8207 15.6406 5.83803 15.6406Z" fill="white"/>
<path d="M6.20815 15.6468C6.22549 15.6468 6.23954 15.6319 6.23954 15.6137C6.23954 15.5954 6.22549 15.5806 6.20815 15.5806C6.19081 15.5806 6.17676 15.5954 6.17676 15.6137C6.17676 15.6319 6.19081 15.6468 6.20815 15.6468Z" fill="white"/>
<path d="M6.70034 14.8579C6.71767 14.8579 6.73173 14.8431 6.73173 14.8248C6.73173 14.8066 6.71767 14.7917 6.70034 14.7917C6.683 14.7917 6.66895 14.8066 6.66895 14.8248C6.66895 14.8431 6.683 14.8579 6.70034 14.8579Z" fill="white"/>
<path d="M7.00893 14.8579C7.02627 14.8579 7.04032 14.8431 7.04032 14.8248C7.04032 14.8066 7.02627 14.7917 7.00893 14.7917C6.99159 14.7917 6.97754 14.8066 6.97754 14.8248C6.97754 14.8431 6.99159 14.8579 7.00893 14.8579Z" fill="white"/>
<path d="M7.3185 14.8579C7.33584 14.8579 7.34989 14.8431 7.34989 14.8248C7.34989 14.8066 7.33584 14.7917 7.3185 14.7917C7.30116 14.7917 7.28711 14.8066 7.28711 14.8248C7.28711 14.8431 7.30116 14.8579 7.3185 14.8579Z" fill="white"/>
<path d="M6.82631 14.7273C6.84365 14.7273 6.8577 14.7125 6.8577 14.6942C6.8577 14.6759 6.84365 14.6611 6.82631 14.6611C6.80898 14.6611 6.79492 14.6759 6.79492 14.6942C6.79492 14.7125 6.80898 14.7273 6.82631 14.7273Z" fill="white"/>
<path d="M7.19252 14.7273C7.20986 14.7273 7.22391 14.7125 7.22391 14.6942C7.22391 14.6759 7.20986 14.6611 7.19252 14.6611C7.17519 14.6611 7.16113 14.6759 7.16113 14.6942C7.16113 14.7125 7.17519 14.7273 7.19252 14.7273Z" fill="white"/>
<path d="M6.82143 14.9824C6.83877 14.9824 6.85282 14.9676 6.85282 14.9494C6.85282 14.9311 6.83877 14.9163 6.82143 14.9163C6.80409 14.9163 6.79004 14.9311 6.79004 14.9494C6.79004 14.9676 6.80409 14.9824 6.82143 14.9824Z" fill="white"/>
<path d="M7.19252 14.9883C7.20986 14.9883 7.22391 14.9735 7.22391 14.9552C7.22391 14.9369 7.20986 14.9221 7.19252 14.9221C7.17519 14.9221 7.16113 14.9369 7.16113 14.9552C7.16113 14.9735 7.17519 14.9883 7.19252 14.9883Z" fill="white"/>
<path d="M5.71596 14.2114C5.7333 14.2114 5.74735 14.1966 5.74735 14.1784C5.74735 14.1601 5.7333 14.1453 5.71596 14.1453C5.69863 14.1453 5.68457 14.1601 5.68457 14.1784C5.68457 14.1966 5.69863 14.2114 5.71596 14.2114Z" fill="white"/>
<path d="M6.02456 14.2114C6.04189 14.2114 6.05595 14.1966 6.05595 14.1784C6.05595 14.1601 6.04189 14.1453 6.02456 14.1453C6.00722 14.1453 5.99316 14.1601 5.99316 14.1784C5.99316 14.1966 6.00722 14.2114 6.02456 14.2114Z" fill="white"/>
<path d="M6.33413 14.2056C6.35146 14.2056 6.36552 14.1908 6.36552 14.1725C6.36552 14.1542 6.35146 14.1394 6.33413 14.1394C6.31679 14.1394 6.30273 14.1542 6.30273 14.1725C6.30273 14.1908 6.31679 14.2056 6.33413 14.2056Z" fill="white"/>
<path d="M5.83803 14.0811C5.85537 14.0811 5.86942 14.0663 5.86942 14.048C5.86942 14.0297 5.85537 14.0149 5.83803 14.0149C5.8207 14.0149 5.80664 14.0297 5.80664 14.048C5.80664 14.0663 5.8207 14.0811 5.83803 14.0811Z" fill="white"/>
<path d="M6.20815 14.0811C6.22549 14.0811 6.23954 14.0663 6.23954 14.048C6.23954 14.0297 6.22549 14.0149 6.20815 14.0149C6.19081 14.0149 6.17676 14.0297 6.17676 14.048C6.17676 14.0663 6.19081 14.0811 6.20815 14.0811Z" fill="white"/>
<path d="M5.83803 14.336C5.85537 14.336 5.86942 14.3211 5.86942 14.3029C5.86942 14.2846 5.85537 14.2698 5.83803 14.2698C5.8207 14.2698 5.80664 14.2846 5.80664 14.3029C5.80664 14.3211 5.8207 14.336 5.83803 14.336Z" fill="white"/>
<path d="M6.20815 14.3421C6.22549 14.3421 6.23954 14.3272 6.23954 14.309C6.23954 14.2907 6.22549 14.2759 6.20815 14.2759C6.19081 14.2759 6.17676 14.2907 6.17676 14.309C6.17676 14.3272 6.19081 14.3421 6.20815 14.3421Z" fill="white"/>
<path d="M4.7267 14.8697C4.74404 14.8697 4.75809 14.8548 4.75809 14.8366C4.75809 14.8183 4.74404 14.8035 4.7267 14.8035C4.70937 14.8035 4.69531 14.8183 4.69531 14.8366C4.69531 14.8548 4.70937 14.8697 4.7267 14.8697Z" fill="white"/>
<path d="M5.03627 14.8697C5.05361 14.8697 5.06766 14.8548 5.06766 14.8366C5.06766 14.8183 5.05361 14.8035 5.03627 14.8035C5.01894 14.8035 5.00488 14.8183 5.00488 14.8366C5.00488 14.8548 5.01894 14.8697 5.03627 14.8697Z" fill="white"/>
<path d="M5.34584 14.8638C5.36318 14.8638 5.37724 14.849 5.37724 14.8307C5.37724 14.8124 5.36318 14.7976 5.34584 14.7976C5.32851 14.7976 5.31445 14.8124 5.31445 14.8307C5.31445 14.849 5.32851 14.8638 5.34584 14.8638Z" fill="white"/>
<path d="M4.85366 14.7393C4.87099 14.7393 4.88505 14.7245 4.88505 14.7062C4.88505 14.6879 4.87099 14.6731 4.85366 14.6731C4.83632 14.6731 4.82227 14.6879 4.82227 14.7062C4.82227 14.7245 4.83632 14.7393 4.85366 14.7393Z" fill="white"/>
<path d="M5.21889 14.7393C5.23623 14.7393 5.25028 14.7245 5.25028 14.7062C5.25028 14.6879 5.23623 14.6731 5.21889 14.6731C5.20155 14.6731 5.1875 14.6879 5.1875 14.7062C5.1875 14.7245 5.20155 14.7393 5.21889 14.7393Z" fill="white"/>
<path d="M4.84877 14.9944C4.86611 14.9944 4.88016 14.9796 4.88016 14.9613C4.88016 14.943 4.86611 14.9282 4.84877 14.9282C4.83144 14.9282 4.81738 14.943 4.81738 14.9613C4.81738 14.9796 4.83144 14.9944 4.84877 14.9944Z" fill="white"/>
<path d="M5.21889 15.0003C5.23623 15.0003 5.25028 14.9855 5.25028 14.9672C5.25028 14.9489 5.23623 14.9341 5.21889 14.9341C5.20155 14.9341 5.1875 14.9489 5.1875 14.9672C5.1875 14.9855 5.20155 15.0003 5.21889 15.0003Z" fill="white"/>
<path fill-rule="evenodd" clip-rule="evenodd" d="M6.5116 11.9885L6.72447 11.8918L6.93734 11.9885H6.5116ZM5.87299 11.9885L6.08586 11.8918L6.29873 11.9885H5.87299ZM5.23438 11.9885L5.44725 11.8918L5.66012 11.9885H5.23438ZM6.5116 9.69531L6.72447 9.79691L6.93734 9.70015H6.5116V9.69531ZM5.87299 9.69531L6.08586 9.79691L6.29873 9.70015H5.87299V9.69531ZM5.23438 9.69531L5.44725 9.79691L5.66012 9.70015H5.23438V9.69531Z" fill="white"/>
<path fill-rule="evenodd" clip-rule="evenodd" d="M6.33731 12.2884L6.08573 12.4868L5.839 12.2884L5.58742 12.4868L5.34552 12.2884V12.3852L5.50518 12.4868L5.42293 12.5835V12.6851H5.50518L5.58742 12.5884L5.66967 12.6851H5.75191V12.5884L5.66967 12.4868L5.839 12.39L6.00349 12.4868L5.92124 12.5835V12.6851H6.00349L6.08573 12.5884L6.16798 12.6851H6.25022V12.5884L6.16798 12.4868L6.33247 12.39L6.49696 12.4868L6.41471 12.5835V12.6851H6.49696L6.57921 12.5884L6.66145 12.6851H6.7437V12.5884L6.66145 12.4868L6.83078 12.39V12.2884L6.57921 12.4819L6.33731 12.2836V12.2884ZM6.33731 9.40013L6.08573 9.19694L5.839 9.40013L5.58742 9.19694L5.34552 9.40013V9.29853L5.50518 9.20177L5.42293 9.10018V9.00342H5.50518L5.58742 9.10018L5.66967 9.00342H5.75675V9.10018L5.6745 9.19694L5.839 9.29853L6.00349 9.20177L5.92124 9.10018V9.00342H6.00349L6.08573 9.10018L6.16798 9.00342H6.25022V9.10018L6.16798 9.19694L6.33247 9.29853L6.49696 9.20177L6.41471 9.10018V9.00342H6.49696L6.57921 9.10018L6.66145 9.00342H6.74853V9.10018L6.66629 9.19694L6.83078 9.29853V9.39529L6.57921 9.20177L6.33731 9.39529V9.40013ZM8.2096 11.0596L8.47569 10.8418L8.2096 10.629L8.47569 10.4113L8.2096 10.1936H8.34506L8.47569 10.3387L8.61115 10.2661H8.74178V10.3387L8.61115 10.4113L8.74178 10.4838V10.5564H8.61115L8.47569 10.4838L8.34506 10.629L8.47569 10.7741L8.61115 10.6967H8.74178V10.7693L8.61115 10.8418L8.74178 10.9144V10.987H8.61115L8.47569 10.9144L8.34506 11.0596L8.47569 11.2047L8.61115 11.1321H8.74178V11.2047L8.61115 11.2724L8.74178 11.345V11.4176H8.61115L8.47569 11.345L8.34506 11.4901H8.2096L8.47569 11.2724L8.2096 11.0596ZM3.95703 11.0596L3.69094 10.8418L3.95703 10.629L3.69094 10.4113L3.95703 10.1936H3.8264L3.69094 10.3387L3.56031 10.2661H3.42969V10.3387L3.56031 10.4113L3.42969 10.4838V10.5564H3.56031L3.69578 10.4838L3.8264 10.629L3.69094 10.7741L3.56031 10.6967H3.42969V10.7693L3.56031 10.8418L3.42969 10.9144V10.987H3.56031L3.69578 10.9144L3.8264 11.0596L3.69094 11.2047L3.56031 11.1321H3.42969V11.2047L3.56031 11.2724L3.42969 11.345V11.4176H3.56031L3.69578 11.345L3.8264 11.4901H3.95703L3.69094 11.2724L3.95703 11.0596Z" fill="#00843D"/>
<path fill-rule="evenodd" clip-rule="evenodd" d="M8.31739 11.7888H8.42538V11.8844H8.31739V11.7888ZM8.20941 11.8844H8.31739V11.9856H8.21541L8.20941 11.8844ZM7.68149 12.3848H7.78947V12.486H7.68149V12.3848ZM7.78947 12.2836H7.89146V12.3848H7.78947V12.2836ZM4.28001 12.2836H4.388V12.3848H4.27401L4.28001 12.2836ZM3.74609 11.7888H3.85408V11.8844H3.74609V11.7888ZM3.85408 11.8844H3.96206V11.9856H3.85408V11.8844ZM3.85408 9.69157H3.96206V9.79278H3.85408V9.69157ZM3.74609 9.79278H3.85408V9.89399H3.74609V9.79278ZM4.388 9.19678H4.48998V9.29799H4.39399L4.388 9.19678ZM4.28001 9.29799H4.388V9.39919H4.27401L4.28001 9.29799ZM7.68149 9.19678H7.78947V9.29799H7.68149V9.19678ZM7.78947 9.29799H7.89146V9.39919H7.78947V9.29799ZM8.20941 9.69157H8.31739V9.79278H8.21541L8.20941 9.69157ZM8.31739 9.7984H8.42538V9.89399H8.31739V9.7984ZM4.39399 12.3848H4.49598V12.486H4.39399V12.3848Z" fill="#00843D"/>
<path d="M8.31739 11.8844H8.42538V11.7888H8.31739V11.8844ZM8.31739 11.8844H8.20941L8.21541 11.9856H8.31739V11.8844ZM7.78947 12.3848H7.68149V12.486H7.78947V12.3848ZM7.78947 12.3848H7.89146V12.2836H7.78947V12.3848ZM3.85408 11.8844V11.7888H3.74609V11.8844H3.85408ZM3.85408 11.8844H3.96206V11.9856H3.85408V11.8844ZM3.85408 9.79278H3.96206V9.69157H3.85408V9.79278ZM3.85408 9.79278H3.74609V9.89399H3.85408V9.79278ZM7.78947 9.29799V9.19678H7.68149V9.29799H7.78947ZM7.78947 9.29799H7.89146V9.39919H7.78947V9.29799ZM4.28001 12.2836H4.388V12.3848H4.27401L4.28001 12.2836ZM4.388 9.19678H4.48998V9.29799H4.39399L4.388 9.19678ZM4.28001 9.29799H4.388V9.39919H4.27401L4.28001 9.29799ZM8.20941 9.69157H8.31739V9.79278H8.21541L8.20941 9.69157ZM8.31739 9.7984H8.42538V9.89399H8.31739V9.7984ZM4.39399 12.3848H4.49598V12.486H4.39399V12.3848Z" stroke="black" stroke-width="0.0464627"/>
<path fill-rule="evenodd" clip-rule="evenodd" d="M5.7569 10.8419H5.44727V10.6483H5.6553V10.4645H5.86333V10.2952H6.0762V10.5032C5.90203 10.5032 5.76173 10.6483 5.76173 10.8419H5.7569Z" fill="white"/>
<path fill-rule="evenodd" clip-rule="evenodd" d="M6.3858 10.8419H6.70027V10.6483H6.49224V10.4645H6.2842V10.2952H6.07617V10.5032C6.2455 10.5032 6.3858 10.6483 6.3858 10.8419Z" fill="#FAAE29"/>
<path fill-rule="evenodd" clip-rule="evenodd" d="M6.3858 10.8418H6.70027V11.0353H6.49224V11.224H6.2842V11.3885H6.07617V11.1805C6.2455 11.1805 6.3858 11.0353 6.3858 10.8418Z" fill="white"/>
<path fill-rule="evenodd" clip-rule="evenodd" d="M5.7569 10.8418H5.44727V11.0353H5.6553V11.224H5.86333V11.3885H6.0762V11.1805C5.90203 11.1805 5.76173 11.0353 5.76173 10.8418H5.7569Z" fill="#FAAE29"/>
<path fill-rule="evenodd" clip-rule="evenodd" d="M6.3858 10.8418H6.07617V10.5032C6.2455 10.5032 6.3858 10.658 6.3858 10.8418Z" fill="#00843D"/>
<path fill-rule="evenodd" clip-rule="evenodd" d="M6.3858 10.8418H6.07617V11.1805C6.2455 11.1805 6.3858 11.0305 6.3858 10.8418Z" fill="#CA3745"/>
<path fill-rule="evenodd" clip-rule="evenodd" d="M5.75684 10.8418H6.07614V11.1805C5.90197 11.1805 5.76167 11.0305 5.76167 10.8418H5.75684Z" fill="#00843D"/>
<path fill-rule="evenodd" clip-rule="evenodd" d="M5.75684 10.8418H6.07614V10.5032C5.90197 10.5032 5.76167 10.658 5.76167 10.8418H5.75684Z" fill="#CA3745"/>
<path fill-rule="evenodd" clip-rule="evenodd" d="M6.40515 12.0851L6.08585 11.8916L5.76654 12.0851L5.44724 11.8916L5.12793 12.0851V11.9883L5.3408 11.8916L5.23436 11.79V11.6932H5.3408L5.44724 11.79L5.55367 11.6932H5.66011V11.79L5.55367 11.8867L5.76654 11.9883L5.97941 11.8916L5.87298 11.79V11.6932H5.97941L6.08585 11.79L6.19228 11.6932H6.29872V11.79L6.19228 11.8867L6.40515 11.9883L6.61802 11.8916L6.51159 11.79V11.6932H6.61802L6.72446 11.79L6.83089 11.6932H6.93733V11.79L6.83089 11.8867L7.04377 11.9883V12.0851L6.72446 11.8916L6.40515 12.0851ZM6.40515 9.59839L6.08585 9.79675L5.76654 9.59839L5.44724 9.79675L5.12793 9.59839V9.69515L5.3408 9.79675L5.23436 9.89351V9.9951H5.3408L5.44724 9.89834L5.55367 9.9951H5.66011V9.89834L5.55367 9.80158L5.76654 9.69515L5.97941 9.79675L5.87298 9.89351V9.9951H5.97941L6.08585 9.89834L6.19228 9.9951H6.29872V9.89834L6.19228 9.80158L6.40515 9.69515L6.61802 9.79675L6.51159 9.89351V9.9951H6.61802L6.72446 9.89834L6.83089 9.9951H6.93733V9.89834L6.83089 9.80158L7.04377 9.69515V9.59839L6.72446 9.79675L6.40515 9.59839ZM7.5711 11.0933L7.41145 10.8417L7.5711 10.595L7.41145 10.3434L7.5711 10.0967H7.49853L7.41629 10.2612L7.33888 10.1789H7.25664V10.2612L7.33888 10.3434L7.25664 10.4257V10.5079H7.33888L7.41629 10.4257L7.49853 10.595L7.41629 10.7595L7.33888 10.6773H7.25664V10.7595L7.33888 10.8417L7.25664 10.924V11.0111H7.33888L7.41629 10.924L7.49853 11.0933L7.41629 11.2578L7.33888 11.1756H7.25664V11.2578L7.33888 11.3401L7.25664 11.4223V11.5094H7.33888L7.41629 11.4223L7.49853 11.5916H7.57594L7.41629 11.3401L7.57594 11.0933H7.5711Z" fill="#00843D"/>
<path fill-rule="evenodd" clip-rule="evenodd" d="M5.12588 9.69718L4.70594 10.0908V11.5864L5.12588 11.9856H7.04558L7.46552 11.592V10.0964L7.03958 9.69718H5.12588ZM5.01789 9.39355L3.95605 10.3944V11.294L5.02389 12.2836H7.14757L8.2094 11.2884V10.3888L7.14757 9.39355H5.02389H5.01789Z" fill="#00843D" stroke="black" stroke-width="0.0619503"/>
<path fill-rule="evenodd" clip-rule="evenodd" d="M5.57609 12.0898L5.74406 12.2923L5.91684 12.0898H5.57129H5.57609Z" fill="#FAAE29" stroke="black" stroke-width="0.0339315"/>
<path fill-rule="evenodd" clip-rule="evenodd" d="M5.57609 9.59863L5.74406 9.39622L5.91684 9.59863H5.57129H5.57609Z" fill="#FAAE29" stroke="black" stroke-width="0.0339315"/>
<path fill-rule="evenodd" clip-rule="evenodd" d="M6.25285 9.59863L6.42082 9.39622L6.59359 9.59863H6.24805H6.25285Z" fill="#FAAE29" stroke="black" stroke-width="0.0339315"/>
<path fill-rule="evenodd" clip-rule="evenodd" d="M6.25285 12.0898L6.42082 12.2923L6.59359 12.0898H6.24805H6.25285Z" fill="#FAAE29" stroke="black" stroke-width="0.0339315"/>
<path fill-rule="evenodd" clip-rule="evenodd" d="M5.23722 9.59863L5.4052 9.39622L5.57797 9.59863H5.23242H5.23722Z" fill="#CA3745" stroke="black" stroke-width="0.0339315"/>
<path fill-rule="evenodd" clip-rule="evenodd" d="M5.91496 9.59863L6.08293 9.39622L6.2557 9.59863H5.91016H5.91496Z" fill="#CA3745" stroke="black" stroke-width="0.0339315"/>
<path fill-rule="evenodd" clip-rule="evenodd" d="M6.5966 9.59863L6.76457 9.39622L6.93734 9.59863H6.5918H6.5966Z" fill="#CA3745" stroke="black" stroke-width="0.0339315"/>
<path fill-rule="evenodd" clip-rule="evenodd" d="M4.81055 11.7903L5.12548 12.0854H4.81055V11.7903Z" fill="#CA3745" stroke="black" stroke-width="0.0696902"/>
<path fill-rule="evenodd" clip-rule="evenodd" d="M4.5957 11.0933L4.75536 10.8417L4.5957 10.595L4.75536 10.3434L4.5957 10.0967H4.67795L4.75536 10.2612L4.8376 10.1789H4.91501V10.2612L4.8376 10.3434L4.91501 10.4257V10.5127H4.8376L4.75536 10.4257L4.67795 10.595L4.75536 10.7595L4.8376 10.6772H4.91501V10.7595L4.8376 10.8417L4.91501 10.924V11.0111H4.8376L4.75536 10.924L4.67795 11.0933L4.75536 11.2578L4.8376 11.1755H4.91501V11.2578L4.8376 11.34L4.91501 11.4223V11.5094H4.8376L4.75536 11.4223L4.67795 11.5916H4.5957L4.75536 11.34L4.5957 11.0933Z" fill="#00843D"/>
<path fill-rule="evenodd" clip-rule="evenodd" d="M7.67871 10.5702H8.10465L8.21263 10.6613L8.10465 10.7524H7.68471V10.5652L7.67871 10.5702Z" fill="#CA3745" stroke="black" stroke-width="0.0440788"/>
<path fill-rule="evenodd" clip-rule="evenodd" d="M4.80819 9.89404L4.59222 10.0965V11.5865L4.80819 11.7889H4.49023V9.89404H4.80819Z" fill="#CA3745" stroke="black" stroke-width="0.0619503"/>
<path fill-rule="evenodd" clip-rule="evenodd" d="M5.23722 12.0898L5.4052 12.2923L5.57797 12.0898H5.23242H5.23722Z" fill="#CA3745" stroke="black" stroke-width="0.0339315"/>
<path fill-rule="evenodd" clip-rule="evenodd" d="M5.91496 12.0898L6.08293 12.2923L6.2557 12.0898H5.91016H5.91496Z" fill="#CA3745" stroke="black" stroke-width="0.0339315"/>
<path fill-rule="evenodd" clip-rule="evenodd" d="M6.5966 12.0898L6.76457 12.2923L6.93734 12.0898H6.5918H6.5966Z" fill="#CA3745" stroke="black" stroke-width="0.0339315"/>
<path fill-rule="evenodd" clip-rule="evenodd" d="M7.35881 9.89404L7.57477 10.0965V11.5865L7.35881 11.7889H7.67676V9.89404H7.35881Z" fill="#CA3745" stroke="black" stroke-width="0.0619503"/>
<path fill-rule="evenodd" clip-rule="evenodd" d="M7.35645 11.7903L7.04151 12.0854H7.35645V11.7903Z" fill="#CA3745" stroke="black" stroke-width="0.0696902"/>
<path fill-rule="evenodd" clip-rule="evenodd" d="M7.35645 9.89332L7.04151 9.59814H7.35645V9.89332Z" fill="#CA3745" stroke="black" stroke-width="0.0696902"/>
<path fill-rule="evenodd" clip-rule="evenodd" d="M4.81055 9.89332L5.12548 9.59814H4.81055V9.89332Z" fill="#CA3745" stroke="black" stroke-width="0.0696902"/>
<path fill-rule="evenodd" clip-rule="evenodd" d="M5.12655 9.69716L4.70662 10.0907V11.5864L5.12655 11.9856H7.04626L7.46619 11.592V10.0964L7.04026 9.69716H5.12655ZM5.12655 9.59595L4.59863 10.0907V11.5864L5.12655 12.0868H7.04626L7.57418 11.5864V10.0907L7.04026 9.59595H5.12655Z" fill="#00843D" stroke="black" stroke-width="0.0619503"/>
<path fill-rule="evenodd" clip-rule="evenodd" d="M7.67871 10.7499H8.10465L8.21263 10.841L8.10465 10.9321H7.68471V10.7449L7.67871 10.7499Z" fill="#FAAE29" stroke="black" stroke-width="0.0440803"/>
<path fill-rule="evenodd" clip-rule="evenodd" d="M7.67871 10.9333H8.10465L8.21263 11.0244L8.10465 11.1155H7.68471V10.9282L7.67871 10.9333Z" fill="#CA3745" stroke="black" stroke-width="0.0440788"/>
<path fill-rule="evenodd" clip-rule="evenodd" d="M7.67871 11.1078H8.10465L8.21263 11.1989L8.10465 11.29H7.68471V11.1028L7.67871 11.1078Z" fill="#FAAE29" stroke="black" stroke-width="0.0440803"/>
<path fill-rule="evenodd" clip-rule="evenodd" d="M7.67871 10.3918H8.10465L8.21263 10.4829L8.10465 10.574H7.68471V10.3867L7.67871 10.3918Z" fill="#FAAE29" stroke="black" stroke-width="0.0440803"/>
<path fill-rule="evenodd" clip-rule="evenodd" d="M4.49414 10.5702H4.06821L3.96022 10.6613L4.06821 10.7524H4.48814V10.5652L4.49414 10.5702Z" fill="#CA3745" stroke="black" stroke-width="0.0440788"/>
<path fill-rule="evenodd" clip-rule="evenodd" d="M4.49414 10.7499H4.06821L3.96022 10.841L4.06821 10.9321H4.48814V10.7449L4.49414 10.7499Z" fill="#FAAE29" stroke="black" stroke-width="0.0440803"/>
<path fill-rule="evenodd" clip-rule="evenodd" d="M4.49414 10.9333H4.06821L3.96022 11.0244L4.06821 11.1155H4.48814V10.9282L4.49414 10.9333Z" fill="#CA3745" stroke="black" stroke-width="0.0440788"/>
<path fill-rule="evenodd" clip-rule="evenodd" d="M4.49414 11.1127H4.06821L3.96022 11.2038L4.06821 11.2949H4.48814V11.1077L4.49414 11.1127Z" fill="#FAAE29" stroke="black" stroke-width="0.0440803"/>
<path fill-rule="evenodd" clip-rule="evenodd" d="M4.49414 10.3918H4.06821L3.96022 10.4829L4.06821 10.574H4.48814V10.3867L4.49414 10.3918Z" fill="#FAAE29" stroke="black" stroke-width="0.0440803"/>
<path fill-rule="evenodd" clip-rule="evenodd" d="M3.85352 9.79851V11.8789H4.38743V12.3793H7.78891V11.8789H8.31683V9.79851H7.78891V9.30371H4.38743V9.79851H3.85352ZM3.9615 9.89409V11.7889H4.48942V12.2837H7.68093V11.7889H8.21485V9.89409H7.68093V9.40492H4.48942V9.89972H3.9615V9.89409Z" fill="#970000" stroke="black" stroke-width="0.0464627"/>
<path fill-rule="evenodd" clip-rule="evenodd" d="M8.7418 2.01849L8.42385 1.6346V1.34804L8.1059 1.06147H7.47L6.93608 0.774902H5.23834L4.70442 1.06147H4.06852L3.75057 1.34804V1.6346L3.43262 2.01309V2.78627L3.75057 3.16476V3.45673L4.06852 3.7433H4.70442L5.23834 4.02986H6.93608L7.47 3.7433H8.1059L8.42985 3.45673V3.17017L8.7478 2.78627V2.01309L8.7418 2.01849Z" fill="#CA3745" stroke="black" stroke-width="0.0455624"/>
<path fill-rule="evenodd" clip-rule="evenodd" d="M3.53125 2.39966V2.68994L3.85539 3.07214V3.36241L4.1747 3.64785H4.80847L5.34065 3.93329H6.0857V2.39966H3.53609H3.53125Z" fill="#FAAE29"/>
<path fill-rule="evenodd" clip-rule="evenodd" d="M5.19076 3.07198L4.80373 3.31387H4.56667L4.64407 3.40096L4.48926 3.56545L4.56667 3.64769L4.79889 3.56545L4.8763 3.64769L4.915 3.42515L5.34074 3.1639L5.18593 3.06714L5.19076 3.07198Z" fill="#CA3745"/>
<path fill-rule="evenodd" clip-rule="evenodd" d="M4.76496 2.87849L4.37792 3.12523H4.14086L4.21827 3.20747L4.06346 3.37197L4.14086 3.45421L4.37309 3.37197L4.45049 3.45421L4.4892 3.23166L4.91494 2.97525L4.76496 2.87849ZM4.55209 2.49146L4.16505 2.74303H3.92799L4.0054 2.82528L3.85059 2.98977L3.92799 3.07201L4.16022 2.98977L4.23762 3.07201L4.27633 2.84946L4.70207 2.59305L4.55209 2.49629V2.49146Z" fill="#CA3745"/>
<path fill-rule="evenodd" clip-rule="evenodd" d="M8.63555 2.3996V2.10932L8.31624 1.73196V1.44169L7.99694 1.15141H7.35832L6.82615 0.865967H6.08594V2.3996H8.63555Z" fill="#FAAE29"/>
<path fill-rule="evenodd" clip-rule="evenodd" d="M6.0866 3.93314H5.89308L5.66086 3.73962H5.29801L5.10449 3.64286L5.20125 3.5461L5.39477 3.64286H5.59313L5.78665 3.35742L6.0866 3.45418V3.6477H5.79148L6.08176 3.93314H6.0866Z" fill="#CA3745"/>
<path fill-rule="evenodd" clip-rule="evenodd" d="M3.53125 2.3996V2.10932L3.85539 1.73196V1.44169L4.1747 1.15141H4.80847L5.34065 0.865967H6.0857V2.3996H3.53609H3.53125Z" fill="white"/>
<path fill-rule="evenodd" clip-rule="evenodd" d="M6.0866 0.870805H5.89308L5.66086 1.05949H5.29801L5.10449 1.15624L5.20125 1.253L5.39477 1.15624H5.59313L5.78665 1.44169L6.0866 1.34493V1.15141H5.79148L6.08176 0.865967L6.0866 0.870805ZM6.0866 0.870805H6.28012L6.51234 1.05949H6.87519L7.06871 1.15624L6.97195 1.253L6.77843 1.15624H6.58007L6.38172 1.44169L6.0866 1.34493V1.15141H6.37688L6.0866 0.865967V0.870805Z" fill="#CA3745"/>
<path fill-rule="evenodd" clip-rule="evenodd" d="M8.63555 2.39966V2.68994L8.31624 3.07214V3.36241L7.99694 3.64785H7.35832L6.82615 3.93329H6.08594V2.39966H8.63555Z" fill="white"/>
<path fill-rule="evenodd" clip-rule="evenodd" d="M6.08575 3.93324H6.27927L6.51149 3.73973H6.87434L7.06786 3.64297L6.9711 3.54621L6.77758 3.64297H6.57922L6.38086 3.35753L6.08575 3.45429V3.6478H6.37603L6.08575 3.93324ZM4.76498 1.92065L4.37794 1.67875H4.14088L4.21829 1.59167L4.06348 1.42718L4.14088 1.34493L4.37311 1.42718L4.45051 1.34493L4.48922 1.56748L4.91496 1.82389L4.76498 1.92065ZM6.98077 1.72713L7.36781 1.48523H7.60003L7.52746 1.39815L7.68228 1.2385L7.60003 1.15625L7.37265 1.2385L7.2904 1.15625L7.25654 1.37396L6.83079 1.63521L6.98077 1.73197V1.72713Z" fill="#CA3745"/>
<path fill-rule="evenodd" clip-rule="evenodd" d="M5.19066 1.73197L4.80362 1.48523H4.56656L4.64397 1.39815L4.48915 1.2385L4.56656 1.15625L4.79878 1.2385L4.87619 1.15625L4.91489 1.37396L5.34064 1.63521L5.18582 1.73197H5.19066ZM4.54721 2.29801L4.16017 2.05611H3.92311L4.00052 1.96903L3.8457 1.80454L3.92311 1.72229L4.15533 1.80454L4.23274 1.72229L4.27144 1.94484L4.69719 2.20125L4.54721 2.29801Z" fill="#CA3745"/>
<path fill-rule="evenodd" clip-rule="evenodd" d="M3.72554 2.39966H3.8223L3.91906 2.49642L4.01582 2.39966H6.08647V3.73978H5.98971L6.08647 3.83654V3.93329L5.79135 3.64302V3.54626H5.88811V3.64302H5.98487V3.54626L5.19145 3.12535H4.51413V2.71413L4.21901 2.49642H4.01582L3.91906 2.59318L4.01582 2.68994H3.91906L3.7207 2.39966H3.72554Z" fill="white"/>
<path fill-rule="evenodd" clip-rule="evenodd" d="M3.72554 2.3996H3.8223L3.91906 2.30284L4.01582 2.3996H6.08647V1.05949H5.98971L6.08647 0.962726V0.865967L5.79135 1.15624V1.253H5.88811V1.15624H5.98487V1.253L5.19145 1.67391H4.51413V2.08997L4.21901 2.30284H4.01582L3.91906 2.20608L4.01582 2.10932H3.91906L3.7207 2.3996H3.72554Z" fill="#FAAE29"/>
<path fill-rule="evenodd" clip-rule="evenodd" d="M4.1748 2.39966H6.0858V3.5511L5.23432 3.0673H4.59571V2.6851L4.1748 2.39966Z" fill="#00843D"/>
<path fill-rule="evenodd" clip-rule="evenodd" d="M7.40681 1.92069L7.79385 1.67879H8.02607L7.94867 1.59171L8.10348 1.42722L8.02607 1.34497L7.79385 1.42722L7.71644 1.34497L7.68258 1.56752L7.25684 1.82393L7.40681 1.92069ZM7.61968 2.30773L8.00672 2.05615H8.23894L8.16154 1.97391L8.31635 1.80942L8.23894 1.72717L8.00672 1.80942L7.92931 1.72717L7.89545 1.94972L7.46971 2.20613L7.61968 2.30289V2.30773Z" fill="#CA3745"/>
<path fill-rule="evenodd" clip-rule="evenodd" d="M8.44687 2.3996H8.35011L8.25335 2.30284L8.15175 2.3996H6.08594V1.05949H6.1827L6.08594 0.962726V0.865967L6.37622 1.15624V1.253H6.27946V1.15624H6.1827V1.253L6.98096 1.67391H7.65828V2.08997L7.95339 2.30284H8.14691L8.24851 2.20608L8.15175 2.10932H8.24851L8.44203 2.3996H8.44687Z" fill="white"/>
<path fill-rule="evenodd" clip-rule="evenodd" d="M7.99694 2.39957H6.08594V1.25781L6.93742 1.73677H7.57119V2.11897L7.99694 2.40925V2.39957Z" fill="#00843D"/>
<path fill-rule="evenodd" clip-rule="evenodd" d="M6.98103 3.07198L7.36807 3.31387H7.60513L7.52772 3.40096L7.68254 3.56545L7.60513 3.64769L7.37291 3.56545L7.2955 3.64769L7.2568 3.42515L6.83105 3.1639L6.98103 3.06714V3.07198Z" fill="#CA3745"/>
<path fill-rule="evenodd" clip-rule="evenodd" d="M7.40681 2.87849L7.79385 3.12523H8.02607L7.94867 3.20747L8.10348 3.37197L8.02607 3.45421L7.79385 3.37197L7.71644 3.45421L7.68258 3.23166L7.25684 2.97525L7.40681 2.87849ZM7.61968 2.49146L8.00672 2.74303H8.23894L8.16154 2.82528L8.31635 2.98977L8.23894 3.07201L8.00672 2.98977L7.92931 3.07201L7.89545 2.84946L7.46971 2.59305L7.61968 2.49629V2.49146Z" fill="#CA3745"/>
<path fill-rule="evenodd" clip-rule="evenodd" d="M8.44687 2.39966H8.35011L8.25335 2.49642L8.15175 2.39966H6.08594V3.73978H6.1827L6.08594 3.83654V3.93329L6.37622 3.64302V3.54626H6.27946V3.64302H6.1827V3.54626L6.98096 3.12535H7.65828V2.71413L7.95339 2.49642H8.14691L8.24851 2.59318L8.15175 2.68994H8.24851L8.44203 2.39966H8.44687Z" fill="#FAAE29"/>
<path fill-rule="evenodd" clip-rule="evenodd" d="M7.9968 2.39957H6.0858V3.55101L6.93728 3.06721H7.57106V2.68501L7.9968 2.39957ZM4.1748 2.39957H6.0858V1.25781L5.23432 1.73677H4.59571V2.11897L4.1748 2.40925V2.39957Z" fill="#CA3745"/>
<path fill-rule="evenodd" clip-rule="evenodd" d="M6.29386 2.39953L6.82604 2.10925H7.15018L7.04375 2.01249L7.25662 1.82381L7.14534 1.72705L6.83087 1.82381L6.72444 1.72705L6.67606 1.98346L6.08583 2.28826L6.29386 2.39953ZM5.87779 2.39953L5.34562 2.68981H5.02147L5.12791 2.78657L4.91504 2.97525L5.02147 3.07201L5.34078 2.97525L5.44722 3.07201L5.4956 2.81559L6.08583 2.5108L5.87296 2.39953H5.87779Z" fill="#CA3745"/>
<path fill-rule="evenodd" clip-rule="evenodd" d="M5.87779 2.39953L5.34562 2.10925H5.02147L5.12791 2.01249L4.91504 1.82381L5.02147 1.72705L5.34078 1.82381L5.44722 1.72705L5.4956 1.98346L6.08583 2.28826L5.87296 2.39953H5.87779ZM6.29386 2.39953L6.82604 2.68981H7.15018L7.04375 2.78657L7.25662 2.97525L7.14534 3.07201L6.83087 2.97525L6.72444 3.07201L6.67606 2.81559L6.08583 2.5108L6.29386 2.39953Z" fill="#00843D"/>
<path fill-rule="evenodd" clip-rule="evenodd" d="M5.44727 2.39961L6.08588 1.92065L6.72449 2.39961L6.08588 2.87857L5.44727 2.39961Z" fill="white"/>
<path fill-rule="evenodd" clip-rule="evenodd" d="M4.0159 2.59301L4.1175 2.68977L4.02074 2.78653H3.92398L3.62402 2.39949H3.72078L3.91914 2.68977H4.0159L3.91914 2.59301L4.0159 2.49625H4.21426V2.59301H4.02074H4.0159ZM4.0159 2.20597L4.1175 2.10921L4.02074 2.01245H3.92398L3.62402 2.39949H3.72078L3.91914 2.10921H4.0159L3.91914 2.20597L4.0159 2.30273H4.21426V2.20597H4.02074H4.0159ZM8.15236 2.59301L8.0556 2.68977L8.15236 2.78653H8.24912L8.54424 2.39949H8.44748L8.25396 2.68977H8.15236L8.24912 2.59301L8.15236 2.49625H7.95884V2.59301H8.15236ZM8.15236 2.20597L8.0556 2.10921L8.15236 2.01245H8.24912L8.54424 2.39949H8.44748L8.25396 2.10921H8.15236L8.24912 2.20597L8.15236 2.30273H7.95884V2.20597H8.15236ZM5.98495 2.01245H6.18331V2.78653H5.98979L5.98495 2.01245Z" fill="#CA3745"/>
<path fill-rule="evenodd" clip-rule="evenodd" d="M5.69434 2.20605H6.47809V2.59309H5.69434V2.20605Z" fill="#CA3745"/>
<path fill-rule="evenodd" clip-rule="evenodd" d="M5.18532 16.959L3.41895 17.9327V19.5196L5.20198 20.4934H6.96836L8.73473 19.5196V17.9327L6.96836 16.977H5.20198L5.18532 16.959Z" fill="#00843D" stroke="black" stroke-width="0.0462259"/>
<path fill-rule="evenodd" clip-rule="evenodd" d="M4.08785 18.5777H4.19428V18.3794H4.40231V18.5729H4.50875V18.1181H4.40231V18.3116H4.18944V18.1181H4.08301V18.5729L4.08785 18.5777ZM6.79711 20.1017H6.90838V19.9082H7.12125V20.1017H7.22769V19.6421H7.12125V19.8404H6.90838V19.6469H6.80195V20.1017H6.79711ZM5.08447 17.8133H5.1909V17.6101H5.40861V17.8036H5.51505V17.3489H5.40861V17.5424H5.19574V17.3489H5.07963V17.8085L5.08447 17.8133ZM6.65681 17.8133H6.76324V17.6101H6.97611V17.8036H7.08739V17.3489H6.97611V17.5424H6.76324V17.3489H6.65681V17.8085V17.8133ZM7.65827 18.5729H7.7647V18.3794H7.97757V18.5729H8.08401V18.1181H7.98241V18.3116H7.76954V18.1181H7.6631V18.5729H7.65827ZM7.65827 19.3373H7.7647V19.1438H7.97757V19.3373H8.08401V18.8825H7.98241V19.076H7.76954V18.8825H7.6631V19.3373H7.65827Z" fill="#CC0000"/>
<path fill-rule="evenodd" clip-rule="evenodd" d="M6.08649 20.4114V18.7229H8.65546V19.4873L6.94282 20.4065H6.08649V20.4114ZM6.08649 17.049V18.7229H3.5127V17.9585L5.23017 17.0393H6.08649V17.049Z" fill="#FAAE29"/>
<path fill-rule="evenodd" clip-rule="evenodd" d="M6.08649 17.049V18.7229H8.65546V17.9585L6.94282 17.0393H6.08649V17.049ZM6.08649 20.4114V18.7229H3.5127V19.4873L5.23017 20.4065H6.08649V20.4114Z" fill="white"/>
<path fill-rule="evenodd" clip-rule="evenodd" d="M7.45508 18.0428H8.48557L7.45508 17.5857V18.0428ZM8.6549 17.9652V18.7284H7.02934V18.1204H6.68585L6.25527 17.8919V17.3572L6.51652 17.1243H6.17302V17.8919H6.08594V17.051H6.94226L8.6549 17.9652Z" fill="#FAAE29" stroke="black" stroke-width="0.0121799"/>
<path fill-rule="evenodd" clip-rule="evenodd" d="M5.22461 18.1907V19.2648H5.48586L6.08577 19.5696L6.68568 19.2648H6.94209V18.1907H6.68568L6.08577 17.8811L5.48586 18.1907H5.22461Z" fill="#CA3745"/>
<path fill-rule="evenodd" clip-rule="evenodd" d="M4.71679 19.4174H3.6863L4.71679 19.8745V19.4174ZM3.51698 19.495V18.7318H5.14253V19.3398H5.48603L5.91661 19.5683V20.103L5.65536 20.3359H5.99885V19.5683H6.08594V20.4092H5.22962L3.51698 19.495Z" fill="#FAAE29" stroke="black" stroke-width="0.0121799"/>
<path fill-rule="evenodd" clip-rule="evenodd" d="M4.71679 18.0428H3.6863L4.71679 17.5857V18.0428ZM3.51698 17.9652V18.7284H5.14253V18.1204H5.48603L5.91661 17.8919V17.3572L5.65536 17.1243H5.99885V17.8919H6.08594V17.051H5.22962L3.51698 17.9652Z" fill="white" stroke="black" stroke-width="0.0121799"/>
<path fill-rule="evenodd" clip-rule="evenodd" d="M7.45508 19.4174H8.48557L7.45508 19.8745V19.4174ZM8.6549 19.495V18.7318H7.02934V19.3398H6.68585L6.25527 19.5683V20.103L6.51652 20.3359H6.17302V19.5683H6.08594V20.4092H6.94226L8.6549 19.495Z" fill="white" stroke="black" stroke-width="0.0121799"/>
<path fill-rule="evenodd" clip-rule="evenodd" d="M4.03027 19.3422H4.13671V19.1099H4.34958V19.3373H4.45601V18.8052H4.35442V19.0325H4.14155V18.8052H4.03511V19.3373L4.03027 19.3422ZM5.05592 20.1017H5.16236V19.8743H5.38007V20.1017H5.4865V19.5695H5.38007V19.7969H5.16236V19.5695H5.05592V20.1017ZM4.03027 18.1182H4.13671V18.3455H4.34958V18.1182H4.45601V18.6503H4.35442V18.4229H4.14155V18.6503H4.03511V18.1182H4.03027ZM5.05592 17.3538H5.16236V17.5811H5.38007V17.3538H5.4865V17.8859H5.38007V17.6586H5.16236V17.8859H5.05592V17.3538ZM6.68632 20.1017H6.79275V19.8743H7.00562V20.1017H7.1169V19.5695H7.00562V19.7969H6.79275V19.5695H6.68632V20.1017ZM7.71681 18.6503H7.82324V18.4229H8.03611V18.6503H8.14255V18.1182H8.03611V18.3455H7.82324V18.1182H7.71681V18.6503Z" fill="#CA3745"/>
<path fill-rule="evenodd" clip-rule="evenodd" d="M6.68652 20.1018H6.79296V19.8744H7.00583V20.1018H7.1171V19.5696H7.00583V19.797H6.79296V19.5696H6.68652V20.1018Z" fill="#CA3745"/>
<path fill-rule="evenodd" clip-rule="evenodd" d="M6.68652 20.1017H6.79296V19.8743H7.00583V20.1017H7.1171V19.5695H7.00583V19.7969H6.79296V19.5695H6.68652V20.1017ZM7.71701 19.3373H7.82345V19.1099H8.03632V19.3373H8.14275V18.8052H8.03632V19.0325H7.82345V18.8052H7.71701V19.3373ZM6.68652 17.8859H6.79296V17.6586H7.00583V17.8859H7.1171V17.3538H7.00583V17.5811H6.79296V17.3538H6.68652V17.8859Z" fill="#CA3745"/>
<path fill-rule="evenodd" clip-rule="evenodd" d="M6.17349 18.7278L6.51215 18.4472H6.68631V18.5923H6.51698V18.66H6.7734V18.3794H6.51698V18.1714H6.17349V18.3794H6.25573V18.2391H6.4299V18.3843L6.08641 18.66L5.74775 18.3794V18.2391H5.91224V18.3843H5.99932V18.1714H5.66066V18.3794H5.39941V18.66H5.65583V18.5875H5.4865V18.452H5.65583L5.99932 18.7278L5.66066 19.0084H5.4865V18.8632H5.65583V18.7955H5.39941V19.0761H5.65583V19.2841H5.99932V19.0761H5.91224V19.2164H5.74291V19.0761L6.08157 18.7955L6.4299 19.0761V19.2164H6.25573V19.0761H6.17349V19.2841H6.51215V19.0761H6.7734V18.7955H6.51215V18.8681H6.68631V19.0084H6.51698L6.17349 18.7278Z" fill="white"/>
<path fill-rule="evenodd" clip-rule="evenodd" d="M3.6816 6.88481L3.84609 6.7141H4.84271L5.58776 5.96387H6.58438L7.32942 6.71859H8.32605L8.49054 6.88481L8.32605 7.05103H7.32459L6.57954 7.80575H5.58292L4.84271 7.05103H3.84125L3.67676 6.88481H3.6816Z" fill="#CA3745"/>
<path fill-rule="evenodd" clip-rule="evenodd" d="M3.76562 6.89838L3.85571 6.8167H4.8827L5.65294 6.02441H6.50877L7.28352 6.82078H8.31051L8.39609 6.90246L8.31051 6.98006H7.28352L6.59435 7.69475H5.56736L4.8827 6.98006H3.85121L3.76562 6.89838Z" fill="#CA3745" stroke="black" stroke-width="0.034312"/>
<path fill-rule="evenodd" clip-rule="evenodd" d="M6.50187 6.96995L6.83085 7.30239L6.66636 7.46861L6.57928 7.38774H6.50187V7.46861L6.58411 7.55396H6.75344L6.91793 7.38774V7.21703L6.58411 6.88459L6.91793 6.54766V6.38145L6.75344 6.21523H6.58411L6.50187 6.29609V6.38145H6.58411L6.6712 6.29609L6.83569 6.4668L6.50187 6.79924L6.17289 6.4668L6.50187 6.12987V6.04452H6.41962L6.09064 6.38145L5.75682 6.04452H5.67458V6.12987L6.00356 6.4668L5.67458 6.79924L5.34076 6.4668L5.51008 6.29609L5.59233 6.38145H5.67458V6.29609L5.59233 6.21523H5.423L5.25851 6.38145V6.54766L5.59233 6.88459L5.25851 7.21703V7.38774L5.423 7.55396H5.59233L5.67458 7.46861V7.38774H5.58265L5.50041 7.46861L5.33108 7.30239L5.6649 6.96995L5.99388 7.30239L5.6649 7.63932V7.72018H5.74714L6.08096 7.38774L6.40995 7.72018H6.49219V7.63932L6.16321 7.30239L6.49219 6.96995H6.50187ZM6.0858 6.54766L5.75198 6.88459L6.0858 7.21703L6.41478 6.88459L6.0858 6.54766ZM5.58749 7.80553V8.47939L5.66974 8.38955L5.75198 8.47939L5.83423 8.38955L5.91647 8.47939L6.00356 8.38955L6.0858 8.47939L6.16805 8.38955L6.25029 8.47939L6.33254 8.38955L6.41478 8.47939L6.49703 8.38955L6.58411 8.47939V7.80553H5.58265H5.58749ZM6.58411 5.96365V5.28979L6.49703 5.37964L6.41478 5.28979L6.33254 5.37964L6.25029 5.28979L6.16805 5.37964L6.0858 5.28979L5.99872 5.37964L5.91647 5.28979L5.83423 5.37964L5.75198 5.28979L5.66974 5.37964L5.58749 5.28979V5.96365H6.58411ZM7.98712 6.71838V6.04452L7.90972 6.13436L7.82747 6.04452L7.74523 6.13436L7.65814 6.04452L7.5759 6.13436L7.49365 6.04452L7.41141 6.13436L7.32916 6.04452V6.71838H7.99196H7.98712ZM4.84244 6.71838V6.04452L4.75536 6.13436L4.67312 6.04452L4.59087 6.13436L4.50862 6.04452L4.42638 6.13436L4.34413 6.04452L4.25705 6.13436L4.1748 6.04452V6.71838H4.83761H4.84244ZM7.99196 7.05081V7.72467L7.90972 7.63482L7.82747 7.72467L7.74523 7.63482L7.65814 7.72467L7.5759 7.63482L7.49365 7.72467L7.41141 7.63482L7.32916 7.72467V7.05081H7.99196ZM4.83761 7.05081V7.72467L4.75536 7.63482L4.67312 7.72467L4.59087 7.63482L4.50862 7.72467L4.42638 7.63482L4.34413 7.72467L4.25705 7.63482L4.1748 7.72467V7.05081H4.83761Z" fill="#FAAE29"/>
<path fill-rule="evenodd" clip-rule="evenodd" d="M6.57899 7.80557V8.22336L6.66607 8.13801L6.74832 8.22786L6.83057 8.13801L6.91281 8.22786L6.99506 8.13801L7.0773 8.22786L7.16439 8.13801L7.24663 8.22786L7.32888 8.13801V7.05085L6.57899 7.80557ZM5.58721 7.80557V8.22336L5.50012 8.13801L5.41788 8.22786L5.33563 8.13801L5.25339 8.22786L5.17114 8.13801L5.0889 8.22786L5.00665 8.13801L4.92441 8.22786L4.83732 8.13801V7.05085L5.58721 7.80557ZM5.58721 5.96369V5.5459L5.50012 5.62676L5.41788 5.5459L5.33563 5.62676L5.25339 5.5459L5.17114 5.62676L5.0889 5.5459L5.00665 5.62676L4.92441 5.5459L4.83732 5.62676V6.71841L5.58721 5.96369ZM6.57899 5.96369V5.5459L6.66607 5.62676L6.74832 5.5459L6.83057 5.62676L6.91281 5.5459L6.99506 5.62676L7.0773 5.5459L7.15955 5.62676L7.24663 5.5459L7.32888 5.62676V6.71841L6.57899 5.96369ZM4.17452 7.554L4.09228 7.46864L4.01003 7.55849L3.92778 7.46864L3.84554 7.55849L3.76329 7.46864L3.67621 7.55849L3.59396 7.46864L3.51172 7.55849V6.21077L3.59396 6.30062L3.67621 6.21077L3.76329 6.30062L3.84554 6.21077L3.92778 6.30062L4.01003 6.21077L4.09228 6.30062L4.17452 6.21077V6.71841H3.84554L3.67621 6.88463L3.84554 7.05085H4.17452V7.554ZM7.99168 7.554L8.07392 7.46864L8.15617 7.55849L8.23841 7.46864L8.3255 7.55849L8.40774 7.46864L8.48999 7.55849L8.57223 7.46864L8.65448 7.55849V6.21077L8.57223 6.30062L8.48999 6.21077L8.40774 6.30062L8.3255 6.21077L8.23841 6.30062L8.15617 6.21077L8.07392 6.30062L7.99168 6.21077V6.71841H8.3255L8.48999 6.88463L8.3255 7.05085H7.99168V7.554Z" fill="#00843D"/>
<path fill-rule="evenodd" clip-rule="evenodd" d="M5.17639 7.85953C5.17639 7.85953 5.10866 7.92242 5.10866 7.95836C5.10866 7.98981 5.18123 8.0572 5.21509 8.0572C5.2538 8.0572 5.31669 7.98981 5.31669 7.95836C5.31669 7.92692 5.24896 7.85953 5.24896 7.85953V7.72476C5.24896 7.72476 5.3941 7.95387 5.3941 7.85504C5.3941 7.78316 5.24896 7.66187 5.24896 7.66187H5.17639C5.17639 7.66187 5.03125 7.80562 5.03125 7.85504C5.03125 7.95387 5.17639 7.72476 5.17639 7.72476V7.85953Z" fill="white"/>
<path fill-rule="evenodd" clip-rule="evenodd" d="M6.04204 8.11569C6.04204 8.11569 5.95979 8.20553 5.95979 8.25046C5.95979 8.29538 6.04687 8.39421 6.08558 8.39421C6.13396 8.39421 6.20653 8.29987 6.20653 8.25495C6.20653 8.21003 6.12428 8.11569 6.12428 8.11569V7.92701C6.12428 7.92701 6.26942 8.23249 6.26942 8.09322C6.26942 8.00338 6.12428 7.83716 6.12428 7.83716H6.04204C6.04204 7.83716 5.87271 8.04381 5.8969 8.09322C5.8969 8.23249 6.04204 7.92701 6.04204 7.92701V8.11569Z" fill="#CA3745"/>
<path d="M5.16973 6.96491C5.26023 6.96491 5.33359 6.9268 5.33359 6.87979C5.33359 6.83279 5.26023 6.79468 5.16973 6.79468C5.07922 6.79468 5.00586 6.83279 5.00586 6.87979C5.00586 6.9268 5.07922 6.96491 5.16973 6.96491Z" fill="#00843D"/>
<path d="M6.08476 6.96491C6.17527 6.96491 6.24863 6.9268 6.24863 6.87979C6.24863 6.83279 6.17527 6.79468 6.08476 6.79468C5.99426 6.79468 5.9209 6.83279 5.9209 6.87979C5.9209 6.9268 5.99426 6.96491 6.08476 6.96491Z" fill="#00843D"/>
<path d="M6.99394 6.96491C7.08445 6.96491 7.15781 6.9268 7.15781 6.87979C7.15781 6.83279 7.08445 6.79468 6.99394 6.79468C6.90344 6.79468 6.83008 6.83279 6.83008 6.87979C6.83008 6.9268 6.90344 6.96491 6.99394 6.96491Z" fill="#00843D"/>
<path fill-rule="evenodd" clip-rule="evenodd" d="M5.1617 5.91871C5.1617 5.91871 5.09396 5.85132 5.09396 5.81988C5.09396 5.78843 5.16653 5.71655 5.19556 5.71655C5.23427 5.71655 5.29716 5.78394 5.29716 5.81539C5.29716 5.85132 5.22943 5.91871 5.22943 5.91871V6.05348C5.22943 6.05348 5.3794 5.81988 5.3794 5.91871C5.3794 5.99059 5.23427 6.11638 5.23427 6.11638H5.1617C5.1617 6.11638 5.01172 5.97262 5.01172 5.9232C5.01172 5.82437 5.15686 6.04899 5.15686 6.04899V5.91422L5.1617 5.91871Z" fill="white"/>
<path fill-rule="evenodd" clip-rule="evenodd" d="M6.02246 5.65831C6.02246 5.65831 5.94021 5.56847 5.94021 5.52354C5.94021 5.47862 6.03214 5.38428 6.066 5.38428C6.11438 5.38428 6.19179 5.47413 6.19179 5.51905C6.19179 5.56397 6.10954 5.66281 6.10954 5.66281V5.8425C6.10954 5.8425 6.25468 5.54151 6.25468 5.68078C6.25468 5.77062 6.10954 5.94133 6.10954 5.94133H6.01762C6.01762 5.94133 5.84829 5.73019 5.87248 5.68078C5.87248 5.546 6.01762 5.84699 6.01762 5.84699V5.65831H6.02246Z" fill="#CA3745"/>
<path fill-rule="evenodd" clip-rule="evenodd" d="M6.94183 7.85942C6.94183 7.85942 6.8741 7.92232 6.8741 7.95826C6.8741 7.9897 6.94667 8.05709 6.98054 8.05709C7.01924 8.05709 7.08214 7.9897 7.08214 7.95826C7.08214 7.92681 7.0144 7.85942 7.0144 7.85942V7.72465C7.0144 7.72465 7.15954 7.95376 7.15954 7.85493C7.15954 7.78305 7.0144 7.66176 7.0144 7.66176H6.937C6.937 7.66176 6.79186 7.80551 6.79186 7.85493C6.79186 7.95376 6.937 7.72465 6.937 7.72465V7.85942H6.94183ZM6.92732 5.91871C6.92732 5.91871 6.85959 5.85132 6.85959 5.81539C6.85959 5.78843 6.93216 5.71655 6.96119 5.71655C6.99989 5.71655 7.06278 5.78394 7.06278 5.81539C7.06278 5.85132 6.99505 5.91871 6.99505 5.91871V6.05348C6.99505 6.05348 7.14503 5.81988 7.14503 5.91871C7.14503 5.99059 6.99989 6.11638 6.99989 6.11638H6.92732C6.92732 6.11638 6.77734 5.97262 6.77734 5.9232C6.77734 5.82437 6.92248 6.04899 6.92248 6.04899V5.91422L6.92732 5.91871Z" fill="white"/>
<path fill-rule="evenodd" clip-rule="evenodd" d="M4.45548 7.39234C4.45548 7.39234 4.36356 7.45523 4.36356 7.48219C4.36356 7.51363 4.46032 7.58102 4.50386 7.57653C4.55224 7.57653 4.63932 7.51812 4.63932 7.48668C4.63932 7.45523 4.5474 7.39234 4.5474 7.39234V7.26655C4.5474 7.26655 4.71189 7.46871 4.71189 7.37886C4.71189 7.31597 4.5474 7.20366 4.5474 7.20366H4.45548C4.45548 7.20366 4.2668 7.34741 4.29583 7.37886C4.29583 7.46871 4.45548 7.26655 4.45548 7.26655V7.39234ZM4.43613 6.44444C4.43613 6.44444 4.34421 6.38155 4.34421 6.3501C4.34421 6.31866 4.44096 6.25576 4.48451 6.26025C4.53289 6.26025 4.61997 6.31866 4.61997 6.3501C4.61997 6.38155 4.52805 6.43995 4.52805 6.43995V6.56574C4.52805 6.56574 4.69254 6.36358 4.69254 6.45792C4.69254 6.51632 4.52805 6.62863 4.52805 6.62863H4.43613C4.43613 6.62863 4.24745 6.48937 4.27647 6.45792C4.27647 6.36807 4.43613 6.56574 4.43613 6.56574V6.44444ZM7.6437 7.36988C7.6437 7.36988 7.54694 7.43277 7.54694 7.46422C7.54694 7.49566 7.64854 7.55856 7.69208 7.55856C7.74046 7.55856 7.82754 7.49566 7.82754 7.46871C7.82754 7.43277 7.73078 7.36988 7.73078 7.36988V7.24858C7.73078 7.24858 7.89527 7.45074 7.89527 7.3564C7.89527 7.298 7.73562 7.18569 7.73562 7.18569H7.63886C7.63886 7.18569 7.45502 7.32495 7.47921 7.3564C7.47921 7.45074 7.6437 7.24858 7.6437 7.24858V7.37437V7.36988ZM7.62435 6.42647C7.62435 6.42647 7.52759 6.36358 7.52759 6.33213C7.52759 6.30069 7.62919 6.23779 7.67273 6.23779C7.72111 6.23779 7.80819 6.30069 7.80819 6.32764C7.80819 6.36358 7.71143 6.42198 7.71143 6.42198V6.54777C7.71143 6.54777 7.87592 6.34561 7.87592 6.43546C7.87592 6.49835 7.71627 6.61066 7.71627 6.61066H7.61951C7.61951 6.61066 7.43567 6.4714 7.45986 6.43995C7.45986 6.34561 7.62435 6.54777 7.62435 6.54777V6.42198V6.42647Z" fill="#CA3745"/>
<path fill-rule="evenodd" clip-rule="evenodd" d="M3.77774 7.38333C3.74871 7.32493 3.75838 7.29797 3.75838 7.26653C3.75838 7.23508 3.84063 7.17668 3.86966 7.17668C3.90836 7.17668 3.97125 7.23957 3.97125 7.27551C3.97125 7.30696 3.97125 7.33391 3.95674 7.39231L3.91804 7.29797C3.86482 7.43274 3.85998 7.43274 3.83095 7.29348L3.78257 7.38333H3.77774ZM3.77774 6.41746C3.75355 6.47587 3.75838 6.50282 3.75838 6.53427C3.75838 6.56571 3.84063 6.62411 3.8745 6.62411C3.9132 6.62411 3.97609 6.56122 3.97609 6.52528C3.97609 6.49383 3.97609 6.46688 3.96158 6.40848L3.91804 6.50282C3.86966 6.36805 3.86482 6.36805 3.83095 6.50731L3.78257 6.41746H3.77774ZM8.25286 7.36985C8.22383 7.31145 8.22867 7.2845 8.22867 7.25305C8.22867 7.2216 8.31575 7.1632 8.34478 7.1632C8.38348 7.1632 8.44638 7.23059 8.44638 7.26203C8.44638 7.29348 8.44638 7.32493 8.43186 7.37884L8.38832 7.2845C8.33994 7.41927 8.3351 7.42376 8.30124 7.2845L8.25286 7.36985ZM8.25286 6.40848C8.22383 6.46239 8.23351 6.48934 8.23351 6.52528C8.23351 6.55224 8.31575 6.61513 8.34478 6.61513C8.38348 6.61513 8.45121 6.54774 8.45121 6.5163C8.45121 6.48036 8.45121 6.4534 8.4367 6.395L8.38832 6.49383C8.33994 6.35457 8.33994 6.35008 8.30607 6.49383L8.2577 6.40399L8.25286 6.40848Z" fill="white"/>
<path fill-rule="evenodd" clip-rule="evenodd" d="M5.57291 8.49738V8.2548H4.79883V7.77861H4.11184V7.62137H3.51193V6.18382H4.11184V6.02659H4.79883V5.5504H5.57291V5.31231H6.59856V5.5504H7.37263V6.02659H8.05479V6.18832H8.65953V7.62137H8.05962V7.77861H7.37747V8.2548H6.60339V8.49289H5.57775L5.57291 8.49738ZM5.48582 8.57375V8.33566H4.71175V7.85947H4.0296V7.69774H3.42969V6.10745H4.0296V5.95022H4.71175V5.46954H5.48582V5.23145H6.68564V5.46954H7.45971V5.95022H8.14187V6.10745H8.74178V7.69774H8.14187V7.85947H7.45488V8.33566H6.6808V8.57375H5.48582Z" fill="#CA3745" stroke="black" stroke-width="0.0124319"/>
</g>
</g>
<defs>
<clipPath id="clip0_208_26631">
<rect width="24" height="24" rx="12" fill="white"/>
</clipPath>
</defs>
</svg>
