<svg width="24" height="24" viewBox="0 0 24 24" fill="none" xmlns="http://www.w3.org/2000/svg">
<g clip-path="url(#clip0_208_9182)">
<path d="M0 0H24V24H0V0Z" fill="#012169"/>
<path d="M14.8359 10.3313C14.8359 12.7922 14.5546 15.5625 16.3828 17.4891C16.7578 17.8829 17.4796 18.7875 18.0937 18.7547C18.7359 18.7172 19.5656 17.7657 19.9312 17.3016C21.5249 15.2016 21.2765 12.6985 21.3281 10.261C20.6109 10.5844 20.2499 10.6922 19.6218 10.6829C19.1531 10.7297 18.4359 10.425 18.0046 10.2141C17.7234 10.4016 17.3156 10.6313 16.5796 10.6547C15.7359 10.6922 15.464 10.5469 14.8359 10.3266V10.3313Z" fill="#CCCC33"/>
<path d="M15.0284 10.5938C14.971 11.9748 15.0337 13.3581 15.2159 14.7282C15.4456 15.45 15.4127 15.8485 15.7456 16.275L20.3862 16.2422C20.6674 15.7875 20.8784 15.0985 20.9018 14.8219C21.1643 13.4297 21.169 11.8875 21.1784 10.5094C20.6679 10.7902 20.0849 10.911 19.5049 10.8563C19.0013 10.826 18.5116 10.6784 18.0752 10.425C17.6299 10.6875 17.4752 10.8094 16.744 10.8422C16.1721 10.8704 15.7127 10.9172 15.0284 10.5985V10.5938Z" fill="white"/>
<path d="M19.1064 10.5703L19.1721 10.6031L19.1111 10.5703H19.1064Z" fill="#A4A43D"/>
<path d="M17.2363 10.8235L17.4238 11.011V10.8235H17.2363Z" fill="#FEF8F1"/>
<path d="M19.6824 10.8562L19.7434 10.889L19.6777 10.8562H19.6824Z" fill="#E5E59D"/>
<path d="M18.6562 11.7797L18.7594 11.8734L18.6656 11.7797H18.6562Z" fill="#FBC477"/>
<path d="M16.575 12.5391L16.4766 12.8203L16.5703 12.5391H16.575Z" fill="#FACA88"/>
<path d="M19.1064 12.6656L19.1721 12.6985L19.1111 12.6656H19.1064Z" fill="#FAE3C9"/>
<path d="M14.9814 13.65L15.0189 13.7156L14.9861 13.65H14.9814Z" fill="#D9D868"/>
<path d="M14.8877 14.3157L14.9205 14.3813L14.8924 14.3157H14.8877Z" fill="#A4A43D"/>
<path d="M15.75 16.2516C16.0781 16.9453 17.25 18.586 18.1406 18.5578C19.0172 18.525 19.9969 16.9172 20.3766 16.2516H15.75Z" fill="#00CCFF"/>
<path d="M19.523 17.2969L19.1387 17.775L19.5277 17.2922L19.523 17.2969Z" fill="#0DC9C1"/>
<path d="M19.6172 17.5781L19.4297 17.8688L19.6172 17.5875V17.5781Z" fill="#A4A43D"/>
<path d="M18.1872 12.5391C18.3372 12.886 18.8059 13.2656 18.9372 13.4531C18.7731 13.6406 18.7403 13.6219 18.759 13.9688C19.0403 13.6688 19.0497 13.6406 19.2372 13.6828C19.6403 14.086 19.3075 14.9485 18.9747 15.136C18.6418 15.3375 18.7028 15.1313 18.2012 15.3797C18.4309 15.5766 18.6981 15.3516 18.9137 15.4125C19.0309 15.5531 18.8575 15.8063 18.9465 16.05C19.134 16.0313 19.1153 15.6422 19.1622 15.5016C19.3028 14.986 20.1465 14.6297 20.1887 14.1563C20.3668 14.0766 20.5403 14.1328 20.7512 14.25C20.6481 13.8094 20.2965 13.8141 20.1981 13.6781C19.9731 13.3313 19.7715 12.9375 19.2887 12.8344C18.9137 12.7547 18.9465 12.8578 18.7122 12.6938C18.5622 12.5813 18.1168 12.3656 18.1872 12.5391Z" fill="#FF9900"/>
<path fill-rule="evenodd" clip-rule="evenodd" d="M19.2465 12.9328C19.2465 12.9533 19.2383 12.973 19.2238 12.9875C19.2093 13.002 19.1897 13.0102 19.1691 13.0102C19.1486 13.0102 19.129 13.002 19.1145 12.9875C19.0999 12.973 19.0918 12.9533 19.0918 12.9328C19.0918 12.9123 19.0999 12.8926 19.1145 12.8781C19.129 12.8636 19.1486 12.8555 19.1691 12.8555C19.1897 12.8555 19.2093 12.8636 19.2238 12.8781C19.2383 12.8926 19.2465 12.9123 19.2465 12.9328Z" fill="white"/>
<path d="M17.0108 14.0063C17.2452 13.7156 17.3671 13.1156 17.4702 12.9188C17.714 12.975 17.7046 13.0125 18.0093 12.8344C17.6108 12.7219 17.578 12.7313 17.5311 12.5485C17.6999 12 18.6186 11.8922 18.9374 12.0985C19.2749 12.3 19.064 12.3422 19.5186 12.661C19.5843 12.3703 19.2608 12.2391 19.214 12.0235C19.2843 11.85 19.589 11.8828 19.7577 11.6953C19.6546 11.5313 19.3218 11.7328 19.1765 11.761C18.6608 11.8781 17.9436 11.3016 17.5077 11.4797C17.353 11.3625 17.3202 11.1797 17.3202 10.9313C16.9874 11.236 17.1561 11.5406 17.0765 11.6953C16.8796 12.0563 16.6218 12.4219 16.7577 12.8953C16.8608 13.261 16.9358 13.186 16.9077 13.4719C16.8749 13.6547 16.889 14.1516 17.0108 14.0063Z" fill="#FF9900"/>
<path fill-rule="evenodd" clip-rule="evenodd" d="M16.8654 12.886C16.9029 12.8672 16.9497 12.8813 16.9685 12.9188C16.975 12.932 16.9774 12.9468 16.9756 12.9614C16.9737 12.9759 16.9676 12.9897 16.958 13.0008C16.9484 13.0119 16.9357 13.02 16.9216 13.024C16.9075 13.028 16.8924 13.0278 16.8784 13.0233C16.8644 13.0189 16.852 13.0104 16.8428 12.9989C16.8336 12.9875 16.8279 12.9736 16.8265 12.959C16.8251 12.9443 16.8281 12.9296 16.835 12.9166C16.8419 12.9036 16.8524 12.893 16.8654 12.886Z" fill="white"/>
<path d="M18.9371 14.2031C18.5621 14.1562 17.9949 14.3625 17.7652 14.3812C17.6949 14.1422 17.7277 14.1234 17.4183 13.9594C17.5261 14.3625 17.5496 14.3812 17.4183 14.5219C16.8652 14.6578 16.2933 13.9266 16.3027 13.5469C16.3027 13.1578 16.4527 13.3125 16.4902 12.75C16.209 12.8438 16.2652 13.1953 16.1011 13.35C15.9136 13.3781 15.7918 13.1016 15.5386 13.0547C15.4543 13.2281 15.7965 13.4062 15.8949 13.5187C16.2652 13.9031 16.1386 14.8078 16.5183 15.0891C16.4996 15.2859 16.359 15.4078 16.1433 15.5297C16.5793 15.6656 16.7527 15.3562 16.9261 15.3422C17.3386 15.3328 17.784 15.3609 18.1215 15C18.3746 14.7188 18.2761 14.6953 18.534 14.5781C18.7074 14.5125 19.1246 14.2406 18.9371 14.2031Z" fill="#FF9900"/>
<path fill-rule="evenodd" clip-rule="evenodd" d="M18.0565 14.9156C18.0478 14.9104 18.0403 14.9035 18.0344 14.8953C18.0284 14.8872 18.0241 14.878 18.0217 14.8682C18.0193 14.8584 18.0189 14.8482 18.0204 14.8383C18.022 14.8283 18.0254 14.8187 18.0307 14.8101C18.0359 14.8015 18.0428 14.794 18.0509 14.788C18.0591 14.7821 18.0683 14.7778 18.0781 14.7754C18.0879 14.773 18.098 14.7726 18.108 14.7741C18.118 14.7756 18.1275 14.7791 18.1361 14.7843C18.1536 14.7949 18.166 14.812 18.1709 14.8317C18.1757 14.8515 18.1725 14.8724 18.1619 14.8898C18.1514 14.9072 18.1343 14.9197 18.1145 14.9245C18.0948 14.9294 18.0739 14.9262 18.0565 14.9156Z" fill="white"/>
<path d="M0 0H12V12H0V0Z" fill="#012169"/>
<path d="M12 0V1.5L7.54688 6L12 10.3828V12H10.4297L5.95312 7.59375L1.59375 12H0V10.4062L4.35938 6.02344L0 1.73438V0H1.45312L5.95312 4.40625L10.3125 0H12Z" fill="white"/>
<path d="M4.3125 7.59375L4.57031 8.39062L0.984375 12H0V11.9297L4.3125 7.59375ZM7.21875 7.3125L8.48438 7.5L12 10.9453V12L7.21875 7.3125ZM12 0L7.5 4.59375L7.40625 3.5625L10.9219 0H12ZM0 0.0234375L4.52344 4.45312L3.14062 4.26562L0 1.14844V0.0234375Z" fill="#C8102E"/>
<path d="M4.125 0V12H7.875V0H4.125ZM0 4.125V7.875H12V4.125H0Z" fill="white"/>
<path d="M0 4.875V7.125H12V4.875H0ZM4.875 0V12H7.125V0H4.875Z" fill="#C8102E"/>
</g>
<defs>
<clipPath id="clip0_208_9182">
<rect width="24" height="24" rx="12" fill="white"/>
</clipPath>
</defs>
</svg>
