<svg width="24" height="24" viewBox="0 0 24 24" fill="none" xmlns="http://www.w3.org/2000/svg">
<g clip-path="url(#clip0_208_22222)">
<mask id="mask0_208_22222" style="mask-type:luminance" maskUnits="userSpaceOnUse" x="-1" y="0" width="25" height="24">
<path d="M-0.00195312 0H23.9981V24H-0.00195312V0Z" fill="white"/>
</mask>
<g mask="url(#mask0_208_22222)">
<path d="M-8.26855 0H31.7315V24H-8.26855V0Z" fill="white"/>
<path fill-rule="evenodd" clip-rule="evenodd" d="M-8.26855 0V1.6L9.06478 12L-8.26855 22.4V24H-5.60189L11.7314 13.6L29.0648 24H31.7315V22.4L14.3981 12L31.7315 1.6V0H29.0648L11.7314 10.4L-5.60189 0H-8.26855Z" fill="#DF112D"/>
<path d="M13.8807 3.61599C14.386 5.70132 14.1087 8.27465 11.7794 9.70932C9.46605 8.27465 9.17271 5.70132 9.69405 3.61599C10.2487 3.12799 12.7247 2.81865 13.8807 3.61599Z" fill="#E8112D" stroke="black" stroke-width="0.0434382"/>
<path d="M11.7953 3.19335C12.5286 3.17602 13.2619 3.35602 13.8966 3.71335C14.0038 3.00271 14.2775 2.32746 14.6953 1.74269C14.2873 1.74269 14.1086 1.95469 14.1086 2.16669C14.0113 1.88935 13.6193 1.90535 13.4899 2.05202C13.9299 2.34535 13.5873 2.86669 13.1966 2.76935C13.0166 2.72002 12.9193 2.59069 12.8713 2.39469C12.9229 2.38443 12.9689 2.35533 13.0002 2.31306C13.0316 2.27079 13.0461 2.21837 13.0409 2.16599C13.0358 2.11361 13.0113 2.06502 12.9723 2.02968C12.9333 1.99433 12.8826 1.97476 12.8299 1.97476C12.7773 1.97476 12.7266 1.99433 12.6876 2.02968C12.6486 2.06502 12.6241 2.11361 12.619 2.16599C12.6138 2.21837 12.6283 2.27079 12.6597 2.31306C12.691 2.35533 12.737 2.38443 12.7886 2.39469C12.6753 2.55735 12.4793 2.65469 12.2846 2.60669C12.0713 2.55735 11.9753 2.36135 11.9753 2.19869C11.9753 1.75869 12.3979 1.69469 12.5286 1.77602C12.5286 1.48269 12.0566 1.23735 11.9099 1.48269C12.0726 1.17335 12.0393 0.781354 11.7793 0.537354C11.6598 0.657208 11.5824 0.812621 11.5589 0.980217C11.5353 1.14781 11.5668 1.31853 11.6486 1.46669C11.5019 1.22135 11.0459 1.46669 11.0459 1.76002C11.1606 1.67735 11.5833 1.74269 11.5833 2.18269C11.5833 2.34535 11.4859 2.54135 11.2899 2.59069C11.1919 2.61287 11.0893 2.6043 10.9963 2.56613C10.9032 2.52795 10.8242 2.46204 10.7699 2.37735C10.8019 2.37735 10.8339 2.34535 10.8673 2.31335C10.8999 2.27861 10.9199 2.23388 10.924 2.18639C10.9281 2.13889 10.916 2.09141 10.8898 2.0516C10.8636 2.0118 10.8247 1.98199 10.7795 1.96699C10.7342 1.95199 10.6852 1.95268 10.6404 1.96894C10.5956 1.98521 10.5576 2.0161 10.5325 2.05662C10.5074 2.09715 10.4967 2.14495 10.5021 2.19231C10.5075 2.23967 10.5288 2.28382 10.5624 2.31764C10.5959 2.35145 10.64 2.37296 10.6873 2.37869C10.6773 2.46657 10.6409 2.54934 10.5828 2.61602C10.5247 2.6827 10.4476 2.73013 10.3619 2.75202C10.2707 2.77528 10.174 2.76476 10.0899 2.72241C10.0057 2.68006 9.93971 2.60873 9.904 2.52155C9.86828 2.43437 9.86527 2.33723 9.89552 2.248C9.92577 2.15878 9.98724 2.0835 10.0686 2.03602C9.93795 1.87335 9.54861 1.87335 9.44995 2.15069C9.44995 1.93735 9.27128 1.72669 8.86328 1.72669C9.28677 2.30996 9.56596 2.98531 9.67795 3.69735C10.3278 3.34775 11.0576 3.17401 11.7953 3.19335Z" fill="#F9DD16" stroke="black" stroke-width="0.0434382"/>
<path d="M13.5547 5.24532C13.488 5.24532 13.488 5.32665 13.4733 5.32665C13.6027 5.32665 13.668 5.27732 13.7 5.21198V5.31065C13.7987 5.27732 13.8307 5.19598 13.7987 5.14798L13.912 5.17998C13.848 5.13065 13.896 5.01732 13.7827 4.95198C13.8147 4.95198 13.88 4.98398 13.912 5.03332C13.896 4.91998 13.88 4.85465 13.7827 4.78932H13.8627C13.8416 4.77498 13.8246 4.75539 13.8133 4.73248C13.8021 4.70956 13.7971 4.68411 13.7987 4.65865C13.7987 4.59332 13.7653 4.59332 13.7013 4.60932L13.408 4.62665C13.244 4.62665 13.0813 4.62665 12.952 4.52798C13.1627 4.62665 13.44 4.43065 13.44 4.28398C13.44 4.12132 13.2133 3.95865 12.788 4.05598C12.3653 4.15332 11.844 4.12132 11.844 3.97465C11.844 3.82798 12.2173 3.81198 12.4133 3.84398C12.6093 3.87732 12.74 3.89332 13.0987 3.76398C13.016 3.79598 12.724 3.81198 12.496 3.74665C12.268 3.68132 11.7133 3.68132 11.7133 3.97332C11.7133 4.28398 12.3 4.25198 12.82 4.17065C13.1133 4.13732 13.2773 4.17065 13.2773 4.25065C13.2773 4.34932 13 4.38132 12.788 4.36532C12.5648 4.33551 12.3378 4.3523 12.1213 4.41465C11.908 4.47998 11.7613 4.41465 11.5347 4.46265C11.42 4.46265 11.144 4.46265 11.0133 4.23598C10.932 4.29998 10.6867 4.41465 10.6387 4.54532C10.5893 4.64265 10.6387 4.75598 10.704 4.87065C10.8013 5.00132 10.6547 4.98398 10.54 4.98398C10.4107 4.98398 10.2147 4.98398 10.1173 4.85465C10.02 4.75598 9.90534 4.67465 9.80801 4.73998C9.75867 4.78932 9.80801 4.83732 9.84001 4.82132L9.97067 4.85465C9.94456 4.84272 9.91575 4.83792 9.88718 4.84073C9.85861 4.84354 9.8313 4.85387 9.80801 4.87065C9.75867 4.90265 9.80801 4.96798 9.85601 4.95198C9.88934 4.93598 9.97067 4.91998 10.02 4.95198C9.97067 4.95198 9.90534 4.95198 9.88934 4.98398C9.87334 5.01598 9.88934 5.05065 9.93734 5.05065C10.036 5.05065 10.052 5.11465 10.1507 5.09865C10.1278 5.09982 10.1055 5.10634 10.0856 5.11769C10.0657 5.12904 10.0487 5.14489 10.036 5.16398C10.1333 5.11465 10.2147 5.22932 10.3293 5.19598C10.296 5.21198 10.2147 5.26265 10.2147 5.29465C10.28 5.21198 10.736 5.35865 10.736 5.17998L10.72 5.31065C10.7693 5.27732 10.9467 5.26132 11.0133 5.14798C11.0133 5.17998 11.0133 5.22798 10.98 5.24532C11.0293 5.24532 11.1107 5.21198 11.1933 5.09865C11.2253 5.04932 11.2253 5.01732 11.2253 4.98398C11.2959 4.98762 11.3653 4.9648 11.42 4.91998C11.4867 4.87065 11.5507 4.96798 11.664 4.88665C11.7627 4.82132 11.86 4.88665 11.9253 4.85465C11.9747 4.82132 12.056 4.85465 12.1213 4.82132C12.1867 4.78798 12.284 4.83732 12.3813 4.75598C12.544 4.82265 12.756 4.91998 13.228 4.83732C13.4893 4.78932 13.588 4.88665 13.588 5.00132C13.588 5.09865 13.5213 5.09865 13.4893 5.09865C13.3267 5.11465 13.276 5.04932 13.212 5.06532C13.18 5.08265 13.1467 5.14798 13.212 5.17998C13.1627 5.19598 13.1627 5.24532 13.196 5.26132C13.2293 5.27732 13.276 5.26132 13.3267 5.24532C13.26 5.26132 13.212 5.31065 13.244 5.35865C13.2613 5.39198 13.3107 5.40798 13.3587 5.35865C13.408 5.29465 13.4893 5.24532 13.5547 5.24532ZM10.524 3.94265C10.3947 3.89332 10.3613 3.89332 10.3773 4.00665C10.3773 4.05598 10.4267 4.12132 10.4587 4.15332C10.4587 4.10532 10.476 3.99065 10.5253 3.95865L10.524 3.94265Z" fill="#F9DD16" stroke="black" stroke-width="0.0434382"/>
<path d="M10.9648 3.95866C11.0955 3.89199 11.1448 3.89199 11.1115 4.00666C11.1115 4.05599 11.0622 4.12132 11.0302 4.15332C11.0302 4.10532 11.0302 3.99066 10.9648 3.95866Z" fill="#F9DD16" stroke="black" stroke-width="0.0434382"/>
<path d="M10.7523 3.87732C11.0137 3.87732 11.0457 4.00665 11.0297 4.15332C11.0297 4.31732 10.9483 4.25199 10.899 4.47999C10.883 4.54532 10.819 4.55999 10.7363 4.55999C10.687 4.55999 10.623 4.55999 10.5897 4.46265C10.5403 4.25199 10.459 4.29999 10.459 4.13732C10.459 4.00665 10.4923 3.87732 10.7523 3.87732Z" fill="#F9DD16" stroke="black" stroke-width="0.0434382"/>
<path d="M10.0844 4.48002C10.0204 4.44669 9.97103 4.48002 9.93769 4.48002C10.0364 4.49602 10.0364 4.60935 10.231 4.64269C10.183 4.64269 10.1657 4.67469 10.1177 4.64269C10.1977 4.70802 10.2804 4.78935 10.4764 4.78935C10.5897 4.78935 10.5084 4.83735 10.443 4.80535C10.5084 4.88669 10.655 4.82135 10.7524 4.96802C10.7524 4.85469 10.5897 4.69069 10.6724 4.57735C10.395 4.56135 10.379 4.41469 10.2324 4.30002C10.1017 4.20269 10.0857 4.10535 10.0364 3.92669C10.0204 3.84402 9.92169 3.79602 9.87369 3.81202C9.82436 3.81202 9.79103 3.86002 9.84036 3.89202C9.87369 3.92535 9.93769 3.92535 9.93769 4.00669C9.88969 3.94269 9.80836 3.92669 9.77503 3.95869C9.75903 3.99069 9.77503 4.03869 9.80836 4.03869C9.88836 4.03869 9.84036 4.13735 9.92169 4.20269C9.84169 4.12135 9.77503 4.10535 9.72703 4.15335C9.70969 4.18669 9.72703 4.23469 9.79103 4.23469C9.87369 4.23469 9.95503 4.43069 10.0844 4.48002ZM12.203 5.22935C12.1697 5.22935 12.1857 5.30935 12.1217 5.30935C12.251 5.30935 12.3324 5.27735 12.3817 5.22935L12.3497 5.30935C12.4137 5.26135 12.5937 5.24535 12.675 5.26135C12.7564 5.27735 12.7724 5.24535 12.8057 5.19602C12.8377 5.13069 12.8057 5.09869 12.7564 5.06535C12.707 5.01735 12.691 4.95202 12.707 4.85469C12.4804 4.52802 12.0564 4.69069 12.0564 4.82135C12.203 5.00135 12.219 4.98402 12.3497 5.00135C12.463 5.03335 12.5444 5.03335 12.463 5.09869C12.431 5.13069 12.3004 5.09869 12.219 5.11469C12.007 5.11469 11.8924 4.96802 11.8444 5.04935C11.795 5.11602 11.8444 5.14802 11.9417 5.14802C11.8764 5.14802 11.779 5.14802 11.795 5.21202C11.8284 5.32669 11.9257 5.19602 11.975 5.22935C11.9417 5.22935 11.8764 5.24535 11.8764 5.27735C11.8764 5.31069 11.9577 5.35869 12.039 5.27735C12.0867 5.24333 12.1445 5.22642 12.203 5.22935Z" fill="#F9DD16" stroke="black" stroke-width="0.0434382"/>
<path d="M12.3816 4.75604C12.3112 4.72061 12.2311 4.70936 12.1536 4.72404M11.2416 4.72404C11.1749 4.85471 11.2083 4.92004 11.2256 4.98404M10.5723 4.07204C10.6056 4.10537 10.6389 4.04004 10.7043 4.10537M10.7043 4.10537C10.6869 4.08804 10.6549 4.15337 10.6056 4.10537M10.7043 4.10537V4.15337C10.6869 4.26804 10.6549 4.31737 10.7363 4.31737C10.8336 4.31737 10.8016 4.26804 10.7856 4.15337V4.10537M10.9323 4.08804C10.8829 4.08804 10.8509 4.04004 10.7856 4.10537M10.7856 4.10537C10.8016 4.08804 10.8336 4.15337 10.8829 4.10537" stroke="black" stroke-width="0.0434382"/>
<path d="M10.753 4.51205C10.8196 4.51205 10.8516 4.51205 10.8516 4.41472C10.8516 4.38138 10.8996 4.36538 10.8676 4.30005C10.8996 4.36672 10.753 4.36672 10.753 4.33338C10.753 4.36538 10.5903 4.36538 10.6236 4.30005C10.6063 4.36672 10.6556 4.38138 10.6396 4.41472C10.6396 4.51205 10.6716 4.51205 10.753 4.51205Z" fill="#FF0016" stroke="black" stroke-width="0.0434382"/>
<path d="M10.6715 4.3174L10.5088 4.26807L10.6715 4.3174ZM10.6715 4.3174H10.5088H10.6715ZM10.6715 4.3334L10.5248 4.3814L10.6715 4.3334ZM10.8021 4.3174L10.9648 4.26807L10.8021 4.3174ZM10.8021 4.3174H10.9981H10.8021ZM10.8021 4.3334L10.9648 4.3814L10.8021 4.3334Z" fill="black"/>
<path d="M10.5088 4.26807L10.6715 4.3174H10.5088M10.6715 4.3334L10.5248 4.3814M10.9648 4.26807L10.8021 4.3174H10.9981M10.8021 4.3334L10.9648 4.3814" stroke="black" stroke-width="0.0434382"/>
<path d="M9.8738 3.81207C9.82447 3.7454 9.7098 3.81207 9.7098 3.87741C9.74313 3.82807 9.80847 3.89341 9.85647 3.87741C9.8738 3.87741 9.9058 3.84541 9.8738 3.81207ZM9.82447 3.95874C9.77513 3.89207 9.6458 3.95874 9.6458 4.02407C9.6778 3.97474 9.74313 4.04007 9.79247 4.02407C9.80847 4.02407 9.84047 3.97474 9.82447 3.9574V3.95874ZM9.79113 4.15341C9.72713 4.08807 9.61247 4.15341 9.62847 4.23474C9.6618 4.18674 9.72713 4.23474 9.75913 4.23474C9.79113 4.21874 9.80847 4.17074 9.77513 4.15474L9.79113 4.15341ZM9.84047 4.75607C9.77513 4.69074 9.6778 4.77341 9.6778 4.85474C9.7098 4.78807 9.79113 4.85474 9.84047 4.82141C9.84047 4.82141 9.8738 4.77341 9.84047 4.74141V4.75607ZM9.84047 4.87074C9.76047 4.85474 9.6778 4.96807 9.72713 5.03341C9.72713 4.95207 9.82447 4.98407 9.85647 4.95207L9.84047 4.87074ZM9.9378 4.98407C9.8578 4.95207 9.77513 5.05074 9.82447 5.11474C9.82447 5.06541 9.9218 5.08274 9.9378 5.04941V4.96941V4.98407ZM11.8445 5.16407C11.7631 5.14807 11.6818 5.24407 11.7298 5.32674C11.7298 5.24541 11.8285 5.27741 11.8605 5.24541L11.8445 5.16407ZM11.9418 5.26141C11.8618 5.24541 11.7951 5.35874 11.8445 5.42407C11.8445 5.34407 11.9418 5.35874 11.9578 5.32674C11.9751 5.31074 11.9751 5.26141 11.9578 5.26141H11.9418ZM11.8765 5.03474C11.8111 5.00141 11.7138 5.09874 11.7298 5.16407C11.7631 5.09741 11.8445 5.14807 11.8765 5.11474V5.04941V5.03474ZM13.2285 5.19607C13.1631 5.18007 13.0991 5.29474 13.1311 5.35874C13.1311 5.29474 13.2285 5.31074 13.2618 5.27874C13.2618 5.24541 13.2618 5.19607 13.2285 5.19607ZM13.2285 5.08274C13.1631 5.03341 13.0658 5.13074 13.0991 5.19607C13.1311 5.14807 13.2125 5.18007 13.2458 5.14807V5.06541L13.2285 5.08274ZM13.2951 5.29474C13.2125 5.29474 13.1485 5.40807 13.1965 5.45741C13.1965 5.39074 13.2938 5.40807 13.3098 5.37607C13.3271 5.34274 13.3111 5.30941 13.2951 5.29474ZM10.7525 4.44674C10.8018 4.44674 10.8191 4.46274 10.8191 4.56141C10.8191 4.72407 10.8191 4.82141 10.7525 4.82141C10.7045 4.82141 10.7045 4.74141 10.7045 4.60941C10.7045 4.54541 10.7045 4.49607 10.6871 4.51207C10.6871 4.46274 10.7045 4.44674 10.7538 4.44674H10.7525Z" fill="#0051BA"/>
<path d="M13.31 6.95605C13.262 6.95605 13.262 7.02138 13.2447 7.02138C13.3594 7.02138 13.4087 6.98805 13.4407 6.92272V7.00405C13.538 6.98805 13.5714 6.90672 13.538 6.85738L13.6367 6.89072C13.5874 6.85738 13.6367 6.74405 13.522 6.69472C13.5554 6.69472 13.6034 6.71072 13.6367 6.76138C13.6367 6.66272 13.6034 6.59738 13.522 6.54805H13.5887C13.5687 6.53333 13.5533 6.51322 13.5444 6.49008C13.5354 6.46694 13.5332 6.44173 13.538 6.41738C13.538 6.36938 13.506 6.36938 13.4407 6.38538H13.1807C13.034 6.38538 12.8874 6.38538 12.7727 6.30405C12.9687 6.40138 13.2127 6.22272 13.2127 6.09205C13.2127 5.92938 13.0007 5.79872 12.626 5.88005C12.2527 5.97872 11.7794 5.94672 11.7794 5.81472C11.7794 5.68272 12.1047 5.65205 12.2847 5.68538C12.4634 5.71738 12.578 5.73338 12.9034 5.61872C12.838 5.65205 12.578 5.66938 12.366 5.60405C12.154 5.53872 11.6647 5.53738 11.6647 5.81472C11.6647 6.09205 12.186 6.06005 12.642 5.97872C12.9194 5.96138 13.066 5.97872 13.066 6.05872C13.066 6.13872 12.822 6.17338 12.626 6.15738C12.4239 6.13179 12.2186 6.14859 12.0234 6.20672C11.8287 6.27205 11.698 6.20672 11.5034 6.25472C11.3887 6.25472 11.1434 6.25472 11.014 6.04405C10.9474 6.10805 10.7367 6.20672 10.6874 6.32005C10.6554 6.41738 10.6874 6.51605 10.754 6.61338C10.834 6.72805 10.7047 6.71072 10.59 6.71072C10.4927 6.71072 10.3127 6.71072 10.2167 6.59738C10.134 6.51605 10.0367 6.43472 9.93803 6.50005C9.90603 6.54805 9.93803 6.58005 9.97136 6.56405L10.0847 6.59738C10.061 6.58685 10.035 6.58279 10.0092 6.5856C9.98344 6.58841 9.95888 6.598 9.93803 6.61338C9.90603 6.64672 9.93803 6.71072 9.98736 6.69472C10.0207 6.67872 10.0847 6.66272 10.134 6.69472L10.0207 6.71072C10.0034 6.72805 10.0207 6.77738 10.0687 6.77738C10.15 6.77738 10.166 6.84138 10.2487 6.82538C10.2296 6.82591 10.2109 6.83061 10.1939 6.83913C10.1769 6.84765 10.1619 6.8598 10.15 6.87472C10.2314 6.84138 10.3127 6.93872 10.4114 6.90672C10.378 6.92272 10.3127 6.97205 10.3127 7.00405C10.362 6.92405 10.786 7.05338 10.786 6.89072L10.77 7.00405C10.802 6.98805 10.9647 6.97205 11.03 6.85738C11.03 6.89072 11.03 6.93872 10.998 6.95605C11.046 6.95605 11.1114 6.92272 11.1927 6.82538C11.226 6.77605 11.226 6.74405 11.226 6.71072C11.29 6.71072 11.3394 6.71072 11.3887 6.66272C11.454 6.61338 11.518 6.71072 11.6154 6.62938C11.698 6.56405 11.7794 6.62938 11.8447 6.59738C11.8927 6.56405 11.9754 6.59738 12.0234 6.56405C12.0714 6.53072 12.186 6.58138 12.2674 6.51605C12.414 6.56405 12.594 6.66272 13.0167 6.58138C13.262 6.54805 13.3434 6.62938 13.3434 6.74405C13.3434 6.82405 13.294 6.82405 13.262 6.82405C13.0994 6.82405 13.066 6.77605 13.0007 6.79205C12.9847 6.79205 12.9527 6.85872 13.0007 6.89072C12.9687 6.90672 12.9687 6.95605 13.0007 6.97072C13.0327 6.98538 13.0674 6.97072 13.1154 6.95605C13.0487 6.95605 13.0007 7.00405 13.034 7.05338C13.05 7.08538 13.0994 7.10272 13.1474 7.05338C13.1807 7.00405 13.262 6.95605 13.31 6.95605ZM10.59 5.78272C10.4767 5.73338 10.4274 5.73338 10.4594 5.83205C10.4594 5.88005 10.5087 5.94538 10.526 5.97872C10.526 5.92938 10.5407 5.81472 10.59 5.79872V5.78272Z" fill="#F9DD16" stroke="black" stroke-width="0.0434382"/>
<path d="M10.9978 5.8C11.0951 5.73334 11.1605 5.73334 11.1111 5.832C11.1066 5.88689 11.0836 5.93861 11.0458 5.97867C11.0458 5.92934 11.0458 5.81467 10.9805 5.79867L10.9978 5.8Z" fill="#F9DD16" stroke="black" stroke-width="0.0434382"/>
<path d="M10.8017 5.71741C11.0297 5.71741 11.0617 5.83207 11.0457 5.97874C11.0457 6.12541 10.9657 6.05874 10.9324 6.27207C10.9151 6.32007 10.8511 6.33607 10.7697 6.33607C10.7364 6.33607 10.6711 6.33607 10.6551 6.25607C10.6057 6.06007 10.5244 6.09207 10.5244 5.96274C10.5244 5.83341 10.5577 5.71741 10.8017 5.71741Z" fill="#F9DD16" stroke="black" stroke-width="0.0434382"/>
<path d="M10.1831 6.27204C10.1338 6.23871 10.0844 6.27204 10.0684 6.27204C10.1498 6.27204 10.1498 6.38538 10.3298 6.41871H10.2151C10.2964 6.46671 10.3778 6.54804 10.5404 6.54804C10.6551 6.54804 10.5738 6.58138 10.5084 6.54804C10.5738 6.62938 10.7044 6.56404 10.8018 6.71071C10.8018 6.59738 10.6391 6.45071 10.7204 6.35338C10.4764 6.33604 10.4591 6.18938 10.3298 6.10804C10.2151 6.01071 10.1991 5.92938 10.1498 5.76671C10.1338 5.68538 10.0524 5.65204 9.98708 5.66938C9.95508 5.66938 9.92175 5.70138 9.98708 5.73338C9.98708 5.76671 10.0684 5.76671 10.0684 5.83204C10.0204 5.78271 9.93775 5.76538 9.90575 5.79871C9.90575 5.83204 9.90575 5.86538 9.93775 5.86538C10.0204 5.86538 9.97108 5.96138 10.0524 6.02671C9.97108 5.94671 9.92175 5.92938 9.87375 5.97871C9.85642 5.99471 9.87375 6.04404 9.92175 6.04404C10.0031 6.04404 10.0844 6.20671 10.1991 6.27071L10.1831 6.27204ZM12.1044 6.92271C12.0724 6.92271 12.0884 7.00404 12.0244 7.00404C12.1378 7.00404 12.2191 6.98804 12.2671 6.93871L12.2351 7.00538C12.2844 6.97205 12.4471 6.95605 12.5284 6.97205C12.6098 6.98805 12.6098 6.95604 12.6418 6.90671C12.6751 6.85738 12.6418 6.82538 12.5938 6.79204C12.5604 6.74404 12.5444 6.69471 12.5604 6.59738C12.3498 6.30404 11.9738 6.45071 11.9738 6.56404C12.1044 6.72804 12.1204 6.72804 12.2351 6.72804C12.3324 6.76004 12.3978 6.76004 12.3324 6.82538C12.3004 6.85738 12.1858 6.82538 12.1218 6.82538C11.9258 6.82538 11.8284 6.71071 11.7791 6.77604C11.7298 6.84271 11.7791 6.85738 11.8604 6.85738C11.8111 6.85738 11.7138 6.85738 11.7298 6.92404C11.7631 7.02138 11.8444 6.92404 11.8924 6.92404C11.8604 6.92404 11.8124 6.95605 11.8124 6.98805C11.8124 7.00405 11.8764 7.05338 11.9591 6.98805C12.0007 6.95501 12.0526 6.93756 12.1058 6.93871L12.1044 6.92271Z" fill="#F9DD16" stroke="black" stroke-width="0.0434382"/>
<path d="M12.2676 6.51607C12.2032 6.4816 12.129 6.46986 12.057 6.48274M11.2423 6.48274C11.1756 6.59741 11.209 6.64674 11.2263 6.71074M10.6396 5.89741C10.6556 5.92941 10.6876 5.86407 10.753 5.92941M10.753 5.92941C10.737 5.91341 10.705 5.97874 10.6556 5.92941M10.753 5.92941V5.96141C10.737 6.07607 10.705 6.12541 10.7863 6.12541C10.8676 6.12541 10.8343 6.07607 10.8183 5.97874V5.91341M10.949 5.91341C10.9156 5.91341 10.8836 5.86407 10.8183 5.91341M10.8183 5.91341C10.8343 5.91341 10.8676 5.97874 10.9156 5.91341" stroke="black" stroke-width="0.0434382"/>
<path d="M10.8018 6.28803C10.8512 6.28803 10.8832 6.28803 10.8832 6.2067C10.8832 6.17337 10.9325 6.15737 10.8832 6.10803C10.9325 6.15737 10.8018 6.15737 10.8018 6.12537C10.8018 6.15737 10.6392 6.15737 10.6712 6.10803C10.6712 6.15737 10.7045 6.1747 10.6872 6.2067C10.6872 6.2867 10.7205 6.28803 10.8018 6.28803Z" fill="#FF0016" stroke="black" stroke-width="0.0434382"/>
<path d="M10.7209 6.12538L10.5742 6.07605L10.7209 6.12538ZM10.7209 6.12538H10.5742H10.7209ZM10.7209 6.12538L10.5902 6.17338L10.7209 6.12538ZM10.8342 6.12538L10.9982 6.07605L10.8342 6.12538ZM10.8342 6.12538H11.0142H10.8342ZM10.8516 6.12538L10.9809 6.17338L10.8516 6.12538Z" fill="black"/>
<path d="M10.7209 6.12538L10.5742 6.07605M10.7209 6.12538H10.5742M10.7209 6.12538L10.5902 6.17338M10.9982 6.07605L10.8342 6.12538H11.0142M10.8516 6.12538L10.9809 6.17338" stroke="black" stroke-width="0.0434382"/>
<path d="M10.003 5.66934C9.95496 5.60267 9.84029 5.66934 9.84029 5.71734C9.88962 5.68534 9.93762 5.73334 9.98696 5.71734C9.98696 5.71734 10.0363 5.68534 9.98696 5.66934H10.003ZM9.95496 5.79867C9.92162 5.73334 9.79096 5.79867 9.79096 5.84801C9.82429 5.81467 9.88962 5.86401 9.92162 5.84801C9.93762 5.84801 9.97096 5.81467 9.95496 5.79867ZM9.92162 5.96134C9.87362 5.91334 9.75896 5.96134 9.77496 6.04401C9.80829 5.99467 9.87362 6.04401 9.90562 6.04401C9.92162 6.04401 9.93762 5.97734 9.90562 5.97734L9.92162 5.96134ZM9.97096 6.51601C9.92162 6.44934 9.82429 6.51601 9.82429 6.59601C9.85629 6.54801 9.92162 6.59601 9.98696 6.56401V6.51601H9.97096ZM9.97096 6.61334C9.90562 6.61334 9.82429 6.71067 9.87362 6.77601C9.87362 6.69601 9.95362 6.71067 9.98696 6.69601V6.61334H9.97096ZM10.0683 6.71067C9.98829 6.69467 9.90562 6.77734 9.95496 6.84134C9.95496 6.79201 10.0523 6.80934 10.0683 6.77601V6.71067ZM11.779 6.87467C11.6976 6.87467 11.6163 6.95467 11.6816 7.03734C11.6816 6.95601 11.7616 6.98801 11.795 6.95601L11.779 6.87467ZM11.8603 6.97201C11.795 6.95601 11.7296 7.05334 11.779 7.11867C11.779 7.03734 11.8603 7.05334 11.8763 7.02134V6.97201H11.8603ZM11.811 6.76001C11.747 6.72801 11.6483 6.82534 11.6816 6.87467C11.6976 6.82534 11.779 6.87467 11.811 6.84134V6.77601V6.76001ZM13.0163 6.92267C12.9683 6.89067 12.903 7.00401 12.9363 7.05334C12.9363 7.00401 13.0163 7.00401 13.0496 6.98801C13.0496 6.95601 13.0496 6.90667 13.0163 6.90667V6.92267ZM13.0163 6.80934C12.9683 6.76001 12.8696 6.85734 12.903 6.90667C12.935 6.85734 13.0003 6.90667 13.0336 6.85734V6.79201L13.0163 6.80934ZM13.083 7.00401C13.0003 7.00401 12.9523 7.10267 13.0003 7.15067C13.0003 7.08534 13.0816 7.10267 13.099 7.07067L13.083 7.00401ZM10.8016 6.23867C10.8336 6.23867 10.851 6.23867 10.851 6.33601C10.851 6.48267 10.851 6.56401 10.8016 6.56401C10.7523 6.56401 10.7523 6.50001 10.7523 6.38534C10.7523 6.32001 10.7523 6.27201 10.7363 6.28801C10.7363 6.25467 10.7363 6.23867 10.8016 6.23867Z" fill="#0051BA"/>
<path d="M12.5928 8.77331C12.5502 8.77331 12.5502 8.83998 12.5395 8.83998C12.6248 8.83998 12.6675 8.79998 12.6888 8.74664V8.82664C12.7528 8.79998 12.7742 8.73331 12.7528 8.69331L12.8275 8.71998C12.7848 8.67998 12.8168 8.58664 12.7422 8.53331C12.7635 8.53331 12.8062 8.55998 12.8275 8.59998C12.8168 8.50664 12.8062 8.45331 12.7422 8.39998H12.7955C12.7816 8.38839 12.7703 8.37245 12.7628 8.35374C12.7553 8.33503 12.7519 8.3142 12.7528 8.29331C12.7528 8.23998 12.7315 8.23998 12.6888 8.25331L12.4968 8.26664C12.3902 8.26664 12.2835 8.26664 12.1982 8.18664C12.3368 8.26664 12.5182 8.10664 12.5182 7.98664C12.5182 7.85331 12.3688 7.71998 12.0915 7.79998C11.8142 7.87998 11.4728 7.85331 11.4728 7.73331C11.4728 7.61331 11.7182 7.59998 11.8462 7.62664C11.9742 7.65331 12.0595 7.66664 12.2942 7.55998C12.2408 7.58664 12.0488 7.59998 11.8995 7.54664C11.7502 7.49331 11.3875 7.49331 11.3875 7.73331C11.3875 7.98664 11.7715 7.95998 12.1128 7.89331C12.3048 7.86664 12.4115 7.89331 12.4115 7.95998C12.4115 8.03998 12.2302 8.06664 12.0915 8.05331C11.9451 8.02864 11.7962 8.04226 11.6542 8.09331C11.5155 8.14664 11.4195 8.09331 11.2702 8.13331C11.1955 8.13331 11.0142 8.13331 10.9288 7.94664C10.8755 7.99998 10.7155 8.09331 10.6835 8.19998C10.6515 8.27998 10.6835 8.37331 10.7262 8.46664C10.7902 8.57331 10.6942 8.55998 10.6195 8.55998C10.5342 8.55998 10.4062 8.55998 10.3422 8.45331C10.2782 8.37331 10.2035 8.30664 10.1395 8.35998C10.1075 8.39998 10.1395 8.43998 10.1608 8.42664L10.2462 8.45331C10.229 8.44357 10.2101 8.43967 10.1914 8.44201C10.1727 8.44435 10.1548 8.45285 10.1395 8.46664C10.1075 8.49331 10.1395 8.54664 10.1715 8.53331C10.1928 8.51998 10.2462 8.50664 10.2782 8.53331C10.2462 8.53331 10.2035 8.53331 10.1928 8.55998C10.1822 8.58664 10.1928 8.61331 10.2248 8.61331C10.2888 8.61331 10.2995 8.66664 10.3635 8.65331C10.3486 8.65433 10.3341 8.65968 10.3211 8.66894C10.3082 8.6782 10.2971 8.69111 10.2888 8.70664C10.3528 8.66664 10.4062 8.75998 10.4808 8.73331C10.4595 8.74664 10.4062 8.78664 10.4062 8.81331C10.4488 8.74664 10.7475 8.86664 10.7475 8.71998L10.7368 8.82664C10.7688 8.79998 10.8862 8.78664 10.9288 8.69331C10.9288 8.71998 10.9288 8.75998 10.9075 8.77331C10.9395 8.77331 10.9928 8.74664 11.0462 8.65331C11.0675 8.61331 11.0675 8.58664 11.0675 8.55998C11.1208 8.55998 11.1528 8.54664 11.1955 8.50664C11.2382 8.46664 11.2808 8.54664 11.3555 8.47998C11.4195 8.42664 11.4835 8.47998 11.5262 8.45331C11.5582 8.42664 11.6115 8.45331 11.6542 8.42664C11.6968 8.39998 11.7608 8.43998 11.8248 8.37331C11.9315 8.42664 12.0702 8.50664 12.3795 8.43998C12.5502 8.39998 12.6142 8.47998 12.6142 8.57331C12.6142 8.65331 12.5715 8.65331 12.5502 8.65331C12.4435 8.66664 12.4115 8.61331 12.3688 8.62664C12.3475 8.63998 12.3262 8.69331 12.3688 8.71998C12.3368 8.73331 12.3368 8.77331 12.3582 8.78664C12.3795 8.79998 12.4115 8.78664 12.4435 8.77331C12.4008 8.78664 12.3688 8.82664 12.3902 8.86664C12.4008 8.89331 12.4328 8.90664 12.4648 8.86664C12.4968 8.81331 12.5502 8.77331 12.5928 8.77331ZM10.6088 7.70664C10.5235 7.66664 10.5022 7.66664 10.5128 7.75998C10.5128 7.79998 10.5448 7.85331 10.5662 7.87998C10.5662 7.83998 10.5768 7.74664 10.6088 7.71998V7.70664Z" fill="#F9DD16" stroke="black" stroke-width="0.0318019"/>
<path d="M10.8965 7.72C10.9818 7.66666 11.0138 7.66666 10.9925 7.76C10.9925 7.8 10.9605 7.85333 10.9392 7.88C10.9392 7.84 10.9392 7.74666 10.8965 7.72Z" fill="#F9DD16" stroke="black" stroke-width="0.0318019"/>
<path d="M10.7574 7.65332C10.9281 7.65332 10.9494 7.75999 10.9388 7.87999C10.9388 8.01332 10.8854 7.95999 10.8534 8.14665C10.8428 8.19999 10.8001 8.21332 10.7468 8.21332C10.7148 8.21332 10.6721 8.21332 10.6508 8.13332C10.6188 7.95999 10.5654 7.99999 10.5654 7.86665C10.5654 7.75999 10.5868 7.65332 10.7574 7.65332Z" fill="#F9DD16" stroke="black" stroke-width="0.0318019"/>
<path d="M10.3205 8.14663C10.2779 8.11997 10.2459 8.14663 10.2245 8.14663C10.2885 8.15997 10.2885 8.2533 10.4165 8.27997C10.3845 8.27997 10.3739 8.30663 10.3419 8.27997C10.3952 8.3333 10.4485 8.39997 10.5765 8.39997C10.6512 8.39997 10.5979 8.43997 10.5552 8.4133C10.5979 8.47997 10.6939 8.42663 10.7579 8.54663C10.7579 8.4533 10.6512 8.31997 10.7045 8.22663C10.5232 8.2133 10.5125 8.0933 10.4165 7.99997C10.3312 7.91997 10.3205 7.83997 10.2885 7.6933C10.2779 7.62663 10.2139 7.58663 10.1819 7.59997C10.1499 7.59997 10.1285 7.63997 10.1605 7.66663C10.1819 7.6933 10.2245 7.6933 10.2245 7.75997C10.1925 7.70663 10.1392 7.6933 10.1179 7.71997C10.1072 7.74663 10.1179 7.78663 10.1392 7.78663C10.1925 7.78663 10.1605 7.86663 10.2139 7.91997C10.1605 7.8533 10.1179 7.83997 10.0859 7.87997C10.0752 7.90663 10.0859 7.94663 10.1285 7.94663C10.1819 7.94663 10.2352 8.10663 10.3205 8.14663ZM11.7072 8.75997C11.6859 8.75997 11.6965 8.82663 11.6539 8.82663C11.7392 8.82663 11.7925 8.79997 11.8245 8.75997L11.8032 8.82663C11.8459 8.78663 11.9632 8.7733 12.0165 8.78663C12.0699 8.79997 12.0805 8.7733 12.1019 8.7333C12.1232 8.67997 12.1019 8.6533 12.0699 8.62663C12.0379 8.58663 12.0272 8.5333 12.0379 8.4533C11.8885 8.18663 11.6112 8.31997 11.6112 8.42663C11.7072 8.5733 11.7179 8.55997 11.8032 8.5733C11.8779 8.59997 11.9312 8.59997 11.8779 8.6533C11.8565 8.67997 11.7712 8.6533 11.7179 8.66663C11.5792 8.66663 11.5045 8.54663 11.4725 8.6133C11.4405 8.66663 11.4725 8.6933 11.5365 8.6933C11.4939 8.6933 11.4299 8.6933 11.4405 8.74663C11.4619 8.83997 11.5259 8.7333 11.5579 8.75997C11.5365 8.75997 11.4939 8.7733 11.4939 8.79997C11.4939 8.82663 11.5472 8.86663 11.6005 8.79997C11.6315 8.7721 11.6691 8.75802 11.7072 8.75997Z" fill="#F9DD16" stroke="black" stroke-width="0.0318019"/>
<path d="M11.8246 8.37332C11.782 8.34666 11.7286 8.33332 11.6753 8.34666M11.078 8.34666C11.0353 8.45332 11.0566 8.50666 11.0673 8.55999M10.6406 7.81332C10.662 7.83999 10.6833 7.78666 10.726 7.83999M10.726 7.83999C10.7153 7.82666 10.694 7.87999 10.662 7.83999M10.726 7.83999V7.87999C10.7153 7.97332 10.694 8.01332 10.7473 8.01332C10.8113 8.01332 10.79 7.97332 10.7793 7.87999V7.83999M10.8753 7.82666C10.8433 7.82666 10.822 7.78666 10.7793 7.83999M10.7793 7.83999C10.79 7.82666 10.8113 7.87999 10.8433 7.83999" stroke="black" stroke-width="0.0318019"/>
<path d="M10.7581 8.17333C10.8007 8.17333 10.8221 8.17333 10.8221 8.09333C10.8221 8.06667 10.8541 8.05333 10.8327 8C10.8541 8.05333 10.7581 8.05333 10.7581 8.02667C10.7581 8.05333 10.6514 8.05333 10.6727 8C10.6621 8.05333 10.6941 8.06667 10.6834 8.09333C10.6834 8.17333 10.7047 8.17333 10.7581 8.17333Z" fill="#FF0016" stroke="black" stroke-width="0.0318019"/>
<path d="M10.7043 8.01339L10.5977 7.97339L10.7043 8.01339ZM10.7043 8.01339H10.5977H10.7043ZM10.7043 8.02672L10.6083 8.06672L10.7043 8.02672ZM10.7897 8.01339L10.8963 7.97339L10.7897 8.01339ZM10.7897 8.01339H10.9177H10.7897ZM10.7897 8.02672L10.8963 8.06672L10.7897 8.02672Z" fill="black"/>
<path d="M10.5977 7.97339L10.7043 8.01339H10.5977M10.7043 8.02672L10.6083 8.06672M10.8963 7.97339L10.7897 8.01339H10.9177M10.7897 8.02672L10.8963 8.06672" stroke="black" stroke-width="0.0318019"/>
<path d="M10.4469 7.33871C10.4149 7.28937 10.3389 7.33871 10.3389 7.38671C10.3602 7.35071 10.4042 7.40004 10.4362 7.38671C10.4469 7.38671 10.4696 7.36271 10.4469 7.33871ZM10.4149 7.44804C10.3816 7.40004 10.2949 7.44804 10.2949 7.49737C10.3162 7.46004 10.3602 7.50937 10.3936 7.49737C10.4042 7.49737 10.4256 7.46004 10.4149 7.44804ZM10.3936 7.59471C10.3496 7.54671 10.2736 7.59471 10.2842 7.65604C10.3056 7.62004 10.3496 7.65604 10.3709 7.65604C10.3936 7.64271 10.4042 7.60671 10.3816 7.59471H10.3936ZM10.4256 8.04804C10.3816 7.99871 10.3162 8.05871 10.3162 8.12004C10.3389 8.07204 10.3936 8.12004 10.4256 8.09604C10.4256 8.09604 10.4469 8.05871 10.4256 8.03471V8.04804ZM10.4256 8.13204C10.3722 8.12004 10.3162 8.20537 10.3496 8.25471C10.3496 8.19337 10.4149 8.21737 10.4362 8.19337L10.4256 8.13204ZM10.4922 8.21737C10.4362 8.19337 10.3816 8.26671 10.4149 8.31604C10.4149 8.27871 10.4802 8.29071 10.4909 8.26671V8.20537L10.4922 8.21737ZM11.7682 8.35204C11.7136 8.34004 11.6589 8.41337 11.6922 8.47471C11.6922 8.41337 11.7576 8.43737 11.7789 8.41337L11.7682 8.35204ZM11.8336 8.42537C11.7802 8.41337 11.7349 8.49871 11.7669 8.54804C11.7669 8.48671 11.8336 8.49871 11.8442 8.47471C11.8549 8.46137 11.8549 8.42537 11.8442 8.42537H11.8336ZM11.7896 8.25471C11.7469 8.23071 11.6802 8.30404 11.6922 8.35204C11.7136 8.30404 11.7682 8.34004 11.7896 8.31604V8.26671V8.25471ZM12.6962 8.37737C12.6522 8.36404 12.6082 8.45071 12.6296 8.49871C12.6296 8.45071 12.6962 8.46271 12.7176 8.43737C12.7176 8.41337 12.7176 8.37737 12.6962 8.37737ZM12.6962 8.29071C12.6522 8.25471 12.5869 8.32804 12.6082 8.37737C12.6309 8.34004 12.6842 8.36404 12.7069 8.34004V8.28004L12.6962 8.29071ZM12.7389 8.45071C12.6856 8.45071 12.6416 8.53604 12.6736 8.57204C12.6736 8.52404 12.7402 8.53604 12.7509 8.51071C12.7616 8.48671 12.7509 8.46271 12.7389 8.45071ZM11.0376 7.81337C11.0709 7.81337 11.0816 7.82671 11.0816 7.89871C11.0816 8.02137 11.0816 8.09471 11.0376 8.09471C11.0056 8.09471 11.0056 8.03337 11.0056 7.93471C11.0056 7.88671 11.0056 7.85071 10.9949 7.86271C10.9949 7.82537 11.0056 7.81337 11.0376 7.81337Z" fill="#0051BA"/>
</g>
</g>
<defs>
<clipPath id="clip0_208_22222">
<rect width="24" height="24" rx="12" fill="white"/>
</clipPath>
</defs>
</svg>
