<svg width="24" height="24" viewBox="0 0 24 24" fill="none" xmlns="http://www.w3.org/2000/svg">
<g clip-path="url(#clip0_208_20536)">
<path d="M0 0H24V24H0V0Z" fill="#002395"/>
<path d="M0 0H14.6391V9.84375H0V0Z" fill="white"/>
<path d="M0 0H4.8V9.6H0V0Z" fill="#002395"/>
<path d="M9.59961 0H14.3996V9.6H9.59961V0Z" fill="#ED2939"/>
<path d="M13.2379 10.9781L14.0113 12.211H16.2098V16.5L14.5551 13.9219L12.3379 17.461H13.416L14.5598 15.4219L16.8988 19.6219L19.2379 15.4219L20.377 17.461H21.4551L19.2426 13.9219L17.5926 16.5V14.1281H18.5816L19.3176 12.9563H17.5926V12.2063H19.791L20.5645 10.9781H13.2379ZM15.816 16.2282H13.416V17.0719H15.816V16.2282ZM20.377 16.2282H17.977V17.0719H20.377V16.2282Z" fill="white"/>
</g>
<defs>
<clipPath id="clip0_208_20536">
<rect width="24" height="24" rx="12" fill="white"/>
</clipPath>
</defs>
</svg>
