<svg width="24" height="24" viewBox="0 0 24 24" fill="none" xmlns="http://www.w3.org/2000/svg">
<g clip-path="url(#clip0_208_8828)">
<path d="M0 0H24V24H0V0Z" fill="#E41E20"/>
<path d="M9.60488 4.66406C9.37051 4.66406 8.98613 4.73906 8.99551 4.91719C8.33926 4.80938 8.27363 5.07656 8.31113 5.31563C8.37676 5.22188 8.45176 5.17031 8.50801 5.16094C8.59707 5.14687 8.68613 5.175 8.77988 5.23125C8.8676 5.28826 8.94655 5.35774 9.01426 5.4375C8.78926 5.48906 8.61113 5.45625 8.43301 5.42344C8.33116 5.40273 8.23415 5.36297 8.14707 5.30625C8.07207 5.25469 8.04863 5.20781 7.93145 5.08594C7.79551 4.94531 7.6502 4.9875 7.69707 5.20312C7.8002 5.40469 7.97832 5.49844 8.19863 5.53125C8.30176 5.55 8.46113 5.5875 8.63926 5.5875C8.81738 5.5875 9.01895 5.56406 9.13145 5.5875C9.06582 5.625 8.99082 5.7 8.84082 5.72812C8.69082 5.75625 8.46582 5.63437 8.3252 5.60625C8.34395 5.72344 8.48926 5.83125 8.77988 5.8875C9.25801 5.99062 9.65645 6.075 9.91895 6.21563C10.1814 6.35625 10.3455 6.53437 10.4627 6.675C10.6971 6.95625 10.7111 7.16719 10.7252 7.21406C10.7721 7.65937 10.6221 7.90781 10.3314 7.98281C10.1908 8.02031 9.93301 7.95 9.83926 7.84219C9.74551 7.72969 9.65176 7.54219 9.67988 7.24688C9.70332 7.12969 9.83926 6.825 9.72676 6.76406C9.20611 6.47932 8.66747 6.22879 8.11426 6.01406C7.9877 5.9625 7.87988 6.13125 7.84238 6.20156C7.47389 6.14948 7.1216 6.01604 6.81108 5.81092C6.50055 5.60579 6.23957 5.33413 6.04707 5.01562C5.83145 4.63594 5.47988 5.01562 5.53613 5.37656C5.63457 5.77969 5.93926 6.07031 6.30957 6.27656C6.68457 6.4875 7.15801 6.68906 7.63613 6.67969C7.89395 6.72656 7.89395 7.06406 7.58457 7.125C6.9752 7.125 6.49707 7.11562 6.04238 6.675C5.69551 6.36094 5.50332 6.73594 5.60176 6.94687C5.77051 7.60312 6.70801 7.79063 7.65488 7.575C8.02051 7.51406 7.8002 7.90313 7.69707 7.9125C7.30332 8.19375 6.59551 8.475 5.97207 7.90781C5.68613 7.6875 5.49395 7.875 5.59707 8.18906C5.87832 9.00937 6.93301 8.83594 7.65957 8.43281C7.84707 8.32969 8.01582 8.57344 7.78613 8.75625C6.88613 9.38438 6.43145 9.39375 6.02363 9.15C5.51738 8.94844 5.47051 9.51562 5.7752 9.70312C6.1127 9.90938 6.96582 9.75 7.59863 9.35625C7.86582 9.15938 7.87988 9.46875 7.70645 9.59063C6.96113 10.2375 6.66582 10.4109 5.8877 10.3031C5.50332 10.275 5.5127 10.7484 5.8127 10.9359C6.2252 11.1891 7.03613 10.7672 7.66426 10.2469C7.92676 10.1063 7.97363 10.3406 7.84238 10.6125C7.56515 11.0046 7.18805 11.3153 6.7502 11.5125C6.45836 11.6283 6.13552 11.6399 5.83613 11.5453C5.54551 11.4422 5.50801 11.7422 5.66738 12.0141C5.76113 12.1781 6.16426 12.2344 6.59082 12.0797C7.02207 11.9297 7.48145 11.5734 7.79551 11.1516C8.07676 10.9125 8.03926 11.2359 7.9127 11.4656C7.27988 12.4641 6.69863 12.8344 5.93926 12.7734C5.59707 12.7172 5.52207 12.9797 5.7377 13.2234C6.1127 13.5375 6.59082 13.5234 7.00332 13.2141C7.49968 12.7192 7.98114 12.2096 8.44707 11.6859C8.70488 11.4797 8.78926 11.6859 8.71426 12.1078C8.64395 12.3469 8.47051 12.6 7.99707 12.7875C7.66895 12.975 7.9127 13.2281 8.15645 13.2328C8.29238 13.2328 8.56426 13.0781 8.76582 12.8438C9.04238 12.5391 9.05645 12.3281 9.21113 11.8547C9.35176 11.6203 9.60488 11.7281 9.60488 11.9719C9.48301 12.45 9.37988 12.5344 9.13613 12.7313C8.89707 12.9516 9.29551 13.0266 9.43145 12.9375C9.82051 12.675 9.96113 12.3375 10.0924 12.0281C10.1861 11.8031 10.458 11.9109 10.3314 12.2766C10.0314 13.1437 9.53457 13.4859 8.66738 13.6641C8.57832 13.6781 8.52676 13.7297 8.55488 13.8328L8.90645 14.1844C8.36738 14.3391 7.93145 14.4281 7.39707 14.5828L6.65645 14.0906C6.58613 13.9313 6.55332 13.6828 6.16895 13.8563C5.90176 13.7344 5.78457 13.7812 5.63457 13.9031C5.84551 13.9078 5.93926 13.9641 6.02363 14.0625C6.13145 14.3438 6.37988 14.3719 6.63301 14.2969C6.79707 14.4328 6.88613 14.5406 7.05488 14.6813L6.22051 14.6531C5.9252 14.3391 5.69082 14.3578 5.47988 14.6063C5.31582 14.6297 5.24551 14.6297 5.1377 14.8266C5.31113 14.7562 5.41895 14.7328 5.49863 14.8125C5.80801 14.9953 6.01426 14.9531 6.16895 14.8125L7.04551 14.8641C6.9377 14.9578 6.78301 15.0094 6.67051 15.1078C6.21582 14.9766 5.98145 15.1547 5.90176 15.5203C5.83611 15.6672 5.81336 15.8298 5.83613 15.9891C5.88301 15.8391 5.95332 15.7125 6.08457 15.6328C6.4877 15.7359 6.6377 15.5719 6.66113 15.3281C6.85801 15.1687 7.15332 15.1359 7.34551 14.9719C7.5752 15.0469 7.68301 15.0938 7.9127 15.1641C7.99238 15.4125 8.17988 15.5109 8.4752 15.4453C8.83613 15.4594 8.77051 15.6047 8.80332 15.7219C8.89707 15.5531 8.89707 15.3938 8.67207 15.2391C8.59238 15.0234 8.41426 14.925 8.18457 15.0516C7.96426 14.9906 7.90801 14.9016 7.69238 14.8359C8.24082 14.6625 8.62988 14.625 9.18301 14.4469C9.32363 14.5781 9.42676 14.6719 9.56738 14.7844C9.64238 14.8312 9.70801 14.8406 9.75488 14.7844C10.0971 14.2875 10.2518 13.8469 10.5705 13.5187C10.6924 13.3828 10.8518 13.2 11.0205 13.1531C11.1049 13.1344 11.208 13.1438 11.2783 13.2188C11.3439 13.2937 11.4002 13.425 11.3721 13.6266C11.3439 13.9172 11.2783 14.0109 11.1939 14.1797C11.1143 14.3531 11.0111 14.4609 10.9127 14.5922C10.7064 14.8594 10.4393 15.0141 10.2799 15.1172C9.96113 15.3234 9.8252 15.2344 9.57676 15.2203C9.2627 15.2578 9.17832 15.4125 9.43613 15.6281C9.63177 15.7359 9.85823 15.7739 10.0783 15.7359C10.233 15.7078 10.4064 15.5109 10.5377 15.4078C10.6783 15.2391 10.9174 15.4359 10.758 15.6281C10.4627 15.9797 10.1674 16.2094 9.80645 16.2047C9.42207 16.2516 9.49238 16.4719 9.74551 16.575C10.2049 16.7625 10.6174 16.4109 10.8236 16.1766C10.9877 16.0031 11.1049 15.9938 11.0721 16.2703C10.9127 16.7625 10.6924 16.9547 10.3361 16.9781C10.0455 16.9547 10.0408 17.175 10.2564 17.3297C10.7393 17.6578 11.0861 17.0953 11.2502 16.7484C11.3674 16.4391 11.5455 16.5844 11.5643 16.8422C11.5643 17.1844 11.4143 17.4609 11.0018 17.8125C11.3158 18.3141 11.6814 18.8297 12.0002 19.3359L12.9611 8.63906L12.0002 6.95156C11.9018 6.85781 11.5643 6.45938 11.4752 6.40313C11.4424 6.37031 11.4236 6.34687 11.4705 6.32812C11.5174 6.30938 11.6205 6.29062 11.6955 6.28125C11.4893 6.075 11.3205 6.00938 10.9314 5.89688C11.0252 5.85938 11.1189 5.88281 11.3955 5.86875C11.2243 5.63599 10.9901 5.45707 10.7205 5.35312C10.9314 5.2125 10.9689 5.19844 11.1799 5.025C10.8189 4.99687 10.5096 4.93125 10.2049 4.8375C10.0157 4.74736 9.813 4.68877 9.60488 4.66406ZM9.6377 5.08594C9.8252 5.08594 9.94707 5.15156 9.94707 5.22656C9.94707 5.30625 9.82988 5.37187 9.6377 5.37187C9.4502 5.37187 9.32832 5.30156 9.32832 5.22188C9.32832 5.14219 9.4502 5.08125 9.6377 5.08125V5.08594Z" fill="black"/>
<path d="M14.3951 4.66406C14.6295 4.66406 15.0139 4.73906 15.0045 4.91719C15.6607 4.80938 15.7264 5.07656 15.6889 5.31563C15.6232 5.22188 15.5482 5.17031 15.492 5.16094C15.4029 5.14687 15.3139 5.175 15.2201 5.23125C15.1324 5.28826 15.0534 5.35774 14.9857 5.4375C15.2107 5.48906 15.3889 5.45625 15.567 5.42344C15.6688 5.40273 15.7658 5.36297 15.8529 5.30625C15.9279 5.25469 15.9514 5.20781 16.0686 5.08594C16.2045 4.94531 16.3498 4.9875 16.3029 5.20312C16.1998 5.40469 16.0217 5.49844 15.8014 5.53125C15.6982 5.55 15.5389 5.5875 15.3607 5.5875C15.1826 5.5875 14.9811 5.56406 14.8686 5.5875C14.9342 5.625 15.0092 5.7 15.1592 5.72812C15.3092 5.75625 15.5342 5.63437 15.6748 5.60625C15.6561 5.72344 15.5107 5.83125 15.2201 5.8875C14.742 5.99062 14.3436 6.075 14.0811 6.21563C13.8186 6.35625 13.6545 6.53437 13.5373 6.675C13.3029 6.95625 13.2889 7.16719 13.2748 7.21406C13.2279 7.65937 13.3779 7.90781 13.6686 7.98281C13.8092 8.02031 14.067 7.95 14.1607 7.84219C14.2545 7.72969 14.3482 7.54219 14.3201 7.24688C14.2967 7.12969 14.1607 6.825 14.2732 6.76406C14.7939 6.47932 15.3325 6.22879 15.8857 6.01406C16.0123 5.9625 16.1201 6.13125 16.1576 6.20156C16.5261 6.14948 16.8784 6.01604 17.1889 5.81092C17.4994 5.60579 17.7604 5.33413 17.9529 5.01562C18.1686 4.63594 18.5201 5.01562 18.4639 5.37656C18.3654 5.77969 18.0607 6.07031 17.6904 6.27656C17.3154 6.4875 16.842 6.68906 16.3639 6.67969C16.1061 6.72656 16.1061 7.06406 16.4154 7.125C17.0248 7.125 17.5029 7.11562 17.9576 6.675C18.3045 6.36094 18.4967 6.73594 18.3982 6.94687C18.2295 7.60312 17.292 7.79063 16.3451 7.575C15.9795 7.51406 16.1998 7.90313 16.3029 7.9125C16.6967 8.19375 17.4045 8.475 18.0279 7.90781C18.3139 7.6875 18.5061 7.875 18.4029 8.18906C18.1217 9.00937 17.067 8.83594 16.3404 8.43281C16.1529 8.32969 15.9842 8.57344 16.2139 8.75625C17.1139 9.38438 17.5686 9.39375 17.9764 9.15C18.4826 8.94844 18.5295 9.51562 18.2248 9.70312C17.8873 9.90938 17.0342 9.75 16.4014 9.35625C16.1342 9.15938 16.1201 9.46875 16.2936 9.59063C17.0389 10.2375 17.3342 10.4109 18.1123 10.3031C18.4967 10.275 18.4873 10.7484 18.1873 10.9359C17.7748 11.1891 16.9639 10.7672 16.3357 10.2469C16.0732 10.1063 16.0264 10.3406 16.1576 10.6125C16.4348 11.0046 16.812 11.3153 17.2498 11.5125C17.5416 11.6283 17.8645 11.6399 18.1639 11.5453C18.4545 11.4422 18.492 11.7422 18.3326 12.0141C18.2389 12.1781 17.8357 12.2344 17.4092 12.0797C16.9779 11.9297 16.5186 11.5734 16.2045 11.1516C15.9232 10.9125 15.9607 11.2359 16.0873 11.4656C16.7201 12.4641 17.3014 12.8344 18.0607 12.7734C18.4029 12.7172 18.4779 12.9797 18.2623 13.2234C17.8873 13.5375 17.4092 13.5234 16.9967 13.2141C16.5003 12.7192 16.0189 12.2096 15.5529 11.6859C15.2951 11.4797 15.2107 11.6859 15.2857 12.1078C15.3561 12.3469 15.5295 12.6 16.0029 12.7875C16.3311 12.975 16.0873 13.2281 15.8436 13.2328C15.7076 13.2328 15.4357 13.0781 15.2342 12.8438C14.9576 12.5391 14.9436 12.3281 14.7889 11.8547C14.6482 11.6203 14.3951 11.7281 14.3951 11.9719C14.517 12.45 14.6201 12.5344 14.8639 12.7313C15.1029 12.9516 14.7045 13.0266 14.5686 12.9375C14.1795 12.675 14.0389 12.3375 13.9076 12.0281C13.8139 11.8031 13.542 11.9109 13.6686 12.2766C13.9686 13.1437 14.4654 13.4859 15.3326 13.6641C15.4217 13.6781 15.4732 13.7297 15.4451 13.8328L15.0936 14.1844C15.6326 14.3391 16.0686 14.4281 16.6029 14.5828L17.3436 14.0906C17.4139 13.9313 17.4467 13.6828 17.8311 13.8563C18.0982 13.7344 18.2154 13.7812 18.3654 13.9031C18.1545 13.9078 18.0607 13.9641 17.9764 14.0625C17.8686 14.3438 17.6201 14.3719 17.367 14.2969C17.2029 14.4328 17.1139 14.5406 16.9451 14.6813L17.7795 14.6531C18.0748 14.3391 18.3092 14.3578 18.5201 14.6063C18.6842 14.6297 18.7545 14.6297 18.8623 14.8266C18.6889 14.7562 18.5811 14.7328 18.5014 14.8125C18.192 14.9953 17.9857 14.9531 17.8311 14.8125L16.9545 14.8641C17.0623 14.9578 17.217 15.0094 17.3295 15.1078C17.7842 14.9766 18.0186 15.1547 18.0982 15.5203C18.1639 15.6672 18.1866 15.8298 18.1639 15.9891C18.117 15.8391 18.0467 15.7125 17.9154 15.6328C17.5123 15.7359 17.3623 15.5719 17.3389 15.3281C17.142 15.1687 16.8467 15.1359 16.6545 14.9719C16.4248 15.0469 16.317 15.0938 16.0873 15.1641C16.0076 15.4125 15.8201 15.5109 15.5248 15.4453C15.1639 15.4594 15.2295 15.6047 15.1967 15.7219C15.1029 15.5531 15.1029 15.3938 15.3279 15.2391C15.4076 15.0234 15.5857 14.925 15.8154 15.0516C16.0357 14.9906 16.092 14.9016 16.3076 14.8359C15.7592 14.6625 15.3701 14.625 14.817 14.4469C14.6764 14.5781 14.5732 14.6719 14.4326 14.7844C14.3576 14.8312 14.292 14.8406 14.2451 14.7844C13.9029 14.2875 13.7482 13.8469 13.4295 13.5187C13.3076 13.3828 13.1482 13.2 12.9795 13.1531C12.8951 13.1344 12.792 13.1438 12.7217 13.2188C12.6561 13.2937 12.5998 13.425 12.6279 13.6266C12.6561 13.9172 12.7217 14.0109 12.8061 14.1797C12.8857 14.3531 12.9889 14.4609 13.0873 14.5922C13.2936 14.8594 13.5607 15.0141 13.7201 15.1172C14.0389 15.3234 14.1748 15.2344 14.4232 15.2203C14.7373 15.2578 14.8217 15.4125 14.5639 15.6281C14.3682 15.7359 14.1418 15.7739 13.9217 15.7359C13.767 15.7078 13.5936 15.5109 13.4623 15.4078C13.3217 15.2391 13.0826 15.4359 13.242 15.6281C13.5373 15.9797 13.8326 16.2094 14.1936 16.2047C14.5779 16.2516 14.5076 16.4719 14.2545 16.575C13.7951 16.7625 13.3826 16.4109 13.1764 16.1766C13.0123 16.0031 12.8951 15.9938 12.9279 16.2703C13.0873 16.7625 13.3076 16.9547 13.6639 16.9781C13.9545 16.9547 13.9592 17.175 13.7436 17.3297C13.2607 17.6578 12.9139 17.0953 12.7498 16.7484C12.6326 16.4391 12.4545 16.5844 12.4357 16.8422C12.4357 17.1844 12.5857 17.4609 12.9982 17.8125C12.6842 18.3141 12.3186 18.8297 11.9998 19.3359L11.0389 8.63906L11.9998 6.95156C12.0982 6.85781 12.4357 6.45938 12.5248 6.40313C12.5576 6.37031 12.5764 6.34687 12.5295 6.32812C12.4826 6.30938 12.3795 6.29062 12.3045 6.28125C12.5107 6.075 12.6795 6.00938 13.0686 5.89688C12.9748 5.85938 12.8811 5.88281 12.6045 5.86875C12.7757 5.63599 13.0099 5.45707 13.2795 5.35312C13.0686 5.2125 13.0311 5.19844 12.8201 5.025C13.1811 4.99687 13.4904 4.93125 13.7951 4.8375C13.9843 4.74736 14.187 4.68877 14.3951 4.66406ZM14.3623 5.08594C14.1748 5.08594 14.0529 5.15156 14.0529 5.22656C14.0529 5.30625 14.1701 5.37187 14.3623 5.37187C14.5498 5.37187 14.6717 5.30156 14.6717 5.22188C14.6717 5.14219 14.5498 5.08125 14.3623 5.08125V5.08594Z" fill="black"/>
</g>
<defs>
<clipPath id="clip0_208_8828">
<rect width="24" height="24" rx="12" fill="white"/>
</clipPath>
</defs>
</svg>
