<svg width="24" height="24" viewBox="0 0 24 24" fill="none" xmlns="http://www.w3.org/2000/svg">
<g clip-path="url(#clip0_208_22339)">
<path d="M0 0H24V24H0V0Z" fill="#244AA5"/>
<path d="M9.48242 11.5171L9.54336 11.4843L9.61836 11.4609C9.61836 11.4609 9.65586 11.4421 9.67461 11.4421C9.69336 11.4421 9.73555 11.4656 9.74492 11.4843C9.75898 11.5031 9.82461 11.5312 9.82461 11.5312C9.82461 11.5312 9.87148 11.5499 9.87617 11.5312C9.88555 11.5218 9.9043 11.5078 9.92305 11.5078C9.9418 11.5078 9.95117 11.489 9.95117 11.4749C9.95117 11.4609 9.96055 11.4421 9.97461 11.4234C9.98867 11.4046 10.0215 11.3953 10.0215 11.3953C10.0215 11.3953 10.0684 11.3765 10.0684 11.3484C10.0684 11.3203 10.1199 11.3015 10.148 11.3015C10.1715 11.2968 10.148 11.2828 10.209 11.2921C10.2746 11.2968 10.284 11.2781 10.2887 11.2593C10.2887 11.2359 10.2887 11.2171 10.3309 11.2218C10.3684 11.2265 10.3918 11.2265 10.3918 11.2031C10.3918 11.1843 10.4293 11.1703 10.3637 11.1562C10.298 11.1328 10.3027 11.1468 10.298 11.1187C10.2934 11.0859 10.298 11.0906 10.2512 11.0859C10.2043 11.0859 10.2324 11.0624 10.2277 11.039C10.2277 11.0156 10.2137 11.0062 10.2043 10.9921C10.1949 10.9734 10.1715 10.9734 10.1715 10.9546C10.1715 10.9312 10.1715 10.9171 10.1434 10.9171C10.1152 10.9171 10.1105 10.9171 10.1105 10.8984C10.1105 10.8749 10.1152 10.8562 10.1387 10.8562C10.1621 10.8562 10.1762 10.8374 10.1715 10.814V10.7437L10.1996 10.7062L10.3074 10.6124C10.3168 10.5984 10.3496 10.5843 10.3637 10.6124C10.3777 10.6453 10.3871 10.6546 10.4012 10.6687C10.4105 10.6828 10.448 10.6687 10.4574 10.6593C10.4668 10.6406 10.4668 10.589 10.4902 10.5562C10.5137 10.5281 10.5277 10.5093 10.5324 10.4906C10.5371 10.4718 10.5465 10.4437 10.5746 10.4437C10.6027 10.4437 10.6168 10.4109 10.6168 10.3921C10.6168 10.3734 10.6262 10.3499 10.6637 10.3453C10.6918 10.3453 10.7105 10.3218 10.7199 10.3499C10.7293 10.3828 10.7387 10.3828 10.7621 10.3921C10.7809 10.4015 10.809 10.4156 10.8277 10.4015C10.8465 10.3874 10.8512 10.364 10.8746 10.3781C10.898 10.3921 10.9168 10.3781 10.9215 10.3499L10.9309 10.2796C10.9309 10.2796 10.9355 10.2609 10.9777 10.2609C11.0199 10.2609 10.9871 10.2374 11.0059 10.2234C11.0293 10.2046 11.0293 10.1906 11.0527 10.1999C11.0809 10.2093 11.123 10.1906 11.0996 10.1671C11.0809 10.139 11.034 10.1015 11.0574 10.0734C11.0855 10.0453 11.0949 9.99369 11.0715 9.98901C11.0434 9.98432 11.0059 9.99369 11.0012 9.96557C10.9965 9.93744 10.9871 9.91869 11.0152 9.90932C11.048 9.90932 11.1043 9.90932 11.1184 9.89057C11.1324 9.87182 11.1887 9.86713 11.1887 9.82494C11.1887 9.77807 11.2027 9.77807 11.2074 9.74994C11.2121 9.72651 11.2121 9.67494 11.1934 9.65151C11.1704 9.62879 11.15 9.60364 11.1324 9.57651C11.1267 9.56532 11.1187 9.5554 11.1091 9.54735C11.0994 9.5393 11.0882 9.53327 11.0762 9.52963C11.0434 9.52026 11.0152 9.51557 11.0152 9.49213C11.0152 9.46401 11.0387 9.49213 11.0387 9.43119C11.0387 9.37026 10.9918 9.35619 10.9918 9.35619L10.9309 9.31869C10.9309 9.31869 10.8184 9.29057 10.7902 9.29057C10.7621 9.29057 10.7246 9.25776 10.7574 9.23901C10.7949 9.21557 10.8043 9.18276 10.7902 9.15463C10.7762 9.12651 10.7668 9.10776 10.7199 9.09369C10.673 9.07963 10.659 9.07026 10.6777 9.04213C10.7012 9.01401 10.7059 8.99526 10.734 9.01401C10.7574 9.03276 10.7996 9.04213 10.8371 9.02338C10.8699 9.00932 10.884 8.99526 10.9027 9.01401C10.9168 9.02807 10.9402 9.04682 10.9684 9.02338C10.9918 8.99526 11.0387 8.99526 11.0621 9.00463C11.0855 9.01869 11.1371 9.01401 11.1559 9.00463C11.1699 8.99526 11.2027 8.96713 11.2027 8.95307C11.2027 8.93901 11.2262 8.90619 11.2496 8.89682C11.2684 8.88276 11.2965 8.84526 11.3199 8.84526C11.3434 8.84526 11.348 8.82182 11.348 8.80307C11.348 8.78432 11.3668 8.75619 11.3715 8.74682C11.3715 8.73276 11.4184 8.71401 11.4465 8.74213C11.4793 8.76557 11.5168 8.77494 11.5168 8.77494H11.5824C11.6059 8.76557 11.634 8.75619 11.6668 8.77494C11.6949 8.79838 11.7418 8.79838 11.7418 8.79838L11.7465 8.75151C11.7465 8.73276 11.7559 8.70463 11.7418 8.69526C11.723 8.68119 11.6996 8.66713 11.7371 8.63901C11.7699 8.61557 11.7699 8.62026 11.8027 8.62026L11.8871 8.62494C11.9152 8.62494 11.9574 8.64838 11.9574 8.67182C11.9574 8.69526 11.9762 8.71401 11.9949 8.72338C12.0184 8.73744 12.0418 8.74682 12.0371 8.77026C12.0277 8.78901 12.0277 8.80307 12.0512 8.80307C12.0793 8.79838 12.0887 8.81244 12.0887 8.83119C12.0887 8.84994 12.0934 8.86401 12.1215 8.87338C12.1496 8.88276 12.159 8.89682 12.159 8.92026L12.1637 8.96713C12.1684 8.98588 12.2012 9.01869 12.2012 9.01869C12.2012 9.01869 12.248 9.07494 12.1871 9.04682C12.1262 9.01869 12.1121 9.00932 12.0934 9.01401C12.0699 9.01401 12.0559 9.02807 12.0559 9.02807L12.009 9.03744C11.9809 9.03744 11.9621 9.08432 11.9949 9.08901C12.0324 9.09838 12.0418 9.10307 12.0418 9.13588C12.0418 9.16869 12.0324 9.15463 12.0137 9.17338C11.9949 9.19213 11.9809 9.18276 11.9527 9.18276C11.9199 9.18276 11.9152 9.20619 11.9152 9.22963C11.9152 9.25307 11.9246 9.24838 11.9387 9.26713C11.9527 9.29057 11.9762 9.29057 11.9949 9.27182C12.0184 9.25307 12.0371 9.23901 12.0465 9.27651C12.0559 9.31401 12.0793 9.31401 12.1027 9.31401C12.1309 9.31401 12.1402 9.31401 12.159 9.29994C12.1824 9.29057 12.2059 9.29994 12.2152 9.33276C12.2152 9.36557 12.2387 9.37026 12.2621 9.37963C12.2809 9.39369 12.2949 9.40307 12.2996 9.42182C12.3043 9.44057 12.3184 9.44994 12.3371 9.43588C12.3605 9.42651 12.3934 9.41713 12.4074 9.43588L12.4449 9.48276V9.52026L12.5293 9.54838L12.5387 9.58588C12.5387 9.60463 12.5527 9.60932 12.5715 9.60463H12.6324C12.6324 9.60463 12.6652 9.59057 12.6652 9.56713C12.6652 9.54369 12.6793 9.53901 12.698 9.53901C12.7215 9.53901 12.7684 9.55307 12.7824 9.52963C12.7965 9.50619 12.834 9.49682 12.8621 9.51088L12.9746 9.55307C12.9746 9.55307 12.9652 9.55307 12.9887 9.59994C13.0168 9.63744 13.0637 9.63744 13.0637 9.63744L13.0777 9.68901C13.0871 9.70307 13.1246 9.71244 13.148 9.69838C13.1668 9.67963 13.1949 9.66088 13.223 9.66088C13.2512 9.66088 13.2699 9.66088 13.2699 9.64682C13.2699 9.63276 13.2418 9.61869 13.2418 9.59057C13.2418 9.56713 13.2699 9.56713 13.2746 9.54369C13.2746 9.52026 13.3027 9.54369 13.3215 9.55776C13.3355 9.56713 13.359 9.59057 13.359 9.60463C13.359 9.61869 13.3965 9.67494 13.4152 9.68432C13.4387 9.69369 13.4949 9.69838 13.509 9.67494C13.5277 9.65619 13.5699 9.64682 13.5699 9.69838C13.5652 9.74526 13.5559 9.74526 13.584 9.76401C13.6168 9.78276 13.6215 9.83901 13.5934 9.85307C13.5699 9.86713 13.5605 9.87182 13.5605 9.89994C13.5605 9.92807 13.5512 9.96088 13.5699 9.97494C13.5934 9.99369 13.6074 10.0031 13.6074 10.0218C13.6074 10.0406 13.6309 10.1109 13.6309 10.1109C13.6309 10.1109 13.6449 10.1812 13.6402 10.1953C13.6355 10.2093 13.6309 10.2421 13.6684 10.2374C13.7059 10.2328 13.7152 10.2328 13.7152 10.2656C13.7152 10.2984 13.7293 10.3124 13.7059 10.3218C13.6871 10.3312 13.673 10.3687 13.6918 10.3828C13.7152 10.3874 13.734 10.4015 13.7387 10.4156C13.7387 10.4343 13.7762 10.4624 13.7996 10.4437C13.8184 10.4296 13.823 10.4203 13.8418 10.4156C13.8605 10.4156 13.8699 10.4015 13.8559 10.3828C13.8371 10.3593 13.8324 10.3406 13.8512 10.3265C13.8699 10.3171 13.8746 10.2796 13.8746 10.2796C13.8746 10.2796 13.9027 10.2421 13.9309 10.2796C13.9637 10.3124 13.9684 10.2984 13.9871 10.2984C14.0105 10.2984 14.0199 10.3218 14.0199 10.3406C14.0199 10.3593 14.0668 10.3546 14.0668 10.3874L14.0715 10.4953C14.0715 10.4953 14.0715 10.5421 14.0996 10.5562C14.123 10.5749 14.1184 10.5749 14.1043 10.5984C14.0949 10.6171 14.0996 10.6453 14.0996 10.664C14.0996 10.6828 14.1043 10.6874 14.0855 10.7062C14.0621 10.7203 14.0527 10.739 14.0668 10.7624C14.0809 10.7906 14.0762 10.8046 14.1137 10.8328C14.1465 10.8609 14.1418 10.8749 14.1418 10.8937C14.1418 10.9124 14.1746 10.9406 14.1746 10.9593C14.1746 10.9828 14.2027 11.0062 14.2215 11.0062C14.2402 11.0062 14.2684 11.0484 14.2684 11.0671L14.2777 11.1421C14.2777 11.1421 14.273 11.1515 14.2965 11.1515C14.3246 11.1515 14.3434 11.1796 14.348 11.1515C14.3574 11.1187 14.3855 11.114 14.3996 11.1046C14.4184 11.0953 14.4559 11.0812 14.4699 11.0906C14.4887 11.1046 14.5121 11.1046 14.5262 11.1046H14.6293C14.6293 11.1046 14.648 11.1046 14.6621 11.1374C14.6762 11.1703 14.7137 11.2031 14.6949 11.2218C14.6715 11.2359 14.6715 11.2687 14.6949 11.2687C14.723 11.2687 14.7512 11.2687 14.7512 11.2874C14.7512 11.3109 14.7512 11.3249 14.7746 11.3109C14.798 11.2968 14.8121 11.2968 14.8215 11.3109C14.8262 11.3296 14.8449 11.3296 14.8684 11.339C14.8871 11.3531 14.8965 11.3437 14.9105 11.3296C14.9246 11.3109 14.9762 11.2968 14.9762 11.2968C14.9762 11.2968 15.0465 11.2828 15.0699 11.2874L15.1309 11.3109C15.1309 11.3109 15.1496 11.3531 15.1402 11.3765C15.1309 11.3999 15.1215 11.3953 15.1309 11.4328C15.1402 11.4703 15.1215 11.4749 15.1074 11.4703C15.0887 11.4656 15.0699 11.4656 15.0699 11.4984C15.0699 11.5312 15.0512 11.5359 15.0512 11.564C15.0512 11.5921 15.0512 11.5874 15.0371 11.6015C15.0184 11.6109 15.0137 11.6343 15.0371 11.639C15.0652 11.639 15.0559 11.6671 15.0559 11.6859V11.7328C15.0559 11.7328 15.0559 11.7562 15.0277 11.7562C14.9949 11.7562 14.9715 11.7562 14.9668 11.7749C14.9621 11.7937 14.9293 11.8218 14.9574 11.8453C14.9902 11.864 14.9809 11.8781 14.9621 11.8828C14.9434 11.8921 14.934 11.9296 14.9621 11.9437C14.9996 11.9578 14.9949 11.9671 14.9762 11.9859C14.9527 11.9999 14.9105 12.014 14.9105 12.0328C14.9105 12.0609 14.9012 12.0609 14.873 12.0656C14.8449 12.0703 14.8355 12.0984 14.8684 12.1406C14.8965 12.1828 14.9059 12.1734 14.9293 12.1734C14.948 12.1734 14.948 12.1406 14.948 12.1406H15.0418C15.0652 12.1406 15.098 12.1406 15.1121 12.1312C15.1309 12.1218 15.1777 12.0984 15.1777 12.1359C15.1777 12.1734 15.1871 12.1687 15.2105 12.1828C15.2293 12.2015 15.234 12.1874 15.2574 12.2109C15.2715 12.2343 15.2762 12.2156 15.2855 12.1874C15.2996 12.1593 15.3277 12.1312 15.3465 12.164C15.3652 12.1968 15.3699 12.1874 15.3934 12.1874C15.4215 12.1874 15.4309 12.2015 15.4309 12.2203C15.4309 12.239 15.459 12.239 15.4871 12.2343C15.5152 12.2296 15.5199 12.2531 15.534 12.2718C15.548 12.2906 15.5527 12.2906 15.5715 12.2906C15.5855 12.2906 15.6043 12.2906 15.6184 12.2718C15.6324 12.2578 15.6465 12.2343 15.6652 12.2624C15.684 12.2906 15.7168 12.2812 15.7262 12.2531C15.7355 12.2249 15.773 12.2015 15.7965 12.2343C15.8152 12.2624 15.834 12.2624 15.8574 12.2671C15.8762 12.2718 15.909 12.2718 15.923 12.2906C15.9371 12.314 15.9793 12.3468 15.9465 12.3703C15.9184 12.3937 15.8809 12.4265 15.909 12.4312C15.9371 12.4406 15.9559 12.4499 15.9699 12.4687C15.9887 12.4874 16.0449 12.4968 16.0684 12.5015C16.0965 12.5015 16.1152 12.5109 16.148 12.4828C16.1762 12.4593 16.209 12.4593 16.2043 12.4921C16.1996 12.5249 16.2184 12.5624 16.2184 12.5624C16.2184 12.5624 16.2371 12.6093 16.2371 12.6328C16.2371 12.6515 16.2371 12.6562 16.2746 12.6796C16.3121 12.7031 16.3074 12.7218 16.3402 12.6984C16.3684 12.6703 16.3777 12.6609 16.3777 12.6421V12.5765C16.3777 12.5765 16.4246 12.5671 16.4387 12.5578C16.4527 12.5484 16.5277 12.5109 16.5418 12.5249C16.5559 12.539 16.584 12.5343 16.598 12.5249H16.6684C16.6871 12.5249 16.7152 12.5249 16.7527 12.4968C16.7855 12.4687 16.7855 12.4781 16.809 12.4968C16.8324 12.5156 16.8277 12.5437 16.8184 12.5578C16.8043 12.5718 16.8184 12.6046 16.8465 12.6046C16.8793 12.6046 16.884 12.6234 16.884 12.6468L16.8934 12.7078C16.898 12.7265 16.898 12.7312 16.9449 12.7453C16.9918 12.7546 16.9871 12.7828 16.9918 12.8062C17.0012 12.8249 17.0012 12.839 16.9777 12.839C16.9496 12.839 16.9402 12.8531 16.9402 12.8718C16.9355 12.8906 16.8934 12.8999 16.8934 12.8999L16.8559 12.8906C16.8559 12.8906 16.8277 12.8906 16.8184 12.9093C16.8043 12.9234 16.7762 12.9562 16.7949 12.9843C16.8137 13.0124 16.8137 13.0312 16.7949 13.0406C16.7762 13.0546 16.7668 13.1109 16.748 13.1015C16.7293 13.0921 16.7105 13.1015 16.6965 13.1109C16.6777 13.1203 16.6824 13.1765 16.7152 13.1953C16.7527 13.2187 16.7621 13.2421 16.7621 13.2421L16.7996 13.3031L16.7762 13.3359C16.7668 13.3546 16.7434 13.3968 16.7668 13.4062C16.7902 13.4156 16.7809 13.4531 16.7574 13.4531C16.7293 13.4531 16.7012 13.4437 16.6965 13.4765C16.6918 13.5093 16.6777 13.4999 16.6496 13.4953C16.6262 13.4953 16.5559 13.4765 16.5418 13.5093C16.5277 13.5421 16.523 13.5562 16.4949 13.5468C16.4621 13.5468 16.4715 13.5937 16.4809 13.6171C16.4902 13.6359 16.523 13.664 16.523 13.664C16.523 13.664 16.5465 13.6828 16.5465 13.7249C16.5465 13.7671 16.5277 13.7624 16.5137 13.7343C16.4996 13.7062 16.4621 13.7109 16.4574 13.739C16.4527 13.7718 16.448 13.8187 16.4152 13.8187C16.3871 13.8187 16.373 13.8281 16.359 13.8468C16.3496 13.8609 16.3262 13.889 16.3262 13.9031C16.3262 13.9171 16.3215 13.9359 16.298 13.9406C16.2793 13.9406 16.2746 13.9874 16.2746 13.9874C16.2746 13.9874 16.223 13.9968 16.2184 14.0156C16.2137 14.0343 16.2184 14.0671 16.1762 14.0718C16.134 14.0765 16.1105 14.1046 16.0965 14.1234C16.0824 14.1468 16.0777 14.1609 16.0965 14.1796C16.1152 14.1984 16.1246 14.264 16.1434 14.2734C16.1715 14.2874 16.1902 14.2921 16.1809 14.3203C16.1809 14.3578 16.1527 14.3812 16.1855 14.3812C16.223 14.3812 16.2418 14.3906 16.2324 14.4187C16.2184 14.4468 16.2184 14.4468 16.1902 14.4609C16.1668 14.4749 16.1527 14.4749 16.1527 14.5078C16.1527 14.5406 16.1621 14.5359 16.1387 14.5499C16.1152 14.5593 16.1152 14.5781 16.1152 14.5968C16.1152 14.6249 16.1105 14.6156 16.0824 14.6437C16.0543 14.6718 16.0215 14.6718 15.998 14.6624C15.9793 14.6578 15.9746 14.6578 15.9699 14.6343C15.9652 14.6062 15.923 14.6062 15.9043 14.6109C15.8809 14.6156 15.8527 14.639 15.8527 14.639C15.8527 14.639 15.8152 14.6624 15.8293 14.6859C15.848 14.7046 15.8387 14.7328 15.8105 14.7328C15.7777 14.7328 15.7074 14.7656 15.6887 14.7328C15.6652 14.6906 15.6043 14.6671 15.5949 14.7187C15.5855 14.7656 15.623 14.7609 15.6184 14.8124C15.6137 14.8593 15.6043 14.8593 15.5855 14.8734C15.5715 14.8874 15.5715 14.9015 15.5668 14.9203C15.5621 14.939 15.5574 14.9859 15.5855 14.9999C15.6184 15.0187 15.6324 15.0609 15.6324 15.0843C15.6324 15.1078 15.6324 15.1312 15.6605 15.1312C15.6934 15.1312 15.7168 15.1312 15.7215 15.0984C15.7262 15.0703 15.7871 15.0562 15.7918 15.1124C15.7965 15.1687 15.7918 15.1968 15.8199 15.2203C15.8387 15.2437 15.8574 15.2765 15.8762 15.2906C15.8949 15.3046 15.923 15.4031 15.923 15.4031C15.8762 15.4124 15.8668 15.4687 15.8387 15.4781C15.8246 15.4828 15.8105 15.4781 15.7918 15.4874C15.7824 15.4968 15.7824 15.5109 15.7684 15.5203C15.7355 15.5343 15.7449 15.4828 15.7027 15.5015C15.6699 15.5156 15.6652 15.5578 15.6184 15.539C15.5902 15.5296 15.5715 15.4312 15.5668 15.4078C15.5668 15.3937 15.534 15.3515 15.5246 15.3374C15.4965 15.2906 15.4402 15.3374 15.4215 15.3234C15.3887 15.3046 15.4027 15.2671 15.3605 15.2671C15.2668 15.2578 15.3324 15.3187 15.2949 15.3328C15.2246 15.3609 15.2246 15.2671 15.1684 15.3093C15.1496 15.3234 15.2012 15.3374 15.1871 15.3656C15.1777 15.3843 15.1215 15.4218 15.1262 15.4499C15.1309 15.4874 15.173 15.4968 15.1824 15.5296C15.2152 15.6093 15.1637 15.6703 15.0793 15.6046C15.0324 15.5671 15.0277 15.5015 14.9574 15.5062C14.9387 15.5062 14.934 15.5203 14.9152 15.5249C14.9012 15.5249 14.8871 15.5109 14.8684 15.5156C14.8449 15.5249 14.8684 15.5437 14.8637 15.5578L14.8215 15.5953C14.8027 15.6187 14.8074 15.6421 14.7793 15.6656C14.7559 15.6796 14.7371 15.6703 14.7137 15.6984C14.6855 15.7265 14.6809 15.7687 14.648 15.7968C14.6293 15.8109 14.6199 15.7546 14.6012 15.7968C14.5918 15.7968 14.5918 15.8015 14.5871 15.8062V15.8343C14.634 15.9281 14.5402 15.9562 14.5074 16.0218C14.4934 16.0453 14.5309 16.0687 14.5168 16.0874C14.5074 16.1062 14.4652 16.1437 14.4605 16.1531C14.4605 16.1624 14.4559 16.1812 14.4465 16.1906C14.4371 16.1999 14.4137 16.1906 14.409 16.2046C14.409 16.2187 14.4371 16.2328 14.4465 16.2421C14.4559 16.2515 14.4418 16.2656 14.4465 16.2703C14.4934 16.3171 14.4652 16.3031 14.4887 16.3453C14.4887 16.3546 14.5074 16.3453 14.5121 16.3593C14.5168 16.3734 14.5027 16.3734 14.5074 16.3874L14.5449 16.439C14.5449 16.4531 14.4746 16.4859 14.4605 16.4859C14.4184 16.4859 14.498 16.4015 14.4277 16.4015C14.3996 16.4015 14.3996 16.4671 14.3902 16.4765H14.3527C14.3105 16.4765 14.2824 16.5281 14.2637 16.5328H14.2121C14.1934 16.5328 14.1746 16.5515 14.1559 16.5515C14.1465 16.5515 14.1418 16.5421 14.1324 16.5374L14.0574 16.514C14.0434 16.514 14.0199 16.5328 14.0105 16.5234C14.0012 16.5187 14.0246 16.4906 13.9918 16.4765L13.9637 16.4109C13.973 16.3734 13.9871 16.3312 13.9824 16.2937C13.973 16.2468 13.9121 16.214 13.8887 16.1812C13.8793 16.1578 13.8699 16.0874 13.8418 16.0734C13.8143 16.052 13.7919 16.0248 13.7762 15.9937C13.7762 15.9843 13.7855 15.9703 13.7762 15.9562C13.7668 15.9421 13.7434 15.9374 13.7387 15.9187C13.734 15.8999 13.7387 15.8484 13.7199 15.839C13.7012 15.8249 13.5652 15.8109 13.5324 15.8062C13.5184 15.8062 13.5043 15.8062 13.4902 15.7921L13.4715 15.7687L13.4293 15.7734H13.3965C13.3496 15.8015 13.3449 15.839 13.3027 15.8671C13.2605 15.9046 13.2184 15.8999 13.1762 15.9374C13.148 15.9609 13.1293 16.0171 13.1059 16.0406C13.0965 16.0546 13.0777 16.0406 13.073 16.0453L12.998 16.1156C12.998 16.1156 12.998 16.1296 12.9887 16.1343L12.9418 16.1437H12.8949C12.8762 16.1531 12.8762 16.1765 12.8012 16.1906L12.7871 16.1999L12.759 16.2234H12.7309C12.7121 16.2234 12.698 16.2374 12.684 16.2421C12.6418 16.2421 12.5809 16.2234 12.5527 16.2374C12.534 16.2421 12.4824 16.2984 12.459 16.3031H12.4309C12.4215 16.3031 12.4074 16.3687 12.4027 16.3828L12.309 16.4624L12.2855 16.4999C12.2762 16.5093 12.2621 16.5187 12.248 16.5187C12.2293 16.5187 12.2012 16.5046 12.1871 16.4999C12.1543 16.4999 12.0605 16.4906 12.0324 16.4999C12.0043 16.4999 12.0137 16.589 11.9387 16.5937L11.8121 16.6124C11.8121 16.6124 11.784 16.5937 11.7559 16.6031C11.7465 16.6031 11.7184 16.6359 11.7184 16.6499V16.664L11.723 16.6781C11.709 16.7015 11.6715 16.7249 11.6574 16.7531L11.648 16.7671C11.6387 16.7765 11.5871 16.7953 11.5824 16.8046C11.5684 16.8328 11.6152 16.8609 11.6105 16.8749C11.6012 16.9124 11.5449 16.9499 11.5309 16.9874C11.5262 17.0015 11.5496 17.0484 11.5449 17.0671C11.5449 17.114 11.5262 17.1749 11.5262 17.2218L11.5355 17.2828L11.5637 17.3015C11.5684 17.3109 11.6293 17.4234 11.6293 17.4374C11.6387 17.5171 11.5215 17.489 11.5918 17.5734L11.6199 17.6109L11.7277 17.6953C11.7277 17.7093 11.6527 17.7234 11.6434 17.7328C11.6059 17.7703 11.5777 17.8312 11.5449 17.8687C11.5215 17.8874 11.5027 17.8687 11.4793 17.9156C11.4699 17.9343 11.4793 17.9765 11.4652 17.9906C11.4465 18.0093 11.4324 17.9812 11.4184 17.9906C11.409 17.9906 11.4043 18.0187 11.3996 18.0234C11.3762 18.0374 11.2027 18.1312 11.1887 18.1218C11.1793 18.1218 11.1699 18.089 11.1699 18.0796C11.1652 18.0654 11.1572 18.0526 11.1465 18.0421C11.0996 18.0046 11.034 17.9953 10.9918 18.0421C10.9777 18.0562 10.9777 18.0749 10.9637 18.089L10.8887 18.1453C10.8887 18.1453 10.8746 18.164 10.8652 18.1593C10.8512 18.1593 10.809 18.1124 10.7949 18.0984C10.7762 18.0749 10.7199 18.0187 10.7152 17.9953C10.7152 17.9015 10.6449 17.8124 10.6168 17.7234H10.6637C10.7105 17.6953 10.6965 17.6109 10.7809 17.6437C10.7949 17.6296 10.7902 17.6156 10.8137 17.6015C10.823 17.6015 10.8371 17.5921 10.8371 17.5874C10.8699 17.5406 10.9027 17.3718 10.8746 17.3249C10.8465 17.2874 10.8184 17.2874 10.7949 17.2218V17.1656C10.7949 17.1468 10.7621 17.0531 10.7574 17.0437C10.7527 17.039 10.734 17.0296 10.734 17.0203C10.734 17.0156 10.7246 16.9124 10.7293 16.9031C10.7012 16.8234 10.598 16.7718 10.5934 16.7624L10.5559 16.6968C10.5418 16.6734 10.5418 16.6593 10.5324 16.6359C10.5324 16.6265 10.5137 16.6171 10.5137 16.6031C10.5137 16.5843 10.5699 16.5374 10.5699 16.5046C10.5699 16.4906 10.5324 16.4578 10.5371 16.4343C10.5465 16.4156 10.584 16.3687 10.584 16.3406C10.584 16.3124 10.523 16.2468 10.5137 16.214C10.5137 16.1953 10.5371 16.1812 10.5324 16.1718L10.4527 16.0874C10.448 16.0734 10.4762 16.0593 10.4527 16.0406C10.434 16.0171 10.4527 16.0265 10.448 16.0078L10.4105 15.9515L10.3496 15.7359C10.3402 15.7218 10.3262 15.7124 10.3215 15.6984L10.3027 15.6515C10.3027 15.6515 10.2418 15.6328 10.2324 15.614C10.223 15.5999 10.223 15.5578 10.2043 15.5343C10.1996 15.5203 10.1855 15.5249 10.1762 15.5156L10.1668 15.4921C10.148 15.4687 10.1152 15.4921 10.0918 15.3984L9.99805 15.3328L9.98867 15.3187C9.96523 15.3093 9.93242 15.3093 9.91367 15.2906L9.83867 15.2859L9.81992 15.2578C9.7918 15.2484 9.74023 15.2531 9.7168 15.2296C9.69336 15.2109 9.68867 15.1265 9.65586 15.1359H9.63711C9.61367 15.1031 9.53398 15.0984 9.49648 15.0796C9.48711 15.0749 9.45898 15.0796 9.45898 15.0703L9.46367 15.0234L9.4168 14.9718C9.38867 14.9624 9.40273 14.9578 9.3793 14.9484C9.32773 14.9437 9.32305 14.9484 9.28555 14.9859L9.24805 14.9999C9.2293 15.0093 9.22461 15.0468 9.20117 15.0281L9.17773 15.0093C9.16367 14.9953 9.1543 15.0046 9.14961 14.9812C9.10273 14.9578 8.98086 15.0374 8.95273 14.9812C8.9293 14.9671 8.91523 14.9812 8.89648 14.9671C8.88711 14.9578 8.91992 14.8546 8.83086 14.8171L8.89648 14.7703V14.7328C8.89648 14.7187 8.90586 14.6859 8.90117 14.6718L8.88242 14.6343C8.87305 14.6203 8.88242 14.6062 8.87305 14.5874L8.84492 14.5734C8.82148 14.5546 8.79805 14.5453 8.7793 14.5218L8.76523 14.5031C8.75117 14.4937 8.69492 14.4749 8.69961 14.4515C8.69961 14.4421 8.70898 14.4421 8.71367 14.4328C8.71367 14.4234 8.71367 14.4093 8.72305 14.3999C8.74648 14.3671 8.80273 14.3812 8.79336 14.3203C8.79336 14.2921 8.76992 14.2687 8.76523 14.2359L8.74648 14.2124C8.69023 14.2078 8.69961 14.1515 8.68086 14.1374C8.61992 14.0999 8.57773 14.1234 8.64336 14.0437C8.65273 14.0203 8.58711 13.9781 8.57305 13.9687C8.54961 13.9453 8.56367 13.8984 8.5543 13.8749C8.54961 13.8609 8.50742 13.8421 8.49805 13.8281L8.4793 13.7906V13.7812C8.49336 13.7718 8.48867 13.7578 8.4793 13.7437C8.4793 13.7343 8.46055 13.739 8.45586 13.7343C8.39961 13.6874 8.33867 13.664 8.26836 13.6406C8.24961 13.6312 8.25898 13.6171 8.24023 13.6078L8.13242 13.5609C8.11836 13.5609 8.11367 13.5187 8.1043 13.5093C8.09568 13.495 8.08457 13.4823 8.07148 13.4718C8.07148 13.4343 8.04805 13.4296 8.02461 13.4109L8.01523 13.3874L8.03867 13.3078C8.04336 13.2937 8.06211 13.2796 8.06211 13.2609L8.04336 13.1765C8.01523 13.1015 7.98242 13.1109 7.99648 13.0078C8.00117 12.9843 7.99648 12.9749 8.01055 12.9562L8.01992 12.9421L8.0668 12.9093C8.08086 12.8906 8.09023 12.839 8.11367 12.8249C8.12305 12.8109 8.16992 12.7874 8.17461 12.7781C8.18398 12.7687 8.19336 12.7453 8.18867 12.7312H8.1418C8.13711 12.7312 8.11836 12.7124 8.09961 12.7124L8.09023 12.6937L8.08086 12.6843L8.03398 12.6703C8.01055 12.6609 7.98711 12.6609 7.96367 12.6468C7.93086 12.6281 7.89336 12.5718 7.85586 12.5671C7.80898 12.5578 7.78086 12.5671 7.73867 12.5671C7.71055 12.5718 7.71055 12.5578 7.6918 12.5484C7.65898 12.539 7.68242 12.5671 7.61211 12.5437C7.60273 12.5343 7.61211 12.5109 7.6168 12.5015C7.60742 12.5015 7.59336 12.5062 7.5793 12.5015C7.52305 12.4874 7.5418 12.4359 7.53242 12.4078C7.52305 12.3937 7.49961 12.3984 7.48555 12.3984V12.3843C7.49961 12.3703 7.4668 12.3328 7.4668 12.3281C7.4668 12.314 7.53711 12.3046 7.54648 12.3046C7.55117 12.2953 7.5418 12.2859 7.5418 12.2765L7.55586 12.2109L7.50898 12.164C7.51367 12.1593 7.52773 12.1499 7.52773 12.1406C7.56055 12.0468 7.61211 12.1218 7.65898 12.0374L7.68242 11.9906H7.6918L7.71992 11.9999C7.72461 11.9906 7.73867 11.9859 7.74805 11.9812L7.7668 11.9859C7.85117 11.9671 7.83242 11.939 7.8793 11.9015C7.89336 11.8921 7.93086 11.8921 7.94961 11.8828C7.96836 11.8921 7.99648 11.9203 8.0293 11.9343C8.05273 11.9437 8.13711 11.9624 8.15117 11.9718C8.16992 11.9812 8.17461 12.0046 8.19336 12.014C8.24023 12.0374 8.21211 11.9953 8.25898 12.0046C8.30586 12.014 8.34336 12.0515 8.39023 12.0703H8.42305C8.43711 12.0703 8.5168 12.0515 8.52148 12.0562L8.5543 12.0703C8.56367 12.0703 8.57305 12.0468 8.57773 12.0468C8.61055 12.0515 8.61523 12.0656 8.65742 12.0609C8.65742 12.0609 8.68086 11.939 8.7043 11.9343C8.71367 11.9343 8.74648 11.9624 8.75117 11.9671C8.76992 11.9671 8.75117 11.939 8.75117 11.939C8.75117 11.9296 8.72305 11.8546 8.72773 11.8453C8.72773 11.8453 8.74648 11.8546 8.75586 11.8453C8.78398 11.8453 8.81211 11.8359 8.83086 11.8171L8.87305 11.7609C8.87305 11.7515 8.86367 11.7281 8.86836 11.7234L8.90117 11.6999C8.91523 11.6859 8.91992 11.6624 8.93867 11.6531C9.01836 11.6437 9.0418 11.5828 9.11211 11.5734H9.13555L9.14961 11.5968C9.1543 11.6015 9.19648 11.6296 9.21055 11.6296L9.22461 11.6156C9.23867 11.6156 9.27617 11.5921 9.28086 11.5781C9.28086 11.5781 9.27148 11.5687 9.28086 11.5593C9.28086 11.5546 9.32773 11.5124 9.33711 11.5124H9.38867L9.41211 11.5359H9.4543C9.46367 11.5359 9.46836 11.5171 9.47773 11.5124L9.48242 11.5171Z" fill="#D0A650"/>
<path d="M13.1906 5.83594L13.7953 7.69687L12.2109 6.54844H14.1656L12.5859 7.69687L13.1906 5.83594ZM15.5438 6.25312L16.1484 8.11406L14.5641 6.96563H16.5234L14.9391 8.10938L15.5438 6.24844V6.25312ZM17.7891 7.06875L18.3984 8.92969L16.8141 7.78125H18.7687L17.1844 8.92969L17.7938 7.06875H17.7891Z" fill="white"/>
<path d="M10.8002 5.83594L10.1908 7.69687L11.7752 6.54844H9.82051L11.4049 7.69687L10.7955 5.83594H10.8002ZM8.44707 6.25312L7.8377 8.11406L9.42207 6.96563H7.46738L9.04707 8.10938L8.4377 6.24844L8.44707 6.25312ZM6.21113 7.06875L6.81582 8.92969L5.23145 7.78125H7.18613L5.60645 8.92969L6.21113 7.06875Z" fill="white"/>
</g>
<defs>
<clipPath id="clip0_208_22339">
<rect width="24" height="24" rx="12" fill="white"/>
</clipPath>
</defs>
</svg>
