<svg width="24" height="24" viewBox="0 0 24 24" fill="none" xmlns="http://www.w3.org/2000/svg">
<g clip-path="url(#clip0_208_26616)">
<mask id="mask0_208_26616" style="mask-type:luminance" maskUnits="userSpaceOnUse" x="-1" y="0" width="25" height="24">
<path d="M-0.000976562 0H23.9953V23.9963H-0.000976562V0Z" fill="white"/>
</mask>
<g mask="url(#mask0_208_26616)">
<path fill-rule="evenodd" clip-rule="evenodd" d="M-6 0H29.9945V23.9963H-6V0Z" fill="#E70013"/>
<path fill-rule="evenodd" clip-rule="evenodd" d="M18.0831 11.9886C18.0831 12.7834 17.9266 13.5704 17.6224 14.3047C17.3183 15.039 16.8724 15.7062 16.3104 16.2682C15.7484 16.8302 15.0812 17.276 14.3469 17.5802C13.6126 17.8843 12.8256 18.0409 12.0308 18.0409C11.236 18.0409 10.449 17.8843 9.7147 17.5802C8.9804 17.276 8.3132 16.8302 7.75119 16.2682C7.18918 15.7062 6.74338 15.039 6.43922 14.3047C6.13506 13.5704 5.97852 12.7834 5.97852 11.9886C5.97852 10.3834 6.61617 8.84398 7.75119 7.70896C8.88622 6.57393 10.4256 5.93628 12.0308 5.93628C13.636 5.93628 15.1754 6.57393 16.3104 7.70896C17.4455 8.84398 18.0831 10.3834 18.0831 11.9886Z" fill="white"/>
<path fill-rule="evenodd" clip-rule="evenodd" d="M12.0311 16.0039C10.9662 16.0039 9.9448 15.5809 9.19174 14.8278C8.43869 14.0748 8.01562 13.0534 8.01562 11.9884C8.01562 10.9234 8.43869 9.90207 9.19174 9.14902C9.9448 8.39596 10.9662 7.9729 12.0311 7.9729C12.5827 7.9729 13.2164 8.10353 13.6422 8.41799C10.7104 8.52927 9.96533 11.016 9.96533 12.0223C9.96533 13.0286 10.4394 15.2637 13.6422 15.5927C13.1474 15.8608 12.5939 16.002 12.0311 16.0039Z" fill="#E70013"/>
<path fill-rule="evenodd" clip-rule="evenodd" d="M15.568 13.6769L13.7441 13.0141L12.5394 14.5332L12.6072 12.598L10.7881 11.9207L12.6555 11.3837L12.7378 9.44849L13.8215 11.0547L15.6889 10.5322L14.494 12.061L15.568 13.6769Z" fill="#E70013"/>
</g>
</g>
<defs>
<clipPath id="clip0_208_26616">
<rect width="24" height="24" rx="12" fill="white"/>
</clipPath>
</defs>
</svg>
