<svg width="24" height="24" viewBox="0 0 24 24" fill="none" xmlns="http://www.w3.org/2000/svg">
<g clip-path="url(#clip0_208_22572)">
<path d="M0 0H24V24H0V0Z" fill="#CD2A3E"/>
<path d="M0 3.59998H24V20.4H0V3.59998Z" fill="#006233"/>
<path d="M19.5002 7.72974C19.5002 9.71886 18.71 11.6265 17.3035 13.033C15.897 14.4396 13.9893 15.2297 12.0002 15.2297C10.0111 15.2297 8.10342 14.4396 6.6969 13.033C5.29038 11.6265 4.5002 9.71886 4.5002 7.72974C4.33252 8.36938 4.24745 9.02786 4.24708 9.68911C4.24562 10.7913 4.47921 11.8812 4.93225 12.886C5.38529 13.8909 6.04737 14.7875 6.87434 15.5162C7.70131 16.245 8.67415 16.789 9.72798 17.112C10.7818 17.4351 11.8924 17.5297 12.9857 17.3896C14.079 17.2495 15.1298 16.8779 16.0682 16.2995C17.0065 15.7212 17.8107 14.9494 18.4272 14.0357C19.0437 13.122 19.4583 12.0874 19.6433 11.0008C19.8283 9.91422 19.7795 8.80067 19.5002 7.73442V7.72974Z" fill="#FFC400"/>
<path d="M12.0002 4.6875L11.3252 6.76406H9.14551L10.908 8.04375L10.2377 10.1156L12.0002 8.83594L13.7627 10.1156L13.0877 8.04375L14.8549 6.76406H12.6752L12.0002 4.6875Z" fill="#FFC400"/>
</g>
<defs>
<clipPath id="clip0_208_22572">
<rect width="24" height="24" rx="12" fill="white"/>
</clipPath>
</defs>
</svg>
