<svg width="24" height="24" viewBox="0 0 24 24" fill="none" xmlns="http://www.w3.org/2000/svg">
<g clip-path="url(#clip0_208_26625)">
<path fill-rule="evenodd" clip-rule="evenodd" d="M0 0H24V24H0V0Z" fill="#E30A17"/>
<path fill-rule="evenodd" clip-rule="evenodd" d="M16.3502 12.375C16.3502 15.6843 13.6174 18.3703 10.2518 18.3703C6.88613 18.3703 4.15332 15.6843 4.15332 12.3703C4.15332 9.0562 6.88145 6.37964 10.2471 6.37964C13.6127 6.37964 16.3549 9.06089 16.3549 12.375H16.3502Z" fill="white"/>
<path fill-rule="evenodd" clip-rule="evenodd" d="M16.6551 12.3749C16.6551 15.0233 14.4707 17.1702 11.7754 17.1702C9.08008 17.1702 6.90039 15.0233 6.90039 12.3749C6.90039 9.72646 9.08008 7.57959 11.7754 7.57959C14.4707 7.57959 16.6504 9.72646 16.6504 12.3749H16.6551Z" fill="#E30A17"/>
<path fill-rule="evenodd" clip-rule="evenodd" d="M17.5357 9.57178L17.4889 11.789L15.417 12.3515L17.4561 13.078L17.4092 15.1077L18.7357 13.5233L20.7467 14.2171L19.5842 12.5155L20.9998 10.8233L18.8248 11.4233L17.5357 9.57178Z" fill="white"/>
</g>
<defs>
<clipPath id="clip0_208_26625">
<rect width="24" height="24" rx="12" fill="white"/>
</clipPath>
</defs>
</svg>
