<svg width="24" height="24" viewBox="0 0 24 24" fill="none" xmlns="http://www.w3.org/2000/svg">
<g clip-path="url(#clip0_208_27964)">
<mask id="mask0_208_27964" style="mask-type:luminance" maskUnits="userSpaceOnUse" x="0" y="0" width="24" height="24">
<path d="M0 0H24V24H0V0Z" fill="white"/>
</mask>
<g mask="url(#mask0_208_27964)">
<path fill-rule="evenodd" clip-rule="evenodd" d="M-5.78438 10.9219H33.8906V20.5781H-5.78906L-5.78438 10.9219Z" fill="white"/>
<path fill-rule="evenodd" clip-rule="evenodd" d="M-5.75586 0H33.9004V12.0281H-5.75586V0ZM-5.7418 18.0891H34.2004V24H-5.7418V18.0891Z" fill="#081873"/>
<path fill-rule="evenodd" clip-rule="evenodd" d="M-5.74219 14.1843H33.9141V16.0406H-5.74219V14.1843Z" fill="#DE3929"/>
<path fill-rule="evenodd" clip-rule="evenodd" d="M6.14062 18.7125L6.45 19.6688H7.45312L6.6375 20.2641L6.94687 21.225L6.14062 20.625L5.325 21.2204L5.63906 20.2594L4.82344 19.6641H5.83125M14.8594 11.7375L15.1734 12.6985H16.1719L15.3563 13.2891L15.6656 14.25L14.85 13.6547L14.0344 14.25L14.3438 13.2891L13.5281 12.6985H14.5406M4.13437 15.7172L4.44375 16.6782H5.45156L4.64062 17.2782L4.95469 18.2344L4.13906 17.6438L3.32344 18.2344L3.63281 17.2782L2.81719 16.6829H3.825M14.8594 15.4454L15.1734 16.4016H16.1719L15.3563 16.9969L15.6656 17.9532L14.85 17.3625L14.0344 17.9579L14.3438 16.9969L13.5281 16.4016H14.5406M12.6422 8.82192L12.9562 9.77817H13.9688L13.1531 10.3735L13.4625 11.3344L12.6469 10.7391L11.8312 11.3344L12.1453 10.3735L11.325 9.77817H12.3375M9.31406 7.65942L9.62812 8.62036H10.6359L9.82031 9.21099L10.1297 10.1719L9.31406 9.5813L8.49844 10.1719L8.8125 9.21099L7.99688 8.62036H9M5.97656 8.7563L6.29062 9.71724H7.29844L6.48281 10.3079L6.79688 11.2688L5.97656 10.6735L5.16094 11.2688L5.475 10.3079L4.65938 9.71724H5.67188M4.04062 11.7422L4.35 12.7032H5.3625L4.54219 13.2938L4.85625 14.2547L4.04062 13.6594L3.225 14.2547L3.53438 13.2938L2.71875 12.7032H3.72656M9.31406 19.7063L9.62812 20.6672H10.6359L9.82031 21.2579L10.1344 22.2188L9.31406 21.6235L8.49844 22.2188L8.8125 21.2579L7.99688 20.6672H9M12.8531 18.7125L13.1625 19.6688H14.1703L13.3594 20.2641L13.6734 21.225L12.8578 20.6297L12.0375 21.225L12.3516 20.2641L11.5359 19.6688H12.5438" fill="#FFCE08"/>
</g>
</g>
<defs>
<clipPath id="clip0_208_27964">
<rect width="24" height="24" rx="12" fill="white"/>
</clipPath>
</defs>
</svg>
