<svg width="24" height="24" viewBox="0 0 24 24" fill="none" xmlns="http://www.w3.org/2000/svg">
<g clip-path="url(#clip0_208_26525)">
<path d="M0 0H24V24H0V0Z" fill="#00247D"/>
<path d="M4.25156 18.0094C4.00312 18.0094 6.59531 16.6265 8.77031 14.8594C11.6156 12.539 17.7469 8.82654 19.5516 8.22654C19.7391 8.1656 19.1672 8.54529 19.0922 8.67185C17.1656 10.95 18.7031 15.2484 21.1078 17.4094C21.8297 17.9625 21.7922 17.9906 23.1328 18.0469V18.1734L4.25156 18.0094ZM4.09688 18.2625C4.09688 18.2625 3.91406 18.3937 3.91406 18.4922C3.91406 18.6 4.12031 18.7453 4.12031 18.7453L22.7438 18.9515L23.0859 18.7219L22.6078 18.4265L4.09688 18.2625Z" fill="#FED100"/>
<path d="M4.94531 5.46567L4.75781 6.03286L5.24531 5.6813L5.72812 6.03286L5.54062 5.46567L6.02812 5.11411H5.42812L5.24531 4.54224L5.05781 5.11411H4.4625L4.94531 5.46567ZM8.59219 8.14224L8.99531 7.85161H8.49844L8.34375 7.37817L8.18906 7.85161H7.69219L8.09531 8.14224L7.94062 8.61567L8.34375 8.32505L8.74687 8.61567L8.59219 8.14224ZM1.80937 8.75161L1.62656 8.18442L1.43906 8.75161H0.84375L1.32656 9.10317L1.13906 9.67036L1.62656 9.3188L2.10937 9.67036L1.92656 9.10317L2.40937 8.75161H1.80937ZM5.46094 14.4657L5.24531 13.8L5.02969 14.4657H4.33125L4.89375 14.8735L4.67812 15.5391L5.24531 15.1266L5.80781 15.5391L5.59219 14.8735L6.15469 14.4657H5.46094Z" fill="white"/>
</g>
<defs>
<clipPath id="clip0_208_26525">
<rect width="24" height="24" rx="12" fill="white"/>
</clipPath>
</defs>
</svg>
