<svg width="24" height="24" viewBox="0 0 24 24" fill="none" xmlns="http://www.w3.org/2000/svg">
<g clip-path="url(#clip0_208_10346)">
<path d="M0 0H24V24H0V0Z" fill="#CF142B"/>
<path d="M0 0H12V12H0V0Z" fill="#000066"/>
<path d="M12 0V1.5L7.54688 6L12 10.3828V12H10.4297L5.95312 7.59375L1.59375 12H0V10.4062L4.35938 6.02344L0 1.73438V0H1.45312L5.95312 4.40625L10.3125 0H12Z" fill="white"/>
<path d="M4.3125 7.59375L4.57031 8.39062L0.984375 12H0V11.9297L4.3125 7.59375ZM7.21875 7.3125L8.48438 7.5L12 10.9453V12L7.21875 7.3125ZM12 0L7.5 4.59375L7.40625 3.5625L10.9219 0H12ZM0 0.0234375L4.52344 4.45312L3.14062 4.26562L0 1.14844V0.0234375Z" fill="#C8102E"/>
<path d="M4.125 0V12H7.875V0H4.125ZM0 4.125V7.875H12V4.125H0Z" fill="white"/>
<path d="M0 4.875V7.125H12V4.875H0ZM4.875 0V12H7.125V0H4.875Z" fill="#C8102E"/>
<path d="M21.8904 6.87183V14.4468C21.8904 16.4671 17.8545 17.1281 17.8545 17.1281C17.8545 17.1281 13.7998 16.4718 13.7998 14.4375V6.87183H21.8904Z" fill="white"/>
<path d="M21.8904 14.4469C21.8904 16.4672 17.8545 17.1281 17.8545 17.1281C17.8545 17.1281 13.7998 16.4719 13.7998 14.4375C13.7998 14.4375 13.7998 14.2734 13.8842 14.1844C13.8842 14.1844 13.8373 14.5172 14.0951 14.775C14.0951 14.775 13.8936 14.4094 14.0951 14.0578C14.0951 14.0578 14.0201 14.5172 14.3014 14.775C14.3014 14.775 14.1467 14.4047 14.3201 13.9922C14.3201 13.9922 14.2357 14.6625 14.5451 14.8031C14.5451 14.8031 14.6295 14.4094 14.5029 14.1656C14.5029 14.1656 14.7186 14.25 14.7045 14.8125C14.7045 14.8125 14.7748 14.7281 14.7889 14.3203C14.7889 14.3203 14.8029 14.7891 14.9576 14.8969C14.9576 14.8969 15.0139 14.85 14.9389 14.6391C14.8686 14.4328 14.967 14.3578 14.9857 14.3578C14.9857 14.3578 14.9529 14.5922 15.1451 14.7703C15.1451 14.7703 15.0654 14.4 15.1826 14.3484C15.1826 14.3484 15.1545 14.6625 15.4029 14.7281C15.4029 14.7281 15.4217 14.6391 15.3654 14.5406C15.3654 14.5406 15.3186 14.4234 15.3561 14.3297C15.3561 14.3297 15.4311 14.6109 15.5389 14.6578C15.5389 14.6578 15.4779 14.4891 15.5389 14.3297C15.5389 14.3297 15.5482 14.5641 15.7639 14.6625C15.7639 14.6625 15.6232 14.475 15.6701 14.2781L17.0201 14.3438L17.7186 14.3766L19.8139 14.2359L20.1701 13.9219C20.1701 13.9219 20.3154 14.1141 20.0904 14.4281C20.0904 14.4281 20.3107 14.3906 20.3857 14.0391C20.3857 14.0391 20.4748 14.2312 20.3529 14.4516C20.3529 14.4516 20.5967 14.1984 20.6342 13.9219C20.6342 13.9219 20.7279 14.1938 20.4936 14.4844C20.4936 14.4844 20.7045 14.4094 20.7936 14.1047C20.7936 14.1047 20.8639 14.2922 20.6623 14.55C20.6623 14.55 21.042 14.3578 21.0373 13.9406C21.0373 13.9406 21.1873 14.1656 21.0092 14.4844C21.0092 14.4844 21.1967 14.3109 21.2248 14.0484C21.2248 14.0484 21.3279 14.1656 21.2107 14.4891C21.2107 14.4891 21.4451 14.2641 21.4873 14.025C21.4873 14.025 21.5342 14.25 21.3326 14.5312C21.3326 14.5312 21.4732 14.4937 21.6045 14.2219C21.6045 14.2219 21.6373 14.3344 21.5201 14.5312C21.5201 14.5312 21.6467 14.5078 21.7311 14.2547C21.7311 14.2547 21.7498 14.4047 21.7076 14.5359C21.7076 14.5359 21.8107 14.475 21.8342 14.1937C21.8342 14.1937 21.8857 14.2828 21.8857 14.4V14.4375L21.8904 14.4469Z" fill="#2F8F22"/>
<path d="M19.8143 10.064C19.8143 10.064 19.6736 10.0921 19.4908 10.0359C19.3127 9.97964 19.2377 10.0031 19.1814 10.0359C19.1814 10.0359 19.2564 9.89058 19.0783 9.77339C19.0783 9.77339 19.1346 9.92339 19.0549 9.98901C19.0549 9.98901 19.0221 10.0218 18.9752 9.97495C18.9752 9.97495 18.9143 9.90464 18.8486 9.86245C18.8486 9.86245 18.9986 9.8062 18.9705 9.65151C18.9424 9.49683 18.858 9.48276 18.8205 9.45933C18.8129 9.49644 18.8129 9.53471 18.8205 9.57183C18.8205 9.57183 18.6518 9.47808 18.8768 9.35151C19.1018 9.22495 19.0643 9.14526 19.0174 9.07964C18.9741 9.01334 18.9184 8.95603 18.8533 8.91089C18.8533 8.91089 18.9002 8.98589 18.8861 9.04683C18.8814 9.10308 18.7736 9.14058 18.7971 9.04214C18.8205 8.92964 18.7971 8.94839 18.7971 8.84058C18.7971 8.84058 18.9939 8.9062 19.0783 8.70933C19.0783 8.70933 19.1486 8.50776 18.9002 8.40933C18.9002 8.40933 18.9611 8.4937 18.933 8.54995C18.933 8.54995 18.8768 8.65308 18.8158 8.57808C18.7549 8.49839 18.708 8.47495 18.7127 8.3812C18.7127 8.3812 18.9471 8.41401 18.8814 8.16089C18.8814 8.16089 18.8439 8.32964 18.5439 8.10464C18.5439 8.10464 18.7408 7.90776 18.6611 7.74839C18.6611 7.74839 18.6424 7.67808 18.4361 7.71558C18.4361 7.71558 18.6143 7.60308 18.5393 7.50464C18.5393 7.50464 18.5018 7.4437 18.3283 7.52339C18.3283 7.52339 18.3939 7.41558 18.2252 7.28901C18.2252 7.28901 18.1174 7.34526 18.0611 7.40151C18.0611 7.40151 17.9486 7.26089 17.8736 7.19995C17.8736 7.19995 17.7424 7.25151 17.7096 7.40151C17.7096 7.40151 17.6439 7.3312 17.508 7.28901C17.508 7.28901 17.4377 7.42026 17.5268 7.52339C17.5268 7.52339 17.4611 7.52339 17.3439 7.47183C17.3439 7.47183 17.208 7.41558 17.2314 7.52339C17.2502 7.63589 17.2596 7.66401 17.2877 7.72026C17.2877 7.72026 16.9877 7.64995 16.9971 7.81401C17.0004 7.86977 17.0149 7.92428 17.0399 7.97424C17.0649 8.02419 17.0997 8.06856 17.1424 8.10464C17.1424 8.10464 16.9736 8.32964 16.8283 8.16089C16.8283 8.16089 16.7721 8.21714 16.8846 8.35776C16.8846 8.35776 16.9971 8.47495 16.9033 8.55464C16.9033 8.55464 16.7861 8.64839 16.7299 8.46089C16.7299 8.46089 16.533 8.65308 16.7627 8.79839C16.7627 8.79839 16.908 8.88276 17.058 8.75151C17.058 8.75151 17.0111 9.12651 16.8705 9.05151C16.8705 9.05151 16.7861 8.99526 16.9361 8.91558C16.9361 8.91558 16.7111 8.88745 16.6783 9.10308C16.6783 9.10308 16.6502 9.26714 16.8471 9.33745C16.8471 9.33745 16.9924 9.3937 16.8424 9.5062C16.8424 9.5062 16.7299 9.58589 16.8002 9.71245C16.8002 9.71245 16.8846 9.8437 16.6689 9.86245C16.6689 9.86245 16.5564 9.86245 16.5096 9.8437C16.5096 9.8437 16.4627 9.93745 16.4955 10.0312C16.4955 10.0312 16.383 9.95151 16.1439 10.0406C15.8955 10.1343 15.9096 10.0687 15.8955 10.0968L15.8252 10.2093C15.8252 10.2093 15.9518 10.3781 15.9564 10.364L15.9283 10.5515L15.9986 10.5796L16.5002 10.3546L17.0158 10.0875L17.4377 10.1062L17.6955 10.1671L18.0377 10.1953L18.2908 10.064H18.6471L19.0361 10.2609L19.4861 10.5281L19.7205 10.575L19.8986 10.5609V10.1953L19.8143 10.064Z" fill="#D40000" stroke="black" stroke-width="0.15" stroke-linejoin="round"/>
<path d="M15.7317 10.486C15.7317 10.486 15.9239 10.5891 16.0129 10.4719C16.0129 10.4719 16.1161 10.2657 15.8817 10.1907C15.8817 10.1907 16.0082 10.0407 15.8676 9.90003C15.8676 9.90003 15.7973 9.82503 15.6754 9.87659C15.6754 9.87659 15.6192 9.76878 15.502 9.77346C15.502 9.77346 15.3895 9.77346 15.3567 9.89065C15.3567 9.89065 15.2114 9.8344 15.1317 9.91878C15.1317 9.91878 14.9911 10.0688 15.1786 10.1907L15.3192 10.2047L15.4504 10.1391L15.6004 10.1813C15.6004 10.1813 15.5629 10.3313 15.7317 10.486Z" fill="#D40000" stroke="black" stroke-width="0.15" stroke-linejoin="round"/>
<path d="M20.1096 10.1297C20.1747 10.1224 20.2404 10.1357 20.2975 10.1677C20.3547 10.1996 20.4004 10.2486 20.4283 10.3078C20.5549 10.5984 20.2877 10.7578 20.2877 10.7578C20.3065 10.8187 20.3112 10.9078 20.3112 10.9078C20.6815 10.9547 20.6158 11.3672 20.6158 11.3672L20.4893 11.2641C20.2783 11.1797 20.0533 11.3672 19.8987 11.6672C19.744 11.9766 19.8143 12.1125 19.8424 12.4781C19.8705 12.8391 20.4565 13.0594 20.4565 13.0594L19.9971 14.2312C19.819 14.7 19.4393 14.5078 19.3268 14.4047C19.2237 14.3109 19.1955 14.3672 19.144 14.4047C19.0877 14.4516 19.3924 14.6859 18.8346 14.9109C18.2908 15.1312 18.1924 15.3 18.0987 15.3562C18.0096 15.4125 17.6299 15.3797 17.5971 15.3281C17.5502 15.2812 17.5737 15.2812 17.4283 15.1922C17.2877 15.1125 17.0487 15.0281 16.7862 14.9016C16.5237 14.775 16.5283 14.6109 16.533 14.5781C16.533 14.5453 16.6268 14.2734 16.3174 14.4891C16.008 14.7094 15.7455 14.3859 15.7455 14.3859C15.6893 14.3062 15.4268 13.6172 15.4268 13.6172C15.3726 13.4253 15.3053 13.2373 15.2252 13.0547C15.2252 13.0547 15.2112 13.0922 15.4408 12.9609C15.6612 12.8344 15.769 12.6187 15.8487 12.4031C15.9237 12.1875 15.8487 11.8172 15.8205 11.7469C15.7924 11.6719 15.6237 11.3297 15.4127 11.2594C15.2018 11.1844 15.0565 11.3719 15.0565 11.3719C15.0565 11.3719 14.9955 10.95 15.3658 10.9031C15.3658 10.9031 15.3658 10.8187 15.3893 10.7578C15.3893 10.7578 15.1268 10.5984 15.2487 10.3078C15.2487 10.3078 15.333 10.1062 15.5674 10.1297L15.5112 10.2422C15.5112 10.2422 15.4549 10.8328 16.3221 10.4391C17.1893 10.0359 17.1612 9.96093 17.6627 10.2141L18.019 10.2094C18.019 10.2094 18.5393 9.96093 18.708 10.0687C18.8768 10.1766 19.4721 10.5094 19.4721 10.5094C19.4721 10.5094 20.0533 10.7297 20.1752 10.3219L20.1096 10.1297Z" fill="#64B4D1" stroke="black" stroke-width="0.15"/>
<path d="M17.4895 12.7031C17.4895 12.7031 17.4613 12.5203 17.4332 12.4031C17.4332 12.4031 17.3676 12.2203 17.4801 12.0843L17.6113 11.9296C17.6113 11.9296 17.6957 11.8171 17.7988 11.8031C17.7988 11.8031 17.9113 11.8031 17.916 11.7796C17.9254 11.7562 18.0426 11.5687 18.3191 11.7796C18.3191 11.7796 18.3988 11.639 18.5395 11.6109C18.5395 11.6109 18.6801 11.5734 18.7551 11.6765C18.7551 11.6765 18.9145 11.5546 19.0551 11.7562C19.0551 11.7562 19.2426 11.6437 19.3926 11.864C19.3926 11.864 19.5754 11.7703 19.6926 11.9625C19.8098 12.164 19.7863 12.2437 19.7863 12.2437L19.8801 12.5625L20.1848 12.9375L19.4676 13.2093H19.1441L18.502 13.3781L17.3629 13.4671L17.0488 13.0921L17.4941 12.7031H17.4895Z" fill="white" stroke="#00247D" stroke-width="0.15" stroke-miterlimit="10"/>
<path d="M16.5277 14.6015C16.5277 14.6015 16.359 14.6062 16.2699 14.6578C16.1855 14.6953 16.1199 14.7421 16.0215 14.8078C16.0215 14.8078 15.9699 14.8687 15.773 14.8312C15.773 14.8312 15.4402 14.7515 15.4402 15.0187C15.4402 15.0187 15.023 15.0468 15.1918 15.4078C15.1918 15.4078 15.3043 15.689 15.5387 15.4921C15.5387 15.4921 15.3887 15.7031 15.6793 15.7875C15.6793 15.7875 15.8855 15.8437 15.9465 15.6234C15.9465 15.6234 15.9793 15.539 15.8996 15.4359C15.8996 15.4359 16.0027 15.4171 16.0684 15.3093C16.0684 15.3093 15.8574 15.5812 16.0918 15.6843C16.0918 15.6843 16.3871 15.7546 16.4059 15.45C16.4059 15.45 16.3777 15.3 16.4949 15.2484C16.4949 15.2484 16.7293 15.1921 16.8277 14.939C16.8277 14.939 16.4949 14.7562 16.5277 14.6015ZM15.8387 11.9062C15.8387 11.9062 15.5762 11.789 15.4496 11.9062C15.4496 11.9062 15.2809 11.8031 15.098 11.9062C15.098 11.9062 14.9246 12.0187 14.8027 12.15C14.8027 12.15 14.7184 12.2203 14.7465 12.45C14.7465 12.45 14.7934 12.614 14.7652 12.689C14.7652 12.689 14.709 12.6796 14.5918 12.8203C14.5918 12.8203 14.4512 12.9843 14.3105 12.8343C14.3105 12.8343 14.3574 13.05 14.6012 13.0125C14.6012 13.0125 14.484 13.1062 14.5824 13.3406C14.5824 13.3406 14.6621 13.5093 14.5355 13.725C14.5355 13.725 14.7512 13.6406 14.7465 13.3875C14.7465 13.3875 14.723 13.2187 14.7934 13.1062C14.7934 13.1062 14.723 13.2093 14.8684 13.439C14.8684 13.439 14.9809 13.6078 14.8918 13.7765C14.8918 13.7765 15.098 13.7015 15.0793 13.4484C15.0559 13.1953 14.9387 13.2984 15.0137 13.064C15.0137 13.064 15.0371 13.1859 15.098 13.2515C15.1447 13.2909 15.1799 13.3422 15.1997 13.4C15.2195 13.4578 15.2232 13.5199 15.2105 13.5796C15.2105 13.5796 15.3324 13.4203 15.3043 13.2609C15.2963 13.1891 15.2756 13.1193 15.2434 13.0546L15.6324 12.8296L15.834 12.4781L15.8387 11.9062Z" fill="#D40000" stroke="black" stroke-width="0.15" stroke-linejoin="round"/>
<path d="M15.2438 12.9141C15.2438 12.9141 15.075 12.9047 15.0563 12.7735M14.7656 12.6891C14.7656 12.6891 14.8219 12.6891 14.8781 12.7453C14.8781 12.7453 14.9109 12.8016 14.9719 12.7922" stroke="black" stroke-width="0.15" stroke-miterlimit="10"/>
<path d="M15.4826 12.4312C15.4826 12.4312 15.3982 12.4312 15.3467 12.3937C15.3467 12.3937 15.2998 12.3609 15.2764 12.4125C15.2764 12.4125 15.2295 12.4875 15.3092 12.5203C15.3092 12.5203 15.417 12.5765 15.2529 12.6797C15.2529 12.6797 15.4404 12.6047 15.3654 12.5109C15.3654 12.5109 15.2811 12.4547 15.3092 12.4312C15.3092 12.4312 15.3186 12.4125 15.3561 12.4312C15.3889 12.4593 15.4545 12.45 15.4826 12.4312Z" fill="black"/>
<path d="M18.0471 12.8907L18.1408 12.8625L17.4893 10.6125H17.4658L18.0471 12.8907Z" fill="#784421" stroke="black" stroke-width="0.15"/>
<path d="M15.8672 15.389C15.8672 15.389 15.7172 15.3 15.5859 15.4031C15.5859 15.4031 15.6047 15.3468 15.7031 15.3234C15.7031 15.3234 15.7547 15.1734 15.9 15.1875C15.9 15.1875 15.8391 15.2625 15.7594 15.3187C15.7594 15.3187 15.8484 15.3281 15.8766 15.389H15.8672Z" fill="black"/>
<path d="M15.3278 15.7406C15.3278 15.7406 15.084 15.5906 15.2199 15.3328C15.2199 15.3328 15.2574 15.2625 15.3324 15.2765C15.3324 15.2765 15.4824 15.3234 15.3653 15.5343C15.3653 15.5343 15.3043 15.6703 15.3324 15.7453L15.3278 15.7406ZM15.8246 15.989C15.8246 15.989 15.4778 15.8296 15.5856 15.5578C15.5856 15.5578 15.6184 15.464 15.6934 15.4734C15.6934 15.4734 15.8293 15.4828 15.8012 15.6609C15.8012 15.6609 15.7637 15.8296 15.8246 15.989Z" fill="#64B4D1" stroke="#00247D" stroke-width="0.15" stroke-miterlimit="2.6"/>
<path d="M15.7496 14.9812C15.7496 14.9812 15.6465 15.0609 15.609 15.1125C15.609 15.1125 15.5621 15.0562 15.5059 15.0281C15.5059 15.0281 15.5715 15.014 15.6043 15.0421C15.6043 15.0421 15.6605 14.9953 15.7496 14.9812Z" fill="black"/>
<path d="M16.0596 15.9188C16.0596 15.9188 16.3408 15.8532 16.2846 15.5672C16.2846 15.5672 16.2564 15.4454 16.1439 15.4641C16.1439 15.4641 16.0033 15.5016 16.0924 15.6797C16.0924 15.6797 16.1486 15.8016 16.0596 15.9188Z" fill="#64B4D1" stroke="#00247D" stroke-width="0.15" stroke-miterlimit="2.6"/>
<path d="M17.2967 9.97031L17.5639 10.0594C17.5639 10.0594 17.8123 10.1672 18.1357 10.0594L18.3842 9.96563L18.2154 10.2188V10.3547L18.3186 10.5047C18.3186 10.5047 18.2529 10.5328 18.0654 10.4109C18.0654 10.4109 17.8592 10.2516 17.6107 10.4109C17.6107 10.4109 17.4701 10.5047 17.3623 10.5047L17.5217 10.3266L17.4607 10.1625L17.292 9.96094L17.2967 9.97031Z" fill="#F5CE00" stroke="black" stroke-width="0.15" stroke-miterlimit="2.6"/>
<path d="M16.1668 15.5859C16.1668 15.5859 16.1762 15.5672 16.1668 15.5625L16.1434 15.5719C16.1434 15.5719 16.1152 15.6188 16.1434 15.6844C16.1434 15.6844 16.1668 15.7266 16.1527 15.7687L16.1574 15.7875C16.1574 15.7875 16.1715 15.7828 16.1715 15.7687C16.1715 15.7687 16.1855 15.7313 16.1574 15.6844C16.1574 15.6844 16.1293 15.6187 16.1668 15.5859Z" fill="white"/>
<path d="M19.9355 10.486C19.9355 10.486 19.7433 10.5891 19.6543 10.4719C19.6543 10.4719 19.5605 10.2657 19.7949 10.1907C19.7949 10.1907 19.6636 10.0407 19.7949 9.90003C19.7949 9.90003 19.8699 9.82503 19.9918 9.87659C19.9918 9.87659 20.048 9.76878 20.1652 9.77346C20.1652 9.77346 20.2777 9.77346 20.3105 9.89065C20.3105 9.89065 20.4605 9.8344 20.5449 9.91878C20.5449 9.91878 20.6761 10.0688 20.4839 10.1907L20.3527 10.2047L20.2168 10.1391L20.0714 10.1813C20.0714 10.1813 20.1089 10.3313 19.9355 10.486Z" fill="#D40000" stroke="black" stroke-width="0.15" stroke-linejoin="round"/>
<path d="M18.3844 10.3312C18.3844 10.3312 18.3844 10.3687 18.3469 10.3781C18.3469 10.3781 18.3 10.3922 18.2719 10.3359V10.3219C18.2719 10.2984 18.2625 10.2281 18.3375 10.1672C18.3375 10.1672 18.4641 10.0687 18.6985 10.1906C18.9246 10.3177 19.156 10.435 19.3922 10.5422C19.3922 10.5422 19.5329 10.6172 19.7579 10.6266C19.7579 10.6266 20.0672 10.65 20.1938 10.4344C20.1938 10.4344 20.2969 10.2703 20.1938 10.1625C20.1938 10.1625 20.1563 10.1156 20.0907 10.125C20.0565 10.1326 20.0264 10.1527 20.0063 10.1812C20.0063 10.1812 19.9547 10.2469 20.0063 10.2984C20.0063 10.2984 20.0813 10.3453 20.1094 10.2516C20.1094 10.2609 20.1329 10.3312 20.0954 10.3875C20.0954 10.3875 19.9079 10.6687 19.3922 10.3828L18.7266 10.0031C18.7266 10.0031 18.3891 9.82968 18.1829 10.1016C18.1829 10.1016 18.0188 10.3266 18.2297 10.4719C18.2297 10.4719 18.3891 10.5656 18.4829 10.4156C18.4829 10.4156 18.5672 10.2703 18.436 10.2094C18.436 10.2094 18.3282 10.1531 18.2813 10.2656C18.2344 10.3781 18.3657 10.4062 18.375 10.3266C18.375 10.3266 18.375 10.3078 18.3891 10.3266L18.3844 10.3312Z" fill="#F5CE00" stroke="black" stroke-width="0.15" stroke-miterlimit="2.6"/>
<path d="M15.7168 11.4938V11.0719C15.7168 11.0344 15.7168 11.0157 15.773 10.9688C15.8199 10.9313 15.8762 10.861 15.9465 11.0485C15.9465 11.0485 16.0965 10.8844 16.148 10.861C16.148 10.861 16.2371 10.7907 16.298 10.8938C16.298 10.8938 16.3777 10.7719 16.4387 10.7438C16.4387 10.7438 16.5887 10.65 16.5934 10.9407L16.7105 10.8282C16.7105 10.8282 16.8043 10.7579 16.9074 10.861C16.9074 10.861 17.0762 11.0297 17.0949 11.0766C17.0949 11.0766 17.1371 11.1235 17.1418 11.2032C17.1418 11.2032 17.1418 11.2969 17.1887 11.3438C17.1887 11.3438 17.2449 11.3907 17.2918 11.4C17.2918 11.4 17.409 11.4047 17.4605 11.5219C17.4605 11.5219 17.4793 11.4985 17.5402 12.0469V13.0547L16.8652 13.8563L15.7777 13.5469L15.3465 13.3641L15.248 13.0547L15.6699 12.7782L15.8902 12.1688L15.8246 11.7329L15.7168 11.4891V11.4938Z" fill="#E4CB5E" stroke="black" stroke-width="0.15" stroke-miterlimit="2.6"/>
<path d="M18.7031 12.0188L18.7594 11.9485L18.8766 11.8547C18.8766 11.8547 19.0641 12.3422 19.0734 12.45V12.6C19.0734 12.6 19.3547 12.675 19.4062 13.1016L19.1719 13.5329L18.8109 13.3266L18.7031 13.2563V12.0235V12.0188Z" fill="#784421" stroke="black" stroke-width="0.15"/>
<path d="M15.2674 15.3937C15.2674 15.3937 15.2768 15.3797 15.2674 15.3656L15.244 15.3844C15.244 15.3844 15.169 15.464 15.2299 15.5906C15.2299 15.5906 15.2299 15.6094 15.2487 15.6C15.2487 15.6 15.258 15.6 15.2487 15.5859C15.2487 15.5859 15.1924 15.4734 15.2674 15.3984V15.3937Z" fill="white"/>
<path d="M16.359 15.3094C16.359 15.3094 16.3636 15.2719 16.3449 15.2344C16.3449 15.2344 16.3261 15.2063 16.3308 15.1641M16.5933 10.9407C16.5933 10.9407 16.5933 11.0485 16.6261 11.1282C16.6543 11.2032 16.7668 11.3391 16.7668 11.4047" stroke="black" stroke-width="0.15" stroke-miterlimit="10"/>
<path d="M19.1437 14.6016C19.1437 14.6016 19.3125 14.6063 19.4016 14.6578C19.4906 14.6953 19.5562 14.7422 19.6594 14.8078C19.6594 14.8078 19.7063 14.8687 19.8984 14.8312C19.8984 14.8312 20.2406 14.7516 20.2406 15.0187C20.2406 15.0187 20.6484 15.0469 20.4797 15.4078C20.4797 15.4078 20.3672 15.6891 20.1328 15.4922C20.1328 15.4922 20.2828 15.7031 19.9922 15.7875C19.9922 15.7875 19.7859 15.8437 19.725 15.6234C19.725 15.6234 19.6922 15.5391 19.7719 15.4359C19.7719 15.4359 19.6781 15.4172 19.6078 15.3094C19.6078 15.3094 19.8187 15.5813 19.5844 15.6844C19.5844 15.6844 19.2891 15.7547 19.2703 15.45C19.2703 15.45 19.2938 15.3 19.1813 15.2484C19.1813 15.2484 18.9469 15.1922 18.8438 14.9391C18.8438 14.9391 19.1766 14.7562 19.1437 14.6016Z" fill="#D40000" stroke="black" stroke-width="0.15" stroke-linejoin="round"/>
<path d="M16.4629 11.4093L16.7441 13.65M16.5285 11.4046L16.8426 13.4953M16.5848 11.3953L16.9457 13.4671" stroke="black" stroke-width="0.15" stroke-miterlimit="10"/>
<path d="M17.1566 13.289L17.2551 13.2562L16.5988 11.0062H16.5801L17.1566 13.289Z" fill="#784421" stroke="black" stroke-width="0.15"/>
<path d="M16.7816 11.3109L17.4473 12.975M16.7441 11.3344L17.377 13.0687" stroke="black" stroke-width="0.15" stroke-miterlimit="10"/>
<path d="M15.7035 15.8249C15.7035 15.8249 15.6238 15.7546 15.6332 15.6234C15.6332 15.6234 15.6332 15.5953 15.6238 15.5906C15.6238 15.5906 15.605 15.5859 15.605 15.6187C15.605 15.6187 15.5863 15.7546 15.68 15.8296C15.68 15.8296 15.6847 15.8437 15.6941 15.839C15.6941 15.839 15.7082 15.839 15.6941 15.8249H15.7035Z" fill="white"/>
<path d="M16.8187 11.2875L17.4891 12.8062M16.6406 11.3812L17.0625 13.4297" stroke="black" stroke-width="0.15" stroke-miterlimit="10"/>
<path d="M20.0344 12.8906C19.7344 12.7219 19.6688 12.3563 19.6688 12.3563C19.6279 12.1299 19.6556 11.8964 19.7484 11.6859C19.9359 11.2828 20.2641 11.2031 20.2641 11.2031C20.2641 11.2031 19.9453 11.4281 19.8516 11.7281C19.8516 11.7281 19.7859 11.9859 19.8281 12.2297C19.8656 12.4875 19.8469 12.4219 19.9078 12.6188L20.0344 12.9V12.8906Z" fill="#F5CE00" stroke="black" stroke-width="0.15" stroke-miterlimit="2.6"/>
<path d="M18.7496 11.9391L17.5074 12.3375L17.4371 12.9C17.1418 13.3266 16.5371 13.4016 16.5371 13.4016L17.0059 13.9031L17.9012 14.0906L18.3793 13.725L18.8105 13.3313C18.7637 13.1203 18.7871 12.8063 18.7871 12.8063C18.7871 12.75 18.8105 12.6281 18.8105 12.6281C18.8105 12.6281 18.7355 12.1266 18.7543 11.9485L18.7496 11.9391Z" fill="#784421" stroke="black" stroke-width="0.15"/>
<path d="M17.4561 12.7594C17.4561 12.7594 18.2764 12.5016 18.7686 12.2906M17.0576 13.2281C17.0576 13.2281 18.0889 13.0406 18.8107 12.6281L19.0732 12.45" stroke="black" stroke-width="0.15" stroke-miterlimit="10"/>
<path d="M19.0736 12.6L18.7924 12.8062C18.7924 12.8062 17.6393 13.3312 16.7627 13.35M18.7877 13.1812C18.7877 13.1812 17.9018 13.6359 17.4002 13.6406" stroke="black" stroke-width="0.15" stroke-miterlimit="10"/>
<path d="M19.8379 11.9062C19.8379 11.9062 20.1004 11.789 20.227 11.9062C20.227 11.9062 20.3957 11.8031 20.5879 11.9062C20.5879 11.9062 20.752 12.0187 20.8785 12.15C20.8785 12.15 20.9629 12.2203 20.9348 12.45C20.9348 12.45 20.8879 12.614 20.916 12.689C20.916 12.689 20.9723 12.6796 21.0848 12.8203C21.0848 12.8203 21.2348 12.9843 21.366 12.8343C21.366 12.8343 21.3238 13.05 21.0848 13.0125C21.0848 13.0125 21.1973 13.1062 21.0941 13.3406C21.0941 13.3406 21.0238 13.5093 21.141 13.725C21.141 13.725 20.9254 13.6406 20.9395 13.3875C20.9395 13.3875 20.9535 13.2187 20.8926 13.1062C20.8926 13.1062 20.9535 13.2093 20.8082 13.439C20.8082 13.439 20.7004 13.6078 20.7941 13.7765C20.7941 13.7765 20.5785 13.7015 20.6066 13.4484C20.6207 13.1953 20.7473 13.2984 20.6629 13.064C20.6629 13.064 20.6488 13.1859 20.5879 13.2515C20.5412 13.2909 20.5061 13.3422 20.4863 13.4C20.4664 13.4578 20.4627 13.5199 20.4754 13.5796C20.4754 13.5796 20.3535 13.4203 20.3816 13.2609C20.4098 13.0968 20.4332 13.0546 20.4332 13.0546L20.0441 12.8296L19.8473 12.4781L19.8379 11.9062Z" fill="#D40000" stroke="black" stroke-width="0.15" stroke-linejoin="round"/>
<path d="M15.3746 13.3312C15.3746 13.3312 15.4121 13.1578 15.5715 13.2187C15.5715 13.2187 15.6277 12.9375 15.9371 12.9281C16.2371 12.9187 16.2559 13.2281 16.2559 13.2469C16.2559 13.2469 16.3496 13.1156 16.4902 13.1297C16.4902 13.1297 16.7527 13.1156 16.6637 13.5281L16.7105 13.5844C16.7105 13.5844 16.898 13.1203 17.3059 13.2375C17.3059 13.2375 17.6949 13.3594 17.4465 13.739C17.4465 13.739 17.6387 13.9969 17.8027 13.9734C17.9715 13.95 18.1168 13.8984 18.2762 13.6078C18.4449 13.3172 18.8246 13.2703 18.9184 13.289C19.0121 13.3031 19.0918 13.3734 19.1059 13.439C19.1059 13.439 19.3121 12.7687 20.0387 12.8672L20.3293 13.0219L20.4418 13.0687L20.273 13.5375L19.8746 14.4375L19.5699 14.5312L19.2512 14.3484L19.1387 14.4047L19.134 14.6812L18.7121 14.9812L18.4215 15.0984L18.1027 15.3234L18.0277 15.5203C18.0277 15.5203 17.8543 15.4406 17.6527 15.5203L17.5824 15.3515L17.3949 15.1781L16.6684 14.8312L16.5371 14.4094L16.4059 14.3484L16.2559 14.5172L16.0402 14.5453L15.7168 14.3203L15.3652 13.3359L15.3746 13.3312Z" fill="white" stroke="#00247D" stroke-width="0.15" stroke-miterlimit="10"/>
<path d="M18.5392 10.0313C18.5392 10.0313 18.2579 10.0219 18.272 10.3125" stroke="black" stroke-width="0.15" stroke-miterlimit="2.6"/>
<path d="M20.3626 13.0921C19.8798 12.9421 19.7485 12.4218 19.7485 12.4218C19.6927 12.1792 19.714 11.9252 19.8095 11.6953C20.0345 11.1796 20.4001 11.1796 20.4001 11.1796C20.4485 11.1714 20.4982 11.1825 20.5386 11.2106C20.5789 11.2386 20.6066 11.2814 20.6157 11.3296C20.6298 11.4421 20.5548 11.4843 20.5548 11.4843C20.4235 11.5546 20.3392 11.4609 20.3392 11.4609C20.2829 11.3859 20.3298 11.325 20.3298 11.325C20.3626 11.2781 20.4235 11.3062 20.4235 11.3062C20.4798 11.3156 20.4704 11.3812 20.4704 11.3812C20.4704 11.3812 20.4845 11.3062 20.4142 11.2968C20.4142 11.2968 20.2642 11.264 20.0954 11.475C20.0954 11.475 19.8704 11.7609 19.8704 12.1359C19.8704 12.1359 19.8423 12.8296 20.5642 13.0078C20.5642 13.0078 20.4845 13.1203 20.3438 13.5281C20.3438 13.5281 20.1892 14.0531 20.0438 14.339C20.0438 14.339 19.8423 14.7421 19.397 14.5781C19.397 14.5781 19.1345 14.4609 19.1345 14.2734C19.1345 14.2734 19.1157 14.0953 19.2751 14.0859C19.2751 14.0859 19.4298 14.0718 19.4298 14.2031C19.4298 14.2031 19.4298 14.3437 19.261 14.3156C19.261 14.3156 19.2048 14.3015 19.2142 14.2453C19.2142 14.2453 19.2235 14.189 19.2938 14.2171C19.3688 14.2453 19.2938 14.2171 19.2938 14.2125C19.2938 14.2125 19.2657 14.1984 19.2376 14.2125C19.2376 14.2125 19.2095 14.2125 19.2095 14.2593C19.2095 14.2593 19.2095 14.2875 19.247 14.3109L19.322 14.3203C19.322 14.3203 19.3688 14.414 19.4673 14.4468C19.5226 14.4634 19.581 14.4669 19.6379 14.4571C19.6948 14.4474 19.7487 14.4246 19.7954 14.3906C19.8583 14.3361 19.9066 14.2668 19.936 14.189C20.0323 13.9836 20.1153 13.7722 20.1845 13.5562C20.1845 13.5562 20.2688 13.289 20.3392 13.1484L20.3626 13.0921Z" fill="#F5CE00" stroke="black" stroke-width="0.15" stroke-miterlimit="2.6"/>
<path d="M18.9983 14.4094C18.9983 14.4094 19.0921 14.4 19.0921 14.4797C19.0921 14.4797 19.0921 14.5922 18.9421 14.5688C18.9421 14.5688 18.8015 14.5406 18.853 14.3813C18.853 14.3813 18.8858 14.2735 19.0218 14.2875C19.0218 14.2875 19.1483 14.2875 19.2093 14.4656C19.2093 14.4656 19.2515 14.6203 19.1718 14.7469C19.0874 14.8875 18.8812 14.9813 18.7827 15.0281C18.7827 15.0281 18.3702 15.1828 18.2483 15.2766C18.2483 15.2766 18.0608 15.4125 18.1499 15.5391C18.1499 15.5391 18.1827 15.5906 18.2249 15.5906C18.2249 15.5906 18.2812 15.5906 18.2905 15.5344C18.2905 15.5344 18.2905 15.5672 18.253 15.5813C18.253 15.5813 18.2155 15.6 18.178 15.5672C18.178 15.5672 18.1312 15.5203 18.164 15.4547C18.164 15.4547 18.2155 15.3797 18.3327 15.4266C18.3327 15.4266 18.4265 15.4781 18.389 15.5813C18.389 15.5813 18.3515 15.6797 18.2343 15.675C18.2343 15.675 18.1405 15.675 18.0796 15.6188C17.9905 15.5203 17.9858 15.3375 18.0702 15.2438C18.0702 15.2438 18.1452 15.1453 18.2952 15.075L18.7171 14.911C18.8296 14.869 18.9319 14.8035 19.0171 14.7188C19.0171 14.7188 19.078 14.6531 19.1015 14.5313C19.1015 14.5313 19.1155 14.4375 19.0593 14.4188L19.003 14.4047L18.9983 14.4094Z" fill="#F5CE00" stroke="black" stroke-width="0.15" stroke-miterlimit="2.6"/>
<path d="M19.0078 14.4093C19.0078 14.4093 19.1109 14.3906 19.1719 14.5125C19.1719 14.5125 19.2047 14.5828 19.2094 14.6296M19.2469 14.2078C19.2469 14.2078 19.1437 14.2218 19.1953 14.3671C19.2516 14.5031 19.3359 14.5406 19.3641 14.564" stroke="black" stroke-width="0.15" stroke-miterlimit="2.6"/>
<path d="M17.2965 10.3313C17.2965 10.3313 17.2965 10.3688 17.3387 10.3782C17.3387 10.3782 17.3762 10.3875 17.3996 10.336L17.4043 10.3219C17.4043 10.2985 17.4184 10.2282 17.3434 10.1672C17.3434 10.1672 17.2168 10.0688 16.9824 10.1907C16.9824 10.1907 16.7949 10.2844 16.6684 10.3594C16.6684 10.3594 16.3309 10.5375 16.2887 10.5469C16.2887 10.5469 16.1434 10.6219 15.9184 10.6313C15.9184 10.6313 15.609 10.6547 15.4824 10.4391C15.4824 10.4391 15.384 10.275 15.4824 10.1672C15.4824 10.1672 15.5199 10.1204 15.5902 10.1297C15.6184 10.1344 15.6465 10.1485 15.6746 10.186C15.6746 10.186 15.7215 10.2516 15.6652 10.3032C15.6652 10.3032 15.5949 10.35 15.5668 10.2563C15.5668 10.2657 15.548 10.3313 15.5902 10.3969C15.5902 10.3969 15.773 10.6735 16.284 10.3829L16.9543 10.0079C16.9543 10.0079 17.2871 9.83442 17.4934 10.1016C17.4934 10.1016 17.6574 10.3266 17.4465 10.4766C17.4465 10.4766 17.2918 10.5704 17.1934 10.4204C17.1934 10.4204 17.1137 10.2797 17.2402 10.2141C17.2402 10.2141 17.348 10.1579 17.3996 10.2704C17.4465 10.3829 17.3059 10.411 17.3012 10.3313C17.3012 10.3313 17.3012 10.3125 17.2918 10.3313H17.2965ZM15.6465 12.8954C15.9418 12.7313 16.0074 12.3563 16.0074 12.3563C16.073 11.9813 15.9277 11.686 15.9277 11.686C15.7402 11.2829 15.4121 11.2032 15.4121 11.2032C15.4121 11.2032 15.7355 11.4282 15.8246 11.7282C15.8246 11.7282 15.8949 11.986 15.8527 12.2297C15.8105 12.4875 15.8293 12.4219 15.7684 12.6188L15.6465 12.8954Z" fill="#F5CE00" stroke="black" stroke-width="0.15" stroke-miterlimit="2.6"/>
<path d="M17.1426 10.0313C17.1426 10.0313 17.4238 10.0219 17.4051 10.3125" stroke="black" stroke-width="0.15" stroke-miterlimit="2.6"/>
<path d="M15.3091 13.0922C15.7966 12.9422 15.9232 12.4219 15.9232 12.4219C15.9805 12.1797 15.9608 11.9257 15.8669 11.6953C15.6466 11.1797 15.2763 11.1797 15.2763 11.1797C15.2286 11.1728 15.1801 11.1845 15.1408 11.2124C15.1015 11.2404 15.0745 11.2823 15.0654 11.3297C15.0466 11.4422 15.1263 11.4844 15.1263 11.4844C15.2529 11.5547 15.3372 11.4609 15.3372 11.4609C15.3935 11.3859 15.3466 11.325 15.3466 11.325C15.3138 11.2781 15.2529 11.3062 15.2529 11.3062C15.1966 11.3156 15.206 11.3812 15.206 11.3812C15.206 11.3812 15.1919 11.3062 15.2669 11.2969C15.2669 11.2969 15.4169 11.264 15.5857 11.475C15.5857 11.475 15.806 11.7609 15.806 12.1359C15.806 12.1359 15.8341 12.8297 15.1122 13.0078C15.1122 13.0078 15.1919 13.1203 15.3325 13.5281C15.3325 13.5281 15.4872 14.0531 15.6372 14.339C15.6372 14.339 15.8341 14.7422 16.2841 14.5781C16.2841 14.5781 16.5466 14.4609 16.5466 14.2734C16.5466 14.2734 16.5607 14.0953 16.406 14.0859C16.406 14.0859 16.2466 14.0719 16.2466 14.2031C16.2466 14.2031 16.2466 14.3437 16.4154 14.3156C16.4154 14.3156 16.4716 14.3015 16.4622 14.2453C16.4622 14.2453 16.4575 14.189 16.3825 14.2172C16.3122 14.2453 16.3825 14.2172 16.3825 14.2125C16.3825 14.2125 16.4107 14.1984 16.4388 14.2125C16.4388 14.2125 16.4669 14.2125 16.4669 14.2594C16.4669 14.2594 16.4669 14.2875 16.4341 14.3109L16.3591 14.3203C16.3591 14.3203 16.3122 14.414 16.2091 14.4469C16.154 14.4653 16.0952 14.4698 16.038 14.46C15.9807 14.4502 15.9268 14.4264 15.881 14.3906C15.8181 14.3361 15.7698 14.2669 15.7404 14.189C15.6441 13.9836 15.5612 13.7722 15.4919 13.5562C15.4919 13.5562 15.4122 13.289 15.3419 13.1484L15.3138 13.0922H15.3091Z" fill="#F5CE00" stroke="black" stroke-width="0.15" stroke-miterlimit="2.6"/>
<path d="M16.678 14.4094C16.678 14.4094 16.5889 14.4 16.5889 14.4797C16.5889 14.4797 16.5889 14.5922 16.7342 14.5688C16.7342 14.5688 16.8748 14.5406 16.828 14.3813C16.828 14.3813 16.7905 14.2735 16.6545 14.2875C16.6545 14.2875 16.528 14.2875 16.4717 14.4656C16.4717 14.4656 16.4248 14.6203 16.5045 14.7469C16.5889 14.8875 16.7951 14.9813 16.8983 15.0281C16.8983 15.0281 17.3061 15.1828 17.428 15.2766C17.428 15.2766 17.6155 15.4125 17.5264 15.5391C17.5264 15.5391 17.4983 15.5906 17.4514 15.5906C17.4514 15.5906 17.3951 15.5906 17.3905 15.5344C17.3905 15.5344 17.3905 15.5672 17.4233 15.5813C17.4233 15.5813 17.4608 15.6 17.4983 15.5672C17.4983 15.5672 17.5451 15.5203 17.5123 15.4547C17.5123 15.4547 17.4655 15.3797 17.3483 15.4266C17.3483 15.4266 17.2498 15.4781 17.292 15.5813C17.292 15.5813 17.3295 15.6797 17.4467 15.675C17.4467 15.675 17.5358 15.675 17.5967 15.6188C17.6858 15.5203 17.6905 15.3375 17.6108 15.2438C17.6108 15.2438 17.5358 15.1453 17.3905 15.075C17.2967 15.0469 17.1326 14.9766 16.9639 14.911C16.8503 14.8711 16.7476 14.8053 16.6639 14.7188C16.6639 14.7188 16.603 14.6531 16.5795 14.5313C16.5795 14.5313 16.5608 14.4375 16.617 14.4188L16.6733 14.4047H16.678V14.4094Z" fill="#F5CE00" stroke="black" stroke-width="0.15" stroke-miterlimit="2.6"/>
<path d="M16.6684 14.4094C16.6684 14.4094 16.5652 14.3906 16.5043 14.5125C16.5043 14.5125 16.4715 14.5828 16.4668 14.6297M16.434 14.2078C16.434 14.2078 16.5324 14.2219 16.4809 14.3672C16.4293 14.5031 16.3402 14.5406 16.3168 14.5641M17.6012 10.2938C17.6012 10.2938 17.8402 10.1391 18.0887 10.3078M16.2277 11.775C16.2277 11.775 16.2605 11.6344 16.1012 11.4L15.9512 11.0485M16.298 10.8938L16.4105 11.2031L16.5465 11.5219" stroke="black" stroke-width="0.15" stroke-miterlimit="2.6"/>
<path d="M16.3357 11.9203C16.3357 11.9203 16.4295 12.0188 16.4201 12.1828M16.0451 11.8125C16.0451 11.8125 16.1389 11.8594 16.1295 12.1313C16.1295 12.1313 16.1295 12.3188 16.2701 12.4219M16.0264 12.4875C16.0264 12.4875 16.3357 12.4547 16.3592 12.6516C16.3592 12.6516 16.3592 12.8391 16.4717 12.8532C16.4717 12.8532 16.6264 12.8672 16.6592 13.0219M16.1248 12.7031C16.1248 12.7031 16.1811 12.7828 16.2373 12.825M16.5279 12.4969C16.5279 12.4969 16.6076 12.6235 16.6217 12.6891M16.8748 11.0485C16.8748 11.0485 16.9451 11.1469 17.0154 11.1891M17.1654 11.6391C17.1654 11.6391 17.3201 11.7141 17.3014 12.1078C17.3014 12.1078 17.2779 12.3422 17.3482 12.4688" stroke="black" stroke-width="0.15" stroke-miterlimit="10"/>
<path d="M16.4297 11.3718L16.4437 11.4093C16.4437 11.4093 16.725 11.4234 16.875 11.2312L16.8563 11.1937C16.8563 11.1937 16.6125 11.1796 16.4344 11.3718H16.4297Z" fill="#784421" stroke="black" stroke-width="0.15"/>
<path d="M17.4375 12.8672C17.4375 12.8672 18.4078 12.586 18.7828 12.4172" stroke="black" stroke-width="0.15" stroke-miterlimit="10"/>
<path d="M17.3395 11.086L17.3301 11.0579L17.7988 10.8704L17.8129 10.9079L17.3395 11.086Z" fill="#784421" stroke="black" stroke-width="0.15"/>
<path d="M17.377 11.0672L17.6957 12.6281M17.4332 11.0531L17.7988 12.6M17.4941 11.025L17.8926 12.5672M17.6535 10.9688L18.1926 12.1219M17.7238 10.95L18.3004 12.0844M17.7754 10.9219L18.3988 12.0609M17.6723 12.6375L17.9207 12.5625M17.4895 12.4875C17.4895 12.4875 18.2066 12.2766 18.7551 12.0563M17.4801 12.5625C17.4801 12.5625 18.3895 12.3281 18.7551 12.15M17.7566 13.3031L17.8035 13.4578L17.9348 13.4109L17.8926 13.2656M18.127 13.2047L18.1738 13.3453L18.3004 13.3031L18.2535 13.1625M17.5035 12.3375L17.4941 12.1406L18.6895 11.7797L18.7551 11.9484M18.0051 11.9859L18.066 12.1641M18.4176 11.8641L18.4973 12.0328M18.516 11.8312L18.591 11.9859M18.6145 11.7984L18.6848 11.9672M18.6848 11.7797L18.8207 11.7047L18.877 11.85M18.7551 11.7422L18.8207 11.8969" stroke="black" stroke-width="0.15" stroke-miterlimit="10"/>
<path d="M15.7924 14.0203C15.7924 14.0203 15.558 13.7812 15.7924 13.5515C15.7924 13.5515 15.5346 13.4296 15.5721 13.2234M16.2096 14.2078C16.2096 14.2078 15.9658 14.2406 16.0361 13.7671C16.0361 13.7671 15.9377 13.9546 15.9002 14.0484C15.8856 14.095 15.8868 14.1452 15.9038 14.191C15.9208 14.2368 15.9525 14.2757 15.994 14.3015C16.0408 14.3296 16.2565 14.3859 16.3221 14.2453M15.9377 13.4859C15.9377 13.4859 15.8346 13.575 15.9096 13.739M16.0361 13.5046C16.0361 13.5046 16.0455 13.6687 16.1299 13.7578M16.1111 13.4437C16.1111 13.4437 16.1111 13.6312 16.2424 13.7531M16.1768 13.3781C16.1768 13.3781 16.1768 13.589 16.3315 13.725M16.9643 13.6921C16.9643 13.6921 17.044 13.5093 17.208 13.5234C17.208 13.5234 17.133 13.5609 17.133 13.6406C17.133 13.6406 17.119 13.7812 17.2643 13.7906C17.2643 13.7906 17.3815 13.8093 17.4471 13.7437" stroke="#00247D" stroke-width="0.15" stroke-miterlimit="10"/>
<path d="M17.367 14.4891C17.367 14.4891 16.9451 14.2922 16.992 14.0156C16.992 14.0156 17.0107 13.8469 17.1795 13.7625M17.0857 13.9406C17.0857 13.9406 17.0482 14.0578 17.1326 14.1422M17.1795 13.861C17.1795 13.861 17.1279 13.9922 17.217 14.086M17.2826 13.7906C17.2826 13.7906 17.2217 13.9031 17.292 14.0016M16.9029 14.5172C16.9029 14.5172 17.1279 14.7188 17.3061 14.7188M16.8279 14.5828C16.8279 14.5828 17.0436 14.7516 17.1748 14.7797M16.7529 14.6297C16.7529 14.6297 17.0154 14.8594 17.1748 14.8735M17.817 15.0891C17.817 15.0891 17.5639 15.2297 17.7654 15.3797M17.6529 14.9391L18.0748 14.7235M17.7561 15.0141C17.7561 15.0141 18.1826 14.7563 18.3045 14.7M17.9764 15.0375C17.9764 15.0375 18.3373 14.7938 18.5389 14.686M18.2154 15.0188C18.2154 15.0188 18.4686 14.8313 18.7076 14.686M18.792 14.4469C18.792 14.4469 18.6701 14.2641 18.267 14.4469C18.267 14.4469 18.417 14.311 18.7076 14.2031M19.1107 13.4391C19.1107 13.4391 19.1436 13.5844 19.1107 13.6735" stroke="#00247D" stroke-width="0.15" stroke-miterlimit="10"/>
<path d="M18.4637 14.1422C18.4637 14.1422 18.5434 14.0203 18.759 13.9547C18.759 13.9547 18.8152 14.0953 18.9793 14.0719C18.9793 14.0719 19.2277 14.0203 19.148 13.7438C19.148 13.7438 19.1012 13.5469 18.8152 13.5235M19.659 13.1813C19.659 13.1813 19.9496 13.2375 19.9402 13.4672C19.9402 13.4672 19.973 13.8235 19.598 13.8891M19.9027 13.3266C19.9027 13.3266 19.9824 13.1531 20.1605 13.0828M19.9496 12.9797C19.9496 12.9797 20.0246 13.111 20.0762 13.125M19.9074 13.0781L20.0012 13.1953M19.8793 13.1719C19.9006 13.2003 19.9259 13.2256 19.9543 13.2469M18.3887 11.8031C18.3887 11.8031 18.4449 11.7094 18.5902 11.7469M19.1621 12.4875C19.1621 12.4875 19.2512 12.1219 19.5559 12.2531M19.434 12.225C19.434 12.225 19.4621 12.0563 19.3871 11.9672M19.223 12.211C19.223 12.211 19.2605 12.2813 19.223 12.3375" stroke="#00247D" stroke-width="0.15" stroke-miterlimit="10"/>
<path d="M19.8514 15.9844C19.8514 15.9844 20.1982 15.8297 20.0951 15.5578C20.0951 15.5578 20.0623 15.4641 19.9826 15.4734C19.9826 15.4734 19.8467 15.4781 19.8701 15.6609C19.8701 15.6609 19.917 15.8391 19.8467 15.9891L19.8514 15.9844Z" fill="#64B4D1" stroke="#00247D" stroke-width="0.15" stroke-miterlimit="2.6"/>
<path d="M19.9779 15.8249C19.9779 15.8249 20.0529 15.7546 20.0435 15.6234C20.0435 15.6234 20.0388 15.5953 20.0482 15.5906C20.0482 15.5906 20.0669 15.5859 20.0669 15.6187C20.0669 15.6187 20.0904 15.7546 19.9966 15.8296C19.9966 15.8296 19.9966 15.8437 19.9826 15.839C19.9826 15.839 19.9732 15.839 19.9779 15.8249Z" fill="white"/>
<path d="M20.3442 15.7406C20.3442 15.7406 20.5926 15.5906 20.4567 15.3328C20.4567 15.3328 20.4192 15.2625 20.3442 15.2765C20.3442 15.2765 20.1942 15.3234 20.3114 15.5343C20.3114 15.5343 20.3676 15.6703 20.3442 15.7453V15.7406Z" fill="#64B4D1" stroke="#00247D" stroke-width="0.15" stroke-miterlimit="2.6"/>
<path d="M20.4096 15.3937C20.4096 15.3937 20.3955 15.3797 20.4096 15.3656L20.4236 15.3844C20.4236 15.3844 20.4986 15.464 20.4424 15.5906C20.4424 15.5906 20.433 15.6094 20.4189 15.6V15.5859C20.4189 15.5859 20.4752 15.4734 20.4096 15.3984V15.3937Z" fill="white"/>
<path d="M19.6126 15.9188C19.6126 15.9188 19.3407 15.8532 19.3922 15.5672C19.3922 15.5672 19.4157 15.4454 19.5329 15.4641C19.5329 15.4641 19.6735 15.5016 19.5844 15.6797C19.5844 15.6797 19.5282 15.8016 19.6126 15.9188Z" fill="#64B4D1" stroke="#00247D" stroke-width="0.15" stroke-miterlimit="2.6"/>
<path d="M19.5093 15.5859C19.5093 15.5859 19.4999 15.5672 19.5093 15.5625C19.5093 15.5625 19.5233 15.5625 19.528 15.5719C19.528 15.5719 19.5561 15.6188 19.5374 15.6844C19.5374 15.6844 19.514 15.7266 19.5233 15.7687C19.5233 15.7687 19.5233 15.7828 19.514 15.7875L19.4999 15.7687C19.4999 15.7687 19.4905 15.7313 19.514 15.6844C19.514 15.6844 19.5421 15.6187 19.514 15.5859H19.5093Z" fill="white"/>
<path d="M19.8094 15.389C19.8094 15.389 19.9641 15.3 20.0906 15.4031C20.0906 15.4031 20.0766 15.3468 19.9781 15.3234C19.9781 15.3234 19.9266 15.1734 19.7812 15.1875C19.7812 15.1875 19.8375 15.2625 19.9219 15.3187C19.9219 15.3187 19.8375 15.3281 19.8094 15.389ZM19.9219 14.9812C19.9219 14.9812 20.0344 15.0609 20.0719 15.1125C20.0719 15.1125 20.1094 15.0562 20.1656 15.0281C20.1656 15.0281 20.1047 15.014 20.0719 15.0421C20.0719 15.0421 20.0156 14.9953 19.9266 14.9812H19.9219Z" fill="black"/>
<path d="M19.3169 15.3094C19.3169 15.3094 19.3076 15.2719 19.3357 15.2344C19.3357 15.2344 19.3497 15.2063 19.3451 15.1641M20.4419 12.9141C20.4419 12.9141 20.6013 12.9047 20.6294 12.7735M20.9107 12.6891C20.9107 12.6891 20.8544 12.6891 20.8029 12.7453C20.8029 12.7453 20.7654 12.8016 20.7091 12.7922" stroke="black" stroke-width="0.15" stroke-miterlimit="10"/>
<path d="M20.2029 12.4312C20.2029 12.4312 20.2826 12.4312 20.3295 12.3937C20.3295 12.3937 20.3764 12.3609 20.4092 12.4125C20.4092 12.4125 20.4561 12.4875 20.367 12.5203C20.367 12.5203 20.2686 12.5765 20.4279 12.6797C20.4279 12.6797 20.2357 12.6047 20.3154 12.5109C20.3154 12.5109 20.3998 12.4547 20.367 12.4312C20.367 12.4312 20.3576 12.4125 20.3201 12.4312C20.2873 12.4593 20.2264 12.45 20.1982 12.4312H20.2029Z" fill="black"/>
<path d="M20.3105 10.3875C20.3105 10.3875 20.3527 10.3313 20.334 10.1813C20.3152 10.0313 20.4559 10.0079 20.5074 10.05C20.5074 10.05 20.5637 10.0969 20.5074 10.1954C20.4674 10.2813 20.3974 10.3496 20.3105 10.3875Z" fill="#64B4D1" stroke="#00247D" stroke-width="0.15" stroke-miterlimit="2.6"/>
<path d="M20.3623 10.2656C20.3623 10.2656 20.4186 10.2141 20.3904 10.0969L20.3951 10.0875H20.4139C20.4139 10.0875 20.442 10.2188 20.3857 10.2844C20.3857 10.2844 20.3717 10.2985 20.3623 10.2844V10.2656Z" fill="white"/>
<path d="M20.2734 10.3313C20.2734 10.3313 20.2687 10.2657 20.1609 10.1625C20.0484 10.05 20.1375 9.9563 20.2078 9.9563C20.2078 9.9563 20.2734 9.9563 20.3016 10.0641C20.3242 10.1537 20.3142 10.2484 20.2734 10.3313Z" fill="#64B4D1" stroke="#00247D" stroke-width="0.15" stroke-miterlimit="2.6"/>
<path d="M20.2547 10.1906C20.2547 10.1906 20.2547 10.1156 20.1562 10.036V10.0172H20.1703C20.1703 10.0172 20.2781 10.1016 20.2781 10.1953C20.2781 10.1953 20.2781 10.2094 20.2687 10.2094C20.2687 10.2094 20.2547 10.2094 20.2547 10.1906Z" fill="white"/>
<path d="M20.1233 10.2796C20.1233 10.2796 20.0952 10.2328 19.9593 10.1812C19.828 10.1343 19.8608 10.0171 19.9124 9.9937C19.9124 9.9937 19.978 9.97026 20.039 10.0453C20.0944 10.1107 20.1243 10.1939 20.1233 10.2796Z" fill="#64B4D1" stroke="#00247D" stroke-width="0.15" stroke-miterlimit="2.6"/>
<path d="M20.0625 10.1859C20.0625 10.1859 20.0344 10.1203 19.9078 10.0874C19.9078 10.0874 19.8984 10.0874 19.8984 10.0734C19.8984 10.0734 19.8984 10.064 19.9172 10.0687C19.9172 10.0687 20.0484 10.0968 20.0906 10.1812L20.0812 10.1953C20.0812 10.1953 20.0719 10.1953 20.0672 10.1859H20.0625Z" fill="white"/>
<path d="M20.2033 10.3312C20.2033 10.3312 20.1423 10.3546 19.997 10.2843C19.8564 10.214 19.7908 10.3359 19.8189 10.3921C19.8189 10.3921 19.8423 10.4671 19.9548 10.4484C20.0502 10.4432 20.1402 10.4032 20.208 10.3359L20.2033 10.3312Z" fill="#64B4D1" stroke="#00247D" stroke-width="0.15" stroke-miterlimit="2.6"/>
<path d="M19.8753 10.3782C19.8753 10.3782 19.9362 10.425 20.0534 10.3782H20.0721C20.0721 10.3782 20.0721 10.3875 20.0628 10.3922C20.0628 10.3922 19.9362 10.4485 19.8518 10.3969C19.8518 10.3969 19.8424 10.3969 19.8518 10.3829H19.8706L19.8753 10.3782Z" fill="white"/>
<path d="M19.9971 9.87659C19.9971 9.87659 20.0674 9.91409 20.0533 9.99377" stroke="black" stroke-width="0.15" stroke-miterlimit="2.6"/>
<path d="M20.3105 9.89062C20.3105 9.89062 20.3387 9.97969 20.3105 10.0312" stroke="black" stroke-width="0.15" stroke-miterlimit="10"/>
<path d="M15.3563 10.3875C15.3563 10.3875 15.3141 10.3313 15.3329 10.1813C15.347 10.0219 15.2157 10.0079 15.1641 10.05C15.1641 10.05 15.1079 10.0969 15.1595 10.1954C15.1995 10.2813 15.2695 10.3496 15.3563 10.3875Z" fill="#64B4D1" stroke="#00247D" stroke-width="0.15" stroke-miterlimit="2.6"/>
<path d="M15.3045 10.2656C15.3045 10.2656 15.2576 10.2141 15.2763 10.0969V10.0875H15.2529C15.2529 10.0875 15.2295 10.2188 15.2857 10.2844C15.2857 10.2844 15.2998 10.2985 15.3045 10.2844V10.2656Z" fill="white"/>
<path d="M15.3984 10.3313C15.3984 10.3313 15.3984 10.2657 15.5109 10.1625C15.6234 10.05 15.5343 9.9563 15.464 9.9563C15.464 9.9563 15.3937 9.9563 15.3703 10.0641C15.3476 10.1537 15.3576 10.2484 15.3984 10.3313Z" fill="#64B4D1" stroke="#00247D" stroke-width="0.15" stroke-miterlimit="2.6"/>
<path d="M15.4168 10.1906C15.4168 10.1906 15.4168 10.1156 15.5105 10.036C15.5105 10.036 15.5199 10.0219 15.5105 10.0172H15.5012C15.5012 10.0172 15.3887 10.1016 15.3887 10.1953C15.3887 10.1953 15.3887 10.2094 15.4027 10.2094C15.4027 10.2094 15.4168 10.2094 15.4168 10.1906Z" fill="white"/>
<path d="M15.544 10.2796C15.544 10.2796 15.5721 10.2328 15.7127 10.1812C15.8393 10.1343 15.8065 10.0171 15.7502 9.9937C15.7502 9.9937 15.694 9.97026 15.6283 10.0453C15.5729 10.1107 15.543 10.1939 15.544 10.2796Z" fill="#64B4D1" stroke="#00247D" stroke-width="0.15" stroke-miterlimit="2.6"/>
<path d="M15.6094 10.1859C15.6094 10.1859 15.6328 10.1203 15.7547 10.0874C15.7547 10.0874 15.7687 10.0874 15.7687 10.0734C15.7687 10.0734 15.7688 10.064 15.7547 10.0687C15.7547 10.0687 15.6234 10.0968 15.5859 10.1812V10.1953C15.5859 10.1953 15.6 10.1953 15.6047 10.1859H15.6094Z" fill="white"/>
<path d="M15.459 10.3312C15.459 10.3312 15.5293 10.3546 15.6652 10.2843C15.8105 10.214 15.8762 10.3359 15.8527 10.3921C15.8527 10.3921 15.8246 10.4671 15.7121 10.4484C15.6168 10.4432 15.5267 10.4032 15.459 10.3359V10.3312Z" fill="#64B4D1" stroke="#00247D" stroke-width="0.15" stroke-miterlimit="2.6"/>
<path d="M15.7965 10.3782C15.7965 10.3782 15.7355 10.425 15.609 10.3782H15.5996V10.3922C15.5996 10.3922 15.7355 10.4485 15.8105 10.3969C15.8105 10.3969 15.8246 10.3969 15.8105 10.3829H15.7965V10.3782Z" fill="white"/>
<path d="M15.6755 9.87659C15.6755 9.87659 15.6005 9.91409 15.6192 9.99377" stroke="black" stroke-width="0.15" stroke-miterlimit="2.6"/>
<path d="M15.3563 9.89062C15.3563 9.89062 15.3281 9.97969 15.3563 10.0312" stroke="black" stroke-width="0.15" stroke-miterlimit="10"/>
<path d="M18.4738 9.07505C18.4738 9.07505 18.5207 9.20161 18.502 9.3188C18.4832 9.4313 18.5066 9.45473 18.5488 9.47817C18.5816 9.49223 18.6566 9.45942 18.6613 9.37505C18.6613 9.37505 18.7551 9.55317 18.5816 9.67036C18.5816 9.67036 18.4504 9.75005 18.3473 9.65161C18.3051 9.60942 18.291 9.51098 18.3098 9.41723C18.3098 9.41723 18.3379 9.29067 18.291 9.15942C18.291 9.15942 18.3613 9.23442 18.3473 9.38911C18.3473 9.38911 18.3051 9.67036 18.5113 9.65161C18.5113 9.65161 18.652 9.65161 18.6566 9.48286C18.6566 9.48286 18.6004 9.53911 18.5395 9.52036C18.5111 9.51364 18.4865 9.49621 18.4708 9.47174C18.4551 9.44727 18.4494 9.41765 18.4551 9.38911C18.4645 9.31411 18.4832 9.18755 18.4738 9.07505ZM18.2488 9.52036C18.2488 9.52036 18.2348 9.74536 18.0379 9.79692C18.0379 9.79692 18.066 9.75473 18.0191 9.64223C18.0191 9.64223 17.9723 9.58598 17.9723 9.48755C17.9723 9.48755 17.9207 9.53442 17.9863 9.66567C18.0332 9.74536 17.991 9.83442 17.9816 9.83911C17.9629 9.8438 18.3098 9.79223 18.2441 9.52505L18.2488 9.52036ZM17.9863 9.30942C17.9863 9.30942 17.9395 9.25317 17.9301 9.1313C17.9301 9.00473 17.9113 8.97192 17.8926 8.96255C17.8926 8.96255 17.916 9.07036 17.9113 9.1313C17.9113 9.20161 17.9113 9.2438 17.9254 9.27192C17.9254 9.27192 17.8129 9.28598 17.7473 9.1313C17.6863 8.97661 17.6207 8.99067 17.5832 8.99067C17.5832 8.99067 17.6254 8.99536 17.6957 9.1313C17.7754 9.27192 17.7988 9.30473 17.9863 9.30473V9.30942ZM17.4848 8.9813C17.4848 8.9813 17.541 9.1313 17.5457 9.2063C17.5457 9.2063 17.4004 9.15942 17.3582 9.04223C17.3582 9.04223 17.2082 9.08911 17.2645 9.26255C17.2645 9.26255 17.1332 9.21567 17.0723 9.11255C17.0723 9.11255 17.1426 9.1688 17.2129 9.19223C17.2129 9.19223 17.2035 9.04692 17.3816 8.99536C17.3816 8.99536 17.4098 9.12192 17.5082 9.15005L17.4848 8.9813ZM17.7191 8.72817C17.7191 8.72817 17.7754 8.79848 17.8738 8.79848C17.9035 8.80149 17.9335 8.79657 17.9607 8.78422C17.9878 8.77186 18.0113 8.75252 18.0285 8.72817C18.0285 8.72817 18.0191 8.85005 17.8738 8.85473C17.8738 8.85473 17.7191 8.85473 17.7191 8.72817ZM17.0863 9.59536L17.1801 9.68442C17.1801 9.68442 17.2363 9.74067 17.2738 9.67036C17.2738 9.67036 17.3395 9.55786 17.4145 9.56723C17.4145 9.56723 17.3535 9.60005 17.302 9.70786C17.302 9.70786 17.2879 9.74067 17.2457 9.74536C17.2223 9.74536 17.1988 9.75473 17.1613 9.71255L17.0863 9.60005V9.59536ZM17.8691 8.21723C17.7191 8.21723 17.8457 8.32973 17.8457 8.32973C17.8457 8.51723 17.7051 8.58286 17.602 8.52661C17.4941 8.47036 17.5785 8.33911 17.5785 8.33911C17.5785 8.33911 17.466 8.40942 17.5316 8.52192C17.6066 8.63442 17.8035 8.57817 17.8691 8.47973C17.9441 8.58286 18.1363 8.63442 18.2066 8.52192C18.2816 8.40942 18.1645 8.33442 18.1645 8.33442C18.1645 8.33442 18.2488 8.47036 18.1457 8.52192C18.0426 8.58286 17.8926 8.52192 17.8973 8.33442C17.8973 8.33442 18.0285 8.21723 17.8738 8.21723H17.8691ZM17.9629 8.01098C17.9629 8.01098 18.0191 8.10473 18.0098 8.24536C18.0098 8.24536 18.0566 8.10473 17.9629 8.01567V8.01098ZM17.4941 8.2313C17.4941 8.2313 17.4848 8.12817 17.3816 8.1188C17.3816 8.1188 17.4754 8.17973 17.4941 8.2313ZM18.2488 8.2313C18.2488 8.2313 18.2629 8.12817 18.3613 8.1188C18.3613 8.1188 18.277 8.17973 18.2488 8.2313ZM17.3441 8.3813C17.3441 8.3813 17.4238 8.40473 17.466 8.34848L17.3441 8.3813ZM17.091 7.76723C17.091 7.76723 17.1848 7.76255 17.2738 7.8938C17.2738 7.8938 17.1801 7.94067 17.1613 7.9688C17.1613 7.9688 17.1613 7.92192 17.2082 7.88911C17.2082 7.88911 17.1895 7.82348 17.091 7.77192V7.76723ZM18.591 7.76723C18.591 7.76723 18.4973 7.76255 18.4129 7.8938C18.4129 7.8938 18.502 7.94067 18.5254 7.9688C18.5254 7.9688 18.5254 7.92192 18.4785 7.88911C18.4785 7.88911 18.4973 7.82348 18.591 7.77192V7.76723ZM17.902 7.87036C17.902 7.87036 17.9816 7.8938 18.0801 7.83755C18.0801 7.83755 18.2066 7.77192 18.2816 7.83755C18.2816 7.83755 18.216 7.80473 18.0801 7.87036C18.0801 7.87036 17.9535 7.94536 17.902 7.87036Z" fill="black"/>
<path d="M17.9863 7.95C17.9863 7.95 18.0566 7.83281 18.2676 7.85625C18.2676 7.85625 18.2113 8.025 17.9863 7.95Z" fill="white"/>
<path d="M18.1264 7.96409C18.1471 7.96409 18.1639 7.941 18.1639 7.91252C18.1639 7.88405 18.1471 7.86096 18.1264 7.86096C18.1057 7.86096 18.0889 7.88405 18.0889 7.91252C18.0889 7.941 18.1057 7.96409 18.1264 7.96409Z" fill="#784421"/>
<path d="M18.127 7.94526C18.1399 7.94526 18.1504 7.93057 18.1504 7.91245C18.1504 7.89433 18.1399 7.87964 18.127 7.87964C18.114 7.87964 18.1035 7.89433 18.1035 7.91245C18.1035 7.93057 18.114 7.94526 18.127 7.94526Z" fill="black"/>
<path d="M17.541 7.69214C17.541 7.69214 17.6676 7.7062 17.752 7.74839C17.752 7.74839 17.8363 7.80464 17.9301 7.73433C17.9301 7.73433 18.0379 7.6687 18.1035 7.58901C18.1035 7.58901 17.9441 7.69683 17.8832 7.71558C17.8832 7.71558 17.827 7.6687 17.8082 7.60776C17.8082 7.60776 17.8129 7.56089 17.902 7.4812C17.902 7.4812 17.7848 7.5187 17.7613 7.61714C17.7776 7.65725 17.8015 7.69386 17.8316 7.72495C17.8316 7.72495 17.8082 7.73901 17.752 7.69683C17.752 7.69683 17.6254 7.65933 17.541 7.69683V7.69214ZM17.8738 8.48901C17.766 8.58745 17.8738 8.57808 17.8738 8.57808C17.8738 8.57808 17.9863 8.58745 17.8738 8.48433V8.48901ZM17.8082 7.87026C17.8082 7.87026 17.7238 7.8937 17.6207 7.83745C17.6207 7.83745 17.4988 7.77183 17.4238 7.83745C17.4238 7.83745 17.4895 7.80464 17.6254 7.87026C17.6254 7.87026 17.7566 7.94526 17.8129 7.87026H17.8082Z" fill="black"/>
<path d="M17.7236 7.95C17.7236 7.95 17.658 7.83281 17.4424 7.85625C17.4424 7.85625 17.4986 8.025 17.7236 7.95Z" fill="white"/>
<path d="M17.5785 7.96409C17.5992 7.96409 17.616 7.941 17.616 7.91252C17.616 7.88405 17.5992 7.86096 17.5785 7.86096C17.5578 7.86096 17.541 7.88405 17.541 7.91252C17.541 7.941 17.5578 7.96409 17.5785 7.96409Z" fill="#784421"/>
<path d="M17.5781 7.94526C17.5911 7.94526 17.6016 7.93057 17.6016 7.91245C17.6016 7.89433 17.5911 7.87964 17.5781 7.87964C17.5652 7.87964 17.5547 7.89433 17.5547 7.91245C17.5547 7.93057 17.5652 7.94526 17.5781 7.94526Z" fill="black"/>
<path d="M21.9043 6.87183V14.4468C21.9043 16.4671 17.8637 17.1281 17.8637 17.1281C17.8637 17.1281 13.8184 16.4718 13.8184 14.4468V6.87183H21.909H21.9043Z" stroke="black" stroke-width="0.15"/>
</g>
<defs>
<clipPath id="clip0_208_10346">
<rect width="24" height="24" rx="12" fill="white"/>
</clipPath>
</defs>
</svg>
