<svg width="24" height="24" viewBox="0 0 24 24" fill="none" xmlns="http://www.w3.org/2000/svg">
<g clip-path="url(#clip0_208_22508)">
<path d="M0 0H24V24H0V0Z" fill="#D21034"/>
<path d="M6 6H18V18H6V6Z" fill="#007E3A"/>
<path d="M13.5004 15.9985C15.7087 15.9985 17.4988 14.2083 17.4988 12C17.4988 9.79175 15.7087 8.00159 13.5004 8.00159C11.2921 8.00159 9.50195 9.79175 9.50195 12C9.50195 14.2083 11.2921 15.9985 13.5004 15.9985Z" fill="white"/>
<path d="M14.466 15.9985C16.3792 15.9985 17.9301 14.2083 17.9301 12C17.9301 9.79175 16.3792 8.00159 14.466 8.00159C12.5529 8.00159 11.002 9.79175 11.002 12C11.002 14.2083 12.5529 15.9985 14.466 15.9985Z" fill="#007E3A"/>
</g>
<defs>
<clipPath id="clip0_208_22508">
<rect width="24" height="24" rx="12" fill="white"/>
</clipPath>
</defs>
</svg>
