<svg width="24" height="24" viewBox="0 0 24 24" fill="none" xmlns="http://www.w3.org/2000/svg">
<g clip-path="url(#clip0_208_21957)">
<mask id="mask0_208_21957" style="mask-type:luminance" maskUnits="userSpaceOnUse" x="-1" y="0" width="25" height="24">
<path d="M-0.000976562 0H23.9953V23.9963H-0.000976562V0Z" fill="white"/>
</mask>
<g mask="url(#mask0_208_21957)">
<path fill-rule="evenodd" clip-rule="evenodd" d="M-9 0H32.9984V23.9963H-9V0Z" fill="white"/>
<path fill-rule="evenodd" clip-rule="evenodd" d="M-9 16.1152H32.9984V24.0011H-9V16.1152Z" fill="#DA0000"/>
<path fill-rule="evenodd" clip-rule="evenodd" d="M-1.01758 16.4491H1.2853V16.6087H-1.01758V16.4491ZM-0.674082 17.2425H-0.51443V17.3973H-0.67892L-0.674082 17.2425ZM1.29013 17.2377V17.3973H0.830526V17.2377H1.29013ZM1.53687 16.4491H1.69652V17.3973H1.53687V16.4491Z" fill="white"/>
<path fill-rule="evenodd" clip-rule="evenodd" d="M2.4508 17.2377V17.3973H1.57996V17.2377H2.4508ZM0.830078 16.87H0.989731V17.3973H0.830078V16.87Z" fill="white"/>
<path fill-rule="evenodd" clip-rule="evenodd" d="M2.32062 16.4491H2.48027V17.3973H2.32546L2.32062 16.4491ZM1.92874 16.4491H2.08356V17.3973H1.93358L1.92874 16.4491ZM-0.170934 16.8265V16.9861H-1.01758V16.8265H-0.170934ZM1.66749 16.8265V16.9861H0.830526V16.8265H1.66749Z" fill="white"/>
<path fill-rule="evenodd" clip-rule="evenodd" d="M0.830078 16.8651H0.989731V17.3973H0.830078V16.8651Z" fill="white"/>
<path fill-rule="evenodd" clip-rule="evenodd" d="M0.830078 16.8651H0.989731V17.3973H0.830078V16.8651Z" fill="white"/>
<path fill-rule="evenodd" clip-rule="evenodd" d="M0.830526 16.8651H0.990179V17.3973H0.830526V16.8651ZM-1.0079 16.8651H-0.853087V17.3973H-1.01758L-1.0079 16.8651ZM0.337053 16.8651H0.496706V17.3973H0.337053V16.8651ZM-0.330587 16.8651H-0.170934V17.3973H-0.330587V16.8651Z" fill="white"/>
<path fill-rule="evenodd" clip-rule="evenodd" d="M0.448486 17.2376V17.3973H-0.262695V17.2376H0.448486ZM0.496866 16.8264V16.9861H0.0469344V16.8264H0.496866Z" fill="white"/>
<path fill-rule="evenodd" clip-rule="evenodd" d="M2.73242 16.4491H5.03046V16.6087H2.73242V16.4491ZM3.07108 17.2425H3.23073V17.3973H3.07592L3.07108 17.2425ZM5.0353 17.2377V17.3973H4.57569V17.2377H5.0353ZM5.28203 16.4491H5.44168V17.3973H5.28203V16.4491Z" fill="white"/>
<path fill-rule="evenodd" clip-rule="evenodd" d="M6.20173 17.2377V17.3973H5.3309V17.2377H6.20173ZM4.57617 16.87H4.73582V17.3973H4.57617V16.87Z" fill="white"/>
<path fill-rule="evenodd" clip-rule="evenodd" d="M6.07066 16.4491H6.23032V17.3973H6.07066V16.4491ZM5.67395 16.4491H5.8336V17.3973H5.67395V16.4491ZM3.57427 16.8265V16.9861H2.7373V16.8265H3.57427ZM5.4127 16.8265V16.9861H4.57573V16.8265H5.4127Z" fill="white"/>
<path fill-rule="evenodd" clip-rule="evenodd" d="M4.57617 16.8651H4.73582V17.3973H4.57617V16.8651Z" fill="white"/>
<path fill-rule="evenodd" clip-rule="evenodd" d="M4.57617 16.8651H4.73582V17.3973H4.57617V16.8651Z" fill="white"/>
<path fill-rule="evenodd" clip-rule="evenodd" d="M4.57573 16.8651H4.73539V17.3973H4.57573V16.8651ZM2.7373 16.8651H2.89212V17.3973H2.7373V16.8651ZM4.0871 16.8651H4.24191V17.3973H4.0871V16.8651ZM3.41462 16.8651H3.57427V17.3973H3.41462V16.8651Z" fill="white"/>
<path fill-rule="evenodd" clip-rule="evenodd" d="M4.19844 17.2376V17.3973H3.48242V17.2376H4.19844ZM4.24682 16.8264V16.9861H3.79205V16.8264H4.24682Z" fill="white"/>
<path fill-rule="evenodd" clip-rule="evenodd" d="M6.50098 16.4491H8.79901V16.6087H6.50098V16.4491ZM6.84447 17.2425H7.00412V17.3973H6.84447V17.2425ZM8.80869 17.2377V17.3973H8.34908V17.2377H8.80869ZM9.05059 16.4491H9.21024V17.3973H9.05542L9.05059 16.4491Z" fill="white"/>
<path fill-rule="evenodd" clip-rule="evenodd" d="M9.96935 17.2377V17.3973H9.09852V17.2377H9.96935ZM8.34863 16.87H8.50345V17.3973H8.34863V16.87Z" fill="white"/>
<path fill-rule="evenodd" clip-rule="evenodd" d="M9.83922 16.4491H9.99887V17.3973H9.83922V16.4491ZM9.44734 16.4491H9.60216V17.3973H9.44251L9.44734 16.4491ZM7.34283 16.8265V16.9861H6.50586V16.8265H7.34283ZM9.18609 16.8265V16.9861H8.34913V16.8265H9.18609Z" fill="white"/>
<path fill-rule="evenodd" clip-rule="evenodd" d="M8.34863 16.8651H8.50345V17.3973H8.34863V16.8651Z" fill="white"/>
<path fill-rule="evenodd" clip-rule="evenodd" d="M8.34863 16.8651H8.50345V17.3973H8.34863V16.8651Z" fill="white"/>
<path fill-rule="evenodd" clip-rule="evenodd" d="M8.34913 16.8651H8.50394V17.3973H8.34913V16.8651ZM6.50586 16.8651H6.66551V17.3973H6.50586V16.8651ZM7.85565 16.8651H8.01531V17.3973H7.85565V16.8651ZM7.18801 16.8651H7.34767V17.3973H7.18801V16.8651Z" fill="white"/>
<path fill-rule="evenodd" clip-rule="evenodd" d="M7.96704 17.2376V17.3973H7.25586V17.2376H7.96704ZM8.01542 16.8264V16.9861H7.56549V16.8264H8.01542Z" fill="white"/>
<path fill-rule="evenodd" clip-rule="evenodd" d="M10.2842 16.4491H12.5871V16.6087H10.2842V16.4491ZM10.6277 17.2425H10.7873V17.3973H10.6277V17.2425ZM12.5919 17.2377V17.3973H12.1323V17.2377H12.5919ZM12.8386 16.4491H12.9983V17.3973H12.8386V16.4491Z" fill="white"/>
<path fill-rule="evenodd" clip-rule="evenodd" d="M13.7526 17.2377V17.3973H12.8817V17.2377H13.7526ZM12.1318 16.87H12.2915V17.3973H12.1318V16.87Z" fill="white"/>
<path fill-rule="evenodd" clip-rule="evenodd" d="M13.6224 16.4491H13.7821V17.3973H13.6224V16.4491ZM13.2305 16.4491H13.3854V17.3973H13.2305V16.4491ZM11.1309 16.8265V16.9861H10.2891V16.8265H11.1309ZM12.9693 16.8265V16.9861H12.1323V16.8265H12.9693Z" fill="white"/>
<path fill-rule="evenodd" clip-rule="evenodd" d="M12.1318 16.8651H12.2915V17.3973H12.1318V16.8651Z" fill="white"/>
<path fill-rule="evenodd" clip-rule="evenodd" d="M12.1318 16.8651H12.2915V17.3973H12.1318V16.8651Z" fill="white"/>
<path fill-rule="evenodd" clip-rule="evenodd" d="M12.1323 16.8651H12.292V17.3973H12.1323V16.8651ZM10.2939 16.8651H10.4487V17.3973H10.2891L10.2939 16.8651ZM11.6389 16.8651H11.7985V17.3973H11.6389V16.8651ZM10.9712 16.8651H11.1309V17.3973H10.9712V16.8651Z" fill="white"/>
<path fill-rule="evenodd" clip-rule="evenodd" d="M11.7551 17.2376V17.3973H11.0439V17.2376H11.7551ZM11.7987 16.8264V16.9861H11.3487V16.8264H11.7987Z" fill="white"/>
<path fill-rule="evenodd" clip-rule="evenodd" d="M-9 0H32.9984V7.88589H-9V0Z" fill="#239F40"/>
<path fill-rule="evenodd" clip-rule="evenodd" d="M14.0918 16.4491H16.3898V16.6087H14.0918V16.4491ZM14.4353 17.2425H14.5949V17.3973H14.4353V17.2425ZM16.3995 17.2377V17.3973H15.9399V17.2377H16.3995ZM16.6414 16.4491H16.8059V17.3973H16.6414V16.4491Z" fill="white"/>
<path fill-rule="evenodd" clip-rule="evenodd" d="M17.5602 17.2377V17.3973H16.6893V17.2377H17.5602ZM15.9395 16.87H16.0943V17.3973H15.9395V16.87Z" fill="white"/>
<path fill-rule="evenodd" clip-rule="evenodd" d="M17.43 16.4491H17.5897V17.3973H17.43V16.4491ZM17.0382 16.4491H17.193V17.3973H17.0382V16.4491ZM14.9385 16.8265V16.9861H14.0967V16.8265H14.9385ZM16.7769 16.8265V16.9861H15.9399V16.8265H16.7769Z" fill="white"/>
<path fill-rule="evenodd" clip-rule="evenodd" d="M15.9395 16.8651H16.0943V17.3973H15.9395V16.8651Z" fill="white"/>
<path fill-rule="evenodd" clip-rule="evenodd" d="M15.9395 16.8651H16.0943V17.3973H15.9395V16.8651Z" fill="white"/>
<path fill-rule="evenodd" clip-rule="evenodd" d="M15.9399 16.8651H16.0948V17.3973H15.9399V16.8651ZM14.0967 16.8651H14.2563V17.3973H14.0967V16.8651ZM15.4465 16.8651H15.6061V17.3973H15.4465V16.8651ZM14.7788 16.8651H14.9385V17.3973H14.7788V16.8651Z" fill="white"/>
<path fill-rule="evenodd" clip-rule="evenodd" d="M15.5579 17.2376V17.3973H14.8467V17.2376H15.5579ZM15.6062 16.8264V16.9861H15.1563V16.8264H15.6062Z" fill="white"/>
<path fill-rule="evenodd" clip-rule="evenodd" d="M17.875 16.4491H20.1779V16.6087H17.875V16.4491ZM18.2185 17.2425H18.3781V17.3973H18.2185V17.2425ZM20.1827 17.2377V17.3973H19.7231V17.2377H20.1827ZM20.4294 16.4491H20.5891V17.3973H20.4294V16.4491Z" fill="white"/>
<path fill-rule="evenodd" clip-rule="evenodd" d="M21.3434 17.2377V17.3973H20.4725V17.2377H21.3434ZM19.7227 16.87H19.8823V17.3973H19.7227V16.87Z" fill="white"/>
<path fill-rule="evenodd" clip-rule="evenodd" d="M21.2181 16.4491H21.3729V17.3973H21.2181V16.4491ZM20.8214 16.4491H20.981V17.3973H20.8214V16.4491ZM18.7217 16.8265V16.9861H17.8799V16.8265H18.7217ZM20.5601 16.8265V16.9861H19.7232V16.8265H20.5601Z" fill="white"/>
<path fill-rule="evenodd" clip-rule="evenodd" d="M19.7227 16.8651H19.8823V17.3973H19.7227V16.8651Z" fill="white"/>
<path fill-rule="evenodd" clip-rule="evenodd" d="M19.7227 16.8651H19.8823V17.3973H19.7227V16.8651Z" fill="white"/>
<path fill-rule="evenodd" clip-rule="evenodd" d="M19.7232 16.8651H19.8828V17.3973H19.7232V16.8651ZM17.8847 16.8651H18.0395V17.3973H17.8799L17.8847 16.8651ZM19.2297 16.8651H19.3893V17.3973H19.2297V16.8651ZM18.562 16.8651H18.7217V17.3973H18.562V16.8651Z" fill="white"/>
<path fill-rule="evenodd" clip-rule="evenodd" d="M19.3411 17.2376V17.3973H18.6348V17.2376H19.3411ZM19.3895 16.8264V16.9861H18.9396V16.8264H19.3895Z" fill="white"/>
<path fill-rule="evenodd" clip-rule="evenodd" d="M21.6631 16.4491H23.9611V16.6087H21.6631V16.4491ZM22.0017 17.2425H22.1614V17.3973H22.0017V17.2425ZM23.966 17.2377V17.3973H23.5112V17.2377H23.966ZM24.2127 16.4491H24.3723V17.3973H24.2127V16.4491Z" fill="white"/>
<path fill-rule="evenodd" clip-rule="evenodd" d="M25.1324 17.2377V17.3973H24.2616V17.2377H25.1324ZM23.5068 16.87H23.6665V17.3973H23.5068V16.87Z" fill="white"/>
<path fill-rule="evenodd" clip-rule="evenodd" d="M25.0013 16.4491H25.1609V17.3973H25.0013V16.4491ZM24.6046 16.4491H24.7642V17.3973H24.6046V16.4491ZM22.5049 16.8265V16.9861H21.6631V16.8265H22.5049ZM24.3433 16.8265V16.9861H23.5112V16.8265H24.3433Z" fill="white"/>
<path fill-rule="evenodd" clip-rule="evenodd" d="M23.5117 16.8651H23.6665V17.3973H23.5068L23.5117 16.8651Z" fill="white"/>
<path fill-rule="evenodd" clip-rule="evenodd" d="M23.5117 16.8651H23.6665V17.3973H23.5068L23.5117 16.8651Z" fill="white"/>
<path fill-rule="evenodd" clip-rule="evenodd" d="M23.5112 16.8651H23.666V17.3973H23.5064L23.5112 16.8651ZM21.6631 16.8651H21.8227V17.3973H21.6631V16.8651ZM23.0177 16.8651H23.1725V17.3973H23.0129L23.0177 16.8651ZM22.3452 16.8651H22.5049V17.3973H22.3452V16.8651Z" fill="white"/>
<path fill-rule="evenodd" clip-rule="evenodd" d="M23.1243 17.2376V17.3973H22.418V17.2376H23.1243ZM23.1727 16.8264V16.9861H22.7228V16.8264H23.1727Z" fill="white"/>
<path fill-rule="evenodd" clip-rule="evenodd" d="M-1.01758 6.72473H1.2853V6.87955H-1.01758V6.72473ZM-0.674082 7.51332H-0.51443V7.66814H-0.67892L-0.674082 7.51332ZM1.29013 7.51332V7.66814H0.830526V7.50848L1.29013 7.51332ZM1.53687 6.72473H1.69652V7.66814H1.53687V6.72473Z" fill="white"/>
<path fill-rule="evenodd" clip-rule="evenodd" d="M2.4508 7.50843V7.66809H1.57996V7.50843H2.4508ZM0.830078 7.14075H0.989731V7.67292H0.830078V7.14075Z" fill="white"/>
<path fill-rule="evenodd" clip-rule="evenodd" d="M2.32062 6.72473H2.48027V7.66814H2.32546L2.32062 6.72473ZM1.92874 6.72473H2.08356V7.66814H1.93358L1.92874 6.72473ZM-0.170934 7.09725V7.25691H-1.01758V7.10209L-0.170934 7.09725ZM1.66749 7.09725V7.25691H0.830526V7.10209L1.66749 7.09725Z" fill="white"/>
<path fill-rule="evenodd" clip-rule="evenodd" d="M0.830078 7.14075H0.989731V7.67292H0.830078V7.14075Z" fill="white"/>
<path fill-rule="evenodd" clip-rule="evenodd" d="M0.830078 7.14075H0.989731V7.67292H0.830078V7.14075Z" fill="white"/>
<path fill-rule="evenodd" clip-rule="evenodd" d="M0.830526 7.14075H0.990179V7.67292H0.830526V7.14075ZM-1.0079 7.14075H-0.853087V7.67292H-1.01758L-1.0079 7.14075ZM0.337053 7.14075H0.496706V7.67292H0.337053V7.14075ZM-0.330587 7.14075H-0.170934V7.67292H-0.330587V7.14075Z" fill="white"/>
<path fill-rule="evenodd" clip-rule="evenodd" d="M0.448486 7.50844V7.66809H-0.262695V7.50844H0.448486ZM0.496866 7.10205V7.25687H0.0469344V7.10205H0.496866Z" fill="white"/>
<path fill-rule="evenodd" clip-rule="evenodd" d="M2.73242 6.72473H5.03046V6.87955H2.73242V6.72473ZM3.07108 7.51332H3.23073V7.66814H3.07592L3.07108 7.51332ZM5.0353 7.51332V7.66814H4.57569V7.50848L5.0353 7.51332ZM5.28203 6.72473H5.44168V7.66814H5.28203V6.72473Z" fill="white"/>
<path fill-rule="evenodd" clip-rule="evenodd" d="M6.20173 7.50843V7.66809H5.3309V7.50843H6.20173ZM4.57617 7.14075H4.73582V7.67292H4.57617V7.14075Z" fill="white"/>
<path fill-rule="evenodd" clip-rule="evenodd" d="M6.07066 6.72473H6.23032V7.66814H6.07066V6.72473ZM5.67395 6.72473H5.8336V7.66814H5.67395V6.72473ZM3.57427 7.09725V7.25691H2.7373V7.10209L3.57427 7.09725ZM5.4127 7.09725V7.25691H4.57573V7.10209L5.4127 7.09725Z" fill="white"/>
<path fill-rule="evenodd" clip-rule="evenodd" d="M4.57617 7.14075H4.73582V7.67292H4.57617V7.14075Z" fill="white"/>
<path fill-rule="evenodd" clip-rule="evenodd" d="M4.57617 7.14075H4.73582V7.67292H4.57617V7.14075Z" fill="white"/>
<path fill-rule="evenodd" clip-rule="evenodd" d="M4.57573 7.14075H4.73539V7.67292H4.57573V7.14075ZM2.7373 7.14075H2.89212V7.67292H2.7373V7.14075ZM4.0871 7.14075H4.24191V7.67292H4.0871V7.14075ZM3.41462 7.14075H3.57427V7.67292H3.41462V7.14075Z" fill="white"/>
<path fill-rule="evenodd" clip-rule="evenodd" d="M4.19844 7.50844V7.66809H3.48242V7.50844H4.19844ZM4.24682 7.10205V7.25687H3.79205V7.10205H4.24682Z" fill="white"/>
<path fill-rule="evenodd" clip-rule="evenodd" d="M6.50098 6.72473H8.79901V6.87955H6.50098V6.72473ZM6.84447 7.51332H7.00412V7.66814H6.84447V7.51332ZM8.80869 7.51332V7.66814H8.34908V7.50848L8.80869 7.51332ZM9.05059 6.72473H9.21024V7.66814H9.05542L9.05059 6.72473Z" fill="white"/>
<path fill-rule="evenodd" clip-rule="evenodd" d="M9.96935 7.50843V7.66809H9.09852V7.50843H9.96935ZM8.34863 7.14075H8.50345V7.67292H8.34863V7.14075Z" fill="white"/>
<path fill-rule="evenodd" clip-rule="evenodd" d="M9.83922 6.72473H9.99887V7.66814H9.83922V6.72473ZM9.44734 6.72473H9.60216V7.66814H9.44251L9.44734 6.72473ZM7.34283 7.09725V7.25691H6.50586V7.10209L7.34283 7.09725ZM9.18609 7.09725V7.25691H8.34913V7.10209L9.18609 7.09725Z" fill="white"/>
<path fill-rule="evenodd" clip-rule="evenodd" d="M8.34863 7.14075H8.50345V7.67292H8.34863V7.14075Z" fill="white"/>
<path fill-rule="evenodd" clip-rule="evenodd" d="M8.34863 7.14075H8.50345V7.67292H8.34863V7.14075Z" fill="white"/>
<path fill-rule="evenodd" clip-rule="evenodd" d="M8.34913 7.14075H8.50394V7.67292H8.34913V7.14075ZM6.50586 7.14075H6.66551V7.67292H6.50586V7.14075ZM7.85565 7.14075H8.01531V7.67292H7.85565V7.14075ZM7.18801 7.14075H7.34767V7.67292H7.18801V7.14075Z" fill="white"/>
<path fill-rule="evenodd" clip-rule="evenodd" d="M7.96704 7.50844V7.66809H7.25586V7.50844H7.96704ZM8.01542 7.10205V7.25687H7.56549V7.10205H8.01542Z" fill="white"/>
<path fill-rule="evenodd" clip-rule="evenodd" d="M10.2842 6.72473H12.5871V6.87955H10.2842V6.72473ZM10.6277 7.51332H10.7873V7.66814H10.6277V7.51332ZM12.5919 7.51332V7.66814H12.1323V7.50848L12.5919 7.51332ZM12.8386 6.72473H12.9983V7.66814H12.8386V6.72473Z" fill="white"/>
<path fill-rule="evenodd" clip-rule="evenodd" d="M13.7526 7.50843V7.66809H12.8817V7.50843H13.7526ZM12.1318 7.14075H12.2915V7.67292H12.1318V7.14075Z" fill="white"/>
<path fill-rule="evenodd" clip-rule="evenodd" d="M13.6224 6.72473H13.7821V7.66814H13.6224V6.72473ZM13.2305 6.72473H13.3854V7.66814H13.2305V6.72473ZM11.1309 7.09725V7.25691H10.2891V7.10209L11.1309 7.09725ZM12.9693 7.09725V7.25691H12.1323V7.10209L12.9693 7.09725Z" fill="white"/>
<path fill-rule="evenodd" clip-rule="evenodd" d="M12.1318 7.14075H12.2915V7.67292H12.1318V7.14075Z" fill="white"/>
<path fill-rule="evenodd" clip-rule="evenodd" d="M12.1318 7.14075H12.2915V7.67292H12.1318V7.14075Z" fill="white"/>
<path fill-rule="evenodd" clip-rule="evenodd" d="M12.1323 7.14075H12.292V7.67292H12.1323V7.14075ZM10.2939 7.14075H10.4487V7.67292H10.2891L10.2939 7.14075ZM11.6389 7.14075H11.7985V7.67292H11.6389V7.14075ZM10.9712 7.14075H11.1309V7.67292H10.9712V7.14075Z" fill="white"/>
<path fill-rule="evenodd" clip-rule="evenodd" d="M11.7551 7.50844V7.66809H11.0439V7.50844H11.7551ZM11.7987 7.10205V7.25687H11.3487V7.10205H11.7987Z" fill="white"/>
<path fill-rule="evenodd" clip-rule="evenodd" d="M14.0918 6.72473H16.3898V6.87955H14.0918V6.72473ZM14.4353 7.51332H14.5949V7.66814H14.4353V7.51332ZM16.3995 7.51332V7.66814H15.9399V7.50848L16.3995 7.51332ZM16.6414 6.72473H16.8059V7.66814H16.6414V6.72473Z" fill="white"/>
<path fill-rule="evenodd" clip-rule="evenodd" d="M17.5602 7.50843V7.66809H16.6893V7.50843H17.5602ZM15.9395 7.14075H16.0943V7.67292H15.9395V7.14075Z" fill="white"/>
<path fill-rule="evenodd" clip-rule="evenodd" d="M17.43 6.72473H17.5897V7.66814H17.43V6.72473ZM17.0382 6.72473H17.193V7.66814H17.0382V6.72473ZM14.9385 7.09725V7.25691H14.0967V7.10209L14.9385 7.09725ZM16.7769 7.09725V7.25691H15.9399V7.10209L16.7769 7.09725Z" fill="white"/>
<path fill-rule="evenodd" clip-rule="evenodd" d="M15.9395 7.14075H16.0943V7.67292H15.9395V7.14075Z" fill="white"/>
<path fill-rule="evenodd" clip-rule="evenodd" d="M15.9395 7.14075H16.0943V7.67292H15.9395V7.14075Z" fill="white"/>
<path fill-rule="evenodd" clip-rule="evenodd" d="M15.9399 7.14075H16.0948V7.67292H15.9399V7.14075ZM14.0967 7.14075H14.2563V7.67292H14.0967V7.14075ZM15.4465 7.14075H15.6061V7.67292H15.4465V7.14075ZM14.7788 7.14075H14.9385V7.67292H14.7788V7.14075Z" fill="white"/>
<path fill-rule="evenodd" clip-rule="evenodd" d="M15.5579 7.50844V7.66809H14.8467V7.50844H15.5579ZM15.6062 7.10205V7.25687H15.1563V7.10205H15.6062Z" fill="white"/>
<path fill-rule="evenodd" clip-rule="evenodd" d="M17.875 6.72473H20.1779V6.87955H17.875V6.72473ZM18.2185 7.51332H18.3781V7.66814H18.2185V7.51332ZM20.1827 7.51332V7.66814H19.7231V7.50848L20.1827 7.51332ZM20.4294 6.72473H20.5891V7.66814H20.4294V6.72473Z" fill="white"/>
<path fill-rule="evenodd" clip-rule="evenodd" d="M21.3434 7.50843V7.66809H20.4725V7.50843H21.3434ZM19.7227 7.14075H19.8823V7.67292H19.7227V7.14075Z" fill="white"/>
<path fill-rule="evenodd" clip-rule="evenodd" d="M21.2181 6.72473H21.3729V7.66814H21.2181V6.72473ZM20.8214 6.72473H20.981V7.66814H20.8214V6.72473ZM18.7217 7.09725V7.25691H17.8799V7.10209L18.7217 7.09725ZM20.5601 7.09725V7.25691H19.7232V7.10209L20.5601 7.09725Z" fill="white"/>
<path fill-rule="evenodd" clip-rule="evenodd" d="M19.7227 7.14075H19.8823V7.67292H19.7227V7.14075Z" fill="white"/>
<path fill-rule="evenodd" clip-rule="evenodd" d="M19.7227 7.14075H19.8823V7.67292H19.7227V7.14075Z" fill="white"/>
<path fill-rule="evenodd" clip-rule="evenodd" d="M19.7232 7.14075H19.8828V7.67292H19.7232V7.14075ZM17.8847 7.14075H18.0395V7.67292H17.8799L17.8847 7.14075ZM19.2297 7.14075H19.3893V7.67292H19.2297V7.14075ZM18.562 7.14075H18.7217V7.67292H18.562V7.14075Z" fill="white"/>
<path fill-rule="evenodd" clip-rule="evenodd" d="M19.3411 7.50844V7.66809H18.6348V7.50844H19.3411ZM19.3895 7.10205V7.25687H18.9396V7.10205H19.3895Z" fill="white"/>
<path fill-rule="evenodd" clip-rule="evenodd" d="M21.6631 6.72473H23.9611V6.87955H21.6631V6.72473ZM22.0017 7.51332H22.1614V7.66814H22.0017V7.51332ZM23.966 7.51332V7.66814H23.5112V7.50848L23.966 7.51332ZM24.2127 6.72473H24.3723V7.66814H24.2127V6.72473Z" fill="white"/>
<path fill-rule="evenodd" clip-rule="evenodd" d="M25.1324 7.50843V7.66809H24.2616V7.50843H25.1324ZM23.5068 7.14075H23.6665V7.67292H23.5068V7.14075Z" fill="white"/>
<path fill-rule="evenodd" clip-rule="evenodd" d="M25.0013 6.72473H25.1609V7.66814H25.0013V6.72473ZM24.6046 6.72473H24.7642V7.66814H24.6046V6.72473ZM22.5049 7.09725V7.25691H21.6631V7.10209L22.5049 7.09725ZM24.3433 7.09725V7.25691H23.5112V7.10209L24.3433 7.09725Z" fill="white"/>
<path fill-rule="evenodd" clip-rule="evenodd" d="M23.5117 7.14075H23.6665V7.67292H23.5068L23.5117 7.14075Z" fill="white"/>
<path fill-rule="evenodd" clip-rule="evenodd" d="M23.5117 7.14075H23.6665V7.67292H23.5068L23.5117 7.14075Z" fill="white"/>
<path fill-rule="evenodd" clip-rule="evenodd" d="M23.5112 7.14075H23.666V7.67292H23.5064L23.5112 7.14075ZM21.6631 7.14075H21.8227V7.67292H21.6631V7.14075ZM23.0177 7.14075H23.1725V7.67292H23.0129L23.0177 7.14075ZM22.3452 7.14075H22.5049V7.67292H22.3452V7.14075Z" fill="white"/>
<path fill-rule="evenodd" clip-rule="evenodd" d="M23.1243 7.50844V7.66809H22.418V7.50844H23.1243ZM23.1727 7.10205V7.25687H22.7228V7.10205H23.1727Z" fill="white"/>
<path fill-rule="evenodd" clip-rule="evenodd" d="M-3.2283 15.9169H-2.94286V16.4007H-3.2283V15.9169ZM4.29474 15.9169H4.58018V16.4007H4.29474V15.9169ZM-9 15.9169H-8.7194V16.4007H-9V15.9169ZM-5.18284 15.9169H-4.8974V16.4007H-5.18284V15.9169ZM-1.38988 15.9169H-1.10927V16.4007H-1.38988V15.9169ZM0.487257 15.9169H0.767859V16.4007H0.487257V15.9169ZM2.39825 15.9169H2.68853V16.4007H2.39825V15.9169ZM6.17187 15.9169H6.45731V16.4007H6.17187V15.9169ZM15.693 15.9169H15.9736V16.4007H15.693V15.9169ZM8.08771 15.9169H8.37315V16.4007H8.08771V15.9169ZM9.96484 15.9169H10.2503V16.4007H9.96484V15.9169ZM11.8613 15.9169H12.1419V16.4007H11.8613V15.9169ZM13.7578 15.9169H14.0384V16.4007H13.7578V15.9169ZM28.9006 15.9169H29.1909V16.4007H28.9006V15.9169ZM17.5314 15.9169H17.812V16.4007H17.5266L17.5314 15.9169ZM19.4424 15.9169H19.7279V16.4007H19.4424V15.9169ZM21.3776 15.9169H21.663V16.4007H21.3776V15.9169ZM23.1967 15.9169H23.4821V16.4007H23.1967V15.9169ZM25.1319 15.9169H25.4173V16.4007H25.127L25.1319 15.9169ZM27.0284 15.9169H27.309V16.4007H27.0284V15.9169ZM32.6404 15.9169H32.921V16.4007H32.6356L32.6404 15.9169ZM30.8213 15.9169H31.1019V16.4007H30.8213V15.9169ZM-7.09868 15.9169H-6.81324V16.4007H-7.09868V15.9169Z" fill="#D90000"/>
<path fill-rule="evenodd" clip-rule="evenodd" d="M-3.2283 7.62463H-2.94286V8.11327H-3.2283V7.62463ZM4.29474 7.62463H4.58018V8.11327H4.29474V7.62463ZM-9 7.62463H-8.7194V8.11327H-9V7.62463ZM-5.18284 7.62463H-4.8974V8.11327H-5.18284V7.62463ZM-1.38988 7.62463H-1.10927V8.11327H-1.38988V7.62463ZM0.487257 7.62463H0.767859V8.11327H0.487257V7.62463ZM2.39825 7.62463H2.68853V8.11327H2.39825V7.62463ZM6.17187 7.62463H6.45731V8.11327H6.17187V7.62463ZM15.693 7.62463H15.9736V8.11327H15.693V7.62463ZM8.08771 7.62463H8.37315V8.11327H8.08771V7.62463ZM9.96484 7.62463H10.2503V8.11327H9.96484V7.62463ZM11.8613 7.62463H12.1419V8.11327H11.8613V7.62463ZM13.7578 7.62463H14.0384V8.11327H13.7578V7.62463ZM28.9006 7.62463H29.1909V8.11327H28.9006V7.62463ZM17.5314 7.62463H17.812V8.11327H17.5266L17.5314 7.62463ZM19.4424 7.62463H19.7279V8.11327H19.4424V7.62463ZM21.3776 7.62463H21.663V8.11327H21.3776V7.62463ZM23.1967 7.62463H23.4821V8.11327H23.1967V7.62463ZM25.1319 7.62463H25.4173V8.11327H25.127L25.1319 7.62463ZM27.0284 7.62463H27.309V8.11327H27.0284V7.62463ZM32.6404 7.62463H32.921V8.11327H32.6356L32.6404 7.62463ZM30.8213 7.62463H31.1019V8.11327H30.8213V7.62463ZM-7.09868 7.62463H-6.81324V8.11327H-7.09868V7.62463Z" fill="#239E3F"/>
<path fill-rule="evenodd" clip-rule="evenodd" d="M13.109 9.25989C13.5105 9.74368 14.7297 12.4288 12.3736 14.1898C11.2657 15.0219 11.9527 15.0606 11.9866 15.2058C13.7669 14.2575 14.3475 12.9803 14.333 11.8288C14.3185 10.6823 13.7137 9.67112 13.1138 9.25989H13.109Z" fill="#DA0000"/>
<path fill-rule="evenodd" clip-rule="evenodd" d="M13.3513 9.13416C13.7847 9.39964 14.1539 9.75801 14.4321 10.1834C14.7103 10.6088 14.8906 11.0907 14.96 11.5942C15.0294 12.0978 14.9862 12.6105 14.8335 13.0953C14.6808 13.5801 14.4224 14.025 14.077 14.3979C15.3542 14.1173 16.9797 10.3485 13.3416 9.13416H13.3513ZM10.6468 9.13416C10.2134 9.39964 9.84423 9.75801 9.56604 10.1834C9.28785 10.6088 9.10754 11.0907 9.03812 11.5942C8.96869 12.0978 9.01189 12.6105 9.16459 13.0953C9.31729 13.5801 9.57569 14.025 9.92114 14.3979C8.63908 14.1173 7.01353 10.3485 10.6468 9.13416Z" fill="#DA0000"/>
<path fill-rule="evenodd" clip-rule="evenodd" d="M10.8834 9.25989C10.4867 9.74368 9.26273 12.4288 11.6188 14.1898C12.7267 15.0219 12.0397 15.0606 12.0059 15.2058C10.2303 14.2575 9.64493 12.9803 9.65944 11.8288C9.67396 10.6823 10.2835 9.67112 10.8834 9.25989Z" fill="#DA0000"/>
<path fill-rule="evenodd" clip-rule="evenodd" d="M14.2556 14.959C13.4901 14.9886 12.7281 14.8395 12.0302 14.5236C12.1366 14.7316 12.2237 14.8623 12.3349 15.0751C12.9542 15.1283 13.8105 15.2009 14.2556 14.959ZM9.80469 14.959C10.5014 14.9687 11.3819 14.8623 12.0302 14.5236C11.9237 14.7316 11.8366 14.8623 11.7254 15.0751C11.1061 15.1283 10.2498 15.2009 9.80469 14.959ZM11.0819 8.45679C11.2271 8.82931 11.5947 8.88737 11.9914 8.66482C12.2817 8.83899 12.7268 8.84866 12.8816 8.4713C12.9977 9.40019 12.0205 9.18248 11.9866 9.00348C11.6238 9.35181 10.9464 9.14862 11.0819 8.45679Z" fill="#DA0000"/>
<path fill-rule="evenodd" clip-rule="evenodd" d="M12.0163 15.5444L12.384 15.1235L12.4324 9.49214L11.9969 9.1051L11.5615 9.47279L11.6486 15.1429L12.0163 15.5444Z" fill="#DA0000"/>
</g>
</g>
<defs>
<clipPath id="clip0_208_21957">
<rect width="24" height="24" rx="12" fill="white"/>
</clipPath>
</defs>
</svg>
