<svg width="24" height="24" viewBox="0 0 24 24" fill="none" xmlns="http://www.w3.org/2000/svg">
<g clip-path="url(#clip0_208_8832)">
<path d="M0 0H24V24H0V0Z" fill="#3F9C35"/>
<path d="M0 0H24V15.9984H0V0Z" fill="#ED2939"/>
<path d="M0 0H24V8.00156H0V0Z" fill="#00B9E4"/>
<path d="M11.1938 15.6C13.182 15.6 14.7938 13.9882 14.7938 12C14.7938 10.0118 13.182 8.40002 11.1938 8.40002C9.20552 8.40002 7.59375 10.0118 7.59375 12C7.59375 13.9882 9.20552 15.6 11.1938 15.6Z" fill="white"/>
<path d="M11.9951 15C13.652 15 14.9951 13.6569 14.9951 12C14.9951 10.3431 13.652 9 11.9951 9C10.3383 9 8.99512 10.3431 8.99512 12C8.99512 13.6569 10.3383 15 11.9951 15Z" fill="#ED2939"/>
<path d="M15.1969 9.99841L15.5766 11.0765L16.6078 10.5844L16.1203 11.6156L17.1984 12L16.1203 12.3844L16.6078 13.4156L15.5766 12.9234L15.1969 14.0015L14.8125 12.9234L13.7812 13.4156L14.2734 12.3844L13.1953 12L14.2734 11.6156L13.7812 10.5844L14.8125 11.0765L15.1969 9.99841Z" fill="white"/>
</g>
<defs>
<clipPath id="clip0_208_8832">
<rect width="24" height="24" rx="12" fill="white"/>
</clipPath>
</defs>
</svg>
