<svg width="24" height="24" viewBox="0 0 24 24" fill="none" xmlns="http://www.w3.org/2000/svg">
<g clip-path="url(#clip0_208_27676)">
<path d="M0 0H24V12H0V0Z" fill="black"/>
<path d="M0 12H24V24H0V12Z" fill="#007A3D"/>
<path d="M0 6.99854H24V16.997H0V6.99854Z" fill="white"/>
<path d="M0 0L12 12L0 24V0Z" fill="#C4111B"/>
<path d="M18.2809 15.2827C20.094 15.2827 21.5637 13.813 21.5637 11.9999C21.5637 10.1868 20.094 8.71704 18.2809 8.71704C16.4678 8.71704 14.998 10.1868 14.998 11.9999C14.998 13.813 16.4678 15.2827 18.2809 15.2827Z" fill="#C4111B"/>
<path d="M19.5114 15.2827C21.3244 15.2827 22.7942 13.813 22.7942 11.9999C22.7942 10.1868 21.3244 8.71704 19.5114 8.71704C17.6983 8.71704 16.2285 10.1868 16.2285 11.9999C16.2285 13.813 17.6983 15.2827 19.5114 15.2827Z" fill="white"/>
<path d="M17.4016 13.9851L18.7955 12.9853L20.1894 14.0043L19.6703 12.3605L21.0642 11.3511L19.3434 11.3415L18.8147 9.70728L18.2716 11.3367L16.5557 11.3319L17.9351 12.3509L17.4016 13.9851Z" fill="#C4111B"/>
</g>
<defs>
<clipPath id="clip0_208_27676">
<rect width="24" height="24" rx="12" fill="white"/>
</clipPath>
</defs>
</svg>
