<svg width="24" height="24" viewBox="0 0 24 24" fill="none" xmlns="http://www.w3.org/2000/svg">
<g clip-path="url(#clip0_208_20805)">
<path d="M0 0H24V24H0V0Z" fill="#CE1126"/>
<path d="M3.36133 3.36096H20.6395V20.6391H3.36133V3.36096Z" fill="#007A5E"/>
<path d="M3.36133 3.36096H20.6395L3.36133 20.6438H20.6395L3.36133 3.36096Z" fill="#FCD116"/>
<path d="M11.9953 14.8828C13.5849 14.8828 14.8734 13.5943 14.8734 12.0047C14.8734 10.4152 13.5849 9.12659 11.9953 9.12659C10.4058 9.12659 9.11719 10.4152 9.11719 12.0047C9.11719 13.5943 10.4058 14.8828 11.9953 14.8828Z" fill="#CE1126"/>
<path d="M12.001 9.35999L11.1852 11.8708L12.4406 12.2787" fill="#FCD116"/>
<path d="M12.001 9.35999L12.8168 11.8708L11.5614 12.2787" fill="#FCD116"/>
<path d="M14.5107 11.1842H11.8707V12.5042" fill="#FCD116"/>
<path d="M14.5107 11.1842L12.3749 12.736L11.5991 11.6681" fill="#FCD116"/>
<path d="M13.5518 14.1357L12.736 11.625L11.4806 12.0329" fill="#FCD116"/>
<path d="M13.5518 14.1357L11.416 12.584L12.1918 11.5161" fill="#FCD116"/>
<path d="M10.4482 14.1357L12.584 12.584L11.8082 11.5161" fill="#FCD116"/>
<path d="M10.4482 14.1357L11.264 11.625L12.5194 12.0329" fill="#FCD116"/>
<path d="M9.48926 11.1842L11.6251 12.736L12.4009 11.6681" fill="#FCD116"/>
<path d="M9.48926 11.1842H12.1293V12.5042" fill="#FCD116"/>
<path d="M12 0.122803L11.5179 1.60645L12.2598 1.84748" fill="#FCD116"/>
<path d="M12 0.122803L12.4821 1.60645L11.7402 1.84748" fill="#FCD116"/>
<path d="M13.4844 1.20081H11.9244V1.98081" fill="#FCD116"/>
<path d="M13.4844 1.20081L12.2223 2.11775L11.7638 1.48672" fill="#FCD116"/>
<path d="M12.916 2.94482L12.4339 1.46118L11.6921 1.70221" fill="#FCD116"/>
<path d="M12.916 2.94482L11.6539 2.02788L12.1124 1.39685" fill="#FCD116"/>
<path d="M11.083 2.94482L12.3451 2.02788L11.8866 1.39685" fill="#FCD116"/>
<path d="M11.083 2.94482L11.5651 1.46118L12.3069 1.70221" fill="#FCD116"/>
<path d="M10.5166 1.20068L11.7787 2.11763L12.2371 1.4866" fill="#FCD116"/>
<path d="M10.5166 1.20068H12.0766V1.98068" fill="#FCD116"/>
<path d="M4.67773 12.0375C5.03867 12.7078 5.73711 13.4343 6.35117 13.6921C6.36055 13.0125 6.1168 12.1359 5.78867 11.4421L4.67773 12.0375Z" fill="#CE1126"/>
<path d="M4.06916 9.7312C4.58947 10.8234 2.70978 13.4203 5.84103 14.0296C5.42072 13.4162 5.22987 12.6744 5.30197 11.9343C5.99447 12.2582 6.56347 12.7976 6.92385 13.4718C7.74416 10.5 4.82385 10.6828 4.06447 9.7312H4.06916Z" fill="#FCD116"/>
<path d="M12 20.8462L11.5179 22.3298L12.2598 22.5709" fill="#FCD116"/>
<path d="M12 20.8462L12.4821 22.3298L11.7402 22.5709" fill="#FCD116"/>
<path d="M13.4844 21.9242H11.9244V22.7042" fill="#FCD116"/>
<path d="M13.4844 21.9242L12.2223 22.8411L11.7638 22.2101" fill="#FCD116"/>
<path d="M12.916 23.6682L12.4339 22.1846L11.6921 22.4256" fill="#FCD116"/>
<path d="M12.916 23.6682L11.6539 22.7513L12.1124 22.1202" fill="#FCD116"/>
<path d="M11.083 23.6682L12.3451 22.7513L11.8866 22.1202" fill="#FCD116"/>
<path d="M11.083 23.6682L11.5651 22.1846L12.3069 22.4256" fill="#FCD116"/>
<path d="M10.5166 21.9241L11.7787 22.841L12.2371 22.21" fill="#FCD116"/>
<path d="M10.5166 21.9241H12.0766V22.7041" fill="#FCD116"/>
</g>
<defs>
<clipPath id="clip0_208_20805">
<rect width="24" height="24" rx="12" fill="white"/>
</clipPath>
</defs>
</svg>
