<svg width="24" height="24" viewBox="0 0 24 24" fill="none" xmlns="http://www.w3.org/2000/svg">
<g clip-path="url(#clip0_208_11808)">
<path d="M0 0H24V24H0V0Z" fill="#008000"/>
<path d="M12.5719 14.6063C14.1562 14.6063 15.4406 13.3219 15.4406 11.7375C15.4406 10.1532 14.1562 8.86877 12.5719 8.86877C10.9875 8.86877 9.70312 10.1532 9.70312 11.7375C9.70312 13.3219 10.9875 14.6063 12.5719 14.6063Z" fill="#FFE000"/>
<path d="M13.467 14.1C14.7718 14.1 15.8295 13.0423 15.8295 11.7375C15.8295 10.4327 14.7718 9.375 13.467 9.375C12.1622 9.375 11.1045 10.4327 11.1045 11.7375C11.1045 13.0423 12.1622 14.1 13.467 14.1Z" fill="#008000"/>
<path d="M3.525 11.8781C5.18703 11.8781 6.53437 10.5308 6.53437 8.86875C6.53437 7.20672 5.18703 5.85938 3.525 5.85938C1.86297 5.85938 0.515625 7.20672 0.515625 8.86875C0.515625 10.5308 1.86297 11.8781 3.525 11.8781Z" fill="#FFE000"/>
<path d="M3.31445 11.1375H4.06445C4.06445 11.1375 4.10195 11.0672 4.05977 11.0344C4.01758 10.9969 3.8582 10.9875 3.90039 10.8704C3.99414 10.6172 4.00352 10.6969 4.05977 10.1016C4.11602 9.5063 4.13945 8.57349 4.13945 8.57349H4.03164C4.03164 8.57349 4.05508 8.86411 3.98945 9.2438C3.92852 9.6188 3.90977 9.65161 3.83945 9.94692C3.77383 10.2329 3.75977 10.2563 3.69883 10.4297C3.63789 10.5985 3.62852 10.6032 3.53477 10.7579L3.41758 10.9547C3.38945 11.0016 3.35664 10.9875 3.33789 11.0204C3.31914 11.0579 3.31445 11.1375 3.31445 11.1375Z" fill="#802000" stroke="#7B3100" stroke-width="0.175"/>
<path d="M3.89102 6.67974C3.89102 6.79692 3.88164 6.94692 3.83477 7.07349C3.78789 7.21411 3.73164 7.35474 3.73633 7.49536C3.65664 7.52817 3.57695 7.3313 3.50195 7.44849C3.5582 7.60317 3.68945 7.72974 3.77852 7.87036C3.79258 7.91724 3.91914 8.03442 3.84883 8.05786C3.66133 7.99692 3.61445 7.75786 3.49727 7.61255C3.43065 7.49201 3.33476 7.39017 3.21843 7.31645C3.1021 7.24272 2.96908 7.19946 2.83164 7.19067C2.72383 7.19067 2.38164 7.16255 2.4707 7.34067C2.60195 7.43442 2.76602 7.49067 2.89258 7.58911C2.99102 7.59849 3.16445 7.75786 3.15508 7.82349C2.98633 7.75317 2.90664 7.6688 2.72383 7.59849C2.47539 7.50474 2.1332 7.5563 1.99727 7.80474C1.96914 7.87036 1.93164 8.05317 2.01133 8.07192C2.10508 7.92661 2.2457 7.76255 2.44258 7.80474C2.59727 7.8188 2.26445 8.10005 2.3957 8.03911C2.4332 8.02505 2.52695 7.96411 2.58789 7.95942C2.65352 7.95005 2.69102 7.99692 2.73789 8.0063C2.83633 8.02036 2.86445 8.05786 2.85508 8.0813C2.8457 8.10942 2.8082 8.08599 2.71445 8.1188C2.66758 8.13286 2.63945 8.17974 2.57852 8.19849C2.52227 8.21724 2.40039 8.21724 2.3582 8.19849C2.19883 8.13286 1.94102 8.14692 1.88945 8.33911C1.88945 8.43286 1.81445 8.33442 1.78164 8.37192C1.75352 8.46567 1.74414 8.55942 1.60352 8.55474C1.51914 8.6438 1.43477 8.73755 1.32227 8.79849C1.38789 8.9438 1.64102 8.65317 1.62695 8.77505C1.51914 8.92505 1.6832 8.95786 1.7582 8.84067C1.88008 8.70942 2.03477 8.55474 2.21758 8.68599C2.30664 8.76567 2.3582 8.63911 2.41914 8.64849C2.46133 8.75161 2.51289 8.64849 2.55977 8.62505C2.63008 8.61567 2.60664 8.7188 2.70039 8.65317C2.87383 8.53599 3.08945 8.63442 3.26289 8.52192C3.44102 8.43755 3.28633 8.58755 3.23477 8.64849C3.15508 8.80317 3.22539 9.00942 3.04727 9.10317C2.98164 9.29067 3.13164 9.53442 2.97695 9.67036C2.95352 9.75942 3.17852 9.75005 3.23945 9.78286C3.35195 9.78755 3.23945 9.53442 3.34258 9.50161C3.48789 9.59067 3.4832 9.33755 3.45508 9.25786C3.46914 9.08442 3.47852 8.89224 3.56289 8.72817C3.65664 8.53599 3.7457 8.80786 3.63789 8.88755C3.58164 9.06567 3.49727 9.29536 3.62852 9.45942C3.6707 9.4688 3.69883 9.56255 3.75039 9.59067C3.79727 9.62349 3.86758 9.58599 3.88164 9.49692C3.94727 9.2438 3.91445 8.96255 4.0082 8.71411C4.06914 8.63442 4.16289 8.70005 4.20039 8.77036C4.33164 8.92036 4.4207 9.10786 4.57539 9.23442C4.72217 9.29485 4.84208 9.40643 4.91289 9.54849C4.91289 9.66099 5.23164 9.67505 5.13789 9.54849C5.04414 9.4313 5.10508 9.30474 5.19883 9.22505C5.2457 9.23911 5.23164 9.15005 5.19883 9.18286C5.1332 9.1688 5.12852 9.05161 5.21289 9.10786C5.36289 9.15474 5.20352 9.00005 5.15195 8.99536C5.02539 8.92036 4.88477 8.8313 4.82383 8.69536C4.9832 8.69536 5.15195 8.78911 5.31602 8.73286C5.45195 8.66255 5.5832 8.73755 5.63008 8.85474C5.7332 8.83599 5.69102 8.73755 5.63008 8.70005C5.70508 8.67192 5.75664 8.6063 5.66758 8.55005C5.6207 8.48442 5.7332 8.3813 5.59258 8.38599C5.59727 8.27817 5.55508 8.18442 5.44258 8.14692C5.32539 8.04849 4.98789 8.28755 4.99727 8.06724C4.96445 7.95005 5.13789 8.05317 5.18477 7.99224C5.23164 7.86567 4.95039 7.87974 5.04414 7.7813C5.10039 7.7438 5.39102 7.68755 5.16602 7.64067C5.11565 7.65544 5.06263 7.6589 5.01077 7.6508C4.95891 7.6427 4.90948 7.62323 4.86602 7.5938C4.78633 7.73442 4.55195 7.5188 4.59414 7.76255C4.56133 7.8563 4.35977 8.09067 4.29883 7.90786C4.3457 7.76724 4.59414 7.72036 4.51445 7.53286C4.50508 7.41099 4.40664 7.55161 4.35977 7.54224C4.33633 7.46724 4.43008 7.37817 4.50039 7.35942C4.62695 7.46255 4.63164 7.23286 4.7582 7.25161C4.85195 7.23286 4.72539 7.19536 4.70195 7.17661C4.72539 7.11099 4.86602 7.07349 4.73008 7.01724C4.6082 6.92349 4.51914 7.11099 4.4207 7.11567C4.32695 7.00786 4.50508 6.9563 4.55664 6.90005C4.55664 6.85317 4.44883 6.88599 4.48164 6.85317C4.50977 6.79692 4.70664 6.79224 4.61289 6.71724C4.47695 6.67036 4.30352 6.68442 4.17227 6.74067C4.08789 6.7688 4.06445 6.9563 3.99414 6.94692C3.95664 6.86724 4.00352 6.70317 3.89102 6.67505V6.67974ZM4.5332 8.50317C4.64102 8.48442 4.5332 8.65786 4.48633 8.65786C4.49102 8.59692 4.33633 8.60161 4.43477 8.54536C4.46459 8.52412 4.49791 8.50825 4.5332 8.49849V8.50317Z" fill="#008000"/>
</g>
<defs>
<clipPath id="clip0_208_11808">
<rect width="24" height="24" rx="12" fill="white"/>
</clipPath>
</defs>
</svg>
