<svg width="24" height="24" viewBox="0 0 24 24" fill="none" xmlns="http://www.w3.org/2000/svg">
<g clip-path="url(#clip0_208_10163)">
<path d="M12 0H24V24H12V0Z" fill="white"/>
<path d="M0 0H12V24H0V0Z" fill="#006233"/>
<path d="M17.203 9C16.5426 7.85615 15.5232 6.96218 14.3029 6.45673C13.0827 5.95127 11.7297 5.8626 10.4539 6.20445C9.17812 6.5463 8.05077 7.29957 7.24672 8.34743C6.44266 9.3953 6.00684 10.6792 6.00684 12C6.00684 13.3208 6.44266 14.6047 7.24672 15.6526C8.05077 16.7004 9.17812 17.4537 10.4539 17.7956C11.7297 18.1374 13.0827 18.0487 14.3029 17.5433C15.5232 17.0378 16.5426 16.1439 17.203 15C16.5814 15.7763 15.7341 16.3404 14.7781 16.6143C13.8221 16.8882 12.8046 16.8585 11.8663 16.5291C10.9279 16.1997 10.115 15.5871 9.53996 14.7757C8.96487 13.9644 8.65599 12.9945 8.65599 12C8.65599 11.0055 8.96487 10.0356 9.53996 9.22427C10.115 8.41294 10.9279 7.80026 11.8663 7.4709C12.8046 7.14154 13.8221 7.11176 14.7781 7.38568C15.7341 7.6596 16.5814 8.22369 17.203 9ZM17.3999 12L11.9999 10.2375L15.3608 14.8406V9.15938L11.9999 13.7625L17.3999 12Z" fill="#D21034"/>
</g>
<defs>
<clipPath id="clip0_208_10163">
<rect width="24" height="24" rx="12" fill="white"/>
</clipPath>
</defs>
</svg>
