<svg width="24" height="24" viewBox="0 0 24 24" fill="none" xmlns="http://www.w3.org/2000/svg">
<g clip-path="url(#clip0_208_22404)">
<mask id="mask0_208_22404" style="mask-type:luminance" maskUnits="userSpaceOnUse" x="0" y="-1" width="24" height="25">
<path d="M0 -0.000610352H24V23.9994H0V-0.000610352Z" fill="white"/>
</mask>
<g mask="url(#mask0_208_22404)">
<path d="M-12 -0.000610352H36V23.9994H-12V-0.000610352Z" fill="#239E46"/>
<path d="M-12 -0.000610352H36V17.9994H-12V-0.000610352Z" fill="black"/>
<path d="M-12 -0.000610352H36V5.99939H-12V-0.000610352Z" fill="#E70013"/>
<path d="M14.122 9.87779C13.7323 9.59968 13.2735 9.43429 12.7959 9.39977C12.3184 9.36526 11.8405 9.46295 11.4149 9.68213C10.9892 9.90132 10.6321 10.2335 10.3828 10.6423C10.1335 11.0511 10.0016 11.5206 10.0016 11.9994C10.0016 12.4782 10.1335 12.9477 10.3828 13.3565C10.6321 13.7653 10.9892 14.0975 11.4149 14.3166C11.8405 14.5358 12.3184 14.6335 12.7959 14.599C13.2735 14.5645 13.7323 14.3991 14.122 14.121C13.7024 14.5405 13.1679 14.8261 12.586 14.9418C12.004 15.0575 11.4009 14.998 10.8527 14.771C10.3046 14.5439 9.83612 14.1594 9.50651 13.666C9.1769 13.1727 9.00098 12.5927 9.00098 11.9994C9.00098 11.4061 9.1769 10.8261 9.50651 10.3328C9.83612 9.83943 10.3046 9.45491 10.8527 9.22783C11.4009 9.00074 12.004 8.94129 12.586 9.05698C13.1679 9.17267 13.7024 9.45831 14.122 9.87779ZM13.4596 11.9994L17.4964 10.689L15.0004 14.121V9.87779L17.4964 13.3098L13.4596 11.9994Z" fill="white"/>
</g>
</g>
<defs>
<clipPath id="clip0_208_22404">
<rect width="24" height="24" rx="12" fill="white"/>
</clipPath>
</defs>
</svg>
