<svg width="24" height="24" viewBox="0 0 24 24" fill="none" xmlns="http://www.w3.org/2000/svg">
<g clip-path="url(#clip0_208_27904)">
<path d="M0 0H24V24H0V0Z" fill="#F7E017"/>
<path d="M0 1.6687V12.3281L24 17.3296V11.6578L0 1.6687Z" fill="white"/>
<path d="M0 7.3313V12.3329L24 22.3313V17.3344L0 7.3313Z" fill="black"/>
<path d="M11.1904 18.99C10.6053 18.9254 10.0424 18.7294 9.54374 18.4166C9.46374 18.3633 9.3904 18.3166 9.37707 18.3166C9.36374 18.3166 9.35707 18.38 9.35707 18.4533C9.35707 18.6666 9.2704 18.7733 9.05707 18.83C8.8504 18.8833 8.53707 18.7766 8.28374 18.5633C8.04352 18.3578 7.76312 18.2045 7.46041 18.1133C7.14507 18.0382 6.81317 18.0809 6.52707 18.2333C6.4988 18.2532 6.46719 18.2679 6.43374 18.2766C6.39708 18.2766 6.40041 18.0466 6.44041 17.9766C6.49041 17.8766 6.61041 17.7833 6.75374 17.7333C6.82707 17.7066 6.88707 17.6733 6.88707 17.6566C6.88707 17.6433 6.86041 17.59 6.83041 17.5366C6.73374 17.3666 6.77374 17.2033 6.94374 17.0733C7.11707 16.94 7.41041 16.92 7.66707 17.0166C7.71044 17.0351 7.75498 17.0507 7.80041 17.0633C7.83374 17.0633 7.81374 17.0133 7.72041 16.8766C7.61374 16.72 7.59041 16.6433 7.60374 16.4533C7.6129 16.337 7.66325 16.2278 7.74574 16.1453C7.82823 16.0628 7.93744 16.0125 8.05374 16.0033C8.24707 15.99 8.36707 16.0566 8.65374 16.3266C9.42366 17.1016 10.4349 17.5908 11.5204 17.7133C11.7971 17.7466 12.3471 17.73 12.6704 17.68C13.6947 17.5091 14.6444 17.0354 15.3971 16.32C15.6104 16.12 15.7104 16.0666 15.8871 16.0666C16.0371 16.0666 16.1437 16.1133 16.2537 16.2333C16.3537 16.3433 16.3871 16.4466 16.3737 16.6166C16.3671 16.7233 16.3504 16.7733 16.2871 16.88C16.1937 17.03 16.2104 17.0466 16.3937 16.9733C16.6471 16.8733 16.9571 16.92 17.1237 17.08C17.2704 17.22 17.2837 17.36 17.1704 17.5466C17.1271 17.6166 17.0937 17.68 17.0937 17.6933C17.0937 17.7133 17.1271 17.72 17.2771 17.7466C17.4771 17.78 17.5937 17.9266 17.5937 18.1533C17.5937 18.22 17.5837 18.2766 17.5737 18.2766C17.5637 18.2766 17.4871 18.2466 17.4071 18.2133C17.1737 18.1166 17.0404 18.0933 16.7671 18.0966C16.5604 18.0966 16.4904 18.1066 16.3471 18.1533C16.1071 18.2367 15.8862 18.3671 15.6971 18.5366C15.4837 18.7266 15.3504 18.7866 15.1437 18.7833C14.9504 18.7833 14.8204 18.7266 14.7504 18.6166C14.7137 18.5566 14.7071 18.5233 14.7171 18.39C14.7237 18.3033 14.7204 18.2333 14.7171 18.2333C14.7071 18.2333 14.6337 18.28 14.5504 18.3366C14.3601 18.4731 14.1528 18.584 13.9337 18.6666C13.0564 18.9844 12.1175 19.0951 11.1904 18.99Z" fill="#CF1126"/>
<path d="M11.5438 17.5066C10.899 17.4473 10.2744 17.251 9.71157 16.9308C9.14878 16.6106 8.66087 16.1739 8.2805 15.6499C7.46717 14.5432 7.21384 13.0799 7.4605 11.7432C7.59384 11.1332 7.8605 10.5232 8.3105 10.0899C7.93952 10.8598 7.83741 11.7318 8.0205 12.5666C8.3205 14.2266 9.7205 15.6299 11.3972 15.8732C12.0638 16.0632 12.7472 15.8599 13.3805 15.6566C14.7805 15.1632 15.8472 13.8366 15.9738 12.3532C16.0838 11.5532 15.9638 10.7166 15.6005 9.98657C15.8072 10.0966 16.0672 10.5266 16.2205 10.8132C16.7538 11.8466 16.7772 13.0832 16.4638 14.1866C16.0372 15.5899 14.9638 16.8199 13.5472 17.2666C12.9008 17.4685 12.2229 17.5498 11.5472 17.5066H11.5438Z" fill="#CF1126"/>
<path d="M5.06628 15.6633C4.98294 15.6499 4.88961 15.7333 4.92294 15.8199C4.98294 15.9066 5.08961 15.9533 5.18294 15.9933C5.42886 16.0893 5.69283 16.1303 5.95628 16.1133C6.14956 16.1133 6.34135 16.0795 6.52294 16.0133C6.62294 15.9799 6.74961 15.9466 6.78961 15.8333C6.83294 15.7633 6.75627 15.6899 6.68627 15.7033C6.58627 15.7266 6.48627 15.7699 6.38627 15.7999C6.16647 15.8622 5.93733 15.8848 5.70961 15.8666C5.54388 15.8425 5.38232 15.7954 5.22961 15.7266C5.17628 15.7033 5.12628 15.6699 5.06628 15.6633Z" fill="#CF1126"/>
<path d="M5.15988 15.3166C5.07655 15.3033 5.00321 15.4033 5.03655 15.4833C5.10321 15.5766 5.21321 15.6266 5.31655 15.67C5.49682 15.7407 5.6897 15.7736 5.88321 15.7666H5.93321C6.09779 15.7673 6.26089 15.7356 6.41321 15.6733C6.50321 15.6366 6.61655 15.6 6.65655 15.5C6.68655 15.4433 6.66321 15.3633 6.58988 15.3566C6.52988 15.3566 6.47321 15.3966 6.41321 15.4133C6.19607 15.503 5.96066 15.5395 5.72655 15.52C5.57988 15.5033 5.44321 15.45 5.30988 15.3866C5.25988 15.3633 5.21655 15.3266 5.15988 15.32V15.3166Z" fill="#CF1126"/>
<path d="M5.27719 14.9867C5.20386 14.9767 5.15386 15.06 5.16719 15.1233C5.17719 15.1833 5.22719 15.2233 5.27053 15.2567C5.45202 15.3824 5.67002 15.4445 5.89053 15.4333H5.94386C6.08247 15.4323 6.21911 15.4004 6.34386 15.34C6.42719 15.3067 6.52386 15.2633 6.55386 15.1667C6.56719 15.1233 6.57386 15.06 6.52386 15.0333C6.47053 15.0067 6.42053 15.05 6.37386 15.0667C6.21441 15.1504 6.0373 15.195 5.85719 15.1967C5.7026 15.1905 5.5522 15.1446 5.42053 15.0633C5.37053 15.04 5.33053 14.9967 5.27719 14.9867Z" fill="#CF1126"/>
<path d="M4.05005 10.09C3.94338 10.2 4.02672 10.4 4.01672 10.54C4.07672 10.98 4.14672 11.4233 4.31005 11.84C4.51005 12.24 4.93672 12.4566 5.19338 12.8133C5.28671 12.9833 5.25338 13.19 5.27338 13.38C5.28672 13.89 5.28338 14.4033 5.27338 14.9133C5.50672 15.0333 5.75671 15.1466 6.02338 15.1033C6.18005 15.0666 6.47338 15.0433 6.50671 14.8866L6.47338 12.2366C6.38338 11.9666 6.10671 11.8266 5.90338 11.6533C5.73343 11.4855 5.57528 11.3062 5.43005 11.1166C5.34338 10.9666 5.00005 10.9166 5.12338 11.17C5.19672 11.3933 5.38005 11.5566 5.42671 11.79C5.43671 11.92 5.59338 12.1566 5.46005 12.23C5.37793 12.0851 5.25348 11.9688 5.10338 11.8966C4.95671 11.7866 4.71338 11.74 4.66005 11.5466C4.61203 11.2716 4.48456 11.0167 4.29338 10.8133C4.34338 10.5666 4.29338 10.2566 4.08005 10.0966L4.05005 10.09Z" fill="#CF1126"/>
<path d="M4.37981 10.14C4.27981 10.1567 4.28648 10.28 4.32981 10.3467C4.37922 10.4902 4.39183 10.6437 4.36648 10.7933C4.54927 10.9969 4.67164 11.2474 4.71981 11.5167C4.71981 11.6167 4.82648 11.65 4.89648 11.7C5.05981 11.8033 5.23981 11.88 5.38648 12.01C5.41648 12.0433 5.43981 12.0767 5.41981 12.01C5.39648 11.9233 5.38648 11.83 5.31981 11.7667C5.22648 11.6667 5.11315 11.58 4.97981 11.5533C4.96981 11.4133 4.90315 11.2867 4.84315 11.1667C4.77648 11.05 4.70648 10.9267 4.59315 10.8533C4.59315 10.65 4.59315 10.4367 4.50648 10.2467C4.47982 10.2 4.43981 10.1433 4.37981 10.14Z" fill="#CF1126"/>
<path d="M4.65704 10.22C4.59037 10.24 4.6037 10.3266 4.6237 10.3766C4.65282 10.5214 4.66401 10.6692 4.65704 10.8166C4.78704 10.9166 4.8637 11.0633 4.93704 11.2033C4.9837 11.2966 5.0237 11.3966 5.04037 11.5C5.1437 11.5333 5.2337 11.6 5.3137 11.6666C5.28037 11.5733 5.2137 11.5 5.1637 11.41C5.1137 11.32 5.0637 11.2233 5.04037 11.12C4.94037 11.0166 4.88704 10.8666 4.90704 10.72C4.9137 10.5633 4.8637 10.4 4.75704 10.28C4.73037 10.2533 4.69704 10.2233 4.65704 10.22Z" fill="#CF1126"/>
<path d="M4.97332 10.2666C4.93332 10.2733 4.91332 10.3066 4.89332 10.3366C4.88332 10.3666 4.91998 10.3966 4.92665 10.43C4.9702 10.54 4.98622 10.659 4.97332 10.7766C4.96999 10.86 4.99999 10.9433 5.03999 11.01C5.04747 10.9843 5.06269 10.9616 5.08357 10.9449C5.10445 10.9282 5.12997 10.9183 5.15665 10.9166C5.17332 10.9166 5.20332 10.9233 5.18999 10.8933C5.17665 10.7333 5.15332 10.5733 5.09665 10.4266C5.08023 10.3689 5.04789 10.3169 5.00332 10.2766C4.99665 10.27 4.98332 10.2633 4.96999 10.2666H4.97332Z" fill="#CF1126"/>
<path d="M18.9337 15.6633C19.0171 15.6499 19.1104 15.7333 19.0771 15.8199C19.0171 15.9066 18.9104 15.9533 18.8171 15.9933C18.5711 16.0893 18.3072 16.1303 18.0437 16.1133C17.8504 16.1133 17.6586 16.0795 17.4771 16.0133C17.3771 15.9799 17.2504 15.9466 17.2104 15.8333C17.1671 15.7633 17.2437 15.6899 17.3137 15.7033C17.4137 15.7266 17.5137 15.7699 17.6137 15.7999C17.8335 15.8622 18.0627 15.8848 18.2904 15.8666C18.4561 15.8425 18.6177 15.7954 18.7704 15.7266C18.8237 15.7033 18.8737 15.6699 18.9337 15.6633Z" fill="#CF1126"/>
<path d="M18.8401 15.3166C18.9235 15.3033 18.9968 15.4033 18.9635 15.4833C18.8968 15.5766 18.7868 15.6266 18.6835 15.67C18.5032 15.7407 18.3103 15.7736 18.1168 15.7666H18.0668C17.9022 15.7673 17.7391 15.7356 17.5868 15.6733C17.4968 15.6366 17.3835 15.6 17.3435 15.5C17.3135 15.4433 17.3368 15.3633 17.4101 15.3566C17.4701 15.3566 17.5268 15.3966 17.5868 15.4133C17.8039 15.503 18.0393 15.5395 18.2735 15.52C18.4201 15.5033 18.5568 15.45 18.6901 15.3866C18.7401 15.3633 18.7835 15.3266 18.8401 15.32V15.3166Z" fill="#CF1126"/>
<path d="M18.7228 14.9867C18.7961 14.9767 18.8461 15.06 18.8328 15.1233C18.8228 15.1833 18.7728 15.2233 18.7295 15.2567C18.548 15.3824 18.33 15.4445 18.1095 15.4333H18.0561C17.9175 15.4323 17.7809 15.4004 17.6561 15.34C17.5728 15.3067 17.4761 15.2633 17.4461 15.1667C17.4328 15.1233 17.4261 15.06 17.4761 15.0333C17.5295 15.0067 17.5795 15.05 17.6261 15.0667C17.7856 15.1504 17.9627 15.195 18.1428 15.1967C18.2974 15.1905 18.4478 15.1446 18.5795 15.0633C18.6295 15.04 18.6695 14.9967 18.7228 14.9867Z" fill="#CF1126"/>
<path d="M19.9499 10.09C20.0566 10.2 19.9733 10.4 19.9833 10.54C19.9233 10.98 19.8533 11.4233 19.69 11.84C19.49 12.24 19.0633 12.4566 18.8066 12.8133C18.7133 12.9833 18.7466 13.19 18.7266 13.38C18.7133 13.89 18.7166 14.4033 18.7266 14.9133C18.4933 15.0333 18.2433 15.1466 17.9766 15.1033C17.82 15.0666 17.5266 15.0433 17.4933 14.8866L17.5266 12.2366C17.6166 11.9666 17.8933 11.8266 18.0966 11.6533C18.2666 11.4855 18.4247 11.3062 18.57 11.1166C18.6566 10.9666 19 10.9166 18.8766 11.17C18.8033 11.3933 18.62 11.5566 18.5733 11.79C18.5633 11.92 18.4066 12.1566 18.54 12.23C18.6221 12.0851 18.7465 11.9688 18.8966 11.8966C19.0433 11.7866 19.2866 11.74 19.34 11.5466C19.388 11.2716 19.5154 11.0167 19.7066 10.8133C19.6566 10.5666 19.7066 10.2566 19.9199 10.0966L19.9499 10.09Z" fill="#CF1126"/>
<path d="M19.6202 10.14C19.7202 10.1567 19.7135 10.28 19.6702 10.3467C19.6208 10.4902 19.6082 10.6437 19.6335 10.7933C19.4507 10.9969 19.3284 11.2474 19.2802 11.5167C19.2802 11.6167 19.1735 11.65 19.1035 11.7C18.9402 11.8033 18.7602 11.88 18.6135 12.01C18.5835 12.0433 18.5602 12.0767 18.5802 12.01C18.6035 11.9233 18.6135 11.83 18.6802 11.7667C18.7735 11.6667 18.8869 11.58 19.0202 11.5533C19.0302 11.4133 19.0969 11.2867 19.1569 11.1667C19.2235 11.05 19.2935 10.9267 19.4069 10.8533C19.4069 10.65 19.4069 10.4367 19.4935 10.2467C19.5202 10.2 19.5602 10.1433 19.6202 10.14Z" fill="#CF1126"/>
<path d="M19.343 10.22C19.4096 10.24 19.3963 10.3266 19.3763 10.3766C19.3472 10.5214 19.336 10.6692 19.343 10.8166C19.213 10.9166 19.1363 11.0633 19.063 11.2033C19.0163 11.2966 18.9763 11.3966 18.9596 11.5C18.8563 11.5333 18.7663 11.6 18.6863 11.6666C18.7196 11.5733 18.7863 11.5 18.8363 11.41C18.8863 11.32 18.9363 11.2233 18.9596 11.12C19.0596 11.0166 19.113 10.8666 19.093 10.72C19.0863 10.5633 19.1363 10.4 19.243 10.28C19.2696 10.2533 19.303 10.2233 19.343 10.22Z" fill="#CF1126"/>
<path d="M19.0267 10.2666C19.0667 10.2733 19.0867 10.3066 19.1067 10.3366C19.1167 10.3666 19.08 10.3966 19.0733 10.43C19.0298 10.54 19.0138 10.659 19.0267 10.7766C19.03 10.86 19 10.9433 18.96 11.01C18.9525 10.9843 18.9373 10.9616 18.9164 10.9449C18.8956 10.9282 18.87 10.9183 18.8433 10.9166C18.8267 10.9166 18.7967 10.9233 18.81 10.8933C18.8233 10.7333 18.8467 10.5733 18.9033 10.4266C18.9198 10.3689 18.9521 10.3169 18.9967 10.2766C19.0033 10.27 19.0167 10.2633 19.03 10.2666H19.0267Z" fill="#CF1126"/>
<path d="M11.857 15.8666C11.6319 15.8423 11.4184 15.754 11.2418 15.6123C11.0652 15.4705 10.9328 15.2812 10.8604 15.0666C10.8704 14.9933 10.9604 15.1066 11.0037 15.1166C11.085 15.1651 11.1761 15.1947 11.2704 15.2033C11.387 15.2533 11.4604 15.37 11.5737 15.4333C11.627 15.4733 11.8137 15.5533 11.777 15.4233C11.7337 15.3566 11.7037 15.27 11.7437 15.19C11.8037 15.0533 11.9004 14.9333 12.0004 14.8166C12.0704 14.7933 12.1203 14.9366 12.1703 14.9833C12.2403 15.0933 12.327 15.2266 12.2837 15.36C12.2437 15.41 12.217 15.56 12.327 15.5133C12.4603 15.4533 12.5704 15.3533 12.6804 15.26C12.7803 15.1933 12.9037 15.19 13.0037 15.1266C13.0537 15.1166 13.1503 15.0233 13.1703 15.0733C13.1106 15.2223 13.0274 15.3607 12.9237 15.4833C12.7634 15.6736 12.5418 15.8021 12.297 15.8466C12.1504 15.8733 12.0037 15.88 11.857 15.8666Z" fill="#CF1126"/>
<path d="M12.3837 15.34C12.3937 15.25 12.3737 15.16 12.3271 15.0733C12.2571 14.9333 12.1604 14.8066 12.0604 14.6766C11.9671 14.6233 11.9171 14.8 11.8571 14.85C11.7604 14.9933 11.6404 15.14 11.6337 15.3166C11.5804 15.4 11.4804 15.25 11.4371 15.2C11.3482 15.0858 11.3012 14.9446 11.3037 14.8C11.2957 14.5652 11.3365 14.3314 11.4237 14.1133C11.4904 13.9266 11.5937 13.7466 11.5837 13.5466C11.5904 13.39 11.5604 13.2233 11.4371 13.12C11.3171 13.0266 11.5137 13.0066 11.5737 13.0533C11.6804 13.0633 11.7371 13.2366 11.8337 13.1933C11.8704 13.1033 11.8804 12.9933 11.9604 12.9233C12.0371 12.8167 12.1171 12.9666 12.1437 13.04C12.2004 13.1 12.1437 13.2566 12.2304 13.26C12.3371 13.1833 12.4137 13.06 12.5504 13.03C12.6071 12.9966 12.7004 13.03 12.6271 13.09C12.5271 13.1866 12.4404 13.3033 12.4204 13.4466C12.3904 13.6233 12.4337 13.8033 12.5104 13.96C12.6604 14.2733 12.7771 14.6266 12.7004 14.9766C12.6671 15.13 12.5604 15.2633 12.4337 15.3533C12.4171 15.3633 12.3904 15.3633 12.3837 15.34Z" fill="#CF1126"/>
<path d="M12.2235 12.9867C12.1786 12.8965 12.115 12.8169 12.0368 12.7533C11.9568 12.7533 11.9068 12.8533 11.8535 12.9067C11.8168 12.9767 11.7702 13.0933 11.6768 13.0033C11.5268 12.9167 11.5035 12.7267 11.5035 12.57C11.4935 12.3167 11.5968 12.08 11.6868 11.85C11.7435 11.7067 11.7302 11.5433 11.6935 11.3967C11.6502 11.23 11.5135 11.11 11.4102 10.9767C11.4168 10.9267 11.5502 10.9533 11.6002 10.9633C11.7135 10.9933 11.7802 11.09 11.8635 11.1633C11.9235 11.1433 11.8968 11.0233 11.9268 10.9667C11.9268 10.8867 12.0335 10.7833 12.0768 10.8967C12.1435 10.97 12.0768 11.1133 12.1602 11.1567C12.2402 11.1267 12.2802 11.04 12.3535 11C12.3918 10.9752 12.4358 10.9607 12.4813 10.9578C12.5268 10.9548 12.5723 10.9636 12.6135 10.9833C12.6435 11.0567 12.5268 11.1167 12.4935 11.1833C12.4269 11.2664 12.3807 11.364 12.3587 11.4682C12.3367 11.5725 12.3395 11.6804 12.3668 11.7833C12.4135 11.95 12.4935 12.1 12.5235 12.2667C12.5595 12.4567 12.5538 12.6523 12.5068 12.84C12.4768 12.9533 12.3802 13.0267 12.2802 13.0733C12.2535 13.05 12.2402 13.0167 12.2235 12.9867Z" fill="#CF1126"/>
<path d="M11.7203 10.8967C11.6069 10.8134 11.5703 10.7367 11.5703 10.58C11.5703 10.5034 11.5869 10.46 11.6369 10.3867C11.7169 10.28 11.7036 10.2467 11.5936 10.2767C11.4169 10.3267 11.3336 10.2834 11.3269 10.1334C11.3269 10.06 11.3403 10.03 11.4369 9.91002C11.5169 9.81669 11.5469 9.76669 11.5303 9.75002C11.5136 9.73669 11.4203 9.81669 11.2303 10.01C11.1111 10.1356 10.9842 10.2536 10.8503 10.3634C10.5236 10.5834 10.2103 10.6167 10.0669 10.4467C9.99359 10.36 9.99693 10.3134 10.0803 10.26C10.1333 10.2242 10.1825 10.1828 10.2269 10.1367C10.3903 9.98752 10.5704 9.85777 10.7636 9.75002C10.8836 9.69002 10.9103 9.65002 10.8336 9.65002C10.7336 9.65002 10.4169 9.85669 10.1736 10.0767C10.1036 10.1434 10.0003 10.2167 9.94693 10.2434C9.79861 10.2974 9.63813 10.309 9.4836 10.2767C9.41026 10.2534 9.2736 10.1267 9.2736 10.08C9.2736 10.07 9.30693 10.0434 9.34026 10.02C9.39459 9.98933 9.44592 9.95361 9.49359 9.91335C9.68693 9.74669 10.0536 9.57002 10.3436 9.50669C10.4369 9.49002 10.4003 9.44002 10.2969 9.44669C9.99096 9.50512 9.70448 9.63919 9.4636 9.83669C9.18693 10.0667 8.77026 10.0434 8.63693 9.79335C8.6136 9.75002 8.59693 9.71002 8.6036 9.70335C8.83971 9.64376 9.06795 9.55648 9.2836 9.44335C9.46932 9.33389 9.674 9.26038 9.88693 9.22669C9.98026 9.21002 9.98693 9.16335 9.89693 9.15335C9.77693 9.14002 9.59693 9.20002 9.28026 9.35335C8.87026 9.55669 8.7536 9.59335 8.54026 9.58002C8.34026 9.56669 8.23026 9.51669 8.0736 9.36669C7.96693 9.26669 7.82027 9.01669 7.84693 8.98669C8.01999 9.02308 8.19692 9.03763 8.3736 9.03002C8.65026 9.03002 8.72693 9.02335 8.8736 8.98002C9.16012 8.88923 9.43022 8.75305 9.6736 8.57669C10.0167 8.28644 10.4509 8.12599 10.9003 8.12336C11.3136 8.12336 11.5736 8.21669 11.8069 8.45336C11.8869 8.53336 11.9536 8.58336 11.9636 8.57336C11.9736 8.56336 11.9836 8.42336 11.9869 8.26336C11.9869 8.26336 12.1103 8.25002 12.1369 8.28669C12.1369 8.54336 12.1369 8.56669 12.1769 8.56669C12.2003 8.56669 12.2269 8.54002 12.2436 8.50002C12.2769 8.41669 12.4103 8.30002 12.5503 8.22669C12.8503 8.07669 13.3736 8.07002 13.7936 8.21669C13.9944 8.29287 14.1822 8.3997 14.3503 8.53336C14.5955 8.70583 14.8651 8.84065 15.1503 8.93335C15.3769 9.00002 15.7836 9.01669 15.9869 8.96669C16.0464 8.95292 16.1065 8.9418 16.1669 8.93335C16.2436 8.93335 16.1136 9.18669 15.9603 9.33669C15.6803 9.61002 15.3169 9.60669 14.8069 9.33335C14.4869 9.16002 14.1069 9.06669 14.1069 9.16002C14.1069 9.18002 14.1269 9.19335 14.1569 9.19335C14.2669 9.19335 14.4803 9.26669 14.7803 9.41002C14.9687 9.51871 15.1754 9.59214 15.3903 9.62669C15.4669 9.62669 15.4703 9.67669 15.3969 9.78335C15.3203 9.89669 15.1903 9.95002 15.0069 9.95002C14.8303 9.95002 14.7303 9.91335 14.5736 9.78335C14.3069 9.56335 13.6536 9.31669 13.6769 9.45002C13.6836 9.47335 13.7136 9.49002 13.7836 9.50002C14.0651 9.56119 14.3287 9.68668 14.5536 9.86669L14.7503 10.01C14.7869 10.03 14.7869 10.0367 14.7569 10.0934C14.7103 10.1867 14.5836 10.2567 14.4503 10.27C14.2769 10.29 14.1236 10.2367 13.9669 10.1034C13.6336 9.82669 13.3236 9.62669 13.2236 9.62669C13.1403 9.62669 13.1769 9.67335 13.3236 9.75002C13.5133 9.85051 13.6902 9.97363 13.8503 10.1167C13.9169 10.18 13.9936 10.24 14.0169 10.2534C14.0803 10.2867 14.0769 10.3334 14.0103 10.42C13.9436 10.5067 13.8303 10.5467 13.6869 10.53C13.4003 10.5 13.1736 10.3634 12.8203 9.99669C12.7362 9.90285 12.6448 9.81591 12.5469 9.73669C12.5003 9.73669 12.5303 9.80002 12.6203 9.90335C12.7336 10.0267 12.7536 10.0967 12.7103 10.2034C12.6736 10.29 12.6103 10.3134 12.4836 10.2767C12.3503 10.2434 12.3303 10.2767 12.4169 10.38C12.5436 10.5434 12.5269 10.7367 12.3669 10.8734C12.3338 10.9052 12.2955 10.9312 12.2536 10.95C12.2403 10.95 12.2069 10.9167 12.1769 10.87C12.0769 10.7167 11.9869 10.7167 11.8869 10.87C11.8658 10.9041 11.8436 10.9374 11.8203 10.97C11.7865 10.9461 11.7532 10.9217 11.7203 10.8967Z" fill="#CF1126"/>
<path d="M12.2232 7.7666L12.0498 7.89993L11.8965 7.7866V8.71327H12.2232V7.7666Z" fill="#CF1126"/>
<path d="M11.1633 6.81C11.133 7.18476 11.0311 7.55023 10.8633 7.88667L11.2333 7.54333L11.4899 7.85L11.7699 7.53667L12.0533 7.80333L12.3266 7.52667L12.6099 7.86L12.8566 7.58667L13.2766 7.88667C13.1233 7.55333 12.9199 7.26667 12.9433 6.79333C12.5399 7.09333 11.5766 7.14667 11.1633 6.80667V6.81Z" fill="#CF1126"/>
<path d="M11.9 6.58659C11.75 6.58659 11.5934 6.58992 11.4534 6.61992C11.3606 6.63467 11.2721 6.66874 11.1934 6.71992C11.2034 7.00658 12.56 7.12325 12.9234 6.72659C12.8416 6.66999 12.7482 6.63241 12.65 6.61659C12.5167 6.58992 12.3634 6.58992 12.22 6.58325V6.81992H11.9V6.58659Z" fill="#CF1126"/>
<path d="M12.1631 5.1333H11.9531V6.77996H12.1665L12.1631 5.1333Z" fill="#CF1126"/>
<path d="M12.1637 5.1733L12.0837 5.9633L12.8937 6.35997L12.4837 5.80997L13.0437 5.62664L12.1637 5.1733ZM12.0737 4.96997C11.9504 4.96997 11.8604 5.01664 11.8604 5.06997C11.8604 5.1233 11.9504 5.16997 12.0737 5.16997C12.197 5.16997 12.287 5.1233 12.287 5.06997C12.287 5.01664 12.197 4.96997 12.0737 4.96997Z" fill="#CF1126"/>
<path d="M11.6992 18.7968C11.8352 18.7499 11.9102 18.6703 11.9617 18.5156C11.9842 18.4566 11.9999 18.3952 12.0086 18.3328C11.9946 18.2859 11.9336 18.2859 11.8727 18.3421C11.8258 18.3749 11.8258 18.3937 11.8352 18.4687C11.868 18.6562 11.8024 18.7031 11.4461 18.7406C11.4133 18.7406 11.3102 18.7406 11.2211 18.7265C11.0524 18.7078 10.9961 18.7265 11.0571 18.7734C11.0884 18.7949 11.1233 18.8107 11.1602 18.8203C11.2539 18.8437 11.6008 18.8296 11.6992 18.7921V18.7968ZM12.4352 18.764C12.4539 18.7453 12.5196 18.7171 12.5852 18.6937C12.6696 18.6656 12.7164 18.6374 12.7492 18.5812C12.8524 18.4265 12.8336 18.2953 12.6836 18.1124C12.5992 18.0187 12.5617 18.0187 12.4961 18.1312C12.4399 18.2249 12.4399 18.2249 12.5242 18.2484C12.5711 18.2578 12.6086 18.2953 12.6321 18.3328C12.7211 18.4874 12.693 18.5812 12.5617 18.5812C12.4399 18.5812 12.4071 18.5999 12.3742 18.6749C12.3609 18.7065 12.3514 18.7395 12.3461 18.7734C12.3461 18.8062 12.393 18.8015 12.4352 18.764ZM12.1914 18.5859C12.2149 18.5249 12.2242 18.4171 12.2196 18.1921C12.2196 18.0187 12.2149 17.8734 12.2055 17.864C12.1867 17.8499 12.0883 17.9109 12.0742 17.9531C12.0696 17.9765 12.0789 18.0234 12.0977 18.0609C12.1305 18.1218 12.1352 18.1781 12.1258 18.4124C12.1117 18.7078 12.1305 18.7546 12.1914 18.5859Z" fill="#F7E017"/>
<path d="M11.6288 18.4499C11.6429 18.3937 11.6569 18.2812 11.6616 18.1968C11.671 18.1171 11.6851 18.0093 11.6991 17.9624C11.7366 17.8499 11.6991 17.8218 11.6054 17.8874L11.5398 17.9343L11.5538 18.0984C11.5679 18.2484 11.5444 18.5249 11.5069 18.6327C11.5023 18.6656 11.5163 18.6562 11.5538 18.614C11.5905 18.5637 11.616 18.5062 11.6288 18.4452V18.4499ZM11.1273 18.5296C11.2491 18.4265 11.2351 18.2484 11.2632 18.1077C11.2632 18.014 11.3241 17.9015 11.2819 17.8218C11.1694 17.8406 11.0944 17.9484 11.1554 18.0562C11.1601 18.1827 11.1554 18.3187 11.0944 18.4312C11.0429 18.5015 10.8741 18.4781 10.8835 18.3796C10.9257 18.2249 10.7429 18.2999 10.6679 18.3421C10.6116 18.3796 10.4944 18.3843 10.5366 18.2859C10.5085 18.1546 10.3444 18.239 10.2554 18.239C10.171 18.239 10.246 18.0656 10.1241 18.0984C9.89913 18.0749 9.646 18.0984 9.44913 17.9577C9.33663 17.9062 9.35538 17.7702 9.41163 17.6765C9.48663 17.5546 9.50538 17.3999 9.61788 17.3062C9.73038 17.1984 9.51475 17.2452 9.46319 17.2827C9.35538 17.339 9.45381 17.4937 9.36944 17.5781C9.31319 17.6718 9.24288 17.789 9.12569 17.7749C8.94756 17.7421 8.84444 17.5781 8.72256 17.4702C8.61475 17.4468 8.67569 17.6437 8.73194 17.6859C8.84299 17.7681 8.96865 17.8286 9.10225 17.864C9.2335 17.8406 9.23819 18.014 9.35069 18.0421C9.55694 18.1359 9.78663 18.164 10.0069 18.1781C10.1007 18.1827 10.0491 18.3421 10.1663 18.3093C10.2319 18.3281 10.3773 18.2859 10.3819 18.3609C10.2882 18.4781 10.4757 18.4781 10.5507 18.4546C10.6444 18.4406 10.7569 18.4077 10.7851 18.5296C10.8601 18.614 11.0007 18.5999 11.0898 18.5531L11.1273 18.5296Z" fill="#F7E017"/>
<path d="M9.14064 17.5172C9.17345 17.4703 9.2297 17.3766 9.26251 17.3063C9.28806 17.2446 9.32113 17.1864 9.36095 17.1328C9.42189 17.0672 9.38907 17.0297 9.29064 17.0531C9.24376 17.0625 9.22032 17.0812 9.21564 17.1234C9.18751 17.2641 9.13595 17.4094 9.08907 17.475C9.0047 17.5969 9.0047 17.6016 9.0422 17.6016C9.05626 17.6016 9.09845 17.5641 9.13595 17.5172H9.14064ZM7.88439 16.7344C7.79064 16.7344 7.79064 16.7953 7.8797 16.8281C7.92189 16.8422 7.95939 16.875 7.98751 16.9406C8.08126 17.1141 8.12814 17.1469 8.36251 17.1656L8.5172 17.1797L8.52189 17.2734C8.52657 17.3203 8.54064 17.3672 8.55001 17.3672C8.56407 17.3672 8.62032 17.3391 8.68126 17.3109C8.78907 17.2547 8.89689 17.1234 8.89689 17.0438C8.89689 16.9922 8.80314 16.9313 8.72814 16.9313C8.66965 16.9399 8.61458 16.9642 8.56876 17.0016C8.40001 17.1234 8.22189 17.0953 8.12345 16.9406C8.04376 16.8094 7.95939 16.7344 7.88439 16.7344ZM8.70001 17.0625C8.74689 17.0625 8.75626 17.0953 8.73282 17.1562C8.71407 17.2031 8.65782 17.2031 8.63907 17.1562C8.62501 17.1094 8.65314 17.0625 8.70001 17.0625ZM15.0234 16.8563C14.9625 16.8563 14.9438 16.8703 14.9063 16.9313C14.8406 17.025 14.8359 17.2266 14.8969 17.2969C14.9297 17.3438 14.9344 17.3437 15.0141 17.3109C15.1219 17.2641 15.1406 17.2688 15.1359 17.325C15.1359 17.475 14.925 17.7563 14.7047 17.9109C14.6596 17.9359 14.6198 17.9693 14.5875 18.0094C14.5688 18.0563 14.6531 18.0422 14.7516 17.9906C14.8922 17.9203 15.0703 17.7375 15.1453 17.5922C15.2016 17.475 15.2109 17.4375 15.2203 17.2359C15.2203 17.0484 15.2203 16.9969 15.1875 16.9313C15.1547 16.8609 15.1406 16.8563 15.0516 16.8563H15.0234ZM15.0328 16.9875C15.0797 16.9875 15.0844 16.9969 15.0891 17.0625C15.0938 17.1187 15.0891 17.1516 15.0563 17.1797C15.0094 17.2172 15.0094 17.2172 14.9719 17.1609C14.925 17.0813 14.9531 16.9875 15.0328 16.9875ZM14.0203 18.4078C14.1879 18.338 14.3245 18.2097 14.4047 18.0469C14.4294 17.9972 14.4498 17.9454 14.4656 17.8922C14.4656 17.8641 14.3719 17.8219 14.3109 17.8219C14.25 17.8219 14.2453 17.7797 14.2641 17.6719C14.2922 17.5641 14.2641 17.4328 14.2172 17.4328C14.1984 17.4328 14.1703 17.4562 14.1516 17.4844C14.1188 17.5312 14.1188 17.5547 14.1422 17.625C14.175 17.7188 14.1469 17.7984 14.0578 17.8594C14.0109 17.8922 13.9875 17.9297 13.9875 17.9625C13.9875 17.9906 13.9922 18.0141 13.9969 18.0141L14.1047 17.9625L14.1984 17.9062L14.2594 17.9531C14.2875 17.9766 14.3156 18.0187 14.3156 18.0422C14.3156 18.1594 13.9781 18.3609 13.7438 18.3797C13.6219 18.3891 13.6031 18.3797 13.5563 18.3422C13.5234 18.3047 13.5094 18.2766 13.5188 18.2344L13.5469 18.1078C13.5703 18.0047 13.5234 18.0187 13.4484 18.1406C13.3828 18.2344 13.3641 18.3469 13.4016 18.4031C13.4297 18.45 13.6219 18.4922 13.7578 18.4828C13.8422 18.4781 13.9313 18.4547 14.0203 18.4078ZM15.3188 17.6813C15.4406 17.5594 15.4969 17.4094 15.4969 17.1797V17.0062L15.5953 16.9594C15.7266 16.8984 15.8531 16.7719 15.8531 16.7062C15.8531 16.6312 15.8203 16.6359 15.7641 16.7156C15.7219 16.7719 15.6703 16.8047 15.4641 16.8984C15.4125 16.9219 15.4078 16.9359 15.3984 17.1516C15.3844 17.4 15.3516 17.4891 15.2109 17.6625C15.1266 17.7609 15.1219 17.775 15.1828 17.775C15.2063 17.775 15.2672 17.7375 15.3234 17.6813H15.3188ZM13.9828 17.5406C13.9969 17.5078 13.9266 17.4844 13.8984 17.5125C13.8844 17.5266 13.8844 17.5453 13.8938 17.5594C13.9125 17.5922 13.9734 17.5828 13.9875 17.5453L13.9828 17.5406ZM15.825 17.0672C15.8391 17.0297 15.7688 17.0062 15.7406 17.0344C15.7266 17.0484 15.7266 17.0719 15.7359 17.0812C15.7547 17.1141 15.8156 17.1047 15.8297 17.0672H15.825ZM13.6078 15.7734C13.5609 15.7969 13.5375 15.8484 13.5047 15.8906C13.4813 15.9047 13.5 15.9188 13.5141 15.9375C13.5984 16.0266 13.6313 16.1484 13.6734 16.2656C13.7109 16.3969 13.7625 16.5422 13.7203 16.6828C13.7016 16.7344 13.6594 16.7906 13.5984 16.7766C13.4953 16.7672 13.3969 16.7438 13.2984 16.7438C13.2047 16.7438 13.1344 16.8281 13.0453 16.8187C12.9844 16.8234 12.9891 16.7016 12.9328 16.7344C12.9047 16.8 12.9188 16.8703 12.9141 16.9406C12.9281 16.95 12.9563 16.9406 12.9703 16.9406H13.1578C13.1672 17.0062 13.1625 17.0812 13.2094 17.1281C13.275 17.1516 13.3453 17.1281 13.4016 17.1047C13.4672 17.0766 13.4766 16.9969 13.4953 16.9406C13.5141 16.875 13.5984 16.8937 13.65 16.8656C13.7088 16.8453 13.7593 16.8064 13.794 16.7549C13.8287 16.7033 13.8456 16.6418 13.8422 16.5797C13.8375 16.3875 13.7625 16.2047 13.7063 16.0266C13.6781 15.9469 13.6594 15.8672 13.6266 15.7875C13.6266 15.7828 13.6172 15.7734 13.6078 15.7781V15.7734ZM13.3078 16.8656C13.3734 16.8656 13.4016 16.9453 13.3922 17.0016C13.3641 17.0766 13.2703 17.0297 13.2516 16.9734C13.2188 16.9266 13.2422 16.8609 13.3078 16.8656Z" fill="#F7E017"/>
<path d="M10.7994 16.2422C10.764 16.2425 10.7295 16.254 10.701 16.275C10.5229 16.4016 10.476 16.5469 10.5979 16.6031C10.6869 16.6453 10.6635 16.6969 10.5229 16.7672C10.326 16.8609 10.1479 16.8516 9.81973 16.7156C9.73535 16.6781 9.71192 16.6922 9.73067 16.7672C9.74942 16.8422 9.81973 16.8797 9.98379 16.9219C10.1666 16.9594 10.3822 16.95 10.5229 16.8891C10.6052 16.8476 10.6784 16.7902 10.7385 16.7203L10.8463 16.6031L10.9729 16.6172C11.1275 16.6359 11.1322 16.6406 11.1322 16.7109C11.1322 16.7719 11.1322 16.7766 11.2775 16.7859L11.5119 16.8C11.5775 16.8 11.615 16.8141 11.6338 16.8469C11.6619 16.8797 11.6807 16.8844 11.915 16.8609C12.1307 16.8422 12.1775 16.8422 12.276 16.8797C12.3463 16.9031 12.4213 16.9125 12.4822 16.9031C12.651 16.8844 12.8807 16.7484 12.9135 16.6453C12.9182 16.6359 12.9791 16.6125 13.0494 16.5984C13.2182 16.5656 13.2275 16.5281 13.0682 16.5094C12.9899 16.4986 12.9129 16.4798 12.8385 16.4531C12.7831 16.4306 12.7246 16.4164 12.665 16.4109C12.5807 16.4109 12.4963 16.4625 12.4963 16.5187C12.4963 16.5562 12.5104 16.5609 12.6135 16.5516C12.7072 16.5375 12.7354 16.5422 12.7822 16.5844C12.8197 16.6125 12.8385 16.6406 12.8291 16.65C12.8104 16.6875 12.6135 16.7766 12.5244 16.7906C12.4737 16.8011 12.421 16.7945 12.3744 16.7719C12.2947 16.7344 12.1822 16.725 12.1588 16.7578C12.1541 16.7766 12.126 16.7672 12.0932 16.7344L12.0463 16.6875L11.9244 16.7344C11.8025 16.7812 11.7604 16.7812 11.7604 16.725C11.7604 16.6969 11.7275 16.6969 11.5494 16.7062C11.3525 16.7203 11.3338 16.7156 11.2963 16.6781C11.2635 16.6406 11.2635 16.6266 11.2869 16.5844C11.3104 16.5516 11.3104 16.5375 11.2869 16.5141C11.2682 16.4953 11.24 16.4953 11.165 16.5141C10.9729 16.5656 10.9166 16.5375 10.9166 16.3875C10.9166 16.2938 10.865 16.2422 10.7994 16.2422ZM10.7525 16.3828C10.7619 16.3828 10.7666 16.3828 10.7807 16.4016C10.7994 16.4156 10.8088 16.4484 10.7994 16.4672C10.7854 16.5141 10.701 16.5094 10.6822 16.4625C10.6775 16.4391 10.6822 16.4156 10.7104 16.3969L10.7479 16.3781L10.7525 16.3828Z" fill="#F7E017"/>
<path d="M10.4061 16.5187C10.5186 16.4437 10.5186 16.4531 10.5326 16.2422C10.5467 16.1016 10.5467 16.0875 10.5045 16.0875C10.4483 16.0875 10.4154 16.1484 10.4154 16.2703C10.4154 16.3453 10.4061 16.3828 10.3686 16.425C10.2654 16.5187 10.0217 16.4766 9.99357 16.3547C9.98419 16.3125 9.99357 16.275 10.0451 16.2047C10.1529 16.0547 10.1295 16.0172 9.99826 16.1297C9.90451 16.2094 9.89044 16.2094 9.90919 16.1437C9.92326 16.0828 9.89044 16.0547 9.81544 16.0734C9.78263 16.0828 9.76388 16.1063 9.75451 16.1531C9.74513 16.2 9.72169 16.2234 9.68888 16.2281C9.62794 16.2469 9.52951 16.1906 9.52951 16.1391C9.52951 16.1062 9.67951 15.9234 9.87169 15.7172C9.92283 15.6711 9.96845 15.6191 10.0076 15.5625C10.0076 15.5531 9.96544 15.5438 9.91857 15.5438C9.84826 15.5438 9.83419 15.5531 9.83419 15.5859C9.83419 15.6047 9.73576 15.7359 9.61388 15.8672C9.36544 16.1484 9.34669 16.2094 9.47326 16.2797C9.52243 16.3092 9.57902 16.324 9.63635 16.3223C9.69367 16.3207 9.74932 16.3026 9.79669 16.2703L9.87638 16.2141V16.3172C9.87638 16.4438 9.89982 16.4859 10.0029 16.5422C10.0656 16.5737 10.1354 16.5881 10.2053 16.584C10.2753 16.5798 10.3429 16.5573 10.4014 16.5187H10.4061ZM15.6233 14.7891C15.5295 14.8453 15.5998 14.9625 15.6139 15.0375C15.5764 15.1406 15.4451 15.1688 15.3467 15.1922C15.2061 15.2109 15.1076 15.3328 15.0561 15.4547C15.0279 15.5344 14.9576 15.6562 14.8826 15.5344C14.817 15.4687 14.6951 15.4172 14.6201 15.4922C14.5592 15.5484 14.5451 15.6328 14.5217 15.7078C14.4889 15.6516 14.4748 15.5672 14.3998 15.5484C14.2826 15.5625 14.3248 15.7125 14.3764 15.7734C14.4279 15.8438 14.4748 15.9375 14.4233 16.0219C14.3858 16.125 14.2358 16.1906 14.142 16.1063C14.0623 16.0594 14.1186 15.9047 14.0389 15.8953C13.9967 15.9281 13.992 16.0875 13.9311 15.9984C13.8842 15.9234 13.9076 15.8203 13.8514 15.7547C13.7858 15.7641 13.7295 15.8766 13.7529 15.9422C13.834 16.0672 13.8883 16.2077 13.9123 16.3547C13.9358 16.4156 13.9123 16.5281 13.9639 16.5516C14.0014 16.4578 13.9639 16.3547 13.9967 16.2609C14.0811 16.2516 14.1842 16.2891 14.2733 16.2703C14.4045 16.2516 14.5076 16.1437 14.5498 16.0266C14.5639 15.9328 14.5498 15.8484 14.5451 15.7594C14.6483 15.7734 14.7561 15.7734 14.8545 15.8063C14.9014 15.8813 14.8404 15.9891 14.8264 16.0687C14.7748 16.2375 14.6389 16.3594 14.5123 16.4719C14.4608 16.5047 14.4514 16.5891 14.5311 16.5469C14.7045 16.4719 14.8311 16.3125 14.9061 16.1437C14.9623 16.0172 14.9154 15.8719 14.9529 15.7406C15.0045 15.6375 15.1311 15.6609 15.2248 15.6609C15.3186 15.6563 15.4029 15.5438 15.3654 15.45C15.3373 15.3422 15.4545 15.2906 15.5295 15.2531C15.6326 15.2016 15.717 15.0937 15.7076 14.9719C15.7029 14.9109 15.7076 14.7938 15.6233 14.7891ZM15.2529 15.4125C15.3654 15.4453 15.2342 15.6563 15.1733 15.5203C15.1592 15.4734 15.2014 15.4125 15.2529 15.4125ZM14.7373 15.5672C14.8826 15.5578 14.8311 15.7687 14.7092 15.675C14.6436 15.6422 14.6623 15.5625 14.7373 15.5672ZM9.50138 16.3828C9.50607 16.3594 9.49669 16.3453 9.47794 16.3453C9.43576 16.3453 9.41232 16.3828 9.43107 16.4109C9.44982 16.4438 9.49669 16.425 9.50138 16.3828ZM11.1983 16.1953C11.1983 16.1625 11.1842 16.1484 11.1608 16.1578C11.1045 16.1672 11.0951 16.2375 11.1514 16.2375C11.1842 16.2375 11.1983 16.2234 11.1983 16.1906V16.1953ZM9.10294 15.1781C9.03263 15.1641 8.99044 15.2203 8.96701 15.2719C8.92013 15.3609 8.85451 15.4453 8.76544 15.4922C8.69982 15.5109 8.62482 15.4828 8.57326 15.45C8.50294 15.4172 8.52169 15.3375 8.48888 15.2812C8.44201 15.2438 8.35763 15.2953 8.35763 15.3563C8.35294 15.4359 8.42794 15.4828 8.48888 15.5109C8.54044 15.5437 8.61544 15.5625 8.63888 15.6281C8.63888 15.6844 8.65763 15.7453 8.72794 15.7219C8.80294 15.7219 8.82169 15.8156 8.78888 15.8719C8.75452 15.9331 8.74134 16.004 8.75138 16.0734C8.78888 16.1062 8.82638 16.0266 8.85451 15.9984L8.90607 15.9281C9.03732 15.9375 9.17326 15.9516 9.30451 15.9469C9.39826 15.9469 9.48263 15.8859 9.53888 15.8203C9.62794 15.7266 9.69826 15.6234 9.79669 15.5484C9.86701 15.5297 9.82951 15.3984 9.75451 15.4359C9.68888 15.4641 9.67013 15.5344 9.62326 15.5812C9.54826 15.675 9.46857 15.7688 9.37013 15.8438C9.29982 15.8719 9.22013 15.8625 9.14513 15.8438C9.11701 15.8203 9.20607 15.7969 9.22013 15.7687C9.26232 15.7219 9.31388 15.6844 9.33263 15.6281C9.30919 15.5812 9.23888 15.5766 9.19201 15.5766C9.06544 15.5906 8.97169 15.6938 8.84982 15.7031C8.75607 15.7031 8.80294 15.6047 8.84982 15.5719C8.92951 15.4734 9.01857 15.3797 9.10763 15.2812C9.13107 15.2531 9.22013 15.225 9.16388 15.1875C9.14513 15.1781 9.12169 15.1781 9.10294 15.1781ZM9.16388 15.675C9.22482 15.7078 9.12169 15.7688 9.07951 15.7594C9.02326 15.7734 9.02326 15.7172 9.07013 15.7078C9.09826 15.6938 9.13107 15.675 9.16388 15.675ZM8.97169 15.8063C9.00451 15.8063 9.07951 15.8391 9.00919 15.8578C8.96232 15.8953 8.90607 15.8203 8.97169 15.8063Z" fill="#F7E017"/>
<path d="M10.4715 15.8906C10.4715 15.8437 10.3871 15.8484 10.3777 15.9C10.373 15.9281 10.3777 15.9375 10.4246 15.9328C10.448 15.9281 10.4715 15.9094 10.4715 15.8906ZM14.2074 15.5625C14.2168 15.5156 14.1511 15.4875 14.1183 15.5156C14.0855 15.5531 14.1183 15.614 14.1652 15.6094C14.184 15.6 14.2027 15.5812 14.2074 15.5625ZM8.39489 15.1031C8.45114 15.0562 8.45114 15.0515 8.42771 14.939C8.39021 14.7844 8.39489 14.7656 8.45114 14.7515C8.52614 14.7328 8.71833 14.8359 8.76052 14.9156C8.79333 14.9812 8.79333 14.9812 8.73708 15.0328C8.67614 15.089 8.67614 15.1547 8.73708 15.1547C8.78396 15.1547 8.92458 15.0234 8.92458 14.9765C8.92458 14.9156 8.76989 14.7609 8.65271 14.7047C8.57912 14.6715 8.49899 14.6555 8.41833 14.6578C8.26364 14.6578 8.24489 14.6906 8.28239 14.8687C8.32927 15.075 8.26833 15.1031 8.09489 14.9484C8.03538 14.8944 7.98917 14.8274 7.9599 14.7526C7.93062 14.6778 7.91907 14.5972 7.92614 14.5172C7.92614 14.3109 8.00583 14.2078 8.17927 14.189C8.30114 14.1703 8.29646 14.1422 8.17927 14.1234C7.99646 14.0953 7.85114 14.2172 7.79021 14.4234C7.72927 14.6578 7.87458 14.9437 8.12771 15.089C8.26364 15.1687 8.31521 15.1687 8.39489 15.1031ZM15.3558 14.8453C15.3699 14.8312 15.3793 14.7984 15.3793 14.775C15.3793 14.7515 15.4074 14.6953 15.4355 14.6578C15.4592 14.6298 15.4782 14.5981 15.4918 14.564C15.4918 14.5219 15.4215 14.5265 15.3699 14.564C15.3136 14.6109 15.2761 14.6109 15.2761 14.5687C15.2761 14.5594 15.2996 14.5359 15.3324 14.5219C15.4121 14.4844 15.4168 14.4469 15.3511 14.414C15.2621 14.3765 15.1777 14.4469 15.1683 14.564C15.1636 14.6437 15.1683 14.6578 15.2293 14.6906C15.2855 14.7234 15.2949 14.7422 15.2855 14.7844C15.2715 14.8687 15.3043 14.8969 15.3558 14.8453ZM16.0121 14.7703C16.059 14.7281 16.0965 14.6765 16.0965 14.6625C16.0965 14.6484 16.1386 14.6062 16.1902 14.5687C16.3308 14.4656 16.3636 14.3625 16.298 14.1984C16.2746 14.1375 16.1949 14.0484 16.0261 13.8937C15.9444 13.8132 15.8549 13.741 15.759 13.6781C15.7121 13.6781 15.7168 13.8515 15.7636 13.8656C15.8527 13.8937 15.9043 13.9312 16.0355 14.0531C16.1949 14.1937 16.2652 14.325 16.223 14.3953C16.1902 14.4656 16.1386 14.4422 15.998 14.3015C15.9277 14.2219 15.8574 14.1609 15.8433 14.1609C15.8246 14.1609 15.8152 14.1844 15.8152 14.2265C15.8152 14.2734 15.8386 14.3203 15.909 14.4C16.0261 14.5312 16.0402 14.6062 15.9558 14.6765C15.9183 14.7 15.8902 14.7234 15.8808 14.7234C15.7673 14.5296 15.6158 14.3606 15.4355 14.2265C15.4121 14.2265 15.4027 14.2453 15.4027 14.2969C15.4027 14.3578 15.4168 14.3812 15.4636 14.4047C15.5199 14.4328 15.6699 14.5828 15.8152 14.7609C15.8574 14.8078 15.8996 14.8547 15.909 14.8547C15.9136 14.8547 15.9605 14.8172 16.0074 14.7703H16.0121ZM16.3027 13.9359C16.284 13.875 15.8808 13.4672 15.8433 13.4672C15.8199 13.4672 15.8152 13.4906 15.8199 13.5562C15.8199 13.6359 15.834 13.65 15.8855 13.6594C15.923 13.6734 16.0261 13.7531 16.1199 13.8469C16.2136 13.9406 16.298 14.0062 16.3074 14.0015L16.3027 13.9359ZM13.9121 18.5625C13.9159 18.571 13.9175 18.5803 13.9165 18.5895C13.9155 18.5988 13.9121 18.6076 13.9065 18.6153C13.901 18.623 13.8934 18.6293 13.8846 18.6337C13.8757 18.6381 13.8659 18.6404 13.8558 18.6404C13.8458 18.6404 13.8359 18.6381 13.8271 18.6337C13.8182 18.6293 13.8107 18.623 13.8051 18.6153C13.7996 18.6076 13.7961 18.5988 13.7952 18.5895C13.7942 18.5803 13.7957 18.571 13.7996 18.5625C13.797 18.5541 13.7965 18.5453 13.7983 18.5367C13.8 18.5282 13.8038 18.5201 13.8095 18.5132C13.8152 18.5062 13.8226 18.5006 13.831 18.4967C13.8394 18.4928 13.8487 18.4908 13.8582 18.4908C13.8676 18.4908 13.8769 18.4928 13.8854 18.4967C13.8938 18.5006 13.9011 18.5062 13.9068 18.5132C13.9125 18.5201 13.9164 18.5282 13.9181 18.5367C13.9198 18.5453 13.9194 18.5541 13.9168 18.5625H13.9121ZM14.1277 18.4922C14.1277 18.5071 14.1213 18.5214 14.1099 18.5319C14.0984 18.5425 14.0829 18.5484 14.0668 18.5484C14.0506 18.5484 14.0351 18.5425 14.0237 18.5319C14.0123 18.5214 14.0058 18.5071 14.0058 18.4922C14.0058 18.4772 14.0123 18.4629 14.0237 18.4524C14.0351 18.4418 14.0506 18.4359 14.0668 18.4359C14.0829 18.4359 14.0984 18.4418 14.1099 18.4524C14.1213 18.4629 14.1277 18.4772 14.1277 18.4922Z" fill="#F7E017"/>
</g>
<defs>
<clipPath id="clip0_208_27904">
<rect width="24" height="24" rx="12" fill="white"/>
</clipPath>
</defs>
</svg>
