<svg width="24" height="24" viewBox="0 0 24 24" fill="none" xmlns="http://www.w3.org/2000/svg">
<g clip-path="url(#clip0_208_22394)">
<mask id="mask0_208_22394" style="mask-type:luminance" maskUnits="userSpaceOnUse" x="0" y="0" width="24" height="24">
<path d="M0 0H24V24H0V0Z" fill="white"/>
</mask>
<g mask="url(#mask0_208_22394)">
<path fill-rule="evenodd" clip-rule="evenodd" d="M0 0H35.9953V24H0V0Z" fill="white"/>
<path fill-rule="evenodd" clip-rule="evenodd" d="M0 0H10.9078V10.9125H0V0Z" fill="#000066"/>
<path fill-rule="evenodd" clip-rule="evenodd" d="M0 21.7922H35.9953V24H0V21.7922Z" fill="#CC0000"/>
<path fill-rule="evenodd" clip-rule="evenodd" d="M0 21.8156H35.9953V24H0V21.8156ZM0 17.4609H35.9953V19.6266H0V17.4609ZM0 13.0922H35.9063V15.2812H0V13.0922ZM10.9078 0H35.9906V2.17969H10.9078V0ZM10.9078 8.71875H35.9906V10.9125H10.9078V8.71875ZM10.9078 4.37344H35.9906V6.55313H10.9078V4.37344Z" fill="#CC0000"/>
<path fill-rule="evenodd" clip-rule="evenodd" d="M7.79551 8.32036L5.41895 6.86724L3.05645 8.33442L3.93301 5.94849L1.5752 4.47661L4.49551 4.45786L5.4002 2.0813L6.32832 4.45317H9.24863L6.9002 5.93911L7.79551 8.32036Z" fill="white"/>
</g>
</g>
<defs>
<clipPath id="clip0_208_22394">
<rect width="24" height="24" rx="12" fill="white"/>
</clipPath>
</defs>
</svg>
