<svg width="24" height="24" viewBox="0 0 24 24" fill="none" xmlns="http://www.w3.org/2000/svg">
<g clip-path="url(#clip0_208_27743)">
<path fill-rule="evenodd" clip-rule="evenodd" d="M0 0H24V24H0V0Z" fill="#229E45"/>
<path fill-rule="evenodd" clip-rule="evenodd" d="M12.2527 19.0031L23.0246 12.0093L12.1871 4.99683L1.37305 12.0281L12.248 19.0031H12.2527Z" fill="#F8E509"/>
<path fill-rule="evenodd" clip-rule="evenodd" d="M16.9453 12C16.9642 12.6103 16.8603 13.2182 16.6396 13.7876C16.419 14.357 16.0862 14.8762 15.6609 15.3144C15.2357 15.7526 14.7267 16.1009 14.1642 16.3385C13.6017 16.5761 12.9971 16.6982 12.3865 16.6976C11.7759 16.697 11.1716 16.5736 10.6096 16.3348C10.0476 16.096 9.53932 15.7467 9.11497 15.3077C8.69061 14.8686 8.35885 14.3487 8.13939 13.7788C7.91993 13.209 7.81725 12.6009 7.83746 11.9906C7.8766 10.8081 8.37415 9.68728 9.22488 8.86509C10.0756 8.0429 11.2128 7.58387 12.3959 7.58509C13.579 7.5863 14.7152 8.04768 15.5643 8.87161C16.4133 9.69555 16.9086 10.8174 16.9453 12Z" fill="#2B49A3"/>
<path fill-rule="evenodd" clip-rule="evenodd" d="M10.8893 14.7281L10.7486 14.6437L10.6033 14.7187L10.6361 14.5546L10.5236 14.4375L10.683 14.4187L10.758 14.2687L10.8283 14.4234L10.9877 14.4515L10.8658 14.564M13.9455 15.5015L13.8049 15.4171L13.6549 15.4921L13.6877 15.3281L13.5752 15.2109L13.7393 15.1921L13.8143 15.0421L13.8799 15.1968L14.0393 15.225L13.9221 15.3375M12.6283 14.264L12.5064 14.1937L12.3799 14.2546L12.408 14.114L12.3143 14.0109L12.4502 13.9968L12.5158 13.8703L12.5721 14.0015L12.7127 14.025L12.6096 14.1187M15.7127 13.8187L15.5908 13.7484L15.4689 13.8093L15.4971 13.6734L15.4033 13.575L15.5393 13.5562L15.6002 13.4343L15.6611 13.5609L15.7971 13.5843L15.6939 13.6781M12.5721 12.8953L12.4314 12.8109L12.2861 12.8859L12.3189 12.7218L12.2064 12.6046L12.3658 12.5859L12.4408 12.4406L12.5111 12.5906L12.6705 12.6187L12.5486 12.7312M8.8127 11.4843L8.67207 11.4L8.53145 11.475L8.55957 11.3109L8.44707 11.1937L8.61113 11.175L8.68613 11.025L8.75176 11.1796L8.91113 11.2078L8.79395 11.3203M9.26738 13.3593L9.12676 13.2796L8.98145 13.35L9.01426 13.1906L8.90176 13.0687L9.06113 13.05L9.13613 12.9093L9.20644 13.0546L9.36582 13.0875L9.24394 13.1953M13.9596 10.7906L13.8377 10.7203L13.7064 10.7812L13.7346 10.6406L13.6408 10.5328L13.7814 10.5187L13.8471 10.3875L13.908 10.5234L14.0486 10.5468L13.9408 10.6453M13.7064 12.014L13.5939 11.9531L13.4955 12L13.5143 11.8875L13.4393 11.8078L13.5518 11.7937L13.6033 11.6906L13.6502 11.7984L13.7627 11.8171L13.6783 11.8921M8.59707 13.6968L8.50332 13.6406L8.40488 13.6875L8.42363 13.5796L8.34863 13.5L8.46113 13.4906L8.50801 13.3968L8.55488 13.4906L8.6627 13.514L8.58301 13.589M15.7361 14.1281L15.6564 14.0906L15.5768 14.1234L15.5955 14.0437L15.5346 13.9828L15.6236 13.9734L15.6658 13.9031L15.6986 13.9781L15.7877 13.9921L15.7221 14.0484" fill="#FFFFEF"/>
<path fill-rule="evenodd" clip-rule="evenodd" d="M8.60195 13.7016L8.5082 13.6454L8.40977 13.6922L8.4332 13.5844L8.35352 13.5047L8.46133 13.4954L8.51289 13.4016L8.55977 13.4954L8.66758 13.5188L8.58789 13.5938" fill="#FFFFEF"/>
<path fill-rule="evenodd" clip-rule="evenodd" d="M8.60195 13.7016L8.5082 13.6454L8.40977 13.6922L8.4332 13.5844L8.35352 13.5047L8.46133 13.4954L8.51289 13.4016L8.55977 13.4954L8.66758 13.5188L8.58789 13.5938M10.0973 13.7016L10.0035 13.6454L9.90977 13.6922L9.92852 13.5844L9.85352 13.5047L9.96133 13.4954L10.0082 13.3969L10.0551 13.4954L10.1629 13.5188L10.0832 13.5938M9.90977 14.2032L9.81602 14.1469L9.72227 14.1938L9.74102 14.086L9.66602 14.0063L9.77383 13.9922L9.8207 13.8985L9.86758 13.9922L9.97539 14.0157L9.8957 14.0907M13.0223 13.2938L12.9285 13.2375L12.8301 13.2844L12.8488 13.1766L12.7738 13.0969L12.8816 13.0875L12.9332 12.9891L12.9801 13.0875L13.0832 13.1063L13.0035 13.1813M12.1082 13.2938L12.0145 13.2375L11.916 13.2844L11.9395 13.1766L11.8645 13.0969L11.9723 13.0875L12.0191 12.9891L12.066 13.0875L12.1738 13.1063L12.0941 13.1813M9.6332 12.975L9.57695 12.9422L9.51602 12.9704L9.52539 12.9L9.47852 12.8532L9.54883 12.8438L9.58164 12.7829L9.60508 12.8485L9.67539 12.8579L9.62852 12.9047M15.6191 14.5313L15.5254 14.4797L15.427 14.5266L15.4504 14.4188L15.3754 14.3391L15.4832 14.325L15.5301 14.2313L15.577 14.325L15.6848 14.3485L15.6051 14.4235M14.8551 14.6297L14.7801 14.5829L14.7004 14.6297L14.7191 14.536L14.6535 14.4704L14.7473 14.461L14.7848 14.3813L14.8223 14.461L14.916 14.4797L14.8457 14.5407M15.2207 14.625L15.1457 14.5782L15.0707 14.6204L15.0848 14.536L15.0285 14.475L15.1129 14.4657L15.1504 14.3907L15.1832 14.4657L15.2676 14.4797L15.2066 14.5407M16.2473 13.725L16.177 13.6829L16.102 13.7204L16.1207 13.6407L16.0645 13.5797L16.1441 13.5704L16.1816 13.5L16.2145 13.575L16.2941 13.5891L16.2332 13.6454M14.8598 15.136L14.766 15.0844L14.6723 15.1313L14.6957 15.0282L14.6207 14.9579L14.7238 14.9438L14.7754 14.8547L14.8223 14.9485L14.9207 14.9672L14.8457 15.0329M14.8645 15.5438L14.7801 15.4969L14.6957 15.5391L14.7145 15.436L14.6488 15.3657L14.7426 15.3516L14.7895 15.2625L14.827 15.3563L14.9207 15.375L14.8504 15.4407M14.1707 14.625L14.1004 14.5829L14.0254 14.6204L14.0441 14.536L13.9879 14.4797L14.0676 14.4704L14.1051 14.3954L14.1379 14.4704L14.2176 14.4844L14.1566 14.5407M13.5238 14.625L13.4535 14.5829L13.3785 14.6204L13.3973 14.536L13.341 14.4797L13.4207 14.4704L13.4582 14.3954L13.491 14.4704L13.5707 14.4844L13.5145 14.5407M12.4223 13.6594L12.352 13.6172L12.277 13.6547L12.2957 13.575L12.2395 13.5141L12.3191 13.5047L12.3566 13.4344L12.3895 13.5094L12.4691 13.5235L12.4082 13.575M12.5441 15.6141L12.4832 15.5813L12.4223 15.6141L12.4363 15.5438L12.3895 15.4969L12.4551 15.4829L12.4879 15.4219L12.516 15.4875L12.5863 15.4969L12.5348 15.5438M10.8848 12.45L10.7441 12.3704L10.5988 12.4407L10.6316 12.2813L10.5191 12.1594L10.6785 12.1407L10.7535 11.9954L10.8238 12.1454L10.9832 12.1735L10.8613 12.286" fill="#FFFFEF"/>
<path fill-rule="evenodd" clip-rule="evenodd" d="M16.6455 13.6406C16.7337 13.4107 16.8027 13.174 16.8518 12.9328C14.433 10.8046 11.733 9.71245 8.32051 9.93745C8.19825 10.1763 8.09785 10.4258 8.02051 10.6828C9.58603 10.5247 11.1672 10.7067 12.6559 11.2164C14.1445 11.7261 15.5054 12.5514 16.6455 13.6359V13.6406Z" fill="white"/>
<path d="M15.5578 12.4407L15.6422 12.4875C15.6291 12.5136 15.6257 12.5436 15.6328 12.5719C15.6375 12.5907 15.6562 12.6141 15.6797 12.6282C15.7078 12.6469 15.7313 12.6563 15.7547 12.6563C15.7734 12.6563 15.7922 12.6422 15.8016 12.6282C15.8063 12.6188 15.8109 12.6094 15.8063 12.5954L15.7922 12.5579L15.7359 12.4969C15.706 12.4665 15.6836 12.4296 15.6703 12.3891C15.6621 12.3586 15.6652 12.3262 15.679 12.2978C15.6927 12.2694 15.7163 12.2469 15.7453 12.2344C15.7703 12.2234 15.7981 12.2201 15.825 12.225C15.8589 12.2324 15.8908 12.2468 15.9188 12.2672C15.9594 12.2958 15.9917 12.3346 16.0125 12.3797C16.0182 12.4005 16.019 12.4223 16.015 12.4434C16.0109 12.4645 16.002 12.4844 15.9891 12.5016L15.9047 12.45C15.9141 12.4266 15.9187 12.4032 15.9141 12.3844C15.9094 12.3704 15.8906 12.3516 15.8672 12.3375C15.8438 12.3188 15.8203 12.3141 15.8016 12.3141C15.7961 12.3143 15.7908 12.3156 15.786 12.3181C15.7811 12.3205 15.7768 12.3239 15.7734 12.3282C15.7702 12.3329 15.7681 12.3383 15.7673 12.344C15.7665 12.3497 15.767 12.3555 15.7687 12.361C15.7687 12.3797 15.7922 12.4079 15.825 12.4407L15.8953 12.5344C15.9081 12.5578 15.914 12.5842 15.9123 12.6108C15.9107 12.6373 15.9015 12.6629 15.8859 12.6844C15.8696 12.7077 15.8468 12.7256 15.8203 12.736C15.7924 12.7487 15.7612 12.752 15.7313 12.7454C15.6957 12.7363 15.6623 12.7204 15.6328 12.6985C15.5885 12.6719 15.5553 12.6303 15.5391 12.5813C15.525 12.5391 15.5297 12.4922 15.5578 12.4407ZM15.1453 12.1735L15.2391 12.2204C15.2281 12.2437 15.2248 12.27 15.2297 12.2954C15.2344 12.3188 15.2531 12.3422 15.2766 12.3563C15.3047 12.375 15.3281 12.3797 15.3516 12.375C15.3703 12.375 15.3891 12.3657 15.3984 12.3469C15.4029 12.3383 15.4045 12.3284 15.4031 12.3188C15.4031 12.3047 15.3984 12.2954 15.3844 12.2813L15.3281 12.2204C15.2973 12.1917 15.2732 12.1564 15.2578 12.1172C15.2516 12.0986 15.2496 12.0789 15.2521 12.0594C15.2545 12.0399 15.2613 12.0212 15.2719 12.0047C15.2858 11.9841 15.3053 11.9678 15.3281 11.9579C15.3532 11.9471 15.3809 11.9438 15.4078 11.9485C15.4359 11.9485 15.4641 11.9625 15.5016 11.986C15.5484 12.0188 15.5859 12.0516 15.5953 12.0938C15.6023 12.1139 15.6047 12.1352 15.6023 12.1564C15.5998 12.1775 15.5926 12.1977 15.5812 12.2157L15.4922 12.1641C15.5062 12.1407 15.5063 12.1172 15.5016 12.1032C15.4922 12.0844 15.4781 12.0704 15.4547 12.0563C15.4346 12.0408 15.4098 12.0325 15.3844 12.0329C15.3785 12.0336 15.373 12.0356 15.3681 12.0389C15.3632 12.0421 15.3591 12.0465 15.3563 12.0516C15.3538 12.0567 15.3525 12.0623 15.3525 12.068C15.3525 12.0737 15.3538 12.0793 15.3563 12.0844C15.3563 12.0985 15.3797 12.1266 15.4125 12.1641C15.45 12.1969 15.4734 12.2297 15.4875 12.2485C15.5019 12.2719 15.5092 12.299 15.5083 12.3265C15.5075 12.354 15.4986 12.3807 15.4828 12.4032C15.4669 12.4275 15.4442 12.4466 15.4176 12.4583C15.3909 12.4699 15.3615 12.4736 15.3328 12.4688C15.296 12.4616 15.261 12.4473 15.2297 12.4266C15.1848 12.4017 15.1499 12.3619 15.1312 12.3141C15.1179 12.2672 15.1229 12.2169 15.1453 12.1735ZM14.6391 12.0329L14.9016 11.611L15.2156 11.7985L15.1688 11.8735L14.9437 11.7329L14.8828 11.8266L15.0984 11.9579L15.0516 12.0329L14.8406 11.9016L14.7703 12.0188L15.0047 12.1594L14.9625 12.2344L14.6391 12.0375V12.0329ZM13.8984 11.4282L13.9406 11.3532L14.1281 11.4563L14.0391 11.6297C13.9631 11.6466 13.8836 11.6367 13.8141 11.6016C13.7721 11.5799 13.7366 11.5475 13.7109 11.5079C13.6862 11.4721 13.6731 11.4295 13.6734 11.386C13.6734 11.3391 13.6875 11.2969 13.7109 11.2547C13.7326 11.2114 13.7648 11.1743 13.8047 11.1469C13.8375 11.1188 13.8844 11.1047 13.9313 11.1047C13.9641 11.1047 14.0063 11.1188 14.0484 11.1375C14.0946 11.1593 14.1325 11.1955 14.1562 11.2407C14.175 11.2782 14.1797 11.3204 14.1703 11.3672L14.0719 11.3391C14.0772 11.3153 14.0738 11.2904 14.0625 11.2688C14.05 11.2458 14.0302 11.2277 14.0062 11.2172C13.9896 11.2069 13.971 11.2003 13.9515 11.1979C13.9321 11.1955 13.9124 11.1973 13.8937 11.2032C13.8609 11.2172 13.8281 11.25 13.8 11.2969C13.7772 11.34 13.7689 11.3894 13.7766 11.4375C13.7859 11.475 13.8094 11.5032 13.8516 11.5219L13.9125 11.5407H13.9734L14.0016 11.4844L13.8984 11.4282ZM10.6734 10.6313L10.7484 10.1344L10.8984 10.1579L10.9359 10.5094L11.0766 10.1813L11.2219 10.2047L11.1516 10.7016L11.0578 10.6875L11.1141 10.2985L10.9594 10.6735L10.8656 10.6594L10.8234 10.2516L10.7672 10.6454L10.6734 10.6313ZM10.1719 10.5704L10.2188 10.0735L10.5844 10.1063L10.5797 10.1907L10.3078 10.1672L10.2984 10.275L10.5469 10.2985L10.5422 10.3829L10.2938 10.3594L10.2797 10.5L10.5562 10.5235L10.5469 10.6079L10.1719 10.5704Z" fill="#309E3A"/>
<path d="M8.50266 10.2563C8.50266 10.2094 8.51203 10.1625 8.5261 10.1297L8.57297 10.0641L8.64328 10.0172C8.67791 10.0053 8.71458 10.0005 8.7511 10.0031C8.78363 10.0029 8.81585 10.0095 8.84571 10.0224C8.87557 10.0353 8.90241 10.0543 8.92453 10.0781C8.97141 10.125 8.98547 10.186 8.98547 10.2656C8.98547 10.35 8.95735 10.411 8.91516 10.4531C8.89169 10.4759 8.86371 10.4935 8.83304 10.5048C8.80236 10.5161 8.76966 10.5209 8.73703 10.5188C8.70484 10.5196 8.67283 10.5138 8.64299 10.5017C8.61315 10.4896 8.58612 10.4715 8.5636 10.4485C8.54043 10.4235 8.52298 10.3938 8.51245 10.3614C8.50193 10.329 8.49859 10.2948 8.50266 10.261V10.2563Z" fill="#309E3A"/>
<path d="M8.60625 10.2563C8.60625 10.3125 8.61562 10.3594 8.64375 10.3875C8.66719 10.4203 8.7 10.4344 8.7375 10.4344C8.75666 10.4348 8.77569 10.4312 8.79342 10.424C8.81115 10.4167 8.82722 10.4059 8.84063 10.3922C8.86406 10.3641 8.87813 10.3219 8.88281 10.2656C8.88281 10.2047 8.87344 10.1625 8.84531 10.1344C8.83394 10.1203 8.81969 10.1089 8.80352 10.1008C8.78735 10.0927 8.76963 10.0882 8.75156 10.0875C8.70469 10.0875 8.67188 10.1016 8.64844 10.1297C8.62031 10.1578 8.60625 10.2 8.60156 10.2563H8.60625Z" fill="#F7FFFF"/>
<path d="M9.09375 10.5188L9.09844 10.0172H9.30938C9.36563 10.0172 9.40313 10.0266 9.42656 10.036C9.45 10.0453 9.47344 10.0594 9.48281 10.0828C9.49219 10.1063 9.50625 10.1297 9.50625 10.1625C9.50625 10.2 9.49219 10.2281 9.47344 10.2563C9.45 10.2797 9.41719 10.2938 9.37031 10.3031C9.39375 10.3125 9.4125 10.3266 9.42656 10.3406L9.48281 10.425L9.54375 10.5188H9.42188L9.35156 10.411C9.33439 10.3848 9.31561 10.3598 9.29531 10.336C9.28749 10.3277 9.27787 10.3212 9.26719 10.3172C9.2521 10.3118 9.23631 10.3087 9.22031 10.3078H9.19687V10.5188H9.09375Z" fill="#309E3A"/>
<path d="M9.19727 10.2282H9.27227C9.3034 10.2321 9.33489 10.2321 9.36602 10.2282L9.38945 10.2048C9.39883 10.1954 9.40352 10.1813 9.40352 10.1673C9.40352 10.1485 9.39883 10.1344 9.38945 10.1251C9.37956 10.1146 9.36628 10.1079 9.35195 10.1063H9.20195V10.2282H9.19727Z" fill="white"/>
<path d="M9.66582 10.0406L9.84863 10.05C9.88037 10.0505 9.9119 10.0552 9.94238 10.0641C9.96908 10.0742 9.99313 10.0902 10.0127 10.111C10.0346 10.1369 10.0506 10.1673 10.0596 10.2C10.0689 10.2328 10.0689 10.2703 10.0689 10.3172C10.0703 10.3531 10.0639 10.3889 10.0502 10.422C10.0364 10.4552 10.0156 10.485 9.98926 10.5094C9.97051 10.5235 9.94707 10.5375 9.91895 10.5469H9.8252L9.6377 10.5422L9.66582 10.0406Z" fill="#309E3A"/>
<path d="M9.75918 10.1298L9.74512 10.4579L9.82012 10.4673H9.88106L9.92324 10.4438C9.9373 10.4344 9.94199 10.4204 9.95137 10.3969L9.96543 10.3032L9.96074 10.2188C9.95137 10.1954 9.94668 10.1813 9.93262 10.1719C9.92013 10.1581 9.90381 10.1483 9.88574 10.1438C9.85951 10.1383 9.83284 10.1352 9.80605 10.1344H9.75918V10.1298Z" fill="white"/>
<path d="M12.1172 10.936L12.2344 10.4485L12.3891 10.486C12.45 10.5 12.4875 10.5141 12.5062 10.5235C12.5297 10.5375 12.5531 10.5563 12.5625 10.5844C12.5766 10.6172 12.5766 10.65 12.5672 10.6875C12.563 10.7117 12.5526 10.7344 12.537 10.7533C12.5214 10.7722 12.5011 10.7867 12.4781 10.7954C12.462 10.8033 12.4445 10.8081 12.4266 10.8094C12.3917 10.8064 12.3572 10.8001 12.3234 10.7907L12.2578 10.7766L12.2109 10.9594L12.1172 10.936Z" fill="#309E3A"/>
<path d="M12.3092 10.5563L12.2764 10.6969L12.3326 10.7063C12.3701 10.7156 12.3982 10.7203 12.4123 10.7156C12.4253 10.7143 12.4376 10.7091 12.4476 10.7008C12.4576 10.6924 12.4649 10.6813 12.4686 10.6688L12.4639 10.6172C12.4558 10.6021 12.4425 10.5904 12.4264 10.5844L12.3561 10.5656L12.3092 10.5563Z" fill="white"/>
<path d="M12.5811 11.0766L12.7451 10.6031L12.9467 10.6735C12.9832 10.6838 13.018 10.6996 13.0498 10.7203C13.0686 10.7391 13.0826 10.7625 13.092 10.7906C13.1014 10.8188 13.092 10.8422 13.0826 10.8703C13.0732 10.9078 13.0498 10.9313 13.0217 10.9453C13.0055 10.9547 12.9877 10.9608 12.9692 10.9632C12.9507 10.9656 12.9319 10.9643 12.9139 10.9594L12.9514 11.0156L12.9795 11.1094L13.0029 11.2219L12.8904 11.1844L12.8576 11.0578C12.8503 11.0275 12.8409 10.9978 12.8295 10.9688C12.8255 10.9581 12.8191 10.9485 12.8107 10.9406C12.7965 10.9303 12.7807 10.9224 12.7639 10.9172L12.7451 10.9125L12.6748 11.1094L12.5811 11.0766Z" fill="#309E3A"/>
<path d="M12.7686 10.8376L12.8389 10.861L12.9279 10.8844C12.942 10.8844 12.9514 10.8844 12.9607 10.8751L12.9842 10.8423V10.7954C12.9782 10.7831 12.9683 10.7732 12.9561 10.7673L12.8857 10.7438L12.8107 10.7157L12.7686 10.8376Z" fill="white"/>
<path d="M13.1677 11.0578C13.1796 11.0149 13.2003 10.975 13.2286 10.9406C13.2427 10.9172 13.2661 10.9031 13.2895 10.889C13.3127 10.8763 13.3382 10.8683 13.3645 10.8656C13.3973 10.8656 13.4348 10.8656 13.4723 10.8797C13.5042 10.8876 13.5339 10.9022 13.5598 10.9223C13.5856 10.9425 13.6069 10.9679 13.6223 10.9969C13.6505 11.0531 13.6552 11.1234 13.627 11.1984C13.6193 11.2321 13.6049 11.264 13.5848 11.2921C13.5647 11.3203 13.5392 11.3442 13.5098 11.3625C13.4809 11.3769 13.4493 11.3851 13.4171 11.3868C13.3848 11.3884 13.3526 11.3833 13.3223 11.3719C13.2905 11.3639 13.2608 11.3494 13.2349 11.3292C13.2091 11.309 13.1878 11.2836 13.1723 11.2547C13.1448 11.1922 13.1431 11.1214 13.1677 11.0578Z" fill="#309E3A"/>
<path d="M13.2664 11.0859C13.2523 11.1374 13.2523 11.1796 13.2664 11.2171C13.2852 11.2546 13.3133 11.2781 13.3508 11.2921C13.3883 11.3015 13.4211 11.2968 13.4539 11.2781C13.4867 11.2593 13.5148 11.2218 13.5336 11.1656C13.5477 11.1093 13.5477 11.0671 13.5336 11.0296C13.5257 11.0123 13.514 10.997 13.4994 10.9849C13.4848 10.9727 13.4677 10.964 13.4492 10.9593C13.4313 10.9535 13.4124 10.9518 13.3937 10.9542C13.3751 10.9566 13.3572 10.9632 13.3414 10.9734C13.3086 10.9921 13.2852 11.0296 13.2664 11.0859Z" fill="white"/>
<path d="M14.1426 11.7562L14.3723 11.3109L14.5598 11.4047C14.6066 11.4328 14.6395 11.4515 14.6535 11.4703C14.6723 11.4937 14.6816 11.5172 14.6863 11.5406C14.691 11.564 14.6863 11.5969 14.6676 11.6203C14.6535 11.6531 14.6301 11.6765 14.5973 11.6906C14.5645 11.7 14.5316 11.7 14.4895 11.6859C14.5035 11.7047 14.5129 11.7281 14.5176 11.7469L14.5316 11.8453L14.541 11.9625L14.4332 11.9062L14.4191 11.775L14.4051 11.6812C14.401 11.6705 14.3946 11.6609 14.3863 11.6531C14.3738 11.6416 14.3596 11.6321 14.3441 11.625L14.3254 11.6156L14.2316 11.8031L14.1426 11.7562Z" fill="#309E3A"/>
<path d="M14.3633 11.5452L14.4289 11.5781L14.5133 11.6156C14.5273 11.6156 14.5367 11.6156 14.5461 11.6062C14.5587 11.5996 14.5691 11.5894 14.5758 11.5768C14.5825 11.5643 14.5852 11.55 14.5836 11.5359C14.5785 11.5219 14.5685 11.5102 14.5555 11.5031C14.5356 11.4898 14.5153 11.4773 14.4945 11.4656L14.4242 11.4327L14.3633 11.5452Z" fill="white"/>
<path d="M15.9941 12.6703C16.0222 12.6235 16.0503 12.5953 16.0878 12.5766C16.1107 12.5613 16.1361 12.5502 16.1628 12.5438C16.1876 12.539 16.2131 12.539 16.2378 12.5438C16.2706 12.5485 16.3081 12.5625 16.341 12.5906C16.3687 12.6076 16.3926 12.63 16.4111 12.6567C16.4297 12.6833 16.4425 12.7135 16.4488 12.7453C16.4556 12.8135 16.4372 12.8819 16.3972 12.9375C16.3794 12.9678 16.3557 12.9941 16.3275 13.0151C16.2993 13.036 16.2673 13.0511 16.2331 13.0594C16.2014 13.0653 16.1688 13.0646 16.1373 13.0574C16.1059 13.0501 16.0763 13.0364 16.0503 13.0172C16.0226 13.0003 15.9987 12.9778 15.9802 12.9512C15.9616 12.9246 15.9488 12.8944 15.9425 12.8625C15.9373 12.829 15.9388 12.7947 15.9468 12.7617C15.9548 12.7288 15.9693 12.6977 15.9894 12.6703H15.9941Z" fill="#309E3A"/>
<path d="M16.0784 12.7219C16.0503 12.7688 16.0362 12.8157 16.0409 12.8532C16.0441 12.8722 16.0512 12.8903 16.0617 12.9064C16.0722 12.9225 16.0858 12.9363 16.1019 12.9469C16.1167 12.9573 16.1336 12.9643 16.1514 12.9675C16.1692 12.9707 16.1875 12.9701 16.205 12.9657C16.2425 12.9563 16.28 12.9282 16.3128 12.8766C16.3456 12.8298 16.3597 12.7876 16.3503 12.7501C16.3503 12.7126 16.3269 12.6844 16.2941 12.6563C16.2612 12.6282 16.2237 12.6282 16.1862 12.6376C16.1487 12.6469 16.1159 12.6751 16.0831 12.7219H16.0784Z" fill="white"/>
<path d="M11.5498 10.7344L11.6295 10.3782L11.892 10.4391L11.8779 10.5L11.6904 10.4532L11.6717 10.5329L11.8451 10.575L11.8311 10.636L11.6576 10.5891L11.6342 10.6875L11.8311 10.7344L11.817 10.7954L11.5498 10.7344Z" fill="#309E3A"/>
</g>
<defs>
<clipPath id="clip0_208_27743">
<rect width="24" height="24" rx="12" fill="white"/>
</clipPath>
</defs>
</svg>
