<svg width="24" height="24" viewBox="0 0 24 24" fill="none" xmlns="http://www.w3.org/2000/svg">
<g clip-path="url(#clip0_208_25015)">
<mask id="mask0_208_25015" style="mask-type:luminance" maskUnits="userSpaceOnUse" x="-1" y="0" width="25" height="24">
<path d="M-0.000976562 0H23.9953V23.9963H-0.000976562V0Z" fill="white"/>
</mask>
<g mask="url(#mask0_208_25015)">
<path fill-rule="evenodd" clip-rule="evenodd" d="M-6 0H29.9945V23.9963H-6V0Z" fill="#199D00"/>
<path fill-rule="evenodd" clip-rule="evenodd" d="M3.07088 6.80216C3.03218 7.36336 2.97896 8.35031 3.45792 8.4519C4.03364 8.50512 3.71433 7.47463 3.92237 7.29079C3.96591 7.19403 4.03848 7.19403 4.04331 7.31498V8.18582C4.03848 8.47609 4.22232 8.5535 4.36746 8.6164C4.52227 8.60188 4.61903 8.60672 4.68193 8.75186L4.74966 10.2661C4.74966 10.2661 5.10283 10.3629 5.11734 9.41466C5.1367 8.85829 5.00607 8.38901 5.08348 8.28258C5.08348 8.17614 5.21894 8.1713 5.3157 8.21968C5.46568 8.32612 5.53341 8.46158 5.76563 8.40352C6.12364 8.30677 6.33651 8.1326 6.34619 7.86167C6.33388 7.59484 6.27833 7.33178 6.1817 7.08276C6.19621 7.03438 6.10913 6.91343 6.12848 6.86505C6.19137 6.96181 6.28813 6.95697 6.31232 6.86505C6.24943 6.66186 6.15751 6.47318 6.00269 6.39093C5.8769 6.27966 5.69306 6.30385 5.62533 6.53607C5.6174 6.84103 5.72056 7.13848 5.91561 7.37304C5.97644 7.5045 6.00148 7.6497 5.98818 7.79394C5.88658 7.85683 5.78498 7.82781 5.6979 7.74072C5.6979 7.74072 5.41246 7.52302 5.41246 7.47947C5.48987 6.99568 5.43181 6.94246 5.38827 6.807C5.35924 6.62315 5.27216 6.5651 5.19959 6.43931C5.12702 6.3619 5.0351 6.3619 4.98672 6.43931C4.86093 6.65702 4.91899 7.12146 5.01091 7.3295C5.07864 7.52301 5.1754 7.64396 5.12702 7.64396C5.08832 7.7504 5.01091 7.72621 4.95285 7.60042C4.88105 7.33395 4.84685 7.05875 4.85126 6.78281C4.82707 6.5651 4.80288 6.10549 4.65774 5.98938C4.57065 5.87327 4.44003 5.93132 4.39649 6.03776C4.38425 6.24745 4.3891 6.45779 4.411 6.66669C4.50776 7.00535 4.53679 7.31498 4.58517 7.66815C4.59968 8.14227 4.3094 7.87619 4.32392 7.63913C4.39165 7.33433 4.3723 6.85054 4.31424 6.72959C4.26586 6.60864 4.21264 6.57961 4.10137 6.59896C4.00461 6.58929 3.77723 6.84086 3.71433 7.2666C3.71433 7.2666 3.65628 7.48431 3.63209 7.67299C3.59822 7.8907 3.45792 8.04552 3.35632 7.64396C3.26924 7.35369 3.21602 6.63283 3.07088 6.80216Z" fill="white"/>
<path fill-rule="evenodd" clip-rule="evenodd" d="M4.63844 9.10513L3.13867 9.82599C3.15319 9.48733 3.84985 8.86807 4.32397 8.8584C4.6336 8.86807 4.5562 8.97935 4.63844 9.1003V9.10513Z" fill="white"/>
<path fill-rule="evenodd" clip-rule="evenodd" d="M4.37732 9.57446C3.58389 11.6112 6.22543 11.8967 6.52054 9.6567C6.54957 9.56478 6.66568 9.47286 6.68019 9.62283C6.6173 11.6548 4.63857 11.7902 4.29991 11.1516C4.21767 11.0065 4.19348 10.6678 4.1838 10.4646C4.13542 10.0679 3.92255 10.2227 3.89352 10.6195C3.85966 10.8372 3.8645 10.9001 3.8645 11.1129C3.97093 12.7095 6.52538 12.0225 6.94144 10.7017C7.15915 9.97117 6.90274 9.42932 7.02369 9.42932C7.27527 9.70508 7.63327 9.46802 7.71068 9.37126C7.74455 9.32288 7.82679 9.29385 7.88485 9.35675C8.07837 9.50189 8.43154 9.42932 8.50411 9.18258C8.54281 8.93584 8.57668 8.68427 8.58635 8.42302C8.4267 8.4714 8.30575 8.50526 8.29608 8.56816L8.26221 8.7907C8.2477 8.85844 8.1074 8.86327 8.10256 8.77135C8.03966 8.49559 7.78809 8.45688 7.63327 8.88746C7.53168 8.97455 7.343 8.98422 7.32364 8.86327C7.34783 8.573 7.23172 8.53429 6.9995 8.66976L6.77212 6.97647C6.86888 6.97647 6.9608 7.0442 7.04788 6.93292C6.95112 6.62813 6.74309 6.01371 6.63182 5.96533C6.57376 5.8976 6.53022 5.94114 6.45765 5.95566C6.33186 5.99436 6.21575 6.10079 6.25445 6.30883L6.64149 8.73749C6.66084 8.83908 6.57376 8.97939 6.46249 8.96487C6.27381 8.83425 6.22543 8.57783 5.90612 8.58751C5.66906 8.58751 5.40297 8.84392 5.37394 9.09066C5.3304 9.28418 5.31589 9.49705 5.37394 9.66638C5.5336 9.8599 5.73195 9.84538 5.90612 9.797C6.04642 9.73895 6.16253 9.59865 6.21575 9.63251C6.24962 9.67605 6.22059 10.1405 5.54327 10.5033C5.13688 10.6872 4.8079 10.7259 4.63373 10.3921C4.5273 10.184 4.64341 9.39061 4.37732 9.56962V9.57446Z" fill="white"/>
<path fill-rule="evenodd" clip-rule="evenodd" d="M7.73005 7.49878C7.8897 7.44556 8.63959 6.57957 8.63959 6.57957L8.52831 6.49248C8.48477 6.45378 8.48961 6.41991 8.52831 6.38121C8.71216 6.27477 8.6541 6.03288 8.55734 5.92644C8.49424 5.89493 8.42468 5.87852 8.35415 5.87852C8.28362 5.87852 8.21405 5.89493 8.15095 5.92644C8.02033 6.05707 7.9913 6.25542 8.0929 6.38121C8.18966 6.42959 8.29609 6.52635 8.22836 6.5844C7.91873 6.91339 7.07692 7.47943 7.17368 7.50362C7.19303 7.52781 7.71553 7.52781 7.73005 7.50362V7.49878ZM3.1872 10.5467C2.90659 10.9966 2.8824 11.6691 3.04206 11.8675C3.11946 11.9642 3.25493 12.0029 3.35653 11.9739C3.53553 11.8965 3.61294 11.5385 3.5694 11.4079C3.51134 11.3111 3.46296 11.3014 3.4049 11.3788C3.27912 11.6304 3.2259 11.4562 3.21622 11.3159C3.19687 11.0498 3.22106 10.7983 3.25009 10.6048C3.28396 10.4064 3.25009 10.4645 3.1872 10.5467ZM15.2386 9.821C14.9677 9.23561 14.5903 8.65505 14.4693 8.43251C14.1045 7.85475 13.7172 7.2915 13.3082 6.74406C13.0179 6.39572 13.7872 6.8892 13.2115 6.19737C12.9938 6.00385 12.9792 5.99901 12.7954 5.84419C12.7035 5.77646 12.4809 5.66035 12.4422 5.85387C12.423 5.99257 12.4296 6.13362 12.4616 6.26994C12.4809 6.3667 12.6212 6.52635 12.6938 6.62311C13.613 7.85679 14.4306 9.10982 15.2144 10.6773C15.3402 10.6193 15.3111 9.9226 15.2386 9.821Z" fill="white"/>
<path fill-rule="evenodd" clip-rule="evenodd" d="M14.0434 11.7901C13.9902 11.853 14.174 12.1094 14.4159 12.1094C14.8223 12.061 15.1755 11.8336 15.5045 11.2386C15.5916 11.0934 15.7464 10.8032 15.7512 10.5661C15.7851 9.21147 15.6835 8.15679 15.4803 7.17952C15.4706 7.08276 15.4803 6.96665 15.4948 6.93762C15.519 6.90859 15.6061 6.93762 15.6545 6.86505C15.7222 6.79248 15.4706 6.20709 15.3303 5.98454C15.2771 5.88295 15.2577 5.81521 15.1755 5.99422C15.0836 6.13936 15.0304 6.39577 15.0304 6.63283C15.2239 7.96811 15.2868 9.1389 15.4126 10.4693C15.4222 10.6 15.4029 10.7886 15.3158 10.8612C14.9619 11.2571 14.5283 11.5737 14.0434 11.7901ZM19.5006 11.7853C19.2104 11.9498 19.2104 12.1433 19.4474 12.153C19.849 12.1046 20.3279 12.0707 20.6569 11.5724C20.744 11.4321 20.8504 11.0547 20.8553 10.8273C20.8843 9.47272 20.8359 8.45675 20.6327 7.47948C20.623 7.38272 20.5795 7.16501 20.594 7.13598C20.623 7.06825 20.7537 7.14082 20.8021 7.06341C20.8698 6.99568 20.4634 6.46834 20.3183 6.24096C20.265 6.1442 20.2457 6.07646 20.1634 6.25547C20.0715 6.40061 20.0425 6.66186 20.0764 6.88924C20.2941 8.34063 20.4537 9.42918 20.4827 10.7112C20.4682 10.837 20.4634 10.9048 20.4053 11.0547C20.2796 11.2192 20.1393 11.4224 20.0038 11.5192C19.8732 11.6159 19.5926 11.7127 19.5006 11.7853Z" fill="white"/>
<path fill-rule="evenodd" clip-rule="evenodd" d="M19.719 10.4838V9.59845C19.7153 9.37783 19.6658 9.16039 19.5738 8.95983C19.4868 8.76632 19.54 8.61634 19.5013 8.40831C19.4626 8.20511 19.4722 7.89548 19.4142 7.65358C19.3948 7.55682 19.3465 7.25687 19.3658 7.22784C19.3852 7.16011 19.4771 7.22784 19.5206 7.15043C19.5884 7.07786 19.2884 6.30379 19.1384 6.08608C19.0852 5.98932 18.9885 6.01835 18.8627 6.18284C18.7514 6.28444 18.7949 6.52634 18.8385 6.75372C19.1288 8.268 19.3416 9.64199 19.2981 11.0789C19.2836 11.2047 19.7238 10.716 19.719 10.4838ZM17.5758 8.60666C17.3968 8.60666 17.0146 8.24865 16.8984 8.04546C16.8817 7.99648 16.8752 7.94457 16.8794 7.89297C16.8835 7.84136 16.8982 7.79117 16.9226 7.7455C16.9904 7.69712 17.0968 7.64874 17.1742 7.69712C17.1742 7.69712 17.2516 7.81324 17.2371 7.82775C17.3339 7.87613 17.3822 7.8471 17.3919 7.80356C17.3968 7.73583 17.3581 7.69229 17.3581 7.61004C17.4064 7.40201 17.6483 7.36814 17.7354 7.50361C17.8032 7.58585 17.8273 7.76002 17.837 7.88097C17.837 7.93902 17.7403 7.86645 17.6822 7.88097C17.629 7.90032 17.6145 7.96321 17.6096 8.02127C17.6 8.17608 17.5806 8.42282 17.5758 8.60182V8.60666ZM14.2085 10.8612C14.2569 10.3967 14.194 9.57909 14.1892 9.30817C14.1698 8.66472 14.0634 7.42136 14.015 7.21817C13.957 6.82629 14.1747 7.26171 14.1456 7.03432C14.0731 6.64728 13.8554 6.37636 13.6038 6.01835C13.5215 5.90708 13.5264 5.88289 13.3958 6.04738C13.2603 6.36668 13.3812 6.58439 13.4151 6.83113C13.599 7.63907 13.7054 8.37928 13.7538 9.11465C13.808 9.87951 13.8145 10.647 13.7731 11.4127C13.9134 11.4224 14.136 11.1901 14.2085 10.8612Z" fill="white"/>
<path fill-rule="evenodd" clip-rule="evenodd" d="M20.3428 10.121C20.0186 9.58398 19.5348 8.99859 19.4042 8.78088C18.971 8.17276 18.516 7.58053 18.0399 7.00534C17.6384 6.58444 18.2238 6.93761 17.9625 6.61347C17.74 6.37157 17.6722 6.29416 17.4884 6.14902C17.3916 6.08613 17.3336 5.97002 17.3045 6.16838C17.29 6.34254 17.2804 6.54574 17.29 6.69571C17.29 6.77796 17.3771 6.92794 17.4497 7.01986C18.4173 8.21484 19.4816 9.43884 20.3379 10.9725C20.4589 10.9047 20.4202 10.2178 20.3379 10.121H20.3428Z" fill="white"/>
<path fill-rule="evenodd" clip-rule="evenodd" d="M5.74678 9.12434C5.72259 9.16789 5.66937 9.2211 5.68872 9.26948C5.72743 9.31786 5.75645 9.33238 5.81451 9.33721C5.86289 9.33721 5.9403 9.34689 5.95481 9.31786C5.97225 9.29654 5.98369 9.27096 5.98794 9.24374C5.99219 9.21653 5.98911 9.18867 5.979 9.16305C5.93062 9.02758 5.77581 9.07596 5.74678 9.12434Z" fill="#1BA400"/>
<path fill-rule="evenodd" clip-rule="evenodd" d="M16.6033 16.9958C17.0339 17.0103 17.3145 17.0151 17.6967 17.0587L18.1418 17.0103C18.6401 16.9619 18.6643 17.7215 18.6643 17.7215C18.6594 18.1665 18.4853 18.1859 18.2676 18.2343C18.1418 18.2536 18.074 18.1617 18.0112 18.0649C17.9289 18.0988 17.8176 18.1037 17.6773 18.0843C17.4983 18.0746 17.3193 18.0746 17.1452 18.0601C16.9516 18.0456 16.85 18.0843 16.6614 18.0649C16.6178 18.1278 16.5646 18.2101 16.4533 18.1859C16.3566 18.1762 16.2405 17.9005 16.2743 17.6973C16.3421 17.5473 16.3227 17.5957 16.3179 17.5279C14.5568 17.4844 12.7862 17.407 11.059 17.4312C9.70436 17.4312 8.37392 17.4892 7.04348 17.5473C6.3323 17.5376 5.78561 17.4215 5.41309 16.87C5.44695 16.87 7.22732 16.9764 7.74499 16.9425C8.71258 16.928 9.58825 16.8506 10.5704 16.8216C12.5055 16.8555 14.4165 16.8555 16.3517 16.9909C16.1679 16.8651 16.1582 16.5652 16.4485 16.4926C16.4678 16.4781 16.4824 16.6377 16.5259 16.6377C16.7484 16.6232 16.6517 16.928 16.6033 16.9958ZM8.84321 6.33771C8.55293 7.17468 9.0077 8.08906 9.327 8.00197C9.55922 8.09873 9.70436 7.65848 9.80112 7.17952C9.86402 7.04405 9.9124 7.02954 9.94626 7.09727C9.93659 7.73588 9.99464 7.87619 10.1591 8.0697C10.2538 8.1542 10.3755 8.20209 10.5024 8.20476C10.6292 8.20742 10.7528 8.16467 10.851 8.08422L11.1364 7.79394C11.1993 7.73105 11.2815 7.72621 11.3735 7.78426C11.4605 7.86651 11.446 8.00197 11.6347 8.09873C11.7895 8.16163 12.1282 8.11325 12.2056 7.97778C12.3072 7.79878 12.3362 7.73588 12.3846 7.66815C12.4572 7.57139 12.583 7.6101 12.583 7.64396C12.5733 7.69718 12.5007 7.75524 12.5491 7.852C12.6362 7.91973 12.6604 7.87619 12.7136 7.86167C12.8974 7.77459 13.0377 7.3682 13.0377 7.3682C13.0426 7.22306 12.9603 7.23274 12.9071 7.26176L12.762 7.36336C12.6652 7.37787 12.491 7.43593 12.404 7.30047C12.3169 7.14081 12.312 6.91343 12.2443 6.74894C12.2443 6.73926 12.1282 6.49253 12.2395 6.47801C12.2927 6.48769 12.4136 6.51672 12.433 6.41996C12.491 6.3232 12.3072 6.04743 12.1814 5.90713C12.075 5.79102 11.9202 5.77651 11.775 5.89746C11.6783 5.99422 11.6879 6.09097 11.6686 6.19257C11.6518 6.26316 11.6519 6.33669 11.6687 6.40726C11.6855 6.47783 11.7186 6.54349 11.7653 6.59896C11.8669 6.79732 12.0556 7.05373 11.9927 7.42142C11.9927 7.42142 11.8815 7.59074 11.6928 7.56655C11.6154 7.5472 11.4896 7.51818 11.4218 7.01503C11.3735 6.63283 11.4315 6.10065 11.2719 5.85391C11.2138 5.6991 11.1751 5.55396 11.03 5.81521C10.9913 5.91197 10.8268 6.06678 10.9429 6.38609C11.0536 6.66729 11.087 6.97298 11.0396 7.27144C10.9719 7.37304 10.9574 7.41174 10.8655 7.51334C10.7445 7.64396 10.6091 7.6101 10.5075 7.56172C10.4107 7.49882 10.3333 7.46496 10.2898 7.25693C10.2994 6.92794 10.3139 6.39093 10.2559 6.27482C10.1688 6.10065 10.0237 6.16354 9.96078 6.21676C9.68005 6.52808 9.49232 6.91193 9.41892 7.32466C9.33668 7.59074 9.24959 7.51818 9.1867 7.4069C9.03672 7.26176 9.02705 6.15387 8.84321 6.33771Z" fill="white"/>
<path fill-rule="evenodd" clip-rule="evenodd" d="M9.72294 8.16166C9.8584 8.0649 9.79551 8.00201 9.99386 8.20036C10.2492 8.64928 10.3981 9.15077 10.4293 9.66627C10.4148 9.78722 10.5018 9.85979 10.5406 9.8356C10.5599 9.555 11.2517 9.15828 11.8807 9.10023C11.9774 9.08088 11.929 8.89703 11.9436 8.80027C11.9049 8.45194 12.1371 8.13263 12.4709 8.10844C12.916 8.17618 13.066 8.41324 13.0756 8.77608C13.0273 9.47759 12.2967 9.59854 11.8855 9.64692C11.8226 9.67595 11.7984 9.70497 11.8855 9.73884L13.603 9.74368L13.6901 9.79206C13.6997 9.84044 13.6659 9.80173 13.5933 9.91301C13.5207 10.0243 13.4288 10.2855 13.424 10.4549C12.9091 10.6052 12.3809 10.7056 11.8468 10.7548C11.663 10.8516 11.571 10.9774 11.6049 11.1177C11.6678 11.2773 12.0839 11.4321 12.0839 11.4418C12.1613 11.4902 12.2532 11.6063 12.0597 11.8385C11.2227 11.8047 10.5744 11.4466 10.3519 10.9435C10.2841 10.8951 10.2067 10.9435 10.1632 11.0112C9.87191 11.459 9.45196 11.8081 8.95854 12.0127C8.62472 12.0949 8.28606 11.9643 8.12641 11.7466C8.01997 11.6208 8.02481 11.4853 7.98127 11.4563C7.80226 11.5337 6.25895 12.1917 6.45731 11.8869C6.82983 11.4805 7.48296 11.1854 8.05384 10.7887C8.10222 10.6581 8.17479 10.2081 8.40217 10.063C8.41185 10.063 8.36347 10.3242 8.36831 10.4355C8.36831 10.5274 8.36347 10.5613 8.38282 10.5371C8.42152 10.5129 9.11819 9.96622 9.17141 9.79689C9.23914 9.70014 9.19076 9.45824 9.19076 9.44856C9.06497 9.1099 8.88113 9.08571 8.8134 8.91638C8.75051 8.69384 8.77953 8.44226 8.90532 8.36969C9.01659 8.2681 9.14722 8.27777 9.27301 8.38905C9.41815 8.51483 9.53909 8.76157 9.5778 8.94541C9.55361 9.01798 9.39395 8.89703 9.3359 8.93574C9.43266 9.0325 9.48104 9.15344 9.5149 9.29858C9.61166 9.68562 9.5778 9.83076 9.49071 10.0823C9.18108 10.7306 8.78437 10.929 8.43604 11.166C8.42636 11.1709 8.42152 11.3354 8.55215 11.4225C8.60053 11.4708 8.77953 11.4902 8.98756 11.4225C9.44008 11.1726 9.80614 10.7914 10.0374 10.3291C10.1003 9.98074 10.0132 9.61305 9.92129 9.29375C9.81584 9.03907 9.71902 8.78089 9.63102 8.51967C9.62134 8.32615 9.63585 8.25842 9.72777 8.16166H9.72294ZM5.2333 6.35226C5.42682 6.44418 5.79934 6.40064 5.78483 6.08617L5.77515 5.9362C5.73645 5.83944 5.62518 5.86363 5.60099 5.96522C5.59131 5.99425 5.6155 6.04747 5.58647 6.06198C5.56712 6.0765 5.50423 6.06682 5.50907 5.97974C5.50907 5.95071 5.48971 5.92168 5.4752 5.90233C5.46069 5.89749 5.45585 5.89265 5.43166 5.89265C5.40263 5.89265 5.40747 5.90233 5.38812 5.92652L5.3736 5.99909C5.3736 6.03295 5.35909 6.04263 5.3349 6.04747C5.31071 6.04747 5.31555 6.04747 5.2962 6.03779C5.28168 6.02328 5.26717 6.01844 5.26717 5.99425L5.25749 5.91684C5.24461 5.90258 5.22776 5.89247 5.20911 5.88782C5.09784 5.88782 5.093 6.0136 5.09784 6.06198C5.08816 6.06682 5.08332 6.28937 5.2333 6.35226Z" fill="white"/>
<path fill-rule="evenodd" clip-rule="evenodd" d="M11.02 8.80028C11.2135 8.89704 11.6877 8.83899 11.5715 8.53419L11.5619 8.38905C11.5232 8.2923 11.4167 8.31649 11.3877 8.41324C11.3829 8.44227 11.4022 8.49549 11.3732 8.51C11.3587 8.52936 11.2958 8.51968 11.2958 8.4326C11.2958 8.40357 11.2764 8.37454 11.2619 8.35519C11.2522 8.34551 11.2426 8.34551 11.2184 8.34551C11.1942 8.34551 11.1942 8.35035 11.1797 8.37454L11.1652 8.44711C11.1603 8.48098 11.1458 8.49549 11.1264 8.49549C11.0974 8.49549 11.1071 8.49549 11.0829 8.48581C11.0732 8.4713 11.0539 8.46646 11.0539 8.44227C11.0539 8.41808 11.0539 8.37938 11.0442 8.36487C11.0345 8.35035 11.0152 8.34551 10.9958 8.34068C10.8894 8.34068 10.8797 8.46162 10.8846 8.51C10.8797 8.51968 10.8749 8.73739 11.02 8.80028ZM14.3969 7.78431C14.5904 7.88107 14.963 7.83753 14.9484 7.52306L14.9388 7.37308C14.9001 7.27632 14.7888 7.30051 14.7646 7.39727C14.7549 7.43114 14.7791 7.47952 14.7501 7.49403C14.7307 7.51338 14.6678 7.50371 14.6727 7.41662C14.6727 7.3876 14.6485 7.35857 14.6388 7.33922C14.6243 7.33438 14.6195 7.32954 14.5904 7.32954C14.5662 7.32954 14.5662 7.33922 14.5517 7.36341L14.5372 7.43598C14.5372 7.465 14.5227 7.47952 14.4985 7.48435C14.4743 7.48435 14.4792 7.48435 14.4598 7.46984C14.4453 7.46016 14.4308 7.45049 14.4308 7.43114C14.4308 7.40695 14.4259 7.36824 14.4163 7.34889C14.4066 7.33438 14.3921 7.32954 14.3679 7.3247C14.2615 7.3247 14.2566 7.45049 14.2615 7.49403C14.2518 7.50371 14.2469 7.72625 14.3969 7.78431ZM16.1386 10.3339C15.7999 10.721 15.9499 11.3596 16.0273 11.495C16.1434 11.7273 16.2305 11.8724 16.4531 11.9837C16.6562 12.1288 16.8111 12.0369 16.8981 11.9353C17.1013 11.7273 17.1013 11.1902 17.1981 11.0838C17.2658 10.8903 17.4303 10.9242 17.5126 11.0112C17.5873 11.1164 17.687 11.2012 17.8028 11.258C17.9915 11.4225 18.2141 11.4515 18.4366 11.3064C18.5866 11.2193 18.6882 11.108 18.7753 10.8903C18.872 10.6242 18.8237 9.40503 18.7995 8.68417C18.7946 8.62612 18.6059 7.68755 18.6059 7.67787C18.6059 7.6682 18.5769 7.19891 18.5576 7.08764C18.5576 7.0441 18.5431 7.02959 18.5914 7.03926C18.6398 7.07797 18.6495 7.0828 18.6785 7.09732C18.7269 7.10699 18.7753 7.01991 18.7462 6.93766L18.2721 6.06683C18.2383 6.03296 18.1899 5.99426 18.127 6.08134C18.0904 6.11326 18.0611 6.15267 18.041 6.19692C18.021 6.24116 18.0107 6.28919 18.0109 6.33776C18.0254 6.54579 18.0593 6.75382 18.0738 6.96185L18.2673 8.01653C18.3253 8.77125 18.3399 9.38568 18.3979 10.1452C18.3882 10.4597 18.2915 10.7403 18.1947 10.7742C18.1947 10.7742 18.0544 10.8613 17.9625 10.7742C17.8899 10.7403 17.6142 10.3097 17.6142 10.3097C17.469 10.1791 17.3819 10.213 17.2755 10.3097C17.0046 10.5758 16.8788 11.079 16.6901 11.4225C16.6417 11.4999 16.5014 11.5676 16.3515 11.4176C15.9644 10.8854 16.1918 10.1404 16.1434 10.3339H16.1386ZM14.484 5.9362C14.663 6.00877 14.784 6.37162 14.7452 6.54579C14.7114 6.75866 14.6146 6.99572 14.5517 6.96185C14.4743 6.93766 14.6001 6.74898 14.5275 6.55063C14.4888 6.42484 14.2469 6.18778 14.2711 6.12005C14.2227 5.97491 14.3776 5.91202 14.484 5.9362Z" fill="white"/>
<path fill-rule="evenodd" clip-rule="evenodd" d="M16.7142 10.5467C16.748 10.1113 16.6852 9.85007 16.6755 9.59849C16.6658 9.34692 16.3852 7.42141 16.3368 7.22789C16.2642 6.86504 16.6029 7.17951 16.5642 6.96664C16.4481 6.70055 16.1627 6.31351 16.0707 6.08613C16.0175 5.98937 16.0369 5.89745 15.9159 6.0571C15.8115 6.34482 15.775 6.65281 15.8095 6.95696C16.0998 8.47125 16.3949 9.72912 16.3465 11.1708C16.4868 11.1708 16.6464 10.8564 16.7142 10.5419V10.5467ZM19.7331 6.54574C19.8976 6.62798 19.9895 7.07791 19.975 7.2037C19.9411 7.44076 19.854 7.6875 19.7911 7.65847C19.7282 7.62944 19.8056 7.31013 19.7718 7.21337C19.7379 7.07307 19.5202 6.8215 19.5396 6.74409C19.496 6.58928 19.6363 6.52154 19.7331 6.55057V6.54574ZM7.74942 9.72912C7.90424 9.79201 7.99132 10.1162 7.9768 10.2129C7.94778 10.3871 7.86553 10.5709 7.80748 10.5516C7.74458 10.5274 7.81715 10.2952 7.78812 10.2226C7.77361 10.0436 7.56074 9.95166 7.56558 9.8791C7.52687 9.73396 7.6575 9.70977 7.74942 9.73396V9.72912Z" fill="white"/>
<path fill-rule="evenodd" clip-rule="evenodd" d="M11.48 10.2275C11.6735 10.2372 11.7751 10.3968 11.5912 10.4597C11.4074 10.5226 11.2284 10.571 11.2284 10.8371C11.2961 11.2096 11.1316 11.079 11.0349 11.0306C10.9236 10.9484 10.6043 10.7548 10.5608 10.3291C10.5559 10.2323 10.6333 10.1453 10.7591 10.1453C10.9526 10.1936 11.2332 10.2033 11.4751 10.2275H11.48Z" fill="#1B9D00"/>
<path fill-rule="evenodd" clip-rule="evenodd" d="M3.62762 5.82972C3.85501 5.89745 3.86952 6.23127 3.85017 6.33287C3.82114 6.51188 3.7389 6.70056 3.68084 6.67637C3.61795 6.65701 3.68084 6.41512 3.65181 6.33771C3.61795 6.23127 3.42443 6.03775 3.44862 5.9797C3.40024 5.86359 3.5357 5.81037 3.62762 5.83456V5.82972ZM8.1221 7.4069C7.94793 7.50366 7.8802 7.78426 7.98663 7.94875C8.08823 8.09389 8.24788 8.04067 8.27207 8.04067C8.4414 8.06003 8.543 7.71653 8.543 7.71653C8.543 7.71653 8.54784 7.61977 8.34948 7.80361C8.2624 7.81813 8.25272 7.7891 8.22853 7.74072C8.2079 7.64969 8.21811 7.55439 8.25756 7.46979C8.28659 7.38755 8.21886 7.34884 8.1221 7.4069ZM9.42835 5.6991C9.3461 5.76199 9.1671 5.941 9.16226 6.14903C9.16226 6.26514 9.13807 6.26514 9.21064 6.34255C9.26869 6.41995 9.32675 6.41512 9.43802 6.35706C9.46572 6.33912 9.48944 6.3157 9.50775 6.28824C9.52605 6.26078 9.53855 6.22987 9.54446 6.19741C9.57349 6.06195 9.40416 6.2603 9.38481 6.11032C9.3461 5.97486 9.45254 5.91681 9.55414 5.78134C9.55414 5.68942 9.55414 5.62653 9.43319 5.6991H9.42835ZM10.4879 5.89262C10.4457 6.06232 10.4198 6.23566 10.4105 6.41028C10.3814 6.5409 10.5459 6.59412 10.6233 6.42479C10.7346 6.12 10.7346 5.98938 10.7443 5.85875C10.7104 5.66523 10.5749 5.66523 10.4879 5.88778V5.89262ZM17.1401 9.27436C17.1594 9.25017 18.0786 8.59704 18.0786 8.59704C18.1706 8.56801 18.1512 8.9357 18.1077 8.9357C17.8238 9.21088 17.497 9.43801 17.1401 9.60818C17.0917 9.6372 17.0481 9.3566 17.1401 9.26952V9.27436ZM17.9722 9.26952C18.1319 9.34693 18.1996 9.82105 18.1802 9.94683C18.1851 10.1984 18.0254 10.3968 17.9625 10.3629C17.8948 10.3339 17.9674 10.0533 17.9383 9.95651C17.9045 9.81621 17.7642 9.55496 17.7884 9.48239C17.74 9.32274 17.8754 9.24049 17.9722 9.26952ZM12.5343 11.3015C12.5972 11.2047 12.7907 11.0741 12.7956 11.0741C12.8875 11.0257 12.9746 11.1079 12.9697 11.1031C12.9843 11.195 12.9117 11.2773 12.9359 11.3982C12.9552 11.4466 12.9697 11.4998 13.0617 11.4805C13.2068 11.3692 13.3423 11.3595 13.4874 11.3498C13.5987 11.3595 13.5987 11.5434 13.5309 11.5482C13.26 11.6063 13.1439 11.6788 12.9504 11.7514C12.8585 11.8046 12.7811 11.7369 12.7811 11.732C12.7811 11.7272 12.7327 11.6788 12.7665 11.5579C12.7714 11.4611 12.7327 11.4127 12.6553 11.4224C12.5924 11.4514 12.5392 11.4708 12.5101 11.4031C12.4956 11.3547 12.4956 11.3305 12.5343 11.3015ZM18.935 11.553C18.9737 11.6014 19.0027 11.6498 18.935 11.732L18.7608 11.8772C18.7269 11.9352 18.7124 12.0126 18.8043 12.0368C18.9737 12.0852 19.3704 11.8288 19.3704 11.824C19.4333 11.7756 19.4139 11.6837 19.4042 11.6837C19.3704 11.6401 19.2833 11.6643 19.2301 11.6595C19.201 11.6595 19.114 11.645 19.1527 11.5676C19.1914 11.5192 19.201 11.4901 19.2252 11.4273C19.2543 11.3692 19.2301 11.3305 19.1333 11.2966C19.0366 11.2821 18.9978 11.2918 18.8914 11.2966C18.8285 11.3111 18.8092 11.3353 18.7947 11.4079C18.8043 11.5143 18.8672 11.5095 18.9398 11.553H18.935Z" fill="white"/>
<path fill-rule="evenodd" clip-rule="evenodd" d="M12.5677 8.89225C12.5435 8.94063 12.4564 8.93579 12.3741 8.89225C12.2919 8.84871 12.2532 8.7713 12.2774 8.72776C12.3016 8.68422 12.3887 8.68422 12.4709 8.72776C12.5532 8.7713 12.5919 8.84871 12.5677 8.89225ZM8.3925 6.38618C8.34412 6.4007 8.28123 6.35715 8.2522 6.28942C8.22317 6.22169 8.23768 6.16847 8.28606 6.15396C8.33444 6.13945 8.39734 6.18782 8.42637 6.25072C8.45539 6.31361 8.44088 6.37651 8.3925 6.38618Z" fill="#259F00"/>
<path fill-rule="evenodd" clip-rule="evenodd" d="M16.6512 17.5764C17.0866 17.5958 17.5027 17.5813 17.9381 17.6054C18.0204 17.6683 17.9623 17.8377 17.9091 17.8232L17.5414 17.8135C17.5414 17.6732 17.1786 17.6974 17.1931 17.8183C16.9996 17.8425 16.8254 17.8135 16.6319 17.8038C16.5738 17.7312 16.5835 17.6054 16.6512 17.5764Z" fill="#209000"/>
</g>
</g>
<defs>
<clipPath id="clip0_208_25015">
<rect width="24" height="24" rx="12" fill="white"/>
</clipPath>
</defs>
</svg>
