<svg width="24" height="24" viewBox="0 0 24 24" fill="none" xmlns="http://www.w3.org/2000/svg">
<g clip-path="url(#clip0_208_8918)">
<path fill-rule="evenodd" clip-rule="evenodd" d="M0 0H24V12.1781H0V0Z" fill="#FF0000"/>
<path fill-rule="evenodd" clip-rule="evenodd" d="M0 11.8219H24V24H0V11.8219Z" fill="black"/>
<path fill-rule="evenodd" clip-rule="evenodd" d="M10.7205 6.94683C18.4643 8.97651 13.4861 18.9281 7.37832 14.7843L6.96582 15.4218C10.5611 17.9812 14.1189 15.9187 15.1221 13.2468C16.1627 10.4906 14.7658 6.61401 10.7814 6.21558L10.7205 6.94683Z" fill="#FFEC00"/>
<path fill-rule="evenodd" clip-rule="evenodd" d="M7.96836 15.5062L8.98555 15.9797L8.50742 17.0016L7.49023 16.5234L7.96836 15.5062ZM14.9527 10.8422H16.0777V11.9672H14.9527V10.8422ZM14.4043 9.01875L15.4496 8.61563L15.8574 9.66094L14.8121 10.0688L14.4043 9.01875ZM13.1855 7.65469L13.9871 6.8625L14.7793 7.65937L13.9824 8.45156L13.1855 7.65469ZM11.9574 5.78906L13.0074 6.18281L12.609 7.23281L11.559 6.83906L11.9574 5.78906ZM14.8121 12.6562L15.8574 13.0734L15.4355 14.1141L14.3949 13.6969L14.8121 12.6562ZM11.5355 15.9375L12.5668 15.5016L13.0121 16.5328L11.9809 16.9734L11.5355 15.9375ZM9.68398 16.0687H10.809V17.1937H9.68398V16.0687ZM11.6199 10.6313L10.6684 9.92813L9.7168 10.6125L10.0918 9.53437L9.14023 8.83125H10.2887L10.6871 7.77188L11.0527 8.83594L12.2105 8.82187L11.2918 9.53906L11.6199 10.6359V10.6313Z" fill="#FFEC00"/>
<path fill-rule="evenodd" clip-rule="evenodd" d="M15.7496 16.2375C15.6934 16.2563 15.459 16.8188 15.2949 17.0907L15.4684 17.1375C16.1059 17.3625 16.4246 17.5688 16.6965 17.9579C16.7594 18.0191 16.842 18.056 16.9295 18.062C17.0171 18.0681 17.104 18.0428 17.1746 17.9907C17.1746 17.9907 17.3059 17.9438 17.4746 17.7563C17.6152 17.5454 17.5777 17.3813 17.409 17.236C16.8934 16.861 16.3355 16.5797 15.7496 16.2375Z" fill="#FFEE00"/>
<path fill-rule="evenodd" clip-rule="evenodd" d="M17.1238 17.475C17.1238 17.529 17.1023 17.5809 17.0641 17.6191C17.0259 17.6574 16.974 17.6789 16.9199 17.6789C16.8658 17.6789 16.814 17.6574 16.7757 17.6191C16.7375 17.5809 16.716 17.529 16.716 17.475C16.716 17.4215 16.7373 17.3702 16.7751 17.3324C16.8129 17.2946 16.8641 17.2734 16.9176 17.2734C16.971 17.2734 17.0223 17.2946 17.0601 17.3324C17.0979 17.3702 17.1191 17.4215 17.1191 17.475H17.1238ZM16.1207 16.8375C16.1207 16.8915 16.0992 16.9434 16.061 16.9816C16.0227 17.0199 15.9709 17.0414 15.9168 17.0414C15.8627 17.0414 15.8109 17.0199 15.7726 16.9816C15.7344 16.9434 15.7129 16.8915 15.7129 16.8375C15.7129 16.7834 15.7344 16.7315 15.7726 16.6933C15.8109 16.655 15.8627 16.6335 15.9168 16.6335C15.9709 16.6335 16.0227 16.655 16.061 16.6933C16.0992 16.7315 16.1207 16.7834 16.1207 16.8375ZM16.6316 17.1656C16.6316 17.2197 16.6102 17.2715 16.5719 17.3098C16.5337 17.348 16.4818 17.3695 16.4277 17.3695C16.3737 17.3695 16.3218 17.348 16.2836 17.3098C16.2453 17.2715 16.2238 17.2197 16.2238 17.1656C16.2238 17.1115 16.2453 17.0596 16.2836 17.0214C16.3218 16.9832 16.3737 16.9617 16.4277 16.9617C16.4818 16.9617 16.5337 16.9832 16.5719 17.0214C16.6102 17.0596 16.6316 17.1115 16.6316 17.1656Z" fill="black"/>
<path fill-rule="evenodd" clip-rule="evenodd" d="M15.2114 17.0485C13.2145 15.9094 11.1192 14.6813 9.1176 13.5422C8.24104 12.9938 8.19885 11.9766 8.78948 11.2032C8.84573 11.0954 8.92073 11.1188 8.94885 11.1797C9.01916 11.5547 9.2301 11.9438 9.48323 12.1875C11.5608 13.4944 13.6188 14.8321 15.6567 16.2C15.4973 16.4719 15.3754 16.7766 15.2114 17.0438V17.0485Z" fill="#FFEE00"/>
<path fill-rule="evenodd" clip-rule="evenodd" d="M13.9316 14.3203L14.766 15.0703L14.016 15.9047L13.1816 15.1547L13.9316 14.3203Z" fill="#FFEC00"/>
<path d="M15.5391 16.35L9.67969 12.8109M14.8172 15.5344L12.8438 14.2547M13.6969 16.2562L11.6859 15.0937" stroke="black" stroke-width="0.375"/>
</g>
<defs>
<clipPath id="clip0_208_8918">
<rect width="24" height="24" rx="12" fill="white"/>
</clipPath>
</defs>
</svg>
