<svg width="24" height="24" viewBox="0 0 24 24" fill="none" xmlns="http://www.w3.org/2000/svg">
<g clip-path="url(#clip0_208_20091)">
<path d="M0 0H24V24H0V0Z" fill="#003399"/>
<path d="M12.0001 10.9274L11.6445 12.1126L12.2371 12.2311L12.0001 10.9274Z" fill="#FFCC00"/>
<path d="M11.9999 10.9274L12.3555 12.1126L11.7629 12.2311L11.9999 10.9274Z" fill="#FFCC00"/>
<path d="M13.1275 11.7464L11.8904 11.7744L11.9608 12.3747L13.1275 11.7464Z" fill="#FFCC00"/>
<path d="M13.1274 11.7463L12.1101 12.4507L11.8143 11.9238L13.1274 11.7463Z" fill="#FFCC00"/>
<path d="M12.6967 13.0714L12.2877 11.9036L11.7387 12.156L12.6967 13.0714Z" fill="#FFCC00"/>
<path d="M12.6968 13.0714L11.7125 12.3216L12.1223 11.8774L12.6968 13.0714Z" fill="#FFCC00"/>
<path d="M10.8725 11.7464L12.1096 11.7744L12.0392 12.3747L10.8725 11.7464Z" fill="#FFCC00"/>
<path d="M10.8726 11.7463L11.8899 12.4507L12.1857 11.9238L10.8726 11.7463Z" fill="#FFCC00"/>
<path d="M11.3033 13.0714L11.7123 11.9036L12.2613 12.156L11.3033 13.0714Z" fill="#FFCC00"/>
<path d="M11.3032 13.0714L12.2875 12.3216L11.8777 11.8774L11.3032 13.0714Z" fill="#FFCC00"/>
<path d="M12.0001 10.9274L11.6445 12.1126L12.2371 12.2311L12.0001 10.9274Z" fill="#FFCC00"/>
<path d="M11.9999 10.9274L12.3555 12.1126L11.7629 12.2311L11.9999 10.9274Z" fill="#FFCC00"/>
<path d="M13.1275 11.7464L11.8904 11.7744L11.9608 12.3747L13.1275 11.7464Z" fill="#FFCC00"/>
<path d="M13.1274 11.7463L12.1101 12.4507L11.8143 11.9238L13.1274 11.7463Z" fill="#FFCC00"/>
<path d="M12.6967 13.0714L12.2877 11.9036L11.7387 12.156L12.6967 13.0714Z" fill="#FFCC00"/>
<path d="M12.6968 13.0714L11.7125 12.3216L12.1223 11.8774L12.6968 13.0714Z" fill="#FFCC00"/>
<path d="M10.8725 11.7464L12.1096 11.7744L12.0392 12.3747L10.8725 11.7464Z" fill="#FFCC00"/>
<path d="M10.8726 11.7463L11.8899 12.4507L12.1857 11.9238L10.8726 11.7463Z" fill="#FFCC00"/>
<path d="M11.3033 13.0714L11.7123 11.9036L12.2613 12.156L11.3033 13.0714Z" fill="#FFCC00"/>
<path d="M11.3032 13.0714L12.2875 12.3216L11.8777 11.8774L11.3032 13.0714Z" fill="#FFCC00"/>
<path d="M12.0001 10.9274L11.6445 12.1126L12.2371 12.2311L12.0001 10.9274Z" fill="#FFCC00"/>
<path d="M11.9999 10.9274L12.3555 12.1126L11.7629 12.2311L11.9999 10.9274Z" fill="#FFCC00"/>
<path d="M13.1275 11.7464L11.8904 11.7744L11.9608 12.3747L13.1275 11.7464Z" fill="#FFCC00"/>
<path d="M13.1274 11.7463L12.1101 12.4507L11.8143 11.9238L13.1274 11.7463Z" fill="#FFCC00"/>
<path d="M12.6967 13.0714L12.2877 11.9036L11.7387 12.156L12.6967 13.0714Z" fill="#FFCC00"/>
<path d="M12.6968 13.0714L11.7125 12.3216L12.1223 11.8774L12.6968 13.0714Z" fill="#FFCC00"/>
<path d="M10.8725 11.7464L12.1096 11.7744L12.0392 12.3747L10.8725 11.7464Z" fill="#FFCC00"/>
<path d="M10.8726 11.7463L11.8899 12.4507L12.1857 11.9238L10.8726 11.7463Z" fill="#FFCC00"/>
<path d="M11.3033 13.0714L11.7123 11.9036L12.2613 12.156L11.3033 13.0714Z" fill="#FFCC00"/>
<path d="M11.3032 13.0714L12.2875 12.3216L11.8777 11.8774L11.3032 13.0714Z" fill="#FFCC00"/>
<path d="M7.8354 6.96667L8.81968 6.21682L8.40993 5.77262L7.8354 6.96667Z" fill="#FFCC00"/>
<path d="M7.8355 6.96668L8.24449 5.79886L8.79357 6.05129L7.8355 6.96668Z" fill="#FFCC00"/>
<path d="M7.40479 5.6417L8.4221 6.3461L8.71794 5.81914L7.40479 5.6417Z" fill="#FFCC00"/>
<path d="M7.40478 5.64174L8.64183 5.66983L8.57142 6.27004L7.40478 5.64174Z" fill="#FFCC00"/>
<path d="M8.53231 4.82275L8.17676 6.00794L8.76935 6.12646L8.53231 4.82275Z" fill="#FFCC00"/>
<path d="M8.53214 4.82275L8.8877 6.00794L8.2951 6.12646L8.53214 4.82275Z" fill="#FFCC00"/>
<path d="M9.22906 6.96679L8.24477 6.21695L8.65453 5.77275L9.22906 6.96679Z" fill="#FFCC00"/>
<path d="M9.22895 6.9668L8.81997 5.79898L8.27089 6.05141L9.22895 6.9668Z" fill="#FFCC00"/>
<path d="M9.65966 5.6417L8.64235 6.3461L8.34651 5.81914L9.65966 5.6417Z" fill="#FFCC00"/>
<path d="M9.65968 5.64174L8.42263 5.66983L8.49303 6.27004L9.65968 5.64174Z" fill="#FFCC00"/>
<path d="M6.59223 9.60316L6.18325 8.43533L5.63417 8.68776L6.59223 9.60316Z" fill="#FFCC00"/>
<path d="M6.59234 9.60314L5.60805 8.8533L6.01781 8.4091L6.59234 9.60314Z" fill="#FFCC00"/>
<path d="M5.19868 9.60314L6.18296 8.8533L5.77321 8.4091L5.19868 9.60314Z" fill="#FFCC00"/>
<path d="M5.19878 9.60316L5.60777 8.43533L6.15685 8.68776L5.19878 9.60316Z" fill="#FFCC00"/>
<path d="M4.76808 8.27806L5.78538 8.98245L6.08122 8.45549L4.76808 8.27806Z" fill="#FFCC00"/>
<path d="M4.76806 8.27809L6.00511 8.30618L5.9347 8.9064L4.76806 8.27809Z" fill="#FFCC00"/>
<path d="M7.02294 8.27806L6.00563 8.98245L5.7098 8.45549L7.02294 8.27806Z" fill="#FFCC00"/>
<path d="M7.02296 8.27809L5.78591 8.30618L5.85631 8.9064L7.02296 8.27809Z" fill="#FFCC00"/>
<path d="M5.89542 7.45911L6.25098 8.64429L5.65838 8.76281L5.89542 7.45911Z" fill="#FFCC00"/>
<path d="M5.89559 7.45911L5.54004 8.64429L6.13263 8.76281L5.89559 7.45911Z" fill="#FFCC00"/>
<path d="M7.02394 15.4061L5.78688 15.4342L5.85729 16.0344L7.02394 15.4061Z" fill="#FFCC00"/>
<path d="M7.02392 15.4061L6.00661 16.1105L5.71077 15.5835L7.02392 15.4061Z" fill="#FFCC00"/>
<path d="M6.59321 16.7312L6.18423 15.5634L5.63514 15.8158L6.59321 16.7312Z" fill="#FFCC00"/>
<path d="M6.59331 16.7312L5.60903 15.9814L6.01878 15.5371L6.59331 16.7312Z" fill="#FFCC00"/>
<path d="M5.19965 16.7312L6.18394 15.9814L5.77419 15.5371L5.19965 16.7312Z" fill="#FFCC00"/>
<path d="M5.19976 16.7312L5.60874 15.5634L6.15782 15.8158L5.19976 16.7312Z" fill="#FFCC00"/>
<path d="M5.8964 14.5872L6.25195 15.7723L5.65936 15.8909L5.8964 14.5872Z" fill="#FFCC00"/>
<path d="M5.89657 14.5872L5.54102 15.7723L6.13361 15.8909L5.89657 14.5872Z" fill="#FFCC00"/>
<path d="M4.76903 15.4061L6.00608 15.4342L5.93568 16.0344L4.76903 15.4061Z" fill="#FFCC00"/>
<path d="M4.76905 15.4061L5.78636 16.1105L6.0822 15.5835L4.76905 15.4061Z" fill="#FFCC00"/>
<path d="M9.5962 17.7916L8.35915 17.8197L8.42955 18.4199L9.5962 17.7916Z" fill="#FFCC00"/>
<path d="M9.59618 17.7916L8.57888 18.496L8.28304 17.969L9.59618 17.7916Z" fill="#FFCC00"/>
<path d="M9.16547 19.1167L8.75649 17.9489L8.20741 18.2013L9.16547 19.1167Z" fill="#FFCC00"/>
<path d="M9.16558 19.1167L8.1813 18.3668L8.59105 17.9226L9.16558 19.1167Z" fill="#FFCC00"/>
<path d="M7.77192 19.1167L8.7562 18.3668L8.34645 17.9226L7.77192 19.1167Z" fill="#FFCC00"/>
<path d="M7.77203 19.1167L8.18101 17.9489L8.73009 18.2013L7.77203 19.1167Z" fill="#FFCC00"/>
<path d="M8.46866 16.9727L8.82422 18.1578L8.23163 18.2764L8.46866 16.9727Z" fill="#FFCC00"/>
<path d="M8.46884 16.9727L8.11328 18.1578L8.70587 18.2764L8.46884 16.9727Z" fill="#FFCC00"/>
<path d="M7.3413 17.7916L8.57835 17.8197L8.50795 18.4199L7.3413 17.7916Z" fill="#FFCC00"/>
<path d="M7.34132 17.7916L8.35862 18.496L8.65446 17.969L7.34132 17.7916Z" fill="#FFCC00"/>
<path d="M11.9999 10.9274L12.3555 12.1126L11.7629 12.2311L11.9999 10.9274Z" fill="#FFCC00"/>
<path d="M12.0001 10.9274L11.6445 12.1126L12.2371 12.2311L12.0001 10.9274Z" fill="#FFCC00"/>
<path d="M10.8725 11.7464L12.1096 11.7744L12.0392 12.3747L10.8725 11.7464Z" fill="#FFCC00"/>
<path d="M10.8726 11.7463L11.8899 12.4507L12.1857 11.9238L10.8726 11.7463Z" fill="#FFCC00"/>
<path d="M11.3033 13.0714L11.7123 11.9036L12.2613 12.156L11.3033 13.0714Z" fill="#FFCC00"/>
<path d="M11.3032 13.0714L12.2875 12.3216L11.8777 11.8774L11.3032 13.0714Z" fill="#FFCC00"/>
<path d="M13.1275 11.7464L11.8904 11.7744L11.9608 12.3747L13.1275 11.7464Z" fill="#FFCC00"/>
<path d="M13.1274 11.7463L12.1101 12.4507L11.8143 11.9238L13.1274 11.7463Z" fill="#FFCC00"/>
<path d="M12.6967 13.0714L12.2877 11.9036L11.7387 12.156L12.6967 13.0714Z" fill="#FFCC00"/>
<path d="M12.6968 13.0714L11.7125 12.3216L12.1223 11.8774L12.6968 13.0714Z" fill="#FFCC00"/>
<path d="M16.1646 6.96667L15.1803 6.21682L15.5901 5.77262L16.1646 6.96667Z" fill="#FFCC00"/>
<path d="M16.1645 6.96668L15.7555 5.79886L15.2064 6.05129L16.1645 6.96668Z" fill="#FFCC00"/>
<path d="M16.5952 5.6417L15.5779 6.3461L15.2821 5.81914L16.5952 5.6417Z" fill="#FFCC00"/>
<path d="M16.5952 5.64174L15.3582 5.66983L15.4286 6.27004L16.5952 5.64174Z" fill="#FFCC00"/>
<path d="M15.4677 4.82275L15.8232 6.00794L15.2306 6.12646L15.4677 4.82275Z" fill="#FFCC00"/>
<path d="M15.4679 4.82275L15.1123 6.00794L15.7049 6.12646L15.4679 4.82275Z" fill="#FFCC00"/>
<path d="M14.7709 6.96679L15.7552 6.21695L15.3455 5.77275L14.7709 6.96679Z" fill="#FFCC00"/>
<path d="M14.771 6.9668L15.18 5.79898L15.7291 6.05141L14.771 6.9668Z" fill="#FFCC00"/>
<path d="M14.3403 5.6417L15.3576 6.3461L15.6535 5.81914L14.3403 5.6417Z" fill="#FFCC00"/>
<path d="M14.3403 5.64174L15.5774 5.66983L15.507 6.27004L14.3403 5.64174Z" fill="#FFCC00"/>
<path d="M17.4078 9.60316L17.8168 8.43533L18.3658 8.68776L17.4078 9.60316Z" fill="#FFCC00"/>
<path d="M17.4077 9.60314L18.3919 8.8533L17.9822 8.4091L17.4077 9.60314Z" fill="#FFCC00"/>
<path d="M18.8013 9.60314L17.817 8.8533L18.2268 8.4091L18.8013 9.60314Z" fill="#FFCC00"/>
<path d="M18.8012 9.60316L18.3922 8.43533L17.8432 8.68776L18.8012 9.60316Z" fill="#FFCC00"/>
<path d="M19.2319 8.27806L18.2146 8.98245L17.9188 8.45549L19.2319 8.27806Z" fill="#FFCC00"/>
<path d="M19.2319 8.27809L17.9949 8.30618L18.0653 8.9064L19.2319 8.27809Z" fill="#FFCC00"/>
<path d="M16.9771 8.27806L17.9944 8.98245L18.2902 8.45549L16.9771 8.27806Z" fill="#FFCC00"/>
<path d="M16.977 8.27809L18.2141 8.30618L18.1437 8.9064L16.977 8.27809Z" fill="#FFCC00"/>
<path d="M18.1046 7.45911L17.749 8.64429L18.3416 8.76281L18.1046 7.45911Z" fill="#FFCC00"/>
<path d="M18.1044 7.45911L18.46 8.64429L17.8674 8.76281L18.1044 7.45911Z" fill="#FFCC00"/>
<path d="M16.9761 15.4061L18.2131 15.4342L18.1427 16.0344L16.9761 15.4061Z" fill="#FFCC00"/>
<path d="M16.9761 15.4061L17.9934 16.1105L18.2892 15.5835L16.9761 15.4061Z" fill="#FFCC00"/>
<path d="M17.4068 16.7312L17.8158 15.5634L18.3649 15.8158L17.4068 16.7312Z" fill="#FFCC00"/>
<path d="M17.4067 16.7312L18.391 15.9814L17.9812 15.5371L17.4067 16.7312Z" fill="#FFCC00"/>
<path d="M18.8003 16.7312L17.8161 15.9814L18.2258 15.5371L18.8003 16.7312Z" fill="#FFCC00"/>
<path d="M18.8002 16.7312L18.3913 15.5634L17.8422 15.8158L18.8002 16.7312Z" fill="#FFCC00"/>
<path d="M18.1036 14.5872L17.748 15.7723L18.3406 15.8909L18.1036 14.5872Z" fill="#FFCC00"/>
<path d="M18.1034 14.5872L18.459 15.7723L17.8664 15.8909L18.1034 14.5872Z" fill="#FFCC00"/>
<path d="M19.231 15.4061L17.9939 15.4342L18.0643 16.0344L19.231 15.4061Z" fill="#FFCC00"/>
<path d="M19.2309 15.4061L18.2136 16.1105L17.9178 15.5835L19.2309 15.4061Z" fill="#FFCC00"/>
<path d="M14.4038 17.7916L15.6408 17.8197L15.5704 18.4199L14.4038 17.7916Z" fill="#FFCC00"/>
<path d="M14.4038 17.7916L15.4211 18.496L15.717 17.969L14.4038 17.7916Z" fill="#FFCC00"/>
<path d="M14.8345 19.1167L15.2435 17.9489L15.7926 18.2013L14.8345 19.1167Z" fill="#FFCC00"/>
<path d="M14.8344 19.1167L15.8187 18.3668L15.409 17.9226L14.8344 19.1167Z" fill="#FFCC00"/>
<path d="M16.2281 19.1167L15.2438 18.3668L15.6535 17.9226L16.2281 19.1167Z" fill="#FFCC00"/>
<path d="M16.228 19.1167L15.819 17.9489L15.2699 18.2013L16.228 19.1167Z" fill="#FFCC00"/>
<path d="M15.5313 16.9727L15.1758 18.1578L15.7684 18.2764L15.5313 16.9727Z" fill="#FFCC00"/>
<path d="M15.5312 16.9727L15.8867 18.1578L15.2941 18.2764L15.5312 16.9727Z" fill="#FFCC00"/>
<path d="M16.6587 17.7916L15.4217 17.8197L15.4921 18.4199L16.6587 17.7916Z" fill="#FFCC00"/>
<path d="M16.6587 17.7916L15.6414 18.496L15.3455 17.969L16.6587 17.7916Z" fill="#FFCC00"/>
</g>
<defs>
<clipPath id="clip0_208_20091">
<rect width="24" height="24" rx="12" fill="white"/>
</clipPath>
</defs>
</svg>
