<svg width="24" height="24" viewBox="0 0 24 24" fill="none" xmlns="http://www.w3.org/2000/svg">
<g clip-path="url(#clip0_208_11204)">
<mask id="mask0_208_11204" style="mask-type:luminance" maskUnits="userSpaceOnUse" x="0" y="0" width="24" height="24">
<path d="M0 0H24V24H0V0Z" fill="white"/>
</mask>
<g mask="url(#mask0_208_11204)">
<path fill-rule="evenodd" clip-rule="evenodd" d="M0 0H24V24H0V0Z" fill="#000099"/>
<path fill-rule="evenodd" clip-rule="evenodd" d="M3.60938 0L24.0938 20.4844V0H3.60938Z" fill="#FFCC00"/>
<path fill-rule="evenodd" clip-rule="evenodd" d="M21.6283 22.05L20.4049 21.1547L19.1439 22.0453L19.6221 20.5828L18.3846 19.6828H19.9174L20.3955 18.2297L20.8643 19.6875L22.4018 19.6922L21.1736 20.6016L21.6283 22.05ZM25.2236 22.5375H23.6908L23.2221 21.075L22.7439 22.5328H21.2064L22.4439 23.4328L21.9705 24.8953L23.2268 24.0047L24.4549 24.8953L23.9955 23.4469L25.2236 22.5375ZM18.3658 17.7938L19.5939 16.8844H18.0611L17.5877 15.4219L17.1096 16.875H15.5768L16.8143 17.7797L16.3408 19.2375L17.5971 18.3469L18.8205 19.2422L18.3658 17.7891V17.7938ZM15.5393 14.9625L16.7674 14.0531L15.2299 14.0485L14.7611 12.586L14.283 14.0485L12.7502 14.0438L13.9877 14.9438L13.5096 16.4063L14.7705 15.5156L15.9939 16.411L15.5393 14.9578V14.9625ZM12.7408 12.1641L13.9689 11.2547H12.4361L11.9627 9.79221L11.4846 11.25H9.95176L11.1893 12.15L10.7158 13.6125L11.9721 12.7219L13.1955 13.6125L12.7408 12.1641ZM9.90957 9.33752L11.1377 8.43284L9.60019 8.42815L9.13144 6.96565L8.65332 8.42815L7.12051 8.42346L8.35801 9.32346L7.87988 10.786L9.14082 9.89534L10.3643 10.786L9.90957 9.34221V9.33752ZM7.11113 6.52971L8.34394 5.62502L6.81113 5.62034L6.34238 4.15784L5.85957 5.61565H4.32207L5.55957 6.51565L5.08613 7.97815L6.34238 7.08752L7.56582 7.97815L7.11113 6.52971ZM4.29863 3.71721L5.53145 2.81252L3.99863 2.80784L3.52988 1.34534L3.04707 2.80315H1.50957L2.74707 3.70315L2.27363 5.16565L3.52988 4.27502L4.75801 5.16565L4.29863 3.71721ZM1.48613 0.904712L2.71895 2.43187e-05L1.18145 -0.00466311L0.712695 -1.46716L0.225195 -0.00935066H-1.30762L-0.0654297 0.890649L-0.538867 2.35315L0.717383 1.46252L1.94082 2.35315L1.48613 0.904712Z" fill="white"/>
</g>
</g>
<defs>
<clipPath id="clip0_208_11204">
<rect width="24" height="24" rx="12" fill="white"/>
</clipPath>
</defs>
</svg>
