<svg width="24" height="24" viewBox="0 0 24 24" fill="none" xmlns="http://www.w3.org/2000/svg">
<g clip-path="url(#clip0_208_22377)">
<mask id="mask0_208_22377" style="mask-type:luminance" maskUnits="userSpaceOnUse" x="-1" y="0" width="25" height="24">
<path d="M-0.000976562 0H23.9953V23.9963H-0.000976562V0Z" fill="white"/>
</mask>
<g mask="url(#mask0_208_22377)">
<path fill-rule="evenodd" clip-rule="evenodd" d="M-6 17.9972H29.9945V23.9963H-6V17.9972ZM-6 0H29.9945V5.99908H-6V0Z" fill="#FF0000"/>
<path fill-rule="evenodd" clip-rule="evenodd" d="M-6 5.99902H29.9945V17.9972H-6V5.99902Z" fill="white"/>
<path d="M11.8187 6.09094C11.451 6.82148 11.2043 6.82148 10.5947 7.31011C10.3528 7.55201 9.98511 7.67296 10.4737 7.91969C9.98995 8.16159 9.74321 8.28254 9.49648 8.77118L9.62226 8.89213C9.62226 8.89213 10.0819 8.66474 10.1061 8.77118C10.1883 8.86794 9.49648 9.24046 9.40939 9.30335C9.32231 9.36625 8.88689 9.62266 8.88689 9.62266C8.27731 10.1113 7.90962 9.99035 7.54678 10.7209L8.76594 10.5999C9.00784 11.4514 8.15636 11.5724 7.54678 11.94L6.56951 12.5496C6.8114 13.4011 7.54678 12.9125 8.15636 12.6706L8.27731 12.7915V13.0334L7.06298 13.643C7.06298 13.643 5.62126 14.4655 5.59707 14.4945C5.5874 14.5429 5.59707 14.7364 5.59707 14.7364C6.08571 14.8622 6.81624 14.9831 7.30488 14.7364C7.91446 14.4945 8.04025 14.2526 8.77078 14.2526C8.06571 14.8037 7.21828 15.1427 6.32761 15.2299V15.7137C7.06298 15.7137 7.55161 15.7137 8.1612 15.5927L9.74805 15.1089C10.1109 15.1089 10.4786 15.4718 10.3576 15.8346C9.98995 17.1747 8.52888 16.9328 8.03541 18.0311L9.98995 17.3005C10.4786 17.0586 10.9672 16.8119 11.5768 16.9328C12.3073 17.1747 12.3073 17.6634 13.2846 17.9053L13.0427 17.3005C13.2846 17.4215 13.5265 17.4215 13.7732 17.5424C14.3828 17.7843 14.5038 18.0262 15.2391 17.9053C14.6296 17.1796 14.5038 17.3005 14.02 16.8119C13.5313 16.0813 13.2846 14.9831 14.02 14.8622L14.8715 15.1041C15.7278 15.2299 15.7278 14.9831 16.9469 15.4718C17.6775 15.7137 17.9242 16.0813 18.7757 15.8346C18.4129 14.9831 17.0679 14.3735 16.2116 14.1316C17.1888 13.5221 16.9469 14.3735 18.2919 14.0107V13.7688C17.3146 13.0334 16.9469 12.4238 15.602 12.4238L17.6823 12.1819V11.94C17.6823 11.94 15.6262 11.403 15.5778 11.3837C15.5905 11.3345 15.6153 11.2892 15.6499 11.252C15.6846 11.2149 15.728 11.1869 15.7762 11.1708C16.1632 11.4224 17.3388 11.3934 17.4066 11.3885C17.3727 11.0886 16.8163 10.8418 16.3277 10.5999C16.3277 10.5999 14.2377 9.30819 14.228 9.19692C14.2667 8.86794 15.0843 9.2453 15.96 9.50171C15.7181 9.01791 15.2295 8.77118 14.7408 8.65023L15.4714 8.52928C14.9876 7.43106 13.7636 7.55201 13.033 7.06337C12.5444 6.70053 12.5444 6.45379 11.8139 6.09094H11.8187Z" fill="#007900"/>
<path fill-rule="evenodd" clip-rule="evenodd" d="M10.4977 14.2042C10.5897 13.9139 10.7058 13.6575 10.1639 13.4108C9.62206 13.1641 10.4348 14.4026 10.5026 14.2042H10.4977ZM11.1412 13.6237C11.0299 13.6382 10.9767 14.0397 11.1896 14.1462C11.4363 14.1849 11.2379 13.6285 11.1412 13.6237ZM11.775 13.5801C11.6637 13.614 11.6588 14.18 12.0556 14.0784C12.4571 13.9817 12.0556 13.5366 11.775 13.585V13.5801ZM12.5152 12.1384C12.6022 12.0029 12.5103 11.4369 12.1668 11.674C11.8233 11.9159 12.4087 12.1771 12.5152 12.1384ZM11.7653 11.6691C11.8717 11.6304 11.8814 11.2821 11.5814 11.3788C11.2815 11.4659 11.6879 11.7417 11.7653 11.6691ZM11.088 11.8094C11.088 11.8094 10.8799 11.5191 10.7154 11.5772C10.5122 11.7707 11.1025 11.8143 11.088 11.8094ZM8.76574 12.7335C8.85282 12.7432 9.51562 12.627 9.74301 12.3706C9.97523 12.1142 8.56738 12.4771 8.56738 12.4819C8.56738 12.4867 8.69801 12.7093 8.7609 12.7335H8.76574ZM15.3792 11.0982C15.4131 11.0354 15.0261 10.7596 14.7987 10.8709C14.7406 11.0741 15.3792 11.1369 15.3792 11.0982ZM14.0778 10.4403C14.1504 10.3387 13.9085 9.90811 13.4344 10.15C12.9603 10.3919 13.9327 10.6096 14.0778 10.4403ZM12.5732 10.1887C12.5732 10.1887 12.6893 9.80167 12.9796 9.87908C13.2989 10.1258 12.5877 10.2032 12.5732 10.1887ZM12.2926 9.89843C12.2442 9.79199 11.9491 9.85489 11.6056 10.0823C11.2621 10.3048 12.3942 10.1452 12.2926 9.89843ZM13.1635 8.8631C13.1635 8.8631 13.4731 8.7228 13.565 8.8631C13.6908 9.0663 13.1635 8.8631 13.1683 8.8631H13.1635ZM12.9119 8.72764C12.849 8.60669 12.5103 8.59218 12.52 8.77602C12.4619 8.91148 12.9554 8.88729 12.907 8.72764H12.9119ZM12.1039 8.72764C12.0701 8.65507 11.5911 8.72764 11.446 9.01792C11.6782 9.12919 12.2104 8.91148 12.1039 8.72764ZM11.0735 9.02276C11.0735 9.02276 10.4445 9.40979 10.401 9.69523C10.4203 9.93713 11.1896 9.25014 11.1896 9.25014C11.1896 9.25014 11.2573 8.97922 11.0735 9.02276ZM10.3719 8.66959C10.3913 8.59218 10.6864 8.40834 10.7106 8.42769C10.7348 8.50509 10.4687 8.71797 10.3719 8.66959ZM10.5751 10.15C10.5897 10.0387 9.82042 10.0484 10.1107 10.3967C10.3526 10.6919 10.6284 10.2032 10.5751 10.1548V10.15ZM9.8688 10.658C9.83009 10.5806 9.77204 10.3726 9.6656 10.3532C9.58336 10.3532 9.11891 10.45 9.08504 10.5225C9.06569 10.5854 9.27856 10.9676 9.3463 10.9773C9.42854 11.0063 9.85428 10.6967 9.8688 10.658ZM14.0101 13.2415C14.0343 13.1592 14.818 12.8883 15.089 13.1447C15.4083 13.5801 13.9907 13.3769 14.0101 13.2415ZM16.1678 13.7543C16.3372 13.464 15.6357 13.1157 15.3454 13.4495C15.4421 13.8462 16.0275 13.9914 16.1678 13.7543Z" fill="white" stroke="white" stroke-width="0.399939" stroke-linecap="round" stroke-linejoin="round"/>
</g>
</g>
<defs>
<clipPath id="clip0_208_22377">
<rect width="24" height="24" rx="12" fill="white"/>
</clipPath>
</defs>
</svg>
