<svg width="24" height="24" viewBox="0 0 24 24" fill="none" xmlns="http://www.w3.org/2000/svg">
<g clip-path="url(#clip0_208_26467)">
<path d="M0 0H24V24H0V0Z" fill="#006600"/>
<path d="M0 0H24V17.1422H0V0Z" fill="white"/>
<path d="M0 0H24V6.85781H0V0Z" fill="#CC0000"/>
<path d="M11.0397 11.6812C11.0865 11.6007 11.1583 11.5376 11.2441 11.5015C11.3299 11.4654 11.4251 11.4583 11.5154 11.4811C11.6057 11.504 11.686 11.5556 11.7443 11.6282C11.8026 11.7008 11.8357 11.7904 11.8386 11.8835V13.5977H12.1609V11.8835C12.1637 11.7904 12.1968 11.7008 12.2551 11.6282C12.3134 11.5556 12.3938 11.504 12.484 11.4811C12.5743 11.4583 12.6695 11.4654 12.7553 11.5015C12.8412 11.5376 12.9129 11.6007 12.9597 11.6812C13.0101 11.5292 13.0237 11.3674 12.9994 11.2091C12.9751 11.0508 12.9135 10.9006 12.8198 10.7707C12.7261 10.6409 12.6028 10.5352 12.4603 10.4623C12.3177 10.3893 12.1598 10.3513 11.9997 10.3513C11.8396 10.3513 11.6817 10.3893 11.5392 10.4623C11.3966 10.5352 11.2734 10.6409 11.1796 10.7707C11.0859 10.9006 11.0243 11.0508 11 11.2091C10.9757 11.3674 10.9893 11.5292 11.0397 11.6812Z" fill="#F8C300"/>
<path d="M11.2695 11.2318C11.4104 11.2032 11.5567 11.2196 11.6877 11.2787C11.8188 11.3377 11.9279 11.4365 11.9998 11.5609C12.0717 11.4365 12.1809 11.3377 12.3119 11.2787C12.4429 11.2196 12.5892 11.2032 12.7301 11.2318C12.7059 11.0553 12.6185 10.8936 12.4843 10.7765C12.35 10.6595 12.1779 10.595 11.9998 10.595C11.8217 10.595 11.6496 10.6595 11.5153 10.7765C11.3811 10.8936 11.2938 11.0553 11.2695 11.2318Z" fill="white"/>
<path d="M11.8383 12.9119C11.8161 13.1547 11.7263 13.3865 11.5789 13.5808C11.4315 13.7752 11.2325 13.9242 11.0046 14.011C10.7767 14.0978 10.5289 14.1189 10.2896 14.0719C10.0503 14.0249 9.829 13.9116 9.65088 13.745C9.57497 13.9365 9.45637 14.1082 9.30412 14.2469C9.15187 14.3857 8.96997 14.4879 8.77226 14.5457C8.57456 14.6036 8.36626 14.6156 8.16322 14.5808C7.96019 14.546 7.76776 14.4654 7.60059 14.345C7.72744 15.593 9.59945 15.3393 9.73659 14.1256C10.3263 15.1576 11.6223 14.8627 11.9995 13.5976L11.8383 12.9119Z" fill="#F8C300"/>
<path d="M12.1607 12.9119C12.1829 13.1547 12.2728 13.3865 12.4202 13.5808C12.5676 13.7752 12.7665 13.9242 12.9945 14.011C13.2224 14.0978 13.4701 14.1189 13.7094 14.0719C13.9487 14.0249 14.17 13.9116 14.3481 13.745C14.4241 13.9365 14.5427 14.1082 14.6949 14.2469C14.8472 14.3857 15.0291 14.4879 15.2268 14.5457C15.4245 14.6036 15.6328 14.6156 15.8358 14.5808C16.0388 14.546 16.2313 14.4654 16.3984 14.345C16.2716 15.593 14.3996 15.3393 14.2624 14.1256C13.6727 15.1576 12.3767 14.8627 11.9996 13.5976L12.1607 12.9119Z" fill="#F8C300"/>
<path d="M10.5873 15.1303C10.3268 15.696 9.80561 15.792 9.34961 15.336C9.34961 15.336 9.53132 15.2057 9.72675 15.1714C9.71481 15.0839 9.72179 14.9949 9.74723 14.9103C9.77266 14.8257 9.81595 14.7476 9.87418 14.6812C10.0208 14.7762 10.1299 14.9192 10.1828 15.0857C10.457 15.0514 10.5873 15.1303 10.5873 15.1303Z" fill="#F8C300"/>
<path d="M12.637 15.0664C12.2875 15.582 11.7577 15.5916 11.3823 15.0672C11.3823 15.0672 11.5829 14.9683 11.7813 14.9664C11.7838 14.8782 11.8052 14.7914 11.8441 14.7121C11.883 14.6328 11.9385 14.5628 12.0068 14.5068C12.1359 14.6245 12.2202 14.7834 12.2451 14.9564C12.5213 14.9673 12.637 15.0664 12.637 15.0664Z" fill="#F8C300"/>
<path d="M14.6485 15.3337C14.2203 15.786 13.6959 15.7099 13.4102 15.1318C13.4102 15.1318 13.6241 15.0666 13.8202 15.0968C13.8369 15.0101 13.8721 14.928 13.9233 14.856C13.9745 14.784 14.0406 14.7239 14.117 14.6797C14.2254 14.8167 14.2829 14.9871 14.2796 15.1618C14.5504 15.2173 14.6485 15.3337 14.6485 15.3337Z" fill="#F8C300"/>
<path d="M8.67383 16.3885C10.8439 15.7426 13.1552 15.7426 15.3253 16.3885" stroke="#F8C300" stroke-width="1.46286"/>
<path d="M12.8371 7.95637L11.482 8.94089L11.9996 7.3479L12.5172 8.94089L11.1621 7.95637H12.8371Z" fill="#F8C300"/>
<path d="M10.4377 8.6009L9.08259 9.58543L9.60018 7.99243L10.1178 9.58543L8.7627 8.6009H10.4377Z" fill="#F8C300"/>
<path d="M8.68181 10.3563L7.32673 11.3408L7.84432 9.7478L8.36192 11.3408L7.00684 10.3563H8.68181Z" fill="#F8C300"/>
<path d="M8.03728 12.7564L6.6822 13.7409L7.19979 12.1479L7.71739 13.7409L6.3623 12.7564H8.03728Z" fill="#F8C300"/>
<path d="M13.5623 8.6009L14.9174 9.58543L14.3998 7.99243L13.8822 9.58543L15.2373 8.6009H13.5623Z" fill="#F8C300"/>
<path d="M15.3182 10.3563L16.6733 11.3408L16.1557 9.7478L15.6381 11.3408L16.9932 10.3563H15.3182Z" fill="#F8C300"/>
<path d="M15.9627 12.7564L17.3178 13.7409L16.8002 12.1479L16.2826 13.7409L17.6377 12.7564H15.9627Z" fill="#F8C300"/>
</g>
<defs>
<clipPath id="clip0_208_26467">
<rect width="24" height="24" rx="12" fill="white"/>
</clipPath>
</defs>
</svg>
