<svg width="24" height="24" viewBox="0 0 24 24" fill="none" xmlns="http://www.w3.org/2000/svg">
<g clip-path="url(#clip0_208_24025)">
<path d="M0 15.9844H24V24H0V15.9844Z" fill="#0038A8"/>
<path d="M0 8.00146H24V15.9983H0V8.00146Z" fill="white"/>
<path d="M0 0H24V8.00156H0V0Z" fill="#D52B1E"/>
<path d="M12.0212 15.0691C13.7163 15.0691 15.0904 13.695 15.0904 12C15.0904 10.305 13.7163 8.93091 12.0212 8.93091C10.3262 8.93091 8.95215 10.305 8.95215 12C8.95215 13.695 10.3262 15.0691 12.0212 15.0691Z" stroke="black" stroke-width="0.213334"/>
<path d="M12.0217 14.5236C13.4155 14.5236 14.5453 13.3937 14.5453 12C14.5453 10.6062 13.4155 9.47632 12.0217 9.47632C10.6279 9.47632 9.49805 10.6062 9.49805 12C9.49805 13.3937 10.6279 14.5236 12.0217 14.5236Z" stroke="black" stroke-width="0.09697"/>
<path d="M12.0215 13.9345C13.0899 13.9345 13.956 13.0684 13.956 12C13.956 10.9316 13.0899 10.0654 12.0215 10.0654C10.953 10.0654 10.0869 10.9316 10.0869 12C10.0869 13.0684 10.953 13.9345 12.0215 13.9345Z" stroke="black" stroke-width="0.077576"/>
<path d="M10.3879 13.186L10.0316 13.397L9.92383 13.2095C9.90759 13.1848 9.89496 13.158 9.88633 13.1298C9.88249 13.109 9.8858 13.0875 9.8957 13.0688C9.90508 13.0454 9.91914 13.0313 9.94258 13.0173C9.95927 13.0067 9.97845 13.0007 9.9982 12.9999C10.0179 12.999 10.0376 13.0034 10.0551 13.0126L10.0926 13.0407C10.0912 13.0298 10.0912 13.0188 10.0926 13.0079L10.0973 12.9798L10.1113 12.947L10.1816 12.8345L10.2566 12.9563L10.1816 13.0829C10.1743 13.0943 10.1695 13.107 10.1676 13.1204C10.1665 13.13 10.1681 13.1398 10.1723 13.1485L10.1816 13.1579L10.3223 13.0735L10.3879 13.186ZM10.1113 13.2001L10.0832 13.1532C10.0776 13.1434 10.0714 13.134 10.0645 13.1251C10.0614 13.1221 10.0577 13.1197 10.0537 13.1181C10.0496 13.1165 10.0453 13.1157 10.041 13.1157C10.0329 13.1147 10.0247 13.1163 10.0176 13.1204C10.0035 13.1298 9.99883 13.1345 9.99414 13.1485L10.0129 13.1954L10.041 13.2423L10.1113 13.2001ZM9.77852 12.9235L9.6707 12.5954L9.75508 12.572L9.8207 12.7735L9.88164 12.7548L9.8207 12.5673L9.90039 12.5392L9.96133 12.7267L10.041 12.7032L9.9707 12.4923L10.0645 12.4642L10.1723 12.7923L9.77852 12.9235ZM9.63789 12.4407L9.60977 12.2298C9.60977 12.1829 9.60977 12.1454 9.6332 12.122C9.65195 12.0985 9.68008 12.0798 9.72227 12.0751C9.76445 12.0751 9.79727 12.0798 9.82539 12.1032C9.84883 12.1267 9.86758 12.1642 9.87227 12.2157L9.88164 12.2813L10.0316 12.2673L10.0457 12.3938L9.63789 12.4407ZM9.79727 12.2954L9.79258 12.2626C9.79258 12.2392 9.7832 12.2204 9.77383 12.2157C9.76972 12.2111 9.76465 12.2075 9.75898 12.205C9.75331 12.2026 9.74718 12.2015 9.74102 12.2017C9.72865 12.2018 9.71686 12.2069 9.7082 12.2157C9.69883 12.2251 9.69883 12.2438 9.69883 12.2673L9.70352 12.3048L9.79727 12.2954ZM9.62383 11.6626L9.63789 11.536L9.88164 11.5642C9.90508 11.5642 9.92852 11.5735 9.94727 11.5829C9.9707 11.5923 9.98945 11.6063 10.0035 11.6251L10.0316 11.6813C10.0388 11.7106 10.0388 11.7412 10.0316 11.7704C10.0316 11.7892 10.0316 11.8126 10.0223 11.836C10.0223 11.8595 10.0129 11.8782 9.99883 11.8923L9.96133 11.9298C9.94605 11.9413 9.92845 11.9493 9.90977 11.9532C9.88164 11.9579 9.86289 11.9626 9.83945 11.9579L9.5957 11.9298L9.60977 11.8032L9.8582 11.8313C9.88164 11.8313 9.90039 11.8313 9.91445 11.8173C9.92852 11.8079 9.9332 11.7892 9.93789 11.7704C9.93968 11.7606 9.93935 11.7505 9.93693 11.7408C9.9345 11.7311 9.93004 11.722 9.92383 11.7142C9.91445 11.7001 9.8957 11.6954 9.87695 11.6907L9.62383 11.6626ZM9.67539 11.3626L9.75508 11.1329C9.76914 11.0954 9.78789 11.072 9.81602 11.0579C9.82813 11.0513 9.84156 11.0475 9.85534 11.0467C9.86911 11.0459 9.88289 11.0481 9.8957 11.0532C9.91458 11.0602 9.9307 11.0731 9.94168 11.09C9.95265 11.1069 9.9579 11.1269 9.95664 11.147C9.97539 11.1188 9.99414 11.1001 10.0129 11.1001C10.0354 11.091 10.0607 11.091 10.0832 11.1001C10.102 11.1063 10.1189 11.1174 10.1321 11.1322C10.1452 11.147 10.1542 11.165 10.1582 11.1845V11.2313L10.1395 11.2876L10.0691 11.4985L9.67539 11.3626ZM9.87227 11.2923L9.89102 11.2407C9.90039 11.222 9.90039 11.2079 9.8957 11.1938C9.8957 11.1892 9.88633 11.1798 9.87227 11.1751C9.86715 11.1726 9.86154 11.1713 9.85586 11.1713C9.85017 11.1713 9.84456 11.1726 9.83945 11.1751L9.81602 11.2126L9.79727 11.2688L9.87227 11.2923ZM10.027 11.3485L10.0504 11.2829V11.236C10.0485 11.2306 10.0455 11.2256 10.0414 11.2216C10.0373 11.2175 10.0324 11.2144 10.027 11.2126C10.0218 11.2101 10.0162 11.2088 10.0105 11.2088C10.0049 11.2088 9.99925 11.2101 9.99414 11.2126C9.98477 11.222 9.97539 11.236 9.9707 11.2595L9.94727 11.3204L10.027 11.3485ZM9.87227 10.8657L9.93789 10.7532L10.2051 10.9126L10.3082 10.7438L10.3973 10.7954L10.2285 11.0767L9.87227 10.8657ZM10.1254 10.486L10.2051 10.3876L10.5238 10.6501L10.4395 10.7485L10.1254 10.486ZM10.6785 10.2704L10.7863 10.2235C10.8004 10.2517 10.8098 10.2798 10.8098 10.3079C10.8114 10.3337 10.8066 10.3595 10.7957 10.3829C10.7817 10.4098 10.7626 10.4336 10.7395 10.4532C10.7124 10.4782 10.6805 10.4974 10.6457 10.5095C10.6129 10.5188 10.5801 10.5188 10.5426 10.5095C10.4996 10.494 10.4622 10.4663 10.4348 10.4298C10.3879 10.3829 10.3691 10.3267 10.3738 10.2751C10.3738 10.2235 10.402 10.1767 10.4535 10.1345C10.4844 10.1047 10.5237 10.0851 10.566 10.0782C10.6071 10.0744 10.6483 10.0843 10.6832 10.1063L10.6129 10.2001C10.6044 10.1939 10.5949 10.1891 10.5848 10.186C10.574 10.1836 10.5628 10.1836 10.552 10.186C10.5396 10.1894 10.5283 10.1958 10.5191 10.2048C10.4957 10.2235 10.4863 10.247 10.491 10.2751C10.491 10.2938 10.5051 10.322 10.5332 10.3454C10.5613 10.3829 10.5895 10.4017 10.6082 10.4063C10.6316 10.4063 10.6504 10.4063 10.6691 10.3876C10.6879 10.3688 10.6973 10.3548 10.6973 10.336C10.6973 10.3173 10.6926 10.2938 10.6785 10.2704ZM11.1191 10.111L10.9926 10.1813L11.0066 10.2517L10.8895 10.3126L10.8332 9.87197L10.9551 9.80635L11.2879 10.1017L11.1707 10.1626L11.1191 10.111ZM11.0535 10.0454L10.9457 9.9376L10.9738 10.0876L11.0535 10.0454ZM11.4473 9.62354L11.6348 9.59072C11.6657 9.58414 11.6976 9.58414 11.7285 9.59072C11.752 9.59541 11.7707 9.60479 11.7895 9.62354C11.8082 9.6376 11.8223 9.65635 11.8363 9.67979L11.8551 9.75947C11.8645 9.80635 11.8645 9.83916 11.8551 9.8626C11.8512 9.88786 11.8415 9.91191 11.827 9.93291C11.8149 9.95045 11.7988 9.9649 11.7801 9.9751L11.7051 9.99854L11.5176 10.0313L11.4473 9.62354ZM11.5879 9.69385L11.6254 9.91416H11.6582C11.6816 9.90479 11.7051 9.9001 11.7098 9.89072C11.7238 9.88604 11.7285 9.87197 11.7332 9.85791V9.78291C11.7238 9.74072 11.7098 9.7126 11.6957 9.69853C11.677 9.68447 11.6488 9.67978 11.6207 9.68916L11.5879 9.69385ZM11.977 9.55322L12.3191 9.5626V9.65635L12.1035 9.64697L12.0988 9.7126L12.2957 9.71729V9.80166L12.0941 9.79697V9.87666L12.3145 9.88603L12.3098 9.97978L11.9582 9.96572L11.977 9.55322ZM12.4738 9.59072L12.6004 9.61885L12.5254 9.92353L12.7176 9.97041L12.6941 10.0688L12.3754 9.99385L12.4738 9.59072ZM13.1395 9.81104L13.3223 9.91885C13.3645 9.94229 13.3879 9.96572 13.3973 9.99854C13.402 10.0313 13.3973 10.0642 13.3785 10.097C13.3701 10.1134 13.3582 10.1278 13.3436 10.1391C13.329 10.1505 13.3121 10.1585 13.2941 10.1626C13.2613 10.172 13.2238 10.1626 13.177 10.1345L13.116 10.1017L13.041 10.2329L12.9285 10.1673L13.1395 9.81104ZM13.1629 10.0267L13.1863 10.0454L13.2379 10.0595C13.2436 10.0585 13.2491 10.0563 13.2539 10.053C13.2588 10.0498 13.2629 10.0456 13.266 10.0407C13.2702 10.0355 13.2731 10.0295 13.2747 10.023C13.2764 10.0165 13.2766 10.0098 13.2754 10.0032C13.2707 9.98916 13.2613 9.97979 13.2379 9.96572L13.2098 9.94697L13.1629 10.0267ZM13.5191 10.5095L13.4113 10.411L13.3504 10.4485L13.2566 10.3548L13.6504 10.1626L13.7535 10.2563L13.5848 10.6642L13.491 10.5704L13.5191 10.5095ZM13.5613 10.4251L13.627 10.2845L13.4957 10.3642L13.5613 10.4251ZM13.6082 10.7017L13.9504 10.4673L14.0723 10.6407L14.1191 10.7251L14.1145 10.786C14.1051 10.8048 14.091 10.8235 14.0676 10.8376C14.052 10.8515 14.0322 10.8597 14.0113 10.861C13.9921 10.8626 13.9728 10.8594 13.9551 10.8517C13.9412 10.8442 13.9286 10.8348 13.9176 10.8235V10.8892L13.9035 10.9173L13.8379 11.0345L13.7582 10.9173L13.8238 10.7907L13.8379 10.7532C13.8379 10.7438 13.8379 10.7298 13.8285 10.7204L13.8191 10.711L13.6785 10.8048L13.6082 10.7017ZM13.8895 10.6688L13.9176 10.7157L13.941 10.7345C13.9437 10.7384 13.9472 10.7416 13.9512 10.7441C13.9552 10.7465 13.9598 10.748 13.9645 10.7485C13.9691 10.7485 13.9785 10.7485 13.9879 10.7392C13.993 10.7363 13.9974 10.7322 14.0006 10.7273C14.0039 10.7224 14.0059 10.7169 14.0066 10.711L13.9879 10.6642L13.9551 10.6173L13.8895 10.6688ZM14.016 11.2876L13.9598 11.1517L13.8895 11.1563L13.8426 11.0392L14.2832 11.0298L14.3301 11.1563L14.0066 11.4563L13.9598 11.3298L14.016 11.2876ZM14.0863 11.2313L14.2082 11.1329L14.0535 11.1423L14.0863 11.2313ZM14.1941 11.6813L14.2785 11.6673L14.3113 11.8642L14.1332 11.8923C14.107 11.8643 14.0849 11.8327 14.0676 11.7985C14.0348 11.7283 14.0266 11.649 14.0441 11.5735C14.0582 11.5407 14.077 11.5173 14.1098 11.4938C14.1419 11.4715 14.1788 11.457 14.2176 11.4517C14.2583 11.4439 14.3004 11.4472 14.3395 11.461C14.3758 11.4744 14.407 11.4991 14.4285 11.5313C14.4426 11.5595 14.4566 11.5923 14.4613 11.6392C14.4668 11.6733 14.4668 11.7081 14.4613 11.7423C14.4588 11.7642 14.4507 11.7852 14.4379 11.8032L14.377 11.8501L14.3348 11.7282C14.3488 11.7235 14.3582 11.7142 14.3676 11.7001C14.3723 11.686 14.377 11.6673 14.3723 11.6532C14.3715 11.6401 14.3678 11.6274 14.3613 11.616C14.3548 11.6046 14.3457 11.5949 14.3348 11.5876C14.3113 11.5735 14.2785 11.5735 14.241 11.5782C14.1941 11.5829 14.1613 11.597 14.1473 11.6157C14.1387 11.626 14.1326 11.6381 14.1293 11.6511C14.1261 11.6641 14.1258 11.6776 14.1285 11.6907L14.1426 11.7329L14.1707 11.7704H14.2082L14.1941 11.6813ZM14.466 12.2813L14.452 12.4079L14.2082 12.3892C14.1854 12.3866 14.1633 12.3803 14.1426 12.3704C14.1208 12.361 14.1015 12.3465 14.0863 12.3282C14.0734 12.3132 14.0638 12.2956 14.0582 12.2767C14.0509 12.246 14.0493 12.2142 14.0535 12.1829C14.0535 12.1642 14.0535 12.1407 14.0629 12.1173L14.0816 12.061C14.0927 12.0443 14.1071 12.0299 14.1238 12.0188C14.1377 12.008 14.1537 12 14.1707 11.9954C14.1956 11.9916 14.2208 11.9916 14.2457 11.9954L14.4895 12.0142L14.4801 12.1407L14.227 12.1173C14.2035 12.1173 14.1848 12.1173 14.1707 12.1313C14.1566 12.1454 14.152 12.1595 14.1473 12.1829C14.1473 12.2063 14.1473 12.2204 14.1613 12.2345C14.1754 12.2485 14.1895 12.2579 14.2129 12.2579L14.466 12.2813ZM14.0066 12.722L14.0535 12.5813L13.9973 12.5392L14.0348 12.4173L14.3816 12.6938L14.3348 12.8251L13.8941 12.8438L13.941 12.7173L14.0066 12.722ZM14.1004 12.722H14.2551L14.1285 12.6376L14.1004 12.722ZM14.2504 13.0595L14.1754 13.1813H14.016L14.091 13.322L14.016 13.4438L13.8941 13.1813L13.7441 13.097L13.8098 12.9845L13.9598 13.0735L14.2504 13.0595Z" fill="black"/>
<path d="M12.4317 10.5657C12.4317 10.5657 13.5989 11.0719 13.3926 12.1125C13.1911 13.1485 12.5395 13.1438 12.2864 13.2563C12.0286 13.3735 11.8551 13.5375 11.752 13.5141C11.6536 13.4907 11.5176 13.411 11.5176 13.411C11.5176 13.411 11.5083 13.5844 11.7145 13.6125C11.9208 13.6454 12.1833 13.3454 12.3192 13.3125C12.4551 13.2797 13.238 13.1907 13.4348 12.136C13.6598 11.0063 12.4364 10.5985 12.4317 10.5657Z" fill="#009B3A" stroke="black" stroke-width="0.0125"/>
<path d="M13.0168 10.7908C13.023 10.8239 13.0255 10.8533 13.0239 10.8742C13.0224 10.8952 13.0169 10.9065 13.0083 10.9065C12.9997 10.9065 12.9885 10.8952 12.9765 10.8742C12.9645 10.8533 12.9523 10.8239 12.9418 10.7908C12.9347 10.768 12.9285 10.7441 12.924 10.7211C12.9194 10.698 12.9164 10.6763 12.9154 10.6577C12.9144 10.6391 12.9152 10.624 12.9179 10.6137C12.9207 10.6033 12.9251 10.5979 12.931 10.5979C12.937 10.5979 12.9441 10.6033 12.952 10.6137C12.9599 10.624 12.9684 10.6391 12.9766 10.6577C12.9849 10.6763 12.9928 10.698 12.9998 10.7211C13.0068 10.7441 13.0126 10.768 13.0168 10.7908ZM12.9793 10.8002C12.991 10.8212 13.0019 10.8434 13.0111 10.8651C13.0203 10.8868 13.0278 10.9074 13.0328 10.9255C13.0378 10.9437 13.0403 10.9588 13.0401 10.9698C13.0399 10.9808 13.0371 10.9875 13.0317 10.9893C13.0264 10.991 13.0187 10.9879 13.0092 10.9801C12.9997 10.9723 12.9887 10.96 12.977 10.9441C12.9652 10.9283 12.953 10.9092 12.9413 10.8884C12.9295 10.8675 12.9185 10.8454 12.909 10.8236C12.8944 10.79 12.8842 10.7589 12.8802 10.7356C12.8761 10.7122 12.8783 10.6979 12.8866 10.6952C12.8948 10.6924 12.9085 10.7014 12.9254 10.7205C12.9423 10.7396 12.9614 10.7677 12.9793 10.8002ZM12.8622 10.8752C12.8827 10.8812 12.9029 10.8882 12.9216 10.8958C12.9403 10.9034 12.9572 10.9114 12.9712 10.9193C12.9853 10.9273 12.9963 10.9351 13.0036 10.9422C13.0109 10.9493 13.0143 10.9557 13.0137 10.9609C13.0131 10.9662 13.0084 10.9702 13 10.9727C12.9916 10.9752 12.9796 10.9762 12.9646 10.9757C12.9497 10.9751 12.9321 10.973 12.9129 10.9694C12.8937 10.9658 12.8733 10.9609 12.8528 10.9548C12.8113 10.9427 12.7721 10.9268 12.7437 10.9107C12.7153 10.8946 12.7 10.8796 12.7012 10.8691C12.7025 10.8585 12.7201 10.8532 12.7503 10.8543C12.7805 10.8555 12.8207 10.863 12.8622 10.8752Z" fill="#009B3A" stroke="black" stroke-width="0.0125"/>
<path d="M12.881 10.833C12.8989 10.8451 12.9162 10.8579 12.9319 10.8707C12.9475 10.8835 12.9612 10.8961 12.9721 10.9077C12.9831 10.9193 12.9911 10.9297 12.9957 10.9383C13.0003 10.9469 13.0014 10.9536 12.9989 10.9579C12.9965 10.9622 12.9905 10.9641 12.9813 10.9634C12.9722 10.9628 12.9601 10.9596 12.9456 10.9541C12.9312 10.9486 12.9147 10.9409 12.8972 10.9313C12.8797 10.9218 12.8614 10.9107 12.8435 10.8986C12.8227 10.8864 12.8017 10.8725 12.782 10.8578C12.7623 10.8432 12.7443 10.8283 12.7296 10.8142C12.7148 10.8001 12.7037 10.7872 12.6969 10.7765C12.6901 10.7658 12.6879 10.7575 12.6905 10.7524C12.6931 10.7473 12.7003 10.7454 12.7117 10.7468C12.7231 10.7483 12.7383 10.7531 12.7563 10.7608C12.7742 10.7686 12.7943 10.7791 12.8151 10.7916C12.8359 10.8041 12.8568 10.8183 12.8763 10.833H12.881Z" fill="#009B3A" stroke="black" stroke-width="0.0125"/>
<path d="M12.9284 10.8142C12.9484 10.8306 12.9694 10.8503 12.9895 10.8714C13.0095 10.8925 13.0278 10.9142 13.0428 10.9346C13.0577 10.9549 13.0686 10.9731 13.0746 10.9874C13.0805 11.0017 13.0812 11.0117 13.0767 11.0162C13.0721 11.0208 13.0624 11.0199 13.0485 11.0135C13.0346 11.0072 13.0169 10.9956 12.9973 10.98C12.9777 10.9644 12.9567 10.9452 12.9364 10.9244C12.9161 10.9035 12.8972 10.8817 12.8816 10.861C12.8651 10.8392 12.8527 10.8195 12.8459 10.804C12.8391 10.7885 12.838 10.7777 12.8428 10.7729C12.8476 10.7681 12.8582 10.7694 12.8732 10.7766C12.8883 10.7839 12.9074 10.7969 12.9284 10.8142Z" fill="#009B3A" stroke="black" stroke-width="0.0125"/>
<path d="M13.0077 10.9595L12.9561 10.9876C12.9421 10.9923 12.928 10.9735 12.8999 10.9876C12.8718 11.0063 12.853 11.0345 12.8436 11.0485C12.839 11.0673 12.853 11.072 12.8905 11.0579C12.9233 11.0391 12.9374 11.011 12.9515 11.0016C12.9655 10.9876 12.9983 10.9735 13.0124 10.9688L13.0593 10.8985C13.0686 10.8798 13.1155 10.8516 13.1343 10.8095C13.1483 10.7813 13.1436 10.7532 13.1202 10.7626C13.0966 10.7798 13.0773 10.8022 13.064 10.8282C13.0499 10.8516 13.064 10.8751 13.0499 10.8985L13.0077 10.9595ZM13.3733 11.0813C13.3744 11.15 13.3694 11.2143 13.3596 11.2603C13.3498 11.3062 13.3359 11.3299 13.3209 11.3261C13.306 11.3224 13.2913 11.2916 13.28 11.2404C13.2688 11.1892 13.2619 11.1219 13.2608 11.0532C13.2603 11.0192 13.2613 10.9859 13.2636 10.9552C13.266 10.9245 13.2697 10.897 13.2746 10.8743C13.2794 10.8515 13.2854 10.834 13.292 10.8227C13.2986 10.8114 13.3058 10.8066 13.3132 10.8084C13.3206 10.8102 13.328 10.8188 13.335 10.8335C13.3421 10.8482 13.3485 10.8688 13.3541 10.8942C13.3597 10.9195 13.3643 10.9491 13.3676 10.9812C13.3709 11.0133 13.3728 11.0473 13.3733 11.0813Z" fill="#009B3A" stroke="black" stroke-width="0.0125"/>
<path d="M13.3128 11.0767C13.327 11.1431 13.3349 11.207 13.3348 11.2544C13.3347 11.3018 13.3267 11.3287 13.3124 11.3294C13.2981 11.33 13.2787 11.3042 13.2586 11.2577C13.2384 11.2112 13.2191 11.1477 13.2049 11.0813C13.1981 11.0488 13.1926 11.0165 13.189 10.9864C13.1853 10.9563 13.1835 10.929 13.1836 10.9059C13.1837 10.8829 13.1858 10.8646 13.1897 10.8521C13.1936 10.8397 13.1993 10.8333 13.2063 10.8333C13.2134 10.8333 13.2218 10.8397 13.231 10.8521C13.2401 10.8646 13.25 10.8829 13.2598 10.9059C13.2697 10.929 13.2795 10.9563 13.2886 10.9864C13.2976 11.0165 13.3059 11.0488 13.3128 11.0813V11.0767Z" fill="#009B3A" stroke="black" stroke-width="0.0125"/>
<path d="M13.1251 11.1375C13.1539 11.1549 13.1831 11.1748 13.2104 11.1957C13.2378 11.2165 13.2627 11.2379 13.2833 11.2582C13.3039 11.2785 13.3197 11.2973 13.3295 11.313C13.3393 11.3288 13.3429 11.3413 13.3401 11.3495C13.3372 11.3577 13.328 11.3614 13.313 11.3604C13.298 11.3595 13.2777 11.3538 13.2535 11.3438C13.2293 11.3338 13.2019 11.3198 13.1732 11.3028C13.1445 11.2857 13.1153 11.2661 13.0876 11.2454C13.0618 11.228 13.0368 11.2093 13.0139 11.1904C12.9911 11.1715 12.9708 11.1527 12.9543 11.1352C12.9378 11.1177 12.9254 11.1017 12.9178 11.0882C12.9103 11.0747 12.9076 11.064 12.9101 11.0566C12.9125 11.0492 12.9201 11.0453 12.9322 11.0452C12.9443 11.045 12.9609 11.0486 12.9808 11.0556C13.0008 11.0627 13.0238 11.0732 13.0486 11.0864C13.0733 11.0997 13.0993 11.1155 13.1251 11.1329V11.1375Z" fill="#009B3A" stroke="black" stroke-width="0.0125"/>
<path d="M13.1625 11.0814C13.2051 11.1331 13.2423 11.1868 13.2658 11.2308C13.2894 11.2748 13.2974 11.3055 13.288 11.3161C13.2787 11.3266 13.2528 11.3162 13.2161 11.2872C13.1794 11.2581 13.1348 11.2127 13.0922 11.1611C13.0711 11.1355 13.0511 11.1091 13.0334 11.0835C13.0157 11.0578 13.0005 11.0334 12.9889 11.0116C12.9772 10.9898 12.9693 10.9711 12.9655 10.9565C12.9617 10.9418 12.9621 10.9316 12.9667 10.9264C12.9713 10.9212 12.98 10.921 12.9924 10.926C13.0047 10.9309 13.0204 10.9409 13.0386 10.9553C13.0568 10.9697 13.0771 10.9882 13.0984 11.0099C13.1196 11.0315 13.1414 11.0558 13.1625 11.0814Z" fill="#009B3A" stroke="black" stroke-width="0.0125"/>
<path d="M13.237 11.0766C13.2539 11.108 13.2694 11.1398 13.2827 11.17C13.2961 11.2003 13.307 11.2284 13.3147 11.2528C13.3225 11.2772 13.3271 11.2975 13.3281 11.3123C13.3292 11.3272 13.3267 11.3365 13.3208 11.3395C13.315 11.3426 13.3059 11.3395 13.294 11.3303C13.2822 11.3211 13.2678 11.306 13.2518 11.286C13.2357 11.2659 13.2183 11.2412 13.2005 11.2133C13.1827 11.1855 13.1648 11.1549 13.148 11.1235C13.1311 11.092 13.1156 11.0603 13.1022 11.03C13.0889 10.9998 13.078 10.9717 13.0703 10.9472C13.0625 10.9228 13.0579 10.9026 13.0569 10.8877C13.0558 10.8728 13.0583 10.8636 13.0641 10.8605C13.07 10.8574 13.0791 10.8606 13.091 10.8698C13.1028 10.879 13.1172 10.894 13.1332 10.9141C13.1493 10.9342 13.1667 10.9588 13.1845 10.9867C13.2023 11.0146 13.2202 11.0451 13.237 11.0766Z" fill="#009B3A" stroke="black" stroke-width="0.0125"/>
<path d="M13.3029 11.3204L13.2139 11.3392C13.1998 11.3392 13.1857 11.3064 13.1389 11.3157C13.092 11.3251 13.0545 11.3579 13.0451 11.3767C13.0264 11.3954 13.0451 11.4142 13.1014 11.4048C13.1576 11.3954 13.1764 11.3579 13.2045 11.3532L13.3029 11.3345L13.3873 11.2548C13.4107 11.2314 13.4811 11.2079 13.5186 11.161C13.5514 11.1235 13.5514 11.086 13.5186 11.0907C13.4807 11.1038 13.4468 11.1264 13.4201 11.1564C13.3967 11.1845 13.4014 11.2267 13.3732 11.2501L13.3029 11.3204ZM13.5607 11.5642C13.5552 11.5976 13.5484 11.63 13.5407 11.6597C13.533 11.6893 13.5245 11.7157 13.5158 11.7371C13.5071 11.7585 13.4983 11.7747 13.4899 11.7846C13.4816 11.7945 13.4738 11.7981 13.467 11.795C13.4602 11.7919 13.4546 11.7823 13.4505 11.7667C13.4463 11.751 13.4438 11.7297 13.4429 11.7039C13.442 11.6782 13.4429 11.6484 13.4454 11.6164C13.4479 11.5843 13.4521 11.5507 13.4576 11.5173C13.4632 11.4839 13.47 11.4514 13.4777 11.4218C13.4854 11.3921 13.4938 11.3658 13.5026 11.3444C13.5113 11.3229 13.5201 11.3068 13.5284 11.2969C13.5368 11.2869 13.5446 11.2834 13.5514 11.2865C13.5581 11.2896 13.5638 11.2992 13.5679 11.3148C13.572 11.3304 13.5746 11.3517 13.5755 11.3775C13.5763 11.4033 13.5755 11.4331 13.573 11.4651C13.5704 11.4971 13.5663 11.5308 13.5607 11.5642Z" fill="#009B3A" stroke="black" stroke-width="0.0125"/>
<path d="M13.5002 11.55C13.5038 11.5884 13.5056 11.6289 13.5055 11.6682C13.5053 11.7076 13.5032 11.7446 13.4992 11.7763C13.4953 11.808 13.4897 11.8335 13.483 11.8506C13.4762 11.8678 13.4683 11.8761 13.4601 11.8749C13.4519 11.8738 13.4436 11.8631 13.4358 11.8439C13.428 11.8247 13.421 11.7974 13.4153 11.7643C13.4096 11.7312 13.4054 11.6933 13.4031 11.6536C13.4007 11.6139 13.4003 11.5736 13.4018 11.536C13.4001 11.5007 13.3999 11.4654 13.4013 11.4322C13.4026 11.399 13.4054 11.3687 13.4096 11.3432C13.4137 11.3178 13.4191 11.2977 13.4253 11.2843C13.4315 11.2709 13.4384 11.2645 13.4456 11.2655C13.4529 11.2665 13.4602 11.2748 13.4672 11.29C13.4742 11.3052 13.4807 11.3269 13.4863 11.3537C13.4919 11.3805 13.4965 11.4118 13.4997 11.4456C13.5029 11.4794 13.5046 11.515 13.5049 11.55H13.5002Z" fill="#009B3A" stroke="black" stroke-width="0.0125"/>
<path d="M13.3128 11.5688C13.3352 11.5908 13.3567 11.6141 13.3762 11.6373C13.3956 11.6606 13.4126 11.6833 13.426 11.7041C13.4394 11.7249 13.449 11.7435 13.4542 11.7586C13.4595 11.7737 13.4602 11.785 13.4564 11.792C13.4526 11.7989 13.4444 11.8013 13.4322 11.799C13.42 11.7967 13.4041 11.7897 13.3854 11.7785C13.3668 11.7673 13.3457 11.7521 13.3236 11.7338C13.3014 11.7154 13.2786 11.6944 13.2565 11.6719C13.2311 11.6496 13.2055 11.6244 13.1817 11.5982C13.1579 11.5721 13.1365 11.5456 13.1191 11.5209C13.1018 11.4962 13.0889 11.4739 13.0815 11.4556C13.0741 11.4374 13.0723 11.4237 13.0763 11.4156C13.0804 11.4075 13.0901 11.4052 13.1048 11.409C13.1195 11.4127 13.1387 11.4223 13.1611 11.4371C13.1834 11.4518 13.2083 11.4714 13.2337 11.4942C13.2592 11.517 13.2846 11.5426 13.3081 11.5688H13.3128Z" fill="#009B3A" stroke="black" stroke-width="0.0125"/>
<path d="M13.3591 11.5266C13.3754 11.5564 13.3904 11.5868 13.4033 11.616C13.4162 11.6452 13.4268 11.6726 13.4343 11.6968C13.4419 11.7209 13.4464 11.7412 13.4475 11.7566C13.4486 11.772 13.4463 11.7822 13.4408 11.7865C13.4352 11.7908 13.4266 11.7892 13.4152 11.7818C13.4039 11.7743 13.3901 11.7612 13.3747 11.7432C13.3593 11.7251 13.3425 11.7025 13.3254 11.6766C13.3082 11.6507 13.291 11.622 13.2748 11.5922C13.2561 11.5611 13.2383 11.5279 13.2225 11.4951C13.2067 11.4622 13.1933 11.4305 13.1834 11.4023C13.1734 11.374 13.1671 11.3498 13.1649 11.3315C13.1627 11.3132 13.1647 11.3011 13.1707 11.2962C13.1766 11.2913 13.1865 11.2936 13.1994 11.3031C13.2124 11.3125 13.2283 11.3288 13.2458 11.3508C13.2634 11.3728 13.2822 11.4 13.301 11.4304C13.3198 11.4608 13.338 11.4936 13.3544 11.5266H13.3591Z" fill="#009B3A" stroke="black" stroke-width="0.0125"/>
<path d="M13.4301 11.5312C13.4411 11.5658 13.4508 11.6006 13.4587 11.6336C13.4665 11.6665 13.4723 11.697 13.4757 11.7233C13.4792 11.7495 13.4802 11.771 13.4787 11.7865C13.4772 11.8021 13.4733 11.8113 13.4672 11.8138C13.461 11.8163 13.4527 11.8119 13.4428 11.8009C13.4329 11.7899 13.4216 11.7725 13.4094 11.7498C13.3973 11.727 13.3846 11.6993 13.372 11.6682C13.3595 11.6372 13.3474 11.6033 13.3364 11.5687C13.3253 11.534 13.3156 11.4992 13.3078 11.4663C13.3 11.4333 13.2942 11.4029 13.2907 11.3766C13.2873 11.3504 13.2863 11.3289 13.2878 11.3133C13.2892 11.2978 13.2932 11.2885 13.2993 11.2861C13.3055 11.2836 13.3137 11.288 13.3236 11.299C13.3335 11.31 13.3449 11.3273 13.357 11.3501C13.3692 11.3729 13.3819 11.4006 13.3944 11.4316C13.407 11.4627 13.4191 11.4965 13.4301 11.5312Z" fill="#009B3A" stroke="black" stroke-width="0.0125"/>
<path d="M13.453 11.7891H13.3593C13.3452 11.7891 13.3405 11.7516 13.2936 11.7516C13.2468 11.7516 13.1999 11.7751 13.1858 11.7938C13.1671 11.8079 13.1858 11.8313 13.2374 11.8313C13.2936 11.8313 13.3218 11.8032 13.3499 11.7985H13.4483L13.5421 11.7376C13.5702 11.7188 13.6499 11.7094 13.6921 11.6719C13.7296 11.6438 13.7389 11.6016 13.7061 11.6063C13.6652 11.6117 13.6263 11.6279 13.5936 11.6532C13.5655 11.6719 13.5655 11.7141 13.5327 11.7329L13.4483 11.7891M13.5749 12.1032C13.5389 12.1605 13.5005 12.211 13.4681 12.2437C13.4356 12.2763 13.4118 12.2883 13.4019 12.2771C13.3919 12.266 13.3967 12.2324 13.415 12.184C13.4334 12.1356 13.4639 12.0761 13.4999 12.0188C13.5358 11.9615 13.5742 11.911 13.6067 11.8783C13.6391 11.8457 13.6629 11.8337 13.6729 11.8449C13.6828 11.8561 13.6781 11.8896 13.6597 11.938C13.6413 11.9864 13.6108 12.0459 13.5749 12.1032Z" fill="#009B3A"/>
<path d="M13.453 11.7891H13.3593C13.3452 11.7891 13.3405 11.7516 13.2936 11.7516C13.2468 11.7516 13.1999 11.7751 13.1858 11.7938C13.1671 11.8079 13.1858 11.8313 13.2374 11.8313C13.2936 11.8313 13.3218 11.8032 13.3499 11.7985H13.4483L13.5421 11.7376C13.5702 11.7188 13.6499 11.7094 13.6921 11.6719C13.7296 11.6438 13.7389 11.6016 13.7061 11.6063C13.6652 11.6117 13.6263 11.6279 13.5936 11.6532C13.5655 11.6719 13.5655 11.7141 13.5327 11.7329L13.4483 11.7891M13.5749 12.1032C13.5389 12.1605 13.5005 12.211 13.4681 12.2437C13.4356 12.2763 13.4118 12.2883 13.4019 12.2771C13.3919 12.266 13.3967 12.2324 13.415 12.184C13.4334 12.1356 13.4639 12.0761 13.4999 12.0188C13.5358 11.9615 13.5742 11.911 13.6067 11.8783C13.6391 11.8457 13.6629 11.8337 13.6729 11.8449C13.6828 11.8561 13.6781 11.8896 13.6597 11.938C13.6413 11.9864 13.6108 12.0459 13.5749 12.1032Z" stroke="black" stroke-width="0.0125"/>
<path d="M13.5283 12.0658C13.5152 12.0999 13.501 12.133 13.4867 12.1632C13.4723 12.1933 13.458 12.2199 13.4446 12.2414C13.4312 12.263 13.4189 12.279 13.4085 12.2887C13.3981 12.2983 13.3897 12.3014 13.3839 12.2977C13.378 12.294 13.3748 12.2836 13.3744 12.2671C13.3741 12.2507 13.3765 12.2284 13.3816 12.2016C13.3868 12.1749 13.3945 12.1442 13.4044 12.1112C13.4143 12.0782 13.4261 12.0437 13.4392 12.0095C13.4657 11.9406 13.4958 11.8774 13.5228 11.8339C13.5499 11.7904 13.5718 11.7702 13.5836 11.7776C13.5954 11.7851 13.5962 11.8196 13.5858 11.8737C13.5754 11.9277 13.5547 11.9968 13.5283 12.0658ZM13.3454 12.0049C13.3681 12.0635 13.3849 12.1237 13.3921 12.1722C13.3993 12.2207 13.3964 12.2535 13.384 12.2635C13.3715 12.2734 13.3506 12.2596 13.3258 12.2252C13.301 12.1908 13.2743 12.1385 13.2517 12.0799C13.2291 12.0212 13.2123 11.961 13.2051 11.9125C13.1978 11.864 13.2008 11.8312 13.2132 11.8212C13.2256 11.8113 13.2465 11.8251 13.2713 11.8595C13.2961 11.8939 13.3228 11.9462 13.3454 12.0049Z" fill="#009B3A" stroke="black" stroke-width="0.0125"/>
<path d="M13.4064 11.9859C13.4134 12.0623 13.4147 12.137 13.41 12.1936C13.4053 12.2503 13.3949 12.2842 13.3813 12.2879C13.3676 12.2917 13.3517 12.2649 13.3371 12.2135C13.3224 12.1622 13.3103 12.0904 13.3033 12.014C13.2998 11.9762 13.2977 11.9384 13.2971 11.9028C13.2964 11.8671 13.2973 11.8343 13.2997 11.8063C13.302 11.7783 13.3057 11.7555 13.3107 11.7393C13.3156 11.7231 13.3216 11.7139 13.3284 11.712C13.3352 11.7102 13.3425 11.7158 13.3501 11.7286C13.3577 11.7413 13.3653 11.761 13.3726 11.7864C13.3798 11.8118 13.3865 11.8426 13.3923 11.8768C13.3981 11.911 13.4029 11.9481 13.4064 11.9859Z" fill="#009B3A" stroke="black" stroke-width="0.0125"/>
<path d="M13.4722 12.0235C13.4686 12.0608 13.4637 12.0975 13.4578 12.1316C13.4519 12.1658 13.4451 12.1967 13.4378 12.2226C13.4305 12.2485 13.4228 12.2688 13.4152 12.2825C13.4076 12.2962 13.4002 12.3029 13.3934 12.3023C13.3866 12.3017 13.3806 12.2937 13.3757 12.2789C13.3708 12.2641 13.3672 12.2427 13.3649 12.216C13.3626 12.1892 13.3618 12.1576 13.3626 12.123C13.3633 12.0884 13.3655 12.0514 13.3691 12.0142C13.3726 11.9769 13.3775 11.9402 13.3834 11.906C13.3893 11.8719 13.3961 11.841 13.4034 11.8151C13.4107 11.7892 13.4184 11.7688 13.4261 11.7552C13.4337 11.7415 13.4411 11.7348 13.4479 11.7354C13.4546 11.736 13.4606 11.7439 13.4655 11.7588C13.4704 11.7736 13.4741 11.795 13.4763 11.8217C13.4786 11.8485 13.4794 11.8801 13.4787 11.9147C13.478 11.9493 13.4758 11.9863 13.4722 12.0235Z" fill="#009B3A" stroke="black" stroke-width="0.0125"/>
<path d="M13.3873 12.2673L13.3077 12.2298C13.2936 12.2204 13.303 12.1876 13.2608 12.1689C13.2139 12.1501 13.167 12.1501 13.1483 12.1595C13.1248 12.1689 13.1295 12.1923 13.1811 12.2204C13.228 12.2439 13.2655 12.2251 13.2936 12.2392L13.3873 12.2767L13.4905 12.2579C13.5233 12.2579 13.5983 12.2767 13.6498 12.2579C13.6967 12.2485 13.7202 12.211 13.692 12.2017C13.6526 12.1889 13.6104 12.1873 13.5702 12.197C13.5373 12.2064 13.5186 12.2439 13.4858 12.2532C13.4623 12.2532 13.392 12.272 13.3873 12.2673ZM13.4342 12.6517C13.4052 12.6766 13.3757 12.6998 13.3474 12.7198C13.3191 12.7398 13.2927 12.7562 13.2695 12.7682C13.2463 12.7802 13.2269 12.7875 13.2124 12.7897C13.1979 12.7918 13.1885 12.7888 13.1848 12.7808C13.1811 12.7728 13.1832 12.76 13.1909 12.743C13.1986 12.7261 13.2118 12.7054 13.2297 12.6821C13.2477 12.6588 13.27 12.6333 13.2954 12.6072C13.3209 12.5811 13.3489 12.5548 13.378 12.5298C13.4064 12.5055 13.4352 12.483 13.4627 12.4636C13.4902 12.4442 13.516 12.4283 13.5384 12.4167C13.5609 12.4052 13.5797 12.3983 13.5937 12.3964C13.6077 12.3944 13.6166 12.3976 13.62 12.4056C13.6234 12.4136 13.6212 12.4263 13.6134 12.443C13.6057 12.4597 13.5926 12.48 13.5749 12.5029C13.5572 12.5257 13.5353 12.5506 13.5103 12.5762C13.4854 12.6017 13.4579 12.6274 13.4295 12.6517" fill="#009B3A"/>
<path d="M13.4342 12.6517C13.4052 12.6766 13.3757 12.6998 13.3474 12.7198C13.3191 12.7398 13.2927 12.7562 13.2695 12.7682C13.2463 12.7802 13.2269 12.7875 13.2124 12.7897C13.1979 12.7918 13.1885 12.7888 13.1848 12.7808C13.1811 12.7728 13.1832 12.76 13.1909 12.743C13.1986 12.7261 13.2118 12.7054 13.2297 12.6821C13.2477 12.6588 13.27 12.6333 13.2954 12.6072C13.3209 12.5811 13.3489 12.5548 13.378 12.5298C13.4064 12.5055 13.4352 12.483 13.4627 12.4636C13.4902 12.4442 13.516 12.4283 13.5384 12.4167C13.5609 12.4052 13.5797 12.3983 13.5937 12.3964C13.6077 12.3944 13.6166 12.3976 13.62 12.4056C13.6234 12.4136 13.6212 12.4263 13.6134 12.443C13.6057 12.4597 13.5926 12.48 13.5749 12.5029C13.5572 12.5257 13.5353 12.5506 13.5103 12.5762C13.4854 12.6017 13.4579 12.6274 13.4295 12.6517M13.3873 12.2673L13.3077 12.2298C13.2936 12.2204 13.303 12.1876 13.2608 12.1689C13.2139 12.1501 13.167 12.1501 13.1483 12.1595C13.1248 12.1689 13.1295 12.1923 13.1811 12.2204C13.228 12.2439 13.2655 12.2251 13.2936 12.2392L13.3873 12.2767L13.4905 12.2579C13.5233 12.2579 13.5983 12.2767 13.6498 12.2579C13.6967 12.2485 13.7202 12.211 13.692 12.2017C13.6526 12.1889 13.6104 12.1873 13.5702 12.197C13.5373 12.2064 13.5186 12.2439 13.4858 12.2532C13.4623 12.2532 13.392 12.272 13.3873 12.2673Z" stroke="black" stroke-width="0.0125"/>
<path d="M13.3877 12.5953C13.3627 12.6316 13.3348 12.6681 13.3062 12.7018C13.2776 12.7356 13.2492 12.7657 13.2231 12.7897C13.1971 12.8137 13.1741 12.831 13.1561 12.8401C13.1381 12.8493 13.1256 12.8501 13.1195 12.8425C13.1134 12.8348 13.1139 12.819 13.121 12.7962C13.128 12.7734 13.1415 12.7443 13.1603 12.7111C13.1791 12.678 13.2026 12.6418 13.2291 12.6054C13.2555 12.5691 13.2842 12.5335 13.3127 12.5016C13.3377 12.4653 13.3656 12.4288 13.3941 12.3951C13.4227 12.3613 13.4512 12.3313 13.4772 12.3072C13.5033 12.2832 13.5262 12.266 13.5442 12.2568C13.5622 12.2476 13.5748 12.2468 13.5809 12.2545C13.587 12.2621 13.5865 12.2779 13.5794 12.3007C13.5723 12.3235 13.5588 12.3527 13.54 12.3858C13.5213 12.4189 13.4977 12.4551 13.4713 12.4915C13.4448 12.5279 13.4162 12.5634 13.3877 12.5953Z" fill="#009B3A" stroke="black" stroke-width="0.0125"/>
<path d="M13.2096 12.4594C13.2125 12.497 13.2138 12.5349 13.2133 12.5708C13.2129 12.6067 13.2108 12.6401 13.2072 12.6688C13.2036 12.6976 13.1985 12.7213 13.1922 12.7386C13.1859 12.7558 13.1785 12.7663 13.1705 12.7693C13.1625 12.7724 13.154 12.768 13.1455 12.7565C13.137 12.7449 13.1287 12.7264 13.121 12.702C13.1133 12.6776 13.1065 12.6477 13.1007 12.6141C13.095 12.5805 13.0906 12.5439 13.0878 12.5062C13.0849 12.4686 13.0836 12.4307 13.0841 12.3948C13.0845 12.3589 13.0866 12.3255 13.0902 12.2968C13.0938 12.268 13.0989 12.2443 13.1052 12.227C13.1115 12.2098 13.1189 12.1993 13.1269 12.1963C13.1349 12.1932 13.1434 12.1976 13.1519 12.2091C13.1604 12.2207 13.1687 12.2392 13.1764 12.2636C13.1841 12.2881 13.191 12.3179 13.1967 12.3515C13.2024 12.3851 13.2068 12.4217 13.2096 12.4594Z" fill="#009B3A" stroke="black" stroke-width="0.0125"/>
<path d="M13.2795 12.4593C13.2638 12.5186 13.2456 12.5703 13.2276 12.6066C13.2096 12.6428 13.1928 12.6619 13.1797 12.6608C13.1665 12.6598 13.1577 12.6387 13.1546 12.6007C13.1515 12.5627 13.1542 12.5099 13.1623 12.45C13.1682 12.4065 13.1767 12.3608 13.1873 12.3165C13.1978 12.2721 13.21 12.2304 13.2229 12.1947C13.2359 12.1589 13.2492 12.13 13.2617 12.1105C13.2743 12.0909 13.2858 12.0811 13.2954 12.0818C13.3049 12.0826 13.3122 12.0939 13.3167 12.1149C13.3212 12.1358 13.3227 12.1658 13.3211 12.2025C13.3196 12.2392 13.315 12.2815 13.3078 12.3261C13.3005 12.3707 13.2908 12.4163 13.2795 12.4593Z" fill="#009B3A" stroke="black" stroke-width="0.0125"/>
<path d="M13.341 12.5204C13.3258 12.558 13.3093 12.5946 13.2925 12.6283C13.2757 12.6619 13.259 12.6919 13.2432 12.7165C13.2274 12.7411 13.2129 12.7599 13.2006 12.7717C13.1882 12.7835 13.1782 12.7882 13.1711 12.7854C13.1568 12.7798 13.1553 12.7443 13.167 12.6867C13.1786 12.6291 13.2024 12.5541 13.2332 12.4782C13.2487 12.4401 13.2655 12.403 13.2825 12.3689C13.2996 12.3349 13.3166 12.3046 13.3325 12.2798C13.3485 12.2551 13.3632 12.2363 13.3756 12.2245C13.3881 12.2128 13.3982 12.2083 13.4053 12.2114C13.4123 12.2145 13.4163 12.225 13.4169 12.2425C13.4175 12.2599 13.4147 12.2839 13.4088 12.313C13.4028 12.3421 13.3938 12.3758 13.3821 12.4122C13.3705 12.4486 13.3565 12.487 13.341 12.5251" fill="#009B3A"/>
<path d="M13.341 12.5204C13.3258 12.558 13.3093 12.5946 13.2925 12.6283C13.2757 12.6619 13.259 12.6919 13.2432 12.7165C13.2274 12.7411 13.2129 12.7599 13.2006 12.7717C13.1882 12.7835 13.1782 12.7882 13.1711 12.7854C13.1568 12.7798 13.1553 12.7443 13.167 12.6867C13.1786 12.6291 13.2024 12.5541 13.2332 12.4782C13.2487 12.4401 13.2655 12.403 13.2825 12.3689C13.2996 12.3349 13.3166 12.3046 13.3325 12.2798C13.3485 12.2551 13.3632 12.2363 13.3756 12.2245C13.3881 12.2128 13.3982 12.2083 13.4053 12.2114C13.4123 12.2145 13.4163 12.225 13.4169 12.2425C13.4175 12.2599 13.4147 12.2839 13.4088 12.313C13.4028 12.3421 13.3938 12.3758 13.3821 12.4122C13.3705 12.4486 13.3565 12.487 13.341 12.5251" stroke="black" stroke-width="0.0125"/>
<path d="M13.1714 12.7641L13.0917 12.6937C13.0824 12.6797 13.1011 12.6469 13.0589 12.6094C13.0255 12.5793 12.9821 12.5626 12.9371 12.5625C12.9089 12.5625 12.9089 12.5906 12.9558 12.6375C13.0027 12.6844 13.0496 12.675 13.073 12.6984C13.1057 12.7196 13.1356 12.7448 13.1621 12.7734L13.2886 12.7922C13.3214 12.7969 13.3964 12.8531 13.4621 12.8531C13.5183 12.8531 13.5558 12.825 13.523 12.8016C13.4856 12.7752 13.442 12.759 13.3964 12.7547C13.3542 12.7547 13.3214 12.7875 13.2792 12.7828L13.1667 12.7641M13.0542 13.1297C13.0097 13.1397 12.9633 13.1476 12.9187 13.1527C12.8741 13.1578 12.8325 13.1601 12.797 13.1592C12.7615 13.1584 12.7332 13.1545 12.714 13.1478C12.6949 13.1412 12.6855 13.132 12.6866 13.1209C12.6877 13.1099 12.6993 13.0972 12.7204 13.084C12.7415 13.0707 12.7717 13.0572 12.8085 13.0445C12.8453 13.0318 12.8879 13.0202 12.9329 13.0105C12.978 13.0009 13.0243 12.9936 13.0683 12.9891C13.1129 12.979 13.1593 12.9712 13.2039 12.966C13.2484 12.9609 13.2901 12.9587 13.3255 12.9595C13.361 12.9604 13.3894 12.9643 13.4085 12.9709C13.4277 12.9775 13.4371 12.9867 13.4359 12.9978C13.4348 13.0089 13.4233 13.0215 13.4022 13.0348C13.381 13.048 13.3509 13.0615 13.3141 13.0743C13.2772 13.087 13.2347 13.0986 13.1896 13.1082C13.1446 13.1178 13.0983 13.1252 13.0542 13.1297Z" fill="#009B3A"/>
<path d="M13.1714 12.7641L13.0917 12.6937C13.0824 12.6797 13.1011 12.6469 13.0589 12.6094C13.0255 12.5793 12.9821 12.5626 12.9371 12.5625C12.9089 12.5625 12.9089 12.5906 12.9558 12.6375C13.0027 12.6844 13.0496 12.675 13.073 12.6984C13.1057 12.7196 13.1356 12.7448 13.1621 12.7734L13.2886 12.7922C13.3214 12.7969 13.3964 12.8531 13.4621 12.8531C13.5183 12.8531 13.5558 12.825 13.523 12.8016C13.4856 12.7752 13.442 12.759 13.3964 12.7547C13.3542 12.7547 13.3214 12.7875 13.2792 12.7828L13.1667 12.7641M13.0542 13.1297C13.0097 13.1397 12.9633 13.1476 12.9187 13.1527C12.8741 13.1578 12.8325 13.1601 12.797 13.1592C12.7615 13.1584 12.7332 13.1545 12.714 13.1478C12.6949 13.1412 12.6855 13.132 12.6866 13.1209C12.6877 13.1099 12.6993 13.0972 12.7204 13.084C12.7415 13.0707 12.7717 13.0572 12.8085 13.0445C12.8453 13.0318 12.8879 13.0202 12.9329 13.0105C12.978 13.0009 13.0243 12.9936 13.0683 12.9891C13.1129 12.979 13.1593 12.9712 13.2039 12.966C13.2484 12.9609 13.2901 12.9587 13.3255 12.9595C13.361 12.9604 13.3894 12.9643 13.4085 12.9709C13.4277 12.9775 13.4371 12.9867 13.4359 12.9978C13.4348 13.0089 13.4233 13.0215 13.4022 13.0348C13.381 13.048 13.3509 13.0615 13.3141 13.0743C13.2772 13.087 13.2347 13.0986 13.1896 13.1082C13.1446 13.1178 13.0983 13.1252 13.0542 13.1297Z" stroke="black" stroke-width="0.0125"/>
<path d="M13.0498 13.05C12.9752 13.0773 12.9044 13.0964 12.8516 13.1037C12.7988 13.111 12.7678 13.1059 12.7649 13.0893C12.7619 13.0728 12.7872 13.0461 12.8356 13.0145C12.8841 12.9829 12.9522 12.9487 13.0264 12.9188C13.1011 12.8915 13.1719 12.8723 13.2247 12.865C13.2775 12.8578 13.3084 12.8629 13.3114 12.8794C13.3143 12.896 13.2891 12.9227 13.2406 12.9543C13.1921 12.9859 13.124 13.0201 13.0498 13.05Z" fill="#009B3A" stroke="black" stroke-width="0.0125"/>
<path d="M12.9424 12.8205C12.9091 12.8844 12.8727 12.9415 12.8397 12.9813C12.8067 13.0211 12.7793 13.0411 12.7623 13.0377C12.7454 13.0343 12.7401 13.0078 12.7473 12.9628C12.7545 12.9178 12.7738 12.8574 12.8018 12.7923C12.8188 12.7527 12.8384 12.7127 12.8594 12.675C12.8803 12.6373 12.9021 12.6027 12.9231 12.5738C12.9442 12.5449 12.964 12.5223 12.9813 12.5075C12.9985 12.4927 13.0128 12.4861 13.0231 12.4882C13.0334 12.4902 13.0395 12.5009 13.041 12.5194C13.0424 12.538 13.0392 12.5639 13.0315 12.5955C13.0238 12.6271 13.0119 12.6636 12.9965 12.7024C12.9811 12.7412 12.9627 12.7815 12.9424 12.8205Z" fill="#009B3A" stroke="black" stroke-width="0.0125"/>
<path d="M13.0171 12.8625C12.9885 12.8949 12.9586 12.9261 12.9293 12.9542C12.9 12.9823 12.8717 13.0068 12.8462 13.0263C12.8207 13.0458 12.7984 13.0598 12.7806 13.0677C12.7628 13.0756 12.7499 13.0771 12.7425 13.0722C12.7351 13.0672 12.7334 13.056 12.7376 13.039C12.7417 13.022 12.7516 12.9997 12.7667 12.9732C12.7817 12.9468 12.8017 12.9168 12.8253 12.8849C12.849 12.853 12.876 12.8199 12.9046 12.7875C12.9626 12.7219 13.0241 12.663 13.0756 12.6237C13.1271 12.5843 13.1644 12.5678 13.1793 12.5778C13.1942 12.5877 13.1855 12.6233 13.1551 12.6767C13.1247 12.7301 13.0751 12.7969 13.0171 12.8625Z" fill="#009B3A" stroke="black" stroke-width="0.0125"/>
<path d="M13.036 12.9562C13.0001 12.985 12.9624 13.0126 12.9255 13.0372C12.8886 13.0619 12.8533 13.083 12.822 13.0991C12.7906 13.1153 12.7639 13.1261 12.7436 13.1309C12.7233 13.1358 12.7099 13.1345 12.7042 13.1271C12.6986 13.1198 12.7008 13.1066 12.7107 13.0884C12.7207 13.0701 12.7381 13.0473 12.762 13.0214C12.7858 12.9955 12.8154 12.9671 12.8489 12.9381C12.8824 12.9091 12.919 12.8801 12.9563 12.8531C13.0265 12.7995 13.0982 12.7535 13.1557 12.7253C13.2133 12.697 13.2519 12.6888 13.263 12.7025C13.2742 12.7162 13.2571 12.7506 13.2154 12.7982C13.1737 12.8457 13.1109 12.9026 13.0407 12.9562" fill="#009B3A"/>
<path d="M13.036 12.9562C13.0001 12.985 12.9624 13.0126 12.9255 13.0372C12.8886 13.0619 12.8533 13.083 12.822 13.0991C12.7906 13.1153 12.7639 13.1261 12.7436 13.1309C12.7233 13.1358 12.7099 13.1345 12.7042 13.1271C12.6986 13.1198 12.7008 13.1066 12.7107 13.0884C12.7207 13.0701 12.7381 13.0473 12.762 13.0214C12.7858 12.9955 12.8154 12.9671 12.8489 12.9381C12.8824 12.9091 12.919 12.8801 12.9563 12.8531C13.0265 12.7995 13.0982 12.7535 13.1557 12.7253C13.2133 12.697 13.2519 12.6888 13.263 12.7025C13.2742 12.7162 13.2571 12.7506 13.2154 12.7982C13.1737 12.8457 13.1109 12.9026 13.0407 12.9562" stroke="black" stroke-width="0.0125"/>
<path d="M12.7404 13.0875L12.7076 12.9797C12.7029 12.9562 12.7404 12.9328 12.7216 12.8766C12.7058 12.8273 12.6724 12.7856 12.6279 12.7594C12.6044 12.7453 12.581 12.7734 12.6044 12.8437C12.6232 12.9141 12.6747 12.9375 12.6888 12.9703L12.7263 13.0922C12.7544 13.1062 12.806 13.1578 12.8388 13.1859C12.8716 13.2094 12.9138 13.3031 12.9794 13.3406C13.0263 13.3734 13.0732 13.3687 13.0638 13.3266C13.0415 13.2798 13.0076 13.2394 12.9654 13.2094C12.9279 13.1812 12.8716 13.1953 12.8388 13.1672C12.8154 13.1484 12.7404 13.0922 12.7451 13.0875" fill="#009B3A"/>
<path d="M12.7404 13.0875L12.7076 12.9797C12.7029 12.9562 12.7404 12.9328 12.7216 12.8766C12.7058 12.8273 12.6724 12.7856 12.6279 12.7594C12.6044 12.7453 12.581 12.7734 12.6044 12.8437C12.6232 12.9141 12.6747 12.9375 12.6888 12.9703L12.7263 13.0922C12.7544 13.1062 12.806 13.1578 12.8388 13.1859C12.8716 13.2094 12.9138 13.3031 12.9794 13.3406C13.0263 13.3734 13.0732 13.3687 13.0638 13.3266C13.0415 13.2798 13.0076 13.2394 12.9654 13.2094C12.9279 13.1812 12.8716 13.1953 12.8388 13.1672C12.8154 13.1484 12.7404 13.0922 12.7451 13.0875" stroke="black" stroke-width="0.0125"/>
<path d="M12.5623 13.4016C12.4824 13.4025 12.4062 13.3941 12.3501 13.3784C12.2941 13.3626 12.2627 13.3407 12.2627 13.3173C12.2627 13.2939 12.2941 13.271 12.3501 13.2534C12.4062 13.2359 12.4824 13.2251 12.5623 13.2235C12.6422 13.2226 12.7183 13.2309 12.7744 13.2467C12.8304 13.2624 12.8618 13.2844 12.8618 13.3077C12.8618 13.3311 12.8304 13.354 12.7744 13.3716C12.7183 13.3891 12.6422 13.3999 12.5623 13.4016Z" fill="#009B3A" stroke="black" stroke-width="0.0125"/>
<path d="M12.5202 13.1251C12.4671 13.1934 12.4094 13.253 12.3596 13.2908C12.3098 13.3286 12.272 13.3414 12.2546 13.3265C12.2372 13.3116 12.2416 13.2701 12.2668 13.2113C12.292 13.1524 12.3359 13.0809 12.3889 13.0126C12.4419 12.9443 12.4997 12.8847 12.5495 12.8469C12.5993 12.8092 12.637 12.7963 12.6544 12.8112C12.6718 12.8262 12.6675 12.8676 12.6423 12.9265C12.6171 12.9853 12.5732 13.0568 12.5202 13.1251Z" fill="#009B3A" stroke="black" stroke-width="0.0125"/>
<path d="M12.5623 13.2657C12.4963 13.2897 12.4343 13.3045 12.3869 13.3075C12.3395 13.3105 12.3097 13.3015 12.3025 13.2822C12.2953 13.2628 12.3112 13.2342 12.3475 13.2013C12.3837 13.1683 12.4381 13.1331 12.5014 13.1016C12.5674 13.0776 12.6294 13.0628 12.6768 13.0598C12.7242 13.0568 12.754 13.0658 12.7612 13.0852C12.7684 13.1045 12.7525 13.1331 12.7162 13.166C12.68 13.199 12.6256 13.2342 12.5623 13.2657ZM12.6467 10.5938C12.6805 10.6253 12.7086 10.6564 12.7255 10.6809C12.7424 10.7055 12.7469 10.7217 12.738 10.7264C12.7292 10.7311 12.7078 10.7239 12.6778 10.7063C12.6479 10.6887 12.6117 10.662 12.5764 10.6313C12.5567 10.6143 12.5379 10.5965 12.5212 10.5792C12.5044 10.5619 12.4901 10.5454 12.4792 10.5309C12.4682 10.5163 12.4609 10.5039 12.4576 10.4945C12.4543 10.4851 12.4551 10.4789 12.46 10.4763C12.4649 10.4736 12.4738 10.4747 12.4861 10.4793C12.4983 10.4839 12.5137 10.492 12.5313 10.5031C12.5489 10.5141 12.5682 10.5279 12.5881 10.5435C12.6079 10.5592 12.6279 10.5763 12.6467 10.5938ZM12.5529 10.6735C12.6047 10.6803 12.6552 10.691 12.6931 10.7033C12.7311 10.7156 12.7534 10.7284 12.7553 10.739C12.7571 10.7496 12.7384 10.757 12.7031 10.7597C12.6677 10.7623 12.6188 10.76 12.567 10.7532C12.5152 10.7464 12.4648 10.7357 12.4268 10.7234C12.3889 10.7111 12.3665 10.6983 12.3647 10.6877C12.3628 10.6771 12.3816 10.6697 12.4169 10.667C12.4522 10.6644 12.5011 10.6667 12.5529 10.6735Z" fill="#009B3A" stroke="black" stroke-width="0.0125"/>
<path d="M12.5908 10.622C12.6388 10.6464 12.6828 10.6732 12.7133 10.6966C12.7437 10.7199 12.758 10.7379 12.753 10.7466C12.748 10.7553 12.7242 10.754 12.6867 10.743C12.6493 10.7319 12.6013 10.712 12.5533 10.6877C12.5296 10.6756 12.5065 10.6628 12.4855 10.65C12.4645 10.6373 12.4459 10.6247 12.4309 10.6131C12.4005 10.5898 12.3862 10.5718 12.3912 10.5631C12.3961 10.5544 12.42 10.5557 12.4574 10.5667C12.4948 10.5778 12.5428 10.5977 12.5908 10.622ZM11.208 13.1017C11.208 13.1017 11.4658 13.158 11.6908 13.2377C11.9111 13.3174 12.2533 13.5986 12.3471 13.6127C12.4455 13.6174 12.5861 13.5845 12.6424 13.4345C12.483 13.4814 12.3893 13.5424 12.2393 13.458C12.1877 13.4392 12.0143 13.2799 11.8174 13.1955C11.6307 13.1227 11.4397 13.0617 11.2455 13.0127L11.208 13.1017ZM11.4846 10.7767L11.7799 10.6174L11.4518 10.7017L11.4143 10.758L11.4846 10.7767Z" fill="#009B3A" stroke="black" stroke-width="0.0125"/>
<path d="M11.7652 10.8468C11.648 10.8281 11.4699 10.7859 11.3574 10.7765C11.4371 10.6921 11.5449 10.5468 11.6105 10.4578C11.5637 10.5421 11.498 10.6546 11.4699 10.739C11.5496 10.7812 11.6762 10.814 11.7652 10.8468Z" fill="#009B3A" stroke="black" stroke-width="0.0125"/>
<path d="M11.4277 10.7954L11.6902 10.5891L11.3855 10.7297L11.3574 10.7907H11.4277" fill="#009B3A"/>
<path d="M11.4277 10.7954L11.6902 10.5891L11.3855 10.7297L11.3574 10.7907H11.4277" stroke="black" stroke-width="0.0125"/>
<path d="M11.7098 10.8423C11.5926 10.8235 11.4191 10.7813 11.3066 10.772C11.3816 10.6829 11.4848 10.5376 11.5504 10.4438C11.5035 10.5282 11.4426 10.6454 11.4145 10.7298C11.4941 10.7767 11.6207 10.8095 11.7098 10.8423Z" fill="#009B3A" stroke="black" stroke-width="0.0125"/>
<path d="M11.3857 10.8094L11.6951 10.6829L11.3623 10.7344L11.3154 10.7907L11.3857 10.8094Z" fill="#009B3A" stroke="black" stroke-width="0.0125"/>
<path d="M11.6715 10.8468C11.559 10.8375 11.3762 10.814 11.2637 10.8187C11.3293 10.7203 11.4137 10.5562 11.4699 10.4578C11.4371 10.5515 11.3855 10.6734 11.3715 10.7625C11.4559 10.8 11.5824 10.8234 11.6762 10.8468" fill="#009B3A"/>
<path d="M11.6715 10.8468C11.559 10.8375 11.3762 10.814 11.2637 10.8187C11.3293 10.7203 11.4137 10.5562 11.4699 10.4578C11.4371 10.5515 11.3855 10.6734 11.3715 10.7625C11.4559 10.8 11.5824 10.8234 11.6762 10.8468" stroke="black" stroke-width="0.0125"/>
<path d="M11.3527 10.8142L11.5637 10.5564L11.2965 10.7533L11.2871 10.8236L11.3527 10.8095" fill="#009B3A"/>
<path d="M11.3527 10.8142L11.5637 10.5564L11.2965 10.7533L11.2871 10.8236L11.3527 10.8095" stroke="black" stroke-width="0.0125"/>
<path d="M11.6723 10.8656C11.5504 10.8656 11.3535 10.8516 11.2363 10.8656C11.2973 10.7484 11.3676 10.5656 11.4145 10.4531C11.391 10.5563 11.3488 10.6969 11.3395 10.7953C11.4332 10.8281 11.5738 10.8422 11.6723 10.8656Z" fill="#009B3A" stroke="black" stroke-width="0.0125"/>
<path d="M11.3113 10.8751C11.3947 10.7913 11.4791 10.7085 11.5645 10.6267L11.2598 10.8001L11.2363 10.8705H11.3113" fill="#009B3A"/>
<path d="M11.3113 10.8751C11.3947 10.7913 11.4791 10.7085 11.5645 10.6267L11.2598 10.8001L11.2363 10.8705H11.3113" stroke="black" stroke-width="0.0125"/>
<path d="M11.6152 10.875C11.484 10.875 11.2777 10.8657 11.1465 10.8797C11.2309 10.7532 11.3527 10.5516 11.4277 10.425C11.3809 10.5375 11.3012 10.6969 11.273 10.8C11.3668 10.8375 11.5121 10.8469 11.6152 10.8704" fill="#009B3A"/>
<path d="M11.6152 10.875C11.484 10.875 11.2777 10.8657 11.1465 10.8797C11.2309 10.7532 11.3527 10.5516 11.4277 10.425C11.3809 10.5375 11.3012 10.6969 11.273 10.8C11.3668 10.8375 11.5121 10.8469 11.6152 10.8704" stroke="black" stroke-width="0.0125"/>
<path d="M11.2262 10.8891L11.5543 10.6125L11.1793 10.8094L11.1465 10.8891H11.2262Z" fill="#009B3A" stroke="black" stroke-width="0.0125"/>
<path d="M11.5684 10.8797C11.4371 10.8985 11.2309 10.9219 11.0996 10.9547C11.1769 10.7969 11.2473 10.6358 11.3105 10.4719C11.2824 10.5891 11.2309 10.7532 11.2168 10.861C11.3152 10.8797 11.4605 10.875 11.5684 10.8797Z" fill="#009B3A" stroke="black" stroke-width="0.0125"/>
<path d="M11.1842 10.9453C11.2659 10.8289 11.3488 10.7133 11.4326 10.5984L11.1186 10.8796L11.1045 10.9687L11.1795 10.9453" fill="#009B3A"/>
<path d="M11.1842 10.9453C11.2659 10.8289 11.3488 10.7133 11.4326 10.5984L11.1186 10.8796L11.1045 10.9687L11.1795 10.9453" stroke="black" stroke-width="0.0125"/>
<path d="M11.4941 10.9219C11.3629 10.9359 11.1566 10.9453 11.0254 10.9688C11.1004 10.8422 11.2035 10.6312 11.2598 10.5C11.227 10.6172 11.166 10.7766 11.1473 10.8844C11.241 10.9078 11.391 10.9078 11.4941 10.9219Z" fill="#009B3A" stroke="black" stroke-width="0.0125"/>
<path d="M11.1373 10.9829L11.4561 10.7017L11.0951 10.8985L11.0576 10.9829H11.1373Z" fill="#009B3A" stroke="black" stroke-width="0.0125"/>
<path d="M11.4561 10.9359C11.3201 10.9641 11.1139 10.9969 10.9873 11.0391C11.0482 10.9031 11.1279 10.6828 11.1748 10.5469C11.1514 10.6687 11.1092 10.8281 11.0998 10.9406C11.1982 10.9547 11.3482 10.9359 11.4561 10.9359Z" fill="#009B3A" stroke="black" stroke-width="0.0125"/>
<path d="M11.0857 10.9969L11.2873 10.6172L11.0107 10.9453V11.0297L11.0857 10.9969Z" fill="#009B3A" stroke="black" stroke-width="0.0125"/>
<path d="M11.4566 10.9595C11.316 10.9923 11.091 11.0438 10.9551 11.0954C11.0066 10.9407 11.0676 10.6923 11.1051 10.5376C11.091 10.6735 11.0582 10.8563 11.0676 10.9782C11.1754 10.9876 11.3395 10.9642 11.4566 10.9595Z" fill="#009B3A" stroke="black" stroke-width="0.0125"/>
<path d="M11.0434 11.0813L11.3012 10.7063L10.973 11.011L10.959 11.1047L11.0434 11.0813Z" fill="#009B3A" stroke="black" stroke-width="0.0125"/>
<path d="M11.4004 11.0017C11.2598 11.0486 11.0395 11.1048 10.9082 11.1611C10.9551 11.0064 11.002 10.758 11.0301 10.6033C11.0207 10.7392 11.002 10.922 11.0113 11.0392C11.1238 11.0439 11.2832 11.0111 11.4004 11.0017Z" fill="#009B3A" stroke="black" stroke-width="0.0125"/>
<path d="M10.9926 11.1375L11.1895 10.7156L10.9082 11.0812V11.175L10.9926 11.1375Z" fill="#009B3A" stroke="black" stroke-width="0.0125"/>
<path d="M11.3441 11.0579C11.2035 11.0907 10.9785 11.1329 10.8379 11.1798C10.8988 11.0298 10.9691 10.7813 11.0113 10.6313C10.9926 10.7673 10.9551 10.9454 10.9551 11.0673C11.0676 11.0813 11.227 11.0579 11.3441 11.0579Z" fill="#009B3A" stroke="black" stroke-width="0.0125"/>
<path d="M10.9455 11.1797L11.2643 10.8516L10.8893 11.0953L10.8564 11.1891L10.9502 11.1797" fill="#009B3A"/>
<path d="M10.9455 11.1797L11.2643 10.8516L10.8893 11.0953L10.8564 11.1891L10.9502 11.1797" stroke="black" stroke-width="0.0125"/>
<path d="M11.2828 11.1142C11.1422 11.133 10.9172 11.1517 10.7812 11.1892C10.8469 11.0392 10.9313 10.8001 10.9828 10.6501C10.9547 10.7814 10.9078 10.9642 10.8984 11.0861C11.0062 11.1095 11.1656 11.1048 11.2828 11.1142Z" fill="#009B3A" stroke="black" stroke-width="0.0125"/>
<path d="M10.8844 11.1469L11.1 10.7344L10.8047 11.0812V11.175L10.8844 11.1469Z" fill="#009B3A" stroke="black" stroke-width="0.0125"/>
<path d="M11.2969 11.0625C11.1422 11.1281 10.9031 11.2172 10.7578 11.2969C10.8047 11.1094 10.8516 10.8187 10.8844 10.6406C10.8797 10.7953 10.8562 11.0109 10.8703 11.1469C10.9969 11.1469 11.1703 11.0906 11.3016 11.0672" fill="#009B3A"/>
<path d="M11.2969 11.0625C11.1422 11.1281 10.9031 11.2172 10.7578 11.2969C10.8047 11.1094 10.8516 10.8187 10.8844 10.6406C10.8797 10.7953 10.8562 11.0109 10.8703 11.1469C10.9969 11.1469 11.1703 11.0906 11.3016 11.0672" stroke="black" stroke-width="0.0125"/>
<path d="M10.8518 11.2688L11.1143 10.8L10.7721 11.1985L10.7627 11.311L10.8564 11.2688" fill="#009B3A"/>
<path d="M10.8518 11.2688L11.1143 10.8L10.7721 11.1985L10.7627 11.311L10.8564 11.2688" stroke="black" stroke-width="0.0125"/>
<path d="M11.2404 11.1235C11.0857 11.1938 10.8467 11.297 10.7061 11.3813C10.7436 11.1938 10.7811 10.9079 10.8045 10.7251C10.8045 10.8798 10.7951 11.0954 10.8139 11.2267C10.9404 11.2173 11.1092 11.1563 11.2357 11.1235" fill="#009B3A"/>
<path d="M11.2404 11.1235C11.0857 11.1938 10.8467 11.297 10.7061 11.3813C10.7436 11.1938 10.7811 10.9079 10.8045 10.7251C10.8045 10.8798 10.7951 11.0954 10.8139 11.2267C10.9404 11.2173 11.1092 11.1563 11.2357 11.1235" stroke="black" stroke-width="0.0125"/>
<path d="M10.7998 11.3439L10.9873 10.8376L10.7061 11.2876L10.7107 11.3955L10.7998 11.3439Z" fill="#009B3A" stroke="black" stroke-width="0.0125"/>
<path d="M11.1703 11.1657C11.0203 11.2407 10.7812 11.3438 10.6406 11.4282C10.6781 11.2407 10.7156 10.9548 10.7344 10.772C10.7391 10.9267 10.7297 11.1376 10.7484 11.2735C10.8703 11.2595 11.0438 11.1985 11.1703 11.1657Z" fill="#009B3A" stroke="black" stroke-width="0.0125"/>
<path d="M10.7578 11.4048L11.0484 10.9548L10.6781 11.3205L10.6641 11.433L10.7578 11.4048Z" fill="#009B3A" stroke="black" stroke-width="0.0125"/>
<path d="M11.1564 11.1422C11.0252 11.25 10.8096 11.4094 10.6877 11.5312C10.6877 11.3438 10.6596 11.0531 10.6455 10.875C10.683 11.025 10.7158 11.2312 10.7627 11.3531C10.8799 11.3109 11.0393 11.2078 11.1611 11.1422" fill="#009B3A"/>
<path d="M11.1564 11.1422C11.0252 11.25 10.8096 11.4094 10.6877 11.5312C10.6877 11.3438 10.6596 11.0531 10.6455 10.875C10.683 11.025 10.7158 11.2312 10.7627 11.3531C10.8799 11.3109 11.0393 11.2078 11.1611 11.1422" stroke="black" stroke-width="0.0125"/>
<path d="M10.7719 11.4235L10.8047 10.8892L10.6641 11.4048L10.7016 11.5079L10.7719 11.4235Z" fill="#009B3A" stroke="black" stroke-width="0.0125"/>
<path d="M11.1184 11.1938C10.9824 11.3016 10.7668 11.4562 10.6496 11.5734C10.6496 11.3859 10.6215 11.1047 10.6074 10.9219C10.6402 11.0719 10.673 11.2781 10.7199 11.4C10.8418 11.3578 11.0012 11.2547 11.1184 11.1938Z" fill="#009B3A" stroke="black" stroke-width="0.0125"/>
<path d="M10.7344 11.5125C10.7797 11.3386 10.8266 11.1652 10.875 10.9922L10.6406 11.4703L10.6547 11.5781L10.7391 11.5125" fill="#009B3A"/>
<path d="M10.7344 11.5125C10.7797 11.3386 10.8266 11.1652 10.875 10.9922L10.6406 11.4703L10.6547 11.5781L10.7391 11.5125" stroke="black" stroke-width="0.0125"/>
<path d="M11.1047 11.2031C10.9781 11.3297 10.7719 11.5172 10.6594 11.6531C10.6359 11.4656 10.5797 11.1703 10.5469 10.9922C10.5938 11.1375 10.6547 11.3438 10.7156 11.4656C10.8375 11.4094 10.9875 11.2828 11.1047 11.2031Z" fill="#009B3A" stroke="black" stroke-width="0.0125"/>
<path d="M10.7348 11.5783L10.7629 11.0251L10.627 11.5642L10.6691 11.6673L10.7395 11.583" fill="#009B3A"/>
<path d="M10.7348 11.5783L10.7629 11.0251L10.627 11.5642L10.6691 11.6673L10.7395 11.583" stroke="black" stroke-width="0.0125"/>
<path d="M11.0627 11.297C10.9268 11.4095 10.7111 11.5783 10.5846 11.7048C10.5846 11.508 10.5471 11.2126 10.5283 11.0251C10.5705 11.1798 10.608 11.3908 10.6596 11.5173C10.7814 11.4705 10.9408 11.3626 11.0627 11.297Z" fill="#009B3A" stroke="black" stroke-width="0.0125"/>
<path d="M10.6971 11.6439L10.8893 11.1189L10.5986 11.5876L10.608 11.7001L10.6971 11.6439Z" fill="#009B3A" stroke="black" stroke-width="0.0125"/>
<path d="M11.0629 11.2969C10.941 11.4281 10.7488 11.6203 10.641 11.7563C10.6223 11.5641 10.566 11.2688 10.5332 11.0859C10.5801 11.2312 10.6363 11.4422 10.6973 11.5641C10.8098 11.5078 10.9504 11.3766 11.0629 11.2969Z" fill="#009B3A" stroke="black" stroke-width="0.0125"/>
<path d="M10.7061 11.672L10.6826 11.1189L10.5889 11.6673L10.6451 11.7611L10.7061 11.6673" fill="#009B3A"/>
<path d="M10.7061 11.672L10.6826 11.1189L10.5889 11.6673L10.6451 11.7611L10.7061 11.6673" stroke="black" stroke-width="0.0125"/>
<path d="M11.0012 11.3438C10.884 11.4704 10.6965 11.6625 10.5934 11.8032C10.5699 11.6063 10.5043 11.311 10.4668 11.1282C10.5184 11.2782 10.5793 11.4891 10.6449 11.611C10.7527 11.55 10.8934 11.4235 11.0012 11.3391" fill="#009B3A"/>
<path d="M11.0012 11.3438C10.884 11.4704 10.6965 11.6625 10.5934 11.8032C10.5699 11.6063 10.5043 11.311 10.4668 11.1282C10.5184 11.2782 10.5793 11.4891 10.6449 11.611C10.7527 11.55 10.8934 11.4235 11.0012 11.3391" stroke="black" stroke-width="0.0125"/>
<path d="M10.6734 11.7283L10.7344 11.1658L10.5703 11.6955L10.6031 11.8033L10.6734 11.7283Z" fill="#009B3A" stroke="black" stroke-width="0.0125"/>
<path d="M10.9781 11.3625C10.8703 11.5031 10.6969 11.7141 10.6031 11.8594C10.5656 11.6719 10.4813 11.3812 10.4297 11.2031C10.4906 11.3438 10.5703 11.55 10.6406 11.6672C10.7438 11.5969 10.875 11.4516 10.9781 11.3625Z" fill="#009B3A" stroke="black" stroke-width="0.0125"/>
<path d="M10.6686 11.7798L10.6357 11.2173L10.5654 11.7751L10.6123 11.8688L10.6686 11.7751" fill="#009B3A"/>
<path d="M10.6686 11.7798L10.6357 11.2173L10.5654 11.7751L10.6123 11.8688L10.6686 11.7751" stroke="black" stroke-width="0.0125"/>
<path d="M10.9688 11.3907C10.8656 11.5407 10.7016 11.7657 10.6172 11.9157C10.5703 11.7282 10.4672 11.4423 10.4062 11.2642C10.4766 11.4048 10.5656 11.6063 10.6406 11.7188C10.7438 11.6438 10.8656 11.4938 10.9688 11.3907Z" fill="#009B3A" stroke="black" stroke-width="0.0125"/>
<path d="M10.7066 11.8313L10.7629 11.2688L10.6035 11.7985L10.6363 11.911L10.7066 11.8313Z" fill="#009B3A" stroke="black" stroke-width="0.0125"/>
<path d="M10.9451 11.4468C10.8561 11.6062 10.7154 11.85 10.6451 12.014C10.5795 11.8312 10.4576 11.564 10.3779 11.3953C10.4623 11.5265 10.5654 11.714 10.6545 11.8171C10.7482 11.7234 10.8561 11.5593 10.9451 11.4421" fill="#009B3A"/>
<path d="M10.9451 11.4468C10.8561 11.6062 10.7154 11.85 10.6451 12.014C10.5795 11.8312 10.4576 11.564 10.3779 11.3953C10.4623 11.5265 10.5654 11.714 10.6545 11.8171C10.7482 11.7234 10.8561 11.5593 10.9451 11.4421" stroke="black" stroke-width="0.0125"/>
<path d="M10.6877 11.8781L10.5283 11.3438L10.5799 11.9062L10.6549 11.9859L10.6877 11.8781Z" fill="#009B3A" stroke="black" stroke-width="0.0125"/>
<path d="M10.9406 11.5079C10.8469 11.6672 10.7063 11.911 10.6313 12.075C10.5609 11.8922 10.4391 11.625 10.3594 11.4563C10.4437 11.5875 10.5469 11.775 10.6406 11.8782C10.7344 11.7844 10.8516 11.6204 10.9406 11.5079Z" fill="#009B3A" stroke="black" stroke-width="0.0125"/>
<path d="M10.6918 11.9812L10.6355 11.4187L10.584 11.9812L10.6402 12.075L10.6918 11.9812Z" fill="#009B3A" stroke="black" stroke-width="0.0125"/>
<path d="M10.9504 11.5595C10.8566 11.7189 10.7066 11.9533 10.6316 12.1173C10.566 11.9345 10.4441 11.6626 10.3691 11.4939C10.4535 11.6251 10.5566 11.8126 10.641 11.9158C10.7441 11.8314 10.8566 11.6673 10.9504 11.5595Z" fill="#009B3A" stroke="black" stroke-width="0.0125"/>
<path d="M10.6879 12.0236L10.5848 11.4705L10.5801 12.0376L10.641 12.1267L10.6879 12.0236Z" fill="#009B3A" stroke="black" stroke-width="0.0125"/>
<path d="M10.9123 11.639C10.8092 11.789 10.6498 12.014 10.5654 12.1734C10.5092 11.9859 10.4014 11.7046 10.3311 11.5359C10.4107 11.6718 10.5045 11.864 10.5842 11.9765C10.6873 11.8921 10.8139 11.7421 10.9123 11.639Z" fill="#009B3A" stroke="black" stroke-width="0.0125"/>
<path d="M10.641 12.0845L10.6879 11.522L10.5332 12.0563L10.5707 12.1642L10.641 12.0845Z" fill="#009B3A" stroke="black" stroke-width="0.0125"/>
<path d="M10.917 11.6531C10.8326 11.8172 10.692 12.0656 10.6217 12.2297C10.5514 12.0516 10.4154 11.7891 10.3311 11.625C10.4248 11.7516 10.5326 11.9344 10.6264 12.0281C10.7201 11.9344 10.8279 11.7656 10.917 11.6531Z" fill="#009B3A" stroke="black" stroke-width="0.0125"/>
<path d="M10.6217 12.1312L10.4482 11.6062L10.5139 12.1687L10.5889 12.2437L10.6217 12.1312Z" fill="#009B3A" stroke="black" stroke-width="0.0125"/>
<path d="M10.8937 11.6953C10.8328 11.8734 10.7344 12.15 10.6875 12.3281C10.5938 12.1687 10.4203 11.9391 10.3125 11.7984C10.4203 11.9016 10.5563 12.0563 10.6641 12.1266C10.7438 12.0188 10.8234 11.8266 10.8937 11.6953Z" fill="#009B3A" stroke="black" stroke-width="0.0125"/>
<path d="M10.7764 12.1783L10.5889 11.658L10.6686 12.2158L10.7436 12.2861L10.7764 12.1736" fill="#009B3A"/>
<path d="M10.7764 12.1783L10.5889 11.658L10.6686 12.2158L10.7436 12.2861L10.7764 12.1736" stroke="black" stroke-width="0.0125"/>
<path d="M10.8939 11.7517C10.833 11.9298 10.7346 12.2064 10.6924 12.3845C10.5986 12.2251 10.4205 12.0001 10.3174 11.8595C10.4205 11.9626 10.5564 12.1126 10.6643 12.1876C10.7439 12.0751 10.8236 11.883 10.8939 11.7517Z" fill="#009B3A" stroke="black" stroke-width="0.0125"/>
<path d="M10.777 12.2626L10.5332 11.7798L10.6738 12.3188L10.7582 12.3798L10.777 12.2626Z" fill="#009B3A" stroke="black" stroke-width="0.0125"/>
<path d="M10.875 11.7937C10.8375 11.9812 10.7719 12.2671 10.7484 12.45C10.6313 12.3093 10.4344 12.1078 10.3125 11.9812C10.4297 12.075 10.5844 12.2015 10.6969 12.2625C10.7625 12.1359 10.8188 11.9343 10.875 11.7937Z" fill="#009B3A" stroke="black" stroke-width="0.0125"/>
<path d="M10.7906 12.3421L10.6641 11.7937L10.6828 12.3609L10.7531 12.4453L10.7906 12.3421Z" fill="#009B3A" stroke="black" stroke-width="0.0125"/>
<path d="M10.875 11.8547C10.8562 12.0422 10.8141 12.3375 10.8141 12.525C10.6828 12.3985 10.4672 12.225 10.3359 12.1172C10.4625 12.1875 10.6266 12.3 10.7437 12.3422C10.7953 12.211 10.8375 12 10.875 11.8547Z" fill="#009B3A" stroke="black" stroke-width="0.0125"/>
<path d="M10.8 12.3798L10.4531 11.9861L10.7156 12.4642L10.8094 12.497L10.8 12.3798Z" fill="#009B3A" stroke="black" stroke-width="0.0125"/>
<path d="M10.8846 11.9204C10.8611 12.1079 10.8189 12.4032 10.8189 12.5907C10.6877 12.4642 10.4721 12.2907 10.3408 12.1829C10.4674 12.2532 10.6314 12.3657 10.7486 12.4079C10.8049 12.2767 10.8424 12.0704 10.8846 11.9204Z" fill="#009B3A" stroke="black" stroke-width="0.0125"/>
<path d="M10.8375 12.4688C10.7469 12.3134 10.6579 12.1571 10.5703 12L10.7391 12.5297L10.8281 12.5859L10.8375 12.4734" fill="#009B3A"/>
<path d="M10.8375 12.4688C10.7469 12.3134 10.6579 12.1571 10.5703 12L10.7391 12.5297L10.8281 12.5859L10.8375 12.4734" stroke="black" stroke-width="0.0125"/>
<path d="M10.8988 12C10.8848 12.1875 10.8566 12.4875 10.8613 12.675C10.7254 12.5531 10.5051 12.3937 10.3691 12.2953C10.4957 12.3562 10.6645 12.4594 10.7863 12.4922C10.8332 12.3562 10.8613 12.15 10.8988 12Z" fill="#009B3A" stroke="black" stroke-width="0.0125"/>
<path d="M10.875 12.5625C10.8656 12.5625 10.5469 12.1406 10.5469 12.1406L10.7812 12.6375L10.875 12.675V12.5625Z" fill="#009B3A" stroke="black" stroke-width="0.0125"/>
<path d="M10.9027 12.0891C10.8887 12.2766 10.8652 12.5766 10.8699 12.7641C10.7109 12.6306 10.545 12.5054 10.373 12.3891C10.4996 12.45 10.673 12.5485 10.7949 12.5813C10.8418 12.4454 10.8652 12.2391 10.9027 12.0891Z" fill="#009B3A" stroke="black" stroke-width="0.0125"/>
<path d="M10.9033 12.6282L10.6689 12.1313L10.8002 12.6751L10.8799 12.7454L10.9033 12.6282Z" fill="#009B3A" stroke="black" stroke-width="0.0125"/>
<path d="M10.9129 12.1406C10.9129 12.3375 10.9176 12.6375 10.941 12.8203C10.8004 12.7266 10.5613 12.5906 10.416 12.5109C10.5473 12.5578 10.7254 12.6375 10.8473 12.6516C10.8801 12.5109 10.8941 12.3 10.9082 12.1453" fill="#009B3A"/>
<path d="M10.9129 12.1406C10.9129 12.3375 10.9176 12.6375 10.941 12.8203C10.8004 12.7266 10.5613 12.5906 10.416 12.5109C10.5473 12.5578 10.7254 12.6375 10.8473 12.6516C10.8801 12.5109 10.8941 12.3 10.9082 12.1453" stroke="black" stroke-width="0.0125"/>
<path d="M10.9404 12.6094L10.5186 12.3235L10.8748 12.7125L10.9732 12.7219L10.9404 12.6094Z" fill="#009B3A" stroke="black" stroke-width="0.0125"/>
<path d="M10.9217 12.1641C10.9404 12.3562 10.9545 12.6562 10.9873 12.8391C10.8126 12.7347 10.6327 12.6392 10.4482 12.5531C10.5795 12.5906 10.7623 12.6609 10.8842 12.675C10.9123 12.5344 10.9123 12.3187 10.9217 12.1641Z" fill="#009B3A" stroke="black" stroke-width="0.0125"/>
<path d="M10.9873 12.7173L10.6357 12.3142L10.9029 12.797L10.9967 12.8345L10.9873 12.7173Z" fill="#009B3A" stroke="black" stroke-width="0.0125"/>
<path d="M10.9545 12.2344C10.9779 12.4312 11.0061 12.7266 11.0482 12.9094C10.8936 12.825 10.6498 12.7219 10.4951 12.6516C10.6357 12.6844 10.8139 12.7453 10.9404 12.75C10.9592 12.6094 10.9498 12.3938 10.9545 12.2344Z" fill="#009B3A" stroke="black" stroke-width="0.0125"/>
<path d="M11.0531 12.7828L10.6406 12.4922L10.9922 12.8906H11.0859L11.0531 12.7828Z" fill="#009B3A" stroke="black" stroke-width="0.0125"/>
<path d="M10.9686 12.3188C11.0061 12.5063 11.0529 12.8017 11.1045 12.9845C10.9451 12.9095 10.6967 12.8298 10.542 12.7782C10.6779 12.797 10.8654 12.8392 10.9873 12.8345C10.9967 12.6892 10.9732 12.4782 10.9686 12.3188Z" fill="#009B3A" stroke="black" stroke-width="0.0125"/>
<path d="M11.1 12.8438L10.7578 12.436L11.0156 12.9235L11.1094 12.961L11.1 12.8438Z" fill="#009B3A" stroke="black" stroke-width="0.0125"/>
<path d="M10.9873 12.375C11.0436 12.5579 11.1186 12.8438 11.1889 13.0172C11.0248 12.9704 10.767 12.9188 10.6123 12.886C10.7482 12.886 10.9357 12.9047 11.0576 12.886C11.0576 12.736 11.0107 12.5297 10.9873 12.3704" fill="#009B3A"/>
<path d="M10.9873 12.375C11.0436 12.5579 11.1186 12.8438 11.1889 13.0172C11.0248 12.9704 10.767 12.9188 10.6123 12.886C10.7482 12.886 10.9357 12.9047 11.0576 12.886C11.0576 12.736 11.0107 12.5297 10.9873 12.3704" stroke="black" stroke-width="0.0125"/>
<path d="M11.1187 12.8438L10.6406 12.7407L11.0953 12.9657L11.1891 12.9329L11.1187 12.8438Z" fill="#009B3A" stroke="black" stroke-width="0.0125"/>
<path d="M11.0203 12.4312C11.0766 12.614 11.1516 12.9 11.2172 13.0734C11.0531 13.0265 10.7953 12.975 10.6406 12.9421C10.7766 12.9421 10.9688 12.9609 11.0859 12.9421C11.0859 12.7921 11.0391 12.5859 11.0203 12.4265" fill="#009B3A"/>
<path d="M11.0203 12.4312C11.0766 12.614 11.1516 12.9 11.2172 13.0734C11.0531 13.0265 10.7953 12.975 10.6406 12.9421C10.7766 12.9421 10.9688 12.9609 11.0859 12.9421C11.0859 12.7921 11.0391 12.5859 11.0203 12.4265" stroke="black" stroke-width="0.0125"/>
<path d="M11.1986 12.8907C11.1986 12.9001 10.7393 12.6704 10.7393 12.6704L11.1518 13.0079L11.2455 12.9985L11.1986 12.8954" fill="#009B3A"/>
<path d="M11.1986 12.8907C11.1986 12.9001 10.7393 12.6704 10.7393 12.6704L11.1518 13.0079L11.2455 12.9985L11.1986 12.8954" stroke="black" stroke-width="0.0125"/>
<path d="M10.9969 12.4641C11.0906 12.6282 11.2219 12.8954 11.325 13.05C11.1563 13.036 10.8938 13.0454 10.7344 13.05C10.8656 13.0172 11.0531 12.9938 11.1656 12.9469C11.1375 12.8063 11.0484 12.6094 10.9969 12.4641Z" fill="#009B3A" stroke="black" stroke-width="0.0125"/>
<path d="M11.2691 12.9423L10.791 12.811L11.241 13.0642L11.3348 13.036L11.2691 12.9423Z" fill="#009B3A" stroke="black" stroke-width="0.0125"/>
<path d="M11.0486 12.5344C11.1424 12.6985 11.2736 12.9657 11.3768 13.1157C11.208 13.1063 10.9455 13.1157 10.7861 13.125C10.9221 13.0922 11.1096 13.0641 11.2221 13.0172C11.1846 12.8766 11.1002 12.6797 11.0439 12.5344" fill="#009B3A"/>
<path d="M11.0486 12.5344C11.1424 12.6985 11.2736 12.9657 11.3768 13.1157C11.208 13.1063 10.9455 13.1157 10.7861 13.125C10.9221 13.0922 11.1096 13.0641 11.2221 13.0172C11.1846 12.8766 11.1002 12.6797 11.0439 12.5344" stroke="black" stroke-width="0.0125"/>
<path d="M11.3301 12.9845L10.8848 12.7173L11.2738 13.0923H11.377L11.3301 12.9845Z" fill="#009B3A" stroke="black" stroke-width="0.0125"/>
<path d="M11.0816 12.5767C11.1895 12.7313 11.3488 12.9798 11.466 13.1204C11.2973 13.1298 11.0441 13.1767 10.8848 13.2048C11.016 13.1579 11.1941 13.1017 11.302 13.036C11.2551 12.8954 11.1473 12.7173 11.0816 12.5767Z" fill="#009B3A" stroke="black" stroke-width="0.0125"/>
<path d="M11.3629 13.0219L10.8848 13.0125L11.3582 13.1532L11.4426 13.1016L11.3629 13.0219ZM11.6441 10.6969L11.9863 10.636L11.6441 10.6454L11.5832 10.6782L11.6441 10.6969Z" fill="#009B3A" stroke="black" stroke-width="0.0125"/>
<path d="M11.8309 10.7672C11.7324 10.7391 11.5777 10.6875 11.4746 10.6641C11.6021 10.6135 11.7272 10.5572 11.8496 10.4954C11.7699 10.5422 11.6621 10.6079 11.6012 10.6547C11.6574 10.6922 11.7605 10.7344 11.8355 10.7672" fill="#009B3A"/>
<path d="M11.8309 10.7672C11.7324 10.7391 11.5777 10.6875 11.4746 10.6641C11.6021 10.6135 11.7272 10.5572 11.8496 10.4954C11.7699 10.5422 11.6621 10.6079 11.6012 10.6547C11.6574 10.6922 11.7605 10.7344 11.8355 10.7672" stroke="black" stroke-width="0.0125"/>
<path d="M11.6254 10.7063L11.9629 10.6125L11.616 10.6594L11.5645 10.6969L11.6254 10.7063Z" fill="#009B3A" stroke="black" stroke-width="0.0125"/>
<path d="M11.85 10.7953C11.7328 10.7813 11.55 10.7578 11.4375 10.7578C11.5219 10.6828 11.6437 10.5516 11.7188 10.4766C11.6719 10.5469 11.5875 10.6453 11.5547 10.7156C11.6344 10.7484 11.7609 10.7672 11.85 10.7953Z" fill="#009B3A" stroke="black" stroke-width="0.0125"/>
<path d="M11.5035 10.7344L11.8504 10.6875L11.5129 10.6829L11.4473 10.711L11.5035 10.7297" fill="#009B3A"/>
<path d="M11.5035 10.7344L11.8504 10.6875L11.5129 10.6829L11.4473 10.711L11.5035 10.7297" stroke="black" stroke-width="0.0125"/>
<path d="M11.7607 10.8046C11.6529 10.7859 11.4936 10.7484 11.3857 10.739C11.4842 10.6921 11.6342 10.5984 11.7279 10.5515C11.6576 10.5984 11.5592 10.6687 11.5076 10.7156C11.5732 10.7484 11.6811 10.7765 11.7607 10.8093" fill="#009B3A"/>
<path d="M11.7607 10.8046C11.6529 10.7859 11.4936 10.7484 11.3857 10.739C11.4842 10.6921 11.6342 10.5984 11.7279 10.5515C11.6576 10.5984 11.5592 10.6687 11.5076 10.7156C11.5732 10.7484 11.6811 10.7765 11.7607 10.8093" stroke="black" stroke-width="0.0125"/>
<path d="M11.4746 10.725L11.7793 10.5938L11.4418 10.6875L11.4043 10.725H11.4746Z" fill="#009B3A" stroke="black" stroke-width="0.0125"/>
<path d="M11.7516 10.8468C11.6578 10.8093 11.5266 10.7484 11.4375 10.7203C11.5078 10.6593 11.6016 10.5468 11.6625 10.4812C11.6156 10.5468 11.5547 10.6359 11.5312 10.7015C11.5875 10.7484 11.6812 10.8 11.7516 10.8421" fill="#009B3A"/>
<path d="M11.7516 10.8468C11.6578 10.8093 11.5266 10.7484 11.4375 10.7203C11.5078 10.6593 11.6016 10.5468 11.6625 10.4812C11.6156 10.5468 11.5547 10.6359 11.5312 10.7015C11.5875 10.7484 11.6812 10.8 11.7516 10.8421" stroke="black" stroke-width="0.0125"/>
<path d="M11.4889 10.7484L11.7279 10.6453L11.4701 10.6828L11.4373 10.7296L11.4889 10.7484ZM11.2967 12.9843H10.7998L11.3014 13.1109L11.3857 13.0546L11.292 12.9843" fill="#009B3A"/>
<path d="M11.2967 12.9843H10.7998L11.3014 13.1109L11.3857 13.0546L11.292 12.9843M11.4889 10.7484L11.7279 10.6453L11.4701 10.6828L11.4373 10.7296L11.4889 10.7484Z" stroke="black" stroke-width="0.0125"/>
<path d="M11.3813 13.0125L10.875 12.8906L11.3578 13.125L11.4516 13.0969L11.3766 13.0031" fill="#009B3A"/>
<path d="M11.3813 13.0125L10.875 12.8906L11.3578 13.125L11.4516 13.0969L11.3766 13.0031" stroke="black" stroke-width="0.0125"/>
<path d="M11.4607 13.0455L10.9639 13.0173L11.4607 13.172L11.5451 13.1251L11.4607 13.0455Z" fill="#009B3A" stroke="black" stroke-width="0.0125"/>
<path d="M11.1467 12.6938C11.2732 12.8345 11.4701 13.0642 11.6061 13.1907C11.4373 13.2142 11.1842 13.2845 11.0342 13.322C11.1561 13.2657 11.3295 13.1954 11.4279 13.1251C11.3623 12.9938 11.2311 12.8251 11.1467 12.6938Z" fill="#009B3A" stroke="black" stroke-width="0.0125"/>
<path d="M11.5311 13.0688L11.0342 12.9048L11.5029 13.186L11.5967 13.1626L11.5311 13.0688Z" fill="#009B3A" stroke="black" stroke-width="0.0125"/>
<path d="M11.1934 12.7266C11.334 12.8531 11.5449 13.0594 11.6902 13.1719C11.5309 13.2188 11.2918 13.3172 11.1465 13.3781C11.259 13.3031 11.4277 13.2141 11.5121 13.1297C11.4371 13.0031 11.2871 12.8484 11.1934 12.7266Z" fill="#009B3A" stroke="black" stroke-width="0.0125"/>
<path d="M11.5684 13.1016L11.0996 13.1953L11.5965 13.2281L11.6668 13.1578L11.573 13.1016" fill="#009B3A"/>
<path d="M11.5684 13.1016L11.0996 13.1953L11.5965 13.2281L11.6668 13.1578L11.573 13.1016" stroke="black" stroke-width="0.0125"/>
<path d="M11.4746 13.0688L10.9824 13.1063L11.4887 13.1954L11.5684 13.1345L11.4746 13.0688Z" fill="#009B3A" stroke="black" stroke-width="0.0125"/>
<path d="M11.5637 13.097L11.0527 13.0173L11.5543 13.2189L11.648 13.1814L11.5637 13.097Z" fill="#009B3A" stroke="black" stroke-width="0.0125"/>
<path d="M11.6482 13.125L11.1514 13.1344L11.6576 13.2469L11.7373 13.1953L11.6436 13.125H11.6482Z" fill="#009B3A" stroke="black" stroke-width="0.0125"/>
<path d="M11.3059 12.7969C11.4465 12.9281 11.6574 13.1437 11.8027 13.2562C11.634 13.2937 11.3902 13.3781 11.2402 13.4297C11.3574 13.3641 11.5262 13.2891 11.6199 13.2094C11.5449 13.0781 11.3996 12.9187 11.3059 12.7969Z" fill="#009B3A" stroke="black" stroke-width="0.0125"/>
<path d="M11.7191 13.1439L11.2129 13.0173L11.7004 13.2611L11.7941 13.233L11.7191 13.1439Z" fill="#009B3A" stroke="black" stroke-width="0.0125"/>
<path d="M11.3535 12.825C11.5082 12.9421 11.7332 13.1343 11.8879 13.2328C11.7084 13.3074 11.5317 13.3888 11.3582 13.4765C11.466 13.3968 11.6254 13.2937 11.7051 13.2046C11.6207 13.0828 11.4613 12.9421 11.3535 12.825Z" fill="#009B3A" stroke="black" stroke-width="0.0125"/>
<path d="M11.7656 13.1719L11.2969 13.2984H11.7984L11.8594 13.2234L11.7656 13.1766V13.1719Z" fill="#009B3A" stroke="black" stroke-width="0.0125"/>
<path d="M12.4029 12.4734L12.0232 12.2109L11.6482 12.4734L11.7889 12.0515L11.4561 11.7937H11.8779L12.0232 11.3718L12.1639 11.7937H12.5904L12.2623 12.0562L12.4029 12.4781V12.4734Z" fill="#FEDF00" stroke="black" stroke-width="0.0625"/>
</g>
<defs>
<clipPath id="clip0_208_24025">
<rect width="24" height="24" rx="12" fill="white"/>
</clipPath>
</defs>
</svg>
