<svg width="24" height="24" viewBox="0 0 24 24" fill="none" xmlns="http://www.w3.org/2000/svg">
<g clip-path="url(#clip0_208_23884)">
<mask id="mask0_208_23884" style="mask-type:luminance" maskUnits="userSpaceOnUse" x="0" y="0" width="24" height="24">
<path d="M0 0H24V24H0V0Z" fill="white"/>
</mask>
<g mask="url(#mask0_208_23884)">
<path fill-rule="evenodd" clip-rule="evenodd" d="M-1.0918 -1.01245H24.9098V24.9094H-1.0918V-1.01245Z" fill="#EF2D29"/>
<path fill-rule="evenodd" clip-rule="evenodd" d="M7.71582 15.9985H25.3596V25.7345H7.71582V15.9985Z" fill="#009025"/>
<path fill-rule="evenodd" clip-rule="evenodd" d="M7.71582 -0.909302H25.3596V7.99695H7.71582V-0.909302Z" fill="white"/>
<path d="M6.44032 3.57666H5.38645C5.32835 3.57666 5.28125 3.62096 5.28125 3.67562V4.17286C5.28125 4.22751 5.32835 4.27181 5.38645 4.27181H6.44032C6.49842 4.27181 6.54552 4.22751 6.54552 4.17286V3.67562C6.54552 3.62096 6.49842 3.57666 6.44032 3.57666Z" fill="white" stroke="#EF2D28" stroke-width="0.0322919"/>
<path d="M6.41406 3.60608H5.41417C5.3591 3.60608 5.31445 3.64672 5.31445 3.69686V4.15321C5.31445 4.20334 5.3591 4.24399 5.41417 4.24399H6.41406C6.46913 4.24399 6.51377 4.20334 6.51377 4.15321V3.69686C6.51377 3.64672 6.46913 3.60608 6.41406 3.60608Z" fill="white" stroke="#EF2D28" stroke-width="0.0307542"/>
<path fill-rule="evenodd" clip-rule="evenodd" d="M5.8724 3.77893L5.93284 3.78132L5.93533 3.80908L5.98517 3.83445L6.0238 3.80238L6.07053 3.82775L6.02692 3.85551L6.03751 3.89379L6.09234 3.8914V3.94165L6.04872 3.93974L6.02629 3.97133L6.07614 4.00722L6.03751 4.03689L5.99576 4.00531L5.93533 4.01775L5.93844 4.06417L5.8724 4.06896L5.86368 4.02397L5.80885 4.001L5.77832 4.03258L5.73159 4.00913L5.759 3.97324L5.72598 3.95027H5.67925L5.67676 3.8847L5.72349 3.88901L5.75651 3.85072L5.71788 3.82105L5.76772 3.78755L5.80324 3.81483L5.86368 3.80621L5.8724 3.77893Z" fill="white" stroke="#EF2D28" stroke-width="0.0194158"/>
<path d="M5.8891 3.97382C5.92601 3.97382 5.95594 3.94837 5.95594 3.91696C5.95594 3.88556 5.92601 3.86011 5.8891 3.86011C5.85219 3.86011 5.82227 3.88556 5.82227 3.91696C5.82227 3.94837 5.85219 3.97382 5.8891 3.97382Z" fill="white" stroke="#EF2D28" stroke-width="0.0209085"/>
<path fill-rule="evenodd" clip-rule="evenodd" d="M5.47575 3.63477L5.37787 3.72146L5.47575 3.63477ZM5.5407 3.63477L5.44282 3.72146L5.5407 3.63477ZM5.60474 3.63477L5.50777 3.72146L5.60474 3.63477ZM5.66969 3.63477L5.57272 3.72146L5.66969 3.63477ZM5.73464 3.63477L5.63767 3.72146L5.73464 3.63477ZM5.7996 3.63477L5.70263 3.72146L5.7996 3.63477ZM5.86455 3.63477L5.76758 3.72146L5.86455 3.63477ZM5.9295 3.63477L5.83253 3.72146L5.9295 3.63477ZM5.99445 3.63477L5.89657 3.72146L5.99445 3.63477ZM6.0594 3.63477L5.9606 3.72146L6.0594 3.63477ZM6.12253 3.63477L6.02556 3.72146L6.12253 3.63477ZM6.18748 3.63477L6.09051 3.72146L6.18748 3.63477ZM5.92859 3.63477L5.83253 3.72146L5.92859 3.63477ZM6.25334 3.63477L6.15637 3.72146L6.25334 3.63477ZM6.3183 3.63477L6.22133 3.72146L6.3183 3.63477ZM6.38325 3.63477L6.28628 3.72146L6.38325 3.63477ZM6.4482 3.63477L6.35123 3.72146L6.4482 3.63477ZM6.35123 3.63477L6.4482 3.72146L6.35123 3.63477ZM6.28628 3.63477L6.38325 3.72146L6.28628 3.63477ZM6.22133 3.63477L6.3183 3.72146L6.22133 3.63477ZM6.15637 3.63477L6.25334 3.72146L6.15637 3.63477ZM6.09142 3.63477L6.18839 3.72146L6.09142 3.63477ZM6.02647 3.63477L6.12344 3.72146L6.02647 3.63477ZM5.96152 3.63477L6.0594 3.72146L5.96152 3.63477ZM5.89657 3.63477L5.99354 3.72146L5.89657 3.63477ZM5.8307 3.63477L5.92859 3.72146L5.8307 3.63477ZM5.76666 3.63477L5.86363 3.72146L5.76666 3.63477ZM5.70171 3.63477L5.79868 3.72146L5.70171 3.63477ZM5.63676 3.63477L5.73373 3.72146L5.63676 3.63477ZM5.89657 3.63477L5.99354 3.72146L5.89657 3.63477ZM5.57272 3.63477L5.66878 3.72146L5.57272 3.63477ZM5.50686 3.63477L5.60474 3.72146L5.50686 3.63477ZM5.4419 3.63477L5.53979 3.72146L5.4419 3.63477ZM5.37695 3.63477L5.47575 3.72146L5.37695 3.63477ZM5.47575 4.1271L5.37878 4.21461L5.47575 4.1271ZM5.53979 4.1271L5.4419 4.21461L5.53979 4.1271ZM5.60566 4.1271L5.50777 4.21461L5.60566 4.1271ZM5.66969 4.1271L5.57272 4.21461L5.66969 4.1271ZM5.73464 4.1271L5.63767 4.21461L5.73464 4.1271ZM5.7996 4.1271L5.70263 4.21461L5.7996 4.1271ZM5.86455 4.1271L5.76849 4.21461L5.86455 4.1271ZM5.9295 4.1271L5.83253 4.21461L5.9295 4.1271ZM5.99445 4.1271L5.89657 4.21461L5.99445 4.1271ZM6.05849 4.1271L5.9606 4.21461L6.05849 4.1271ZM6.12527 4.1271L6.02738 4.21461L6.12527 4.1271ZM6.18931 4.1271L6.09234 4.21461L6.18931 4.1271ZM5.9295 4.1271L5.83253 4.21461L5.9295 4.1271ZM6.25334 4.1271L6.15637 4.21461L6.25334 4.1271ZM6.3183 4.1271L6.22133 4.21461L6.3183 4.1271ZM6.38325 4.1271L6.28628 4.21461L6.38325 4.1271ZM6.4482 4.1271L6.35123 4.21461L6.4482 4.1271ZM6.35123 4.1271L6.4482 4.21461L6.35123 4.1271ZM6.28628 4.1271L6.38325 4.21461L6.28628 4.1271ZM6.22133 4.1271L6.3183 4.21461L6.22133 4.1271ZM6.15637 4.1271L6.25334 4.21461L6.15637 4.1271ZM6.09142 4.1271L6.18839 4.21461L6.09142 4.1271ZM6.02647 4.1271L6.12435 4.21461L6.02647 4.1271ZM5.9606 4.1271L6.05849 4.21461L5.9606 4.1271ZM5.89657 4.1271L5.99354 4.21461L5.89657 4.1271ZM5.83253 4.1271L5.9295 4.21461L5.83253 4.1271ZM5.76758 4.1271L5.86455 4.21461L5.76758 4.1271ZM5.70263 4.1271L5.7996 4.21461L5.70263 4.1271ZM5.63767 4.1271L5.73464 4.21461L5.63767 4.1271ZM5.89748 4.1271L5.99445 4.21461L5.89748 4.1271ZM5.57364 4.1271L5.66969 4.21461L5.57364 4.1271ZM5.50777 4.1271L5.60566 4.21461L5.50777 4.1271ZM5.44282 4.1271L5.5407 4.21461L5.44282 4.1271ZM5.37878 4.1271L5.47575 4.21461L5.37878 4.1271Z" fill="white"/>
<path d="M5.47575 3.63477L5.37787 3.72146M5.5407 3.63477L5.44282 3.72146M5.60474 3.63477L5.50777 3.72146M5.66969 3.63477L5.57272 3.72146M5.73464 3.63477L5.63767 3.72146M5.7996 3.63477L5.70263 3.72146M5.86455 3.63477L5.76758 3.72146M5.9295 3.63477L5.83253 3.72146L5.92859 3.63477M5.99445 3.63477L5.89657 3.72146M6.0594 3.63477L5.9606 3.72146M6.12253 3.63477L6.02556 3.72146M6.18748 3.63477L6.09051 3.72146M6.25334 3.63477L6.15637 3.72146M6.3183 3.63477L6.22133 3.72146M6.38325 3.63477L6.28628 3.72146M6.4482 3.63477L6.35123 3.72146M6.35123 3.63477L6.4482 3.72146M6.28628 3.63477L6.38325 3.72146M6.22133 3.63477L6.3183 3.72146M6.15637 3.63477L6.25334 3.72146M6.09142 3.63477L6.18839 3.72146M6.02647 3.63477L6.12344 3.72146M5.96152 3.63477L6.0594 3.72146M5.89657 3.63477L5.99354 3.72146M5.8307 3.63477L5.92859 3.72146M5.76666 3.63477L5.86363 3.72146M5.70171 3.63477L5.79868 3.72146M5.63676 3.63477L5.73373 3.72146M5.57272 3.63477L5.66878 3.72146M5.50686 3.63477L5.60474 3.72146M5.4419 3.63477L5.53979 3.72146M5.37695 3.63477L5.47575 3.72146M5.47575 4.1271L5.37878 4.21461M5.53979 4.1271L5.4419 4.21461M5.60566 4.1271L5.50777 4.21461M5.66969 4.1271L5.57272 4.21461M5.73464 4.1271L5.63767 4.21461M5.7996 4.1271L5.70263 4.21461M5.86455 4.1271L5.76849 4.21461M5.9295 4.1271L5.83253 4.21461M5.99445 4.1271L5.89657 4.21461M6.05849 4.1271L5.9606 4.21461M6.12527 4.1271L6.02738 4.21461M6.18931 4.1271L6.09234 4.21461M6.25334 4.1271L6.15637 4.21461M6.3183 4.1271L6.22133 4.21461M6.38325 4.1271L6.28628 4.21461M6.4482 4.1271L6.35123 4.21461M6.35123 4.1271L6.4482 4.21461M6.28628 4.1271L6.38325 4.21461M6.22133 4.1271L6.3183 4.21461M6.15637 4.1271L6.25334 4.21461M6.09142 4.1271L6.18839 4.21461M6.02647 4.1271L6.12435 4.21461M5.9606 4.1271L6.05849 4.21461M5.89657 4.1271L5.99354 4.21461M5.83253 4.1271L5.9295 4.21461M5.76758 4.1271L5.86455 4.21461M5.70263 4.1271L5.7996 4.21461M5.63767 4.1271L5.73464 4.21461M5.89748 4.1271L5.99445 4.21461M5.57364 4.1271L5.66969 4.21461M5.50777 4.1271L5.60566 4.21461M5.44282 4.1271L5.5407 4.21461M5.37878 4.1271L5.47575 4.21461" stroke="#EF2D28" stroke-width="0.0307542"/>
<path d="M2.19325 3.54382H1.13938C1.08128 3.54382 1.03418 3.58813 1.03418 3.64278V4.14002C1.03418 4.19467 1.08128 4.23898 1.13938 4.23898H2.19325C2.25135 4.23898 2.29845 4.19467 2.29845 4.14002V3.64278C2.29845 3.58813 2.25135 3.54382 2.19325 3.54382Z" fill="white" stroke="#EF2D28" stroke-width="0.0322919"/>
<path d="M2.16699 3.57324H1.1671C1.11203 3.57324 1.06738 3.61389 1.06738 3.66402V4.12037C1.06738 4.17051 1.11203 4.21115 1.1671 4.21115H2.16699C2.22206 4.21115 2.2667 4.17051 2.2667 4.12037V3.66402C2.2667 3.61389 2.22206 3.57324 2.16699 3.57324Z" fill="white" stroke="#EF2D28" stroke-width="0.0307542"/>
<path fill-rule="evenodd" clip-rule="evenodd" d="M1.62533 3.74609L1.68577 3.74849L1.68826 3.77625L1.7381 3.80161L1.77673 3.76954L1.82346 3.79491L1.77985 3.82267L1.79044 3.86096L1.84527 3.85856V3.90882L1.80165 3.9069L1.77922 3.93849L1.82907 3.97438L1.79044 4.00406L1.74869 3.97247L1.68826 3.98491L1.69137 4.03134L1.62533 4.03612L1.61661 3.99113L1.56178 3.96816L1.53125 3.99975L1.48452 3.9763L1.51193 3.9404L1.47891 3.91743H1.43218L1.42969 3.85186L1.47642 3.85617L1.50944 3.81788L1.47081 3.78821L1.52065 3.75471L1.55617 3.78199L1.61661 3.77337L1.62533 3.74609Z" fill="white" stroke="#EF2D28" stroke-width="0.0194158"/>
<path d="M1.64203 3.94098C1.67894 3.94098 1.70887 3.91553 1.70887 3.88413C1.70887 3.85273 1.67894 3.82727 1.64203 3.82727C1.60512 3.82727 1.5752 3.85273 1.5752 3.88413C1.5752 3.91553 1.60512 3.94098 1.64203 3.94098Z" fill="white" stroke="#EF2D28" stroke-width="0.0209085"/>
<path fill-rule="evenodd" clip-rule="evenodd" d="M1.22868 3.60193L1.1308 3.68862L1.22868 3.60193ZM1.29363 3.60193L1.19575 3.68862L1.29363 3.60193ZM1.35767 3.60193L1.2607 3.68862L1.35767 3.60193ZM1.42262 3.60193L1.32565 3.68862L1.42262 3.60193ZM1.48757 3.60193L1.3906 3.68862L1.48757 3.60193ZM1.55253 3.60193L1.45556 3.68862L1.55253 3.60193ZM1.61748 3.60193L1.52051 3.68862L1.61748 3.60193ZM1.68243 3.60193L1.58546 3.68862L1.68243 3.60193ZM1.74738 3.60193L1.6495 3.68862L1.74738 3.60193ZM1.81233 3.60193L1.71353 3.68862L1.81233 3.60193ZM1.87545 3.60193L1.77848 3.68862L1.87545 3.60193ZM1.94041 3.60193L1.84344 3.68862L1.94041 3.60193ZM1.68151 3.60193L1.58546 3.68862L1.68151 3.60193ZM2.00627 3.60193L1.9093 3.68862L2.00627 3.60193ZM2.07122 3.60193L1.97425 3.68862L2.07122 3.60193ZM2.13618 3.60193L2.03921 3.68862L2.13618 3.60193ZM2.20113 3.60193L2.10416 3.68862L2.20113 3.60193ZM2.10416 3.60193L2.20113 3.68862L2.10416 3.60193ZM2.03921 3.60193L2.13618 3.68862L2.03921 3.60193ZM1.97425 3.60193L2.07122 3.68862L1.97425 3.60193ZM1.9093 3.60193L2.00627 3.68862L1.9093 3.60193ZM1.84435 3.60193L1.94132 3.68862L1.84435 3.60193ZM1.7794 3.60193L1.87637 3.68862L1.7794 3.60193ZM1.71445 3.60193L1.81233 3.68862L1.71445 3.60193ZM1.6495 3.60193L1.74647 3.68862L1.6495 3.60193ZM1.58363 3.60193L1.68151 3.68862L1.58363 3.60193ZM1.51959 3.60193L1.61656 3.68862L1.51959 3.60193ZM1.45464 3.60193L1.55161 3.68862L1.45464 3.60193ZM1.38969 3.60193L1.48666 3.68862L1.38969 3.60193ZM1.6495 3.60193L1.74647 3.68862L1.6495 3.60193ZM1.32565 3.60193L1.42171 3.68862L1.32565 3.60193ZM1.25979 3.60193L1.35767 3.68862L1.25979 3.60193ZM1.19483 3.60193L1.29272 3.68862L1.19483 3.60193ZM1.12988 3.60193L1.22868 3.68862L1.12988 3.60193ZM1.22868 4.09426L1.13171 4.18177L1.22868 4.09426ZM1.29272 4.09426L1.19483 4.18177L1.29272 4.09426ZM1.35859 4.09426L1.2607 4.18177L1.35859 4.09426ZM1.42262 4.09426L1.32565 4.18177L1.42262 4.09426ZM1.48757 4.09426L1.3906 4.18177L1.48757 4.09426ZM1.55253 4.09426L1.45556 4.18177L1.55253 4.09426ZM1.61748 4.09426L1.52142 4.18177L1.61748 4.09426ZM1.68243 4.09426L1.58546 4.18177L1.68243 4.09426ZM1.74738 4.09426L1.6495 4.18177L1.74738 4.09426ZM1.81142 4.09426L1.71353 4.18177L1.81142 4.09426ZM1.8782 4.09426L1.78031 4.18177L1.8782 4.09426ZM1.94224 4.09426L1.84527 4.18177L1.94224 4.09426ZM1.68243 4.09426L1.58546 4.18177L1.68243 4.09426ZM2.00627 4.09426L1.9093 4.18177L2.00627 4.09426ZM2.07122 4.09426L1.97425 4.18177L2.07122 4.09426ZM2.13618 4.09426L2.03921 4.18177L2.13618 4.09426ZM2.20113 4.09426L2.10416 4.18177L2.20113 4.09426ZM2.10416 4.09426L2.20113 4.18177L2.10416 4.09426ZM2.03921 4.09426L2.13618 4.18177L2.03921 4.09426ZM1.97425 4.09426L2.07122 4.18177L1.97425 4.09426ZM1.9093 4.09426L2.00627 4.18177L1.9093 4.09426ZM1.84435 4.09426L1.94132 4.18177L1.84435 4.09426ZM1.7794 4.09426L1.87728 4.18177L1.7794 4.09426ZM1.71353 4.09426L1.81142 4.18177L1.71353 4.09426ZM1.6495 4.09426L1.74647 4.18177L1.6495 4.09426ZM1.58546 4.09426L1.68243 4.18177L1.58546 4.09426ZM1.52051 4.09426L1.61748 4.18177L1.52051 4.09426ZM1.45556 4.09426L1.55253 4.18177L1.45556 4.09426ZM1.3906 4.09426L1.48757 4.18177L1.3906 4.09426ZM1.65041 4.09426L1.74738 4.18177L1.65041 4.09426ZM1.32657 4.09426L1.42262 4.18177L1.32657 4.09426ZM1.2607 4.09426L1.35859 4.18177L1.2607 4.09426ZM1.19575 4.09426L1.29363 4.18177L1.19575 4.09426ZM1.13171 4.09426L1.22868 4.18177L1.13171 4.09426Z" fill="white"/>
<path d="M1.22868 3.60193L1.1308 3.68862M1.29363 3.60193L1.19575 3.68862M1.35767 3.60193L1.2607 3.68862M1.42262 3.60193L1.32565 3.68862M1.48757 3.60193L1.3906 3.68862M1.55253 3.60193L1.45556 3.68862M1.61748 3.60193L1.52051 3.68862M1.68243 3.60193L1.58546 3.68862L1.68151 3.60193M1.74738 3.60193L1.6495 3.68862M1.81233 3.60193L1.71353 3.68862M1.87545 3.60193L1.77848 3.68862M1.94041 3.60193L1.84344 3.68862M2.00627 3.60193L1.9093 3.68862M2.07122 3.60193L1.97425 3.68862M2.13618 3.60193L2.03921 3.68862M2.20113 3.60193L2.10416 3.68862M2.10416 3.60193L2.20113 3.68862M2.03921 3.60193L2.13618 3.68862M1.97425 3.60193L2.07122 3.68862M1.9093 3.60193L2.00627 3.68862M1.84435 3.60193L1.94132 3.68862M1.7794 3.60193L1.87637 3.68862M1.71445 3.60193L1.81233 3.68862M1.6495 3.60193L1.74647 3.68862M1.58363 3.60193L1.68151 3.68862M1.51959 3.60193L1.61656 3.68862M1.45464 3.60193L1.55161 3.68862M1.38969 3.60193L1.48666 3.68862M1.32565 3.60193L1.42171 3.68862M1.25979 3.60193L1.35767 3.68862M1.19483 3.60193L1.29272 3.68862M1.12988 3.60193L1.22868 3.68862M1.22868 4.09426L1.13171 4.18177M1.29272 4.09426L1.19483 4.18177M1.35859 4.09426L1.2607 4.18177M1.42262 4.09426L1.32565 4.18177M1.48757 4.09426L1.3906 4.18177M1.55253 4.09426L1.45556 4.18177M1.61748 4.09426L1.52142 4.18177M1.68243 4.09426L1.58546 4.18177M1.74738 4.09426L1.6495 4.18177M1.81142 4.09426L1.71353 4.18177M1.8782 4.09426L1.78031 4.18177M1.94224 4.09426L1.84527 4.18177M2.00627 4.09426L1.9093 4.18177M2.07122 4.09426L1.97425 4.18177M2.13618 4.09426L2.03921 4.18177M2.20113 4.09426L2.10416 4.18177M2.10416 4.09426L2.20113 4.18177M2.03921 4.09426L2.13618 4.18177M1.97425 4.09426L2.07122 4.18177M1.9093 4.09426L2.00627 4.18177M1.84435 4.09426L1.94132 4.18177M1.7794 4.09426L1.87728 4.18177M1.71353 4.09426L1.81142 4.18177M1.6495 4.09426L1.74647 4.18177M1.58546 4.09426L1.68243 4.18177M1.52051 4.09426L1.61748 4.18177M1.45556 4.09426L1.55253 4.18177M1.3906 4.09426L1.48757 4.18177M1.65041 4.09426L1.74738 4.18177M1.32657 4.09426L1.42262 4.18177M1.2607 4.09426L1.35859 4.18177M1.19575 4.09426L1.29363 4.18177M1.13171 4.09426L1.22868 4.18177" stroke="#EF2D28" stroke-width="0.0307542"/>
<path fill-rule="evenodd" clip-rule="evenodd" d="M3.02238 5.00185C1.44938 6.54465 0.778344 6.73953 1.09383 6.86406C1.40932 6.98858 2.42199 6.19217 3.47554 5.13526C4.5291 4.07836 5.17444 3.13695 4.85896 3.01243C4.54347 2.8879 4.69589 3.36236 3.02238 5.00185Z" fill="white" stroke="#EF2D28" stroke-width="0.0514699"/>
<path fill-rule="evenodd" clip-rule="evenodd" d="M1.69251 6.12659L2.24414 6.27134C1.72544 6.76449 1.14179 6.9665 0.97987 6.87981C0.817948 6.79312 1.2717 6.5903 1.69342 6.1274L1.69251 6.12659Z" fill="white" stroke="#EF2D28" stroke-width="0.0299854"/>
<path fill-rule="evenodd" clip-rule="evenodd" d="M1.69496 6.18335L2.14941 6.29895C1.64416 6.77313 1.14426 6.9076 1.01505 6.84941C0.884952 6.792 1.28505 6.62922 1.69496 6.18335Z" fill="white" stroke="#EF2D28" stroke-width="0.0290194"/>
<path d="M3.3877 4.93652C3.38641 4.94396 3.38254 4.97715 3.37932 4.99031C3.37932 5.00861 3.37739 5.02235 3.37545 5.03665C3.3703 5.04924 3.37094 5.06068 3.35548 5.06526C3.34834 5.0767 3.33696 5.0856 3.32327 5.09043C3.31089 5.09925 3.29724 5.10656 3.28268 5.11218C3.26745 5.11806 3.25045 5.11926 3.23436 5.11561C3.22019 5.10703 3.20988 5.09787 3.19829 5.09043C3.19571 5.07899 3.19313 5.0624 3.18991 5.05095C3.19494 5.06621 3.19776 5.08198 3.19829 5.09787C3.197 5.11504 3.18991 5.12305 3.18218 5.13678" stroke="#EF2D28" stroke-width="0.0291424"/>
<path d="M3.23911 5.17548L3.23525 5.17205C3.24491 5.18063 3.24104 5.17663 3.21914 5.16461C3.20368 5.15774 3.18693 5.15431 3.16696 5.15088H3.11026C3.08836 5.15088 3.07354 5.15374 3.05808 5.15774C3.04648 5.16804 3.02973 5.17377 3.01749 5.18292C3.00661 5.19022 2.99833 5.20015 2.99365 5.21153C2.9827 5.22125 2.97561 5.23613 2.96531 5.24357C2.9608 5.26016 2.95178 5.25959 2.94533 5.27218C2.96466 5.27332 2.97948 5.27561 2.98979 5.28648C3.00654 5.29392 2.97561 5.27904 2.96917 5.27218C2.95629 5.26874 2.95306 5.26531 2.93309 5.26531C2.91505 5.25959 2.90346 5.26931 2.88477 5.27218C2.87382 5.2779 2.8706 5.27961 2.85643 5.27961" stroke="#EF2D28" stroke-width="0.0291424"/>
<path d="M3.02344 5.35697C3.01506 5.35697 2.9777 5.36326 2.96288 5.35697C2.94613 5.35296 2.93711 5.34552 2.9268 5.33179C2.92165 5.32207 2.9268 5.34896 2.9268 5.3604C2.92487 5.38157 2.91778 5.38157 2.90618 5.39587C2.89459 5.40274 2.88235 5.41189 2.87011 5.41762C2.85937 5.4254 2.84715 5.4314 2.83403 5.43535C2.82114 5.44107 2.80761 5.44565 2.79795 5.45309C2.78442 5.46167 2.78507 5.47197 2.77733 5.4857C2.77927 5.50287 2.78249 5.51317 2.79344 5.52118C2.79859 5.53319 2.8089 5.54521 2.81792 5.55322C2.82759 5.57038 2.83918 5.57782 2.81406 5.58183C2.79988 5.58755 2.79215 5.58297 2.77733 5.58183" stroke="#EF2D28" stroke-width="0.0291424"/>
<path d="M2.76367 5.60599C2.75336 5.60371 2.71857 5.59341 2.70311 5.58826H2.64642C2.62516 5.58997 2.62065 5.59569 2.60261 5.60256C2.59037 5.61343 2.58264 5.62087 2.56589 5.62774C2.55751 5.63746 2.54012 5.65463 2.53367 5.66721C2.52837 5.68201 2.52576 5.69746 2.52594 5.71299C2.52594 5.73416 2.53239 5.73816 2.53367 5.75647C2.53819 5.7722 2.54654 5.78685 2.55816 5.79938C2.56009 5.80396 2.56138 5.8051 2.56589 5.80625" stroke="#EF2D28" stroke-width="0.0291424"/>
<path d="M2.57324 5.85078C2.57141 5.85078 2.56775 5.85981 2.56181 5.86749C2.54854 5.88104 2.54717 5.88194 2.5275 5.88194C2.50921 5.88104 2.51149 5.87472 2.49868 5.87065C2.49274 5.86162 2.48542 5.85439 2.47856 5.8422C2.47398 5.83497 2.46987 5.82368 2.46484 5.81691C2.45935 5.80832 2.45294 5.802 2.44746 5.79432C2.44197 5.79207 2.44014 5.78981 2.43282 5.78845C2.44929 5.79116 2.45111 5.79703 2.46163 5.80561C2.46682 5.81379 2.47156 5.82223 2.47581 5.83091C2.47764 5.8431 2.4813 5.85259 2.48176 5.86749C2.48176 5.8833 2.48176 5.89414 2.47581 5.90723C2.46895 5.91401 2.46438 5.92123 2.45569 5.92711C2.44846 5.93404 2.44188 5.94159 2.43602 5.94969L2.40995 5.9664C2.40171 5.97137 2.39211 5.97633 2.37884 5.97769C2.36192 5.97633 2.35689 5.97182 2.34454 5.9664C2.33356 5.95872 2.32533 5.95375 2.31572 5.94653C2.30784 5.9401 2.30105 5.93248 2.2956 5.92394C2.2805 5.92033 2.27044 5.92169 2.26129 5.92982C2.25353 5.93516 2.24686 5.9419 2.24162 5.94969C2.23705 5.95195 2.22882 5.95872 2.22424 5.96098" stroke="#EF2D28" stroke-width="0.0290889"/>
<path d="M2.25903 5.96875C2.26358 5.97044 2.28064 5.98228 2.28747 5.98622C2.29202 6.00144 2.29941 6.00933 2.30168 6.02568C2.30566 6.04033 2.30566 6.05724 2.30566 6.07471C2.30168 6.09275 2.29429 6.10571 2.28747 6.1198C2.27609 6.12769 2.27041 6.13333 2.25562 6.14122C2.2414 6.14347 2.22719 6.14516 2.20956 6.14516C2.19818 6.14855 2.17771 6.15024 2.1669 6.14516C2.15098 6.14291 2.13904 6.13671 2.12766 6.13107C2.11458 6.12375 2.10662 6.11642 2.09241 6.10966C2.08501 6.09951 2.07421 6.08993 2.06397 6.07809C2.05487 6.06626 2.04862 6.05949 2.04236 6.04653C2.04805 6.06118 2.05544 6.07471 2.05999 6.0888C2.06852 6.10346 2.07307 6.10909 2.07421 6.12713C2.0799 6.14178 2.07819 6.15982 2.07819 6.17673C2.07648 6.188 2.07591 6.20942 2.0708 6.219V6.22971" stroke="#EF2D28" stroke-width="0.028685"/>
<path d="M1.73286 6.28771V6.29344C1.73286 6.27953 1.73286 6.28608 1.73927 6.31388C1.74933 6.32533 1.77586 6.3286 1.79598 6.32369C1.81428 6.30979 1.81428 6.29916 1.84721 6.29344C1.88015 6.29507 1.89296 6.30325 1.91125 6.31388C1.93071 6.32034 1.94693 6.33282 1.95699 6.34905C1.9634 6.36622 1.96705 6.37849 1.9451 6.38503C1.92598 6.39648 1.90397 6.40351 1.88106 6.40548C1.85545 6.40548 1.83624 6.40302 1.82434 6.41611C1.80605 6.43247 1.80788 6.44228 1.80788 6.47172C1.80147 6.48072 1.80056 6.50771 1.79598 6.51834C1.78024 6.52575 1.76252 6.52914 1.74476 6.52815C1.73835 6.5118 1.73195 6.48399 1.72737 6.46681C1.7228 6.44882 1.72189 6.42265 1.70999 6.41039C1.6995 6.3963 1.68616 6.3841 1.67066 6.3744C1.6614 6.36502 1.64934 6.35821 1.63589 6.35477C1.65876 6.36459 1.66151 6.37604 1.66425 6.40057C1.64504 6.40875 1.63955 6.41529 1.60753 6.41611C1.57551 6.41366 1.5682 6.4063 1.5563 6.38994C1.55356 6.41611 1.54441 6.42429 1.53801 6.44719C1.52703 6.46191 1.52246 6.47745 1.51056 6.49789C1.51514 6.52243 1.52612 6.52325 1.52703 6.5535C1.53435 6.57395 1.53435 6.59276 1.5499 6.60503C1.55722 6.61321 1.56271 6.61402 1.57917 6.61484C1.54624 6.61484 1.52612 6.61157 1.50416 6.60012C1.48769 6.59031 1.47489 6.57886 1.45842 6.56904C1.43778 6.55514 1.41455 6.54462 1.38981 6.53797C1.36328 6.53797 1.34407 6.53551 1.33309 6.5486C1.31662 6.55923 1.30565 6.57722 1.29833 6.60012C1.29375 6.62629 1.29101 6.64428 1.30473 6.66146C1.31388 6.68109 1.31662 6.68845 1.30473 6.71216C1.29101 6.72852 1.2718 6.73097 1.24069 6.73752C1.21965 6.7367 1.19861 6.73261 1.18398 6.7277" stroke="#EF2D28" stroke-width="0.0299854"/>
<path fill-rule="evenodd" clip-rule="evenodd" d="M4.81185 3.61298C5.50946 2.40547 5.97213 1.37652 5.84598 1.31828C5.71853 1.25943 5.04909 2.19291 4.35147 3.40041L4.81185 3.61298Z" fill="white" stroke="#EF2D28" stroke-width="0.039098"/>
<path fill-rule="evenodd" clip-rule="evenodd" d="M4.76564 3.59263C5.43864 2.42774 5.90212 1.44301 5.8012 1.39642C5.69924 1.34934 5.07033 2.25769 4.39734 3.42258" fill="white"/>
<path d="M4.76564 3.59263C5.43864 2.42774 5.90212 1.44301 5.8012 1.39642C5.69924 1.34934 5.07033 2.25769 4.39734 3.42258" stroke="#EF2D28" stroke-width="0.034348"/>
<path fill-rule="evenodd" clip-rule="evenodd" d="M4.65001 2.98494C4.56807 3.12107 4.48125 3.27704 4.39729 3.42237L4.76663 3.5929C4.85059 3.44758 4.94261 3.29401 5.01935 3.15547L4.65001 2.98494Z" fill="white" stroke="#EF2D28" stroke-width="0.0389827"/>
<path fill-rule="evenodd" clip-rule="evenodd" d="M4.68212 3.03196C4.59976 3.16881 4.54317 3.27247 4.45879 3.41852L4.7345 3.54582C4.81846 3.4005 4.88109 3.29779 4.95783 3.15926L4.68212 3.03196Z" fill="white" stroke="#EF2D28" stroke-width="0.0389827"/>
<path fill-rule="evenodd" clip-rule="evenodd" d="M4.88294 3.18981L4.69827 3.10454L4.53455 3.38793L4.71922 3.47319L4.88294 3.18981ZM4.88294 3.18981L4.53455 3.38793L4.88294 3.18981ZM4.71922 3.47319L4.69827 3.10454L4.71922 3.47319ZM5.71582 1.74817L5.53115 1.6629L5.71582 1.74817Z" fill="white"/>
<path d="M4.88294 3.18981L4.69827 3.10454M4.88294 3.18981L4.71922 3.47319M4.88294 3.18981L4.53455 3.38793M4.69827 3.10454L4.53455 3.38793M4.69827 3.10454L4.71922 3.47319M4.53455 3.38793L4.71922 3.47319M5.71582 1.74817L5.53115 1.6629" stroke="#EF2D28" stroke-width="0.0389827"/>
<path d="M5.714 1.61411C5.68563 1.62128 5.65743 1.60686 5.65103 1.58191C5.64463 1.55695 5.66244 1.5309 5.69081 1.52373C5.71919 1.51656 5.74738 1.53097 5.75378 1.55593C5.76019 1.58089 5.74238 1.60693 5.714 1.61411Z" fill="#EF0000" stroke="#EF2D28" stroke-width="0.0505112"/>
<path fill-rule="evenodd" clip-rule="evenodd" d="M4.53915 4.97365C6.11214 6.51645 6.78318 6.71134 6.46769 6.83586C6.15221 6.96039 5.13954 6.16397 4.08598 5.10706C3.03242 4.05016 2.38708 3.10876 2.70257 2.98423C3.01805 2.85971 2.86563 3.33416 4.53915 4.97365Z" fill="white" stroke="#EF2D28" stroke-width="0.0514699"/>
<path fill-rule="evenodd" clip-rule="evenodd" d="M5.86413 6.09375L5.3125 6.23851C5.8312 6.73166 6.41485 6.93366 6.57677 6.84697C6.73869 6.76028 6.28495 6.55746 5.86322 6.09457L5.86413 6.09375Z" fill="white" stroke="#EF2D28" stroke-width="0.0299854"/>
<path fill-rule="evenodd" clip-rule="evenodd" d="M5.86168 6.15527L5.40723 6.27087C5.91248 6.74505 6.41238 6.87952 6.54159 6.82133C6.67169 6.76393 6.27159 6.60115 5.86168 6.15527Z" fill="white" stroke="#EF2D28" stroke-width="0.0290194"/>
<path d="M4.17383 4.90833C4.17512 4.91576 4.17898 4.94895 4.1822 4.96211C4.1822 4.98042 4.18414 4.99415 4.18607 5.00845C4.19122 5.02104 4.19058 5.03248 4.20604 5.03706C4.21318 5.0485 4.22456 5.0574 4.23825 5.06224C4.25063 5.07105 4.26428 5.07836 4.27884 5.08398C4.29407 5.08986 4.31107 5.09107 4.32716 5.08741C4.34133 5.07883 4.35164 5.06967 4.36324 5.06224C4.36581 5.05079 4.36839 5.0342 4.37161 5.02276C4.36658 5.03801 4.36377 5.05378 4.36324 5.06967C4.36453 5.08684 4.37161 5.09485 4.37934 5.10858" stroke="#EF2D28" stroke-width="0.0291424"/>
<path d="M4.32339 5.14728L4.32725 5.14385C4.31759 5.15243 4.32146 5.14843 4.34336 5.13641C4.35882 5.12955 4.37557 5.12611 4.39554 5.12268H4.45224C4.47414 5.12268 4.48896 5.12554 4.50442 5.12955C4.51602 5.13985 4.53277 5.14557 4.54501 5.15472C4.55589 5.16202 4.56417 5.17196 4.56885 5.18333C4.5798 5.19306 4.58689 5.20793 4.59719 5.21537C4.6017 5.23196 4.61072 5.23139 4.61717 5.24398C4.59784 5.24512 4.58302 5.24741 4.57271 5.25828C4.55596 5.26572 4.58689 5.25084 4.59333 5.24398C4.60621 5.24054 4.60944 5.23711 4.62941 5.23711C4.64745 5.23139 4.65904 5.24112 4.67773 5.24398C4.68868 5.2497 4.6919 5.25142 4.70607 5.25142" stroke="#EF2D28" stroke-width="0.0291424"/>
<path d="M4.53809 5.32413C4.54646 5.32413 4.58383 5.33042 4.59865 5.32413C4.6154 5.32013 4.62442 5.31269 4.63472 5.29896C4.63988 5.28923 4.63472 5.31612 4.63472 5.32756C4.63666 5.34873 4.64374 5.34873 4.65534 5.36304C4.66694 5.3699 4.67918 5.37906 4.69142 5.38478C4.70215 5.39256 4.71437 5.39857 4.7275 5.40252C4.74038 5.40824 4.75391 5.41282 4.76357 5.42025C4.7771 5.42884 4.77646 5.43913 4.78419 5.45287C4.78226 5.47003 4.77904 5.48033 4.76808 5.48834C4.76293 5.50036 4.75262 5.51237 4.7436 5.52038C4.73394 5.53755 4.72234 5.54498 4.74747 5.54899C4.76164 5.55471 4.76937 5.55013 4.78419 5.54899" stroke="#EF2D28" stroke-width="0.0291424"/>
<path d="M4.79395 5.57792C4.80425 5.57563 4.83904 5.56533 4.8545 5.56018H4.9112C4.93246 5.5619 4.93697 5.56762 4.95501 5.57448C4.96725 5.58536 4.97498 5.59279 4.99173 5.59966C5.00011 5.60939 5.0175 5.62655 5.02394 5.63914C5.02925 5.65393 5.03186 5.66939 5.03167 5.68491C5.03167 5.70608 5.02523 5.71009 5.02394 5.72839C5.01943 5.74412 5.01107 5.75877 4.99946 5.77131C4.99753 5.77588 4.99624 5.77703 4.99173 5.77817" stroke="#EF2D28" stroke-width="0.0291424"/>
<path d="M4.9834 5.82258C4.98523 5.82258 4.98889 5.83161 4.99483 5.83929C5.0081 5.85284 5.00947 5.85374 5.02914 5.85374C5.04744 5.85284 5.04515 5.84652 5.05796 5.84245C5.0639 5.83342 5.07122 5.82619 5.07808 5.814C5.08266 5.80677 5.08677 5.79548 5.0918 5.78871C5.09729 5.78013 5.1037 5.7738 5.10919 5.76613C5.11467 5.76387 5.1165 5.76161 5.12382 5.76025C5.10736 5.76296 5.10553 5.76884 5.09501 5.77742C5.08982 5.78559 5.08508 5.79403 5.08083 5.80271C5.079 5.8149 5.07534 5.82439 5.07488 5.83929C5.07488 5.8551 5.07488 5.86594 5.08083 5.87904C5.08769 5.88581 5.09226 5.89304 5.10095 5.89891C5.10818 5.90584 5.11476 5.91339 5.12062 5.92149L5.14669 5.9382C5.15493 5.94317 5.16453 5.94814 5.1778 5.94949C5.19472 5.94814 5.19975 5.94362 5.2121 5.9382C5.22308 5.93052 5.23131 5.92555 5.24092 5.91833C5.2488 5.91191 5.25559 5.90428 5.26104 5.89575C5.27614 5.89213 5.2862 5.89349 5.29535 5.90162C5.30311 5.90697 5.30978 5.91371 5.31502 5.92149C5.31959 5.92375 5.32783 5.93052 5.3324 5.93278" stroke="#EF2D28" stroke-width="0.0290889"/>
<path d="M5.30347 5.94067C5.29892 5.94236 5.28186 5.9542 5.27503 5.95815C5.27048 5.97336 5.26309 5.98126 5.26082 5.9976C5.25684 6.01225 5.25684 6.02916 5.25684 6.04664C5.26082 6.06467 5.26821 6.07763 5.27503 6.09173C5.28641 6.09962 5.29209 6.10525 5.30688 6.11314C5.3211 6.1154 5.33531 6.11709 5.35294 6.11709C5.36432 6.12047 5.38479 6.12216 5.3956 6.11709C5.41152 6.11483 5.42346 6.10863 5.43484 6.103C5.44792 6.09567 5.45588 6.08834 5.47009 6.08158C5.47749 6.07143 5.48829 6.06185 5.49853 6.05002C5.50763 6.03818 5.51388 6.03142 5.52014 6.01845C5.51445 6.03311 5.50706 6.04664 5.50251 6.06073C5.49398 6.07538 5.48943 6.08102 5.48829 6.09905C5.4826 6.11371 5.48431 6.13174 5.48431 6.14865C5.48602 6.15992 5.48659 6.18134 5.4917 6.19092V6.20163" stroke="#EF2D28" stroke-width="0.028685"/>
<path d="M5.82378 6.25487V6.2606C5.82378 6.2467 5.82378 6.25324 5.81737 6.28104C5.80731 6.29249 5.78078 6.29577 5.76066 6.29086C5.74236 6.27695 5.74236 6.26632 5.70943 6.2606C5.67649 6.26223 5.66369 6.27041 5.64539 6.28104C5.62593 6.28751 5.60971 6.29998 5.59965 6.31621C5.59325 6.33339 5.58959 6.34565 5.61154 6.3522C5.63067 6.36364 5.65267 6.37067 5.67558 6.37264C5.70119 6.37264 5.7204 6.37019 5.7323 6.38327C5.75059 6.39963 5.74876 6.40944 5.74876 6.43889C5.75517 6.44788 5.75608 6.47487 5.76066 6.4855C5.7764 6.49291 5.79413 6.49631 5.81189 6.49532C5.81829 6.47896 5.82469 6.45115 5.82927 6.43398C5.83384 6.41599 5.83476 6.38982 5.84665 6.37755C5.85714 6.36347 5.87048 6.35126 5.88598 6.34156C5.89524 6.33219 5.9073 6.32537 5.92075 6.32194C5.89788 6.33175 5.89513 6.3432 5.89239 6.36773C5.9116 6.37591 5.91709 6.38246 5.94911 6.38327C5.98113 6.38082 5.98844 6.37346 6.00034 6.3571C6.00308 6.38327 6.01223 6.39145 6.01863 6.41435C6.02961 6.42907 6.03418 6.44461 6.04608 6.46506C6.0415 6.48959 6.03053 6.49041 6.02961 6.52067C6.02229 6.54111 6.02229 6.55992 6.00674 6.57219C5.99942 6.58037 5.99393 6.58119 5.97747 6.58201C6.0104 6.58201 6.03053 6.57873 6.05248 6.56728C6.06895 6.55747 6.08175 6.54602 6.09822 6.53621C6.11886 6.5223 6.14209 6.51178 6.16683 6.50513C6.19336 6.50513 6.21257 6.50268 6.22355 6.51576C6.24002 6.52639 6.251 6.54439 6.25831 6.56728C6.26289 6.59345 6.26563 6.61145 6.25191 6.62862C6.24276 6.64825 6.24002 6.65561 6.25191 6.67933C6.26563 6.69568 6.28484 6.69814 6.31595 6.70468C6.33699 6.70386 6.35803 6.69977 6.37267 6.69487" stroke="#EF2D28" stroke-width="0.0299854"/>
<path fill-rule="evenodd" clip-rule="evenodd" d="M2.74577 3.58014C2.04815 2.37264 1.58549 1.34369 1.71163 1.28544C1.83908 1.22659 2.50853 2.16007 3.20615 3.36757L2.74577 3.58014Z" fill="white" stroke="#EF2D28" stroke-width="0.039098"/>
<path fill-rule="evenodd" clip-rule="evenodd" d="M2.79197 3.5598C2.11898 2.39491 1.6555 1.41018 1.75642 1.36358C1.85838 1.3165 2.48728 2.22485 3.16028 3.38974" fill="white"/>
<path d="M2.79197 3.5598C2.11898 2.39491 1.6555 1.41018 1.75642 1.36358C1.85838 1.3165 2.48728 2.22485 3.16028 3.38974" stroke="#EF2D28" stroke-width="0.034348"/>
<path fill-rule="evenodd" clip-rule="evenodd" d="M2.90761 2.9521C2.98955 3.08823 3.07637 3.24421 3.16033 3.38953L2.79098 3.56007C2.70702 3.41474 2.61501 3.26117 2.53827 3.12264L2.90761 2.9521Z" fill="white" stroke="#EF2D28" stroke-width="0.0389827"/>
<path fill-rule="evenodd" clip-rule="evenodd" d="M2.87549 2.99912C2.95786 3.13598 3.01445 3.23963 3.09883 3.38569L2.82312 3.51299C2.73916 3.36766 2.67653 3.26495 2.59979 3.12642L2.87549 2.99912Z" fill="white" stroke="#EF2D28" stroke-width="0.0389827"/>
<path fill-rule="evenodd" clip-rule="evenodd" d="M2.67468 3.15697L2.85935 3.0717L3.02307 3.35509L2.8384 3.44036L2.67468 3.15697ZM2.67468 3.15697L3.02307 3.35509L2.67468 3.15697ZM2.8384 3.44036L2.85935 3.0717L2.8384 3.44036ZM1.8418 1.71533L2.02647 1.63006L1.8418 1.71533Z" fill="white"/>
<path d="M2.67468 3.15697L2.85935 3.0717M2.67468 3.15697L2.8384 3.44036M2.67468 3.15697L3.02307 3.35509M2.85935 3.0717L3.02307 3.35509M2.85935 3.0717L2.8384 3.44036M3.02307 3.35509L2.8384 3.44036M1.8418 1.71533L2.02647 1.63006" stroke="#EF2D28" stroke-width="0.0389827"/>
<path d="M1.84362 1.58127C1.87199 1.58844 1.90018 1.57403 1.90659 1.54907C1.91299 1.52411 1.89518 1.49807 1.86681 1.49089C1.83843 1.48372 1.81024 1.49814 1.80383 1.52309C1.79743 1.54805 1.81524 1.5741 1.84362 1.58127Z" fill="#EF0000" stroke="#EF2D28" stroke-width="0.0505112"/>
<path fill-rule="evenodd" clip-rule="evenodd" d="M3.30372 2.96484C3.30372 3.97895 3.30982 4.36088 3.23542 4.41322C3.16467 4.46965 1.19727 4.41322 1.19727 4.70273C1.19727 4.99224 2.81705 5.28339 3.30372 5.28339C3.95261 5.28339 4.27584 4.99306 4.27584 4.41322V2.96566H3.30372V2.96484Z" fill="white" stroke="#EF2D28" stroke-width="0.0355115"/>
<path fill-rule="evenodd" clip-rule="evenodd" d="M3.30371 3.25427V3.39903C3.62531 3.44723 3.95364 3.44723 4.27524 3.39903V3.25427C3.95364 3.30248 3.62531 3.30248 3.30371 3.25427Z" fill="white" stroke="#EF2D28" stroke-width="0.0307542"/>
<path fill-rule="evenodd" clip-rule="evenodd" d="M3.30371 2.96472V3.10948C3.62531 3.15768 3.95364 3.15768 4.27524 3.10948V2.96472C3.95364 3.01293 3.62531 3.01293 3.30371 2.96472Z" fill="white" stroke="#EF2D28" stroke-width="0.0307542"/>
<path fill-rule="evenodd" clip-rule="evenodd" d="M3.30371 3.1095V3.25425C3.62531 3.30246 3.95364 3.30246 4.27524 3.25425V3.1095C3.95364 3.1577 3.62531 3.1577 3.30371 3.1095Z" fill="white" stroke="#EF2D28" stroke-width="0.0307542"/>
<path fill-rule="evenodd" clip-rule="evenodd" d="M3.30371 3.39905V3.5438C3.62531 3.59201 3.95364 3.59201 4.27524 3.5438V3.39905C3.95364 3.44726 3.62531 3.44726 3.30371 3.39905Z" fill="white" stroke="#EF2D28" stroke-width="0.0307542"/>
<path d="M3.34812 3.22273C3.37265 3.22273 3.39253 3.20873 3.39253 3.19145C3.39253 3.17416 3.37265 3.16016 3.34812 3.16016C3.32359 3.16016 3.30371 3.17416 3.30371 3.19145C3.30371 3.20873 3.32359 3.22273 3.34812 3.22273Z" fill="white" stroke="#EF2D28" stroke-width="0.0290724"/>
<path d="M3.52488 3.23836C3.54941 3.23836 3.56929 3.22435 3.56929 3.20707C3.56929 3.18979 3.54941 3.17578 3.52488 3.17578C3.50035 3.17578 3.48047 3.18979 3.48047 3.20707C3.48047 3.22435 3.50035 3.23836 3.52488 3.23836Z" fill="white" stroke="#EF2D28" stroke-width="0.0290724"/>
<path d="M3.70164 3.25423C3.72616 3.25423 3.74605 3.24022 3.74605 3.22294C3.74605 3.20566 3.72616 3.19165 3.70164 3.19165C3.67711 3.19165 3.65723 3.20566 3.65723 3.22294C3.65723 3.24022 3.67711 3.25423 3.70164 3.25423Z" fill="white" stroke="#EF2D28" stroke-width="0.0290724"/>
<path d="M3.87839 3.25423C3.90292 3.25423 3.9228 3.24022 3.9228 3.22294C3.9228 3.20566 3.90292 3.19165 3.87839 3.19165C3.85387 3.19165 3.83398 3.20566 3.83398 3.22294C3.83398 3.24022 3.85387 3.25423 3.87839 3.25423Z" fill="white" stroke="#EF2D28" stroke-width="0.0290724"/>
<path d="M4.05515 3.23836C4.07968 3.23836 4.09956 3.22435 4.09956 3.20707C4.09956 3.18979 4.07968 3.17578 4.05515 3.17578C4.03063 3.17578 4.01074 3.18979 4.01074 3.20707C4.01074 3.22435 4.03063 3.23836 4.05515 3.23836Z" fill="white" stroke="#EF2D28" stroke-width="0.0290724"/>
<path d="M4.23289 3.22273C4.25741 3.22273 4.2773 3.20873 4.2773 3.19145C4.2773 3.17416 4.25741 3.16016 4.23289 3.16016C4.20836 3.16016 4.18848 3.17416 4.18848 3.19145C4.18848 3.20873 4.20836 3.22273 4.23289 3.22273Z" fill="white" stroke="#EF2D28" stroke-width="0.0290724"/>
<path fill-rule="evenodd" clip-rule="evenodd" d="M3.30388 3.6886L4.27541 4.47126L3.30388 3.6886ZM3.40085 3.6886L4.27632 4.38375L3.40085 3.6886ZM3.52984 3.71804L4.27632 4.29788L3.52984 3.71804ZM3.62681 3.71722L4.27632 4.21037L3.62681 3.71722ZM3.72469 3.71804L4.27541 4.12368L3.72469 3.71804ZM3.82166 3.71804L4.27541 4.03699L3.82166 3.71804ZM3.91863 3.71804L4.27541 3.94949L3.91863 3.71804ZM4.01743 3.71804L4.27724 3.89142L4.01743 3.71804ZM4.11349 3.71804L4.27632 3.83417L4.11349 3.71804ZM4.21137 3.71804L4.27541 3.77529L4.21137 3.71804ZM3.30388 3.77529L4.27541 4.55877L3.30388 3.77529ZM4.27541 3.68942L3.20508 4.55795L4.27541 3.68942ZM4.17752 3.6886L3.23801 4.44264L4.17752 3.6886ZM4.04854 3.71804L3.30296 4.29706L4.04854 3.71804ZM3.95065 3.71804L3.30296 4.21037L3.95065 3.71804ZM3.85459 3.71804L3.30388 4.12368L3.85459 3.71804ZM3.75762 3.71804L3.30388 4.03699L3.75762 3.71804ZM3.66065 3.71804L3.30388 3.94949L3.66065 3.71804ZM3.56185 3.71804L3.30296 3.89142L3.56185 3.71804ZM3.46488 3.71804L3.30296 3.83417L3.46488 3.71804ZM3.367 3.71804L3.30296 3.77529L3.367 3.71804ZM4.27541 3.77529L3.20508 4.64628L4.27541 3.77529ZM4.27541 3.86361L3.20508 4.73215L4.27541 3.86361ZM4.27541 3.94949L3.20508 4.81884L4.27541 3.94949ZM4.27541 4.03618L3.20508 4.90716L4.27541 4.03618ZM4.27541 4.1245L3.20508 4.99303L4.27541 4.1245ZM4.27541 4.21037L3.20508 5.07972L4.27541 4.21037ZM4.27541 4.29706L3.20508 5.16641L4.27541 4.29706ZM4.27541 4.38457L3.20508 5.25392L4.27541 4.38457ZM4.27541 4.47126L3.27003 5.28255L4.27541 4.47126ZM4.27541 4.55795L3.36791 5.28255L4.27541 4.55795ZM4.24248 4.67408L3.52892 5.25392L4.24248 4.67408ZM4.21137 4.7894L3.62772 5.2531L4.21137 4.7894ZM4.14642 4.93415L3.85368 5.1656L4.14642 4.93415ZM3.30388 3.86198L4.24339 4.6152L3.30388 3.86198ZM3.30388 3.94867L4.24339 4.70271L3.30388 3.94867ZM3.30388 4.03699L4.21137 4.76077L3.30388 4.03699ZM3.30388 4.12287L4.21137 4.84828L3.30388 4.12287ZM3.30388 4.21037L4.17844 4.90553L3.30388 4.21037ZM3.27094 4.26844L4.14642 4.96359L3.27094 4.26844ZM3.27094 4.35595L4.08147 4.99385L3.27094 4.35595ZM3.23893 4.41319L4.04945 5.0511L3.23893 4.41319ZM3.20508 4.47044L3.98267 5.07891L3.20508 4.47044ZM3.20508 4.55713L3.95065 5.13697L3.20508 4.55713ZM3.20508 4.64464L3.85459 5.1656L3.20508 4.64464Z" fill="white"/>
<path d="M3.30388 3.6886L4.27541 4.47126L3.27003 5.28255M3.40085 3.6886L4.27632 4.38375M3.52984 3.71804L4.27632 4.29788M3.62681 3.71722L4.27632 4.21037M3.72469 3.71804L4.27541 4.12368M3.82166 3.71804L4.27541 4.03699M3.91863 3.71804L4.27541 3.94949L3.20508 4.81884M4.01743 3.71804L4.27724 3.89142M4.11349 3.71804L4.27632 3.83417M4.21137 3.71804L4.27541 3.77529L3.20508 4.64628M3.30388 3.77529L4.27541 4.55877M4.27541 3.68942L3.20508 4.55795M4.17752 3.6886L3.23801 4.44264M4.04854 3.71804L3.30296 4.29706M3.95065 3.71804L3.30296 4.21037M3.85459 3.71804L3.30388 4.12368M3.75762 3.71804L3.30388 4.03699L4.21137 4.76077M3.66065 3.71804L3.30388 3.94949M3.56185 3.71804L3.30296 3.89142M3.46488 3.71804L3.30296 3.83417M3.367 3.71804L3.30296 3.77529M4.27541 3.86361L3.20508 4.73215M4.27541 4.03618L3.20508 4.90716M4.27541 4.1245L3.20508 4.99303M4.27541 4.21037L3.20508 5.07972M4.27541 4.29706L3.20508 5.16641M4.27541 4.38457L3.20508 5.25392M4.27541 4.55795L3.36791 5.28255M4.24248 4.67408L3.52892 5.25392M4.21137 4.7894L3.62772 5.2531M4.14642 4.93415L3.85368 5.1656M3.30388 3.86198L4.24339 4.6152M3.30388 3.94867L4.24339 4.70271M3.30388 4.12287L4.21137 4.84828M3.30388 4.21037L4.17844 4.90553M3.27094 4.26844L4.14642 4.96359M3.27094 4.35595L4.08147 4.99385M3.23893 4.41319L4.04945 5.0511M3.20508 4.47044L3.98267 5.07891M3.20508 4.55713L3.95065 5.13697M3.20508 4.64464L3.85459 5.1656" stroke="#EF2D28" stroke-width="0.0307542"/>
<path fill-rule="evenodd" clip-rule="evenodd" d="M3.30371 3.54456V3.68931C3.62531 3.73752 3.95364 3.73752 4.27524 3.68931V3.54456C3.95364 3.59276 3.62531 3.59276 3.30371 3.54456Z" fill="white" stroke="#EF2D28" stroke-width="0.0307542"/>
<path fill-rule="evenodd" clip-rule="evenodd" d="M3.20599 4.73218L3.78964 5.19589L3.20599 4.73218ZM3.20599 4.81969L3.72469 5.22451L3.20599 4.81969ZM3.20599 4.90556L3.65974 5.25395L3.20599 4.90556ZM3.20599 4.99225L3.53075 5.25395L3.20599 4.99225ZM3.20508 5.07975L3.46488 5.28258L3.20508 5.07975ZM3.20508 5.16644L3.367 5.28258L3.20508 5.16644Z" fill="white"/>
<path d="M3.20599 4.73218L3.78964 5.19589M3.20599 4.81969L3.72469 5.22451M3.20599 4.90556L3.65974 5.25395M3.20599 4.99225L3.53075 5.25395M3.20508 5.07975L3.46488 5.28258M3.20508 5.16644L3.367 5.28258" stroke="#EF2D28" stroke-width="0.0307542"/>
<path d="M3.34812 3.65792C3.37265 3.65792 3.39253 3.64391 3.39253 3.62663C3.39253 3.60935 3.37265 3.59534 3.34812 3.59534C3.32359 3.59534 3.30371 3.60935 3.30371 3.62663C3.30371 3.64391 3.32359 3.65792 3.34812 3.65792Z" fill="white" stroke="#EF2D28" stroke-width="0.0290724"/>
<path d="M3.52488 3.67342C3.54941 3.67342 3.56929 3.65941 3.56929 3.64213C3.56929 3.62485 3.54941 3.61084 3.52488 3.61084C3.50035 3.61084 3.48047 3.62485 3.48047 3.64213C3.48047 3.65941 3.50035 3.67342 3.52488 3.67342Z" fill="white" stroke="#EF2D28" stroke-width="0.0290724"/>
<path d="M3.70164 3.68855C3.72616 3.68855 3.74605 3.67455 3.74605 3.65727C3.74605 3.63999 3.72616 3.62598 3.70164 3.62598C3.67711 3.62598 3.65723 3.63999 3.65723 3.65727C3.65723 3.67455 3.67711 3.68855 3.70164 3.68855Z" fill="white" stroke="#EF2D28" stroke-width="0.0290724"/>
<path d="M3.87839 3.68855C3.90292 3.68855 3.9228 3.67455 3.9228 3.65727C3.9228 3.63999 3.90292 3.62598 3.87839 3.62598C3.85387 3.62598 3.83398 3.63999 3.83398 3.65727C3.83398 3.67455 3.85387 3.68855 3.87839 3.68855Z" fill="white" stroke="#EF2D28" stroke-width="0.0290724"/>
<path d="M4.05515 3.67342C4.07968 3.67342 4.09956 3.65941 4.09956 3.64213C4.09956 3.62485 4.07968 3.61084 4.05515 3.61084C4.03063 3.61084 4.01074 3.62485 4.01074 3.64213C4.01074 3.65941 4.03063 3.67342 4.05515 3.67342Z" fill="white" stroke="#EF2D28" stroke-width="0.0290724"/>
<path d="M4.23289 3.65792C4.25741 3.65792 4.2773 3.64391 4.2773 3.62663C4.2773 3.60935 4.25741 3.59534 4.23289 3.59534C4.20836 3.59534 4.18848 3.60935 4.18848 3.62663C4.18848 3.64391 4.20836 3.65792 4.23289 3.65792Z" fill="white" stroke="#EF2D28" stroke-width="0.0290724"/>
<path fill-rule="evenodd" clip-rule="evenodd" d="M1.90964 5.05109L3.07602 4.44263L1.90964 5.05109ZM1.84469 5.02165L2.94703 4.44263L1.84469 5.02165ZM1.81267 4.96358L2.81713 4.44263L1.81267 4.96358ZM1.77973 4.90634L2.65521 4.44263L1.77973 4.90634ZM1.71387 4.84827L2.52439 4.44263L1.71387 4.84827ZM1.7468 4.76158L2.29752 4.47125L1.7468 4.76158ZM1.71387 4.7027L2.13468 4.47125L1.71387 4.7027ZM1.71387 4.61601L2.00661 4.47125L1.71387 4.61601ZM2.00661 5.07972L3.10804 4.49987L2.00661 5.07972ZM2.10449 5.10834L3.14097 4.55794L2.10449 5.10834ZM2.20146 5.13778L3.17391 4.61601L2.20146 5.13778ZM2.29843 5.1664L3.10896 4.73214L2.29843 5.1664ZM2.42742 5.1664L3.14097 4.7902L2.42742 5.1664ZM2.52439 5.19585L3.14006 4.87689L2.52439 5.19585ZM2.62136 5.22447L3.10804 4.96358L2.62136 5.22447ZM2.75126 5.22529L3.14006 5.02165L2.75126 5.22529ZM2.88117 5.25391L3.14097 5.10834L2.88117 5.25391ZM3.0129 5.25391L3.17482 5.16722L3.0129 5.25391Z" fill="white"/>
<path d="M1.90964 5.05109L3.07602 4.44263M1.84469 5.02165L2.94703 4.44263M1.81267 4.96358L2.81713 4.44263M1.77973 4.90634L2.65521 4.44263M1.71387 4.84827L2.52439 4.44263M1.7468 4.76158L2.29752 4.47125M1.71387 4.7027L2.13468 4.47125M1.71387 4.61601L2.00661 4.47125M2.00661 5.07972L3.10804 4.49987M2.10449 5.10834L3.14097 4.55794M2.20146 5.13778L3.17391 4.61601M2.29843 5.1664L3.10896 4.73214M2.42742 5.1664L3.14097 4.7902M2.52439 5.19585L3.14006 4.87689M2.62136 5.22447L3.10804 4.96358M2.75126 5.22529L3.14006 5.02165M2.88117 5.25391L3.14097 5.10834M3.0129 5.25391L3.17482 5.16722" stroke="#EF2D28" stroke-width="0.0307542"/>
<path fill-rule="evenodd" clip-rule="evenodd" d="M3.23828 4.41394H3.07636C3.02244 4.70144 3.02244 4.99497 3.07636 5.28247H3.23828C3.18436 4.99497 3.18436 4.70144 3.23828 4.41394Z" fill="white" stroke="#EF2D28" stroke-width="0.0307542"/>
<path fill-rule="evenodd" clip-rule="evenodd" d="M1.32617 4.81881L1.71497 4.5293L1.32617 4.81881ZM1.32617 4.61599L1.71497 4.96356L1.32617 4.61599Z" fill="white"/>
<path d="M1.32617 4.81881L1.71497 4.5293M1.32617 4.61599L1.71497 4.96356" stroke="#EF2D28" stroke-width="0.0307542"/>
<path fill-rule="evenodd" clip-rule="evenodd" d="M1.91016 4.4707L1.71548 4.49971C1.6723 4.68358 1.6723 4.83793 1.71548 5.02181L1.91016 5.0793C1.86698 4.89594 1.86698 4.65458 1.91016 4.4707Z" fill="white" stroke="#EF2D28" stroke-width="0.0218909"/>
<path fill-rule="evenodd" clip-rule="evenodd" d="M4.27551 3.02204V2.87565C4.12885 2.87729 4.03153 2.78978 4.03153 2.70227L3.54632 2.70309C3.54632 2.78978 3.45037 2.87729 3.30371 2.87729V3.02204H4.27551Z" fill="white" stroke="#EF2D28" stroke-width="0.0376447"/>
<path fill-rule="evenodd" clip-rule="evenodd" d="M3.58008 2.52973H3.99723V2.70393H3.58008V2.52973ZM3.61576 2.35553H3.96247V2.52973H3.61484L3.61576 2.35553ZM3.61576 2.18215H3.96247V2.35553H3.61484L3.61576 2.18215ZM3.65052 1.94989H3.92771V2.18215H3.65052V1.94989ZM3.63863 1.74707H3.94051V1.94989H3.63863V1.74707Z" fill="white"/>
<path d="M3.96247 2.35553H3.61576L3.61484 2.52973H3.96247V2.35553ZM3.96247 2.35553V2.18215H3.61576L3.61484 2.35553H3.96247ZM3.58008 2.52973H3.99723V2.70393H3.58008V2.52973ZM3.65052 1.94989H3.92771V2.18215H3.65052V1.94989ZM3.63863 1.74707H3.94051V1.94989H3.63863V1.74707Z" stroke="#EF2D28" stroke-width="0.0322919"/>
<path d="M3.80506 1.83454C4.02694 1.83454 4.2068 1.71115 4.2068 1.55893C4.2068 1.40672 4.02694 1.28333 3.80506 1.28333C3.58319 1.28333 3.40332 1.40672 3.40332 1.55893C3.40332 1.71115 3.58319 1.83454 3.80506 1.83454Z" fill="white" stroke="#EF2D28" stroke-width="0.0312621"/>
<path fill-rule="evenodd" clip-rule="evenodd" d="M4.00679 1.54425C4.00679 1.62031 4.10699 1.74707 4.10699 1.74707C4.03421 1.79778 3.91605 1.83458 3.80545 1.83458C3.69485 1.83458 3.55684 1.81331 3.50391 1.74707C3.50391 1.74707 3.60411 1.62112 3.60411 1.54507C3.60411 1.46901 3.50391 1.37087 3.50391 1.37087C3.59164 1.31509 3.69752 1.28475 3.80639 1.28418C3.91605 1.28418 4.03326 1.32098 4.10699 1.37087C4.10699 1.37087 4.00679 1.46901 4.00679 1.54507V1.54425Z" fill="white" stroke="#EF2D28" stroke-width="0.0312621"/>
<path fill-rule="evenodd" clip-rule="evenodd" d="M3.93995 1.54425C3.93995 1.62031 4.04015 1.77651 4.04015 1.77651C3.96736 1.82558 3.91726 1.83376 3.80572 1.83376C3.69417 1.83376 3.62422 1.84276 3.57129 1.77651C3.57129 1.77651 3.67149 1.62112 3.67149 1.54425C3.67149 1.46737 3.57129 1.34143 3.57129 1.34143C3.64408 1.29236 3.69417 1.28418 3.80572 1.28418C3.91631 1.28418 3.96736 1.29236 4.04015 1.34143C4.04015 1.34143 3.93995 1.46819 3.93995 1.54425Z" fill="white" stroke="#EF2D28" stroke-width="0.0312621"/>
<path d="M3.40391 1.65959C3.45925 1.65959 3.50411 1.62077 3.50411 1.5729C3.50411 1.52502 3.45925 1.48621 3.40391 1.48621C3.34857 1.48621 3.30371 1.52502 3.30371 1.5729C3.30371 1.62077 3.34857 1.65959 3.40391 1.65959Z" fill="white" stroke="#EF2D28" stroke-width="0.0312621"/>
<path d="M4.20762 1.65959C4.26296 1.65959 4.30782 1.62077 4.30782 1.5729C4.30782 1.52502 4.26296 1.48621 4.20762 1.48621C4.15228 1.48621 4.10742 1.52502 4.10742 1.5729C4.10742 1.62077 4.15228 1.65959 4.20762 1.65959Z" fill="white" stroke="#EF2D28" stroke-width="0.0312621"/>
<path d="M3.80625 1.65959C3.86159 1.65959 3.90645 1.62077 3.90645 1.5729C3.90645 1.52502 3.86159 1.48621 3.80625 1.48621C3.75092 1.48621 3.70605 1.52502 3.70605 1.5729C3.70605 1.62077 3.75092 1.65959 3.80625 1.65959Z" fill="white" stroke="#EF2D28" stroke-width="0.0312621"/>
<path d="M3.80625 1.37003C3.86159 1.37003 3.90645 1.33122 3.90645 1.28335C3.90645 1.23547 3.86159 1.19666 3.80625 1.19666C3.75092 1.19666 3.70605 1.23547 3.70605 1.28335C3.70605 1.33122 3.75092 1.37003 3.80625 1.37003Z" fill="white" stroke="#EF2D28" stroke-width="0.0312621"/>
<path d="M3.51296 3.02201C3.57027 3.02201 3.61673 2.9832 3.61673 2.93532C3.61673 2.88745 3.57027 2.84863 3.51296 2.84863C3.45564 2.84863 3.40918 2.88745 3.40918 2.93532C3.40918 2.9832 3.45564 3.02201 3.51296 3.02201Z" fill="white" stroke="#EF2D28" stroke-width="0.0318154"/>
<path d="M4.06667 3.02201C4.12398 3.02201 4.17045 2.9832 4.17045 2.93532C4.17045 2.88745 4.12398 2.84863 4.06667 2.84863C4.00935 2.84863 3.96289 2.88745 3.96289 2.93532C3.96289 2.9832 4.00935 3.02201 4.06667 3.02201Z" fill="white" stroke="#EF2D28" stroke-width="0.0318154"/>
<path fill-rule="evenodd" clip-rule="evenodd" d="M3.54688 2.70312H4.03248L3.78967 2.96401L3.54688 2.70312Z" fill="white" stroke="#EF2D28" stroke-width="0.0318154"/>
<path d="M3.78877 3.02145C3.86519 3.02145 3.92714 2.9697 3.92714 2.90587C3.92714 2.84203 3.86519 2.79028 3.78877 2.79028C3.71234 2.79028 3.65039 2.84203 3.65039 2.90587C3.65039 2.9697 3.71234 3.02145 3.78877 3.02145Z" fill="white" stroke="#EF2D28" stroke-width="0.042421"/>
<path d="M3.96216 3.77783H3.29709C3.27486 3.77783 3.25684 3.79175 3.25684 3.80891V3.92095C3.25684 3.93812 3.27486 3.95203 3.29709 3.95203H3.96216C3.98439 3.95203 4.00241 3.93812 4.00241 3.92095V3.80891C4.00241 3.79175 3.98439 3.77783 3.96216 3.77783Z" fill="white" stroke="#EF2D28" stroke-width="0.0299854"/>
<path fill-rule="evenodd" clip-rule="evenodd" d="M4.22914 3.63308C4.13949 3.63308 4.06722 3.70096 4.06722 3.78438V3.91605C4.06661 3.93552 4.07033 3.9549 4.07816 3.97307C4.08599 3.99125 4.09778 4.00785 4.11284 4.02192C4.1279 4.036 4.14593 4.04726 4.1659 4.05505C4.18586 4.06285 4.20735 4.06703 4.22914 4.06735C4.25092 4.06703 4.27242 4.06285 4.29238 4.05505C4.31234 4.04726 4.33038 4.036 4.34544 4.02192C4.3605 4.00785 4.37229 3.99125 4.38012 3.97307C4.38795 3.9549 4.39167 3.93552 4.39106 3.91605V3.7852C4.39179 3.76566 4.38816 3.74619 4.38039 3.72792C4.37261 3.70965 4.36084 3.69295 4.34577 3.67879C4.3307 3.66463 4.31262 3.65329 4.2926 3.64545C4.27257 3.6376 4.251 3.63339 4.22914 3.63308ZM4.22914 3.69033C4.17516 3.69033 4.13217 3.74512 4.13217 3.81218V3.88824C4.13217 3.9553 4.17516 4.00928 4.22914 4.00928C4.28311 4.00928 4.32611 3.9553 4.32611 3.88824V3.81218C4.32611 3.74512 4.28311 3.69115 4.22914 3.69115V3.69033ZM3.3866 3.6617C3.33171 3.6617 3.28962 3.71568 3.28962 3.78356V3.91768C3.28962 3.98475 3.33262 4.03872 3.3866 4.03872C3.44057 4.03872 3.48357 3.98475 3.48357 3.91768V3.78274C3.48357 3.71486 3.44057 3.66089 3.3866 3.66089V3.6617ZM3.3866 3.60446C3.36481 3.60477 3.34332 3.60895 3.32335 3.61675C3.30339 3.62454 3.28536 3.63581 3.27029 3.64988C3.25523 3.66395 3.24345 3.68055 3.23562 3.69873C3.22778 3.7169 3.22407 3.73629 3.22467 3.75575V3.94549C3.22407 3.96496 3.22778 3.98434 3.23562 4.00251C3.24345 4.02069 3.25523 4.03729 3.27029 4.05137C3.28536 4.06544 3.30339 4.0767 3.32335 4.0845C3.34332 4.09229 3.36481 4.09647 3.3866 4.09679C3.47625 4.09679 3.54852 4.02891 3.54852 3.94549V3.75575C3.54925 3.73622 3.54562 3.71675 3.53785 3.69848C3.53007 3.68021 3.5183 3.66351 3.50323 3.64935C3.48816 3.63519 3.47008 3.62385 3.45006 3.616C3.43003 3.60816 3.40846 3.60395 3.3866 3.60364V3.60446Z" fill="white" stroke="#EF2D28" stroke-width="0.0299854"/>
<path fill-rule="evenodd" clip-rule="evenodd" d="M3.12683 3.71969C3.07286 3.71969 3.02986 3.77366 3.02986 3.84073V3.87262C3.02986 3.93968 3.07286 3.99366 3.12683 3.99366C3.18172 3.99366 3.22471 3.93968 3.22471 3.87262V3.84073C3.22471 3.77366 3.1808 3.71969 3.12683 3.71969ZM3.12683 3.66244C3.10505 3.66276 3.08355 3.66693 3.06359 3.67473C3.04362 3.68253 3.02559 3.69379 3.01053 3.70786C2.99547 3.72193 2.98368 3.73854 2.97585 3.75671C2.96802 3.77489 2.9643 3.79427 2.96491 3.81374V3.90043C2.9643 3.9199 2.96802 3.93928 2.97585 3.95745C2.98368 3.97563 2.99547 3.99223 3.01053 4.0063C3.02559 4.02038 3.04362 4.03164 3.06359 4.03943C3.08355 4.04723 3.10505 4.05141 3.12683 4.05173C3.21648 4.05173 3.28967 3.98385 3.28967 3.90043V3.81374C3.2904 3.79413 3.28674 3.7746 3.27891 3.75627C3.27108 3.73795 3.25923 3.72121 3.24406 3.70704C3.22889 3.69287 3.2107 3.68155 3.19057 3.67375C3.17044 3.66595 3.14877 3.66183 3.12683 3.66162V3.66244Z" fill="white" stroke="#EF2D28" stroke-width="0.0299854"/>
<path fill-rule="evenodd" clip-rule="evenodd" d="M2.73858 3.63972C2.63978 3.63972 2.56239 3.70005 2.56239 3.775V3.92581C2.56239 3.99984 2.64143 4.06108 2.73858 4.06108C2.83409 4.06108 2.91313 4.00076 2.91313 3.92489V3.775C2.91313 3.70005 2.83409 3.63972 2.73858 3.63972ZM2.73858 3.57574C2.69938 3.57598 2.66065 3.58053 2.62463 3.58913C2.58862 3.59774 2.55603 3.61022 2.52877 3.62586C2.50151 3.64151 2.48011 3.65999 2.46582 3.68026C2.45152 3.70052 2.4446 3.72216 2.44548 3.74392V3.95597C2.44416 3.9778 2.45069 3.99956 2.46469 4.01998C2.47868 4.0404 2.49986 4.05906 2.527 4.07489C2.55413 4.09071 2.58666 4.10338 2.62271 4.11215C2.65875 4.12092 2.69759 4.12562 2.73694 4.12597C2.89996 4.12597 3.03004 4.05011 3.03004 3.95597V3.74392C3.03114 3.72216 3.02444 3.7005 3.01035 3.68019C2.99625 3.65988 2.97503 3.64132 2.94793 3.62559C2.92082 3.60987 2.88835 3.59728 2.85242 3.58857C2.81649 3.57985 2.77779 3.57518 2.73858 3.57483V3.57574Z" fill="white" stroke="#EF2D28" stroke-width="0.0294434"/>
<path fill-rule="evenodd" clip-rule="evenodd" d="M4.84601 3.66829C4.74721 3.66829 4.66981 3.72861 4.66981 3.80356V3.95437C4.66981 4.02841 4.74885 4.08964 4.84601 4.08964C4.94151 4.08964 5.02055 4.02932 5.02055 3.95346V3.80356C5.02055 3.72861 4.94151 3.66829 4.84601 3.66829ZM4.84601 3.60431C4.8068 3.60454 4.76807 3.6091 4.73205 3.6177C4.69604 3.6263 4.66346 3.63879 4.6362 3.65443C4.60893 3.67007 4.58753 3.68856 4.57324 3.70882C4.55894 3.72909 4.55203 3.75073 4.5529 3.77248V3.98453C4.55158 4.00637 4.55811 4.02813 4.57211 4.04854C4.5861 4.06896 4.60729 4.08763 4.63442 4.10345C4.66155 4.11928 4.69409 4.13195 4.73013 4.14072C4.76618 4.14949 4.80501 4.15419 4.84436 4.15454C5.00738 4.15454 5.13747 4.07868 5.13747 3.98453V3.77248C5.13856 3.75073 5.13187 3.72906 5.11777 3.70875C5.10367 3.68844 5.08246 3.66988 5.05535 3.65416C5.02824 3.63843 4.99578 3.62584 4.95984 3.61713C4.92391 3.60842 4.88521 3.60375 4.84601 3.60339V3.60431Z" fill="white" stroke="#EF2D28" stroke-width="0.0294434"/>
<path d="M4.6617 3.77783H4.31499C4.30337 3.77783 4.29395 3.79175 4.29395 3.80891V3.92095C4.29395 3.93812 4.30337 3.95203 4.31499 3.95203H4.6617C4.67332 3.95203 4.68274 3.93812 4.68274 3.92095V3.80891C4.68274 3.79175 4.67332 3.77783 4.6617 3.77783Z" fill="white" stroke="#EF2D28" stroke-width="0.0299854"/>
<path d="M4.15157 3.74915H3.95031C3.94323 3.74915 3.9375 3.76745 3.9375 3.79004V3.94052C3.9375 3.9631 3.94323 3.98141 3.95031 3.98141H4.15157C4.15864 3.98141 4.16437 3.9631 4.16437 3.94052V3.79004C4.16437 3.76745 4.15864 3.74915 4.15157 3.74915Z" fill="white" stroke="#EF2D28" stroke-width="0.0299854"/>
<path d="M3.08223 3.74915H2.88097C2.8739 3.74915 2.86816 3.76745 2.86816 3.79004V3.94052C2.86816 3.9631 2.8739 3.98141 2.88097 3.98141H3.08223C3.0893 3.98141 3.09504 3.9631 3.09504 3.94052V3.79004C3.09504 3.76745 3.0893 3.74915 3.08223 3.74915Z" fill="white" stroke="#EF2D28" stroke-width="0.0299854"/>
<path d="M2.58334 3.71973H2.179C2.16536 3.71973 2.1543 3.74279 2.1543 3.77125V3.95771C2.1543 3.98617 2.16536 4.00924 2.179 4.00924H2.58334C2.59699 4.00924 2.60804 3.98617 2.60804 3.95771V3.77125C2.60804 3.74279 2.59699 3.71973 2.58334 3.71973Z" fill="white" stroke="#EF2D28" stroke-width="0.0299854"/>
<path d="M5.37347 3.74915H4.99748C4.98485 3.74915 4.97461 3.77221 4.97461 3.80067V3.98713C4.97461 4.01559 4.98485 4.03866 4.99748 4.03866H5.37347C5.3861 4.03866 5.39634 4.01559 5.39634 3.98713V3.80067C5.39634 3.77221 5.3861 3.74915 5.37347 3.74915Z" fill="white" stroke="#EF2D28" stroke-width="0.0299854"/>
</g>
</g>
<defs>
<clipPath id="clip0_208_23884">
<rect width="24" height="24" rx="12" fill="white"/>
</clipPath>
</defs>
</svg>
