<svg width="24" height="24" viewBox="0 0 24 24" fill="none" xmlns="http://www.w3.org/2000/svg">
<g clip-path="url(#clip0_208_27358)">
<path d="M0 0H24V24H0V0Z" fill="#CF142B"/>
<path d="M0 0H24V15.9984H0V0Z" fill="#00247D"/>
<path d="M0 0H24V8.00156H0V0Z" fill="#FFCC00"/>
<path d="M13.4379 8.72786L12.9759 9.62083L13.496 9.89523L13.4379 8.72786Z" fill="white"/>
<path d="M13.4381 8.72796L13.5668 9.72508L12.9842 9.80507L13.4381 8.72796Z" fill="white"/>
<path d="M14.2546 9.57309L13.2626 9.40968L13.1623 9.98905L14.2546 9.57309Z" fill="white"/>
<path d="M14.2542 9.57315L13.3456 10.0037L13.0895 9.47438L14.2542 9.57315Z" fill="white"/>
<path d="M12.381 9.24303L13.0875 9.95833L13.5092 9.54854L12.381 9.24303Z" fill="white"/>
<path d="M12.3807 9.24305L13.3688 9.42879L13.2648 10.0075L12.3807 9.24305Z" fill="white"/>
<path d="M13.7021 10.6107L13.551 9.61674L12.969 9.70042L13.7021 10.6107Z" fill="white"/>
<path d="M13.7022 10.6107L13.0119 9.87968L13.4362 9.47257L13.7022 10.6107Z" fill="white"/>
<path d="M12.5446 10.4066L13.4432 9.9557L13.1838 9.42804L12.5446 10.4066Z" fill="white"/>
<path d="M12.5443 10.4066L13.0262 9.52431L13.5445 9.80199L12.5443 10.4066Z" fill="white"/>
<path d="M16.1122 9.70146L15.3727 10.3826L15.7675 10.8183L16.1122 9.70146Z" fill="white"/>
<path d="M16.1124 9.70138L15.8923 10.6824L15.3175 10.5583L16.1124 9.70138Z" fill="white"/>
<path d="M16.59 10.775L15.7137 10.2822L15.4213 10.7923L16.59 10.775Z" fill="white"/>
<path d="M16.5897 10.775L15.5887 10.8688L15.5291 10.2839L16.5897 10.775Z" fill="white"/>
<path d="M14.9436 9.82424L15.3628 10.738L15.8992 10.4972L14.9436 9.82424Z" fill="white"/>
<path d="M14.9432 9.8242L15.8081 10.3367L15.5125 10.845L14.9432 9.8242Z" fill="white"/>
<path d="M15.7174 11.5611L15.9153 10.5754L15.3398 10.455L15.7174 11.5611Z" fill="white"/>
<path d="M15.7172 11.5612L15.3186 10.6382L15.8565 10.4007L15.7172 11.5612Z" fill="white"/>
<path d="M14.6993 10.9736L15.698 10.8572L15.6346 10.2727L14.6993 10.9736Z" fill="white"/>
<path d="M14.6991 10.9737L15.4538 10.3094L15.8459 10.7476L14.6991 10.9737Z" fill="white"/>
<path d="M18.2924 11.5312L17.3645 11.9183L17.5865 12.4628L18.2924 11.5312Z" fill="white"/>
<path d="M18.2926 11.5313L17.7502 12.3778L17.2526 12.0647L18.2926 11.5313Z" fill="white"/>
<path d="M18.3743 12.7035L17.7194 11.9407L17.2702 12.3201L18.3743 12.7035Z" fill="white"/>
<path d="M18.3747 12.7034L17.402 12.4492L17.5461 11.8792L18.3747 12.7034Z" fill="white"/>
<path d="M17.1521 11.2468L17.2335 12.2489L17.8199 12.206L17.1521 11.2468Z" fill="white"/>
<path d="M17.1516 11.2469L17.7892 12.0243L17.3376 12.4008L17.1516 11.2469Z" fill="white"/>
<path d="M17.2852 13.1438L17.8083 12.2852L17.3087 11.9752L17.2852 13.1438Z" fill="white"/>
<path d="M17.2851 13.1438L17.2263 12.1402L17.813 12.101L17.2851 13.1438Z" fill="white"/>
<path d="M16.5299 12.2436L17.5081 12.4758L17.6485 11.9048L16.5299 12.2436Z" fill="white"/>
<path d="M16.5297 12.2435L17.4661 11.8774L17.6846 12.4233L16.5297 12.2435Z" fill="white"/>
<path d="M19.7158 13.9966L18.7115 14.0431L18.7339 14.6306L19.7158 13.9966Z" fill="white"/>
<path d="M19.7158 13.9965L18.9166 14.6065L18.5561 14.142L19.7158 13.9965Z" fill="white"/>
<path d="M19.3916 15.1263L19.0371 14.1855L18.4852 14.3883L19.3916 15.1263Z" fill="white"/>
<path d="M19.3916 15.1262L18.5645 14.5546L18.8948 14.0682L19.3916 15.1262Z" fill="white"/>
<path d="M18.7421 13.3394L18.4759 14.3089L19.0416 14.4692L18.7421 13.3394Z" fill="white"/>
<path d="M18.7423 13.3393L19.0755 14.2879L18.5223 14.4873L18.7423 13.3393Z" fill="white"/>
<path d="M18.2182 15.167L19.0034 14.5392L18.6399 14.077L18.2182 15.167Z" fill="white"/>
<path d="M18.2183 15.167L18.5063 14.2037L19.071 14.3676L18.2183 15.167Z" fill="white"/>
<path d="M17.8161 14.0628L18.6558 14.6156L18.9831 14.1271L17.8161 14.0628Z" fill="white"/>
<path d="M17.8158 14.0629L18.8209 14.0392L18.8396 14.6269L17.8158 14.0629Z" fill="white"/>
<path d="M4.31155 13.9965L5.11074 14.6065L5.47127 14.142L4.31155 13.9965Z" fill="white"/>
<path d="M4.3115 13.9966L5.31582 14.0431L5.29344 14.6306L4.3115 13.9966Z" fill="white"/>
<path d="M5.28603 13.3393L4.95284 14.2879L5.506 14.4873L5.28603 13.3393Z" fill="white"/>
<path d="M5.28624 13.3394L5.55245 14.3089L4.98673 14.4692L5.28624 13.3394Z" fill="white"/>
<path d="M4.63576 15.1262L5.46287 14.5546L5.13254 14.0682L4.63576 15.1262Z" fill="white"/>
<path d="M4.63572 15.1263L4.99022 14.1855L5.54211 14.3883L4.63572 15.1263Z" fill="white"/>
<path d="M6.21254 14.0629L5.20743 14.0392L5.18877 14.6269L6.21254 14.0629Z" fill="white"/>
<path d="M6.21226 14.0628L5.37247 14.6156L5.04522 14.1271L6.21226 14.0628Z" fill="white"/>
<path d="M5.81096 15.1672L5.52295 14.2039L4.95826 14.3678L5.81096 15.1672Z" fill="white"/>
<path d="M5.81111 15.1673L5.02588 14.5394L5.38935 14.0772L5.81111 15.1673Z" fill="white"/>
<path d="M5.73475 11.5313L6.27711 12.3778L6.77476 12.0647L5.73475 11.5313Z" fill="white"/>
<path d="M5.73497 11.5312L6.66285 11.9183L6.44086 12.4628L5.73497 11.5312Z" fill="white"/>
<path d="M6.87473 11.2469L6.2372 12.0243L6.68882 12.4008L6.87473 11.2469Z" fill="white"/>
<path d="M6.8743 11.2468L6.79286 12.2489L6.20644 12.206L6.8743 11.2468Z" fill="white"/>
<path d="M5.65359 12.7034L6.62631 12.4492L6.48226 11.8792L5.65359 12.7034Z" fill="white"/>
<path d="M5.65403 12.7035L6.30893 11.9407L6.75815 12.3201L5.65403 12.7035Z" fill="white"/>
<path d="M7.49764 12.2435L6.56127 11.8774L6.34273 12.4233L7.49764 12.2435Z" fill="white"/>
<path d="M7.49748 12.2436L6.51928 12.4758L6.37883 11.9048L7.49748 12.2436Z" fill="white"/>
<path d="M6.74223 13.1436L6.80105 12.1399L6.21437 12.1008L6.74223 13.1436Z" fill="white"/>
<path d="M6.74215 13.1435L6.21902 12.2849L6.71864 11.9749L6.74215 13.1435Z" fill="white"/>
<path d="M7.91596 9.70138L8.13606 10.6824L8.71081 10.5583L7.91596 9.70138Z" fill="white"/>
<path d="M7.91608 9.70146L8.65559 10.3826L8.26077 10.8183L7.91608 9.70146Z" fill="white"/>
<path d="M9.08418 9.8242L8.21921 10.3367L8.51482 10.845L9.08418 9.8242Z" fill="white"/>
<path d="M9.08378 9.82424L8.66453 10.738L8.12813 10.4972L9.08378 9.82424Z" fill="white"/>
<path d="M7.43863 10.775L8.43963 10.8688L8.49924 10.2839L7.43863 10.775Z" fill="white"/>
<path d="M7.43833 10.775L8.31463 10.2822L8.60701 10.7923L7.43833 10.775Z" fill="white"/>
<path d="M9.3292 10.9737L8.57451 10.3094L8.18245 10.7476L9.3292 10.9737Z" fill="white"/>
<path d="M9.329 10.9736L8.33037 10.8572L8.39368 10.2727L9.329 10.9736Z" fill="white"/>
<path d="M8.31113 11.5612L8.70968 10.6382L8.17178 10.4007L8.31113 11.5612Z" fill="white"/>
<path d="M8.31094 11.5611L8.113 10.5754L8.68853 10.455L8.31094 11.5611Z" fill="white"/>
<path d="M10.5912 8.72771L10.4625 9.72483L11.0451 9.80482L10.5912 8.72771Z" fill="white"/>
<path d="M10.5914 8.72761L11.0534 9.62058L10.5333 9.89498L10.5914 8.72761Z" fill="white"/>
<path d="M11.6476 9.24281L10.6595 9.42854L10.7635 10.0073L11.6476 9.24281Z" fill="white"/>
<path d="M11.6473 9.24279L10.9408 9.95809L10.5191 9.5483L11.6473 9.24279Z" fill="white"/>
<path d="M9.77513 9.57315L10.6837 10.0037L10.9398 9.47438L9.77513 9.57315Z" fill="white"/>
<path d="M9.77467 9.57309L10.7667 9.40968L10.867 9.98905L9.77467 9.57309Z" fill="white"/>
<path d="M11.4841 10.4066L11.0021 9.52431L10.4838 9.80199L11.4841 10.4066Z" fill="white"/>
<path d="M11.4837 10.4066L10.5851 9.9557L10.8445 9.42804L11.4837 10.4066Z" fill="white"/>
<path d="M10.3271 10.6107L11.0174 9.87968L10.5931 9.47257L10.3271 10.6107Z" fill="white"/>
<path d="M10.3272 10.6107L10.4783 9.61674L11.0603 9.70042L10.3272 10.6107Z" fill="white"/>
</g>
<defs>
<clipPath id="clip0_208_27358">
<rect width="24" height="24" rx="12" fill="white"/>
</clipPath>
</defs>
</svg>
