<svg width="24" height="24" viewBox="0 0 24 24" fill="none" xmlns="http://www.w3.org/2000/svg">
<g clip-path="url(#clip0_208_20887)">
<path d="M0 0H24V24H0V0Z" fill="#4997D0"/>
<path d="M8.00195 0H15.9988V24H8.00195V0Z" fill="white"/>
<path d="M11.3025 13.9374C11.37 13.9274 11.4075 13.9074 11.4525 13.8924M11.51 13.7924C11.5429 13.825 11.5685 13.8642 11.585 13.9074M11.3825 13.7799C11.4133 13.8105 11.4386 13.8459 11.4575 13.8849M10.22 10.4699C10.195 10.5099 10.1425 10.5374 10.1 10.5549M10.0925 10.5499C10.0925 10.5149 10.085 10.4749 10.0925 10.4399M10.0425 10.5649L10.06 10.6149M10.11 10.6399L10.06 10.6474M9.96004 10.6249C9.96004 10.6899 9.97004 10.7649 9.97504 10.8224M9.93004 10.7974C9.93991 10.8159 9.95354 10.8321 9.97004 10.8449M9.85504 11.0049C9.86754 11.0299 9.88004 11.0599 9.88754 11.1049M9.98004 10.9899L9.93004 11.0274M9.97254 11.1374C9.94754 11.1599 9.91754 11.1749 9.88504 11.1899M9.79004 12.1999C9.81543 12.2452 9.8494 12.2851 9.89004 12.3174M9.90504 12.3599C9.87862 12.3567 9.85313 12.3482 9.83004 12.3349M9.94004 12.5474L9.98254 12.5724M9.97254 12.6574C10.0025 12.6774 10.035 12.7149 10.065 12.7549M10.03 12.8249C10.065 12.8324 10.0925 12.8424 10.11 12.8499M10.085 12.9124H10.135M10.1675 12.7799L10.155 12.8849M10.18 12.9249L10.19 12.8849M10.3075 13.0349L10.305 13.1149M11.285 13.8149L11.255 13.8524M11.195 13.7524L11.1775 13.7099" stroke="#24420E" stroke-width="0.0266665"/>
<path d="M12.1522 14.1249C12.1322 14.0924 12.1022 14.0724 12.0697 14.0574C11.8772 13.9574 11.6847 13.9099 11.4697 13.8749C11.4172 13.8674 11.3672 13.8199 11.3147 13.7949C11.1897 13.7374 11.0522 13.7149 10.9322 13.6524C10.9136 13.6427 10.8967 13.63 10.8822 13.6149C10.8322 13.5599 10.7447 13.5424 10.6922 13.4899C10.4822 13.2949 10.2622 13.1149 10.1472 12.8524C10.0072 12.5349 9.83467 12.2074 9.85717 11.8449C9.87217 11.6199 9.83967 11.3874 9.89467 11.1699C9.97967 10.8474 10.0847 10.5299 10.2797 10.2625L10.2472 10.2825C10.0619 10.5575 9.93122 10.8656 9.86217 11.1899C9.80467 11.4074 9.83717 11.6399 9.82467 11.8649C9.79967 12.2274 9.97467 12.5549 10.1122 12.8724C10.2272 13.1324 10.4497 13.3149 10.6572 13.5124C10.7122 13.5624 10.7972 13.5799 10.8472 13.6374C10.8622 13.652 10.879 13.6646 10.8972 13.6749C11.0197 13.7349 11.1572 13.7574 11.2822 13.8174C11.3322 13.8424 11.3822 13.8874 11.4322 13.8949C11.6426 13.9217 11.847 13.9834 12.0372 14.0774C12.07 14.0914 12.0984 14.1138 12.1197 14.1424L12.1522 14.1224" fill="#406325"/>
<path d="M12.1522 14.1249C12.1322 14.0924 12.1022 14.0724 12.0697 14.0574C11.8772 13.9574 11.6847 13.9099 11.4697 13.8749C11.4172 13.8674 11.3672 13.8199 11.3147 13.7949C11.1897 13.7374 11.0522 13.7149 10.9322 13.6524C10.9136 13.6427 10.8967 13.63 10.8822 13.6149C10.8322 13.5599 10.7447 13.5424 10.6922 13.4899C10.4822 13.2949 10.2622 13.1149 10.1472 12.8524C10.0072 12.5349 9.83467 12.2074 9.85717 11.8449C9.87217 11.6199 9.83967 11.3874 9.89467 11.1699C9.97967 10.8474 10.0847 10.5299 10.2797 10.2625L10.2472 10.2825C10.0619 10.5575 9.93122 10.8656 9.86217 11.1899C9.80467 11.4074 9.83717 11.6399 9.82467 11.8649C9.79967 12.2274 9.97467 12.5549 10.1122 12.8724C10.2272 13.1324 10.4497 13.3149 10.6572 13.5124C10.7122 13.5624 10.7972 13.5799 10.8472 13.6374C10.8622 13.652 10.879 13.6646 10.8972 13.6749C11.0197 13.7349 11.1572 13.7574 11.2822 13.8174C11.3322 13.8424 11.3822 13.8874 11.4322 13.8949C11.6426 13.9217 11.847 13.9834 12.0372 14.0774C12.07 14.0914 12.0984 14.1138 12.1197 14.1424L12.1522 14.1224" stroke="#24420E" stroke-width="0.0133332"/>
<path d="M10.1571 12.7899C10.1056 12.5977 10.1039 12.3955 10.1521 12.2024C10.3196 12.5274 10.2646 12.7949 10.1571 12.7899ZM11.3046 13.9249C11.1271 13.9349 10.7896 14.1574 10.7571 14.2099C11.1346 14.2124 11.3571 14.0274 11.3046 13.9249ZM11.4921 13.8174C11.3213 13.6297 11.2009 13.4018 11.1421 13.1549C11.5171 13.4249 11.6146 13.7624 11.4921 13.8174Z" fill="#67923D" stroke="#24420E" stroke-width="0.0133332"/>
<path d="M11.3642 13.82C11.1843 13.6673 11.0465 13.4711 10.9642 13.25C11.3467 13.455 11.4717 13.755 11.3642 13.82ZM10.9742 13.65C10.9992 13.455 10.8342 13.045 10.7867 13C10.7117 13.4125 10.8617 13.69 10.9767 13.65H10.9742ZM10.2917 13.0425C10.2513 12.8692 10.2556 12.6886 10.3042 12.5175C10.4417 12.81 10.3867 13.0475 10.2917 13.0425ZM9.94922 11.125C10.0861 10.9479 10.2671 10.8099 10.4742 10.725C10.3067 11.09 10.0242 11.2225 9.94922 11.125Z" fill="#67923D" stroke="#24420E" stroke-width="0.0133332"/>
<path d="M9.96707 10.9824C10.0661 10.7808 10.2161 10.6084 10.4021 10.4824C10.3096 10.8749 10.0596 11.0624 9.96707 10.9824ZM10.6646 13.4624C10.5396 13.3074 10.4646 12.8649 10.4821 12.8024C10.7621 13.1149 10.7821 13.4324 10.6621 13.4624H10.6646ZM9.94707 12.5499C9.77207 12.5774 9.41207 12.4349 9.37207 12.3924C9.73707 12.3124 9.98207 12.4424 9.94707 12.5499ZM9.89207 12.3074C9.91207 12.1699 10.1071 11.9124 10.1496 11.8924C10.1246 12.1924 9.96457 12.3574 9.89207 12.3074ZM11.1746 13.7749C10.9311 13.8293 10.7061 13.9465 10.5221 14.1149C10.9721 14.1174 11.2396 13.8974 11.1746 13.7749Z" fill="#67923D" stroke="#24420E" stroke-width="0.0133332"/>
<path d="M10.1593 12.7874C10.2643 12.7924 10.3193 12.5275 10.1518 12.2025C10.1834 12.396 10.1859 12.5932 10.1593 12.7874ZM10.4393 13.2874C10.2851 13.1496 10.0985 13.0533 9.89683 13.0074C10.1193 13.3099 10.3943 13.3849 10.4393 13.2874ZM9.82933 11.9625C9.7582 11.7346 9.63097 11.5283 9.45934 11.3625C9.49684 11.7925 9.72433 12.03 9.82933 11.9625ZM10.0393 12.8199C9.91433 12.7274 9.56434 12.6849 9.51434 12.7024C9.76933 12.9074 10.0193 12.9124 10.0393 12.8199ZM9.80433 12.1975C9.69603 12.0482 9.55031 11.93 9.38184 11.855C9.51934 12.165 9.74683 12.28 9.80433 12.1975ZM9.87183 11.01C9.89683 10.82 9.73433 10.425 9.68933 10.38C9.61683 10.78 9.76183 11.0475 9.87183 11.01ZM9.98433 10.635C10.0324 10.4347 10.028 10.2255 9.97183 10.0275C9.81183 10.365 9.87683 10.6425 9.98433 10.6375V10.635Z" fill="#406325" stroke="#24420E" stroke-width="0.0133332"/>
<path d="M10.1099 10.4449C10.1789 10.293 10.209 10.1263 10.1974 9.95992C10.0174 10.2024 10.0224 10.4324 10.1099 10.4449ZM10.2599 10.2924C10.3708 10.169 10.4483 10.0192 10.4849 9.85742C10.2424 10.0324 10.1799 10.2524 10.2599 10.2924ZM9.85992 11.3724C9.85992 11.3949 9.83492 11.1674 9.60742 10.9149C9.61742 11.2849 9.76242 11.4249 9.85742 11.3724H9.85992ZM10.6724 13.5174C10.4735 13.4137 10.2516 13.3621 10.0274 13.3674C10.3424 13.6274 10.6499 13.6324 10.6724 13.5174ZM10.9724 13.6474C10.8599 13.6874 10.7124 13.4124 10.7849 12.9999C10.8174 13.2241 10.8805 13.4428 10.9724 13.6499V13.6474ZM11.3074 13.9274C11.3574 14.0274 11.1374 14.2124 10.7624 14.2099C11.0624 14.0849 11.2924 13.9624 11.3049 13.9274H11.3074ZM11.4899 13.8149C11.6149 13.7574 11.5174 13.4274 11.1399 13.1549C11.3549 13.4849 11.5024 13.7699 11.4899 13.8149Z" fill="#406325" stroke="#24420E" stroke-width="0.0133332"/>
<path d="M11.3642 13.8175C11.4692 13.75 11.3467 13.455 10.9642 13.25C11.2017 13.53 11.3692 13.775 11.3642 13.8175ZM10.2942 13.0425C10.3867 13.0475 10.4442 12.81 10.3067 12.5175C10.3242 12.7925 10.3167 13.0175 10.2942 13.0425ZM9.94922 11.1225C10.0242 11.2225 10.2992 11.09 10.4717 10.725C10.3179 10.883 10.1419 11.0178 9.94922 11.125V11.1225Z" fill="#406325" stroke="#24420E" stroke-width="0.0133332"/>
<path d="M9.97207 10.9824C10.0621 11.0624 10.3096 10.8749 10.4021 10.4824C10.2021 10.7649 10.0121 10.9774 9.97207 10.9824ZM10.6646 13.4599C10.7821 13.4324 10.7646 13.1149 10.4821 12.8024C10.6071 13.1399 10.6821 13.4224 10.6646 13.4599ZM9.94207 12.5499C9.97707 12.4424 9.73457 12.3149 9.37207 12.3924C9.67957 12.4474 9.92207 12.5174 9.94207 12.5499ZM9.89207 12.3074C9.96707 12.3574 10.1246 12.1924 10.1521 11.8924C10.0864 12.0423 9.9997 12.182 9.89457 12.3074H9.89207ZM11.1746 13.7749C11.2396 13.8999 10.9746 14.1174 10.5246 14.1124C10.8796 13.9674 11.1571 13.8199 11.1746 13.7749Z" fill="#406325" stroke="#24420E" stroke-width="0.0133332"/>
<path d="M9.98457 12.6574C9.87979 12.491 9.73327 12.3548 9.55957 12.2625C9.68457 12.6024 9.91457 12.7399 9.98457 12.6574Z" fill="#406325" stroke="#24420E" stroke-width="0.0133332"/>
<path d="M9.80933 11.3499C9.90933 11.2324 10.2468 11.1199 10.2993 11.1249C10.0993 11.3874 9.84933 11.4399 9.80933 11.3499ZM10.4343 13.2874C10.3918 13.3874 10.1193 13.3124 9.89433 13.0099C10.0609 13.128 10.2436 13.2215 10.4368 13.2874H10.4343ZM9.82683 11.9624C9.72183 12.0299 9.49934 11.7924 9.45934 11.3624C9.62433 11.6949 9.78433 11.9499 9.82683 11.9624ZM10.0368 12.8199C10.0193 12.9124 9.76933 12.9099 9.51684 12.7024C9.68365 12.7663 9.85877 12.8058 10.0368 12.8199ZM9.80183 12.1949C9.74183 12.2774 9.51934 12.1649 9.38184 11.8549C9.58683 12.0549 9.76933 12.1974 9.80183 12.1949ZM9.86933 11.0074C9.75933 11.0474 9.61683 10.7824 9.68683 10.3824C9.75433 10.7199 9.83683 10.9874 9.86933 11.0074ZM9.98183 10.6349C9.87433 10.6424 9.80933 10.3649 9.96933 10.0274C9.94933 10.3474 9.95683 10.6074 9.98183 10.6349ZM10.1068 10.4449C10.0218 10.4299 10.0143 10.2024 10.1968 9.95992C10.1428 10.1162 10.1124 10.2797 10.1068 10.4449ZM10.2568 10.2924C10.1793 10.2499 10.2393 10.0324 10.4818 9.85742C10.3857 9.99046 10.3098 10.1371 10.2568 10.2924Z" fill="#67923D" stroke="#24420E" stroke-width="0.0133332"/>
<path d="M9.85664 11.3724C9.75914 11.4249 9.61664 11.2849 9.60664 10.9149C9.73164 11.2074 9.82164 11.3599 9.85664 11.3724ZM10.6691 13.5174C10.6466 13.6324 10.3416 13.6274 10.0266 13.3699C10.3566 13.4774 10.6341 13.5374 10.6691 13.5174ZM10.4641 13.2799C10.3698 13.1363 10.313 12.9712 10.2991 12.7999C10.5241 13.0174 10.5541 13.2524 10.4691 13.2799H10.4641ZM10.0441 12.6549C9.96851 12.4733 9.94263 12.2748 9.96914 12.0799C10.1766 12.3774 10.1516 12.6474 10.0441 12.6549ZM9.97664 12.6574C9.90914 12.7399 9.67914 12.6049 9.55664 12.2624C9.67624 12.4142 9.81779 12.5473 9.97664 12.6574Z" fill="#67923D" stroke="#24420E" stroke-width="0.0133332"/>
<path d="M9.80957 11.3499C9.84957 11.4399 10.0946 11.3874 10.2971 11.1274C9.99707 11.2974 9.87957 11.3724 9.80957 11.3499ZM10.0421 12.6499C10.1496 12.6424 10.1746 12.3749 9.96707 12.0799C10.0224 12.2656 10.0477 12.4588 10.0421 12.6524V12.6499ZM10.4671 13.2799C10.5521 13.2549 10.5221 13.0174 10.2996 12.7999C10.4096 13.0424 10.4796 13.2499 10.4671 13.2799Z" fill="#406325" stroke="#24420E" stroke-width="0.0133332"/>
<path d="M9.85463 11.7949C9.88905 11.5756 9.85133 11.351 9.74713 11.1549C9.62963 11.5399 9.74213 11.8199 9.85463 11.7949Z" fill="#406325" stroke="#24420E" stroke-width="0.0133332"/>
<path d="M9.84992 11.8449C9.69992 11.8774 9.63242 11.5449 9.74742 11.1674C9.77242 11.5049 9.81742 11.8199 9.84742 11.8424L9.84992 11.8449Z" fill="#67923D" stroke="#24420E" stroke-width="0.0133332"/>
<path d="M9.81738 11.8423C9.83933 11.6209 9.91671 11.4085 10.0424 11.2249C10.0924 11.6199 9.92988 11.8823 9.81738 11.8423Z" fill="#67923D" stroke="#24420E" stroke-width="0.0133332"/>
<path d="M9.81934 11.8398C9.92934 11.8798 10.0918 11.6199 10.0418 11.2249C9.95434 11.5574 9.85434 11.8198 9.81934 11.8398Z" fill="#406325" stroke="#24420E" stroke-width="0.0133332"/>
<path d="M9.85254 12.0824C9.88716 11.865 9.97858 11.6606 10.1175 11.4899C10.1375 11.8949 9.96004 12.1374 9.85254 12.0824Z" fill="#67923D" stroke="#24420E" stroke-width="0.0133332"/>
<path d="M9.85449 12.0849C9.95949 12.1399 10.137 11.9024 10.117 11.4974C10.007 11.8174 9.89199 12.0699 9.85449 12.0849Z" fill="#406325" stroke="#24420E" stroke-width="0.0133332"/>
<path d="M9.9191 10.8099C9.93429 10.8099 9.9466 10.7976 9.9466 10.7824C9.9466 10.7672 9.93429 10.7549 9.9191 10.7549C9.90391 10.7549 9.8916 10.7672 9.8916 10.7824C9.8916 10.7976 9.90391 10.8099 9.9191 10.8099Z" fill="#BA1F3E" stroke="#511124" stroke-width="0.0133332"/>
<path d="M10.1291 10.6549C10.1443 10.6549 10.1566 10.6425 10.1566 10.6274C10.1566 10.6122 10.1443 10.5999 10.1291 10.5999C10.1139 10.5999 10.1016 10.6122 10.1016 10.6274C10.1016 10.6425 10.1139 10.6549 10.1291 10.6549Z" fill="#BA1F3E" stroke="#511124" stroke-width="0.0133332"/>
<path d="M10.0392 10.5699C10.0544 10.5699 10.0667 10.5576 10.0667 10.5424C10.0667 10.5272 10.0544 10.5149 10.0392 10.5149C10.024 10.5149 10.0117 10.5272 10.0117 10.5424C10.0117 10.5576 10.024 10.5699 10.0392 10.5699Z" fill="#BA1F3E" stroke="#511124" stroke-width="0.0133332"/>
<path d="M9.8118 12.3599C9.82975 12.3599 9.8443 12.3454 9.8443 12.3274C9.8443 12.3095 9.82975 12.2949 9.8118 12.2949C9.79385 12.2949 9.7793 12.3095 9.7793 12.3274C9.7793 12.3454 9.79385 12.3599 9.8118 12.3599Z" fill="#BA1F3E" stroke="#511124" stroke-width="0.0133332"/>
<path d="M9.8743 11.9599C9.89225 11.9599 9.9068 11.9453 9.9068 11.9274C9.9068 11.9094 9.89225 11.8949 9.8743 11.8949C9.85635 11.8949 9.8418 11.9094 9.8418 11.9274C9.8418 11.9453 9.85635 11.9599 9.8743 11.9599Z" fill="#BA1F3E" stroke="#511124" stroke-width="0.0133332"/>
<path d="M10.2044 12.8948C10.2223 12.8948 10.2369 12.8803 10.2369 12.8623C10.2369 12.8444 10.2223 12.8298 10.2044 12.8298C10.1864 12.8298 10.1719 12.8444 10.1719 12.8623C10.1719 12.8803 10.1864 12.8948 10.2044 12.8948Z" fill="#BA1F3E" stroke="#511124" stroke-width="0.0133332"/>
<path d="M10.0589 12.9423C10.0768 12.9423 10.0914 12.9278 10.0914 12.9098C10.0914 12.8919 10.0768 12.8773 10.0589 12.8773C10.0409 12.8773 10.0264 12.8919 10.0264 12.9098C10.0264 12.9278 10.0409 12.9423 10.0589 12.9423Z" fill="#BA1F3E" stroke="#511124" stroke-width="0.0133332"/>
<path d="M11.1673 13.7223C11.1852 13.7223 11.1998 13.7078 11.1998 13.6898C11.1998 13.6719 11.1852 13.6573 11.1673 13.6573C11.1493 13.6573 11.1348 13.6719 11.1348 13.6898C11.1348 13.7078 11.1493 13.7223 11.1673 13.7223Z" fill="#BA1F3E" stroke="#511124" stroke-width="0.0133332"/>
<path d="M11.2395 13.8998C11.2575 13.8998 11.272 13.8853 11.272 13.8673C11.272 13.8494 11.2575 13.8348 11.2395 13.8348C11.2216 13.8348 11.207 13.8494 11.207 13.8673C11.207 13.8853 11.2216 13.8998 11.2395 13.8998Z" fill="#BA1F3E" stroke="#511124" stroke-width="0.0133332"/>
<path d="M14.0269 10.975C14.0444 10.99 14.0569 10.995 14.0844 11.0225M13.9194 10.5475C13.9194 10.515 13.9044 10.4575 13.8969 10.4225M13.9844 10.4975C13.9844 10.5475 13.9769 10.5925 13.9569 10.635M13.8519 10.6225C13.8969 10.6625 13.9394 10.6975 13.9844 10.72M14.0794 10.75C14.0819 10.8 14.0769 10.85 14.0619 10.9M14.0719 10.9375L14.1044 10.88M14.0569 11.185C14.0919 11.1925 14.1269 11.235 14.1444 11.2725M14.1569 11.24L14.1969 11.185M14.2394 11.955C14.222 11.985 14.2019 12.0134 14.1794 12.04M14.0794 12.04C14.0994 12.075 14.1194 12.115 14.1444 12.14M14.2069 12.2875C14.1776 12.329 14.1391 12.3633 14.0944 12.3875M14.0994 12.5C14.0719 12.52 14.0369 12.575 14.0069 12.6175M14.2169 12.1125L14.1644 12.135M14.1294 11.9475L14.1619 11.975M13.9294 12.91H13.8744M13.8244 12.865L13.8419 12.905M13.6469 13.0325C13.6419 13.08 13.6469 13.125 13.6519 13.1725M13.7594 12.9475L13.7844 13.0025M13.8819 12.9975L13.8194 13.01M13.0469 13.64L13.0219 13.685M13.3219 13.585C13.2844 13.59 13.2519 13.585 13.2194 13.58M13.0819 13.73C13.0575 13.7202 13.0324 13.7118 13.0069 13.705M12.642 13.7725C12.617 13.79 12.592 13.8325 12.5645 13.8725M12.5495 13.76C12.4895 13.7925 12.472 13.8525 12.4395 13.905M12.5095 13.9775C12.4644 13.9632 12.4202 13.9465 12.377 13.9275M12.7945 13.9075C12.737 13.8775 12.677 13.8825 12.617 13.8725M12.8869 13.8625C12.7945 13.845 12.712 13.8475 12.6295 13.86M12.8245 13.795L12.7895 13.78M12.6495 13.9175L12.592 13.885M14.0419 12.655C14.0094 12.675 13.9769 12.7125 13.9469 12.7525M13.9919 10.7625L13.9394 10.7425" stroke="#24420E" stroke-width="0.0266665"/>
<path d="M11.8594 14.1225C11.8803 14.0929 11.9088 14.0696 11.9419 14.055C12.1344 13.955 12.3269 13.91 12.5419 13.875C12.5944 13.865 12.6444 13.8175 12.6969 13.795C12.8219 13.735 12.9594 13.7125 13.0794 13.6525C13.0981 13.642 13.115 13.6285 13.1294 13.6125C13.1794 13.5575 13.2669 13.54 13.3194 13.4875C13.5294 13.2925 13.7494 13.1125 13.8644 12.85C14.0044 12.5325 14.1769 12.205 14.1544 11.845C14.1394 11.615 14.1719 11.385 14.1169 11.17C14.0474 10.845 13.9168 10.5362 13.7319 10.26L13.7644 10.28C13.9495 10.5551 14.0802 10.8632 14.1494 11.1875C14.2069 11.405 14.1744 11.6375 14.1869 11.865C14.2119 12.225 14.0369 12.5525 13.8994 12.8725C13.7844 13.1325 13.5619 13.3125 13.3544 13.51C13.2994 13.56 13.2144 13.5775 13.1644 13.635C13.1493 13.6495 13.1325 13.6621 13.1144 13.6725C12.9919 13.735 12.8544 13.7575 12.7294 13.815C12.6794 13.84 12.6294 13.885 12.5794 13.895C12.3691 13.921 12.1647 13.9818 11.9744 14.075C11.9413 14.0896 11.9128 14.1129 11.8919 14.1425L11.8594 14.12" fill="#406325"/>
<path d="M11.8594 14.1225C11.8803 14.0929 11.9088 14.0696 11.9419 14.055C12.1344 13.955 12.3269 13.91 12.5419 13.875C12.5944 13.865 12.6444 13.8175 12.6969 13.795C12.8219 13.735 12.9594 13.7125 13.0794 13.6525C13.0981 13.642 13.115 13.6285 13.1294 13.6125C13.1794 13.5575 13.2669 13.54 13.3194 13.4875C13.5294 13.2925 13.7494 13.1125 13.8644 12.85C14.0044 12.5325 14.1769 12.205 14.1544 11.845C14.1394 11.615 14.1719 11.385 14.1169 11.17C14.0474 10.845 13.9168 10.5362 13.7319 10.26L13.7644 10.28C13.9495 10.5551 14.0802 10.8632 14.1494 11.1875C14.2069 11.405 14.1744 11.6375 14.1869 11.865C14.2119 12.225 14.0369 12.5525 13.8994 12.8725C13.7844 13.1325 13.5619 13.3125 13.3544 13.51C13.2994 13.56 13.2144 13.5775 13.1644 13.635C13.1493 13.6495 13.1325 13.6621 13.1144 13.6725C12.9919 13.735 12.8544 13.7575 12.7294 13.815C12.6794 13.84 12.6294 13.885 12.5794 13.895C12.3691 13.921 12.1647 13.9818 11.9744 14.075C11.9413 14.0896 11.9128 14.1129 11.8919 14.1425L11.8594 14.12" stroke="#24420E" stroke-width="0.0133332"/>
<path d="M13.8396 12.8649C13.9096 12.6799 13.8396 12.2449 13.8046 12.1899C13.6371 12.5749 13.7196 12.8799 13.8396 12.8649Z" fill="#406325" stroke="#24420E" stroke-width="0.0133332"/>
<path d="M13.6623 13.0399C13.7198 12.8999 13.6773 12.5574 13.6523 12.5149C13.5123 12.8074 13.5698 13.0474 13.6623 13.0399ZM14.0823 11.1874C13.9568 11.026 13.7914 10.9002 13.6023 10.8224C13.7573 11.1549 14.0148 11.2774 14.0823 11.1874Z" fill="#406325" stroke="#24420E" stroke-width="0.0133332"/>
<path d="M14.0441 10.9874C13.9615 10.8192 13.8366 10.6754 13.6816 10.5699C13.7566 10.8949 13.9666 11.0524 14.0441 10.9874ZM14.1616 11.3624C14.0741 11.2599 13.7816 11.1624 13.7366 11.1674C13.9116 11.3924 14.1266 11.4399 14.1616 11.3599V11.3624ZM14.0916 12.5199C14.2705 12.5187 14.4458 12.4695 14.5991 12.3774C14.2766 12.3074 14.0616 12.4249 14.0916 12.5199ZM14.0891 12.3774C14.0891 12.2374 13.9291 11.9574 13.8891 11.9274C13.8741 12.2274 14.0091 12.4149 14.0891 12.3774Z" fill="#406325" stroke="#24420E" stroke-width="0.0133332"/>
<path d="M14.0994 12.0349C14.0644 11.8184 13.973 11.615 13.8344 11.4449C13.8144 11.8499 13.9919 12.0899 14.0994 12.0349ZM12.7744 13.9174C12.932 14.0564 13.1234 14.1512 13.3294 14.1924C13.1094 13.8849 12.8269 13.8149 12.7769 13.9174H12.7744Z" fill="#406325" stroke="#24420E" stroke-width="0.0133332"/>
<path d="M13.8393 12.86C13.7168 12.875 13.6368 12.575 13.8043 12.19C13.7918 12.545 13.8093 12.8325 13.8393 12.86ZM12.5043 13.9525C12.7077 13.9985 12.8955 14.0967 13.0493 14.2375C12.6743 14.24 12.4493 14.055 12.5043 13.9525ZM12.5043 13.7525C12.5543 13.5525 12.8793 13.2225 12.9418 13.2C12.8518 13.6275 12.5993 13.8375 12.5043 13.755V13.7525ZM13.0368 13.6475C13.0118 13.4525 13.1768 13.0425 13.2243 12.9975C13.2993 13.41 13.1493 13.6875 13.0368 13.6475ZM13.5718 13.285C13.726 13.1472 13.9127 13.0508 14.1143 13.005C13.8918 13.3075 13.6168 13.3825 13.5718 13.285ZM14.2168 11.9525C14.2418 11.795 14.4593 11.505 14.5068 11.48C14.4768 11.82 14.2993 12.005 14.2168 11.955V11.9525Z" fill="#67923D" stroke="#24420E" stroke-width="0.0133332"/>
<path d="M13.9245 12.9049C14.113 12.8086 14.3228 12.7613 14.5345 12.7674C14.2395 13.0099 13.947 13.0124 13.9245 12.9049ZM14.182 12.2924C14.2953 12.1356 14.4479 12.0114 14.6245 11.9324C14.4795 12.2574 14.242 12.3774 14.182 12.2924ZM14.1445 11.1525C14.1445 10.9625 14.3445 10.585 14.3945 10.5475C14.422 10.95 14.252 11.2025 14.1445 11.1525ZM13.9695 10.5025C13.9278 10.3384 13.9278 10.1665 13.9695 10.0025C14.107 10.2775 14.062 10.5075 13.9695 10.5025ZM13.867 10.45C13.7349 10.2905 13.6447 10.1006 13.6045 9.89746C13.8995 10.13 13.9645 10.4075 13.8645 10.45H13.867Z" fill="#67923D" stroke="#24420E" stroke-width="0.0133332"/>
<path d="M14.1572 11.3124C14.1497 11.3349 14.2322 11.1199 14.5122 10.9299C14.4122 11.2874 14.2372 11.3874 14.1572 11.3124ZM13.3047 13.5624C13.4797 13.4324 13.9672 13.3699 14.0347 13.3924C13.6797 13.6874 13.3297 13.6924 13.3047 13.5599V13.5624ZM13.6622 13.0399C13.5697 13.0449 13.5122 12.8074 13.6497 12.5149C13.6322 12.7899 13.6397 13.0149 13.6622 13.0399ZM14.0847 11.1899C14.0172 11.2774 13.7597 11.1574 13.6047 10.8224C13.745 10.968 13.9069 11.0911 14.0847 11.1874V11.1899ZM14.0422 10.9874C13.9647 11.0524 13.7597 10.8974 13.6822 10.5699C13.8497 10.8049 14.0072 10.9824 14.0422 10.9874ZM14.1622 11.3624C14.1272 11.4424 13.9147 11.3949 13.7397 11.1699C13.9997 11.3174 14.1022 11.3824 14.1647 11.3624H14.1622ZM14.0972 12.5174C14.0647 12.4249 14.2797 12.3099 14.6022 12.3799C14.4278 12.3998 14.2575 12.4462 14.0972 12.5174ZM14.0872 12.3774C14.0072 12.4149 13.8747 12.2299 13.8872 11.9299C13.9318 12.0888 13.9992 12.2404 14.0872 12.3799V12.3774Z" fill="#67923D" stroke="#24420E" stroke-width="0.0133332"/>
<path d="M14.0968 12.0399C13.9918 12.0949 13.8143 11.8549 13.8343 11.4524C13.9443 11.7724 14.0593 12.0249 14.0968 12.0399ZM12.7793 13.9149C12.8293 13.8149 13.1068 13.8824 13.3293 14.1899C13.1612 14.0705 12.9757 13.9778 12.7793 13.9149Z" fill="#67923D" stroke="#24420E" stroke-width="0.0133332"/>
<path d="M13.0371 13.6449C13.1521 13.6849 13.2996 13.4099 13.2271 12.9974C13.1571 13.3474 13.0721 13.6249 13.0371 13.6474V13.6449Z" fill="#406325" stroke="#24420E" stroke-width="0.0133332"/>
<path d="M13.2947 13.5149C13.3894 13.3032 13.4289 13.071 13.4097 12.8399C13.1597 13.1799 13.1747 13.4974 13.2947 13.5149ZM12.5022 13.9499C12.4522 14.0524 12.6697 14.2374 13.0472 14.2324C12.8521 14.1668 12.6683 14.0715 12.5022 13.9499ZM12.5072 13.7499C12.6022 13.8324 12.8522 13.6249 12.9422 13.1974C12.7397 13.5074 12.5497 13.7424 12.5072 13.7474V13.7499ZM13.5747 13.2824C13.6197 13.3824 13.8922 13.3074 14.1172 13.0049C13.9507 13.1232 13.768 13.2166 13.5747 13.2824ZM14.2197 11.9499C14.3022 12.0024 14.4772 11.8174 14.5072 11.48C14.4352 11.65 14.3383 11.8084 14.2197 11.9499ZM13.9247 12.9049C13.9472 13.0149 14.2347 13.0099 14.5322 12.7674C14.2197 12.8674 13.9572 12.9224 13.9247 12.9049ZM14.1822 12.2899C14.2447 12.3749 14.4797 12.2549 14.6247 11.9299C14.4964 12.0718 14.3472 12.1932 14.1822 12.2899ZM14.1497 11.15C14.2572 11.2 14.4247 10.95 14.3997 10.55C14.2947 10.875 14.1872 11.1325 14.1497 11.15ZM13.9747 10.5025C14.0647 10.505 14.1122 10.2775 13.9747 10.0025C13.9972 10.265 13.9947 10.48 13.9747 10.5025ZM13.8697 10.4475C13.9697 10.405 13.9047 10.13 13.6097 9.89746C13.7233 10.0668 13.8109 10.2522 13.8697 10.4475ZM14.1597 11.315C14.2397 11.39 14.4147 11.29 14.5147 10.93C14.3197 11.1825 14.1972 11.31 14.1597 11.315ZM13.3097 13.5624C13.3347 13.6924 13.6822 13.6874 14.0347 13.3949C13.6622 13.5149 13.3497 13.5849 13.3097 13.5624Z" fill="#406325" stroke="#24420E" stroke-width="0.0133332"/>
<path d="M13.4774 13.3699C13.5493 13.2127 13.5803 13.0398 13.5674 12.8674C13.3799 13.1174 13.3874 13.3549 13.4774 13.3674V13.3699ZM13.9674 12.6524C14.043 12.4708 14.0689 12.2723 14.0424 12.0774C13.8349 12.3749 13.8599 12.6449 13.9674 12.6524Z" fill="#406325" stroke="#24420E" stroke-width="0.0133332"/>
<path d="M13.2939 13.5124C13.1739 13.4974 13.1614 13.1799 13.4064 12.8424C13.3164 13.1874 13.2714 13.4774 13.2939 13.5124ZM14.1739 11.8049C14.1489 11.6124 14.2739 11.3024 14.3389 11.2424C14.4014 11.6024 14.2714 11.8424 14.1714 11.8049H14.1739ZM13.4739 13.3674C13.3839 13.3549 13.3764 13.1174 13.5614 12.8674C13.5072 13.0287 13.4777 13.1973 13.4739 13.3674ZM14.0589 10.7624C14.0039 10.6124 14.0589 10.2624 14.0889 10.2174C14.2214 10.5224 14.1539 10.7699 14.0589 10.7624ZM12.6064 13.7649C12.6689 13.5649 13.0114 13.2399 13.0764 13.2174C12.9689 13.6524 12.7014 13.8549 12.6064 13.7674V13.7649ZM13.9689 12.7249C14.0737 12.5584 14.2202 12.4222 14.3939 12.3299C14.2689 12.6699 14.0364 12.8074 13.9689 12.7249ZM13.9664 12.6499C13.8589 12.6399 13.8339 12.3749 14.0414 12.0774C13.9861 12.263 13.9608 12.4563 13.9664 12.6499Z" fill="#67923D" stroke="#24420E" stroke-width="0.0133332"/>
<path d="M14.1748 11.8499C14.3048 11.8974 14.3998 11.6049 14.3398 11.2524C14.3105 11.4586 14.255 11.6602 14.1748 11.8524V11.8499Z" fill="#406325" stroke="#24420E" stroke-width="0.0133332"/>
<path d="M14.1948 11.8399C14.2073 11.6524 14.0198 11.2649 13.9698 11.2224C13.9198 11.6174 14.0823 11.8799 14.1948 11.8399ZM14.0648 10.7599C14.1598 10.7699 14.2248 10.5249 14.0923 10.2174C14.1094 10.3987 14.0993 10.5816 14.0623 10.7599H14.0648ZM12.6123 13.7624C12.7073 13.8524 12.9723 13.6524 13.0798 13.2174C12.8598 13.5249 12.6548 13.7574 12.6123 13.7624ZM13.9773 12.7249C14.0473 12.8074 14.2773 12.6724 14.4023 12.3299C14.2812 12.4821 14.1379 12.6152 13.9773 12.7249Z" fill="#406325" stroke="#24420E" stroke-width="0.0133332"/>
<path d="M14.1919 11.8375C14.0794 11.88 13.9194 11.62 13.9694 11.225C14.0569 11.555 14.1569 11.8175 14.1919 11.8375Z" fill="#67923D" stroke="#24420E" stroke-width="0.0133332"/>
<path d="M14.1144 10.9C14.1296 10.9 14.1419 10.8877 14.1419 10.8725C14.1419 10.8573 14.1296 10.845 14.1144 10.845C14.0992 10.845 14.0869 10.8573 14.0869 10.8725C14.0869 10.8877 14.0992 10.9 14.1144 10.9Z" fill="#BA1F3E" stroke="#511124" stroke-width="0.0133332"/>
<path d="M14.2091 11.1975C14.2243 11.1975 14.2366 11.1851 14.2366 11.17C14.2366 11.1548 14.2243 11.1425 14.2091 11.1425C14.194 11.1425 14.1816 11.1548 14.1816 11.17C14.1816 11.1851 14.194 11.1975 14.2091 11.1975Z" fill="#BA1F3E" stroke="#511124" stroke-width="0.0133332"/>
<path d="M14.2444 12.14C14.2624 12.14 14.2769 12.1254 14.2769 12.1075C14.2769 12.0895 14.2624 12.075 14.2444 12.075C14.2265 12.075 14.2119 12.0895 14.2119 12.1075C14.2119 12.1254 14.2265 12.14 14.2444 12.14Z" fill="#BA1F3E" stroke="#511124" stroke-width="0.0133332"/>
<path d="M14.1145 11.9649C14.1325 11.9649 14.147 11.9504 14.147 11.9324C14.147 11.9145 14.1325 11.8999 14.1145 11.8999C14.0966 11.8999 14.082 11.9145 14.082 11.9324C14.082 11.9504 14.0966 11.9649 14.1145 11.9649Z" fill="#BA1F3E" stroke="#511124" stroke-width="0.0133332"/>
<path d="M13.7464 12.9625C13.7643 12.9625 13.7789 12.9479 13.7789 12.93C13.7789 12.912 13.7643 12.8975 13.7464 12.8975C13.7284 12.8975 13.7139 12.912 13.7139 12.93C13.7139 12.9479 13.7284 12.9625 13.7464 12.9625Z" fill="#BA1F3E" stroke="#511124" stroke-width="0.0133332"/>
<path d="M13.9046 13.03C13.9225 13.03 13.9371 13.0154 13.9371 12.9975C13.9371 12.9795 13.9225 12.965 13.9046 12.965C13.8866 12.965 13.8721 12.9795 13.8721 12.9975C13.8721 13.0154 13.8866 13.03 13.9046 13.03Z" fill="#BA1F3E" stroke="#511124" stroke-width="0.0133332"/>
<path d="M12.844 13.8399C12.862 13.8399 12.8765 13.8254 12.8765 13.8074C12.8765 13.7895 12.862 13.7749 12.844 13.7749C12.8261 13.7749 12.8115 13.7895 12.8115 13.8074C12.8115 13.8254 12.8261 13.8399 12.844 13.8399Z" fill="#BA1F3E" stroke="#511124" stroke-width="0.0133332"/>
<path d="M12.6692 13.9649C12.6872 13.9649 12.7017 13.9504 12.7017 13.9324C12.7017 13.9145 12.6872 13.8999 12.6692 13.8999C12.6513 13.8999 12.6367 13.9145 12.6367 13.9324C12.6367 13.9504 12.6513 13.9649 12.6692 13.9649Z" fill="#BA1F3E" stroke="#511124" stroke-width="0.0133332"/>
<path d="M13.924 10.76C13.9392 10.76 13.9515 10.7476 13.9515 10.7325C13.9515 10.7173 13.9392 10.705 13.924 10.705C13.9088 10.705 13.8965 10.7173 13.8965 10.7325C13.8965 10.7476 13.9088 10.76 13.924 10.76Z" fill="#BA1F3E" stroke="#511124" stroke-width="0.0133332"/>
<path d="M10.8571 12.9075C10.8521 12.9325 10.8771 12.965 10.9071 12.9575C10.9196 12.9575 10.9246 12.945 10.9121 12.945C10.9021 12.9475 10.8896 12.945 10.8821 12.9375C10.8752 12.9313 10.8706 12.9231 10.8688 12.9141C10.867 12.9051 10.8681 12.8957 10.8721 12.8875L10.8571 12.9075Z" fill="#8C959D" stroke="#485654" stroke-width="0.00666662"/>
<path d="M10.9291 12.9575C10.9041 12.9875 10.8666 13 10.8441 12.98C10.8291 12.965 10.8241 12.95 10.8316 12.93L10.8066 12.9625C10.8155 12.9809 10.8294 12.9965 10.8466 13.0075C10.8766 13.02 10.9216 13 10.9466 12.9675C10.9666 12.9425 10.9866 12.9075 10.9716 12.8775C10.9602 12.8581 10.9426 12.8431 10.9216 12.835L10.8966 12.86C10.9091 12.855 10.9266 12.86 10.9391 12.87C10.9716 12.895 10.9516 12.9325 10.9291 12.9575Z" fill="#8C959D"/>
<path d="M10.9297 12.9574C10.9222 12.9674 10.9128 12.9759 10.9022 12.9824C10.8897 12.9874 10.8772 12.9924 10.8647 12.9899C10.8583 12.9889 10.8523 12.9864 10.8472 12.9824C10.8422 12.9781 10.838 12.973 10.8347 12.9674C10.8308 12.9623 10.8282 12.9562 10.8272 12.9499C10.8272 12.9424 10.8272 12.9374 10.8322 12.9299L10.8347 12.9324L10.8072 12.9624C10.8147 12.9724 10.8222 12.9849 10.8322 12.9924L10.8497 13.0049C10.8561 13.0071 10.8629 13.0079 10.8697 13.0074C10.8839 13.0071 10.8978 13.0028 10.9097 12.9949C10.9218 12.9884 10.9328 12.9799 10.9422 12.9699L10.9672 12.9349C10.9722 12.9224 10.9747 12.9099 10.9747 12.8949C10.9746 12.8879 10.9729 12.8811 10.9697 12.8749C10.9662 12.8694 10.962 12.8643 10.9572 12.8599C10.9474 12.8492 10.9355 12.8407 10.9222 12.8349H10.9247L10.8997 12.8624H10.8972C10.9022 12.8574 10.9097 12.8574 10.9172 12.8574C10.9265 12.8589 10.9351 12.863 10.9422 12.8691C10.9493 12.8753 10.9545 12.8834 10.9572 12.8924C10.9597 12.9049 10.9572 12.9174 10.9522 12.9274C10.9462 12.9385 10.9386 12.9486 10.9297 12.9574ZM10.9297 12.9574C10.9397 12.9499 10.9447 12.9399 10.9497 12.9274C10.9547 12.9174 10.9572 12.9024 10.9547 12.8924C10.9503 12.8817 10.9423 12.8729 10.9322 12.8674C10.9222 12.8599 10.9072 12.8574 10.8997 12.8624H10.8972L10.9222 12.8324C10.9426 12.8402 10.9601 12.8542 10.9722 12.8724C10.9772 12.8799 10.9797 12.8874 10.9797 12.8974C10.9797 12.9099 10.9772 12.9224 10.9697 12.9374C10.963 12.9501 10.9546 12.9619 10.9447 12.9724C10.9372 12.9849 10.9247 12.9924 10.9122 12.9999C10.8997 13.0074 10.8872 13.0124 10.8697 13.0124C10.8629 13.0128 10.8561 13.012 10.8497 13.0099C10.8423 13.0069 10.8356 13.0027 10.8297 12.9974C10.8194 12.9873 10.8109 12.9754 10.8047 12.9624L10.8297 12.9299H10.8347L10.8322 12.9499C10.8322 12.9549 10.8322 12.9624 10.8372 12.9674L10.8497 12.9799L10.8647 12.9874C10.8772 12.9899 10.8897 12.9874 10.9022 12.9799C10.9126 12.9741 10.9219 12.9665 10.9297 12.9574Z" fill="#485654"/>
<path d="M12.8795 10.7325L11.8771 11.72L10.8496 12.7L10.7346 12.835C10.6846 12.8925 10.6246 12.9675 10.5546 13.035C10.5446 13.05 10.5271 13.045 10.5121 13.055C10.4655 13.0847 10.4234 13.1209 10.3871 13.1625L10.0796 13.5C10.0621 13.5225 10.0546 13.535 10.0696 13.55L10.2346 13.77C10.2646 13.8 10.2996 13.815 10.3146 13.79C10.3921 13.6525 10.5896 13.445 10.6646 13.2825C10.7071 13.1825 10.7621 13.005 10.8021 12.9625C10.8521 12.9075 10.9796 12.7675 11.0971 12.645L11.1221 12.62L11.1446 12.595C11.7321 11.995 12.4121 11.2675 12.907 10.755L12.882 10.73L12.8795 10.7325Z" fill="#6C301E" stroke="#351710" stroke-width="0.0133332" stroke-linejoin="round"/>
<path d="M10.7971 12.7025C10.7671 12.7025 10.7471 12.685 10.7246 12.6675C10.7546 12.6775 10.7846 12.6875 10.8121 12.6775L10.7971 12.7025Z" fill="#8C959D" stroke="#485654" stroke-width="0.00666662"/>
<path d="M13.9249 10.0024L13.1299 10.6574C13.1224 10.6674 13.1149 10.6649 13.1074 10.6574L13.0349 10.5974V10.5824L13.0699 10.5474C13.0749 10.5424 13.0699 10.5399 13.0674 10.5324L13.0524 10.5174C13.0449 10.5149 13.0399 10.5174 13.0349 10.5224L12.9999 10.5599C12.9824 10.5599 12.9674 10.5749 12.9649 10.5949C12.4849 11.0624 12.07 11.4799 11.5925 11.9399L11.0275 12.4799C11.0075 12.5049 10.92 12.5524 10.8625 12.5899C10.845 12.5991 10.8296 12.6119 10.8175 12.6274L10.7725 12.7649L10.71 12.8699C10.7675 12.9299 10.765 12.9249 10.805 12.9624L11.085 12.6649L11.105 12.6399C11.0944 12.6257 11.0827 12.6123 11.07 12.5999C11.0602 12.5914 11.0501 12.583 11.04 12.5749L11.025 12.5599C11.02 12.5549 11.03 12.5474 11.035 12.5424C11.6975 11.9049 12.41 11.1999 12.9924 10.6274C13.0005 10.6305 13.0094 10.6305 13.0174 10.6274L13.0874 10.7074C13.1024 10.7224 13.1174 10.7224 13.1299 10.7174L13.9274 10.0024H13.9249Z" fill="#B2B6BA" stroke="#485654" stroke-width="0.0133332"/>
<path d="M10.775 12.7599H10.7875C10.7926 12.7601 10.7977 12.7593 10.8025 12.7574C10.8142 12.7172 10.8267 12.6772 10.84 12.6374C10.8351 12.6326 10.8291 12.6291 10.8225 12.6274C10.83 12.6274 10.835 12.6324 10.84 12.6374L10.8225 12.6974L10.805 12.7574C10.8004 12.7602 10.7953 12.7619 10.79 12.7624C10.784 12.7623 10.7782 12.7615 10.7725 12.7599H10.775Z" fill="#485654"/>
<path d="M10.9545 12.7174C10.9627 12.7174 10.9695 12.7107 10.9695 12.7024C10.9695 12.6941 10.9627 12.6874 10.9545 12.6874C10.9462 12.6874 10.9395 12.6941 10.9395 12.7024C10.9395 12.7107 10.9462 12.7174 10.9545 12.7174Z" stroke="#485654" stroke-width="0.0133332"/>
<path d="M10.8597 12.8125C10.868 12.8125 10.8747 12.8058 10.8747 12.7975C10.8747 12.7892 10.868 12.7825 10.8597 12.7825C10.8514 12.7825 10.8447 12.7892 10.8447 12.7975C10.8447 12.8058 10.8514 12.8125 10.8597 12.8125Z" stroke="#485654" stroke-width="0.0133332"/>
<path d="M11.0245 12.5599L10.9995 12.5399C10.9925 12.5336 10.9858 12.5269 10.9795 12.5199C10.9959 12.5316 11.0109 12.545 11.0245 12.5599Z" fill="#485654"/>
<path d="M12.5547 10.9749L12.6422 11.0624L12.6572 11.0474L12.5697 10.9624L12.5547 10.9774V10.9749Z" fill="#8C959D" stroke="#485654" stroke-width="0.00666662"/>
<path d="M12.111 -1.99588L12.0278 -2.08755L12.0121 -2.0733L12.0954 -1.98413L12.1111 -1.99838L12.111 -1.99588Z" fill="#8C959D" stroke="#485654" stroke-width="0.00666662"/>
<path d="M10.8497 13.635C10.6079 13.5772 10.355 13.5849 10.1172 13.6575C10.5247 13.8575 10.8547 13.7725 10.8472 13.6325L10.8497 13.635ZM13.0747 13.7175C13.3158 13.6598 13.568 13.6685 13.8047 13.7425C13.3972 13.94 13.0647 13.855 13.0722 13.7175H13.0747Z" fill="#67923D" stroke="#24420E" stroke-width="0.0133332"/>
<path d="M10.8447 13.6375C10.8522 13.775 10.5247 13.86 10.1172 13.66C10.4997 13.685 10.8122 13.67 10.8422 13.635L10.8447 13.6375ZM13.0772 13.72C13.0697 13.8575 13.3972 13.9425 13.8022 13.7425C13.4222 13.7675 13.1097 13.7525 13.0772 13.7175V13.72Z" fill="#406325" stroke="#24420E" stroke-width="0.0133332"/>
<path d="M12.7121 13.5C12.2086 12.8021 11.5594 12.2221 10.8096 11.8C10.8996 11.795 11.0971 11.8975 11.1771 11.95C11.7746 12.335 12.2846 12.8425 12.8171 13.445C12.7904 13.4718 12.762 13.4968 12.7321 13.52L12.7121 13.5Z" fill="#B2B6BA" stroke="#485654" stroke-width="0.0133332"/>
<path d="M12.7641 13.4949L12.7241 13.5249C12.1491 12.7849 11.3466 12.0774 10.8066 11.7974C11.5591 12.1449 12.1916 12.8424 12.7566 13.4899H12.7616L12.7641 13.4949Z" fill="#8C959D"/>
<path d="M12.7641 13.4949L12.7241 13.5249C12.5904 13.3548 12.4495 13.1905 12.3016 13.0324C12.1551 12.8741 12.0025 12.7215 11.8441 12.5749C11.6856 12.4274 11.5204 12.2873 11.3491 12.1549C11.2629 12.0887 11.1746 12.0253 11.0841 11.9649C10.9941 11.9074 10.9016 11.8499 10.8066 11.7999V11.7949C11.0044 11.8874 11.1927 11.9988 11.3691 12.1274C11.5442 12.2553 11.7112 12.3939 11.8691 12.5424C12.0272 12.691 12.1798 12.8453 12.3266 13.0049C12.4766 13.1649 12.6166 13.3299 12.7616 13.4899L12.7641 13.4949ZM12.7641 13.4949C12.6207 13.3311 12.4748 13.1695 12.3266 13.0099C12.1798 12.8503 12.0272 12.696 11.8691 12.5474C11.7111 12.399 11.5441 12.2604 11.3691 12.1324C11.1935 12.0046 11.006 11.8941 10.8091 11.8024V11.7974C10.9975 11.9048 11.1787 12.0242 11.3516 12.1549C11.5238 12.2873 11.6898 12.4274 11.8491 12.5749C12.0075 12.7215 12.1601 12.8741 12.3066 13.0324C12.4537 13.1913 12.5938 13.3565 12.7266 13.5274L12.7641 13.4924V13.4949Z" fill="#485654"/>
<path d="M12.9363 13.3749C12.8894 13.3869 12.8447 13.4063 12.8038 13.4324C12.7988 13.4674 12.7538 13.5074 12.7138 13.5149L12.7013 13.4949C12.7013 13.4942 12.7011 13.4936 12.7006 13.4931C12.7001 13.4926 12.6995 13.4924 12.6988 13.4924C12.6982 13.4924 12.6975 13.4926 12.6971 13.4931C12.6966 13.4936 12.6963 13.4942 12.6963 13.4949C12.6912 13.4971 12.6862 13.4996 12.6813 13.5024C12.6663 13.5024 12.6488 13.5074 12.6413 13.5274C12.6313 13.5524 12.6513 13.5849 12.6713 13.6049C12.6963 13.6224 12.7063 13.6299 12.7313 13.6299C12.7588 13.6224 12.7738 13.5974 12.7813 13.5899C12.8738 13.7024 12.9438 13.7649 13.0613 13.8549C13.1138 13.8549 13.1413 13.8224 13.1238 13.7849C13.1188 13.7724 13.1038 13.7649 13.0913 13.7699V13.7574C13.1513 13.7024 13.1788 13.6324 13.1138 13.5099C13.0588 13.4099 12.9963 13.3774 12.9388 13.3774L12.9363 13.3749ZM13.0938 13.4899L13.1188 13.5399C13.1563 13.6149 13.1238 13.7049 13.0588 13.7349H13.0538C13.0638 13.7174 13.0338 13.6799 13.0188 13.6924C13.0263 13.6749 13.0013 13.6424 12.9813 13.6499C12.9913 13.6324 12.9688 13.6024 12.9463 13.6124C12.9563 13.5949 12.9388 13.5674 12.9138 13.5724C12.9213 13.5499 12.9038 13.5274 12.8813 13.5324C12.8813 13.5124 12.8763 13.5024 12.8688 13.4949C12.8938 13.4749 12.9263 13.4424 12.9538 13.4274C13.0213 13.3974 13.0638 13.4524 13.0913 13.4899H13.0938Z" fill="#FAB81C" stroke="#6C301E" stroke-width="0.0133332"/>
<path d="M13.1211 13.5698C13.1086 13.5623 13.1011 13.5498 13.1061 13.5423C13.1111 13.5323 13.1236 13.5298 13.1361 13.5373C13.1486 13.5423 13.1561 13.5548 13.1511 13.5623C13.1486 13.5723 13.1336 13.5748 13.1211 13.5698Z" fill="#FAB81C" stroke="#6C301E" stroke-width="0.00666662"/>
<path d="M13.1142 13.5448C13.1017 13.5373 13.0942 13.5248 13.0992 13.5148C13.1042 13.5073 13.1167 13.5048 13.1292 13.5123C13.1417 13.5173 13.1492 13.5298 13.1442 13.5373C13.1417 13.5473 13.1267 13.5498 13.1142 13.5448Z" fill="#FAB81C" stroke="#6C301E" stroke-width="0.00666662"/>
<path d="M13.0986 13.5149C13.0861 13.5099 13.0786 13.4974 13.0836 13.4899C13.0886 13.4799 13.1011 13.4774 13.1136 13.4824C13.1261 13.4899 13.1336 13.5024 13.1286 13.5099C13.1261 13.5199 13.1111 13.5224 13.0986 13.5149Z" fill="#FAB81C" stroke="#6C301E" stroke-width="0.00666662"/>
<path d="M13.0791 13.4899C13.0666 13.4824 13.0591 13.4699 13.0641 13.4624C13.0691 13.4549 13.0816 13.4524 13.0941 13.4574C13.1066 13.4649 13.1141 13.4774 13.1116 13.4849C13.1066 13.4924 13.0916 13.4974 13.0791 13.4899Z" fill="#FAB81C" stroke="#6C301E" stroke-width="0.00666662"/>
<path d="M13.054 13.4649C13.039 13.4599 13.034 13.4449 13.039 13.4399V13.4349C13.044 13.4374 13.0565 13.4399 13.054 13.4324C13.054 13.4274 13.0515 13.4249 13.054 13.4274L13.069 13.4324C13.0815 13.4399 13.089 13.4524 13.084 13.4599C13.079 13.4699 13.0665 13.4724 13.054 13.4649Z" fill="#FAB81C" stroke="#6C301E" stroke-width="0.00666662"/>
<path d="M12.7812 13.5899C12.7962 13.5449 12.8312 13.5049 12.8687 13.4949L12.7812 13.5899ZM12.7863 13.5949C12.8188 13.6024 12.8687 13.5649 12.8812 13.5324L12.7863 13.5949ZM12.8163 13.6324C12.8563 13.6424 12.8987 13.6024 12.9162 13.5724L12.8163 13.6324ZM12.8538 13.6724C12.9037 13.6724 12.9312 13.6399 12.9462 13.6124L12.8538 13.6724ZM12.8912 13.7124C12.9312 13.7124 12.9712 13.6774 12.9812 13.6499L12.8912 13.7124ZM12.9262 13.7449C12.9448 13.7459 12.9633 13.7418 12.9796 13.733C12.9959 13.7242 13.0095 13.711 13.0187 13.6949M12.9687 13.7799C13.0087 13.7824 13.0437 13.7574 13.0537 13.7349L12.9687 13.7799ZM13.0137 13.8174C13.0537 13.8174 13.0812 13.7924 13.0912 13.7674L13.0137 13.8174Z" fill="#FAB81C"/>
<path d="M12.7812 13.5899C12.7884 13.5688 12.7994 13.5493 12.8137 13.5324L12.8387 13.5074L12.8687 13.4949C12.858 13.4981 12.8478 13.5032 12.8387 13.5099L12.8137 13.5349C12.8004 13.5516 12.7895 13.5701 12.7812 13.5899ZM12.7863 13.5974C12.7963 13.5974 12.8063 13.5974 12.8163 13.5924C12.8252 13.5884 12.8335 13.5834 12.8413 13.5774L12.8663 13.5574L12.8812 13.5324C12.8788 13.542 12.8736 13.5507 12.8663 13.5574C12.859 13.566 12.8506 13.5735 12.8413 13.5799C12.8335 13.585 12.8251 13.5892 12.8163 13.5924C12.807 13.597 12.7965 13.5987 12.7863 13.5974ZM12.8163 13.6324H12.8463L12.8713 13.6174C12.8883 13.6054 12.9028 13.5901 12.9137 13.5724C12.909 13.5814 12.9031 13.5898 12.8963 13.5974C12.8897 13.6058 12.8821 13.6133 12.8737 13.6199C12.8661 13.6253 12.8577 13.6295 12.8487 13.6324H12.8163ZM12.8538 13.6724C12.8631 13.6719 12.8723 13.6703 12.8812 13.6674C12.8902 13.6645 12.8986 13.6602 12.9062 13.6549C12.9155 13.6494 12.9239 13.6426 12.9312 13.6349L12.9462 13.6099C12.9383 13.6288 12.9254 13.6453 12.9088 13.6574C12.8927 13.6686 12.8733 13.6739 12.8538 13.6724ZM12.8912 13.7099C12.9103 13.7082 12.9285 13.7013 12.9437 13.6899C12.959 13.6794 12.9718 13.6658 12.9812 13.6499C12.9787 13.6574 12.9737 13.6674 12.9662 13.6749L12.9462 13.6924C12.9385 13.6976 12.9301 13.7018 12.9213 13.7049C12.9113 13.7099 12.9012 13.7099 12.8912 13.7099ZM12.9287 13.7449C12.9372 13.7438 12.9455 13.7421 12.9537 13.7399C12.9624 13.7375 12.9708 13.7342 12.9787 13.7299C12.9957 13.7218 13.0096 13.7087 13.0187 13.6924L13.0037 13.7174C12.9962 13.7224 12.9887 13.7299 12.9787 13.7324C12.9633 13.7404 12.9462 13.7446 12.9287 13.7449ZM12.9687 13.7799H12.9937C13.0026 13.7769 13.011 13.7727 13.0187 13.7674L13.0387 13.7549C13.0462 13.7474 13.0512 13.7424 13.0537 13.7349C13.0509 13.7423 13.0466 13.7491 13.0412 13.7549C13.0345 13.761 13.027 13.766 13.0187 13.7699C13.0033 13.7778 12.986 13.7813 12.9687 13.7799ZM13.0137 13.8174C13.0222 13.8176 13.0306 13.8168 13.0387 13.8149C13.0542 13.8106 13.0681 13.8019 13.0787 13.7899C13.0837 13.7837 13.0879 13.777 13.0912 13.7699C13.0856 13.7853 13.0751 13.7985 13.0612 13.8074C13.0534 13.8113 13.045 13.8139 13.0362 13.8149C13.028 13.8163 13.0195 13.8163 13.0112 13.8149L13.0137 13.8174Z" fill="#6C301E"/>
<path d="M10.2298 10.5C10.4279 10.395 10.5957 10.2409 10.7172 10.0525C10.3272 10.1575 10.1498 10.4125 10.2298 10.5025V10.5ZM13.8747 10.6175C13.7895 10.421 13.6552 10.2497 13.4847 10.12C13.5547 10.5 13.7847 10.69 13.8747 10.62V10.6175Z" fill="#406325" stroke="#24420E" stroke-width="0.0133332"/>
<path d="M10.2298 10.4999C10.1473 10.4124 10.3248 10.1599 10.7148 10.0549C10.4398 10.2649 10.2348 10.4599 10.2298 10.4999ZM13.8748 10.6174C13.7823 10.6924 13.5573 10.5024 13.4873 10.1249C13.6673 10.3999 13.8373 10.6124 13.8748 10.6174Z" fill="#67923D" stroke="#24420E" stroke-width="0.0133332"/>
<path d="M11.3044 12.4524C11.3044 12.4524 11.1494 12.4699 11.1069 12.2574C11.0619 12.0299 11.2394 12.0074 11.2394 12.0074C11.2394 12.0074 11.4419 11.9849 11.5694 11.9824L11.6244 12.4324L11.3044 12.4524Z" fill="url(#paint0_radial_208_20887)" stroke="#999270" stroke-width="0.0133332"/>
<path d="M11.3243 12.3849C11.3243 12.3849 11.2243 12.4024 11.2043 12.2449C11.1893 12.1324 11.2593 12.1174 11.2593 12.1174L11.4893 12.1574V12.3624L11.3243 12.3849Z" fill="url(#paint1_radial_208_20887)" stroke="#999270" stroke-width="0.0133332"/>
<path d="M11.2598 12.1174C11.2598 12.1174 11.4073 12.1074 11.4848 12.0974L11.5173 12.2399L11.3398 12.2499C11.3398 12.2499 11.3273 12.1224 11.2598 12.1174Z" fill="url(#paint2_radial_208_20887)" stroke="#999270" stroke-width="0.0133332"/>
<path d="M11.2295 12.0099C11.2295 12.0099 11.417 11.9624 11.442 12.1724C11.447 12.2249 11.417 12.3499 11.3245 12.3849L11.672 12.3474L11.6395 11.9724L11.5245 11.9824C11.5245 11.9824 11.2745 11.9899 11.2295 12.0074V12.0099Z" fill="url(#paint3_radial_208_20887)" stroke="#999270" stroke-width="0.0133332"/>
<path d="M11.3045 12.4524C11.3045 12.4524 12.602 12.3649 12.7345 12.3699C13.1295 12.155 12.7345 11.3075 12.402 10.8325C12.4395 10.725 11.6545 10.485 11.302 10.5075C11.2545 10.5075 11.212 10.5125 11.172 10.515C10.9795 10.535 10.977 10.7825 11.0545 10.94C11.1295 11.09 11.812 12.3149 11.3345 12.4474L11.3045 12.4524Z" fill="#F9F0AA" stroke="#999270" stroke-width="0.0133332"/>
<path d="M12.6945 11.3325C12.6102 11.1584 12.5124 10.9912 12.402 10.8325C12.4395 10.725 11.6545 10.485 11.302 10.5075C11.2545 10.5075 11.212 10.5125 11.172 10.515C10.9795 10.535 10.977 10.7825 11.0545 10.94C11.0795 10.985 11.162 11.14 11.252 11.3325" fill="url(#paint4_linear_208_20887)"/>
<path d="M12.6945 11.3325C12.6102 11.1584 12.5124 10.9912 12.402 10.8325C12.4395 10.725 11.6545 10.485 11.302 10.5075C11.2545 10.5075 11.212 10.5125 11.172 10.515C10.9795 10.535 10.977 10.7825 11.0545 10.94C11.0795 10.985 11.162 11.14 11.252 11.3325" stroke="#999270" stroke-width="0.0133332"/>
<path d="M11.3747 11.6249C11.5147 11.9899 11.5922 12.3749 11.3347 12.4449L11.3047 12.4524C11.3047 12.4524 12.6047 12.3649 12.7347 12.3699C12.9497 12.2524 12.9297 11.9499 12.8147 11.6199" fill="url(#paint5_linear_208_20887)"/>
<path d="M11.3747 11.6249C11.5147 11.9899 11.5922 12.3749 11.3347 12.4449L11.3047 12.4524C11.3047 12.4524 12.6047 12.3649 12.7347 12.3699C12.9497 12.2524 12.9297 11.9499 12.8147 11.6199" stroke="#999270" stroke-width="0.0133332"/>
<path d="M11.1845 10.5875C11.092 10.5875 11.067 10.6775 11.0695 10.7325C11.072 10.8824 11.1845 10.8874 11.1845 10.8874L11.3345 10.8799L11.4045 10.575L11.1845 10.5875Z" fill="url(#paint6_radial_208_20887)" stroke="#999270" stroke-width="0.0133332"/>
<path d="M11.1846 10.5875L11.4046 10.575L11.4296 10.8024L11.2346 10.8124C11.2346 10.8124 11.2971 10.63 11.1846 10.5875Z" fill="url(#paint7_linear_208_20887)" stroke="#999270" stroke-width="0.0133332"/>
<path d="M12.4021 10.8324C12.5696 10.8074 12.5671 10.5824 12.4521 10.4899C12.0646 10.4774 11.5546 10.4874 11.1871 10.5149C11.2296 10.5149 11.3446 10.5249 11.3596 10.6774C11.3622 10.7105 11.3567 10.7437 11.3436 10.7742C11.3306 10.8047 11.3103 10.8315 11.2846 10.8524C11.2346 10.8874 11.1846 10.8874 11.1846 10.8874H11.2746L11.3496 10.8774C11.8746 10.8099 12.3996 10.8324 12.3996 10.8324H12.4021Z" fill="url(#paint8_linear_208_20887)" stroke="#999270" stroke-width="0.0133332"/>
<path d="M11.4616 11.1849C11.4566 11.1774 11.4541 11.1674 11.4416 11.1649C11.4366 11.1649 11.4266 11.1649 11.4291 11.1549H11.4491L11.4891 11.1499C11.4991 11.1524 11.4966 11.1649 11.4891 11.1624C11.4766 11.1624 11.4841 11.1749 11.4866 11.1824L11.5191 11.2574C11.5216 11.2674 11.5291 11.2749 11.5366 11.2749L11.5641 11.2724C11.5716 11.2674 11.5691 11.2574 11.5691 11.2474C11.5666 11.2399 11.5816 11.2424 11.5816 11.2474L11.5916 11.2824C11.5916 11.2874 11.5866 11.2849 11.5816 11.2849L11.5066 11.2899C11.4991 11.2899 11.4866 11.2974 11.4816 11.2899C11.4816 11.2799 11.4966 11.2849 11.4966 11.2774L11.4891 11.2524L11.4616 11.1849ZM11.5816 11.1774C11.5791 11.1699 11.5741 11.1599 11.5641 11.1574C11.5591 11.1574 11.5491 11.1574 11.5491 11.1474H11.5666L11.6091 11.1424C11.6166 11.1424 11.6191 11.1549 11.6091 11.1524C11.6016 11.1524 11.6016 11.1624 11.6041 11.1699L11.6416 11.2549C11.6416 11.2599 11.6466 11.2674 11.6541 11.2699C11.6616 11.2699 11.6716 11.2699 11.6716 11.2774C11.6716 11.2824 11.6616 11.2799 11.6566 11.2799C11.6431 11.28 11.6297 11.2816 11.6166 11.2849C11.6116 11.2849 11.6041 11.2849 11.6041 11.2774C11.6041 11.2699 11.6166 11.2774 11.6191 11.2674C11.6191 11.2599 11.6141 11.2524 11.6091 11.2424L11.5816 11.1774ZM11.6941 11.1949C11.6941 11.1999 11.7041 11.1949 11.7066 11.1949C11.7141 11.1949 11.7216 11.1924 11.7216 11.1849C11.721 11.179 11.7191 11.1732 11.7161 11.1681C11.713 11.1629 11.709 11.1584 11.7041 11.1549C11.6966 11.1474 11.6841 11.1499 11.6766 11.1499L11.6791 11.1624L11.6941 11.1949ZM11.7091 11.2349C11.7141 11.2424 11.7166 11.2524 11.7241 11.2599C11.7291 11.2649 11.7391 11.2624 11.7441 11.2599C11.7516 11.2599 11.7566 11.2524 11.7541 11.2474C11.7516 11.2299 11.7416 11.2149 11.7241 11.2099C11.7159 11.2082 11.7073 11.2082 11.6991 11.2099L11.7041 11.2224L11.7091 11.2349ZM11.6591 11.1749C11.6541 11.1674 11.6516 11.1574 11.6416 11.1499C11.6366 11.1499 11.6266 11.1524 11.6241 11.1449C11.6241 11.1374 11.6391 11.1424 11.6441 11.1399C11.6666 11.1399 11.6866 11.1324 11.7091 11.1399C11.7266 11.1449 11.7441 11.1599 11.7466 11.1799C11.7466 11.1899 11.7391 11.1974 11.7316 11.1999L11.7441 11.2024C11.7591 11.2074 11.7716 11.2174 11.7791 11.2299C11.7841 11.2399 11.7866 11.2549 11.7791 11.2649C11.7691 11.2749 11.7541 11.2749 11.7441 11.2749C11.7241 11.2749 11.7066 11.2749 11.6866 11.2799C11.6816 11.2799 11.6766 11.2674 11.6866 11.2674C11.6941 11.2674 11.6941 11.2574 11.6916 11.2524L11.6591 11.1774V11.1749ZM11.8441 11.1274C11.8516 11.1274 11.8541 11.1349 11.8566 11.1399L11.8641 11.1624C11.8566 11.1674 11.8516 11.1574 11.8491 11.1524C11.8466 11.1474 11.8391 11.1399 11.8316 11.1424C11.8216 11.1417 11.8116 11.1417 11.8016 11.1424C11.7966 11.1474 11.8016 11.1524 11.8041 11.1574L11.8191 11.1899C11.8241 11.1899 11.8341 11.1899 11.8391 11.1849C11.8391 11.1799 11.8316 11.1674 11.8441 11.1699C11.8516 11.1749 11.8491 11.1849 11.8541 11.1924L11.8666 11.2199C11.8591 11.2274 11.8541 11.2174 11.8516 11.2099C11.8466 11.2024 11.8341 11.2024 11.8266 11.2024C11.8216 11.2024 11.8266 11.2074 11.8266 11.2099L11.8416 11.2474C11.8466 11.2549 11.8591 11.2549 11.8666 11.2549C11.8766 11.2549 11.8866 11.2549 11.8916 11.2449C11.8966 11.2399 11.8841 11.2274 11.8916 11.2249C11.9016 11.2249 11.9016 11.2349 11.9041 11.2399C11.9041 11.2474 11.9091 11.2549 11.9116 11.2599C11.9116 11.2649 11.9041 11.2649 11.9016 11.2649L11.8266 11.2699C11.8166 11.2699 11.8041 11.2749 11.8016 11.2649C11.8016 11.2574 11.8166 11.2624 11.8166 11.2499L11.8066 11.2249L11.7791 11.1599C11.7741 11.1524 11.7691 11.1449 11.7591 11.1424C11.7541 11.1424 11.7441 11.1424 11.7491 11.1324H11.7741L11.8441 11.1274ZM11.9016 11.1599C11.8991 11.1524 11.8941 11.1424 11.8841 11.1374C11.8791 11.1374 11.8666 11.1374 11.8666 11.1274C11.8741 11.1224 11.8841 11.1274 11.8916 11.1274C11.9116 11.1274 11.9316 11.1199 11.9516 11.1274C11.9716 11.1324 11.9891 11.1499 11.9916 11.1724C11.9916 11.1824 11.9841 11.1899 11.9741 11.1924C11.9666 11.1924 11.9791 11.1949 11.9816 11.1974C11.9991 11.2049 12.0066 11.2199 12.0166 11.2349C12.0191 11.2399 12.0291 11.2524 12.0316 11.2399C12.0316 11.2274 12.0491 11.2399 12.0441 11.2474C12.0441 11.2574 12.0366 11.2624 12.0266 11.2624C12.0166 11.2624 12.0041 11.2574 11.9991 11.2474C11.9891 11.2324 11.9816 11.2149 11.9666 11.2049C11.9616 11.1999 11.9541 11.1974 11.9466 11.2024V11.2124L11.9616 11.2424C11.9666 11.2499 11.9766 11.2499 11.9866 11.2499C11.9941 11.2524 11.9916 11.2649 11.9816 11.2624H11.9391C11.9316 11.2674 11.9166 11.2624 11.9216 11.2549C11.9291 11.2549 11.9391 11.2499 11.9341 11.2424L11.9091 11.1774L11.9016 11.1599ZM11.9366 11.1849C11.9416 11.1924 11.9516 11.1849 11.9591 11.1849C11.9666 11.1849 11.9666 11.1724 11.9641 11.1674C11.9616 11.1549 11.9541 11.1424 11.9416 11.1374C11.9366 11.1374 11.9216 11.1324 11.9191 11.1399L11.9366 11.1799V11.1824V11.1849ZM12.1166 11.2249C12.1216 11.2324 12.1241 11.2399 12.1316 11.2424C12.1366 11.2424 12.1466 11.2424 12.1491 11.2499C12.1491 11.2574 12.1391 11.2524 12.1341 11.2549C12.1208 11.2534 12.1074 11.2534 12.0941 11.2549C12.0866 11.2574 12.0791 11.2549 12.0791 11.2474C12.0841 11.2424 12.0966 11.2474 12.0966 11.2374L12.0841 11.2099L12.0566 11.1374C12.0541 11.1299 12.0441 11.1299 12.0391 11.1299C12.0316 11.1299 12.0216 11.1299 12.0216 11.1399C12.0216 11.1474 12.0266 11.1574 12.0216 11.1599C12.0141 11.1599 12.0116 11.1524 12.0091 11.1474L12.0016 11.1224C12.0016 11.1174 12.0091 11.1199 12.0116 11.1199L12.1166 11.1149C12.1241 11.1149 12.1291 11.1199 12.1291 11.1274C12.1291 11.1349 12.1366 11.1424 12.1391 11.1524C12.1366 11.1599 12.1266 11.1524 12.1266 11.1449C12.1216 11.1374 12.1116 11.1299 12.1016 11.1274C12.0966 11.1274 12.0866 11.1274 12.0816 11.1324L12.0866 11.1499L12.1166 11.2249ZM12.2116 11.2024C12.2066 11.2024 12.2091 11.2099 12.2091 11.2124V11.2324C12.2116 11.2399 12.2216 11.2399 12.2291 11.2424C12.2341 11.2424 12.2316 11.2549 12.2241 11.2524H12.1941C12.1866 11.2549 12.1766 11.2499 12.1816 11.2424C12.1866 11.2424 12.1916 11.2399 12.1941 11.2349V11.1099C12.1991 11.1024 12.2091 11.1099 12.2091 11.1124L12.2991 11.2274C12.3041 11.2324 12.3116 11.2374 12.3191 11.2374C12.3266 11.2374 12.3291 11.2499 12.3191 11.2474H12.2816C12.2766 11.2474 12.2691 11.2524 12.2641 11.2474C12.2591 11.2449 12.2641 11.2374 12.2691 11.2374C12.2766 11.2374 12.2691 11.2274 12.2666 11.2224L12.2516 11.2024H12.2116ZM12.2391 11.1899C12.2441 11.1899 12.2391 11.1874 12.2391 11.1849L12.2066 11.1424V11.1924H12.2391V11.1899ZM12.3166 11.1449C12.3141 11.1349 12.3091 11.1199 12.2966 11.1199C12.2891 11.1199 12.2791 11.1149 12.2841 11.1074H12.3266C12.3441 11.1074 12.3616 11.1074 12.3766 11.1124C12.3958 11.1182 12.413 11.1292 12.4262 11.1442C12.4395 11.1593 12.4483 11.1777 12.4516 11.1974C12.4516 11.2124 12.4491 11.2299 12.4366 11.2374C12.4166 11.2499 12.3941 11.2474 12.3741 11.2449L12.3391 11.2474C12.3316 11.2474 12.3291 11.2349 12.3391 11.2374C12.3491 11.2374 12.3491 11.2249 12.3441 11.2199L12.3166 11.1449ZM12.3666 11.2074C12.3691 11.2149 12.3716 11.2249 12.3791 11.2324H12.4041C12.4166 11.2324 12.4216 11.2199 12.4216 11.2099C12.4212 11.1914 12.416 11.1734 12.4066 11.1574C12.4021 11.1487 12.3957 11.141 12.388 11.135C12.3802 11.1289 12.3712 11.1246 12.3616 11.1224H12.3366C12.3341 11.1224 12.3366 11.1274 12.3366 11.1324L12.3666 11.2074ZM11.8391 11.5174C11.8391 11.5249 11.8491 11.5324 11.8591 11.5324C11.8641 11.5324 11.8766 11.5324 11.8766 11.5424C11.8716 11.5474 11.8641 11.5424 11.8566 11.5424C11.844 11.543 11.8314 11.5447 11.8191 11.5474H11.7966C11.7916 11.5474 11.7916 11.5374 11.7991 11.5374C11.8066 11.5374 11.8141 11.5349 11.8166 11.5274C11.8166 11.5199 11.8116 11.5124 11.8091 11.5074L11.7791 11.4374C11.7791 11.4299 11.7691 11.4299 11.7616 11.4299C11.7566 11.4299 11.7466 11.4324 11.7441 11.4249C11.7441 11.4174 11.7566 11.4199 11.7616 11.4149L11.7866 11.4074C11.7916 11.4074 11.7941 11.4099 11.7966 11.4149L11.8391 11.5149V11.5174ZM11.8566 11.4049H11.9066C11.9166 11.4049 11.9116 11.3924 11.9166 11.3924C11.9266 11.3924 11.9266 11.4049 11.9266 11.4099C11.9271 11.412 11.927 11.4142 11.9264 11.4162C11.9259 11.4182 11.9248 11.4201 11.9233 11.4216C11.9218 11.4231 11.9199 11.4242 11.9179 11.4248C11.9158 11.4254 11.9137 11.4254 11.9116 11.4249H11.8741L11.8866 11.4549L11.9016 11.4499C11.9151 11.4496 11.9285 11.4532 11.94 11.4603C11.9516 11.4674 11.9608 11.4777 11.9666 11.4899C11.9716 11.4999 11.9741 11.5149 11.9666 11.5274C11.9566 11.5399 11.9416 11.5424 11.9266 11.5424C11.9141 11.5424 11.9016 11.5399 11.8916 11.5274C11.8891 11.5224 11.8891 11.5099 11.8966 11.5124C11.9066 11.5124 11.9141 11.5174 11.9141 11.5274C11.9166 11.5324 11.9266 11.5299 11.9316 11.5299C11.9391 11.5299 11.9466 11.5249 11.9466 11.5149C11.9466 11.5049 11.9416 11.4899 11.9341 11.4824C11.9291 11.4724 11.9166 11.4649 11.9041 11.4649L11.8816 11.4674C11.8741 11.4674 11.8741 11.4599 11.8716 11.4549C11.8651 11.4394 11.8593 11.4235 11.8541 11.4074C11.8541 11.4074 11.8566 11.4024 11.8591 11.4049H11.8566ZM12.0291 11.4299C12.0241 11.4199 12.0191 11.4074 12.0066 11.4049C12.0016 11.4049 11.9891 11.3999 11.9966 11.3949H12.0366C12.0538 11.3894 12.0725 11.3903 12.0891 11.3974C12.1083 11.4032 12.1255 11.4142 12.1387 11.4292C12.152 11.4443 12.1608 11.4627 12.1641 11.4824C12.1641 11.4974 12.1616 11.5124 12.1466 11.5199C12.1291 11.5324 12.1066 11.5299 12.0866 11.5299L12.0541 11.5349C12.0466 11.5349 12.0441 11.5224 12.0541 11.5224C12.0641 11.5224 12.0616 11.5124 12.0591 11.5049L12.0291 11.4299ZM12.0791 11.4899C12.0841 11.4999 12.0866 11.5099 12.0941 11.5149C12.1016 11.5199 12.1091 11.5174 12.1191 11.5149C12.1291 11.5149 12.1341 11.5024 12.1341 11.4924C12.1333 11.4736 12.1273 11.4554 12.1166 11.4399C12.112 11.4315 12.1055 11.4243 12.0977 11.4186C12.09 11.413 12.081 11.4092 12.0716 11.4074C12.0633 11.406 12.0549 11.406 12.0466 11.4074V11.4149L12.0791 11.4899ZM12.2391 11.3849C12.2466 11.3849 12.2491 11.3924 12.2516 11.3974C12.2516 11.4049 12.2566 11.4099 12.2591 11.4174C12.2541 11.4249 12.2466 11.4174 12.2441 11.4099C12.2416 11.4049 12.2366 11.3974 12.2291 11.3974C12.2183 11.3967 12.2074 11.3967 12.1966 11.3974C12.1916 11.4024 12.1966 11.4099 12.1966 11.4124L12.2116 11.4474C12.2191 11.4474 12.2266 11.4474 12.2316 11.4424C12.2366 11.4374 12.2266 11.4249 12.2366 11.4274C12.2466 11.4274 12.2441 11.4399 12.2466 11.4474L12.2591 11.4749C12.2566 11.4849 12.2466 11.4749 12.2441 11.4674C12.2416 11.4599 12.2316 11.4599 12.2241 11.4599C12.2191 11.4599 12.2141 11.4599 12.2191 11.4649L12.2341 11.5024C12.2391 11.5124 12.2516 11.5099 12.2591 11.5099C12.2691 11.5099 12.2791 11.5099 12.2841 11.5024C12.2891 11.4974 12.2791 11.4874 12.2841 11.4824C12.2941 11.4824 12.2966 11.4899 12.2966 11.4949L12.3041 11.5199C12.3041 11.5224 12.2966 11.5199 12.2941 11.5199L12.2166 11.5249C12.2091 11.5249 12.1991 11.5299 12.1941 11.5249C12.1891 11.5124 12.2066 11.5174 12.2091 11.5099L12.2016 11.4874L12.1741 11.4149C12.1691 11.4074 12.1641 11.3999 12.1541 11.3974C12.1491 11.3974 12.1391 11.3974 12.1441 11.3874H12.1691L12.2391 11.3849ZM11.5591 11.7424C11.5616 11.7549 11.5741 11.7599 11.5841 11.7624C11.6041 11.7674 11.6266 11.7749 11.6391 11.7899C11.6466 11.7999 11.6516 11.8124 11.6516 11.8249C11.6516 11.8374 11.6391 11.8474 11.6266 11.8499C11.6126 11.8541 11.5975 11.8532 11.5841 11.8474C11.5791 11.8449 11.5816 11.8574 11.5741 11.8524C11.5666 11.8499 11.5691 11.8399 11.5641 11.8324C11.5621 11.824 11.5596 11.8156 11.5566 11.8074C11.5566 11.7999 11.5666 11.8074 11.5691 11.8124C11.5766 11.8274 11.5916 11.8374 11.6091 11.8399C11.6191 11.8399 11.6291 11.8349 11.6291 11.8249C11.6291 11.8124 11.6191 11.7999 11.6091 11.7949C11.5916 11.7874 11.5741 11.7849 11.5591 11.7749C11.552 11.7708 11.546 11.765 11.5416 11.7581C11.5372 11.7511 11.5347 11.7431 11.5341 11.7349C11.5341 11.7249 11.5441 11.7149 11.5541 11.7124C11.5671 11.7082 11.5811 11.7082 11.5941 11.7124C11.5991 11.7124 11.6016 11.7049 11.6091 11.7099C11.6091 11.7149 11.6091 11.7199 11.6141 11.7249L11.6216 11.7474C11.6166 11.7524 11.6091 11.7474 11.6091 11.7424C11.6016 11.7324 11.5941 11.7224 11.5841 11.7224C11.5741 11.7224 11.5641 11.7224 11.5591 11.7299V11.7424ZM11.7241 11.6999C11.7341 11.6999 11.7341 11.7074 11.7366 11.7124C11.7366 11.7199 11.7416 11.7274 11.7441 11.7324C11.7391 11.7399 11.7316 11.7324 11.7291 11.7274C11.7266 11.7224 11.7216 11.7149 11.7116 11.7149H11.6816C11.6766 11.7199 11.6816 11.7249 11.6816 11.7299L11.6941 11.7649C11.7016 11.7649 11.7091 11.7649 11.7141 11.7599C11.7191 11.7549 11.7091 11.7449 11.7166 11.7424C11.7266 11.7424 11.7266 11.7524 11.7291 11.7599C11.7291 11.7699 11.7366 11.7799 11.7416 11.7924C11.7366 11.7999 11.7266 11.7924 11.7266 11.7849C11.7241 11.7774 11.7141 11.7749 11.7066 11.7774C11.7016 11.7774 11.6966 11.7774 11.6991 11.7824L11.7141 11.8199C11.7166 11.8274 11.7241 11.8274 11.7316 11.8274C11.7416 11.8274 11.7541 11.8274 11.7616 11.8199C11.7666 11.8149 11.7616 11.8049 11.7616 11.7999C11.7691 11.7949 11.7766 11.7999 11.7766 11.8074L11.7816 11.8324C11.7816 11.8374 11.7741 11.8374 11.7716 11.8374L11.6966 11.8424C11.6866 11.8424 11.6766 11.8499 11.6716 11.8424C11.6716 11.8324 11.6841 11.8349 11.6866 11.8274C11.6866 11.8199 11.6866 11.8149 11.6816 11.8074L11.6566 11.7324C11.6566 11.7249 11.6491 11.7174 11.6391 11.7174C11.6341 11.7174 11.6241 11.7124 11.6291 11.7074H11.6541L11.7241 11.6999ZM11.8291 11.8049C11.8316 11.8124 11.8366 11.8199 11.8441 11.8224C11.8516 11.8224 11.8616 11.8199 11.8641 11.8274C11.8641 11.8374 11.8516 11.8324 11.8466 11.8324C11.8332 11.8316 11.8198 11.8324 11.8066 11.8349C11.8016 11.8349 11.7941 11.8399 11.7916 11.8324C11.7916 11.8224 11.8041 11.8274 11.8066 11.8224L11.8041 11.8024L11.7791 11.7274C11.7741 11.7199 11.7716 11.7099 11.7616 11.7099C11.7566 11.7099 11.7466 11.7099 11.7491 11.6999C11.7516 11.6949 11.7616 11.6999 11.7666 11.6999C11.7841 11.6999 11.8016 11.6924 11.8216 11.6949C11.8308 11.6956 11.8396 11.6987 11.8471 11.704C11.8546 11.7093 11.8605 11.7165 11.8641 11.7249C11.8691 11.7349 11.8691 11.7499 11.8641 11.7574C11.8516 11.7674 11.8366 11.7699 11.8216 11.7724C11.8166 11.7724 11.8216 11.7774 11.8216 11.7799L11.8291 11.8049ZM11.8166 11.7599H11.8316C11.8391 11.7574 11.8441 11.7499 11.8416 11.7424C11.8406 11.7314 11.8362 11.7209 11.8291 11.7124C11.8216 11.7049 11.8091 11.7049 11.8016 11.7074C11.7966 11.7099 11.8016 11.7149 11.8016 11.7199L11.8141 11.7599H11.8166ZM11.9691 11.7974C11.9691 11.8024 11.9741 11.8124 11.9816 11.8124C11.9866 11.8124 11.9991 11.8124 11.9991 11.8199C11.9991 11.8274 11.9866 11.8249 11.9816 11.8249C11.9682 11.8242 11.9548 11.8251 11.9416 11.8274C11.9366 11.8274 11.9291 11.8274 11.9291 11.8199C11.9341 11.8149 11.9466 11.8199 11.9466 11.8099L11.9391 11.7799L11.9141 11.7074C11.9141 11.6999 11.9041 11.6999 11.8966 11.7024C11.8916 11.7024 11.8816 11.7024 11.8791 11.7099V11.7299C11.8741 11.7349 11.8691 11.7299 11.8691 11.7224C11.8665 11.7138 11.8631 11.7055 11.8591 11.6974C11.8591 11.6899 11.8666 11.6899 11.8716 11.6899L11.9741 11.6849C11.9816 11.6849 11.9866 11.6899 11.9866 11.6974L11.9966 11.7224C11.9941 11.7274 11.9841 11.7224 11.9841 11.7174C11.9791 11.7099 11.9716 11.6999 11.9591 11.6974C11.9541 11.6974 11.9466 11.6974 11.9391 11.7024L11.9441 11.7174L11.9691 11.7974ZM12.0216 11.7149C12.0191 11.7074 12.0166 11.6974 12.0066 11.6949C12.0016 11.6949 11.9916 11.6949 11.9916 11.6849C11.9941 11.6799 12.0016 11.6849 12.0066 11.6849L12.0516 11.6799C12.0591 11.6774 12.0641 11.6899 12.0566 11.6899C12.0491 11.6899 12.0416 11.6949 12.0441 11.7024L12.0566 11.7424L12.0741 11.7974C12.0741 11.8024 12.0816 11.8074 12.0866 11.8074C12.0941 11.8074 12.1041 11.8074 12.1016 11.8174H12.0841L12.0441 11.8224C12.0391 11.8224 12.0316 11.8174 12.0341 11.8124C12.0391 11.8099 12.0491 11.8124 12.0491 11.8024L12.0416 11.7724L12.0216 11.7149ZM12.1666 11.6749C12.1741 11.6749 12.1741 11.6824 12.1766 11.6874L12.1816 11.7074C12.1791 11.7149 12.1691 11.7074 12.1691 11.7024C12.1666 11.6949 12.1616 11.6874 12.1516 11.6874C12.1416 11.6868 12.1316 11.6868 12.1216 11.6874C12.1166 11.6924 12.1216 11.6999 12.1216 11.7024L12.1341 11.7374C12.1391 11.7374 12.1466 11.7374 12.1541 11.7324C12.1591 11.7274 12.1491 11.7174 12.1566 11.7149C12.1666 11.7149 12.1666 11.7274 12.1666 11.7324L12.1791 11.7649C12.1766 11.7724 12.1666 11.7649 12.1666 11.7599C12.1641 11.7524 12.1541 11.7499 12.1466 11.7499C12.1441 11.7499 12.1341 11.7499 12.1391 11.7549L12.1516 11.7924C12.1541 11.7999 12.1616 11.8024 12.1691 11.7999C12.1791 11.7999 12.1916 11.7999 12.1991 11.7949C12.2041 11.7899 12.1991 11.7799 12.2016 11.7724C12.2091 11.7674 12.2141 11.7749 12.2141 11.7824C12.2161 11.7909 12.2186 11.7992 12.2216 11.8074C12.2216 11.8124 12.2141 11.8124 12.2091 11.8124L12.1341 11.8149C12.1266 11.8149 12.1166 11.8199 12.1091 11.8149C12.1066 11.8049 12.1216 11.8074 12.1241 11.8024C12.1251 11.7991 12.1254 11.7956 12.125 11.7922C12.1245 11.7887 12.1234 11.7854 12.1216 11.7824L12.0966 11.7074C12.0966 11.6999 12.0891 11.6899 12.0791 11.6899C12.0741 11.6899 12.0641 11.6849 12.0691 11.6799H12.0941L12.1666 11.6749ZM12.2166 11.6999C12.2141 11.6899 12.2066 11.6824 12.1966 11.6824C12.1891 11.6849 12.1841 11.6674 12.1966 11.6724H12.2341L12.2516 11.6949L12.3041 11.7674V11.7599L12.3141 11.6699C12.3191 11.6649 12.3316 11.6699 12.3391 11.6649C12.3466 11.6649 12.3641 11.6649 12.3591 11.6749C12.3491 11.6749 12.3391 11.6799 12.3441 11.6899L12.3741 11.7799C12.3741 11.7899 12.3841 11.7949 12.3941 11.7924C12.4016 11.7924 12.4016 11.8074 12.3941 11.8049H12.3491C12.3416 11.8074 12.3291 11.8074 12.3341 11.7974C12.3416 11.7974 12.3541 11.7924 12.3466 11.7824L12.3216 11.7024C12.3241 11.7049 12.3216 11.7099 12.3216 11.7124L12.3166 11.7874L12.3141 11.8074C12.3066 11.8099 12.3041 11.8049 12.3016 11.7999L12.2291 11.7074L12.2341 11.7149C12.2416 11.7399 12.2466 11.7649 12.2566 11.7874C12.2566 11.7974 12.2691 11.7999 12.2766 11.7999C12.2866 11.8049 12.2791 11.8124 12.2716 11.8099H12.2341C12.2266 11.8099 12.2266 11.7999 12.2341 11.7999C12.2466 11.7999 12.2441 11.7874 12.2391 11.7799L12.2141 11.6974L12.2166 11.6999ZM12.4341 11.7199C12.4341 11.7249 12.4441 11.7199 12.4466 11.7199C12.4541 11.7199 12.4641 11.7199 12.4641 11.7099C12.4641 11.6974 12.4591 11.6849 12.4516 11.6799C12.4416 11.6724 12.4316 11.6749 12.4216 11.6749L12.4241 11.6874L12.4341 11.7199ZM12.4466 11.7599L12.4566 11.7849C12.4641 11.7899 12.4716 11.7874 12.4791 11.7874C12.4841 11.7874 12.4916 11.7824 12.4891 11.7749C12.4891 11.7599 12.4816 11.7424 12.4666 11.7374C12.4584 11.7357 12.4498 11.7357 12.4416 11.7374V11.7449L12.4466 11.7599ZM12.3991 11.6999C12.3966 11.6899 12.3941 11.6799 12.3841 11.6749C12.3791 11.6749 12.3691 11.6749 12.3691 11.6674C12.3691 11.6599 12.3816 11.6674 12.3866 11.6649C12.4116 11.6649 12.4316 11.6574 12.4541 11.6649C12.4716 11.6699 12.4866 11.6874 12.4866 11.7049C12.4866 11.7149 12.4791 11.7224 12.4691 11.7274C12.4691 11.7224 12.4791 11.7274 12.4816 11.7274C12.4941 11.7324 12.5066 11.7424 12.5116 11.7549C12.5166 11.7674 12.5191 11.7799 12.5116 11.7899C12.5016 11.7999 12.4866 11.7999 12.4741 11.7999L12.4166 11.8024C12.4091 11.8024 12.4066 11.7899 12.4166 11.7924C12.4241 11.7924 12.4266 11.7824 12.4216 11.7749L12.3991 11.6999ZM12.5241 11.6949C12.5241 11.6874 12.5191 11.6749 12.5091 11.6699C12.5041 11.6699 12.4941 11.6699 12.4941 11.6624C12.4991 11.6549 12.5091 11.6624 12.5191 11.6599H12.5691C12.5891 11.6599 12.6066 11.6749 12.6116 11.6949C12.6166 11.7049 12.6116 11.7199 12.6041 11.7249L12.5916 11.7299C12.6066 11.7349 12.6191 11.7474 12.6266 11.7599L12.6391 11.7799C12.6466 11.7849 12.6466 11.7774 12.6466 11.7724C12.6566 11.7674 12.6616 11.7799 12.6566 11.7874C12.6541 11.7974 12.6391 11.7999 12.6316 11.7974C12.6216 11.7974 12.6166 11.7899 12.6116 11.7824L12.5866 11.7399C12.5836 11.7371 12.58 11.7352 12.576 11.7343C12.5721 11.7335 12.568 11.7337 12.5641 11.7349V11.7474L12.5766 11.7749C12.5791 11.7849 12.5891 11.7849 12.5966 11.7874C12.6066 11.7874 12.6066 11.7999 12.5966 11.7974H12.5516C12.5466 11.7974 12.5366 11.8024 12.5341 11.7974C12.5291 11.7849 12.5441 11.7899 12.5491 11.7824L12.5441 11.7624L12.5241 11.6949ZM12.5566 11.7199C12.5591 11.7249 12.5716 11.7199 12.5766 11.7199C12.5841 11.7199 12.5891 11.7124 12.5866 11.7074C12.5866 11.6949 12.5816 11.6824 12.5741 11.6749C12.5666 11.6699 12.5566 11.6699 12.5491 11.6724C12.5441 11.6724 12.5466 11.6799 12.5491 11.6849L12.5566 11.7174V11.7199ZM12.7316 11.6549C12.7366 11.6549 12.7391 11.6624 12.7391 11.6674C12.7391 11.6749 12.7441 11.6799 12.7466 11.6874C12.7416 11.6949 12.7341 11.6874 12.7341 11.6824C12.7291 11.6774 12.7266 11.6674 12.7166 11.6674C12.7058 11.6667 12.6949 11.6667 12.6841 11.6674C12.6791 11.6699 12.6841 11.6774 12.6841 11.6824L12.6941 11.7149H12.7141C12.7216 11.7099 12.7116 11.6974 12.7191 11.6949C12.7291 11.6949 12.7291 11.7049 12.7291 11.7124C12.7291 11.7224 12.7366 11.7349 12.7391 11.7449C12.7366 11.7524 12.7266 11.7449 12.7266 11.7399C12.7266 11.7324 12.7166 11.7274 12.7091 11.7299C12.7066 11.7299 12.6966 11.7249 12.6991 11.7299L12.7116 11.7724C12.7116 11.7799 12.7216 11.7799 12.7291 11.7799C12.7391 11.7799 12.7516 11.7799 12.7591 11.7749C12.7666 11.7699 12.7591 11.7599 12.7616 11.7549C12.7691 11.7499 12.7766 11.7549 12.7741 11.7624L12.7791 11.7874C12.7791 11.7924 12.7716 11.7924 12.7691 11.7924H12.6916C12.6841 11.7924 12.6766 11.7974 12.6716 11.7924C12.6641 11.7824 12.6791 11.7849 12.6816 11.7799C12.6866 11.7749 12.6816 11.7674 12.6816 11.7624L12.6591 11.6849C12.6591 11.6774 12.6516 11.6674 12.6441 11.6674C12.6366 11.6674 12.6291 11.6649 12.6316 11.6574H12.6566L12.7316 11.6549ZM11.9091 11.9824C11.9066 11.9724 11.9041 11.9624 11.8941 11.9574C11.8866 11.9574 11.8766 11.9574 11.8816 11.9499C11.8891 11.9449 11.8966 11.9499 11.9066 11.9474C11.9266 11.9474 11.9466 11.9424 11.9666 11.9474C11.9815 11.9505 11.9953 11.9575 12.0067 11.9676C12.0181 11.9776 12.0267 11.9905 12.0316 12.0049C12.0366 12.0249 12.0391 12.0449 12.0266 12.0624C12.0141 12.0774 11.9916 12.0824 11.9716 12.0824C11.9541 12.0824 11.9391 12.0824 11.9241 12.0874C11.9191 12.0899 11.9091 12.0849 11.9141 12.0774C11.9216 12.0774 11.9316 12.0724 11.9291 12.0649L11.9191 12.0274L11.9091 11.9824ZM11.9491 12.0449C11.9516 12.0524 11.9541 12.0624 11.9591 12.0674C11.9666 12.0724 11.9766 12.0699 11.9841 12.0674C11.9941 12.0674 12.0041 12.0574 12.0066 12.0449C12.0086 12.026 12.0051 12.0069 11.9966 11.9899C11.9934 11.9822 11.9882 11.9754 11.9817 11.9701C11.9751 11.9649 11.9674 11.9614 11.9591 11.9599C11.95 11.9582 11.9407 11.9582 11.9316 11.9599C11.9291 11.9599 11.9316 11.9649 11.9316 11.9699L11.9491 12.0449ZM12.1266 11.9324C12.1341 11.9324 12.1341 11.9399 12.1366 11.9449L12.1416 11.9674C12.1391 11.9724 12.1291 11.9674 12.1291 11.9624C12.1266 11.9549 12.1216 11.9474 12.1141 11.9474C12.1033 11.9467 12.0924 11.9467 12.0816 11.9474C12.0766 11.9499 12.0816 11.9574 12.0816 11.9624C12.0816 11.9749 12.0866 11.9874 12.0891 11.9974C12.0966 11.9974 12.1041 11.9974 12.1091 11.9924C12.1141 11.9874 12.1066 11.9774 12.1141 11.9749C12.1241 11.9749 12.1216 11.9874 12.1241 11.9924C12.1241 12.0024 12.1316 12.0124 12.1316 12.0249C12.1316 12.0324 12.1191 12.0249 12.1191 12.0199C12.1191 12.0099 12.1091 12.0074 12.1016 12.0099C12.0991 12.0099 12.0891 12.0074 12.0941 12.0124C12.0941 12.0249 12.0991 12.0374 12.1041 12.0524C12.1041 12.0599 12.1141 12.0599 12.1216 12.0599C12.1316 12.0599 12.1441 12.0599 12.1516 12.0524C12.1566 12.0474 12.1516 12.0374 12.1566 12.0324C12.1641 12.0274 12.1666 12.0349 12.1666 12.0424C12.1666 12.0499 12.1666 12.0574 12.1716 12.0674L12.1591 12.0699L12.0841 12.0749C12.0766 12.0749 12.0691 12.0799 12.0616 12.0749C12.0566 12.0699 12.0641 12.0649 12.0716 12.0649C12.0791 12.0624 12.0766 12.0524 12.0766 12.0474L12.0566 11.9674C12.0541 11.9599 12.0491 11.9499 12.0416 11.9499C12.0341 11.9499 12.0266 11.9474 12.0291 11.9399L12.0541 11.9374L12.1266 11.9324ZM12.2891 12.0349C12.2891 12.0424 12.2966 12.0499 12.3041 12.0499C12.3091 12.0524 12.3191 12.0499 12.3216 12.0574C12.3241 12.0649 12.3116 12.0624 12.3066 12.0624L12.2641 12.0649C12.2566 12.0649 12.2491 12.0674 12.2441 12.0649C12.2366 12.0649 12.2391 12.0549 12.2466 12.0549C12.2541 12.0549 12.2616 12.0524 12.2641 12.0449L12.2616 12.0249L12.2441 11.9549C12.2441 11.9474 12.2341 11.9474 12.2291 11.9474C12.2241 11.9474 12.2141 11.9524 12.2116 11.9449C12.2116 11.9349 12.2241 11.9374 12.2291 11.9349L12.2566 11.9249C12.2616 11.9249 12.2641 11.9274 12.2641 11.9324L12.2891 12.0349ZM12.3816 11.9524C12.3816 11.9424 12.3741 11.9324 12.3641 11.9324C12.3566 11.9324 12.3466 11.9324 12.3441 11.9399C12.3432 11.9446 12.3437 11.9495 12.3454 11.9539C12.3472 11.9583 12.3502 11.9622 12.3541 11.9649L12.3766 11.9774L12.3816 11.9624C12.3821 11.9591 12.3821 11.9557 12.3816 11.9524ZM12.4016 12.0274C12.4016 12.0124 12.3891 12.0049 12.3766 12.0024C12.3716 12.0024 12.3666 11.9949 12.3641 11.9974C12.3602 12.0002 12.3572 12.004 12.3554 12.0085C12.3537 12.0129 12.3532 12.0177 12.3541 12.0224C12.3591 12.0374 12.3666 12.0474 12.3791 12.0474C12.3891 12.0499 12.3991 12.0474 12.4041 12.0374C12.4052 12.0333 12.4052 12.029 12.4041 12.0249L12.4016 12.0274ZM12.4266 12.0199C12.4279 12.0262 12.4272 12.0328 12.4245 12.0387C12.4218 12.0445 12.4173 12.0493 12.4116 12.0524C12.4041 12.0568 12.3958 12.0596 12.3871 12.0604C12.3785 12.0613 12.3698 12.0603 12.3616 12.0574C12.3541 12.0553 12.3473 12.0511 12.342 12.0454C12.3367 12.0397 12.3331 12.0326 12.3316 12.0249C12.3316 12.0149 12.3341 11.9999 12.3466 11.9924C12.3466 11.9924 12.3566 11.9899 12.3491 11.9874C12.3366 11.9824 12.3241 11.9724 12.3241 11.9574C12.3191 11.9449 12.3241 11.9324 12.3366 11.9249C12.3477 11.9192 12.3605 11.9179 12.3725 11.9211C12.3845 11.9243 12.3949 11.9319 12.4016 11.9424C12.4066 11.9524 12.4066 11.9649 12.4016 11.9724L12.3866 11.9849C12.3991 11.9849 12.4116 11.9949 12.4166 12.0049C12.4216 12.0074 12.4241 12.0149 12.4241 12.0199H12.4266ZM12.5066 12.0324C12.5116 12.0324 12.5191 12.0324 12.5191 12.0224C12.5216 12.0199 12.5191 12.0074 12.5266 12.0099C12.5341 12.0099 12.5316 12.0174 12.5341 12.0249C12.5341 12.0349 12.5341 12.0449 12.5241 12.0524C12.5191 12.0574 12.5116 12.0549 12.5041 12.0549H12.4616C12.4566 12.0549 12.4491 12.0599 12.4441 12.0549C12.4391 12.0499 12.4441 12.0424 12.4441 12.0374C12.4491 12.0199 12.4591 12.0074 12.4691 11.9974C12.4791 11.9899 12.4891 11.9824 12.4916 11.9699C12.4923 11.9594 12.4897 11.9489 12.4841 11.9399C12.4823 11.9371 12.48 11.9347 12.4773 11.9328C12.4745 11.9308 12.4714 11.9295 12.4682 11.9288C12.4649 11.9281 12.4615 11.9281 12.4583 11.9287C12.455 11.9293 12.4519 11.9306 12.4491 11.9324C12.4416 11.9349 12.4391 11.9449 12.4416 11.9499C12.4466 11.9549 12.4566 11.9499 12.4591 11.9599C12.4641 11.9649 12.4591 11.9749 12.4516 11.9749C12.4416 11.9749 12.4316 11.9674 12.4266 11.9574C12.4247 11.9508 12.4251 11.9436 12.4278 11.9372C12.4306 11.9309 12.4354 11.9256 12.4416 11.9224C12.4541 11.9149 12.4691 11.9149 12.4841 11.9174C12.4966 11.9224 12.5091 11.9324 12.5141 11.9474C12.5166 11.9574 12.5166 11.9699 12.5116 11.9799C12.5016 11.9974 12.4841 12.0049 12.4691 12.0224C12.4666 12.0249 12.4641 12.0299 12.4666 12.0374C12.4666 12.0299 12.4766 12.0324 12.4791 12.0324H12.5041H12.5066ZM12.6066 12.0224C12.6066 12.0299 12.6116 12.0374 12.6191 12.0399C12.6241 12.0399 12.6341 12.0399 12.6366 12.0449C12.6391 12.0524 12.6291 12.0524 12.6241 12.0524H12.5566C12.5516 12.0499 12.5566 12.0399 12.5616 12.0424C12.5691 12.0424 12.5766 12.0399 12.5791 12.0324V12.0124L12.5616 11.9424C12.5616 11.9349 12.5541 11.9349 12.5491 11.9349C12.5416 11.9349 12.5341 11.9399 12.5316 11.9349C12.5266 11.9224 12.5391 11.9249 12.5441 11.9224L12.5741 11.9124C12.5791 11.9124 12.5816 11.9149 12.5841 11.9199L12.6041 12.0224H12.6066Z" fill="#B07E09"/>
<path d="M11.8945 9.98486L11.7995 10.0999C11.7695 10.2299 11.8445 10.3299 11.992 10.4149C12.1095 10.4899 12.3295 10.5074 12.3995 10.4474L12.057 10.1224L11.8945 9.98736V9.98486Z" fill="url(#paint9_radial_208_20887)" stroke="#4C0505" stroke-width="0.0133332"/>
<path d="M12.5892 13.3574C12.5726 13.3364 12.5559 13.3156 12.5392 13.2949C12.3221 13.5899 12.043 13.834 11.7217 14.0099C12.0992 13.9024 12.3467 13.6299 12.5892 13.3574ZM12.1992 14.2498C12.3399 13.9747 12.4917 13.7053 12.6542 13.4424C12.6368 13.4197 12.6193 13.3972 12.6017 13.3749C12.4192 13.6799 12.2017 14.0424 12.2017 14.2498H12.1992ZM13.2492 11.3874C13.2254 11.2754 13.1894 11.1664 13.1417 11.0624C12.8737 10.6104 12.4974 10.2324 12.0467 9.96238V9.95488H12.0542L12.0492 9.95238H12.0617L12.0567 9.94488H12.0667L12.0592 9.93488H12.0692L12.0617 9.92738H12.0742L12.0667 9.91738H12.0767L12.0667 9.90988L12.0817 9.90738L12.0692 9.89988L12.0817 9.89738L12.0717 9.88988L12.0867 9.88488L12.0742 9.87738L12.0892 9.86988L12.0742 9.85988L12.0917 9.85488L12.0742 9.84738L12.0892 9.83738H12.0692L12.0817 9.81988H12.0642L12.0717 9.80738H12.0567L12.0642 9.79488L12.0467 9.79738L12.0542 9.78238L12.0392 9.79238L12.0442 9.77488L12.0267 9.78488L12.0292 9.76738L12.0167 9.77988V9.76238L12.0042 9.77488V9.75738L11.9917 9.77238V9.75488L11.9817 9.76988L11.9767 9.75238L11.9692 9.76738L11.9642 9.74988L11.9567 9.76988L11.9517 9.74988L11.9442 9.76988L11.9392 9.75238L11.9342 9.76738L11.9317 9.75488L11.9242 9.77238L11.9192 9.75488L11.9142 9.77488L11.9067 9.75738L11.9017 9.77738L11.8942 9.75988V9.77988L11.8842 9.76488V9.78488L11.8717 9.76988V9.78738L11.8617 9.77988L11.8667 9.79738L11.8542 9.78988L11.8592 9.80738L11.8492 9.79988L11.8517 9.81488H11.8417L11.8467 9.82488H11.8392L11.8442 9.83488C11.8351 9.8631 11.8317 9.89284 11.8342 9.92238C11.8342 9.92738 11.8492 9.93238 11.8517 9.93738C11.8592 9.94738 11.8567 9.95238 11.8567 9.95238C11.8167 10.0174 11.7817 10.0674 11.7792 10.1424C11.8092 10.1024 11.8442 10.0524 11.8892 10.0524C11.8667 10.0899 11.8567 10.2049 11.8817 10.2249L11.9017 10.1899C11.9017 10.2149 11.9042 10.2349 11.9117 10.2474L11.9367 10.2049C11.9367 10.2424 11.9417 10.2724 11.9517 10.2874C11.9624 10.2716 11.9759 10.2581 11.9917 10.2474C11.9867 10.2699 11.9792 10.2899 11.9817 10.3149L12.0317 10.2524C12.0217 10.2924 12.0317 10.3224 12.0417 10.3649C12.0517 10.3149 12.0567 10.3074 12.0792 10.2874C12.0817 10.3349 12.0742 10.3774 12.0842 10.4049C12.1042 10.3624 12.1192 10.3674 12.1342 10.3399C12.1292 10.3799 12.1217 10.4224 12.1342 10.4574C12.1415 10.4306 12.1584 10.4074 12.1817 10.3924C12.1817 10.4474 12.1942 10.4374 12.1617 10.4849C12.1767 10.4899 12.2242 10.4749 12.2517 10.4624C12.2392 10.4924 12.2417 10.5149 12.2292 10.5374C12.2542 10.5224 12.2792 10.4999 12.3017 10.4774C12.2917 10.5124 12.2642 10.5474 12.2767 10.5799C12.2842 10.5474 12.3092 10.5224 12.3342 10.5174C12.3292 10.5349 12.3267 10.5724 12.3017 10.5899C12.3617 10.5949 12.3867 10.5549 12.4167 10.5224C12.4142 10.5574 12.4167 10.5824 12.4567 10.6299C12.4492 10.5699 12.4617 10.5824 12.4892 10.5474C12.5042 10.5999 12.5192 10.6574 12.5742 10.6974C12.5492 10.6399 12.5492 10.6099 12.5592 10.5749C12.5667 10.6124 12.6017 10.6574 12.6092 10.6924C12.6167 10.6524 12.6217 10.6149 12.6342 10.5899C12.6525 10.6346 12.6643 10.6818 12.6692 10.7299C12.6817 10.7049 12.6917 10.6799 12.6967 10.6524C13.1917 11.1674 13.3017 11.8224 12.7617 12.5149C12.9542 12.3849 13.0042 12.1774 13.1117 11.9999C13.0067 12.2324 12.9617 12.4924 12.7742 12.6849C12.9542 12.5299 12.9917 12.3874 13.0992 12.2374C12.9867 12.5499 12.8242 12.8924 12.6042 13.2074C12.6444 13.2505 12.6844 13.2938 12.7242 13.3374L12.8242 13.1649C13.0592 12.7799 13.4417 12.2274 13.2492 11.3874Z" fill="#448127" stroke="#34541F" stroke-width="0.0133332"/>
<path d="M11.8298 9.88247C11.8048 9.88747 11.7948 9.89747 11.7773 9.91747C11.7998 9.92247 11.8173 9.92497 11.8398 9.92497C11.8448 9.92497 11.8473 9.91747 11.8473 9.90997L11.8423 9.88497C11.8423 9.87997 11.8273 9.88247 11.8223 9.88497L11.8298 9.88247Z" fill="#EAC102" stroke="#A08307" stroke-width="0.0133332"/>
<path d="M11.7744 9.91741C11.7826 9.91447 11.791 9.91197 11.7994 9.90991C11.8093 9.90762 11.8193 9.90595 11.8294 9.90491C11.8212 9.90785 11.8129 9.91035 11.8044 9.91241C11.7945 9.91468 11.7845 9.91635 11.7744 9.91741Z" fill="#A08307"/>
<path d="M11.9419 9.90499C11.9529 9.90499 11.9619 9.89604 11.9619 9.88499C11.9619 9.87394 11.9529 9.86499 11.9419 9.86499C11.9308 9.86499 11.9219 9.87394 11.9219 9.88499C11.9219 9.89604 11.9308 9.90499 11.9419 9.90499Z" fill="black" stroke="black" stroke-width="0.00666662"/>
<path d="M11.947 9.88988C11.9511 9.88988 11.9545 9.88652 11.9545 9.88238C11.9545 9.87824 11.9511 9.87488 11.947 9.87488C11.9428 9.87488 11.9395 9.87824 11.9395 9.88238C11.9395 9.88652 11.9428 9.88988 11.947 9.88988Z" fill="url(#paint10_radial_208_20887)"/>
<path d="M12.2049 14.2423C12.2164 14.2053 12.2289 14.1686 12.2424 14.1323C12.2565 14.0953 12.2715 14.0586 12.2874 14.0223C12.3174 13.9498 12.3549 13.8798 12.3899 13.8123C12.4275 13.7431 12.4666 13.6747 12.5074 13.6073C12.5272 13.5739 12.5472 13.5405 12.5674 13.5073L12.6299 13.4073L12.5699 13.5073C12.5497 13.5414 12.5297 13.5755 12.5099 13.6098L12.3949 13.8148C12.3575 13.8836 12.3224 13.9536 12.2899 14.0248C12.2741 14.0603 12.2591 14.0961 12.2449 14.1323C12.2305 14.1686 12.2172 14.2053 12.2049 14.2423ZM11.7324 14.0048C11.7748 13.9872 11.8165 13.968 11.8574 13.9473C11.8966 13.9262 11.9349 13.9037 11.9724 13.8798C12.0498 13.8313 12.1233 13.777 12.1924 13.7173C12.2605 13.659 12.3248 13.5963 12.3849 13.5298C12.4157 13.4964 12.4457 13.4622 12.4749 13.4273L12.5599 13.3198C12.5331 13.3561 12.5055 13.392 12.4774 13.4273C12.4483 13.4631 12.4183 13.4981 12.3874 13.5323C12.3275 13.5998 12.2632 13.6633 12.1949 13.7223C12.1258 13.7813 12.0523 13.8348 11.9749 13.8823C11.9366 13.9055 11.8974 13.9271 11.8574 13.9473C11.8165 13.968 11.7748 13.9872 11.7324 14.0048ZM12.6649 13.2723C12.7023 13.2175 12.7382 13.1617 12.7724 13.1048L12.8724 12.9348C12.9039 12.8769 12.9348 12.8185 12.9649 12.7598L13.0574 12.5848L13.0149 12.6723L12.9699 12.7623C12.94 12.8211 12.9091 12.8795 12.8774 12.9373C12.8455 12.9948 12.8121 13.0515 12.7774 13.1073C12.7423 13.1639 12.7047 13.219 12.6649 13.2723ZM12.8149 12.6448C12.8568 12.5942 12.8952 12.5407 12.9299 12.4848C12.9654 12.4287 12.9971 12.3702 13.0249 12.3098C13.0801 12.1898 13.122 12.064 13.1499 11.9348L13.1599 11.8848C13.1682 11.8352 13.1741 11.7851 13.1774 11.7348C13.1824 11.6691 13.1824 11.6031 13.1774 11.5373C13.1717 11.4716 13.1608 11.4064 13.1449 11.3423C13.1297 11.2776 13.1096 11.2141 13.0849 11.1523C13.1103 11.2132 13.1312 11.2759 13.1474 11.3398C13.1635 11.4047 13.1743 11.4708 13.1799 11.5373C13.1849 11.6023 13.1849 11.6698 13.1799 11.7373C13.1774 11.7876 13.1724 11.8376 13.1649 11.8873C13.1617 11.9032 13.1584 11.919 13.1549 11.9348C13.127 12.064 13.0851 12.1898 13.0299 12.3098C13.0005 12.3703 12.9671 12.4288 12.9299 12.4848C12.8944 12.5408 12.8552 12.5942 12.8124 12.6448H12.8149Z" fill="#34541F"/>
<path d="M12.7725 12.4998C12.8183 12.4559 12.8594 12.4073 12.895 12.3548C12.9306 12.3022 12.9624 12.2471 12.99 12.1898C13.0173 12.1325 13.0423 12.0741 13.065 12.0148C13.075 11.9848 13.09 11.9548 13.0975 11.9248L13.1075 11.9023L13.115 11.8798L13.13 11.8348C13.1425 11.7723 13.1475 11.7073 13.15 11.6423C13.1504 11.5779 13.1454 11.5135 13.135 11.4498C13.125 11.3873 13.11 11.3248 13.0925 11.2623C13.0737 11.2005 13.0521 11.1396 13.0275 11.0798C13.0529 11.1395 13.0754 11.2004 13.095 11.2623C13.1133 11.3238 13.1275 11.3865 13.1375 11.4498C13.1478 11.5135 13.1529 11.5779 13.1525 11.6423C13.1526 11.7069 13.1468 11.7713 13.135 11.8348L13.12 11.8823L13.1125 11.9048L13.1025 11.9273L13.07 12.0173C13.0465 12.0767 13.0206 12.135 12.9925 12.1923C12.9649 12.2496 12.9331 12.3047 12.8975 12.3573C12.8611 12.41 12.8192 12.4586 12.7725 12.5023V12.4998Z" fill="#34541F"/>
<path d="M12.625 13.2299C12.6575 13.1899 12.685 13.1474 12.715 13.1049L12.76 13.0424L12.8025 12.9799C12.8295 12.9361 12.8545 12.891 12.8775 12.8449L12.9425 12.7074C12.9875 12.6149 13.03 12.5224 13.0675 12.4249C13.1045 12.33 13.1338 12.2321 13.155 12.1324C13.175 12.0324 13.19 11.9324 13.2025 11.8299C13.2125 11.7274 13.2125 11.6249 13.2025 11.5224C13.1919 11.4201 13.1692 11.3194 13.135 11.2224C13.1003 11.1265 13.0577 11.0337 13.0075 10.9449C13.0586 11.0336 13.102 11.1265 13.1375 11.2224C13.1717 11.3194 13.1944 11.4201 13.205 11.5224C13.2175 11.6224 13.215 11.7274 13.205 11.8299C13.195 11.9299 13.18 12.0324 13.16 12.1324C13.1389 12.233 13.1096 12.3316 13.0725 12.4274C13.0348 12.5225 12.9931 12.6159 12.9475 12.7074L12.88 12.8449C12.8571 12.8911 12.8321 12.9361 12.805 12.9799C12.7925 13.0049 12.7775 13.0224 12.7625 13.0449L12.7175 13.1074L12.6275 13.2324L12.625 13.2299Z" fill="#34541F"/>
<path d="M12.695 13.3074L12.87 13.0174C12.9267 12.92 12.98 12.8208 13.03 12.7199C13.0802 12.6193 13.122 12.5148 13.155 12.4074C13.1725 12.3524 13.185 12.2999 13.1975 12.2449C13.2033 12.2167 13.2083 12.1884 13.2125 12.1599C13.2334 12.0208 13.2451 11.8805 13.2475 11.7399C13.2475 11.6274 13.2375 11.5149 13.2175 11.4049C13.1969 11.2938 13.1634 11.1856 13.1175 11.0824C13.1642 11.1855 13.1986 11.2937 13.22 11.4049C13.2402 11.5154 13.2503 11.6275 13.25 11.7399C13.25 11.8524 13.2425 11.9649 13.2275 12.0774C13.2245 12.1058 13.2212 12.1341 13.2175 12.1624C13.2133 12.19 13.2083 12.2175 13.2025 12.2449C13.1908 12.2997 13.1766 12.3539 13.16 12.4074C13.1271 12.5157 13.0853 12.621 13.035 12.7224C12.985 12.8224 12.9275 12.9224 12.8725 13.0174C12.8156 13.1141 12.7573 13.2099 12.6975 13.3049L12.695 13.3074ZM12 10.0199H12.035C12.0703 10.0268 12.1047 10.0377 12.1375 10.0524C12.18 10.0724 12.2225 10.0974 12.26 10.1274C12.2982 10.1553 12.3342 10.1863 12.3675 10.2199C12.383 10.2369 12.398 10.2544 12.4125 10.2724L12.4575 10.3299C12.4429 10.3112 12.4279 10.2929 12.4125 10.2749C12.3964 10.2577 12.3797 10.241 12.3625 10.2249C12.3299 10.1906 12.2948 10.1589 12.2575 10.1299C12.2195 10.1006 12.1784 10.0754 12.135 10.0549C12.0921 10.0363 12.0465 10.0245 12 10.0199Z" fill="#34541F"/>
<path d="M12.4096 10.2899C12.4096 10.2899 12.4846 10.3349 12.5271 10.3999C12.5271 10.3999 12.4096 10.3774 12.3271 10.2849" fill="#448127"/>
<path d="M12.4102 10.2899C12.4336 10.3032 12.4554 10.3191 12.4752 10.3374C12.496 10.355 12.5144 10.3752 12.5302 10.3974L12.5327 10.4049H12.5277C12.508 10.3999 12.4888 10.3932 12.4702 10.3849C12.4521 10.3779 12.4346 10.3695 12.4177 10.3599C12.3827 10.3399 12.3527 10.3149 12.3252 10.2849C12.353 10.313 12.3851 10.3367 12.4202 10.3549C12.4363 10.3643 12.453 10.3726 12.4702 10.3799C12.4888 10.3873 12.5081 10.3932 12.5277 10.3974V10.4024C12.5202 10.391 12.5118 10.3801 12.5027 10.3699L12.4727 10.3399C12.4631 10.3311 12.4531 10.3228 12.4427 10.3149C12.4322 10.3061 12.4214 10.2978 12.4102 10.2899Z" fill="#34541F"/>
<path d="M12.2402 10.2675C12.2402 10.2675 12.4202 10.3825 12.4452 10.3925C12.4452 10.3925 12.4052 10.305 12.3202 10.2675" fill="#448127"/>
<path d="M12.2402 10.2675L12.3427 10.33C12.3684 10.3453 12.3942 10.3603 12.4202 10.375L12.4452 10.39V10.3925C12.438 10.3793 12.4296 10.3667 12.4202 10.355L12.3927 10.32C12.382 10.309 12.3702 10.2989 12.3577 10.29L12.3202 10.2675C12.3343 10.2735 12.3478 10.281 12.3602 10.29C12.3971 10.3157 12.4271 10.35 12.4477 10.39L12.4527 10.3975L12.4452 10.395L12.3927 10.365L12.3427 10.3325C12.3082 10.3113 12.2741 10.2897 12.2402 10.2675Z" fill="#34541F"/>
<path d="M12.3125 10.21C12.3125 10.21 12.405 10.25 12.4275 10.3175C12.4275 10.3175 12.2575 10.2475 12.2275 10.21" fill="#448127"/>
<path d="M12.3125 10.21C12.3378 10.2197 12.3614 10.2332 12.3825 10.25C12.3928 10.2589 12.402 10.269 12.41 10.28L12.43 10.3175V10.3225H12.425C12.4083 10.3144 12.3916 10.306 12.375 10.2975C12.3573 10.2895 12.3398 10.2812 12.3225 10.2725C12.3056 10.2639 12.2889 10.2547 12.2725 10.245L12.2475 10.23L12.2275 10.21L12.25 10.2275L12.275 10.2425L12.325 10.2675C12.3587 10.285 12.3929 10.3017 12.4275 10.3175H12.425C12.4201 10.3056 12.4134 10.2947 12.405 10.285C12.3977 10.2741 12.3894 10.2641 12.38 10.255C12.3588 10.2369 12.3353 10.2218 12.31 10.21H12.3125Z" fill="#34541F"/>
<path d="M12.1699 10.2823C12.1699 10.2823 12.3349 10.3998 12.3849 10.3998C12.3849 10.3998 12.3349 10.3173 12.2499 10.2823" fill="#448127"/>
<path d="M12.1699 10.2824C12.2037 10.3047 12.2378 10.3264 12.2724 10.3474C12.2992 10.363 12.3267 10.3772 12.3549 10.3899L12.3849 10.3974L12.3824 10.4024C12.3661 10.3769 12.3468 10.3534 12.3249 10.3324L12.2899 10.3049C12.2773 10.2954 12.2639 10.2871 12.2499 10.2799C12.2774 10.2924 12.3049 10.3099 12.3249 10.3299C12.3491 10.35 12.3701 10.3736 12.3874 10.3999V10.4024H12.3849C12.3737 10.4019 12.3627 10.3994 12.3524 10.3949C12.3431 10.3911 12.3339 10.387 12.3249 10.3824C12.3071 10.373 12.2896 10.363 12.2724 10.3524C12.2547 10.3411 12.2372 10.3294 12.2199 10.3174C12.203 10.3061 12.1863 10.2944 12.1699 10.2824Z" fill="#34541F"/>
<path d="M12.1699 10.3175C12.1699 10.3175 12.2549 10.3925 12.3049 10.3925C12.3049 10.3925 12.2549 10.31 12.1699 10.2725" fill="#448127"/>
<path d="M12.1699 10.3175C12.19 10.3335 12.2109 10.3485 12.2324 10.3625L12.2674 10.38C12.2794 10.3851 12.292 10.3885 12.3049 10.39L12.3024 10.3925C12.2949 10.3802 12.2866 10.3685 12.2774 10.3575C12.2579 10.3336 12.2352 10.3126 12.2099 10.295C12.1972 10.2864 12.1839 10.2788 12.1699 10.2725C12.1974 10.285 12.2249 10.3 12.2449 10.3225C12.2689 10.3419 12.2899 10.3646 12.3074 10.39V10.395H12.3049C12.2899 10.395 12.2799 10.39 12.2649 10.385C12.2528 10.3791 12.2411 10.3724 12.2299 10.365L12.1999 10.3425C12.1896 10.3346 12.1795 10.3262 12.1699 10.3175Z" fill="#34541F"/>
<path d="M12.125 10.1549C12.125 10.1549 12.305 10.2824 12.325 10.3524C12.325 10.3524 12.165 10.2774 12.135 10.2399" fill="#448127"/>
<path d="M12.125 10.1549C12.1446 10.1685 12.1637 10.1827 12.1825 10.1974C12.2012 10.2119 12.2196 10.2269 12.2375 10.2424C12.2551 10.2581 12.2718 10.2748 12.2875 10.2924L12.3125 10.3174L12.33 10.3524V10.3574L12.325 10.3549C12.3082 10.3468 12.2915 10.3385 12.275 10.3299C12.2581 10.3219 12.2415 10.3136 12.225 10.3049C12.2088 10.2954 12.193 10.2854 12.1775 10.2749C12.1689 10.2694 12.1606 10.2636 12.1525 10.2574C12.146 10.2523 12.1401 10.2464 12.135 10.2399L12.155 10.2574C12.1793 10.2727 12.2043 10.2869 12.23 10.2999C12.2629 10.3174 12.2962 10.3341 12.33 10.3499L12.325 10.3524C12.3207 10.3416 12.3148 10.3315 12.3075 10.3224C12.3005 10.3128 12.293 10.3036 12.285 10.2949L12.235 10.2449C12.2179 10.2286 12.2004 10.2128 12.1825 10.1974C12.1636 10.1829 12.1444 10.1687 12.125 10.1549Z" fill="#34541F"/>
<path d="M11.1243 13.7575C10.9671 13.8398 10.7916 13.881 10.6143 13.8775C10.8643 13.6725 11.1068 13.6675 11.1243 13.7575ZM12.8692 13.87C12.9992 13.9875 13.3942 14.07 13.4567 14.055C13.1917 13.7875 12.9042 13.76 12.8692 13.87Z" fill="#406325" stroke="#24420E" stroke-width="0.0133332"/>
<path d="M11.1243 13.7575C11.1068 13.665 10.8618 13.67 10.6143 13.8775C10.7772 13.8119 10.9492 13.7714 11.1243 13.7575ZM12.8717 13.8675C12.9067 13.7575 13.1917 13.785 13.4567 14.055C13.272 13.9641 13.0749 13.9009 12.8717 13.8675Z" fill="#67923D" stroke="#24420E" stroke-width="0.0133332"/>
</g>
<defs>
<radialGradient id="paint0_radial_208_20887" cx="0" cy="0" r="1" gradientUnits="userSpaceOnUse" gradientTransform="translate(11.1844 12.2074) scale(0.412498)">
<stop offset="0.2" stop-color="#F9F0AA"/>
<stop offset="1" stop-color="#B07E09"/>
</radialGradient>
<radialGradient id="paint1_radial_208_20887" cx="0" cy="0" r="1" gradientUnits="userSpaceOnUse" gradientTransform="translate(11.2893 12.3249) scale(0.272498)">
<stop offset="0.2" stop-color="#F9F0AA"/>
<stop offset="1" stop-color="#B07E09"/>
</radialGradient>
<radialGradient id="paint2_radial_208_20887" cx="0" cy="0" r="1" gradientUnits="userSpaceOnUse" gradientTransform="translate(11.3523 12.2149) scale(0.244999)">
<stop offset="0.2" stop-color="#F9F0AA"/>
<stop offset="1" stop-color="#B07E09"/>
</radialGradient>
<radialGradient id="paint3_radial_208_20887" cx="0" cy="0" r="1" gradientUnits="userSpaceOnUse" gradientTransform="translate(11.4595 12.1774) scale(0.434997)">
<stop offset="0.2" stop-color="#F9F0AA"/>
<stop offset="1" stop-color="#B07E09"/>
</radialGradient>
<linearGradient id="paint4_linear_208_20887" x1="11.847" y1="10.98" x2="11.8095" y2="10.3" gradientUnits="userSpaceOnUse">
<stop offset="0.2" stop-color="#B07E09" stop-opacity="0"/>
<stop offset="1" stop-color="#B07E09"/>
</linearGradient>
<linearGradient id="paint5_linear_208_20887" x1="12.0772" y1="11.9174" x2="12.1372" y2="12.6649" gradientUnits="userSpaceOnUse">
<stop offset="0.2" stop-color="#B07E09" stop-opacity="0"/>
<stop offset="1" stop-color="#B07E09"/>
</linearGradient>
<radialGradient id="paint6_radial_208_20887" cx="0" cy="0" r="1" gradientUnits="userSpaceOnUse" gradientTransform="translate(11.1495 10.8099) scale(0.324999)">
<stop offset="0.2" stop-color="#F9F0AA"/>
<stop offset="1" stop-color="#B07E09"/>
</radialGradient>
<linearGradient id="paint7_linear_208_20887" x1="11.2871" y1="10.7375" x2="11.3846" y2="10.515" gradientUnits="userSpaceOnUse">
<stop offset="0.2" stop-color="#F9F0AA"/>
<stop offset="1" stop-color="#B07E09"/>
</linearGradient>
<linearGradient id="paint8_linear_208_20887" x1="11.8321" y1="10.4324" x2="11.8971" y2="11.2599" gradientUnits="userSpaceOnUse">
<stop offset="0.2" stop-color="#F9F0AA"/>
<stop offset="1" stop-color="#B07E09"/>
</linearGradient>
<radialGradient id="paint9_radial_208_20887" cx="0" cy="0" r="1" gradientUnits="userSpaceOnUse" gradientTransform="translate(11.947 9.88236) scale(0.00749995)">
<stop offset="0.3" stop-color="#A50A0A"/>
<stop offset="1" stop-color="#4C0505"/>
</radialGradient>
<radialGradient id="paint10_radial_208_20887" cx="0" cy="0" r="1" gradientUnits="userSpaceOnUse" gradientTransform="translate(11.9466 9.88072) scale(0.00732805 0.00767598)">
<stop stop-color="white"/>
<stop offset="1" stop-color="white" stop-opacity="0"/>
</radialGradient>
<clipPath id="clip0_208_20887">
<rect width="24" height="24" rx="12" fill="white"/>
</clipPath>
</defs>
</svg>
