<svg width="24" height="24" viewBox="0 0 24 24" fill="none" xmlns="http://www.w3.org/2000/svg">
<g clip-path="url(#clip0_208_21813)">
<mask id="mask0_208_21813" style="mask-type:luminance" maskUnits="userSpaceOnUse" x="0" y="0" width="25" height="25">
<path d="M0.0917969 0H24.5109V24.4125H0.0983593L0.0917969 0Z" fill="white"/>
</mask>
<g mask="url(#mask0_208_21813)">
<path fill-rule="evenodd" clip-rule="evenodd" d="M29.5643 24.4158H-5.31543V0H29.5643V24.4158Z" fill="#BA0000"/>
<path fill-rule="evenodd" clip-rule="evenodd" d="M11.6285 11.8157C11.6285 11.8157 9.16757 10.7559 9.51866 8.0095C9.85991 6.68715 10.4637 5.78809 11.5596 5.29918C12.073 5.15005 12.6011 5.05763 13.1346 5.02356C12.9902 5.15481 12.8721 5.28934 12.813 5.45668C12.6949 5.75856 12.7802 6.04731 12.9377 6.33606C13.1424 6.67947 13.2637 7.06605 13.2921 7.46481C13.3281 7.77033 13.2827 8.07995 13.1606 8.3623C13.0384 8.64464 12.8438 8.88969 12.5965 9.07262C12.2815 9.31215 11.9074 9.39747 11.6055 9.67309C11.3589 9.89825 11.2045 10.2069 11.1724 10.5393C11.1626 11.3072 11.3726 11.4154 11.6285 11.819V11.8157Z" fill="white"/>
<path fill-rule="evenodd" clip-rule="evenodd" d="M11.1602 7.84224V7.8324V7.84224Z" fill="#BA0000"/>
<path d="M11.1602 7.84224V7.8324" stroke="black" stroke-width="0.27125"/>
<path d="M11.3174 11.5303C10.3593 10.6837 10.4413 8.55419 11.173 7.84216" stroke="#BA0000" stroke-width="0.27125"/>
<path fill-rule="evenodd" clip-rule="evenodd" d="M11.1533 7.31716L11.4683 7.24826L11.5044 6.93982L11.6619 7.20232L11.9769 7.13341L11.7604 7.36638L11.9179 7.62888L11.6225 7.51076L11.406 7.74373L11.4454 7.43857" fill="#BA0000"/>
<path fill-rule="evenodd" clip-rule="evenodd" d="M11.8392 11.6354C11.8392 11.6354 12.1312 8.97098 14.858 8.50505C16.223 8.4427 17.2598 8.7577 18.0506 9.66005C18.3424 10.107 18.5844 10.5846 18.7725 11.0841C18.6052 10.9857 18.4444 10.9135 18.2639 10.9036C17.9423 10.8807 17.693 11.048 17.4633 11.281C17.2008 11.5697 16.9055 11.783 16.4855 11.9504C16.2041 12.0737 15.8953 12.1207 15.59 12.0867C15.2847 12.0527 14.9937 11.9389 14.7464 11.7568C14.4216 11.5271 14.2345 11.1957 13.8802 10.9857C13.5929 10.8154 13.2525 10.7581 12.9253 10.8249C12.187 11.0447 12.1477 11.2744 11.8359 11.6354H11.8392Z" fill="white"/>
<path fill-rule="evenodd" clip-rule="evenodd" d="M15.501 10.0243L15.5108 10.021L15.501 10.0243Z" fill="#BA0000"/>
<path d="M15.501 10.0243L15.5108 10.021" stroke="black" stroke-width="0.27125"/>
<path d="M12.0195 11.2547C12.5478 10.0898 14.6117 9.54842 15.5042 10.034" stroke="#BA0000" stroke-width="0.27125"/>
<path fill-rule="evenodd" clip-rule="evenodd" d="M15.9997 9.8634L16.1572 10.1456L16.4624 10.0898L16.2589 10.3195L16.4197 10.5984L16.131 10.4573L15.9243 10.687L15.9538 10.372L15.665 10.2309L15.9702 10.1784" fill="#BA0000"/>
<path fill-rule="evenodd" clip-rule="evenodd" d="M12.0228 11.8289C12.0228 11.8289 14.6412 11.2579 15.9505 13.6992C16.4427 14.9723 16.4755 16.0551 15.8684 17.092C15.5403 17.5185 15.1564 17.8795 14.7463 18.2273C14.7856 18.037 14.802 17.8598 14.7561 17.6892C14.6773 17.3774 14.4378 17.1937 14.1425 17.0493C13.7769 16.8895 13.4542 16.6455 13.2008 16.3373C12.9938 16.1096 12.8505 15.8314 12.7854 15.5307C12.7203 15.2299 12.7357 14.9174 12.83 14.6245C12.9448 14.2439 13.2008 13.9584 13.2861 13.5581C13.3567 13.231 13.3029 12.8894 13.1352 12.6C12.6955 11.9732 12.4625 12.0093 12.0195 11.8289H12.0228Z" fill="white"/>
<path fill-rule="evenodd" clip-rule="evenodd" d="M14.7129 14.7886L14.7195 14.7984L14.7129 14.7886Z" fill="#BA0000"/>
<path d="M14.7129 14.7886L14.7195 14.7984" stroke="black" stroke-width="0.27125"/>
<path d="M12.4395 11.8782C13.7126 12.0094 14.884 13.7944 14.7035 14.7952" stroke="#BA0000" stroke-width="0.27125"/>
<path fill-rule="evenodd" clip-rule="evenodd" d="M15.0213 15.2119L14.808 15.4514L14.9557 15.7238L14.6735 15.5991L14.4602 15.8419L14.5029 15.5236L14.2207 15.4022L14.5259 15.33L14.5685 15.0117L14.7162 15.2841" fill="#BA0000"/>
<path fill-rule="evenodd" clip-rule="evenodd" d="M11.9639 12.098C11.9639 12.098 13.2436 14.4507 11.2716 16.3965C10.1855 17.2233 9.15516 17.558 7.99031 17.266C7.48828 17.0757 7.03547 16.8066 6.58594 16.5113C6.77625 16.4949 6.95344 16.4621 7.10437 16.3669C7.38 16.2029 7.49156 15.924 7.54734 15.5991C7.59713 15.2028 7.73992 14.8239 7.96406 14.4933C8.12479 14.2308 8.35211 14.0154 8.62295 13.869C8.89379 13.7226 9.19853 13.6505 9.50625 13.6599C9.9 13.6632 10.2478 13.8272 10.6547 13.7977C10.9891 13.7743 11.3027 13.6268 11.5341 13.3843C12.0131 12.7838 11.9147 12.5705 11.9606 12.098H11.9639Z" fill="white"/>
<path fill-rule="evenodd" clip-rule="evenodd" d="M9.87668 15.5105L9.87012 15.5203L9.87668 15.5105Z" fill="#BA0000"/>
<path d="M9.87668 15.5105L9.87012 15.5203" stroke="black" stroke-width="0.27125"/>
<path d="M12.0328 12.5146C12.2625 13.7714 10.8811 15.3956 9.86719 15.5039" stroke="#BA0000" stroke-width="0.27125"/>
<path fill-rule="evenodd" clip-rule="evenodd" d="M9.55848 15.9272L9.26645 15.7894L9.0466 16.0093L9.08598 15.7041L8.79395 15.5663L9.11223 15.5171L9.14832 15.2119L9.30582 15.4875L9.62082 15.4383L9.40098 15.6549" fill="#BA0000"/>
<path fill-rule="evenodd" clip-rule="evenodd" d="M11.6716 12.0454C11.6716 12.0454 9.87672 14.0372 7.38953 12.8198C6.24766 12.0717 5.58812 11.212 5.47656 10.0176C5.48969 9.48278 5.59469 8.96435 5.72266 8.44263C5.80469 8.61653 5.89 8.77075 6.03109 8.88232C6.27719 9.08903 6.57906 9.10216 6.90062 9.04638C7.29094 8.96189 7.6957 8.97089 8.08187 9.07263C8.38262 9.1369 8.6611 9.27933 8.88923 9.48557C9.11735 9.69181 9.28707 9.95456 9.38125 10.2473C9.5125 10.6247 9.46984 11.002 9.63391 11.3793C9.76782 11.6859 10.0111 11.9316 10.3164 12.0684C11.0383 12.3211 11.2089 12.1603 11.6716 12.0454Z" fill="white"/>
<path fill-rule="evenodd" clip-rule="evenodd" d="M7.75691 11.212H7.74707H7.75691Z" fill="#BA0000"/>
<path d="M7.75691 11.212H7.74707" stroke="black" stroke-width="0.27125"/>
<path d="M11.3009 12.2521C10.1918 12.8854 8.20008 12.1209 7.76367 11.2021" stroke="#BA0000" stroke-width="0.27125"/>
<path fill-rule="evenodd" clip-rule="evenodd" d="M7.25844 11.0513L7.29125 10.7297L7.01562 10.5985L7.31422 10.5329L7.34703 10.2113L7.50125 10.4935L7.79656 10.4279L7.59313 10.6674L7.74406 10.9496L7.46516 10.8151" fill="#BA0000"/>
</g>
</g>
<defs>
<clipPath id="clip0_208_21813">
<rect width="24" height="24" rx="12" fill="white"/>
</clipPath>
</defs>
</svg>
