<svg width="24" height="24" viewBox="0 0 24 24" fill="none" xmlns="http://www.w3.org/2000/svg">
<g clip-path="url(#clip0_208_11838)">
<path d="M0 0H24V24H0V0Z" fill="#000066"/>
<path fill-rule="evenodd" clip-rule="evenodd" d="M16.1621 11.7234L16.4293 10.8656L15.7074 10.3172L16.6168 10.3078L16.9215 9.45935L17.2168 10.3078L18.1262 10.3359L17.3949 10.8703L17.6574 11.7328L16.9121 11.2172M18.3043 11.8922L18.8387 11.175L18.3418 10.4109L19.2043 10.7109L19.7668 10.0172V10.9219L20.6105 11.2547L19.748 11.5125L19.7059 12.4125L19.1762 11.6719M14.1137 12.4453L14.0762 11.5453L13.2137 11.2781L14.0668 10.95V10.0547L14.6293 10.7531L15.4918 10.4625L14.9855 11.2172L15.5199 11.939L14.648 11.7047M12.6043 13.814L12.2293 12.9984L11.3293 13.0922L11.9855 12.4593L11.648 11.6297L12.4309 12.0515L13.1152 11.4422L12.9418 12.3375L13.7059 12.7922L12.8152 12.9234M11.9152 15.7828L11.2309 15.2156L10.4574 15.6844L10.7855 14.8265L10.1293 14.2265L11.0152 14.2687L11.3762 13.425L11.5965 14.3062L12.4824 14.3859L11.7324 14.8922M11.8965 18L11.0434 17.7515L10.5277 18.5015L10.4902 17.5781L9.64648 17.2969L10.4762 16.9734V16.05L11.0246 16.7765L11.8684 16.4906L11.3762 17.2547M12.8949 19.875L12.0184 19.9969L11.8402 20.8922L11.4371 20.0625L10.5559 20.1468L11.1887 19.514L10.8184 18.6703L11.6105 19.1062L12.2668 18.4969L12.1262 19.4015M14.4418 21.3562L13.659 21.7781L13.7996 22.6828L13.1387 22.0453L12.3418 22.4344L12.7168 21.6187L12.084 20.9578L12.9746 21.089L13.3824 20.2922L13.5559 21.1828M16.3262 21.6515L15.9043 22.439L16.5043 23.1187L15.609 22.95L15.1496 23.7187L15.023 22.8281L14.1371 22.6219L14.9527 22.2375L14.8637 21.3469L15.4965 21.9984M18.4496 21.3234L18.4168 22.2234L19.2605 22.5515L18.3887 22.814L18.3277 23.7094L17.8121 22.9734L16.9309 23.2031L17.4887 22.4812L17.0059 21.7265L17.8637 22.0172M20.6668 11.5547L21.2809 12.2062L22.1012 11.8265L21.6793 12.6422L22.2652 13.3125L21.3887 13.1719L20.9293 13.9687L20.8121 13.064L19.9402 12.8765L20.7465 12.4687M22.509 13.5515L22.7902 14.4094L23.6855 14.4234L22.959 14.9719L23.2027 15.8437L22.4715 15.3281L21.7215 15.8484L22.0027 14.9812L21.2902 14.4375L22.1949 14.414M23.198 16.125L23.0949 17.0156L23.9059 17.4187L23.0152 17.6062L22.8746 18.4969L22.4293 17.714L21.534 17.864L22.1434 17.1937L21.7309 16.3968L22.5605 16.7672M22.7105 18.8156L22.3121 19.6172L22.9355 20.2734L22.0402 20.1422L21.6043 20.925L21.4496 20.039L20.559 19.8656L21.3559 19.4531L21.2387 18.5625L21.8949 19.1953M21.384 21.2109L20.6293 21.6797L20.8215 22.5703L20.1277 21.9797L19.3543 22.4203L19.6824 21.5765L19.0074 20.9578L19.9027 21.0328L20.2637 20.2078L20.4934 21.0984" fill="white"/>
<path d="M0 -0.0234375H12V11.9766H0V-0.0234375Z" fill="#000066"/>
<path d="M12 -0.0234375V1.47656L7.54688 5.97656L12 10.3594V11.9766H10.4297L5.95312 7.57031L1.59375 11.9766H0V10.3828L4.35938 6L0 1.71094V-0.0234375H1.45312L5.95312 4.38281L10.3125 -0.0234375H12Z" fill="white"/>
<path d="M4.3125 7.57031L4.57031 8.36719L0.984375 11.9766H0V11.9062L4.3125 7.57031ZM7.21875 7.28906L8.48438 7.47656L12 10.9219V11.9766L7.21875 7.28906ZM12 -0.0234375L7.5 4.57031L7.40625 3.53906L10.9219 -0.0234375H12ZM0 0L4.52344 4.42969L3.14062 4.24219L0 1.125V0Z" fill="#C8102E"/>
<path d="M4.125 -0.0234375V11.9766H7.875V-0.0234375H4.125ZM0 4.10156V7.85156H12V4.10156H0Z" fill="white"/>
<path d="M0 4.85156V7.10156H12V4.85156H0ZM4.875 -0.0234375V11.9766H7.125V-0.0234375H4.875Z" fill="#C8102E"/>
</g>
<defs>
<clipPath id="clip0_208_11838">
<rect width="24" height="24" rx="12" fill="white"/>
</clipPath>
</defs>
</svg>
