<svg width="24" height="24" viewBox="0 0 24 24" fill="none" xmlns="http://www.w3.org/2000/svg">
<g clip-path="url(#clip0_208_23998)">
<mask id="mask0_208_23998" style="mask-type:luminance" maskUnits="userSpaceOnUse" x="-1" y="0" width="25" height="25">
<path d="M-0.00292969 0.00415039H23.9942V24.0013H-0.00292969V0.00415039Z" fill="white"/>
</mask>
<g mask="url(#mask0_208_23998)">
<path fill-rule="evenodd" clip-rule="evenodd" d="M-8.67188 0.00415039H33.6463V24.0013H-8.67188V0.00415039Z" fill="#4AADD6"/>
<path fill-rule="evenodd" clip-rule="evenodd" d="M17.4463 11.6094C17.4021 13.5422 16.5935 15.3787 15.1978 16.7165C13.802 18.0543 11.9329 18.7844 9.99991 18.7467C9.04041 18.7691 8.08591 18.6022 7.19093 18.2556C6.29595 17.909 5.47803 17.3894 4.78391 16.7266C4.08978 16.0638 3.53305 15.2707 3.14553 14.3927C2.758 13.5147 2.54728 12.5689 2.52539 11.6094C2.52539 7.67541 5.86925 4.47205 9.98586 4.47205C14.1025 4.47205 17.4323 7.66136 17.4323 11.6094H17.4463Z" fill="#FFDE00"/>
</g>
</g>
<defs>
<clipPath id="clip0_208_23998">
<rect width="24" height="24" rx="12" fill="white"/>
</clipPath>
</defs>
</svg>
