<svg width="24" height="24" viewBox="0 0 24 24" fill="none" xmlns="http://www.w3.org/2000/svg">
<g clip-path="url(#clip0_208_20865)">
<path fill-rule="evenodd" clip-rule="evenodd" d="M0 0H24V24H0V0Z" fill="#BE0027"/>
<path fill-rule="evenodd" clip-rule="evenodd" d="M0.960938 0.960938H22.9922V23.0391H0.960938V0.960938Z" fill="#3B5AA3"/>
<path fill-rule="evenodd" clip-rule="evenodd" d="M11.8076 18.5672C11.892 18.6141 12.0279 18.6141 12.1029 18.5719C16.9451 15.9938 16.9498 8.92502 12.1076 6.38439C12.0591 6.36152 12.006 6.35006 11.9524 6.35087C11.8988 6.35168 11.846 6.36475 11.7982 6.38908C7.07793 8.97189 7.06387 15.961 11.8076 18.5672Z" fill="#CBE0E5"/>
<path fill-rule="evenodd" clip-rule="evenodd" d="M11.8077 18.6985C11.8827 18.7594 12.0327 18.75 12.103 18.6985C15.6702 16.0266 15.6937 14.3625 15.5343 14.3625H8.47022C8.3624 14.3625 8.53115 16.0547 11.8077 18.6938V18.6985Z" fill="#ADD2D9"/>
<path fill-rule="evenodd" clip-rule="evenodd" d="M9.02813 15.6843C9.35105 15.5833 9.69991 15.605 10.0078 15.7453C10.275 15.8859 10.4297 15.8859 10.7156 15.8859C11.0203 15.8906 11.2547 16.1156 11.5828 16.1203C12.1828 16.139 12.4406 16.4343 11.9719 16.439C11.7516 16.439 11.2781 16.289 11.0484 16.3218C10.5703 16.3687 10.2656 16.4765 9.81562 16.9781L10.3359 17.3343C10.7859 17.1468 10.8609 16.9453 11.1094 16.9359C11.3906 16.9265 11.4844 16.7484 11.8125 16.7484C12.1828 16.8187 12.6797 16.7015 12.975 16.6406C13.4953 16.5187 13.2469 16.1578 12.9328 16.0218C12.6797 15.914 12.2016 16.0218 11.9016 15.914C11.6812 15.8249 11.8641 15.6843 11.9859 15.6562C12.1078 15.6328 12.2391 15.6749 12.3891 15.6984C12.6609 15.7218 12.9984 15.6984 13.2328 15.6562C13.725 15.5812 13.7016 15.4359 13.9406 15.4359C14.0927 15.4314 14.2399 15.3807 14.3625 15.2906C14.5031 15.1968 14.6438 15.0093 14.8125 15.014L15.2625 15.0328L14.625 16.4531L12.8438 18.2718L11.9156 18.6234L9.89062 17.2968L8.85938 15.7265L9.02344 15.6843H9.02813Z" fill="#FDF9A1"/>
<path fill-rule="evenodd" clip-rule="evenodd" d="M11.3623 14.3016L15.4404 14.2828L15.5154 13.9219L15.2529 13.8937C15.1029 13.8844 14.8545 14.0484 14.6857 14.0484C14.5639 14.0484 14.4279 13.8328 14.3107 13.8375C14.1045 13.8375 14.0857 14.025 13.8889 14.025C13.7295 14.025 13.6639 13.9031 13.4576 13.9125C13.242 13.9266 13.2607 14.0437 12.9889 14.0391C12.6279 14.0297 12.4873 13.7156 12.2014 13.7109C11.7186 13.7109 11.7045 14.1703 11.3623 14.3016Z" fill="#179A3B"/>
<path fill-rule="evenodd" clip-rule="evenodd" d="M11.3623 14.3906L15.5623 14.3671V14.2546L11.2686 14.2781L11.3623 14.3906Z" fill="#FDF9A1"/>
<path fill-rule="evenodd" clip-rule="evenodd" d="M13.0879 15.6563C13.1535 15.9 13.2238 15.9844 13.4816 16.05C13.7395 16.111 14.1332 15.8625 13.8895 15.6188C13.6551 15.3938 13.4113 15.3375 13.2051 15.1313C12.7645 14.7 12.1035 13.636 12.1035 12.8907C12.1035 12.2438 12.0426 10.9266 12.0426 9.67973C12.0426 9.59535 11.7988 9.90473 11.7988 9.98442C11.8082 11.0907 11.8082 11.9204 11.8504 13.0313C11.9207 13.8469 12.3098 14.3907 12.6473 14.8875C12.802 15.1219 13.0223 15.3797 13.0879 15.6516V15.6563Z" fill="#A79270"/>
<path d="M11.6598 13.0672C11.6348 12.9907 11.6019 12.9222 11.561 12.8616C11.5208 12.8002 11.4727 12.7479 11.4167 12.7047C11.3614 12.6616 11.2985 12.6286 11.228 12.6059C11.1576 12.5831 11.0803 12.5718 10.9962 12.5718C10.8583 12.5718 10.7329 12.6074 10.6201 12.6786C10.5072 12.7498 10.4174 12.8547 10.3507 12.9934C10.2841 13.132 10.2507 13.3021 10.2507 13.5036C10.2507 13.7051 10.2845 13.8752 10.3519 14.0138C10.4193 14.1525 10.5106 14.2574 10.6257 14.3286C10.7409 14.3998 10.8704 14.4354 11.0144 14.4354C11.1477 14.4354 11.2651 14.407 11.3667 14.3502C11.4689 14.2926 11.5485 14.2116 11.6053 14.107C11.6629 14.0017 11.6917 13.8778 11.6917 13.7354L11.778 13.7536H11.078V13.5036H11.9644V13.7536C11.9644 13.9453 11.9235 14.1119 11.8417 14.2536C11.7606 14.3953 11.6485 14.5051 11.5053 14.5831C11.3629 14.6604 11.1992 14.6991 11.0144 14.6991C10.8083 14.6991 10.6273 14.6506 10.4712 14.5536C10.3159 14.4566 10.1947 14.3188 10.1076 14.14C10.0212 13.9612 9.97802 13.7491 9.97802 13.5036C9.97802 13.3195 10.0026 13.154 10.0519 13.007C10.1019 12.8593 10.1723 12.7335 10.2632 12.6297C10.3542 12.5259 10.4617 12.4464 10.586 12.3911C10.7102 12.3358 10.847 12.3081 10.9962 12.3081C11.1189 12.3081 11.2333 12.3267 11.3394 12.3638C11.4462 12.4002 11.5413 12.4521 11.6246 12.5195C11.7087 12.5862 11.7788 12.6661 11.8348 12.7593C11.8909 12.8517 11.9295 12.9544 11.9507 13.0672H11.6598Z" fill="#BD0728"/>
<path d="M11.6598 13.0672L11.5648 13.0983L11.5873 13.1672H11.6598V13.0672ZM11.561 12.8616L11.4773 12.9163L11.4781 12.9175L11.561 12.8616ZM11.4167 12.7047L11.3551 12.7836L11.3556 12.784L11.4167 12.7047ZM11.228 12.6059L11.2587 12.5107L11.2587 12.5107L11.228 12.6059ZM10.3507 12.9934L10.4409 13.0367V13.0367L10.3507 12.9934ZM10.3519 14.0138L10.262 14.0576L10.3519 14.0138ZM10.6257 14.3286L10.5731 14.4137L10.6257 14.3286ZM11.3667 14.3502L11.4155 14.4375L11.4157 14.4373L11.3667 14.3502ZM11.6053 14.107L11.5175 14.059L11.5174 14.0593L11.6053 14.107ZM11.6917 13.7354L11.7123 13.6376L11.5917 13.6122V13.7354H11.6917ZM11.778 13.7536V13.8536L11.7986 13.6557L11.778 13.7536ZM11.078 13.7536H10.978V13.8536H11.078V13.7536ZM11.078 13.5036V13.4036H10.978V13.5036H11.078ZM11.9644 13.5036H12.0644V13.4036H11.9644V13.5036ZM11.8417 14.2536L11.7551 14.2036L11.7549 14.2039L11.8417 14.2536ZM11.5053 14.5831L11.553 14.671L11.5531 14.671L11.5053 14.5831ZM10.4712 14.5536L10.4182 14.6384L10.4184 14.6385L10.4712 14.5536ZM10.1076 14.14L10.0175 14.1835L10.0177 14.1838L10.1076 14.14ZM10.0519 13.007L9.95716 12.9749L9.95706 12.9752L10.0519 13.007ZM10.2632 12.6297L10.3385 12.6956L10.2632 12.6297ZM10.586 12.3911L10.5453 12.2997L10.586 12.3911ZM11.3394 12.3638L11.3063 12.4582L11.3072 12.4585L11.3394 12.3638ZM11.6246 12.5195L11.5617 12.5973L11.5625 12.5979L11.6246 12.5195ZM11.8348 12.7593L11.7491 12.8108L11.7493 12.8111L11.8348 12.7593ZM11.9507 13.0672V13.1672H12.0713L12.049 13.0488L11.9507 13.0672ZM11.7549 13.0362C11.7273 12.9517 11.6905 12.8746 11.6439 12.8056L11.4781 12.9175C11.5133 12.9697 11.5424 13.0297 11.5648 13.0983L11.7549 13.0362ZM11.6447 12.8068C11.5986 12.7364 11.5429 12.6758 11.4777 12.6255L11.3556 12.784C11.4025 12.8201 11.443 12.864 11.4773 12.9163L11.6447 12.8068ZM11.4782 12.6259C11.4132 12.5751 11.3397 12.5368 11.2587 12.5107L11.1973 12.701C11.2572 12.7204 11.3096 12.748 11.3551 12.7836L11.4782 12.6259ZM11.2587 12.5107C11.1771 12.4844 11.0893 12.4718 10.9962 12.4718V12.6718C11.0713 12.6718 11.138 12.6819 11.1973 12.701L11.2587 12.5107ZM10.9962 12.4718C10.8401 12.4718 10.6961 12.5124 10.5667 12.594L10.6734 12.7632C10.7698 12.7024 10.8765 12.6718 10.9962 12.6718V12.4718ZM10.5667 12.594C10.4356 12.6767 10.3342 12.7971 10.2606 12.95L10.4409 13.0367C10.5007 12.9124 10.5787 12.8229 10.6734 12.7632L10.5667 12.594ZM10.2606 12.95C10.1858 13.1057 10.1507 13.2915 10.1507 13.5036H10.3507C10.3507 13.3126 10.3824 13.1583 10.4409 13.0367L10.2606 12.95ZM10.1507 13.5036C10.1507 13.7158 10.1862 13.9018 10.262 14.0576L10.4418 13.9701C10.3827 13.8486 10.3507 13.6944 10.3507 13.5036H10.1507ZM10.262 14.0576C10.3365 14.2108 10.4397 14.3312 10.5731 14.4137L10.6783 14.2435C10.5814 14.1836 10.5021 14.0941 10.4418 13.9701L10.262 14.0576ZM10.5731 14.4137C10.7051 14.4953 10.8531 14.5354 11.0144 14.5354V14.3354C10.8878 14.3354 10.7767 14.3044 10.6783 14.2435L10.5731 14.4137ZM11.0144 14.5354C11.1623 14.5354 11.297 14.5038 11.4155 14.4375L11.3178 14.2629C11.2333 14.3102 11.1331 14.3354 11.0144 14.3354V14.5354ZM11.4157 14.4373C11.5346 14.3704 11.6275 14.2756 11.6932 14.1548L11.5174 14.0593C11.4695 14.1475 11.4033 14.2148 11.3176 14.2631L11.4157 14.4373ZM11.693 14.155C11.76 14.0324 11.7917 13.8915 11.7917 13.7354H11.5917C11.5917 13.8642 11.5657 13.971 11.5175 14.059L11.693 14.155ZM11.6711 13.8333L11.7574 13.8515L11.7986 13.6557L11.7123 13.6376L11.6711 13.8333ZM11.778 13.6536H11.078V13.8536H11.778V13.6536ZM11.178 13.7536V13.5036H10.978V13.7536H11.178ZM11.078 13.6036H11.9644V13.4036H11.078V13.6036ZM11.8644 13.5036V13.7536H12.0644V13.5036H11.8644ZM11.8644 13.7536C11.8644 13.9307 11.8267 14.0796 11.7551 14.2036L11.9283 14.3036C12.0203 14.1443 12.0644 13.9598 12.0644 13.7536H11.8644ZM11.7549 14.2039C11.683 14.3295 11.5843 14.4262 11.4574 14.4953L11.5531 14.671C11.7126 14.5841 11.8382 14.461 11.9285 14.3033L11.7549 14.2039ZM11.4576 14.4952C11.3318 14.5635 11.1849 14.5991 11.0144 14.5991V14.7991C11.2135 14.7991 11.394 14.7573 11.553 14.671L11.4576 14.4952ZM11.0144 14.5991C10.8246 14.5991 10.6623 14.5546 10.524 14.4687L10.4184 14.6385C10.5922 14.7465 10.792 14.7991 11.0144 14.7991V14.5991ZM10.5242 14.4688C10.3861 14.3826 10.2771 14.2596 10.1975 14.0962L10.0177 14.1838C10.1123 14.3779 10.2457 14.5307 10.4182 14.6384L10.5242 14.4688ZM10.1976 14.0965C10.1192 13.9341 10.078 13.7375 10.078 13.5036H9.87802C9.87802 13.7606 9.92324 13.9883 10.0175 14.1835L10.1976 14.0965ZM10.078 13.5036C10.078 13.3283 10.1015 13.1738 10.1467 13.0388L9.95706 12.9752C9.90381 13.1342 9.87802 13.3107 9.87802 13.5036H10.078ZM10.1466 13.0391C10.1929 12.9022 10.2573 12.7883 10.3385 12.6956L10.188 12.5638C10.0874 12.6787 10.0108 12.8164 9.95716 12.9749L10.1466 13.0391ZM10.3385 12.6956C10.42 12.6026 10.5158 12.5318 10.6266 12.4825L10.5453 12.2997C10.4076 12.361 10.2883 12.4493 10.188 12.5638L10.3385 12.6956ZM10.6266 12.4825C10.7369 12.4334 10.8596 12.4081 10.9962 12.4081V12.2081C10.8343 12.2081 10.6836 12.2382 10.5453 12.2997L10.6266 12.4825ZM10.9962 12.4081C11.1087 12.4081 11.2118 12.4251 11.3063 12.4582L11.3724 12.2694C11.2548 12.2283 11.1291 12.2081 10.9962 12.2081V12.4081ZM11.3072 12.4585C11.4034 12.4913 11.488 12.5376 11.5617 12.5972L11.6875 12.4418C11.5946 12.3666 11.489 12.3091 11.3716 12.2692L11.3072 12.4585ZM11.5625 12.5979C11.637 12.657 11.6992 12.7278 11.7491 12.8108L11.9205 12.7077C11.8584 12.6044 11.7804 12.5154 11.6867 12.4411L11.5625 12.5979ZM11.7493 12.8111C11.7988 12.8927 11.8333 12.9839 11.8525 13.0857L12.049 13.0488C12.0257 12.9248 11.983 12.8107 11.9203 12.7074L11.7493 12.8111ZM11.9507 12.9672H11.6598V13.1672H11.9507V12.9672Z" fill="white"/>
<path d="M12.6743 12.3446H12.9561V13.8855C12.9561 14.0446 12.9186 14.1866 12.8436 14.3116C12.7694 14.4359 12.6645 14.534 12.5289 14.606C12.3933 14.6772 12.2342 14.7128 12.0516 14.7128C11.869 14.7128 11.7099 14.6772 11.5743 14.606C11.4387 14.534 11.3334 14.4359 11.2584 14.3116C11.1842 14.1866 11.1471 14.0446 11.1471 13.8855V12.3446H11.4289V13.8628C11.4289 13.9764 11.4539 14.0776 11.5039 14.1662C11.5539 14.2541 11.6251 14.3234 11.7175 14.3741C11.8107 14.4241 11.9221 14.4491 12.0516 14.4491C12.1811 14.4491 12.2925 14.4241 12.3857 14.3741C12.4789 14.3234 12.5501 14.2541 12.5993 14.1662C12.6493 14.0776 12.6743 13.9764 12.6743 13.8628V12.3446Z" fill="#BD0728"/>
<path d="M12.6743 12.3446V12.2446H12.5743V12.3446H12.6743ZM12.9561 12.3446H13.0561V12.2446H12.9561V12.3446ZM12.8436 14.3116L12.7579 14.2602L12.7578 14.2604L12.8436 14.3116ZM12.5289 14.606L12.5754 14.6945L12.5758 14.6943L12.5289 14.606ZM11.5743 14.606L11.5274 14.6943L11.5278 14.6945L11.5743 14.606ZM11.2584 14.3116L11.1724 14.3627L11.1728 14.3633L11.2584 14.3116ZM11.1471 12.3446V12.2446H11.0471V12.3446H11.1471ZM11.4289 12.3446H11.5289V12.2446H11.4289V12.3446ZM11.5039 14.1662L11.4168 14.2153L11.417 14.2156L11.5039 14.1662ZM11.7175 14.3741L11.6694 14.4618L11.6702 14.4623L11.7175 14.3741ZM12.3857 14.3741L12.433 14.4623L12.4335 14.462L12.3857 14.3741ZM12.5993 14.1662L12.5122 14.1171L12.5121 14.1173L12.5993 14.1662ZM12.6743 12.4446H12.9561V12.2446H12.6743V12.4446ZM12.8561 12.3446V13.8855H13.0561V12.3446H12.8561ZM12.8561 13.8855C12.8561 14.0282 12.8227 14.1521 12.7579 14.2602L12.9294 14.3631C13.0146 14.2212 13.0561 14.061 13.0561 13.8855H12.8561ZM12.7578 14.2604C12.6935 14.368 12.6025 14.4537 12.482 14.5176L12.5758 14.6943C12.7265 14.6143 12.8453 14.5038 12.9295 14.3629L12.7578 14.2604ZM12.4824 14.5174C12.3636 14.5798 12.2211 14.6128 12.0516 14.6128V14.8128C12.2473 14.8128 12.4229 14.7746 12.5754 14.6945L12.4824 14.5174ZM12.0516 14.6128C11.8821 14.6128 11.7396 14.5798 11.6208 14.5174L11.5278 14.6945C11.6803 14.7746 11.8559 14.8128 12.0516 14.8128V14.6128ZM11.6212 14.5176C11.5006 14.4536 11.4091 14.3678 11.344 14.26L11.1728 14.3633C11.2577 14.504 11.3768 14.6144 11.5274 14.6943L11.6212 14.5176ZM11.3444 14.2606C11.2802 14.1525 11.2471 14.0284 11.2471 13.8855H11.0471C11.0471 14.0608 11.0882 14.2208 11.1724 14.3627L11.3444 14.2606ZM11.2471 13.8855V12.3446H11.0471V13.8855H11.2471ZM11.1471 12.4446H11.4289V12.2446H11.1471V12.4446ZM11.3289 12.3446V13.8628H11.5289V12.3446H11.3289ZM11.3289 13.8628C11.3289 13.9916 11.3574 14.11 11.4168 14.2153L11.591 14.1171C11.5504 14.0451 11.5289 13.9613 11.5289 13.8628H11.3289ZM11.417 14.2156C11.4765 14.3203 11.5615 14.4025 11.6694 14.4618L11.7656 14.2865C11.6887 14.2442 11.6312 14.1878 11.5908 14.1167L11.417 14.2156ZM11.6702 14.4623C11.7809 14.5216 11.9092 14.5491 12.0516 14.5491V14.3491C11.9349 14.3491 11.8405 14.3267 11.7648 14.286L11.6702 14.4623ZM12.0516 14.5491C12.194 14.5491 12.3223 14.5216 12.433 14.4623L12.3384 14.286C12.2627 14.3267 12.1683 14.3491 12.0516 14.3491V14.5491ZM12.4335 14.462C12.5423 14.4027 12.6276 14.3203 12.6866 14.2151L12.5121 14.1173C12.4726 14.1879 12.4154 14.2441 12.3379 14.2863L12.4335 14.462ZM12.6864 14.2153C12.7458 14.11 12.7743 13.9916 12.7743 13.8628H12.5743C12.5743 13.9613 12.5528 14.0451 12.5122 14.1171L12.6864 14.2153ZM12.7743 13.8628V12.3446H12.5743V13.8628H12.7743Z" fill="white"/>
<path d="M12.5511 14.6719H12.2556L13.1102 12.3446H13.4011L14.2556 14.6719H13.9602L13.2647 12.7128H13.2466L12.5511 14.6719ZM12.6602 13.7628H13.8511V14.0128H12.6602V13.7628Z" fill="#BD0728"/>
<path d="M12.5511 14.6719V14.7719H12.6217L12.6453 14.7053L12.5511 14.6719ZM12.2556 14.6719L12.1618 14.6374L12.1124 14.7719H12.2556V14.6719ZM13.1102 12.3446V12.2446H13.0404L13.0163 12.3101L13.1102 12.3446ZM13.4011 12.3446L13.495 12.3101L13.4709 12.2446H13.4011V12.3446ZM14.2556 14.6719V14.7719H14.3989L14.3495 14.6374L14.2556 14.6719ZM13.9602 14.6719L13.866 14.7053L13.8896 14.7719H13.9602V14.6719ZM13.2647 12.7128L13.359 12.6793L13.3354 12.6128H13.2647V12.7128ZM13.2466 12.7128V12.6128H13.1759L13.1523 12.6793L13.2466 12.7128ZM12.6602 13.7628V13.6628H12.5602V13.7628H12.6602ZM13.8511 13.7628H13.9511V13.6628H13.8511V13.7628ZM13.8511 14.0128V14.1128H13.9511V14.0128H13.8511ZM12.6602 14.0128H12.5602V14.1128H12.6602V14.0128ZM12.5511 14.5719H12.2556V14.7719H12.5511V14.5719ZM12.3495 14.7063L13.2041 12.3791L13.0163 12.3101L12.1618 14.6374L12.3495 14.7063ZM13.1102 12.4446H13.4011V12.2446H13.1102V12.4446ZM13.3072 12.3791L14.1618 14.7063L14.3495 14.6374L13.495 12.3101L13.3072 12.3791ZM14.2556 14.5719H13.9602V14.7719H14.2556V14.5719ZM14.0544 14.6384L13.359 12.6793L13.1705 12.7462L13.866 14.7053L14.0544 14.6384ZM13.2647 12.6128H13.2466V12.8128H13.2647V12.6128ZM13.1523 12.6793L12.4569 14.6384L12.6453 14.7053L13.3408 12.7462L13.1523 12.6793ZM12.6602 13.8628H13.8511V13.6628H12.6602V13.8628ZM13.7511 13.7628V14.0128H13.9511V13.7628H13.7511ZM13.8511 13.9128H12.6602V14.1128H13.8511V13.9128ZM12.7602 14.0128V13.7628H12.5602V14.0128H12.7602Z" fill="white"/>
<path d="M13.5572 12.34H13.8936L14.6845 14.2718H14.7118L15.5027 12.34H15.839V14.6672H15.5754V12.8991H15.5527L14.8254 14.6672H14.5708L13.8436 12.8991H13.8208V14.6672H13.5572V12.34Z" fill="#BD0728"/>
<path d="M13.5572 12.34V12.24H13.4572V12.34H13.5572ZM13.8936 12.34L13.9861 12.3021L13.9607 12.24H13.8936V12.34ZM14.6845 14.2718L14.5919 14.3097L14.6174 14.3718H14.6845V14.2718ZM14.7118 14.2718V14.3718H14.7789L14.8043 14.3097L14.7118 14.2718ZM15.5027 12.34V12.24H15.4355L15.4101 12.3021L15.5027 12.34ZM15.839 12.34H15.939V12.24H15.839V12.34ZM15.839 14.6672V14.7672H15.939V14.6672H15.839ZM15.5754 14.6672H15.4754V14.7672H15.5754V14.6672ZM15.5754 12.8991H15.6754V12.7991H15.5754V12.8991ZM15.5527 12.8991V12.7991H15.4857L15.4602 12.861L15.5527 12.8991ZM14.8254 14.6672V14.7672H14.8924L14.9179 14.7053L14.8254 14.6672ZM14.5708 14.6672L14.4784 14.7053L14.5038 14.7672H14.5708V14.6672ZM13.8436 12.8991L13.9361 12.861L13.9106 12.7991H13.8436V12.8991ZM13.8208 12.8991V12.7991H13.7208V12.8991H13.8208ZM13.8208 14.6672V14.7672H13.9208V14.6672H13.8208ZM13.5572 14.6672H13.4572V14.7672H13.5572V14.6672ZM13.5572 12.44H13.8936V12.24H13.5572V12.44ZM13.801 12.3779L14.5919 14.3097L14.777 14.2339L13.9861 12.3021L13.801 12.3779ZM14.6845 14.3718H14.7118V14.1718H14.6845V14.3718ZM14.8043 14.3097L15.5952 12.3779L15.4101 12.3021L14.6192 14.2339L14.8043 14.3097ZM15.5027 12.44H15.839V12.24H15.5027V12.44ZM15.739 12.34V14.6672H15.939V12.34H15.739ZM15.839 14.5672H15.5754V14.7672H15.839V14.5672ZM15.6754 14.6672V12.8991H15.4754V14.6672H15.6754ZM15.5754 12.7991H15.5527V12.9991H15.5754V12.7991ZM15.4602 12.861L14.7329 14.6292L14.9179 14.7053L15.6451 12.9371L15.4602 12.861ZM14.8254 14.5672H14.5708V14.7672H14.8254V14.5672ZM14.6633 14.6292L13.9361 12.861L13.7511 12.9371L14.4784 14.7053L14.6633 14.6292ZM13.8436 12.7991H13.8208V12.9991H13.8436V12.7991ZM13.7208 12.8991V14.6672H13.9208V12.8991H13.7208ZM13.8208 14.5672H13.5572V14.7672H13.8208V14.5672ZM13.6572 14.6672V12.34H13.4572V14.6672H13.6572Z" fill="white"/>
<path fill-rule="evenodd" clip-rule="evenodd" d="M9.93253 9.71715C9.87628 9.82028 10.0591 9.68903 10.1013 9.67028C10.3357 9.59059 10.4294 9.29528 10.8325 9.46872C11.1513 9.60934 11.5825 9.52965 11.3575 9.66559C11.0763 9.83434 10.5278 10.0172 10.5138 10.8375C10.5607 10.9172 10.57 10.9031 10.6075 10.8187C10.6872 10.6312 11.0903 10.1062 11.2872 10.1531C11.3669 10.1718 11.5966 9.91872 11.606 9.98903C11.6247 10.1953 11.2872 10.6078 11.2919 11.1609C11.2919 11.2922 11.4513 11.3343 11.5263 11.2453C11.6013 11.1656 11.6435 11.0812 11.7794 10.9781C12.0138 10.7859 11.9482 9.97028 11.9763 10.0078C12.1403 10.2234 12.1638 10.8281 12.4169 11.0765C12.6185 11.2828 12.7872 11.1843 12.745 10.8984C12.6513 10.3218 12.3794 10.4859 12.2528 9.89059C12.2247 9.7734 12.22 9.67028 12.37 9.71715C12.5575 9.7734 12.67 9.85778 12.8107 10.0734C12.9513 10.275 13.2091 10.4672 13.3638 10.589C13.6263 10.7906 13.72 10.6125 13.5935 10.3547C13.4325 10.0569 13.1695 9.82725 12.8528 9.70778C12.6372 9.63278 12.5575 9.62809 12.3653 9.59059C12.3185 9.58122 12.2575 9.46872 12.3513 9.41247C12.556 9.26493 12.7946 9.17142 13.045 9.14059C13.2794 9.1359 13.4669 9.3234 13.631 9.37497C13.9638 9.45934 13.9591 9.2484 13.8185 9.09372C13.6966 8.96247 13.4435 8.74215 13.2091 8.76559C12.731 8.82653 12.7591 8.81247 12.4685 9.00934C12.3607 9.07028 12.2435 9.14059 12.2857 9.06559C12.3935 8.8734 12.2903 8.90622 12.4591 8.70934C12.5857 8.56872 12.6794 8.4609 12.8107 8.42809C12.9325 8.39528 13.0919 8.26872 13.1388 8.20309C13.2607 8.03903 13.1575 7.94528 12.9747 8.00153C12.8153 8.0484 12.7263 8.15153 12.6185 8.17965C12.3607 8.25934 12.1497 8.84997 12.1216 8.92965C12.0794 9.03278 12.0372 8.98122 12.0419 8.89684C12.0794 8.48434 12.1169 7.7859 11.9716 7.49997C11.7513 7.07809 11.77 7.27497 11.6857 7.47653C11.5814 7.77711 11.5814 8.10407 11.6857 8.40465C11.7185 8.55934 11.845 8.73278 11.8732 8.85934C11.8872 8.95309 11.8122 8.82653 11.7747 8.77028C11.6341 8.55934 11.531 8.41403 11.306 8.30153C11.0803 8.20948 10.8328 8.18505 10.5935 8.23122C10.5325 8.24997 10.6638 8.34372 10.72 8.3859C10.87 8.50778 11.156 8.54528 11.3482 8.66715C11.5169 8.7609 11.6435 8.83121 11.695 8.97184C11.7185 9.07497 11.7513 9.22965 11.6857 9.22497C11.5028 9.21559 11.2216 9.0609 10.645 9.12184C10.3497 9.16403 10.0966 9.41715 9.93253 9.71715Z" fill="#239E46"/>
<path fill-rule="evenodd" clip-rule="evenodd" d="M11.1895 14.9906H11.3582V15.2719H11.1895V14.9906Z" fill="black"/>
<path fill-rule="evenodd" clip-rule="evenodd" d="M10.3594 13.1343C11.0203 14.0531 12.0844 14.5875 12.1078 15.0093L10.0312 15C10.5047 14.4281 10.7953 14.039 10.3547 13.1296L10.3594 13.1343Z" fill="#FDF9FF"/>
<path fill-rule="evenodd" clip-rule="evenodd" d="M9.75487 15.0281C10.6596 15.2297 11.733 15.3375 12.4221 15C12.4221 15.2016 12.1971 15.4875 12.0096 15.4875H10.2799C10.4814 15.4594 10.5939 15.3984 10.9221 15.3797L10.0033 15.3937C9.90486 15.3937 9.72205 15.1266 9.75487 15.0281Z" fill="#A68861"/>
<path fill-rule="evenodd" clip-rule="evenodd" d="M11.7982 19.0313C11.8481 19.0547 11.9025 19.0669 11.9576 19.0669C12.0127 19.0669 12.0671 19.0547 12.117 19.0313C17.3248 16.261 17.3295 8.65786 12.1264 5.92505C12.0746 5.89944 12.0177 5.88611 11.96 5.88611C11.9022 5.88611 11.8453 5.89944 11.7936 5.92505C6.71699 8.70474 6.70293 16.2235 11.7982 19.0266V19.0313ZM11.8264 18.4032C11.8697 18.4233 11.9169 18.4337 11.9646 18.4337C12.0124 18.4337 12.0596 18.4233 12.1029 18.4032C16.4623 15.8391 16.5139 9.06099 12.1076 6.63286C12.0232 6.57193 11.9014 6.59068 11.817 6.63286C7.64512 9.10318 7.41074 15.6047 11.8264 18.3985V18.4032Z" fill="#BE0027"/>
<path d="M11.6598 13.0672C11.6348 12.9907 11.6019 12.9222 11.561 12.8616C11.5208 12.8002 11.4727 12.7479 11.4167 12.7047C11.3614 12.6616 11.2985 12.6286 11.228 12.6059C11.1576 12.5831 11.0803 12.5718 10.9962 12.5718C10.8583 12.5718 10.7329 12.6074 10.6201 12.6786C10.5072 12.7498 10.4174 12.8547 10.3507 12.9934C10.2841 13.132 10.2507 13.3021 10.2507 13.5036C10.2507 13.7051 10.2845 13.8752 10.3519 14.0138C10.4193 14.1525 10.5106 14.2574 10.6257 14.3286C10.7409 14.3998 10.8704 14.4354 11.0144 14.4354C11.1477 14.4354 11.2651 14.407 11.3667 14.3502C11.4689 14.2926 11.5485 14.2116 11.6053 14.107C11.6629 14.0017 11.6917 13.8778 11.6917 13.7354L11.778 13.7536H11.078V13.5036H11.9644V13.7536C11.9644 13.9453 11.9235 14.1119 11.8417 14.2536C11.7606 14.3953 11.6485 14.5051 11.5053 14.5831C11.3629 14.6604 11.1992 14.6991 11.0144 14.6991C10.8083 14.6991 10.6273 14.6506 10.4712 14.5536C10.3159 14.4566 10.1947 14.3188 10.1076 14.14C10.0212 13.9612 9.97802 13.7491 9.97802 13.5036C9.97802 13.3195 10.0026 13.154 10.0519 13.007C10.1019 12.8593 10.1723 12.7335 10.2632 12.6297C10.3542 12.5259 10.4617 12.4464 10.586 12.3911C10.7102 12.3358 10.847 12.3081 10.9962 12.3081C11.1189 12.3081 11.2333 12.3267 11.3394 12.3638C11.4462 12.4002 11.5413 12.4521 11.6246 12.5195C11.7087 12.5862 11.7788 12.6661 11.8348 12.7593C11.8909 12.8517 11.9295 12.9544 11.9507 13.0672H11.6598Z" fill="#BD0728"/>
<path d="M12.6743 12.3446H12.9561V13.8855C12.9561 14.0446 12.9186 14.1866 12.8436 14.3116C12.7694 14.4359 12.6645 14.534 12.5289 14.606C12.3933 14.6772 12.2342 14.7128 12.0516 14.7128C11.869 14.7128 11.7099 14.6772 11.5743 14.606C11.4387 14.534 11.3334 14.4359 11.2584 14.3116C11.1842 14.1866 11.1471 14.0446 11.1471 13.8855V12.3446H11.4289V13.8628C11.4289 13.9764 11.4539 14.0776 11.5039 14.1662C11.5539 14.2541 11.6251 14.3234 11.7175 14.3741C11.8107 14.4241 11.9221 14.4491 12.0516 14.4491C12.1811 14.4491 12.2925 14.4241 12.3857 14.3741C12.4789 14.3234 12.5501 14.2541 12.5993 14.1662C12.6493 14.0776 12.6743 13.9764 12.6743 13.8628V12.3446Z" fill="#BD0728"/>
<path d="M12.5511 14.6719H12.2556L13.1102 12.3446H13.4011L14.2556 14.6719H13.9602L13.2647 12.7128H13.2466L12.5511 14.6719ZM12.6602 13.7628H13.8511V14.0128H12.6602V13.7628Z" fill="#BD0728"/>
<path d="M13.5572 12.34H13.8936L14.6845 14.2718H14.7118L15.5027 12.34H15.839V14.6672H15.5754V12.8991H15.5527L14.8254 14.6672H14.5708L13.8436 12.8991H13.8208V14.6672H13.5572V12.34Z" fill="#BD0728"/>
</g>
<defs>
<clipPath id="clip0_208_20865">
<rect width="24" height="24" rx="12" fill="white"/>
</clipPath>
</defs>
</svg>
