<svg width="24" height="24" viewBox="0 0 24 24" fill="none" xmlns="http://www.w3.org/2000/svg">
<g clip-path="url(#clip0_208_28046)">
<path d="M0 0H8.00156V24H0V0Z" fill="#007A5E"/>
<path d="M8.00195 0H15.9988V24H8.00195V0Z" fill="#CE1126"/>
<path d="M15.998 0H23.9996V24H15.998V0Z" fill="#FCD116"/>
<path d="M11.9997 9.8667L11.333 11.8934L12.3463 12.24L11.9997 9.8667Z" fill="#FCD116"/>
<path d="M11.9993 9.8667L12.666 11.8934L11.6527 12.24L11.9993 9.8667Z" fill="#FCD116"/>
<path d="M14.0283 11.3408L11.8948 11.3331L11.8782 12.4039L14.0283 11.3408Z" fill="#FCD116"/>
<path d="M14.0284 11.3408L12.3069 12.6011L11.6641 11.7445L14.0284 11.3408Z" fill="#FCD116"/>
<path d="M13.2536 13.726L12.6017 11.6945L11.5782 12.0097L13.2536 13.726Z" fill="#FCD116"/>
<path d="M13.2532 13.7259L11.5226 12.4782L12.1387 11.6021L13.2532 13.7259Z" fill="#FCD116"/>
<path d="M10.7458 13.7259L12.4764 12.4782L11.8604 11.6021L10.7458 13.7259Z" fill="#FCD116"/>
<path d="M10.7454 13.726L11.3973 11.6945L12.4209 12.0097L10.7454 13.726Z" fill="#FCD116"/>
<path d="M9.97066 11.3408L11.6921 12.6011L12.335 11.7445L9.97066 11.3408Z" fill="#FCD116"/>
<path d="M9.97075 11.3408L12.1042 11.3331L12.1208 12.4039L9.97075 11.3408Z" fill="#FCD116"/>
</g>
<defs>
<clipPath id="clip0_208_28046">
<rect width="24" height="24" rx="12" fill="white"/>
</clipPath>
</defs>
</svg>
