<svg width="24" height="24" viewBox="0 0 24 24" fill="none" xmlns="http://www.w3.org/2000/svg">
<g clip-path="url(#clip0_208_24612)">
<path d="M9.60039 0H24.0004V24H9.5957L9.60039 0Z" fill="#FF0000"/>
<path d="M-0.000195312 0H9.5998V24H-0.00488281L-0.000195312 0Z" fill="#006600"/>
<path fill-rule="evenodd" clip-rule="evenodd" d="M13.7725 15.3094C12.16 15.2625 4.77246 10.65 4.72559 9.91406L5.12871 9.23438C5.85996 10.2984 13.4162 14.7844 14.1568 14.625L13.7725 15.3094Z" fill="#FFFF00" stroke="black" stroke-width="0.0875" stroke-linecap="round" stroke-linejoin="round"/>
<path fill-rule="evenodd" clip-rule="evenodd" d="M5.04373 9.14048C4.89841 9.52954 6.97029 10.8092 9.46404 12.328C11.9578 13.842 14.1047 14.7795 14.2687 14.6483L14.339 14.5124C14.3109 14.5592 14.2359 14.5733 14.1234 14.5405C13.4484 14.3436 11.6906 13.5374 9.5156 12.2202C7.3406 10.903 5.44685 9.68423 5.15623 9.1686C5.13227 9.12068 5.12098 9.06743 5.12341 9.01392H5.11404L5.0531 9.12173L5.04373 9.14048ZM13.8094 15.328C13.7812 15.3795 13.7297 15.3795 13.6359 15.3749C13.0312 15.3045 11.1984 14.4139 9.04216 13.1202C6.52029 11.6108 4.43904 10.2374 4.66873 9.8811L4.72966 9.7686L4.73904 9.77329C4.53748 10.3827 8.84529 12.8436 9.09841 13.003C11.5875 14.5499 13.6922 15.4499 13.8797 15.2155L13.8094 15.328Z" fill="#FFFF00" stroke="black" stroke-width="0.0875" stroke-linecap="round" stroke-linejoin="round"/>
<path fill-rule="evenodd" clip-rule="evenodd" d="M9.60977 10.3592C11.2176 10.3452 13.2098 10.1389 14.3535 9.68423L14.1098 9.2811C13.4301 9.6561 11.4332 9.90454 9.5957 9.93735C7.4207 9.9186 5.88789 9.71704 5.11914 9.20142L4.88477 9.62798C6.30039 10.2233 7.74414 10.3545 9.60977 10.3592Z" fill="#FFFF00" stroke="black" stroke-width="0.0875" stroke-linecap="round" stroke-linejoin="round"/>
<path fill-rule="evenodd" clip-rule="evenodd" d="M14.4232 9.69365C14.3811 9.75459 13.6357 10.0124 12.5342 10.1999C11.5629 10.3456 10.582 10.4177 9.5998 10.4155C8.65936 10.4197 7.71971 10.3602 6.7873 10.2374C5.63887 10.0546 5.03887 9.80146 4.81855 9.7124L4.8748 9.60459C5.49816 9.85028 6.14776 10.0233 6.81074 10.1202C7.73542 10.2412 8.66726 10.2991 9.5998 10.2937C10.5741 10.2943 11.5471 10.2222 12.5107 10.078C13.6357 9.89521 14.2545 9.66084 14.3389 9.55303L14.4232 9.69365ZM14.2029 9.28115C14.0811 9.3749 13.4717 9.59522 12.4029 9.76397C11.4792 9.89657 10.5471 9.96236 9.61387 9.96084C8.71399 9.96767 7.81479 9.90971 6.92324 9.7874C5.83105 9.64678 5.25449 9.38896 5.04824 9.31396L5.10918 9.20615C5.26855 9.29053 5.83105 9.51553 6.9373 9.6749C7.82477 9.78993 8.719 9.84474 9.61387 9.83896C10.5393 9.84024 11.4636 9.77444 12.3795 9.64209C13.4576 9.49209 14.0389 9.22021 14.1279 9.1499L14.2029 9.28115ZM4.3123 12.2999C5.30605 12.8343 7.50449 13.1062 9.59043 13.1249C11.4889 13.1249 13.9639 12.8296 14.8873 12.3374L14.8592 11.803C14.5732 12.2577 11.9248 12.6937 9.57168 12.6749C7.21855 12.6562 5.03418 12.2905 4.30762 11.8218V12.2999" fill="#FFFF00"/>
<path d="M4.3123 12.2999C5.30605 12.8343 7.50449 13.1062 9.59043 13.1249C11.4889 13.1249 13.9639 12.8296 14.8873 12.3374L14.8592 11.803C14.5732 12.2577 11.9248 12.6937 9.57168 12.6749C7.21855 12.6562 5.03418 12.2905 4.30762 11.8218V12.2999M14.4232 9.69365C14.3811 9.75459 13.6357 10.0124 12.5342 10.1999C11.5629 10.3456 10.582 10.4177 9.5998 10.4155C8.65936 10.4197 7.71971 10.3602 6.7873 10.2374C5.63887 10.0546 5.03887 9.80146 4.81855 9.7124L4.8748 9.60459C5.49816 9.85028 6.14776 10.0233 6.81074 10.1202C7.73542 10.2412 8.66726 10.2991 9.5998 10.2937C10.5741 10.2943 11.5471 10.2222 12.5107 10.078C13.6357 9.89521 14.2545 9.66084 14.3389 9.55303L14.4232 9.69365ZM14.2029 9.28115C14.0811 9.3749 13.4717 9.59522 12.4029 9.76397C11.4792 9.89657 10.5471 9.96236 9.61387 9.96084C8.71399 9.96767 7.81479 9.90971 6.92324 9.7874C5.83105 9.64678 5.25449 9.38896 5.04824 9.31396L5.10918 9.20615C5.26855 9.29053 5.83105 9.51553 6.9373 9.6749C7.82477 9.78993 8.719 9.84474 9.61387 9.83896C10.5393 9.84024 11.4636 9.77444 12.3795 9.64209C13.4576 9.49209 14.0389 9.22021 14.1279 9.1499L14.2029 9.28115Z" stroke="black" stroke-width="0.0875" stroke-linecap="round" stroke-linejoin="round"/>
<path fill-rule="evenodd" clip-rule="evenodd" d="M14.9393 12.2249V12.3514C14.7986 12.5202 13.9268 12.7733 12.8346 12.9467C11.7527 13.1039 10.6606 13.1791 9.56738 13.1717C8.28301 13.1717 7.26113 13.078 6.46426 12.9561C5.69967 12.8692 4.95236 12.6686 4.24707 12.3608V12.2108C4.73457 12.5342 6.04238 12.7686 6.48301 12.8389C7.27051 12.9608 8.2877 13.0499 9.56738 13.0499C10.9127 13.0499 11.9908 12.9561 12.8158 12.8295C13.6033 12.717 14.7189 12.4217 14.9393 12.2249ZM14.9393 11.7702V11.9014C14.7986 12.0655 13.9268 12.3186 12.8346 12.492C11.7527 12.6492 10.6606 12.7244 9.56738 12.717C8.28301 12.717 7.26113 12.6233 6.46895 12.5061C5.70254 12.418 4.95363 12.2158 4.24707 11.9061V11.7561C4.73457 12.0795 6.04238 12.3186 6.48301 12.3842C7.2752 12.5061 8.29238 12.5999 9.56738 12.5999C10.9127 12.5999 11.9908 12.5061 12.8158 12.3749C13.6033 12.2624 14.7189 11.967 14.9393 11.7702ZM9.58613 15.2155C7.30801 15.2014 5.35332 14.5967 4.94082 14.4936L5.24082 14.9624C5.96738 15.2717 7.8752 15.7311 9.60957 15.6795C11.3439 15.628 12.858 15.492 13.9221 14.9764L14.2314 14.4842C13.5049 14.8264 11.0299 15.2155 9.59082 15.2155" fill="#FFFF00"/>
<path d="M9.58613 15.2155C7.30801 15.2014 5.35332 14.5967 4.94082 14.4936L5.24082 14.9624C5.96738 15.2717 7.8752 15.7311 9.60957 15.6795C11.3439 15.628 12.858 15.492 13.9221 14.9764L14.2314 14.4842C13.5049 14.8264 11.0299 15.2155 9.59082 15.2155M14.9393 12.2249V12.3514C14.7986 12.5202 13.9268 12.7733 12.8346 12.9467C11.7527 13.1039 10.6606 13.1791 9.56738 13.1717C8.28301 13.1717 7.26113 13.078 6.46426 12.9561C5.69967 12.8692 4.95236 12.6686 4.24707 12.3608V12.2108C4.73457 12.5342 6.04238 12.7686 6.48301 12.8389C7.27051 12.9608 8.2877 13.0499 9.56738 13.0499C10.9127 13.0499 11.9908 12.9561 12.8158 12.8295C13.6033 12.717 14.7189 12.4217 14.9393 12.2249ZM14.9393 11.7702V11.9014C14.7986 12.0655 13.9268 12.3186 12.8346 12.492C11.7527 12.6492 10.6606 12.7244 9.56738 12.717C8.28301 12.717 7.26113 12.6233 6.46895 12.5061C5.70254 12.418 4.95363 12.2158 4.24707 11.9061V11.7561C4.73457 12.0795 6.04238 12.3186 6.48301 12.3842C7.2752 12.5061 8.29238 12.5999 9.56738 12.5999C10.9127 12.5999 11.9908 12.5061 12.8158 12.3749C13.6033 12.2624 14.7189 11.967 14.9393 11.7702Z" stroke="black" stroke-width="0.0875" stroke-linecap="round" stroke-linejoin="round"/>
<path fill-rule="evenodd" clip-rule="evenodd" d="M14.0389 14.864C13.9932 14.9335 13.9463 15.0023 13.8982 15.0702C13.3663 15.2467 12.8228 15.3861 12.2717 15.4874C11.3872 15.6501 10.4897 15.7317 9.59043 15.7312C7.57012 15.703 5.91543 15.3093 5.1373 14.9718L5.07168 14.864L5.08574 14.8452L5.18887 14.8874C6.61208 15.359 8.10052 15.6042 9.5998 15.614C10.5373 15.6187 11.4748 15.5062 12.2295 15.3749C13.392 15.1405 13.8607 14.9671 14.0061 14.8874L14.0389 14.864ZM14.3061 14.4233H14.3107C14.2768 14.483 14.2424 14.5423 14.2076 14.6015C13.9404 14.6952 13.2092 14.9108 12.1451 15.0608C11.442 15.1546 11.0061 15.2483 9.61387 15.2765C8.01874 15.2593 6.43356 15.0227 4.90293 14.5733L4.84668 14.4562C6.40138 14.8828 8.00218 15.1189 9.61387 15.1593C10.8889 15.1312 11.4326 15.0374 12.1264 14.939C13.3686 14.7515 13.992 14.5452 14.1795 14.4843C14.178 14.4811 14.1765 14.478 14.1748 14.4749L14.3061 14.4233Z" fill="#FFFF00" stroke="black" stroke-width="0.075" stroke-linecap="round" stroke-linejoin="round"/>
<path fill-rule="evenodd" clip-rule="evenodd" d="M14.335 11.878C14.3443 13.378 13.5756 14.728 12.9568 15.3233C12.0479 16.2073 10.8355 16.7104 9.56777 16.7295C8.05371 16.7577 6.62871 15.7686 6.24434 15.3374C5.49434 14.4889 4.88496 13.4155 4.86621 11.9624C4.95996 10.3217 5.60215 9.18267 6.53496 8.39985C7.4376 7.65741 8.5725 7.25588 9.74121 7.26548C10.9318 7.29829 12.3287 7.88423 13.2896 9.04673C13.9178 9.8061 14.1943 10.6311 14.335 11.8827V11.878ZM9.58184 6.74048C12.4881 6.74048 14.8787 9.10767 14.8787 12.0045C14.87 13.4037 14.3082 14.7425 13.3157 15.7288C12.3233 16.7151 10.981 17.2686 9.58184 17.2686C6.67559 17.2686 4.30371 14.9061 4.30371 12.0045C4.30371 9.10298 6.67559 6.74048 9.58184 6.74048Z" fill="#FFFF00" stroke="black" stroke-width="0.0875" stroke-linecap="round" stroke-linejoin="round"/>
<path fill-rule="evenodd" clip-rule="evenodd" d="M9.59531 6.72173C12.5016 6.72173 14.8734 9.09829 14.8734 12.0045C14.8734 14.9108 12.5016 17.2874 9.59531 17.2874C8.19455 17.2836 6.8523 16.7252 5.86225 15.7343C4.8722 14.7434 4.31497 13.4006 4.3125 11.9999C4.31621 10.5999 4.87398 9.25836 5.8639 8.26844C6.85382 7.27852 8.19536 6.72075 9.59531 6.71704V6.72173ZM4.42969 12.0045C4.42969 14.8452 6.76406 17.1702 9.59531 17.1702C12.4266 17.1702 14.7562 14.8452 14.7562 12.0045C14.7562 9.16392 12.4266 6.8436 9.59531 6.8436C8.22763 6.84854 6.91731 7.39371 5.94977 8.36037C4.98223 9.32704 4.43586 10.6369 4.42969 12.0045Z" fill="#FFFF00" stroke="black" stroke-width="0.0875" stroke-linecap="round" stroke-linejoin="round"/>
<path fill-rule="evenodd" clip-rule="evenodd" d="M9.6 7.16235C12.2484 7.16235 14.4328 9.34204 14.4328 11.9999C14.4328 14.6624 12.2484 16.8374 9.6 16.8374C8.31772 16.8337 7.08895 16.3229 6.1818 15.4167C5.27465 14.5104 4.76276 13.2821 4.75781 11.9999C4.75781 9.34204 6.94219 7.16235 9.59531 7.16235H9.6ZM4.875 11.9999C4.875 14.5967 7.00781 16.7202 9.6 16.7202C12.1875 16.7202 14.3203 14.5967 14.3203 11.9999C14.3203 9.40298 12.1875 7.27954 9.59531 7.27954C7.00312 7.27954 4.875 9.40298 4.875 11.9999Z" fill="#FFFF00" stroke="black" stroke-width="0.0875" stroke-linecap="round" stroke-linejoin="round"/>
<path fill-rule="evenodd" clip-rule="evenodd" d="M9.81113 6.70312H9.35645V17.3156H9.81113V6.70312Z" fill="#FFFF00" stroke="black" stroke-width="0.0875" stroke-linecap="round" stroke-linejoin="round"/>
<path fill-rule="evenodd" clip-rule="evenodd" d="M9.76445 6.64209H9.88164V17.3765H9.76445V6.64209ZM9.31445 6.64209H9.43164V17.3765H9.31445V6.64209Z" fill="#FFFF00" stroke="black" stroke-width="0.0875" stroke-linecap="round" stroke-linejoin="round"/>
<path fill-rule="evenodd" clip-rule="evenodd" d="M14.8783 12.2108V11.8124L14.5596 11.5171L12.7455 11.0343L10.1299 10.7671L6.98926 10.9265L4.74395 11.4608L4.29395 11.7983V12.1874L5.4377 11.6718L8.15645 11.2499H10.7721L12.6939 11.4608L14.0252 11.7843L14.8783 12.2108Z" fill="#FFFF00" stroke="black" stroke-width="0.0875" stroke-linecap="round" stroke-linejoin="round"/>
<path fill-rule="evenodd" clip-rule="evenodd" d="M9.59551 11.1889C10.7416 11.1843 11.8856 11.2863 13.0127 11.4936C14.0018 11.6905 14.7002 11.9389 14.9346 12.2155V12.3561C14.6533 12.0093 13.7158 11.7561 12.9893 11.6061C12.0377 11.4233 10.833 11.3061 9.59551 11.3061C8.28301 11.3061 7.06426 11.4327 6.12676 11.6155C5.37676 11.7655 4.37363 12.0608 4.24707 12.3561V12.2155C4.31738 12.0093 5.0627 11.7046 6.1127 11.4936C7.26179 11.2852 8.42767 11.1832 9.59551 11.1889ZM9.59551 10.7343C10.7431 10.7298 11.8886 10.8318 13.0174 11.0389C14.0018 11.2358 14.7049 11.4843 14.9393 11.7655V11.9014C14.6533 11.5546 13.7111 11.3014 12.9893 11.1561C12.0377 10.9686 10.833 10.8514 9.59551 10.8514C8.43532 10.8479 7.27728 10.9514 6.13613 11.1608C5.40957 11.3014 4.36426 11.6108 4.24707 11.9014V11.7608C4.31738 11.5593 5.08145 11.2452 6.1127 11.0436C7.26164 10.8336 8.42753 10.73 9.59551 10.7343ZM9.57207 8.42332C11.5361 8.41394 13.2518 8.69988 14.0346 9.10301L14.3205 9.59519C13.6408 9.22957 11.7893 8.84519 9.57207 8.90613C7.76738 8.91551 5.84082 9.10301 4.87051 9.61863L5.2127 9.04676C6.00957 8.63426 7.88457 8.42801 9.57207 8.42332Z" fill="#FFFF00" stroke="black" stroke-width="0.0875" stroke-linecap="round" stroke-linejoin="round"/>
<path fill-rule="evenodd" clip-rule="evenodd" d="M9.5957 8.83106C10.7207 8.83106 11.7988 8.892 12.6613 9.04668C13.4629 9.19668 14.2316 9.42168 14.3395 9.54356L14.4238 9.69356C14.1566 9.52012 13.4957 9.32325 12.6426 9.16387C11.6352 9.00341 10.6156 8.93282 9.5957 8.95293C8.33008 8.95293 7.3457 9.01387 6.50195 9.16387C5.61133 9.32793 4.99258 9.567 4.83789 9.6795L4.92227 9.52481C5.21758 9.37012 5.69102 9.18731 6.4832 9.04668C7.35508 8.88731 8.34414 8.84043 9.5957 8.83106ZM9.5957 8.38106C10.5857 8.36548 11.5752 8.43448 12.5535 8.58731C13.2051 8.71387 13.8473 8.91075 14.0863 9.08418L14.2082 9.28106C13.9973 9.04668 13.2051 8.82637 12.502 8.7045C11.6863 8.56387 10.6691 8.50762 9.5957 8.49825C8.4707 8.49825 7.43008 8.56856 6.62383 8.71387C5.85508 8.86387 5.3582 9.03731 5.14727 9.17325L5.25508 9.0045C5.5457 8.8545 6.01445 8.71387 6.60508 8.59668C7.41602 8.45137 8.46602 8.38106 9.5957 8.38106ZM12.2207 14.1982C11.354 14.0488 10.475 13.9829 9.5957 14.0014C6.31914 14.0389 5.26445 14.6717 5.1332 14.8639L4.88945 14.4654C5.71914 13.8607 7.50039 13.5232 9.60977 13.5561C10.702 13.5748 11.6441 13.6498 12.441 13.7998L12.216 14.1982" fill="#FFFF00"/>
<path d="M12.2207 14.1982C11.354 14.0488 10.475 13.9829 9.5957 14.0014C6.31914 14.0389 5.26445 14.6717 5.1332 14.8639L4.88945 14.4654C5.71914 13.8607 7.50039 13.5232 9.60977 13.5561C10.702 13.5748 11.6441 13.6498 12.441 13.7998L12.216 14.1982M9.5957 8.83106C10.7207 8.83106 11.7988 8.892 12.6613 9.04668C13.4629 9.19668 14.2316 9.42168 14.3395 9.54356L14.4238 9.69356C14.1566 9.52012 13.4957 9.32325 12.6426 9.16387C11.6352 9.00341 10.6156 8.93282 9.5957 8.95293C8.33008 8.95293 7.3457 9.01387 6.50195 9.16387C5.61133 9.32793 4.99258 9.567 4.83789 9.6795L4.92227 9.52481C5.21758 9.37012 5.69102 9.18731 6.4832 9.04668C7.35508 8.88731 8.34414 8.84043 9.5957 8.83106ZM9.5957 8.38106C10.5857 8.36548 11.5752 8.43448 12.5535 8.58731C13.2051 8.71387 13.8473 8.91075 14.0863 9.08418L14.2082 9.28106C13.9973 9.04668 13.2051 8.82637 12.502 8.7045C11.6863 8.56387 10.6691 8.50762 9.5957 8.49825C8.4707 8.49825 7.43008 8.56856 6.62383 8.71387C5.85508 8.86387 5.3582 9.03731 5.14727 9.17325L5.25508 9.0045C5.5457 8.8545 6.01445 8.71387 6.60508 8.59668C7.41602 8.45137 8.46602 8.38106 9.5957 8.38106Z" stroke="black" stroke-width="0.0875" stroke-linecap="round" stroke-linejoin="round"/>
<path fill-rule="evenodd" clip-rule="evenodd" d="M9.57715 13.9451C10.4865 13.9592 11.3818 13.992 12.249 14.1561L12.1834 14.2686C11.3244 14.1202 10.4534 14.0527 9.58184 14.067C8.37246 14.0576 7.14434 14.1701 6.08496 14.4748C5.74746 14.5686 5.19434 14.7842 5.1334 14.9623L5.07246 14.8592C5.09121 14.7561 5.42871 14.5357 6.05684 14.3623C7.27559 14.0107 8.41465 13.9545 9.57246 13.9404L9.57715 13.9451ZM9.61934 13.4857C10.5794 13.4848 11.5378 13.568 12.4834 13.7342L12.4178 13.8514C11.4962 13.6828 10.5609 13.6012 9.62402 13.6076C8.40996 13.6076 7.12559 13.6967 5.95371 14.0342C5.57871 14.1467 4.92246 14.3811 4.90371 14.5686L4.84277 14.4607C4.85684 14.292 5.41934 14.067 5.93027 13.917C7.13388 13.6022 8.37557 13.457 9.61934 13.4857Z" fill="#FFFF00" stroke="black" stroke-width="0.075" stroke-linecap="round" stroke-linejoin="round"/>
<path fill-rule="evenodd" clip-rule="evenodd" d="M14.2689 14.5264L13.8752 15.1358L12.7455 14.1327L9.81113 12.1639L6.50645 10.3452L4.78613 9.75923L5.15176 9.07954L5.27832 9.01392L6.34707 9.2811L9.8627 11.0952L11.8924 12.3749L13.5939 13.5936L14.2877 14.3952L14.2689 14.5264Z" fill="#FFFF00" stroke="black" stroke-width="0.0875" stroke-linecap="round" stroke-linejoin="round"/>
<path fill-rule="evenodd" clip-rule="evenodd" d="M4.7248 9.77334C5.02949 9.57178 7.24199 10.5562 9.55293 11.953C11.8639 13.3546 14.0717 14.9343 13.8748 15.2343L13.8092 15.3327L13.7764 15.3562C13.7857 15.3562 13.8186 15.3093 13.7764 15.2015C13.6732 14.878 12.1123 13.6312 9.51074 12.0608C6.97949 10.5515 4.87012 9.64209 4.65918 9.90459L4.7248 9.77334ZM14.3482 14.5171C14.5357 14.1421 12.4873 12.5952 9.94199 11.0905C7.34043 9.61397 5.46074 8.74678 5.11855 9.00459L5.04355 9.14522C5.04355 9.1499 5.04355 9.13584 5.0623 9.12178C5.12324 9.07022 5.22637 9.0749 5.27324 9.0749C5.86387 9.07959 7.55137 9.85303 9.91387 11.2124C10.9498 11.8124 14.292 13.9593 14.2779 14.5593C14.2779 14.6108 14.2826 14.6202 14.2639 14.6483L14.3482 14.5171Z" fill="#FFFF00" stroke="black" stroke-width="0.0875" stroke-linecap="round" stroke-linejoin="round"/>
<path d="M6.43066 12.5846C6.43146 12.9986 6.51435 13.4083 6.67456 13.7901C6.83477 14.1718 7.0691 14.518 7.364 14.8086C7.6553 15.1044 8.00225 15.3396 8.38487 15.5007C8.76748 15.6618 9.17819 15.7456 9.59334 15.7472C10.4335 15.7472 11.2393 15.4134 11.8333 14.8192C12.1272 14.5271 12.3604 14.1797 12.5197 13.7971C12.679 13.4146 12.7611 13.0043 12.7613 12.5899V8.36589L6.43066 8.35522V12.5846Z" fill="white" stroke="black" stroke-width="0.0995558"/>
<path d="M6.54785 12.5899C6.54898 12.987 6.62873 13.38 6.78252 13.7462C6.9363 14.1123 7.16107 14.4444 7.44385 14.7232C8.01167 15.294 8.78274 15.6163 9.58786 15.6192C10.3916 15.6197 11.1626 15.3013 11.7319 14.7339C12.0137 14.4546 12.2375 14.1224 12.3903 13.7562C12.5432 13.3901 12.6221 12.9973 12.6225 12.6006V8.4939H6.55852V12.5899M11.4119 9.7259V12.3339L11.4065 12.6059C11.4083 12.8442 11.362 13.0803 11.2704 13.3003C11.1787 13.5202 11.0436 13.7194 10.8732 13.8859C10.534 14.2262 10.0737 14.4181 9.59319 14.4192C9.09186 14.4192 8.64919 14.2059 8.31852 13.8752C7.97818 13.5361 7.78636 13.0757 7.78519 12.5952V9.71523L11.4119 9.7259Z" fill="#FF0000"/>
<path d="M6.54785 12.5899C6.54898 12.987 6.62873 13.38 6.78252 13.7462C6.9363 14.1123 7.16107 14.4444 7.44385 14.7232C8.01167 15.294 8.78274 15.6163 9.58786 15.6192C10.3916 15.6197 11.1626 15.3013 11.7319 14.7339C12.0137 14.4546 12.2375 14.1224 12.3903 13.7562C12.5432 13.3901 12.6221 12.9973 12.6225 12.6006V8.4939H6.55852V12.5899M11.4119 9.7259V12.3339L11.4065 12.6059C11.4083 12.8442 11.362 13.0803 11.2704 13.3003C11.1787 13.5202 11.0436 13.7194 10.8732 13.8859C10.534 14.2262 10.0737 14.4181 9.59319 14.4192C9.09186 14.4192 8.64919 14.2059 8.31852 13.8752C7.97818 13.5361 7.78636 13.0757 7.78519 12.5952V9.71523L11.4119 9.7259Z" stroke="black" stroke-width="0.0711113"/>
<path d="M6.94238 9.56604C6.94772 9.2727 7.15572 9.20337 7.15572 9.20337C7.16105 9.20337 7.38505 9.27804 7.38505 9.57137H6.94238" fill="#FFFF00"/>
<path d="M6.76112 9.2087L6.72378 9.5447H6.94778C6.94778 9.26737 7.16112 9.2247 7.16112 9.2247C7.16645 9.2247 7.37445 9.28337 7.37978 9.5447H7.60378L7.56112 9.20337H6.76112V9.2087ZM6.70778 9.55004H7.61445C7.63045 9.55004 7.64645 9.56604 7.64645 9.58737C7.64645 9.61404 7.63045 9.63004 7.61445 9.63004H6.70778C6.69178 9.63004 6.67578 9.61404 6.67578 9.58737C6.67578 9.56604 6.69178 9.55004 6.71311 9.55004H6.70778Z" fill="#FFFF00" stroke="black" stroke-width="0.0711113"/>
<path d="M7.0386 9.54464C7.0386 9.36864 7.16127 9.32064 7.16127 9.32064C7.16127 9.32064 7.28393 9.37398 7.28393 9.54464H7.0386ZM6.72927 9.06464H7.5986C7.6146 9.06464 7.6306 9.08598 7.6306 9.10731C7.6306 9.12331 7.6146 9.13931 7.5986 9.13931H6.72927C6.71327 9.13931 6.69727 9.12331 6.69727 9.10198C6.69727 9.08598 6.71327 9.06998 6.72927 9.06998V9.06464ZM6.7506 9.14464H7.57193C7.58793 9.14464 7.60393 9.16064 7.60393 9.18198C7.60393 9.20331 7.58793 9.21931 7.57193 9.21931H6.74527C6.72393 9.21931 6.71327 9.20331 6.71327 9.18198C6.71327 9.16064 6.72393 9.14464 6.74527 9.14464H6.7506ZM7.01727 8.57931H7.08127V8.62197H7.12927V8.57931H7.1986V8.62731H7.2466V8.57397H7.3106V8.68064C7.3106 8.70197 7.29993 8.71264 7.28393 8.71264H7.04927C7.03327 8.71264 7.01727 8.70197 7.01727 8.68597V8.57931ZM7.2626 8.72331L7.2786 9.06464H7.04927L7.06527 8.71797H7.2626" fill="#FFFF00"/>
<path d="M7.2626 8.72331L7.2786 9.06464H7.04927L7.06527 8.71797H7.2626M7.0386 9.54464C7.0386 9.36864 7.16127 9.32064 7.16127 9.32064C7.16127 9.32064 7.28393 9.37398 7.28393 9.54464H7.0386ZM6.72927 9.06464H7.5986C7.6146 9.06464 7.6306 9.08598 7.6306 9.10731C7.6306 9.12331 7.6146 9.13931 7.5986 9.13931H6.72927C6.71327 9.13931 6.69727 9.12331 6.69727 9.10198C6.69727 9.08598 6.71327 9.06998 6.72927 9.06998V9.06464ZM6.7506 9.14464H7.57193C7.58793 9.14464 7.60393 9.16064 7.60393 9.18198C7.60393 9.20331 7.58793 9.21931 7.57193 9.21931H6.74527C6.72393 9.21931 6.71327 9.20331 6.71327 9.18198C6.71327 9.16064 6.72393 9.14464 6.74527 9.14464H6.7506ZM7.01727 8.57931H7.08127V8.62197H7.12927V8.57931H7.1986V8.62731H7.2466V8.57397H7.3106V8.68064C7.3106 8.70197 7.29993 8.71264 7.28393 8.71264H7.04927C7.03327 8.71264 7.01727 8.70197 7.01727 8.68597V8.57931Z" stroke="black" stroke-width="0.0711113"/>
<path d="M6.98482 8.8833V9.06463H6.77148V8.8833H6.98482Z" fill="#FFFF00" stroke="black" stroke-width="0.0711113"/>
<path d="M6.98482 8.8833V9.06463H6.77148V8.8833H6.98482Z" fill="#FFFF00" stroke="black" stroke-width="0.0711113"/>
<path d="M6.73438 8.74463H6.79837V8.79796H6.84637V8.74463H6.91038V8.79796H6.95838V8.74463H7.02238V8.8513C7.02238 8.87263 7.01171 8.8833 6.99571 8.8833H6.76637C6.75789 8.8833 6.74975 8.87992 6.74375 8.87392C6.73775 8.86792 6.73438 8.85978 6.73438 8.8513V8.74463Z" fill="#FFFF00" stroke="black" stroke-width="0.0711113"/>
<path d="M6.73438 8.74463H6.79837V8.79796H6.84637V8.74463H6.91038V8.79796H6.95838V8.74463H7.02238V8.8513C7.02238 8.87263 7.01171 8.8833 6.99571 8.8833H6.76637C6.75789 8.8833 6.74975 8.87992 6.74375 8.87392C6.73775 8.86792 6.73438 8.85978 6.73438 8.8513V8.74463Z" fill="#FFFF00" stroke="black" stroke-width="0.0711113"/>
<path d="M7.13965 8.82991C7.13965 8.79791 7.18765 8.79791 7.18765 8.82991V8.91524H7.13965V8.82991Z" fill="black"/>
<path d="M6.85742 8.94734C6.85742 8.91534 6.90009 8.91534 6.90009 8.94734V9.01134H6.85742V8.94734Z" fill="black"/>
<path d="M6.85742 8.94734C6.85742 8.91534 6.90009 8.91534 6.90009 8.94734V9.01134H6.85742V8.94734Z" fill="black"/>
<path d="M6.94238 9.56604C6.94772 9.2727 7.15572 9.20337 7.15572 9.20337C7.16105 9.20337 7.38505 9.27804 7.38505 9.57137H6.94238" fill="#FFFF00"/>
<path d="M6.76112 9.2087L6.72378 9.5447H6.94778C6.94778 9.26737 7.16112 9.2247 7.16112 9.2247C7.16645 9.2247 7.37445 9.28337 7.37978 9.5447H7.60378L7.56112 9.20337H6.76112V9.2087ZM6.70778 9.55004H7.61445C7.63045 9.55004 7.64645 9.56604 7.64645 9.58737C7.64645 9.61404 7.63045 9.63004 7.61445 9.63004H6.70778C6.69178 9.63004 6.67578 9.61404 6.67578 9.58737C6.67578 9.56604 6.69178 9.55004 6.71311 9.55004H6.70778Z" fill="#FFFF00" stroke="black" stroke-width="0.0711113"/>
<path d="M7.0386 9.54464C7.0386 9.36864 7.16127 9.32064 7.16127 9.32064C7.16127 9.32064 7.28393 9.37398 7.28393 9.54464H7.0386ZM6.72927 9.06464H7.5986C7.6146 9.06464 7.6306 9.08598 7.6306 9.10731C7.6306 9.12331 7.6146 9.13931 7.5986 9.13931H6.72927C6.71327 9.13931 6.69727 9.12331 6.69727 9.10198C6.69727 9.08598 6.71327 9.06998 6.72927 9.06998V9.06464ZM6.7506 9.14464H7.57193C7.58793 9.14464 7.60393 9.16064 7.60393 9.18198C7.60393 9.20331 7.58793 9.21931 7.57193 9.21931H6.74527C6.72393 9.21931 6.71327 9.20331 6.71327 9.18198C6.71327 9.16064 6.72393 9.14464 6.74527 9.14464H6.7506ZM7.01727 8.57931H7.08127V8.62197H7.12927V8.57931H7.1986V8.62731H7.2466V8.57397H7.3106V8.68064C7.3106 8.70197 7.29993 8.71264 7.28393 8.71264H7.04927C7.03327 8.71264 7.01727 8.70197 7.01727 8.68597V8.57931ZM7.2626 8.72331L7.2786 9.06464H7.04927L7.06527 8.71797H7.2626" fill="#FFFF00"/>
<path d="M7.2626 8.72331L7.2786 9.06464H7.04927L7.06527 8.71797H7.2626M7.0386 9.54464C7.0386 9.36864 7.16127 9.32064 7.16127 9.32064C7.16127 9.32064 7.28393 9.37398 7.28393 9.54464H7.0386ZM6.72927 9.06464H7.5986C7.6146 9.06464 7.6306 9.08598 7.6306 9.10731C7.6306 9.12331 7.6146 9.13931 7.5986 9.13931H6.72927C6.71327 9.13931 6.69727 9.12331 6.69727 9.10198C6.69727 9.08598 6.71327 9.06998 6.72927 9.06998V9.06464ZM6.7506 9.14464H7.57193C7.58793 9.14464 7.60393 9.16064 7.60393 9.18198C7.60393 9.20331 7.58793 9.21931 7.57193 9.21931H6.74527C6.72393 9.21931 6.71327 9.20331 6.71327 9.18198C6.71327 9.16064 6.72393 9.14464 6.74527 9.14464H6.7506ZM7.01727 8.57931H7.08127V8.62197H7.12927V8.57931H7.1986V8.62731H7.2466V8.57397H7.3106V8.68064C7.3106 8.70197 7.29993 8.71264 7.28393 8.71264H7.04927C7.03327 8.71264 7.01727 8.70197 7.01727 8.68597V8.57931Z" stroke="black" stroke-width="0.0711113"/>
<path d="M6.98482 8.8833V9.06463H6.77148V8.8833H6.98482Z" fill="#FFFF00" stroke="black" stroke-width="0.0711113"/>
<path d="M6.98482 8.8833V9.06463H6.77148V8.8833H6.98482Z" fill="#FFFF00" stroke="black" stroke-width="0.0711113"/>
<path d="M6.73438 8.74463H6.79837V8.79796H6.84637V8.74463H6.91038V8.79796H6.95838V8.74463H7.02238V8.8513C7.02238 8.87263 7.01171 8.8833 6.99571 8.8833H6.76637C6.75789 8.8833 6.74975 8.87992 6.74375 8.87392C6.73775 8.86792 6.73438 8.85978 6.73438 8.8513V8.74463Z" fill="#FFFF00" stroke="black" stroke-width="0.0711113"/>
<path d="M6.73438 8.74463H6.79837V8.79796H6.84637V8.74463H6.91038V8.79796H6.95838V8.74463H7.02238V8.8513C7.02238 8.87263 7.01171 8.8833 6.99571 8.8833H6.76637C6.75789 8.8833 6.74975 8.87992 6.74375 8.87392C6.73775 8.86792 6.73438 8.85978 6.73438 8.8513V8.74463Z" fill="#FFFF00" stroke="black" stroke-width="0.0711113"/>
<path d="M7.13965 8.82991C7.13965 8.79791 7.18765 8.79791 7.18765 8.82991V8.91524H7.13965V8.82991Z" fill="black"/>
<path d="M6.85742 8.94734C6.85742 8.91534 6.90009 8.91534 6.90009 8.94734V9.01134H6.85742V8.94734Z" fill="black"/>
<path d="M6.85742 8.94734C6.85742 8.91534 6.90009 8.91534 6.90009 8.94734V9.01134H6.85742V8.94734Z" fill="black"/>
<path d="M7.9048 14.6088C7.70042 14.3983 7.79778 14.2019 7.79778 14.2019C7.80154 14.1981 8.01236 14.0918 8.2205 14.2985L7.90858 14.6126" fill="#FFFF00"/>
<path d="M7.5229 14.4857L7.73501 14.7489L7.89285 14.59C7.69606 14.3946 7.81611 14.2131 7.81611 14.2131C7.81986 14.2093 8.00806 14.1031 8.19725 14.2835L8.35509 14.1245L8.08282 13.9143L7.51911 14.4819L7.5229 14.4857ZM7.72752 14.764L8.36639 14.1207C8.37766 14.1093 8.40029 14.1093 8.41543 14.1243C8.43435 14.1431 8.43443 14.1657 8.42315 14.1771L7.78428 14.8204C7.77301 14.8318 7.75038 14.8319 7.73146 14.8131C7.71632 14.798 7.71624 14.7754 7.73128 14.7603L7.72752 14.764Z" fill="#FFFF00" stroke="black" stroke-width="0.0711113"/>
<path d="M7.95662 14.5258C7.83173 14.4017 7.88411 14.2809 7.88411 14.2809C7.88411 14.2809 8.00839 14.2314 8.12949 14.3517L7.95662 14.5258ZM7.39806 14.407L8.01062 13.7902C8.02189 13.7788 8.0483 13.7825 8.06344 13.7975C8.0748 13.8088 8.07487 13.8314 8.0636 13.8428L7.45104 14.4596C7.43976 14.471 7.41714 14.4711 7.402 14.456C7.39064 14.4448 7.39057 14.4221 7.40184 14.4108L7.39806 14.407ZM7.46985 14.4483L8.04859 13.8655C8.05987 13.8541 8.0825 13.854 8.09763 13.8691C8.11277 13.8841 8.11285 13.9067 8.10157 13.9181L7.51908 14.5046C7.50404 14.5198 7.48517 14.5161 7.47004 14.501C7.4549 14.486 7.45106 14.4672 7.4661 14.452L7.46985 14.4483ZM7.25661 13.8607L7.30171 13.8153L7.33198 13.8453L7.36581 13.8113L7.33553 13.7812L7.38438 13.732L7.41844 13.7658L7.45227 13.7318L7.41442 13.6942L7.45952 13.6488L7.53521 13.7239C7.55035 13.739 7.5504 13.7541 7.53912 13.7654L7.37377 13.9319C7.36249 13.9433 7.34365 13.9471 7.3323 13.9358L7.25661 13.8607ZM7.53166 13.7881L7.78513 14.0172L7.62354 14.18L7.38883 13.9243L7.52788 13.7843" fill="#FFFF00"/>
<path d="M7.53166 13.7881L7.78513 14.0172L7.62354 14.18L7.38883 13.9243L7.52788 13.7843M7.95662 14.5258C7.83173 14.4017 7.88411 14.2809 7.88411 14.2809C7.88411 14.2809 8.00839 14.2314 8.12949 14.3517L7.95662 14.5258ZM7.39806 14.407L8.01062 13.7902C8.02189 13.7788 8.0483 13.7825 8.06344 13.7975C8.0748 13.8088 8.07487 13.8314 8.0636 13.8428L7.45104 14.4596C7.43976 14.471 7.41714 14.4711 7.402 14.456C7.39064 14.4448 7.39057 14.4221 7.40184 14.4108L7.39806 14.407ZM7.46985 14.4483L8.04859 13.8655C8.05987 13.8541 8.0825 13.854 8.09763 13.8691C8.11277 13.8841 8.11285 13.9067 8.10157 13.9181L7.51908 14.5046C7.50404 14.5198 7.48517 14.5161 7.47004 14.501C7.4549 14.486 7.45106 14.4672 7.4661 14.452L7.46985 14.4483ZM7.25661 13.8607L7.30171 13.8153L7.33198 13.8453L7.36581 13.8113L7.33553 13.7812L7.38438 13.732L7.41844 13.7658L7.45227 13.7318L7.41442 13.6942L7.45952 13.6488L7.53521 13.7239C7.55035 13.739 7.5504 13.7541 7.53912 13.7654L7.37377 13.9319C7.36249 13.9433 7.34365 13.9471 7.3323 13.9358L7.25661 13.8607Z" stroke="black" stroke-width="0.0711113"/>
<path d="M7.45013 14.0976L7.5788 14.2254L7.42847 14.3768L7.2998 14.249L7.45013 14.0976Z" fill="#FFFF00" stroke="black" stroke-width="0.0711113"/>
<path d="M7.45013 14.0976L7.5788 14.2254L7.42847 14.3768L7.2998 14.249L7.45013 14.0976Z" fill="#FFFF00" stroke="black" stroke-width="0.0711113"/>
<path d="M7.1748 14.1777L7.2199 14.1323L7.25775 14.1699L7.29157 14.1358L7.25372 14.0983L7.29882 14.0528L7.33666 14.0904L7.37049 14.0564L7.33264 14.0188L7.37774 13.9734L7.45343 14.0485C7.46856 14.0636 7.46862 14.0787 7.45734 14.09L7.29575 14.2527C7.28977 14.2588 7.28164 14.2622 7.27315 14.2622C7.26467 14.2622 7.25651 14.2589 7.25049 14.2529L7.1748 14.1777Z" fill="#FFFF00" stroke="black" stroke-width="0.0711113"/>
<path d="M7.1748 14.1777L7.2199 14.1323L7.25775 14.1699L7.29157 14.1358L7.25372 14.0983L7.29882 14.0528L7.33666 14.0904L7.37049 14.0564L7.33264 14.0188L7.37774 13.9734L7.45343 14.0485C7.46856 14.0636 7.46862 14.0787 7.45734 14.09L7.29575 14.2527C7.28977 14.2588 7.28164 14.2622 7.27315 14.2622C7.26467 14.2622 7.25651 14.2589 7.25049 14.2529L7.1748 14.1777Z" fill="#FFFF00" stroke="black" stroke-width="0.0711113"/>
<path d="M7.52094 13.9503C7.49823 13.9277 7.53205 13.8937 7.55476 13.9162L7.61531 13.9763L7.58149 14.0104L7.52094 13.9503Z" fill="black"/>
<path d="M7.4057 14.2335C7.383 14.2109 7.41306 14.1806 7.43577 14.2032L7.48118 14.2483L7.45111 14.2786L7.4057 14.2335Z" fill="black"/>
<path d="M7.4057 14.2335C7.383 14.2109 7.41306 14.1806 7.43577 14.2032L7.48118 14.2483L7.45111 14.2786L7.4057 14.2335Z" fill="black"/>
<path d="M6.94238 9.56604C6.94772 9.2727 7.15572 9.20337 7.15572 9.20337C7.16105 9.20337 7.38505 9.27804 7.38505 9.57137H6.94238" fill="#FFFF00"/>
<path d="M6.76112 9.2087L6.72378 9.5447H6.94778C6.94778 9.26737 7.16112 9.2247 7.16112 9.2247C7.16645 9.2247 7.37445 9.28337 7.37978 9.5447H7.60378L7.56112 9.20337H6.76112V9.2087ZM6.70778 9.55004H7.61445C7.63045 9.55004 7.64645 9.56604 7.64645 9.58737C7.64645 9.61404 7.63045 9.63004 7.61445 9.63004H6.70778C6.69178 9.63004 6.67578 9.61404 6.67578 9.58737C6.67578 9.56604 6.69178 9.55004 6.71311 9.55004H6.70778Z" fill="#FFFF00" stroke="black" stroke-width="0.0711113"/>
<path d="M7.0386 9.54464C7.0386 9.36864 7.16127 9.32064 7.16127 9.32064C7.16127 9.32064 7.28393 9.37398 7.28393 9.54464H7.0386ZM6.72927 9.06464H7.5986C7.6146 9.06464 7.6306 9.08598 7.6306 9.10731C7.6306 9.12331 7.6146 9.13931 7.5986 9.13931H6.72927C6.71327 9.13931 6.69727 9.12331 6.69727 9.10198C6.69727 9.08598 6.71327 9.06998 6.72927 9.06998V9.06464ZM6.7506 9.14464H7.57193C7.58793 9.14464 7.60393 9.16064 7.60393 9.18198C7.60393 9.20331 7.58793 9.21931 7.57193 9.21931H6.74527C6.72393 9.21931 6.71327 9.20331 6.71327 9.18198C6.71327 9.16064 6.72393 9.14464 6.74527 9.14464H6.7506ZM7.01727 8.57931H7.08127V8.62197H7.12927V8.57931H7.1986V8.62731H7.2466V8.57397H7.3106V8.68064C7.3106 8.70197 7.29993 8.71264 7.28393 8.71264H7.04927C7.03327 8.71264 7.01727 8.70197 7.01727 8.68597V8.57931ZM7.2626 8.72331L7.2786 9.06464H7.04927L7.06527 8.71797H7.2626" fill="#FFFF00"/>
<path d="M7.2626 8.72331L7.2786 9.06464H7.04927L7.06527 8.71797H7.2626M7.0386 9.54464C7.0386 9.36864 7.16127 9.32064 7.16127 9.32064C7.16127 9.32064 7.28393 9.37398 7.28393 9.54464H7.0386ZM6.72927 9.06464H7.5986C7.6146 9.06464 7.6306 9.08598 7.6306 9.10731C7.6306 9.12331 7.6146 9.13931 7.5986 9.13931H6.72927C6.71327 9.13931 6.69727 9.12331 6.69727 9.10198C6.69727 9.08598 6.71327 9.06998 6.72927 9.06998V9.06464ZM6.7506 9.14464H7.57193C7.58793 9.14464 7.60393 9.16064 7.60393 9.18198C7.60393 9.20331 7.58793 9.21931 7.57193 9.21931H6.74527C6.72393 9.21931 6.71327 9.20331 6.71327 9.18198C6.71327 9.16064 6.72393 9.14464 6.74527 9.14464H6.7506ZM7.01727 8.57931H7.08127V8.62197H7.12927V8.57931H7.1986V8.62731H7.2466V8.57397H7.3106V8.68064C7.3106 8.70197 7.29993 8.71264 7.28393 8.71264H7.04927C7.03327 8.71264 7.01727 8.70197 7.01727 8.68597V8.57931Z" stroke="black" stroke-width="0.0711113"/>
<path d="M6.98482 8.8833V9.06463H6.77148V8.8833H6.98482Z" fill="#FFFF00" stroke="black" stroke-width="0.0711113"/>
<path d="M6.98482 8.8833V9.06463H6.77148V8.8833H6.98482Z" fill="#FFFF00" stroke="black" stroke-width="0.0711113"/>
<path d="M6.73438 8.74463H6.79837V8.79796H6.84637V8.74463H6.91038V8.79796H6.95838V8.74463H7.02238V8.8513C7.02238 8.87263 7.01171 8.8833 6.99571 8.8833H6.76637C6.75789 8.8833 6.74975 8.87992 6.74375 8.87392C6.73775 8.86792 6.73438 8.85978 6.73438 8.8513V8.74463Z" fill="#FFFF00" stroke="black" stroke-width="0.0711113"/>
<path d="M6.73438 8.74463H6.79837V8.79796H6.84637V8.74463H6.91038V8.79796H6.95838V8.74463H7.02238V8.8513C7.02238 8.87263 7.01171 8.8833 6.99571 8.8833H6.76637C6.75789 8.8833 6.74975 8.87992 6.74375 8.87392C6.73775 8.86792 6.73438 8.85978 6.73438 8.8513V8.74463Z" fill="#FFFF00" stroke="black" stroke-width="0.0711113"/>
<path d="M7.13965 8.82991C7.13965 8.79791 7.18765 8.79791 7.18765 8.82991V8.91524H7.13965V8.82991Z" fill="black"/>
<path d="M6.85742 8.94734C6.85742 8.91534 6.90009 8.91534 6.90009 8.94734V9.01134H6.85742V8.94734Z" fill="black"/>
<path d="M6.85742 8.94734C6.85742 8.91534 6.90009 8.91534 6.90009 8.94734V9.01134H6.85742V8.94734Z" fill="black"/>
<path d="M12.2441 9.56604C12.2388 9.2727 12.0308 9.20337 12.0308 9.20337C12.0255 9.20337 11.8015 9.27804 11.8015 9.57137H12.2441" fill="#FFFF00"/>
<path d="M12.4254 9.2087L12.4627 9.5447H12.2387C12.2387 9.26737 12.0254 9.2247 12.0254 9.2247C12.0201 9.2247 11.8121 9.28337 11.8067 9.5447H11.5827L11.6254 9.20337H12.4254V9.2087ZM12.4787 9.55004H11.5721C11.5561 9.55004 11.5401 9.56604 11.5401 9.58737C11.5401 9.61404 11.5561 9.63004 11.5721 9.63004H12.4787C12.4947 9.63004 12.5107 9.61404 12.5107 9.58737C12.5107 9.56604 12.4947 9.55004 12.4734 9.55004H12.4787Z" fill="#FFFF00" stroke="black" stroke-width="0.0711113"/>
<path d="M12.1479 9.54464C12.1479 9.36864 12.0253 9.32064 12.0253 9.32064C12.0253 9.32064 11.9026 9.37398 11.9026 9.54464H12.1479ZM12.4573 9.06464H11.5879C11.5719 9.06464 11.5559 9.08598 11.5559 9.10731C11.5559 9.12331 11.5719 9.13931 11.5879 9.13931H12.4573C12.4733 9.13931 12.4893 9.12331 12.4893 9.10198C12.4893 9.08598 12.4733 9.06998 12.4573 9.06998V9.06464ZM12.4359 9.14464H11.6146C11.5986 9.14464 11.5826 9.16064 11.5826 9.18198C11.5826 9.20331 11.5986 9.21931 11.6146 9.21931H12.4413C12.4626 9.21931 12.4733 9.20331 12.4733 9.18198C12.4733 9.16064 12.4626 9.14464 12.4413 9.14464H12.4359ZM12.1693 8.57931H12.1053V8.62197H12.0573V8.57931H11.9879V8.62731H11.9399V8.57397H11.8759V8.68064C11.8759 8.70197 11.8866 8.71264 11.9026 8.71264H12.1373C12.1533 8.71264 12.1693 8.70197 12.1693 8.68597V8.57931ZM11.9239 8.72331L11.9079 9.06464H12.1373L12.1213 8.71797H11.9239" fill="#FFFF00"/>
<path d="M11.9239 8.72331L11.9079 9.06464H12.1373L12.1213 8.71797H11.9239M12.1479 9.54464C12.1479 9.36864 12.0253 9.32064 12.0253 9.32064C12.0253 9.32064 11.9026 9.37398 11.9026 9.54464H12.1479ZM12.4573 9.06464H11.5879C11.5719 9.06464 11.5559 9.08598 11.5559 9.10731C11.5559 9.12331 11.5719 9.13931 11.5879 9.13931H12.4573C12.4733 9.13931 12.4893 9.12331 12.4893 9.10198C12.4893 9.08598 12.4733 9.06998 12.4573 9.06998V9.06464ZM12.4359 9.14464H11.6146C11.5986 9.14464 11.5826 9.16064 11.5826 9.18198C11.5826 9.20331 11.5986 9.21931 11.6146 9.21931H12.4413C12.4626 9.21931 12.4733 9.20331 12.4733 9.18198C12.4733 9.16064 12.4626 9.14464 12.4413 9.14464H12.4359ZM12.1693 8.57931H12.1053V8.62197H12.0573V8.57931H11.9879V8.62731H11.9399V8.57397H11.8759V8.68064C11.8759 8.70197 11.8866 8.71264 11.9026 8.71264H12.1373C12.1533 8.71264 12.1693 8.70197 12.1693 8.68597V8.57931Z" stroke="black" stroke-width="0.0711113"/>
<path d="M12.2017 8.8833V9.06463H12.415V8.8833H12.2017Z" fill="#FFFF00" stroke="black" stroke-width="0.0711113"/>
<path d="M12.2017 8.8833V9.06463H12.415V8.8833H12.2017Z" fill="#FFFF00" stroke="black" stroke-width="0.0711113"/>
<path d="M12.4521 8.74463H12.3881V8.79796H12.3401V8.74463H12.2761V8.79796H12.2281V8.74463H12.1641V8.8513C12.1641 8.87263 12.1748 8.8833 12.1908 8.8833H12.4201C12.4286 8.8833 12.4368 8.87992 12.4428 8.87392C12.4488 8.86792 12.4521 8.85978 12.4521 8.8513V8.74463Z" fill="#FFFF00" stroke="black" stroke-width="0.0711113"/>
<path d="M12.4521 8.74463H12.3881V8.79796H12.3401V8.74463H12.2761V8.79796H12.2281V8.74463H12.1641V8.8513C12.1641 8.87263 12.1748 8.8833 12.1908 8.8833H12.4201C12.4286 8.8833 12.4368 8.87992 12.4428 8.87392C12.4488 8.86792 12.4521 8.85978 12.4521 8.8513V8.74463Z" fill="#FFFF00" stroke="black" stroke-width="0.0711113"/>
<path d="M12.0469 8.82991C12.0469 8.79791 11.9989 8.79791 11.9989 8.82991V8.91524H12.0469V8.82991Z" fill="black"/>
<path d="M12.3291 8.94734C12.3291 8.91534 12.2864 8.91534 12.2864 8.94734V9.01134H12.3291V8.94734Z" fill="black"/>
<path d="M12.3291 8.94734C12.3291 8.91534 12.2864 8.91534 12.2864 8.94734V9.01134H12.3291V8.94734Z" fill="black"/>
<path d="M12.2441 9.56604C12.2388 9.2727 12.0308 9.20337 12.0308 9.20337C12.0255 9.20337 11.8015 9.27804 11.8015 9.57137H12.2441" fill="#FFFF00"/>
<path d="M12.4254 9.2087L12.4627 9.5447H12.2387C12.2387 9.26737 12.0254 9.2247 12.0254 9.2247C12.0201 9.2247 11.8121 9.28337 11.8067 9.5447H11.5827L11.6254 9.20337H12.4254V9.2087ZM12.4787 9.55004H11.5721C11.5561 9.55004 11.5401 9.56604 11.5401 9.58737C11.5401 9.61404 11.5561 9.63004 11.5721 9.63004H12.4787C12.4947 9.63004 12.5107 9.61404 12.5107 9.58737C12.5107 9.56604 12.4947 9.55004 12.4734 9.55004H12.4787Z" fill="#FFFF00" stroke="black" stroke-width="0.0711113"/>
<path d="M12.1479 9.54464C12.1479 9.36864 12.0253 9.32064 12.0253 9.32064C12.0253 9.32064 11.9026 9.37398 11.9026 9.54464H12.1479ZM12.4573 9.06464H11.5879C11.5719 9.06464 11.5559 9.08598 11.5559 9.10731C11.5559 9.12331 11.5719 9.13931 11.5879 9.13931H12.4573C12.4733 9.13931 12.4893 9.12331 12.4893 9.10198C12.4893 9.08598 12.4733 9.06998 12.4573 9.06998V9.06464ZM12.4359 9.14464H11.6146C11.5986 9.14464 11.5826 9.16064 11.5826 9.18198C11.5826 9.20331 11.5986 9.21931 11.6146 9.21931H12.4413C12.4626 9.21931 12.4733 9.20331 12.4733 9.18198C12.4733 9.16064 12.4626 9.14464 12.4413 9.14464H12.4359ZM12.1693 8.57931H12.1053V8.62197H12.0573V8.57931H11.9879V8.62731H11.9399V8.57397H11.8759V8.68064C11.8759 8.70197 11.8866 8.71264 11.9026 8.71264H12.1373C12.1533 8.71264 12.1693 8.70197 12.1693 8.68597V8.57931ZM11.9239 8.72331L11.9079 9.06464H12.1373L12.1213 8.71797H11.9239" fill="#FFFF00"/>
<path d="M11.9239 8.72331L11.9079 9.06464H12.1373L12.1213 8.71797H11.9239M12.1479 9.54464C12.1479 9.36864 12.0253 9.32064 12.0253 9.32064C12.0253 9.32064 11.9026 9.37398 11.9026 9.54464H12.1479ZM12.4573 9.06464H11.5879C11.5719 9.06464 11.5559 9.08598 11.5559 9.10731C11.5559 9.12331 11.5719 9.13931 11.5879 9.13931H12.4573C12.4733 9.13931 12.4893 9.12331 12.4893 9.10198C12.4893 9.08598 12.4733 9.06998 12.4573 9.06998V9.06464ZM12.4359 9.14464H11.6146C11.5986 9.14464 11.5826 9.16064 11.5826 9.18198C11.5826 9.20331 11.5986 9.21931 11.6146 9.21931H12.4413C12.4626 9.21931 12.4733 9.20331 12.4733 9.18198C12.4733 9.16064 12.4626 9.14464 12.4413 9.14464H12.4359ZM12.1693 8.57931H12.1053V8.62197H12.0573V8.57931H11.9879V8.62731H11.9399V8.57397H11.8759V8.68064C11.8759 8.70197 11.8866 8.71264 11.9026 8.71264H12.1373C12.1533 8.71264 12.1693 8.70197 12.1693 8.68597V8.57931Z" stroke="black" stroke-width="0.0711113"/>
<path d="M12.2017 8.8833V9.06463H12.415V8.8833H12.2017Z" fill="#FFFF00" stroke="black" stroke-width="0.0711113"/>
<path d="M12.2017 8.8833V9.06463H12.415V8.8833H12.2017Z" fill="#FFFF00" stroke="black" stroke-width="0.0711113"/>
<path d="M12.4521 8.74463H12.3881V8.79796H12.3401V8.74463H12.2761V8.79796H12.2281V8.74463H12.1641V8.8513C12.1641 8.87263 12.1748 8.8833 12.1908 8.8833H12.4201C12.4286 8.8833 12.4368 8.87992 12.4428 8.87392C12.4488 8.86792 12.4521 8.85978 12.4521 8.8513V8.74463Z" fill="#FFFF00" stroke="black" stroke-width="0.0711113"/>
<path d="M12.4521 8.74463H12.3881V8.79796H12.3401V8.74463H12.2761V8.79796H12.2281V8.74463H12.1641V8.8513C12.1641 8.87263 12.1748 8.8833 12.1908 8.8833H12.4201C12.4286 8.8833 12.4368 8.87992 12.4428 8.87392C12.4488 8.86792 12.4521 8.85978 12.4521 8.8513V8.74463Z" fill="#FFFF00" stroke="black" stroke-width="0.0711113"/>
<path d="M12.0469 8.82991C12.0469 8.79791 11.9989 8.79791 11.9989 8.82991V8.91524H12.0469V8.82991Z" fill="black"/>
<path d="M12.3291 8.94734C12.3291 8.91534 12.2864 8.91534 12.2864 8.94734V9.01134H12.3291V8.94734Z" fill="black"/>
<path d="M12.3291 8.94734C12.3291 8.91534 12.2864 8.91534 12.2864 8.94734V9.01134H12.3291V8.94734Z" fill="black"/>
<path d="M11.2817 14.6088C11.4861 14.3983 11.3887 14.2019 11.3887 14.2019C11.385 14.1981 11.1742 14.0918 10.966 14.2985L11.2779 14.6126" fill="#FFFF00"/>
<path d="M11.6636 14.4857L11.4515 14.7489L11.2937 14.59C11.4905 14.3946 11.3704 14.2131 11.3704 14.2131C11.3667 14.2093 11.1785 14.1031 10.9893 14.2835L10.8314 14.1245L11.1037 13.9143L11.6674 14.4819L11.6636 14.4857ZM11.459 14.764L10.8201 14.1207C10.8089 14.1093 10.7862 14.1093 10.7711 14.1243C10.7522 14.1431 10.7521 14.1657 10.7634 14.1771L11.4022 14.8204C11.4135 14.8318 11.4361 14.8319 11.4551 14.8131C11.4702 14.798 11.4703 14.7754 11.4552 14.7603L11.459 14.764Z" fill="#FFFF00" stroke="black" stroke-width="0.0711113"/>
<path d="M11.2299 14.5258C11.3548 14.4017 11.3024 14.2809 11.3024 14.2809C11.3024 14.2809 11.1781 14.2314 11.057 14.3517L11.2299 14.5258ZM11.7885 14.407L11.1759 13.7902C11.1646 13.7788 11.1382 13.7825 11.1231 13.7975C11.1117 13.8088 11.1116 13.8314 11.1229 13.8428L11.7355 14.4596C11.7468 14.471 11.7694 14.4711 11.7845 14.456C11.7959 14.4448 11.796 14.4221 11.7847 14.4108L11.7885 14.407ZM11.7167 14.4483L11.1379 13.8655C11.1267 13.8541 11.104 13.854 11.0889 13.8691C11.0738 13.8841 11.0737 13.9067 11.0849 13.9181L11.6674 14.5046C11.6825 14.5198 11.7013 14.5161 11.7165 14.501C11.7316 14.486 11.7355 14.4672 11.7204 14.452L11.7167 14.4483ZM11.9299 13.8607L11.8848 13.8153L11.8545 13.8453L11.8207 13.8113L11.851 13.7812L11.8021 13.732L11.7681 13.7658L11.7343 13.7318L11.7721 13.6942L11.727 13.6488L11.6513 13.7239C11.6362 13.739 11.6361 13.7541 11.6474 13.7654L11.8128 13.9319C11.824 13.9433 11.8429 13.9471 11.8542 13.9358L11.9299 13.8607ZM11.6549 13.7881L11.4014 14.0172L11.563 14.18L11.7977 13.9243L11.6586 13.7843" fill="#FFFF00"/>
<path d="M11.6549 13.7881L11.4014 14.0172L11.563 14.18L11.7977 13.9243L11.6586 13.7843M11.2299 14.5258C11.3548 14.4017 11.3024 14.2809 11.3024 14.2809C11.3024 14.2809 11.1781 14.2314 11.057 14.3517L11.2299 14.5258ZM11.7885 14.407L11.1759 13.7902C11.1646 13.7788 11.1382 13.7825 11.1231 13.7975C11.1117 13.8088 11.1116 13.8314 11.1229 13.8428L11.7355 14.4596C11.7468 14.471 11.7694 14.4711 11.7845 14.456C11.7959 14.4448 11.796 14.4221 11.7847 14.4108L11.7885 14.407ZM11.7167 14.4483L11.1379 13.8655C11.1267 13.8541 11.104 13.854 11.0889 13.8691C11.0738 13.8841 11.0737 13.9067 11.0849 13.9181L11.6674 14.5046C11.6825 14.5198 11.7013 14.5161 11.7165 14.501C11.7316 14.486 11.7355 14.4672 11.7204 14.452L11.7167 14.4483ZM11.9299 13.8607L11.8848 13.8153L11.8545 13.8453L11.8207 13.8113L11.851 13.7812L11.8021 13.732L11.7681 13.7658L11.7343 13.7318L11.7721 13.6942L11.727 13.6488L11.6513 13.7239C11.6362 13.739 11.6361 13.7541 11.6474 13.7654L11.8128 13.9319C11.824 13.9433 11.8429 13.9471 11.8542 13.9358L11.9299 13.8607Z" stroke="black" stroke-width="0.0711113"/>
<path d="M11.7364 14.0976L11.6077 14.2254L11.758 14.3768L11.8867 14.249L11.7364 14.0976Z" fill="#FFFF00" stroke="black" stroke-width="0.0711113"/>
<path d="M11.7364 14.0976L11.6077 14.2254L11.758 14.3768L11.8867 14.249L11.7364 14.0976Z" fill="#FFFF00" stroke="black" stroke-width="0.0711113"/>
<path d="M12.0117 14.1777L11.9666 14.1323L11.9288 14.1699L11.895 14.1358L11.9328 14.0983L11.8877 14.0528L11.8499 14.0904L11.816 14.0564L11.8539 14.0188L11.8088 13.9734L11.7331 14.0485C11.718 14.0636 11.7179 14.0787 11.7292 14.09L11.8908 14.2527C11.8968 14.2588 11.9049 14.2622 11.9134 14.2622C11.9219 14.2622 11.93 14.2589 11.936 14.2529L12.0117 14.1777Z" fill="#FFFF00" stroke="black" stroke-width="0.0711113"/>
<path d="M12.0117 14.1777L11.9666 14.1323L11.9288 14.1699L11.895 14.1358L11.9328 14.0983L11.8877 14.0528L11.8499 14.0904L11.816 14.0564L11.8539 14.0188L11.8088 13.9734L11.7331 14.0485C11.718 14.0636 11.7179 14.0787 11.7292 14.09L11.8908 14.2527C11.8968 14.2588 11.9049 14.2622 11.9134 14.2622C11.9219 14.2622 11.93 14.2589 11.936 14.2529L12.0117 14.1777Z" fill="#FFFF00" stroke="black" stroke-width="0.0711113"/>
<path d="M11.6656 13.9503C11.6883 13.9277 11.6545 13.8937 11.6318 13.9162L11.5712 13.9763L11.605 14.0104L11.6656 13.9503Z" fill="black"/>
<path d="M11.7808 14.2335C11.8035 14.2109 11.7735 14.1806 11.7508 14.2032L11.7053 14.2483L11.7354 14.2786L11.7808 14.2335Z" fill="black"/>
<path d="M11.7808 14.2335C11.8035 14.2109 11.7735 14.1806 11.7508 14.2032L11.7053 14.2483L11.7354 14.2786L11.7808 14.2335Z" fill="black"/>
<path d="M9.20412 12.1258C9.20315 12.2384 9.24511 12.3471 9.32145 12.4298C9.35707 12.4696 9.40061 12.5016 9.44928 12.5236C9.49795 12.5457 9.55069 12.5573 9.60412 12.5578C9.71612 12.5578 9.81745 12.5045 9.88679 12.4298C9.96313 12.3471 10.0051 12.2384 10.0041 12.1258V11.5498H9.20412V12.1258Z" fill="#003399"/>
<path d="M9.39055 11.8485C9.43473 11.8485 9.47055 11.8127 9.47055 11.7685C9.47055 11.7243 9.43473 11.6885 9.39055 11.6885C9.34636 11.6885 9.31055 11.7243 9.31055 11.7685C9.31055 11.8127 9.34636 11.8485 9.39055 11.8485Z" fill="white"/>
<path d="M9.83391 11.8485C9.87809 11.8485 9.91391 11.8127 9.91391 11.7685C9.91391 11.7243 9.87809 11.6885 9.83391 11.6885C9.78972 11.6885 9.75391 11.7243 9.75391 11.7685C9.75391 11.8127 9.78972 11.8485 9.83391 11.8485Z" fill="white"/>
<path d="M9.6093 12.0619C9.65348 12.0619 9.6893 12.026 9.6893 11.9819C9.6893 11.9377 9.65348 11.9019 9.6093 11.9019C9.56511 11.9019 9.5293 11.9377 9.5293 11.9819C9.5293 12.026 9.56511 12.0619 9.6093 12.0619Z" fill="white"/>
<path d="M9.39055 12.2857C9.43473 12.2857 9.47055 12.2499 9.47055 12.2057C9.47055 12.1615 9.43473 12.1257 9.39055 12.1257C9.34636 12.1257 9.31055 12.1615 9.31055 12.2057C9.31055 12.2499 9.34636 12.2857 9.39055 12.2857Z" fill="white"/>
<path d="M9.83391 12.2857C9.87809 12.2857 9.91391 12.2499 9.91391 12.2057C9.91391 12.1615 9.87809 12.1257 9.83391 12.1257C9.78972 12.1257 9.75391 12.1615 9.75391 12.2057C9.75391 12.2499 9.78972 12.2857 9.83391 12.2857Z" fill="white"/>
<path d="M9.20412 12.1258C9.20315 12.2384 9.24511 12.3471 9.32145 12.4298C9.35707 12.4696 9.40061 12.5016 9.44928 12.5236C9.49795 12.5457 9.55069 12.5573 9.60412 12.5578C9.71612 12.5578 9.81745 12.5045 9.88679 12.4298C9.96313 12.3471 10.0051 12.2384 10.0041 12.1258V11.5498H9.20412V12.1258Z" fill="#003399"/>
<path d="M9.39055 11.8485C9.43473 11.8485 9.47055 11.8127 9.47055 11.7685C9.47055 11.7243 9.43473 11.6885 9.39055 11.6885C9.34636 11.6885 9.31055 11.7243 9.31055 11.7685C9.31055 11.8127 9.34636 11.8485 9.39055 11.8485Z" fill="white"/>
<path d="M9.83391 11.8485C9.87809 11.8485 9.91391 11.8127 9.91391 11.7685C9.91391 11.7243 9.87809 11.6885 9.83391 11.6885C9.78972 11.6885 9.75391 11.7243 9.75391 11.7685C9.75391 11.8127 9.78972 11.8485 9.83391 11.8485Z" fill="white"/>
<path d="M9.6093 12.0619C9.65348 12.0619 9.6893 12.026 9.6893 11.9819C9.6893 11.9377 9.65348 11.9019 9.6093 11.9019C9.56511 11.9019 9.5293 11.9377 9.5293 11.9819C9.5293 12.026 9.56511 12.0619 9.6093 12.0619Z" fill="white"/>
<path d="M9.39055 12.2857C9.43473 12.2857 9.47055 12.2499 9.47055 12.2057C9.47055 12.1615 9.43473 12.1257 9.39055 12.1257C9.34636 12.1257 9.31055 12.1615 9.31055 12.2057C9.31055 12.2499 9.34636 12.2857 9.39055 12.2857Z" fill="white"/>
<path d="M9.83391 12.2857C9.87809 12.2857 9.91391 12.2499 9.91391 12.2057C9.91391 12.1615 9.87809 12.1257 9.83391 12.1257C9.78972 12.1257 9.75391 12.1615 9.75391 12.2057C9.75391 12.2499 9.78972 12.2857 9.83391 12.2857Z" fill="white"/>
<path d="M9.20412 12.1258C9.20315 12.2384 9.24511 12.3471 9.32145 12.4298C9.35707 12.4696 9.40061 12.5016 9.44928 12.5236C9.49795 12.5457 9.55069 12.5573 9.60412 12.5578C9.71612 12.5578 9.81745 12.5045 9.88679 12.4298C9.96313 12.3471 10.0051 12.2384 10.0041 12.1258V11.5498H9.20412V12.1258Z" fill="#003399"/>
<path d="M9.39055 11.8485C9.43473 11.8485 9.47055 11.8127 9.47055 11.7685C9.47055 11.7243 9.43473 11.6885 9.39055 11.6885C9.34636 11.6885 9.31055 11.7243 9.31055 11.7685C9.31055 11.8127 9.34636 11.8485 9.39055 11.8485Z" fill="white"/>
<path d="M9.83391 11.8485C9.87809 11.8485 9.91391 11.8127 9.91391 11.7685C9.91391 11.7243 9.87809 11.6885 9.83391 11.6885C9.78972 11.6885 9.75391 11.7243 9.75391 11.7685C9.75391 11.8127 9.78972 11.8485 9.83391 11.8485Z" fill="white"/>
<path d="M9.6093 12.0619C9.65348 12.0619 9.6893 12.026 9.6893 11.9819C9.6893 11.9377 9.65348 11.9019 9.6093 11.9019C9.56511 11.9019 9.5293 11.9377 9.5293 11.9819C9.5293 12.026 9.56511 12.0619 9.6093 12.0619Z" fill="white"/>
<path d="M9.39055 12.2857C9.43473 12.2857 9.47055 12.2499 9.47055 12.2057C9.47055 12.1615 9.43473 12.1257 9.39055 12.1257C9.34636 12.1257 9.31055 12.1615 9.31055 12.2057C9.31055 12.2499 9.34636 12.2857 9.39055 12.2857Z" fill="white"/>
<path d="M9.83391 12.2857C9.87809 12.2857 9.91391 12.2499 9.91391 12.2057C9.91391 12.1615 9.87809 12.1257 9.83391 12.1257C9.78972 12.1257 9.75391 12.1615 9.75391 12.2057C9.75391 12.2499 9.78972 12.2857 9.83391 12.2857Z" fill="white"/>
<path d="M9.20412 12.1258C9.20315 12.2384 9.24511 12.3471 9.32145 12.4298C9.35707 12.4696 9.40061 12.5016 9.44928 12.5236C9.49795 12.5457 9.55069 12.5573 9.60412 12.5578C9.71612 12.5578 9.81745 12.5045 9.88679 12.4298C9.96313 12.3471 10.0051 12.2384 10.0041 12.1258V11.5498H9.20412V12.1258Z" fill="#003399"/>
<path d="M9.39055 11.8485C9.43473 11.8485 9.47055 11.8127 9.47055 11.7685C9.47055 11.7243 9.43473 11.6885 9.39055 11.6885C9.34636 11.6885 9.31055 11.7243 9.31055 11.7685C9.31055 11.8127 9.34636 11.8485 9.39055 11.8485Z" fill="white"/>
<path d="M9.83391 11.8485C9.87809 11.8485 9.91391 11.8127 9.91391 11.7685C9.91391 11.7243 9.87809 11.6885 9.83391 11.6885C9.78972 11.6885 9.75391 11.7243 9.75391 11.7685C9.75391 11.8127 9.78972 11.8485 9.83391 11.8485Z" fill="white"/>
<path d="M9.6093 12.0619C9.65348 12.0619 9.6893 12.026 9.6893 11.9819C9.6893 11.9377 9.65348 11.9019 9.6093 11.9019C9.56511 11.9019 9.5293 11.9377 9.5293 11.9819C9.5293 12.026 9.56511 12.0619 9.6093 12.0619Z" fill="white"/>
<path d="M9.39055 12.2857C9.43473 12.2857 9.47055 12.2499 9.47055 12.2057C9.47055 12.1615 9.43473 12.1257 9.39055 12.1257C9.34636 12.1257 9.31055 12.1615 9.31055 12.2057C9.31055 12.2499 9.34636 12.2857 9.39055 12.2857Z" fill="white"/>
<path d="M9.83391 12.2857C9.87809 12.2857 9.91391 12.2499 9.91391 12.2057C9.91391 12.1615 9.87809 12.1257 9.83391 12.1257C9.78972 12.1257 9.75391 12.1615 9.75391 12.2057C9.75391 12.2499 9.78972 12.2857 9.83391 12.2857Z" fill="white"/>
<path d="M9.20412 12.1258C9.20315 12.2384 9.24511 12.3471 9.32145 12.4298C9.35707 12.4696 9.40061 12.5016 9.44928 12.5236C9.49795 12.5457 9.55069 12.5573 9.60412 12.5578C9.71612 12.5578 9.81745 12.5045 9.88679 12.4298C9.96313 12.3471 10.0051 12.2384 10.0041 12.1258V11.5498H9.20412V12.1258Z" fill="#003399"/>
<path d="M9.39055 11.8485C9.43473 11.8485 9.47055 11.8127 9.47055 11.7685C9.47055 11.7243 9.43473 11.6885 9.39055 11.6885C9.34636 11.6885 9.31055 11.7243 9.31055 11.7685C9.31055 11.8127 9.34636 11.8485 9.39055 11.8485Z" fill="white"/>
<path d="M9.83391 11.8485C9.87809 11.8485 9.91391 11.8127 9.91391 11.7685C9.91391 11.7243 9.87809 11.6885 9.83391 11.6885C9.78972 11.6885 9.75391 11.7243 9.75391 11.7685C9.75391 11.8127 9.78972 11.8485 9.83391 11.8485Z" fill="white"/>
<path d="M9.6093 12.0619C9.65348 12.0619 9.6893 12.026 9.6893 11.9819C9.6893 11.9377 9.65348 11.9019 9.6093 11.9019C9.56511 11.9019 9.5293 11.9377 9.5293 11.9819C9.5293 12.026 9.56511 12.0619 9.6093 12.0619Z" fill="white"/>
<path d="M9.39055 12.2857C9.43473 12.2857 9.47055 12.2499 9.47055 12.2057C9.47055 12.1615 9.43473 12.1257 9.39055 12.1257C9.34636 12.1257 9.31055 12.1615 9.31055 12.2057C9.31055 12.2499 9.34636 12.2857 9.39055 12.2857Z" fill="white"/>
<path d="M9.83391 12.2857C9.87809 12.2857 9.91391 12.2499 9.91391 12.2057C9.91391 12.1615 9.87809 12.1257 9.83391 12.1257C9.78972 12.1257 9.75391 12.1615 9.75391 12.2057C9.75391 12.2499 9.78972 12.2857 9.83391 12.2857Z" fill="white"/>
</g>
<defs>
<clipPath id="clip0_208_24612">
<rect width="24" height="24" rx="12" fill="white"/>
</clipPath>
</defs>
</svg>
