<svg width="24" height="24" viewBox="0 0 24 24" fill="none" xmlns="http://www.w3.org/2000/svg">
<g clip-path="url(#clip0_208_9111)">
<path d="M0 0H24V24H0V0Z" fill="#74ACDF"/>
<path d="M0 8.00159H24V15.9985H0V8.00159Z" fill="white"/>
<path d="M11.8467 12.0624L13.2147 15.0384C13.2147 15.0384 13.2387 15.096 13.2771 15.0816C13.3155 15.0624 13.2915 15.0096 13.2915 15.0096L12.1539 11.9376M12.1203 13.0944C12.1011 13.5456 12.3795 13.7952 12.3459 14.1984C12.3075 14.6064 12.5283 14.832 12.5859 14.9904C12.6339 15.1488 12.5235 15.24 12.5715 15.264C12.6195 15.288 12.7155 15.1632 12.6867 14.9376C12.6531 14.7168 12.4851 14.6496 12.5235 14.1552C12.5619 13.6608 12.3219 13.5456 12.3795 13.0992" fill="#F6B40E"/>
<path d="M11.8467 12.0624L13.2147 15.0384C13.2147 15.0384 13.2387 15.096 13.2771 15.0816C13.3155 15.0624 13.2915 15.0096 13.2915 15.0096L12.1539 11.9376M12.1203 13.0944C12.1011 13.5456 12.3795 13.7952 12.3459 14.1984C12.3075 14.6064 12.5283 14.832 12.5859 14.9904C12.6339 15.1488 12.5235 15.24 12.5715 15.264C12.6195 15.288 12.7155 15.1632 12.6867 14.9376C12.6531 14.7168 12.4851 14.6496 12.5235 14.1552C12.5619 13.6608 12.3219 13.5456 12.3795 13.0992" stroke="#85340A" stroke-width="0.1408"/>
<path d="M11.8341 11.9988L11.9591 15.2718C11.9591 15.2718 11.9592 15.3342 12.0002 15.3356C12.043 15.3326 12.0411 15.2746 12.0411 15.2746L12.1657 12.0011M11.6919 13.057C11.5015 13.4665 11.6632 13.8036 11.4779 14.1633C11.2863 14.5255 11.4039 14.8185 11.3965 14.9868C11.3802 15.1516 11.2433 15.1936 11.2785 15.2341C11.3137 15.2746 11.4501 15.1961 11.5098 14.9766C11.5633 14.7598 11.4338 14.6334 11.6585 14.1913C11.8832 13.7493 11.7055 13.551 11.9296 13.1606" fill="#F6B40E"/>
<path d="M11.8341 11.9988L11.9591 15.2718C11.9591 15.2718 11.9592 15.3342 12.0002 15.3356C12.043 15.3326 12.0411 15.2746 12.0411 15.2746L12.1657 12.0011M11.6919 13.057C11.5015 13.4665 11.6632 13.8036 11.4779 14.1633C11.2863 14.5255 11.4039 14.8185 11.3965 14.9868C11.3802 15.1516 11.2433 15.1936 11.2785 15.2341C11.3137 15.2746 11.4501 15.1961 11.5098 14.9766C11.5633 14.7598 11.4338 14.6334 11.6585 14.1913C11.8832 13.7493 11.7055 13.551 11.9296 13.1606" stroke="#85340A" stroke-width="0.1408"/>
<path d="M11.8473 11.9355L10.7103 15.0072C10.7103 15.0072 10.6865 15.0649 10.7238 15.0819C10.7646 15.0955 10.7849 15.0412 10.7849 15.0412L12.1528 12.0645M11.311 12.8587C10.9784 13.1642 10.9988 13.5376 10.6899 13.7989C10.3743 14.0603 10.3709 14.3759 10.2996 14.5286C10.2215 14.6746 10.079 14.661 10.0959 14.7119C10.1129 14.7628 10.269 14.7425 10.4082 14.5626C10.5406 14.3827 10.4693 14.2164 10.846 13.8939C11.2228 13.5715 11.1345 13.3203 11.4909 13.0454" fill="#F6B40E"/>
<path d="M11.8473 11.9355L10.7103 15.0072C10.7103 15.0072 10.6865 15.0649 10.7238 15.0819C10.7646 15.0955 10.7849 15.0412 10.7849 15.0412L12.1528 12.0645M11.311 12.8587C10.9784 13.1642 10.9988 13.5376 10.6899 13.7989C10.3743 14.0603 10.3709 14.3759 10.2996 14.5286C10.2215 14.6746 10.079 14.661 10.0959 14.7119C10.1129 14.7628 10.269 14.7425 10.4082 14.5626C10.5406 14.3827 10.4693 14.2164 10.846 13.8939C11.2228 13.5715 11.1345 13.3203 11.4909 13.0454" stroke="#85340A" stroke-width="0.1408"/>
<path d="M11.8837 11.882L9.65777 14.2847C9.65777 14.2847 9.61374 14.3289 9.64174 14.3589C9.67417 14.387 9.71377 14.3447 9.71377 14.3447L12.1166 12.118M11.035 12.5297C10.6108 12.6846 10.4867 13.0373 10.1014 13.1606C9.70972 13.2813 9.58578 13.5716 9.46148 13.6854C9.33351 13.7904 9.207 13.7233 9.2032 13.7768C9.1994 13.8303 9.35143 13.8713 9.54884 13.7583C9.73997 13.6428 9.73777 13.4619 10.2092 13.3081C10.6807 13.1544 10.6953 12.8886 11.1297 12.771" fill="#F6B40E"/>
<path d="M11.8837 11.882L9.65777 14.2847C9.65777 14.2847 9.61374 14.3289 9.64174 14.3589C9.67417 14.387 9.71377 14.3447 9.71377 14.3447L12.1166 12.118M11.035 12.5297C10.6108 12.6846 10.4867 13.0373 10.1014 13.1606C9.70972 13.2813 9.58578 13.5716 9.46148 13.6854C9.33351 13.7904 9.207 13.7233 9.2032 13.7768C9.1994 13.8303 9.35143 13.8713 9.54884 13.7583C9.73997 13.6428 9.73777 13.4619 10.2092 13.3081C10.6807 13.1544 10.6953 12.8886 11.1297 12.771" stroke="#85340A" stroke-width="0.1408"/>
<path d="M12.2061 13.1712C12.2301 13.6032 12.4749 13.7952 12.4269 14.1936C12.5325 13.8816 12.2781 13.6368 12.2925 13.176M11.9229 12.0336L12.8589 14.0784L12.0765 11.9712" fill="#85340A"/>
<path d="M11.7429 13.161C11.5997 13.5693 11.7524 13.8404 11.5556 14.1901C11.7725 13.9422 11.6312 13.6187 11.8208 13.1985M11.9166 12.0016L11.9988 14.249L12.0823 12.0028" fill="#85340A"/>
<path d="M11.3175 12.9741C11.029 13.2965 11.0664 13.6054 10.7507 13.8531C11.046 13.7072 11.0392 13.3542 11.3752 13.0386M11.9217 11.9694L11.1377 14.0772L12.0744 12.0339" fill="#85340A"/>
<path d="M10.9968 12.639C10.6069 12.8264 10.5232 13.1261 10.1367 13.2342C10.4654 13.2124 10.5942 12.8837 11.0254 12.7206M11.9394 11.942L10.4085 13.5892L12.0559 12.06" fill="#85340A"/>
<path d="M11.9377 11.8464L8.9617 13.2144C8.9617 13.2144 8.9041 13.2384 8.9185 13.2768C8.9377 13.3152 8.9905 13.2912 8.9905 13.2912L12.0625 12.1536M10.9057 12.12C10.4545 12.1008 10.2049 12.3792 9.8017 12.3456C9.3937 12.3072 9.1681 12.528 9.0097 12.5856C8.8513 12.6336 8.7601 12.5232 8.7361 12.5712C8.7121 12.6192 8.8369 12.7152 9.0625 12.6864C9.2833 12.6528 9.3505 12.4848 9.8449 12.5232C10.3393 12.5616 10.4545 12.3216 10.9009 12.3792" fill="#F6B40E"/>
<path d="M11.9377 11.8464L8.9617 13.2144C8.9617 13.2144 8.9041 13.2384 8.9185 13.2768C8.9377 13.3152 8.9905 13.2912 8.9905 13.2912L12.0625 12.1536M10.9057 12.12C10.4545 12.1008 10.2049 12.3792 9.8017 12.3456C9.3937 12.3072 9.1681 12.528 9.0097 12.5856C8.8513 12.6336 8.7601 12.5232 8.7361 12.5712C8.7121 12.6192 8.8369 12.7152 9.0625 12.6864C9.2833 12.6528 9.3505 12.4848 9.8449 12.5232C10.3393 12.5616 10.4545 12.3216 10.9009 12.3792" stroke="#85340A" stroke-width="0.1408"/>
<path d="M12.0009 11.8342L8.72793 11.9592C8.72793 11.9592 8.66553 11.9593 8.66414 12.0003C8.66719 12.0431 8.72515 12.0412 8.72515 12.0412L11.9987 12.1658M10.9428 11.692C10.5333 11.5016 10.1961 11.6633 9.83647 11.478C9.47422 11.2864 9.1813 11.404 9.01291 11.3966C8.8482 11.3804 8.80619 11.2435 8.76565 11.2786C8.72511 11.3138 8.80367 11.4502 9.02312 11.51C9.23997 11.5634 9.36634 11.4339 9.80842 11.6586C10.2505 11.8833 10.4488 11.7056 10.8391 11.9297" fill="#F6B40E"/>
<path d="M12.0009 11.8342L8.72793 11.9592C8.72793 11.9592 8.66553 11.9593 8.66414 12.0003C8.66719 12.0431 8.72515 12.0412 8.72515 12.0412L11.9987 12.1658M10.9428 11.692C10.5333 11.5016 10.1961 11.6633 9.83647 11.478C9.47422 11.2864 9.1813 11.404 9.01291 11.3966C8.8482 11.3804 8.80619 11.2435 8.76565 11.2786C8.72511 11.3138 8.80367 11.4502 9.02312 11.51C9.23997 11.5634 9.36634 11.4339 9.80842 11.6586C10.2505 11.8833 10.4488 11.7056 10.8391 11.9297" stroke="#85340A" stroke-width="0.1408"/>
<path d="M12.0651 11.8473L8.9934 10.7103C8.9934 10.7103 8.9357 10.6865 8.91873 10.7238C8.90515 10.7646 8.95946 10.7849 8.95946 10.7849L11.9361 12.1528M11.1419 11.311C10.8364 10.9784 10.4631 10.9988 10.2017 10.6899C9.94036 10.3743 9.62471 10.3709 9.47197 10.2996C9.32602 10.2215 9.3396 10.079 9.28869 10.0959C9.23778 10.1129 9.25814 10.269 9.43803 10.4082C9.61792 10.5406 9.78423 10.4693 10.1067 10.846C10.4291 11.2228 10.6803 11.1345 10.9552 11.4909" fill="#F6B40E"/>
<path d="M12.0651 11.8473L8.9934 10.7103C8.9934 10.7103 8.9357 10.6865 8.91873 10.7238C8.90515 10.7646 8.95946 10.7849 8.95946 10.7849L11.9361 12.1528M11.1419 11.311C10.8364 10.9784 10.4631 10.9988 10.2017 10.6899C9.94036 10.3743 9.62471 10.3709 9.47197 10.2996C9.32602 10.2215 9.3396 10.079 9.28869 10.0959C9.23778 10.1129 9.25814 10.269 9.43803 10.4082C9.61792 10.5406 9.78423 10.4693 10.1067 10.846C10.4291 11.2228 10.6803 11.1345 10.9552 11.4909" stroke="#85340A" stroke-width="0.1408"/>
<path d="M12.1183 11.8836L9.71552 9.65765C9.71552 9.65765 9.67131 9.61362 9.64134 9.64161C9.61321 9.67405 9.65559 9.71364 9.65559 9.71364L11.8822 12.1165M11.4706 11.0349C11.3156 10.6107 10.9629 10.4866 10.8396 10.1012C10.719 9.70959 10.4287 9.58566 10.3148 9.46136C10.2099 9.33339 10.277 9.20688 10.2234 9.20308C10.1699 9.19927 10.129 9.35131 10.2419 9.54872C10.3574 9.73985 10.5384 9.73765 10.6921 10.2091C10.8458 10.6806 11.1116 10.6952 11.2292 11.1296" fill="#F6B40E"/>
<path d="M12.1183 11.8836L9.71552 9.65765C9.71552 9.65765 9.67131 9.61362 9.64134 9.64161C9.61321 9.67405 9.65559 9.71364 9.65559 9.71364L11.8822 12.1165M11.4706 11.0349C11.3156 10.6107 10.9629 10.4866 10.8396 10.1012C10.719 9.70959 10.4287 9.58566 10.3148 9.46136C10.2099 9.33339 10.277 9.20688 10.2234 9.20308C10.1699 9.19927 10.129 9.35131 10.2419 9.54872C10.3574 9.73985 10.5384 9.73765 10.6921 10.2091C10.8458 10.6806 11.1116 10.6952 11.2292 11.1296" stroke="#85340A" stroke-width="0.1408"/>
<path d="M10.8293 12.2064C10.3973 12.2304 10.2053 12.4752 9.8069 12.4272C10.1189 12.5328 10.3637 12.2784 10.8245 12.2928M11.9669 11.9232L9.9221 12.8592L12.0293 12.0768" fill="#85340A"/>
<path d="M10.8396 11.7425C10.4313 11.5993 10.1602 11.752 9.81054 11.5552C10.0584 11.7722 10.3819 11.6308 10.8021 11.8205M11.999 11.9162L9.75165 11.9984L11.9979 12.082" fill="#85340A"/>
<path d="M11.0264 11.3178C10.704 11.0293 10.3951 11.0666 10.1473 10.751C10.2933 11.0463 10.6463 11.0395 10.9619 11.3755M12.0311 11.9219L9.92333 11.1379L11.9666 12.0747" fill="#85340A"/>
<path d="M11.3612 10.9969C11.1737 10.607 10.874 10.5233 10.7659 10.1368C10.7878 10.4655 11.1165 10.5943 11.2795 11.0255M12.0582 11.9395L10.4109 10.4086L11.9401 12.056" fill="#85340A"/>
<path d="M12.1533 11.9376L10.7853 8.96158C10.7853 8.96158 10.7613 8.90398 10.7229 8.91838C10.6845 8.93758 10.7085 8.99038 10.7085 8.99038L11.8461 12.0624M11.8797 10.9056C11.8989 10.4544 11.6205 10.2048 11.6541 9.80158C11.6925 9.39358 11.4717 9.16798 11.4141 9.00958C11.3661 8.85118 11.4765 8.75998 11.4285 8.73598C11.3805 8.71198 11.2845 8.83678 11.3133 9.06238C11.3469 9.28318 11.5149 9.35038 11.4765 9.84478C11.4381 10.3392 11.6781 10.4544 11.6205 10.9008" fill="#F6B40E"/>
<path d="M12.1533 11.9376L10.7853 8.96158C10.7853 8.96158 10.7613 8.90398 10.7229 8.91838C10.6845 8.93758 10.7085 8.99038 10.7085 8.99038L11.8461 12.0624M11.8797 10.9056C11.8989 10.4544 11.6205 10.2048 11.6541 9.80158C11.6925 9.39358 11.4717 9.16798 11.4141 9.00958C11.3661 8.85118 11.4765 8.75998 11.4285 8.73598C11.3805 8.71198 11.2845 8.83678 11.3133 9.06238C11.3469 9.28318 11.5149 9.35038 11.4765 9.84478C11.4381 10.3392 11.6781 10.4544 11.6205 10.9008" stroke="#85340A" stroke-width="0.1408"/>
<path d="M12.1659 12.0012L12.0409 8.72818C12.0409 8.72818 12.0408 8.66578 11.9998 8.66439C11.957 8.66743 11.9589 8.7254 11.9589 8.7254L11.8343 11.9989M12.3081 10.943C12.4985 10.5335 12.3368 10.1964 12.5221 9.83671C12.7137 9.47446 12.5961 9.18154 12.6035 9.01316C12.6198 8.84844 12.7567 8.80644 12.7215 8.76589C12.6863 8.72535 12.5499 8.80391 12.4902 9.02336C12.4367 9.24021 12.5662 9.36659 12.3415 9.80866C12.1168 10.2507 12.2945 10.449 12.0704 10.8394" fill="#F6B40E"/>
<path d="M12.1659 12.0012L12.0409 8.72818C12.0409 8.72818 12.0408 8.66578 11.9998 8.66439C11.957 8.66743 11.9589 8.7254 11.9589 8.7254L11.8343 11.9989M12.3081 10.943C12.4985 10.5335 12.3368 10.1964 12.5221 9.83671C12.7137 9.47446 12.5961 9.18154 12.6035 9.01316C12.6198 8.84844 12.7567 8.80643 12.7215 8.76589C12.6863 8.72535 12.5499 8.80391 12.4902 9.02336C12.4367 9.24021 12.5662 9.36659 12.3415 9.80866C12.1168 10.2507 12.2945 10.449 12.0704 10.8394" stroke="#85340A" stroke-width="0.1408"/>
<path d="M12.1527 12.0645L13.2897 8.99279C13.2897 8.99279 13.3135 8.93509 13.2762 8.91812C13.2354 8.90454 13.2151 8.95885 13.2151 8.95885L11.8472 11.9355M12.689 11.1413C13.0216 10.8358 13.0012 10.4624 13.3101 10.2011C13.6257 9.93975 13.6291 9.6241 13.7004 9.47136C13.7785 9.32541 13.921 9.33899 13.9041 9.28808C13.8871 9.23717 13.731 9.25753 13.5918 9.43742C13.4594 9.61731 13.5307 9.78362 13.154 10.1061C12.7772 10.4285 12.8655 10.6797 12.5091 10.9546" fill="#F6B40E"/>
<path d="M12.1527 12.0645L13.2897 8.99279C13.2897 8.99279 13.3135 8.93509 13.2762 8.91812C13.2354 8.90454 13.2151 8.95885 13.2151 8.95885L11.8472 11.9355M12.689 11.1413C13.0216 10.8358 13.0012 10.4624 13.3101 10.2011C13.6257 9.93975 13.6291 9.6241 13.7004 9.47136C13.7785 9.32541 13.921 9.33899 13.9041 9.28808C13.8871 9.23717 13.731 9.25753 13.5918 9.43742C13.4594 9.61731 13.5307 9.78362 13.154 10.1061C12.7772 10.4285 12.8655 10.6797 12.5091 10.9546" stroke="#85340A" stroke-width="0.1408"/>
<path d="M12.1163 12.118L14.3422 9.71528C14.3422 9.71528 14.3863 9.67106 14.3583 9.6411C14.3258 9.61297 14.2862 9.65535 14.2862 9.65535L11.8834 11.882M12.965 11.4703C13.3892 11.3154 13.5133 10.9627 13.8986 10.8394C14.2903 10.7187 14.4142 10.4284 14.5385 10.3146C14.6665 10.2096 14.793 10.2767 14.7968 10.2232C14.8006 10.1697 14.6486 10.1287 14.4512 10.2417C14.26 10.3572 14.2622 10.5381 13.7908 10.6919C13.3193 10.8456 13.3047 11.1114 12.8703 11.229" fill="#F6B40E"/>
<path d="M12.1163 12.118L14.3422 9.71528C14.3422 9.71528 14.3863 9.67106 14.3583 9.6411C14.3258 9.61297 14.2862 9.65535 14.2862 9.65535L11.8834 11.882M12.965 11.4703C13.3892 11.3154 13.5133 10.9627 13.8986 10.8394C14.2903 10.7187 14.4142 10.4284 14.5385 10.3146C14.6665 10.2096 14.793 10.2767 14.7968 10.2232C14.8006 10.1697 14.6486 10.1287 14.4512 10.2417C14.26 10.3572 14.2622 10.5381 13.7908 10.6919C13.3193 10.8456 13.3047 11.1114 12.8703 11.229" stroke="#85340A" stroke-width="0.1408"/>
<path d="M11.7939 10.8288C11.7699 10.3968 11.5251 10.2048 11.5731 9.80641C11.4675 10.1184 11.7219 10.3632 11.7075 10.824M12.0771 11.9664L11.1411 9.92161L11.9235 12.0288" fill="#85340A"/>
<path d="M12.2571 10.839C12.4003 10.4307 12.2476 10.1596 12.4444 9.80993C12.2275 10.0578 12.3688 10.3813 12.1792 10.8015M12.0834 11.9984L12.0012 9.75104L11.9177 11.9972" fill="#85340A"/>
<path d="M12.6825 11.0259C12.971 10.7035 12.9336 10.3946 13.2493 10.1469C12.954 10.2928 12.9608 10.6458 12.6248 10.9614M12.0783 12.0306L12.8623 9.92284L11.9256 11.9661" fill="#85340A"/>
<path d="M13.0032 11.361C13.3931 11.1736 13.4768 10.8739 13.8633 10.7658C13.5346 10.7876 13.4058 11.1163 12.9746 11.2794M12.0606 12.058L13.5915 10.4108L11.9441 11.94" fill="#85340A"/>
<path d="M12.0623 12.1536L15.0383 10.7856C15.0383 10.7856 15.0959 10.7616 15.0815 10.7232C15.0623 10.6848 15.0095 10.7088 15.0095 10.7088L11.9375 11.8464M13.0943 11.88C13.5455 11.8992 13.7951 11.6208 14.1983 11.6544C14.6063 11.6928 14.8319 11.472 14.9903 11.4144C15.1487 11.3664 15.2399 11.4768 15.2639 11.4288C15.2879 11.3808 15.1631 11.2848 14.9375 11.3136C14.7167 11.3472 14.6495 11.5152 14.1551 11.4768C13.6607 11.4384 13.5455 11.6784 13.0991 11.6208" fill="#F6B40E"/>
<path d="M12.0623 12.1536L15.0383 10.7856C15.0383 10.7856 15.0959 10.7616 15.0815 10.7232C15.0623 10.6848 15.0095 10.7088 15.0095 10.7088L11.9375 11.8464M13.0943 11.88C13.5455 11.8992 13.7951 11.6208 14.1983 11.6544C14.6063 11.6928 14.8319 11.472 14.9903 11.4144C15.1487 11.3664 15.2399 11.4768 15.2639 11.4288C15.2879 11.3808 15.1631 11.2848 14.9375 11.3136C14.7167 11.3472 14.6495 11.5152 14.1551 11.4768C13.6607 11.4384 13.5455 11.6784 13.0991 11.6208" stroke="#85340A" stroke-width="0.1408"/>
<path d="M11.9991 12.1658L15.2721 12.0408C15.2721 12.0408 15.3345 12.0407 15.3359 11.9997C15.3328 11.9569 15.2748 11.9588 15.2748 11.9588L12.0013 11.8342M13.0572 12.308C13.4667 12.4984 13.8039 12.3367 14.1635 12.522C14.5258 12.7136 14.8187 12.596 14.9871 12.6034C15.1518 12.6196 15.1938 12.7565 15.2344 12.7214C15.2749 12.6862 15.1963 12.5498 14.9769 12.49C14.76 12.4366 14.6337 12.5661 14.1916 12.3414C13.7495 12.1167 13.5512 12.2944 13.1609 12.0703" fill="#F6B40E"/>
<path d="M11.9991 12.1658L15.2721 12.0408C15.2721 12.0408 15.3345 12.0407 15.3359 11.9997C15.3328 11.9569 15.2748 11.9588 15.2748 11.9588L12.0013 11.8342M13.0572 12.308C13.4667 12.4984 13.8039 12.3367 14.1635 12.522C14.5258 12.7136 14.8187 12.596 14.9871 12.6034C15.1518 12.6196 15.1938 12.7565 15.2344 12.7214C15.2749 12.6862 15.1963 12.5498 14.9769 12.49C14.76 12.4366 14.6337 12.5661 14.1916 12.3414C13.7495 12.1167 13.5512 12.2944 13.1609 12.0703" stroke="#85340A" stroke-width="0.1408"/>
<path d="M11.9349 12.1527L15.0066 13.2897C15.0066 13.2897 15.0643 13.3135 15.0813 13.2762C15.0948 13.2354 15.0405 13.2151 15.0405 13.2151L12.0639 11.8472M12.8581 12.689C13.1636 13.0216 13.5369 13.0012 13.7983 13.3101C14.0596 13.6257 14.3753 13.6291 14.528 13.7004C14.674 13.7785 14.6604 13.921 14.7113 13.9041C14.7622 13.8871 14.7419 13.731 14.562 13.5918C14.3821 13.4594 14.2158 13.5307 13.8933 13.154C13.5709 12.7772 13.3197 12.8655 13.0448 12.5091" fill="#F6B40E"/>
<path d="M11.9349 12.1527L15.0066 13.2897C15.0066 13.2897 15.0643 13.3135 15.0813 13.2762C15.0948 13.2354 15.0405 13.2151 15.0405 13.2151L12.0639 11.8472M12.8581 12.689C13.1636 13.0216 13.5369 13.0012 13.7983 13.3101C14.0596 13.6257 14.3753 13.6291 14.528 13.7004C14.674 13.7785 14.6604 13.921 14.7113 13.9041C14.7622 13.8871 14.7419 13.731 14.562 13.5918C14.3821 13.4594 14.2158 13.5307 13.8933 13.154C13.5709 12.7772 13.3197 12.8655 13.0448 12.5091" stroke="#85340A" stroke-width="0.1408"/>
<path d="M11.8817 12.1164L14.2845 14.3424C14.2845 14.3424 14.3287 14.3864 14.3587 14.3584C14.3868 14.326 14.3444 14.2864 14.3444 14.2864L12.1178 11.8835M12.5294 12.9651C12.6844 13.3893 13.0371 13.5134 13.1604 13.8988C13.281 14.2904 13.5713 14.4143 13.6852 14.5386C13.7901 14.6666 13.723 14.7931 13.7766 14.7969C13.8301 14.8007 13.871 14.6487 13.7581 14.4513C13.6426 14.2601 13.4616 14.2624 13.3079 13.7909C13.1542 13.3194 12.8884 13.3048 12.7708 12.8704" fill="#F6B40E"/>
<path d="M11.8817 12.1164L14.2845 14.3424C14.2845 14.3424 14.3287 14.3864 14.3587 14.3584C14.3868 14.326 14.3444 14.2864 14.3444 14.2864L12.1178 11.8835M12.5294 12.9651C12.6844 13.3893 13.0371 13.5134 13.1604 13.8988C13.281 14.2904 13.5713 14.4143 13.6852 14.5386C13.7901 14.6666 13.723 14.7931 13.7766 14.7969C13.8301 14.8007 13.871 14.6487 13.7581 14.4513C13.6426 14.2601 13.4616 14.2624 13.3079 13.7909C13.1542 13.3194 12.8884 13.3048 12.7708 12.8704" stroke="#85340A" stroke-width="0.1408"/>
<path d="M13.1707 11.7936C13.6027 11.7696 13.7947 11.5248 14.1931 11.5728C13.8811 11.4672 13.6363 11.7216 13.1755 11.7072M12.0331 12.0768L14.0779 11.1408L11.9707 11.9232" fill="#85340A"/>
<path d="M13.1604 12.2575C13.5687 12.4007 13.8398 12.248 14.1895 12.4448C13.9416 12.2278 13.6181 12.3692 13.1979 12.1795M12.001 12.0838L14.2483 12.0016L12.0021 11.918" fill="#85340A"/>
<path d="M12.9736 12.6822C13.296 12.9707 13.6049 12.9334 13.8527 13.249C13.7067 12.9537 13.3537 12.9605 13.0381 12.6245M11.9689 12.0781L14.0767 12.8621L12.0334 11.9253" fill="#85340A"/>
<path d="M12.6388 13.0031C12.8263 13.393 13.126 13.4767 13.2341 13.8632C13.2122 13.5345 12.8835 13.4057 12.7205 12.9745M11.9418 12.0605L13.5891 13.5914L12.0599 11.944" fill="#85340A"/>
<path d="M12.0002 13.3312C12.7354 13.3312 13.3314 12.7352 13.3314 12C13.3314 11.2647 12.7354 10.6687 12.0002 10.6687C11.265 10.6687 10.6689 11.2647 10.6689 12C10.6689 12.7352 11.265 13.3312 12.0002 13.3312Z" fill="#F6B40E" stroke="#85340A" stroke-width="0.1875"/>
<path d="M12.4543 11.7188C12.3605 11.7188 12.2762 11.7563 12.2246 11.836C12.3277 11.9297 12.5527 11.9391 12.7074 11.8266C12.675 11.7917 12.6359 11.7637 12.5924 11.7444C12.5489 11.725 12.5019 11.7147 12.4543 11.7141V11.7188ZM12.4543 11.7375C12.5434 11.7375 12.623 11.775 12.6371 11.8172C12.534 11.9297 12.3699 11.9204 12.2668 11.836C12.2869 11.8048 12.3148 11.7794 12.3476 11.7622C12.3805 11.7449 12.4172 11.7364 12.4543 11.7375Z" fill="#843511"/>
<path d="M12.4739 11.6531C12.3426 11.6531 12.3098 11.6812 12.2489 11.7328C12.188 11.7843 12.1551 11.775 12.1458 11.7843C12.1364 11.7937 12.1458 11.8265 12.1692 11.8171C12.188 11.8031 12.2255 11.7843 12.2911 11.7328C12.352 11.6859 12.413 11.6859 12.4786 11.6859C12.6567 11.6859 12.7598 11.8359 12.7833 11.8265C12.802 11.8171 12.6801 11.6531 12.4739 11.6531Z" fill="#85340A"/>
<path d="M12.8438 11.7141C12.6094 11.5078 12.3094 11.4797 12.1453 11.6297C12.1069 11.6808 12.0812 11.7402 12.0703 11.8032C12.0469 11.9204 12.0844 12.0469 12.1781 12.1782C12.1641 12.1782 12.1453 12.1829 12.1313 12.1969C12.0563 12.0375 12.0234 11.8782 12.0516 11.7282C12.0589 11.6882 12.0699 11.649 12.0844 11.611C12.3094 11.4235 12.6187 11.4047 12.8438 11.7141Z" fill="#85340A"/>
<path d="M12.4502 11.9109C12.502 11.9109 12.5439 11.8689 12.5439 11.8171C12.5439 11.7654 12.502 11.7234 12.4502 11.7234C12.3984 11.7234 12.3564 11.7654 12.3564 11.8171C12.3564 11.8689 12.3984 11.9109 12.4502 11.9109Z" fill="#85340A"/>
<path d="M12.717 11.8782C12.5436 12.0094 12.3701 12 12.267 11.9391C12.1639 11.8782 12.1639 11.8547 12.1873 11.8547C12.2061 11.8547 12.2295 11.8782 12.3092 11.9157C12.3936 11.9625 12.5154 11.9625 12.7217 11.8782H12.717Z" fill="#85340A"/>
<path d="M11.7988 12.1875C11.7831 12.1898 11.7682 12.1959 11.7556 12.2055C11.7429 12.215 11.7329 12.2276 11.7264 12.242C11.7199 12.2565 11.7172 12.2724 11.7185 12.2882C11.7198 12.304 11.7251 12.3192 11.7339 12.3324C11.7427 12.3456 11.7547 12.3563 11.7688 12.3636C11.7829 12.3709 11.7986 12.3745 11.8144 12.3741C11.8303 12.3737 11.8457 12.3692 11.8594 12.3612C11.8731 12.3532 11.8845 12.3418 11.8926 12.3282C11.9254 12.3563 11.9723 12.3563 12.0004 12.3563H12.0145C12.0523 12.3575 12.0898 12.3477 12.1223 12.3282C12.1303 12.3418 12.1418 12.3532 12.1554 12.3612C12.1691 12.3692 12.1846 12.3737 12.2004 12.3741C12.2163 12.3745 12.232 12.3709 12.2461 12.3636C12.2601 12.3563 12.2721 12.3456 12.2809 12.3324C12.2897 12.3192 12.295 12.304 12.2963 12.2882C12.2977 12.2724 12.295 12.2565 12.2885 12.242C12.282 12.2276 12.2719 12.215 12.2593 12.2055C12.2466 12.1959 12.2317 12.1898 12.216 12.1875C12.2395 12.1922 12.2582 12.2157 12.2582 12.2438C12.2582 12.26 12.2518 12.2755 12.2404 12.2869C12.2289 12.2983 12.2134 12.3047 12.1973 12.3047C12.1811 12.3047 12.1656 12.2983 12.1542 12.2869C12.1427 12.2755 12.1363 12.26 12.1363 12.2438C12.1239 12.2682 12.1052 12.2889 12.0821 12.3037C12.0591 12.3186 12.0325 12.327 12.0051 12.3282C11.9785 12.3262 11.9529 12.3174 11.9307 12.3026C11.9085 12.2878 11.8906 12.2676 11.8785 12.2438C11.8785 12.26 11.8721 12.2755 11.8607 12.2869C11.8492 12.2983 11.8337 12.3047 11.8176 12.3047C11.8014 12.3047 11.7859 12.2983 11.7745 12.2869C11.7631 12.2755 11.7566 12.26 11.7566 12.2438C11.7566 12.2157 11.7707 12.1969 11.7941 12.1829L11.7988 12.1875ZM11.8926 12.4594C11.7941 12.4594 11.752 12.5532 11.6582 12.6141C11.7145 12.5907 11.752 12.5532 11.827 12.511C11.8973 12.4688 11.9582 12.5204 12.0004 12.5204C12.0426 12.5204 12.1035 12.4688 12.1738 12.511C12.2441 12.5532 12.2863 12.5907 12.3379 12.6141C12.2441 12.5485 12.2066 12.4594 12.1035 12.4594C12.0677 12.4621 12.0327 12.4717 12.0004 12.4875C11.9682 12.4714 11.9332 12.4619 11.8973 12.4594H11.8926Z" fill="#85340A"/>
<path d="M11.8592 12.5812C11.8018 12.5852 11.7451 12.5962 11.6904 12.614C11.8779 12.5672 11.9154 12.6328 11.9998 12.6328C12.0842 12.6328 12.1217 12.5719 12.3092 12.6094C12.1029 12.5531 12.0607 12.5906 11.9998 12.5906C11.9576 12.5906 11.9295 12.5765 11.8592 12.5765V12.5812Z" fill="#85340A"/>
<path d="M11.6996 12.6094H11.6621C11.8777 12.6328 11.7699 12.7547 11.9996 12.7547C12.2246 12.7547 12.1215 12.6328 12.3371 12.6141C12.1121 12.5906 12.1824 12.7266 11.9996 12.7266C11.8262 12.7266 11.8777 12.6094 11.6996 12.6094ZM12.1824 12.9422C12.1824 12.8933 12.1633 12.8463 12.1292 12.8112C12.095 12.7762 12.0485 12.7559 11.9996 12.7547C11.9499 12.7547 11.9022 12.7744 11.867 12.8096C11.8319 12.8448 11.8121 12.8925 11.8121 12.9422C11.8227 12.9009 11.8471 12.8645 11.8812 12.839C11.9153 12.8134 11.957 12.8002 11.9996 12.8016C12.0422 12.8002 12.084 12.8134 12.118 12.839C12.1521 12.8645 12.1765 12.9009 12.1871 12.9422H12.1824Z" fill="#85340A"/>
<path d="M11.1699 11.7141C11.4043 11.5078 11.7043 11.4797 11.8684 11.6297C11.9067 11.6808 11.9325 11.7402 11.9434 11.8032C11.9668 11.9204 11.9293 12.0469 11.8355 12.1782C11.8496 12.1782 11.8684 12.1829 11.8824 12.1969C11.9574 12.0375 11.9902 11.8782 11.9621 11.7282C11.9548 11.6882 11.9438 11.649 11.9293 11.611C11.7043 11.4235 11.3949 11.4047 11.1699 11.7141Z" fill="#85340A"/>
<path d="M11.5408 11.6531C11.672 11.6531 11.7048 11.6812 11.7658 11.7328C11.8267 11.7843 11.8595 11.775 11.8689 11.7843C11.8783 11.7937 11.8689 11.8265 11.8454 11.8171C11.8267 11.8031 11.7892 11.7843 11.7236 11.7328C11.6626 11.6859 11.6017 11.6859 11.5361 11.6859C11.3579 11.6859 11.2548 11.8359 11.2314 11.8265C11.2126 11.8171 11.3345 11.6531 11.5408 11.6531Z" fill="#85340A"/>
<path d="M11.5363 11.7188C11.4426 11.7188 11.3582 11.7563 11.3066 11.836C11.4098 11.9297 11.6348 11.9391 11.7895 11.8266C11.7571 11.7917 11.7179 11.7637 11.6744 11.7444C11.6309 11.725 11.5839 11.7147 11.5363 11.7141V11.7188ZM11.5363 11.7375C11.6254 11.7375 11.7051 11.775 11.7191 11.8172C11.616 11.9297 11.452 11.9204 11.3488 11.836C11.369 11.8048 11.3968 11.7794 11.4297 11.7622C11.4625 11.7449 11.4992 11.7364 11.5363 11.7375Z" fill="#843511"/>
<path d="M11.5449 11.9109C11.5967 11.9109 11.6387 11.8689 11.6387 11.8171C11.6387 11.7654 11.5967 11.7234 11.5449 11.7234C11.4931 11.7234 11.4512 11.7654 11.4512 11.8171C11.4512 11.8689 11.4931 11.9109 11.5449 11.9109Z" fill="#85340A"/>
<path d="M11.2967 11.8782C11.4701 12.0094 11.6436 12 11.7467 11.9391C11.8498 11.8782 11.8498 11.8547 11.8264 11.8547C11.8076 11.8547 11.7842 11.8782 11.7045 11.9157C11.6201 11.9625 11.4982 11.9625 11.292 11.8782H11.2967Z" fill="#85340A"/>
</g>
<defs>
<clipPath id="clip0_208_9111">
<rect width="24" height="24" rx="12" fill="white"/>
</clipPath>
</defs>
</svg>
