<svg width="24" height="24" viewBox="0 0 24 24" fill="none" xmlns="http://www.w3.org/2000/svg">
<g clip-path="url(#clip0_208_24014)">
<mask id="mask0_208_24014" style="mask-type:luminance" maskUnits="userSpaceOnUse" x="0" y="0" width="24" height="24">
<path d="M0.000976562 0H23.9973V23.9963H0.000976562V0Z" fill="white"/>
</mask>
<g mask="url(#mask0_208_24014)">
<path fill-rule="evenodd" clip-rule="evenodd" d="M-3.91331 0L-3.9375 23.9963H27.9447L-3.91331 0Z" fill="black"/>
<path fill-rule="evenodd" clip-rule="evenodd" d="M27.9205 23.9963L27.9447 0H-3.9375L27.9205 23.9963Z" fill="#FF0000"/>
<path d="M15.7483 5.97011L15.3225 5.95075C15.1919 5.64112 14.8242 5.52501 14.5968 5.66048C14.3936 5.67499 13.3148 5.64112 13.3148 5.64112L14.1034 5.98462C14.2969 6.51196 14.9742 6.63775 14.9742 6.63775C14.9161 7.60534 13.9921 6.51196 13.218 7.06349C12.6665 7.39731 12.6568 7.78918 12.3568 8.43263C12.2104 8.65482 12.0488 8.86658 11.873 9.06641L12.5262 9.01803L12.3181 9.28895L13.0922 9.17768C13.0922 9.17768 12.9906 9.26476 12.9277 9.3325C13.0438 9.35668 13.8131 9.15349 13.8131 9.15349L13.7599 9.40023C14.1517 9.24057 14.6404 9.08092 14.6404 9.08092C14.6404 9.08092 14.8145 9.22606 14.9742 9.28895L15.0855 8.8487L15.5257 8.95997L15.637 8.51488C16.2998 9.40023 16.5223 10.2856 17.7367 10.5081L17.6254 10.063C17.9641 10.2082 18.593 10.5178 18.593 10.5178L18.6897 10.3146C19.2171 10.692 19.6573 10.6871 19.9476 10.7258L19.7299 10.1743L19.9525 10.2856L19.6186 9.40023L19.9525 9.5115L19.5074 8.8487L19.6719 8.73743L19.6235 8.4036C20.2814 8.62615 21.1716 8.95997 21.2781 9.73405C21.3893 10.9484 20.0589 11.2822 19.1784 11.1709C19.8412 11.7225 21.0555 11.4999 21.6119 10.9484C21.8218 10.6891 21.9721 10.3869 22.0521 10.063C22.1634 10.3968 22.386 10.8371 22.386 11.2822C22.2747 12.274 20.9442 12.6078 20.0637 12.7191C21.0555 13.2706 22.8262 12.6078 22.9375 11.1709C22.9375 9.95176 22.1634 9.40023 21.8296 8.8487C21.7871 8.65138 21.75 8.45295 21.7183 8.25363C21.7667 8.2633 22.0521 8.40844 22.0521 8.40844C22.0521 8.40844 21.8586 8.04076 21.8296 7.96335C21.8296 7.96335 21.4861 7.02478 21.3603 6.81675C21.3797 6.80224 21.6119 6.85545 21.6119 6.85545L20.7023 5.71853L20.9588 5.6895C20.9588 5.6895 19.9138 4.86221 19.6235 4.75578L19.9573 4.6445C19.2897 4.31552 18.5156 4.53323 17.8528 4.97832L17.9641 4.6445L17.7609 4.66386V4.28649L17.9641 3.9817L17.6351 3.87043L17.8528 3.3189L17.5238 3.43017L17.6351 2.87381C17.6351 2.87381 17.3835 2.98992 17.2335 2.97057C17.2384 2.98508 17.4125 2.59804 17.4125 2.59804C17.3061 2.43355 17.4125 2.09973 17.4125 2.09973C16.6384 2.211 16.5272 2.32228 16.0869 2.98508C15.4193 4.20425 15.6418 4.75578 15.7531 5.97011H15.7483Z" fill="#FFCC00" stroke="#FFCC00" stroke-width="0.296729"/>
<path fill-rule="evenodd" clip-rule="evenodd" d="M19.9287 7.78918C19.9867 7.88594 20.6108 8.1859 21.0849 8.45682C20.9592 7.944 20.0351 7.83273 19.9238 7.78918H19.9287Z" fill="#FF0000" stroke="#FF0000" stroke-width="0.387037"/>
<path fill-rule="evenodd" clip-rule="evenodd" d="M4.72288 19.9517L4.01654 19.5018L3.07314 19.9566L3.28601 19.1486L2.56031 18.3891L3.39728 18.3407L3.89559 17.4215L4.20038 18.1955L5.22603 18.3842L4.58258 18.9164L4.72288 19.9517ZM6.52745 16.0039L6.19846 15.8491L5.88883 16.0281L5.93721 15.6701L5.66629 15.4282L6.0243 15.3605L6.16944 15.0315L6.3436 15.3508L6.70161 15.3895L6.45004 15.6508L6.52745 16.0039ZM8.11914 13.7398L7.40312 13.3914L6.70645 13.7785L6.81772 12.9947L6.23233 12.4529L7.01608 12.3174L7.34506 11.5917L7.72242 12.2981L8.51101 12.3851L7.96432 12.9657L8.11914 13.7398ZM4.84383 10.5951L4.00203 10.1694L3.17957 10.6241L3.31503 9.69523L2.62804 9.04695L3.55693 8.89697L3.95848 8.04065L4.3939 8.87762L5.32763 8.99373L4.66483 9.67104L4.84383 10.5951ZM1.8201 13.8607L0.96862 13.3576L0.121975 13.8752L0.339684 12.9076L-0.415039 12.2642L0.571906 12.1674L0.954106 11.2531L1.34114 12.1626L2.33293 12.2448L1.59272 12.898L1.8201 13.8607Z" fill="white"/>
</g>
</g>
<defs>
<clipPath id="clip0_208_24014">
<rect width="24" height="24" rx="12" fill="white"/>
</clipPath>
</defs>
</svg>
