<svg width="24" height="24" viewBox="0 0 24 24" fill="none" xmlns="http://www.w3.org/2000/svg">
<g clip-path="url(#clip0_208_22307)">
<mask id="mask0_208_22307" style="mask-type:luminance" maskUnits="userSpaceOnUse" x="-1" y="0" width="25" height="24">
<path d="M-0.000976562 0.00183105H23.9994V23.9973H-0.000976562V0.00183105Z" fill="white"/>
</mask>
<g mask="url(#mask0_208_22307)">
<path fill-rule="evenodd" clip-rule="evenodd" d="M-7.70312 0.00183105H31.4725V14.362H-7.70312V0.00183105Z" fill="#E73E2D"/>
<path fill-rule="evenodd" clip-rule="evenodd" d="M9.57613 13.2199C8.66337 12.5121 6.96475 12.7513 6.68652 10.8184C7.98489 11.8239 7.7506 10.7598 9.69328 11.7214L9.57613 13.2199Z" fill="#FEC74A" stroke="#D8AA3F" stroke-width="0.20826"/>
<path fill-rule="evenodd" clip-rule="evenodd" d="M9.82018 12.3413C9.16611 11.3846 7.47725 11.0966 7.80429 9.16858C8.73169 10.5255 8.8342 9.44192 10.3913 10.9502L9.81529 12.3413H9.82018Z" fill="#FEC74A" stroke="#D8AA3F" stroke-width="0.20826"/>
<path fill-rule="evenodd" clip-rule="evenodd" d="M10.1132 11.7165C9.8789 10.5889 8.42921 9.67129 9.46888 8.0166C9.81056 9.62736 10.3133 8.66091 11.1773 10.6524L10.1132 11.7165Z" fill="#FEC74A" stroke="#D8AA3F" stroke-width="0.20826"/>
<path fill-rule="evenodd" clip-rule="evenodd" d="M10.796 11.1405C10.918 9.9886 9.81976 8.67558 11.3134 7.41626C11.1425 9.05143 11.9235 8.29486 12.1334 10.4425L10.7911 11.1405H10.796Z" fill="#FEC74A" stroke="#D8AA3F" stroke-width="0.20826"/>
<path fill-rule="evenodd" clip-rule="evenodd" d="M11.4014 10.6719C11.9871 9.67611 11.5185 8.0263 13.3977 7.48938C12.5728 8.90978 13.593 8.53393 12.9047 10.5889L11.4014 10.6719Z" fill="#FEC74A" stroke="#D8AA3F" stroke-width="0.20826"/>
<path fill-rule="evenodd" clip-rule="evenodd" d="M12.2852 10.7939C13.154 10.0325 13.237 8.3241 15.1894 8.41196C13.9545 9.49556 15.043 9.46627 13.7397 11.1942L12.2852 10.7939Z" fill="#FEC74A" stroke="#D8AA3F" stroke-width="0.20826"/>
<path fill-rule="evenodd" clip-rule="evenodd" d="M13.0605 11.2382C14.1149 10.7696 14.6957 9.1588 16.5359 9.81775C15.0374 10.4913 16.0868 10.7842 14.3296 12.0484L13.0605 11.243V11.2382Z" fill="#FEC74A" stroke="#D8AA3F" stroke-width="0.20826"/>
<path fill-rule="evenodd" clip-rule="evenodd" d="M13.7051 11.9508C14.8521 11.7946 15.8625 10.4083 17.444 11.5603C15.8137 11.7848 16.7411 12.3608 14.7008 13.0832L13.7051 11.9508Z" fill="#FEC74A" stroke="#D8AA3F" stroke-width="0.20826"/>
<path fill-rule="evenodd" clip-rule="evenodd" d="M17.7862 12.1655L12.5342 12.2827L12.7538 13.6982L17.7862 12.1704V12.1655Z" fill="#FEC74A" stroke="#D8AA3F" stroke-width="0.20826"/>
<path fill-rule="evenodd" clip-rule="evenodd" d="M17.0149 10.2374L12.1484 12.1069L12.9636 13.6688L17.0149 10.2374Z" fill="#FEC74A" stroke="#D8AA3F" stroke-width="0.20826"/>
<path fill-rule="evenodd" clip-rule="evenodd" d="M13.1489 13.1563L15.6676 8.58276L11.8066 12.1752L13.1489 13.1515V13.1563Z" fill="#FEC74A" stroke="#D8AA3F" stroke-width="0.20826"/>
<path fill-rule="evenodd" clip-rule="evenodd" d="M13.1028 12.7777L13.9129 7.64647L11.3896 12.2107L13.1028 12.7777Z" fill="#FEC74A" stroke="#D8AA3F" stroke-width="0.215798"/>
<path fill-rule="evenodd" clip-rule="evenodd" d="M12.7972 12.3607L11.9479 7.19165L11.0107 12.3851L12.7972 12.3607Z" fill="#FEC74A" stroke="#D8AA3F" stroke-width="0.20826"/>
<path fill-rule="evenodd" clip-rule="evenodd" d="M12.355 11.9225L9.90227 7.60948L10.844 12.8522L12.355 11.9225Z" fill="#FEC74A" stroke="#D8AA3F" stroke-width="0.21601"/>
<path fill-rule="evenodd" clip-rule="evenodd" d="M11.9772 11.8873L8.1748 8.67554L10.8789 13.2686L11.9772 11.8873Z" fill="#FEC74A" stroke="#D8AA3F" stroke-width="0.20826"/>
<path fill-rule="evenodd" clip-rule="evenodd" d="M6.84277 10.2618L10.9185 13.6298L11.5481 11.8677L6.83789 10.257L6.84277 10.2618Z" fill="#FEC74A" stroke="#D8AA3F" stroke-width="0.20826"/>
<path fill-rule="evenodd" clip-rule="evenodd" d="M10.8792 12.229L6.08105 12.1606L10.8596 13.7519L10.8743 12.229H10.8792Z" fill="#FEC74A" stroke="#D8AA3F" stroke-width="0.20826"/>
<path fill-rule="evenodd" clip-rule="evenodd" d="M14.769 13.093C14.7849 13.4808 14.7224 13.8679 14.585 14.2309C14.4476 14.5939 14.2382 14.9255 13.9694 15.2055C13.7006 15.4856 13.378 15.7084 13.021 15.8607C12.6639 16.0129 12.2797 16.0914 11.8916 16.0914C11.5034 16.0914 11.1192 16.0129 10.7622 15.8607C10.4051 15.7084 10.0825 15.4856 9.81372 15.2055C9.54495 14.9255 9.33558 14.5939 9.19818 14.2309C9.06077 13.8679 8.99818 13.4808 9.01416 13.093C9.01416 12.3292 9.31757 11.5967 9.85765 11.0566C10.3977 10.5165 11.1302 10.2131 11.894 10.2131C12.6578 10.2131 13.3903 10.5165 13.9304 11.0566C14.4704 11.5967 14.7738 12.3292 14.7738 13.093H14.769Z" fill="#FEC74A" stroke="#D8AA3F" stroke-width="0.20826"/>
<path fill-rule="evenodd" clip-rule="evenodd" d="M-7.74219 14.2205H31.6287V23.9973H-7.74219V14.2205Z" fill="#005989"/>
<path fill-rule="evenodd" clip-rule="evenodd" d="M-7.76173 21.2785C-7.02956 21.6202 -5.98501 22.4646 -4.86236 22.4646C-2.98313 22.4548 -2.93432 21.1809 -1.0307 21.2443C0.87293 21.2931 0.531253 22.6305 3.10359 22.6208C5.22687 22.6208 5.9151 20.9954 7.75039 21.1906C9.10734 21.1223 9.66378 22.7233 11.7529 22.7428C13.9152 22.7916 14.7059 20.9954 16.0629 21.1467C17.5126 21.1467 17.986 22.5915 20.0166 22.6013C22.6036 22.6159 23.0526 21.0979 24.6683 21.1955C25.8202 21.1711 26.7281 22.3084 28.4169 22.3328C29.7592 22.3572 30.8868 21.3419 31.6482 20.9758L31.6873 19.2479C30.8868 19.5457 29.7007 20.517 28.5097 20.5317C26.8013 20.5951 25.7421 19.409 24.5511 19.4188C23.1258 19.4334 22.5596 20.8831 20.1435 20.8831C17.9324 20.8831 17.4247 19.4188 15.9994 19.4188C14.6083 19.4285 14.1837 21.0149 11.7724 20.9807C9.80533 20.9612 9.039 19.4676 7.64301 19.4822C6.16892 19.4822 4.64113 20.9319 3.00597 20.8587C0.750902 20.7611 0.262793 19.4822 -1.21618 19.4822C-2.31931 19.4822 -3.51029 20.683 -4.83795 20.7025C-6.15585 20.7269 -7.64458 19.5066 -7.78125 19.4822L-7.76173 21.2785ZM-7.76173 17.8617C-7.02956 18.2034 -5.98501 19.0478 -4.86236 19.0478C-2.98313 19.0332 -2.93432 17.7592 -1.0307 17.8227C0.87293 17.8715 0.531253 19.2089 3.10359 19.204C5.22687 19.1991 5.9151 17.5786 7.75039 17.7739C9.10734 17.7006 9.66378 19.3065 11.7529 19.326C13.9152 19.3749 14.7059 17.5786 16.0629 17.725C17.5126 17.725 17.986 19.1698 20.0166 19.1845C22.6036 19.1942 23.0526 17.6811 24.6683 17.7739C25.8202 17.7494 26.7281 18.8867 28.4169 18.916C29.7592 18.9404 30.8868 17.9203 31.6482 17.5591L31.6873 15.8312C30.8868 16.124 29.7007 17.1003 28.5097 17.11C26.8013 17.1735 25.7421 15.9874 24.5511 15.9971C23.1258 16.0118 22.5596 17.4615 20.1435 17.4615C17.9324 17.4615 17.4247 15.9971 15.9994 15.9971C14.6083 16.0118 14.1837 17.5933 11.7724 17.564C9.80533 17.5396 9.039 16.0508 7.64301 16.0655C6.16892 16.0655 4.64113 17.5103 3.00597 17.4419C0.750902 17.3443 0.262793 16.0655 -1.21618 16.0655C-2.31931 16.0655 -3.51029 17.2662 -4.83795 17.2857C-6.15585 17.3053 -7.64458 16.0899 -7.78125 16.0655L-7.76173 17.8617Z" fill="white"/>
<path fill-rule="evenodd" clip-rule="evenodd" d="M-7.76173 14.4791C-7.02956 14.8208 -5.98501 15.6653 -4.86236 15.6653C-2.98802 15.6506 -2.9392 14.3815 -1.04046 14.4401C0.863167 14.4889 0.52149 15.8263 3.09383 15.8214C5.2171 15.8214 5.90534 14.196 7.73087 14.3913C9.09269 14.3229 9.64425 15.9239 11.7334 15.9435C13.8908 15.9923 14.6864 14.196 16.0434 14.3474C17.4882 14.3474 17.9616 15.7922 19.9873 15.8019C22.5743 15.8117 23.0233 14.2985 24.639 14.3962C25.7909 14.3718 26.6939 15.5042 28.3828 15.5335C29.7251 15.5579 30.8526 14.5377 31.6092 14.1765L31.6482 12.4486C30.8526 12.7464 29.6616 13.7177 28.4755 13.7275C26.7671 13.7909 25.7079 12.6048 24.5218 12.6194C23.0965 12.6292 22.5303 14.0838 20.1142 14.0838C17.9079 14.0838 17.4003 12.6194 15.9799 12.6194C14.5888 12.6292 14.1593 14.2107 11.7529 14.1814C9.78581 14.1619 9.01947 12.6683 7.62836 12.6829C6.15427 12.6829 4.63137 14.1277 2.99621 14.0594C0.741139 13.9617 0.253031 12.6829 -1.22106 12.6829C-2.32419 12.6829 -3.51517 13.8837 -4.84283 13.9032C-6.16073 13.9227 -7.64458 12.7073 -7.78125 12.6829L-7.76661 14.4791H-7.76173Z" fill="white"/>
<path fill-rule="evenodd" clip-rule="evenodd" d="M6.41309 3.5602C9.27341 3.36496 8.75113 3.12091 9.90307 2.93542C11.3528 3.13067 11.5187 4.00927 12.329 4.55107C12.329 4.55107 12.0263 5.5761 11.0306 5.43454C10.8988 5.02453 11.5138 4.89762 9.74199 3.81402C8.71208 3.75545 6.87191 3.99462 6.41309 3.5602ZM15.282 5.15144L13.2222 5.23442V5.74693C14.6133 5.79086 14.8623 5.6005 15.282 5.15144Z" fill="#FFC84B" stroke="#D8AA3F" stroke-width="0.221276"/>
<path fill-rule="evenodd" clip-rule="evenodd" d="M8.19433 5.06352C8.55554 4.87804 8.73125 4.95613 9.04364 4.94149C9.25841 5.33198 9.45854 5.36615 9.92712 5.41496C10.1345 5.72201 10.4125 5.97488 10.7378 6.15238C11.0631 6.32988 11.4261 6.42683 11.7966 6.43511C13.1975 6.39606 13.6416 5.41496 14.5837 5.30757H15.5794C15.4135 5.02447 15.2866 4.86339 14.9254 4.84875C14.0757 4.79026 13.222 4.84608 12.3872 5.01471L11.2157 5.30757C10.8741 5.14162 10.0296 4.25814 9.4927 4.27766C9.17543 4.36064 9.17543 4.47291 9.01924 4.59005C8.71661 4.72184 8.41398 4.65839 8.18945 5.06352H8.19433Z" fill="#FFC84B" stroke="#D8AA3F" stroke-width="0.20826" stroke-linejoin="round"/>
<path fill-rule="evenodd" clip-rule="evenodd" d="M9.61025 4.63398C9.61025 4.67282 9.59482 4.71006 9.56736 4.73753C9.5399 4.76499 9.50265 4.78041 9.46382 4.78041C9.42498 4.78041 9.38773 4.76499 9.36027 4.73753C9.33281 4.71006 9.31738 4.67282 9.31738 4.63398C9.31738 4.59515 9.33281 4.5579 9.36027 4.53044C9.38773 4.50298 9.42498 4.48755 9.46382 4.48755C9.50265 4.48755 9.5399 4.50298 9.56736 4.53044C9.59482 4.5579 9.61025 4.59515 9.61025 4.63398Z" fill="#FFC84B" stroke="#D8AA3F" stroke-width="0.20826"/>
<path fill-rule="evenodd" clip-rule="evenodd" d="M10.5715 5.05372C12.6752 2.51555 14.5154 2.82306 16.9169 2.65222C16.995 2.94509 16.9657 3.38439 15.8235 3.77487C14.2616 4.00917 11.455 5.65898 11.4452 5.65898C10.9229 5.63457 10.5568 5.08789 10.5666 5.05372H10.5715Z" fill="#FFC84B" stroke="#D8AA3F" stroke-width="0.221276"/>
<path d="M14.8964 3.39905L16.4486 3.46738M14.7305 3.65286L15.8629 3.74561" stroke="#D9A43E" stroke-width="0.221276" stroke-linecap="round"/>
</g>
</g>
<defs>
<clipPath id="clip0_208_22307">
<rect width="24" height="24" rx="12" fill="white"/>
</clipPath>
</defs>
</svg>
