<svg width="24" height="24" viewBox="0 0 24 24" fill="none" xmlns="http://www.w3.org/2000/svg">
<g clip-path="url(#clip0_208_24914)">
<path fill-rule="evenodd" clip-rule="evenodd" d="M0 12H24V24H0V12Z" fill="#19B6EF"/>
<path fill-rule="evenodd" clip-rule="evenodd" d="M0 0H24V12H0V0Z" fill="white"/>
<path fill-rule="evenodd" clip-rule="evenodd" d="M11.8545 16.9594C14.4748 15 17.2967 10.9969 13.992 8.89217C13.3733 8.77029 12.6842 8.80779 12.3514 9.07029C12.1779 8.96717 12.042 8.97654 11.8639 9.16404C11.742 9.01404 11.6201 8.94373 11.3623 9.02342C11.1236 8.89345 10.8613 8.81241 10.5909 8.78504C10.3204 8.75768 10.0473 8.78453 9.78732 8.86404C6.90451 10.5984 8.66701 14.7047 11.8498 16.9594H11.8545Z" fill="#FFDD00" stroke="#7D6C00" stroke-width="0.3"/>
<path fill-rule="evenodd" clip-rule="evenodd" d="M16.7011 12.5063C16.7011 12.5063 16.9964 12.1079 17.0058 12.1079C17.3011 11.9344 17.3339 11.7094 17.3339 11.7094C17.6292 11.6157 17.5355 11.3766 17.5589 11.3438C17.6049 11.2983 17.6362 11.24 17.6488 11.1765C17.6613 11.113 17.6545 11.0471 17.6292 10.9875C17.6292 10.9454 17.7323 10.5704 17.587 10.5188C17.5964 10.1204 17.348 10.1579 17.1511 10.4204C16.9401 10.4813 16.8933 10.6547 16.9636 10.8422C16.6917 10.8422 16.6823 11.2407 16.762 11.4657C16.3964 11.4563 16.6026 11.8641 16.5886 11.8875C16.4667 11.9438 16.6823 12.525 16.7011 12.5063ZM14.3901 15.9141L14.5776 16.0266C14.6105 16.1672 14.7417 16.2516 14.8401 16.2282C14.887 16.4438 15.1214 16.4157 15.2855 16.2891C15.4261 16.486 15.5901 16.4907 15.8151 16.425C16.0214 16.575 16.2839 16.5094 16.4573 16.35C16.6448 16.5047 16.7714 16.3969 16.8651 16.2282C17.0105 16.2657 17.1276 16.2422 17.1792 16.0969C17.4651 16.0735 17.3198 15.8063 17.0855 15.6891C17.273 15.5297 17.4839 15.1922 17.1886 15.1407C17.0948 15.075 16.9261 15.0891 16.7948 15.15C16.762 15 16.5511 14.9625 16.3261 15.1313C16.2464 14.9625 15.9745 15.0422 15.848 15.1594C15.6839 15.0188 15.4917 15.0188 15.2058 15.1829L14.3901 15.9141ZM14.3901 15.4782C14.423 15.2907 14.2964 14.9532 14.4933 14.9157C14.4558 14.6063 14.512 14.2547 14.8683 14.2875C14.9292 13.9922 14.9151 13.7157 15.2573 13.6782C15.2573 13.6782 15.5339 12.7172 15.8198 13.3829C15.9276 13.5704 15.9089 13.8891 15.6839 13.8282C15.7308 14.0625 15.6511 14.2735 15.3886 14.2641C15.5058 14.4329 15.4683 14.6579 15.3417 14.7657L14.3901 15.4782ZM16.0495 14.2875L16.3448 14.2266C16.6495 14.0204 16.7714 13.9407 16.9261 14.1657C17.1792 14.1094 17.423 14.1375 17.4136 14.3391C17.7183 14.3579 17.7136 14.55 17.6808 14.7047C17.7276 14.9719 17.6105 15.3235 17.423 14.8969C16.8323 14.536 16.4995 14.5829 15.562 14.7938L16.0495 14.2875ZM16.2042 13.9922C16.2136 13.9829 17.0808 13.7579 16.987 13.4907C17.2308 13.4532 17.2823 13.2094 17.2917 13.2094C17.8026 13.0454 17.7698 12.75 17.7698 12.75C17.9151 12.5907 18.173 12.436 18.1167 12.1594C18.1355 11.8454 18.1636 11.6485 17.7417 11.8547C17.423 11.8219 17.3151 12.0047 17.2214 12.2766C17.0714 12.1032 16.8323 12.3844 16.8042 12.6375C16.8042 12.6375 16.4151 13.0125 16.4151 13.0219L16.0917 13.6219L16.2042 13.9922Z" fill="#4FD46B" stroke="#3A9D4F" stroke-width="0.3" stroke-linejoin="round"/>
<path fill-rule="evenodd" clip-rule="evenodd" d="M16.2234 13.3171C16.0171 13.1624 15.8999 12.9749 15.9421 12.7874C15.8015 12.6046 15.7078 12.4921 15.839 12.3327L15.7359 11.9577C15.4687 11.8546 15.5812 11.6296 15.6562 11.5499C15.5296 11.3765 15.5249 11.1937 15.6421 11.0296C15.6421 10.7015 15.8718 10.8233 16.064 11.0296C16.064 11.0296 16.3781 11.2546 16.1437 11.4562C16.3781 11.5358 16.4484 11.7374 16.3171 11.8218C16.5187 11.9155 16.5515 12.0983 16.439 12.2202C16.6453 12.3843 16.5656 12.5952 16.6312 12.7827L16.2234 13.3171Z" fill="#4FD46B" stroke="#3A9D4F" stroke-width="0.3" stroke-linejoin="round"/>
<path fill-rule="evenodd" clip-rule="evenodd" d="M16.5931 11.8031C16.579 11.7937 16.2415 11.3625 16.3353 11.3344C16.3165 11.2031 16.2134 11.0578 16.2743 10.9265C16.1103 10.7625 16.1056 10.5656 16.2322 10.4109C16.1197 10.2562 16.1712 10.05 16.3259 9.91874C16.279 9.6703 16.4525 9.60936 16.6072 9.56249C16.7243 9.15936 16.9118 9.26249 17.0197 9.57186C17.179 9.71249 17.1556 9.92342 17.0993 10.0828C17.2868 10.2094 17.1743 10.3687 17.09 10.439L16.5884 11.8031H16.5931Z" fill="#4FD46B" stroke="#3A9D4F" stroke-width="0.3" stroke-linejoin="round"/>
<path fill-rule="evenodd" clip-rule="evenodd" d="M16.5413 9.65621L16.2553 9.37027C16.3256 9.22027 16.3866 8.9484 16.171 8.83121C16.0538 8.54058 15.4678 8.18433 15.3694 8.86871C15.2756 8.66246 15.0881 8.4609 14.9475 8.69996C14.6428 8.43277 14.4788 8.51246 14.6381 8.84996C14.6381 8.84996 14.4975 9.07496 14.8725 9.2484C14.9006 9.27652 14.746 9.65621 15.196 9.66558C15.1116 9.79215 15.2522 9.97496 15.4303 9.9609C15.2991 10.1203 15.5194 10.289 15.6553 10.2234C15.5944 10.4015 15.5991 10.4859 15.8428 10.5093L16.1241 10.8234L16.3444 11.1328L16.5366 9.65621H16.5413Z" fill="#4FD46B" stroke="#3A9D4F" stroke-width="0.3" stroke-linejoin="round"/>
<path d="M16.7148 12.3281C16.7242 12.3093 17.2586 11.0859 17.3289 10.7109M16.7664 10.1484C16.7664 10.1484 16.8602 11.1468 16.6117 11.8828M15.1305 9.14058C15.1305 9.14058 16.2227 10.1906 16.3258 10.6218M15.8898 9.02808C15.8898 9.02808 15.9648 9.89058 16.2648 10.739M17.8211 12.164C17.8211 12.164 16.7289 13.0828 16.1945 13.889M16.7852 15.389C16.7852 15.389 15.3461 15.5859 14.7133 15.6M16.307 16.0078C16.307 16.0078 14.5258 15.9609 14.3945 15.8343M15.4211 13.6875C15.4211 13.7015 14.5164 15.1968 14.4836 15.689" stroke="#3A9D4F" stroke-width="0.275" stroke-linecap="round"/>
<path fill-rule="evenodd" clip-rule="evenodd" d="M11.8449 16.6733C9.9558 14.8921 8.01986 11.5452 9.94642 9.85772C10.2839 10.0499 10.6917 9.87647 11.2449 9.66084C11.4136 9.84365 11.6292 9.89053 11.8402 9.75459C12.0839 9.85303 12.262 9.77334 12.3792 9.64209C12.923 9.96084 13.6214 10.1249 13.7855 9.81084C15.6792 11.6108 13.762 14.9671 11.8402 16.6733H11.8449Z" fill="#65C7FF" stroke="#7D6C00" stroke-width="0.3"/>
<path fill-rule="evenodd" clip-rule="evenodd" d="M11.8551 16.6218C10.9913 15.7873 10.2749 14.8126 9.73633 13.739C9.83008 13.6546 9.87695 13.6312 9.92852 13.4859C10.2034 13.535 10.4852 13.5302 10.7582 13.4718C10.8332 13.7578 10.852 13.9968 11.0301 14.2359L11.4145 13.4859C11.6852 13.5541 11.9687 13.5541 12.2395 13.4859C12.3988 13.7015 12.3426 14.025 12.6238 14.2687C12.7926 13.7718 12.9613 13.739 13.1301 13.4718C13.3785 13.5609 13.5379 13.5187 13.7395 13.4578C13.8473 13.5796 13.7957 13.575 13.9926 13.7578C13.4636 14.8352 12.7388 15.8049 11.8551 16.6171V16.6218Z" fill="#8FC753"/>
<path fill-rule="evenodd" clip-rule="evenodd" d="M9.63242 8.21719C9.63242 8.26194 9.61464 8.30486 9.583 8.33651C9.55135 8.36816 9.50843 8.38594 9.46367 8.38594C9.41892 8.38594 9.37599 8.36816 9.34435 8.33651C9.3127 8.30486 9.29492 8.26194 9.29492 8.21719C9.29492 8.17243 9.3127 8.12951 9.34435 8.09786C9.37599 8.06622 9.41892 8.04844 9.46367 8.04844C9.50843 8.04844 9.55135 8.06622 9.583 8.09786C9.61464 8.12951 9.63242 8.17243 9.63242 8.21719ZM9.45898 7.82812C9.45898 7.87288 9.44121 7.9158 9.40956 7.94745C9.37791 7.9791 9.33499 7.99688 9.29023 7.99688C9.24548 7.99688 9.20256 7.9791 9.17091 7.94745C9.13926 7.9158 9.12148 7.87288 9.12148 7.82812C9.12148 7.78337 9.13926 7.74045 9.17091 7.7088C9.20256 7.67715 9.24548 7.65937 9.29023 7.65937C9.33499 7.65937 9.37791 7.67715 9.40956 7.7088C9.44121 7.74045 9.45898 7.78337 9.45898 7.82812ZM9.25273 7.47187C9.25681 7.49607 9.25556 7.52086 9.24907 7.54452C9.24259 7.56817 9.23102 7.59014 9.21518 7.60887C9.19934 7.6276 9.17961 7.64265 9.15735 7.65298C9.1351 7.6633 9.11086 7.66865 9.08633 7.66865C9.0618 7.66865 9.03756 7.6633 9.01531 7.65298C8.99305 7.64265 8.97332 7.6276 8.95748 7.60887C8.94163 7.59014 8.93007 7.56817 8.92358 7.54452C8.9171 7.52086 8.91585 7.49607 8.91992 7.47187C8.92655 7.43253 8.9469 7.39681 8.97736 7.37105C9.00783 7.34529 9.04643 7.33115 9.08633 7.33115C9.12622 7.33115 9.16483 7.34529 9.19529 7.37105C9.22576 7.39681 9.24611 7.43253 9.25273 7.47187ZM9.11211 7.125C9.11808 7.14981 9.11835 7.17565 9.11289 7.20058C9.10744 7.22551 9.0964 7.24888 9.0806 7.26893C9.06481 7.28897 9.04468 7.30518 9.02172 7.31632C8.99876 7.32746 8.97357 7.33325 8.94805 7.33325C8.92253 7.33325 8.89734 7.32746 8.87438 7.31632C8.85142 7.30518 8.83129 7.28897 8.81549 7.26893C8.7997 7.24888 8.78866 7.22551 8.7832 7.20058C8.77774 7.17565 8.77801 7.14981 8.78398 7.125C8.79285 7.08817 8.81386 7.05539 8.84362 7.03194C8.87338 7.0085 8.91016 6.99575 8.94805 6.99575C8.98593 6.99575 9.02272 7.0085 9.05248 7.03194C9.08224 7.05539 9.10324 7.08817 9.11211 7.125ZM9.13555 6.74531C9.13962 6.7695 9.13837 6.79429 9.13189 6.81795C9.1254 6.84161 9.11383 6.86357 9.09799 6.88231C9.08215 6.90104 9.06242 6.91609 9.04016 6.92642C9.01791 6.93674 8.99367 6.94209 8.96914 6.94209C8.94461 6.94209 8.92037 6.93674 8.89812 6.92642C8.87586 6.91609 8.85613 6.90104 8.84029 6.88231C8.82445 6.86357 8.81288 6.84161 8.80639 6.81795C8.79991 6.79429 8.79866 6.7695 8.80273 6.74531C8.80936 6.70597 8.82971 6.67025 8.86018 6.64449C8.89064 6.61873 8.92925 6.60459 8.96914 6.60459C9.00904 6.60459 9.04764 6.61873 9.07811 6.64449C9.10857 6.67025 9.12892 6.70597 9.13555 6.74531ZM10.0215 6.12188C10.0215 6.14404 10.0171 6.16598 10.0086 6.18645C10.0002 6.20693 9.98773 6.22553 9.97206 6.2412C9.95639 6.25687 9.93779 6.2693 9.91731 6.27778C9.89684 6.28626 9.8749 6.29062 9.85273 6.29062C9.83057 6.29062 9.80863 6.28626 9.78816 6.27778C9.76768 6.2693 9.74908 6.25687 9.73341 6.2412C9.71774 6.22553 9.70531 6.20693 9.69683 6.18645C9.68835 6.16598 9.68398 6.14404 9.68398 6.12188C9.68398 6.07712 9.70176 6.0342 9.73341 6.00255C9.76506 5.9709 9.80798 5.95312 9.85273 5.95312C9.89749 5.95312 9.94041 5.9709 9.97206 6.00255C10.0037 6.0342 10.0215 6.07712 10.0215 6.12188ZM9.68867 6.17813C9.69275 6.20232 9.6915 6.22711 9.68501 6.25077C9.67853 6.27442 9.66696 6.29639 9.65112 6.31512C9.63528 6.33385 9.61554 6.3489 9.59329 6.35923C9.57104 6.36955 9.5468 6.3749 9.52227 6.3749C9.49773 6.3749 9.4735 6.36955 9.45124 6.35923C9.42899 6.3489 9.40925 6.33385 9.39341 6.31512C9.37757 6.29639 9.36601 6.27442 9.35952 6.25077C9.35303 6.22711 9.35179 6.20232 9.35586 6.17813C9.36249 6.13878 9.38284 6.10306 9.4133 6.0773C9.44376 6.05154 9.48237 6.0374 9.52227 6.0374C9.56216 6.0374 9.60077 6.05154 9.63123 6.0773C9.66169 6.10306 9.68205 6.13878 9.68867 6.17813ZM9.32773 6.39844C9.32773 6.4206 9.32337 6.44254 9.31489 6.46302C9.30641 6.48349 9.29398 6.50209 9.27831 6.51776C9.26264 6.53343 9.24404 6.54586 9.22356 6.55434C9.20309 6.56282 9.18114 6.56719 9.15898 6.56719C9.13682 6.56719 9.11488 6.56282 9.09441 6.55434C9.07393 6.54586 9.05533 6.53343 9.03966 6.51776C9.02399 6.50209 9.01156 6.48349 9.00308 6.46302C8.9946 6.44254 8.99023 6.4206 8.99023 6.39844C8.99023 6.35368 9.00801 6.31076 9.03966 6.27911C9.07131 6.24747 9.11423 6.22969 9.15898 6.22969C9.20374 6.22969 9.24666 6.24747 9.27831 6.27911C9.30996 6.31076 9.32773 6.35368 9.32773 6.39844ZM10.448 6.12656C10.448 6.17132 10.4303 6.21424 10.3986 6.24589C10.367 6.27753 10.3241 6.29531 10.2793 6.29531C10.2345 6.29531 10.1916 6.27753 10.16 6.24589C10.1283 6.21424 10.1105 6.17132 10.1105 6.12656C10.1105 6.08181 10.1283 6.03889 10.16 6.00724C10.1916 5.97559 10.2345 5.95781 10.2793 5.95781C10.3241 5.95781 10.367 5.97559 10.3986 6.00724C10.4303 6.03889 10.448 6.08181 10.448 6.12656ZM10.9121 6.16406C10.9162 6.18825 10.9149 6.21304 10.9084 6.2367C10.902 6.26036 10.8904 6.28232 10.8746 6.30106C10.8587 6.31979 10.839 6.33484 10.8167 6.34517C10.7945 6.35549 10.7702 6.36084 10.7457 6.36084C10.7212 6.36084 10.6969 6.35549 10.6747 6.34517C10.6524 6.33484 10.6327 6.31979 10.6169 6.30106C10.601 6.28232 10.5894 6.26036 10.583 6.2367C10.5765 6.21304 10.5752 6.18825 10.5793 6.16406C10.5882 6.12723 10.6092 6.09445 10.6389 6.071C10.6687 6.04756 10.7055 6.03481 10.7434 6.03481C10.7812 6.03481 10.818 6.04756 10.8478 6.071C10.8775 6.09445 10.8986 6.12723 10.9074 6.16406H10.9121ZM11.3246 6.14062C11.3287 6.16482 11.3274 6.18961 11.3209 6.21326C11.3145 6.23692 11.3029 6.25889 11.2871 6.27762C11.2712 6.29635 11.2515 6.3114 11.2292 6.32173C11.207 6.33205 11.1827 6.3374 11.1582 6.3374C11.1337 6.3374 11.1094 6.33205 11.0872 6.32173C11.0649 6.3114 11.0452 6.29635 11.0294 6.27762C11.0135 6.25889 11.0019 6.23692 10.9955 6.21326C10.989 6.18961 10.9877 6.16482 10.9918 6.14062C10.9984 6.10128 11.0188 6.06556 11.0492 6.0398C11.0797 6.01404 11.1183 5.9999 11.1582 5.9999C11.1981 5.9999 11.2367 6.01404 11.2672 6.0398C11.2976 6.06556 11.318 6.10128 11.3246 6.14062Z" fill="white" stroke="black" stroke-width="0.1375"/>
<path fill-rule="evenodd" clip-rule="evenodd" d="M12.2951 5.87341C12.2951 5.98779 12.2497 6.09748 12.1688 6.17835C12.0879 6.25923 11.9782 6.30466 11.8639 6.30466C11.7495 6.30466 11.6398 6.25923 11.5589 6.17835C11.4781 6.09748 11.4326 5.98779 11.4326 5.87341C11.4437 5.76739 11.4937 5.66924 11.5729 5.59789C11.6521 5.52654 11.7549 5.48706 11.8615 5.48706C11.9681 5.48706 12.0709 5.52654 12.1502 5.59789C12.2294 5.66924 12.2793 5.76739 12.2904 5.87341H12.2951Z" fill="#FFDD00" stroke="#7D6C00" stroke-width="0.1375"/>
<path fill-rule="evenodd" clip-rule="evenodd" d="M12.7457 6.13603C12.7457 6.18079 12.7279 6.22371 12.6963 6.25536C12.6646 6.28701 12.6217 6.30479 12.577 6.30479C12.5322 6.30479 12.4893 6.28701 12.4576 6.25536C12.426 6.22371 12.4082 6.18079 12.4082 6.13603C12.4082 6.09128 12.426 6.04836 12.4576 6.01671C12.4893 5.98506 12.5322 5.96729 12.577 5.96729C12.6217 5.96729 12.6646 5.98506 12.6963 6.01671C12.7279 6.04836 12.7457 6.09128 12.7457 6.13603ZM13.1816 6.16885C13.1857 6.19304 13.1845 6.21783 13.178 6.24149C13.1715 6.26515 13.1599 6.28711 13.1441 6.30584C13.1282 6.32457 13.1085 6.33963 13.0863 6.34995C13.064 6.36028 13.0398 6.36562 13.0152 6.36562C12.9907 6.36562 12.9665 6.36028 12.9442 6.34995C12.922 6.33963 12.9022 6.32457 12.8864 6.30584C12.8705 6.28711 12.859 6.26515 12.8525 6.24149C12.846 6.21783 12.8448 6.19304 12.8488 6.16885C12.8555 6.12951 12.8758 6.09378 12.9063 6.06802C12.9367 6.04226 12.9753 6.02812 13.0152 6.02812C13.0551 6.02812 13.0937 6.04226 13.1242 6.06802C13.1547 6.09378 13.175 6.12951 13.1816 6.16885ZM13.6035 6.1501C13.6076 6.17429 13.6063 6.19908 13.5999 6.22274C13.5934 6.2464 13.5818 6.26836 13.566 6.28709C13.5501 6.30582 13.5304 6.32088 13.5081 6.3312C13.4859 6.34153 13.4616 6.34687 13.4371 6.34687C13.4126 6.34687 13.3883 6.34153 13.3661 6.3312C13.3438 6.32088 13.3241 6.30582 13.3083 6.28709C13.2924 6.26836 13.2808 6.2464 13.2744 6.22274C13.2679 6.19908 13.2666 6.17429 13.2707 6.1501C13.2773 6.11076 13.2977 6.07503 13.3281 6.04927C13.3586 6.02351 13.3972 6.00937 13.4371 6.00937C13.477 6.00937 13.5156 6.02351 13.5461 6.04927C13.5765 6.07503 13.5969 6.11076 13.6035 6.1501ZM13.9598 6.13603C13.9638 6.16023 13.9626 6.18502 13.9561 6.20868C13.9496 6.23233 13.9381 6.2543 13.9222 6.27303C13.9064 6.29176 13.8866 6.30681 13.8644 6.31714C13.8421 6.32746 13.8179 6.33281 13.7934 6.33281C13.7688 6.33281 13.7446 6.32746 13.7223 6.31714C13.7001 6.30681 13.6803 6.29176 13.6645 6.27303C13.6487 6.2543 13.6371 6.23233 13.6306 6.20868C13.6241 6.18502 13.6229 6.16023 13.627 6.13603C13.6336 6.09669 13.6539 6.06097 13.6844 6.03521C13.7149 6.00945 13.7535 5.99531 13.7934 5.99531C13.8333 5.99531 13.8719 6.00945 13.9023 6.03521C13.9328 6.06097 13.9531 6.09669 13.9598 6.13603ZM14.4051 6.18291C14.4051 6.22767 14.3873 6.27059 14.3557 6.30223C14.324 6.33388 14.2811 6.35166 14.2363 6.35166C14.1916 6.35166 14.1487 6.33388 14.117 6.30223C14.0854 6.27059 14.0676 6.22767 14.0676 6.18291C14.0676 6.13815 14.0854 6.09523 14.117 6.06359C14.1487 6.03194 14.1916 6.01416 14.2363 6.01416C14.2811 6.01416 14.324 6.03194 14.3557 6.06359C14.3873 6.09523 14.4051 6.13815 14.4051 6.18291ZM14.752 6.40322C14.756 6.42741 14.7548 6.4522 14.7483 6.47586C14.7418 6.49952 14.7302 6.52148 14.7144 6.54022C14.6986 6.55895 14.6788 6.574 14.6566 6.58433C14.6343 6.59465 14.6101 6.6 14.5855 6.6C14.561 6.6 14.5368 6.59465 14.5145 6.58433C14.4923 6.574 14.4725 6.55895 14.4567 6.54022C14.4409 6.52148 14.4293 6.49952 14.4228 6.47586C14.4163 6.4522 14.4151 6.42741 14.4191 6.40322C14.4258 6.36388 14.4461 6.32816 14.4766 6.3024C14.507 6.27663 14.5457 6.2625 14.5855 6.2625C14.6254 6.2625 14.664 6.27663 14.6945 6.3024C14.725 6.32816 14.7453 6.36388 14.752 6.40322Z" fill="white" stroke="black" stroke-width="0.1375"/>
<path fill-rule="evenodd" clip-rule="evenodd" d="M9.46875 7.58438L9.9 8.40937H13.8609L14.3156 7.6125C14.0484 7.42969 13.8656 7.28906 13.4859 7.37812C13.2656 7.06406 13.0312 7.00312 12.6797 7.04062C12.5842 6.9298 12.4501 6.85942 12.3047 6.84375L11.4703 6.86719C11.2547 6.88594 11.0859 7.05469 11.0766 7.05469C10.7203 7.00781 10.3969 7.02188 10.3125 7.36406C9.98906 7.28438 9.76406 7.37344 9.46875 7.58438Z" fill="#E40000" stroke="#AC0000" stroke-width="0.3"/>
<path fill-rule="evenodd" clip-rule="evenodd" d="M14.8973 6.76865C14.9013 6.79284 14.9001 6.81763 14.8936 6.84129C14.8871 6.86495 14.8756 6.88691 14.8597 6.90564C14.8439 6.92438 14.8241 6.93943 14.8019 6.94976C14.7796 6.96008 14.7554 6.96543 14.7309 6.96543C14.7063 6.96543 14.6821 6.96008 14.6598 6.94976C14.6376 6.93943 14.6178 6.92438 14.602 6.90564C14.5862 6.88691 14.5746 6.86495 14.5681 6.84129C14.5616 6.81763 14.5604 6.79284 14.5645 6.76865C14.5711 6.72931 14.5914 6.69359 14.6219 6.66783C14.6524 6.64206 14.691 6.62793 14.7309 6.62793C14.7708 6.62793 14.8094 6.64206 14.8398 6.66783C14.8703 6.69359 14.8906 6.72931 14.8973 6.76865ZM14.9254 7.15771C14.9295 7.18191 14.9282 7.2067 14.9217 7.23035C14.9152 7.25401 14.9037 7.27598 14.8878 7.29471C14.872 7.31344 14.8523 7.32849 14.83 7.33882C14.8078 7.34914 14.7835 7.35449 14.759 7.35449C14.7345 7.35449 14.7102 7.34914 14.688 7.33882C14.6657 7.32849 14.646 7.31344 14.6301 7.29471C14.6143 7.27598 14.6027 7.25401 14.5962 7.23035C14.5898 7.2067 14.5885 7.18191 14.5926 7.15771C14.5992 7.11837 14.6196 7.08265 14.65 7.05689C14.6805 7.03113 14.7191 7.01699 14.759 7.01699C14.7989 7.01699 14.8375 7.03113 14.8679 7.05689C14.8984 7.08265 14.9188 7.11837 14.9254 7.15771ZM14.8035 7.52334C14.8076 7.54753 14.8063 7.57232 14.7999 7.59598C14.7934 7.61964 14.7818 7.6416 14.766 7.66033C14.7501 7.67906 14.7304 7.69412 14.7081 7.70444C14.6859 7.71477 14.6616 7.72012 14.6371 7.72012C14.6126 7.72012 14.5883 7.71477 14.5661 7.70444C14.5438 7.69412 14.5241 7.67906 14.5083 7.66033C14.4924 7.6416 14.4808 7.61964 14.4744 7.59598C14.4679 7.57232 14.4666 7.54753 14.4707 7.52334C14.4773 7.484 14.4977 7.44828 14.5281 7.42251C14.5586 7.39675 14.5972 7.38262 14.6371 7.38262C14.677 7.38262 14.7156 7.39675 14.7461 7.42251C14.7765 7.44828 14.7969 7.484 14.8035 7.52334ZM14.6488 7.82334C14.6548 7.84815 14.6551 7.87399 14.6496 7.89892C14.6442 7.92385 14.6331 7.94722 14.6173 7.96727C14.6015 7.98731 14.5814 8.00352 14.5584 8.01466C14.5355 8.0258 14.5103 8.03159 14.4848 8.03159C14.4592 8.03159 14.4341 8.0258 14.4111 8.01466C14.3881 8.00352 14.368 7.98731 14.3522 7.96727C14.3364 7.94722 14.3254 7.92385 14.3199 7.89892C14.3145 7.87399 14.3147 7.84815 14.3207 7.82334C14.3296 7.78651 14.3506 7.75373 14.3803 7.73028C14.4101 7.70684 14.4469 7.69409 14.4848 7.69409C14.5227 7.69409 14.5594 7.70684 14.5892 7.73028C14.619 7.75373 14.64 7.78651 14.6488 7.82334ZM14.4707 8.19834C14.4707 8.24309 14.4529 8.28602 14.4213 8.31766C14.3896 8.34931 14.3467 8.36709 14.302 8.36709C14.2572 8.36709 14.2143 8.34931 14.1826 8.31766C14.151 8.28602 14.1332 8.24309 14.1332 8.19834C14.1332 8.15358 14.151 8.11066 14.1826 8.07902C14.2143 8.04737 14.2572 8.02959 14.302 8.02959C14.3467 8.02959 14.3896 8.04737 14.4213 8.07902C14.4529 8.11066 14.4707 8.15358 14.4707 8.19834ZM12.127 7.72021C12.1318 7.75538 12.1291 7.79118 12.119 7.8252C12.1088 7.85923 12.0915 7.89068 12.0682 7.91745C12.0449 7.94422 12.0161 7.96568 11.9838 7.98038C11.9515 7.99509 11.9164 8.0027 11.8809 8.0027C11.8454 8.0027 11.8103 7.99509 11.778 7.98038C11.7456 7.96568 11.7169 7.94422 11.6935 7.91745C11.6702 7.89068 11.6529 7.85923 11.6428 7.8252C11.6326 7.79118 11.6299 7.75538 11.6348 7.72021C11.643 7.66079 11.6724 7.60634 11.7177 7.56694C11.7629 7.52753 11.8209 7.50582 11.8809 7.50582C11.9409 7.50582 11.9988 7.52753 12.0441 7.56694C12.0893 7.60634 12.1187 7.66079 12.127 7.72021ZM12.1738 7.15303C12.1791 7.19525 12.1754 7.23812 12.1629 7.27879C12.1503 7.31946 12.1293 7.357 12.1011 7.38891C12.073 7.42083 12.0384 7.44639 11.9996 7.46389C11.9608 7.4814 11.9187 7.49045 11.8762 7.49045C11.8336 7.49045 11.7915 7.4814 11.7528 7.46389C11.714 7.44639 11.6793 7.42083 11.6512 7.38891C11.623 7.357 11.602 7.31946 11.5895 7.27879C11.5769 7.23812 11.5732 7.19525 11.5785 7.15303C11.5785 7.07346 11.6101 6.99716 11.6664 6.9409C11.7226 6.88463 11.799 6.85303 11.8785 6.85303C11.9581 6.85303 12.0344 6.88463 12.0906 6.9409C12.1469 6.99716 12.1785 7.07346 12.1785 7.15303H12.1738Z" fill="white" stroke="black" stroke-width="0.1375"/>
<path fill-rule="evenodd" clip-rule="evenodd" d="M12.1357 6.6001C12.1357 6.67158 12.1073 6.74014 12.0568 6.79068C12.0063 6.84123 11.9377 6.86963 11.8662 6.86963C11.7947 6.86963 11.7262 6.84123 11.6756 6.79068C11.6251 6.74014 11.5967 6.67158 11.5967 6.6001C11.5967 6.52861 11.6251 6.46006 11.6756 6.40951C11.7262 6.35896 11.7947 6.33057 11.8662 6.33057C11.9377 6.33057 12.0063 6.35896 12.0568 6.40951C12.1073 6.46006 12.1357 6.52861 12.1357 6.6001Z" fill="white" stroke="black" stroke-width="0.1375"/>
<path fill-rule="evenodd" clip-rule="evenodd" d="M11.7748 5.45166V5.23603H11.5967L11.6014 5.07666H11.7561V4.93604H11.9764V5.0626H12.1498V5.23135H11.967V5.45635H11.7748V5.45166Z" fill="#FFDD00" stroke="#7D6C00" stroke-width="0.1375"/>
<path d="M9.87694 8.40947C9.52538 7.80478 9.00038 6.98916 9.32381 6.6376C9.77381 6.12666 10.8238 6.59072 11.4941 6.29072C11.541 6.86728 11.3816 7.81416 11.6394 8.01103L11.4004 8.22197C11.2551 8.03447 10.9785 7.78135 10.6363 8.23135C10.4441 8.0626 10.2238 8.09072 10.1207 8.31572C10.0176 8.32978 10.0269 8.37197 9.87694 8.40947ZM13.8848 8.38603C14.2363 7.78603 14.7613 6.97041 14.4379 6.61416C13.9879 6.10791 12.9379 6.56729 12.2676 6.27197C12.2207 6.84385 12.3801 7.79072 12.1223 7.99229L12.3613 8.19853C12.5957 7.8751 12.8769 7.86572 13.1207 8.2126C13.3176 8.03916 13.5191 8.0626 13.641 8.29697C13.7441 8.31104 13.7348 8.34854 13.8848 8.39072V8.38603Z" stroke="#FFDD00" stroke-width="0.4125"/>
<path fill-rule="evenodd" clip-rule="evenodd" d="M9.8668 8.85929C11.1844 8.73933 12.5101 8.73933 13.8277 8.85929L13.9824 8.40929C12.5996 8.15616 11.6434 8.12804 9.83398 8.37647L9.8668 8.8546V8.85929Z" fill="#FFDD00" stroke="#7D6C00" stroke-width="0.3"/>
<path fill-rule="evenodd" clip-rule="evenodd" d="M11.7043 16.4673L11.7371 16.2563C11.8777 16.2985 11.9855 16.2798 12.1027 16.2376L12.2246 16.0548L12.1309 15.947C12.0512 15.9657 11.9902 16.0407 11.934 16.1063C11.8543 16.1063 11.784 16.0688 11.7043 16.0548L11.6293 15.7313C11.5543 15.6423 11.3949 15.6517 11.4277 15.811L11.4465 15.9329C11.4746 16.0079 11.4887 16.1157 11.5402 16.1673V16.2985L11.7043 16.4673ZM11.7652 15.5532C11.6574 15.6048 11.5309 15.5157 11.3996 15.4595C11.2777 15.4548 11.1793 15.5532 11.0293 15.5251C11.0574 15.4454 11.123 15.4313 11.1699 15.3845C11.1371 15.1782 11.2449 15.1079 11.2777 15.1079C11.3059 15.1079 11.4277 15.1407 11.4277 15.1407L11.5496 15.1548C11.6246 15.286 11.723 15.4079 11.7652 15.5532Z" fill="#C76E2E"/>
<path fill-rule="evenodd" clip-rule="evenodd" d="M11.0387 18.3046C11.3902 17.7281 13.8512 16.5796 16.1574 14.0906C13.8137 16.3546 12.3418 16.9078 10.4199 18.2906L11.0387 18.3046Z" fill="#FFE100" stroke="#E9BF00" stroke-width="0.3"/>
<path fill-rule="evenodd" clip-rule="evenodd" d="M14.4188 15.6562C14.4188 15.7035 14.4 15.7488 14.3666 15.7822C14.3332 15.8156 14.2879 15.8344 14.2406 15.8344C14.1934 15.8344 14.1481 15.8156 14.1147 15.7822C14.0813 15.7488 14.0625 15.7035 14.0625 15.6562C14.0625 15.609 14.0813 15.5637 14.1147 15.5303C14.1481 15.4969 14.1934 15.4781 14.2406 15.4781C14.2879 15.4781 14.3332 15.4969 14.3666 15.5303C14.4 15.5637 14.4188 15.609 14.4188 15.6562ZM16.1391 13.9172C16.1391 13.9713 16.1176 14.0231 16.0793 14.0614C16.0411 14.0996 15.9892 14.1211 15.9352 14.1211C15.8811 14.1211 15.8292 14.0996 15.791 14.0614C15.7527 14.0231 15.7313 13.9713 15.7313 13.9172C15.7313 13.8631 15.7527 13.8112 15.791 13.773C15.8292 13.7348 15.8811 13.7133 15.9352 13.7133C15.9892 13.7133 16.0411 13.7348 16.0793 13.773C16.1176 13.8112 16.1391 13.8631 16.1391 13.9172ZM16.7109 12.4359C16.7109 12.4832 16.6922 12.5285 16.6588 12.5619C16.6254 12.5953 16.5801 12.6141 16.5328 12.6141C16.4856 12.6141 16.4403 12.5953 16.4069 12.5619C16.3735 12.5285 16.3547 12.4832 16.3547 12.4359C16.3547 12.3887 16.3735 12.3434 16.4069 12.31C16.4403 12.2766 16.4856 12.2578 16.5328 12.2578C16.5801 12.2578 16.6254 12.2766 16.6588 12.31C16.6922 12.3434 16.7109 12.3887 16.7109 12.4359ZM16.1484 10.5141C16.1484 10.5613 16.1297 10.6066 16.0963 10.64C16.0629 10.6734 16.0176 10.6922 15.9703 10.6922C15.9231 10.6922 15.8778 10.6734 15.8444 10.64C15.811 10.6066 15.7922 10.5613 15.7922 10.5141C15.7922 10.4668 15.811 10.4215 15.8444 10.3881C15.8778 10.3547 15.9231 10.3359 15.9703 10.3359C16.0176 10.3359 16.0629 10.3547 16.0963 10.3881C16.1297 10.4215 16.1484 10.4668 16.1484 10.5141Z" fill="#9D4916" stroke="#68300E" stroke-width="0.1375"/>
<path fill-rule="evenodd" clip-rule="evenodd" d="M9.95664 13.4813V12.7219L9.87695 12.6563V12.4782L10.0176 12.4641L10.0457 11.6204L9.95195 11.5688L9.94258 11.4282C9.94258 11.4282 10.0457 11.4657 10.0457 11.4375L10.0691 11.2735C10.0691 11.2735 10.0082 11.2594 10.0082 11.2313C10.0082 11.2032 10.0832 11.1422 10.0832 11.1422C10.0832 11.1422 10.0457 11.1047 10.0363 11.0813L9.99414 10.9407L10.0316 10.8L10.0082 10.7204L9.94258 10.6032L10.0363 10.5141L10.0082 10.3735C10.0082 10.35 10.0691 10.2422 10.0832 10.2329L10.2004 10.0782L10.416 10.0266L10.6738 10.0641L10.8145 10.1579L10.8426 10.3875C10.8426 10.3875 10.8145 10.5282 10.8051 10.5282L10.6879 10.575C10.6879 10.575 10.5613 10.5891 10.5473 10.575C10.5332 10.561 10.5848 10.7297 10.5848 10.7297V10.8844L10.5707 11.0766C10.5707 11.0766 10.5707 11.1704 10.5613 11.1797L10.5191 11.2313L10.5098 11.4235L10.7113 11.475L10.702 11.5922L10.5613 11.6063L10.5848 12.3891L10.791 12.4266V12.6469L10.6973 12.6938L10.6738 13.4813H9.95664ZM13.0738 13.4907V12.736L12.9988 12.6704V12.4922L13.1395 12.4782L13.1676 11.6344L13.0738 11.5782L13.0645 11.4375C13.0645 11.4375 13.1676 11.475 13.1676 11.4516L13.191 11.2829C13.191 11.2829 13.1254 11.2735 13.1254 11.2454C13.1254 11.2172 13.2051 11.1563 13.2051 11.1563C13.2051 11.1563 13.1676 11.1188 13.1535 11.0907C13.1395 11.0625 13.116 10.95 13.116 10.95L13.1535 10.8094L13.1254 10.7344L13.0645 10.6172L13.1535 10.5235L13.1254 10.3829C13.1436 10.3317 13.1706 10.2841 13.2051 10.2422L13.3176 10.0922L13.5379 10.0407L13.7957 10.0782L13.9363 10.1719L13.9598 10.3969C13.9598 10.3969 13.9363 10.5375 13.9223 10.5375C13.9082 10.5375 13.8051 10.5938 13.8051 10.5938C13.8051 10.5938 13.6785 10.6032 13.6645 10.5938C13.6504 10.5844 13.7066 10.7438 13.7066 10.7438V10.8985L13.6926 11.0907C13.6926 11.0907 13.6926 11.1844 13.6785 11.1938L13.641 11.2454L13.627 11.4375L13.8332 11.4891L13.8191 11.6063L13.6785 11.6204L13.7066 12.4032L13.9082 12.4407V12.6563L13.8191 12.7079L13.7957 13.4907H13.0738ZM11.4988 13.5188V12.7594L11.4191 12.6985V12.5157L11.5598 12.5063L11.5879 11.6579L11.4941 11.6063L11.4848 11.4657C11.4848 11.4657 11.5879 11.5032 11.5879 11.4797L11.6113 11.311C11.6113 11.311 11.5457 11.2969 11.5457 11.2735C11.5457 11.25 11.6254 11.1797 11.6254 11.1797L11.5738 11.1188C11.5598 11.0954 11.5363 10.9782 11.5363 10.9782L11.5738 10.8375L11.5457 10.7579L11.4848 10.6454L11.5738 10.5516L11.5457 10.411C11.5639 10.3599 11.5909 10.3123 11.6254 10.2704L11.7426 10.1157L11.9582 10.0688L12.216 10.1063L12.3566 10.1954L12.3801 10.425C12.3801 10.425 12.3566 10.5657 12.3426 10.5657C12.3285 10.5657 12.2301 10.6172 12.2301 10.6172C12.2301 10.6172 12.0988 10.6313 12.0895 10.6172C12.0801 10.6032 12.127 10.7719 12.127 10.7719V10.9266L12.1129 11.1141C12.1129 11.1141 12.1129 11.2079 12.0988 11.2219C12.0848 11.2313 12.0613 11.2688 12.0613 11.2688L12.0473 11.4657L12.2535 11.5125L12.2395 11.6297L12.0988 11.6438L12.127 12.4266L12.3332 12.4641V12.6844L12.2395 12.7313L12.216 13.5188H11.4988Z" fill="white" stroke="#A9A9A9" stroke-width="0.1375"/>
<path fill-rule="evenodd" clip-rule="evenodd" d="M10.1436 13.4718V12.8765H10.4811V13.4999L10.1436 13.4718ZM11.7186 13.5187L11.7326 12.9093H12.0326V13.5093L11.7232 13.5233L11.7186 13.5187ZM13.2748 13.5093L13.2514 12.9374L13.5701 12.9233V13.5233L13.2748 13.5093ZM10.2279 11.7046H10.4154V12.0187H10.2279V11.7046ZM11.7467 11.7187H12.0092V12.0187H11.7467V11.7187ZM13.2936 11.7421H13.5279V12.028H13.2936V11.7421Z" fill="black"/>
<path d="M10.3262 10.3499C10.5324 10.5796 10.5465 10.5796 10.5465 10.5796M11.859 10.3452C11.8918 10.4249 11.9574 10.5937 12.0371 10.603M13.4996 10.3874C13.4996 10.3874 13.5605 10.5655 13.6543 10.589" stroke="#A8A8A8" stroke-width="0.1375"/>
<path fill-rule="evenodd" clip-rule="evenodd" d="M10.1105 9.70308C10.7105 9.5062 9.96991 9.11714 9.84803 9.70308C9.65116 9.7312 9.62772 9.87652 9.20584 9.81089C8.18866 11.4703 8.94334 14.1375 11.9152 16.9031C6.59022 12.375 8.75584 9.02808 10.2277 9.14995C11.0293 9.2062 10.6262 10.2046 10.1105 9.70308Z" fill="#B97700"/>
<path d="M10.2754 8.84995C10.2754 8.84995 10.7676 8.9812 10.7676 9.19214M10.7676 8.81714C10.7676 8.81714 11.1051 8.96245 11.1801 9.09839M13.4348 8.87339C13.4348 8.87339 13.0035 8.92495 12.9098 9.06089M12.7785 8.9062C12.7785 8.9062 12.5348 9.11714 12.5535 9.17339M12.7223 9.81089C12.6848 9.79214 12.516 9.56714 12.5535 9.28589M11.0676 9.66089C11.0676 9.66089 11.1801 9.52964 11.1801 9.28589M11.8551 9.19214L11.8738 9.73589M12.3426 9.66089C12.3426 9.62339 12.4973 9.26714 12.3285 9.09839M11.3113 9.02339C11.3113 9.02339 11.1801 9.37964 11.2738 9.67964M12.2723 9.34214C12.2723 9.34214 12.066 9.39839 11.9723 9.49214M11.3863 9.39839C11.3863 9.37964 11.6113 9.34214 11.6863 9.47339" stroke="#7D6C00" stroke-width="0.3"/>
<path fill-rule="evenodd" clip-rule="evenodd" d="M11.0299 15.0938C11.0393 15.0938 11.2174 15.061 11.2174 14.9719C11.3111 14.9157 11.2408 14.7516 11.2408 14.7516L11.0721 14.7188L10.8424 14.4563C10.833 14.3766 10.8611 14.3016 10.8096 14.2219C10.6502 14.2594 10.5611 14.3907 10.5049 14.5454C10.5471 14.5923 10.5518 14.6438 10.6221 14.686C10.6971 14.7001 10.7486 14.6579 10.8189 14.6719C10.8564 14.7329 10.8471 14.7891 10.8564 14.8454C10.9502 14.9157 10.9736 15.0094 11.0299 15.0938ZM10.8236 13.9829V13.6735L10.6033 13.6688C10.5752 13.7157 10.5236 13.7344 10.4908 13.7766L10.3408 13.8516C10.4018 13.9313 10.4814 13.9735 10.5283 14.011C10.6455 14.0438 10.7346 14.0438 10.8236 13.9829ZM10.1299 14.4376L10.0127 14.236C10.0902 14.2144 10.1727 14.2194 10.2471 14.2501C10.2471 14.2501 10.2986 14.3766 10.2611 14.4235C10.2424 14.4704 10.1252 14.4469 10.1299 14.4376ZM11.958 14.6438C11.9927 14.6302 12.0234 14.608 12.0471 14.5793C12.0709 14.5506 12.087 14.5164 12.0939 14.4798L11.8689 14.2219H11.6721C11.6252 14.1704 11.5502 14.161 11.4893 14.161C11.4893 14.161 11.5549 14.2548 11.6346 14.2782C11.6955 14.4048 11.9439 14.6438 11.9627 14.6438H11.958ZM12.1736 14.6766C12.2695 14.6337 12.3733 14.6113 12.4783 14.611C12.4689 14.5313 12.6236 14.3438 12.6236 14.3438L12.9049 14.7094C12.8533 14.7516 12.7643 14.7376 12.6939 14.7516C12.6939 14.7516 12.558 14.8829 12.5439 14.8876C12.5299 14.8923 12.2861 14.9485 12.1689 14.8782C12.1127 14.7751 12.1783 14.6579 12.1736 14.6766ZM12.333 14.0344C12.3658 13.9173 12.3799 13.8001 12.333 13.6594C12.333 13.6594 12.0143 13.6501 12.0143 13.6594L11.8033 13.7532C11.8033 13.7532 11.8736 13.9641 11.9533 13.9407C11.9908 14.0532 12.0986 14.0251 12.1502 14.0626L12.333 14.0344ZM13.5752 13.7157C13.533 13.8469 13.5096 13.9876 13.5752 14.1188C13.6314 14.1282 13.6971 14.1657 13.7486 14.1563L14.0064 13.6969C13.8283 13.6407 13.6877 13.6454 13.5752 13.7157Z" fill="#C76E2E"/>
<path fill-rule="evenodd" clip-rule="evenodd" d="M13.6543 9.65615C13.0543 9.46865 13.7949 9.0749 13.9168 9.65615C14.1137 9.68897 14.1371 9.83428 14.559 9.77334C15.5715 11.428 14.8215 14.0999 11.8496 16.8608C17.1699 12.3327 15.009 8.98584 13.5371 9.10772C12.7309 9.16397 13.1387 10.1624 13.6543 9.66084V9.65615Z" fill="#B97700"/>
<path fill-rule="evenodd" clip-rule="evenodd" d="M13.7161 14.2312C13.7067 14.2312 13.5614 14.3391 13.5614 14.3391L13.3552 14.4187L13.1348 14.4234L13.088 14.2734L13.2567 14.1234C13.1161 14.1 12.9708 14.1562 12.8583 14.2641C12.8583 14.2641 12.8583 14.4281 12.952 14.5125C13.0216 14.5855 13.0969 14.6529 13.177 14.7141C13.2848 14.7328 13.3833 14.7141 13.4536 14.6625L13.7161 14.2312ZM12.5536 15.7406C12.6239 15.7594 13.1208 15.1031 13.1208 15.1031C13.0766 14.9851 12.9896 14.888 12.877 14.8312C12.877 14.8312 12.6333 15.1125 12.6286 15.2109C12.5911 15.3 12.4833 15.6328 12.5302 15.675C12.5255 15.6844 12.5067 15.8156 12.5536 15.7406Z" fill="#C76E2E"/>
<path fill-rule="evenodd" clip-rule="evenodd" d="M9.31836 15.872C8.57773 15.2251 7.57461 14.8688 6.17773 15.3563C6.55273 15.5157 6.96055 15.572 7.30742 15.7454L9.31836 15.872Z" fill="#006800" stroke="#004100" stroke-width="0.3" stroke-linejoin="round"/>
<path d="M7.17188 15.4126C8.63438 15.4407 9.06094 15.8063 8.98125 15.7454" stroke="#00A400" stroke-width="0.275" stroke-linecap="round"/>
<path fill-rule="evenodd" clip-rule="evenodd" d="M9.34687 15.9468C8.91094 16.0312 8.30625 16.453 8.12812 16.4343C7.65469 16.378 7.20469 16.1812 6.74531 16.0359C6.55312 15.9749 6.36094 16.0359 6.16406 16.0359C7.80469 15.2577 8.36719 15.3655 9.35156 15.9421L9.34687 15.9468Z" fill="#006800" stroke="#004100" stroke-width="0.275" stroke-linejoin="round"/>
<path fill-rule="evenodd" clip-rule="evenodd" d="M8.26914 14.8032C8.26914 14.8032 7.7207 14.8782 7.47227 14.897C7.2332 14.8782 6.87695 14.6532 6.48789 14.2407C6.28164 14.0157 5.81758 14.0438 5.81758 14.0438C6.84883 13.8235 7.6457 14.0298 8.26914 14.8032ZM7.51914 13.7392C6.77383 13.6923 5.8457 13.022 5.63477 12.2298C5.63477 12.2438 5.90664 12.4032 5.86445 12.4454C7.0832 12.7548 7.16758 13.0032 7.52383 13.7392H7.51914ZM8.7707 15.0188C8.87852 14.3438 8.91133 13.8938 8.5832 13.4954C8.32539 13.1907 8.25508 13.0079 8.06758 12.5813C8.01602 13.472 7.82383 14.2032 8.7707 15.0188ZM7.59883 13.1438C8.15195 12.3376 8.2457 11.7282 8.16133 10.772C8.10256 10.9597 8.0305 11.1429 7.9457 11.3204C7.12539 11.836 7.49102 12.6423 7.59883 13.1485V13.1438Z" fill="#006800" stroke="#004100" stroke-width="0.3" stroke-linejoin="round"/>
<path fill-rule="evenodd" clip-rule="evenodd" d="M7.11045 9.24854C7.66358 10.0548 7.5792 10.8142 7.49014 11.7751C7.43279 11.5876 7.3623 11.4043 7.2792 11.2267C6.4542 10.711 7.00264 9.7501 7.11045 9.24854Z" fill="#006800" stroke="#004100" stroke-width="0.3" stroke-linejoin="round"/>
<path fill-rule="evenodd" clip-rule="evenodd" d="M7.56543 10.5C8.90605 9.82026 8.39043 8.96245 8.63418 8.30151C7.70605 8.99526 7.58418 9.7312 7.56543 10.4953V10.5Z" fill="#006800" stroke="#004100" stroke-width="0.3" stroke-linejoin="round"/>
<path d="M7.74805 10.3265C7.9168 9.85776 8.24961 9.05151 8.28242 9.05151M7.3543 11.3203C7.32148 10.9828 7.15742 10.0828 7.13867 9.9937" stroke="#00A400" stroke-width="0.275" stroke-linecap="round"/>
<path fill-rule="evenodd" clip-rule="evenodd" d="M7.41562 12.8249C6.66562 12.778 5.86406 11.7608 5.64844 10.9687C5.64844 10.978 5.925 11.1374 5.87813 11.1796C6.94688 11.6577 7.05937 12.089 7.41562 12.8202V12.8249ZM7.19531 12.1218C6.64219 11.3155 6.54375 10.7062 6.63281 9.7499C6.64688 9.8249 6.82969 10.2983 6.84375 10.2983C7.66406 10.814 7.29844 11.6202 7.19531 12.1265V12.1218ZM7.6875 10.7108C9.075 10.0968 8.64844 9.4499 9.06094 8.7749C8.13281 9.46396 7.70156 9.94678 7.6875 10.7108Z" fill="#006800" stroke="#004100" stroke-width="0.3" stroke-linejoin="round"/>
<path d="M7.74805 10.5703C8.31055 10.0078 8.51211 9.53906 8.51211 9.53906" stroke="#00A400" stroke-width="0.275" stroke-linecap="round"/>
<path fill-rule="evenodd" clip-rule="evenodd" d="M12.6747 18.3187L13.3497 18.3328C11.1138 16.2328 6.82001 15.3188 7.42001 11.4609C6.79658 15.6469 10.9216 16.0312 12.6747 18.3187Z" fill="#FFE100" stroke="#E9BF00" stroke-width="0.3"/>
<path fill-rule="evenodd" clip-rule="evenodd" d="M7.77148 10.6312C7.77148 10.6595 7.76591 10.6875 7.75507 10.7137C7.74423 10.7398 7.72835 10.7636 7.70833 10.7836C7.68831 10.8036 7.66454 10.8195 7.63838 10.8304C7.61221 10.8412 7.58418 10.8468 7.55586 10.8468C7.52754 10.8468 7.4995 10.8412 7.47334 10.8304C7.44718 10.8195 7.42341 10.8036 7.40339 10.7836C7.38337 10.7636 7.36748 10.7398 7.35665 10.7137C7.34581 10.6875 7.34023 10.6595 7.34023 10.6312C7.34023 10.574 7.36295 10.5191 7.40339 10.4787C7.44383 10.4382 7.49867 10.4155 7.55586 10.4155C7.61305 10.4155 7.66789 10.4382 7.70833 10.4787C7.74877 10.5191 7.77148 10.574 7.77148 10.6312ZM7.64023 11.8124C7.64023 11.8665 7.61875 11.9183 7.58051 11.9566C7.54227 11.9948 7.49041 12.0163 7.43633 12.0163C7.38225 12.0163 7.33038 11.9948 7.29214 11.9566C7.2539 11.9183 7.23242 11.8665 7.23242 11.8124C7.23242 11.7583 7.2539 11.7065 7.29214 11.6682C7.33038 11.63 7.38225 11.6085 7.43633 11.6085C7.49041 11.6085 7.54227 11.63 7.58051 11.6682C7.61875 11.7065 7.64023 11.7583 7.64023 11.8124ZM7.82773 13.4999C7.82773 13.5471 7.80897 13.5925 7.77556 13.6259C7.74216 13.6593 7.69685 13.678 7.64961 13.678C7.60237 13.678 7.55706 13.6593 7.52366 13.6259C7.49025 13.5925 7.47148 13.5471 7.47148 13.4999C7.47148 13.4527 7.49025 13.4074 7.52366 13.3739C7.55706 13.3405 7.60237 13.3218 7.64961 13.3218C7.69685 13.3218 7.74216 13.3405 7.77556 13.3739C7.80897 13.4074 7.82773 13.4527 7.82773 13.4999ZM9.39336 15.3608C9.39336 15.4087 9.37435 15.4546 9.3405 15.4885C9.30666 15.5223 9.26075 15.5413 9.21289 15.5413C9.16503 15.5413 9.11912 15.5223 9.08528 15.4885C9.05144 15.4546 9.03242 15.4087 9.03242 15.3608C9.03242 15.313 9.05144 15.2671 9.08528 15.2332C9.11912 15.1994 9.16503 15.1804 9.21289 15.1804C9.26075 15.1804 9.30666 15.1994 9.3405 15.2332C9.37435 15.2671 9.39336 15.313 9.39336 15.3608ZM9.61836 15.8952C9.61836 15.9425 9.59959 15.9878 9.56619 16.0212C9.53278 16.0546 9.48748 16.0733 9.44023 16.0733C9.39299 16.0733 9.34769 16.0546 9.31428 16.0212C9.28088 15.9878 9.26211 15.9425 9.26211 15.8952C9.26211 15.848 9.28088 15.8027 9.31428 15.7693C9.34769 15.7359 9.39299 15.7171 9.44023 15.7171C9.48748 15.7171 9.53278 15.7359 9.56619 15.7693C9.59959 15.8027 9.61836 15.848 9.61836 15.8952Z" fill="#9D4916" stroke="#68300E" stroke-width="0.1375"/>
<path fill-rule="evenodd" clip-rule="evenodd" d="M10.4059 17.4514C10.3054 17.3748 10.225 17.2751 10.1715 17.1607L9.46836 17.0811L9.45898 17.4842L10.4105 17.4514H10.4059Z" fill="white" stroke="black" stroke-width="0.1375"/>
<path fill-rule="evenodd" clip-rule="evenodd" d="M5.26348 16.978C5.67129 17.053 6.28535 16.9405 6.48691 17.203C6.73066 17.4749 5.73691 17.8968 5.87754 18.1312C6.18223 18.4593 6.50098 18.3233 6.84316 18.1452C6.92754 17.9671 6.98848 17.653 7.03066 17.5593C6.90879 17.2733 6.57129 17.1327 6.65566 16.6968C7.22754 16.4812 8.31973 16.4999 8.43691 16.5843C8.53066 16.7624 8.44629 16.8468 8.46504 16.9921C8.37129 17.1702 8.12754 17.4796 8.12754 17.6483C8.72285 17.8546 8.87754 17.6108 9.4166 17.6249C10.0447 17.6343 10.4291 17.803 10.565 17.5546C10.4713 17.339 9.89473 17.5124 9.67441 17.3718C9.5666 17.3343 9.49629 17.2499 9.40254 17.1515C9.30879 17.053 9.0416 17.0483 8.99941 16.8093C9.11191 16.2983 9.84785 16.378 9.96973 16.2983L11.8916 16.4296C12.2385 16.4202 12.4354 17.0483 11.9666 17.2358C11.4979 17.4233 10.1057 16.9546 9.50566 17.2827C9.47285 17.1468 9.03691 16.9499 9.00879 16.9405C8.82129 16.9968 8.46504 16.978 8.46504 16.978C8.37598 17.1421 8.27754 17.2593 8.18848 17.4233C7.79004 17.2499 7.41504 17.5593 6.9791 17.4702L6.29941 17.5405L5.86816 17.503L5.21191 17.6905L5.68066 17.278L5.26348 16.978Z" fill="white" stroke="black" stroke-width="0.1375" stroke-linejoin="round"/>
<path fill-rule="evenodd" clip-rule="evenodd" d="M5.23574 16.8983C5.23997 16.9244 5.23847 16.9511 5.23134 16.9766C5.22422 17.0021 5.21164 17.0258 5.19448 17.0459C5.17731 17.0661 5.15598 17.0823 5.13194 17.0934C5.10791 17.1045 5.08175 17.1103 5.05527 17.1103C5.0288 17.1103 5.00264 17.1045 4.9786 17.0934C4.95457 17.0823 4.93323 17.0661 4.91607 17.0459C4.89891 17.0258 4.88633 17.0021 4.87921 16.9766C4.87208 16.9511 4.87058 16.9244 4.8748 16.8983C4.88174 16.8554 4.9037 16.8164 4.93677 16.7882C4.96984 16.7601 5.01185 16.7446 5.05527 16.7446C5.0987 16.7446 5.14071 16.7601 5.17378 16.7882C5.20684 16.8164 5.22881 16.8554 5.23574 16.8983ZM5.18887 17.7936C5.18887 17.8421 5.16961 17.8886 5.13532 17.9228C5.10104 17.9571 5.05454 17.9764 5.00605 17.9764C4.95757 17.9764 4.91107 17.9571 4.87679 17.9228C4.8425 17.8886 4.82324 17.8421 4.82324 17.7936C4.82324 17.7451 4.8425 17.6986 4.87679 17.6643C4.91107 17.63 4.95757 17.6108 5.00605 17.6108C5.05454 17.6108 5.10104 17.63 5.13532 17.6643C5.16961 17.6986 5.18887 17.7451 5.18887 17.7936Z" fill="white" stroke="black" stroke-width="0.1375"/>
<path fill-rule="evenodd" clip-rule="evenodd" d="M13.3125 17.456C13.4297 17.3482 13.5 17.2779 13.5469 17.1607L14.25 17.0857L14.2641 17.4888L13.3125 17.456Z" fill="white" stroke="black" stroke-width="0.1375"/>
<path fill-rule="evenodd" clip-rule="evenodd" d="M18.4544 16.9827C18.0465 17.0577 17.4325 16.9452 17.2356 17.2077C16.9919 17.4795 17.9856 17.9014 17.845 18.1358C17.5356 18.4639 17.2215 18.328 16.8747 18.1499C16.795 17.9717 16.734 17.6577 16.6872 17.5639C16.8137 17.278 17.1512 17.1327 17.0622 16.6967C16.495 16.4858 15.4028 16.5045 15.2809 16.5842C15.1872 16.767 15.2762 16.8514 15.2575 16.992C15.3512 17.1795 15.5903 17.4842 15.5903 17.6483C14.995 17.8592 14.8403 17.6155 14.3012 17.6295C13.6731 17.6389 13.2887 17.8077 13.1528 17.5545C13.2465 17.3389 13.8231 17.517 14.0434 17.3764C14.1512 17.3389 14.2215 17.2499 14.32 17.1561C14.4184 17.0624 14.6809 17.053 14.7184 16.8139C14.6059 16.303 13.87 16.3827 13.7481 16.303L11.8262 16.4342C11.4794 16.4249 11.2872 17.053 11.7559 17.2405C12.2247 17.428 13.6122 16.9592 14.2169 17.2827C14.2497 17.1514 14.6809 16.9545 14.7137 16.9452C14.8965 17.0014 15.2575 16.9827 15.2575 16.9827C15.3419 17.142 15.445 17.2639 15.534 17.428C15.9325 17.2499 16.3075 17.5639 16.7434 17.4749L17.4184 17.5452L17.8544 17.5077L18.5106 17.6952L18.0419 17.2827L18.4544 16.9827Z" fill="white" stroke="black" stroke-width="0.1375" stroke-linejoin="round"/>
<path fill-rule="evenodd" clip-rule="evenodd" d="M18.4871 16.8984C18.4829 16.9245 18.4844 16.9513 18.4915 16.9768C18.4986 17.0023 18.5112 17.0259 18.5284 17.0461C18.5455 17.0662 18.5669 17.0824 18.5909 17.0935C18.6149 17.1046 18.6411 17.1104 18.6676 17.1104C18.6941 17.1104 18.7202 17.1046 18.7442 17.0935C18.7683 17.0824 18.7896 17.0662 18.8068 17.0461C18.8239 17.0259 18.8365 17.0023 18.8436 16.9768C18.8508 16.9513 18.8523 16.9245 18.848 16.8984C18.848 16.8499 18.8288 16.8034 18.7945 16.7691C18.7602 16.7348 18.7137 16.7156 18.6652 16.7156C18.6168 16.7156 18.5703 16.7348 18.536 16.7691C18.5017 16.8034 18.4824 16.8499 18.4824 16.8984H18.4871ZM18.534 17.7984C18.5298 17.8245 18.5313 17.8513 18.5384 17.8768C18.5455 17.9023 18.5581 17.9259 18.5753 17.9461C18.5924 17.9662 18.6137 17.9824 18.6378 17.9935C18.6618 18.0046 18.688 18.0104 18.7145 18.0104C18.7409 18.0104 18.7671 18.0046 18.7911 17.9935C18.8152 17.9824 18.8365 17.9662 18.8537 17.9461C18.8708 17.9259 18.8834 17.9023 18.8905 17.8768C18.8976 17.8513 18.8991 17.8245 18.8949 17.7984C18.888 17.7555 18.866 17.7165 18.833 17.6884C18.7999 17.6602 18.7579 17.6448 18.7145 17.6448C18.671 17.6448 18.629 17.6602 18.596 17.6884C18.5629 17.7165 18.5409 17.7555 18.534 17.7984Z" fill="white" stroke="black" stroke-width="0.1375"/>
<path fill-rule="evenodd" clip-rule="evenodd" d="M11.8496 16.4671C11.6855 16.4343 11.6293 16.4437 11.5215 16.4343L11.2637 17.2265C11.6574 17.2593 12.0277 17.2593 12.0277 17.2593C11.7887 17.2125 11.8449 16.4718 11.8496 16.4625V16.4671Z" fill="white"/>
<path d="M10.2636 18.2622V16.8324H10.5173V18.0368H11.1634V18.2622H10.2636Z" fill="black"/>
<path d="M10.6845 18.2871V16.8573H10.9382V18.2871H10.6845Z" fill="black"/>
<path d="M11.3756 18.3289H10.9384V16.9C11.131 16.8909 11.266 16.8864 11.3434 16.8864C11.4918 16.8864 11.6076 16.9183 11.6909 16.982C11.7748 17.0451 11.8168 17.1356 11.8168 17.2533C11.8168 17.3666 11.7569 17.456 11.6372 17.5217C11.8148 17.5835 11.9036 17.7111 11.9036 17.9043C11.9036 18.0344 11.8545 18.1379 11.7563 18.2147C11.658 18.2908 11.5311 18.3289 11.3756 18.3289ZM11.1921 17.103V17.4456C11.2312 17.4482 11.2722 17.4495 11.3151 17.4495C11.4804 17.4495 11.563 17.3874 11.563 17.2631C11.563 17.1531 11.4879 17.0982 11.3376 17.0982C11.2979 17.0982 11.2494 17.0998 11.1921 17.103ZM11.1921 17.6437V18.1161C11.2435 18.1207 11.2852 18.1229 11.3171 18.1229C11.4303 18.1229 11.5123 18.1037 11.563 18.0653C11.6144 18.027 11.6401 17.9632 11.6401 17.8741C11.6401 17.7927 11.6164 17.7335 11.5689 17.6964C11.5214 17.6593 11.4384 17.6408 11.32 17.6408C11.2953 17.6408 11.2527 17.6418 11.1921 17.6437Z" fill="black"/>
<path d="M11.6834 17.1577V17.4925H12.1557V17.7082H11.6834V18.1366H12.3314V18.3621H11.4296V16.9323H12.3421V17.1577H11.6834Z" fill="black"/>
<path d="M12.7104 18.3704L12.3288 17.7799C12.2904 17.7792 12.2367 17.777 12.1677 17.7731V18.3704H11.9042V16.9406C11.9185 16.9406 11.9735 16.9383 12.0691 16.9337C12.1648 16.9285 12.2419 16.9259 12.3005 16.9259C12.6635 16.9259 12.845 17.0665 12.845 17.3475C12.845 17.4321 12.82 17.5092 12.7699 17.5788C12.7198 17.6485 12.6567 17.6976 12.5806 17.7262L13.0032 18.3704H12.7104ZM12.1677 17.1611V17.5584C12.2146 17.5623 12.2504 17.5642 12.2751 17.5642C12.3811 17.5642 12.4586 17.5492 12.5074 17.5193C12.5568 17.4894 12.5815 17.4312 12.5815 17.3446C12.5815 17.2743 12.5552 17.2252 12.5025 17.1972C12.4498 17.1693 12.3668 17.1553 12.2536 17.1553C12.2263 17.1553 12.1976 17.1572 12.1677 17.1611Z" fill="black"/>
<path d="M12.9527 17.1494V18.3538H12.6989V17.1494H12.2441V16.924H13.428V17.1494H12.9527Z" fill="black"/>
<path d="M13.6547 18.2788L13.5502 17.9889H13.0603L12.9608 18.2788H12.6787L13.2487 16.8295H13.3599L13.9348 18.2788H13.6547ZM13.3043 17.2667L13.1325 17.7947H13.4761L13.3043 17.2667Z" fill="black"/>
<path d="M13.2685 18.1832L13.3622 17.9558C13.4624 18.026 13.561 18.0612 13.6579 18.0612C13.8069 18.0612 13.8814 18.0091 13.8814 17.905C13.8814 17.8562 13.8638 17.8097 13.8287 17.7654C13.7936 17.7212 13.721 17.6717 13.6111 17.6171C13.5018 17.5618 13.4279 17.5166 13.3895 17.4814C13.3518 17.4456 13.3225 17.4034 13.3017 17.3546C13.2815 17.3058 13.2714 17.2518 13.2714 17.1925C13.2714 17.0819 13.3118 16.9902 13.3925 16.9173C13.4738 16.8444 13.5779 16.808 13.7048 16.808C13.87 16.808 13.9914 16.8389 14.0688 16.9007L13.9917 17.1193C13.9026 17.0556 13.8085 17.0237 13.7096 17.0237C13.6511 17.0237 13.6055 17.0393 13.573 17.0705C13.5411 17.1011 13.5252 17.1411 13.5252 17.1906C13.5252 17.2726 13.616 17.3578 13.7975 17.4463C13.8931 17.4931 13.9621 17.5364 14.0044 17.5761C14.0467 17.6151 14.0789 17.661 14.101 17.7137C14.1231 17.7658 14.1342 17.824 14.1342 17.8884C14.1342 18.0042 14.0883 18.0995 13.9966 18.1744C13.9055 18.2492 13.7832 18.2866 13.6296 18.2866C13.4962 18.2866 13.3759 18.2521 13.2685 18.1832Z" fill="black"/>
<path d="M7.56543 15.9281C8.07168 15.989 8.77012 15.9468 9.07481 15.9281M6.80605 14.2078C7.22793 14.5453 8.16074 14.7421 8.14668 14.7421M8.67637 14.8359C8.54043 14.1328 8.39043 13.9687 8.26855 13.5234M6.08887 12.7312C6.80605 13.0546 6.91387 13.2656 7.36855 13.5843M7.62637 12.8812C7.6873 12.0187 7.81387 11.789 8.0248 11.5921M6.08887 11.4843C6.45591 11.8827 6.82624 12.278 7.19981 12.6703M6.85293 10.6921C7.17168 10.9218 7.17168 11.7421 7.17168 11.7421" stroke="#00A400" stroke-width="0.275" stroke-linecap="round"/>
</g>
<defs>
<clipPath id="clip0_208_24914">
<rect width="24" height="24" rx="12" fill="white"/>
</clipPath>
</defs>
</svg>
