<svg width="24" height="24" viewBox="0 0 24 24" fill="none" xmlns="http://www.w3.org/2000/svg">
<g clip-path="url(#clip0_208_27519)">
<path d="M0 0H24V24H0V0Z" fill="#000066"/>
<path d="M13.6388 5.84489L22.3108 5.81372L22.2935 13.5368C22.2935 13.5368 22.5983 14.7143 18.6571 16.4979C20.0736 16.3524 21.6182 14.8425 21.6182 14.8425C21.6182 14.8425 22.245 14.0355 22.5533 14.4857C22.858 14.936 23.1455 15.1645 23.3706 15.3412C23.5957 15.5143 23.7723 15.9992 23.4364 16.3524C23.097 16.7092 22.5671 16.7542 22.4217 16.3213C22.1966 16.4356 20.8147 18.1083 17.9818 18.188C15.1003 18.1395 13.5245 16.304 13.5245 16.304C13.5245 16.304 13.1401 16.917 12.5895 16.4356C12.0596 15.8052 12.4613 15.4035 12.4613 15.4035C12.4613 15.4035 12.9115 15.1472 13.0431 14.9706C13.2509 14.7282 13.3167 14.4061 13.6665 14.4061C14.089 14.4407 14.2484 14.7767 14.2484 14.7767C14.2484 14.7767 15.696 16.304 17.2579 16.4979C13.7358 14.8078 13.6042 13.7619 13.6215 13.5056L13.6388 5.84835V5.84489Z" fill="white"/>
<path d="M13.8466 6.05605L22.1169 6.00757V13.4397C22.1342 14.4095 20.5065 15.3896 17.9644 16.6433C15.3427 15.2926 13.8293 14.4718 13.8154 13.4224L13.8466 6.05605Z" fill="#006129" stroke="black" stroke-width="0.175472"/>
<path d="M14.9727 7.15415L15.4575 6.43726L15.9528 7.15761" stroke="#FFC72C" stroke-width="0.175472"/>
<path d="M15.5572 6.88384C15.5572 6.90956 15.547 6.93422 15.5288 6.95241C15.5106 6.97059 15.486 6.98081 15.4603 6.98081C15.4345 6.98081 15.4099 6.97059 15.3917 6.95241C15.3735 6.93422 15.3633 6.90956 15.3633 6.88384C15.3633 6.85812 15.3735 6.83345 15.3917 6.81527C15.4099 6.79708 15.4345 6.78687 15.4603 6.78687C15.486 6.78687 15.5106 6.79708 15.5288 6.81527C15.547 6.83345 15.5572 6.85812 15.5572 6.88384Z" fill="#FFC72C" stroke="black" stroke-width="0.0831184"/>
<path d="M15.0624 7.68396H15.8208C15.8208 7.68396 15.8312 7.58698 15.7412 7.52811C16.1394 7.4727 16.0355 7.12637 16.3645 7.10559C16.4338 7.11598 16.1914 7.25451 16.1914 7.25451C16.1914 7.25451 15.994 7.39304 16.0875 7.46577C16.1567 7.52464 16.1914 7.43114 16.1983 7.36187C16.2087 7.29261 16.5204 7.24758 16.4754 7.05018C16.4026 6.8874 15.9663 7.161 15.9663 7.161L15.6546 7.15754C15.6338 7.12291 15.5507 6.98438 15.4606 6.98438C15.3567 6.98438 15.2805 7.15754 15.2805 7.15754H14.5775C14.5775 7.15754 14.5533 7.34109 14.91 7.37572C14.9896 7.47962 15.052 7.50733 15.1247 7.53503C15.0762 7.57313 15.0624 7.62162 15.0624 7.68396ZM15.1178 7.53157H15.7481H15.1178Z" fill="#FFC72C"/>
<path d="M15.1178 7.53157H15.7481M15.0624 7.68396H15.8208C15.8208 7.68396 15.8312 7.58698 15.7412 7.52811C16.1394 7.4727 16.0355 7.12637 16.3645 7.10559C16.4338 7.11598 16.1914 7.25451 16.1914 7.25451C16.1914 7.25451 15.994 7.39304 16.0875 7.46577C16.1567 7.52464 16.1914 7.43114 16.1983 7.36187C16.2087 7.29261 16.5204 7.24758 16.4754 7.05018C16.4026 6.8874 15.9663 7.161 15.9663 7.161L15.6546 7.15754C15.6338 7.12291 15.5507 6.98438 15.4606 6.98438C15.3567 6.98438 15.2805 7.15754 15.2805 7.15754H14.5775C14.5775 7.15754 14.5533 7.34109 14.91 7.37572C14.9896 7.47962 15.052 7.50733 15.1247 7.53503C15.0762 7.57313 15.0624 7.62162 15.0624 7.68396Z" stroke="black" stroke-width="0.0831184"/>
<path d="M14.8301 7.16089C14.8301 7.16089 14.8786 7.45527 15.1141 7.52453L14.8301 7.16089Z" fill="#FFC72C"/>
<path d="M14.8301 7.16089C14.8301 7.16089 14.8786 7.45527 15.1141 7.52453" stroke="black" stroke-width="0.0831184"/>
<path d="M14.7922 7.15412C14.813 7.04329 14.858 7.02251 14.903 6.87706C14.91 6.73852 14.7922 6.75584 14.8269 6.66926C14.8892 6.56882 14.858 6.47532 14.7403 6.40259C14.7645 6.53073 14.5879 6.65194 14.5879 6.75584C14.5879 6.85974 14.6779 6.83896 14.6675 6.99827C14.6745 7.08831 14.6433 7.06753 14.6329 7.15412H14.7922Z" fill="url(#paint0_linear_208_27519)" stroke="black" stroke-width="0.0831184"/>
<path d="M15.5502 6.45796C15.5502 6.48185 15.5407 6.50475 15.5238 6.52164C15.5069 6.53852 15.484 6.54801 15.4602 6.54801C15.4363 6.54801 15.4134 6.53852 15.3965 6.52164C15.3796 6.50475 15.3701 6.48185 15.3701 6.45796C15.3701 6.43408 15.3796 6.41118 15.3965 6.39429C15.4134 6.37741 15.4363 6.36792 15.4602 6.36792C15.484 6.36792 15.5069 6.37741 15.5238 6.39429C15.5407 6.41118 15.5502 6.43408 15.5502 6.45796Z" fill="#FFC72C" stroke="black" stroke-width="0.0831184"/>
<path d="M14.9727 7.15415L15.4575 6.43726L15.9528 7.15761" stroke="#FFC72C" stroke-width="0.175472"/>
<path d="M15.5572 6.88384C15.5572 6.90956 15.547 6.93422 15.5288 6.95241C15.5106 6.97059 15.486 6.98081 15.4603 6.98081C15.4345 6.98081 15.4099 6.97059 15.3917 6.95241C15.3735 6.93422 15.3633 6.90956 15.3633 6.88384C15.3633 6.85812 15.3735 6.83345 15.3917 6.81527C15.4099 6.79708 15.4345 6.78687 15.4603 6.78687C15.486 6.78687 15.5106 6.79708 15.5288 6.81527C15.547 6.83345 15.5572 6.85812 15.5572 6.88384Z" fill="#FFC72C" stroke="black" stroke-width="0.0831184"/>
<path d="M15.0624 7.68396H15.8208C15.8208 7.68396 15.8312 7.58698 15.7412 7.52811C16.1394 7.4727 16.0355 7.12637 16.3645 7.10559C16.4338 7.11598 16.1914 7.25451 16.1914 7.25451C16.1914 7.25451 15.994 7.39304 16.0875 7.46577C16.1567 7.52464 16.1914 7.43114 16.1983 7.36187C16.2087 7.29261 16.5204 7.24758 16.4754 7.05018C16.4026 6.8874 15.9663 7.161 15.9663 7.161L15.6546 7.15754C15.6338 7.12291 15.5507 6.98438 15.4606 6.98438C15.3567 6.98438 15.2805 7.15754 15.2805 7.15754H14.5775C14.5775 7.15754 14.5533 7.34109 14.91 7.37572C14.9896 7.47962 15.052 7.50733 15.1247 7.53503C15.0762 7.57313 15.0624 7.62162 15.0624 7.68396ZM15.1178 7.53157H15.7481H15.1178Z" fill="#FFC72C"/>
<path d="M15.1178 7.53157H15.7481M15.0624 7.68396H15.8208C15.8208 7.68396 15.8312 7.58698 15.7412 7.52811C16.1394 7.4727 16.0355 7.12637 16.3645 7.10559C16.4338 7.11598 16.1914 7.25451 16.1914 7.25451C16.1914 7.25451 15.994 7.39304 16.0875 7.46577C16.1567 7.52464 16.1914 7.43114 16.1983 7.36187C16.2087 7.29261 16.5204 7.24758 16.4754 7.05018C16.4026 6.8874 15.9663 7.161 15.9663 7.161L15.6546 7.15754C15.6338 7.12291 15.5507 6.98438 15.4606 6.98438C15.3567 6.98438 15.2805 7.15754 15.2805 7.15754H14.5775C14.5775 7.15754 14.5533 7.34109 14.91 7.37572C14.9896 7.47962 15.052 7.50733 15.1247 7.53503C15.0762 7.57313 15.0624 7.62162 15.0624 7.68396Z" stroke="black" stroke-width="0.0831184"/>
<path d="M14.8301 7.16089C14.8301 7.16089 14.8786 7.45527 15.1141 7.52453L14.8301 7.16089Z" fill="#FFC72C"/>
<path d="M14.8301 7.16089C14.8301 7.16089 14.8786 7.45527 15.1141 7.52453" stroke="black" stroke-width="0.0831184"/>
<path d="M14.7922 7.15412C14.813 7.04329 14.858 7.02251 14.903 6.87706C14.91 6.73852 14.7922 6.75584 14.8269 6.66926C14.8892 6.56882 14.858 6.47532 14.7403 6.40259C14.7645 6.53073 14.5879 6.65194 14.5879 6.75584C14.5879 6.85974 14.6779 6.83896 14.6675 6.99827C14.6745 7.08831 14.6433 7.06753 14.6329 7.15412H14.7922Z" fill="url(#paint1_linear_208_27519)" stroke="black" stroke-width="0.0831184"/>
<path d="M15.5502 6.45796C15.5502 6.48185 15.5407 6.50475 15.5238 6.52164C15.5069 6.53852 15.484 6.54801 15.4602 6.54801C15.4363 6.54801 15.4134 6.53852 15.3965 6.52164C15.3796 6.50475 15.3701 6.48185 15.3701 6.45796C15.3701 6.43408 15.3796 6.41118 15.3965 6.39429C15.4134 6.37741 15.4363 6.36792 15.4602 6.36792C15.484 6.36792 15.5069 6.37741 15.5238 6.39429C15.5407 6.41118 15.5502 6.43408 15.5502 6.45796Z" fill="#FFC72C" stroke="black" stroke-width="0.0831184"/>
<path d="M14.9727 7.15415L15.4575 6.43726L15.9528 7.15761" stroke="#FFC72C" stroke-width="0.175472"/>
<path d="M15.5572 6.88384C15.5572 6.90956 15.547 6.93422 15.5288 6.95241C15.5106 6.97059 15.486 6.98081 15.4603 6.98081C15.4345 6.98081 15.4099 6.97059 15.3917 6.95241C15.3735 6.93422 15.3633 6.90956 15.3633 6.88384C15.3633 6.85812 15.3735 6.83345 15.3917 6.81527C15.4099 6.79708 15.4345 6.78687 15.4603 6.78687C15.486 6.78687 15.5106 6.79708 15.5288 6.81527C15.547 6.83345 15.5572 6.85812 15.5572 6.88384Z" fill="#FFC72C" stroke="black" stroke-width="0.0831184"/>
<path d="M15.0624 7.68396H15.8208C15.8208 7.68396 15.8312 7.58698 15.7412 7.52811C16.1394 7.4727 16.0355 7.12637 16.3645 7.10559C16.4338 7.11598 16.1914 7.25451 16.1914 7.25451C16.1914 7.25451 15.994 7.39304 16.0875 7.46577C16.1567 7.52464 16.1914 7.43114 16.1983 7.36187C16.2087 7.29261 16.5204 7.24758 16.4754 7.05018C16.4026 6.8874 15.9663 7.161 15.9663 7.161L15.6546 7.15754C15.6338 7.12291 15.5507 6.98438 15.4606 6.98438C15.3567 6.98438 15.2805 7.15754 15.2805 7.15754H14.5775C14.5775 7.15754 14.5533 7.34109 14.91 7.37572C14.9896 7.47962 15.052 7.50733 15.1247 7.53503C15.0762 7.57313 15.0624 7.62162 15.0624 7.68396ZM15.1178 7.53157H15.7481H15.1178Z" fill="#FFC72C"/>
<path d="M15.1178 7.53157H15.7481M15.0624 7.68396H15.8208C15.8208 7.68396 15.8312 7.58698 15.7412 7.52811C16.1394 7.4727 16.0355 7.12637 16.3645 7.10559C16.4338 7.11598 16.1914 7.25451 16.1914 7.25451C16.1914 7.25451 15.994 7.39304 16.0875 7.46577C16.1567 7.52464 16.1914 7.43114 16.1983 7.36187C16.2087 7.29261 16.5204 7.24758 16.4754 7.05018C16.4026 6.8874 15.9663 7.161 15.9663 7.161L15.6546 7.15754C15.6338 7.12291 15.5507 6.98438 15.4606 6.98438C15.3567 6.98438 15.2805 7.15754 15.2805 7.15754H14.5775C14.5775 7.15754 14.5533 7.34109 14.91 7.37572C14.9896 7.47962 15.052 7.50733 15.1247 7.53503C15.0762 7.57313 15.0624 7.62162 15.0624 7.68396Z" stroke="black" stroke-width="0.0831184"/>
<path d="M14.8301 7.16089C14.8301 7.16089 14.8786 7.45527 15.1141 7.52453L14.8301 7.16089Z" fill="#FFC72C"/>
<path d="M14.8301 7.16089C14.8301 7.16089 14.8786 7.45527 15.1141 7.52453" stroke="black" stroke-width="0.0831184"/>
<path d="M14.7922 7.15412C14.813 7.04329 14.858 7.02251 14.903 6.87706C14.91 6.73852 14.7922 6.75584 14.8269 6.66926C14.8892 6.56882 14.858 6.47532 14.7403 6.40259C14.7645 6.53073 14.5879 6.65194 14.5879 6.75584C14.5879 6.85974 14.6779 6.83896 14.6675 6.99827C14.6745 7.08831 14.6433 7.06753 14.6329 7.15412H14.7922Z" fill="url(#paint2_linear_208_27519)" stroke="black" stroke-width="0.0831184"/>
<path d="M15.5502 6.45796C15.5502 6.48185 15.5407 6.50475 15.5238 6.52164C15.5069 6.53852 15.484 6.54801 15.4602 6.54801C15.4363 6.54801 15.4134 6.53852 15.3965 6.52164C15.3796 6.50475 15.3701 6.48185 15.3701 6.45796C15.3701 6.43408 15.3796 6.41118 15.3965 6.39429C15.4134 6.37741 15.4363 6.36792 15.4602 6.36792C15.484 6.36792 15.5069 6.37741 15.5238 6.39429C15.5407 6.41118 15.5502 6.43408 15.5502 6.45796Z" fill="#FFC72C" stroke="black" stroke-width="0.0831184"/>
<path d="M14.9727 7.15415L15.4575 6.43726L15.9528 7.15761" stroke="#FFC72C" stroke-width="0.175472"/>
<path d="M15.5572 6.88384C15.5572 6.90956 15.547 6.93422 15.5288 6.95241C15.5106 6.97059 15.486 6.98081 15.4603 6.98081C15.4345 6.98081 15.4099 6.97059 15.3917 6.95241C15.3735 6.93422 15.3633 6.90956 15.3633 6.88384C15.3633 6.85812 15.3735 6.83345 15.3917 6.81527C15.4099 6.79708 15.4345 6.78687 15.4603 6.78687C15.486 6.78687 15.5106 6.79708 15.5288 6.81527C15.547 6.83345 15.5572 6.85812 15.5572 6.88384Z" fill="#FFC72C" stroke="black" stroke-width="0.0831184"/>
<path d="M15.0624 7.68396H15.8208C15.8208 7.68396 15.8312 7.58698 15.7412 7.52811C16.1394 7.4727 16.0355 7.12637 16.3645 7.10559C16.4338 7.11598 16.1914 7.25451 16.1914 7.25451C16.1914 7.25451 15.994 7.39304 16.0875 7.46577C16.1567 7.52464 16.1914 7.43114 16.1983 7.36187C16.2087 7.29261 16.5204 7.24758 16.4754 7.05018C16.4026 6.8874 15.9663 7.161 15.9663 7.161L15.6546 7.15754C15.6338 7.12291 15.5507 6.98438 15.4606 6.98438C15.3567 6.98438 15.2805 7.15754 15.2805 7.15754H14.5775C14.5775 7.15754 14.5533 7.34109 14.91 7.37572C14.9896 7.47962 15.052 7.50733 15.1247 7.53503C15.0762 7.57313 15.0624 7.62162 15.0624 7.68396ZM15.1178 7.53157H15.7481H15.1178Z" fill="#FFC72C"/>
<path d="M15.1178 7.53157H15.7481M15.0624 7.68396H15.8208C15.8208 7.68396 15.8312 7.58698 15.7412 7.52811C16.1394 7.4727 16.0355 7.12637 16.3645 7.10559C16.4338 7.11598 16.1914 7.25451 16.1914 7.25451C16.1914 7.25451 15.994 7.39304 16.0875 7.46577C16.1567 7.52464 16.1914 7.43114 16.1983 7.36187C16.2087 7.29261 16.5204 7.24758 16.4754 7.05018C16.4026 6.8874 15.9663 7.161 15.9663 7.161L15.6546 7.15754C15.6338 7.12291 15.5507 6.98438 15.4606 6.98438C15.3567 6.98438 15.2805 7.15754 15.2805 7.15754H14.5775C14.5775 7.15754 14.5533 7.34109 14.91 7.37572C14.9896 7.47962 15.052 7.50733 15.1247 7.53503C15.0762 7.57313 15.0624 7.62162 15.0624 7.68396Z" stroke="black" stroke-width="0.0831184"/>
<path d="M14.8301 7.16089C14.8301 7.16089 14.8786 7.45527 15.1141 7.52453L14.8301 7.16089Z" fill="#FFC72C"/>
<path d="M14.8301 7.16089C14.8301 7.16089 14.8786 7.45527 15.1141 7.52453" stroke="black" stroke-width="0.0831184"/>
<path d="M14.7922 7.15412C14.813 7.04329 14.858 7.02251 14.903 6.87706C14.91 6.73852 14.7922 6.75584 14.8269 6.66926C14.8892 6.56882 14.858 6.47532 14.7403 6.40259C14.7645 6.53073 14.5879 6.65194 14.5879 6.75584C14.5879 6.85974 14.6779 6.83896 14.6675 6.99827C14.6745 7.08831 14.6433 7.06753 14.6329 7.15412H14.7922Z" fill="url(#paint3_linear_208_27519)" stroke="black" stroke-width="0.0831184"/>
<path d="M15.5502 6.45796C15.5502 6.48185 15.5407 6.50475 15.5238 6.52164C15.5069 6.53852 15.484 6.54801 15.4602 6.54801C15.4363 6.54801 15.4134 6.53852 15.3965 6.52164C15.3796 6.50475 15.3701 6.48185 15.3701 6.45796C15.3701 6.43408 15.3796 6.41118 15.3965 6.39429C15.4134 6.37741 15.4363 6.36792 15.4602 6.36792C15.484 6.36792 15.5069 6.37741 15.5238 6.39429C15.5407 6.41118 15.5502 6.43408 15.5502 6.45796Z" fill="#FFC72C" stroke="black" stroke-width="0.0831184"/>
<path d="M14.9727 7.15415L15.4575 6.43726L15.9528 7.15761" stroke="#FFC72C" stroke-width="0.175472"/>
<path d="M15.5572 6.88384C15.5572 6.90956 15.547 6.93422 15.5288 6.95241C15.5106 6.97059 15.486 6.98081 15.4603 6.98081C15.4345 6.98081 15.4099 6.97059 15.3917 6.95241C15.3735 6.93422 15.3633 6.90956 15.3633 6.88384C15.3633 6.85812 15.3735 6.83345 15.3917 6.81527C15.4099 6.79708 15.4345 6.78687 15.4603 6.78687C15.486 6.78687 15.5106 6.79708 15.5288 6.81527C15.547 6.83345 15.5572 6.85812 15.5572 6.88384Z" fill="#FFC72C" stroke="black" stroke-width="0.0831184"/>
<path d="M15.0624 7.68396H15.8208C15.8208 7.68396 15.8312 7.58698 15.7412 7.52811C16.1394 7.4727 16.0355 7.12637 16.3645 7.10559C16.4338 7.11598 16.1914 7.25451 16.1914 7.25451C16.1914 7.25451 15.994 7.39304 16.0875 7.46577C16.1567 7.52464 16.1914 7.43114 16.1983 7.36187C16.2087 7.29261 16.5204 7.24758 16.4754 7.05018C16.4026 6.8874 15.9663 7.161 15.9663 7.161L15.6546 7.15754C15.6338 7.12291 15.5507 6.98438 15.4606 6.98438C15.3567 6.98438 15.2805 7.15754 15.2805 7.15754H14.5775C14.5775 7.15754 14.5533 7.34109 14.91 7.37572C14.9896 7.47962 15.052 7.50733 15.1247 7.53503C15.0762 7.57313 15.0624 7.62162 15.0624 7.68396ZM15.1178 7.53157H15.7481H15.1178Z" fill="#FFC72C"/>
<path d="M15.1178 7.53157H15.7481M15.0624 7.68396H15.8208C15.8208 7.68396 15.8312 7.58698 15.7412 7.52811C16.1394 7.4727 16.0355 7.12637 16.3645 7.10559C16.4338 7.11598 16.1914 7.25451 16.1914 7.25451C16.1914 7.25451 15.994 7.39304 16.0875 7.46577C16.1567 7.52464 16.1914 7.43114 16.1983 7.36187C16.2087 7.29261 16.5204 7.24758 16.4754 7.05018C16.4026 6.8874 15.9663 7.161 15.9663 7.161L15.6546 7.15754C15.6338 7.12291 15.5507 6.98438 15.4606 6.98438C15.3567 6.98438 15.2805 7.15754 15.2805 7.15754H14.5775C14.5775 7.15754 14.5533 7.34109 14.91 7.37572C14.9896 7.47962 15.052 7.50733 15.1247 7.53503C15.0762 7.57313 15.0624 7.62162 15.0624 7.68396Z" stroke="black" stroke-width="0.0831184"/>
<path d="M14.8301 7.16089C14.8301 7.16089 14.8786 7.45527 15.1141 7.52453L14.8301 7.16089Z" fill="#FFC72C"/>
<path d="M14.8301 7.16089C14.8301 7.16089 14.8786 7.45527 15.1141 7.52453" stroke="black" stroke-width="0.0831184"/>
<path d="M14.7922 7.15412C14.813 7.04329 14.858 7.02251 14.903 6.87706C14.91 6.73852 14.7922 6.75584 14.8269 6.66926C14.8892 6.56882 14.858 6.47532 14.7403 6.40259C14.7645 6.53073 14.5879 6.65194 14.5879 6.75584C14.5879 6.85974 14.6779 6.83896 14.6675 6.99827C14.6745 7.08831 14.6433 7.06753 14.6329 7.15412H14.7922Z" fill="url(#paint4_linear_208_27519)" stroke="black" stroke-width="0.0831184"/>
<path d="M15.5502 6.45796C15.5502 6.48185 15.5407 6.50475 15.5238 6.52164C15.5069 6.53852 15.484 6.54801 15.4602 6.54801C15.4363 6.54801 15.4134 6.53852 15.3965 6.52164C15.3796 6.50475 15.3701 6.48185 15.3701 6.45796C15.3701 6.43408 15.3796 6.41118 15.3965 6.39429C15.4134 6.37741 15.4363 6.36792 15.4602 6.36792C15.484 6.36792 15.5069 6.37741 15.5238 6.39429C15.5407 6.41118 15.5502 6.43408 15.5502 6.45796Z" fill="#FFC72C" stroke="black" stroke-width="0.0831184"/>
<path d="M14.9727 7.15415L15.4575 6.43726L15.9528 7.15761" stroke="#FFC72C" stroke-width="0.175472"/>
<path d="M15.5572 6.88384C15.5572 6.90956 15.547 6.93422 15.5288 6.95241C15.5106 6.97059 15.486 6.98081 15.4603 6.98081C15.4345 6.98081 15.4099 6.97059 15.3917 6.95241C15.3735 6.93422 15.3633 6.90956 15.3633 6.88384C15.3633 6.85812 15.3735 6.83345 15.3917 6.81527C15.4099 6.79708 15.4345 6.78687 15.4603 6.78687C15.486 6.78687 15.5106 6.79708 15.5288 6.81527C15.547 6.83345 15.5572 6.85812 15.5572 6.88384Z" fill="#FFC72C" stroke="black" stroke-width="0.0831184"/>
<path d="M15.0624 7.68396H15.8208C15.8208 7.68396 15.8312 7.58698 15.7412 7.52811C16.1394 7.4727 16.0355 7.12637 16.3645 7.10559C16.4338 7.11598 16.1914 7.25451 16.1914 7.25451C16.1914 7.25451 15.994 7.39304 16.0875 7.46577C16.1567 7.52464 16.1914 7.43114 16.1983 7.36187C16.2087 7.29261 16.5204 7.24758 16.4754 7.05018C16.4026 6.8874 15.9663 7.161 15.9663 7.161L15.6546 7.15754C15.6338 7.12291 15.5507 6.98438 15.4606 6.98438C15.3567 6.98438 15.2805 7.15754 15.2805 7.15754H14.5775C14.5775 7.15754 14.5533 7.34109 14.91 7.37572C14.9896 7.47962 15.052 7.50733 15.1247 7.53503C15.0762 7.57313 15.0624 7.62162 15.0624 7.68396ZM15.1178 7.53157H15.7481H15.1178Z" fill="#FFC72C"/>
<path d="M15.1178 7.53157H15.7481M15.0624 7.68396H15.8208C15.8208 7.68396 15.8312 7.58698 15.7412 7.52811C16.1394 7.4727 16.0355 7.12637 16.3645 7.10559C16.4338 7.11598 16.1914 7.25451 16.1914 7.25451C16.1914 7.25451 15.994 7.39304 16.0875 7.46577C16.1567 7.52464 16.1914 7.43114 16.1983 7.36187C16.2087 7.29261 16.5204 7.24758 16.4754 7.05018C16.4026 6.8874 15.9663 7.161 15.9663 7.161L15.6546 7.15754C15.6338 7.12291 15.5507 6.98438 15.4606 6.98438C15.3567 6.98438 15.2805 7.15754 15.2805 7.15754H14.5775C14.5775 7.15754 14.5533 7.34109 14.91 7.37572C14.9896 7.47962 15.052 7.50733 15.1247 7.53503C15.0762 7.57313 15.0624 7.62162 15.0624 7.68396Z" stroke="black" stroke-width="0.0831184"/>
<path d="M14.8301 7.16089C14.8301 7.16089 14.8786 7.45527 15.1141 7.52453L14.8301 7.16089Z" fill="#FFC72C"/>
<path d="M14.8301 7.16089C14.8301 7.16089 14.8786 7.45527 15.1141 7.52453" stroke="black" stroke-width="0.0831184"/>
<path d="M14.7922 7.15412C14.813 7.04329 14.858 7.02251 14.903 6.87706C14.91 6.73852 14.7922 6.75584 14.8269 6.66926C14.8892 6.56882 14.858 6.47532 14.7403 6.40259C14.7645 6.53073 14.5879 6.65194 14.5879 6.75584C14.5879 6.85974 14.6779 6.83896 14.6675 6.99827C14.6745 7.08831 14.6433 7.06753 14.6329 7.15412H14.7922Z" fill="url(#paint5_linear_208_27519)" stroke="black" stroke-width="0.0831184"/>
<path d="M15.5502 6.45796C15.5502 6.48185 15.5407 6.50475 15.5238 6.52164C15.5069 6.53852 15.484 6.54801 15.4602 6.54801C15.4363 6.54801 15.4134 6.53852 15.3965 6.52164C15.3796 6.50475 15.3701 6.48185 15.3701 6.45796C15.3701 6.43408 15.3796 6.41118 15.3965 6.39429C15.4134 6.37741 15.4363 6.36792 15.4602 6.36792C15.484 6.36792 15.5069 6.37741 15.5238 6.39429C15.5407 6.41118 15.5502 6.43408 15.5502 6.45796Z" fill="#FFC72C" stroke="black" stroke-width="0.0831184"/>
<path d="M14.9727 7.15415L15.4575 6.43726L15.9528 7.15761" stroke="#FFC72C" stroke-width="0.175472"/>
<path d="M15.5572 6.88384C15.5572 6.90956 15.547 6.93422 15.5288 6.95241C15.5106 6.97059 15.486 6.98081 15.4603 6.98081C15.4345 6.98081 15.4099 6.97059 15.3917 6.95241C15.3735 6.93422 15.3633 6.90956 15.3633 6.88384C15.3633 6.85812 15.3735 6.83345 15.3917 6.81527C15.4099 6.79708 15.4345 6.78687 15.4603 6.78687C15.486 6.78687 15.5106 6.79708 15.5288 6.81527C15.547 6.83345 15.5572 6.85812 15.5572 6.88384Z" fill="#FFC72C" stroke="black" stroke-width="0.0831184"/>
<path d="M15.0624 7.68396H15.8208C15.8208 7.68396 15.8312 7.58698 15.7412 7.52811C16.1394 7.4727 16.0355 7.12637 16.3645 7.10559C16.4338 7.11598 16.1914 7.25451 16.1914 7.25451C16.1914 7.25451 15.994 7.39304 16.0875 7.46577C16.1567 7.52464 16.1914 7.43114 16.1983 7.36187C16.2087 7.29261 16.5204 7.24758 16.4754 7.05018C16.4026 6.8874 15.9663 7.161 15.9663 7.161L15.6546 7.15754C15.6338 7.12291 15.5507 6.98438 15.4606 6.98438C15.3567 6.98438 15.2805 7.15754 15.2805 7.15754H14.5775C14.5775 7.15754 14.5533 7.34109 14.91 7.37572C14.9896 7.47962 15.052 7.50733 15.1247 7.53503C15.0762 7.57313 15.0624 7.62162 15.0624 7.68396ZM15.1178 7.53157H15.7481H15.1178Z" fill="#FFC72C"/>
<path d="M15.1178 7.53157H15.7481M15.0624 7.68396H15.8208C15.8208 7.68396 15.8312 7.58698 15.7412 7.52811C16.1394 7.4727 16.0355 7.12637 16.3645 7.10559C16.4338 7.11598 16.1914 7.25451 16.1914 7.25451C16.1914 7.25451 15.994 7.39304 16.0875 7.46577C16.1567 7.52464 16.1914 7.43114 16.1983 7.36187C16.2087 7.29261 16.5204 7.24758 16.4754 7.05018C16.4026 6.8874 15.9663 7.161 15.9663 7.161L15.6546 7.15754C15.6338 7.12291 15.5507 6.98438 15.4606 6.98438C15.3567 6.98438 15.2805 7.15754 15.2805 7.15754H14.5775C14.5775 7.15754 14.5533 7.34109 14.91 7.37572C14.9896 7.47962 15.052 7.50733 15.1247 7.53503C15.0762 7.57313 15.0624 7.62162 15.0624 7.68396Z" stroke="black" stroke-width="0.0831184"/>
<path d="M14.8301 7.16089C14.8301 7.16089 14.8786 7.45527 15.1141 7.52453L14.8301 7.16089Z" fill="#FFC72C"/>
<path d="M14.8301 7.16089C14.8301 7.16089 14.8786 7.45527 15.1141 7.52453" stroke="black" stroke-width="0.0831184"/>
<path d="M14.7922 7.15412C14.813 7.04329 14.858 7.02251 14.903 6.87706C14.91 6.73852 14.7922 6.75584 14.8269 6.66926C14.8892 6.56882 14.858 6.47532 14.7403 6.40259C14.7645 6.53073 14.5879 6.65194 14.5879 6.75584C14.5879 6.85974 14.6779 6.83896 14.6675 6.99827C14.6745 7.08831 14.6433 7.06753 14.6329 7.15412H14.7922Z" fill="url(#paint6_linear_208_27519)" stroke="black" stroke-width="0.0831184"/>
<path d="M15.5502 6.45796C15.5502 6.48185 15.5407 6.50475 15.5238 6.52164C15.5069 6.53852 15.484 6.54801 15.4602 6.54801C15.4363 6.54801 15.4134 6.53852 15.3965 6.52164C15.3796 6.50475 15.3701 6.48185 15.3701 6.45796C15.3701 6.43408 15.3796 6.41118 15.3965 6.39429C15.4134 6.37741 15.4363 6.36792 15.4602 6.36792C15.484 6.36792 15.5069 6.37741 15.5238 6.39429C15.5407 6.41118 15.5502 6.43408 15.5502 6.45796Z" fill="#FFC72C" stroke="black" stroke-width="0.0831184"/>
<path d="M14.9727 7.15415L15.4575 6.43726L15.9528 7.15761" stroke="#FFC72C" stroke-width="0.175472"/>
<path d="M15.5572 6.88384C15.5572 6.90956 15.547 6.93422 15.5288 6.95241C15.5106 6.97059 15.486 6.98081 15.4603 6.98081C15.4345 6.98081 15.4099 6.97059 15.3917 6.95241C15.3735 6.93422 15.3633 6.90956 15.3633 6.88384C15.3633 6.85812 15.3735 6.83345 15.3917 6.81527C15.4099 6.79708 15.4345 6.78687 15.4603 6.78687C15.486 6.78687 15.5106 6.79708 15.5288 6.81527C15.547 6.83345 15.5572 6.85812 15.5572 6.88384Z" fill="#FFC72C" stroke="black" stroke-width="0.0831184"/>
<path d="M15.0624 7.68396H15.8208C15.8208 7.68396 15.8312 7.58698 15.7412 7.52811C16.1394 7.4727 16.0355 7.12637 16.3645 7.10559C16.4338 7.11598 16.1914 7.25451 16.1914 7.25451C16.1914 7.25451 15.994 7.39304 16.0875 7.46577C16.1567 7.52464 16.1914 7.43114 16.1983 7.36187C16.2087 7.29261 16.5204 7.24758 16.4754 7.05018C16.4026 6.8874 15.9663 7.161 15.9663 7.161L15.6546 7.15754C15.6338 7.12291 15.5507 6.98438 15.4606 6.98438C15.3567 6.98438 15.2805 7.15754 15.2805 7.15754H14.5775C14.5775 7.15754 14.5533 7.34109 14.91 7.37572C14.9896 7.47962 15.052 7.50733 15.1247 7.53503C15.0762 7.57313 15.0624 7.62162 15.0624 7.68396ZM15.1178 7.53157H15.7481H15.1178Z" fill="#FFC72C"/>
<path d="M15.1178 7.53157H15.7481M15.0624 7.68396H15.8208C15.8208 7.68396 15.8312 7.58698 15.7412 7.52811C16.1394 7.4727 16.0355 7.12637 16.3645 7.10559C16.4338 7.11598 16.1914 7.25451 16.1914 7.25451C16.1914 7.25451 15.994 7.39304 16.0875 7.46577C16.1567 7.52464 16.1914 7.43114 16.1983 7.36187C16.2087 7.29261 16.5204 7.24758 16.4754 7.05018C16.4026 6.8874 15.9663 7.161 15.9663 7.161L15.6546 7.15754C15.6338 7.12291 15.5507 6.98438 15.4606 6.98438C15.3567 6.98438 15.2805 7.15754 15.2805 7.15754H14.5775C14.5775 7.15754 14.5533 7.34109 14.91 7.37572C14.9896 7.47962 15.052 7.50733 15.1247 7.53503C15.0762 7.57313 15.0624 7.62162 15.0624 7.68396Z" stroke="black" stroke-width="0.0831184"/>
<path d="M14.8301 7.16089C14.8301 7.16089 14.8786 7.45527 15.1141 7.52453L14.8301 7.16089Z" fill="#FFC72C"/>
<path d="M14.8301 7.16089C14.8301 7.16089 14.8786 7.45527 15.1141 7.52453" stroke="black" stroke-width="0.0831184"/>
<path d="M14.7922 7.15412C14.813 7.04329 14.858 7.02251 14.903 6.87706C14.91 6.73852 14.7922 6.75584 14.8269 6.66926C14.8892 6.56882 14.858 6.47532 14.7403 6.40259C14.7645 6.53073 14.5879 6.65194 14.5879 6.75584C14.5879 6.85974 14.6779 6.83896 14.6675 6.99827C14.6745 7.08831 14.6433 7.06753 14.6329 7.15412H14.7922Z" fill="url(#paint7_linear_208_27519)" stroke="black" stroke-width="0.0831184"/>
<path d="M15.5502 6.45796C15.5502 6.48185 15.5407 6.50475 15.5238 6.52164C15.5069 6.53852 15.484 6.54801 15.4602 6.54801C15.4363 6.54801 15.4134 6.53852 15.3965 6.52164C15.3796 6.50475 15.3701 6.48185 15.3701 6.45796C15.3701 6.43408 15.3796 6.41118 15.3965 6.39429C15.4134 6.37741 15.4363 6.36792 15.4602 6.36792C15.484 6.36792 15.5069 6.37741 15.5238 6.39429C15.5407 6.41118 15.5502 6.43408 15.5502 6.45796Z" fill="#FFC72C" stroke="black" stroke-width="0.0831184"/>
<path d="M14.9727 7.15415L15.4575 6.43726L15.9528 7.15761" stroke="#FFC72C" stroke-width="0.175472"/>
<path d="M15.5572 6.88384C15.5572 6.90956 15.547 6.93422 15.5288 6.95241C15.5106 6.97059 15.486 6.98081 15.4603 6.98081C15.4345 6.98081 15.4099 6.97059 15.3917 6.95241C15.3735 6.93422 15.3633 6.90956 15.3633 6.88384C15.3633 6.85812 15.3735 6.83345 15.3917 6.81527C15.4099 6.79708 15.4345 6.78687 15.4603 6.78687C15.486 6.78687 15.5106 6.79708 15.5288 6.81527C15.547 6.83345 15.5572 6.85812 15.5572 6.88384Z" fill="#FFC72C" stroke="black" stroke-width="0.0831184"/>
<path d="M15.0624 7.68396H15.8208C15.8208 7.68396 15.8312 7.58698 15.7412 7.52811C16.1394 7.4727 16.0355 7.12637 16.3645 7.10559C16.4338 7.11598 16.1914 7.25451 16.1914 7.25451C16.1914 7.25451 15.994 7.39304 16.0875 7.46577C16.1567 7.52464 16.1914 7.43114 16.1983 7.36187C16.2087 7.29261 16.5204 7.24758 16.4754 7.05018C16.4026 6.8874 15.9663 7.161 15.9663 7.161L15.6546 7.15754C15.6338 7.12291 15.5507 6.98438 15.4606 6.98438C15.3567 6.98438 15.2805 7.15754 15.2805 7.15754H14.5775C14.5775 7.15754 14.5533 7.34109 14.91 7.37572C14.9896 7.47962 15.052 7.50733 15.1247 7.53503C15.0762 7.57313 15.0624 7.62162 15.0624 7.68396ZM15.1178 7.53157H15.7481H15.1178Z" fill="#FFC72C"/>
<path d="M15.1178 7.53157H15.7481M15.0624 7.68396H15.8208C15.8208 7.68396 15.8312 7.58698 15.7412 7.52811C16.1394 7.4727 16.0355 7.12637 16.3645 7.10559C16.4338 7.11598 16.1914 7.25451 16.1914 7.25451C16.1914 7.25451 15.994 7.39304 16.0875 7.46577C16.1567 7.52464 16.1914 7.43114 16.1983 7.36187C16.2087 7.29261 16.5204 7.24758 16.4754 7.05018C16.4026 6.8874 15.9663 7.161 15.9663 7.161L15.6546 7.15754C15.6338 7.12291 15.5507 6.98438 15.4606 6.98438C15.3567 6.98438 15.2805 7.15754 15.2805 7.15754H14.5775C14.5775 7.15754 14.5533 7.34109 14.91 7.37572C14.9896 7.47962 15.052 7.50733 15.1247 7.53503C15.0762 7.57313 15.0624 7.62162 15.0624 7.68396Z" stroke="black" stroke-width="0.0831184"/>
<path d="M14.8301 7.16089C14.8301 7.16089 14.8786 7.45527 15.1141 7.52453L14.8301 7.16089Z" fill="#FFC72C"/>
<path d="M14.8301 7.16089C14.8301 7.16089 14.8786 7.45527 15.1141 7.52453" stroke="black" stroke-width="0.0831184"/>
<path d="M14.7922 7.15412C14.813 7.04329 14.858 7.02251 14.903 6.87706C14.91 6.73852 14.7922 6.75584 14.8269 6.66926C14.8892 6.56882 14.858 6.47532 14.7403 6.40259C14.7645 6.53073 14.5879 6.65194 14.5879 6.75584C14.5879 6.85974 14.6779 6.83896 14.6675 6.99827C14.6745 7.08831 14.6433 7.06753 14.6329 7.15412H14.7922Z" fill="url(#paint8_linear_208_27519)" stroke="black" stroke-width="0.0831184"/>
<path d="M15.5502 6.45796C15.5502 6.48185 15.5407 6.50475 15.5238 6.52164C15.5069 6.53852 15.484 6.54801 15.4602 6.54801C15.4363 6.54801 15.4134 6.53852 15.3965 6.52164C15.3796 6.50475 15.3701 6.48185 15.3701 6.45796C15.3701 6.43408 15.3796 6.41118 15.3965 6.39429C15.4134 6.37741 15.4363 6.36792 15.4602 6.36792C15.484 6.36792 15.5069 6.37741 15.5238 6.39429C15.5407 6.41118 15.5502 6.43408 15.5502 6.45796Z" fill="#FFC72C" stroke="black" stroke-width="0.0831184"/>
<path d="M14.9727 7.15415L15.4575 6.43726L15.9528 7.15761" stroke="#FFC72C" stroke-width="0.175472"/>
<path d="M15.5572 6.88384C15.5572 6.90956 15.547 6.93422 15.5288 6.95241C15.5106 6.97059 15.486 6.98081 15.4603 6.98081C15.4345 6.98081 15.4099 6.97059 15.3917 6.95241C15.3735 6.93422 15.3633 6.90956 15.3633 6.88384C15.3633 6.85812 15.3735 6.83345 15.3917 6.81527C15.4099 6.79708 15.4345 6.78687 15.4603 6.78687C15.486 6.78687 15.5106 6.79708 15.5288 6.81527C15.547 6.83345 15.5572 6.85812 15.5572 6.88384Z" fill="#FFC72C" stroke="black" stroke-width="0.0831184"/>
<path d="M15.0624 7.68396H15.8208C15.8208 7.68396 15.8312 7.58698 15.7412 7.52811C16.1394 7.4727 16.0355 7.12637 16.3645 7.10559C16.4338 7.11598 16.1914 7.25451 16.1914 7.25451C16.1914 7.25451 15.994 7.39304 16.0875 7.46577C16.1567 7.52464 16.1914 7.43114 16.1983 7.36187C16.2087 7.29261 16.5204 7.24758 16.4754 7.05018C16.4026 6.8874 15.9663 7.161 15.9663 7.161L15.6546 7.15754C15.6338 7.12291 15.5507 6.98438 15.4606 6.98438C15.3567 6.98438 15.2805 7.15754 15.2805 7.15754H14.5775C14.5775 7.15754 14.5533 7.34109 14.91 7.37572C14.9896 7.47962 15.052 7.50733 15.1247 7.53503C15.0762 7.57313 15.0624 7.62162 15.0624 7.68396ZM15.1178 7.53157H15.7481H15.1178Z" fill="#FFC72C"/>
<path d="M15.1178 7.53157H15.7481M15.0624 7.68396H15.8208C15.8208 7.68396 15.8312 7.58698 15.7412 7.52811C16.1394 7.4727 16.0355 7.12637 16.3645 7.10559C16.4338 7.11598 16.1914 7.25451 16.1914 7.25451C16.1914 7.25451 15.994 7.39304 16.0875 7.46577C16.1567 7.52464 16.1914 7.43114 16.1983 7.36187C16.2087 7.29261 16.5204 7.24758 16.4754 7.05018C16.4026 6.8874 15.9663 7.161 15.9663 7.161L15.6546 7.15754C15.6338 7.12291 15.5507 6.98438 15.4606 6.98438C15.3567 6.98438 15.2805 7.15754 15.2805 7.15754H14.5775C14.5775 7.15754 14.5533 7.34109 14.91 7.37572C14.9896 7.47962 15.052 7.50733 15.1247 7.53503C15.0762 7.57313 15.0624 7.62162 15.0624 7.68396Z" stroke="black" stroke-width="0.0831184"/>
<path d="M14.8301 7.16089C14.8301 7.16089 14.8786 7.45527 15.1141 7.52453L14.8301 7.16089Z" fill="#FFC72C"/>
<path d="M14.8301 7.16089C14.8301 7.16089 14.8786 7.45527 15.1141 7.52453" stroke="black" stroke-width="0.0831184"/>
<path d="M14.7922 7.15412C14.813 7.04329 14.858 7.02251 14.903 6.87706C14.91 6.73852 14.7922 6.75584 14.8269 6.66926C14.8892 6.56882 14.858 6.47532 14.7403 6.40259C14.7645 6.53073 14.5879 6.65194 14.5879 6.75584C14.5879 6.85974 14.6779 6.83896 14.6675 6.99827C14.6745 7.08831 14.6433 7.06753 14.6329 7.15412H14.7922Z" fill="url(#paint9_linear_208_27519)" stroke="black" stroke-width="0.0831184"/>
<path d="M15.5502 6.45796C15.5502 6.48185 15.5407 6.50475 15.5238 6.52164C15.5069 6.53852 15.484 6.54801 15.4602 6.54801C15.4363 6.54801 15.4134 6.53852 15.3965 6.52164C15.3796 6.50475 15.3701 6.48185 15.3701 6.45796C15.3701 6.43408 15.3796 6.41118 15.3965 6.39429C15.4134 6.37741 15.4363 6.36792 15.4602 6.36792C15.484 6.36792 15.5069 6.37741 15.5238 6.39429C15.5407 6.41118 15.5502 6.43408 15.5502 6.45796Z" fill="#FFC72C" stroke="black" stroke-width="0.0831184"/>
<path d="M14.9727 7.15415L15.4575 6.43726L15.9528 7.15761" stroke="#FFC72C" stroke-width="0.175472"/>
<path d="M15.5572 6.88384C15.5572 6.90956 15.547 6.93422 15.5288 6.95241C15.5106 6.97059 15.486 6.98081 15.4603 6.98081C15.4345 6.98081 15.4099 6.97059 15.3917 6.95241C15.3735 6.93422 15.3633 6.90956 15.3633 6.88384C15.3633 6.85812 15.3735 6.83345 15.3917 6.81527C15.4099 6.79708 15.4345 6.78687 15.4603 6.78687C15.486 6.78687 15.5106 6.79708 15.5288 6.81527C15.547 6.83345 15.5572 6.85812 15.5572 6.88384Z" fill="#FFC72C" stroke="black" stroke-width="0.0831184"/>
<path d="M15.0624 7.68396H15.8208C15.8208 7.68396 15.8312 7.58698 15.7412 7.52811C16.1394 7.4727 16.0355 7.12637 16.3645 7.10559C16.4338 7.11598 16.1914 7.25451 16.1914 7.25451C16.1914 7.25451 15.994 7.39304 16.0875 7.46577C16.1567 7.52464 16.1914 7.43114 16.1983 7.36187C16.2087 7.29261 16.5204 7.24758 16.4754 7.05018C16.4026 6.8874 15.9663 7.161 15.9663 7.161L15.6546 7.15754C15.6338 7.12291 15.5507 6.98438 15.4606 6.98438C15.3567 6.98438 15.2805 7.15754 15.2805 7.15754H14.5775C14.5775 7.15754 14.5533 7.34109 14.91 7.37572C14.9896 7.47962 15.052 7.50733 15.1247 7.53503C15.0762 7.57313 15.0624 7.62162 15.0624 7.68396ZM15.1178 7.53157H15.7481H15.1178Z" fill="#FFC72C"/>
<path d="M15.1178 7.53157H15.7481M15.0624 7.68396H15.8208C15.8208 7.68396 15.8312 7.58698 15.7412 7.52811C16.1394 7.4727 16.0355 7.12637 16.3645 7.10559C16.4338 7.11598 16.1914 7.25451 16.1914 7.25451C16.1914 7.25451 15.994 7.39304 16.0875 7.46577C16.1567 7.52464 16.1914 7.43114 16.1983 7.36187C16.2087 7.29261 16.5204 7.24758 16.4754 7.05018C16.4026 6.8874 15.9663 7.161 15.9663 7.161L15.6546 7.15754C15.6338 7.12291 15.5507 6.98438 15.4606 6.98438C15.3567 6.98438 15.2805 7.15754 15.2805 7.15754H14.5775C14.5775 7.15754 14.5533 7.34109 14.91 7.37572C14.9896 7.47962 15.052 7.50733 15.1247 7.53503C15.0762 7.57313 15.0624 7.62162 15.0624 7.68396Z" stroke="black" stroke-width="0.0831184"/>
<path d="M14.8301 7.16089C14.8301 7.16089 14.8786 7.45527 15.1141 7.52453L14.8301 7.16089Z" fill="#FFC72C"/>
<path d="M14.8301 7.16089C14.8301 7.16089 14.8786 7.45527 15.1141 7.52453" stroke="black" stroke-width="0.0831184"/>
<path d="M14.7922 7.15412C14.813 7.04329 14.858 7.02251 14.903 6.87706C14.91 6.73852 14.7922 6.75584 14.8269 6.66926C14.8892 6.56882 14.858 6.47532 14.7403 6.40259C14.7645 6.53073 14.5879 6.65194 14.5879 6.75584C14.5879 6.85974 14.6779 6.83896 14.6675 6.99827C14.6745 7.08831 14.6433 7.06753 14.6329 7.15412H14.7922Z" fill="url(#paint10_linear_208_27519)" stroke="black" stroke-width="0.0831184"/>
<path d="M15.5502 6.45796C15.5502 6.48185 15.5407 6.50475 15.5238 6.52164C15.5069 6.53852 15.484 6.54801 15.4602 6.54801C15.4363 6.54801 15.4134 6.53852 15.3965 6.52164C15.3796 6.50475 15.3701 6.48185 15.3701 6.45796C15.3701 6.43408 15.3796 6.41118 15.3965 6.39429C15.4134 6.37741 15.4363 6.36792 15.4602 6.36792C15.484 6.36792 15.5069 6.37741 15.5238 6.39429C15.5407 6.41118 15.5502 6.43408 15.5502 6.45796Z" fill="#FFC72C" stroke="black" stroke-width="0.0831184"/>
<path d="M14.9727 7.15415L15.4575 6.43726L15.9528 7.15761" stroke="#FFC72C" stroke-width="0.175472"/>
<path d="M15.5572 6.88384C15.5572 6.90956 15.547 6.93422 15.5288 6.95241C15.5106 6.97059 15.486 6.98081 15.4603 6.98081C15.4345 6.98081 15.4099 6.97059 15.3917 6.95241C15.3735 6.93422 15.3633 6.90956 15.3633 6.88384C15.3633 6.85812 15.3735 6.83345 15.3917 6.81527C15.4099 6.79708 15.4345 6.78687 15.4603 6.78687C15.486 6.78687 15.5106 6.79708 15.5288 6.81527C15.547 6.83345 15.5572 6.85812 15.5572 6.88384Z" fill="#FFC72C" stroke="black" stroke-width="0.0831184"/>
<path d="M15.0624 7.68396H15.8208C15.8208 7.68396 15.8312 7.58698 15.7412 7.52811C16.1394 7.4727 16.0355 7.12637 16.3645 7.10559C16.4338 7.11598 16.1914 7.25451 16.1914 7.25451C16.1914 7.25451 15.994 7.39304 16.0875 7.46577C16.1567 7.52464 16.1914 7.43114 16.1983 7.36187C16.2087 7.29261 16.5204 7.24758 16.4754 7.05018C16.4026 6.8874 15.9663 7.161 15.9663 7.161L15.6546 7.15754C15.6338 7.12291 15.5507 6.98438 15.4606 6.98438C15.3567 6.98438 15.2805 7.15754 15.2805 7.15754H14.5775C14.5775 7.15754 14.5533 7.34109 14.91 7.37572C14.9896 7.47962 15.052 7.50733 15.1247 7.53503C15.0762 7.57313 15.0624 7.62162 15.0624 7.68396ZM15.1178 7.53157H15.7481H15.1178Z" fill="#FFC72C"/>
<path d="M15.1178 7.53157H15.7481M15.0624 7.68396H15.8208C15.8208 7.68396 15.8312 7.58698 15.7412 7.52811C16.1394 7.4727 16.0355 7.12637 16.3645 7.10559C16.4338 7.11598 16.1914 7.25451 16.1914 7.25451C16.1914 7.25451 15.994 7.39304 16.0875 7.46577C16.1567 7.52464 16.1914 7.43114 16.1983 7.36187C16.2087 7.29261 16.5204 7.24758 16.4754 7.05018C16.4026 6.8874 15.9663 7.161 15.9663 7.161L15.6546 7.15754C15.6338 7.12291 15.5507 6.98438 15.4606 6.98438C15.3567 6.98438 15.2805 7.15754 15.2805 7.15754H14.5775C14.5775 7.15754 14.5533 7.34109 14.91 7.37572C14.9896 7.47962 15.052 7.50733 15.1247 7.53503C15.0762 7.57313 15.0624 7.62162 15.0624 7.68396Z" stroke="black" stroke-width="0.0831184"/>
<path d="M14.8301 7.16089C14.8301 7.16089 14.8786 7.45527 15.1141 7.52453L14.8301 7.16089Z" fill="#FFC72C"/>
<path d="M14.8301 7.16089C14.8301 7.16089 14.8786 7.45527 15.1141 7.52453" stroke="black" stroke-width="0.0831184"/>
<path d="M14.7922 7.15412C14.813 7.04329 14.858 7.02251 14.903 6.87706C14.91 6.73852 14.7922 6.75584 14.8269 6.66926C14.8892 6.56882 14.858 6.47532 14.7403 6.40259C14.7645 6.53073 14.5879 6.65194 14.5879 6.75584C14.5879 6.85974 14.6779 6.83896 14.6675 6.99827C14.6745 7.08831 14.6433 7.06753 14.6329 7.15412H14.7922Z" fill="url(#paint11_linear_208_27519)" stroke="black" stroke-width="0.0831184"/>
<path d="M15.5502 6.45796C15.5502 6.48185 15.5407 6.50475 15.5238 6.52164C15.5069 6.53852 15.484 6.54801 15.4602 6.54801C15.4363 6.54801 15.4134 6.53852 15.3965 6.52164C15.3796 6.50475 15.3701 6.48185 15.3701 6.45796C15.3701 6.43408 15.3796 6.41118 15.3965 6.39429C15.4134 6.37741 15.4363 6.36792 15.4602 6.36792C15.484 6.36792 15.5069 6.37741 15.5238 6.39429C15.5407 6.41118 15.5502 6.43408 15.5502 6.45796Z" fill="#FFC72C" stroke="black" stroke-width="0.0831184"/>
<path d="M18.4704 14.9289C18.4704 14.9289 18.6678 15.386 18.8929 15.102C19.118 14.825 19.0383 14.7038 19.0383 14.7038L18.5327 14.4302L18.3838 14.7419L18.4704 14.9289Z" fill="#FFC72C" stroke="black" stroke-width="0.0831184"/>
<path d="M18.9064 14.87C18.9064 14.87 18.9411 14.8735 18.9653 14.825C18.993 14.7765 18.9064 14.7557 18.8649 14.7003L18.8233 14.7869L18.9064 14.87ZM17.7636 14.7454L17.3203 14.9878C17.3203 14.9878 17.0986 15.0328 17.0848 14.9878C17.0674 14.9462 17.0882 14.9081 17.206 14.9012C17.3203 14.8977 17.632 14.6103 17.632 14.6103L17.7636 14.7488V14.7454ZM17.7705 6.85257L17.7843 7.01188C17.7913 7.06729 17.6978 7.18504 17.6943 7.17812C17.6874 7.17119 17.6423 7.18504 17.6493 7.21621C17.6527 7.25085 17.7185 7.26124 17.7185 7.26124C17.7185 7.26124 17.6943 7.37552 17.7185 7.38245C17.7462 7.38591 17.6493 7.52791 17.7185 7.566C17.7913 7.6041 17.9125 7.65605 17.9679 7.64566C18.0233 7.63181 17.9679 7.85692 17.9679 7.85692L17.812 8.18593L18.6571 8.09935L18.4839 7.82229C18.4839 7.82229 18.4008 7.76341 18.4216 7.6041C18.4458 7.44825 18.4112 6.72789 18.4112 6.72789L17.8086 6.64478L17.7705 6.85257ZM17.6146 8.10627C17.6146 8.10627 17.341 8.23095 17.3514 8.57035C17.2822 8.89936 17.2441 9.22837 17.2441 9.22837C17.2441 9.22837 16.9185 9.59548 16.8216 9.73055C16.7211 9.86215 16.5722 10.1288 16.5203 10.2015C16.4648 10.2708 16.2501 10.5063 16.2536 10.5964C16.2605 10.6829 16.2051 11.0743 16.4198 11.1159C16.4752 11.1401 16.6519 10.6656 16.6519 10.6656C16.6519 10.6656 16.6622 10.4648 16.5999 10.4232C16.541 10.3886 16.7315 10.257 16.7315 10.257L17.1817 9.92103C17.2649 9.85176 17.49 9.6024 17.49 9.6024L17.6146 8.10627Z" fill="#FFC6B5" stroke="black" stroke-width="0.0831184"/>
<path d="M17.9296 7.84665C17.9296 7.84665 17.9989 8.04059 18.1582 8.00596C18.3175 7.97132 18.5045 7.82587 18.5045 7.82587C18.5045 7.82587 18.6534 7.81894 18.6742 7.84318C18.695 7.86396 19.076 8.23107 19.0621 8.34536C19.0517 8.46311 18.8889 8.42848 18.8266 8.50467C18.7677 8.58086 18.6673 8.7748 18.695 8.92026C18.7227 9.05879 18.8058 9.24581 18.7954 9.31853C18.7851 9.3878 18.7262 9.41204 18.7262 9.45014C18.7262 9.48477 18.7747 9.55404 18.7747 9.6233C18.7747 9.69603 18.7054 9.79993 18.7192 9.87266C18.7296 9.94192 18.7331 10.1497 18.7331 10.1497L18.7192 11.1194C18.7192 11.1194 18.7747 11.1506 18.7781 11.206C18.7851 11.258 19.1522 12.8545 19.1522 12.8545C19.1522 12.8545 19.1348 12.9065 19.0967 12.8996C19.0586 12.8926 19.2457 13.1454 19.2491 13.2182C19.2561 13.2874 19.4431 13.8485 19.4361 13.9247C19.4327 14.0009 19.4015 14.174 19.3877 14.1775C19.3703 14.1844 19.5089 14.5307 19.4846 14.5827C19.4639 14.6381 19.2422 14.6346 19.2422 14.6346L19.1799 14.6208C19.1799 14.6208 19.1833 14.6935 19.1418 14.7004C19.0967 14.7039 18.7747 14.6831 18.7747 14.6831C18.7747 14.6831 18.6812 14.8251 18.6257 14.8217C18.5703 14.8147 18.4976 14.7178 18.4837 14.7316C18.4664 14.7489 18.5322 14.8424 18.5184 14.8701C18.4976 14.8979 18.2205 14.9567 18.1651 14.8251C18.1097 14.6935 18.1998 14.7282 18.179 14.7004C18.1651 14.6727 18.0404 14.6 17.9989 14.6208C17.9643 14.645 18.0993 14.6762 18.0924 14.7316C18.0889 14.787 17.9712 14.8701 17.9296 14.8701C17.8846 14.8701 17.7807 14.6658 17.6249 14.6866C17.4725 14.7108 17.3755 14.7489 17.3755 14.7489C17.3755 14.7489 17.1919 14.8251 17.1158 14.8078C17.0396 14.794 17.0049 14.7316 17.0049 14.7004C17.0049 14.6658 17.0603 14.5238 17.0569 14.4788C17.05 14.4372 17.0049 14.3922 17.0049 14.3264C17.0049 14.2572 17.1331 14.0355 17.1331 14.0355L17.1261 13.0242C17.1261 13.0242 17.0119 13.0242 17.0049 12.955C17.0015 12.8857 17.1816 11.3584 17.2127 11.258L17.3097 10.8077C17.3097 10.8077 17.2266 10.8493 17.2197 10.8077C17.2162 10.7731 17.469 9.90036 17.469 9.90036C17.469 9.90036 17.5106 9.46399 17.5106 9.3497C17.5106 9.23542 17.4898 9.07611 17.4898 9.07611C17.4898 9.07611 17.2647 8.97913 17.2578 8.83368C17.237 8.60164 17.4725 8.4735 17.5002 8.39731L17.611 8.08561C17.611 8.08561 17.7322 7.87782 17.9296 7.84665Z" fill="white" stroke="black" stroke-width="0.0831184"/>
<path d="M17.8468 14.8146C17.8468 14.8146 17.3134 15.0917 17.2372 15.1159C17.161 15.1367 17.1125 15.0224 17.1887 15.0016C17.2649 14.9774 17.3861 14.967 17.3861 14.967C17.3861 14.967 17.2061 14.825 17.213 14.8181L17.4623 14.728C17.4693 14.728 17.5385 14.8666 17.587 14.8596C17.6558 14.8262 17.7208 14.7856 17.781 14.7384L17.8468 14.8146Z" fill="#FFC72C" stroke="black" stroke-width="0.0831184"/>
<path d="M18.5947 14.9671C18.6467 15.0329 18.664 15.1437 18.7817 15.0779C18.896 15.0121 18.7229 14.8909 18.7229 14.8909L18.5947 14.9671Z" fill="#FFC6B5" stroke="black" stroke-width="0.0831184"/>
<path d="M18.8059 14.9567C18.8059 14.9567 18.8613 15.0017 18.9098 14.9498C18.9582 14.9013 18.8128 14.7974 18.8128 14.7974L18.7401 14.8805L18.8059 14.9567ZM19.0414 8.37305C19.0483 8.37305 19.2215 8.91332 19.2457 9.05185C19.2665 9.19038 19.3392 9.73757 19.3115 9.81377C19.2838 9.88996 19.0033 10.2571 18.9721 10.3506C18.9375 10.4441 18.7401 10.8008 18.7401 10.8008C18.7401 10.8008 18.6916 11.154 18.6708 11.1679C18.6465 11.1852 18.7262 11.2718 18.7193 11.2995C18.7089 11.3341 18.56 11.4865 18.4942 11.4727C18.4249 11.4554 18.321 11.3792 18.321 11.3064C18.3106 11.2372 18.321 10.9982 18.373 10.9393C18.4214 10.877 18.6812 10.2709 18.695 10.2328C18.7124 10.1913 18.9305 9.71333 18.9375 9.63368C18.9444 9.55056 18.8682 9.36008 18.792 9.29081C18.6188 8.78171 18.6881 8.47694 19.0414 8.37305Z" fill="#FFC6B5" stroke="black" stroke-width="0.0831184"/>
<path d="M17.75 6.82146C17.75 6.82146 17.8747 6.83878 17.9405 6.80068C18.0063 6.76258 18.0825 6.74527 18.1379 6.82146C18.1933 6.89765 18.2314 6.89072 18.2314 6.89072C18.2314 6.89072 18.1483 7.09852 18.2314 7.1193C18.311 7.14008 18.3526 7.14008 18.3561 7.16779C18.363 7.19549 18.2868 7.25437 18.3076 7.28207C18.3284 7.30978 18.3664 7.34095 18.3734 7.36519C18.3768 7.38597 18.3249 7.47948 18.3387 7.50372C18.3561 7.5245 18.408 7.61108 18.4392 7.61108C18.4738 7.61108 18.4496 7.74961 18.55 7.71498C18.647 7.68035 18.6435 7.59377 18.6435 7.59377C18.6435 7.59377 18.7474 7.57991 18.7751 7.48641C18.7994 7.3929 18.8652 7.36866 18.8652 7.36866C18.8652 7.36866 18.9968 7.29939 18.8236 7.18857C18.8236 6.41972 18.318 6.50284 18.318 6.50284C18.318 6.50284 18.2591 6.36431 18.1587 6.38162C18.0617 6.39894 18.0548 6.51323 17.9855 6.50284C17.9128 6.49245 17.8954 6.44396 17.892 6.44743C17.8851 6.45435 17.8227 6.56518 17.8227 6.58942C17.8227 6.61713 17.6322 6.55479 17.6496 6.69332C17.6669 6.83878 17.7604 6.83185 17.7534 6.82146H17.75Z" fill="#9C5100" stroke="black" stroke-width="0.0831184"/>
<path d="M18.6435 8.0614C18.6435 8.0614 18.1552 8.37309 18.1656 8.48392M18.7543 8.11681C18.7543 8.11681 18.6435 8.23802 18.6366 8.23802M18.8998 8.24841C18.8998 8.24841 18.6574 8.44582 18.6955 8.5705M17.7604 8.03369C17.7604 8.03369 17.6876 8.18261 17.705 8.2311C17.7188 8.27958 17.8435 8.4666 17.8573 8.58089C17.8747 8.69864 17.8573 8.77829 17.8573 8.77829M17.6322 8.30729C17.6322 8.30729 17.653 8.48045 17.6876 8.51509C17.7223 8.54972 17.8089 8.69864 17.8193 8.75751M17.5872 9.03804C17.5872 9.03804 17.7327 9.1073 17.8643 8.83371M18.0755 8.64323C18.0721 8.64323 17.9716 8.9099 18.1483 9.01033C18.3214 9.11077 18.4565 9.09691 18.5292 9.06921C18.6089 9.04497 18.692 8.99302 18.692 8.99302M17.9993 8.97224C17.9993 8.97224 18.0097 9.33242 18.5431 9.68913M18.0236 9.31164C18.0236 9.31164 18.0167 9.63026 18.2245 9.77225M17.9128 8.9376C17.9128 8.9376 17.7535 9.41207 17.6253 9.45709M17.8643 9.28393C17.8643 9.28393 17.8573 9.62333 17.8123 9.74454M17.7708 9.82766C17.7708 9.82766 17.8781 9.96619 17.9993 9.95234C18.1206 9.94195 18.1725 9.79996 18.2522 9.82074C18.3353 9.84498 18.4115 9.91078 18.602 9.89346M18.3284 10.0355C18.3284 10.0355 18.3284 10.316 18.3803 10.3437C18.4288 10.3714 18.4045 10.6277 18.4045 10.6277M17.6599 9.90386C17.6599 9.90386 17.653 10.1671 17.6218 10.2606C17.5872 10.3541 17.5214 10.5134 17.5353 10.6519M17.324 10.8043C17.3517 10.7939 17.4452 10.7108 17.4452 10.7108M17.4937 10.7697C17.4937 10.7697 17.2582 11.7809 17.324 12.3836M17.5491 10.8216C17.5491 10.8216 17.4279 11.5766 17.4833 11.7221M17.4902 10.7974L17.9509 10.832M18.0167 10.7697C18.0167 10.7697 18.1413 10.8389 18.318 10.8251M17.9612 11.1402C17.9612 11.1402 17.9405 12.432 17.9058 12.7195M18.6366 11.4346C18.6366 11.4346 18.7786 12.5706 18.8617 12.6745M18.363 11.5766C18.363 11.5766 18.4496 12.581 18.5015 12.671M17.1162 13.0208C17.1162 13.0208 17.2894 12.9654 17.4418 12.8026C17.6149 13.0381 17.8851 12.813 17.8851 12.813C17.8851 12.813 18.3006 13.097 18.4877 12.7784C18.7751 12.9654 18.9171 12.7507 18.9171 12.7507C18.9171 12.7507 19.021 12.91 19.0972 12.8927M18.6435 13.0035C18.6435 13.0035 18.8548 14.0078 19.1734 14.2918" stroke="black" stroke-width="0.0831184"/>
<path d="M17.5422 12.8996C17.5422 12.8996 17.5664 13.7377 17.6149 14.3299M17.5006 13.8485C17.5006 13.8485 17.4729 14.3957 17.4417 14.4373M17.1785 14.4892C17.1785 14.4892 17.2374 14.7282 17.5387 14.5065C17.84 14.2883 17.8469 14.5896 17.8573 14.6208C17.8677 14.6554 17.9162 14.8909 18.0305 14.6935M18.2729 14.3715C18.2729 14.3715 18.2244 14.8563 18.6573 14.5031C19.0902 14.1463 19.163 14.4961 19.1768 14.607M18.2798 6.63452C18.2798 6.63452 18.2417 6.87695 18.498 6.85271C18.4634 6.98777 18.5673 7.02933 18.5673 7.02933M18.7543 7.17825C18.7612 7.17825 18.872 7.24752 18.7543 7.33756M18.3837 7.36873C18.3837 7.36873 18.4391 7.438 18.498 7.42068C18.5603 7.40337 18.6573 7.47956 18.6573 7.47956C18.6573 7.47956 18.7404 7.50726 18.7508 7.48995M18.0478 7.57653C18.0478 7.57653 18.2348 7.64926 18.3595 7.35488M17.7049 7.26484L17.8123 7.27176M16.4859 10.7281L16.4962 10.9671M16.2607 10.7073C16.2607 10.7073 16.4166 10.9671 16.3993 11.1021" stroke="black" stroke-width="0.0831184"/>
<path d="M17.7188 7.37573H17.8192L17.7326 7.41383M18.3283 11.2477C18.3283 11.2477 18.4426 11.2338 18.4391 11.4278C18.5118 11.1853 18.6608 11.1819 18.6608 11.1819" stroke="black" stroke-width="0.0831184" stroke-linejoin="round"/>
<path d="M17.8574 7.06748C17.8747 7.06748 17.9336 7.0467 17.944 7.06402C17.9579 7.07787 17.8782 7.09173 17.8574 7.06748Z" stroke="black" stroke-width="0.157001" stroke-linejoin="round"/>
<path d="M17.9331 16.7404C19.3788 16.6719 20.7406 16.0419 21.7288 14.9845C21.715 14.9706 22.0371 14.5204 22.2933 14.5827C22.5496 14.6485 22.9202 15.4035 23.3704 15.5663C23.5955 15.9196 23.3081 16.2416 23.2111 16.304C23.1141 16.3698 22.6778 16.5464 22.6154 16.2901C22.5496 16.0304 22.4215 16.0823 22.4215 16.0823C22.4215 16.0823 20.3608 18.091 17.9816 18.0114C15.5227 18.0252 13.4932 16.0789 13.4932 16.0789L13.3166 16.2728C13.3166 16.2728 13.1226 16.4806 13.0256 16.4668C12.9287 16.4494 12.5096 16.1758 12.4784 15.9022C12.4438 15.6286 12.7347 15.452 12.7347 15.452C12.7347 15.452 13.4447 14.9048 13.5244 14.6174C13.6871 14.4546 13.9919 14.7282 13.9919 14.7282C13.9919 14.7282 15.8586 16.8685 17.9331 16.7369V16.7404Z" fill="#FFC72C" stroke="black" stroke-width="0.175472"/>
<path d="M12.6895 15.4936C12.6895 15.4936 12.8799 15.4451 12.9492 15.5248C13.0185 15.6044 13.5033 16.0789 13.5033 16.0789" stroke="black" stroke-width="0.175472"/>
<path d="M13.1266 15.7187L12.9326 15.8607C12.9326 15.8607 13.4175 15.9576 13.3066 16.2762M23.1977 15.4797C23.1977 15.4797 23.1042 15.4277 22.9553 15.5386C22.8029 15.6529 22.4254 16.0754 22.4254 16.0754" stroke="black" stroke-width="0.175472"/>
<path d="M22.7679 15.7048L22.9757 15.8641C22.9757 15.8641 22.5428 15.8953 22.6363 16.304" stroke="black" stroke-width="0.175472"/>
<path d="M15.1419 16.006C15.128 16.0407 15.0934 16.006 15.0657 16.0129C14.9964 16.0129 14.9341 16.0614 14.8717 16.0961L14.2345 16.4666C14.2137 16.4597 14.2172 16.4424 14.2241 16.4251L14.3973 15.6285C14.4042 15.5835 14.4181 15.5246 14.373 15.49C14.3557 15.4761 14.3834 15.4519 14.3973 15.4761L14.7228 15.7082C14.7124 15.7393 14.6917 15.7151 14.6743 15.7047C14.6293 15.6597 14.5739 15.7013 14.5774 15.7567L14.4596 16.2796C14.6051 16.1965 14.7505 16.1134 14.896 16.0233C14.9445 16.0026 14.9826 15.9333 14.9306 15.8917C14.9098 15.8779 14.8752 15.8467 14.9098 15.8398L15.1419 16.006ZM15.3705 17.1143C15.3635 17.135 15.3531 17.1385 15.3358 17.1247L14.9549 16.9169C14.9583 16.8926 14.9687 16.8892 14.986 16.903C15.0207 16.9273 15.0761 16.9376 15.1038 16.8961L15.2423 16.6433L15.4363 16.29C15.464 16.245 15.4328 16.193 15.3912 16.1757C15.3774 16.1688 15.3566 16.1619 15.3739 16.148C15.3808 16.1376 15.4016 16.1584 15.412 16.1619L15.7791 16.3627C15.7757 16.3835 15.7653 16.387 15.7479 16.3731C15.7133 16.3489 15.6579 16.3385 15.6302 16.3801L15.4917 16.6329L15.2977 16.9861C15.27 17.0277 15.3012 17.0831 15.3427 17.1004L15.3705 17.1143ZM16.8458 16.7679L16.7419 17.0589C16.6969 17.0554 16.7281 17 16.7142 16.9723C16.7073 16.9059 16.6805 16.8433 16.6372 16.7926C16.5939 16.7418 16.5362 16.7055 16.4718 16.6883C16.3679 16.6606 16.264 16.7125 16.2016 16.7956C16.1112 16.9189 16.0583 17.0656 16.0493 17.2182C16.0461 17.2617 16.0547 17.3052 16.0742 17.3442C16.0937 17.3832 16.1234 17.4163 16.1601 17.4398C16.2211 17.4779 16.2926 17.4961 16.3644 17.4918L16.4371 17.2736C16.4475 17.2251 16.3956 17.1939 16.3575 17.1835C16.3506 17.1697 16.3644 17.1489 16.3817 17.1662L16.7627 17.3047C16.7627 17.3498 16.7073 17.2978 16.6761 17.3186C16.6311 17.3359 16.6276 17.3913 16.6068 17.4329L16.5618 17.5645C16.3887 17.5749 16.2155 17.5402 16.0631 17.4537C15.9211 17.3636 15.8207 17.187 15.8518 17.0138C15.8726 16.8649 15.9661 16.7264 16.1012 16.6606C16.2259 16.5913 16.3783 16.5948 16.5099 16.6467C16.5791 16.671 16.6415 16.716 16.6969 16.7645C16.7315 16.8095 16.7939 16.8095 16.8216 16.761L16.8458 16.7679ZM17.4657 17.7654C17.4657 17.7792 17.4657 17.7965 17.445 17.7861L17.0086 17.7203C17.0086 17.703 17.0086 17.6892 17.0294 17.6996C17.064 17.7065 17.1194 17.7065 17.1333 17.6649C17.154 17.6061 17.1575 17.5437 17.1679 17.4848L17.2441 16.9792C17.2545 16.9446 17.2441 16.903 17.206 16.8892C17.1817 16.8788 17.161 16.8788 17.1367 16.8718C17.1367 16.858 17.1367 16.8441 17.1575 16.8511L17.5939 16.9203C17.5939 16.9342 17.5939 16.948 17.5731 16.9411C17.5385 16.9307 17.4865 16.9342 17.4692 16.9757C17.4484 17.0311 17.445 17.0935 17.4346 17.1524L17.3584 17.658C17.348 17.6926 17.3584 17.7377 17.3999 17.7515L17.4692 17.7654H17.4657ZM18.6502 17.4814L18.6328 17.7896L17.8502 17.8277C17.8467 17.8104 17.8502 17.8 17.8709 17.8035C17.909 17.8035 17.961 17.7861 17.9679 17.7411L17.9575 17.5125L17.9333 17.0485C17.9367 17.0034 17.8986 16.9688 17.8536 16.9723C17.8398 16.9653 17.8017 16.9861 17.8051 16.9619C17.7982 16.9411 17.8294 16.9515 17.8398 16.948L18.2761 16.9238C18.2761 16.9446 18.2761 16.955 18.2519 16.9515C18.2138 16.9515 18.1618 16.9584 18.148 17.0069C18.1445 17.0727 18.1515 17.1385 18.1549 17.2043L18.1792 17.6892C18.1792 17.7273 18.2138 17.7654 18.2554 17.7584C18.3177 17.755 18.3835 17.7584 18.4458 17.7411C18.5324 17.7169 18.5774 17.6303 18.6017 17.5506C18.619 17.5299 18.6017 17.4744 18.6363 17.4814H18.6502ZM19.2562 16.7264C19.2355 16.7264 19.2458 16.7541 19.2389 16.7679C19.2043 17.0277 19.1731 17.2874 19.135 17.5437C19.1281 17.6026 19.1142 17.6684 19.0588 17.6961C19.0381 17.7065 19.0554 17.7377 19.0761 17.7203L19.3359 17.6407C19.3324 17.5991 19.2805 17.6407 19.2528 17.6303C19.1939 17.6303 19.1835 17.5576 19.1939 17.5125C19.1939 17.4779 19.2008 17.4502 19.2043 17.419L19.5021 17.329C19.5402 17.3775 19.5818 17.4225 19.6164 17.4744C19.6441 17.5229 19.5818 17.5437 19.5472 17.5541C19.5264 17.5541 19.5402 17.5887 19.5575 17.5749L19.9489 17.4571C19.9489 17.4121 19.8935 17.4571 19.8692 17.4225C19.793 17.3705 19.7411 17.2944 19.6822 17.2251L19.2562 16.7264ZM19.2562 17.0381L19.464 17.2909L19.2112 17.3671L19.2562 17.0381ZM20.5931 16.1446L20.7073 16.3523C20.6727 16.387 20.6519 16.3143 20.6208 16.3039C20.5949 16.2812 20.5626 16.2674 20.5283 16.2643C20.4941 16.2612 20.4598 16.269 20.4303 16.2865L20.361 16.3246L20.7004 16.9584C20.7177 17.0104 20.7835 17.0208 20.8286 16.9931C20.8424 16.9792 20.8597 16.9723 20.8632 16.9965C20.8078 17.0311 20.742 17.0623 20.6831 17.0935L20.458 17.2147C20.4407 17.1974 20.4511 17.187 20.4718 17.1801C20.4841 17.1756 20.4951 17.1684 20.504 17.1589C20.5129 17.1495 20.5195 17.1381 20.5232 17.1256C20.5269 17.1131 20.5276 17.1 20.5253 17.0872C20.523 17.0744 20.5178 17.0623 20.5099 17.0519L20.174 16.4285C20.1117 16.4632 20.0355 16.4909 20.0182 16.5671C20.0008 16.619 20.0251 16.6779 20.0251 16.7195C20.0078 16.7402 20.0008 16.7125 19.9904 16.6987L19.8969 16.5186L20.5931 16.1446ZM21.1229 15.8294L21.3377 16.1168C21.3861 16.0822 21.4277 16.0268 21.4139 15.9645C21.4208 15.916 21.3515 15.8606 21.3758 15.8259C21.3896 15.819 21.4 15.8536 21.4104 15.864L21.6597 16.193C21.6251 16.2277 21.6043 16.1549 21.5697 16.1446C21.5212 16.1099 21.4554 16.0926 21.4035 16.1307C21.3654 16.1446 21.3688 16.1653 21.3931 16.1896C21.4485 16.2623 21.5039 16.342 21.5662 16.4147C21.6009 16.4493 21.6494 16.4147 21.6805 16.387C21.7636 16.3316 21.8364 16.2415 21.8329 16.1376C21.8398 16.0891 21.8087 16.0407 21.8087 15.9991C21.8294 15.9749 21.8329 16.0129 21.8433 16.0268L21.961 16.2346L21.3515 16.6952C21.3273 16.6779 21.3515 16.664 21.3688 16.6537C21.4242 16.619 21.4069 16.5463 21.3688 16.5082L20.974 15.9922C20.9394 15.9471 20.877 15.9714 20.8459 16.0026C20.8286 16.0233 20.8112 15.9852 20.8355 15.9818L21.4069 15.5489L21.5628 15.7567C21.5281 15.7913 21.4935 15.7116 21.4554 15.7082C21.3792 15.6666 21.2892 15.6978 21.2268 15.7497L21.1195 15.8294" fill="black"/>
<path d="M0 0H12V12H0V0Z" fill="#012169"/>
<path d="M12 0V1.5L7.54688 6L12 10.3828V12H10.4297L5.95312 7.59375L1.59375 12H0V10.4062L4.35938 6.02344L0 1.73438V0H1.45312L5.95312 4.40625L10.3125 0H12Z" fill="white"/>
<path d="M4.3125 7.59375L4.57031 8.39062L0.984375 12H0V11.9297L4.3125 7.59375ZM7.21875 7.3125L8.48438 7.5L12 10.9453V12L7.21875 7.3125ZM12 0L7.5 4.59375L7.40625 3.5625L10.9219 0H12ZM0 0.0234375L4.52344 4.45312L3.14062 4.26562L0 1.14844V0.0234375Z" fill="#C8102E"/>
<path d="M4.125 0V12H7.875V0H4.125ZM0 4.125V7.875H12V4.125H0Z" fill="white"/>
<path d="M0 4.875V7.125H12V4.875H0ZM4.875 0V12H7.125V0H4.875Z" fill="#C8102E"/>
</g>
<defs>
<linearGradient id="paint0_linear_208_27519" x1="14.6849" y1="6.94316" x2="14.291" y2="6.88509" gradientUnits="userSpaceOnUse">
<stop stop-color="#FF0000"/>
<stop offset="1" stop-color="#FFFF00"/>
</linearGradient>
<linearGradient id="paint1_linear_208_27519" x1="14.6849" y1="6.94316" x2="14.291" y2="6.88509" gradientUnits="userSpaceOnUse">
<stop stop-color="#FF0000"/>
<stop offset="1" stop-color="#FFFF00"/>
</linearGradient>
<linearGradient id="paint2_linear_208_27519" x1="14.6849" y1="6.94316" x2="14.291" y2="6.88509" gradientUnits="userSpaceOnUse">
<stop stop-color="#FF0000"/>
<stop offset="1" stop-color="#FFFF00"/>
</linearGradient>
<linearGradient id="paint3_linear_208_27519" x1="14.6849" y1="6.94316" x2="14.291" y2="6.88509" gradientUnits="userSpaceOnUse">
<stop stop-color="#FF0000"/>
<stop offset="1" stop-color="#FFFF00"/>
</linearGradient>
<linearGradient id="paint4_linear_208_27519" x1="14.6849" y1="6.94316" x2="14.291" y2="6.88509" gradientUnits="userSpaceOnUse">
<stop stop-color="#FF0000"/>
<stop offset="1" stop-color="#FFFF00"/>
</linearGradient>
<linearGradient id="paint5_linear_208_27519" x1="14.6849" y1="6.94316" x2="14.291" y2="6.88509" gradientUnits="userSpaceOnUse">
<stop stop-color="#FF0000"/>
<stop offset="1" stop-color="#FFFF00"/>
</linearGradient>
<linearGradient id="paint6_linear_208_27519" x1="14.6849" y1="6.94316" x2="14.291" y2="6.88509" gradientUnits="userSpaceOnUse">
<stop stop-color="#FF0000"/>
<stop offset="1" stop-color="#FFFF00"/>
</linearGradient>
<linearGradient id="paint7_linear_208_27519" x1="14.6849" y1="6.94316" x2="14.291" y2="6.88509" gradientUnits="userSpaceOnUse">
<stop stop-color="#FF0000"/>
<stop offset="1" stop-color="#FFFF00"/>
</linearGradient>
<linearGradient id="paint8_linear_208_27519" x1="14.6849" y1="6.94316" x2="14.291" y2="6.88509" gradientUnits="userSpaceOnUse">
<stop stop-color="#FF0000"/>
<stop offset="1" stop-color="#FFFF00"/>
</linearGradient>
<linearGradient id="paint9_linear_208_27519" x1="14.6849" y1="6.94316" x2="14.291" y2="6.88509" gradientUnits="userSpaceOnUse">
<stop stop-color="#FF0000"/>
<stop offset="1" stop-color="#FFFF00"/>
</linearGradient>
<linearGradient id="paint10_linear_208_27519" x1="14.6849" y1="6.94316" x2="14.291" y2="6.88509" gradientUnits="userSpaceOnUse">
<stop stop-color="#FF0000"/>
<stop offset="1" stop-color="#FFFF00"/>
</linearGradient>
<linearGradient id="paint11_linear_208_27519" x1="14.6849" y1="6.94316" x2="14.291" y2="6.88509" gradientUnits="userSpaceOnUse">
<stop stop-color="#FF0000"/>
<stop offset="1" stop-color="#FFFF00"/>
</linearGradient>
<clipPath id="clip0_208_27519">
<rect width="24" height="24" rx="12" fill="white"/>
</clipPath>
</defs>
</svg>
