<svg width="24" height="24" viewBox="0 0 24 24" fill="none" xmlns="http://www.w3.org/2000/svg">
<g clip-path="url(#clip0_208_22194)">
<mask id="mask0_208_22194" style="mask-type:luminance" maskUnits="userSpaceOnUse" x="0" y="0" width="24" height="24">
<path d="M0 0H24V24H0V0Z" fill="white"/>
</mask>
<g mask="url(#mask0_208_22194)">
<path fill-rule="evenodd" clip-rule="evenodd" d="M29.0344 24H-5.25V0H29.0344V24Z" fill="white"/>
<path fill-rule="evenodd" clip-rule="evenodd" d="M29.0344 5.4H-5.25V2.25H29.0344V5.4ZM29.0344 21.8297H-5.25V18.6797H29.0344V21.8297ZM6.39375 8.93906L11.5547 17.9203L16.8281 8.98125L6.39375 8.94375V8.93906Z" fill="#0000CC"/>
<path fill-rule="evenodd" clip-rule="evenodd" d="M10.5848 14.8969L11.5645 16.5609L12.5676 14.9062L10.5801 14.8969H10.5848Z" fill="white"/>
<path fill-rule="evenodd" clip-rule="evenodd" d="M6.375 15.0281L11.5406 6.04688L16.8094 14.9906L6.375 15.0281Z" fill="#0000CC"/>
<path fill-rule="evenodd" clip-rule="evenodd" d="M10.584 8.9812L11.5637 7.31714L12.5668 8.97651L10.5793 8.9812H10.584ZM8.53086 12.7078L7.51367 14.3953L9.43555 14.3906L8.53086 12.7031V12.7078ZM7.53242 9.59058L9.46367 9.60464L8.53555 11.3062L7.53242 9.59058ZM14.6199 12.7312L15.5996 14.3953L13.6449 14.3718L14.6199 12.7312ZM15.5809 9.59058L13.6496 9.60464L14.5777 11.3062L15.5809 9.59058ZM10.223 9.59058L8.8918 12L10.2418 14.3578L12.7168 14.414L14.2168 12L12.8293 9.56245L10.223 9.58589V9.59058Z" fill="white"/>
</g>
</g>
<defs>
<clipPath id="clip0_208_22194">
<rect width="24" height="24" rx="12" fill="white"/>
</clipPath>
</defs>
</svg>
