<svg width="24" height="24" viewBox="0 0 24 24" fill="none" xmlns="http://www.w3.org/2000/svg">
<g clip-path="url(#clip0_208_27058)">
<path fill-rule="evenodd" clip-rule="evenodd" d="M0 0H45.6005V1.84617H0V0ZM0 3.69234H45.6005V5.53852H0V3.69234ZM0 7.38469H45.6005V9.23086H0V7.38469ZM0 11.077H45.6005V12.9232H0V11.077ZM0 14.7694H45.6005V16.6155H0V14.7694ZM0 18.4617H45.6005V20.3079H0V18.4617ZM0 22.1541H45.6005V24.0002H0V22.1541Z" fill="#BD3D44"/>
<path fill-rule="evenodd" clip-rule="evenodd" d="M0 1.84619H45.6005V3.69236H0V1.84619ZM0 5.53854H45.6005V7.38471H0V5.53854ZM0 9.23088H45.6005V11.0771H0V9.23088ZM0 12.9232H45.6005V14.7694H0V12.9232ZM0 16.6156H45.6005V18.4617H0V16.6156ZM0 20.3079H45.6005V22.1541H0V20.3079Z" fill="white"/>
<path fill-rule="evenodd" clip-rule="evenodd" d="M0 0H18.2402V12.9232H0V0Z" fill="#192F5D"/>
<path fill-rule="evenodd" clip-rule="evenodd" d="M1.51416 0.553955L1.69876 1.07085H2.2157L1.79105 1.38472L1.95723 1.88319L1.51416 1.56931L1.10799 1.88319L1.27416 1.38472L0.831055 1.07085H1.38498L1.51416 0.553955ZM4.56034 0.553955L4.72651 1.07085H5.26187L4.8188 1.38472L5.0034 1.88319L4.56034 1.56931L4.11727 1.88319L4.30187 1.38472L3.8588 1.07085H4.39416L4.56034 0.553955ZM7.60651 0.553955L7.77268 1.07085H8.30804L7.86498 1.38472L8.04962 1.88319L7.60651 1.56931L7.16345 1.88319L7.34804 1.38472L6.90498 1.07085H7.44038L7.60651 0.553955ZM10.6343 0.553955L10.8189 1.07085H11.3358L10.9111 1.38472L11.0773 1.88319L10.6343 1.56931L10.2096 1.88319L10.3758 1.38472L9.93268 1.07085H10.4866L10.6343 0.553955ZM13.6804 0.553955L13.8466 1.07085H14.382L13.9389 1.38472L14.1235 1.88319L13.662 1.56931L13.2373 1.88319L13.4035 1.38472L12.9604 1.07085H13.4958L13.6804 0.553955ZM16.7266 0.553955L16.8928 1.07085H17.4281L16.9851 1.38472L17.1697 1.88319L16.7266 1.56931L16.2835 1.88319L16.4681 1.38472L16.0251 1.07085H16.5604L16.7266 0.553955ZM3.04646 1.84625L3.21263 2.36319H3.74804L3.30493 2.67702L3.48957 3.17549L3.04646 2.86166L2.6034 3.17549L2.78799 2.67702L2.34493 2.36319H2.88034L3.04646 1.84625ZM6.07421 1.84625L6.2588 2.36319H6.77574L6.3511 2.67702L6.51727 3.17549L6.07421 2.86166L5.64957 3.17549L5.81574 2.67702L5.37263 2.36319H5.92651L6.07421 1.84625ZM9.12038 1.84625L9.28655 2.36319H9.82191L9.37885 2.67702L9.56345 3.17549L9.12038 2.86166L8.67727 3.17549L8.86191 2.67702L8.41885 2.36319H8.95421L9.12038 1.84625ZM12.1666 1.84625L12.3327 2.36319H12.8681L12.425 2.67702L12.6097 3.17549L12.1666 2.86166L11.7235 3.17549L11.9081 2.67702L11.465 2.36319H12.0004L12.1666 1.84625ZM15.1943 1.84625L15.3789 2.36319H15.8774L15.4527 2.67702L15.6189 3.17549L15.1758 2.86166L14.7512 3.17549L14.9174 2.67702L14.4743 2.36319H15.0281L15.1943 1.84625ZM1.53259 3.1386L1.68029 3.65549H2.23416L1.79105 3.96936L1.95723 4.46783L1.51416 4.15395L1.10799 4.46783L1.27416 3.96936L0.831055 3.65549H1.38498L1.53259 3.1386ZM4.56034 3.1386L4.72651 3.65549H5.26187L4.83727 3.96936L5.0034 4.46783L4.56034 4.15395L4.1357 4.46783L4.30187 3.96936L3.8588 3.65549H4.39416L4.56034 3.1386ZM7.60651 3.1386L7.77268 3.65549H8.30804L7.86498 3.96936L8.04962 4.46783L7.60651 4.15395L7.16345 4.46783L7.34804 3.96936L6.90498 3.65549H7.44038L7.60651 3.1386ZM10.6343 3.1386L10.8189 3.65549H11.3358L10.9111 3.96936L11.0773 4.46783L10.6343 4.15395L10.2096 4.46783L10.3758 3.96936L9.93268 3.65549H10.4866L10.6343 3.1386ZM13.6804 3.1386L13.8466 3.65549H14.382L13.9574 3.96936L14.1235 4.46783L13.6804 4.15395L13.2558 4.46783L13.422 3.96936L12.9789 3.65549H13.5143L13.6804 3.1386ZM16.7266 3.1386L16.8928 3.65549H17.4281L16.9851 3.96936L17.1697 4.46783L16.7266 4.15395L16.2835 4.46783L16.4681 3.96936L16.0251 3.65549H16.5604L16.7266 3.1386ZM3.04646 4.43085L3.21263 4.94778H3.74804L3.30493 5.26161L3.48957 5.76008L3.04646 5.44625L2.6034 5.76008L2.78799 5.26161L2.34493 4.94778H2.88034L3.04646 4.43085ZM6.07421 4.43085L6.2588 4.94778H6.77574L6.3511 5.26161L6.51727 5.76008L6.07421 5.44625L5.64957 5.76008L5.81574 5.26161L5.37263 4.94778H5.92651L6.07421 4.43085ZM9.12038 4.43085L9.28655 4.94778H9.82191L9.39732 5.26161L9.56345 5.76008L9.12038 5.44625L8.69574 5.76008L8.86191 5.26161L8.41885 4.94778H8.95421L9.12038 4.43085ZM12.1666 4.43085L12.3327 4.94778H12.8681L12.425 5.26161L12.6097 5.76013L12.1666 5.4463L11.7235 5.76013L11.9081 5.26166L11.465 4.94783H12.0004L12.1666 4.43085ZM15.1943 4.43085L15.3789 4.94778H15.8774L15.4527 5.26161L15.6189 5.76008L15.1758 5.44625L14.7512 5.76008L14.9174 5.26161L14.4743 4.94778H15.0281L15.1943 4.43085ZM1.53259 5.72319L1.68029 6.24008H2.23416L1.79105 6.55395L1.95723 7.05242L1.51416 6.73855L1.10799 7.05242L1.27416 6.55395L0.831055 6.24008H1.38498L1.53259 5.72319ZM4.56034 5.72319L4.72651 6.24008H5.26187L4.83727 6.55395L5.0034 7.05242L4.56034 6.73855L4.1357 7.05242L4.30187 6.55395L3.8588 6.24008H4.39416L4.56034 5.72319ZM7.60651 5.72319L7.77268 6.24008H8.30804L7.86498 6.55395L8.04962 7.05242L7.60651 6.73855L7.16345 7.05242L7.34804 6.55395L6.90498 6.24008H7.44038L7.60651 5.72319ZM10.6343 5.72319L10.8189 6.24008H11.3358L10.9111 6.55395L11.0773 7.05242L10.6343 6.73855L10.2096 7.05242L10.3758 6.55395L9.93268 6.24008H10.4866L10.6343 5.72319ZM13.6804 5.72319L13.8466 6.24008H14.382L13.9574 6.55395L14.1235 7.05242L13.6804 6.73855L13.2558 7.05242L13.422 6.55395L12.9789 6.24008H13.5143L13.6804 5.72319ZM16.7266 5.72319L16.8928 6.24008H17.4281L16.9851 6.55395L17.1697 7.05242L16.7266 6.73855L16.2835 7.05242L16.4681 6.55395L16.0251 6.24008H16.5604L16.7266 5.72319ZM3.04646 7.01549L3.21263 7.53242H3.74804L3.30493 7.84625L3.48957 8.34472L3.04646 8.03089L2.6034 8.34472L2.78799 7.84625L2.34493 7.53242H2.88034L3.04646 7.01549ZM6.07421 7.01549L6.2588 7.53242H6.77574L6.3511 7.84625L6.51727 8.34472L6.07421 8.03089L5.64957 8.34472L5.81574 7.84625L5.37263 7.53242H5.92651L6.07421 7.01549ZM9.12038 7.01549L9.28655 7.53242H9.82191L9.39732 7.84625L9.56345 8.34472L9.12038 8.03089L8.69574 8.34472L8.86191 7.84625L8.41885 7.53242H8.95421L9.12038 7.01549ZM12.1666 7.01549L12.3327 7.53242H12.8681L12.425 7.84625L12.6097 8.34477L12.1666 8.03094L11.7235 8.34477L11.9081 7.8463L11.465 7.53247H12.0004L12.1666 7.01549ZM15.1943 7.01549L15.3789 7.53242H15.8774L15.4527 7.84625L15.6189 8.34472L15.1758 8.03089L14.7512 8.34472L14.9174 7.84625L14.4743 7.53242H15.0281L15.1943 7.01549ZM1.53259 8.30783L1.68029 8.82472H2.23416L1.79105 9.1386L1.95723 9.63706L1.51416 9.32319L1.10799 9.63706L1.27416 9.1386L0.831055 8.82472H1.38498L1.53259 8.30783ZM4.56034 8.30783L4.72651 8.82472H5.26187L4.83727 9.1386L5.0034 9.63706L4.56034 9.32319L4.1357 9.63706L4.30187 9.1386L3.8588 8.82472H4.39416L4.56034 8.30783ZM7.60651 8.30783L7.77268 8.82472H8.30804L7.86498 9.1386L8.04962 9.63706L7.60651 9.32319L7.16345 9.63706L7.34804 9.1386L6.90498 8.82472H7.44038L7.60651 8.30783ZM10.6343 8.30783L10.8189 8.82472H11.3358L10.9111 9.1386L11.0773 9.63706L10.6343 9.32319L10.2096 9.63706L10.3758 9.1386L9.93268 8.82472H10.4866L10.6343 8.30783ZM13.6804 8.30783L13.8466 8.82472H14.382L13.9574 9.1386L14.1235 9.63706L13.6804 9.32319L13.2558 9.63706L13.422 9.1386L12.9789 8.82472H13.5143L13.6804 8.30783ZM16.7266 8.30783L16.8928 8.82472H17.4281L16.9851 9.1386L17.1697 9.63706L16.7266 9.32319L16.2835 9.63706L16.4681 9.1386L16.0251 8.82472H16.5604L16.7266 8.30783ZM3.04646 9.60017L3.21263 10.1171H3.74804L3.30493 10.4309L3.48957 10.9294L3.04646 10.6156L2.6034 10.9294L2.78799 10.4309L2.34493 10.1171H2.88034L3.04646 9.60017ZM6.07421 9.60017L6.2588 10.1171H6.77574L6.3511 10.4309L6.51727 10.9294L6.07421 10.6156L5.64957 10.9294L5.81574 10.4309L5.37263 10.1171H5.92651L6.07421 9.60017ZM9.12038 9.60017L9.28655 10.1171H9.82191L9.39732 10.4309L9.56345 10.9294L9.12038 10.6156L8.69574 10.9294L8.86191 10.4309L8.41885 10.1171H8.95421L9.12038 9.60017ZM12.1666 9.60017L12.3327 10.1171H12.8681L12.425 10.4309L12.6097 10.9295L12.1666 10.6156L11.7235 10.9295L11.9081 10.431L11.465 10.1172H12.0004L12.1666 9.60017ZM15.1943 9.60017L15.3789 10.1171H15.8774L15.4527 10.4309L15.6189 10.9294L15.1758 10.6156L14.7512 10.9294L14.9174 10.4309L14.4743 10.1171H15.0281L15.1943 9.60017ZM1.53259 10.8925L1.68029 11.4094H2.23416L1.79105 11.7233L1.95723 12.2218L1.51416 11.9079L1.10799 12.2218L1.27416 11.7233L0.831055 11.4094H1.38498L1.53259 10.8925ZM4.56034 10.8925L4.72651 11.4094H5.26187L4.83727 11.7233L5.0034 12.2218L4.56034 11.9079L4.1357 12.2218L4.30187 11.7233L3.8588 11.4094H4.39416L4.56034 10.8925ZM7.60651 10.8925L7.77268 11.4094H8.30804L7.86498 11.7233L8.04962 12.2218L7.60651 11.9079L7.16345 12.2218L7.34804 11.7233L6.90498 11.4094H7.44038L7.60651 10.8925ZM10.6343 10.8925L10.8189 11.4094H11.3358L10.9111 11.7233L11.0773 12.2218L10.6343 11.9079L10.2096 12.2218L10.3758 11.7233L9.93268 11.4094H10.4866L10.6343 10.8925ZM13.6804 10.8925L13.8466 11.4094H14.382L13.9574 11.7233L14.1235 12.2218L13.6804 11.9079L13.2558 12.2218L13.422 11.7233L12.9789 11.4094H13.5143L13.6804 10.8925ZM16.7266 10.8925L16.8928 11.4094H17.4281L16.9851 11.7233L17.1697 12.2218L16.7266 11.9079L16.2835 12.2218L16.4681 11.7233L16.0251 11.4094H16.5604L16.7266 10.8925Z" fill="white"/>
</g>
<defs>
<clipPath id="clip0_208_27058">
<rect width="24" height="24" rx="12" fill="white"/>
</clipPath>
</defs>
</svg>
