<svg width="24" height="24" viewBox="0 0 24 24" fill="none" xmlns="http://www.w3.org/2000/svg">
<g clip-path="url(#clip0_208_20757)">
<path d="M0 0H24V24H0V0Z" fill="#DA000C"/>
<path d="M0 0H24V16.0781H0V0Z" fill="white"/>
<path d="M6.43164 10.9032H12.4316V15.0282H6.43164V10.9032Z" fill="black"/>
<path d="M9.54414 14.4282H5.88789L5.07227 14.9626V15.5251H9.54414M8.01602 12.0563C8.54102 12.0563 8.97226 12.4969 8.97226 13.0407V14.4188H9.65664V9.16882H5.87851V14.4188H7.05977V13.0407C7.05977 12.5157 7.48164 12.0563 8.01602 12.0563Z" fill="#DA000C"/>
<path d="M9.54414 14.4282H5.88789L5.07227 14.9626V15.5251H9.54414M8.01602 12.0563C8.54102 12.0563 8.97226 12.4969 8.97226 13.0407V14.4188H9.65664V9.16882H5.87851V14.4188H7.05977V13.0407C7.05977 12.5157 7.48164 12.0563 8.01602 12.0563Z" stroke="black" stroke-width="0.25" stroke-linecap="square"/>
<path d="M7.17188 5.625H8.91563V8.8125H7.17188V5.625Z" fill="black"/>
<path d="M8.90625 8.31567H7.3875V7.77192H6.27187V8.31567H5.52187V7.77192H5.0625V8.74692H8.90625M5.5125 8.74692H8.79375V9.1688H5.5125V8.74692ZM6.825 4.46255V7.7813H7.3875V6.87192C7.3875 6.53442 7.62187 6.25317 7.95937 6.23442H7.99688C8.08059 6.23442 8.16349 6.25091 8.24084 6.28295C8.31818 6.31499 8.38846 6.36195 8.44766 6.42114C8.50685 6.48034 8.55381 6.55062 8.58585 6.62796C8.61789 6.70531 8.63438 6.78821 8.63438 6.87192V7.7813H9.16875V4.46255H6.825ZM6.60938 4.01255V4.46255H9.35625V4.01255H6.60938ZM6.2625 3.15942V4.01255H9.54375V3.15942H9.04688V3.60005H8.42812V3.15942H7.49062V3.60005H6.88125V3.15942H6.2625ZM5.0625 14.9625H9.5625H5.0625ZM12.4688 14.7H9.43125L8.5125 15.1407V15.7969H12.4688" fill="#DA000C"/>
<path d="M8.90625 8.31567H7.3875V7.77192H6.27187V8.31567H5.52187V7.77192H5.0625V8.74692H8.90625M5.0625 14.9625H9.5625M12.4688 14.7H9.43125L8.5125 15.1407V15.7969H12.4688M5.5125 8.74692H8.79375V9.1688H5.5125V8.74692ZM6.825 4.46255V7.7813H7.3875V6.87192C7.3875 6.53442 7.62187 6.25317 7.95937 6.23442H7.99688C8.08059 6.23442 8.16349 6.25091 8.24084 6.28295C8.31818 6.31499 8.38846 6.36195 8.44766 6.42114C8.50685 6.48034 8.55381 6.55062 8.58585 6.62796C8.61789 6.70531 8.63438 6.78821 8.63438 6.87192V7.7813H9.16875V4.46255H6.825ZM6.60938 4.01255V4.46255H9.35625V4.01255H6.60938ZM6.2625 3.15942V4.01255H9.54375V3.15942H9.04688V3.60005H8.42812V3.15942H7.49062V3.60005H6.88125V3.15942H6.2625Z" stroke="black" stroke-width="0.25" stroke-linecap="square"/>
<path d="M8.5127 15.1406H12.5627H8.5127Z" fill="#DA000C"/>
<path d="M8.5127 15.1406H12.5627" stroke="black" stroke-width="0.25"/>
<path d="M17.5684 10.9032H11.5684V15.0282H17.5684V10.9032Z" fill="black"/>
<path d="M14.4559 14.4282H18.1121L18.9277 14.9626V15.5251H14.4559M15.984 12.0563C15.459 12.0563 15.0277 12.4969 15.0277 13.0407V14.4188H14.3434V9.16882H18.1215V14.4188H16.9402V13.0407C16.9402 12.5157 16.5184 12.0563 15.984 12.0563Z" fill="#DA000C"/>
<path d="M14.4559 14.4282H18.1121L18.9277 14.9626V15.5251H14.4559M15.984 12.0563C15.459 12.0563 15.0277 12.4969 15.0277 13.0407V14.4188H14.3434V9.16882H18.1215V14.4188H16.9402V13.0407C16.9402 12.5157 16.5184 12.0563 15.984 12.0563Z" stroke="black" stroke-width="0.25" stroke-linecap="square"/>
<path d="M16.8281 5.625H15.0844V8.8125H16.8281V5.625Z" fill="black"/>
<path d="M15.0938 8.31567H16.6125V7.77192H17.7281V8.31567H18.4781V7.77192H18.9375V8.74692H15.0938M18.4875 8.74692H15.2062V9.1688H18.4875V8.74692ZM17.175 4.46255V7.7813H16.6125V6.87192C16.6125 6.53442 16.3781 6.25317 16.0406 6.23442H16.0031C15.9194 6.23442 15.8365 6.25091 15.7592 6.28295C15.6818 6.31499 15.6115 6.36195 15.5523 6.42114C15.4931 6.48034 15.4462 6.55062 15.4142 6.62796C15.3821 6.70531 15.3656 6.78821 15.3656 6.87192V7.7813H14.8312V4.46255H17.175ZM17.3906 4.01255V4.46255H14.6437V4.01255H17.3906ZM17.7375 3.15942V4.01255H14.4562V3.15942H14.9531V3.60005H15.5719V3.15942H16.5094V3.60005H17.1188V3.15942H17.7375ZM18.9375 14.9625H14.4375H18.9375ZM11.5312 14.7H14.5687L15.4875 15.1407V15.7969H11.5312" fill="#DA000C"/>
<path d="M15.0938 8.31567H16.6125V7.77192H17.7281V8.31567H18.4781V7.77192H18.9375V8.74692H15.0938M18.9375 14.9625H14.4375M11.5312 14.7H14.5687L15.4875 15.1407V15.7969H11.5312M18.4875 8.74692H15.2062V9.1688H18.4875V8.74692ZM17.175 4.46255V7.7813H16.6125V6.87192C16.6125 6.53442 16.3781 6.25317 16.0406 6.23442H16.0031C15.9194 6.23442 15.8365 6.25091 15.7592 6.28295C15.6818 6.31499 15.6115 6.36195 15.5523 6.42114C15.4931 6.48034 15.4462 6.55062 15.4142 6.62796C15.3821 6.70531 15.3656 6.78821 15.3656 6.87192V7.7813H14.8312V4.46255H17.175ZM17.3906 4.01255V4.46255H14.6437V4.01255H17.3906ZM17.7375 3.15942V4.01255H14.4562V3.15942H14.9531V3.60005H15.5719V3.15942H16.5094V3.60005H17.1188V3.15942H17.7375Z" stroke="black" stroke-width="0.25" stroke-linecap="square"/>
<path d="M15.4873 15.1406H11.4373H15.4873Z" fill="#DA000C"/>
<path d="M15.4873 15.1406H11.4373" stroke="black" stroke-width="0.25"/>
<path d="M13.6219 14.0625C13.3688 14.1562 13.1532 14.2875 12.9188 14.4188C12.6272 14.5853 12.3483 14.7734 12.0844 14.9813C11.9907 15.0469 11.8969 15.1125 11.8313 15.2062C11.7376 15.2812 11.6438 15.3937 11.6626 15.5344C11.6626 15.5906 11.7376 15.4594 11.7938 15.45C11.8828 15.4024 11.9862 15.389 12.0844 15.4125C12.2063 15.2812 12.3657 15.1969 12.4969 15.0938C12.8791 14.8172 13.2873 14.5786 13.7157 14.3812L13.6219 14.0625Z" fill="#F8D80E" stroke="black" stroke-width="0.2" stroke-linecap="round"/>
<path d="M12.4121 14.7563V15.1219V14.7563ZM12.6371 14.5969V14.9625V14.5969ZM12.8621 14.4563V14.8125V14.4563ZM13.0965 14.3157V14.6907V14.3157Z" fill="#F8D80E"/>
<path d="M12.4121 14.7563V15.1219M12.6371 14.5969V14.9625M12.8621 14.4563V14.8125M13.0965 14.3157V14.6907" stroke="black" stroke-width="0.25" stroke-linecap="round"/>
<path d="M10.3967 14.0813L10.2842 14.3907C10.8023 14.5894 11.2986 14.8407 11.7654 15.1407C11.9248 15.2532 12.0936 15.3563 12.2154 15.5063C12.2436 15.5813 12.1686 15.6469 12.0936 15.6188C12.0279 15.6 11.9529 15.5719 11.8873 15.6188C11.7842 15.6657 11.6904 15.825 11.8404 15.8719C12.0654 16.0219 12.4123 15.9563 12.5154 15.7032C12.5717 15.5719 12.5811 15.4032 12.4686 15.2907C12.2811 15.075 12.0186 14.9157 11.7748 14.7563C11.3371 14.4895 10.8758 14.2636 10.3967 14.0813Z" fill="#F8D80E" stroke="black" stroke-width="0.2" stroke-linecap="round"/>
<path d="M11.8123 14.8125L11.7842 15.1312L11.8123 14.8125ZM12.0748 14.9719L11.9998 15.2812L12.0748 14.9719ZM12.3561 15.1875L12.1873 15.4312L12.3561 15.1875ZM12.4404 15.7687L12.1967 15.6375L12.4404 15.7687ZM12.5154 15.5062L12.2342 15.5344L12.5154 15.5062ZM12.1592 15.9094L12.1404 15.6656L12.1592 15.9094ZM12.0467 15.6375L11.8217 15.8062L12.0467 15.6375ZM10.9404 14.3344V14.625V14.3344ZM11.5311 14.6531V14.9812V14.6531ZM11.2311 14.4937V14.8031V14.4937Z" fill="#F8D80E"/>
<path d="M11.8123 14.8125L11.7842 15.1312M12.0748 14.9719L11.9998 15.2812M12.3561 15.1875L12.1873 15.4312M12.4404 15.7687L12.1967 15.6375M12.5154 15.5062L12.2342 15.5344M12.1592 15.9094L12.1404 15.6656M12.0467 15.6375L11.8217 15.8062M10.9404 14.3344V14.625M11.5311 14.6531V14.9812M11.2311 14.4937V14.8031" stroke="black" stroke-width="0.25" stroke-linecap="round"/>
<path d="M10.1064 21.3375V22.0875H10.5752V21.7125H11.2221V22.0875H11.7283V21.3375H10.1064ZM10.1064 22.3688V23.1188H11.7189V22.3688H11.2127V22.7438H10.5658V22.3688H10.1064Z" fill="#F8D80E" stroke="black" stroke-width="0.25"/>
<path d="M11.7188 18.1594H12.1875V23.5969H11.7188V18.1594Z" fill="#F8D80E" stroke="black" stroke-width="0.25"/>
<path d="M11.7191 18.6281H12.1879V23.3156H11.7191V18.6281ZM11.9629 16.8188L12.9566 17.4L11.9629 17.9813L10.9598 17.4L11.9629 16.8188ZM10.6223 17.1938H10.3691V17.6063H10.6223L11.9629 18.3844L13.2941 17.6063H13.5566V17.1938H13.2941L11.9629 16.4156L10.6223 17.1938Z" fill="#F8D80E" stroke="black" stroke-width="0.25"/>
<path d="M11.9349 15.4031C11.8258 15.4253 11.7282 15.4855 11.6595 15.5731C11.5908 15.6608 11.5555 15.77 11.5599 15.8812V16.9312C11.5686 17.0427 11.6168 17.1475 11.6958 17.2266C11.7749 17.3056 11.8797 17.3538 11.9912 17.3625C12.084 17.3694 12.1767 17.348 12.257 17.3012C12.3374 17.2543 12.4016 17.1841 12.4412 17.1L12.2818 17.0062C12.2597 17.0611 12.2203 17.1073 12.1695 17.1378C12.1187 17.1682 12.0594 17.1813 12.0006 17.175C11.8506 17.175 11.7287 17.025 11.7474 16.8843V15.8343C11.7545 15.7656 11.7876 15.7021 11.8398 15.6568C11.8921 15.6115 11.9596 15.5878 12.0287 15.5906C12.0849 15.5718 12.1693 15.6562 12.2068 15.5906C12.2631 15.5062 12.1693 15.45 12.1131 15.4031H11.9349ZM12.4787 15.7687C12.4329 15.8329 12.3716 15.8845 12.3006 15.9187V16.6218L12.4881 16.725V15.7687H12.4787Z" fill="#F8D80E" stroke="black" stroke-width="0.25"/>
<path d="M10.5752 3.59998H13.3221V8.58748H10.5752V3.59998Z" fill="black"/>
<path d="M10.3877 3.60002V7.7719H11.2596V6.5344C11.2596 6.25315 11.4471 5.85002 12.0002 5.85002C12.5533 5.85002 12.7502 6.25315 12.7502 6.5344V7.78127H13.6127V3.60002H10.3877ZM11.8689 4.06877H12.1314V5.49377H11.8689V4.06877ZM11.0908 4.35002H11.3721V5.39065H11.0908V4.35002ZM12.6377 4.35002H12.9096V5.39065H12.6283L12.6377 4.35002ZM10.0877 3.00002V3.59065H13.9127V3.00002H10.0877ZM9.73145 2.30627V3.00002H14.2783V2.30627H13.7064V2.68127H13.0502V2.30627H12.3189V2.68127H11.6814V2.30627H10.9408V2.68127H10.3127V2.30627H9.73145ZM8.8877 9.16877V9.60002H15.1221V9.16877H8.8877Z" fill="#DA000C" stroke="black" stroke-width="0.25"/>
<path d="M8.625 7.77185V9.1781H15.375V7.77185H14.7375V8.3156H13.875V7.77185H12.7312V8.3156H11.25V7.77185H10.1063V8.3156H9.2625V7.77185H8.625Z" fill="#DA000C" stroke="black" stroke-width="0.25"/>
<path d="M9.44043 9.59998V14.7H10.6404V12.7875C10.6404 11.8969 11.2404 11.475 11.9998 11.475C12.7311 11.475 13.3592 11.8969 13.3592 12.7875V14.7H14.5592V9.59998H9.44043Z" fill="#DA000C" stroke="black" stroke-width="0.25" stroke-linejoin="round"/>
</g>
<defs>
<clipPath id="clip0_208_20757">
<rect width="24" height="24" rx="12" fill="white"/>
</clipPath>
</defs>
</svg>
