<svg width="24" height="24" viewBox="0 0 24 24" fill="none" xmlns="http://www.w3.org/2000/svg">
<g clip-path="url(#clip0_208_24550)">
<path d="M0 0H24V12H0V0Z" fill="#0038A8"/>
<path d="M0 12H24V24H0V12Z" fill="#CE1126"/>
<path d="M20.7844 12L0 24V0" fill="white"/>
<path d="M1.18125 2.0813L1.90312 2.70474L2.74219 2.24536L2.36719 3.12192L3.07031 3.77817L2.10937 3.69849L1.70625 4.56099L1.48594 3.63286L0.539062 3.51099L1.35937 3.0188L1.18125 2.0813ZM17.4422 10.7344L17.4609 11.686L18.3656 12L17.4609 12.3141L17.4422 13.2657L16.8656 12.5063L15.9516 12.7875L16.5 12L15.9516 11.2172L16.8656 11.4938L17.4422 10.7344ZM1.71094 19.4391L2.11406 20.3016L3.06562 20.2219L2.37187 20.8782L2.74219 21.7547L1.90312 21.2954L1.18125 21.9188L1.36406 20.9813L0.54375 20.4891L1.49062 20.3672L1.71094 19.4391ZM7.44844 6.93755L7.13906 7.24692L7.28906 9.60474L7.13437 9.6188L6.85312 7.46724L6.59531 7.72036L6.97969 9.64224C6.67123 9.70461 6.37813 9.82727 6.11719 10.0032L5.025 8.37192H4.66406L5.98594 10.0969L5.86875 10.1954L4.30781 8.41411H3.86719V8.85942L5.64844 10.4204L5.54531 10.5375L3.82031 9.21567V9.57661L5.45156 10.6688C5.2772 10.93 5.15613 11.2232 5.09531 11.5313L3.17344 11.1469L2.91562 11.4047L5.07187 11.686L5.05312 11.8454L2.69531 11.6907L2.38125 12L2.69531 12.3094L5.05312 12.1594L5.06719 12.3141L2.91562 12.5954L3.16875 12.8532L5.09062 12.4688C5.153 12.7773 5.27565 13.0704 5.45156 13.3313L3.82031 14.4235V14.7844L5.54531 13.4626L5.64375 13.5797L3.8625 15.1407V15.5813H4.3125L5.87344 13.8L5.99062 13.9032L4.66875 15.6282H5.02969L6.12187 13.9969C6.38307 14.1714 6.67619 14.2925 6.98437 14.3532L6.6 16.2751L6.85781 16.5329L7.13906 14.3766L7.29375 14.3954L7.14375 16.7532L7.45312 17.0672L7.7625 16.7532L7.6125 14.3954L7.76719 14.3813L8.04844 16.5329L8.30625 16.2797L7.92187 14.3579C8.23033 14.2955 8.52343 14.1728 8.78437 13.9969L9.87656 15.6282H10.2375L8.90625 13.9032L9.02344 13.8047L10.5844 15.586H11.025V15.1407L9.24375 13.5797L9.34687 13.4626L11.0719 14.7844V14.4235L9.44062 13.3313C9.61499 13.0701 9.73605 12.7769 9.79687 12.4688L11.7187 12.8532L11.9766 12.5954L9.82031 12.3141L9.83906 12.1594L12.1969 12.3094L12.5109 12L12.1969 11.6907L9.83906 11.8454C9.83906 11.7891 9.82969 11.7375 9.825 11.686L11.9766 11.4047L11.7234 11.1469L9.80156 11.5313C9.73919 11.2228 9.61653 10.9297 9.44062 10.6688L11.0719 9.57661V9.21567L9.34687 10.5375L9.24844 10.4204L11.0297 8.85942V8.4188H10.5844L9.02344 10.2001L8.90625 10.0969L10.2281 8.37192H9.86719L8.775 10.0032C8.51375 9.82881 8.22065 9.70775 7.9125 9.64692L8.29687 7.72505L8.03906 7.46724L7.75781 9.62349L7.60312 9.60474L7.75312 7.24692L7.44844 6.93755Z" fill="#FCD116"/>
</g>
<defs>
<clipPath id="clip0_208_24550">
<rect width="24" height="24" rx="12" fill="white"/>
</clipPath>
</defs>
</svg>
