<svg width="24" height="24" viewBox="0 0 24 24" fill="none" xmlns="http://www.w3.org/2000/svg">
<g clip-path="url(#clip0_208_23179)">
<mask id="mask0_208_23179" style="mask-type:luminance" maskUnits="userSpaceOnUse" x="0" y="0" width="24" height="24">
<path d="M0 0H23.9963V23.9963H0V0Z" fill="white"/>
</mask>
<g mask="url(#mask0_208_23179)">
<path fill-rule="evenodd" clip-rule="evenodd" d="M0 0H35.9945V7.49885H0V0Z" fill="#009A00"/>
<path fill-rule="evenodd" clip-rule="evenodd" d="M0 7.4989H35.9945V8.24879H0V7.4989Z" fill="white"/>
<path fill-rule="evenodd" clip-rule="evenodd" d="M0 8.24878H35.9945V15.7476H0V8.24878Z" fill="black"/>
<path fill-rule="evenodd" clip-rule="evenodd" d="M0 15.7476H35.9945V16.4974H0V15.7476Z" fill="white"/>
<path fill-rule="evenodd" clip-rule="evenodd" d="M0 16.4974H35.9945V23.9963H0V16.4974Z" fill="#FFCA00"/>
<path fill-rule="evenodd" clip-rule="evenodd" d="M0 0V23.9963L15.7524 11.9982L0 0Z" fill="#FF0000"/>
<path fill-rule="evenodd" clip-rule="evenodd" d="M9.30308 15.6072L6.90344 13.851L4.50865 15.6072L5.43754 12.7819L3.01855 11.0402L5.99874 11.0547L6.90344 8.22449L7.81298 11.0547L10.7883 11.0402L8.36935 12.7819L9.30308 15.6072Z" fill="#FFCA00"/>
<path fill-rule="evenodd" clip-rule="evenodd" d="M4.81836 13.6382H6.55035C6.69065 13.793 7.00028 13.8559 7.2954 13.6382C7.83725 13.3383 8.88709 13.6382 8.88709 13.6382L9.09512 13.4157L8.59198 11.7659L8.40813 11.5724C8.40813 11.5724 8.0211 11.3402 7.28572 11.4176C6.55035 11.495 6.29394 11.3885 6.29394 11.3885C6.29394 11.3885 5.64565 11.466 5.46665 11.5627L5.25861 11.7707L4.8232 13.643L4.81836 13.6382Z" fill="white" stroke="black" stroke-width="0.141914" stroke-linecap="round" stroke-linejoin="round"/>
<path d="M5.16699 13.2077C5.16699 13.2077 6.82158 13.0045 7.2957 13.6383C7.02961 13.8221 6.79255 13.8318 6.53614 13.6479C6.57968 13.5802 7.13121 13.0045 8.53906 13.198" stroke="black" stroke-width="0.141914" stroke-linecap="round" stroke-linejoin="round"/>
<path d="M6.93736 11.5579L6.92285 13.3769M8.40811 11.5869L8.71774 13.0286" stroke="black" stroke-width="0.141914"/>
<path d="M5.48183 11.5627L5.3125 12.3078" stroke="black" stroke-width="0.141914" stroke-linecap="round" stroke-linejoin="round"/>
<path fill-rule="evenodd" clip-rule="evenodd" d="M3.69629 13.8366L4.10268 14.3107C4.15106 14.3397 4.1946 14.3397 4.23814 14.3107L4.83805 13.585L5.09446 13.2754C5.11173 13.2556 5.1249 13.2326 5.13321 13.2076C5.14151 13.1827 5.14479 13.1564 5.14284 13.1302L5.62664 12.6948C5.66534 12.7045 5.68953 12.7093 5.7234 12.7093C5.67986 12.6948 5.64599 12.6755 5.68469 12.6222L5.79113 12.54L5.87821 12.6464C5.87821 12.6464 5.75726 12.8061 5.74275 12.8061H5.61212L5.35571 13.0335L5.46699 13.1302L5.63631 13.5898L5.83951 13.4447L5.70888 12.9754L5.99916 12.6609L5.88789 12.4916L5.96046 12.3949C5.96046 12.3949 6.96192 13.0238 7.34896 12.8545C7.35863 12.8593 7.37315 12.4045 7.37315 12.4045C7.37315 12.4045 6.33298 12.2981 6.30879 12.0949C6.2846 11.8869 6.54101 11.8627 6.54101 11.8627L6.42974 11.7079L6.45393 11.6208L6.63777 11.853L7.04416 11.4998L9.45831 14.2526C9.58894 14.1994 9.61796 14.1655 9.62764 14.0349L7.25703 11.3208L7.44088 11.1273C7.47474 11.0886 7.48926 11.0692 7.48926 11.0064L7.76502 10.7645C7.83962 10.7908 7.90285 10.842 7.94403 10.9096L8.70843 10.2661C8.72778 10.2855 8.79067 10.3048 8.82937 10.2807L10.0872 9.07117L8.7181 10.0388L8.66972 10.0049C8.66972 9.96619 8.7181 9.95652 8.66972 9.88395C8.6165 9.82105 8.53426 9.94684 8.52458 9.94684C8.51491 9.94684 8.32623 9.87911 8.28268 9.79686L8.27301 10.0194L7.91984 10.3436L7.65375 10.3339L7.26671 10.7064L7.21833 10.8515L7.28122 10.9725C7.28122 10.9725 7.07803 11.1515 7.07803 11.1418C7.07803 11.1273 7.03449 11.0886 7.02965 11.0789L7.20865 10.9241L7.23284 10.8128L7.17479 10.7209C7.15544 10.7354 6.93289 10.9725 6.91838 10.9483L6.27493 10.2081L6.30879 10.0726L5.89756 9.62753C5.75243 9.57915 5.51053 9.56948 5.46215 9.89362C5.42828 9.97103 5.11381 9.9033 5.11381 9.9033L4.94932 9.942L3.99624 11.2918L4.52842 11.9304L5.61212 10.5564L5.64115 10.1694L5.86854 10.421C5.94594 10.4306 6.01851 10.4306 6.08625 10.3968L6.7297 11.1128L6.62326 11.2192L6.72002 11.3257L6.82646 11.2483L6.87483 11.3111C6.81678 11.3402 6.77808 11.3789 6.7297 11.4079C6.63777 11.3547 6.55553 11.2821 6.5652 11.1708L6.20236 11.4708L6.18784 11.5337L5.11381 12.4239L5.01705 12.4384L4.99286 12.7142L5.69437 12.1336V12.0514L5.76694 12.1094L6.30879 11.674C6.30879 11.674 6.3475 11.7224 6.33298 11.7224C6.31847 11.7224 5.84919 12.1578 5.84919 12.1578L5.83951 12.2062L5.75726 12.2787L5.70888 12.2449L5.05576 12.8254H4.959L4.59615 13.1834C4.50423 13.1931 4.42198 13.2028 4.34458 13.256L3.69629 13.8366Z" fill="black" stroke="black" stroke-width="0.141914" stroke-linecap="round" stroke-linejoin="round"/>
</g>
</g>
<defs>
<clipPath id="clip0_208_23179">
<rect width="24" height="24" rx="12" fill="white"/>
</clipPath>
</defs>
</svg>
