<svg width="24" height="24" viewBox="0 0 24 24" fill="none" xmlns="http://www.w3.org/2000/svg">
<g clip-path="url(#clip0_208_23798)">
<mask id="mask0_208_23798" style="mask-type:luminance" maskUnits="userSpaceOnUse" x="-1" y="0" width="25" height="24">
<path d="M-0.00195312 0H23.9944V23.9963H-0.00195312V0Z" fill="white"/>
</mask>
<g mask="url(#mask0_208_23798)">
<path fill-rule="evenodd" clip-rule="evenodd" d="M-12 0H35.9975V23.9963H-12V0Z" fill="#0071BC"/>
<path fill-rule="evenodd" clip-rule="evenodd" d="M14.7737 18.9842C14.7737 18.9842 15.6203 18.0891 16.4331 18.2585C16.675 17.3199 17.599 17.2425 17.599 17.2425C17.599 17.2425 17.5071 16.2023 18.6876 15.9749C18.7215 15.2686 19.4375 14.6784 19.4375 14.6784C19.4375 14.6784 19.2923 13.585 20.0422 13.3286C19.5826 12.4577 20.197 11.8288 20.1874 11.8095C20.1777 11.7901 19.4133 10.4306 20.0954 10.0436C19.3697 9.43401 19.6116 8.73734 19.6116 8.73734C19.6116 8.73734 18.8182 8.53898 19.1037 7.59074C18.4554 7.47947 18.3247 6.42963 18.3247 6.42963C18.3247 6.42963 17.3184 6.62799 17.2023 5.75715C16.5395 5.86359 16.467 5.21046 16.4573 5.21046C16.4524 5.21046 15.151 5.56363 14.8898 4.58152C14.3866 4.83794 14.1641 4.37349 14.1641 4.37349C14.1641 4.37349 13.4384 4.7315 13.0078 4.03967C12.1467 4.57669 11.6677 4.01548 11.6677 4.01548C11.6677 4.01548 10.5356 4.76537 10.1631 4.18481C9.49545 4.86213 8.90038 4.57185 8.90038 4.57185C8.90038 4.57185 8.39723 5.46203 7.57961 5.23465C7.39577 6.06678 6.4572 6.08129 6.4572 6.08129C6.4572 6.08129 6.55396 6.81667 5.43155 7.01018C5.28642 7.87134 4.70102 8.02132 4.70102 8.02132C4.70102 8.02132 4.75908 8.85829 4.2269 9.12438C4.42042 9.5985 3.92695 10.1742 3.92695 10.1742C3.92695 10.1742 4.44945 10.837 3.73827 11.5627C4.42526 11.7417 3.93178 12.9222 3.93178 12.9222C3.93178 12.9222 4.87035 13.3479 4.27528 14.1317C4.9526 14.3445 4.73973 14.8864 4.7494 15.2009C5.18482 15.3944 5.56218 15.2976 5.37834 16.1685C6.70394 16.3136 6.07501 17.049 6.07501 17.049C6.07501 17.049 6.69426 17.0732 6.45237 17.5618C7.57961 17.5376 7.7441 18.4084 7.7441 18.4084C7.7441 18.4084 8.79394 18.1327 8.93424 18.5391C9.06971 18.9455 8.47464 21.6837 8.47464 21.6837C8.47464 21.6837 7.58929 21.6837 6.92649 20.9774C5.38318 20.9387 5.72667 19.9227 5.70248 19.9227C5.67829 19.9227 5.18966 20.1066 4.93808 19.2599C3.90276 19.4728 3.93662 18.602 3.92695 18.5923C3.91727 18.5874 3.4625 18.3843 3.63667 17.9537C2.57232 18.0504 2.64972 17.0103 2.64972 17.0103C2.4175 16.9135 2.33042 16.6958 2.36428 16.4781C2.22882 16.4297 1.28058 16.4152 1.76921 15.1718C0.869351 14.6251 1.43056 13.9962 1.43056 13.9962C1.43056 13.9962 0.182359 13.3528 1.14028 12.6126C0.433934 11.5627 1.20801 11.0305 1.20801 11.0305C1.20801 11.0305 0.216224 10.0242 1.22252 9.30822C1.05803 7.77458 1.97241 7.41174 1.97241 7.41174C1.97241 7.41174 1.48861 6.16838 2.79486 5.64588C2.87711 4.38801 3.78664 4.3493 3.78664 4.3493C3.78664 4.3493 3.81083 3.34784 5.23804 3.44944C5.51864 2.55442 6.49591 2.73342 6.49591 2.73342C6.49591 2.73342 6.79586 1.64972 8.12146 2.17222C8.79878 0.85145 9.80024 1.52877 9.80024 1.52877C9.80024 1.52877 10.434 1.1127 10.7533 1.23849C11.1549 0.551496 12.0112 1.2143 12.5676 1.34976C12.7708 1.27235 13.4868 0.730501 14.0383 1.41265C14.7737 0.928858 15.3978 1.79969 15.3978 1.79969C15.3978 1.79969 16.4089 1.28203 16.8782 2.45766C19.0214 2.26414 18.7118 3.66231 18.7118 3.66231C18.7118 3.66231 20.3954 3.27527 20.0277 4.95405C21.5613 5.06048 21.4065 6.06678 21.4065 6.06678C21.4065 6.06678 22.3741 6.80215 21.9484 7.46012C22.8095 7.49882 22.4951 8.33095 22.4951 8.33095C22.4951 8.33095 23.153 8.58252 22.6063 9.60817C23.8691 10.6193 22.8482 11.6159 22.8482 11.6111C22.8337 11.6014 23.5207 12.4239 22.9015 13.3673C23.0901 14.867 22.3306 15.2492 22.3306 15.2492C22.3306 15.2492 22.5241 16.2168 21.6823 16.4926C21.6629 17.6295 20.5889 17.7698 20.5889 17.7698C20.5889 17.7698 20.8792 18.2633 19.81 18.7858C19.7665 19.5502 18.6537 19.6083 18.6537 19.6083C18.6537 19.6083 18.5473 21.0113 17.1298 20.6339C16.7911 21.7563 15.1317 21.4225 15.0978 21.408C15.0639 21.3935 14.7785 18.9987 14.7785 18.989L14.7737 18.9842Z" fill="white" stroke="black" stroke-width="0.245124"/>
<path fill-rule="evenodd" clip-rule="evenodd" d="M4.49254 5.55402C4.49254 5.55402 4.85055 5.86365 4.78282 6.32809C4.71509 6.79254 4.449 7.43599 4.50222 7.91495C4.53609 8.10846 4.52157 8.45196 4.52157 8.45196C4.52157 8.45196 4.20226 7.99719 4.19743 7.50856C4.19259 7.01992 4.54576 6.55548 4.54576 6.19263C4.54576 5.82978 4.48287 5.54918 4.49254 5.55402ZM4.31354 5.69432C4.31354 5.69432 3.84909 6.13941 3.79104 6.56999C3.74266 6.79254 3.72814 7.82786 3.72331 8.29231L3.64106 9.19217C3.62655 9.39536 3.97972 8.84384 4.00391 8.39874C3.98447 7.87119 3.99578 7.34296 4.03777 6.81673C4.08132 6.62321 4.07164 6.41517 4.13453 6.22649L4.31354 5.69432Z" fill="#217900" stroke="black" stroke-width="0.245124" stroke-linejoin="round"/>
<path fill-rule="evenodd" clip-rule="evenodd" d="M14.5555 4.2428C14.5555 4.2428 15.1603 3.96219 15.3296 3.44453C15.4989 2.92687 14.8071 2.92203 14.7152 3.08652C14.6232 3.25101 14.7926 3.66224 14.749 3.76868C14.7055 3.87995 14.4587 4.1412 14.5555 4.2428Z" fill="#FFD200" stroke="#EF8A10" stroke-width="0.245124"/>
<path fill-rule="evenodd" clip-rule="evenodd" d="M9.20476 4.43152C9.20476 4.43152 9.59663 3.89451 9.49504 3.35749C9.39828 2.82048 8.78386 3.1543 8.78386 3.34298C8.78386 3.53166 9.13219 3.80742 9.1467 3.92354C9.16122 4.03965 9.07413 4.38798 9.20476 4.43152ZM8.14524 4.75083C8.14524 4.75083 8.53712 4.21381 8.43552 3.6768C8.33876 3.13978 7.72434 3.4736 7.72434 3.66228C7.72434 3.85097 8.07267 4.12673 8.08719 4.24284C8.1017 4.35895 8.01462 4.70729 8.14524 4.75083ZM6.96962 5.11368C6.96962 5.11368 7.36149 4.57666 7.2599 4.03965C7.16314 3.50263 6.54871 3.83645 6.54871 4.02513C6.54871 4.21381 6.89705 4.48958 6.91156 4.60569C6.92607 4.7218 6.83899 5.07013 6.96962 5.11368ZM6.14716 5.93613C6.14716 5.93613 6.5342 5.40395 6.43744 4.86694C6.33101 4.32992 5.72142 4.66374 5.72142 4.85243C5.72142 5.04111 6.06975 5.31687 6.08427 5.43298C6.09878 5.54909 6.0117 5.89743 6.14232 5.94097L6.14716 5.93613ZM5.27633 6.73923C5.27633 6.73923 5.66337 6.20222 5.56661 5.6652C5.46017 5.12819 4.85059 5.46201 4.85059 5.65069C4.85059 5.83937 5.19892 6.11514 5.21343 6.23125C5.22795 6.34736 5.14086 6.69569 5.27149 6.73923H5.27633Z" fill="#FFD200" stroke="#EF8A10" stroke-width="0.335432"/>
<path fill-rule="evenodd" clip-rule="evenodd" d="M7.27411 2.08995C7.27411 2.08995 6.75161 2.50118 6.70807 3.04303C6.65969 3.58972 7.337 3.43007 7.38538 3.25106C7.43376 3.06722 7.17735 2.70921 7.19186 2.5931C7.21122 2.47699 7.38538 2.16736 7.27411 2.08995ZM9.01578 1.55293C9.01578 1.55293 8.49328 1.96416 8.4449 2.50601C8.39652 3.0527 9.07383 2.89305 9.12705 2.71405C9.17543 2.5302 8.91902 2.17219 8.93353 2.05608C8.95288 1.93997 9.12705 1.63034 9.01578 1.55293ZM2.52806 6.2506C2.52806 6.2506 2.6345 6.90857 3.08927 7.20852C3.54403 7.50847 3.73272 6.84567 3.59725 6.71021C3.46179 6.57474 3.02153 6.63764 2.92961 6.56507C2.83285 6.49734 2.64901 6.18771 2.52806 6.2506ZM1.65723 8.47607C1.65723 8.47607 1.66207 9.14371 2.06362 9.51139C2.46517 9.88392 2.75545 9.25498 2.64417 9.10016C2.5329 8.94535 2.08781 8.93567 2.00556 8.85343C1.92332 8.76635 1.78785 8.43736 1.65723 8.47607ZM3.66498 10.9628C3.66498 10.9628 3.42309 10.3435 2.91994 10.1403C2.41679 9.9323 2.36357 10.6241 2.52322 10.7209C2.67804 10.8273 3.10378 10.687 3.20538 10.7354C3.31181 10.7838 3.55371 11.0499 3.66498 10.9628ZM3.24408 9.88875C3.24408 9.88875 3.65047 9.35658 3.55855 8.8244C3.46663 8.28255 2.85221 8.60669 2.84737 8.79537C2.84737 8.98405 3.18603 9.26466 3.20054 9.38077C3.21022 9.49688 3.11829 9.84521 3.24892 9.88875H3.24408ZM15.7938 4.77986C15.7938 4.77986 16.3937 4.49926 16.5678 3.98159C16.742 3.46393 16.0453 3.45909 15.9534 3.62358C15.8615 3.78808 16.0308 4.1993 15.9873 4.30574C15.9437 4.41701 15.697 4.67826 15.7938 4.77986ZM17.6177 5.6894C17.6177 5.6894 17.9709 5.12819 17.8354 4.59602C17.6999 4.06868 17.1097 4.4412 17.1242 4.62988C17.1387 4.8234 17.5016 5.07014 17.5258 5.18625C17.55 5.30236 17.4822 5.65553 17.6177 5.6894ZM22.6008 10.8612C22.6008 10.8612 22.3589 10.2419 21.8557 10.0339C21.3478 9.82586 21.2994 10.5177 21.4542 10.6241C21.6138 10.7209 22.0348 10.5806 22.1412 10.6338C22.2476 10.6822 22.4895 10.9483 22.6008 10.8612ZM20.1625 11.2482C20.1625 11.2482 20.177 10.5806 20.5834 10.2177C20.9897 9.85005 21.2704 10.4838 21.1591 10.6338C21.043 10.7838 20.5979 10.7935 20.5156 10.8757C20.4334 10.9628 20.2931 11.2918 20.1625 11.2482ZM19.7706 4.1993C19.7706 4.1993 19.1513 3.96224 18.6578 4.1993C18.1644 4.43636 18.6482 4.94435 18.832 4.89113C19.0159 4.84275 19.1852 4.43636 19.2965 4.38798C19.4029 4.34444 19.7609 4.3396 19.7706 4.1993ZM18.3482 3.00916C18.3482 3.00916 17.729 2.7721 17.2355 3.00916C16.7469 3.25106 17.2258 3.75421 17.4097 3.70099C17.5935 3.65261 17.7677 3.24622 17.8741 3.19784C17.9805 3.1543 18.3434 3.14946 18.3482 3.00916ZM16.2292 1.87224C16.2292 1.87224 15.7018 2.27863 15.6486 2.82532C15.6003 3.36717 16.2776 3.21719 16.3259 3.03819C16.3792 2.85435 16.1228 2.49634 16.1421 2.38023C16.1615 2.26412 16.3405 1.95449 16.2292 1.87708V1.87224ZM14.8455 1.5481C14.8455 1.5481 14.6036 2.16736 14.8407 2.66083C15.0778 3.1543 15.5809 2.6705 15.5325 2.4915C15.4841 2.31249 15.0729 2.13349 15.0294 2.02222C14.9858 1.91578 14.981 1.55777 14.8455 1.5481ZM10.9268 3.93321C10.9268 3.93321 11.3574 3.43007 11.2945 2.88337C11.2316 2.34152 10.5978 2.6318 10.5833 2.82048C10.5736 3.00916 10.8977 3.30428 10.9074 3.42523C10.9074 3.54134 10.801 3.88 10.9268 3.93321Z" fill="#FFD200" stroke="#EF8A10" stroke-width="0.245124"/>
<path fill-rule="evenodd" clip-rule="evenodd" d="M13.2639 5.01695C13.2639 5.01695 14.2943 5.08468 14.3476 5.67491C14.4008 6.26514 14.1008 6.62315 14.1008 6.62315C14.1008 6.62315 14.2314 7.90038 13.2203 8.2729C12.1414 8.40353 10.4482 8.30193 10.4482 8.30193C10.4482 8.30193 9.95468 8.42771 9.75148 7.39723C9.54829 6.36674 9.49023 5.63621 9.49023 5.63621C9.49023 5.63621 9.59183 5.06049 10.3175 5.02662C11.0432 4.98792 13.259 5.03146 13.2687 5.01695H13.2639Z" fill="#8C8A8C" stroke="black" stroke-width="0.245124"/>
<path d="M14.0963 6.61829C14.0963 6.61829 13.5399 7.31012 13.598 7.58588" stroke="black" stroke-width="0.245124" stroke-linecap="round"/>
<path fill-rule="evenodd" clip-rule="evenodd" d="M13.3514 8.23909C13.4868 8.3552 13.6175 8.48099 13.6465 8.90673L13.7045 9.75821L14.4254 16.2411L15.0592 20.9291L15.1027 21.6548C15.1027 21.6548 14.9527 22.187 14.5222 22.2353C14.2174 22.8788 12.5386 23.0675 12.3741 23.0578C12.2241 23.053 11.6871 22.8304 11.363 22.8594C11.0388 22.8885 10.4776 23.1013 10.226 23.0675C9.97447 23.0336 9.40359 22.8352 9.30683 22.424C8.60049 22.2015 8.48438 21.6645 8.48438 21.6645L9.24878 16.2411L9.98898 9.38085C9.98898 9.38085 10.0761 8.46648 10.4438 8.33101C10.826 8.29715 12.7998 8.36972 13.3514 8.23425V8.23909Z" fill="#8C8A8C" stroke="black" stroke-width="0.245124"/>
<path d="M9.4615 17.6248L9.31152 22.4192M14.1253 18.2585L14.5462 22.2112" stroke="black" stroke-width="0.245124"/>
<path d="M1.80255 15.1283L1.7832 15.1864M21.7253 14.959L21.7398 15.0074" stroke="black" stroke-width="0.129012"/>
<path d="M1.26559 8.65511C1.26559 8.65511 1.58489 9.09052 1.63811 9.3421C1.69616 9.59367 1.8026 10.0871 1.93806 10.2903C2.07836 10.4887 2.85728 11.6159 2.90566 12.0852C2.90566 12.39 2.57668 12.9174 2.0832 12.927C1.77841 12.9174 0.984984 12.7142 0.951118 12.0368C0.917252 11.3595 1.19302 11.3402 1.22688 10.9241C1.26075 10.5129 1.26559 8.66478 1.26559 8.65027V8.65511Z" stroke="#6B18B5" stroke-width="0.245124" stroke-linejoin="round"/>
<path d="M6.68942 2.70923C6.68942 2.70923 6.36043 2.72858 6.10886 2.86404C5.91534 2.98499 5.58636 3.15432 5.35414 3.47846C4.76874 3.93323 3.88339 4.1461 3.60763 4.5283C3.4383 4.78472 3.44798 5.40881 3.86888 5.67006C4.13497 5.82488 4.91872 6.06194 5.29608 5.50073C5.68312 4.93469 5.4509 4.77504 5.63474 4.40735C5.94921 3.56071 6.68458 2.71406 6.68942 2.70439V2.70923ZM14.6092 1.8771C14.6092 1.8771 14.3673 1.65455 14.0915 1.5723C13.869 1.51425 13.5013 1.53844 13.1191 1.49973C12.3789 1.39814 11.6193 0.865961 11.1549 0.928854C10.8549 0.991748 10.4147 1.432 10.5162 1.91096C10.5888 2.21092 10.9226 2.81566 11.5951 2.69471C12.2628 2.5786 12.2579 2.42862 12.6546 2.30768C13.6174 1.76582 14.5995 1.87226 14.6092 1.87226V1.8771ZM22.466 9.51141C22.5241 9.38562 22.4177 9.1534 22.3499 8.8728C22.2774 8.65509 22.1758 8.31643 21.9193 8.01648C21.6145 7.33916 21.6678 6.40543 21.3678 6.04742C21.1549 5.82004 20.5454 5.67974 20.1922 6.02324C19.9793 6.24578 19.5633 6.94729 20.018 7.45527C20.4728 7.95842 20.6711 7.76974 20.9856 8.03583C21.7355 8.53898 22.0983 9.41949 22.466 9.51141ZM22.2048 15.4524C22.3015 15.3073 22.4902 15.0412 22.466 14.8138C22.4515 14.63 22.5483 14.0881 22.5628 13.8462C22.6305 13.1109 23.095 12.5061 22.9643 11.8627C22.8918 11.5675 22.4515 11.137 21.9774 11.2628C21.6823 11.3547 21.0292 11.7127 21.1791 12.3755C21.3291 13.0431 21.542 13.0286 21.6871 13.4205C22.0935 14.2236 21.8323 15.1767 22.2048 15.4524Z" stroke="#6B18B5" stroke-width="0.129012" stroke-linejoin="round"/>
<path d="M16.752 20.1647C16.752 20.1647 16.6262 20.4066 17.1293 20.6146M17.7583 19.5938C17.7583 19.5938 18.3147 19.4583 18.692 19.5938M19.4274 18.1811C19.4274 18.1908 19.35 18.4327 19.7951 18.781M19.7467 17.5522C19.7467 17.5522 20.0757 17.7941 20.6272 17.7844M16.4327 18.2585C16.4327 18.2585 16.452 18.8971 16.1231 19.1971M17.5357 17.2716C17.5357 17.2716 18.0728 17.407 18.5178 17.1845M20.9997 16.3378C20.9997 16.3378 21.1158 16.5023 21.7157 16.4733M18.6678 15.9605C18.6823 15.9701 19.3693 16.1927 19.8047 15.9895M20.037 13.3286C20.037 13.3286 20.066 13.2947 20.2789 14.0398M20.5691 11.2338C20.5691 11.2338 20.5401 11.6305 20.2208 11.8047M22.6059 9.61305C22.6059 9.61305 22.1415 9.99042 22.2286 10.1452M20.2934 9.34213C20.2934 9.34213 20.5353 9.74852 20.1434 10.0291M19.1274 7.6053C19.1274 7.6053 19.5435 7.58595 19.7273 7.94395M18.3437 6.42483H18.663M19.9983 4.97344C19.9983 4.98796 20.0853 5.06536 19.9209 5.22985M17.0326 5.01698C17.0326 5.01698 17.2551 5.36532 17.2164 5.79106M18.3147 3.83652C18.4114 3.82684 18.7404 3.6817 18.7404 3.6817M16.8875 2.45286C16.8778 2.45286 16.7617 2.88828 16.9745 3.04309M16.3504 4.43643C16.3504 4.90087 16.7181 4.78476 16.4665 5.22985M15.4506 4.04939C15.2364 4.19914 15.0414 4.37462 14.87 4.57189M13.9653 3.80749C13.9653 3.80749 14.2072 4.04939 14.1492 4.37837M13.259 3.61397C13.259 3.61397 13.1332 3.98166 12.9687 4.07842M11.9721 3.51721C11.9624 3.53657 11.7689 3.95263 11.6334 4.03004M10.2159 3.52689C10.2256 3.52689 10.4094 3.91393 10.1675 4.19453M9.8095 1.52881C9.81918 1.53848 9.84821 1.82876 9.66436 2.08034M8.06783 2.18677C8.06783 2.19645 8.15008 2.51575 7.63242 2.62219M7.0954 5.12826C7.10508 5.14761 7.58888 5.22502 7.58888 5.22502M5.89075 6.24583C6.08493 6.18156 6.28008 6.12027 6.47614 6.06199M4.95218 6.97152C4.97153 6.97152 5.35857 7.03926 5.45533 6.99088M4.68126 7.32953C4.68126 7.32953 4.80704 7.39726 4.70061 8.04555M2.79445 5.62657L3.03151 5.9749M2.00586 7.41662C2.00586 7.40694 2.23808 7.76495 2.54771 7.83268M3.82977 9.23569C3.83945 9.23569 4.20714 9.15345 4.26519 9.11474M3.66528 10.5468C3.67496 10.5468 3.65561 10.3049 3.95556 10.1404M3.26857 11.1467C3.26857 11.1564 3.54917 11.5047 3.74269 11.5531M3.10408 11.8095C3.13311 11.7998 3.43306 11.5386 3.78139 11.5579M3.00732 12.7094C3.00732 12.7094 3.01699 13.0093 3.90718 12.9319M3.0944 13.7689C3.0944 13.7592 3.35565 13.169 3.88783 12.9464M3.81042 14.5236C3.81042 14.5236 3.88783 14.272 4.33292 14.0979M4.30389 15.5154C4.30389 15.5154 4.6232 15.2541 4.73931 15.2154M4.70061 16.2895C4.70061 16.2895 4.89413 16.4926 5.37792 16.1443M2.36871 16.4491C2.42676 16.4394 3.12827 16.2749 3.37017 16.6426M2.64447 17.0297C2.64447 17.0297 3.38952 16.9329 3.48628 17.0103M5.30535 17.1845C5.30535 17.1845 5.2086 17.3877 6.12781 17.049M6.44228 17.5522C6.27779 17.8279 6.48098 18.0505 6.26811 18.1811M3.65561 17.9392C3.6798 17.915 3.99426 17.8086 3.94589 17.3683M3.93137 18.602C3.97007 18.5923 4.4829 18.3698 4.58933 18.4859M4.93283 19.2551C4.93283 19.2551 5.00056 18.8004 5.1457 18.752M5.70207 19.9421C5.70207 19.9421 6.12781 19.9324 6.31165 19.797M6.52452 18.4036C6.5342 18.4133 6.92124 18.6165 7.74369 18.4133M6.83415 20.2517C6.83415 20.2517 6.95026 20.8371 6.94059 20.9774" stroke="black" stroke-width="0.245124"/>
<path fill-rule="evenodd" clip-rule="evenodd" d="M21.6727 11.184C21.6497 10.9997 21.5551 10.8243 21.4363 10.7456C21.2984 10.6599 21.1553 10.6778 21.0606 10.7925C20.966 10.9073 20.9073 11.0925 20.9304 11.2768C20.9546 11.4703 21.048 11.6364 21.168 11.7244C21.3059 11.8101 21.449 11.7922 21.5437 11.6774C21.6383 11.5627 21.7059 11.3764 21.6739 11.1932L21.6727 11.184Z" fill="#DE2010" stroke="black" stroke-width="0.325311"/>
<path fill-rule="evenodd" clip-rule="evenodd" d="M21.5907 10.2019C21.5677 10.0176 21.4731 9.84227 21.3542 9.76353C21.2163 9.67781 21.0732 9.6957 20.9786 9.81048C20.8839 9.92527 20.8253 10.1104 20.8483 10.2947C20.8725 10.4882 20.966 10.6544 21.086 10.7423C21.2239 10.8281 21.367 10.8102 21.4616 10.6954C21.5563 10.5806 21.6238 10.3943 21.5919 10.2111L21.5907 10.2019Z" fill="#DE2010" stroke="black" stroke-width="0.325311"/>
<path fill-rule="evenodd" clip-rule="evenodd" d="M21.3883 9.15789C21.3492 8.97632 21.2395 8.80995 21.1142 8.74196C20.9693 8.6687 20.8284 8.69909 20.7442 8.82175C20.6599 8.94441 20.6178 9.13399 20.657 9.31556C20.6981 9.50621 20.8058 9.6635 20.933 9.74057C21.0779 9.81383 21.2189 9.78344 21.3031 9.66078C21.3873 9.53812 21.4382 9.34664 21.3903 9.16697L21.3883 9.15789Z" fill="#DE2010" stroke="black" stroke-width="0.325312"/>
<path fill-rule="evenodd" clip-rule="evenodd" d="M21.0263 8.06367C20.9422 7.89808 20.7937 7.76516 20.6552 7.73136C20.4965 7.69745 20.3679 7.76278 20.3177 7.90285C20.2676 8.04292 20.2752 8.23698 20.3593 8.40257C20.4476 8.57644 20.5919 8.70108 20.7346 8.74316C20.8934 8.77707 21.0219 8.71174 21.0721 8.57167C21.1222 8.4316 21.1227 8.23346 21.0305 8.07195L21.0263 8.06367Z" fill="#DE2010" stroke="black" stroke-width="0.325311"/>
<path fill-rule="evenodd" clip-rule="evenodd" d="M20.6396 7.18318C20.5554 7.01759 20.407 6.88466 20.2685 6.85087C20.1097 6.81695 19.9812 6.88228 19.931 7.02236C19.8808 7.16243 19.8884 7.35649 19.9726 7.52208C20.0609 7.69595 20.2051 7.82059 20.3479 7.86267C20.5066 7.89658 20.6352 7.83125 20.6854 7.69118C20.7355 7.55111 20.736 7.35297 20.6438 7.19146L20.6396 7.18318Z" fill="#DE2010" stroke="black" stroke-width="0.325311"/>
<path fill-rule="evenodd" clip-rule="evenodd" d="M20.0908 6.30099C19.993 6.14312 19.8338 6.02324 19.693 6.00129C19.5319 5.98095 19.4093 6.05693 19.3712 6.20074C19.3331 6.34456 19.3571 6.53728 19.4549 6.69515C19.5577 6.86091 19.7119 6.9729 19.8577 7.00274C20.0188 7.02308 20.1414 6.9471 20.1795 6.80329C20.2176 6.65947 20.2012 6.462 20.0957 6.30888L20.0908 6.30099Z" fill="#DE2010" stroke="black" stroke-width="0.325312"/>
<path fill-rule="evenodd" clip-rule="evenodd" d="M19.4757 5.44871C19.363 5.30104 19.193 5.19711 19.0507 5.18888C18.8884 5.18421 18.7737 5.27168 18.7497 5.41851C18.7257 5.56534 18.7682 5.75483 18.8809 5.9025C18.9992 6.05756 19.1635 6.1541 19.3115 6.16971C19.4738 6.17439 19.5884 6.08691 19.6125 5.94008C19.6365 5.79326 19.6011 5.59829 19.4813 5.45609L19.4757 5.44871Z" fill="#DE2010" stroke="black" stroke-width="0.325312"/>
<path fill-rule="evenodd" clip-rule="evenodd" d="M18.7437 4.65941C18.6109 4.52963 18.4276 4.45143 18.2856 4.46393C18.1243 4.48283 18.0236 4.586 18.0211 4.73476C18.0186 4.88353 18.0881 5.06485 18.221 5.19463C18.3605 5.3309 18.5371 5.4026 18.6858 5.3966C18.847 5.3777 18.9478 5.27452 18.9503 5.12576C18.9528 4.977 18.8896 4.78922 18.7504 4.66589L18.7437 4.65941Z" fill="#DE2010" stroke="black" stroke-width="0.325313"/>
<path fill-rule="evenodd" clip-rule="evenodd" d="M17.9197 3.92564C17.7755 3.80863 17.5858 3.74763 17.4456 3.77313C17.2867 3.80678 17.1959 3.91879 17.2071 4.06715C17.2183 4.21551 17.3042 4.38967 17.4485 4.50667C17.5999 4.62953 17.7824 4.68468 17.9299 4.66503C18.0887 4.63138 18.1796 4.51937 18.1684 4.37101C18.1572 4.22265 18.0769 4.04149 17.927 3.93149L17.9197 3.92564Z" fill="#DE2010" stroke="black" stroke-width="0.325311"/>
<path fill-rule="evenodd" clip-rule="evenodd" d="M17.0443 3.34336C16.8826 3.25193 16.6854 3.22326 16.5513 3.27169C16.4003 3.33125 16.3293 3.45678 16.365 3.60122C16.4006 3.74566 16.5143 3.90314 16.676 3.99458C16.8457 4.09059 17.0348 4.11468 17.177 4.07082C17.328 4.01127 17.399 3.88573 17.3633 3.74129C17.3277 3.59685 17.2184 3.43152 17.0523 3.34793L17.0443 3.34336Z" fill="#DE2010" stroke="black" stroke-width="0.325312"/>
<path fill-rule="evenodd" clip-rule="evenodd" d="M16.0653 2.829C15.896 2.75266 15.697 2.74206 15.5679 2.8025C15.4229 2.87555 15.3636 3.00703 15.4123 3.14762C15.461 3.28822 15.5885 3.4347 15.7578 3.51104C15.9356 3.59119 16.1261 3.59798 16.2637 3.54136C16.4087 3.4683 16.468 3.33683 16.4193 3.19623C16.3706 3.05564 16.2468 2.90094 16.0738 2.83282L16.0653 2.829Z" fill="#DE2010" stroke="black" stroke-width="0.325311"/>
<path fill-rule="evenodd" clip-rule="evenodd" d="M15.1089 2.44043C14.9348 2.37561 14.7356 2.37837 14.6108 2.44733C14.471 2.52994 14.4207 2.66509 14.4787 2.80211C14.5367 2.93912 14.6737 3.07672 14.8478 3.14154C15.0305 3.2096 15.2211 3.2036 15.3546 3.13788C15.4943 3.05527 15.5447 2.92012 15.4867 2.7831C15.4287 2.64608 15.2948 2.50004 15.1176 2.44367L15.1089 2.44043Z" fill="#DE2010" stroke="black" stroke-width="0.325312"/>
<path fill-rule="evenodd" clip-rule="evenodd" d="M14.1359 2.13379C13.9574 2.08245 13.7589 2.1004 13.6398 2.17868C13.5067 2.27172 13.4669 2.41032 13.5351 2.54251C13.6034 2.6747 13.7506 2.80144 13.9291 2.85279C14.1165 2.9067 14.306 2.88618 14.4341 2.81046C14.5671 2.71743 14.607 2.57882 14.5387 2.44663C14.4705 2.31444 14.3258 2.17904 14.1448 2.13636L14.1359 2.13379Z" fill="#DE2010" stroke="black" stroke-width="0.325313"/>
<path fill-rule="evenodd" clip-rule="evenodd" d="M13.061 1.95225C12.8767 1.92901 12.6834 1.97731 12.5777 2.07301C12.4606 2.18543 12.4425 2.32852 12.5304 2.44861C12.6182 2.56871 12.7831 2.67128 12.9674 2.69452C13.1609 2.71893 13.345 2.66946 13.4598 2.57493C13.577 2.46251 13.595 2.31942 13.5072 2.19932C13.4194 2.07922 13.2556 1.96771 13.0702 1.95342L13.061 1.95225Z" fill="#DE2010" stroke="black" stroke-width="0.325311"/>
<path fill-rule="evenodd" clip-rule="evenodd" d="M12.0032 1.89513C11.8176 1.88768 11.6291 1.95228 11.532 2.05663C11.4248 2.17862 11.419 2.32273 11.5168 2.43491C11.6145 2.54708 11.7876 2.63522 11.9731 2.64268C12.168 2.6505 12.3472 2.58553 12.4536 2.48155C12.5608 2.35955 12.5666 2.21545 12.4688 2.10327C12.3711 1.99109 12.1984 1.89395 12.0124 1.8955L12.0032 1.89513Z" fill="#DE2010" stroke="black" stroke-width="0.325312"/>
<path fill-rule="evenodd" clip-rule="evenodd" d="M11.0305 1.92418C10.8449 1.91673 10.6564 1.98133 10.5593 2.08568C10.4522 2.20768 10.4464 2.35178 10.5441 2.46396C10.6418 2.57614 10.8149 2.66428 11.0005 2.67173C11.1954 2.67955 11.3746 2.61458 11.481 2.5106C11.5881 2.38861 11.5939 2.2445 11.4962 2.13232C11.3984 2.02015 11.2257 1.923 11.0398 1.92455L11.0305 1.92418Z" fill="#DE2010" stroke="black" stroke-width="0.325312"/>
<path fill-rule="evenodd" clip-rule="evenodd" d="M9.89775 2.06406C9.71668 2.10545 9.55168 2.21714 9.48525 2.34328C9.41379 2.48906 9.44593 2.62965 9.56962 2.71234C9.69331 2.79502 9.88341 2.83478 10.0645 2.79339C10.2546 2.74993 10.4105 2.64032 10.486 2.51211C10.5575 2.36632 10.5254 2.22573 10.4017 2.14305C10.278 2.06036 10.0859 2.01181 9.90681 2.06199L9.89775 2.06406Z" fill="#DE2010" stroke="black" stroke-width="0.325312"/>
<path fill-rule="evenodd" clip-rule="evenodd" d="M8.86256 2.32126C8.68552 2.37745 8.5303 2.50236 8.4745 2.63355C8.4153 2.78474 8.45892 2.9222 8.58901 2.9944C8.7191 3.0666 8.91183 3.09055 9.08887 3.03436C9.27476 2.97537 9.42114 2.85326 9.48579 2.71926C9.54499 2.56808 9.50136 2.43061 9.37127 2.35842C9.24118 2.28622 9.04573 2.25368 8.87142 2.31845L8.86256 2.32126Z" fill="#DE2010" stroke="black" stroke-width="0.325313"/>
<path fill-rule="evenodd" clip-rule="evenodd" d="M7.91916 2.72908C7.75008 2.80595 7.61083 2.94847 7.57106 3.08537C7.53029 3.24253 7.58997 3.37382 7.72774 3.43001C7.8655 3.48619 8.05971 3.48702 8.22879 3.41015C8.40633 3.32943 8.53712 3.19076 8.58535 3.05001C8.62612 2.89285 8.56643 2.76156 8.42867 2.70538C8.29091 2.64919 8.09297 2.64016 7.92762 2.72524L7.91916 2.72908Z" fill="#DE2010" stroke="black" stroke-width="0.325311"/>
<path fill-rule="evenodd" clip-rule="evenodd" d="M6.97801 3.2108C6.8161 3.30182 6.68952 3.45569 6.66157 3.59549C6.63436 3.75555 6.70503 3.88127 6.84708 3.9255C6.98913 3.96973 7.1827 3.95398 7.34461 3.86297C7.51462 3.7674 7.6331 3.61808 7.66914 3.47373C7.69636 3.31367 7.62569 3.18795 7.48364 3.14372C7.34158 3.09949 7.1436 3.10738 6.98611 3.20625L6.97801 3.2108Z" fill="#DE2010" stroke="black" stroke-width="0.32531"/>
<path fill-rule="evenodd" clip-rule="evenodd" d="M6.08962 3.81359C5.93856 3.92166 5.82946 4.08838 5.81686 4.23039C5.8072 4.39246 5.89112 4.50975 6.03714 4.53829C6.18316 4.56682 6.37387 4.53013 6.52493 4.42206C6.68354 4.30859 6.78509 4.14727 6.80524 3.99986C6.8149 3.83779 6.73099 3.72049 6.58497 3.69196C6.43895 3.66343 6.24299 3.69278 6.09718 3.80819L6.08962 3.81359Z" fill="#DE2010" stroke="black" stroke-width="0.325311"/>
<path fill-rule="evenodd" clip-rule="evenodd" d="M5.26441 4.43663C5.12304 4.5571 5.02843 4.73245 5.0279 4.87501C5.03199 5.03732 5.12553 5.14709 5.27344 5.16316C5.42135 5.17924 5.60827 5.12654 5.74965 5.00608C5.89809 4.87959 5.98563 4.71026 5.99323 4.56167C5.98914 4.39937 5.8956 4.28959 5.74769 4.27352C5.59978 4.25745 5.40701 4.30328 5.27148 4.43061L5.26441 4.43663Z" fill="#DE2010" stroke="black" stroke-width="0.32531"/>
<path fill-rule="evenodd" clip-rule="evenodd" d="M4.53749 5.19793C4.40511 5.32822 4.32332 5.5099 4.33301 5.65214C4.34873 5.81373 4.4499 5.91652 4.59858 5.92195C4.74726 5.92737 4.92992 5.86141 5.0623 5.73112C5.20129 5.59431 5.27646 5.41914 5.27339 5.27039C5.25768 5.1088 5.15651 5.00601 5.00783 5.00059C4.85914 4.99516 4.67016 5.0547 4.54411 5.19141L4.53749 5.19793Z" fill="#DE2010" stroke="black" stroke-width="0.325311"/>
<path fill-rule="evenodd" clip-rule="evenodd" d="M3.91373 6.04384C3.79272 6.18475 3.72643 6.37265 3.74799 6.51357C3.77718 6.67329 3.8866 6.76724 4.03521 6.76021C4.18382 6.75317 4.36033 6.67215 4.48133 6.53123C4.60838 6.38327 4.66863 6.20242 4.65312 6.05445C4.62393 5.89473 4.51451 5.80078 4.3659 5.80782C4.21728 5.81485 4.03394 5.89 3.91978 6.03679L3.91373 6.04384Z" fill="#DE2010" stroke="black" stroke-width="0.325312"/>
<path fill-rule="evenodd" clip-rule="evenodd" d="M3.34363 6.90601C3.23834 7.05902 3.19246 7.25292 3.22893 7.39074C3.27498 7.54643 3.39379 7.62818 3.54081 7.60534C3.68783 7.58249 3.85468 7.48312 3.95997 7.3301C4.07052 7.16943 4.11114 6.98319 4.07993 6.83772C4.03388 6.68203 3.91507 6.60028 3.76805 6.62312C3.62103 6.64596 3.44675 6.74023 3.34889 6.89836L3.34363 6.90601Z" fill="#DE2010" stroke="black" stroke-width="0.325312"/>
<path fill-rule="evenodd" clip-rule="evenodd" d="M2.86582 7.88754C2.78839 8.05637 2.77649 8.25526 2.83609 8.38477C2.90821 8.53023 3.03929 8.59036 3.1802 8.5426C3.32111 8.49484 3.46841 8.36828 3.54585 8.19945C3.62715 8.02218 3.63517 7.83173 3.57945 7.69378C3.50734 7.54831 3.37625 7.48819 3.23534 7.53595C3.09443 7.58371 2.93894 7.70651 2.86969 7.8791L2.86582 7.88754Z" fill="#DE2010" stroke="black" stroke-width="0.325311"/>
<path fill-rule="evenodd" clip-rule="evenodd" d="M2.48429 8.91363C2.42248 9.08878 2.42867 9.28793 2.49976 9.4115C2.58477 9.54983 2.72077 9.59782 2.85676 9.53749C2.99276 9.47715 3.12798 9.33775 3.18979 9.1626C3.25469 8.97869 3.24542 8.7883 3.17741 8.65597C3.09241 8.51764 2.95641 8.46964 2.82041 8.52998C2.68442 8.59032 2.5407 8.72672 2.48739 8.90487L2.48429 8.91363Z" fill="#DE2010" stroke="black" stroke-width="0.325309"/>
<path fill-rule="evenodd" clip-rule="evenodd" d="M2.16048 10.8489C2.14333 10.9971 2.19798 11.1507 2.2971 11.2329C2.41332 11.3237 2.55692 11.3344 2.67406 11.2609C2.7912 11.1874 2.88828 11.0525 2.90543 10.9043C2.92345 10.7486 2.86794 10.6024 2.76967 10.5128C2.65346 10.422 2.50985 10.4113 2.39271 10.4848C2.27557 10.5583 2.16952 10.6925 2.16134 10.8414L2.16048 10.8489Z" fill="#DE2010" stroke="black" stroke-width="0.291389"/>
<path fill-rule="evenodd" clip-rule="evenodd" d="M2.24626 9.94594C2.20498 10.127 2.23401 10.3242 2.31883 10.4387C2.41916 10.5664 2.55978 10.5984 2.68794 10.5229C2.8161 10.4473 2.93441 10.2933 2.97569 10.1122C3.01903 9.92206 2.98794 9.73399 2.90519 9.61035C2.80485 9.4827 2.66424 9.45065 2.53607 9.52621C2.40791 9.60178 2.28081 9.75378 2.24832 9.93688L2.24626 9.94594Z" fill="#DE2010" stroke="black" stroke-width="0.325311"/>
<path fill-rule="evenodd" clip-rule="evenodd" d="M20.8987 9.48246C21.0148 9.35183 21.126 9.31313 21.2663 9.36151C21.218 9.02285 21.1115 8.91158 20.9761 8.95028C20.8503 8.98898 20.7922 9.16315 20.8938 9.48246H20.8987ZM21.0777 10.4984C21.2083 10.3775 21.3196 10.3533 21.455 10.4017C21.4308 10.063 21.3341 9.94206 21.2035 9.97593C21.068 10.005 21.0003 10.1694 21.0777 10.4936V10.4984ZM20.6422 8.54873C20.7293 8.39391 20.8261 8.33102 20.9761 8.3407C20.8406 8.03107 20.71 7.94398 20.5939 8.01655C20.4778 8.08912 20.4632 8.27296 20.6422 8.54873ZM20.1923 7.62952C20.2746 7.46986 20.3762 7.40697 20.5213 7.41664C20.3907 7.10218 20.2552 7.01993 20.1391 7.0925C20.0278 7.16507 20.0133 7.34891 20.1923 7.62468V7.62952ZM19.1086 5.92655C19.1667 5.76206 19.2537 5.68465 19.3989 5.6653C19.2199 5.37502 19.0747 5.31697 18.9731 5.40889C18.8716 5.50081 18.8861 5.67981 19.1086 5.92655ZM18.3974 5.18634C18.4458 5.01701 18.5329 4.9396 18.6829 4.92025C18.4894 4.63965 18.3442 4.58159 18.2475 4.67835C18.1459 4.77028 18.1652 4.94928 18.3974 5.18634ZM16.9073 3.92847C16.9073 3.7543 16.9557 3.64787 17.0912 3.58981C16.8251 3.37694 16.6654 3.3721 16.6025 3.49305C16.5348 3.60916 16.6171 3.77365 16.9073 3.92847ZM17.6814 4.50903C17.7104 4.33486 17.7782 4.24294 17.9233 4.20423C17.6959 3.95266 17.5411 3.91879 17.4589 4.02523C17.3718 4.13166 17.4202 4.30583 17.6862 4.50903H17.6814ZM16.022 3.43983C16.0026 3.26567 16.0462 3.15923 16.1671 3.08182C15.8768 2.90282 15.7269 2.90766 15.6737 3.03345C15.6204 3.15923 15.7172 3.31888 16.022 3.43983ZM15.1173 3.04796C15.0689 2.87863 15.0979 2.76736 15.214 2.6706C14.8996 2.53513 14.7496 2.569 14.7157 2.69963C14.6819 2.83025 14.798 2.97055 15.1173 3.04796ZM14.1449 2.748C14.082 2.58351 14.1013 2.4674 14.2077 2.36097C13.8836 2.25453 13.7336 2.29807 13.7094 2.43354C13.6901 2.569 13.8159 2.69963 14.1449 2.748ZM13.1869 2.56416C13.1144 2.40451 13.124 2.2884 13.2208 2.17712C12.8918 2.09004 12.7467 2.14326 12.7322 2.27872C12.7177 2.41418 12.8531 2.53513 13.1869 2.55932V2.56416ZM12.171 2.48675C12.0839 2.33194 12.079 2.21583 12.171 2.09972C11.8323 2.0465 11.6872 2.11423 11.6872 2.24969C11.692 2.38516 11.842 2.49159 12.171 2.48675ZM10.1874 2.63189C10.0664 2.50611 10.0326 2.39483 10.0906 2.25937C9.75198 2.2884 9.63103 2.39 9.6649 2.52062C9.69876 2.65608 9.86809 2.72382 10.1874 2.63189ZM11.1647 2.50611C11.0582 2.36097 11.0437 2.24969 11.1163 2.11907C10.7776 2.10455 10.6422 2.1868 10.6615 2.32226C10.676 2.45773 10.8357 2.54965 11.1647 2.50611ZM9.22948 2.84476C9.08434 2.73349 9.0408 2.62706 9.07466 2.48192C8.74568 2.56416 8.63925 2.68027 8.69246 2.80606C8.74568 2.93185 8.92469 2.97539 9.22464 2.83993L9.22948 2.84476ZM7.39105 3.68657C7.23623 3.60433 7.1685 3.50757 7.17334 3.36243C6.86371 3.50757 6.7863 3.63819 6.85887 3.74946C6.93628 3.86558 7.12012 3.87525 7.39105 3.68657ZM8.2764 3.2318C8.13126 3.13504 8.07804 3.03345 8.10223 2.88831C7.77809 2.9899 7.68133 3.11569 7.74422 3.23664C7.80228 3.35759 7.98612 3.38662 8.2764 3.23664V3.2318ZM5.74614 4.82833C5.57681 4.78963 5.48973 4.70738 5.46554 4.56224C5.19461 4.76544 5.14139 4.91541 5.23815 5.00734C5.33491 5.1041 5.51876 5.07023 5.74614 4.83317V4.82833ZM6.52989 4.19456C6.3654 4.1365 6.28799 4.04942 6.27348 3.90428C5.9832 4.08328 5.92515 4.22842 6.01223 4.33002C6.10415 4.43162 6.28316 4.4171 6.52989 4.19456ZM5.04464 5.51532C4.87531 5.48629 4.78339 5.41373 4.74468 5.27342C4.48827 5.49597 4.4544 5.65079 4.56084 5.73303C4.66244 5.82011 4.84144 5.77657 5.04464 5.51532ZM4.42054 6.3281C4.24637 6.31359 4.14961 6.25069 4.09639 6.11039C3.86417 6.36197 3.84482 6.51678 3.95609 6.59419C4.06737 6.66676 4.24153 6.60387 4.42054 6.3281ZM3.89804 7.16023C3.72387 7.17475 3.61743 7.12637 3.54486 6.99574C3.35135 7.28118 3.35135 7.436 3.47713 7.49405C3.60292 7.55211 3.76257 7.46502 3.89804 7.16023ZM3.43843 8.05042C3.26426 8.08428 3.15299 8.05042 3.06591 7.93431C2.91593 8.23426 2.93528 8.38908 3.06591 8.43262C3.19653 8.47132 3.34167 8.36489 3.43843 8.04558V8.05042ZM3.07074 8.95996C2.90625 9.02285 2.79014 9.00834 2.68371 8.9019C2.58695 9.22605 2.63049 9.37602 2.76111 9.39537C2.89658 9.41473 3.0272 9.2841 3.07074 8.95996ZM2.82401 9.97593C2.66435 10.0437 2.54824 10.0388 2.43697 9.94206C2.35472 10.271 2.41278 10.4162 2.54824 10.4259C2.68371 10.4404 2.80466 10.3001 2.82401 9.97109V9.97593ZM2.72725 10.8177C2.57243 10.8951 2.45632 10.9048 2.34021 10.8468C2.29183 11.1129 2.3644 11.2193 2.49986 11.2096C2.63533 11.1999 2.74176 11.079 2.72241 10.8177H2.72725ZM19.7908 6.80222C19.8488 6.63773 19.9359 6.56032 20.081 6.54581C19.9069 6.25553 19.7617 6.19264 19.6601 6.27972C19.5585 6.37164 19.5731 6.55065 19.7908 6.80222ZM21.1889 11.5241C21.3196 11.408 21.4308 11.3789 21.5663 11.437C21.5421 11.0983 21.4453 10.9726 21.3147 11.0016C21.1793 11.0354 21.1115 11.2048 21.1889 11.5241Z" fill="#FFE300"/>
<path fill-rule="evenodd" clip-rule="evenodd" d="M19.8576 5.99903C19.8528 5.99903 19.4706 6.37639 19.5383 6.84084C19.6012 7.30528 19.8963 7.87616 19.8431 8.35512C19.7899 8.83892 19.698 9.15339 19.698 9.15339C19.698 9.15339 20.1479 8.6454 20.1527 8.15677C20.1576 7.67297 19.8479 7.02468 19.8479 6.66667C19.8479 6.30866 19.8625 5.98936 19.8576 5.99419V5.99903ZM20.5591 7.54718C20.5591 7.54718 20.2592 7.76973 20.2882 8.27288C20.3172 8.77603 20.8397 9.70492 20.8397 9.70492C20.8397 9.70492 21.2219 10.4887 21.2074 10.6919C21.1977 10.8951 21.28 10.4983 21.2413 10.0484C21.2026 9.60332 20.6269 8.61637 20.6269 8.61637C20.6269 8.61637 20.5059 8.41318 20.5156 8.07936C20.5301 7.7407 20.564 7.55202 20.5591 7.54718Z" fill="#217900" stroke="black" stroke-width="0.245124" stroke-linejoin="round"/>
<path fill-rule="evenodd" clip-rule="evenodd" d="M11.6097 1.29655C11.6097 1.19011 11.4888 1.10303 11.3437 1.10303C11.1985 1.10303 11.0824 1.19011 11.0824 1.29655C11.0824 1.39814 11.1985 1.48523 11.3437 1.48523C11.4888 1.48523 11.6049 1.39814 11.6049 1.29171L11.6097 1.29655ZM11.721 1.73196C11.721 1.6352 11.5952 1.55296 11.4501 1.55296C11.3001 1.55296 11.1792 1.6352 11.1792 1.7368C11.1792 1.8384 11.3001 1.91581 11.4501 1.91581C11.5952 1.91581 11.721 1.83356 11.721 1.73196ZM12.0548 1.2143C12.0548 1.2143 11.7452 1.44652 11.871 1.53844C12.0016 1.63037 12.3548 1.33525 12.3548 1.33525L12.0548 1.2143ZM21.1357 6.51671C21.1359 6.48544 21.1286 6.45457 21.1142 6.42677C21.0999 6.39896 21.0791 6.37504 21.0535 6.35706C21.0293 6.34042 21.0006 6.33151 20.9712 6.33151C20.9419 6.33151 20.9132 6.34042 20.889 6.35706C20.8643 6.37557 20.8444 6.39972 20.8309 6.42749C20.8174 6.45527 20.8108 6.48586 20.8116 6.51671C20.8114 6.54799 20.8187 6.57885 20.833 6.60666C20.8474 6.63446 20.8682 6.65838 20.8938 6.67637C20.9175 6.69197 20.9453 6.70029 20.9736 6.70029C21.002 6.70029 21.0298 6.69197 21.0535 6.67637C21.0791 6.65838 21.0999 6.63446 21.1142 6.60666C21.1286 6.57885 21.1359 6.54799 21.1357 6.51671ZM21.0148 6.07646C21.0148 5.96519 20.9422 5.8781 20.8454 5.8781C20.7487 5.8781 20.6761 5.96519 20.6761 6.07646C20.6761 6.18773 20.7535 6.27482 20.8454 6.27482C20.9374 6.27482 21.0148 6.18773 21.0148 6.07646ZM21.097 6.97632C21.097 6.91827 21.068 6.86989 21.0293 6.86989C20.9954 6.86989 20.9664 6.91827 20.9664 6.97632C20.9664 7.03438 20.9954 7.07792 21.0293 7.07792C21.068 7.07792 21.097 7.02954 21.097 6.97632ZM21.3679 6.17322C21.3679 6.10549 21.3389 6.05227 21.305 6.05227C21.2663 6.05227 21.2373 6.10549 21.2373 6.17322C21.2373 6.24095 21.2663 6.28933 21.305 6.28933C21.3389 6.28933 21.3679 6.24095 21.3679 6.17322ZM20.6277 6.25063C20.6277 6.20225 20.5987 6.15387 20.56 6.15387C20.5213 6.15387 20.4923 6.20225 20.4923 6.25063C20.4923 6.29901 20.5213 6.34738 20.56 6.34738C20.5987 6.34738 20.6277 6.30384 20.6277 6.25063ZM20.7438 6.88924C20.7438 6.80215 20.6809 6.72959 20.6035 6.72959C20.5261 6.72959 20.4632 6.80215 20.4632 6.88924C20.4632 6.97148 20.5261 7.03921 20.6084 7.03921C20.6906 7.03921 20.7438 6.97148 20.7438 6.8844V6.88924ZM20.3762 6.60864C20.3762 6.53607 20.3229 6.47317 20.2552 6.47317C20.1923 6.47317 20.1391 6.53123 20.1391 6.60864C20.1391 6.68604 20.1923 6.73926 20.2552 6.73926C20.3229 6.73926 20.3762 6.68121 20.3762 6.60864ZM20.3181 6.23127C20.3181 6.19257 20.2987 6.15387 20.2697 6.13451C20.2539 6.12411 20.2354 6.11857 20.2165 6.11857C20.1976 6.11857 20.1791 6.12411 20.1633 6.13451C20.1476 6.1452 20.135 6.15969 20.1265 6.17662C20.1181 6.19355 20.1141 6.21236 20.1149 6.23127C20.1149 6.26998 20.1294 6.30868 20.1633 6.32803C20.1785 6.33745 20.1961 6.34244 20.2141 6.34244C20.232 6.34244 20.2496 6.33745 20.2649 6.32803C20.2805 6.31735 20.2931 6.30286 20.3016 6.28593C20.3101 6.269 20.3141 6.25019 20.3133 6.23127H20.3181ZM21.9969 8.14227C21.8421 7.93908 21.6002 7.85199 21.4502 7.94875C21.305 8.04551 21.305 8.28741 21.4599 8.49061C21.6098 8.6938 21.8566 8.77604 22.0017 8.67929C22.1517 8.58253 22.1468 8.34063 21.9969 8.14227ZM22.4323 11.8482C22.4565 11.6014 22.3355 11.3837 22.1614 11.3644C21.9824 11.3402 21.813 11.524 21.784 11.7707C21.755 12.0126 21.8759 12.2352 22.0549 12.2545C22.2339 12.2739 22.3984 12.0949 22.4274 11.8482H22.4323ZM22.5194 14.0011C22.5677 13.7592 22.471 13.5366 22.2968 13.4979C22.1178 13.4592 21.9388 13.6285 21.8856 13.8704C21.8372 14.1123 21.934 14.3397 22.113 14.3784C22.2871 14.4123 22.471 14.2478 22.5194 14.0059V14.0011ZM22.9354 11.9836C22.9354 11.8869 22.8677 11.8095 22.7903 11.8095C22.7129 11.8095 22.6452 11.8869 22.6452 11.9836C22.6452 12.0804 22.708 12.1626 22.7903 12.1626C22.8725 12.1626 22.9354 12.0804 22.9354 11.9836ZM22.5726 12.39L22.2726 12.7287C22.2726 12.7287 21.9872 12.7383 22.0017 12.8303C22.0211 12.927 22.3936 13.2028 22.3887 13.3141C22.3887 13.4205 22.6403 13.285 22.6403 13.285L22.8435 12.6658C22.8435 12.6658 22.8338 12.24 22.7226 12.2449C22.6113 12.2545 22.5823 12.3803 22.5774 12.39H22.5726ZM2.70789 12.2545C2.70789 12.2161 2.69259 12.1791 2.66538 12.1519C2.63816 12.1247 2.60124 12.1094 2.56275 12.1094C2.52425 12.1094 2.48734 12.1247 2.46012 12.1519C2.4329 12.1791 2.41761 12.2161 2.41761 12.2545C2.41761 12.293 2.4329 12.33 2.46012 12.3572C2.48734 12.3844 2.52425 12.3997 2.56275 12.3997C2.60124 12.3997 2.63816 12.3844 2.66538 12.3572C2.69259 12.33 2.70789 12.293 2.70789 12.2545ZM2.84335 11.8191C2.84335 11.732 2.77562 11.6643 2.69821 11.6643C2.6208 11.6643 2.55307 11.732 2.55307 11.8143C2.55307 11.8965 2.6208 11.9691 2.69821 11.9691C2.77562 11.9691 2.84335 11.9014 2.84335 11.8143V11.8191ZM1.66289 9.72429C1.60967 9.60334 1.49356 9.53561 1.41131 9.57915C1.32423 9.61301 1.30004 9.74364 1.35326 9.86459C1.41131 9.98554 1.52259 10.0533 1.60483 10.0097C1.69191 9.97586 1.7161 9.84524 1.66289 9.72429ZM2.01606 11.0305C1.94349 10.8709 1.78867 10.7838 1.6774 10.837C1.56613 10.8902 1.52258 11.0499 1.59515 11.2047C1.66772 11.3595 1.82738 11.4466 1.94349 11.3982C2.0596 11.3498 2.08863 11.1854 2.01606 11.0257V11.0305ZM2.4031 11.9836C2.42245 11.7901 2.34504 11.6063 2.21925 11.5821C2.09346 11.553 1.97735 11.6933 1.95316 11.8869C1.92414 12.0804 2.00638 12.2642 2.13217 12.2884C2.25312 12.3126 2.37407 12.1771 2.39826 11.9836H2.4031ZM1.78867 12.1191C1.86124 11.9401 1.83705 11.7466 1.72094 11.6837C1.60483 11.6208 1.45969 11.7272 1.38228 11.9062C1.30488 12.0852 1.3339 12.2836 1.44518 12.3416C1.55645 12.3997 1.71126 12.3029 1.78383 12.1239L1.78867 12.1191Z" fill="#6B18B5"/>
<path fill-rule="evenodd" clip-rule="evenodd" d="M1.50786 11.7079C1.50786 11.616 1.43529 11.5434 1.34821 11.5434C1.26113 11.5434 1.18856 11.6209 1.18856 11.7128C1.18856 11.8047 1.26113 11.8773 1.34821 11.8773C1.43529 11.8773 1.50786 11.8047 1.50786 11.7128V11.7079ZM1.38208 11.2967C1.3834 11.2768 1.38063 11.2569 1.37393 11.2382C1.36724 11.2194 1.35675 11.2023 1.34314 11.1878C1.32953 11.1732 1.31308 11.1617 1.29481 11.1538C1.27654 11.1459 1.25684 11.1418 1.23694 11.1419C1.15469 11.1419 1.0918 11.2096 1.0918 11.2967C1.0918 11.3838 1.15469 11.4467 1.23694 11.4467C1.31918 11.4467 1.38208 11.379 1.38208 11.2967ZM1.51754 10.4984C1.51754 10.3533 1.45464 10.242 1.3724 10.242C1.29983 10.242 1.23694 10.3581 1.23694 10.4984C1.23694 10.6387 1.29983 10.7549 1.37724 10.7549C1.45464 10.7549 1.51754 10.6387 1.51754 10.4984ZM1.94812 10.4355C1.96263 10.2952 1.91909 10.1743 1.84168 10.1646C1.76427 10.1549 1.68687 10.2614 1.66751 10.3968C1.64816 10.542 1.69654 10.6581 1.77395 10.6726C1.85136 10.6823 1.92876 10.5758 1.94812 10.4355ZM5.01055 4.32036C5.06861 4.12684 5.01055 3.92364 4.87993 3.87526C4.7493 3.82688 4.59932 3.95267 4.54127 4.15103C4.48321 4.34455 4.54127 4.54774 4.67189 4.59612C4.80252 4.6445 4.9525 4.51871 5.01055 4.32036ZM4.43 5.2057C4.59932 5.06056 4.67189 4.85737 4.58965 4.75577C4.51224 4.65418 4.30905 4.68804 4.13488 4.83318C3.96071 4.97832 3.89298 5.17668 3.97523 5.28311C4.05263 5.37987 4.25583 5.35084 4.43 5.2057ZM4.09134 4.71223C4.25583 4.59128 4.33324 4.41712 4.25099 4.32519C4.16874 4.23327 3.97039 4.27198 3.80106 4.39293C3.63173 4.51871 3.55916 4.69288 3.63657 4.77996C3.71398 4.86705 3.92201 4.83802 4.09134 4.71223ZM5.39759 3.85107C5.5137 3.76883 5.56208 3.64788 5.50886 3.58498C5.45081 3.52209 5.31534 3.54628 5.20407 3.63336C5.0928 3.72045 5.03958 3.83656 5.0928 3.89945C5.15085 3.96235 5.28632 3.94299 5.39759 3.85107Z" fill="#6B18B5"/>
<path fill-rule="evenodd" clip-rule="evenodd" d="M4.71491 4.688C4.79231 4.56705 4.79715 4.43642 4.72458 4.39772C4.65685 4.35902 4.53106 4.42191 4.45849 4.54286C4.38592 4.66381 4.37141 4.79443 4.44398 4.83314C4.51655 4.87184 4.6375 4.80895 4.71491 4.688ZM5.70185 4.17033C5.8228 4.06874 5.87118 3.92844 5.80829 3.86554C5.74056 3.80265 5.59058 3.83168 5.46963 3.93327C5.34868 4.03487 5.3003 4.17517 5.36319 4.2429C5.42609 4.3058 5.57606 4.27677 5.70185 4.17033ZM3.91664 5.37499C4.02791 5.37015 4.115 5.3121 4.11016 5.2492C4.10048 5.18147 3.99889 5.13309 3.88761 5.14277C3.7715 5.14277 3.68442 5.20566 3.69409 5.26855C3.70377 5.33145 3.80053 5.37983 3.91664 5.37499ZM6.06954 3.53656C6.14694 3.41077 6.15178 3.28499 6.07921 3.24628C6.01148 3.20274 5.88569 3.27047 5.81312 3.39142C5.74056 3.51237 5.73088 3.63816 5.79861 3.6817C5.87118 3.7204 5.99213 3.65267 6.06954 3.53656Z" fill="#6B18B5"/>
<path fill-rule="evenodd" clip-rule="evenodd" d="M19.0504 7.18438C19.0504 7.18438 19.4035 6.62318 19.2681 6.091C19.1326 5.56366 18.5424 5.93619 18.5569 6.12487C18.5714 6.31839 18.9343 6.56512 18.9585 6.68123C18.9826 6.79734 18.9198 7.15052 19.0504 7.18438Z" fill="#FFD200" stroke="#EF8A10" stroke-width="0.129012"/>
<path fill-rule="evenodd" clip-rule="evenodd" d="M12.2725 2.51085C12.2725 2.51085 13.5497 2.55923 13.5594 3.38652C13.5545 3.51714 13.5594 3.66712 13.511 4.03964C13.6366 3.95709 13.7384 3.8431 13.8063 3.709C13.8742 3.57489 13.9058 3.42535 13.898 3.27525C13.9077 2.43344 12.7611 1.86256 12.2725 2.51085Z" fill="#217900" stroke="black" stroke-width="0.30963" stroke-linejoin="round"/>
<path fill-rule="evenodd" clip-rule="evenodd" d="M11.459 2.47215C11.459 2.47215 12.4895 2.25928 12.4991 3.08657C12.5088 3.90902 12.1702 4.04449 12.1702 4.04449C12.1702 4.04449 12.9636 3.87516 12.9636 3.03819C12.9684 2.19638 11.9476 1.82386 11.459 2.47215Z" fill="#217900" stroke="black" stroke-width="0.30963" stroke-linejoin="round"/>
<path fill-rule="evenodd" clip-rule="evenodd" d="M14.9619 20.334C14.9619 20.334 19.7853 18.9745 21.2367 13.0529C20.3901 19.1293 15.1118 21.0549 15.1118 21.0549L14.957 20.334H14.9619Z" fill="#F7DF73" stroke="black" stroke-width="0.335432" stroke-linejoin="round"/>
<path fill-rule="evenodd" clip-rule="evenodd" d="M15.4551 20.7065C15.6051 20.7065 15.9728 20.2952 16.1857 20.2517C16.3985 20.2033 16.4227 19.9905 16.176 19.9808C15.9341 19.9759 15.7212 20.2565 15.7212 20.2565C15.7212 20.2565 15.5132 20.4404 15.2906 20.4597C15.0729 20.4839 15.2132 20.7597 15.4551 20.7016V20.7065Z" fill="#8C1800"/>
<path fill-rule="evenodd" clip-rule="evenodd" d="M18.2376 18.631C18.2376 18.631 17.7344 18.9212 17.8022 18.9938C17.8747 19.0615 18.3198 18.718 18.3295 18.7084C18.3392 18.7035 18.5182 18.481 18.2328 18.631H18.2376Z" fill="#8C1800" stroke="#8C1800" stroke-width="0.335432"/>
<path fill-rule="evenodd" clip-rule="evenodd" d="M16.486 19.9517C16.486 19.9517 16.3361 19.8985 16.7183 19.7485C17.1053 19.5986 17.0811 19.4244 17.202 19.3567C17.3327 19.2841 17.5988 19.0954 17.652 19.2067C17.7052 19.318 17.3714 19.5357 17.294 19.5599C17.2166 19.584 16.8295 19.9372 16.7183 19.9662C16.6118 20.0001 16.5296 19.9808 16.486 19.9517Z" fill="#8C1800"/>
<path d="M18.9823 17.8956C18.6533 18.2633 18.6533 18.2536 18.6533 18.2536" stroke="#8C1800" stroke-width="0.399939" stroke-linecap="round"/>
<path d="M19.4756 17.2909L19.1611 17.6779" stroke="#8C1800" stroke-width="0.374136" stroke-linecap="round"/>
<path d="M19.9694 16.5072L19.6162 17.0684" stroke="#8C1800" stroke-width="0.335432" stroke-linecap="round"/>
<path d="M20.385 15.7041L20.0947 16.2846M20.5737 15.2783L20.4769 15.4864" stroke="#8C1800" stroke-width="0.30963" stroke-linecap="round"/>
<path d="M20.7874 14.7219L20.71 14.9638" stroke="#8C1800" stroke-width="0.180617" stroke-linecap="round"/>
<path fill-rule="evenodd" clip-rule="evenodd" d="M8.63379 20.2134C8.63379 20.2134 3.84859 18.8236 2.41303 12.7917C3.25044 18.9844 8.48655 20.9414 8.48655 20.9414L8.63379 20.2134Z" fill="#F7DF73" stroke="black" stroke-width="0.331644" stroke-linejoin="round"/>
<path fill-rule="evenodd" clip-rule="evenodd" d="M8.1456 20.5856C8.00046 20.5856 7.63277 20.1695 7.4199 20.1211C7.21187 20.0728 7.19252 19.8551 7.42958 19.8502C7.67148 19.8405 7.88435 20.1308 7.88435 20.1308C7.88435 20.1308 8.09238 20.3147 8.31009 20.3388C8.5278 20.363 8.3875 20.6388 8.1456 20.5807V20.5856Z" fill="#8C1800"/>
<path fill-rule="evenodd" clip-rule="evenodd" d="M5.39445 18.4737C5.39445 18.4737 5.89137 18.7763 5.81775 18.8519C5.75334 18.9181 5.31163 18.5683 5.30243 18.5588C5.29322 18.5494 5.11838 18.3225 5.39445 18.4737Z" fill="#8C1800" stroke="#8C1800" stroke-width="0.331644"/>
<path fill-rule="evenodd" clip-rule="evenodd" d="M7.12894 19.8164C7.12894 19.8164 7.27408 19.7631 6.89188 19.6083C6.51452 19.4584 6.53388 19.2842 6.40809 19.2116C6.28714 19.1391 6.02105 18.9455 5.97267 19.0568C5.92429 19.1681 6.24843 19.3955 6.32584 19.4197C6.40325 19.4438 6.78545 19.8019 6.89188 19.8357C7.00316 19.8647 7.08057 19.8502 7.12894 19.8164Z" fill="#8C1800"/>
<path d="M4.65839 17.7269L4.98047 18.0956" stroke="#8C1800" stroke-width="0.397972" stroke-linecap="round"/>
<path d="M4.16173 17.1123L4.47461 17.4999" stroke="#8C1800" stroke-width="0.373099" stroke-linecap="round"/>
<path d="M3.67375 16.3087L4.02344 16.8854" stroke="#8C1800" stroke-width="0.348226" stroke-linecap="round"/>
<path d="M3.25924 15.4957L3.55371 16.0913M3.07519 15.0608L3.16721 15.2688" stroke="#8C1800" stroke-width="0.323353" stroke-linecap="round"/>
<path d="M2.86347 14.4935L2.94629 14.7488" stroke="#8C1800" stroke-width="0.198986" stroke-linecap="round"/>
<path fill-rule="evenodd" clip-rule="evenodd" d="M21.4741 11.9595C21.4983 12.332 21.8611 12.6852 21.716 13.3383C21.537 14.0688 20.8935 15.8202 21.0096 16.125C20.8161 15.8637 20.85 15.6218 20.8355 15.2541C20.8161 14.8913 21.3628 13.5415 21.4112 13.0819C21.4112 12.6707 21.4499 12.1143 21.4741 11.9595Z" fill="#217900" stroke="black" stroke-width="0.30963" stroke-linejoin="round"/>
<path fill-rule="evenodd" clip-rule="evenodd" d="M21.4743 11.9691C21.4743 11.9691 22.0646 12.719 22.0355 13.3141C22.0017 13.9043 21.6727 14.601 21.784 14.9106C21.5904 14.6494 21.5421 14.48 21.5275 14.1172C21.513 13.7543 21.8178 13.3528 21.7598 12.9561C21.6969 12.5593 21.4695 11.9691 21.4695 11.9691H21.4743ZM2.05472 12.1336C2.03053 12.5061 1.75476 12.84 1.89506 13.4882C2.07891 14.2188 2.72719 15.1525 2.62076 16.2217C2.80136 15.9497 2.89423 15.6289 2.88685 15.3025C2.90136 14.9396 2.16599 13.7156 2.11761 13.256C2.11761 12.8448 2.07891 12.2884 2.05472 12.1336Z" fill="#217900" stroke="black" stroke-width="0.30963" stroke-linejoin="round"/>
<path fill-rule="evenodd" clip-rule="evenodd" d="M2.05398 12.1433C2.05398 12.1433 1.47342 12.869 1.50729 13.4641C1.51696 13.856 2.24266 15.5105 2.13622 15.8202C2.3249 15.5589 2.37812 15.5879 2.36844 15.1912C2.15557 14.1801 1.77821 13.5318 1.8411 13.1399C1.904 12.7432 2.06365 12.1433 2.05398 12.1433Z" fill="#217900" stroke="black" stroke-width="0.30963" stroke-linejoin="round"/>
<path d="M11.9131 5.4939L13.3382 9.91225H18.002L14.245 12.6462L15.6766 17.0645L11.9196 14.3371L8.16262 17.0645L9.58768 12.6462L5.82422 9.91225H10.4751L11.9131 5.4939Z" fill="white" stroke="black" stroke-width="0.259122" stroke-linecap="square" stroke-linejoin="round"/>
</g>
</g>
<defs>
<clipPath id="clip0_208_23798">
<rect width="24" height="24" rx="12" fill="white"/>
</clipPath>
</defs>
</svg>
