<svg width="24" height="24" viewBox="0 0 24 24" fill="none" xmlns="http://www.w3.org/2000/svg">
<g clip-path="url(#clip0_208_22518)">
<path fill-rule="evenodd" clip-rule="evenodd" d="M12 0H24V24H12V0Z" fill="#CE0000"/>
<path fill-rule="evenodd" clip-rule="evenodd" d="M0 0H12V24H0V0Z" fill="white"/>
<path fill-rule="evenodd" clip-rule="evenodd" d="M4.91268 5.06745C4.91268 5.10519 4.87002 5.13636 4.81751 5.13636C4.76337 5.13636 4.7207 5.10354 4.7207 5.06745C4.7207 5.02971 4.76337 4.99854 4.81587 4.99854C4.86838 4.99854 4.91432 5.02971 4.91432 5.06745H4.91268Z" fill="#F1EEEE"/>
<path fill-rule="evenodd" clip-rule="evenodd" d="M1.9082 4.73439V6.47852H3.65408C3.66404 6.62945 3.72839 6.77165 3.8352 6.87875C3.94201 6.98586 4.08403 7.0506 4.23494 7.06099V8.80513H5.97918V7.06099C6.13008 7.0506 6.2721 6.98586 6.37891 6.87875C6.48572 6.77165 6.55007 6.62945 6.56004 6.47852H8.30427V4.73439H6.56004C6.54969 4.58375 6.48517 4.44195 6.3784 4.33519C6.27163 4.22842 6.12982 4.1639 5.97918 4.15356V2.40942H4.23494V4.15356C4.0843 4.1639 3.94249 4.22842 3.83572 4.33519C3.72894 4.44195 3.66442 4.58375 3.65408 4.73439H1.9082Z" fill="#CC0000"/>
<path fill-rule="evenodd" clip-rule="evenodd" d="M1.9668 4.7934V6.42104H3.71103C3.72138 6.57168 3.7859 6.71348 3.89267 6.82025C3.99944 6.92701 4.14125 6.99153 4.29189 7.00187V8.74765H5.91963V7.00187C6.07056 6.99191 6.21277 6.92756 6.31988 6.82076C6.42699 6.71395 6.49174 6.57194 6.50213 6.42104H8.24637V4.7934H6.50213C6.49212 4.64221 6.42754 4.4998 6.32039 4.39266C6.21324 4.28552 6.07083 4.22094 5.91963 4.21093V2.4668H4.29189V4.21093C4.14128 4.2217 3.99965 4.28662 3.89318 4.39369C3.78671 4.50075 3.72259 4.64274 3.71267 4.7934H1.9668Z" fill="#FFE600"/>
<path fill-rule="evenodd" clip-rule="evenodd" d="M2.02344 4.85084V6.36199H3.76767C3.77768 6.51318 3.84227 6.65559 3.94941 6.76273C4.05656 6.86987 4.19898 6.93445 4.35018 6.94446V8.6886H5.86141V6.94282C6.01231 6.93243 6.15434 6.86768 6.26115 6.76058C6.36795 6.65347 6.43231 6.51128 6.44227 6.36035H8.18651V4.85084H6.44227C6.43235 4.70018 6.36823 4.5582 6.26176 4.45113C6.15529 4.34406 6.01366 4.27914 5.86305 4.26837V2.52588H4.35182V4.26837C4.20088 4.27834 4.05868 4.34268 3.95157 4.44949C3.84446 4.55629 3.7797 4.6983 3.76931 4.8492H2.02344V4.85084Z" fill="#707070"/>
<path fill-rule="evenodd" clip-rule="evenodd" d="M2.08203 4.90834V6.30299H3.82626C3.83623 6.45392 3.90058 6.59611 4.00739 6.70322C4.1142 6.81032 4.25622 6.87507 4.40713 6.88546V8.6296H5.80186V6.88546C5.9528 6.8755 6.095 6.81115 6.20211 6.70435C6.30922 6.59754 6.37397 6.45553 6.38436 6.30463H8.12696V4.90998H6.38436C6.3744 4.75905 6.31005 4.61686 6.20324 4.50975C6.09643 4.40265 5.95441 4.3379 5.8035 4.32751V2.58337H4.40877V4.32751C4.25783 4.33747 4.11563 4.40182 4.00852 4.50862C3.90141 4.61543 3.83666 4.75744 3.82626 4.90834H2.08203Z" fill="#A0A0A0"/>
<path fill-rule="evenodd" clip-rule="evenodd" d="M4.42203 4.18315C4.5254 4.28651 4.44172 4.53427 4.23825 4.73937C4.03479 4.94446 3.78537 5.0265 3.682 4.92313C3.58027 4.8214 3.66395 4.57365 3.86742 4.36855C4.07088 4.16346 4.32029 4.08142 4.42203 4.18315Z" fill="#D0D0D0"/>
<path fill-rule="evenodd" clip-rule="evenodd" d="M4.29893 4.30623C4.40231 4.4096 4.37441 4.60157 4.23822 4.73775C4.10203 4.87393 3.90841 4.90183 3.80668 4.8001C3.7033 4.69837 3.7312 4.50476 3.86739 4.36858C4.00358 4.23239 4.1972 4.2045 4.29893 4.30623Z" fill="#808080"/>
<path fill-rule="evenodd" clip-rule="evenodd" d="M3.78516 4.61465L3.82618 4.57363L3.99026 4.65567L3.90822 4.49159L3.94924 4.45057L4.11333 4.77873L3.78516 4.61465ZM4.03129 4.36853L4.07231 4.32751L4.31844 4.57363L4.27905 4.61465L4.03129 4.36853Z" fill="#D0D0D0"/>
<path fill-rule="evenodd" clip-rule="evenodd" d="M6.52847 4.92472C6.42674 5.02645 6.17733 4.94277 5.97386 4.73932C5.7704 4.53586 5.68671 4.28646 5.78845 4.1831C5.89182 4.08137 6.13959 4.16505 6.34306 4.3685C6.54652 4.57196 6.63021 4.82135 6.52847 4.92308V4.92472Z" fill="#D0D0D0"/>
<path fill-rule="evenodd" clip-rule="evenodd" d="M6.40572 4.80003C6.30399 4.90176 6.11037 4.87551 5.97418 4.73932C5.83798 4.60314 5.81009 4.40953 5.91182 4.3078C6.01356 4.20607 6.20718 4.23233 6.34337 4.36851C6.47956 4.50469 6.50745 4.69666 6.40572 4.80003Z" fill="#808080"/>
<path fill-rule="evenodd" clip-rule="evenodd" d="M6.0967 4.28479L6.13772 4.32745L6.05568 4.49153L6.21977 4.40949L6.26079 4.45051L5.93262 4.61458L6.0967 4.28643V4.28479ZM6.34283 4.53255L6.38385 4.57356L6.13772 4.81968L6.0967 4.7803L6.34283 4.53255Z" fill="#D0D0D0"/>
<path fill-rule="evenodd" clip-rule="evenodd" d="M5.78845 7.02977C5.68671 6.92804 5.7704 6.67865 5.97386 6.47519C6.17733 6.27174 6.42674 6.18806 6.52847 6.28979C6.63021 6.39151 6.54816 6.64091 6.34306 6.84436C6.13795 7.04782 5.89182 7.1315 5.78845 7.02977Z" fill="#D0D0D0"/>
<path fill-rule="evenodd" clip-rule="evenodd" d="M5.91182 6.90667C5.81009 6.80494 5.83798 6.61133 5.97418 6.47514C6.11037 6.33896 6.30235 6.31107 6.40572 6.4128C6.50745 6.51616 6.47956 6.70813 6.34337 6.84432C6.20718 6.9805 6.0152 7.00839 5.91182 6.90667Z" fill="#808080"/>
<path fill-rule="evenodd" clip-rule="evenodd" d="M6.42652 6.59828L6.3855 6.6393L6.22141 6.55726L6.30346 6.72134L6.26079 6.76236L6.09671 6.4342L6.42488 6.59828H6.42652ZM6.18039 6.8444L6.13773 6.88541L5.8916 6.6393L5.93262 6.59828L6.18039 6.8444Z" fill="#D0D0D0"/>
<path fill-rule="evenodd" clip-rule="evenodd" d="M3.68335 6.28984C3.78509 6.18811 4.03286 6.27015 4.23796 6.47524C4.44307 6.68034 4.52511 6.92809 4.42338 7.02982C4.32001 7.13155 4.07224 7.04951 3.86713 6.84441C3.66202 6.63932 3.57998 6.39156 3.68335 6.28984Z" fill="#D0D0D0"/>
<path fill-rule="evenodd" clip-rule="evenodd" d="M3.80668 6.41292C3.90841 6.31119 4.10203 6.33908 4.23822 6.47527C4.37441 6.61145 4.40231 6.80342 4.29893 6.90679C4.1972 7.00852 4.00358 6.98062 3.86739 6.84444C3.7312 6.70826 3.7033 6.51629 3.80668 6.41292Z" fill="#808080"/>
<path fill-rule="evenodd" clip-rule="evenodd" d="M4.11332 6.92644L4.0723 6.88542L4.15434 6.72134L3.99026 6.80338L3.94924 6.76236L4.27741 6.59828L4.11332 6.92644ZM3.86719 6.68032L3.82617 6.6393L4.0723 6.39319L4.11332 6.43421L3.86719 6.68032Z" fill="#D0D0D0"/>
<path d="M6.32762 5.60733C6.32762 6.28004 5.7811 6.82806 5.10637 6.82806C4.43163 6.82806 3.88672 6.28168 3.88672 5.60733C3.88672 4.93297 4.43324 4.3866 5.10797 4.3866C5.7827 4.3866 6.32922 4.93297 6.32922 5.60733H6.32762Z" stroke="#707070" stroke-width="0.0576575"/>
<path d="M6.03651 5.60695C6.03651 6.11949 5.62011 6.53703 5.10602 6.53703C4.59194 6.53703 4.17676 6.12074 4.17676 5.60695C4.17676 5.09316 4.59316 4.67688 5.10724 4.67688C5.62133 4.67688 6.03773 5.09316 6.03773 5.60695H6.03651Z" stroke="#707070" stroke-width="0.0439296"/>
<path fill-rule="evenodd" clip-rule="evenodd" d="M4.69787 6.59502C4.69787 6.61025 4.69182 6.62486 4.68105 6.63563C4.67028 6.6464 4.65567 6.65245 4.64044 6.65245C4.62521 6.65245 4.6106 6.6464 4.59983 6.63563C4.58906 6.62486 4.58301 6.61025 4.58301 6.59502C4.58301 6.57979 4.58906 6.56519 4.59983 6.55442C4.6106 6.54365 4.62521 6.5376 4.64044 6.5376C4.65567 6.5376 4.67028 6.54365 4.68105 6.55442C4.69182 6.56519 4.69787 6.57979 4.69787 6.59502ZM5.62988 6.59502C5.62988 6.61047 5.62374 6.62529 5.61281 6.63621C5.60189 6.64714 5.58707 6.65327 5.57163 6.65327C5.55618 6.65327 5.54136 6.64714 5.53044 6.63621C5.51951 6.62529 5.51338 6.61047 5.51338 6.59502C5.51338 6.57979 5.51943 6.56519 5.5302 6.55442C5.54097 6.54365 5.55557 6.5376 5.57081 6.5376C5.58604 6.5376 5.60064 6.54365 5.61141 6.55442C5.62218 6.56519 5.62824 6.57979 5.62824 6.59502H5.62988ZM5.06706 6.59502V6.65573H4.98994C4.91282 6.65573 4.91282 6.71644 4.98994 6.71644H5.06706V6.77715C5.06706 6.8395 5.13598 6.8477 5.1409 6.78207L5.14582 6.71644H5.22294C5.30006 6.71644 5.30006 6.65573 5.22294 6.65573H5.14582V6.59502C5.14582 6.53432 5.06706 6.53432 5.06706 6.59502Z" fill="#D0D0D0"/>
<path fill-rule="evenodd" clip-rule="evenodd" d="M4.81767 5.73645V5.7704C4.81767 5.7704 4.79979 5.79707 4.68326 5.80531C4.56672 5.81356 4.54884 5.80531 4.54884 5.80531C4.55209 5.83489 4.57431 5.89212 4.56781 5.96001C4.57269 6.03857 4.54613 6.11034 4.54613 6.11034C4.54884 6.11422 4.53529 6.11665 4.51035 6.11422C4.52987 6.09725 4.52716 6.0473 4.52987 5.97698C4.53203 5.90618 4.45615 5.79998 4.47187 5.77088C4.48759 5.74178 4.81767 5.73645 4.81767 5.73645Z" fill="#D0D0D0" stroke="#707070" stroke-width="0.0182287"/>
<path fill-rule="evenodd" clip-rule="evenodd" d="M5.27751 5.61173C5.39079 5.6064 5.5805 5.60737 5.5805 5.60737C5.5805 5.60737 5.62548 5.69708 5.62332 5.74655C5.62115 5.79601 5.60597 5.83869 5.58538 5.81735C5.56478 5.79601 5.59459 5.80038 5.59838 5.74655C5.60218 5.6932 5.56261 5.63792 5.56261 5.63792C5.56261 5.63792 5.48131 5.67332 5.35936 5.66605C5.23741 5.65877 5.29161 5.61367 5.27806 5.61173H5.27751Z" fill="#D0D0D0" stroke="#707070" stroke-width="0.0182287"/>
<path fill-rule="evenodd" clip-rule="evenodd" d="M5.31709 5.70054C5.43037 5.69472 5.50463 5.71218 5.50463 5.71218C5.50463 5.71218 5.54907 5.8019 5.54744 5.85136C5.54582 5.90083 5.5301 5.9435 5.50896 5.92216C5.48782 5.90083 5.51872 5.90519 5.52251 5.85136C5.52631 5.79802 5.4862 5.74225 5.4862 5.74225C5.4862 5.74225 5.4049 5.77765 5.28349 5.77086C5.16153 5.76359 5.19622 5.75631 5.18267 5.75437C5.16912 5.75243 5.16533 5.78832 4.98105 5.79317C4.79676 5.79802 4.70245 5.75437 4.70245 5.75437C4.70245 5.75437 4.68402 5.78056 4.56803 5.78832C4.45204 5.79608 4.43362 5.78832 4.43362 5.78832C4.43633 5.81839 4.45909 5.87561 4.45259 5.9435C4.45692 6.02206 4.43091 6.09383 4.43091 6.09383C4.43362 6.09771 4.41952 6.10014 4.39513 6.09771C4.4141 6.08074 4.41194 6.03079 4.4141 5.96047C4.41627 5.88967 4.34093 5.78298 4.35665 5.75389C4.37237 5.72479 4.45584 5.75195 4.4721 5.73643C4.48782 5.7214 4.3973 5.61374 4.4141 5.51336C4.43145 5.41249 4.52684 5.44061 4.645 5.44449C4.76262 5.44789 5.02332 5.47844 5.08674 5.44449C5.14961 5.41055 5.12197 5.28446 5.18213 5.20396C5.19895 5.18156 5.22197 5.16344 5.24895 5.15137C5.27593 5.1393 5.30594 5.1337 5.33606 5.1351C5.374 5.1351 5.432 5.27282 5.432 5.30677L5.41303 5.32423H5.39351V5.3412C5.35015 5.34605 5.34365 5.30386 5.31709 5.27282C5.30517 5.32132 5.35503 5.47892 5.35503 5.58173C5.35503 5.66805 5.31926 5.70588 5.31709 5.69957V5.70054Z" fill="#D0D0D0" stroke="#707070" stroke-width="0.0182287"/>
<path fill-rule="evenodd" clip-rule="evenodd" d="M4.9462 5.55058C4.94837 5.58452 4.79824 5.66163 4.78577 5.69218C4.7733 5.72273 4.82371 5.73922 4.80853 5.75668C4.79282 5.77414 4.78035 5.76735 4.7771 5.77074C4.77385 5.77414 4.72073 5.65145 4.72073 5.65145C4.72073 5.65145 4.86165 5.5884 4.85623 5.56076C4.85081 5.53312 4.75217 5.51712 4.73374 5.44777C4.71585 5.37891 4.72615 5.24555 4.71151 5.21742C4.69688 5.18978 4.52344 5.16311 4.52344 5.12092C4.52344 5.07873 4.7023 4.96331 4.72073 4.94634C4.7397 4.92888 4.75867 4.96331 4.7397 4.98028C4.72073 4.99774 4.58143 5.10394 4.58143 5.12092C4.58143 5.13837 4.69688 5.15535 4.73536 5.15535C4.7733 5.15535 4.79282 5.13837 4.79282 5.1214C4.79282 5.10637 4.75488 5.10394 4.75488 5.06951C4.75488 5.03508 4.77385 5.01811 4.81233 5.01811C4.8313 5.01811 4.86815 5.03993 4.86978 5.06951C4.87141 5.09861 4.83563 5.10152 4.8313 5.12092C4.82696 5.14031 4.86924 5.15535 4.90826 5.15535C4.9462 5.15535 5.07791 5.25525 5.09688 5.2727C5.11585 5.28968 5.13482 5.28968 5.11585 5.30665C5.09688 5.32411 5.10826 5.34448 5.08875 5.32702C5.07249 5.31053 5.06978 5.29307 5.06978 5.29307C5.06816 5.27707 4.92723 5.20675 4.90826 5.22421C4.88875 5.24118 4.90826 5.44728 4.90826 5.46474C4.90826 5.49869 4.94783 5.49869 4.9462 5.55058Z" fill="#D0D0D0" stroke="#707070" stroke-width="0.0182287"/>
<path fill-rule="evenodd" clip-rule="evenodd" d="M4.70117 5.15283H4.93089V5.39402H4.70117V5.15283Z" fill="#A7A7A7"/>
<path d="M5.44724 6.01913L4.67491 4.85979C4.66838 4.84999 4.65952 4.84394 4.65512 4.84629C4.65072 4.84863 4.65245 4.85848 4.65899 4.86829L5.43131 6.02762C5.43785 6.03742 5.44671 6.04347 5.4511 6.04112C5.4555 6.03878 5.45377 6.02893 5.44724 6.01913Z" fill="#808080"/>
<path fill-rule="evenodd" clip-rule="evenodd" d="M4.75861 4.96351C4.75861 4.97264 4.75455 4.9814 4.74733 4.98785C4.74012 4.99431 4.73033 4.99794 4.72012 4.99794C4.70992 4.99794 4.70013 4.99431 4.69291 4.98785C4.6857 4.9814 4.68164 4.97264 4.68164 4.96351C4.68164 4.95438 4.6857 4.94562 4.69291 4.93916C4.70013 4.9327 4.70992 4.92908 4.72012 4.92908C4.73033 4.92908 4.74012 4.9327 4.74733 4.93916C4.75455 4.94562 4.75861 4.95438 4.75861 4.96351Z" fill="#D0D0D0" stroke="#707070" stroke-width="0.0182287"/>
<path fill-rule="evenodd" clip-rule="evenodd" d="M5.43084 5.27581C5.43084 5.29222 5.34223 5.30862 5.23886 5.30862C5.13548 5.30862 5.04688 5.29222 5.04688 5.27581C5.04688 5.26268 5.13548 5.29714 5.23886 5.29714C5.34223 5.29714 5.43084 5.26268 5.43084 5.27581Z" fill="#808080"/>
<path fill-rule="evenodd" clip-rule="evenodd" d="M4.7207 5.39392H4.91268V5.46119H4.7207V5.39392Z" fill="#A7A7A7"/>
<path fill-rule="evenodd" clip-rule="evenodd" d="M5.34457 5.22331C5.32816 5.25941 5.30847 5.28402 5.30519 5.2791C5.30191 5.27582 5.31504 5.243 5.33309 5.20855C5.35278 5.17409 5.37083 5.14948 5.37247 5.15276C5.37575 5.15768 5.36426 5.18886 5.34457 5.22331ZM5.3938 5.31355C5.37247 5.33324 5.35606 5.34637 5.35442 5.34145C5.35442 5.33817 5.37083 5.32012 5.39216 5.30043C5.41349 5.28238 5.43154 5.26925 5.43154 5.27418C5.43154 5.27746 5.41513 5.29551 5.3938 5.31355Z" fill="#808080"/>
<path fill-rule="evenodd" clip-rule="evenodd" d="M5.37048 5.26926C5.38525 5.2988 5.3951 5.32341 5.39181 5.32505C5.39017 5.32505 5.37541 5.30372 5.359 5.27582C5.34259 5.24629 5.33274 5.22332 5.33603 5.22168C5.33931 5.22168 5.35243 5.24301 5.36884 5.2709L5.37048 5.26926ZM5.35407 5.41857C5.35407 5.42349 5.295 5.42678 5.21952 5.42678C5.14404 5.42678 5.08497 5.42349 5.08497 5.41857C5.08497 5.41365 5.14569 5.41037 5.21952 5.41037C5.295 5.41037 5.35407 5.41365 5.35407 5.41857ZM4.91268 5.40216C4.91268 5.40709 4.87002 5.41037 4.81751 5.41037C4.76337 5.41037 4.7207 5.40709 4.7207 5.40216C4.7207 5.39724 4.76337 5.39396 4.81587 5.39396C4.86838 5.39396 4.91432 5.39724 4.91432 5.40216H4.91268Z" fill="#808080"/>
<path fill-rule="evenodd" clip-rule="evenodd" d="M4.49121 6.00009C4.49121 6.00009 4.52311 6.07682 4.65778 6.07788C4.79244 6.07895 4.83958 6.05487 4.78465 6.01395C4.72972 5.97303 4.62872 5.98603 4.64183 6.02119C4.65494 6.05636 4.60355 6.06808 4.5915 6.04336C4.57945 6.01864 4.53126 5.94532 4.61808 5.94042C4.70491 5.93552 4.88919 5.90888 4.93527 5.96003C4.98134 6.01118 4.88282 6.05742 4.95724 6.06829C5.03166 6.07895 5.04229 6.05593 5.16987 6.0489C5.29745 6.04187 5.34601 6.07234 5.3896 6.06808C5.43319 6.06382 5.42716 5.9888 5.39243 5.96983C5.35806 5.95065 5.29143 5.94724 5.27442 5.92635C5.25741 5.90547 5.21134 5.92231 5.21559 5.89865C5.21984 5.87499 5.28115 5.91506 5.28186 5.90291C5.28186 5.90249 5.29214 5.8946 5.29426 5.89247C5.28647 5.89076 5.28186 5.89375 5.27619 5.89673C5.28257 5.89162 5.28222 5.88927 5.28434 5.88522C5.28328 5.88373 5.27548 5.89119 5.27406 5.88949C5.27265 5.88778 5.28292 5.87755 5.27832 5.88139C5.2769 5.88245 5.26485 5.88842 5.2645 5.88437C5.2645 5.88267 5.27088 5.8784 5.26875 5.87585C5.26698 5.87393 5.25812 5.87819 5.2567 5.87862C5.26202 5.87158 5.26166 5.8718 5.2567 5.86647C5.25209 5.86135 5.2489 5.86135 5.24146 5.86732C5.24465 5.8588 5.24536 5.85709 5.23792 5.85389C5.23225 5.85048 5.23189 5.8475 5.22445 5.86263C5.22728 5.84643 5.21984 5.84558 5.22303 5.83812C5.2248 5.83109 5.23473 5.82811 5.25103 5.8296C5.28292 5.82981 5.29958 5.86796 5.30986 5.86775C5.32049 5.86775 5.33183 5.82747 5.37648 5.84366C5.42078 5.86007 5.4261 5.86327 5.44878 5.87307C5.47111 5.88267 5.43283 5.89737 5.44559 5.91655C5.45835 5.93573 5.54588 5.99924 5.52108 6.06573C5.49627 6.1318 5.43248 6.14246 5.42645 6.17123C5.42078 6.19979 5.62846 6.18828 5.68162 6.19787C5.73478 6.20746 5.76809 6.24689 5.77021 6.25371C5.77234 6.26053 5.67736 6.25989 5.67736 6.25989C5.67736 6.25989 5.62846 6.23474 5.51222 6.23218C5.39562 6.23005 5.35132 6.18316 5.30773 6.1772C5.26414 6.17123 5.17129 6.18721 5.11955 6.18487C5.06745 6.18252 5.015 6.17421 4.98134 6.16974C4.94767 6.16505 4.7804 6.24518 4.7811 6.26394C4.74602 6.26244 4.66415 6.25818 4.66734 6.26031C4.67089 6.26244 4.68223 6.22408 4.74602 6.21726C4.80981 6.21044 4.87254 6.17975 4.87006 6.15972C4.86828 6.13947 4.88282 6.07021 4.88778 6.0408C4.89274 6.01139 4.91719 5.9969 4.91152 5.98113C4.90585 5.96578 4.83285 5.9498 4.76268 5.95022C4.69251 5.95065 4.61454 5.95449 4.6032 5.97154C4.59186 5.98859 4.60072 6.0376 4.61525 6.03185C4.62942 6.02631 4.6117 5.99413 4.62694 5.98752C4.65528 5.97887 4.6866 5.97435 4.71838 5.97431C4.75523 5.97345 4.81938 6.00563 4.81867 6.01586C4.81796 6.02631 4.83922 6.06062 4.80981 6.07341C4.7804 6.08662 4.72015 6.09259 4.66238 6.0896C4.61175 6.08631 4.56395 6.07391 4.52523 6.05401C4.50397 6.04123 4.49121 6.00265 4.49121 5.99988V6.00009Z" fill="#D0D0D0" stroke="#808080" stroke-width="0.0097715"/>
<path fill-rule="evenodd" clip-rule="evenodd" d="M5.34532 5.88616C5.34532 5.89051 5.34359 5.89468 5.34051 5.89776C5.33743 5.90084 5.33326 5.90257 5.32891 5.90257C5.32456 5.90257 5.32038 5.90084 5.31731 5.89776C5.31423 5.89468 5.3125 5.89051 5.3125 5.88616C5.3125 5.88181 5.31423 5.87763 5.31731 5.87456C5.32038 5.87148 5.32456 5.86975 5.32891 5.86975C5.33326 5.86975 5.33743 5.87148 5.34051 5.87456C5.34359 5.87763 5.34532 5.88181 5.34532 5.88616Z" fill="black"/>
<path d="M6.06894 5.66309L6.14442 5.6795L6.26912 5.59254L6.25928 5.63848L6.19364 5.68114L6.15754 5.70411L6.18216 5.74021L6.22318 5.80584L6.21333 5.8485L6.13621 5.7156L6.06073 5.69919L6.06894 5.66309ZM5.94259 5.11344L6.08699 5.04617L6.04761 4.96085L6.0673 4.95264L6.16083 5.15774L6.14113 5.16594L6.10175 5.08062L5.95736 5.14625L5.94095 5.11344H5.94259ZM5.71779 4.83943L5.8507 4.71801L5.87696 4.74755L5.87367 4.95264L5.97869 4.85748L6.0033 4.88373L5.86875 5.00515L5.8425 4.97725L5.84742 4.77052L5.74241 4.86732L5.71779 4.83943ZM5.13529 4.6048L5.15826 4.42432L5.19436 4.43088L5.17631 4.58839L5.31578 4.6048L5.3125 4.62613L5.13529 4.6048ZM4.84978 4.63105L4.81696 4.45385L4.8547 4.44729L4.8826 4.60316L5.02043 4.57855L5.02535 4.59988L4.84978 4.63105ZM4.31978 4.89193L4.30665 4.87553L4.40182 4.80005L4.44284 4.85256C4.43398 4.87127 4.42296 4.88889 4.41003 4.90506C4.39801 4.92078 4.38424 4.93509 4.36901 4.94772C4.34885 4.96438 4.32613 4.97768 4.30173 4.9871C4.27876 4.9953 4.25907 4.99694 4.24102 4.99366C4.22297 4.99038 4.2082 4.98054 4.19672 4.96741C4.18596 4.95327 4.18019 4.93596 4.18031 4.91819C4.17968 4.89729 4.1854 4.8767 4.19672 4.85912C4.21104 4.83777 4.22878 4.81893 4.24922 4.80333C4.2643 4.79143 4.28085 4.7815 4.29845 4.7738C4.31322 4.76724 4.32634 4.76231 4.33947 4.76231C4.3526 4.76231 4.36244 4.7656 4.37393 4.77216L4.35096 4.79841C4.34281 4.79428 4.33384 4.79203 4.3247 4.79185C4.3165 4.79185 4.30829 4.79349 4.29681 4.79841C4.28442 4.80394 4.27283 4.81111 4.26235 4.81974C4.24922 4.82959 4.23774 4.84107 4.22953 4.85256L4.21477 4.88045C4.21155 4.89073 4.21091 4.90165 4.21292 4.91224C4.21492 4.92283 4.2195 4.93276 4.22625 4.94116C4.2352 4.95283 4.24798 4.96097 4.26235 4.96413C4.27548 4.96741 4.29024 4.96577 4.30665 4.95921C4.32306 4.95264 4.33947 4.9428 4.35424 4.93295C4.36655 4.92286 4.37758 4.91129 4.38706 4.8985C4.3969 4.88537 4.40346 4.87389 4.40675 4.86568L4.38541 4.83943L4.31978 4.89193ZM4.31486 6.18978L4.16718 6.29479L4.0556 6.13728L4.07201 6.12579L4.16226 6.25213L4.2082 6.21931L4.13108 6.10938L4.14749 6.0979L4.22625 6.20619L4.29189 6.15861L4.31486 6.19142V6.18978ZM4.09826 5.95515C4.10805 5.95242 4.11697 5.94721 4.12416 5.94002C4.13134 5.93284 4.13655 5.92392 4.13929 5.91413C4.14585 5.8928 4.14585 5.86983 4.13929 5.84194C4.13349 5.81774 4.1203 5.79595 4.10155 5.77959C4.09347 5.77285 4.08382 5.76826 4.07349 5.76625C4.06316 5.76424 4.05249 5.76488 4.04248 5.7681C4.02958 5.77161 4.0181 5.77907 4.00966 5.78943C4.00013 5.80111 3.9944 5.81543 3.99325 5.83045C3.99161 5.84686 3.99325 5.86327 3.99817 5.88132C4.00415 5.90506 4.01666 5.92666 4.03427 5.94367C4.05068 5.96007 4.07201 5.96171 4.09826 5.95515ZM4.10811 5.99289C4.07857 6.00109 4.05232 5.99453 4.02935 5.97648C4.00638 5.95515 3.98997 5.92726 3.97848 5.88788C3.97192 5.86163 3.96864 5.83866 3.97028 5.81569C3.97192 5.79271 3.97848 5.77467 3.98997 5.7599C3.99994 5.74573 4.01439 5.73532 4.03099 5.73037C4.04834 5.72527 4.06692 5.72643 4.0835 5.73365C4.10229 5.74206 4.11825 5.75574 4.12944 5.77303C4.14282 5.79254 4.15281 5.81417 4.15898 5.83702C4.16554 5.86327 4.16882 5.88624 4.16554 5.90921C4.16428 5.92927 4.15746 5.94859 4.14585 5.965C4.13673 5.97824 4.12344 5.98805 4.10811 5.99289ZM4.12288 5.62536L3.94238 5.62208L3.94566 5.49574C3.94566 5.46948 3.94731 5.45144 3.95059 5.43831C3.95551 5.42518 3.96043 5.4137 3.96864 5.40549C3.97684 5.39893 3.98669 5.39565 3.99653 5.39565C4.00966 5.39565 4.0195 5.40221 4.02935 5.41534C4.03919 5.42846 4.04248 5.44815 4.04412 5.47605L4.05396 5.45472C4.06073 5.44277 4.069 5.43174 4.07857 5.4219L4.1278 5.37432V5.42354L4.08842 5.45964L4.06381 5.48589C4.05724 5.49246 4.05396 5.49902 4.05068 5.50558C4.04842 5.51085 4.04677 5.51635 4.04576 5.52199V5.54332L4.04412 5.58598L4.12288 5.58926V5.627V5.62536ZM4.02278 5.58598L4.02443 5.50394L4.02278 5.46456C4.02122 5.45597 4.01723 5.448 4.0113 5.44159C4.00672 5.43735 4.00103 5.43451 3.99489 5.43339C3.98669 5.43339 3.97848 5.43831 3.9752 5.44979C3.96851 5.46359 3.96514 5.47876 3.96535 5.4941L3.96371 5.58434L4.02278 5.58598ZM4.52489 4.79185V4.58019L4.56099 4.55886L4.75297 4.65566L4.71687 4.67699L4.65944 4.64746L4.55771 4.70817V4.77052L4.52489 4.79185ZM4.55771 4.6852L4.63975 4.63598L4.58888 4.60808L4.55278 4.58675L4.55606 4.62449V4.6852H4.55771ZM5.429 4.62941L5.62426 4.54737L5.65708 4.57199L5.64559 4.78528L5.6095 4.76067L5.61606 4.69668L5.51761 4.62777L5.46182 4.65238L5.429 4.62941ZM5.53894 4.61793L5.6177 4.67535L5.62262 4.61629C5.62426 4.59988 5.6259 4.58511 5.62919 4.57527L5.59637 4.59332L5.53894 4.61793ZM6.02299 5.29064L6.19856 5.24798L6.2281 5.37104C6.23302 5.39565 6.2363 5.41534 6.2363 5.42847C6.23628 5.44064 6.23287 5.45257 6.22646 5.46292C6.2199 5.47277 6.21333 5.47933 6.20349 5.48097C6.19036 5.48425 6.17887 5.48097 6.16739 5.46948C6.15289 5.45413 6.14221 5.43558 6.13621 5.41534C6.13621 5.42518 6.13621 5.43175 6.13293 5.43831C6.12897 5.45097 6.12346 5.4631 6.11652 5.47441L6.08042 5.53511L6.06894 5.48917L6.09683 5.44323L6.11488 5.41042C6.1198 5.40221 6.12144 5.39401 6.12308 5.38909C6.12368 5.38363 6.12368 5.37813 6.12308 5.37268L6.1198 5.35135L6.10832 5.30869L6.0312 5.32674L6.02299 5.29064ZM6.12965 5.30377L6.1477 5.38252C6.15262 5.39893 6.1559 5.41206 6.16083 5.42026C6.16575 5.43011 6.17067 5.43667 6.17723 5.43995C6.18216 5.44323 6.18872 5.44487 6.19364 5.44323C6.20185 5.44159 6.20841 5.43503 6.21005 5.42518C6.21368 5.4089 6.21312 5.39196 6.20841 5.37596L6.18708 5.289L6.12965 5.30377Z" fill="#D0D0D0"/>
</g>
<defs>
<clipPath id="clip0_208_22518">
<rect width="24" height="24" rx="12" fill="white"/>
</clipPath>
</defs>
</svg>
