<svg width="24" height="24" viewBox="0 0 24 24" fill="none" xmlns="http://www.w3.org/2000/svg">
<g clip-path="url(#clip0_208_23988)">
<mask id="mask0_208_23988" style="mask-type:luminance" maskUnits="userSpaceOnUse" x="0" y="0" width="24" height="24">
<path d="M0 0H24V24H0V0Z" fill="white"/>
</mask>
<g mask="url(#mask0_208_23988)">
<path fill-rule="evenodd" clip-rule="evenodd" d="M-4.45312 0H31.5469V24H-4.45312V0Z" fill="#0C590B"/>
<path fill-rule="evenodd" clip-rule="evenodd" d="M-4.45312 0H4.57031V24H-4.45312V0Z" fill="white"/>
<path fill-rule="evenodd" clip-rule="evenodd" d="M18.9229 10.5656L17.4604 10.2562L16.6916 11.5359L16.5322 10.0546L15.0791 9.71714L16.4385 9.10776L16.3119 7.62183L17.315 8.72808L18.6885 8.14683L17.9432 9.44058L18.9275 10.5656H18.9229Z" fill="white"/>
<path fill-rule="evenodd" clip-rule="evenodd" d="M19.4715 14.3438C19.1595 15.0245 18.7161 15.6368 18.1666 16.1455C17.6172 16.6543 16.9726 17.0494 16.27 17.3082C15.5673 17.5669 14.8204 17.6842 14.0723 17.6533C13.3241 17.6224 12.5895 17.4439 11.9105 17.1281C10.5331 16.4904 9.46537 15.3315 8.94231 13.9065C8.41926 12.4816 8.48371 10.9072 9.12147 9.52969C9.43819 8.8216 9.89959 8.18763 10.476 7.66854C11.0524 7.14945 11.7311 6.75673 12.4683 6.51562C12.2753 6.67634 12.0907 6.84688 11.9152 7.02656C11.0007 8.03938 10.5152 9.36776 10.5611 10.7316C10.6071 12.0954 11.1808 13.3882 12.1614 14.3371C13.142 15.2861 14.4528 15.8172 15.8175 15.8185C17.1821 15.8197 18.4938 15.291 19.4762 14.3438H19.4715Z" fill="white"/>
</g>
</g>
<defs>
<clipPath id="clip0_208_23988">
<rect width="24" height="24" rx="12" fill="white"/>
</clipPath>
</defs>
</svg>
