<svg width="24" height="24" viewBox="0 0 24 24" fill="none" xmlns="http://www.w3.org/2000/svg">
<g clip-path="url(#clip0_208_10083)">
<path d="M0 0H24V24H0V0Z" fill="#000066"/>
<path fill-rule="evenodd" clip-rule="evenodd" d="M2.57344 17.2781L4.47656 18L5.10469 16.0594L5.72812 18L7.63594 17.2781L6.50625 18.9797L8.25937 20.0203L6.22969 20.1938L6.51094 22.2141L5.10469 20.7375L3.69844 22.2141L3.97969 20.1985L1.94531 20.0203L3.70312 18.9797M18.9375 22.3313L18.0469 22.4063L18.1734 23.2875L17.5641 22.6453L16.9547 23.2875L17.0625 22.4063L16.1813 22.3313L16.9453 21.8813L16.4531 21.1406L17.2828 21.4547L17.5547 20.611L17.8219 21.4547L18.6562 21.1406L18.1688 21.8813M18.9281 9.20627L18.0469 9.28127L18.1688 10.1625L17.5594 9.52034L16.95 10.1625L17.0625 9.28127L16.1813 9.20627L16.9453 8.75627L16.4531 8.01565L17.2828 8.32971L17.5547 7.48596L17.8219 8.32971L18.6562 8.01565L18.1688 8.75627M14.0062 14.5407L13.125 14.6156L13.2469 15.4922L12.6375 14.85L12.0281 15.4922L12.1453 14.6156L11.2641 14.5407L12.0281 14.086L11.5359 13.35L12.3656 13.6641L12.6375 12.8203L12.9047 13.6641L13.7344 13.35L13.2469 14.086M23.2969 13.2282L22.4156 13.3031L22.5375 14.1797L21.9281 13.5375L21.3187 14.1797L21.4359 13.3031L20.5547 13.2282L21.3187 12.7735L20.8266 12.0375L21.6562 12.3516L21.9281 11.5078L22.2 12.3516L23.025 12.0375L22.5375 12.7735M19.5281 16.6406L19.0453 16.9406L19.1813 16.3875L18.7453 16.0219L19.3078 15.9797L19.5281 15.4547L19.7344 15.9844L20.3016 16.0313L19.8703 16.3922L20.0062 16.9453" fill="white"/>
<path d="M0 0H12V12H0V0Z" fill="#000066"/>
<path d="M12 0V1.5L7.54688 6L12 10.3828V12H10.4297L5.95312 7.59375L1.59375 12H0V10.4062L4.35938 6.02344L0 1.73438V0H1.45312L5.95312 4.40625L10.3125 0H12Z" fill="white"/>
<path d="M4.3125 7.59375L4.57031 8.39062L0.984375 12H0V11.9297L4.3125 7.59375ZM7.21875 7.3125L8.48438 7.5L12 10.9453V12L7.21875 7.3125ZM12 0L7.5 4.59375L7.40625 3.5625L10.9219 0H12ZM0 0.0234375L4.52344 4.45312L3.14062 4.26562L0 1.14844V0.0234375Z" fill="#C8102E"/>
<path d="M4.125 0V12H7.875V0H4.125ZM0 4.125V7.875H12V4.125H0Z" fill="white"/>
<path d="M0 4.875V7.125H12V4.875H0ZM4.875 0V12H7.125V0H4.875Z" fill="#C8102E"/>
</g>
<defs>
<clipPath id="clip0_208_10083">
<rect width="24" height="24" rx="12" fill="white"/>
</clipPath>
</defs>
</svg>
