<svg width="24" height="24" viewBox="0 0 24 24" fill="none" xmlns="http://www.w3.org/2000/svg">
<g clip-path="url(#clip0_208_26438)">
<mask id="mask0_208_26438" style="mask-type:luminance" maskUnits="userSpaceOnUse" x="0" y="0" width="24" height="24">
<path d="M0 0H24V24H0V0Z" fill="white"/>
</mask>
<g mask="url(#mask0_208_26438)">
<path d="M0 0H36V24H0V0Z" fill="#FF0000"/>
<path d="M0 0H18V12H0V0Z" fill="#000095"/>
<path d="M7.70176 6.34683L7.5752 6.82495L8.04863 6.95151L7.95488 6.60464L7.70176 6.34683ZM10.0455 6.60464L9.95176 6.95151L10.4252 6.82495L10.2986 6.34683L10.0455 6.60464ZM7.95488 5.39526L7.70176 5.65308L7.79551 5.99995L7.95488 5.39526Z" fill="white"/>
<path d="M7.79492 6L7.70117 6.34687L7.9543 6.60469L7.79492 6Z" fill="white"/>
<path d="M7.70137 5.65308L7.35449 5.99995L7.70137 6.34683L7.79512 5.99995L7.70137 5.65308ZM8.39512 7.04526L8.65293 7.29839L8.9998 7.20464L8.39512 7.04526ZM9.34668 7.29839L9.82481 7.42495L9.95137 6.95151L9.60449 7.04526L9.34668 7.29839Z" fill="white"/>
<path d="M9.60508 7.04536L9.95195 6.95161L10.0457 6.60474L9.60508 7.04536ZM8.04883 6.95161L8.17539 7.42505L8.65352 7.29849L8.3957 7.04536L8.04883 6.95161ZM9.00039 7.20474L9.34727 7.29849L9.60508 7.04536L9.00039 7.20474Z" fill="white"/>
<path d="M8.65332 7.29834L9.0002 7.64522L9.34707 7.29834L9.0002 7.20459L8.65332 7.29834ZM8.04863 5.04834L7.5752 5.1749L7.70176 5.65303L7.95488 5.39521L8.04863 5.04834ZM7.95488 6.60459L8.04863 6.95147L8.39551 7.04522L7.95488 6.60459ZM10.2049 5.9999L10.2986 5.65303L10.0455 5.39521L10.2049 5.9999Z" fill="white"/>
<path d="M8.3957 4.95459L8.04883 5.04834L7.95508 5.39521L8.3957 4.95459ZM10.0457 5.39521L9.95195 5.04834L9.60508 4.95459L10.0457 5.39521ZM10.2988 6.34678L10.6457 5.9999L10.2988 5.65303L10.2051 5.9999L10.2988 6.34678Z" fill="white"/>
<path d="M10.0449 5.39541L9.6043 4.95478L8.99961 4.79541L8.39492 4.95478L7.9543 5.39541L7.79492 6.0001L7.9543 6.60478L8.39492 7.04541L8.99961 7.20478L9.6043 7.04541L10.0449 6.60478L10.2043 6.0001L10.0449 5.39541Z" fill="white"/>
<path d="M10.0457 6.60464L10.2988 6.34683L10.2051 5.99995L10.0457 6.60464ZM10.2988 5.65308L10.4254 5.17495L9.95195 5.04839L10.0457 5.39526L10.2988 5.65308ZM9.95195 5.04839L9.82539 4.57495L9.34727 4.70151L9.60508 4.95464L9.95195 5.04839ZM8.65352 4.70151L8.17539 4.57495L8.04883 5.04839L8.3957 4.95464L8.65352 4.70151Z" fill="white"/>
<path d="M9.0002 4.79541L8.65332 4.70166L8.39551 4.95478L9.0002 4.79541Z" fill="white"/>
<path d="M9.34707 4.70161L9.0002 4.35474L8.65332 4.70161L9.0002 4.79536L9.34707 4.70161Z" fill="white"/>
<path d="M9.60449 4.95478L9.34668 4.70166L8.9998 4.79541L9.60449 4.95478ZM8.65293 7.29853L8.1748 7.4251L8.39512 8.2501L8.9998 7.64541L8.65293 7.29853ZM8.39512 8.2501L8.9998 10.5001L9.60449 8.2501L8.9998 7.64541L8.39512 8.2501ZM8.04824 6.95166L7.57481 6.8251L7.35449 7.64541L8.1748 7.4251L8.04824 6.95166Z" fill="white"/>
<path d="M7.35449 7.64536L6.7498 9.89536L8.39512 8.25005L8.1748 7.42505L7.35449 7.64536ZM6.7498 6.60474L5.10449 8.25005L7.35449 7.64536L7.5748 6.82505L6.7498 6.60474Z" fill="white"/>
<path d="M7.70156 6.34692L7.35469 6.00005L6.75 6.60474L7.575 6.82505L7.70156 6.34692ZM7.70156 5.65317L7.575 5.17505L6.75 5.39536L7.35469 6.00005L7.70156 5.65317Z" fill="white"/>
<path d="M6.75 5.39526L4.5 5.99995L6.75 6.60464L7.35469 5.99995L6.75 5.39526ZM11.25 6.60464L10.425 6.82495L10.6453 7.64526L12.8953 8.24995L11.25 6.60464Z" fill="white"/>
<path d="M9.95156 6.95161L9.825 7.42505L10.6453 7.64536L10.425 6.82505L9.95156 6.95161ZM9.34687 7.29849L9 7.64536L9.60469 8.25005L9.825 7.42505L9.34687 7.29849ZM10.2984 6.34692L10.425 6.82505L11.25 6.60474L10.6453 6.00005L10.2984 6.34692ZM9.60469 8.25005L11.25 9.89536L10.6453 7.64536L9.825 7.42505L9.60469 8.25005ZM9.95156 5.04849L10.425 5.17505L10.6453 4.35474L9.825 4.57505L9.95156 5.04849ZM11.25 5.39536L12.8953 3.75005L10.6453 4.35474L10.425 5.17505L11.25 5.39536ZM10.6453 4.35474L11.25 2.10474L9.60469 3.75005L9.825 4.57505L10.6453 4.35474ZM11.25 6.60474L13.5 6.00005L11.25 5.39536L10.6453 6.00005L11.25 6.60474Z" fill="white"/>
<path d="M10.2984 5.65317L10.6453 6.00005L11.25 5.39536L10.425 5.17505L10.2984 5.65317ZM8.39531 3.75005L6.75 2.10474L7.35469 4.35474L8.175 4.57505L8.39531 3.75005ZM8.04844 5.04849L8.175 4.57505L7.35469 4.35474L7.575 5.17505L8.04844 5.04849Z" fill="white"/>
<path d="M7.35449 4.35469L5.10449 3.75L6.7498 5.39531L7.5748 5.175L7.35449 4.35469ZM9.34668 4.70156L9.8248 4.575L9.60449 3.75L8.9998 4.35469L9.34668 4.70156Z" fill="white"/>
<path d="M9.60488 3.75L9.0002 1.5L8.39551 3.75L9.0002 4.35469L9.60488 3.75Z" fill="white"/>
<path d="M8.65293 4.70156L8.9998 4.35469L8.39512 3.75L8.1748 4.575L8.65293 4.70156Z" fill="white"/>
<path d="M9.0002 8.54995C10.4085 8.54995 11.5502 7.40828 11.5502 5.99995C11.5502 4.59163 10.4085 3.44995 9.0002 3.44995C7.59187 3.44995 6.4502 4.59163 6.4502 5.99995C6.4502 7.40828 7.59187 8.54995 9.0002 8.54995Z" fill="#000095"/>
<path d="M9 8.25C10.2426 8.25 11.25 7.24264 11.25 6C11.25 4.75736 10.2426 3.75 9 3.75C7.75736 3.75 6.75 4.75736 6.75 6C6.75 7.24264 7.75736 8.25 9 8.25Z" fill="white"/>
</g>
</g>
<defs>
<clipPath id="clip0_208_26438">
<rect width="24" height="24" rx="12" fill="white"/>
</clipPath>
</defs>
</svg>
