<svg width="24" height="24" viewBox="0 0 24 24" fill="none" xmlns="http://www.w3.org/2000/svg">
<g clip-path="url(#clip0_208_27034)">
<path fill-rule="evenodd" clip-rule="evenodd" d="M0 0H24V24H0V0Z" fill="#4B92DB"/>
<path d="M13.8838 17.61C13.7967 17.7044 13.7014 17.7907 13.5988 17.868C12.9628 17.208 12.2128 16.482 11.5018 16.482C11.0608 16.482 10.7458 16.818 10.3738 17.052C9.86077 17.382 9.15577 17.568 8.55277 17.325C8.21173 17.2082 7.9089 17.0008 7.67677 16.725C7.9321 16.8842 8.22148 16.9809 8.52127 17.0069C8.82107 17.033 9.12278 16.9878 9.40177 16.875C9.99277 16.629 10.5988 16.302 11.2738 16.302C12.2698 16.302 13.2178 16.977 13.8838 17.61ZM6.51577 15.54C7.17577 16.29 8.25277 16.05 9.13177 16.236C9.25477 16.266 9.37177 16.305 9.50377 16.284C9.39877 16.218 9.25777 16.209 9.13777 16.164C8.45377 15.906 8.34877 15.174 7.97377 14.673C8.45377 14.991 8.84677 15.423 9.29377 15.834C9.60885 16.0945 9.98993 16.2627 10.3948 16.32C10.2988 16.356 10.1728 16.35 10.0648 16.374C9.34477 16.554 8.54677 16.836 7.77877 16.584C7.2432 16.4054 6.79377 16.033 6.51877 15.54H6.51577ZM5.45977 13.8C5.87077 14.733 6.90577 14.808 7.58977 15.378C7.71242 15.4869 7.84853 15.5797 7.99477 15.654L8.00377 15.648C7.83465 15.5005 7.68269 15.3345 7.55077 15.153C7.15777 14.583 7.28677 13.803 6.98377 13.197C7.26521 13.5098 7.49875 13.8627 7.67677 14.244C7.93177 14.85 8.01877 15.543 8.59177 16.005C7.97077 15.801 7.25677 15.84 6.70177 15.477C6.11377 15.093 5.57077 14.487 5.45977 13.803V13.8ZM5.01877 11.916C5.07877 12.738 5.94877 13.176 6.36877 13.851C6.45877 13.995 6.54877 14.145 6.67777 14.259C6.65677 14.172 6.58777 14.094 6.54577 14.01C6.40805 13.7067 6.35318 13.3724 6.38677 13.041C6.42577 12.621 6.59977 12.231 6.53377 11.79C6.89377 12.567 6.77677 13.536 6.98377 14.373C7.03177 14.559 7.14277 14.721 7.21177 14.898C6.86077 14.628 6.39877 14.388 6.01177 14.088C5.62594 13.8106 5.32474 13.4315 5.14177 12.993C5.02396 12.647 4.98201 12.2796 5.01877 11.916ZM5.04277 10.404C5.08477 10.221 5.11777 10.032 5.19577 9.86398C5.04577 10.638 5.56177 11.196 5.73577 11.868C5.80177 12.12 5.82577 12.387 5.92777 12.624C5.93677 12.627 5.94577 12.618 5.95177 12.612C5.69677 11.898 6.07177 11.238 6.43177 10.677C6.51998 10.5231 6.58278 10.3559 6.61777 10.182C6.65677 10.506 6.58777 10.878 6.52777 11.211C6.45277 11.64 6.30577 12.042 6.18877 12.456C6.12541 12.7258 6.1203 13.006 6.17377 13.278L6.13477 13.248C5.86477 12.75 5.33077 12.36 5.17177 11.814C5.01978 11.3604 4.97562 10.8776 5.04277 10.404ZM5.32777 9.56998C5.33757 9.01891 5.53913 8.48849 5.89777 8.06998C5.90677 8.06398 5.91577 8.05498 5.92777 8.05798C5.54977 8.62798 5.89477 9.35398 5.84377 10.005L5.79577 10.671C5.80177 10.677 5.80177 10.698 5.81977 10.689C5.84377 10.614 5.84977 10.536 5.86177 10.458C5.95177 9.91798 6.42577 9.54598 6.82477 9.16798C6.91706 9.08086 6.98879 8.97428 7.03477 8.85598C7.00177 9.12598 6.92677 9.39898 6.80677 9.64198C6.49777 10.266 5.90377 10.77 5.79577 11.481C5.74477 10.8 5.32777 10.293 5.32777 9.56998ZM6.31777 7.59298C6.49024 7.38562 6.71969 7.23335 6.97777 7.15498C6.48277 7.49398 6.50977 8.09698 6.35977 8.60098C6.30577 8.78398 6.22477 8.95798 6.17977 9.14698L6.19477 9.15898C6.28318 8.93207 6.42161 8.72801 6.59977 8.56198C6.94477 8.23798 7.46377 8.03998 7.63477 7.56298C7.62577 8.22598 7.06177 8.72998 6.54577 9.11998C6.31607 9.29327 6.12927 9.51703 5.99977 9.77398C6.01777 9.59398 6.02977 9.43798 6.01177 9.26098C5.95777 8.68198 5.92177 8.03098 6.32077 7.59298H6.31777ZM8.31277 6.47998C7.94977 6.80098 7.70677 7.21198 7.42477 7.58098C7.19377 7.88998 6.87277 8.07898 6.59977 8.33698C6.74977 8.03098 6.77377 7.67698 6.96277 7.37998C7.28377 6.86998 7.81777 6.67198 8.31277 6.47998Z" fill="white"/>
<path d="M10.1162 17.61C10.2033 17.7044 10.2986 17.7907 10.4012 17.868C11.0372 17.208 11.7872 16.482 12.4982 16.482C12.9392 16.482 13.2542 16.818 13.6262 17.052C14.1392 17.382 14.8442 17.568 15.4472 17.325C15.7883 17.2082 16.0911 17.0008 16.3232 16.725C16.0679 16.8842 15.7785 16.9809 15.4787 17.0069C15.1789 17.033 14.8772 16.9878 14.5982 16.875C14.0072 16.629 13.4012 16.302 12.7262 16.302C11.7302 16.302 10.7822 16.977 10.1162 17.61ZM17.4842 15.54C16.8242 16.29 15.7472 16.05 14.8682 16.236C14.7452 16.266 14.6282 16.305 14.4962 16.284C14.6012 16.218 14.7422 16.209 14.8622 16.164C15.5462 15.906 15.6512 15.174 16.0262 14.673C15.5462 14.991 15.1532 15.423 14.7062 15.834C14.3911 16.0945 14.0101 16.2627 13.6052 16.32C13.7012 16.356 13.8272 16.35 13.9352 16.374C14.6552 16.554 15.4532 16.836 16.2212 16.584C16.7568 16.4054 17.2062 16.033 17.4812 15.54H17.4842ZM18.5402 13.8C18.1292 14.733 17.0942 14.808 16.4102 15.378C16.2876 15.4869 16.1515 15.5797 16.0052 15.654L15.9962 15.648C16.1654 15.5005 16.3173 15.3345 16.4492 15.153C16.8422 14.583 16.7132 13.803 17.0162 13.197C16.7348 13.5098 16.5012 13.8627 16.3232 14.244C16.0682 14.85 15.9812 15.543 15.4082 16.005C16.0292 15.801 16.7432 15.84 17.2982 15.477C17.8862 15.093 18.4292 14.487 18.5402 13.803V13.8ZM18.9812 11.916C18.9212 12.738 18.0512 13.176 17.6312 13.851C17.5412 13.995 17.4512 14.145 17.3222 14.259C17.3432 14.172 17.4122 14.094 17.4542 14.01C17.592 13.7067 17.6468 13.3724 17.6132 13.041C17.5742 12.621 17.4002 12.231 17.4662 11.79C17.1062 12.567 17.2232 13.536 17.0162 14.373C16.9682 14.559 16.8572 14.721 16.7882 14.898C17.1392 14.628 17.6012 14.388 17.9882 14.088C18.3741 13.8106 18.6753 13.4315 18.8582 12.993C18.976 12.647 19.018 12.2796 18.9812 11.916ZM18.9572 10.404C18.9152 10.221 18.8822 10.032 18.8042 9.86398C18.9542 10.638 18.4382 11.196 18.2642 11.868C18.1982 12.12 18.1742 12.387 18.0722 12.624C18.0632 12.627 18.0542 12.618 18.0482 12.612C18.3032 11.898 17.9282 11.238 17.5682 10.677C17.48 10.5231 17.4172 10.3559 17.3822 10.182C17.3432 10.506 17.4122 10.878 17.4722 11.211C17.5472 11.64 17.6942 12.042 17.8112 12.456C17.8746 12.7258 17.8797 13.006 17.8262 13.278L17.8652 13.248C18.1352 12.75 18.6692 12.36 18.8282 11.814C18.9802 11.3604 19.0244 10.8776 18.9572 10.404ZM18.6722 9.56998C18.6624 9.01891 18.4609 8.48849 18.1022 8.06998C18.0932 8.06398 18.0842 8.05498 18.0722 8.05798C18.4502 8.62798 18.1052 9.35398 18.1562 10.005L18.2042 10.671C18.1982 10.677 18.1982 10.698 18.1802 10.689C18.1562 10.614 18.1502 10.536 18.1382 10.458C18.0482 9.91798 17.5742 9.54598 17.1752 9.16798C17.0829 9.08086 17.0112 8.97428 16.9652 8.85598C16.9982 9.12598 17.0732 9.39898 17.1932 9.64198C17.5022 10.266 18.0962 10.77 18.2042 11.481C18.2552 10.8 18.6722 10.293 18.6722 9.56998ZM17.6822 7.59298C17.5098 7.38562 17.2803 7.23335 17.0222 7.15498C17.5172 7.49398 17.4902 8.09698 17.6402 8.60098C17.6942 8.78398 17.7752 8.95798 17.8202 9.14698L17.8052 9.15898C17.7168 8.93207 17.5784 8.72801 17.4002 8.56198C17.0552 8.23798 16.5362 8.03998 16.3652 7.56298C16.3742 8.22598 16.9382 8.72998 17.4542 9.11998C17.6839 9.29327 17.8707 9.51703 18.0002 9.77398C17.9822 9.59398 17.9702 9.43798 17.9882 9.26098C18.0422 8.68198 18.0782 8.03098 17.6792 7.59298H17.6822ZM15.6872 6.47998C16.0502 6.80098 16.2932 7.21198 16.5752 7.58098C16.8062 7.88998 17.1272 8.07898 17.4002 8.33698C17.2502 8.03098 17.2262 7.67698 17.0372 7.37998C16.7162 6.86998 16.1822 6.67198 15.6872 6.47998Z" fill="white"/>
<path d="M16.4531 13.1016L16.3406 13.0407C16.1139 13.5092 15.8132 13.9381 15.45 14.311L14.8219 13.6829C15.1268 13.3688 15.3771 13.006 15.5625 12.6094L15.4547 12.5532C15.275 12.9374 15.0326 13.2891 14.7375 13.5938L14.1656 13.0219C14.4077 12.7719 14.6043 12.4816 14.7469 12.1641L14.6391 12.1079C14.5026 12.4147 14.3139 12.6954 14.0813 12.9375L13.4531 12.3141C13.6265 12.1307 13.7633 11.9159 13.8563 11.6813L13.7484 11.625C13.6617 11.849 13.5328 12.0543 13.3688 12.2297L12.7969 11.6579C12.9603 11.4769 13.0564 11.2451 13.0688 11.0016H13.875C13.8688 11.2151 13.826 11.426 13.7484 11.625L13.8563 11.6813C13.942 11.4662 13.9896 11.2378 13.9969 11.0063H14.8875C14.8791 11.3879 14.7946 11.764 14.6391 12.1125L14.7469 12.1688C14.9102 11.801 14.9979 11.404 15.0047 11.0016H15.8109C15.8041 11.5398 15.6827 12.0703 15.4547 12.5579L15.5625 12.6141C15.7969 12.1172 15.9234 11.5688 15.9328 11.0016H16.8234C16.8148 11.7086 16.6499 12.4049 16.3406 13.0407L16.4484 13.1016C16.7756 12.4299 16.9455 11.6925 16.9453 10.9454C16.9453 10.2985 16.8188 9.67036 16.5844 9.08911L16.4766 9.13599C16.6969 9.68442 16.8141 10.275 16.8234 10.8844H15.9328C15.9245 10.4071 15.8292 9.93532 15.6516 9.49224L15.5438 9.53911C15.7136 9.96764 15.8042 10.4235 15.8109 10.8844H15.0047C14.9987 10.5315 14.9305 10.1824 14.8031 9.85317L14.6953 9.90005C14.8148 10.2147 14.8783 10.5479 14.8828 10.8844H13.9922C13.9872 10.6701 13.9476 10.458 13.875 10.2563L13.7625 10.3032C13.8305 10.4897 13.8685 10.6859 13.875 10.8844H13.0688C13.0564 10.6409 12.9603 10.4091 12.7969 10.2282L13.3688 9.66099C13.544 9.84563 13.6796 10.0642 13.7672 10.3032L13.875 10.2563C13.7819 10.0035 13.6384 9.77224 13.4531 9.57661L14.0813 8.9438C14.3464 9.22029 14.5536 9.54701 14.6906 9.90474L14.8031 9.85786C14.6592 9.48593 14.4425 9.14648 14.1656 8.85942L14.7375 8.29224C15.0856 8.65083 15.3596 9.07453 15.5438 9.53911L15.6563 9.49224C15.4652 9.01346 15.1817 8.57702 14.8219 8.20786L15.4547 7.57505C15.8939 8.02367 16.2411 8.55396 16.4766 9.13599L16.5844 9.08911C16.3358 8.47471 15.9659 7.91672 15.4969 7.44849C15.0263 6.97668 14.465 6.60514 13.8469 6.3563L13.8 6.4688C14.3854 6.70319 14.9189 7.0504 15.3703 7.49067L14.7375 8.12349C14.3744 7.76969 13.9462 7.48954 13.4766 7.29849L13.4297 7.41099C13.8852 7.59507 14.3006 7.86568 14.6531 8.20786L14.0813 8.77974C13.8091 8.51581 13.4894 8.30585 13.1391 8.16099L13.0922 8.27349C13.4283 8.41149 13.7353 8.61189 13.9969 8.86411L13.3688 9.49224C13.1939 9.32742 12.9906 9.19561 12.7688 9.10317L12.7219 9.21567C12.9295 9.30133 13.12 9.42358 13.2844 9.57661L12.7125 10.1485C12.5316 9.98504 12.2998 9.88901 12.0563 9.87661V9.07036C12.2864 9.07558 12.5137 9.12325 12.7266 9.21099L12.7734 9.10317C12.5475 9.00822 12.3059 8.95578 12.0609 8.94849V8.05786C12.415 8.06567 12.7646 8.13877 13.0922 8.27349L13.1391 8.16099C12.7963 8.0217 12.4308 7.94701 12.0609 7.94067V7.12505C12.5322 7.13295 12.9979 7.22832 13.4344 7.4063L13.4813 7.2938C13.0297 7.11114 12.548 7.01418 12.0609 7.00786V6.11724C12.6703 6.12192 13.2563 6.2438 13.8047 6.46411L13.8516 6.35161C13.2627 6.11659 12.634 5.99723 12 6.00005C11.2316 5.9996 10.4738 6.17942 9.7875 6.52505L9.84375 6.62817C10.4948 6.30275 11.2113 6.12963 11.9391 6.12192V7.01255C11.3547 7.02083 10.7796 7.1602 10.2563 7.42036L10.3125 7.52349C10.8185 7.27259 11.3743 7.13806 11.9391 7.12974V7.94067C11.505 7.94851 11.0779 8.05088 10.6875 8.24067L10.7391 8.3438C11.1136 8.16274 11.5231 8.06518 11.9391 8.05786V8.94849C11.6681 8.95681 11.4016 9.02062 11.1563 9.13599L11.2078 9.23911C11.4373 9.13242 11.6861 9.07341 11.9391 9.06567V9.87661C11.8125 9.8813 11.6953 9.91411 11.5828 9.96099L11.6391 10.0641C11.7536 10.0173 11.8762 9.99342 12 9.9938C12.1247 9.99421 12.2482 10.0193 12.3632 10.0675C12.4783 10.1158 12.5826 10.1863 12.6703 10.275C12.759 10.3627 12.8296 10.4671 12.8778 10.5821C12.9261 10.6972 12.9512 10.8206 12.9516 10.9454C12.9516 11.4657 12.525 11.8969 12 11.8969C11.8744 11.8974 11.75 11.8728 11.6341 11.8245C11.5182 11.7762 11.4131 11.7052 11.325 11.6157C11.2371 11.5276 11.1675 11.4231 11.12 11.308C11.0726 11.193 11.0482 11.0698 11.0484 10.9454C11.0484 10.6875 11.1469 10.4485 11.3297 10.2704C11.4182 10.1819 11.5234 10.1118 11.6391 10.0641L11.5828 9.9563C11.4747 10.0022 11.375 10.0655 11.2875 10.1438L10.7156 9.57661C10.8589 9.4373 11.0234 9.32178 11.2031 9.23442L11.1563 9.14067C10.9634 9.23076 10.7862 9.35102 10.6313 9.49692L9.99844 8.85942C10.2168 8.64979 10.4667 8.47579 10.7391 8.3438L10.6875 8.24067C10.4047 8.37917 10.1453 8.56105 9.91875 8.77974L9.34688 8.20317C9.63115 7.92615 9.95695 7.69524 10.3125 7.5188L10.2563 7.41567C9.89067 7.59731 9.55544 7.8345 9.2625 8.1188L8.62969 7.48599C8.98733 7.13743 9.39689 6.84647 9.84375 6.62349L9.7875 6.52036C8.82423 7.00532 8.0445 7.78999 7.56563 8.7563L7.66875 8.81255C7.8935 8.35479 8.18936 7.93553 8.54531 7.57036L9.17813 8.20317C8.88347 8.50751 8.63972 8.8573 8.45625 9.23911L8.55938 9.29536C8.73776 8.92364 8.97521 8.58329 9.2625 8.28755L9.83438 8.85942C9.60281 9.09988 9.41273 9.37708 9.27188 9.67974L9.375 9.73599C9.50878 9.44204 9.69101 9.17267 9.91406 8.93911L10.5469 9.57192C10.3848 9.74452 10.2547 9.94449 10.1625 10.1625L10.2656 10.2188C10.3526 10.0108 10.4765 9.82023 10.6313 9.6563L11.2031 10.2282C11.041 10.4081 10.9451 10.6379 10.9313 10.8797H10.125C10.1315 10.6527 10.1791 10.4288 10.2656 10.2188L10.1625 10.1625C10.0652 10.3896 10.0111 10.6328 10.0031 10.8797H9.1125C9.12039 10.4845 9.20975 10.0951 9.375 9.73599L9.27188 9.67974C9.09569 10.0558 8.9999 10.4645 8.99063 10.8797H8.18438C8.19334 10.3307 8.32128 9.79016 8.55938 9.29536L8.45625 9.23911C8.20863 9.75113 8.07584 10.3111 8.06719 10.8797H7.17656C7.18482 10.1641 7.35299 9.45945 7.66875 8.81724L7.56563 8.7563C7.22912 9.43527 7.05424 10.1829 7.05469 10.9407C7.05539 11.412 7.12326 11.8807 7.25625 12.3329L7.37344 12.3047C7.24825 11.8799 7.18201 11.4398 7.17656 10.9969H8.06719C8.07225 11.3655 8.12906 11.7316 8.23594 12.0844L8.35313 12.0563C8.24892 11.7126 8.19369 11.356 8.18906 10.9969H8.99531C9.00004 11.2897 9.04741 11.5803 9.13594 11.8594L9.25313 11.8313C9.1656 11.5616 9.11822 11.2804 9.1125 10.9969H10.0031C10.0097 11.2065 10.0493 11.4137 10.1203 11.611L10.2375 11.5829C10.169 11.3948 10.131 11.197 10.125 10.9969H10.9313C10.9437 11.2404 11.0397 11.4722 11.2031 11.6532L10.6313 12.225C10.4578 12.0399 10.3238 11.8214 10.2375 11.5829L10.1203 11.611C10.2125 11.8709 10.3578 12.1087 10.5469 12.3094L9.91875 12.9375C9.61583 12.6241 9.38821 12.2458 9.25313 11.8313L9.13594 11.8594C9.27651 12.2954 9.51548 12.6931 9.83438 13.0219L9.2625 13.5938C8.84127 13.161 8.5295 12.6339 8.35313 12.0563L8.23594 12.0844C8.41667 12.6829 8.73814 13.2294 9.17344 13.6782L8.55 14.3063C7.99978 13.7456 7.59575 13.0582 7.37344 12.3047L7.25625 12.3329C7.48794 13.1283 7.91684 13.8522 8.50313 14.4375C8.90625 14.8407 9.37031 15.1641 9.86719 15.4032L9.92813 15.3C9.44646 15.0711 9.00611 14.7638 8.625 14.3907L9.25781 13.7625C9.58071 14.0755 9.95488 14.3308 10.3641 14.5172L10.4203 14.4141C10.0213 14.2326 9.65656 13.9837 9.34219 13.6782L9.91406 13.1063C10.1766 13.3597 10.4832 13.563 10.8188 13.7063L10.8797 13.6032C10.5526 13.4654 10.2538 13.2683 9.99844 13.0219L10.6266 12.3938C10.8263 12.5807 11.0625 12.7243 11.3203 12.8157L11.3813 12.7125C11.1319 12.6269 10.9035 12.4895 10.7109 12.3094L11.2828 11.7375C11.4638 11.901 11.6955 11.997 11.9391 12.0094V12.8157C11.7474 12.8103 11.5577 12.7755 11.3766 12.7125L11.3203 12.8204C11.5178 12.8899 11.725 12.9279 11.9344 12.9329V13.8235C11.5721 13.8171 11.2142 13.7423 10.8797 13.6032L10.8188 13.7063C11.1719 13.8567 11.5506 13.9379 11.9344 13.9454V14.7516C11.4118 14.7445 10.8964 14.6296 10.4203 14.4141L10.3641 14.5172C10.8572 14.7434 11.3919 14.8647 11.9344 14.8735V15.7641C11.2313 15.7547 10.5469 15.5954 9.91875 15.2954L9.8625 15.4032C10.5293 15.7242 11.2599 15.8908 12 15.8907C12.7875 15.8907 13.5469 15.7032 14.2266 15.361L14.1703 15.2485C13.5159 15.5796 12.7943 15.756 12.0609 15.7641V14.8735C12.652 14.8662 13.2337 14.7252 13.7625 14.461L13.7063 14.3532C13.1953 14.61 12.6328 14.7479 12.0609 14.7563V13.95C12.5055 13.9415 12.9426 13.8342 13.3406 13.636L13.2844 13.5282C12.9042 13.7192 12.4863 13.8233 12.0609 13.8329V12.9422C12.3441 12.9341 12.6222 12.8654 12.8766 12.7407L12.8203 12.6329C12.5833 12.7483 12.3245 12.8122 12.0609 12.8204V12.0141C12.3028 12.0007 12.5328 11.9047 12.7125 11.7422L13.2844 12.3141C13.1465 12.443 12.9901 12.5504 12.8203 12.6329L12.8766 12.7407C13.0569 12.652 13.2228 12.5367 13.3688 12.3985L13.9969 13.0266C13.7861 13.2288 13.5458 13.3979 13.2844 13.5282L13.3406 13.636C13.6126 13.4994 13.8623 13.3224 14.0813 13.111L14.6531 13.6829C14.3734 13.9531 14.0541 14.1792 13.7063 14.3532L13.7625 14.461C14.121 14.2808 14.4498 14.0469 14.7375 13.7672L15.3656 14.3954C15.0129 14.7389 14.6098 15.0265 14.1703 15.2485L14.2266 15.361C14.6944 15.1237 15.1216 14.8136 15.4922 14.4422C15.8836 14.0519 16.2068 13.5987 16.4484 13.1016H16.4531Z" fill="white"/>
<path d="M12.2535 9.79697V9.83916H12.2863V9.80166L12.2535 9.79697ZM12.2066 9.7501H12.2535V9.78291H12.2066V9.7501ZM12.1738 9.7501V9.71729L12.141 9.7126V9.74072L12.1738 9.7501ZM12.1082 9.73135L12.0754 9.72666V9.69385L12.1129 9.69853L12.1082 9.73135ZM11.8223 9.69385H11.8598V9.72197H11.8223V9.69385ZM11.766 9.7501V9.72197L11.7332 9.71729V9.74541L11.766 9.7501ZM11.7332 9.79697L11.691 9.78291L11.7004 9.75479L11.7379 9.76416L11.7332 9.79697ZM11.6629 9.82978L11.6582 9.80166L11.6863 9.79697L11.691 9.8251L11.6629 9.82978ZM7.73477 12.8907H7.71133V12.9376H7.75352V13.0079H7.78164L7.77695 12.9282L7.73477 12.9142V12.8907ZM8.12852 13.3313L8.10977 13.3642L8.05352 13.3173L8.01602 13.261L7.99727 13.2142L7.95977 13.1204L8.03477 13.1579L8.0582 13.2282L8.0957 13.2563L8.12852 13.3313ZM9.14102 14.672L9.10352 14.611L9.16445 14.6204L9.22539 14.6767L9.25352 14.7423L9.21602 14.761L9.19727 14.7329L9.15039 14.7188L9.14102 14.672ZM11.8504 10.1251H11.7941L11.7848 10.0126L11.8176 9.98916V9.9376H11.6395V9.89072L11.6629 9.87197L11.6207 9.85791L11.5926 9.9001L11.5832 9.94697L11.5316 9.95635V9.97978H11.4941V10.0454L11.3535 10.1626L11.077 10.1532C11.0582 10.2001 11.0066 10.1485 11.0066 10.1485C10.9973 10.1157 10.927 10.1485 10.927 10.1485C10.927 10.2001 10.8332 10.1204 10.8332 10.1204L10.6598 9.99385C10.5613 9.9001 10.4113 10.022 10.4066 10.0454C10.4066 10.1157 10.2895 10.0595 10.2895 10.0595C10.2895 10.0595 10.191 10.0313 10.177 10.0688C10.1582 10.111 10.0973 10.1017 10.0973 10.1017L10.0832 10.1204L10.0363 10.1298L10.027 10.1626L9.96602 10.172L10.116 10.1673C10.1535 10.1626 10.102 10.2517 10.0738 10.247L10.0035 10.2517L9.98008 10.2798H9.91445L9.88633 10.3173H9.79258C9.79258 10.3173 9.73633 10.3595 9.74102 10.3735C9.7457 10.3876 9.73164 10.4345 9.71758 10.4345C9.70352 10.4345 9.6707 10.4813 9.68008 10.4954C9.68945 10.5095 9.65195 10.561 9.65195 10.561L9.64258 10.6079L9.60977 10.622V10.7626L9.55352 10.8001V10.861L9.45977 10.9548L9.47383 11.0392L9.39883 11.1188L9.4082 11.1985L9.36133 11.2126L9.35195 11.2501L9.3332 11.3579H9.38008C9.4082 11.3532 9.40352 11.4282 9.38008 11.4376C9.36133 11.447 9.30508 11.4657 9.3332 11.4845C9.36602 11.5079 9.2582 11.5032 9.2582 11.4704C9.2582 11.4423 9.19727 11.4188 9.1832 11.4235C9.16914 11.4376 9.14102 11.3813 9.14102 11.3813C9.08945 11.3251 8.9207 11.386 8.9207 11.386L8.89258 11.4657C8.83633 11.4798 8.80352 11.5688 8.80352 11.5688C8.75664 11.5829 8.72383 11.6392 8.73789 11.6532C8.75195 11.672 8.71445 11.6767 8.71445 11.6767V11.7845L8.69102 11.822V11.9438C8.72383 11.9438 8.71914 12.0001 8.71914 12.0001C8.67227 12.0001 8.67695 12.0704 8.67695 12.0704L8.57383 12.1032L8.55508 12.136L8.42383 12.1313L8.39102 12.1642L8.35352 12.1313H8.10508L8.0957 12.1032L8.04883 12.0938L8.03945 12.0376L7.96445 12.0423L7.95039 12.0751H7.8707C7.87539 12.1313 7.79102 12.2063 7.77695 12.1876C7.77227 12.1642 7.71602 12.1126 7.73945 12.0985L7.8332 12.0798V12.0423H7.6457L7.62695 12.0704H7.54727V12.1548L7.51445 12.1642C7.48633 12.1829 7.51445 12.2345 7.51445 12.2345C7.55195 12.272 7.51445 12.3282 7.51445 12.3282C7.48164 12.3563 7.53789 12.4126 7.53789 12.4126C7.57539 12.422 7.51445 12.4548 7.51445 12.4548C7.52383 12.5017 7.55195 12.5204 7.55195 12.5204C7.52383 12.5673 7.5707 12.5954 7.5707 12.5954L7.57539 12.6798L7.61289 12.7032V12.7595L7.63164 12.7923H7.71133L7.70664 12.6657C7.63633 12.586 7.76758 12.5673 7.77227 12.5954C7.77227 12.6282 7.8332 12.6423 7.8332 12.6423C7.84258 12.7173 7.92695 12.7642 7.95039 12.6892C7.97383 12.6095 7.99727 12.6563 8.01133 12.6892C8.02539 12.7267 8.11914 12.8157 8.11914 12.8157H8.19414L8.20352 12.886C8.28789 12.8813 8.31602 12.886 8.34883 13.0079C8.35865 13.0397 8.37556 13.0689 8.39829 13.0933C8.42103 13.1177 8.44899 13.1365 8.48008 13.1485H8.55039C8.55039 13.0876 8.6207 13.1579 8.6207 13.1907C8.6207 13.2188 8.75195 13.3313 8.75195 13.3313L8.89258 13.3642L9.01445 13.4673L9.1082 13.4579H9.15039C9.17383 13.3688 9.29102 13.4579 9.30508 13.4907C9.31445 13.5235 9.39414 13.5751 9.39883 13.547C9.41289 13.5235 9.46914 13.5376 9.47852 13.6126C9.48789 13.6876 9.52539 13.6735 9.52539 13.6735H9.80664L9.90508 13.5798H10.1582C10.2895 13.5751 10.2098 13.3923 10.1863 13.3923C10.1395 13.3595 10.2004 13.2142 10.2004 13.2142L9.83477 12.8767C9.75039 12.8767 9.82539 12.7501 9.82539 12.7501C9.89102 12.7126 9.81133 12.647 9.81133 12.647C9.8207 12.586 9.77852 12.5157 9.77852 12.5157C9.68477 12.4548 9.71289 12.3376 9.71289 12.3376V12.2579C9.63789 12.1876 9.74102 12.1735 9.74102 12.1735C9.77852 12.1126 9.71758 12.0704 9.71758 12.0704L9.71289 12.0048L9.6332 11.9954L9.62383 11.7563L9.44102 11.4985C9.4082 11.4892 9.43164 11.4282 9.43164 11.4282C9.47852 11.4001 9.42227 11.3392 9.42227 11.3392L9.41758 11.2313L9.5207 11.2173L9.54883 11.1798H9.5957V11.0485C9.61445 10.9829 9.67539 11.0157 9.67539 11.0157L9.7457 11.0204L9.78789 10.9454L9.79727 10.8845H9.74102C9.68008 10.8423 9.71289 10.711 9.71289 10.711C9.80664 10.5704 9.91445 10.6501 9.91445 10.6501H9.98477C10.0926 10.7157 9.99414 10.8517 9.99414 10.8517C9.97539 10.8798 9.98477 10.9782 9.98477 10.9782L10.0129 11.1376L9.94727 11.1938C9.89102 11.222 9.89102 11.297 9.94727 11.311C9.99414 11.311 9.97539 11.4095 9.91445 11.3438C9.82539 11.3438 9.96133 11.4282 9.92383 11.4048C10.0176 11.4517 9.99414 11.3673 9.99414 11.3673L10.116 11.2735C10.1629 11.236 10.2379 11.3438 10.2379 11.3626C10.2379 11.3767 10.4395 11.3626 10.4395 11.3626C10.4957 11.4001 10.5145 11.4938 10.5145 11.4938C10.5707 11.4235 10.6832 11.4892 10.5988 11.5267C10.6785 11.5782 10.6785 11.6204 10.6785 11.6204C10.7441 11.6017 10.7441 11.6532 10.7441 11.6673L10.7629 11.5923C10.6879 11.536 10.8613 11.5173 10.8098 11.6204L10.7816 11.6673L10.8332 11.7048L10.8379 11.822C10.9504 11.8126 10.9176 11.6767 10.9176 11.6767L10.9645 11.6626C10.9645 11.6157 11.002 11.6438 11.002 11.6438C10.9691 11.4704 11.0816 11.4423 11.0816 11.4423C11.1473 11.4282 11.152 11.2876 11.152 11.2876C11.1051 11.2688 11.1332 11.1985 11.1848 11.2595C11.2316 11.3204 11.152 11.1376 11.152 11.1376L11.1145 11.1048L11.0582 11.0954L11.0535 11.0438H10.9598L10.9504 11.1142L10.9129 11.1235L10.9035 11.1048L10.8895 11.1563H10.7957V11.0954L10.8473 11.0813L10.8707 11.0532L10.8848 10.9688H10.9504L11.0348 10.9454C11.0348 10.861 11.0816 10.8798 11.0816 10.8798L11.1145 10.9032L11.1613 10.9407V10.9688L11.1332 10.9876L11.1285 11.0251L11.1426 11.0813H11.1848C11.1988 11.0017 11.302 11.0017 11.3348 11.0532L11.3629 10.9829C11.2926 10.9454 11.3629 10.8892 11.3816 10.9173C11.4004 10.9407 11.4473 10.8517 11.4473 10.8517C11.4473 10.8517 11.4801 10.8985 11.4473 10.8329C11.4098 10.772 11.4707 10.7392 11.4707 10.7392C11.4613 10.6829 11.5363 10.6923 11.5363 10.6923L11.541 10.6126L11.4707 10.6079C11.4566 10.6782 11.3957 10.6173 11.4238 10.6032C11.452 10.5892 11.4848 10.5563 11.4848 10.5563V10.5095L11.5176 10.4954V10.4485H11.5973L11.6629 10.4157L11.677 10.3876H11.7473L11.8457 10.2938L11.8363 10.2517C11.7754 10.2517 11.8363 10.2048 11.8363 10.2048L11.8457 10.1298L11.8504 10.1251Z" fill="white"/>
<path d="M9.83449 11.128L9.74543 11.1187L9.75012 11.1562H9.77824C9.81574 11.2265 9.77824 11.3952 9.77824 11.3952C9.77824 11.3952 9.72199 11.3999 9.71262 11.3718C9.70324 11.339 9.67512 11.4374 9.69856 11.4515C9.71731 11.4655 9.78762 11.4515 9.79231 11.5077C9.79231 11.564 9.83918 11.4749 9.83918 11.4749V11.128H9.83449Z" fill="white"/>
<path d="M9.85781 11.6952L9.86719 11.6483L9.82969 11.6343L9.83438 11.5593L9.86719 11.5546V11.5171L9.79688 11.5687L9.75 11.5405V11.6624L9.825 11.7655L9.85781 11.6952ZM9.87656 11.8265L9.83906 11.8312V11.8733H9.87656V11.8265ZM9.82969 12.0843L9.7875 12.089V12.1265L9.83438 12.1218L9.82969 12.0843ZM9.89062 11.9624C9.9 11.9624 9.90937 11.9577 9.90937 11.9437C9.90937 11.9296 9.9 11.9202 9.89062 11.9202C9.88125 11.9202 9.86719 11.9296 9.86719 11.9437C9.86719 11.953 9.87656 11.9624 9.89062 11.9624Z" fill="white"/>
<path d="M9.92383 12.075C9.93677 12.075 9.94727 12.0645 9.94727 12.0515C9.94727 12.0386 9.93677 12.0281 9.92383 12.0281C9.91088 12.0281 9.90039 12.0386 9.90039 12.0515C9.90039 12.0645 9.91088 12.075 9.92383 12.075Z" fill="white"/>
<path d="M9.92383 11.4937C9.93677 11.4937 9.94727 11.4832 9.94727 11.4702C9.94727 11.4573 9.93677 11.4468 9.92383 11.4468C9.91088 11.4468 9.90039 11.4573 9.90039 11.4702C9.90039 11.4832 9.91088 11.4937 9.92383 11.4937Z" fill="white"/>
<path d="M11.3199 11.3156L11.334 11.2688L11.3621 11.25V11.2031L11.3855 11.1656L11.4184 11.1281L11.4277 11.0859L11.4746 11.0578L11.5355 11.0484L11.559 11.0156L11.573 10.9547V10.9078L11.5965 10.8797L11.6574 10.8563V10.7625H11.6246V10.725L11.5684 10.7203L11.5543 10.7438H11.5309L11.5262 10.7859H11.5543L11.559 10.8141L11.5402 10.8328L11.5309 10.8609L11.4934 10.8703L11.3996 10.9547V10.9969L11.3715 11.0344L11.3434 11.1094H11.2355L11.2168 11.2031L11.2309 11.2781L11.3199 11.3156ZM11.7605 11.0672V10.9969L11.7512 10.9313L11.6762 10.8938L11.6199 10.9453L11.6105 11.0156V11.0625L11.5637 11.0719L11.5496 11.2125L11.5121 11.2266V11.2734L11.4652 11.2922L11.4043 11.3063L11.3949 11.3719L11.3574 11.3953L11.3387 11.4563L11.3105 11.6063C11.3105 11.6063 11.3574 11.6906 11.3809 11.6531C11.3876 11.6409 11.397 11.6304 11.4084 11.6223C11.4197 11.6142 11.4327 11.6087 11.4465 11.6063L11.4605 11.5688L11.5965 11.5734C11.6059 11.5172 11.6715 11.5406 11.6715 11.5641C11.6715 11.5875 11.7184 11.5688 11.7184 11.5688L11.7559 11.5125H11.8121V11.4516L11.8402 11.4375V11.3438C11.9199 11.3203 11.9105 11.2453 11.9105 11.2453L11.9293 11.2219L11.9199 11.1844C11.8777 11.1703 11.9012 11.1375 11.9246 11.1422C11.948 11.1563 11.8918 11.0953 11.8918 11.0953C11.859 11.1234 11.8355 11.0672 11.8355 11.0672H11.7605ZM11.8402 11.6766C11.8355 11.7422 11.7605 11.7609 11.7605 11.7609L11.7043 11.7469L11.6762 11.7188L11.6715 11.6484H11.7184L11.723 11.6766H11.8402ZM12.1074 11.3578C12.1215 11.4047 12.1168 11.2875 12.1402 11.2922C12.159 11.2922 12.1402 11.2219 12.1402 11.2219L12.0559 11.2875C12.1027 11.2875 12.1027 11.3344 12.1074 11.3578ZM12.3746 11.0906C12.3934 11.1375 12.3887 11.2031 12.4637 11.2547C12.4871 11.2734 12.4496 11.3016 12.4215 11.2922C12.398 11.2734 12.3277 11.1656 12.3277 11.1656V11.1C12.3418 11.0578 12.3652 11.0719 12.3746 11.0953V11.0906ZM12.4402 12.6188L12.4074 12.6047L12.3746 12.6328L12.3887 12.6469L12.4027 12.6703L12.4402 12.6188ZM12.2527 12.5484V12.6141V12.5484ZM13.0121 12.45L12.9934 12.4266L12.9559 12.45L12.9699 12.4781L13.0121 12.45ZM14.4137 13.5328L14.4605 13.5516V13.6406C14.5215 13.7016 14.7184 13.65 14.7184 13.6359L14.709 13.4484L14.6809 13.4203V13.2938C14.6996 13.2281 14.5871 13.1344 14.573 13.1531C14.5637 13.1719 14.498 13.1578 14.498 13.1766C14.498 13.2 14.4559 13.2984 14.4793 13.3359C14.498 13.3688 14.4652 13.3688 14.4559 13.4063C14.4559 13.4438 14.4043 13.5 14.409 13.5328H14.4137ZM14.3012 13.3313C14.2918 13.3688 14.259 13.3922 14.2402 13.3781C14.2168 13.3594 14.2637 13.4016 14.273 13.425C14.2756 13.4289 14.2791 13.4321 14.2832 13.4342C14.2873 13.4364 14.2918 13.4376 14.2965 13.4376C14.3011 13.4376 14.3057 13.4364 14.3098 13.4342C14.3139 13.4321 14.3174 13.4289 14.3199 13.425C14.334 13.4016 14.3293 13.3547 14.3387 13.3313C14.348 13.3172 14.3105 13.3125 14.3012 13.3313ZM14.0715 12.4031H14.1043V12.4969H14.0715V12.4031ZM14.5871 11.4281C14.5637 11.4 14.6855 11.3484 14.709 11.4094C14.7277 11.4703 14.709 11.4563 14.6855 11.4563C14.6668 11.4469 14.6152 11.4656 14.5918 11.4281H14.5871ZM14.6902 10.7813L14.7465 10.7906V10.7578L14.6996 10.7484L14.6902 10.7813ZM14.559 10.8469L14.5871 10.8328L14.5777 10.8094L14.5684 10.7953L14.5543 10.8L14.5168 10.8234L14.484 10.8L14.4699 10.8281L14.5121 10.8516L14.5168 10.8563H14.5262L14.5543 10.8375L14.559 10.8469ZM14.7465 9.6047H14.6668C14.6668 9.6047 14.6902 9.61407 14.6199 9.54845C14.5496 9.48282 14.5074 9.56251 14.5074 9.56251L14.4277 9.57657V9.65626L14.3902 9.67032V9.7172H14.4465C14.4465 9.7172 14.4465 9.77814 14.4652 9.75001C14.484 9.72189 14.6059 9.7547 14.5918 9.81564C14.5918 9.84376 14.7184 9.90939 14.7043 9.98907C14.7652 9.99845 14.7512 10.0641 14.7512 10.0641L14.8355 10.0781L14.8637 10.0266H14.8871V9.99845L14.8309 9.98439L14.8215 9.82501L14.7887 9.79689L14.798 9.75939L14.7559 9.74064L14.7793 9.67501L14.7418 9.6047H14.7465ZM14.9621 10.1203H14.9199L14.8309 10.1297L14.784 10.2234C14.784 10.2234 14.8074 10.2422 14.8309 10.2797C14.8449 10.3125 14.859 10.5234 14.798 10.5609C14.7371 10.5938 14.798 10.5703 14.798 10.5703L14.7934 10.6828C14.8074 10.7297 14.8309 10.7109 14.8449 10.6828C14.8637 10.6594 14.8777 10.6547 14.8965 10.6266C14.9227 10.5968 14.9419 10.5616 14.9527 10.5234C14.9527 10.4859 14.9809 10.4297 14.9668 10.4156C14.9527 10.4016 14.9809 10.3313 14.9809 10.3313C14.9809 10.3313 14.9996 10.2844 14.9809 10.2469C14.9621 10.2094 14.9855 10.1625 14.9996 10.1438L14.9621 10.1203ZM15.023 10.3266V10.2891H15.0559V10.3359L15.023 10.3266ZM15.023 10.4672L14.9949 10.4531L15.009 10.425L15.0371 10.4391L15.023 10.4672ZM14.9762 10.0641L14.9574 10.0172C14.9574 10.0172 14.9574 9.9797 14.9668 9.96095C14.9762 9.93751 14.948 9.91876 14.9293 9.91407C14.9152 9.90939 14.9199 9.8672 14.9152 9.84845C14.9152 9.8297 14.8777 9.81095 14.8777 9.81095L14.8684 9.72189C14.8684 9.70782 14.8215 9.68439 14.8355 9.67501L14.8777 9.62814C14.8918 9.61407 14.8637 9.54376 14.8871 9.55782C14.9105 9.57657 14.9105 9.6047 14.9199 9.61876C14.9293 9.6422 14.9199 9.71251 14.9434 9.72657C14.9668 9.74064 14.9387 9.7922 14.9762 9.7922C15.0184 9.7922 14.9902 9.88595 14.9902 9.88595C14.9902 9.88595 14.9809 9.96095 15.0043 9.96564C15.0324 9.96564 15.0184 10.0922 15.0184 10.0922L14.9762 10.0641ZM14.6527 9.24376C14.6668 9.2672 14.6996 9.28126 14.6996 9.30001C14.6996 9.32345 14.6855 9.33751 14.7184 9.3422C14.7465 9.34689 14.7652 9.33751 14.7793 9.36095C14.7889 9.38985 14.7889 9.42111 14.7793 9.45001C14.7793 9.46876 14.7887 9.49689 14.8121 9.49689C14.8355 9.49689 14.8402 9.50626 14.8402 9.52032C14.8402 9.53439 14.873 9.46407 14.873 9.46407C14.8449 9.44532 14.8262 9.39845 14.8262 9.39845L14.8027 9.31876C14.8027 9.3047 14.7699 9.29532 14.7559 9.29064C14.7371 9.29064 14.709 9.24376 14.709 9.24376H14.6527ZM14.6996 9.19689C14.6874 9.17946 14.6714 9.16503 14.6527 9.1547C14.634 9.14532 14.6199 9.13595 14.5965 9.13595C14.5911 9.1357 14.5858 9.13412 14.5812 9.13135C14.5765 9.12857 14.5726 9.12469 14.5699 9.12005C14.5671 9.11541 14.5655 9.11016 14.5652 9.10475C14.565 9.09935 14.566 9.09396 14.5684 9.08907C14.5777 9.06564 14.5543 9.05157 14.5543 9.03282C14.5543 9.01407 14.5684 9.01407 14.5918 9.03282C14.6199 9.0422 14.6152 9.04689 14.634 9.07501C14.6527 9.09845 14.6621 9.12189 14.6809 9.12189C14.7043 9.11251 14.7184 9.16876 14.7371 9.15001C14.7559 9.13595 14.7512 9.18751 14.7512 9.18751L14.7043 9.20157L14.6996 9.19689ZM14.1184 9.77345C14.1465 9.80157 13.9684 9.7922 13.9684 9.77345C13.9684 9.7547 13.9871 9.6797 14.0293 9.69376C14.0762 9.71251 14.0762 9.6047 14.0762 9.6047C14.0762 9.6047 14.0387 9.60939 14.0762 9.59064C14.109 9.57189 14.0762 9.54376 14.0574 9.52501L14.0293 9.48282H14.0996C14.1277 9.46407 14.1371 9.36564 14.1371 9.36564C14.198 9.38907 14.2309 9.34689 14.2309 9.34689C14.2309 9.34689 14.2402 9.3797 14.259 9.40314C14.2777 9.42657 14.2121 9.44064 14.2355 9.45001C14.259 9.46876 14.2684 9.51564 14.259 9.5297C14.2496 9.54376 14.1934 9.5297 14.1934 9.51564C14.1934 9.4922 14.1746 9.53907 14.1934 9.56251C14.2121 9.59064 14.1699 9.62814 14.1605 9.62814C14.1512 9.62814 14.0855 9.63751 14.1371 9.66564C14.1934 9.69845 14.2543 9.6797 14.2543 9.6797C14.2543 9.6797 14.3012 9.6797 14.3152 9.70314C14.3293 9.72657 14.3105 9.73126 14.2824 9.73126L14.1418 9.72189C14.1418 9.72189 14.1043 9.75939 14.1184 9.76876V9.77345ZM13.7996 9.82032C13.823 9.81095 13.884 9.80626 13.8934 9.82032C13.9027 9.83907 13.8605 9.85782 13.8605 9.85782L13.7996 9.8672C13.7809 9.84376 13.7762 9.82032 13.7996 9.82032ZM14.4418 9.39376C14.484 9.37032 14.5684 9.37032 14.5637 9.3422C14.559 9.30939 14.6105 9.30001 14.6105 9.30001L14.6293 9.36095L14.6762 9.39376V9.45001C14.6762 9.45001 14.6949 9.44064 14.6387 9.45001C14.5824 9.46876 14.6199 9.49689 14.6199 9.49689H14.498L14.484 9.45001L14.4418 9.39376ZM14.2496 9.1172C14.2777 9.1172 14.2402 9.23439 14.3199 9.22501C14.3996 9.21564 14.3199 9.26251 14.3855 9.2672C14.4418 9.2672 14.4324 9.22032 14.4465 9.18282C14.4699 9.15001 14.4605 9.13126 14.423 9.1172C14.3902 9.10782 14.3902 9.10782 14.3762 9.07032C14.3668 9.02814 14.3293 9.01876 14.3293 9.01876L14.3152 8.95782L14.2496 9.00001L14.184 9.08439C14.184 9.15001 14.2168 9.1172 14.2496 9.1172ZM14.3809 9.54845L14.3949 9.51564L14.423 9.5297L14.409 9.56251L14.3809 9.54845ZM14.3293 9.50157H14.3574V9.53439H14.3293V9.50157ZM14.3527 8.82657L14.3574 8.87345H14.3293L14.3246 8.82657H14.3527ZM14.2684 9.29532H14.3012V9.32345H14.2684V9.29532ZM14.1887 9.29532V9.2672L14.2355 9.26251L14.2402 9.29064L14.1887 9.29532ZM13.7809 9.78282L13.7527 9.76876L13.7668 9.73595L13.7949 9.74532L13.7809 9.78282ZM13.6215 9.68907V9.66095L13.6684 9.65626V9.68439L13.6215 9.68907ZM12.6465 9.68907V9.7172L12.759 9.71251V9.6797L12.6465 9.68907ZM12.5762 9.72657L12.5668 9.6797L12.5949 9.67501L12.6043 9.72189L12.5762 9.72657ZM12.5527 9.7547L12.5434 9.72657H12.5574L12.5668 9.75001L12.5527 9.7547ZM12.8012 9.67032V9.70782H12.848C12.848 9.70782 12.8762 9.73126 12.8762 9.74532C12.8762 9.75939 12.9137 9.77814 12.9324 9.77814C12.9512 9.77814 13.0074 9.73595 13.0074 9.73595C13.0074 9.73595 13.0309 9.66564 13.0074 9.67032C12.9934 9.67501 12.9512 9.70782 12.9465 9.67501C12.9465 9.64689 12.8809 9.66095 12.8809 9.66095L12.8012 9.67032ZM13.0496 9.61407C13.0496 9.63282 13.0402 9.65157 13.073 9.65626C13.1012 9.65626 13.1574 9.63751 13.1621 9.66564C13.1621 9.69845 13.1621 9.71251 13.209 9.73126C13.2386 9.74389 13.2705 9.75027 13.3027 9.75001L13.3965 9.74064C13.3965 9.74064 13.4668 9.7547 13.4809 9.76876C13.5371 9.82501 13.5746 9.83907 13.584 9.81564C13.6027 9.78751 13.584 9.73126 13.5746 9.71251C13.5746 9.69376 13.4996 9.59532 13.4762 9.61876C13.4527 9.63751 13.448 9.61876 13.4012 9.63282C13.3543 9.64689 13.2605 9.63282 13.2605 9.61407C13.2512 9.59532 13.1809 9.58595 13.1809 9.5672C13.1809 9.54376 13.134 9.52032 13.134 9.54845C13.1434 9.58126 13.1012 9.59532 13.0871 9.58595C13.0824 9.57657 13.0496 9.61407 13.0496 9.61407ZM14.198 8.9672L14.2355 8.8547C14.184 8.84532 14.1934 8.78907 14.1934 8.78907C14.1934 8.7422 14.1184 8.69532 14.0949 8.70939C14.0715 8.72345 14.0809 8.60157 14.0809 8.60157C14.0809 8.60157 14.1277 8.57345 14.1465 8.58751C14.1652 8.60157 13.973 8.33439 13.9355 8.35782C13.8934 8.38595 13.8043 8.33439 13.809 8.28751C13.8137 8.24064 13.6309 8.09064 13.6309 8.09064C13.6309 8.09064 13.5699 8.05314 13.5605 8.08126C13.5512 8.10939 13.5324 8.12814 13.5605 8.14689C13.5887 8.16095 13.584 8.12345 13.6215 8.15626C13.6543 8.19376 13.7199 8.23595 13.6965 8.26876C13.6684 8.29689 13.6402 8.31095 13.6402 8.31095L13.6777 8.34845H13.7293L13.7387 8.43751C13.7387 8.43751 13.7996 8.46564 13.8137 8.50314C13.8324 8.53595 13.8324 8.55939 13.8137 8.57814C13.7996 8.59689 13.7668 8.63439 13.7762 8.67189C13.7762 8.7047 13.823 8.71876 13.823 8.71876L13.8605 8.72345L13.8887 8.73751V8.80314C13.9309 8.79376 13.9965 8.85001 13.9918 8.88751C13.9871 8.92032 14.0012 8.90157 14.048 8.93439C14.0949 8.97189 14.0855 8.98126 14.1184 9.0047C14.1559 9.02814 14.184 9.01407 14.198 8.9672Z" fill="white"/>
<path d="M13.3783 8.27808C13.3736 8.25933 13.3596 8.18433 13.3924 8.1937C13.4205 8.1937 13.4018 8.1937 13.4393 8.20776C13.4721 8.22183 13.4768 8.18433 13.4768 8.18433H13.533L13.6033 8.24058L13.5893 8.28745H13.5424C13.5143 8.24995 13.4674 8.26401 13.4768 8.30151C13.4861 8.33433 13.4533 8.39995 13.4299 8.40464C13.4111 8.40933 13.3455 8.40933 13.3502 8.3812L13.3783 8.27808ZM13.3361 8.14214V8.09995C13.3361 8.09995 13.3361 8.06245 13.308 8.06245C13.2799 8.06245 13.2377 8.02964 13.2471 8.01089C13.2564 7.99214 13.1627 7.9687 13.1627 7.9687C13.1627 7.9687 13.0783 7.88901 13.1064 7.89839C13.1393 7.90776 13.1205 7.86558 13.1205 7.86558C13.1205 7.86558 13.0643 7.87495 13.0455 7.86558C13.0314 7.86558 13.0361 7.8187 13.0361 7.8187C13.0361 7.8187 12.9752 7.80464 12.9752 7.8187C12.9752 7.83276 12.9986 7.83276 13.008 7.86558C13.0174 7.8937 13.008 7.94526 13.0549 7.95933C13.1018 7.96401 13.1111 7.97339 13.1158 7.99683C13.1205 8.01558 13.1768 8.02026 13.1768 8.02026L13.2189 8.03901L13.3361 8.14214ZM12.783 7.58433L12.7455 7.57495V7.62183H12.7971L12.783 7.58433ZM12.783 7.41558C12.7314 7.37339 12.8533 7.4437 12.8533 7.4437C12.8908 7.4437 12.9189 7.47651 12.9189 7.49058C12.9189 7.50464 12.9705 7.49995 12.9705 7.49995L12.9799 7.46245L12.9377 7.41558L12.9049 7.38745C12.9049 7.38745 12.8486 7.38745 12.8486 7.3687C12.8486 7.35464 12.8018 7.42964 12.783 7.41558ZM13.7018 7.4437C13.6877 7.49058 13.6783 7.55151 13.6549 7.55151C13.6314 7.55151 13.6408 7.61714 13.6408 7.61714H13.7252C13.7439 7.62651 13.7439 7.67808 13.7439 7.67808C13.8189 7.67339 13.8518 7.77183 13.8377 7.79995C13.833 7.82339 13.8705 7.82339 13.8705 7.82339C13.8705 7.82339 13.8705 7.90308 13.8611 7.92651C13.8518 7.94526 13.9268 7.95933 13.9455 7.99214C13.9643 8.02026 13.9361 8.12339 13.9221 8.12808C13.9033 8.12808 13.9596 8.14683 13.9549 8.17495C13.9502 8.19839 13.9689 8.17495 13.9736 8.21245L13.9924 8.33901L14.058 8.3437C14.0721 8.27808 14.1986 8.27808 14.2174 8.28276C14.3064 8.31558 14.3674 8.44683 14.3674 8.47495C14.3674 8.50776 14.3158 8.51245 14.3158 8.51245L14.3252 8.65776C14.4096 8.68589 14.4799 8.80776 14.4658 8.82651C14.4564 8.84526 14.5268 8.84058 14.5268 8.84058C14.5361 8.74683 14.6205 8.77964 14.6299 8.81245C14.6299 8.84058 14.6486 8.9062 14.6486 8.9062L14.6721 8.95308L14.7096 8.98589H14.7611L14.7752 9.01401L14.8408 9.02339C14.8408 9.02339 14.8971 9.08433 14.9018 9.09839C14.9064 9.11245 14.9814 9.10776 15.0002 9.11245C15.0236 9.11714 15.0518 9.13589 15.0564 9.15933C15.0611 9.18745 15.0939 9.22495 15.0939 9.22495C15.0939 9.22495 15.1502 9.23901 15.1549 9.26245L15.1877 9.32808L15.2346 9.36558L15.2393 9.41245L15.2955 9.41714L15.3096 9.47808H15.4033L15.4502 9.44058C15.5158 9.40308 15.5627 9.3562 15.5674 9.33745C15.5674 9.3187 15.5814 9.2437 15.6283 9.25776C15.6799 9.27183 15.6471 9.14526 15.6471 9.14526C15.6471 9.14526 15.5768 9.09839 15.5814 9.07026C15.5814 9.04214 15.5111 8.99526 15.5158 8.97651C15.5205 8.95308 15.4502 8.91089 15.4549 8.89214C15.4596 8.87339 15.4221 8.81714 15.4221 8.81714L15.3471 8.74683L15.3377 8.69995L15.2768 8.69526L15.1549 8.54995L15.1596 8.50308H15.1268V8.44683L15.0939 8.42808L15.0377 8.42339L14.9252 8.30151L14.9158 8.24526H14.8643L14.8736 8.13745C14.9064 8.09058 14.8877 8.0062 14.8877 8.0062C14.8877 8.0062 14.8174 8.0437 14.7846 8.02495C14.7471 8.01089 14.7986 7.97808 14.7986 7.97808V7.9312L14.7658 7.90308C14.7658 7.90308 14.6814 7.91714 14.6768 7.90308L14.658 7.8187L14.6533 7.73433L14.6158 7.71558V7.68745H14.5596V7.6312L14.5268 7.62183L14.4986 7.60776L14.4939 7.54683L14.3814 7.54214L14.3486 7.49058L14.3064 7.42964L14.1846 7.42026L14.1518 7.38745L14.1049 7.37808L14.0674 7.36401L14.0533 7.38745L13.9596 7.39214L13.9549 7.42495C13.908 7.44839 13.7064 7.42495 13.7018 7.4437ZM14.2221 7.31245C14.2174 7.27495 14.3252 7.23745 14.3486 7.26558C14.3721 7.29839 14.4424 7.30308 14.4518 7.45308C14.4564 7.50933 14.3627 7.39683 14.3627 7.39683L14.2877 7.37339C14.2502 7.36401 14.2268 7.33589 14.2221 7.31245ZM12.7643 7.37339L12.7361 7.36401L12.7549 7.31714L12.783 7.3312L12.7643 7.37339ZM12.5018 6.87651L12.4408 6.81089V6.75464L12.4174 6.73589L12.3986 6.66558L12.333 6.64683L12.2674 6.67026L12.2018 6.71714L12.1221 6.72651L12.0846 6.77339L12.2439 6.78745L12.2721 6.83433L12.3893 6.84839L12.4643 6.92339C12.5299 6.94214 12.5439 6.91401 12.5018 6.87651ZM12.4924 6.62808C12.483 6.5812 12.4174 6.68433 12.483 6.70308C12.5486 6.72651 12.6143 6.70308 12.6143 6.70308L12.6283 6.67495L12.8768 6.67964L12.9096 6.63276C12.9096 6.63276 12.9658 6.60933 12.9939 6.6187C13.0174 6.62808 12.9939 6.54839 12.9705 6.55776C12.9471 6.56714 12.8955 6.56245 12.8955 6.56245H12.8064C12.8064 6.52964 12.7221 6.5437 12.7174 6.56245C12.7174 6.5812 12.6846 6.59058 12.6846 6.59058L12.5674 6.59995C12.558 6.62808 12.4971 6.64683 12.4924 6.62808ZM12.0002 7.4812C12.0752 7.50933 12.1033 7.49058 12.108 7.46714C12.1127 7.44839 12.1174 7.4437 12.1502 7.43901C12.1783 7.43433 12.1455 7.37339 12.1174 7.37808C12.0846 7.38276 12.0564 7.3687 12.0518 7.34058C12.0471 7.31714 11.9955 7.25151 11.9908 7.30308C11.9861 7.34995 11.9533 7.34995 11.958 7.38745C11.9674 7.42495 11.9814 7.4812 12.0002 7.4812ZM11.4283 7.54214C11.4236 7.52339 11.5268 7.5187 11.5408 7.53276C11.5549 7.55151 11.5455 7.57964 11.5877 7.57964C11.6299 7.57964 11.6158 7.60776 11.6111 7.62183C11.6064 7.63589 11.5549 7.6312 11.5502 7.61714C11.5502 7.59839 11.4705 7.5937 11.4705 7.5937C11.4705 7.5937 11.433 7.56558 11.4236 7.54214H11.4283ZM13.083 6.48745L13.0596 6.45933L13.0361 6.48276L13.0736 6.52026L13.083 6.52964L13.0924 6.52026L13.1393 6.47808L13.1252 6.45464L13.083 6.48745ZM12.8158 6.34683L12.8018 6.37026L12.8393 6.3937L12.8486 6.39839H12.858L12.9096 6.36089L12.8955 6.33276L12.8486 6.36558L12.8158 6.34683ZM12.6799 7.40151H12.633L12.6283 7.42964H12.6705L12.7033 7.4812L12.7268 7.46714L12.6893 7.41089V7.4062L12.6799 7.40151ZM11.0393 8.81714V8.87339H11.1189C11.1471 8.87339 11.0908 8.83589 11.0908 8.83589C11.0908 8.83589 11.0346 8.84058 11.0393 8.81714ZM11.133 8.81714L11.1518 8.7937L11.1799 8.81714L11.1611 8.84058L11.133 8.81714ZM10.2236 7.87026L10.2471 7.84683L10.2752 7.87964L10.2564 7.90308L10.2236 7.87026ZM11.6252 14.3578L11.6111 14.3859L11.6393 14.4046L11.6299 14.414L11.6533 14.4328L11.6768 14.4093L11.6908 14.3953L11.6721 14.3859L11.6252 14.3578ZM11.2689 13.9968L11.2361 14.0203L11.2221 14.0343L11.2408 14.0484L11.2736 14.0718L11.2924 14.0484L11.2736 14.0343L11.2877 14.0203L11.2689 13.9968ZM14.9955 13.0593C14.9908 13.0359 14.958 13.0218 14.958 13.0218L14.9486 13.05L14.958 13.0546V13.0921L14.9768 13.1109C14.9908 13.0921 15.0002 13.0781 14.9955 13.064V13.0593ZM14.9955 12.9609V12.914L15.0424 12.9234V12.9656L14.9955 12.9609ZM16.1955 12.5718C16.2189 12.5578 16.2424 12.5296 16.2424 12.5859C16.2424 12.6468 16.2143 12.6281 16.1955 12.6468C16.1768 12.6656 16.1674 12.5906 16.1955 12.5671V12.5718ZM16.4486 12.3562V12.3468C16.4487 12.3373 16.4471 12.3277 16.4439 12.3187L16.4158 12.3281V12.3515C16.4205 12.3609 16.4205 12.3703 16.4299 12.375L16.4486 12.3796V12.3515V12.3562ZM16.383 12.3796L16.4018 12.4406L16.4299 12.4312C16.4225 12.4112 16.4163 12.3909 16.4111 12.3703L16.383 12.3796ZM16.2752 12.4968H16.2471C16.2471 12.5203 16.2471 12.5484 16.2705 12.5531L16.2799 12.525L16.2752 12.5015V12.4968ZM16.1439 11.8968C16.1438 11.892 16.1424 11.8874 16.14 11.8833C16.1375 11.8792 16.134 11.8758 16.1299 11.8734C16.1064 11.864 16.0689 11.8781 16.0502 11.8921L16.0643 11.9156C16.0877 11.9062 16.1111 11.8968 16.1158 11.9015L16.1439 11.8968ZM14.7611 10.2796C14.7424 10.2984 14.7002 10.3078 14.7002 10.3078L14.6814 10.364L14.658 10.3828V10.4343C14.6533 10.4718 14.6111 10.4906 14.6111 10.4906L14.5877 10.514C14.5877 10.514 14.4705 10.5234 14.4518 10.514C14.4049 10.4953 14.4377 10.4343 14.4705 10.439C14.4986 10.4437 14.4658 10.3546 14.4658 10.3546L14.5033 10.35C14.5033 10.35 14.508 10.2562 14.5221 10.2562C14.5361 10.2562 14.5221 10.2281 14.4986 10.2093C14.4799 10.1953 14.4518 10.1484 14.433 10.1531H14.3346L14.3205 10.1812L14.2643 10.1906C14.2643 10.1906 14.2689 10.2328 14.2596 10.2421C14.2314 10.2796 14.1143 10.3546 14.1658 10.2281L14.1799 10.2V10.1531L14.0861 10.1484C14.0861 10.1484 14.0439 10.1296 14.0439 10.1109V10.064L13.9361 9.95151L13.8096 9.93276L13.8002 9.90933L13.7252 9.89995C13.6314 9.85308 13.5564 9.89526 13.5705 9.97026C13.5846 10.0453 13.6127 10.0781 13.5611 10.0781C13.5143 10.0781 13.5002 10.0312 13.5002 10.0312C13.5002 10.0312 13.4627 10.0218 13.4627 10.0406C13.4627 10.0593 13.4486 10.1015 13.4627 10.1203C13.4768 10.1437 13.4439 10.1718 13.4252 10.1578C13.4111 10.1437 13.3736 10.0968 13.3783 10.0828C13.3924 10.064 13.3127 9.97026 13.3924 9.9562C13.4721 9.93745 13.3877 9.89526 13.4158 9.88589L13.458 9.86245H13.4955L13.5236 9.8437L13.458 9.83433L13.4158 9.82964L13.3408 9.82495C13.2997 9.84972 13.2683 9.88774 13.2518 9.93276C13.2143 10.0125 13.1158 9.90464 13.1533 9.86245C13.1861 9.82495 13.0408 9.86245 13.0174 9.8812C12.9939 9.89995 12.9189 9.89058 12.9189 9.89058C12.9049 9.93745 12.8346 9.88589 12.8533 9.85308C12.8721 9.82495 12.8721 9.8062 12.8721 9.8062L12.8486 9.79683L12.8205 9.85308C12.7502 9.85308 12.7268 9.89526 12.7455 9.9187C12.7596 9.94683 12.7221 9.9187 12.7127 9.95151C12.7033 9.98433 12.7174 9.98433 12.7502 9.99839C12.7783 10.0171 12.7314 10.0171 12.7502 10.0406C12.7736 10.064 12.8346 10.0406 12.7971 10.0781C12.7643 10.1109 12.6939 10.0968 12.6939 10.0968C12.6893 10.1437 12.5955 10.1296 12.5861 10.1156C12.5571 10.0807 12.5274 10.0463 12.4971 10.0125L12.4033 10.0078C12.3939 9.93276 12.4502 9.97026 12.4689 9.91401C12.4877 9.85776 12.4971 9.7687 12.4971 9.7687C12.4971 9.7687 12.4174 9.76401 12.4127 9.78745C12.4127 9.81089 12.3611 9.82964 12.3611 9.82964C12.3611 9.82964 12.3189 9.8437 12.333 9.86245C12.3518 9.88589 12.3049 9.89526 12.3049 9.89526C12.3049 9.89526 12.3143 9.92808 12.3002 9.94214C12.258 9.97964 12.1596 9.94214 12.1455 9.92808L12.0846 9.90464L12.0236 9.86245L11.9533 9.89526L11.9346 9.91401H11.8596V9.97495L11.9908 9.98901L12.0002 10.1156L11.9439 10.0968H11.9111L11.8971 10.064H11.8643V10.1718L11.8971 10.1953L11.9205 10.2234H11.9674L11.9814 10.289H12.1033L12.1221 10.3171L12.1971 10.3218L12.3377 10.4718L12.3283 10.5187L12.3049 10.5328C12.3143 10.5656 12.2393 10.5468 12.2393 10.5468V10.575L12.2768 10.5796L12.3096 10.6031L12.3564 10.514C12.4127 10.4812 12.4408 10.5328 12.4455 10.5609C12.4455 10.5937 12.4174 10.589 12.4174 10.589V10.6593L12.4502 10.6687C12.4971 10.7296 12.4314 10.7625 12.4314 10.7625L12.4127 10.814C12.3986 10.8609 12.3424 10.8515 12.3424 10.8515L12.3236 10.8796L12.2627 10.8937L12.3846 10.9125C12.3939 10.8703 12.4221 10.8609 12.4408 10.8796C12.4549 10.8984 12.4549 10.9359 12.4549 10.9359L12.483 10.9406V10.9968L12.5111 11.0062V11.1703L12.5439 11.2078C12.6049 11.1843 12.6049 11.2265 12.5721 11.2453C12.5393 11.264 12.5627 11.3578 12.5627 11.3578L12.5393 11.3812V11.4234L12.5111 11.4421V11.4984C12.4596 11.4703 12.3986 11.4843 12.3846 11.4984C12.3377 11.4656 12.2439 11.4796 12.2439 11.5031C12.2768 11.5453 12.2111 11.55 12.2111 11.55L12.1736 11.5968C12.2018 11.6437 12.1502 11.6484 12.1502 11.6484V11.7421L12.0893 11.8031L12.0939 11.9343C12.0939 11.9671 12.1689 11.9718 12.1877 11.9531C12.2018 11.9343 12.258 11.9953 12.258 11.9953H12.3049L12.3143 11.9015L12.2861 11.8875V11.7421L12.333 11.6859C12.3939 11.6625 12.3752 11.8171 12.3752 11.8312C12.3752 11.8875 12.4033 11.8828 12.4314 11.8734C12.4783 11.85 12.4408 11.9296 12.3986 11.9203C12.3611 11.9203 12.3846 11.9718 12.3846 11.9718L12.408 11.9859L12.3611 12.0187L12.3236 12.0656L12.2768 12.0515L12.2158 12.0468L12.1971 12.0093L12.1596 12.0046L12.1549 12.075L12.1314 12.1078L12.0705 12.1687C12.1502 12.1687 12.0611 12.2203 12.0424 12.2203C12.0893 12.239 12.0377 12.2812 11.9205 12.2484V12.2812L11.8783 12.2859L11.9158 12.3281L11.9533 12.3328L11.9393 12.4171C11.9393 12.4828 11.7752 12.4406 11.7611 12.4218L11.7564 12.5156H11.7283V12.6656L11.7799 12.6562V12.6937H11.9158L12.108 12.4921L12.2252 12.464C12.2346 12.4171 12.2861 12.4734 12.2861 12.4734C12.333 12.4734 12.3424 12.5062 12.3424 12.5062L12.408 12.5156C12.4643 12.5296 12.4314 12.5343 12.4361 12.5578C12.4361 12.5859 12.4643 12.5765 12.4643 12.5765L12.4736 12.5109H12.5064L12.4736 12.4781L12.4174 12.4546L12.3611 12.4312C12.3189 12.375 12.3705 12.3843 12.408 12.3843H12.4736C12.4736 12.3843 12.5486 12.4921 12.5486 12.5156C12.5486 12.539 12.5861 12.5437 12.5861 12.5437H12.6283L12.6424 12.5765H12.6893L12.7033 12.6046H12.7971V12.5578L12.7127 12.5437V12.4968L12.6471 12.4781C12.6283 12.3937 12.6658 12.3703 12.6893 12.4078L12.7174 12.4125L12.708 12.3375L12.7455 12.3281L12.7314 12.2203L12.7033 12.2109V12.1781H12.8299C12.8205 12.1171 12.8299 12.0843 12.8299 12.0843H12.8674L12.8721 12.1125L13.0268 12.1265L13.1346 12C13.1299 11.9906 13.1439 11.9859 13.1346 11.9718C13.1158 11.9578 13.0971 11.9718 13.0736 11.9578C13.0455 11.9437 13.0736 11.8593 13.0689 11.8359C13.0643 11.8171 13.1533 11.789 13.1393 11.8359C13.1205 11.8781 13.1393 11.8968 13.1393 11.8968C13.2002 11.8359 13.2564 11.9015 13.2518 11.9203C13.2471 11.9343 13.2846 11.9484 13.3127 11.9343C13.3361 11.9203 13.3689 11.9812 13.3596 12.0093C13.3455 12.0375 13.2564 12.0328 13.2518 12.0046C13.2471 11.9718 13.233 11.9859 13.2236 12C13.2143 12.014 13.1674 12.0234 13.1439 12.0093C13.14 12.0072 13.1367 12.0039 13.1346 12L13.0268 12.1265H13.0314C13.0924 12.1593 13.0643 12.2062 13.0408 12.2203L12.9893 12.225L12.9799 12.2484L12.8486 12.2578L12.8393 12.3046C12.7736 12.3 12.7455 12.3703 12.7643 12.4031C12.7783 12.4406 12.7643 12.4687 12.7643 12.4687L12.8158 12.4968L12.8861 12.4734C12.8955 12.4265 12.9424 12.4125 12.9799 12.3796C13.0221 12.3515 13.0877 12.4406 13.0689 12.4781C13.0455 12.5203 13.0455 12.5343 13.0455 12.5343L13.0502 12.5812L13.0033 12.6L12.9611 12.6234V12.6468H12.8205L12.7971 12.6703L12.7314 12.675L12.7127 12.7078L12.6658 12.7125C12.6658 12.7125 12.5955 12.75 12.6236 12.7875C12.6518 12.8296 12.4971 12.825 12.4643 12.7687C12.4549 12.8156 12.3986 12.7687 12.3986 12.7687L12.3424 12.7593V12.6843C12.3283 12.6328 12.2346 12.6328 12.2393 12.6656C12.2439 12.7031 12.0611 12.6843 12.0611 12.6843L12.0002 12.7125L11.9439 12.7453V12.7687L11.8502 12.7781L11.8127 12.7968L11.7939 12.7687H11.7564L11.7143 12.825C11.6111 12.825 11.5127 12.8906 11.5221 12.9187C11.5314 12.9421 11.4799 12.9656 11.4799 12.9656L11.433 12.9796L11.4049 13.0265L11.3486 13.0453L11.3393 13.1531L11.3064 13.1718V13.2187L11.2736 13.2281V13.2562H11.2221L11.2502 13.3359L11.2924 13.3546C11.3627 13.364 11.3299 13.4484 11.3299 13.4484L11.3721 13.4578L11.3908 13.514L11.433 13.5937C11.4471 13.6546 11.4939 13.6406 11.5127 13.6359C11.5314 13.6312 11.5502 13.6968 11.5502 13.6968H11.7518C11.7518 13.6968 11.7424 13.7203 11.7752 13.7296C11.8127 13.739 12.0424 13.7484 12.0518 13.7343C12.0424 13.6875 12.1736 13.6781 12.2299 13.7203C12.2861 13.7625 12.3611 13.7343 12.3611 13.7343L12.4361 13.8281L12.483 13.9359L12.5674 13.964L12.6283 13.9781L12.6471 14.0625L12.6939 14.0671L12.708 14.1234C12.7643 14.1656 12.6939 14.25 12.6939 14.25V14.3625L12.7314 14.3812V14.4234L12.7924 14.489L12.8674 14.4937L13.0549 14.6953L13.2096 14.7421L13.233 14.8218H13.2705L13.3033 14.7937L13.4205 14.789L13.4814 14.7328L13.5471 14.7234L14.1002 14.2546L14.0533 14.2218V14.1093C14.1377 14.0437 14.1471 13.9265 14.058 13.9218C13.9971 13.9078 14.0252 13.8421 14.0861 13.8281L14.1189 13.8187V13.7718L14.2361 13.664V13.5843L13.9877 13.3781C13.8752 13.3312 13.9877 13.0921 14.058 13.0968C14.133 13.1015 14.058 12.7218 14.058 12.7218L14.0111 12.7031L14.0252 12.5812H13.9689L13.8799 12.6984L13.8564 12.7781C13.8471 12.8859 13.5377 12.8625 13.5236 12.8484L13.4018 12.7875C13.4018 12.7875 13.3221 12.7218 13.308 12.7406C13.2939 12.764 13.2236 12.7171 13.2236 12.7312C13.2236 12.75 13.158 12.6984 13.158 12.6984L13.0596 12.6609L13.1346 12.6468L13.1158 12.5859L13.2471 12.6515C13.2611 12.6703 13.3268 12.6656 13.3268 12.6656L13.3455 12.6937C13.3455 12.6937 13.3877 12.689 13.4111 12.7171C13.4346 12.75 13.5658 12.7218 13.5658 12.7218L13.6033 12.7546L13.6549 12.7734L13.8096 12.7781L13.8143 12.6843L13.8471 12.6515L13.8424 12.5906L13.8752 12.5625V12.5109L13.9033 12.5015L13.908 12.389L13.9361 12.3843V12.1406L13.8611 12.0703C13.8564 12.0937 13.7768 12.0937 13.7768 12.0937C13.7768 12.0937 13.758 12.1312 13.7393 12.1312C13.7205 12.1312 13.7627 12.1781 13.7486 12.2062C13.7393 12.239 13.7018 12.239 13.7018 12.239L13.6268 12.2578L13.608 12.2812H13.5283L13.5143 12.2156L13.608 12.1921L13.6549 12.164L13.683 12.1171C13.683 12.0656 13.7439 12.0703 13.7439 12.0703C13.7439 12.0703 13.8611 11.9765 13.8658 11.9296C13.8658 11.8828 13.9127 11.7562 13.9783 11.7562H14.1096C14.1564 11.7375 14.1424 11.6718 14.1424 11.6718L14.208 11.6578L14.2174 11.6953C14.2174 11.6953 14.3111 11.7046 14.3205 11.6906C14.3299 11.6765 14.3486 11.6437 14.3721 11.6531C14.4002 11.6718 14.4799 11.6203 14.4799 11.6203C14.4799 11.5828 14.6064 11.5968 14.6064 11.5968L14.6252 11.55C14.6252 11.55 14.5361 11.4375 14.5221 11.4375C14.508 11.4375 14.4283 11.3671 14.4189 11.3906C14.3393 11.3718 14.3439 11.2593 14.3439 11.2593L14.3158 11.189C14.3158 11.1468 14.2408 11.0625 14.2221 11.0718C14.1471 11.0156 14.2033 10.95 14.2221 10.9453C14.2455 10.9453 14.2924 10.8703 14.2924 10.8703L14.3205 10.8L14.4049 10.7765L14.4143 10.7109L14.3674 10.7015C14.3674 10.7015 14.4143 10.6078 14.4424 10.6078L14.6486 10.6031C14.6627 10.5937 14.6955 10.5093 14.6955 10.4953C14.6955 10.4812 14.733 10.4765 14.7471 10.4718C14.7611 10.4671 14.7939 10.425 14.808 10.4062C14.8174 10.3828 14.7846 10.2562 14.7611 10.2796Z" fill="white"/>
<path d="M12.0004 12.1031C12.0098 12.0938 12.0145 12.1266 12.0285 12.1219C12.0473 12.1219 12.052 12.15 12.0379 12.15C12.0238 12.15 12.0238 12.1688 12.0238 12.1735C12.0238 12.1828 12.0238 12.2016 12.0098 12.211C12.0004 12.225 11.991 12.2156 11.9723 12.211C11.9582 12.2016 11.9535 12.2016 11.9348 12.2016C11.916 12.2016 11.9301 12.2297 11.9301 12.2297C11.9301 12.2297 11.8504 12.2297 11.8645 12.2156C11.8832 12.2063 11.8973 12.2016 11.8832 12.1922C11.8738 12.1875 11.8832 12.1781 11.8832 12.1641C11.8832 12.15 11.9207 12.1547 11.9113 12.1453C11.902 12.1313 11.9113 12.0891 11.9301 12.1125L11.9395 12.0891C11.9301 12.075 11.9395 12.075 11.916 12.0656C11.8926 12.0563 11.9113 12.0141 11.9113 12.0141V11.9813C11.9207 11.9438 11.9957 11.9391 12.0004 11.9719V12.0328L12.0238 12.0375C12.0238 12.0375 12.0191 12.061 12.0004 12.061C11.9816 12.061 12.0004 12.075 11.991 12.0844L12.0004 12.1031ZM11.752 12.1406C11.766 12.1172 11.7895 12.0188 11.8223 12.0469C11.8504 12.0797 11.8691 12.0469 11.8691 12.0469C11.8691 12.0469 11.8832 12.0656 11.8785 12.0938C11.8691 12.1266 11.8598 12.1547 11.841 12.1594C11.8223 12.1594 11.8082 12.1735 11.7848 12.1781C11.766 12.1828 11.752 12.1406 11.752 12.1406Z" fill="white"/>
</g>
<defs>
<clipPath id="clip0_208_27034">
<rect width="24" height="24" rx="12" fill="white"/>
</clipPath>
</defs>
</svg>
