<svg width="24" height="24" viewBox="0 0 24 24" fill="none" xmlns="http://www.w3.org/2000/svg">
<g clip-path="url(#clip0_208_21094)">
<path d="M0 0H24V24H0V0Z" fill="#D21034"/>
<path d="M0 0H24V12H0V0Z" fill="#00209F"/>
<path d="M8.21289 8.9812H15.7879V15.0093H8.21289V8.9812Z" fill="white"/>
<path d="M13.5238 13.3406L11.977 13.3875L10.4395 13.4015C10.4395 13.4015 9.65195 13.6968 9.32852 13.7625C9.00508 13.8281 9.04727 13.9312 8.79883 13.9875C8.59727 14.0343 8.57383 14.0484 8.45664 14.0531C8.38633 14.0578 8.30195 14.114 8.21289 14.175V15.0093H15.7879V14.2125C15.7097 14.1725 15.6281 14.1396 15.5441 14.114C15.4363 14.0765 15.3566 14.0343 15.1598 13.9875C14.9113 13.9312 14.9535 13.8281 14.6301 13.7625C14.3066 13.6968 13.5238 13.3406 13.5238 13.3406Z" fill="#016A16" stroke="#016A16" stroke-width="0.0375"/>
<path d="M11.5586 11.48H11.6706L11.8786 12.336L11.8306 12.608L11.5586 11.488V11.48Z" fill="#F1B517" stroke="black" stroke-width="0.0426668"/>
<path d="M11.4385 10.9039L11.5185 11.5679H11.5985L11.4385 10.9119V10.9039Z" fill="white" stroke="black" stroke-width="0.0426668"/>
<path d="M11.6545 12.3679L11.3105 11.4479L11.4385 11.4399L11.8385 12.5599L11.6545 12.3679Z" fill="#F1B517" stroke="black" stroke-width="0.0426668"/>
<path d="M11.1504 10.9199L11.2944 11.5599H11.4064L11.1504 10.9199Z" fill="white" stroke="black" stroke-width="0.0426668"/>
<path d="M11.3504 12.0479L11.1504 11.6079L11.2304 11.5919L11.6064 12.3119L11.3504 12.0479Z" fill="#F1B517" stroke="black" stroke-width="0.0426668"/>
<path d="M10.8789 11.104L11.1109 11.712H11.2229L10.8869 11.104H10.8789Z" fill="white" stroke="black" stroke-width="0.0426668"/>
<path d="M11.383 12.1119L10.463 11.1119C10.175 11.3359 10.231 11.7519 10.231 11.7519L11.271 12.5679L11.375 12.1119H11.383Z" fill="#0A328C" stroke="black" stroke-width="0.0426668"/>
<path d="M11.911 12.6559L11.231 11.9679C10.943 11.9839 11.167 12.4079 11.183 12.4639L11.903 13.0799V12.6559H11.911Z" fill="#D20014" stroke="black" stroke-width="0.0426668"/>
<path d="M11.8469 12.544L10.4469 11.0399L10.3909 11.0799L11.8789 12.728L11.8469 12.544ZM10.3669 10.9439L10.3349 10.9039V10.8319L10.0469 10.6479L10.1749 10.9439L10.2789 10.9599L10.3029 10.9919L10.3669 10.9439Z" fill="#F1B517" stroke="black" stroke-width="0.0426668"/>
<path d="M10.2148 11.0479C10.2738 10.9748 10.3473 10.9149 10.4308 10.8719L10.5108 10.9919L10.3348 11.1359L10.2148 11.0559V11.0479Z" fill="#F1B517" stroke="black" stroke-width="0.0426668"/>
<path d="M10.0625 11.3039L10.1105 11.3839C10.1425 11.3759 10.4305 11.1039 10.4305 11.1039H10.6465L10.7025 11.0319C10.5425 10.8719 10.4065 11.0559 10.4065 11.0559L10.0625 11.2959V11.3039Z" fill="#0A328C" stroke="#0A328C" stroke-width="0.0426668"/>
<path d="M10.2384 11.44C10.2384 11.36 10.3824 11.184 10.3984 11.176C10.5024 11.208 10.5984 11.272 10.7104 11.032C10.6144 11.144 10.4304 11.032 10.4304 11.032L10.3504 11.096V11.128L10.1104 11.352L10.2304 11.44H10.2384Z" fill="#D20014" stroke="#D20014" stroke-width="0.0426668"/>
<path d="M10.9824 12.376L9.83044 11.464C9.63044 11.664 9.79844 12.28 9.79844 12.28L10.9184 12.888L10.9744 12.376H10.9824Z" fill="#0A328C" stroke="black" stroke-width="0.0426668"/>
<path d="M11.9343 13.1199L10.9823 12.3519C10.6623 12.3999 10.9183 12.8719 10.9343 12.9279L11.9343 13.4719V13.1119V13.1199Z" fill="#D20014" stroke="black" stroke-width="0.0426668"/>
<path d="M11.8948 12.9599L9.84681 11.4239L9.80681 11.4719L11.9508 13.1519L11.8948 12.9599ZM9.75081 11.3439L9.71881 11.3119L9.70281 11.2479L9.38281 11.1119L9.56681 11.3759H9.67081L9.70281 11.4079L9.75081 11.3439Z" fill="#F1B517" stroke="black" stroke-width="0.0426668"/>
<path d="M9.62305 11.4719C9.66883 11.3902 9.73157 11.3193 9.80705 11.2639L9.90305 11.3679L9.75905 11.5359L9.62305 11.4719Z" fill="#F1B517" stroke="black" stroke-width="0.0426668"/>
<path d="M9.51874 11.728V11.816C9.55074 11.8 9.81474 11.52 9.81474 11.52L10.0147 11.48L10.0627 11.416C9.91874 11.248 9.76674 11.472 9.76674 11.472L9.51074 11.728H9.51874Z" fill="#0A328C" stroke="#0A328C" stroke-width="0.0426668"/>
<path d="M9.67837 11.8799C9.66237 11.7999 9.77437 11.5759 9.79037 11.5599C9.91837 11.5999 10.0304 11.6559 10.0704 11.3999C9.99037 11.5279 9.79037 11.4319 9.79037 11.4319L9.72637 11.5119V11.5519L9.52637 11.8159L9.67837 11.8799Z" fill="#D20014" stroke="#D20014" stroke-width="0.0426668"/>
<path d="M10.8947 12.9359C10.4003 12.6578 9.90697 12.3778 9.4147 12.0959C9.3107 12.2799 9.4067 12.5359 9.4547 12.5759C9.4547 12.6959 9.4067 12.7599 9.5107 13.0159C9.5427 13.1759 9.6147 13.3279 9.7267 13.4159C9.8547 13.928 10.3827 13.968 10.5827 13.544L10.9027 12.9359H10.8947Z" fill="#0A328C" stroke="black" stroke-width="0.0426668"/>
<path d="M11.863 13.48L10.863 12.896C10.543 12.936 10.863 13.536 10.887 13.592L11.863 13.936V13.48Z" fill="#D20014" stroke="black" stroke-width="0.0426668"/>
<path d="M11.6948 13.2639L9.43076 12.0639L9.39076 12.1119L11.7908 13.4479L11.6948 13.2639ZM9.31876 11.9999L9.27876 11.9759L9.25476 11.9119L8.92676 11.8319L9.14276 12.0639L9.23876 12.0479L9.28676 12.0719L9.31876 11.9999Z" fill="#F1B517" stroke="black" stroke-width="0.0426668"/>
<path d="M9.21484 12.1439C9.24684 12.0639 9.27884 11.9919 9.35884 11.9039L9.47084 11.9919L9.35884 12.1839L9.21484 12.1439Z" fill="#F1B517" stroke="black" stroke-width="0.0426668"/>
<path d="M9.12695 12.4159L9.17495 12.5119L9.41495 12.1439L9.61495 12.0719L9.65495 11.9919C9.49495 11.8479 9.37495 12.1039 9.37495 12.1039L9.12695 12.4159Z" fill="#0A328C" stroke="#0A328C" stroke-width="0.0426668"/>
<path d="M9.34262 12.5439C9.32662 12.4639 9.38262 12.2079 9.39862 12.1999C9.51862 12.2399 9.62262 12.2479 9.65462 11.9919C9.57462 12.1119 9.39062 12.0719 9.39062 12.0719L9.33462 12.1519L9.34262 12.1839L9.18262 12.5039L9.34262 12.5439Z" fill="#D20014" stroke="#D20014" stroke-width="0.0426668"/>
<path d="M12.4307 11.48H12.3187L12.1107 12.336L12.1587 12.608L12.4307 11.488V11.48Z" fill="#F1B517" stroke="black" stroke-width="0.0426668"/>
<path d="M12.5508 10.9039L12.4708 11.5679H12.3908L12.5508 10.9119V10.9039Z" fill="white" stroke="black" stroke-width="0.0426668"/>
<path d="M12.3347 12.3679L12.6787 11.4479L12.5507 11.4399L12.1507 12.5599L12.3347 12.3679Z" fill="#F1B517" stroke="black" stroke-width="0.0426668"/>
<path d="M12.8389 10.9199L12.6949 11.5599H12.5829L12.8389 10.9199Z" fill="white" stroke="black" stroke-width="0.0426668"/>
<path d="M12.6389 12.0479L12.8389 11.6079L12.7589 11.5919L12.3829 12.3119L12.6389 12.0479Z" fill="#F1B517" stroke="black" stroke-width="0.0426668"/>
<path d="M13.1104 11.104L12.8784 11.712H12.7664L13.1024 11.104H13.1104Z" fill="white" stroke="black" stroke-width="0.0426668"/>
<path d="M12.6063 12.1119L13.5263 11.1119C13.8143 11.3359 13.7583 11.7519 13.7583 11.7519L12.7183 12.5679L12.6143 12.1119H12.6063Z" fill="#0A328C" stroke="black" stroke-width="0.0426668"/>
<path d="M12.0782 12.6559L12.7582 11.9679C13.0462 11.9839 12.8222 12.4079 12.8062 12.4639L12.0862 13.0799V12.6559H12.0782Z" fill="#D20014" stroke="black" stroke-width="0.0426668"/>
<path d="M12.1424 12.544L13.5424 11.0399L13.5984 11.0799L12.1104 12.728L12.1424 12.544ZM13.6224 10.9439L13.6544 10.9039V10.8319L13.9424 10.6479L13.8144 10.9439L13.7104 10.9599L13.6864 10.9919L13.6224 10.9439Z" fill="#F1B517" stroke="black" stroke-width="0.0426668"/>
<path d="M13.7744 11.0479C13.7155 10.9748 13.6419 10.9149 13.5584 10.8719L13.4784 10.9919L13.6544 11.1359L13.7744 11.0559V11.0479Z" fill="#F1B517" stroke="black" stroke-width="0.0426668"/>
<path d="M13.9268 11.3039L13.8788 11.3839C13.8468 11.3759 13.5588 11.1039 13.5588 11.1039H13.3428L13.2868 11.0319C13.4468 10.8719 13.5828 11.0559 13.5828 11.0559L13.9268 11.2959V11.3039Z" fill="#0A328C" stroke="#0A328C" stroke-width="0.0426668"/>
<path d="M13.7509 11.44C13.7509 11.36 13.6069 11.184 13.5909 11.176C13.4869 11.208 13.3909 11.272 13.2789 11.032C13.3749 11.144 13.5589 11.032 13.5589 11.032L13.6389 11.096V11.128L13.8789 11.352L13.7589 11.44H13.7509Z" fill="#D20014" stroke="#D20014" stroke-width="0.0426668"/>
<path d="M13.0068 12.376L14.1588 11.464C14.3588 11.664 14.1908 12.28 14.1908 12.28L13.0708 12.888L13.0148 12.376H13.0068Z" fill="#0A328C" stroke="black" stroke-width="0.0426668"/>
<path d="M12.0549 13.1199L13.0069 12.3519C13.3269 12.3999 13.0709 12.8719 13.0549 12.9279L12.0549 13.4719V13.1119V13.1199Z" fill="#D20014" stroke="black" stroke-width="0.0426668"/>
<path d="M12.0944 12.9599L14.1424 11.4239L14.1824 11.4719L12.0384 13.1519L12.0944 12.9599ZM14.2384 11.3439L14.2704 11.3119L14.2864 11.2479L14.6064 11.1119L14.4224 11.3759H14.3184L14.2864 11.4079L14.2384 11.3439Z" fill="#F1B517" stroke="black" stroke-width="0.0426668"/>
<path d="M14.3662 11.4719C14.3204 11.3902 14.2577 11.3193 14.1822 11.2639L14.0862 11.3679L14.2302 11.5359L14.3662 11.4719Z" fill="#F1B517" stroke="black" stroke-width="0.0426668"/>
<path d="M14.4705 11.728V11.816C14.4385 11.8 14.1745 11.52 14.1745 11.52L13.9745 11.48L13.9265 11.416C14.0705 11.248 14.2225 11.472 14.2225 11.472L14.4785 11.728H14.4705Z" fill="#0A328C" stroke="#0A328C" stroke-width="0.0426668"/>
<path d="M14.3109 11.8799C14.3269 11.7999 14.2149 11.5759 14.1989 11.5599C14.0709 11.5999 13.9589 11.6559 13.9189 11.3999C13.9989 11.5279 14.1989 11.4319 14.1989 11.4319L14.2629 11.5119V11.5519L14.4629 11.8159L14.3109 11.8799Z" fill="#D20014" stroke="#D20014" stroke-width="0.0426668"/>
<path d="M13.0946 12.9359C13.589 12.6578 14.0823 12.3778 14.5746 12.0959C14.6786 12.2799 14.5826 12.5359 14.5346 12.5759C14.5346 12.6959 14.5826 12.7599 14.4786 13.0159C14.4466 13.1759 14.3746 13.3279 14.2626 13.4159C14.1346 13.928 13.6066 13.968 13.4066 13.544L13.0866 12.9359H13.0946Z" fill="#0A328C" stroke="black" stroke-width="0.0426668"/>
<path d="M12.1262 13.48L13.1262 12.896C13.4462 12.936 13.1262 13.536 13.1022 13.592L12.1262 13.936V13.48Z" fill="#D20014" stroke="black" stroke-width="0.0426668"/>
<path d="M12.2945 13.2639L14.5585 12.0639L14.5985 12.1119L12.1985 13.4479L12.2945 13.2639ZM14.6705 11.9999L14.7105 11.9759L14.7345 11.9119L15.0625 11.8319L14.8465 12.0639L14.7505 12.0479L14.7025 12.0719L14.6705 11.9999Z" fill="#F1B517" stroke="black" stroke-width="0.0426668"/>
<path d="M14.7744 12.1439C14.7424 12.0639 14.7104 11.9919 14.6304 11.9039L14.5184 11.9919L14.6304 12.1839L14.7744 12.1439Z" fill="#F1B517" stroke="black" stroke-width="0.0426668"/>
<path d="M14.8623 12.4159L14.8143 12.5119L14.5743 12.1439L14.3743 12.0719L14.3343 11.9919C14.4943 11.8479 14.6143 12.1039 14.6143 12.1039L14.8623 12.4159Z" fill="#0A328C" stroke="#0A328C" stroke-width="0.0426668"/>
<path d="M14.6466 12.5439C14.6626 12.4639 14.6066 12.2079 14.5906 12.1999C14.4706 12.2399 14.3666 12.2479 14.3346 11.9919C14.4146 12.1119 14.5986 12.0719 14.5986 12.0719L14.6546 12.1519L14.6466 12.1839L14.8066 12.5039L14.6466 12.5439Z" fill="#D20014" stroke="#D20014" stroke-width="0.0426668"/>
<path d="M11.9027 10.048L11.8627 10.768H12.0947L12.0627 10.048L12.3027 10.024L12.2787 9.73596L11.6787 9.75996V10.016L11.9027 10.048Z" fill="#016A16" stroke="#016A16" stroke-width="0.0426668"/>
<path d="M11.9828 9.75195C11.3588 9.12795 10.8708 9.43195 10.7588 9.51995C10.8388 9.53595 10.9028 9.48795 10.9428 9.47995L10.8628 9.57595C10.8628 9.57595 11.0628 9.49595 11.0868 9.49595C11.0548 9.51995 11.0228 9.57595 11.0228 9.57595C11.0388 9.57595 11.1508 9.48795 11.1668 9.48795C11.1348 9.51995 11.1268 9.60795 11.1268 9.60795L11.2228 9.56795C11.2468 9.58395 11.2148 9.61595 11.2308 9.61595C11.3908 9.59995 11.6068 9.75195 11.6308 9.79995" fill="#016A16"/>
<path d="M11.9828 9.75195C11.3588 9.12795 10.8708 9.43195 10.7588 9.51995C10.8388 9.53595 10.9028 9.48795 10.9428 9.47995L10.8628 9.57595C10.8628 9.57595 11.0628 9.49595 11.0868 9.49595C11.0548 9.51995 11.0228 9.57595 11.0228 9.57595C11.0388 9.57595 11.1508 9.48795 11.1668 9.48795C11.1348 9.51995 11.1268 9.60795 11.1268 9.60795L11.2228 9.56795C11.2468 9.58395 11.2148 9.61595 11.2308 9.61595C11.3908 9.59995 11.6068 9.75195 11.6308 9.79995" stroke="black" stroke-width="0.0426668"/>
<path d="M11.8308 9.86397C11.7668 9.71997 10.5828 9.46397 10.3428 9.88797C10.4388 9.91197 10.5268 9.80797 10.5268 9.80797V9.90397L10.6788 9.77597L10.6228 9.90397L10.7428 9.79997V9.90397L10.9028 9.74397L10.8788 9.83197L11.0148 9.77597L10.9988 9.85597" fill="#016A16"/>
<path d="M11.8308 9.86397C11.7668 9.71997 10.5828 9.46397 10.3428 9.88797C10.4388 9.91197 10.5268 9.80797 10.5268 9.80797V9.90397L10.6788 9.77597L10.6228 9.90397L10.7428 9.79997V9.90397L10.9028 9.74397L10.8788 9.83197L11.0148 9.77597L10.9988 9.85597" stroke="black" stroke-width="0.0426668"/>
<path d="M11.7747 9.88797C11.4707 9.68797 11.0067 9.82397 11.0067 9.82397C10.7027 9.98397 10.5427 9.95997 10.5107 10.272C10.5347 10.264 10.6147 10.16 10.6147 10.16L10.6787 10.28L10.6947 10.112L10.7427 10.248L10.8227 10.024L10.8387 10.176L10.9507 10.024L10.9987 10.072L11.0467 9.95197L11.0947 10.032C11.0947 10.032 11.1747 9.98397 11.2147 10.008L11.2947 9.91197L11.3187 9.98397L11.3987 9.90397L11.4227 9.95997L11.4947 9.89597V9.94397H11.7347" fill="#016A16"/>
<path d="M11.7747 9.88797C11.4707 9.68797 11.0067 9.82397 11.0067 9.82397C10.7027 9.98397 10.5427 9.95997 10.5107 10.272C10.5347 10.264 10.6147 10.16 10.6147 10.16L10.6787 10.28L10.6947 10.112L10.7427 10.248L10.8227 10.024L10.8387 10.176L10.9507 10.024L10.9987 10.072L11.0467 9.95197L11.0947 10.032C11.0947 10.032 11.1747 9.98397 11.2147 10.008L11.2947 9.91197L11.3187 9.98397L11.3987 9.90397L11.4227 9.95997L11.4947 9.89597V9.94397H11.7347" stroke="black" stroke-width="0.0426668"/>
<path d="M11.7104 9.91992C11.4944 9.91992 10.8864 10.1519 10.7344 10.3839C10.7682 10.3661 10.8029 10.35 10.8384 10.3359L10.8624 10.4319L10.9024 10.3359L10.9104 10.4159C10.9344 10.3519 10.9584 10.3519 11.0064 10.4079L11.0224 10.3199L11.0464 10.3999L11.0864 10.3119C11.0864 10.3119 11.1104 10.4079 11.1264 10.4079C11.1264 10.4079 11.1904 10.2319 11.2224 10.2239L11.2304 10.3359L11.2704 10.2239L11.3104 10.3039V10.1919L11.3584 10.2719C11.3584 10.2719 11.3744 10.1919 11.4064 10.1759L11.4704 10.2319L11.7424 10.0319" fill="#016A16"/>
<path d="M11.7104 9.91992C11.4944 9.91992 10.8864 10.1519 10.7344 10.3839C10.7682 10.3661 10.8029 10.35 10.8384 10.3359L10.8624 10.4319L10.9024 10.3359L10.9104 10.4159C10.9344 10.3519 10.9584 10.3519 11.0064 10.4079L11.0224 10.3199L11.0464 10.3999L11.0864 10.3119C11.0864 10.3119 11.1104 10.4079 11.1264 10.4079C11.1264 10.4079 11.1904 10.2319 11.2224 10.2239L11.2304 10.3359L11.2704 10.2239L11.3104 10.3039V10.1919L11.3584 10.2719C11.3584 10.2719 11.3744 10.1919 11.4064 10.1759L11.4704 10.2319L11.7424 10.0319" stroke="black" stroke-width="0.0426668"/>
<path d="M11.7509 9.97595C11.4709 10.08 11.2149 10.472 11.2389 10.632C11.3589 10.472 11.3349 10.496 11.3909 10.68C11.3909 10.68 11.4069 10.52 11.4309 10.504L11.4709 10.616L11.4789 10.464H11.5189L11.5109 10.376L11.5669 10.416C11.5509 10.36 11.5429 10.344 11.5989 10.296C11.5989 10.296 11.5189 10.304 11.5829 10.176L11.6389 10.224C11.6389 10.224 11.6229 10.168 11.6389 10.144L11.8469 10.08" fill="#016A16"/>
<path d="M11.7509 9.97595C11.4709 10.08 11.2149 10.472 11.2389 10.632C11.3589 10.472 11.3349 10.496 11.3909 10.68C11.3909 10.68 11.4069 10.52 11.4309 10.504L11.4709 10.616L11.4789 10.464H11.5189L11.5109 10.376L11.5669 10.416C11.5509 10.36 11.5429 10.344 11.5989 10.296C11.5989 10.296 11.5189 10.304 11.5829 10.176L11.6389 10.224C11.6389 10.224 11.6229 10.168 11.6389 10.144L11.8469 10.08" stroke="black" stroke-width="0.0426668"/>
<path d="M11.7744 10L11.6704 10.208L11.7264 10.224L11.5984 10.312L11.7024 10.304C11.7024 10.304 11.5424 10.36 11.5264 10.52L11.6864 10.44C11.6864 10.44 11.5504 10.584 11.5264 10.672L11.6304 10.592C11.6304 10.592 11.5344 10.688 11.5504 10.832L11.6224 10.752C11.6064 10.936 11.6064 10.952 11.6864 11.088C11.6864 11.088 11.6704 10.88 11.6864 10.848L11.8704 11.04L11.7744 10.776C11.7744 10.776 11.8864 10.936 11.9504 10.928L11.8064 10.712L11.9504 10.824L11.7904 10.584L11.9344 10.632C11.9344 10.632 11.8304 10.496 11.8384 10.408L11.9424 10.52C11.9424 10.52 11.9024 10.4 11.9104 10.36L11.9664 10.368L11.8624 10.256L11.9344 10.24L11.9264 10.16L11.9744 10.152V10.064M11.8864 10.064C11.7104 10.304 11.7984 10.664 11.6944 10.856L11.8864 10.064Z" fill="#016A16"/>
<path d="M11.7744 10L11.6704 10.208L11.7264 10.224L11.5984 10.312L11.7024 10.304C11.7024 10.304 11.5424 10.36 11.5264 10.52L11.6864 10.44C11.6864 10.44 11.5504 10.584 11.5264 10.672L11.6304 10.592C11.6304 10.592 11.5344 10.688 11.5504 10.832L11.6224 10.752C11.6064 10.936 11.6064 10.952 11.6864 11.088C11.6864 11.088 11.6704 10.88 11.6864 10.848L11.8704 11.04L11.7744 10.776C11.7744 10.776 11.8864 10.936 11.9504 10.928L11.8064 10.712L11.9504 10.824L11.7904 10.584L11.9344 10.632C11.9344 10.632 11.8304 10.496 11.8384 10.408L11.9424 10.52C11.9424 10.52 11.9024 10.4 11.9104 10.36L11.9664 10.368L11.8624 10.256L11.9344 10.24L11.9264 10.16L11.9744 10.152V10.064M11.8864 10.064C11.7104 10.304 11.7984 10.664 11.6944 10.856" stroke="black" stroke-width="0.0426668"/>
<path d="M12.0065 9.75195C12.6305 9.12795 13.1185 9.43195 13.2305 9.51995C13.1505 9.53595 13.0865 9.48795 13.0465 9.47995L13.1265 9.57595C13.1265 9.57595 12.9265 9.49595 12.9025 9.49595C12.9345 9.51995 12.9665 9.57595 12.9665 9.57595C12.9505 9.57595 12.8385 9.48795 12.8225 9.48795C12.8545 9.51995 12.8625 9.60795 12.8625 9.60795L12.7665 9.56795C12.7425 9.58395 12.7745 9.61595 12.7585 9.61595C12.5985 9.59995 12.3825 9.75195 12.3585 9.79995" fill="#016A16"/>
<path d="M12.0065 9.75195C12.6305 9.12795 13.1185 9.43195 13.2305 9.51995C13.1505 9.53595 13.0865 9.48795 13.0465 9.47995L13.1265 9.57595C13.1265 9.57595 12.9265 9.49595 12.9025 9.49595C12.9345 9.51995 12.9665 9.57595 12.9665 9.57595C12.9505 9.57595 12.8385 9.48795 12.8225 9.48795C12.8545 9.51995 12.8625 9.60795 12.8625 9.60795L12.7665 9.56795C12.7425 9.58395 12.7745 9.61595 12.7585 9.61595C12.5985 9.59995 12.3825 9.75195 12.3585 9.79995" stroke="black" stroke-width="0.0426668"/>
<path d="M12.1585 9.86397C12.2225 9.71997 13.4065 9.46397 13.6465 9.88797C13.5505 9.91197 13.4625 9.80797 13.4625 9.80797V9.90397L13.3105 9.77597L13.3665 9.90397L13.2465 9.79997V9.90397L13.0865 9.74397L13.1105 9.83197L12.9745 9.77597L12.9905 9.85597" fill="#016A16"/>
<path d="M12.1585 9.86397C12.2225 9.71997 13.4065 9.46397 13.6465 9.88797C13.5505 9.91197 13.4625 9.80797 13.4625 9.80797V9.90397L13.3105 9.77597L13.3665 9.90397L13.2465 9.79997V9.90397L13.0865 9.74397L13.1105 9.83197L12.9745 9.77597L12.9905 9.85597" stroke="black" stroke-width="0.0426668"/>
<path d="M12.2145 9.88797C12.5185 9.68797 12.9825 9.82397 12.9825 9.82397C13.2865 9.98397 13.4465 9.95997 13.4785 10.272C13.4545 10.264 13.3745 10.16 13.3745 10.16L13.3105 10.28L13.2945 10.112L13.2465 10.248L13.1665 10.024L13.1505 10.176L13.0385 10.024L12.9905 10.072L12.9425 9.95197L12.8945 10.032C12.8945 10.032 12.8145 9.98397 12.7745 10.008L12.6945 9.91197L12.6705 9.98397L12.5905 9.90397L12.5665 9.95997L12.4945 9.89597V9.94397H12.2545" fill="#016A16"/>
<path d="M12.2145 9.88797C12.5185 9.68797 12.9825 9.82397 12.9825 9.82397C13.2865 9.98397 13.4465 9.95997 13.4785 10.272C13.4545 10.264 13.3745 10.16 13.3745 10.16L13.3105 10.28L13.2945 10.112L13.2465 10.248L13.1665 10.024L13.1505 10.176L13.0385 10.024L12.9905 10.072L12.9425 9.95197L12.8945 10.032C12.8945 10.032 12.8145 9.98397 12.7745 10.008L12.6945 9.91197L12.6705 9.98397L12.5905 9.90397L12.5665 9.95997L12.4945 9.89597V9.94397H12.2545" stroke="black" stroke-width="0.0426668"/>
<path d="M12.2789 9.91992C12.4949 9.91992 13.1029 10.1519 13.2549 10.3839C13.2211 10.3661 13.1864 10.35 13.1509 10.3359L13.1269 10.4319L13.0869 10.3359L13.0789 10.4159C13.0549 10.3519 13.0309 10.3519 12.9829 10.4079L12.9669 10.3199L12.9429 10.3999L12.9029 10.3119C12.9029 10.3119 12.8789 10.4079 12.8629 10.4079C12.8629 10.4079 12.7989 10.2319 12.7669 10.2239L12.7589 10.3359L12.7189 10.2239L12.6789 10.3039V10.1919L12.6309 10.2719C12.6309 10.2719 12.6149 10.1919 12.5829 10.1759L12.5189 10.2319L12.2469 10.0319" fill="#016A16"/>
<path d="M12.2789 9.91992C12.4949 9.91992 13.1029 10.1519 13.2549 10.3839C13.2211 10.3661 13.1864 10.35 13.1509 10.3359L13.1269 10.4319L13.0869 10.3359L13.0789 10.4159C13.0549 10.3519 13.0309 10.3519 12.9829 10.4079L12.9669 10.3199L12.9429 10.3999L12.9029 10.3119C12.9029 10.3119 12.8789 10.4079 12.8629 10.4079C12.8629 10.4079 12.7989 10.2319 12.7669 10.2239L12.7589 10.3359L12.7189 10.2239L12.6789 10.3039V10.1919L12.6309 10.2719C12.6309 10.2719 12.6149 10.1919 12.5829 10.1759L12.5189 10.2319L12.2469 10.0319" stroke="black" stroke-width="0.0426668"/>
<path d="M12.2384 9.97595C12.5184 10.08 12.7744 10.472 12.7504 10.632C12.6304 10.472 12.6544 10.496 12.5984 10.68C12.5984 10.68 12.5824 10.52 12.5584 10.504L12.5184 10.616L12.5104 10.464H12.4704L12.4784 10.376L12.4224 10.416C12.4384 10.36 12.4464 10.344 12.3904 10.296C12.3904 10.296 12.4704 10.304 12.4064 10.176L12.3504 10.224C12.3504 10.224 12.3664 10.168 12.3504 10.144L12.1424 10.08" fill="#016A16"/>
<path d="M12.2384 9.97595C12.5184 10.08 12.7744 10.472 12.7504 10.632C12.6304 10.472 12.6544 10.496 12.5984 10.68C12.5984 10.68 12.5824 10.52 12.5584 10.504L12.5184 10.616L12.5104 10.464H12.4704L12.4784 10.376L12.4224 10.416C12.4384 10.36 12.4464 10.344 12.3904 10.296C12.3904 10.296 12.4704 10.304 12.4064 10.176L12.3504 10.224C12.3504 10.224 12.3664 10.168 12.3504 10.144L12.1424 10.08" stroke="black" stroke-width="0.0426668"/>
<path d="M12.2149 10L12.3189 10.208L12.2629 10.224L12.3909 10.312L12.2869 10.304C12.2869 10.304 12.4469 10.36 12.4629 10.52L12.3029 10.44C12.3029 10.44 12.4389 10.584 12.4629 10.672L12.3589 10.592C12.3589 10.592 12.4549 10.688 12.4389 10.832L12.3669 10.752C12.3829 10.936 12.3829 10.952 12.3029 11.088C12.3029 11.088 12.3189 10.88 12.3029 10.848L12.1189 11.04L12.2149 10.776C12.2149 10.776 12.1029 10.936 12.0389 10.928L12.1829 10.712L12.0389 10.824L12.1989 10.584L12.0549 10.632C12.0549 10.632 12.1589 10.496 12.1509 10.408L12.0469 10.52C12.0469 10.52 12.0869 10.4 12.0789 10.36L12.0229 10.368L12.1269 10.256L12.0549 10.24L12.0629 10.16L12.0149 10.152V10.064M12.1029 10.064C12.2789 10.304 12.1909 10.664 12.2949 10.856L12.1029 10.064Z" fill="#016A16"/>
<path d="M12.2149 10L12.3189 10.208L12.2629 10.224L12.3909 10.312L12.2869 10.304C12.2869 10.304 12.4469 10.36 12.4629 10.52L12.3029 10.44C12.3029 10.44 12.4389 10.584 12.4629 10.672L12.3589 10.592C12.3589 10.592 12.4549 10.688 12.4389 10.832L12.3669 10.752C12.3829 10.936 12.3829 10.952 12.3029 11.088C12.3029 11.088 12.3189 10.88 12.3029 10.848L12.1189 11.04L12.2149 10.776C12.2149 10.776 12.1029 10.936 12.0389 10.928L12.1829 10.712L12.0389 10.824L12.1989 10.584L12.0549 10.632C12.0549 10.632 12.1589 10.496 12.1509 10.408L12.0469 10.52C12.0469 10.52 12.0869 10.4 12.0789 10.36L12.0229 10.368L12.1269 10.256L12.0549 10.24L12.0629 10.16L12.0149 10.152V10.064M12.1029 10.064C12.2789 10.304 12.1909 10.664 12.2949 10.856" stroke="black" stroke-width="0.0426668"/>
<path d="M12.0787 13.32C12.0787 13.32 12.1667 12.5199 12.1667 12.1839C12.1667 11.9119 12.1027 11.3199 12.1027 11.3199H11.8387C11.8387 11.3199 11.7987 11.9119 11.8067 12.1839C11.8067 12.5199 11.8947 13.32 11.8947 13.32H12.0787Z" fill="#F1B517" stroke="black" stroke-width="0.0426668"/>
<path d="M11.8145 11.3599H12.1345L12.0945 11.1439H11.8625L11.8145 11.3519V11.3599Z" fill="#F1B517" stroke="black" stroke-width="0.0426668"/>
<path d="M11.8391 11.1839H12.1191L12.0631 10.9679H11.8871L11.8311 11.1839H11.8391Z" fill="#F1B517" stroke="black" stroke-width="0.0426668"/>
<path d="M11.8545 11.0159H12.0945L12.0465 10.7999H11.8945L11.8545 11.0159Z" fill="#F1B517" stroke="black" stroke-width="0.0426668"/>
<path d="M12.055 10.7759H11.895L11.871 10.8559H12.071L12.055 10.7759ZM12.087 13.1519H11.879H12.087ZM12.103 12.9919H11.863H12.103ZM12.135 12.8319H11.831H12.135ZM12.151 12.6639H11.831H12.151ZM12.151 12.4879H11.823H12.151ZM12.159 12.3279H11.807H12.159ZM12.159 12.1919H11.791H12.159ZM12.159 12.0159H11.791H12.159ZM12.151 11.8479H11.791H12.151ZM12.135 11.6719H11.807H12.135ZM12.119 11.5119H11.823H12.119Z" fill="#F1B517"/>
<path d="M12.087 13.1519H11.879M12.103 12.9919H11.863M12.135 12.8319H11.831M12.151 12.6639H11.831M12.151 12.4879H11.823M12.159 12.3279H11.807M12.159 12.1919H11.791M12.159 12.0159H11.791M12.151 11.8479H11.791M12.135 11.6719H11.807M12.119 11.5119H11.823M12.055 10.7759H11.895L11.871 10.8559H12.071L12.055 10.7759Z" stroke="black" stroke-width="0.0426668"/>
<path d="M11.9991 9.51994C11.9351 9.49594 11.8151 9.41594 11.8471 9.36794L11.9031 9.27194C11.9831 9.09594 11.9031 9.15994 11.9031 9.11194C11.8871 9.04794 12.2071 9.09594 12.2071 9.21594C12.2071 9.25594 12.1831 9.23194 12.1911 9.42394L12.1271 9.54394C12.0812 9.54994 12.0344 9.54445 11.9911 9.52794L11.9991 9.51994Z" fill="#0A328C" stroke="#0A328C" stroke-width="0.0426668"/>
<path d="M12.0312 9.99999L11.9512 9.92799L11.9752 9.35999L12.0552 9.38399L12.0312 9.99199V9.99999Z" fill="#F1B517" stroke="black" stroke-width="0.0426668"/>
<path d="M12.1347 9.54392C12.1827 9.51192 12.2147 9.42392 12.1827 9.37592C12.1027 9.27192 12.0467 9.31192 11.9107 9.26392C11.8867 9.29592 11.8307 9.34392 11.8387 9.39192C12.0227 9.47192 11.9507 9.40792 12.0147 9.41592C12.0467 9.41592 12.0627 9.45592 12.1347 9.53592V9.54392Z" fill="#D20014" stroke="#D20014" stroke-width="0.0426668"/>
<path d="M11.0789 12.824C11.0629 12.784 10.9989 12.752 10.9189 12.752C10.8389 12.752 10.7829 12.784 10.7589 12.824C10.7562 12.8135 10.7562 12.8025 10.7589 12.792C10.7589 12.736 10.8309 12.696 10.9189 12.696C11.0149 12.696 11.0869 12.736 11.0869 12.792C11.0896 12.8025 11.0896 12.8135 11.0869 12.824H11.0789Z" fill="#016A16" stroke="white" stroke-width="0.0426668" stroke-linecap="round"/>
<path d="M11.0714 12.944C11.0714 13.04 10.9994 13.128 10.9194 13.128C10.8394 13.128 10.7754 13.048 10.7754 12.936V12.84H11.0714V12.936V12.944Z" fill="#016A16" stroke="white" stroke-width="0.0426668" stroke-linecap="round"/>
<path d="M10.9194 12.88C10.9989 12.88 11.0634 12.8477 11.0634 12.808C11.0634 12.7682 10.9989 12.736 10.9194 12.736C10.8399 12.736 10.7754 12.7682 10.7754 12.808C10.7754 12.8477 10.8399 12.88 10.9194 12.88Z" fill="white"/>
<path d="M10.8873 12.8799L10.8633 12.6239H10.9753L10.9593 12.8879H10.8873V12.8799Z" fill="#016A16" stroke="#F1B517" stroke-width="0.0426668"/>
<path d="M11.0789 12.808C11.0629 12.848 10.9989 12.88 10.9189 12.88C10.8389 12.88 10.7829 12.848 10.7589 12.808C10.7562 12.8185 10.7562 12.8295 10.7589 12.84C10.7589 12.896 10.8309 12.936 10.9189 12.936C11.0149 12.936 11.0869 12.896 11.0869 12.84C11.0896 12.8295 11.0896 12.8185 11.0869 12.808H11.0789Z" fill="#016A16" stroke="white" stroke-width="0.0426668" stroke-linecap="round"/>
<path d="M11.679 13.824L11.119 13.648L10.871 13.224L9.99902 13.184L10.031 13.504L10.775 13.64L10.839 13.768L11.695 14.008L11.679 13.824Z" fill="#F1B517" stroke="black" stroke-width="0.0426668"/>
<path d="M11.0952 13.9439L10.1992 12.6239L10.1592 12.6639L11.0392 13.9759L11.0952 13.9439Z" fill="#503200" stroke="black" stroke-width="0.0426668"/>
<path d="M10.2873 12.6799L10.1913 12.5199C10.1673 12.4879 10.1433 12.4799 10.1033 12.5039C10.0633 12.5199 10.0713 12.5599 10.0873 12.5919L10.1673 12.7439L10.2873 12.6799Z" fill="white" stroke="black" stroke-width="0.0426668"/>
<path d="M11.1996 13.128L9.39956 12.944L9.35156 13.208L11.1436 13.392L11.1996 13.128Z" fill="#F1B517" stroke="black" stroke-width="0.0426668"/>
<path d="M9.35934 12.88L9.31934 13.24H9.39934L9.44734 12.912L9.36734 12.88H9.35934ZM9.66334 12.936L9.64734 13.264H9.69534L9.73534 12.984L9.67134 12.936H9.66334ZM10.8873 13.08L10.8393 13.384H10.9273L10.9673 13.08H10.8873ZM11.1513 13.088L11.0953 13.44L11.1913 13.456L11.2233 13.272C11.2233 13.312 11.2633 13.336 11.3033 13.336C11.3513 13.336 11.3833 13.296 11.3833 13.256C11.3833 13.208 11.3513 13.176 11.3033 13.176C11.2867 13.1746 11.27 13.1785 11.2556 13.1871C11.2413 13.1957 11.23 13.2086 11.2233 13.224L11.2473 13.096L11.1513 13.088ZM10.5113 13.144L10.2553 13.424L10.2873 13.456L10.6073 13.24L10.5033 13.144H10.5113ZM9.91934 13.84L10.1673 13.56L10.1433 13.528L9.82334 13.744L9.91934 13.84ZM10.5673 13.768L10.2713 13.536L10.2393 13.56L10.4793 13.864L10.5673 13.768ZM9.82334 13.232L10.1353 13.456L10.1673 13.432L9.92734 13.128L9.82334 13.232ZM10.1593 13.048L10.1913 13.416H10.2313L10.3273 13.056L10.1593 13.048ZM10.2553 13.928L10.2313 13.568H10.1833L10.1273 13.936H10.2553V13.928ZM10.6633 13.448L10.2793 13.48V13.52L10.6633 13.568V13.44V13.448ZM9.75134 13.568L10.1273 13.512V13.48L9.74334 13.44V13.568H9.75134Z" fill="#F1B517" stroke="black" stroke-width="0.0426668"/>
<path d="M10.2153 13.584C10.2728 13.584 10.3193 13.541 10.3193 13.488C10.3193 13.4349 10.2728 13.392 10.2153 13.392C10.1579 13.392 10.1113 13.4349 10.1113 13.488C10.1113 13.541 10.1579 13.584 10.2153 13.584Z" fill="#F1B517" stroke="black" stroke-width="0.0426668"/>
<path fill-rule="evenodd" clip-rule="evenodd" d="M10.7517 13.488C10.7517 13.768 10.5117 14.008 10.2157 14.008C10.1463 14.009 10.0775 13.9964 10.013 13.9708C9.94855 13.9453 9.88975 13.9073 9.83997 13.859C9.7902 13.8107 9.75043 13.7531 9.72292 13.6894C9.69542 13.6258 9.68073 13.5573 9.67969 13.488C9.67969 13.2 9.91969 12.968 10.2157 12.968C10.285 12.9669 10.3539 12.9795 10.4184 13.0051C10.4828 13.0306 10.5416 13.0686 10.5914 13.1169C10.6412 13.1652 10.681 13.2228 10.7085 13.2865C10.736 13.3502 10.7506 13.4186 10.7517 13.488ZM10.6477 13.488C10.6466 13.5436 10.6346 13.5986 10.6124 13.6496C10.5901 13.7007 10.558 13.7468 10.5179 13.7855C10.4778 13.8241 10.4304 13.8544 10.3786 13.8748C10.3267 13.8951 10.2714 13.905 10.2157 13.904C10.1593 13.905 10.1033 13.8948 10.051 13.874C9.9986 13.8532 9.95091 13.8221 9.91069 13.7826C9.87047 13.7432 9.83852 13.6961 9.81671 13.6441C9.7949 13.5921 9.78368 13.5363 9.78369 13.48C9.78786 13.3689 9.83547 13.2639 9.91626 13.1876C9.99705 13.1113 10.1046 13.0698 10.2157 13.072C10.2714 13.0709 10.3267 13.0808 10.3786 13.1011C10.4304 13.1215 10.4778 13.1518 10.5179 13.1905C10.558 13.2291 10.5901 13.2753 10.6124 13.3263C10.6346 13.3773 10.6466 13.4323 10.6477 13.488Z" fill="#F1B517" stroke="black" stroke-width="0.0426668" stroke-linecap="round"/>
<path d="M9.87883 13.2239L9.79883 13.1599L9.87883 13.2239ZM10.4788 13.1599L10.5588 13.0799L10.4788 13.1599ZM10.6388 13.8159L10.5508 13.7439L10.6388 13.8159ZM9.87883 13.8959L9.95883 13.8159L9.87883 13.8959ZM11.6948 12.9679L11.7828 13.4479L11.7108 13.4799L11.6308 12.9759H11.6948V12.9679Z" fill="#F1B517"/>
<path d="M9.87883 13.2239L9.79883 13.1599M10.4788 13.1599L10.5588 13.0799M10.6388 13.8159L10.5508 13.7439M9.87883 13.8959L9.95883 13.8159M11.6948 12.9679L11.7828 13.4479L11.7108 13.4799L11.6308 12.9759H11.6948V12.9679Z" stroke="black" stroke-width="0.0426668"/>
<path d="M11.6477 12.912C11.6077 12.888 11.5517 12.92 11.4557 12.808C11.3036 12.944 11.4556 12.968 11.4716 13.104C11.5116 13.12 11.5437 12.992 11.6557 12.984L11.8397 12.968L11.7997 12.912H11.6397H11.6477Z" fill="white" stroke="black" stroke-width="0.0426668"/>
<path d="M11.7112 13L11.6952 12.864C11.6712 12.808 11.6152 12.856 11.6152 12.88L11.6312 13.016L11.7112 13Z" fill="white" stroke="black" stroke-width="0.0426668"/>
<path fill-rule="evenodd" clip-rule="evenodd" d="M11.2633 13.392V13.52C11.2153 13.536 11.2233 13.568 11.2233 13.616V13.992C11.2153 14.024 11.1673 14.024 11.1433 14.04C11.1193 14.064 11.1273 14.104 11.2233 14.12L11.3033 14.128C11.4233 14.104 11.4473 14.064 11.3833 14.048C11.3593 14.032 11.3113 14.016 11.3033 14V13.904H11.3833C11.3993 13.904 11.4393 13.856 11.4393 13.816V13.616C11.4393 13.504 11.3593 13.488 11.3273 13.496V13.392H11.2633ZM11.3913 13.608C11.3913 13.576 11.3433 13.544 11.3273 13.544C11.3113 13.544 11.2713 13.584 11.2713 13.616V13.696C11.2713 13.728 11.2953 13.824 11.3433 13.832C11.3593 13.832 11.3913 13.8 11.3913 13.768V13.608Z" fill="#F1B517" stroke="black" stroke-width="0.0426668"/>
<path d="M10.7429 13.7839C10.6869 13.7679 10.6869 13.8799 10.6869 13.8799H10.7669C10.8069 13.8959 10.8309 13.9439 10.8149 13.9759C10.7909 13.9919 10.6389 13.9359 10.6309 13.9759C10.6549 14.1279 10.8629 14.1839 10.9349 14.1199C11.0069 14.0479 11.0229 13.8799 10.7909 13.8239L10.7429 13.7839ZM10.7909 13.8319L10.7669 13.8799L10.7909 13.8319Z" fill="white"/>
<path d="M10.7669 13.8799H10.6869C10.6869 13.8799 10.6869 13.7679 10.7429 13.7839L10.7909 13.8239C11.0229 13.8799 11.0069 14.0479 10.9349 14.1199C10.8629 14.1839 10.6549 14.1279 10.6309 13.9759C10.6389 13.9359 10.7909 13.9919 10.8149 13.9759C10.8309 13.9439 10.8069 13.8959 10.7669 13.8799ZM10.7669 13.8799L10.7909 13.8319" stroke="black" stroke-width="0.0426668"/>
<path d="M9.19933 13.84L9.11933 13.52L9.19933 13.84ZM9.28733 13.824L9.16733 13.576L9.28733 13.824ZM9.48733 13.76L9.22333 13.616L9.48733 13.76ZM9.60733 13.728L9.11133 13.512L9.60733 13.728Z" fill="#F1B517"/>
<path d="M9.19933 13.84L9.11933 13.52M9.28733 13.824L9.16733 13.576M9.48733 13.76L9.22333 13.616M9.60733 13.728L9.11133 13.512" stroke="black" stroke-width="0.0426668"/>
<path d="M8.81522 13.2799L8.60723 13.2879C8.59123 13.2959 8.64722 13.3599 8.63922 13.3759C8.59122 13.4639 8.28722 13.4559 8.26322 13.4399C8.22322 13.3999 8.54322 13.3759 8.55122 13.3599C8.55122 13.3279 8.50322 13.2639 8.51122 13.2239C8.51122 13.1679 8.64723 13.1439 8.64723 13.1439L8.81522 13.2799Z" fill="#D20014" stroke="#D20014" stroke-width="0.0426668"/>
<path d="M9.05551 13.4399L8.65551 13.1039C8.65551 13.1039 8.63151 13.0879 8.61551 13.1039C8.59951 13.1199 8.61551 13.1359 8.61551 13.1359L9.04751 13.4879L9.05551 13.4479V13.4399Z" fill="#503200" stroke="black" stroke-width="0.0426668"/>
<path d="M9.4554 13.776L9.1194 13.488L9.0954 13.408L9.0314 13.456C9.0074 13.472 8.9834 13.52 8.9834 13.52H9.0714L9.3594 13.792L9.4474 13.776H9.4554Z" fill="#F1B517" stroke="black" stroke-width="0.0426668"/>
<path d="M10.599 14.2239C10.6299 14.2239 10.655 14.1989 10.655 14.1679C10.655 14.137 10.6299 14.1119 10.599 14.1119C10.568 14.1119 10.543 14.137 10.543 14.1679C10.543 14.1989 10.568 14.2239 10.599 14.2239Z" fill="#F1B517" stroke="black" stroke-width="0.0426668"/>
<path d="M10.4476 14.112C10.4785 14.112 10.5036 14.0869 10.5036 14.056C10.5036 14.0251 10.4785 14 10.4476 14C10.4167 14 10.3916 14.0251 10.3916 14.056C10.3916 14.0869 10.4167 14.112 10.4476 14.112Z" fill="#F1B517" stroke="black" stroke-width="0.0426668"/>
<path d="M10.2474 14.1839C10.2783 14.1839 10.3034 14.1588 10.3034 14.1279C10.3034 14.097 10.2783 14.0719 10.2474 14.0719C10.2165 14.0719 10.1914 14.097 10.1914 14.1279C10.1914 14.1588 10.2165 14.1839 10.2474 14.1839Z" fill="#F1B517" stroke="black" stroke-width="0.0426668"/>
<path d="M9.93491 14.248C9.96583 14.248 9.99091 14.2229 9.99091 14.192C9.99091 14.1611 9.96583 14.136 9.93491 14.136C9.90398 14.136 9.87891 14.1611 9.87891 14.192C9.87891 14.2229 9.90398 14.248 9.93491 14.248Z" fill="#F1B517" stroke="black" stroke-width="0.0426668"/>
<path d="M9.79916 14.264C9.83009 14.264 9.85516 14.2389 9.85516 14.208C9.85516 14.1771 9.83009 14.152 9.79916 14.152C9.76824 14.152 9.74316 14.1771 9.74316 14.208C9.74316 14.2389 9.76824 14.264 9.79916 14.264Z" fill="#F1B517" stroke="black" stroke-width="0.0426668"/>
<path d="M9.66342 14.264C9.69435 14.264 9.71942 14.2389 9.71942 14.208C9.71942 14.1771 9.69435 14.152 9.66342 14.152C9.63249 14.152 9.60742 14.1771 9.60742 14.208C9.60742 14.2389 9.63249 14.264 9.66342 14.264Z" fill="#F1B517" stroke="black" stroke-width="0.0426668"/>
<path d="M9.53549 14.264C9.56642 14.264 9.59149 14.2389 9.59149 14.208C9.59149 14.1771 9.56642 14.152 9.53549 14.152C9.50456 14.152 9.47949 14.1771 9.47949 14.208C9.47949 14.2389 9.50456 14.264 9.53549 14.264Z" fill="#F1B517" stroke="black" stroke-width="0.0426668"/>
<path d="M9.59897 14.16C9.6299 14.16 9.65497 14.1349 9.65497 14.104C9.65497 14.073 9.6299 14.048 9.59897 14.048C9.56804 14.048 9.54297 14.073 9.54297 14.104C9.54297 14.1349 9.56804 14.16 9.59897 14.16Z" fill="#F1B517" stroke="black" stroke-width="0.0426668"/>
<path d="M9.7269 14.1679C9.75783 14.1679 9.7829 14.1428 9.7829 14.1119C9.7829 14.081 9.75783 14.0559 9.7269 14.0559C9.69597 14.0559 9.6709 14.081 9.6709 14.1119C9.6709 14.1428 9.69597 14.1679 9.7269 14.1679Z" fill="#F1B517" stroke="black" stroke-width="0.0426668"/>
<path d="M9.84702 14.1519C9.87794 14.1519 9.90302 14.1268 9.90302 14.0959C9.90302 14.065 9.87794 14.0399 9.84702 14.0399C9.81609 14.0399 9.79102 14.065 9.79102 14.0959C9.79102 14.1268 9.81609 14.1519 9.84702 14.1519Z" fill="#F1B517" stroke="black" stroke-width="0.0426668"/>
<path d="M9.79135 14.056C9.82228 14.056 9.84735 14.0309 9.84735 14C9.84735 13.969 9.82228 13.944 9.79135 13.944C9.76042 13.944 9.73535 13.969 9.73535 14C9.73535 14.0309 9.76042 14.056 9.79135 14.056Z" fill="#F1B517" stroke="black" stroke-width="0.0426668"/>
<path d="M9.66342 14.0479C9.69435 14.0479 9.71942 14.0228 9.71942 13.9919C9.71942 13.961 9.69435 13.9359 9.66342 13.9359C9.63249 13.9359 9.60742 13.961 9.60742 13.9919C9.60742 14.0228 9.63249 14.0479 9.66342 14.0479Z" fill="#F1B517" stroke="black" stroke-width="0.0426668"/>
<path fill-rule="evenodd" clip-rule="evenodd" d="M10.9195 14.24C10.9195 14.216 10.8555 14.224 10.8555 14.192C10.8555 14.16 10.9515 14.192 10.9595 14.216C11.0155 14.168 11.0395 14.2 11.0715 14.216C11.1195 14.152 11.1755 14.152 11.2315 14.2C11.2635 14.168 11.3435 14.176 11.3675 14.216C11.4235 14.168 11.4715 14.176 11.5035 14.216C11.5195 14.192 11.5435 14.192 11.5595 14.216C11.5835 14.16 11.6555 14.176 11.6875 14.216C11.7115 14.184 11.7435 14.208 11.7755 14.224C11.7995 14.208 11.8395 14.208 11.8395 14.224C11.8395 14.256 11.7915 14.248 11.7915 14.272C11.7915 14.288 11.8235 14.272 11.8235 14.304C11.8235 14.328 11.7755 14.336 11.7675 14.304C11.7435 14.336 11.6795 14.32 11.6715 14.288C11.6655 14.2948 11.6581 14.3003 11.6498 14.304C11.6415 14.3077 11.6326 14.3097 11.6235 14.3097C11.6144 14.3097 11.6054 14.3077 11.5971 14.304C11.5889 14.3003 11.5815 14.2948 11.5755 14.288C11.5515 14.304 11.5195 14.304 11.5115 14.288C11.4715 14.328 11.3995 14.32 11.3755 14.272H11.3515C11.344 14.2805 11.3347 14.2873 11.3244 14.292C11.314 14.2967 11.3028 14.2991 11.2915 14.2991C11.2801 14.2991 11.2689 14.2967 11.2586 14.292C11.2482 14.2873 11.239 14.2805 11.2315 14.272C11.1595 14.32 11.1195 14.304 11.0795 14.272C11.0395 14.328 10.9675 14.328 10.9595 14.272C10.9275 14.296 10.8635 14.304 10.8635 14.272C10.8635 14.256 10.9195 14.264 10.9195 14.24ZM11.0475 14.248C11.0475 14.264 11.0315 14.272 11.0155 14.272C10.9995 14.272 10.9835 14.264 10.9835 14.248C10.9835 14.232 10.9915 14.232 11.0155 14.232C11.0395 14.232 11.0475 14.24 11.0475 14.248ZM11.1995 14.232C11.1995 14.248 11.1755 14.256 11.1515 14.256C11.1275 14.256 11.1115 14.248 11.1115 14.232C11.1115 14.224 11.1275 14.208 11.1515 14.208C11.1755 14.208 11.1915 14.224 11.1915 14.232H11.1995ZM11.4795 14.248C11.4795 14.264 11.4635 14.272 11.4395 14.272C11.4155 14.272 11.4075 14.264 11.4075 14.248C11.4075 14.24 11.4235 14.224 11.4395 14.224C11.4555 14.224 11.4795 14.232 11.4795 14.248ZM11.3275 14.248C11.3275 14.264 11.3115 14.272 11.2875 14.272C11.2635 14.272 11.2555 14.264 11.2555 14.24C11.2555 14.224 11.2715 14.208 11.2875 14.208C11.3035 14.208 11.3275 14.224 11.3275 14.24V14.248ZM11.6475 14.248C11.6475 14.256 11.6395 14.272 11.6235 14.272C11.5995 14.272 11.5835 14.256 11.5835 14.24C11.5835 14.224 11.5995 14.216 11.6235 14.216C11.6395 14.216 11.6555 14.224 11.6555 14.24L11.6475 14.248ZM11.5515 14.248C11.5515 14.264 11.5515 14.272 11.5355 14.272C11.5195 14.272 11.5115 14.264 11.5115 14.248C11.5115 14.232 11.5195 14.232 11.5355 14.232L11.5515 14.248ZM11.7435 14.256C11.7435 14.272 11.7435 14.288 11.7195 14.288C11.7115 14.288 11.6955 14.272 11.6955 14.256C11.6955 14.24 11.7115 14.232 11.7195 14.232C11.7355 14.232 11.7435 14.24 11.7435 14.256Z" fill="#F1B517" stroke="black" stroke-width="0.0426668"/>
<path d="M12.3112 13.824L12.8712 13.648L13.1192 13.224L13.9912 13.184L13.9592 13.504L13.2152 13.64L13.1512 13.768L12.2952 14.008L12.3112 13.824Z" fill="#F1B517" stroke="black" stroke-width="0.0426668"/>
<path d="M12.8951 13.9439L13.7911 12.6239L13.8311 12.6639L12.9511 13.9759L12.8951 13.9439Z" fill="#503200" stroke="black" stroke-width="0.0426668"/>
<path d="M13.7029 12.6799L13.7989 12.5199C13.8229 12.4879 13.8469 12.4799 13.8869 12.5039C13.9269 12.5199 13.9189 12.5599 13.9029 12.5919L13.8229 12.7439L13.7029 12.6799Z" fill="white" stroke="black" stroke-width="0.0426668"/>
<path d="M12.7907 13.128L14.5907 12.944L14.6387 13.208L12.8467 13.392L12.7907 13.128Z" fill="#F1B517" stroke="black" stroke-width="0.0426668"/>
<path d="M14.6309 12.88L14.6709 13.24H14.5909L14.5429 12.912L14.6229 12.88H14.6309ZM14.3269 12.936L14.3429 13.264H14.2949L14.2549 12.984L14.3189 12.936H14.3269ZM13.1029 13.08L13.1509 13.384H13.0629L13.0229 13.08H13.1029ZM12.8389 13.088L12.8949 13.44L12.7989 13.456L12.7669 13.272C12.7669 13.312 12.7269 13.336 12.6869 13.336C12.6389 13.336 12.6069 13.296 12.6069 13.256C12.6069 13.208 12.6389 13.176 12.6869 13.176C12.7036 13.1746 12.7203 13.1785 12.7346 13.1871C12.749 13.1957 12.7603 13.2086 12.7669 13.224L12.7429 13.096L12.8389 13.088ZM13.4789 13.144L13.7349 13.424L13.7029 13.456L13.3829 13.24L13.4869 13.144H13.4789ZM14.0709 13.84L13.8229 13.56L13.8469 13.528L14.1669 13.744L14.0709 13.84ZM13.4229 13.768L13.7189 13.536L13.7509 13.56L13.5109 13.864L13.4229 13.768ZM14.1669 13.232L13.8549 13.456L13.8229 13.432L14.0629 13.128L14.1669 13.232ZM13.8309 13.048L13.7989 13.416H13.7589L13.6629 13.056L13.8309 13.048ZM13.7349 13.928L13.7589 13.568H13.8069L13.8629 13.936H13.7349V13.928ZM13.3269 13.448L13.7109 13.48V13.52L13.3269 13.568V13.44V13.448ZM14.2389 13.568L13.8629 13.512V13.48L14.2469 13.44V13.568H14.2389Z" fill="#F1B517" stroke="black" stroke-width="0.0426668"/>
<path d="M13.7749 13.584C13.7175 13.584 13.6709 13.541 13.6709 13.488C13.6709 13.4349 13.7175 13.392 13.7749 13.392C13.8323 13.392 13.8789 13.4349 13.8789 13.488C13.8789 13.541 13.8323 13.584 13.7749 13.584Z" fill="#F1B517" stroke="black" stroke-width="0.0426668"/>
<path fill-rule="evenodd" clip-rule="evenodd" d="M13.2385 13.488C13.2385 13.768 13.4785 14.008 13.7745 14.008C13.8439 14.009 13.9128 13.9964 13.9772 13.9708C14.0417 13.9453 14.1005 13.9073 14.1503 13.859C14.2 13.8107 14.2398 13.7531 14.2673 13.6894C14.2948 13.6258 14.3095 13.5573 14.3105 13.488C14.3105 13.2 14.0705 12.968 13.7745 12.968C13.7052 12.9669 13.6363 12.9795 13.5719 13.0051C13.5074 13.0306 13.4486 13.0686 13.3988 13.1169C13.3491 13.1652 13.3093 13.2228 13.2818 13.2865C13.2543 13.3502 13.2396 13.4186 13.2385 13.488ZM13.3425 13.488C13.3436 13.5436 13.3556 13.5986 13.3779 13.6496C13.4001 13.7007 13.4322 13.7468 13.4724 13.7855C13.5125 13.8241 13.5598 13.8544 13.6117 13.8748C13.6635 13.8951 13.7189 13.905 13.7745 13.904C13.8309 13.905 13.8869 13.8948 13.9393 13.874C13.9916 13.8532 14.0393 13.8221 14.0795 13.7826C14.1198 13.7432 14.1517 13.6961 14.1735 13.6441C14.1953 13.5921 14.2066 13.5363 14.2065 13.48C14.2024 13.3689 14.1548 13.2639 14.074 13.1876C13.9932 13.1113 13.8857 13.0698 13.7745 13.072C13.7189 13.0709 13.6635 13.0808 13.6117 13.1011C13.5598 13.1215 13.5125 13.1518 13.4724 13.1905C13.4322 13.2291 13.4001 13.2753 13.3779 13.3263C13.3556 13.3773 13.3436 13.4323 13.3425 13.488Z" fill="#F1B517" stroke="black" stroke-width="0.0426668" stroke-linecap="round"/>
<path d="M14.1114 13.2239L14.1914 13.1599L14.1114 13.2239ZM13.5114 13.1599L13.4314 13.0799L13.5114 13.1599ZM13.3514 13.8159L13.4394 13.7439L13.3514 13.8159ZM14.1114 13.8959L14.0314 13.8159L14.1114 13.8959ZM12.2954 12.9679L12.2074 13.4479L12.2794 13.4799L12.3594 12.9759H12.2954V12.9679Z" fill="#F1B517"/>
<path d="M14.1114 13.2239L14.1914 13.1599M13.5114 13.1599L13.4314 13.0799M13.3514 13.8159L13.4394 13.7439M14.1114 13.8959L14.0314 13.8159M12.2954 12.9679L12.2074 13.4479L12.2794 13.4799L12.3594 12.9759H12.2954V12.9679Z" stroke="black" stroke-width="0.0426668"/>
<path d="M12.3426 12.912C12.3826 12.888 12.4386 12.92 12.5346 12.808C12.6866 12.944 12.5346 12.968 12.5186 13.104C12.4786 13.12 12.4466 12.992 12.3346 12.984L12.1506 12.968L12.1906 12.912H12.3506H12.3426Z" fill="white" stroke="black" stroke-width="0.0426668"/>
<path d="M12.279 13L12.295 12.864C12.319 12.808 12.375 12.856 12.375 12.88L12.359 13.016L12.279 13Z" fill="white" stroke="black" stroke-width="0.0426668"/>
<path fill-rule="evenodd" clip-rule="evenodd" d="M12.7269 13.392V13.52C12.7749 13.536 12.7669 13.568 12.7669 13.616V13.992C12.7749 14.024 12.8229 14.024 12.8469 14.04C12.8709 14.064 12.8629 14.104 12.7669 14.12L12.6869 14.128C12.5669 14.104 12.5429 14.064 12.6069 14.048C12.6309 14.032 12.6789 14.016 12.6869 14V13.904H12.6069C12.5909 13.904 12.5509 13.856 12.5509 13.816V13.616C12.5509 13.504 12.6309 13.488 12.6629 13.496V13.392H12.7269ZM12.5989 13.608C12.5989 13.576 12.6469 13.544 12.6629 13.544C12.6789 13.544 12.719 13.584 12.719 13.616V13.696C12.719 13.728 12.6949 13.824 12.6469 13.832C12.6309 13.832 12.5989 13.8 12.5989 13.768V13.608Z" fill="#F1B517" stroke="black" stroke-width="0.0426668"/>
<path d="M13.2474 13.7839C13.3034 13.7679 13.3034 13.8799 13.3034 13.8799H13.2234C13.1834 13.8959 13.1594 13.9439 13.1754 13.9759C13.1994 13.9919 13.3514 13.9359 13.3594 13.9759C13.3354 14.1279 13.1274 14.1839 13.0554 14.1199C12.9834 14.0479 12.9674 13.8799 13.1994 13.8239L13.2474 13.7839ZM13.1994 13.8319L13.2234 13.8799L13.1994 13.8319Z" fill="white"/>
<path d="M13.2234 13.8799H13.3034C13.3034 13.8799 13.3034 13.7679 13.2474 13.7839L13.1994 13.8239C12.9674 13.8799 12.9834 14.0479 13.0554 14.1199C13.1274 14.1839 13.3354 14.1279 13.3594 13.9759C13.3514 13.9359 13.1994 13.9919 13.1754 13.9759C13.1594 13.9439 13.1834 13.8959 13.2234 13.8799ZM13.2234 13.8799L13.1994 13.8319" stroke="black" stroke-width="0.0426668"/>
<path d="M14.7909 13.84L14.8709 13.52L14.7909 13.84ZM14.7029 13.824L14.8229 13.576L14.7029 13.824ZM14.5029 13.76L14.7669 13.616L14.5029 13.76ZM14.3829 13.728L14.8789 13.512L14.3829 13.728Z" fill="#F1B517"/>
<path d="M14.7909 13.84L14.8709 13.52M14.7029 13.824L14.8229 13.576M14.5029 13.76L14.7669 13.616M14.3829 13.728L14.8789 13.512" stroke="black" stroke-width="0.0426668"/>
<path d="M15.175 13.2799L15.383 13.2879C15.399 13.2959 15.343 13.3599 15.351 13.3759C15.399 13.4639 15.703 13.4559 15.727 13.4399C15.767 13.3999 15.447 13.3759 15.439 13.3599C15.439 13.3279 15.487 13.2639 15.479 13.2239C15.479 13.1679 15.343 13.1439 15.343 13.1439L15.175 13.2799Z" fill="#D20014" stroke="#D20014" stroke-width="0.0426668"/>
<path d="M14.9347 13.4399L15.3347 13.1039C15.3347 13.1039 15.3587 13.0879 15.3747 13.1039C15.3907 13.1199 15.3747 13.1359 15.3747 13.1359L14.9427 13.4879L14.9347 13.4479V13.4399Z" fill="#503200" stroke="black" stroke-width="0.0426668"/>
<path d="M14.5348 13.776L14.8708 13.488L14.8948 13.408L14.9588 13.456C14.9828 13.472 15.0068 13.52 15.0068 13.52H14.9188L14.6308 13.792L14.5428 13.776H14.5348Z" fill="#F1B517" stroke="black" stroke-width="0.0426668"/>
<path d="M13.3913 14.2239C13.3603 14.2239 13.3353 14.1989 13.3353 14.1679C13.3353 14.137 13.3603 14.1119 13.3913 14.1119C13.4222 14.1119 13.4473 14.137 13.4473 14.1679C13.4473 14.1989 13.4222 14.2239 13.3913 14.2239Z" fill="#F1B517" stroke="black" stroke-width="0.0426668"/>
<path d="M13.5426 14.112C13.5117 14.112 13.4866 14.0869 13.4866 14.056C13.4866 14.0251 13.5117 14 13.5426 14C13.5736 14 13.5986 14.0251 13.5986 14.056C13.5986 14.0869 13.5736 14.112 13.5426 14.112Z" fill="#F1B517" stroke="black" stroke-width="0.0426668"/>
<path d="M13.7428 14.1839C13.7119 14.1839 13.6868 14.1588 13.6868 14.1279C13.6868 14.097 13.7119 14.0719 13.7428 14.0719C13.7738 14.0719 13.7988 14.097 13.7988 14.1279C13.7988 14.1588 13.7738 14.1839 13.7428 14.1839Z" fill="#F1B517" stroke="black" stroke-width="0.0426668"/>
<path d="M14.0553 14.248C14.0244 14.248 13.9993 14.2229 13.9993 14.192C13.9993 14.1611 14.0244 14.136 14.0553 14.136C14.0863 14.136 14.1113 14.1611 14.1113 14.192C14.1113 14.2229 14.0863 14.248 14.0553 14.248Z" fill="#F1B517" stroke="black" stroke-width="0.0426668"/>
<path d="M14.1911 14.264C14.1601 14.264 14.1351 14.2389 14.1351 14.208C14.1351 14.1771 14.1601 14.152 14.1911 14.152C14.222 14.152 14.2471 14.1771 14.2471 14.208C14.2471 14.2389 14.222 14.264 14.1911 14.264Z" fill="#F1B517" stroke="black" stroke-width="0.0426668"/>
<path d="M14.3268 14.264C14.2959 14.264 14.2708 14.2389 14.2708 14.208C14.2708 14.1771 14.2959 14.152 14.3268 14.152C14.3577 14.152 14.3828 14.1771 14.3828 14.208C14.3828 14.2389 14.3577 14.264 14.3268 14.264Z" fill="#F1B517" stroke="black" stroke-width="0.0426668"/>
<path d="M14.4547 14.264C14.4238 14.264 14.3987 14.2389 14.3987 14.208C14.3987 14.1771 14.4238 14.152 14.4547 14.152C14.4857 14.152 14.5107 14.1771 14.5107 14.208C14.5107 14.2389 14.4857 14.264 14.4547 14.264Z" fill="#F1B517" stroke="black" stroke-width="0.0426668"/>
<path d="M14.3913 14.16C14.3603 14.16 14.3353 14.1349 14.3353 14.104C14.3353 14.073 14.3603 14.048 14.3913 14.048C14.4222 14.048 14.4473 14.073 14.4473 14.104C14.4473 14.1349 14.4222 14.16 14.3913 14.16Z" fill="#F1B517" stroke="black" stroke-width="0.0426668"/>
<path d="M14.2633 14.1679C14.2324 14.1679 14.2073 14.1428 14.2073 14.1119C14.2073 14.081 14.2324 14.0559 14.2633 14.0559C14.2943 14.0559 14.3193 14.081 14.3193 14.1119C14.3193 14.1428 14.2943 14.1679 14.2633 14.1679Z" fill="#F1B517" stroke="black" stroke-width="0.0426668"/>
<path d="M14.1432 14.1519C14.1123 14.1519 14.0872 14.1268 14.0872 14.0959C14.0872 14.065 14.1123 14.0399 14.1432 14.0399C14.1741 14.0399 14.1992 14.065 14.1992 14.0959C14.1992 14.1268 14.1741 14.1519 14.1432 14.1519Z" fill="#F1B517" stroke="black" stroke-width="0.0426668"/>
<path d="M14.1989 14.056C14.168 14.056 14.1429 14.0309 14.1429 14C14.1429 13.969 14.168 13.944 14.1989 13.944C14.2298 13.944 14.2549 13.969 14.2549 14C14.2549 14.0309 14.2298 14.056 14.1989 14.056Z" fill="#F1B517" stroke="black" stroke-width="0.0426668"/>
<path d="M14.3268 14.0479C14.2959 14.0479 14.2708 14.0228 14.2708 13.9919C14.2708 13.961 14.2959 13.9359 14.3268 13.9359C14.3577 13.9359 14.3828 13.961 14.3828 13.9919C14.3828 14.0228 14.3577 14.0479 14.3268 14.0479Z" fill="#F1B517" stroke="black" stroke-width="0.0426668"/>
<path fill-rule="evenodd" clip-rule="evenodd" d="M13.0708 14.24C13.0708 14.216 13.1348 14.224 13.1348 14.192C13.1348 14.16 13.0388 14.192 13.0308 14.216C12.9748 14.168 12.9508 14.2 12.9188 14.216C12.8708 14.152 12.8148 14.152 12.7588 14.2C12.7268 14.168 12.6468 14.176 12.6228 14.216C12.5668 14.168 12.5188 14.176 12.4868 14.216C12.4708 14.192 12.4468 14.192 12.4308 14.216C12.4068 14.16 12.3348 14.176 12.3028 14.216C12.2788 14.184 12.2468 14.208 12.2148 14.224C12.1908 14.208 12.1508 14.208 12.1508 14.224C12.1508 14.256 12.1988 14.248 12.1988 14.272C12.1988 14.288 12.1668 14.272 12.1668 14.304C12.1668 14.328 12.2148 14.336 12.2228 14.304C12.2468 14.336 12.3108 14.32 12.3188 14.288C12.3248 14.2948 12.3322 14.3003 12.3404 14.304C12.3487 14.3077 12.3577 14.3097 12.3668 14.3097C12.3758 14.3097 12.3848 14.3077 12.3931 14.304C12.4014 14.3003 12.4088 14.2948 12.4148 14.288C12.4388 14.304 12.4708 14.304 12.4788 14.288C12.5188 14.328 12.5908 14.32 12.6148 14.272H12.6388C12.6463 14.2805 12.6555 14.2873 12.6658 14.292C12.6762 14.2967 12.6874 14.2991 12.6988 14.2991C12.7101 14.2991 12.7213 14.2967 12.7317 14.292C12.742 14.2873 12.7513 14.2805 12.7588 14.272C12.8308 14.32 12.8708 14.304 12.9108 14.272C12.9508 14.328 13.0228 14.328 13.0308 14.272C13.0628 14.296 13.1268 14.304 13.1268 14.272C13.1268 14.256 13.0708 14.264 13.0708 14.24ZM12.9428 14.248C12.9428 14.264 12.9588 14.272 12.9748 14.272C12.9908 14.272 13.0068 14.264 13.0068 14.248C13.0068 14.232 12.9988 14.232 12.9748 14.232C12.9508 14.232 12.9428 14.24 12.9428 14.248ZM12.7908 14.232C12.7908 14.248 12.8148 14.256 12.8388 14.256C12.8628 14.256 12.8788 14.248 12.8788 14.232C12.8788 14.224 12.8628 14.208 12.8388 14.208C12.8148 14.208 12.7988 14.224 12.7988 14.232H12.7908ZM12.5108 14.248C12.5108 14.264 12.5268 14.272 12.5508 14.272C12.5748 14.272 12.5828 14.264 12.5828 14.248C12.5828 14.24 12.5668 14.224 12.5508 14.224C12.5348 14.224 12.5108 14.232 12.5108 14.248ZM12.6628 14.248C12.6628 14.264 12.6788 14.272 12.7028 14.272C12.7268 14.272 12.7348 14.264 12.7348 14.24C12.7348 14.224 12.7188 14.208 12.7028 14.208C12.6868 14.208 12.6628 14.224 12.6628 14.24V14.248ZM12.3428 14.248C12.3428 14.256 12.3508 14.272 12.3668 14.272C12.3908 14.272 12.4068 14.256 12.4068 14.24C12.4068 14.224 12.3908 14.216 12.3668 14.216C12.3508 14.216 12.3348 14.224 12.3348 14.24L12.3428 14.248ZM12.4388 14.248C12.4388 14.264 12.4388 14.272 12.4548 14.272C12.4708 14.272 12.4788 14.264 12.4788 14.248C12.4788 14.232 12.4708 14.232 12.4548 14.232L12.4388 14.248ZM12.2468 14.256C12.2468 14.272 12.2468 14.288 12.2708 14.288C12.2788 14.288 12.2948 14.272 12.2948 14.256C12.2948 14.24 12.2788 14.232 12.2708 14.232C12.2548 14.232 12.2468 14.24 12.2468 14.256Z" fill="#F1B517" stroke="black" stroke-width="0.0426668"/>
<path d="M11.983 13.256C11.783 13.256 11.623 13.336 11.623 13.424C11.623 13.44 11.623 13.456 11.639 13.472C11.679 13.52 11.823 13.552 11.991 13.552C12.151 13.552 12.279 13.528 12.327 13.48C12.343 13.464 12.351 13.448 12.351 13.424C12.351 13.336 12.191 13.264 11.983 13.264V13.256Z" fill="#0A328C" stroke="#0A328C" stroke-width="0.0426668"/>
<path d="M12.351 13.4399V13.9999C12.351 14.0719 12.191 14.1199 11.991 14.1199C11.791 14.1199 11.623 14.0719 11.623 13.9999V13.4399C11.623 13.5039 11.783 13.5599 11.983 13.5599C12.191 13.5599 12.351 13.5039 12.351 13.4399Z" fill="#F1B517" stroke="black" stroke-width="0.0426668"/>
<path d="M11.623 13.4399V13.5199L11.799 14.0799L11.943 13.6479L12.103 14.0879L12.207 13.6719L12.351 13.9519V13.7999L12.223 13.5279C12.2073 13.5339 12.1912 13.5392 12.175 13.5439L12.095 13.8479L11.975 13.5599C11.9564 13.5604 11.9377 13.5604 11.919 13.5599L11.799 13.8479L11.671 13.4959C11.639 13.4799 11.623 13.4559 11.623 13.4399Z" fill="#D20014" stroke="#D20014" stroke-width="0.0426668"/>
<path d="M12.351 13.896V14C12.351 14.072 12.191 14.12 11.991 14.12C11.791 14.12 11.623 14.072 11.623 14V13.896C11.623 13.968 11.783 14.016 11.983 14.016C12.191 14.016 12.351 13.968 12.351 13.896Z" fill="#0A328C" stroke="#0A328C" stroke-width="0.0426668"/>
<path d="M12.135 14L12.047 14.016V14.12L12.143 14.112V14.008L12.135 14ZM11.751 13.992V14.096L11.839 14.112V14.008C11.8094 14.0045 11.78 13.9992 11.751 13.992ZM11.623 13.896V14C11.623 14.024 11.639 14.04 11.663 14.056V13.952C11.639 13.936 11.623 13.92 11.623 13.896ZM12.351 13.912C12.351 13.928 12.319 13.952 12.287 13.968V14.072C12.327 14.056 12.351 14.032 12.351 14V13.92V13.912Z" fill="#F1B517" stroke="black" stroke-width="0.0426668"/>
<path d="M12.351 13.4399V13.9999C12.351 14.0719 12.191 14.1199 11.991 14.1199C11.791 14.1199 11.623 14.0719 11.623 13.9999V13.4399" stroke="black" stroke-width="0.0426668"/>
<path d="M12.2711 13.4C12.2711 13.44 12.1431 13.48 11.9911 13.48C11.8311 13.48 11.7031 13.44 11.7031 13.4C11.7031 13.36 11.8311 13.328 11.9831 13.328C12.1431 13.328 12.2711 13.36 12.2711 13.408V13.4Z" fill="white" stroke="white" stroke-width="0.0426668"/>
<path d="M11.8952 13.4559L11.9112 13.5519H11.9912L11.9992 13.4559H11.8952ZM12.2232 13.4319L12.1432 13.4479L12.1512 13.5439L12.2312 13.5279V13.4399L12.2232 13.4319ZM11.7912 13.2719L11.7352 13.2959L11.7432 13.3759L11.7912 13.3599V13.2799V13.2719ZM11.9832 13.2479H11.9592L11.9752 13.3439H12.0232L12.0392 13.2479C12.0206 13.2473 12.0019 13.2473 11.9832 13.2479ZM12.1992 13.2799L12.1912 13.3599L12.2472 13.3839V13.3039C12.2318 13.2949 12.2157 13.2869 12.1992 13.2799ZM11.6792 13.5039L11.6952 13.3999L11.6152 13.3599V13.4799L11.6792 13.5039ZM12.3512 13.4799V13.3759L12.2872 13.3999L12.3512 13.4799ZM13.0952 12.7999C13.1592 12.7999 13.2552 12.8799 13.2632 12.9999C13.2632 13.0799 13.1272 13.0799 13.1272 13.0799C13.1272 13.1199 13.0472 13.1519 12.9832 13.1599C12.9192 13.1599 12.9992 13.0399 12.9992 13.0399C12.9592 12.9359 13.0152 12.8239 13.0152 12.8239L13.0952 12.7999Z" fill="#F1B517" stroke="black" stroke-width="0.0426668"/>
<path d="M12.999 13.04H13.063C13.063 13.04 13.063 13.064 13.079 13.064C13.095 13.064 13.103 13.032 13.103 13.032H13.199" fill="#F1B517"/>
<path d="M12.999 13.04H13.063C13.063 13.04 13.063 13.064 13.079 13.064C13.095 13.064 13.103 13.032 13.103 13.032H13.199" stroke="black" stroke-width="0.0426668"/>
<path d="M13.1268 12.872C13.1828 12.832 13.1348 12.752 13.0948 12.752H13.0148C12.9668 12.752 12.9028 12.8 12.9108 12.832C12.9108 12.872 12.9428 12.888 12.9748 12.88C12.9908 12.88 13.0228 12.832 13.0388 12.832C13.0628 12.832 13.1188 12.88 13.1268 12.872Z" fill="#D20014" stroke="#F1B517" stroke-width="0.0426668"/>
<path fill-rule="evenodd" clip-rule="evenodd" d="M9.13519 13.984C9.08719 13.992 9.07919 14.048 9.09519 14.104C8.88719 14.16 8.69519 14.24 8.50319 14.296C8.49519 14.256 8.59919 14.152 8.59919 14.152C8.62319 14.16 8.64719 14.224 8.64719 14.224C8.64719 14.096 8.77519 14.016 8.77519 14.016C8.69519 14 8.47919 14.096 8.45519 14.128C8.45519 14.128 8.53519 14.112 8.55119 14.128C8.55119 14.128 8.37519 14.312 8.36719 14.368C8.39919 14.424 8.68719 14.472 8.68719 14.472C8.68719 14.488 8.60719 14.552 8.60719 14.552C8.72719 14.568 8.90319 14.488 8.95119 14.44C8.95119 14.44 8.81519 14.424 8.71119 14.336C8.71119 14.336 8.72719 14.392 8.71119 14.416C8.71119 14.416 8.55119 14.368 8.52719 14.336C8.52719 14.336 8.92719 14.24 9.11919 14.176C9.12719 14.216 9.16719 14.28 9.21519 14.264C9.23919 14.256 9.23119 14.2 9.21519 14.152C9.22168 14.1578 9.22929 14.1622 9.23754 14.165C9.24579 14.1677 9.25452 14.1687 9.26319 14.168C9.29519 14.168 9.31919 14.144 9.31919 14.112C9.31919 14.08 9.29519 14.056 9.26319 14.056C9.25101 14.0566 9.23928 14.0608 9.22935 14.0678C9.21943 14.0749 9.21174 14.0847 9.20719 14.096C9.19919 14.056 9.17519 13.984 9.14319 13.992L9.13519 13.984ZM9.29519 14.112C9.29519 14.128 9.27919 14.136 9.26319 14.136C9.25946 14.1373 9.25546 14.1377 9.25154 14.1371C9.24762 14.1365 9.24392 14.135 9.24075 14.1326C9.23758 14.1302 9.23505 14.1271 9.23338 14.1235C9.23171 14.1199 9.23096 14.116 9.23119 14.112C9.23119 14.096 9.24719 14.08 9.26319 14.08C9.27919 14.08 9.28719 14.096 9.28719 14.112H9.29519Z" fill="#F1B517" stroke="black" stroke-width="0.0426668"/>
<path d="M15.4393 14.232C15.4553 14.2 15.4393 14.056 15.4393 14.056C15.3993 14.056 15.3593 14.112 15.3593 14.112C15.3993 13.984 15.2953 13.792 15.2953 13.792C15.3673 13.8 15.6073 14.032 15.6153 14.08C15.6153 14.08 15.5113 14.04 15.4953 14.048C15.5193 14.168 15.5993 14.224 15.6313 14.288C15.6313 14.288 15.4953 14.312 15.5033 14.432H15.4153C15.3833 14.392 15.4233 14.328 15.4233 14.328L14.8073 14.072C14.7673 14.056 14.6793 14.008 14.6953 13.96C14.7033 13.92 14.8553 13.984 14.8873 14L15.4473 14.232H15.4393Z" fill="#F1B517" stroke="black" stroke-width="0.0426668"/>
<path d="M14.8476 14.1199L14.9276 13.9919C14.9516 13.9519 14.8956 13.9119 14.8556 13.9599L14.7756 14.0799C14.7436 14.1519 14.8156 14.1679 14.8556 14.1199H14.8476Z" fill="#F1B517" stroke="black" stroke-width="0.0426668"/>
<path d="M10.5096 14.4281L10.5049 14.2875L10.3268 14.2922L10.3174 14.4515L10.5096 14.4281Z" fill="white" stroke="black" stroke-width="0.0375"/>
<path d="M9.22051 14.6343L8.98613 14.5031C9.95644 14.5922 10.158 14.25 10.3924 14.2312C10.533 14.2218 10.5564 14.3906 10.2799 14.3109L10.3502 14.489C10.3502 14.489 9.65645 14.8781 8.98145 14.7234L9.21582 14.6297L9.22051 14.6343ZM13.4627 14.4281V14.2875H13.683L13.6924 14.4468L13.458 14.4281H13.4627Z" fill="white" stroke="black" stroke-width="0.0375"/>
<path d="M14.7938 14.5969L15.0187 14.475C13.9031 14.5125 14.1563 14.2922 13.5984 14.2312C13.4578 14.2172 13.3453 14.4047 13.7109 14.3109L13.6406 14.489H13.8141C14.1837 14.713 14.6267 14.782 15.0469 14.6812L14.7938 14.5969Z" fill="white" stroke="black" stroke-width="0.0375"/>
<path d="M10.2754 14.3109V14.564C10.2754 14.564 10.8941 14.7984 11.9957 14.7984C13.102 14.7984 13.716 14.564 13.716 14.564V14.3109C13.716 14.3109 13.2473 14.5265 11.9957 14.5265C10.7488 14.5265 10.2754 14.3109 10.2754 14.3109Z" fill="white" stroke="black" stroke-width="0.0375"/>
<path d="M10.3643 14.5687L10.4205 14.3812L10.4439 14.3906L10.3971 14.55L10.4908 14.5781L10.4861 14.6015L10.3643 14.564V14.5687ZM10.5471 14.4844V14.4469L10.5564 14.4187L10.5846 14.4234L10.5752 14.4562L10.5611 14.489H10.5471V14.4844ZM10.8096 14.4703L10.8377 14.4797L10.8143 14.5875C10.8143 14.6062 10.8049 14.6203 10.7955 14.6344L10.7674 14.6531C10.752 14.6571 10.7359 14.6571 10.7205 14.6531C10.7035 14.6513 10.6872 14.6448 10.6736 14.6344C10.6661 14.6267 10.6612 14.6168 10.6596 14.6062V14.5594L10.683 14.4469L10.7111 14.4515L10.6877 14.5594C10.683 14.5781 10.683 14.5922 10.6877 14.5969C10.6877 14.6062 10.6877 14.6156 10.6971 14.6203L10.7205 14.6297H10.7674C10.7768 14.6203 10.7814 14.6062 10.7861 14.5828L10.8096 14.4703ZM10.8377 14.6719L10.8705 14.4844H10.8986L10.9783 14.6531L11.0018 14.5031L11.0252 14.5078L10.9924 14.6953H10.9689L10.8893 14.5265L10.8658 14.6765H10.8377V14.6719ZM11.0439 14.7047L11.0721 14.5172H11.0955L11.0674 14.7047H11.0439ZM11.1189 14.6203C11.1203 14.5935 11.1321 14.5682 11.1518 14.55C11.1622 14.5417 11.1743 14.5357 11.1872 14.5325C11.2002 14.5293 11.2136 14.5288 11.2268 14.5312C11.2455 14.5312 11.2596 14.5359 11.2736 14.5453C11.2877 14.5594 11.2971 14.5687 11.3018 14.5875C11.3064 14.6015 11.3111 14.6203 11.3064 14.639C11.3038 14.6559 11.2974 14.6719 11.2877 14.6859C11.2783 14.7047 11.2643 14.714 11.2502 14.7187C11.2355 14.7255 11.2195 14.7287 11.2033 14.7281C11.1863 14.7263 11.1701 14.7198 11.1564 14.7094C11.1377 14.7 11.1283 14.6859 11.1236 14.6672C11.1185 14.6521 11.1169 14.6361 11.1189 14.6203ZM11.1471 14.6203C11.1424 14.6484 11.1471 14.6672 11.1564 14.6812C11.1705 14.6953 11.1846 14.7047 11.2033 14.7047C11.2221 14.7047 11.2408 14.7047 11.2549 14.6906C11.2689 14.6765 11.2783 14.6625 11.2783 14.6344C11.2815 14.6205 11.2815 14.606 11.2783 14.5922C11.2736 14.5806 11.2654 14.5708 11.2549 14.564C11.2455 14.5564 11.2341 14.5515 11.2221 14.55C11.2033 14.55 11.1893 14.55 11.1752 14.564C11.1564 14.5734 11.1471 14.5969 11.1471 14.625V14.6203ZM11.3299 14.7375L11.3439 14.5453H11.3721L11.4658 14.7047L11.4752 14.5547H11.5033L11.4846 14.7515H11.4611L11.3674 14.5875L11.3533 14.7375H11.3299ZM11.6111 14.7562L11.6158 14.564L11.7564 14.5687L11.7518 14.5922H11.6439V14.6484H11.7377L11.733 14.6719H11.6393V14.7562H11.6111ZM11.7518 14.7609L11.8361 14.5734H11.8643L11.9439 14.7656H11.9111L11.8877 14.7047H11.8127L11.7893 14.7656H11.7611L11.7518 14.7609ZM11.8127 14.6859H11.883L11.8643 14.6344C11.859 14.6205 11.8543 14.6064 11.8502 14.5922C11.8502 14.6062 11.8408 14.6156 11.8361 14.6297L11.8127 14.6859ZM11.9674 14.7656V14.5734H11.9955V14.7656H11.9674ZM12.0893 14.7656V14.5969H12.0236V14.5734H12.1783V14.5922H12.1127L12.1174 14.7656H12.0893ZM12.2861 14.7609L12.2768 14.5687H12.3049L12.3096 14.7375L12.408 14.7328V14.7562H12.2861V14.7609ZM12.4221 14.7562L12.483 14.5594H12.5111L12.6049 14.7422H12.5768L12.5486 14.6859L12.4643 14.6953L12.4502 14.7515H12.4221V14.7562ZM12.4689 14.6719H12.5393L12.5158 14.6156C12.5091 14.6034 12.5028 14.5909 12.4971 14.5781C12.4949 14.5908 12.4918 14.6034 12.4877 14.6156L12.4736 14.6719H12.4689ZM12.7033 14.7328L12.6846 14.5453L12.8158 14.5265V14.55L12.7127 14.564L12.7174 14.6203L12.8111 14.6109V14.6344L12.7221 14.6437L12.7314 14.7281L12.708 14.7328H12.7033ZM12.8533 14.625C12.8486 14.5922 12.8533 14.564 12.8674 14.5453C12.8751 14.5348 12.885 14.5261 12.8962 14.5196C12.9075 14.5132 12.9201 14.5091 12.933 14.5078C12.9492 14.5068 12.9653 14.51 12.9799 14.5172C12.9986 14.5172 13.0127 14.5312 13.0221 14.5453C13.0322 14.5602 13.0387 14.5773 13.0412 14.5952C13.0436 14.6131 13.0419 14.6313 13.0361 14.6484C13.0307 14.6635 13.0209 14.6765 13.008 14.6859C12.9939 14.6953 12.9752 14.7047 12.9611 14.7047C12.9438 14.708 12.926 14.7063 12.9096 14.7C12.8942 14.6928 12.8812 14.6814 12.8721 14.6672C12.8622 14.6532 12.8558 14.6372 12.8533 14.6203V14.625ZM12.8768 14.6203C12.8814 14.6437 12.8908 14.6625 12.9049 14.6672C12.9189 14.6812 12.9377 14.6859 12.9564 14.6859C12.9752 14.6859 12.9939 14.6719 13.0033 14.6578C13.0127 14.6437 13.0174 14.625 13.0127 14.5969C13.0108 14.5835 13.006 14.5707 12.9986 14.5594C12.9919 14.5488 12.9821 14.5407 12.9705 14.5359C12.9587 14.5307 12.9457 14.5291 12.933 14.5312C12.924 14.5317 12.9152 14.534 12.9071 14.5381C12.8991 14.5421 12.8919 14.5477 12.8861 14.5547C12.8768 14.5687 12.8768 14.5922 12.8814 14.6203H12.8768ZM13.0877 14.6859L13.0502 14.4984L13.1393 14.4797H13.1814C13.1908 14.4797 13.2002 14.4844 13.2049 14.4937C13.2143 14.4984 13.2189 14.5078 13.2189 14.5219C13.2201 14.5336 13.2167 14.5453 13.2096 14.5547C13.2049 14.564 13.1908 14.5734 13.1721 14.5781L13.1908 14.5875L13.2189 14.6062L13.2611 14.6531L13.2283 14.6578L13.1955 14.625C13.188 14.6168 13.1802 14.609 13.1721 14.6015C13.1678 14.5978 13.1631 14.5946 13.158 14.5922C13.1534 14.5914 13.1486 14.5914 13.1439 14.5922H13.0971L13.1158 14.6812H13.0877V14.6859ZM13.0924 14.5734L13.1486 14.564C13.1627 14.564 13.1721 14.564 13.1768 14.5547C13.1816 14.5519 13.1856 14.5478 13.1881 14.5428C13.1906 14.5377 13.1915 14.5321 13.1908 14.5265C13.1907 14.5218 13.1893 14.5171 13.1868 14.513C13.1844 14.5089 13.1809 14.5055 13.1768 14.5031H13.1439L13.083 14.5125L13.0924 14.5734ZM13.4064 14.5547H13.4346C13.4346 14.5734 13.4299 14.5922 13.4158 14.6062C13.4064 14.6203 13.3877 14.6297 13.3689 14.6344C13.3521 14.6392 13.3342 14.6392 13.3174 14.6344C13.3 14.6286 13.2851 14.617 13.2752 14.6015C13.2659 14.5873 13.2595 14.5714 13.2564 14.5547V14.5031C13.2564 14.4844 13.2658 14.4703 13.2799 14.4609C13.2935 14.4505 13.3097 14.444 13.3268 14.4422C13.3421 14.4377 13.3583 14.4377 13.3736 14.4422C13.3924 14.4515 13.4064 14.4609 13.4158 14.4797L13.3924 14.489C13.3856 14.4785 13.3758 14.4703 13.3643 14.4656C13.3536 14.4623 13.3421 14.4623 13.3314 14.4656C13.3127 14.4656 13.3033 14.4703 13.2939 14.4797C13.2851 14.4883 13.2801 14.5001 13.2799 14.5125C13.2775 14.5389 13.2841 14.5653 13.2986 14.5875C13.308 14.6015 13.3174 14.6062 13.3268 14.6109C13.3408 14.6109 13.3502 14.6156 13.3643 14.6109C13.3783 14.6109 13.3877 14.6062 13.3971 14.5922C13.4064 14.5828 13.4111 14.5687 13.4064 14.5547ZM13.4814 14.6015L13.4299 14.4187L13.5705 14.3812V14.4047L13.458 14.4375L13.4768 14.4937L13.5799 14.4656L13.5893 14.4844L13.4814 14.5125L13.5002 14.5781L13.6174 14.5453L13.6268 14.5687L13.4861 14.6062L13.4814 14.6015Z" fill="black"/>
</g>
<defs>
<clipPath id="clip0_208_21094">
<rect width="24" height="24" rx="12" fill="white"/>
</clipPath>
</defs>
</svg>
