<svg width="24" height="24" viewBox="0 0 24 24" fill="none" xmlns="http://www.w3.org/2000/svg">
<g clip-path="url(#clip0_208_25601)">
<path d="M0 0H24V24H0V0Z" fill="#EE1C25"/>
<path d="M0 0H24V15.9984H0V0Z" fill="#0B4EA2"/>
<path d="M0 0H24V8.00156H0V0Z" fill="white"/>
<path d="M9.52539 18.5391C7.37383 17.5078 4.29883 15.4453 4.29883 11.3766C4.29883 7.30781 4.49102 5.46094 4.49102 5.46094H14.5598C14.5598 5.46094 14.7566 7.30781 14.7566 11.3766C14.7566 15.4453 11.6723 17.5031 9.52539 18.5391Z" fill="white"/>
<path d="M9.52481 18C7.55137 17.0484 4.72949 15.1641 4.72949 11.4281C4.72949 7.69219 4.90762 6 4.90762 6H14.142C14.142 6 14.3201 7.69688 14.3201 11.4281C14.3201 15.1594 11.4982 17.0531 9.52481 18Z" fill="#EE1C25"/>
<path d="M9.94727 10.4532C10.4816 10.4626 11.527 10.4813 12.4551 10.172C12.4551 10.172 12.427 10.5001 12.427 10.8892C12.427 11.2782 12.4551 11.6063 12.4551 11.6063C11.6391 11.3815 10.7928 11.2866 9.94727 11.3251V13.3876H9.10352V11.3251C8.258 11.2866 7.4117 11.3815 6.5957 11.6063C6.5957 11.6063 6.62383 11.2782 6.62383 10.8892C6.62383 10.5001 6.5957 10.172 6.5957 10.172C7.52852 10.4813 8.56914 10.4626 9.10352 10.4532V9.15479C8.43122 9.13831 7.76095 9.23496 7.1207 9.44072C7.1207 9.44072 7.14414 9.1126 7.14414 8.72354C7.14414 8.33447 7.1207 8.00166 7.1207 8.00166C7.91758 8.26885 8.61602 8.29228 9.09883 8.28291C9.07539 7.46728 8.83633 6.43604 8.83633 6.43604C8.83633 6.43604 9.32852 6.47354 9.52539 6.47354C9.72227 6.47354 10.2145 6.43604 10.2145 6.43604C10.2145 6.43604 9.97539 7.46729 9.94727 8.2876C10.6194 8.3074 11.29 8.21228 11.9301 8.00635C11.9301 8.00635 11.9066 8.33447 11.9066 8.72354C11.9066 9.1126 11.9301 9.44072 11.9301 9.44072C11.1332 9.17353 10.4348 9.15478 9.94727 9.15947V10.4532Z" fill="white"/>
<path d="M9.52539 13.1626C8.53164 13.1626 7.99727 14.5407 7.99727 14.5407C7.99727 14.5407 7.70195 13.8845 6.89102 13.8845C6.34258 13.8845 5.93945 14.3767 5.68164 14.8313C6.68008 16.4157 8.27383 17.3954 9.52539 18.0001C10.777 17.3954 12.3707 16.4157 13.3691 14.8267C13.1113 14.3767 12.7082 13.8892 12.1598 13.8892C11.3488 13.8892 11.0535 14.5454 11.0535 14.5454C11.0535 14.5454 10.5191 13.1626 9.52539 13.1626Z" fill="#0B4EA2"/>
</g>
<defs>
<clipPath id="clip0_208_25601">
<rect width="24" height="24" rx="12" fill="white"/>
</clipPath>
</defs>
</svg>
