<svg width="24" height="24" viewBox="0 0 24 24" fill="none" xmlns="http://www.w3.org/2000/svg">
<g clip-path="url(#clip0_208_20081)">
<mask id="mask0_208_20081" style="mask-type:luminance" maskUnits="userSpaceOnUse" x="-1" y="-1" width="25" height="25">
<path d="M-0.00683594 -0.000488281H23.9842V23.9905H-0.00683594V-0.000488281Z" fill="white"/>
</mask>
<g mask="url(#mask0_208_20081)">
<path fill-rule="evenodd" clip-rule="evenodd" d="M-11.1523 0.16626H37.4769V23.5002H-11.1572L-11.1523 0.16626Z" fill="#FFC621"/>
<path fill-rule="evenodd" clip-rule="evenodd" d="M-11.25 16.0475H37.4478V23.9905H-11.25V16.0475Z" fill="#EF2118"/>
<path fill-rule="evenodd" clip-rule="evenodd" d="M-11.1523 -0.000488281H37.4768V8.43289H-11.1523V-0.000488281Z" fill="#298C08"/>
<path d="M12.276 17.4223C15.061 17.4223 17.3187 15.1647 17.3187 12.3797C17.3187 9.5947 15.061 7.33704 12.276 7.33704C9.49107 7.33704 7.2334 9.5947 7.2334 12.3797C7.2334 15.1647 9.49107 17.4223 12.276 17.4223Z" fill="#006BC6"/>
<path fill-rule="evenodd" clip-rule="evenodd" d="M10.03 8.82023L9.73585 9.03106L10.8341 10.5804L11.1283 10.3892L10.0349 8.82023H10.03ZM11.4127 12.4731L10.9616 12.1544L11.1479 11.566L8.89251 11.5954L8.2404 11.0953L11.3147 11.061L11.8883 9.33015L12.1874 10.0362L11.4029 12.478L11.4127 12.4731ZM14.9969 9.15854L14.7027 8.9379L13.5603 10.4579L13.83 10.6785L14.9969 9.15854ZM11.9324 11.5758L12.0943 11.0511H12.7169L12.006 8.90848L12.2855 8.13379L13.2465 11.061L15.0704 11.0806L14.4968 11.5856L11.9324 11.5758ZM16.1786 13.9783L16.3011 13.6253L14.5066 13.0075L14.3791 13.3262L16.1786 13.9734V13.9783ZM12.9425 11.8013L13.4916 11.7915L13.6878 12.3848L15.5019 11.0511L16.3207 11.0806L13.8349 12.8947L14.3742 14.6353L13.7172 14.2431L12.9376 11.8013H12.9425ZM12.0109 16.5819L12.3835 16.5868L12.3982 14.6893L12.055 14.6697L12.0158 16.5819H12.0109ZM13.0406 12.8163L13.222 13.336L12.7268 13.7135L14.5703 15.0129L14.8057 15.7974L12.2953 14.0224L10.8194 15.0864L10.9812 14.3411L13.0455 12.8212L13.0406 12.8163ZM8.20117 13.4243L8.31394 13.7773L10.1232 13.2036L10.0349 12.8702L8.20117 13.4243ZM12.1041 13.2379L11.6628 13.5714L11.1529 13.2085L10.4909 15.3659L9.8143 15.8317L10.7312 12.8898L9.26025 11.8209L10.0202 11.7425L12.1041 13.2379Z" fill="#FFC621"/>
</g>
</g>
<defs>
<clipPath id="clip0_208_20081">
<rect width="24" height="24" rx="12" fill="white"/>
</clipPath>
</defs>
</svg>
