<svg width="24" height="24" viewBox="0 0 24 24" fill="none" xmlns="http://www.w3.org/2000/svg">
<g clip-path="url(#clip0_208_27664)">
<path d="M0 12H24V24H0V12Z" fill="#00AB39"/>
<path d="M0 0H24V12H0V0Z" fill="white"/>
<path d="M15.9139 5.30615C14.3461 6.14935 12.8641 7.14309 11.4889 8.27334C10.8186 8.86397 11.0061 9.33272 10.9826 9.85772C11.0014 10.214 10.9029 10.5421 10.6873 10.739L9.1873 11.0437L9.04668 10.6312C9.09355 10.4202 9.26699 10.3124 9.63731 10.4437C9.66543 10.1765 9.44981 10.0687 9.19199 9.97021C9.09824 9.8999 8.99512 9.84834 9.00449 9.61397C8.96231 9.07959 9.82012 9.65146 9.82481 9.65146C9.83418 9.65146 9.79668 9.1124 9.40293 9.00459C9.19199 8.92959 9.10293 8.70459 9.18262 8.53584C9.35137 8.19365 9.6748 8.56397 9.92324 8.57803C9.91387 8.35303 9.84824 8.19365 9.65605 8.01553C9.55293 7.9499 9.2998 7.90303 9.29512 7.79522C9.29043 7.65459 9.52949 7.58897 9.86699 7.63115C9.79668 7.4249 9.57168 7.29365 9.26231 7.1999L9.07949 6.88115C8.99512 6.72178 8.95293 6.71709 9.15449 6.4124L9.75449 6.01397L9.55762 5.99053C9.58105 5.7749 9.58574 5.6999 9.63731 5.33897C9.44043 5.60147 9.20137 5.55459 8.98106 5.66709C8.98106 5.66709 8.3623 5.7749 8.16543 6.04209L6.60449 5.95771C6.27637 6.00459 5.99512 6.09834 5.93418 6.42178C5.18418 6.49678 4.3873 6.43115 3.81074 7.15303C4.20449 7.13428 4.54668 7.04053 4.9873 7.09678C4.9873 7.09678 5.3623 7.10615 5.44199 7.50459C5.45137 7.51865 5.56855 7.51865 5.56855 7.51865L5.70918 7.63115L5.77012 7.47646L5.89668 7.57021L5.93418 7.40146L6.06074 7.48584L6.07012 7.28896L6.23887 7.40615V7.14365C6.23887 7.14365 6.85293 7.14365 7.04043 7.5374C7.0498 7.54209 5.31543 7.85615 3.6373 7.71084L4.12012 7.47178C3.51074 7.34521 2.93418 7.2374 2.39512 6.81084C2.60137 7.57959 3.65137 8.47959 3.86699 8.4749L3.66074 8.0999L5.48418 8.17959C5.5498 8.38115 5.52168 8.60615 5.68105 8.78428C5.68105 8.78428 5.58262 9.11709 5.80293 9.25303C5.8123 9.27178 6.07012 8.57803 6.07012 8.57803C6.07012 8.57803 6.1498 8.76553 6.22949 8.8874C6.34668 8.29209 6.99355 8.19365 6.99355 8.19365L7.13418 8.5124C6.92793 8.54522 6.6748 8.95771 6.81074 9.18271C6.6748 9.18271 6.43574 9.58584 6.51074 9.80147C6.39355 9.91397 6.1123 10.0687 6.18262 10.5421C5.95762 10.589 5.82637 11.0015 5.89668 11.4327C5.5498 11.7562 5.63418 12.3468 5.94355 12.5858C5.81699 12.703 5.7373 12.7874 5.7373 12.928C5.61543 12.8812 5.50293 12.9233 5.45137 13.003C5.30137 12.8483 5.08574 12.7124 4.93574 12.8577C4.89355 12.6749 4.65449 12.478 4.40137 12.5015C4.41543 12.3093 4.31699 12.0749 4.04043 11.9905C4.04043 11.9905 3.98887 11.0952 3.7123 10.8046C3.68887 10.6405 3.73105 10.5327 3.95605 10.4015C4.17637 10.2796 4.22793 10.1858 4.20918 9.84834C4.29824 9.62334 4.36387 9.39365 4.09199 9.23897C4.09668 9.50615 4.01699 9.6374 3.90449 9.75459C3.77793 9.73584 3.73105 9.88584 3.64668 9.95615C3.52012 9.7874 3.90449 9.53428 3.61855 9.16396C3.60449 9.1499 3.42168 8.68584 2.97637 8.69521C3.07124 8.75102 3.14923 8.83147 3.20205 8.92803C3.25487 9.0246 3.28055 9.13367 3.27637 9.24365C3.11155 9.60951 3.08654 10.0231 3.20605 10.4062C3.01855 10.1249 2.91543 9.5999 2.76074 9.50615C2.6248 9.48272 2.55918 9.16396 2.03887 9.25303C2.26387 9.31396 2.33418 9.4874 2.39512 9.64209C2.25449 9.71709 2.3248 9.90459 2.42793 10.0312C2.40918 10.3405 2.59199 10.5187 2.86387 10.6312L2.72793 11.878C2.62012 11.864 2.45137 12.2905 2.38574 12.2999C2.28262 12.3655 2.09512 12.5437 2.30605 12.5952C2.24512 12.8249 2.18418 12.9608 1.84668 13.0077C1.84668 13.0077 2.20762 13.2233 2.50293 12.8577C2.82168 12.8483 2.71855 12.4687 2.87324 12.2999C2.87324 12.2952 2.95762 12.239 3.08887 11.9015C3.14512 12.2015 3.4498 13.1202 4.14355 13.5749C4.75293 14.2218 5.2498 14.8358 5.24512 15.6983C5.47949 15.478 5.62012 15.1312 5.72793 14.7983C6.05605 14.6858 6.5248 14.6437 6.94668 14.6577C6.87637 14.8124 6.79668 14.9577 6.8998 15.0562C6.60449 15.1546 6.54355 15.3655 6.66074 15.5812C6.35137 15.7874 6.33262 15.9233 6.32793 16.2702C5.75605 17.0015 5.40449 16.978 4.8373 16.7858C4.6498 16.678 4.36855 16.5233 4.23262 16.6077C3.98887 16.4437 3.6373 16.4202 3.57637 16.7905C3.76387 16.6358 3.87168 16.6687 4.01699 16.814C3.98887 16.889 3.96543 16.9593 4.07324 17.0015L3.93262 17.1608C3.67012 17.1233 3.31387 17.1233 3.2248 17.503C3.35605 17.3952 3.65605 17.3624 3.8998 17.4749L4.03574 17.5218L4.0498 17.7046C4.0498 17.7046 3.69355 17.6483 3.59512 18.2296C3.93262 17.8733 4.17168 17.9671 4.17168 17.9671C4.29824 18.1546 4.77637 18.1265 5.11855 17.8171C5.59668 17.5452 5.7373 17.9343 6.04668 17.6765C6.30449 17.489 6.60918 17.6155 6.82012 17.8405C7.05918 17.9296 7.3123 18.0046 7.51387 17.8405C7.51387 17.8405 7.75293 17.6858 7.99668 17.9343C7.99668 17.653 7.7998 17.503 7.52793 17.4983L7.44824 17.4187C7.19512 17.3624 6.90918 17.3858 6.68418 17.2593C6.77164 16.8597 6.96421 16.4908 7.24199 16.1905C7.60762 15.7968 7.87949 15.6187 8.34824 15.0093C8.32949 15.3515 8.59199 15.7312 8.72793 16.0827C8.72793 16.0827 9.00918 15.6374 9.04668 15.2765C9.05606 15.2765 9.39356 15.0983 9.53887 14.9483C9.84824 15.1358 10.3451 14.7983 10.6686 14.5124C10.8554 14.5856 11.063 14.5856 11.2498 14.5124C11.0623 14.8874 11.3576 15.239 11.8264 15.389C11.8686 15.7218 12.2014 15.7921 12.717 15.7921C12.7357 15.989 13.0451 16.0171 13.0451 16.0171C12.8482 16.1108 12.7498 16.1952 12.7545 16.4015C12.5576 16.4015 12.4076 16.4483 12.3561 16.678C12.0874 16.6646 11.8197 16.7195 11.5779 16.8374C11.2985 16.8037 11.0365 16.6842 10.8279 16.4952C10.7295 16.4108 10.7014 16.289 10.5279 16.2421C10.4154 16.1062 10.2842 16.139 10.242 16.2655C10.1248 16.1718 9.69355 16.1296 9.61855 16.5421C9.82012 16.3921 10.0029 16.3358 10.1342 16.5187C10.0592 16.6452 10.2982 16.7155 10.5045 16.7671C10.6451 16.7765 10.9076 16.9077 10.9873 17.1327C10.8766 17.1631 10.7607 17.1691 10.6474 17.1505C10.5341 17.1319 10.4262 17.0891 10.3311 17.0249C10.2597 16.9652 10.1709 16.9302 10.0779 16.9251C9.98498 16.9201 9.8929 16.9452 9.81543 16.9968C9.6373 16.8843 9.22949 17.0905 9.21543 17.4233C9.38418 17.264 9.54355 17.189 9.69824 17.2921C9.62324 17.3108 9.65137 17.3155 9.66074 17.3624L10.0592 17.5921C9.86231 17.6437 9.67949 17.7233 9.76387 18.0843C9.76387 18.0843 9.92324 17.7702 10.2795 17.8874C10.2889 17.878 10.3264 17.9999 10.4295 17.9202C10.5842 17.7421 10.9451 17.6624 11.2498 17.6343C11.5029 17.6015 11.7514 17.5312 11.967 17.6718C12.1592 17.5733 12.3748 17.503 12.5951 17.6624C12.8576 17.7468 13.0451 18.0468 13.3779 17.9108C13.542 17.7983 13.7436 17.789 13.9498 18.0233C13.9498 17.7327 13.7342 17.6343 13.4248 17.5687L13.2092 17.4421C13.0123 17.4093 12.8107 17.4468 12.6092 17.353C13.083 17.2398 13.5295 17.0331 13.9223 16.7449C14.3152 16.4567 14.6464 16.0929 14.8967 15.6749L15.3889 15.8483C15.5061 15.8577 15.5154 15.8952 15.7545 15.9702C15.7639 15.614 15.6139 15.2483 14.9764 15.2155L14.1373 14.8968C13.9639 14.7093 13.8795 14.3108 14.1092 14.0765C14.3295 13.8796 14.367 13.903 14.5123 13.664C14.6904 13.6452 14.8592 13.828 15.0232 13.828C15.1029 14.0624 15.5482 14.264 15.8342 14.1937C16.0123 14.353 16.3498 14.4421 16.7248 14.3155C16.9357 14.503 17.2123 14.578 17.5357 14.4327C17.6248 14.5171 17.8029 14.5874 18.0139 14.5452C18.0326 14.5452 18.1217 14.7749 18.3514 14.8546C18.2482 14.9483 18.3092 15.3702 18.4123 15.5249C18.342 15.6843 18.3186 15.853 18.3795 16.0265C18.1498 16.1718 18.1029 16.2843 18.2061 16.5327C17.9061 17.0202 17.5451 17.0718 17.2029 16.9218L16.8373 16.6921L16.4482 16.3124C16.3826 16.2468 16.2467 16.228 16.2139 16.3687C16.2139 16.3687 15.717 16.2562 15.6748 16.678C15.8811 16.4765 16.1764 16.6546 16.1764 16.6593C16.1764 16.6687 16.1061 16.7155 16.1623 16.7999C16.1717 16.7858 16.5279 16.9312 16.842 17.0624C16.7041 17.0005 16.5567 16.9625 16.4061 16.9499C16.2279 16.9312 16.0404 16.9077 15.9561 17.0437C15.7639 17.1233 15.4639 17.189 15.4779 17.5452C15.6045 17.3343 15.7826 17.3437 16.0076 17.3577C16.0076 17.3765 15.9982 17.3952 15.9936 17.4093C16.2373 17.5218 16.1951 17.3765 16.4201 17.3577C16.6123 17.339 16.8889 17.4093 17.0295 17.4562C16.8467 17.5077 16.6029 17.489 16.4857 17.6155C16.467 17.6624 16.392 17.639 16.4248 17.7421C16.4248 17.7421 16.0732 17.7327 15.9795 18.2202C16.3357 17.9905 16.6076 17.9999 16.6123 17.9999L16.7248 18.0233C16.7248 18.0233 17.1561 17.7327 17.1654 17.7327C17.1701 17.7327 17.5779 17.5546 17.7701 17.7608C17.9295 17.8405 18.1076 17.8452 18.2764 17.7421C18.6139 17.6015 18.9232 17.5874 19.2326 17.789L19.5139 17.9577L19.6311 17.878C19.6311 17.878 19.9451 17.789 20.1748 18.0655C20.0811 17.5827 19.7342 17.5687 19.7342 17.5687L19.6545 17.4983L19.1623 17.3062C19.0873 17.128 18.9092 16.9874 19.0873 16.7718C19.2748 15.8577 19.4904 15.178 19.1342 14.2499C19.467 14.3905 19.7154 14.8358 20.1326 14.6812C20.1326 14.3062 18.7639 13.603 17.7186 13.0405C19.4295 12.9468 21.4873 11.6858 20.6951 10.0827L21.0701 8.92022C21.2545 9.26298 21.558 9.52642 21.9232 9.66084C21.6607 9.15459 21.5061 7.61709 21.6607 6.55771C20.9607 7.39722 20.2059 8.18957 19.4014 8.92959C19.7951 9.02334 20.1467 8.95772 20.5264 8.91084L20.2076 9.58115C19.1529 8.9624 17.9201 9.42647 17.9107 10.2468C17.9482 11.2077 19.1295 11.3437 19.8139 11.0108C19.6779 11.8827 17.6717 11.5593 17.6717 11.5593C16.9592 11.3155 16.2795 11.3577 15.5342 11.3624C15.6889 10.8843 16.5514 10.4577 17.2123 10.6452C16.2889 9.61397 17.3436 8.32959 18.6092 7.93115C17.2264 7.47646 18.4217 6.42178 19.4529 5.66709C19.4529 5.66709 16.4764 6.91865 16.2045 6.91396C15.3607 6.85303 15.5904 5.8499 15.9092 5.31084L15.9139 5.30615ZM6.5623 6.51553C6.63262 6.51553 6.71231 6.5249 6.77793 6.53896C6.91387 6.57178 7.07793 6.59053 7.07324 6.63271C7.0123 6.73584 6.85762 6.8624 6.70762 6.85303C6.55762 6.84834 6.47324 6.75928 6.42168 6.52959C6.43574 6.52022 6.49199 6.51553 6.5623 6.51553ZM19.1014 10.0499C19.2936 10.0499 19.5279 10.1296 19.7576 10.3733C19.6451 10.6874 18.6936 10.8515 18.6326 10.3827C18.6139 10.2421 18.8154 10.0546 19.1014 10.0546V10.0499Z" fill="#D21034" stroke="black" stroke-width="0.15"/>
<path d="M7.54688 9.27642L7.6875 9.48735M7.6875 9.49204C7.6875 9.49204 7.6875 9.77329 7.74375 9.78267M7.6125 9.93267L7.7625 10.1811M7.35 10.2467L7.5375 10.453M7.6875 10.2936C7.6875 10.303 7.85625 10.617 7.87031 10.617M7.46719 10.5092C7.46719 10.5092 7.52812 10.8936 7.57969 10.8795M7.21875 11.2077L7.3875 11.4655M7.53281 10.9405C7.53281 10.9405 7.62656 11.3014 7.69687 11.2686M7.77188 10.7202C7.77656 10.7295 7.94062 10.9639 7.9875 10.9311M7.95 11.0249L8.10469 11.3389M7.68281 11.2686C7.69219 11.278 7.81406 11.6436 7.81406 11.6436M7.38281 11.4561C7.38281 11.4561 7.5 11.8592 7.60781 11.7936M7.33594 11.9905C7.33594 11.9905 7.34531 12.2014 7.44844 12.2108M7.51875 11.8827C7.51875 11.892 7.62656 12.0374 7.62656 12.0374M7.81875 11.6342L7.90781 11.7749M8.09531 11.3811L8.23125 11.5452M7.49063 9.49673C7.49531 9.67485 7.77656 9.4311 7.88906 9.2811M7.37344 10.1108C7.37344 10.1108 7.67812 9.89517 7.91719 9.56704M7.26562 10.6311C7.48125 10.5702 7.87969 10.0874 7.95938 9.83423M7.22344 11.1092C7.28438 11.1374 8.02969 10.5983 8.04844 10.2045M7.20469 11.5217C7.20469 11.517 7.88438 11.3483 8.17031 10.5983M7.16719 12.0936C7.16719 12.0936 8.25469 11.442 8.31562 10.9639M15.6562 13.1858C15.6562 13.1858 15.5859 13.7483 15.0234 13.8327M15.8344 14.1889C15.8437 14.1842 16.3734 13.5983 16.2375 13.4202M17.0719 13.6264C17.0719 13.6264 17.0625 14.0342 16.7297 14.3155M17.7328 13.7436C17.7328 13.7436 17.7469 14.2358 17.5359 14.4327M18.3422 14.0389C18.3422 14.0389 18.1078 14.4983 18.0234 14.5452M18.3328 14.8545C18.3328 14.8545 18.6422 14.9342 18.7406 14.728M18.4125 15.5249C18.4125 15.5249 18.7031 15.5764 18.8344 15.2999M18.3844 16.0405C18.3844 16.0405 18.6188 16.2374 18.7734 15.9795M15.0563 12.2483C15.0563 12.2483 15.0281 13.2467 16.4344 13.4483C18.0047 13.8842 18.7453 13.6545 18.8391 15.4124C18.7781 16.0827 18.6984 16.8374 18.2109 16.5514M13.5656 13.167C13.5656 13.167 13.7859 13.5655 14.0578 13.542C14.4094 13.4342 14.5406 13.6545 14.5406 13.6545M12.6047 13.5655C12.6047 13.5655 13.1953 13.8561 13.7016 13.3874M12.6703 13.153C12.7219 13.842 11.8734 14.2358 11.5406 14.1702M12.7125 15.7967C12.7172 15.7967 13.1719 15.5249 13.0781 15.3327M11.8125 15.3936C11.8219 15.3795 12.5719 15.3092 12.7078 15.0374M11.4609 14.2874C11.4609 14.2827 12.525 14.292 12.5953 14.4889M12.8766 13.6592C12.8766 13.6592 11.8359 15.4311 13.7531 15.4311M11.775 13.6311C11.775 13.6311 11.5547 14.2967 11.2359 14.5217M10.6734 13.4014C10.6734 13.4014 11.0578 14.1514 10.6734 14.517M9.67031 13.6124C9.675 13.6264 9.79219 14.6717 9.52969 14.967M9.16875 13.6452C9.16875 13.6452 9.21094 14.3108 9.01406 14.5452C8.81719 14.7795 9.06094 15.2717 9.06094 15.2717M6.66562 15.5905C6.66562 15.5905 6.80625 15.8389 7.00312 15.7545M6.90469 15.0514C6.90469 15.0514 7.21875 15.192 7.32656 15.1358M7.24688 13.9358C7.24688 13.9358 6.77812 14.067 6.95625 14.6155C7.22344 14.8358 7.49063 14.803 7.49063 14.803M6.32812 16.2795C6.31875 16.2795 6.375 16.7108 6.67969 16.3827C6.89062 15.942 7.55625 14.7045 7.70625 14.2733M8.01562 14.0717C8.01562 14.0717 7.69219 13.8233 7.70625 14.1702C7.69687 14.3858 7.8 14.442 7.8 14.442C7.81875 14.5967 7.95469 14.817 8.06719 14.6155C8.11406 14.4233 8.03437 14.3342 8.03437 14.3342M8.22187 13.9827C7.92656 13.9592 7.77187 14.5967 8.32969 14.1983M8.51719 13.7624C8.51719 13.7624 8.44688 13.8608 8.33438 13.7577C8.27813 13.6545 8.06719 14.2264 8.43281 14.2499C8.49844 14.0811 8.70469 14.0342 8.70469 14.0342M8.87344 13.4905C8.87344 13.4905 8.70938 13.5655 8.65313 13.5561C8.45625 13.603 8.49375 14.0577 8.74688 14.0342C8.82656 13.9358 8.92031 13.7999 8.92031 13.7999M7.32656 12.8858C7.31719 12.8858 6.67031 13.903 7.6875 14.1702M15.5156 11.3577C15.5156 11.3577 15.1219 11.6952 15.4875 12.2342C14.2687 12.2155 13.6125 12.778 13.5563 13.1577C12 13.0499 12.2812 13.5092 11.775 13.6592C11.1 13.0967 10.1063 13.4108 10.1719 13.9733C9.72187 13.3358 9.02344 13.6452 8.93906 13.8045C8.85469 13.9592 8.8875 13.0217 8.8875 13.0217C8.8875 13.0217 8.43281 13.2233 8.11875 13.5983V12.8108C7.74375 12.8858 7.37344 12.8905 6.98438 12.8858M5.95781 12.5952C5.95781 12.5952 6.52031 12.9092 7.22344 12.4827M5.91094 11.4561C5.91094 11.4561 6.35156 11.8545 7.17656 11.728M6.1875 10.5467C6.1875 10.5467 6.28594 10.8702 7.23281 10.8889M6.50625 9.80142C6.50625 9.80142 6.8625 10.2374 7.34531 10.1764M6.81094 9.17798C6.81094 9.17798 6.95156 9.41704 7.47656 9.45923M7.12031 8.48892C7.12031 8.48892 7.39688 8.7936 7.71094 8.74204M8.76094 6.03735C8.76094 6.03735 8.88281 5.91548 9.08906 5.97642M8.67188 6.67954C8.67188 6.67954 8.29688 6.66548 8.32031 6.51548C8.34844 6.34673 8.71875 6.22485 8.71875 6.22485C8.71875 6.22485 9.21562 5.9061 9.29062 5.79829M7.05 7.53267L7.53281 8.4561L7.76719 8.10923L7.88437 8.34829L8.08125 8.00142L8.42344 8.22173L8.29219 7.79985L8.57812 7.7811C8.57812 7.7811 8.50312 7.57485 8.24531 7.53267C8.34509 7.46132 8.44669 7.39255 8.55 7.32642C8.55 7.32642 8.41406 7.16704 8.20312 7.16235C8.27344 7.08735 8.36719 6.90454 8.3625 6.90454L8.15156 6.85767C8.15156 6.85767 8.63438 7.01235 9.00469 6.79673M8.08125 6.04673C8.09062 6.0561 8.05781 6.23892 7.95469 6.34673M6.22031 6.55767C6.22031 6.55767 6.52031 6.47798 6.74531 6.52017C6.96562 6.56704 7.26094 6.64673 7.26094 6.64673C7.26094 6.64673 7.61719 6.59985 7.72969 6.51548M5.48438 6.75454C5.48438 6.75454 5.44219 6.89517 5.42813 6.98892C5.42813 7.05923 5.2125 7.14829 5.2125 7.14829M5.625 6.4686C5.625 6.4686 5.8125 6.70298 5.82187 6.8436C5.82656 6.97954 5.68125 7.07798 5.68125 7.07798M3.66562 8.09048L3.46875 7.77173L3.64219 7.71079M7.21875 12.492C7.05937 12.2858 7.33594 9.16392 7.92188 8.3436C7.71562 9.81548 8.39062 11.3202 8.56406 11.3155M5.44219 7.47173C5.44219 7.47173 5.70469 7.57485 6.25781 7.13892M7.00781 8.1936L7.40156 8.19829M19.2797 5.74204C19.2797 5.74204 12.6844 8.82642 12.5906 8.98579C13.7016 8.65298 18.4219 7.86079 18.5391 7.9311C18.2578 8.00142 12.5297 9.31392 12.2625 9.63267C13.6922 9.58579 16.6875 10.092 17.1562 10.5795C16.1391 10.3499 13.0969 9.89985 12.1688 10.1014C12.8484 10.2655 15.4594 11.953 15.4594 12.2249C15.0656 11.8499 11.925 10.5514 11.8031 10.678C12.5203 11.1092 13.5375 12.7124 13.5375 13.1061C13.3266 12.7686 11.5125 10.8186 11.4094 10.9499C11.5969 11.2124 11.9812 13.5139 11.7844 13.6217C11.7844 13.3405 11.0812 11.3295 11.025 11.2733C10.8844 11.3108 9.98438 13.7295 10.1625 13.9545C10.0453 13.1483 10.1813 11.4655 10.3969 11.5311C10.0078 11.5874 8.75156 13.242 8.8875 13.4999C8.925 13.092 8.98125 12.8155 9.68906 11.4467C8.90156 11.4936 7.27031 12.5202 6.99375 12.8858C7.21406 12.2295 8.59687 11.128 9.19687 11.053M12.0469 8.64829C12.7453 8.26392 14.8969 7.47642 16.3359 6.89517M10.6875 10.7295C10.6875 10.7295 11.1562 10.7249 11.6344 9.43579C12.1031 7.6686 15.8156 5.70454 15.8906 5.33423M4.40625 12.5061C4.40625 12.5061 4.29375 12.7405 4.15781 12.8061M4.93594 12.8624C4.93594 12.8624 4.78594 13.1436 4.75313 13.2842M5.44219 13.003C5.44219 13.003 5.56875 13.392 5.46562 13.5749M4.03125 11.9858C3.65625 12.1967 4.24219 13.528 6.01406 13.6545M5.73281 12.9374C5.73281 12.9374 5.68125 13.1717 6.01406 13.6499C5.92031 14.1795 6.41719 14.592 6.61406 14.6624M5.58281 8.16548L5.63906 8.02485L5.7 8.17954H5.79375L5.85938 8.02017L5.91562 8.17954H6.00937L6.07031 8.00142L6.16406 8.17017H6.23906L6.3 7.9686L6.42188 8.11392L6.46875 8.09517L6.50625 7.8936L6.62812 8.03423L6.66562 8.01548L6.72187 7.8186L6.825 7.96392L6.87188 7.94985L6.91875 7.7811L7.01719 7.93579M5.475 8.18423L6.21563 8.17017C6.45 8.17017 6.83906 7.84204 7.275 7.94517M3.91406 9.7686C3.91406 9.7686 4.03594 10.0311 4.20938 9.8811M3.63281 9.94204C3.63281 9.94204 3.39375 10.5842 3.67969 10.7295M3.29062 9.23892C3.29062 9.23892 3.29063 9.38892 3.60469 9.15454M2.32031 12.5905C2.32031 12.5905 2.57344 12.6655 2.53125 12.8577M2.41406 9.6561C2.41406 9.6561 2.57344 9.73579 2.72344 9.50142M4.07344 17.0014C4.31719 16.9874 4.36875 17.0952 4.58906 17.0952C4.84688 17.1045 5.09531 17.0014 5.42344 16.9124M7.51875 17.503C7.51406 17.503 7.40156 17.7374 7.5 17.8499M4.03594 17.5217C4.03594 17.5217 4.425 17.2077 4.62656 17.4045C4.82344 17.4702 4.93125 17.4561 4.93125 17.4561M4.24219 16.6124C4.24219 16.6124 4.33594 16.8608 4.01719 16.828M3.92344 17.1795C3.92344 17.1795 4.125 17.3061 3.89531 17.4749M4.04531 17.7092C4.04531 17.7092 4.32656 17.7467 4.1625 17.9717M12.7641 16.392C13.0453 16.6217 12.9281 16.7577 13.8141 16.1577M12.3609 16.6733C12.3609 16.6733 12.7781 17.1233 13.0781 16.5795M11.5641 16.8374L11.0016 17.1327M9.98438 17.5499C9.98438 17.5499 10.3266 17.2545 10.4859 17.4092C10.65 17.5686 11.3297 17.278 11.3297 17.278M10.2422 16.2655C10.2422 16.2655 10.3594 16.4999 10.1297 16.528M9.79219 16.9967C9.79219 16.9967 9.91406 17.217 9.67969 17.278M10.0547 17.5967C10.0547 17.5967 10.4156 17.6155 10.2891 17.8827M13.3875 17.5499C13.3875 17.5499 13.1906 17.7139 13.3406 17.9014M16.2234 16.3639C16.2234 16.3639 16.4484 16.4717 16.1766 16.6592M15.9562 17.0483C15.9562 17.0483 16.125 17.2264 16.0125 17.3764M16.4297 17.7327C16.4297 17.7327 16.6641 17.7983 16.6359 17.9905M19.7109 17.5592C19.7109 17.5592 19.5141 17.6999 19.6172 17.8874M16.2375 11.8592C16.7062 11.803 17.3766 12.8436 17.7188 13.0499M19.7719 10.3827C19.7719 10.3827 20.0062 10.5889 19.8 11.0905M20.2125 9.58579C20.2781 9.63735 20.5359 9.77329 20.7047 10.0874M20.8641 8.02485L20.5359 8.91548M21.2344 7.97798C21.2344 7.97798 21.1688 8.77485 21.075 8.93423M13.0312 16.017C13.0312 16.017 13.7859 16.0967 13.8234 16.153C13.9078 16.0592 14.5828 15.5155 13.7531 15.4358C13.7146 15.5992 13.6227 15.745 13.4919 15.8503C13.3612 15.9555 13.1991 16.0142 13.0312 16.017ZM19.7625 10.3733C19.6547 10.692 18.6984 10.8514 18.6375 10.3827C18.6047 10.1483 19.2 9.77329 19.7625 10.3733Z" stroke="black" stroke-width="0.15" stroke-linejoin="round"/>
<path d="M6.55273 6.51562L6.92305 6.58125C6.92305 6.58125 6.66523 6.92813 6.55273 6.51562Z" fill="black" stroke="black" stroke-width="0.15" stroke-linejoin="round"/>
</g>
<defs>
<clipPath id="clip0_208_27664">
<rect width="24" height="24" rx="12" fill="white"/>
</clipPath>
</defs>
</svg>
