<svg width="24" height="24" viewBox="0 0 24 24" fill="none" xmlns="http://www.w3.org/2000/svg">
<g clip-path="url(#clip0_208_11935)">
<path d="M0 0H24V24H0V0Z" fill="white"/>
<path d="M11.3911 19.9313C11.3858 19.9291 11.381 19.9259 11.377 19.9219V19.9172L11.3114 19.8516C11.2457 19.7776 11.1832 19.701 11.1239 19.6219L10.8754 19.3125L10.8426 19.2703L10.5332 19.1766L10.3082 19.0687L10.4254 18.9328L10.8473 19.1109L11.1567 19.1766L11.7286 19.5984C11.6185 19.6943 11.5122 19.7944 11.4098 19.8984C11.4061 19.9044 11.4029 19.9106 11.4004 19.9172L11.4379 19.8937L11.4754 19.9266L11.3957 19.9313H11.3911ZM9.25825 19.2891C8.98637 19.2891 8.71919 19.2141 8.46137 19.0641C8.20356 18.9141 8.49887 19.0031 8.57856 18.9422C8.65356 18.8859 8.79419 18.8156 9.02387 18.8156C9.29575 18.8156 9.62387 18.9094 10.0036 19.0875C9.9895 19.0969 9.6895 19.2891 9.25825 19.2891ZM8.08637 19.0312C8.03481 19.0312 7.99262 19.0078 7.95512 18.975C7.92667 18.9414 7.90731 18.901 7.89887 18.8578C7.88649 18.8041 7.88175 18.7488 7.88481 18.6937C7.90523 18.6832 7.92754 18.6768 7.95044 18.675C8.05356 18.675 8.13325 18.7688 8.16606 18.8531C8.18481 18.9 8.1895 18.9422 8.18012 18.975C8.17075 19.0078 8.12856 19.0266 8.08637 19.0266V19.0312ZM10.1489 18.7875C9.45512 18.6937 9.1645 18.4406 9.03794 18.2438C8.95814 18.1269 8.92015 17.9865 8.93012 17.8453C8.93012 17.8453 8.977 17.8359 9.03794 17.8359C9.22544 17.8359 9.69419 17.9297 10.1489 18.7875ZM8.72856 18.6516C8.43325 18.6516 8.20356 18.6047 8.05825 18.5016C7.99353 18.4604 7.94158 18.4019 7.90825 18.3328C7.8964 18.3076 7.8885 18.2807 7.88481 18.2531C7.99796 18.2076 8.11911 18.1853 8.24106 18.1875C8.47544 18.1875 8.82231 18.2625 9.18794 18.6188C9.0355 18.6379 8.88216 18.6488 8.72856 18.6516ZM7.29419 18.5953C6.98012 18.5953 6.54887 18.5016 6.28169 18.2344C6.50449 18.1815 6.73241 18.1532 6.96137 18.15C7.25669 18.15 7.477 18.2062 7.627 18.3187C7.68325 18.3562 7.71137 18.3938 7.71606 18.4313C7.72075 18.4594 7.70669 18.4922 7.67387 18.5156C7.60825 18.5625 7.48637 18.5953 7.31762 18.5953H7.29419ZM6.277 18.0797C6.25893 18.079 6.24121 18.0745 6.22504 18.0664C6.20887 18.0583 6.19462 18.0469 6.18325 18.0328C6.15943 18.0028 6.14333 17.9674 6.13637 17.9297C6.11762 17.8547 6.12231 17.7844 6.12231 17.7844C6.13642 17.7756 6.15259 17.7708 6.16919 17.7703C6.21606 17.7703 6.25356 17.7938 6.277 17.8172C6.30617 17.8463 6.32857 17.8815 6.34262 17.9203C6.35669 17.9672 6.36137 18 6.352 18.0281C6.34262 18.0516 6.3145 18.075 6.277 18.075V18.0797ZM8.62075 18.0234C8.56919 18.0234 8.527 18.0047 8.49419 17.9719C8.46573 17.9383 8.44637 17.8979 8.43794 17.8547C8.4251 17.7994 8.42037 17.7426 8.42387 17.6859C8.44317 17.6776 8.46381 17.6728 8.48481 17.6719C8.58794 17.6719 8.67231 17.7609 8.70044 17.8453C8.71919 17.8922 8.72387 17.9391 8.7145 17.9672C8.70044 18 8.66294 18.0234 8.62075 18.0234ZM7.477 17.9766C6.84887 17.9531 6.52075 17.775 6.36137 17.6297C6.28998 17.568 6.2311 17.4932 6.18794 17.4094C6.17371 17.3794 6.16271 17.3479 6.15512 17.3156C6.15512 17.3156 6.21137 17.2922 6.30981 17.2922H6.32387C6.53481 17.2922 6.97075 17.3812 7.477 17.9766ZM8.16137 17.9109C7.80235 17.8724 7.46856 17.708 7.21919 17.4469C7.12509 17.3475 7.05319 17.2293 7.00825 17.1C7.00825 17.1 7.07387 17.0859 7.16762 17.0812C7.18168 17.0809 7.19575 17.0809 7.20981 17.0812C7.46294 17.0859 7.927 17.2031 8.16137 17.9109ZM5.5645 17.6672C5.39575 17.6672 5.23637 17.6531 5.08637 17.6109C4.81919 17.5453 4.70669 17.4469 4.65512 17.3719C4.63523 17.3407 4.62243 17.3055 4.61762 17.2687C4.61586 17.2547 4.61586 17.2406 4.61762 17.2266C4.61762 17.2266 4.79106 17.1797 5.03481 17.175C5.15906 17.1728 5.2832 17.1838 5.40512 17.2078C5.66062 17.2608 5.88854 17.4039 6.04731 17.6109C6.04731 17.6109 5.84575 17.6672 5.5645 17.6672ZM6.73637 17.2453C6.6895 17.2453 6.64262 17.2219 6.60981 17.1891C6.58136 17.1554 6.56199 17.1151 6.55356 17.0719C6.54105 17.0181 6.53631 16.9629 6.5395 16.9078C6.55879 16.8995 6.57944 16.8947 6.60044 16.8937H6.60512C6.70825 16.8937 6.78794 16.9781 6.82075 17.0672C6.8395 17.1141 6.84419 17.1516 6.83012 17.1891C6.81606 17.2219 6.78325 17.2406 6.73637 17.2406V17.2453ZM5.85512 17.1188C5.85044 17.1188 5.61606 17.0625 5.377 16.9125C5.152 16.7719 4.88481 16.5375 4.84731 16.1625C4.80981 15.7875 4.87075 16.1531 4.90356 16.1531H4.91294C4.97856 16.1531 5.1145 16.1719 5.27856 16.2938C5.4895 16.4531 5.68169 16.7344 5.85512 17.1234V17.1188ZM6.43169 17.1C6.43169 17.1 6.26294 17.0344 6.05669 16.8563C5.7596 16.6044 5.52799 16.2844 5.38169 15.9234C5.38169 15.9234 5.42856 15.9 5.49887 15.8953C5.50356 15.8951 5.50825 15.8951 5.51294 15.8953H5.53169C5.62544 15.8953 5.77075 15.9375 5.93481 16.1156C6.16949 16.4041 6.33899 16.7399 6.43169 17.1ZM4.93169 17.0531C4.74419 17.0531 4.67856 16.95 4.65512 16.9078C4.63675 16.8601 4.63032 16.8086 4.63637 16.7578C4.667 16.7496 4.69845 16.7449 4.73012 16.7438H4.7395C4.8895 16.7438 5.01137 16.8234 5.06294 16.8984C5.07231 16.9125 5.10512 16.9687 5.077 17.0062C5.05825 17.0391 5.01137 17.0531 4.93637 17.0531H4.93169ZM4.50981 16.5187C4.402 16.5187 4.23794 16.5094 4.0645 16.4813C3.89106 16.4484 3.79262 16.3031 3.74106 16.1859C3.7065 16.1067 3.68285 16.0231 3.67075 15.9375C4.20044 15.9516 4.45356 16.1062 4.57075 16.2328C4.64345 16.3096 4.68806 16.4087 4.69731 16.5141H4.50981V16.5187ZM5.06294 15.9656C5.0196 15.9114 4.97892 15.8551 4.94106 15.7969C4.87544 15.6984 4.81919 15.5953 4.81919 15.5156C4.81487 15.3996 4.80548 15.2839 4.79106 15.1688L4.75825 14.9344C4.77231 14.9438 5.09106 15.0609 5.09106 15.3609C5.09106 15.6609 5.06294 15.9609 5.06294 15.9656ZM4.65044 15.9375H4.63637C4.54262 15.9188 4.37856 15.8437 4.19575 15.7406C4.02225 15.6484 3.86411 15.5298 3.727 15.3891C3.64262 15.2906 3.58637 15.1312 3.577 14.9203C3.56939 14.8267 3.56939 14.7327 3.577 14.6391C3.59477 14.6311 3.61381 14.6263 3.63325 14.625C3.70356 14.625 3.77387 14.6578 3.877 14.7281C3.97068 14.7939 4.05851 14.8676 4.1395 14.9484C4.24049 15.0495 4.33594 15.1559 4.42544 15.2672C4.52507 15.453 4.61123 15.6456 4.68325 15.8438V15.9141C4.67949 15.9224 4.67282 15.9291 4.6645 15.9328C4.65831 15.9341 4.65194 15.9341 4.64575 15.9328L4.65044 15.9375Z" fill="#435125"/>
<path d="M10.2984 19.9313C10.3037 19.9291 10.3084 19.9259 10.3125 19.9219V19.9172L10.3781 19.8516C10.4437 19.7776 10.5063 19.701 10.5656 19.6219L10.814 19.3125L10.8468 19.2703L11.1562 19.1766L11.3812 19.0687L11.264 18.9328L10.8421 19.1109L10.5328 19.1766L9.96089 19.5984C10.0709 19.6943 10.1773 19.7944 10.2796 19.8984C10.2834 19.9044 10.2865 19.9106 10.289 19.9172L10.2515 19.8937L10.214 19.9266L10.2937 19.9313H10.2984ZM12.4312 19.2891C12.7031 19.2891 12.9703 19.2141 13.2281 19.0641C13.4859 18.9141 13.1906 19.0031 13.1109 18.9422C13.0359 18.8859 12.8953 18.8156 12.6656 18.8156C12.3937 18.8156 12.0656 18.9094 11.6859 19.0875C11.7 19.0969 12 19.2891 12.4312 19.2891ZM13.6031 19.0312C13.6546 19.0312 13.6968 19.0078 13.7343 18.975C13.7628 18.9414 13.7821 18.901 13.7906 18.8578C13.803 18.8041 13.8077 18.7488 13.8046 18.6937C13.7842 18.6832 13.7619 18.6768 13.739 18.675C13.6359 18.675 13.5562 18.7688 13.5234 18.8531C13.5046 18.9 13.5 18.9422 13.5093 18.975C13.5187 19.0078 13.5609 19.0266 13.6031 19.0266V19.0312ZM11.5406 18.7875C12.2343 18.6937 12.525 18.4406 12.6515 18.2438C12.7313 18.1269 12.7693 17.9865 12.7593 17.8453C12.7593 17.8453 12.7125 17.8359 12.6515 17.8359C12.464 17.8359 11.9953 17.9297 11.5406 18.7875ZM12.9609 18.6516C13.2562 18.6516 13.4859 18.6047 13.6312 18.5016C13.6959 18.4604 13.7479 18.4019 13.7812 18.3328C13.7931 18.3076 13.801 18.2807 13.8046 18.2531C13.6915 18.2076 13.5703 18.1853 13.4484 18.1875C13.214 18.1875 12.8671 18.2625 12.5015 18.6188C12.6539 18.6379 12.8073 18.6488 12.9609 18.6516ZM14.3953 18.5953C14.7093 18.5953 15.1406 18.5016 15.4078 18.2344C15.185 18.1815 14.957 18.1532 14.7281 18.15C14.4328 18.15 14.2125 18.2062 14.0625 18.3187C14.0062 18.3562 13.9781 18.3938 13.9734 18.4313C13.9687 18.4594 13.9828 18.4922 14.0156 18.5156C14.0812 18.5625 14.2031 18.5953 14.3718 18.5953H14.3953ZM15.4125 18.0797C15.4305 18.079 15.4482 18.0745 15.4644 18.0664C15.4806 18.0583 15.4948 18.0469 15.5062 18.0328C15.53 18.0028 15.5461 17.9674 15.5531 17.9297C15.5718 17.8547 15.5671 17.7844 15.5671 17.7844C15.553 17.7756 15.5369 17.7708 15.5203 17.7703C15.4734 17.7703 15.4359 17.7938 15.4125 17.8172C15.3833 17.8463 15.3609 17.8815 15.3468 17.9203C15.3328 17.9672 15.3281 18 15.3375 18.0281C15.3468 18.0516 15.375 18.075 15.4125 18.075V18.0797ZM13.0687 18.0234C13.1203 18.0234 13.1625 18.0047 13.1953 17.9719C13.2237 17.9383 13.2431 17.8979 13.2515 17.8547C13.2644 17.7994 13.2691 17.7426 13.2656 17.6859C13.2463 17.6776 13.2256 17.6728 13.2046 17.6719C13.1015 17.6719 13.0171 17.7609 12.989 17.8453C12.9703 17.8922 12.9656 17.9391 12.975 17.9672C12.989 18 13.0265 18.0234 13.0687 18.0234ZM14.2125 17.9766C14.8406 17.9531 15.1687 17.775 15.3281 17.6297C15.3995 17.568 15.4584 17.4932 15.5015 17.4094C15.5157 17.3794 15.5267 17.3479 15.5343 17.3156C15.5343 17.3156 15.4781 17.2922 15.3796 17.2922H15.3656C15.1546 17.2922 14.7187 17.3812 14.2125 17.9766ZM13.5281 17.9109C13.8871 17.8724 14.2209 17.708 14.4703 17.4469C14.5644 17.3475 14.6363 17.2293 14.6812 17.1C14.6812 17.1 14.6156 17.0859 14.5218 17.0812C14.5078 17.0809 14.4937 17.0809 14.4796 17.0812C14.2265 17.0859 13.7625 17.2031 13.5281 17.9109ZM16.125 17.6672C16.2937 17.6672 16.4531 17.6531 16.6031 17.6109C16.8703 17.5453 16.9828 17.4469 17.0343 17.3719C17.0542 17.3407 17.067 17.3055 17.0718 17.2687C17.0736 17.2547 17.0736 17.2406 17.0718 17.2266C17.0718 17.2266 16.8984 17.1797 16.6546 17.175C16.5304 17.1728 16.4063 17.1838 16.2843 17.2078C16.0288 17.2608 15.8009 17.4039 15.6421 17.6109C15.6421 17.6109 15.8437 17.6672 16.125 17.6672ZM14.9531 17.2453C15 17.2453 15.0468 17.2219 15.0796 17.1891C15.1081 17.1554 15.1275 17.1151 15.1359 17.0719C15.1484 17.0181 15.1531 16.9629 15.15 16.9078C15.1307 16.8995 15.11 16.8947 15.089 16.8937H15.0843C14.9812 16.8937 14.9015 16.9781 14.8687 17.0672C14.85 17.1141 14.8453 17.1516 14.8593 17.1891C14.8734 17.2219 14.9062 17.2406 14.9531 17.2406V17.2453ZM15.8343 17.1188C15.839 17.1188 16.0734 17.0625 16.3125 16.9125C16.5375 16.7719 16.8046 16.5375 16.8421 16.1625C16.8796 15.7875 16.8187 16.1531 16.7859 16.1531H16.7765C16.7109 16.1531 16.575 16.1719 16.4109 16.2938C16.2 16.4531 16.0078 16.7344 15.8343 17.1234V17.1188ZM15.2578 17.1C15.2578 17.1 15.4265 17.0344 15.6328 16.8563C15.9298 16.6044 16.1615 16.2844 16.3078 15.9234C16.3078 15.9234 16.2609 15.9 16.1906 15.8953C16.1859 15.8951 16.1812 15.8951 16.1765 15.8953H16.1578C16.064 15.8953 15.9187 15.9375 15.7546 16.1156C15.52 16.4041 15.3505 16.7399 15.2578 17.1ZM16.7578 17.0531C16.9453 17.0531 17.0109 16.95 17.0343 16.9078C17.0527 16.8601 17.0591 16.8086 17.0531 16.7578C17.0225 16.7496 16.991 16.7449 16.9593 16.7438H16.95C16.8 16.7438 16.6781 16.8234 16.6265 16.8984C16.6171 16.9125 16.5843 16.9687 16.6125 17.0062C16.6312 17.0391 16.6781 17.0531 16.7531 17.0531H16.7578ZM17.1796 16.5187C17.2875 16.5187 17.4515 16.5094 17.625 16.4813C17.7984 16.4484 17.8968 16.3031 17.9484 16.1859C17.983 16.1067 18.0066 16.0231 18.0187 15.9375C17.489 15.9516 17.2359 16.1062 17.1187 16.2328C17.046 16.3096 17.0014 16.4087 16.9921 16.5141H17.1796V16.5187ZM16.6265 15.9656C16.6699 15.9114 16.7105 15.8551 16.7484 15.7969C16.814 15.6984 16.8703 15.5953 16.8703 15.5156C16.8746 15.3996 16.884 15.2839 16.8984 15.1688L16.9312 14.9344C16.9171 14.9438 16.5984 15.0609 16.5984 15.3609C16.5984 15.6609 16.6265 15.9609 16.6265 15.9656ZM17.039 15.9375H17.0531C17.1468 15.9188 17.3109 15.8437 17.4937 15.7406C17.6672 15.6484 17.8253 15.5298 17.9625 15.3891C18.0468 15.2906 18.1031 15.1312 18.1125 14.9203C18.1201 14.8267 18.1201 14.7327 18.1125 14.6391C18.0947 14.6311 18.0756 14.6263 18.0562 14.625C17.9859 14.625 17.9156 14.6578 17.8125 14.7281C17.7188 14.7939 17.6309 14.8676 17.55 14.9484C17.449 15.0495 17.3535 15.1559 17.264 15.2672C17.1644 15.453 17.0782 15.6456 17.0062 15.8438V15.9141C17.01 15.9224 17.0166 15.9291 17.025 15.9328C17.0311 15.9341 17.0375 15.9341 17.0437 15.9328L17.039 15.9375Z" fill="#435125"/>
<path d="M21.9514 3.82036L21.8576 3.85786L21.8201 3.87192L21.7076 3.86255L21.5998 3.91411L21.4123 4.04536L21.4029 4.05005L21.3326 4.0688L21.267 4.04067L21.2295 4.05942L21.2154 4.13442L21.1826 4.19067L21.1357 4.22349L20.9857 4.23755L20.8592 4.30317L20.6904 4.2563L20.6154 4.28911L20.4514 4.43442L20.367 4.47661H20.3389L20.2264 4.46724L20.1795 4.48599L20.1092 4.54692L19.9779 4.5563L19.9357 4.58442L19.8701 4.71567L19.7998 4.79067L19.7623 4.79536L19.7154 4.7813L19.6826 4.78599L19.6686 4.87036L19.6404 4.90786L19.5467 4.93599L19.4811 4.99692L19.4154 5.02505H19.3123L19.2326 5.07192L19.0732 5.08599L19.0123 5.14692L18.9936 5.16099L18.9654 5.17974L18.9186 5.20786L18.9045 5.21724L18.8436 5.20317L18.7732 5.2313L18.7451 5.18442L18.6982 5.21724H18.6326L18.5529 5.18442L18.492 5.1563L18.4451 5.16567L18.4311 5.24067V5.25005L18.3842 5.31099L18.2951 5.36255L18.2857 5.3813L18.1873 5.50786L17.9998 5.70942L17.8357 5.78911L17.6717 5.83599L17.5545 5.92974L17.2498 6.08442L16.7717 6.32349L16.6732 6.3563L16.5326 6.37505L16.2842 6.4688L16.0592 6.53442L16.0451 6.53911L16.0029 6.55317L15.6936 6.64692L15.5482 6.63286L15.4592 6.66567L15.2342 6.63755L15.0795 6.64224L14.9857 6.66099L14.7982 6.75474L14.4842 6.90005L14.3811 6.9938L14.217 7.08286L14.0295 7.13911V7.05942L13.9639 7.07817L13.917 7.09224L13.7623 7.11567H13.6779L13.6264 7.10161H13.617L13.3029 7.20942L12.9561 7.24224L12.7826 7.29849H12.6514L12.567 7.31724L12.4076 7.34067L12.3514 7.32192H12.3373L11.8686 7.34067L11.6529 7.31724L11.5498 7.34067L11.3811 7.27974L11.1279 7.25161L11.0717 7.23286L10.9404 7.19536L10.8795 7.22817L10.8326 7.23286L10.7295 7.19536H10.6873L10.6029 7.22817L10.5514 7.21411L10.5045 7.17661L10.392 7.16255L10.3264 7.10161L9.95137 7.15317L9.84824 7.12505L9.50605 7.02192L9.44981 7.02661L9.38418 7.07349L9.28105 7.11567L9.19199 7.13911H9.07012L8.92949 7.1063L8.78887 7.03599L8.73262 7.02192L8.61543 7.03599H8.57793L8.3623 6.9188L8.08105 6.74536L7.88887 6.65161L7.81387 6.64224L7.80449 6.67505L7.84199 6.78755L7.85605 6.90005L7.85137 6.99849V7.06411L7.86543 7.12036L7.93574 7.19536L7.96387 7.27505L7.9873 7.48599V7.70161L7.9498 8.0438L7.94043 8.09067L7.89824 8.27349L7.86543 8.43286L7.7248 8.8688L7.68262 8.92036L7.58887 8.98599L7.36855 9.13599L7.20918 9.22974L7.1623 9.24849L7.03105 9.25786L6.95137 9.25317L6.84824 9.19692L6.75449 9.17349L6.62324 9.07974L6.47793 9.05161L6.31855 8.95786L6.28105 8.91099L6.19199 8.90161L6.0748 8.86411L6.02793 8.85474L5.9998 8.84536L5.8498 8.84067L5.70918 8.77505L5.63418 8.7563L5.53105 8.75161L5.42324 8.79849L5.37168 8.82661L5.30137 8.79849H5.25449L5.19355 8.88755L5.18887 8.90161L5.15137 8.92036H5.0623L5.0248 8.93442L4.96855 8.95786L4.92168 8.9813L4.89824 8.99067H4.87949L4.85605 9.00005H4.82324L4.76699 8.97192L4.73887 8.95317L4.6873 8.9438L4.65918 8.96255V9.0563L4.63105 9.10786L4.54668 9.18755L4.46699 9.25786L4.41074 9.34224L4.26543 9.67505L4.17168 9.81567L4.14355 9.8438L4.0498 9.95161L3.96074 10.0172L3.76387 10.1672L3.57637 10.2375L3.41699 10.2704H3.34199L3.19199 10.2516L3.06074 10.2094L2.91543 10.1157L2.75137 9.98911L2.52168 9.75942L2.48887 9.74067H2.48418L2.41387 9.6938H2.35762L2.33887 9.72661L2.3248 9.77349L2.31543 9.82036L2.29199 10.0782V10.0922L2.30605 10.1954L2.48418 10.4438L2.53574 10.575L2.54512 10.5891L2.58262 10.65L2.61074 10.6969L2.67168 10.875L2.62949 10.9782L2.65293 11.0438L2.59668 11.086L2.5873 11.1422L2.74668 11.3438L2.77949 11.4282L2.74199 11.55L2.68105 11.6157L2.6623 11.6344L2.67168 11.686L2.74668 11.7516L2.86855 11.8641L2.93418 12.0282L2.98105 12.0704L3.04199 12.0563L3.0748 12.0844H3.12168L3.16855 12.1313L3.20137 12.1454L3.25293 12.1688L3.29043 12.2204L3.2998 12.375L3.3748 12.5719V12.6938L3.42168 12.7688L3.43574 12.8297L3.4123 12.9938L3.46855 13.0454L3.52949 13.0313L3.57168 13.0407L3.6373 13.0922L3.71699 13.2141L3.79199 13.2047L3.83887 13.2282L4.07324 13.4391L4.12949 13.4672L4.17637 13.486L4.22324 13.5329L4.29355 13.486H4.30293L4.38262 13.4766L4.42012 13.5L4.48574 13.5469H4.57949L4.76699 13.6079L4.85605 13.6266L5.0248 13.7344L5.0998 13.7813L5.14199 13.8141L5.19824 13.861L5.31074 13.9079L5.40449 13.9313L5.46074 13.9454L5.50293 13.9594L5.71387 14.0438L5.82637 14.0672L5.93418 14.1094L6.00918 14.1375H6.06543L6.14512 14.0672H6.2248L6.29043 14.0813L6.35137 14.0719L6.4498 14.011L6.47324 13.9782L6.54355 13.9454L6.77793 13.9172L6.84824 13.9407L7.02637 13.861L7.14824 13.8938L7.25137 13.8563L7.48574 13.9079L7.54668 13.9547L7.6123 14.0297H7.69668L7.66855 14.086L7.76699 14.1938L7.86074 14.3344V14.3485L7.93105 14.5407L7.97793 14.611L8.01543 14.7047V14.7704L7.96387 14.8125L7.95449 14.836V14.8454L7.96387 14.8688L7.98262 14.8594L8.02012 14.836L8.06699 14.8313L8.15137 14.8407H8.20293L8.29199 14.8032L8.34824 14.775L8.44199 14.8125H8.54043L8.58262 14.8313L8.70449 14.8829L8.76543 14.8922L8.78887 14.8735L8.80293 14.8407L8.79356 14.8032L8.74668 14.7469L8.64824 14.6297L8.60137 14.5688L8.57324 14.4844L8.56387 14.3719L8.55449 14.2969L8.56855 14.1985L8.59668 14.161L8.61543 14.0813L8.62012 14.0625L8.67637 13.9875L8.82637 13.8938L8.98574 13.7532L9.1123 13.6641L9.24355 13.6079V13.5938L9.26231 13.5985L9.59043 13.486H9.5998L9.74512 13.4579L10.7436 13.5282L10.7811 13.5188L10.8139 13.425L10.8326 13.4063L10.842 13.3969L10.9545 13.35L11.0014 13.3407L11.142 13.3782L11.2029 13.3922L11.2967 13.3407H11.3623L11.5029 13.2657H11.5873L11.6154 13.2563L11.7795 13.1344L11.9389 13.0875L11.9857 13.0688L11.9951 13.0594L12.1592 12.975L12.2623 12.8954L12.3514 12.8485L12.4451 12.825L12.7029 12.8063L12.7545 12.7219L12.8623 12.7032L12.9326 12.6282L13.0076 12.6L13.0592 12.5204L13.1061 12.4547L13.1717 12.4172L13.3732 12.4079L13.617 12.436L13.6498 12.4172L13.7014 12.2204L13.7576 12.1829L13.9123 11.9625V11.8125L13.9404 11.7141L13.9217 11.536L13.9451 11.3579L14.0389 11.1329L14.1232 11.0391L14.2592 10.95L14.3295 10.9219L14.4232 10.9032H14.442L14.4654 10.8985L14.8029 10.8938H14.9248L15.0373 10.8891L15.3186 10.936L15.342 10.9454L15.4357 10.9735L15.5482 11.0625L15.6654 11.175L15.6889 11.1985L15.7639 11.2266L15.7873 11.2407L15.8529 11.2266L15.942 11.1797L16.0076 11.1235L16.1014 11.0766V11.0719L16.1529 10.9922L16.1764 10.9594L16.3545 10.8891L16.5654 10.8797L16.5889 10.8657L16.6029 10.861L16.6545 10.7954H16.7061L16.8326 10.8422L16.9217 10.8235L16.992 10.8516L17.0436 10.8422L17.1467 10.8329L17.2592 10.9079L17.3248 10.9172L17.5498 11.0485H17.5686L17.5779 11.0532L17.6061 11.0485L17.6482 11.0344L17.6576 11.0391L17.6811 11.0766L17.7186 11.0813L17.7607 11.025L17.742 11.0016L17.7373 10.9922L17.6576 10.9735L17.5826 10.8516L17.6529 10.7766L17.5451 10.6454L17.5264 10.6219L17.5217 10.6125L17.4842 10.5563L17.2967 10.2657L17.0436 10.0688L16.9592 9.99849L16.9264 9.97505L16.7951 9.83911L16.7014 9.71724L16.6873 9.68911L16.6686 9.64224L16.6123 9.52505L16.5186 9.44536L16.4342 9.36099V9.3563L16.2654 9.1313L16.2373 9.0938L16.1998 9.07036H16.1154L16.1061 9.06099V9.0563L16.1436 9.00942L16.1904 9.00005L16.2092 8.95786L16.1248 8.71411V8.70474L16.1154 8.62974L16.1857 8.27349L16.1951 8.22661L16.3123 7.99224L16.3873 7.9313L16.4623 7.77661L16.5326 7.67817L16.5982 7.61255L16.6076 7.60786L16.7248 7.53755L16.8232 7.52349L16.917 7.50942L17.0811 7.5563H17.2686L17.3389 7.54692L17.4561 7.50942L17.5123 7.47661L17.5404 7.42974L17.5967 7.23286L17.6201 7.16724L17.6529 7.10161L17.8686 6.85317L18.0279 6.70786L18.3889 6.44067L18.567 6.33755L18.6561 6.2813L19.4623 5.92505L19.6686 5.71411L19.7764 5.60161L19.9732 5.47505L20.1982 5.3813L20.3904 5.22661L20.4326 5.17505L20.4889 5.00161L20.5311 4.99224L20.5732 4.90317L20.5826 4.87974L20.742 4.76724L20.7607 4.75786L21.3748 4.45317L21.4686 4.46255L21.5154 4.39224L21.6936 4.36411L21.7217 4.35474L21.7686 4.33599L21.8061 4.27036V4.2563L21.8107 4.08755L21.8482 4.04067L21.8717 3.92817L21.8904 3.90005L21.9092 3.87661L21.9607 3.83911L21.9514 3.81567V3.82036Z" fill="#D47600"/>
</g>
<defs>
<clipPath id="clip0_208_11935">
<rect width="24" height="24" rx="12" fill="white"/>
</clipPath>
</defs>
</svg>
