<svg width="24" height="24" viewBox="0 0 24 24" fill="none" xmlns="http://www.w3.org/2000/svg">
<g clip-path="url(#clip0_208_23243)">
<path d="M0 0H24V24H0V0Z" fill="#009543"/>
<path d="M0 0H24V15.9984H0V0Z" fill="#ED4135"/>
<path d="M0 0H24V8.00156H0V0Z" fill="#0035AD"/>
<path d="M10.5746 19.8656C14.9187 19.8656 18.4402 16.3441 18.4402 12C18.4402 7.65596 14.9187 4.1344 10.5746 4.1344C6.23055 4.1344 2.70898 7.65596 2.70898 12C2.70898 16.3441 6.23055 19.8656 10.5746 19.8656Z" fill="#FAE600" stroke="black" stroke-width="0.7125"/>
<path d="M9.24414 13.1718H11.9113H9.24414ZM9.24414 11.2031H11.9113H9.24414ZM10.5754 4.15308V17.5968V4.15308Z" fill="black"/>
<path d="M9.24414 13.1718H11.9113M9.24414 11.2031H11.9113M10.5754 4.15308V17.5968" stroke="black" stroke-width="0.85"/>
<path d="M7.40615 19.2187C10.6218 20.5312 13.6311 19.3031 13.6311 19.3031C13.6311 19.3031 12.4921 18.0749 11.9108 17.5921C11.3436 17.1234 9.67021 17.1421 9.09834 17.5921C8.62959 17.9671 7.26084 19.3499 7.41084 19.2234L7.40615 19.2187Z" fill="black"/>
<path d="M10.5746 16.9078C11.0613 16.9078 11.4559 16.3348 11.4559 15.6281C11.4559 14.9213 11.0613 14.3484 10.5746 14.3484C10.0879 14.3484 9.69336 14.9213 9.69336 15.6281C9.69336 16.3348 10.0879 16.9078 10.5746 16.9078Z" fill="black"/>
<path d="M10.5746 12.8625C11.1649 12.8625 11.6434 12.5602 11.6434 12.1875C11.6434 11.8147 11.1649 11.5125 10.5746 11.5125C9.98436 11.5125 9.50586 11.8147 9.50586 12.1875C9.50586 12.5602 9.98436 12.8625 10.5746 12.8625Z" fill="black"/>
<path d="M10.5746 10.1343C11.1649 10.1343 11.6434 9.65583 11.6434 9.06558C11.6434 8.47532 11.1649 7.99683 10.5746 7.99683C9.98436 7.99683 9.50586 8.47532 9.50586 9.06558C9.50586 9.65583 9.98436 10.1343 10.5746 10.1343Z" fill="black"/>
<path d="M11.859 5.09526C11.859 5.09526 11.9527 5.24526 11.7559 5.59683C10.823 7.27026 9.89492 7.30776 9.7168 7.44839C9.51992 7.60776 9.43555 7.59839 9.43555 7.59839C9.4543 7.45776 9.46367 6.86714 9.47305 6.81089C9.61367 6.03276 10.7996 6.04214 11.723 5.24058C11.8637 5.11401 11.8543 5.09058 11.8543 5.09058L11.859 5.09526ZM8.73711 8.69526C8.73711 8.69526 8.94805 9.29058 8.97617 9.89526C9.02773 10.8515 9.94648 10.8796 10.5746 10.8796V10.3453C10.1059 10.3453 9.68867 10.2796 9.35117 9.57183C9.17243 9.2623 8.96696 8.96899 8.73711 8.69526ZM8.70898 16.4296C8.70898 16.4296 9.04648 16.0078 9.44023 15.0421C9.53058 14.8125 9.68609 14.6143 9.88764 14.4718C10.0892 14.3294 10.328 14.249 10.5746 14.2406V13.4906C9.56211 13.4906 9.07461 13.8656 9.02773 14.4234C8.91523 15.5484 8.70898 16.4249 8.70898 16.4249V16.4296ZM12.4215 8.69526C12.4215 8.69526 12.2059 9.29058 12.1777 9.89526C12.1262 10.8562 11.2074 10.8796 10.5793 10.8796V10.35C11.0527 10.35 11.4652 10.2796 11.8074 9.57651C11.9855 9.26245 12.1918 8.96714 12.4168 8.69526H12.4215ZM12.4449 16.4296C12.4449 16.4296 12.1121 16.0125 11.7137 15.0421C11.6226 14.8134 11.4668 14.6161 11.2653 14.4746C11.0638 14.333 10.8254 14.2533 10.5793 14.2453V13.4953C11.5918 13.4953 12.0793 13.8703 12.1309 14.4234C12.1941 15.098 12.299 15.768 12.4449 16.4296Z" fill="black"/>
</g>
<defs>
<clipPath id="clip0_208_23243">
<rect width="24" height="24" rx="12" fill="white"/>
</clipPath>
</defs>
</svg>
