<svg width="24" height="24" viewBox="0 0 24 24" fill="none" xmlns="http://www.w3.org/2000/svg">
<g clip-path="url(#clip0_208_23680)">
<path d="M0 0H24V24H0V0Z" fill="white"/>
<path d="M24 9.59998H0V14.4H24V9.59998Z" fill="#CC0000"/>
<path fill-rule="evenodd" clip-rule="evenodd" d="M13.6502 7.3313C13.7909 7.08755 13.7065 6.93286 13.4909 6.88599C13.4909 6.88599 12.7924 7.12036 12.0377 7.14849C11.2877 7.17661 10.3971 6.94692 10.3971 6.94692C10.233 7.05474 10.2705 7.31255 10.3502 7.47192C10.3502 7.47192 11.1377 7.74849 12.0377 7.72036C12.5186 7.69728 12.9937 7.60573 13.4487 7.44849C13.6221 7.38755 13.6502 7.3313 13.6502 7.3313Z" fill="#EBEAE3" stroke="black" stroke-width="0.0625"/>
<path d="M12.0004 17.8816L10.552 14.6716L7.22852 14.9416L9.10352 12.0016L7.22852 9.0616L10.5566 9.3316L12.0004 6.12659L13.4488 9.3266L16.7723 9.0616L14.8973 12.0016L16.7723 14.9416L13.4441 14.6716L12.0004 17.8816Z" fill="white" stroke="#161111" stroke-width="0.206559"/>
<path fill-rule="evenodd" clip-rule="evenodd" d="M11.9764 6.1125C13.7951 6.43125 13.7295 6.52031 13.7295 6.52031L14.2029 5.01562C14.2029 5.01562 14.2545 4.71562 14.1232 4.53281C13.992 4.35 13.6311 4.45312 13.6311 4.45312C13.6311 4.45312 13.5842 4.20937 13.4201 4.15312C13.2607 4.09219 12.6701 4.38281 12.4826 4.44375C12.2951 4.50937 12.2014 4.57031 11.9436 4.56562C11.6579 4.51611 11.3833 4.41611 11.1326 4.27031C11.034 4.21332 10.923 4.18115 10.8092 4.17656C10.6967 4.18125 10.5748 4.21406 10.5139 4.29844C10.4576 4.3875 10.4576 4.49062 10.4576 4.49062C10.4576 4.49062 10.3639 4.42969 10.2092 4.42969C10.0592 4.42969 9.97481 4.44844 9.90449 4.53281C9.83887 4.62187 9.74512 4.86094 9.74512 4.86094L9.91856 5.26875L9.92793 5.83125L10.2795 6.43125L11.9764 6.11719V6.1125Z" fill="#B02320" stroke="black" stroke-width="0.175"/>
<path fill-rule="evenodd" clip-rule="evenodd" d="M13.6736 6.96563C13.6736 6.96563 13.7674 7.08281 13.7627 7.125C13.758 7.1625 13.7158 7.2 13.7158 7.2C13.7158 7.2 13.7486 7.23281 13.7393 7.27969C13.7346 7.32656 13.6736 7.32656 13.6736 7.32656C13.6736 7.32656 13.6877 7.36875 13.6502 7.3875C13.6127 7.40625 13.4721 7.43438 13.4721 7.43438C13.4721 7.43438 12.769 7.22344 12.019 7.22344C11.269 7.22344 10.3783 7.48594 10.3783 7.48594C10.3783 7.48594 10.2846 7.44844 10.2846 7.3875C10.2752 7.32188 10.2893 7.275 10.2893 7.275C10.2893 7.275 10.2424 7.28437 10.2283 7.2375C10.2096 7.17187 10.233 7.12031 10.233 7.12031C10.233 7.12031 10.2002 7.12969 10.2377 7.04531C10.2514 7.00908 10.2759 6.97796 10.308 6.95625C10.308 6.95625 11.0955 6.65625 11.9955 6.65625C12.569 6.65688 13.1376 6.76171 13.6736 6.96563Z" fill="#EBEAE3" stroke="black" stroke-width="0.0625"/>
<path d="M9.94642 5.07653C9.94642 5.07653 9.9183 4.96403 9.98392 4.87028C10.008 4.83624 10.0426 4.81097 10.0823 4.79828C10.1221 4.7856 10.1649 4.78619 10.2042 4.79997C10.2417 4.81872 10.237 4.86091 10.2839 4.87497C10.3308 4.88903 10.3683 4.85153 10.3683 4.85153" stroke="black" stroke-width="0.15"/>
<path fill-rule="evenodd" clip-rule="evenodd" d="M14.3346 5.32971L14.0627 5.92971L13.9549 5.95315C13.9549 5.95315 13.8893 5.90627 13.7018 5.92502C13.5705 5.9344 13.5283 5.9719 13.5283 5.9719L13.7721 5.3719C13.7721 5.3719 13.7908 5.49846 13.8189 5.57346C13.8564 5.66721 13.9924 5.76096 13.9924 5.76096C13.9924 5.76096 14.0111 5.64846 13.9736 5.50784C13.9361 5.35315 13.8424 5.14221 13.8424 5.14221L14.3346 5.32971Z" fill="#FFCC00" fill-opacity="0.9" stroke="black" stroke-width="0.15"/>
<path d="M11.8359 3.45935H12.1406V4.84216H11.8359V3.45935Z" fill="#121116" stroke="#121116" stroke-width="0.15" stroke-linejoin="round"/>
<path fill-rule="evenodd" clip-rule="evenodd" d="M9.96582 6.01411L10.158 6.45942C10.158 6.45942 10.9971 6.11255 11.9814 6.11724C13.458 6.12661 13.8799 6.44536 13.8799 6.44536L14.0955 5.89224L13.9314 5.99067L13.7627 6.10317L13.5752 6.18286L13.3408 6.16411L13.1346 6.00005L13.0314 5.76567L12.858 5.93911L12.5486 6.01411L12.2486 5.92974L11.9861 5.57349C11.9861 5.57349 11.7893 5.96724 11.5361 5.99536C11.1752 6.02817 10.9689 5.80786 10.9689 5.80786C10.9689 5.80786 10.833 6.12661 10.6127 6.18286C10.2611 6.27661 9.97051 6.01411 9.96582 6.01411Z" fill="#F6CA1F" stroke="black" stroke-width="0.125"/>
<path d="M13.3349 3.28278C13.3349 3.32729 13.3185 3.37002 13.2892 3.40173C13.26 3.43344 13.2202 3.4516 13.1784 3.45229C13.1363 3.45229 13.0959 3.43443 13.0661 3.40264C13.0363 3.37085 13.0195 3.32774 13.0195 3.28278C13.0195 3.23828 13.0359 3.19555 13.0652 3.16384C13.0945 3.13213 13.1343 3.11397 13.176 3.11328C13.2181 3.11328 13.2586 3.13114 13.2884 3.16293C13.3182 3.19472 13.3349 3.23783 13.3349 3.28278Z" fill="#EEEEEE" stroke="#1E1E1E" stroke-width="0.14813" stroke-linejoin="round"/>
<path fill-rule="evenodd" clip-rule="evenodd" d="M13.1016 3.37031C13.1016 3.37031 13.2281 3.37031 13.2422 3.31406C13.2562 3.25781 13.2328 3.1875 13.2328 3.1875C13.2328 3.1875 13.2937 3.25781 13.2797 3.31406C13.2609 3.36562 13.2422 3.37969 13.2 3.39375C13.1719 3.39844 13.125 3.38906 13.1063 3.37031H13.1016Z" fill="#A3AFB8"/>
<path d="M12.9501 3.47505C12.9501 3.51955 12.9337 3.56228 12.9045 3.59399C12.8752 3.6257 12.8354 3.64386 12.7937 3.64455C12.7515 3.64455 12.7111 3.62669 12.6813 3.5949C12.6515 3.56312 12.6348 3.52 12.6348 3.47505C12.6348 3.43054 12.6512 3.38782 12.6804 3.3561C12.7097 3.32439 12.7495 3.30623 12.7912 3.30554C12.8334 3.30554 12.8738 3.3234 12.9036 3.35519C12.9334 3.38698 12.9501 3.43009 12.9501 3.47505Z" fill="#EEEEEE" stroke="#1E1E1E" stroke-width="0.14813" stroke-linejoin="round"/>
<path fill-rule="evenodd" clip-rule="evenodd" d="M12.7168 3.5625C12.7168 3.5625 12.848 3.5625 12.8574 3.50156C12.8715 3.45 12.848 3.375 12.848 3.375C12.848 3.375 12.909 3.45 12.8949 3.50156C12.8762 3.55781 12.8574 3.57188 12.8152 3.58594C12.7871 3.59063 12.7402 3.58125 12.7215 3.5625H12.7168Z" fill="#A3AFB8"/>
<path d="M13.7753 3.17036C13.7753 3.21487 13.7589 3.25759 13.7297 3.2893C13.7004 3.32102 13.6606 3.33918 13.6189 3.33986C13.5767 3.33986 13.5363 3.322 13.5065 3.29022C13.4767 3.25843 13.46 3.21531 13.46 3.17036C13.46 3.12585 13.4764 3.08313 13.5056 3.05141C13.5349 3.0197 13.5747 3.00154 13.6164 3.00085C13.6586 3.00085 13.699 3.01871 13.7288 3.0505C13.7586 3.08229 13.7753 3.1254 13.7753 3.17036Z" fill="#EEEEEE" stroke="#1E1E1E" stroke-width="0.14813" stroke-linejoin="round"/>
<path fill-rule="evenodd" clip-rule="evenodd" d="M13.5469 3.25776C13.5469 3.25776 13.6734 3.25776 13.6875 3.20151C13.7016 3.14526 13.6781 3.07495 13.6781 3.07495C13.6781 3.07495 13.7391 3.14526 13.725 3.20151C13.7062 3.25308 13.6875 3.27183 13.6453 3.2812C13.6107 3.28587 13.5756 3.27752 13.5469 3.25776Z" fill="#A3AFB8"/>
<path d="M14.2773 3.27815C14.2773 3.32265 14.2609 3.36538 14.2316 3.39709C14.2023 3.42881 14.1625 3.44697 14.1208 3.44765C14.0787 3.44765 14.0383 3.42979 14.0085 3.398C13.9787 3.36622 13.9619 3.3231 13.9619 3.27815C13.9619 3.23364 13.9783 3.19092 14.0076 3.1592C14.0369 3.12749 14.0767 3.10933 14.1184 3.10864C14.1605 3.10864 14.2009 3.1265 14.2307 3.15829C14.2605 3.19008 14.2773 3.23319 14.2773 3.27815Z" fill="#EEEEEE" stroke="#1E1E1E" stroke-width="0.14813" stroke-linejoin="round"/>
<path fill-rule="evenodd" clip-rule="evenodd" d="M14.0479 3.36567C14.0479 3.36567 14.1744 3.36567 14.1885 3.30942C14.2025 3.25317 14.1791 3.18286 14.1791 3.18286C14.1791 3.18286 14.24 3.25317 14.226 3.30942C14.2072 3.36099 14.1885 3.37974 14.1463 3.38911C14.1135 3.39849 14.0713 3.38442 14.0479 3.36567Z" fill="#A3AFB8"/>
<path d="M14.6611 3.61567C14.6611 3.66018 14.6447 3.7029 14.6154 3.73462C14.5861 3.76633 14.5463 3.78449 14.5046 3.78517C14.4625 3.78517 14.422 3.76732 14.3922 3.73553C14.3624 3.70374 14.3457 3.66063 14.3457 3.61567C14.3457 3.57116 14.3621 3.52844 14.3914 3.49673C14.4207 3.46501 14.4604 3.44685 14.5022 3.44617C14.5443 3.44617 14.5847 3.46403 14.6145 3.49581C14.6443 3.5276 14.6611 3.57072 14.6611 3.61567Z" fill="#EEEEEE" stroke="#1E1E1E" stroke-width="0.14813" stroke-linejoin="round"/>
<path fill-rule="evenodd" clip-rule="evenodd" d="M14.4326 3.70312C14.4326 3.70312 14.5592 3.70312 14.5732 3.64219C14.5826 3.58594 14.5639 3.51562 14.5639 3.51562C14.5639 3.51562 14.6248 3.58594 14.6061 3.64219C14.5873 3.69844 14.5732 3.7125 14.5264 3.72188C14.4982 3.73125 14.4561 3.72188 14.4326 3.69844V3.70312Z" fill="#A3AFB8"/>
<path d="M14.8251 4.16413C14.8251 4.20864 14.8087 4.25136 14.7795 4.28308C14.7502 4.31479 14.7104 4.33295 14.6687 4.33364C14.6265 4.33364 14.5861 4.31578 14.5563 4.28399C14.5265 4.2522 14.5098 4.20909 14.5098 4.16413C14.5098 4.11963 14.5262 4.0769 14.5554 4.04519C14.5847 4.01347 14.6245 3.99531 14.6662 3.99463C14.7084 3.99463 14.7488 4.01249 14.7786 4.04428C14.8084 4.07606 14.8251 4.11918 14.8251 4.16413Z" fill="#EEEEEE" stroke="#1E1E1E" stroke-width="0.14813" stroke-linejoin="round"/>
<path fill-rule="evenodd" clip-rule="evenodd" d="M14.5967 4.25154C14.5967 4.25154 14.7232 4.25154 14.7373 4.19529C14.7467 4.13904 14.7279 4.06873 14.7279 4.06873C14.7279 4.06873 14.7889 4.13904 14.7701 4.19529C14.7514 4.25154 14.7373 4.2656 14.6904 4.27498C14.6623 4.28435 14.6201 4.27029 14.5967 4.25154Z" fill="#A3AFB8"/>
<path d="M14.7646 4.72187C14.7646 4.76638 14.7482 4.8091 14.7189 4.84082C14.6896 4.87253 14.6498 4.89069 14.6081 4.89138C14.566 4.89138 14.5256 4.87352 14.4958 4.84173C14.466 4.80994 14.4492 4.76683 14.4492 4.72187C14.4492 4.67736 14.4656 4.63464 14.4949 4.60293C14.5242 4.57121 14.564 4.55305 14.6057 4.55237C14.6478 4.55237 14.6882 4.57023 14.718 4.60201C14.7479 4.6338 14.7646 4.67692 14.7646 4.72187Z" fill="#EEEEEE" stroke="#1E1E1E" stroke-width="0.14813" stroke-linejoin="round"/>
<path fill-rule="evenodd" clip-rule="evenodd" d="M14.5312 4.8094C14.5312 4.8094 14.6625 4.8094 14.6719 4.75315C14.6859 4.6969 14.6672 4.62659 14.6672 4.62659C14.6672 4.62659 14.7281 4.6969 14.7094 4.75315C14.6906 4.80471 14.6766 4.82346 14.6297 4.83284C14.6016 4.83752 14.5594 4.82815 14.5359 4.8094H14.5312Z" fill="#A3AFB8"/>
<path d="M14.5351 5.20942C14.5351 5.25393 14.5187 5.29665 14.4894 5.32837C14.4602 5.36008 14.4204 5.37824 14.3786 5.37892C14.3365 5.37892 14.2961 5.36107 14.2663 5.32928C14.2365 5.29749 14.2197 5.25438 14.2197 5.20942C14.2197 5.16491 14.2361 5.12219 14.2654 5.09048C14.2947 5.05876 14.3345 5.0406 14.3762 5.03992C14.4183 5.03992 14.4588 5.05778 14.4886 5.08956C14.5184 5.12135 14.5351 5.16447 14.5351 5.20942Z" fill="#EEEEEE" stroke="#1E1E1E" stroke-width="0.14813" stroke-linejoin="round"/>
<path fill-rule="evenodd" clip-rule="evenodd" d="M14.3018 5.29683C14.3018 5.29683 14.4283 5.29683 14.4424 5.24058C14.4564 5.18433 14.433 5.11401 14.433 5.11401C14.433 5.11401 14.4939 5.18433 14.4799 5.24058C14.4611 5.29683 14.4424 5.31089 14.4002 5.32026C14.3721 5.32964 14.3252 5.32026 14.3064 5.29683H14.3018Z" fill="#A3AFB8"/>
<path d="M12.5751 3.62031C12.5751 3.66482 12.5587 3.70754 12.5295 3.73925C12.5002 3.77097 12.4604 3.78913 12.4187 3.78981C12.3765 3.78981 12.3361 3.77196 12.3063 3.74017C12.2765 3.70838 12.2598 3.66526 12.2598 3.62031C12.2598 3.5758 12.2762 3.53308 12.3054 3.50137C12.3347 3.46965 12.3745 3.45149 12.4162 3.45081C12.4584 3.45081 12.4988 3.46866 12.5286 3.50045C12.5584 3.53224 12.5751 3.57535 12.5751 3.62031Z" fill="#EEEEEE" stroke="#1E1E1E" stroke-width="0.14813" stroke-linejoin="round"/>
<path fill-rule="evenodd" clip-rule="evenodd" d="M12.3467 3.70784C12.3467 3.70784 12.4732 3.70784 12.4873 3.65159C12.5014 3.59534 12.4779 3.52502 12.4779 3.52502C12.4779 3.52502 12.5389 3.59534 12.5248 3.65159C12.5061 3.70315 12.4873 3.71721 12.4451 3.73127C12.4105 3.73595 12.3754 3.72759 12.3467 3.70784Z" fill="#A3AFB8"/>
<path d="M12.0987 3.57644C12.0987 3.61366 12.085 3.64939 12.0605 3.67591C12.036 3.70243 12.0027 3.71762 11.9679 3.71819C11.9326 3.71819 11.8988 3.70326 11.8739 3.67667C11.849 3.65009 11.835 3.61404 11.835 3.57644C11.835 3.53922 11.8487 3.50349 11.8732 3.47697C11.8976 3.45045 11.9309 3.43526 11.9658 3.43469C12.0011 3.43469 12.0349 3.44963 12.0598 3.47621C12.0847 3.50279 12.0987 3.53885 12.0987 3.57644Z" fill="#EEEEEE" stroke="#1E1E1E" stroke-width="0.15203" stroke-linejoin="round"/>
<path fill-rule="evenodd" clip-rule="evenodd" d="M11.9062 3.65151C11.9062 3.65151 12.0141 3.65151 12.0234 3.60464C12.0375 3.55776 12.0187 3.49683 12.0187 3.49683C12.0187 3.49683 12.0656 3.55308 12.0563 3.59995C12.0375 3.64683 12.0234 3.66089 11.9906 3.67026C11.976 3.67313 11.961 3.67294 11.9465 3.66971C11.932 3.66649 11.9183 3.66029 11.9062 3.65151Z" fill="#A3AFB8"/>
<path d="M12.1036 3.75454C12.1036 3.79176 12.0899 3.82749 12.0654 3.85401C12.0409 3.88053 12.0076 3.89572 11.9727 3.89629C11.9375 3.89629 11.9037 3.88136 11.8788 3.85478C11.8538 3.82819 11.8398 3.79214 11.8398 3.75454C11.8398 3.71732 11.8536 3.6816 11.878 3.65507C11.9025 3.62855 11.9358 3.61337 11.9707 3.61279C12.0059 3.61279 12.0397 3.62773 12.0647 3.65431C12.0896 3.68089 12.1036 3.71695 12.1036 3.75454Z" fill="#EEEEEE" stroke="#1E1E1E" stroke-width="0.15203" stroke-linejoin="round"/>
<path fill-rule="evenodd" clip-rule="evenodd" d="M11.9062 3.82493C11.9062 3.82493 12.0141 3.82493 12.0281 3.77805C12.0375 3.73118 12.0187 3.67493 12.0187 3.67493C12.0187 3.67493 12.0656 3.73118 12.0563 3.77805C12.0422 3.82493 12.0281 3.83899 11.9906 3.84836C11.9626 3.85283 11.934 3.8461 11.9109 3.82961L11.9062 3.82493Z" fill="#A3AFB8"/>
<path d="M12.1124 4.01236C12.1124 4.04957 12.0987 4.0853 12.0742 4.11182C12.0497 4.13835 12.0164 4.15353 11.9815 4.15411C11.9463 4.15411 11.9125 4.13917 11.8876 4.11259C11.8626 4.086 11.8486 4.04995 11.8486 4.01236C11.8486 3.97514 11.8623 3.93941 11.8868 3.91289C11.9113 3.88636 11.9446 3.87118 11.9795 3.87061C12.0147 3.87061 12.0485 3.88554 12.0734 3.91212C12.0984 3.93871 12.1124 3.97476 12.1124 4.01236Z" fill="#EEEEEE" stroke="#1E1E1E" stroke-width="0.15203" stroke-linejoin="round"/>
<path fill-rule="evenodd" clip-rule="evenodd" d="M11.9199 4.08743C11.9199 4.08743 12.023 4.08743 12.0371 4.04055C12.0465 3.99368 12.0277 3.93274 12.0277 3.93274C12.0277 3.93274 12.0746 3.99368 12.0652 4.04055C12.0512 4.08743 12.0371 4.0968 11.9996 4.10618C11.9716 4.11065 11.943 4.10391 11.9199 4.08743Z" fill="#A3AFB8"/>
<path d="M12.1221 4.28782C12.1221 4.32807 12.1073 4.36671 12.0808 4.39539C12.0543 4.42407 12.0184 4.4405 11.9806 4.44112C11.9425 4.44112 11.906 4.42497 11.879 4.39622C11.8521 4.36747 11.8369 4.32848 11.8369 4.28782C11.8369 4.24757 11.8517 4.20893 11.8782 4.18025C11.9047 4.15156 11.9407 4.13514 11.9784 4.13452C12.0165 4.13452 12.0531 4.15067 12.08 4.17942C12.107 4.20817 12.1221 4.24716 12.1221 4.28782Z" fill="#EEEEEE" stroke="#1E1E1E" stroke-width="0.152235" stroke-linejoin="round"/>
<path fill-rule="evenodd" clip-rule="evenodd" d="M11.916 4.37334C11.916 4.37334 12.0332 4.36865 12.0426 4.31709C12.0566 4.27021 12.0379 4.20459 12.0379 4.20459C12.0379 4.20459 12.0895 4.27021 12.0754 4.31709C12.0566 4.36865 12.0426 4.38271 12.0051 4.39209C11.9894 4.3944 11.9735 4.39351 11.9581 4.38949C11.9428 4.38546 11.9285 4.37837 11.916 4.36865V4.37334Z" fill="#A3AFB8"/>
<path d="M12.1396 4.66096C12.1396 4.70547 12.1232 4.74819 12.0939 4.7799C12.0646 4.81162 12.0248 4.82978 11.9831 4.83046C11.941 4.83046 11.9006 4.8126 11.8708 4.78082C11.841 4.74903 11.8242 4.70591 11.8242 4.66096C11.8242 4.61645 11.8406 4.57373 11.8699 4.54201C11.8992 4.5103 11.939 4.49214 11.9807 4.49146C12.0228 4.49146 12.0632 4.50931 12.093 4.5411C12.1229 4.57289 12.1396 4.616 12.1396 4.66096Z" fill="#EEEEEE" stroke="#1E1E1E" stroke-width="0.14813" stroke-linejoin="round"/>
<path fill-rule="evenodd" clip-rule="evenodd" d="M11.9062 4.74849C11.9062 4.74849 12.0375 4.74849 12.0469 4.69224C12.0609 4.63599 12.0422 4.56567 12.0422 4.56567C12.0422 4.56567 12.1031 4.63599 12.0844 4.69224C12.0656 4.74849 12.0516 4.76255 12.0047 4.77192C11.9766 4.7813 11.9344 4.77192 11.9109 4.74849H11.9062Z" fill="#A3AFB8"/>
<path d="M12.1224 5.42628C12.1224 5.46808 12.107 5.50821 12.0795 5.53799C12.052 5.56778 12.0146 5.58483 11.9754 5.58548C11.9358 5.58548 11.8979 5.5687 11.8699 5.53885C11.8419 5.509 11.8262 5.4685 11.8262 5.42628C11.8262 5.38448 11.8416 5.34436 11.8691 5.31457C11.8966 5.28479 11.9339 5.26773 11.9731 5.26709C12.0127 5.26709 12.0507 5.28386 12.0786 5.31372C12.1066 5.34357 12.1224 5.38406 12.1224 5.42628Z" fill="#EEEEEE" stroke="#1E1E1E" stroke-width="0.151766" stroke-linejoin="round"/>
<path fill-rule="evenodd" clip-rule="evenodd" d="M11.9062 5.50779C11.9062 5.50779 12.0281 5.50779 12.0375 5.45623C12.0516 5.39998 12.0328 5.33435 12.0328 5.33435C12.0328 5.33435 12.0891 5.39998 12.0703 5.45154C12.0563 5.50779 12.0375 5.51716 12 5.53123C11.9836 5.53392 11.9668 5.53323 11.9507 5.5292C11.9346 5.52517 11.9195 5.51788 11.9062 5.50779Z" fill="#A3AFB8"/>
<path d="M11.6992 3.61567C11.6992 3.66018 11.6828 3.7029 11.6535 3.73462C11.6242 3.76633 11.5844 3.78449 11.5427 3.78517C11.5006 3.78517 11.4601 3.76732 11.4303 3.73553C11.4005 3.70374 11.3838 3.66063 11.3838 3.61567C11.3838 3.57116 11.4002 3.52844 11.4295 3.49673C11.4587 3.46501 11.4985 3.44685 11.5403 3.44617C11.5824 3.44617 11.6228 3.46403 11.6526 3.49581C11.6824 3.5276 11.6992 3.57072 11.6992 3.61567Z" fill="#EEEEEE" stroke="#1E1E1E" stroke-width="0.14813" stroke-linejoin="round"/>
<path fill-rule="evenodd" clip-rule="evenodd" d="M11.4658 3.70308C11.4658 3.70308 11.5924 3.70308 11.6064 3.64683C11.6205 3.59058 11.5971 3.52026 11.5971 3.52026C11.5971 3.52026 11.658 3.59058 11.6439 3.64683C11.6252 3.69839 11.6064 3.71714 11.5643 3.72651C11.5361 3.7312 11.4893 3.72183 11.4705 3.70308H11.4658Z" fill="#A3AFB8"/>
<path d="M11.3046 3.45161C11.3046 3.49612 11.2882 3.53884 11.259 3.57055C11.2297 3.60227 11.1899 3.62043 11.1482 3.62111C11.106 3.62111 11.0656 3.60325 11.0358 3.57147C11.006 3.53968 10.9893 3.49656 10.9893 3.45161C10.9893 3.4071 11.0057 3.36438 11.0349 3.33266C11.0642 3.30095 11.104 3.28279 11.1457 3.2821C11.1879 3.2821 11.2283 3.29996 11.2581 3.33175C11.2879 3.36354 11.3046 3.40665 11.3046 3.45161Z" fill="#EEEEEE" stroke="#1E1E1E" stroke-width="0.14813" stroke-linejoin="round"/>
<path fill-rule="evenodd" clip-rule="evenodd" d="M11.0762 3.53901C11.0762 3.53901 11.2027 3.53901 11.2168 3.48276C11.2262 3.42651 11.2074 3.3562 11.2074 3.3562C11.2074 3.3562 11.2684 3.42651 11.2543 3.48276C11.2309 3.53433 11.2168 3.54839 11.1699 3.56245C11.1418 3.56714 11.0996 3.55776 11.0762 3.53901Z" fill="#A3AFB8"/>
<path d="M10.9296 3.26411C10.9296 3.30862 10.9132 3.35134 10.884 3.38305C10.8547 3.41477 10.8149 3.43293 10.7732 3.43361C10.731 3.43361 10.6906 3.41575 10.6608 3.38397C10.631 3.35218 10.6143 3.30906 10.6143 3.26411C10.6143 3.2196 10.6307 3.17688 10.6599 3.14516C10.6892 3.11345 10.729 3.09529 10.7707 3.0946C10.8129 3.0946 10.8533 3.11246 10.8831 3.14425C10.9129 3.17604 10.9296 3.21915 10.9296 3.26411Z" fill="#EEEEEE" stroke="#1E1E1E" stroke-width="0.14813" stroke-linejoin="round"/>
<path fill-rule="evenodd" clip-rule="evenodd" d="M10.7012 3.35151C10.7012 3.35151 10.8277 3.35151 10.8418 3.29526C10.8559 3.23901 10.8324 3.1687 10.8324 3.1687C10.8324 3.1687 10.8934 3.23901 10.8793 3.29526C10.8605 3.34683 10.8418 3.36089 10.7996 3.37495C10.765 3.37962 10.7299 3.37127 10.7012 3.35151Z" fill="#A3AFB8"/>
<path d="M10.5039 3.16096C10.5039 3.20547 10.4874 3.24819 10.4582 3.2799C10.4289 3.31162 10.3891 3.32978 10.3474 3.33046C10.3052 3.33046 10.2648 3.3126 10.235 3.28082C10.2052 3.24903 10.1885 3.20591 10.1885 3.16096C10.1885 3.11645 10.2049 3.07373 10.2342 3.04201C10.2634 3.0103 10.3032 2.99214 10.3449 2.99146C10.3871 2.99146 10.4275 3.00931 10.4573 3.0411C10.4871 3.07289 10.5039 3.116 10.5039 3.16096Z" fill="#EEEEEE" stroke="#1E1E1E" stroke-width="0.14813" stroke-linejoin="round"/>
<path fill-rule="evenodd" clip-rule="evenodd" d="M10.2705 3.24849C10.2705 3.24849 10.3971 3.24849 10.4111 3.19224C10.4252 3.13599 10.4018 3.06567 10.4018 3.06567C10.4018 3.06567 10.4627 3.13599 10.4486 3.19224C10.4299 3.24849 10.4111 3.26255 10.3689 3.27192C10.3408 3.2813 10.2939 3.27192 10.2752 3.24849H10.2705Z" fill="#A3AFB8"/>
<path d="M9.99213 3.29218C9.99214 3.33669 9.97573 3.37941 9.94646 3.41113C9.91718 3.44284 9.87739 3.461 9.83567 3.46169C9.79352 3.46169 9.7531 3.44383 9.7233 3.41204C9.6935 3.38025 9.67676 3.33714 9.67676 3.29218C9.67675 3.24768 9.69316 3.20495 9.72243 3.17324C9.75171 3.14153 9.7915 3.12337 9.83322 3.12268C9.87537 3.12268 9.91579 3.14054 9.94559 3.17233C9.97539 3.20412 9.99213 3.24723 9.99213 3.29218Z" fill="#EEEEEE" stroke="#1E1E1E" stroke-width="0.14813" stroke-linejoin="round"/>
<path fill-rule="evenodd" clip-rule="evenodd" d="M9.76367 3.37971C9.76367 3.37971 9.89023 3.37971 9.9043 3.32346C9.91836 3.26721 9.89492 3.1969 9.89492 3.1969C9.89492 3.1969 9.95586 3.26721 9.9418 3.32346C9.92305 3.37971 9.9043 3.39377 9.86211 3.40315C9.8293 3.41252 9.78711 3.39846 9.76836 3.37971H9.76367Z" fill="#A3AFB8"/>
<path d="M9.63666 3.67195C9.63667 3.71645 9.62026 3.75918 9.59099 3.79089C9.56171 3.8226 9.52192 3.84076 9.4802 3.84145C9.43805 3.84145 9.39763 3.82359 9.36783 3.7918C9.33803 3.76001 9.32129 3.7169 9.32129 3.67195C9.32128 3.62744 9.33769 3.58471 9.36697 3.553C9.39624 3.52129 9.43603 3.50313 9.47775 3.50244C9.5199 3.50244 9.56032 3.5203 9.59012 3.55209C9.61992 3.58388 9.63666 3.62699 9.63666 3.67195Z" fill="#EEEEEE" stroke="#1E1E1E" stroke-width="0.14813" stroke-linejoin="round"/>
<path fill-rule="evenodd" clip-rule="evenodd" d="M9.40723 3.76404C9.40723 3.76404 9.53379 3.75935 9.54785 3.7031C9.55723 3.64685 9.53848 3.57654 9.53848 3.57654C9.53848 3.57654 9.59941 3.64685 9.58066 3.7031C9.56191 3.75935 9.54785 3.77341 9.50098 3.78279C9.47285 3.79216 9.43066 3.78279 9.40723 3.75935V3.76404Z" fill="#A3AFB8"/>
<path d="M9.48627 4.20625C9.48628 4.25075 9.46987 4.29348 9.4406 4.32519C9.41132 4.35691 9.37153 4.37507 9.32981 4.37575C9.28766 4.37575 9.24724 4.35789 9.21744 4.3261C9.18764 4.29432 9.1709 4.2512 9.1709 4.20625C9.17089 4.16174 9.1873 4.11902 9.21657 4.0873C9.24585 4.05559 9.28564 4.03743 9.32736 4.03674C9.36951 4.03674 9.40993 4.0546 9.43973 4.08639C9.46953 4.11818 9.48627 4.16129 9.48627 4.20625Z" fill="#EEEEEE" stroke="#1E1E1E" stroke-width="0.14813" stroke-linejoin="round"/>
<path fill-rule="evenodd" clip-rule="evenodd" d="M9.25781 4.29846C9.25781 4.29846 9.38438 4.29846 9.39844 4.23752C9.4125 4.18127 9.38906 4.11096 9.38906 4.11096C9.38906 4.11096 9.45 4.18127 9.43594 4.23752C9.41719 4.29377 9.39844 4.30784 9.35625 4.31721C9.32344 4.32659 9.28125 4.31721 9.25781 4.29846Z" fill="#A3AFB8"/>
<path d="M9.5517 4.76411C9.55171 4.80862 9.5353 4.85134 9.50603 4.88305C9.47675 4.91477 9.43696 4.93293 9.39524 4.93361C9.35309 4.93361 9.31267 4.91575 9.28287 4.88397C9.25307 4.85218 9.23633 4.80906 9.23633 4.76411C9.23632 4.7196 9.25273 4.67688 9.282 4.64516C9.31128 4.61345 9.35107 4.59529 9.39279 4.5946C9.43494 4.5946 9.47536 4.61246 9.50516 4.64425C9.53496 4.67604 9.5517 4.71915 9.5517 4.76411Z" fill="#EEEEEE" stroke="#1E1E1E" stroke-width="0.14813" stroke-linejoin="round"/>
<path fill-rule="evenodd" clip-rule="evenodd" d="M9.32324 4.8562C9.32324 4.8562 9.4498 4.8562 9.46387 4.79526C9.47793 4.7437 9.45449 4.6687 9.45449 4.6687C9.45449 4.6687 9.51543 4.7437 9.50137 4.79526C9.48262 4.85151 9.46387 4.86558 9.42168 4.87964C9.3871 4.88431 9.35201 4.87596 9.32324 4.8562Z" fill="#A3AFB8"/>
<path d="M9.79584 5.27033C9.79585 5.31484 9.77944 5.35756 9.75017 5.38928C9.72089 5.42099 9.6811 5.43915 9.63938 5.43984C9.59723 5.43984 9.55681 5.42198 9.52701 5.39019C9.49721 5.3584 9.48047 5.31529 9.48047 5.27033C9.48046 5.22583 9.49687 5.1831 9.52614 5.15139C9.55542 5.11968 9.59521 5.10151 9.63693 5.10083C9.67908 5.10083 9.7195 5.11869 9.7493 5.15048C9.7791 5.18226 9.79584 5.22538 9.79584 5.27033Z" fill="#EEEEEE" stroke="#1E1E1E" stroke-width="0.14813" stroke-linejoin="round"/>
<path fill-rule="evenodd" clip-rule="evenodd" d="M9.5625 5.35786C9.5625 5.35786 9.69375 5.35786 9.70312 5.30161C9.71719 5.24536 9.69844 5.17505 9.69844 5.17505C9.69844 5.17505 9.75937 5.24536 9.74531 5.30161C9.72187 5.35786 9.70781 5.37192 9.66094 5.3813C9.63281 5.39067 9.59063 5.3813 9.56719 5.35786H9.5625Z" fill="#A3AFB8"/>
<path d="M10.0711 5.90918C10.0819 5.95217 10.0823 5.99627 10.0722 6.03198C10.0622 6.06768 10.0425 6.09211 10.0174 6.1C9.99187 6.10729 9.96305 6.09704 9.93728 6.0715C9.91151 6.04595 9.89091 6.0072 9.88 5.96378C9.86919 5.92079 9.86877 5.87668 9.87881 5.84098C9.88885 5.80528 9.90855 5.78084 9.93366 5.77296C9.95919 5.76566 9.98801 5.77591 10.0138 5.80146C10.0395 5.82701 10.0602 5.86575 10.0711 5.90918Z" fill="#EEEEEE" stroke="#1E1E1E" stroke-width="0.149347" stroke-linejoin="round"/>
<path fill-rule="evenodd" clip-rule="evenodd" d="M9.95117 6.03286C9.95117 6.03286 10.0262 6.00942 10.0215 5.95317C10.0215 5.89692 9.98867 5.8313 9.98867 5.8313C9.98867 5.8313 10.0402 5.89224 10.0449 5.94849C10.0449 6.00474 10.0402 6.0188 10.0168 6.04224C10.0027 6.05161 9.96992 6.04692 9.95117 6.03286Z" fill="#A3AFB8"/>
<path d="M14.1481 5.94047C14.1381 5.98368 14.1185 6.02253 14.0936 6.04863C14.0686 6.07472 14.0403 6.08597 14.0147 6.07995C13.9891 6.07319 13.9685 6.04937 13.9575 6.01373C13.9465 5.97809 13.946 5.93355 13.9561 5.88991C13.9661 5.8467 13.9856 5.80785 14.0106 5.78175C14.0355 5.75565 14.0639 5.7444 14.0894 5.75043C14.1151 5.75718 14.1357 5.781 14.1467 5.81664C14.1577 5.85228 14.1582 5.89683 14.1481 5.94047Z" fill="#EEEEEE" stroke="#1E1E1E" stroke-width="0.149341" stroke-linejoin="round"/>
<path fill-rule="evenodd" clip-rule="evenodd" d="M13.9824 5.99067C13.9824 5.99067 14.0621 6.00942 14.0809 5.95786C14.1043 5.9063 14.1043 5.8313 14.1043 5.8313C14.1043 5.8313 14.1277 5.91099 14.1043 5.96255C14.0809 6.01411 14.0668 6.02349 14.0387 6.02817C14.0199 6.02817 13.9918 6.00942 13.9824 5.99067Z" fill="#A3AFB8"/>
<path fill-rule="evenodd" clip-rule="evenodd" d="M11.8456 2.6906L11.8597 2.97185C11.8597 2.97185 11.5409 3.00466 11.5316 3.03748C11.4659 3.18279 11.6019 3.37966 11.6019 3.37966C11.6019 3.37966 11.7097 3.29529 11.9769 3.29529C12.2347 3.29529 12.3659 3.3656 12.3659 3.3656C12.3659 3.3656 12.4316 3.24841 12.4316 3.16404C12.4316 3.07966 12.4034 2.99529 12.4034 2.99529L12.2347 2.97654H12.1175L12.1081 2.68591L11.8456 2.6906Z" fill="#B3A192" stroke="black" stroke-width="0.15"/>
<path d="M12.2998 3.13123C12.2998 3.16404 12.2717 3.19216 12.2436 3.19216C12.2354 3.19288 12.2271 3.19179 12.2194 3.18898C12.2117 3.18618 12.2047 3.18171 12.1989 3.1759C12.1931 3.17009 12.1886 3.16308 12.1858 3.15537C12.183 3.14765 12.1819 3.13941 12.1826 3.13123C12.1826 3.11631 12.1885 3.102 12.1991 3.09145C12.2096 3.0809 12.2239 3.07498 12.2389 3.07498C12.2466 3.07433 12.2545 3.0753 12.2618 3.07783C12.2692 3.08037 12.276 3.08441 12.2817 3.0897C12.2874 3.09499 12.292 3.10141 12.2951 3.10856C12.2982 3.11571 12.2998 3.12343 12.2998 3.13123ZM12.4264 3.16404C12.4264 3.19685 12.4029 3.22498 12.3701 3.22498C12.3373 3.22498 12.3092 3.19685 12.3092 3.16404C12.3092 3.15604 12.3108 3.14811 12.3138 3.14072C12.3169 3.13333 12.3214 3.12661 12.327 3.12095C12.3327 3.11529 12.3394 3.1108 12.3468 3.10774C12.3542 3.10468 12.3621 3.1031 12.3701 3.1031C12.4029 3.1031 12.4264 3.13123 12.4264 3.16404ZM12.1686 3.13123C12.1686 3.16404 12.1404 3.18748 12.1123 3.18748C12.0795 3.18748 12.0561 3.16404 12.0561 3.13123C12.0554 3.12383 12.0562 3.11639 12.0585 3.10932C12.0607 3.10225 12.0644 3.09569 12.0692 3.09003C12.0739 3.08436 12.0798 3.0797 12.0864 3.07631C12.093 3.07293 12.1002 3.07088 12.1076 3.07029C12.1158 3.06957 12.124 3.07066 12.1318 3.07347C12.1395 3.07628 12.1465 3.08074 12.1523 3.08655C12.1581 3.09236 12.1626 3.09937 12.1654 3.10709C12.1682 3.1148 12.1693 3.12304 12.1686 3.13123ZM11.9061 3.13123C11.9061 3.16873 11.8779 3.19216 11.8451 3.19216C11.8123 3.19216 11.7889 3.16873 11.7889 3.13591C11.7889 3.09841 11.8123 3.07498 11.8451 3.07498C11.8779 3.07498 11.9061 3.09841 11.9061 3.13123ZM11.7607 3.14529C11.7607 3.1781 11.7326 3.20623 11.6998 3.20623C11.667 3.20623 11.6436 3.1781 11.6436 3.14529C11.6436 3.11248 11.667 3.08435 11.6998 3.08435C11.7326 3.08435 11.7607 3.11248 11.7607 3.14529ZM12.0279 2.97185C12.0279 2.99998 12.0045 3.01873 11.9811 3.01873C11.9745 3.01938 11.9679 3.01866 11.9617 3.0166C11.9554 3.01454 11.9497 3.01119 11.9448 3.00677C11.94 3.00235 11.9361 2.99696 11.9335 2.99094C11.9308 2.98493 11.9295 2.97842 11.9295 2.97185C11.9288 2.96531 11.9296 2.95871 11.9316 2.95247C11.9337 2.94623 11.937 2.94049 11.9414 2.93563C11.9459 2.93077 11.9513 2.92689 11.9573 2.92425C11.9633 2.9216 11.9698 2.92026 11.9764 2.92029C11.9888 2.92029 12.0007 2.92523 12.0095 2.93402C12.0183 2.94281 12.0232 2.95473 12.0232 2.96716M12.0232 2.73279C12.0232 2.76091 12.0045 2.77966 11.9764 2.77966C11.9639 2.77966 11.952 2.77472 11.9432 2.76593C11.9344 2.75714 11.9295 2.74522 11.9295 2.73279C11.9295 2.72036 11.9344 2.70843 11.9432 2.69964C11.952 2.69085 11.9639 2.68591 11.9764 2.68591C11.9888 2.68591 12.0007 2.69085 12.0095 2.69964C12.0183 2.70843 12.0232 2.72036 12.0232 2.73279ZM12.0232 2.85935C12.0232 2.88748 12.0045 2.91091 11.9764 2.91091C11.9639 2.91091 11.952 2.90597 11.9432 2.89718C11.9344 2.88839 11.9295 2.87647 11.9295 2.86404C11.9281 2.85715 11.9282 2.85003 11.93 2.84321C11.9317 2.83639 11.9349 2.83005 11.9394 2.82464C11.9439 2.81924 11.9496 2.81492 11.956 2.812C11.9624 2.80909 11.9693 2.80765 11.9764 2.80779C11.9829 2.80776 11.9894 2.8091 11.9955 2.81175C12.0015 2.81439 12.0069 2.81827 12.0113 2.82313C12.0157 2.82799 12.0191 2.83373 12.0211 2.83997C12.0232 2.84621 12.0239 2.85281 12.0232 2.85935ZM11.6107 3.18748C11.6107 3.22029 11.5873 3.24373 11.5545 3.24373C11.5264 3.24373 11.4982 3.22029 11.4982 3.18748C11.4976 3.1797 11.4986 3.17188 11.5011 3.16451C11.5036 3.15713 11.5077 3.15036 11.513 3.14463C11.5183 3.1389 11.5247 3.13434 11.5318 3.13122C11.539 3.12811 11.5467 3.12651 11.5545 3.12654C11.5623 3.12651 11.57 3.12811 11.5772 3.13122C11.5843 3.13434 11.5907 3.1389 11.596 3.14463C11.6013 3.15036 11.6054 3.15713 11.6079 3.16451C11.6104 3.17188 11.6114 3.1797 11.6107 3.18748Z" fill="#F0DDCB"/>
<path d="M12.0279 2.97185C12.0279 2.99998 12.0045 3.01873 11.9811 3.01873C11.9745 3.01938 11.9679 3.01866 11.9617 3.0166C11.9554 3.01454 11.9497 3.01119 11.9448 3.00677C11.94 3.00235 11.9361 2.99696 11.9335 2.99094C11.9308 2.98493 11.9295 2.97842 11.9295 2.97185C11.9288 2.96531 11.9296 2.95871 11.9316 2.95247C11.9337 2.94623 11.937 2.94049 11.9414 2.93563C11.9459 2.93077 11.9513 2.92689 11.9573 2.92425C11.9633 2.9216 11.9698 2.92026 11.9764 2.92029C11.9888 2.92029 12.0007 2.92523 12.0095 2.93402C12.0183 2.94281 12.0232 2.95473 12.0232 2.96716M12.2998 3.13123C12.2998 3.16404 12.2717 3.19216 12.2436 3.19216C12.2354 3.19288 12.2271 3.19179 12.2194 3.18898C12.2117 3.18618 12.2047 3.18171 12.1989 3.1759C12.1931 3.17009 12.1886 3.16308 12.1858 3.15537C12.183 3.14765 12.1819 3.13941 12.1826 3.13123C12.1826 3.11631 12.1885 3.102 12.1991 3.09145C12.2096 3.0809 12.2239 3.07498 12.2389 3.07498C12.2466 3.07433 12.2545 3.0753 12.2618 3.07783C12.2692 3.08037 12.276 3.08441 12.2817 3.0897C12.2874 3.09499 12.292 3.10141 12.2951 3.10856C12.2982 3.11571 12.2998 3.12343 12.2998 3.13123ZM12.4264 3.16404C12.4264 3.19685 12.4029 3.22498 12.3701 3.22498C12.3373 3.22498 12.3092 3.19685 12.3092 3.16404C12.3092 3.15604 12.3108 3.14811 12.3138 3.14072C12.3169 3.13333 12.3214 3.12661 12.327 3.12095C12.3327 3.11529 12.3394 3.1108 12.3468 3.10774C12.3542 3.10468 12.3621 3.1031 12.3701 3.1031C12.4029 3.1031 12.4264 3.13123 12.4264 3.16404ZM12.1686 3.13123C12.1686 3.16404 12.1404 3.18748 12.1123 3.18748C12.0795 3.18748 12.0561 3.16404 12.0561 3.13123C12.0554 3.12383 12.0562 3.11639 12.0585 3.10932C12.0607 3.10225 12.0644 3.09569 12.0692 3.09003C12.0739 3.08436 12.0798 3.0797 12.0864 3.07631C12.093 3.07293 12.1002 3.07088 12.1076 3.07029C12.1158 3.06957 12.124 3.07066 12.1318 3.07347C12.1395 3.07628 12.1465 3.08074 12.1523 3.08655C12.1581 3.09236 12.1626 3.09937 12.1654 3.10709C12.1682 3.1148 12.1693 3.12304 12.1686 3.13123ZM11.9061 3.13123C11.9061 3.16873 11.8779 3.19216 11.8451 3.19216C11.8123 3.19216 11.7889 3.16873 11.7889 3.13591C11.7889 3.09841 11.8123 3.07498 11.8451 3.07498C11.8779 3.07498 11.9061 3.09841 11.9061 3.13123ZM11.7607 3.14529C11.7607 3.1781 11.7326 3.20623 11.6998 3.20623C11.667 3.20623 11.6436 3.1781 11.6436 3.14529C11.6436 3.11248 11.667 3.08435 11.6998 3.08435C11.7326 3.08435 11.7607 3.11248 11.7607 3.14529ZM12.0232 2.73279C12.0232 2.76091 12.0045 2.77966 11.9764 2.77966C11.9639 2.77966 11.952 2.77472 11.9432 2.76593C11.9344 2.75714 11.9295 2.74522 11.9295 2.73279C11.9295 2.72036 11.9344 2.70843 11.9432 2.69964C11.952 2.69085 11.9639 2.68591 11.9764 2.68591C11.9888 2.68591 12.0007 2.69085 12.0095 2.69964C12.0183 2.70843 12.0232 2.72036 12.0232 2.73279ZM12.0232 2.85935C12.0232 2.88748 12.0045 2.91091 11.9764 2.91091C11.9639 2.91091 11.952 2.90597 11.9432 2.89718C11.9344 2.88839 11.9295 2.87647 11.9295 2.86404C11.9281 2.85715 11.9282 2.85003 11.93 2.84321C11.9317 2.83639 11.9349 2.83005 11.9394 2.82464C11.9439 2.81924 11.9496 2.81492 11.956 2.812C11.9624 2.80909 11.9693 2.80765 11.9764 2.80779C11.9829 2.80776 11.9894 2.8091 11.9955 2.81175C12.0015 2.81439 12.0069 2.81827 12.0113 2.82313C12.0157 2.82799 12.0191 2.83373 12.0211 2.83997C12.0232 2.84621 12.0239 2.85281 12.0232 2.85935ZM11.6107 3.18748C11.6107 3.22029 11.5873 3.24373 11.5545 3.24373C11.5264 3.24373 11.4982 3.22029 11.4982 3.18748C11.4976 3.1797 11.4986 3.17188 11.5011 3.16451C11.5036 3.15713 11.5077 3.15036 11.513 3.14463C11.5183 3.1389 11.5247 3.13434 11.5318 3.13122C11.539 3.12811 11.5467 3.12651 11.5545 3.12654C11.5623 3.12651 11.57 3.12811 11.5772 3.13122C11.5843 3.13434 11.5907 3.1389 11.596 3.14463C11.6013 3.15036 11.6054 3.15713 11.6079 3.16451C11.6104 3.17188 11.6114 3.1797 11.6107 3.18748Z" stroke="#121116" stroke-width="0.075" stroke-linejoin="round"/>
<path d="M12.0426 3.11721C12.0426 3.15471 12.0145 3.18284 11.977 3.18284C11.9604 3.18165 11.9449 3.17422 11.9336 3.16203C11.9222 3.14985 11.916 3.13383 11.916 3.11721C11.9171 3.10141 11.9239 3.08654 11.9351 3.07534C11.9463 3.06414 11.9612 3.05737 11.977 3.05627C11.9936 3.05623 12.0096 3.0625 12.0218 3.07381C12.034 3.08512 12.0414 3.10063 12.0426 3.11721Z" fill="#916C68" stroke="#4D3126" stroke-width="0.075" stroke-linejoin="round"/>
<path d="M12.0947 2.27169C12.0947 2.30463 12.0826 2.33625 12.0609 2.35972C12.0393 2.38319 12.0098 2.39663 11.9789 2.39714C11.9477 2.39714 11.9178 2.38392 11.8958 2.3604C11.8737 2.33687 11.8613 2.30496 11.8613 2.27169C11.8613 2.23875 11.8735 2.20713 11.8951 2.18366C11.9168 2.16019 11.9463 2.14675 11.9771 2.14624C12.0083 2.14624 12.0382 2.15946 12.0603 2.18298C12.0823 2.20651 12.0947 2.23842 12.0947 2.27169Z" fill="#EEEEEE" stroke="#1E1E1E" stroke-width="0.149497" stroke-linejoin="round"/>
<path fill-rule="evenodd" clip-rule="evenodd" d="M11.9258 2.33911C11.9258 2.33911 12.0195 2.33911 12.0289 2.29224C12.0383 2.25474 12.0242 2.19849 12.0242 2.19849C12.0242 2.19849 12.0711 2.25474 12.057 2.29224C12.043 2.33911 12.0289 2.34849 12.0008 2.35317C11.988 2.35622 11.9747 2.35654 11.9618 2.35412C11.9489 2.3517 11.9366 2.34658 11.9258 2.33911Z" fill="#A3AFB8"/>
<path fill-rule="evenodd" clip-rule="evenodd" d="M10.125 6.5063C10.125 6.5063 10.2281 6.60943 10.2563 6.70318C10.2844 6.79693 10.3266 7.04536 10.3266 7.04536C10.3266 7.04536 11.4141 6.71724 11.9484 6.74536C12.4828 6.77349 13.7156 7.06411 13.7156 7.06411L13.7625 6.77349C13.7859 6.62349 13.8891 6.46411 13.8891 6.46411C13.8891 6.46411 12.7078 6.07036 11.9672 6.10786C11.2219 6.14536 10.8516 6.22974 10.6875 6.28599C10.4981 6.35455 10.3106 6.42801 10.125 6.5063Z" fill="#FFCC00" stroke="black" stroke-width="0.0625"/>
<path fill-rule="evenodd" clip-rule="evenodd" d="M11.752 1.80463H12.2207C12.2207 1.80463 12.1035 1.88901 12.0801 1.96869C12.0613 2.03901 12.066 2.15619 12.066 2.15619C12.066 2.15619 12.1926 2.15619 12.2535 2.10463L12.427 1.96401V2.59682C12.427 2.59682 12.3098 2.47963 12.2395 2.43744C12.1598 2.39057 12.0754 2.37651 12.0754 2.37651C12.0754 2.37651 12.0754 2.47963 12.1129 2.54057L12.3145 2.83119L11.6441 2.85932C11.6441 2.85932 11.8035 2.68119 11.8645 2.54994C11.9113 2.46557 11.8926 2.37651 11.8926 2.37651C11.8926 2.37651 11.7801 2.37651 11.7238 2.41869C11.6629 2.46088 11.5645 2.58744 11.5645 2.58744V1.97807C11.5645 1.97807 11.6113 2.09526 11.7051 2.13744C11.7988 2.18432 11.8832 2.16088 11.8832 2.16088C11.8832 2.16088 11.902 2.03901 11.8645 1.96401C11.8223 1.88432 11.7426 1.79994 11.752 1.80463Z" fill="#FFCC00" stroke="black" stroke-width="0.15"/>
<path fill-rule="evenodd" clip-rule="evenodd" d="M11.7145 3.8203C11.7145 3.8203 11.3817 3.8203 11.0957 3.63749C10.8098 3.45936 10.5192 3.27186 10.0973 3.37499C10.0129 3.39842 9.68948 3.54842 9.54885 4.03124C9.4551 4.37342 9.5676 4.78124 9.66604 4.96874C9.76916 5.15155 9.92854 5.33905 9.92854 5.33905L10.102 5.21249C10.102 5.21249 9.66135 4.81874 9.7176 4.30311C9.76448 3.78749 10.0082 3.6703 10.0082 3.6703C10.0082 3.6703 10.3082 3.42186 10.7067 3.65624C11.0735 3.86869 11.475 4.01468 11.8926 4.08749C11.9207 4.08749 11.7051 3.8203 11.7145 3.8203Z" fill="#FFCC00" stroke="#121116" stroke-width="0.15"/>
<path fill-rule="evenodd" clip-rule="evenodd" d="M9.86758 5.75156L9.68945 5.37656L10.2238 5.15625C10.2238 5.15625 10.0926 5.34375 10.0645 5.47031C10.027 5.62969 10.041 5.76562 10.041 5.76562C10.041 5.76562 10.0879 5.72344 10.1488 5.625C10.1957 5.54063 10.2707 5.25469 10.2707 5.25469L10.5098 6.07031C10.5098 6.07031 10.3879 5.93906 10.2988 5.925C10.2051 5.90625 10.0832 5.93906 10.0832 5.93906L9.94258 5.98594L9.86758 5.75156Z" fill="#FFCC00" stroke="black" stroke-width="0.15"/>
<path fill-rule="evenodd" clip-rule="evenodd" d="M12.3143 3.81563C12.3143 3.81563 12.6471 3.81563 12.933 3.62813C13.219 3.45001 13.5049 3.26251 13.9315 3.37032C14.0158 3.39376 14.3346 3.53907 14.4752 4.02657C14.5736 4.36407 14.4611 4.77657 14.358 4.96407L14.1893 5.2547L13.983 5.17501C13.983 5.17501 14.3627 4.80938 14.3111 4.29376C14.2596 3.77813 14.0205 3.66095 14.0205 3.66095C14.0205 3.66095 13.7205 3.41251 13.3221 3.64688C12.9236 3.88126 12.5346 3.98907 12.5346 3.98907C12.5346 3.98907 12.169 4.08282 12.1361 4.08282C12.1033 4.07813 12.3236 3.81095 12.3143 3.81563Z" fill="#FFCC00" stroke="#121116" stroke-width="0.15"/>
<path d="M12.1406 3.46404H12.2812V4.84685H12.1406V3.46404ZM11.6719 3.45935H11.8359V4.84216H11.6719V3.45935Z" fill="#FFCC00" stroke="#121116" stroke-width="0.15" stroke-linejoin="round"/>
<path d="M12.4309 3.13596C12.4302 3.19506 12.418 3.25346 12.3948 3.30782C12.3716 3.36218 12.338 3.41144 12.2957 3.4528C12.2535 3.49415 12.2036 3.52678 12.1487 3.54882C12.0939 3.57087 12.0353 3.5819 11.9762 3.58128C11.9171 3.5819 11.8584 3.57087 11.8036 3.54882C11.7488 3.52678 11.6988 3.49415 11.6566 3.4528C11.6144 3.41144 11.5807 3.36218 11.5575 3.30782C11.5343 3.25346 11.5221 3.19506 11.5215 3.13596C11.5227 3.01743 11.5707 2.90417 11.6549 2.82079C11.7392 2.73741 11.8529 2.69065 11.9715 2.69065C12.0306 2.68941 12.0893 2.69982 12.1444 2.72129C12.1995 2.74276 12.2498 2.77488 12.2925 2.81579C12.3351 2.85671 12.3693 2.90564 12.393 2.95977C12.4168 3.0139 12.4296 3.07218 12.4309 3.13128" fill="#FFCC00"/>
<path d="M12.4309 3.13596C12.4302 3.19506 12.418 3.25346 12.3948 3.30782C12.3716 3.36218 12.338 3.41144 12.2957 3.4528C12.2535 3.49415 12.2036 3.52678 12.1487 3.54882C12.0939 3.57087 12.0353 3.5819 11.9762 3.58128C11.9171 3.5819 11.8584 3.57087 11.8036 3.54882C11.7488 3.52678 11.6988 3.49415 11.6566 3.4528C11.6144 3.41144 11.5807 3.36218 11.5575 3.30782C11.5343 3.25346 11.5221 3.19506 11.5215 3.13596C11.5227 3.01743 11.5707 2.90417 11.6549 2.82079C11.7392 2.73741 11.8529 2.69065 11.9715 2.69065C12.0306 2.68941 12.0893 2.69982 12.1444 2.72129C12.1995 2.74276 12.2498 2.77488 12.2925 2.81579C12.3351 2.85671 12.3693 2.90564 12.393 2.95977C12.4168 3.0139 12.4296 3.07218 12.4309 3.13128" stroke="#121116" stroke-width="0.15" stroke-linejoin="round"/>
<path fill-rule="evenodd" clip-rule="evenodd" d="M11.5734 4.83745L12.3563 4.83276C12.3563 4.83276 12.2625 4.88901 12.1875 5.03901C12.1078 5.18901 12.1172 5.28276 12.1172 5.28276C12.1172 5.28276 12.2391 5.28276 12.3187 5.21245C12.4031 5.15151 12.4969 5.02495 12.4969 5.02495V5.79839C12.4969 5.79839 12.4359 5.69995 12.3422 5.63901C12.2484 5.58276 12.1172 5.58276 12.1172 5.58276H11.85C11.85 5.58276 11.7281 5.59214 11.6766 5.62964C11.6144 5.6778 11.5564 5.73112 11.5031 5.78901L11.4844 5.06245C11.4844 5.06245 11.5219 5.18901 11.6484 5.24058C11.775 5.29214 11.8453 5.28745 11.8453 5.28745C11.8453 5.28745 11.8453 5.12339 11.7797 5.03901C11.7141 4.95464 11.5688 4.84214 11.5688 4.83745H11.5734Z" fill="#FFCC00" stroke="black" stroke-width="0.125"/>
<path fill-rule="evenodd" clip-rule="evenodd" d="M12.009 5.43755C12.009 5.43755 12.1215 5.72349 12.2574 5.85005C12.3324 5.92505 12.5668 5.9813 12.6699 5.95317C12.9043 5.88755 13.073 5.68599 13.073 5.68599C13.073 5.68599 13.0637 5.9063 13.2137 6.02817C13.359 6.15005 13.4762 6.18286 13.598 6.14536C13.7246 6.10786 14.0668 5.83599 14.0668 5.83599L14.1418 5.90161C14.1418 5.90161 13.9402 6.10786 13.734 6.21567C13.6262 6.27192 13.298 6.2438 13.1949 6.15005C13.0871 6.06099 13.0262 5.84536 13.0262 5.84536C13.0262 5.84536 12.9605 5.98599 12.8199 6.03286C12.6793 6.07974 12.4918 6.07974 12.309 6.02349C12.1918 5.98599 12.0324 5.81255 12.0043 5.75161C11.9762 5.69536 11.9855 5.65786 11.9855 5.65786C11.9855 5.65786 11.8918 5.92974 11.7137 6.00474C11.5412 6.07121 11.3513 6.07781 11.1746 6.02349C11.0059 5.97192 10.9918 5.8688 10.9918 5.8688C10.9918 5.8688 10.9824 6.15005 10.6168 6.23442C10.2418 6.3188 9.95117 6.02817 9.95117 6.02817L10.0027 5.94849C10.0027 5.94849 10.209 6.19692 10.5277 6.17349C10.8465 6.15005 10.9496 5.71411 10.9496 5.71411C10.9496 5.71411 11.0902 5.9438 11.4652 5.94849C11.8355 5.94849 11.9434 5.43286 11.9434 5.43286L12.009 5.44224V5.43755Z" fill="#F6CA1F" stroke="black" stroke-width="0.125"/>
<path fill-rule="evenodd" clip-rule="evenodd" d="M11.09 5.60576C11.09 5.60576 11.09 5.46755 11.1194 5.42582C11.132 5.40453 11.1506 5.38803 11.1726 5.37867C11.1945 5.36931 11.2187 5.36756 11.2416 5.37367C11.2734 5.3841 11.3101 5.41539 11.3027 5.51188C11.2978 5.60836 11.2734 5.6553 11.3003 5.69181C11.3247 5.72832 11.3296 5.75179 11.3834 5.74397C11.4323 5.73614 11.4567 5.71789 11.4445 5.66574C11.4347 5.61358 11.4201 5.67095 11.4079 5.62662C11.3981 5.58489 11.4592 5.39974 11.4494 5.285C11.4396 5.17287 11.4005 5.0816 11.3198 5.06074C11.2441 5.03987 11.178 5.03988 11.1071 5.09464C11.0452 5.16136 10.9932 5.23788 10.9531 5.32151V5.69442L11.0925 5.68399L11.09 5.60576Z" fill="#FFCC00" stroke="black" stroke-width="0.14813"/>
<path fill-rule="evenodd" clip-rule="evenodd" d="M10.8261 5.70481C10.8261 5.70481 10.7699 5.57964 10.7283 5.55356C10.709 5.54004 10.6862 5.53306 10.6631 5.53352C10.64 5.53399 10.6176 5.54188 10.5987 5.55617C10.5743 5.58225 10.5523 5.62397 10.5938 5.71264C10.6354 5.79608 10.6745 5.82999 10.6647 5.87432C10.6525 5.91865 10.6598 5.94212 10.6085 5.95776C10.5572 5.97341 10.5303 5.96559 10.5205 5.91343C10.5132 5.86128 10.5474 5.90561 10.54 5.86128C10.5327 5.81955 10.408 5.67352 10.3762 5.564C10.342 5.45969 10.3445 5.35538 10.4105 5.30322C10.4716 5.25107 10.5327 5.22499 10.6158 5.24585C10.699 5.2641 10.8432 5.38667 10.8432 5.38667L10.985 5.72568L10.8505 5.77783L10.8261 5.70481Z" fill="#FFCC00" stroke="black" stroke-width="0.14813"/>
<path fill-rule="evenodd" clip-rule="evenodd" d="M10.7988 4.60437C10.7988 4.60437 10.6595 4.85211 10.6912 5.04247C10.7206 5.23284 10.9064 5.64226 10.9064 5.64226V5.69441L11.0042 5.68398L10.9846 5.62661C10.9846 5.62661 11.0335 5.13896 11.0017 4.9851C10.9797 4.87036 10.7988 4.60698 10.7988 4.60437ZM11.0188 5.73613C11.0188 5.73613 11.0873 5.8248 11.1704 5.86652C11.2584 5.91346 11.2975 5.91346 11.3318 5.88478C11.3562 5.86391 11.3489 5.77525 11.3195 5.74917C11.2878 5.7257 11.2535 5.73874 11.2462 5.76221C11.2389 5.80393 11.2266 5.80133 11.1973 5.78568L11.0628 5.69963L11.0188 5.73613ZM10.9113 5.757C10.9113 5.757 10.8819 5.86652 10.8233 5.93954C10.7597 6.02299 10.7255 6.04124 10.6815 6.03081C10.6497 6.02299 10.6252 5.93693 10.6423 5.90042C10.6619 5.86391 10.6986 5.86131 10.7108 5.88217C10.7353 5.91346 10.7475 5.90825 10.767 5.88217C10.7981 5.83594 10.8283 5.78899 10.8575 5.74135L10.9113 5.757Z" fill="#FFCC00" stroke="black" stroke-width="0.14813"/>
<path d="M11.1787 5.66935C11.1836 5.70021 11.0912 5.74319 10.9754 5.76391C10.8597 5.78462 10.7568 5.77659 10.7491 5.74359C10.7443 5.71273 10.8367 5.66975 10.9548 5.64861C11.073 5.62746 11.1734 5.63592 11.1783 5.66678" fill="#FFCC00"/>
<path d="M11.1787 5.66935C11.1836 5.70021 11.0912 5.74319 10.9754 5.76391C10.8597 5.78462 10.7568 5.77659 10.7491 5.74359C10.7443 5.71273 10.8367 5.66975 10.9548 5.64861C11.073 5.62746 11.1734 5.63592 11.1783 5.66678" stroke="black" stroke-width="0.148148" stroke-linejoin="round"/>
<path fill-rule="evenodd" clip-rule="evenodd" d="M13.2036 5.66122C13.2036 5.66122 13.249 5.53179 13.2902 5.50369C13.3091 5.48848 13.3319 5.47999 13.3556 5.47943C13.3792 5.47888 13.4024 5.48627 13.4218 5.50057C13.4482 5.52223 13.4722 5.56525 13.4336 5.65287C13.3973 5.7414 13.359 5.77621 13.3722 5.82046C13.3831 5.8638 13.3799 5.88761 13.4329 5.9004C13.4812 5.91137 13.5101 5.90342 13.5158 5.85C13.5238 5.7975 13.4912 5.84574 13.4944 5.79965C13.4989 5.75692 13.617 5.60638 13.6456 5.49527C13.6733 5.3866 13.6667 5.28649 13.598 5.23677C13.5339 5.18888 13.472 5.16419 13.3876 5.18896C13.3077 5.22826 13.2339 5.28049 13.1688 5.34381L13.0462 5.69304L13.1802 5.7354L13.2036 5.66122Z" fill="#FFCC00" stroke="black" stroke-width="0.148198"/>
<path fill-rule="evenodd" clip-rule="evenodd" d="M12.9241 5.65522C12.9241 5.65522 12.9126 5.51696 12.8823 5.47699C12.8686 5.45709 12.8496 5.44206 12.8278 5.43385C12.806 5.42563 12.7824 5.42463 12.7601 5.43096C12.7286 5.44624 12.6943 5.47708 12.704 5.57566C12.7155 5.66936 12.741 5.71574 12.7173 5.7536C12.6913 5.79055 12.6904 5.81527 12.6372 5.81072C12.584 5.80616 12.5614 5.78878 12.5693 5.73628C12.5796 5.68469 12.5971 5.73901 12.6048 5.69475C12.6117 5.65293 12.5429 5.46953 12.5492 5.35507C12.5514 5.24457 12.588 5.1478 12.6669 5.12365C12.7413 5.09767 12.8071 5.09611 12.8781 5.14674C12.95 5.19493 13.0447 5.36367 13.0447 5.36367L13.0661 5.7342L12.923 5.73274L12.9241 5.65522Z" fill="#FFCC00" stroke="black" stroke-width="0.148198"/>
<path fill-rule="evenodd" clip-rule="evenodd" d="M13.2602 4.61459C13.2602 4.61459 13.0482 4.79447 13.0154 4.98464C12.9803 5.17389 13.0197 5.62682 13.0197 5.62682L13.0026 5.67567L13.0976 5.70248L13.0981 5.64143C13.0981 5.64143 13.3042 5.20303 13.3251 5.04706C13.3422 4.93137 13.2593 4.61703 13.2602 4.61459ZM13.0942 5.75681C13.0942 5.75681 13.1291 5.86545 13.1933 5.93562C13.2602 6.0125 13.2969 6.02713 13.3384 6.01307C13.3681 6.00268 13.3904 5.9169 13.3715 5.88151C13.3494 5.84764 13.3131 5.84705 13.2985 5.86628C13.2779 5.90261 13.2673 5.8956 13.245 5.86997L13.1474 5.73908L13.0942 5.75681ZM12.9866 5.73611C12.9866 5.73611 12.9231 5.8277 12.8441 5.87414C12.7572 5.92851 12.7191 5.9328 12.6813 5.90657C12.6541 5.88735 12.6595 5.79762 12.6876 5.76983C12.7179 5.74295 12.7531 5.75423 12.7577 5.77834C12.7703 5.81679 12.7834 5.81648 12.8103 5.79937C12.8547 5.76772 12.8984 5.73503 12.9413 5.70133L12.9866 5.73611Z" fill="#FFCC00" stroke="black" stroke-width="0.148198"/>
<path d="M13.2612 5.75613C13.2556 5.78685 13.1549 5.79253 13.0397 5.76864C12.9245 5.74474 12.8308 5.69873 12.8345 5.66496C12.8401 5.63424 12.9407 5.62856 13.0583 5.65295C13.1759 5.67734 13.2672 5.72285 13.2616 5.75357" fill="#FFCC00"/>
<path d="M13.2612 5.75613C13.2556 5.78685 13.1549 5.79253 13.0397 5.76864C12.9245 5.74474 12.8308 5.69873 12.8345 5.66496C12.8401 5.63424 12.9407 5.62856 13.0583 5.65295C13.1759 5.67734 13.2672 5.72285 13.2616 5.75357" stroke="black" stroke-width="0.148153" stroke-linejoin="round"/>
<path fill-rule="evenodd" clip-rule="evenodd" d="M10.0783 6.49221C10.0783 6.49221 10.1064 6.59534 10.1626 6.53909C10.2142 6.49221 10.9689 6.17346 12.0283 6.17346C13.0876 6.17346 13.7908 6.48284 13.8329 6.50159C13.8751 6.52034 13.8939 6.54846 13.9267 6.50159C13.9642 6.4594 13.8939 6.38909 13.8939 6.38909C13.8939 6.38909 13.1533 6.05627 12.0001 6.06096C10.8423 6.06096 10.097 6.41721 10.097 6.41721C10.097 6.41721 10.0501 6.45471 10.0829 6.49221H10.0783Z" fill="#CCA715" stroke="black" stroke-width="0.0625"/>
<path fill-rule="evenodd" clip-rule="evenodd" d="M11.4281 6.96566C11.4281 6.96566 11.4656 6.86254 11.5219 6.84379C11.5688 6.82973 11.6437 6.88129 11.6437 6.88129C11.6437 6.88129 11.5547 6.87191 11.5266 6.88597C11.5031 6.90472 11.4937 6.94691 11.4937 6.94691C11.4937 6.94691 11.5125 6.9141 11.5828 6.9141L11.6578 6.91879C11.6578 6.91879 11.5406 6.92816 11.5172 6.96566C11.4891 6.99848 11.625 7.01254 11.625 7.01254C11.625 7.01254 11.4141 7.01722 11.3906 7.00316C11.3578 6.9891 11.3438 6.94691 11.2969 6.95629C11.25 6.97504 11.2031 7.01723 11.2031 7.01723C11.2031 7.01723 11.25 6.92348 11.2875 6.92348C11.3203 6.92348 11.3391 6.92347 11.3719 6.93285C11.4047 6.94222 11.4281 6.96566 11.4281 6.96566ZM10.6453 7.14848C10.6453 7.14848 10.6594 7.04066 10.7156 7.00785C10.7625 6.98441 10.8422 7.02191 10.8422 7.02191C10.8422 7.02191 10.7484 7.0266 10.725 7.05004C10.7063 7.07347 10.7062 7.11566 10.7062 7.11566C10.7062 7.11566 10.7156 7.07816 10.7859 7.06879L10.8609 7.05473C10.8609 7.05473 10.7484 7.08754 10.7297 7.12973C10.7062 7.17191 10.8469 7.15785 10.8469 7.15785C10.8469 7.15785 10.6406 7.20473 10.6125 7.19535C10.5797 7.18598 10.5562 7.14847 10.5094 7.16722C10.4672 7.19066 10.4297 7.24223 10.4297 7.24223C10.4297 7.24223 10.4672 7.1391 10.5 7.12973C10.5328 7.12504 10.5469 7.12035 10.5844 7.12973C10.6172 7.13441 10.6453 7.14848 10.6453 7.14848ZM12.0938 6.92816C12.0938 6.92816 12.1313 6.82972 12.1875 6.81566C12.2391 6.8016 12.3094 6.85316 12.3094 6.85316C12.3094 6.85316 12.2203 6.84379 12.1922 6.85316C12.1688 6.87191 12.1547 6.9141 12.1547 6.9141C12.1547 6.9141 12.1781 6.88129 12.2484 6.89066L12.3234 6.89535C12.3234 6.89535 12.2062 6.89535 12.1781 6.93285C12.15 6.96566 12.2859 6.99379 12.2859 6.99379C12.2859 6.99379 12.075 6.97973 12.0516 6.96566C12.0234 6.9516 12.0047 6.90473 11.9578 6.9141C11.9109 6.92348 11.8641 6.96566 11.8641 6.96566C11.8641 6.96566 11.9203 6.87191 11.9531 6.87191C11.9859 6.8766 12.0047 6.8766 12.0375 6.89535L12.0938 6.92816ZM12.7547 7.00785C12.7547 7.00785 12.8016 6.9141 12.8672 6.90941C12.9141 6.90004 12.9797 6.96098 12.9797 6.96098C12.9797 6.96098 12.8953 6.93754 12.8625 6.94691C12.8344 6.96098 12.8203 7.00316 12.8203 7.00316C12.8203 7.00316 12.8438 6.97035 12.9141 6.9891L12.9891 7.00316C12.9891 7.00316 12.8719 6.99379 12.8391 7.02191C12.8062 7.05473 12.9375 7.09691 12.9375 7.09691C12.9375 7.09691 12.7313 7.05941 12.7031 7.04066C12.6844 7.02191 12.6703 6.97035 12.6234 6.97504C12.5766 6.97973 12.5203 7.02191 12.5203 7.02191C12.5203 7.02191 12.5906 6.93285 12.6234 6.93754C12.6562 6.94223 12.675 6.94691 12.7031 6.96566L12.7547 7.00785ZM13.4109 7.13441C13.4109 7.13441 13.4578 7.0641 13.5094 7.05941C13.5516 7.05941 13.5984 7.11566 13.5984 7.11566C13.5984 7.11566 13.5281 7.08754 13.5047 7.09691C13.4813 7.09691 13.4672 7.13441 13.4672 7.13441C13.4672 7.13441 13.4906 7.11098 13.5422 7.12973L13.6031 7.14848C13.6031 7.14848 13.5094 7.12973 13.4813 7.14848C13.4531 7.17191 13.5563 7.21879 13.5563 7.21879C13.5563 7.21879 13.3922 7.17191 13.3688 7.15316C13.3547 7.1391 13.35 7.09691 13.3125 7.09691C13.2703 7.09691 13.2234 7.12504 13.2234 7.12504C13.2234 7.12504 13.2844 7.05941 13.3125 7.06879C13.3359 7.07348 13.3547 7.07816 13.3734 7.09691L13.4156 7.13441H13.4109Z" fill="black"/>
<path d="M11.2974 6.48752C11.3161 6.5719 11.2224 6.66096 11.0911 6.68908C10.9645 6.71721 10.8427 6.67033 10.8286 6.58596C10.8145 6.50158 10.9036 6.41252 11.0349 6.3844C11.1661 6.35627 11.2833 6.40315 11.2974 6.48752Z" fill="#0F6545" stroke="black" stroke-width="0.0875" stroke-linejoin="round"/>
<path d="M11.0063 6.46875C11.0063 6.49219 10.9875 6.51563 10.9594 6.52032C10.9313 6.525 10.9031 6.51563 10.8984 6.49688C10.8984 6.47344 10.9172 6.45 10.9453 6.45C10.9734 6.44063 11.0016 6.45 11.0063 6.47344V6.46875Z" fill="#CECFC1"/>
<path d="M13.1301 6.58589C13.1066 6.67026 12.9894 6.70307 12.8582 6.66089C12.7316 6.61401 12.6519 6.52026 12.6707 6.43589C12.6988 6.35151 12.8207 6.3187 12.9473 6.36089C13.0738 6.40776 13.1582 6.50151 13.1348 6.58589H13.1301Z" fill="#0F6545" stroke="black" stroke-width="0.0875" stroke-linejoin="round"/>
<path d="M12.8812 6.42182C12.8718 6.44526 12.8484 6.45463 12.8202 6.44526C12.7921 6.43588 12.7734 6.41244 12.7781 6.38901C12.7827 6.37026 12.8109 6.36088 12.839 6.37025C12.8671 6.37963 12.8859 6.40307 12.8812 6.42651V6.42182Z" fill="#CECFC1"/>
<path d="M11.7471 6.29529H12.2205V6.5531H11.7471V6.29529Z" fill="#1F2D86" stroke="black" stroke-width="0.125" stroke-linejoin="round"/>
<path d="M11.9482 6.35151C11.9482 6.36558 11.9248 6.37495 11.9014 6.37495C11.8779 6.37495 11.8545 6.36089 11.8545 6.35151C11.8545 6.34214 11.8779 6.33276 11.9014 6.33276C11.9248 6.33276 11.9482 6.34214 11.9482 6.35151Z" fill="#707C8B"/>
<path fill-rule="evenodd" clip-rule="evenodd" d="M10.4062 6.55313L10.4812 6.80157L10.3405 6.88594C10.3405 6.88594 10.2702 6.93282 10.1999 6.89532C10.139 6.85782 10.0968 6.74532 10.1343 6.69844C10.2046 6.60469 10.4015 6.54844 10.4015 6.55313H10.4062Z" fill="#9F1209" stroke="black" stroke-width="0.0625"/>
<path d="M10.2797 6.7313C10.2797 6.7688 10.2516 6.8063 10.2141 6.8063C10.1766 6.8063 10.1484 6.7688 10.1484 6.7313C10.1484 6.68442 10.1766 6.65161 10.2141 6.65161C10.2516 6.65161 10.2797 6.68911 10.2797 6.72661V6.7313Z" fill="#8F322F"/>
<path d="M10.2188 6.70314C10.2188 6.71328 10.2155 6.72315 10.2094 6.73127C10.2047 6.74064 10.1953 6.74064 10.186 6.73595C10.1766 6.73595 10.1719 6.72189 10.1672 6.70783C10.1661 6.6961 10.1694 6.68439 10.1766 6.67502C10.1793 6.67163 10.1832 6.66931 10.1875 6.66845C10.1917 6.6676 10.1962 6.66826 10.2 6.67033C10.2094 6.67033 10.2188 6.68439 10.2188 6.69845V6.70314Z" fill="#E2A494"/>
<path fill-rule="evenodd" clip-rule="evenodd" d="M13.5895 6.58594L13.5098 6.80625L13.6973 6.90937C13.6973 6.90937 13.777 6.94687 13.8285 6.9C13.8754 6.85781 13.8848 6.75937 13.8473 6.7125C13.8145 6.66562 13.5848 6.58594 13.5895 6.58594Z" fill="#9F1209" stroke="black" stroke-width="0.0625"/>
<path d="M13.8096 6.76409C13.8096 6.78752 13.7814 6.81096 13.7486 6.81096C13.7158 6.81096 13.6924 6.78752 13.6924 6.76409C13.6924 6.73596 13.7205 6.71252 13.7486 6.71252C13.7814 6.71252 13.8096 6.73596 13.8096 6.7594V6.76409Z" fill="#AA675D"/>
<path d="M13.7527 6.74998C13.7527 6.76873 13.748 6.7781 13.7386 6.78748C13.7346 6.79052 13.7296 6.79216 13.7246 6.79216C13.7195 6.79216 13.7146 6.79052 13.7105 6.78748C13.7056 6.78361 13.7018 6.77858 13.6993 6.77285C13.6969 6.76712 13.6959 6.76087 13.6964 6.75466C13.6964 6.7406 13.7011 6.73123 13.7105 6.72185C13.7146 6.71881 13.7195 6.71716 13.7246 6.71716C13.7296 6.71716 13.7346 6.71881 13.7386 6.72185C13.748 6.73123 13.7527 6.7406 13.7527 6.75466V6.74998Z" fill="#E2A494"/>
<path d="M12.403 6.31879C12.403 6.32353 12.402 6.32821 12.4001 6.33254C12.3982 6.33686 12.3953 6.34071 12.3918 6.34382C12.3882 6.34694 12.384 6.34925 12.3795 6.35059C12.3749 6.35194 12.3701 6.35228 12.3655 6.35161C12.3568 6.35161 12.3484 6.34815 12.3423 6.342C12.3361 6.33584 12.3327 6.3275 12.3327 6.31879C12.3327 6.31009 12.3361 6.30175 12.3423 6.29559C12.3484 6.28944 12.3568 6.28598 12.3655 6.28598C12.3701 6.2853 12.3749 6.28565 12.3795 6.28699C12.384 6.28834 12.3882 6.29065 12.3918 6.29376C12.3953 6.29688 12.3982 6.30073 12.4001 6.30505C12.402 6.30937 12.403 6.31406 12.403 6.31879ZM12.6045 6.33286C12.6045 6.34156 12.6011 6.3499 12.5949 6.35606C12.5888 6.36221 12.5804 6.36567 12.5717 6.36567C12.567 6.36635 12.5623 6.366 12.5577 6.36466C12.5532 6.36331 12.549 6.361 12.5454 6.35789C12.5419 6.35477 12.539 6.35092 12.5371 6.3466C12.5351 6.34228 12.5342 6.33759 12.5342 6.33286C12.5342 6.32812 12.5351 6.32343 12.5371 6.31911C12.539 6.31479 12.5419 6.31094 12.5454 6.30783C12.549 6.30471 12.5532 6.3024 12.5577 6.30106C12.5623 6.29971 12.567 6.29937 12.5717 6.30004C12.5804 6.30004 12.5888 6.3035 12.5949 6.30965C12.6011 6.31581 12.6045 6.32415 12.6045 6.33286ZM12.5014 6.41723C12.5014 6.42319 12.5002 6.42909 12.4978 6.43454C12.4954 6.43999 12.4919 6.44486 12.4874 6.44885C12.483 6.45284 12.4778 6.45584 12.4721 6.45766C12.4664 6.45948 12.4604 6.46008 12.4545 6.45942C12.449 6.45884 12.4436 6.45716 12.4387 6.45448C12.4338 6.4518 12.4295 6.44818 12.426 6.44382C12.4225 6.43946 12.4199 6.43445 12.4184 6.42908C12.4168 6.42371 12.4164 6.41809 12.417 6.41254C12.417 6.39379 12.4358 6.37504 12.4592 6.37504C12.4826 6.37504 12.5014 6.39379 12.5014 6.41723ZM12.5952 6.55786C12.5952 6.5658 12.5924 6.57351 12.5873 6.57955C12.5821 6.58558 12.5749 6.58953 12.567 6.59067C12.5623 6.59135 12.5576 6.591 12.553 6.58966C12.5485 6.58831 12.5443 6.586 12.5407 6.58289C12.5372 6.57977 12.5343 6.57592 12.5324 6.5716C12.5305 6.56728 12.5295 6.56259 12.5295 6.55786C12.5288 6.55317 12.5292 6.5484 12.5305 6.54386C12.5319 6.53932 12.5342 6.53512 12.5373 6.53156C12.5404 6.528 12.5443 6.52515 12.5486 6.52322C12.5529 6.52128 12.5576 6.52031 12.5623 6.52036C12.5674 6.51956 12.5727 6.51997 12.5776 6.52157C12.5825 6.52318 12.587 6.52591 12.5906 6.52957C12.5943 6.53323 12.597 6.53769 12.5986 6.54261C12.6002 6.54752 12.6006 6.55275 12.5998 6.55786H12.5952ZM12.403 6.52973C12.403 6.53843 12.3995 6.54678 12.3934 6.55293C12.3872 6.55909 12.3789 6.56254 12.3701 6.56254C12.3614 6.56254 12.3531 6.55909 12.3469 6.55293C12.3408 6.54678 12.3373 6.53843 12.3373 6.52973C12.3373 6.52103 12.3408 6.51268 12.3469 6.50653C12.3531 6.50038 12.3614 6.49692 12.3701 6.49692C12.3789 6.49692 12.3872 6.50038 12.3934 6.50653C12.3995 6.51268 12.403 6.52103 12.403 6.52973ZM11.4233 6.35629C11.4247 6.3606 11.4252 6.36515 11.4248 6.36967C11.4244 6.37418 11.423 6.37856 11.4208 6.38252C11.4186 6.38649 11.4156 6.38995 11.412 6.3927C11.4084 6.39545 11.4042 6.39741 11.3998 6.39848C11.3952 6.39989 11.3903 6.40025 11.3855 6.39955C11.3807 6.39884 11.3761 6.39708 11.3721 6.39439C11.3681 6.3917 11.3647 6.38815 11.3622 6.38399C11.3597 6.37984 11.3581 6.37518 11.3577 6.37036C11.357 6.36604 11.3572 6.36164 11.3583 6.3574C11.3593 6.35317 11.3612 6.34919 11.3638 6.3457C11.3665 6.3422 11.3697 6.33927 11.3735 6.33707C11.3773 6.33486 11.3814 6.33343 11.3858 6.33286C11.3938 6.33139 11.4021 6.33297 11.4091 6.33731C11.416 6.34164 11.4211 6.34842 11.4233 6.35629ZM11.6248 6.31879C11.6262 6.32343 11.6266 6.32833 11.6259 6.33312C11.6252 6.33792 11.6234 6.3425 11.6207 6.34653C11.6181 6.35057 11.6145 6.35396 11.6103 6.35645C11.6062 6.35895 11.6015 6.3605 11.5967 6.36098C11.5887 6.36245 11.5804 6.36086 11.5734 6.35653C11.5665 6.35219 11.5614 6.34542 11.5592 6.33754C11.557 6.33299 11.5558 6.32798 11.5558 6.3229C11.5558 6.31782 11.557 6.31281 11.5592 6.30826C11.5615 6.30372 11.5648 6.29976 11.5689 6.29671C11.5729 6.29366 11.5777 6.29159 11.5827 6.29067C11.5873 6.28926 11.5922 6.2889 11.597 6.2896C11.6018 6.29031 11.6064 6.29207 11.6104 6.29476C11.6144 6.29745 11.6178 6.301 11.6203 6.30516C11.6228 6.30931 11.6244 6.31397 11.6248 6.31879ZM11.5405 6.42661C11.5413 6.43638 11.539 6.44616 11.5339 6.45457C11.5289 6.46298 11.5213 6.46959 11.5123 6.47348C11.5018 6.47641 11.4905 6.47511 11.4809 6.46987C11.4712 6.46462 11.464 6.45583 11.4608 6.44536C11.4603 6.43502 11.4633 6.42481 11.4692 6.41633C11.4751 6.40785 11.4837 6.40158 11.4936 6.39848C11.5035 6.39684 11.5136 6.39877 11.5222 6.40392C11.5308 6.40908 11.5373 6.41712 11.5405 6.42661ZM11.667 6.53911C11.6684 6.54341 11.669 6.54797 11.6685 6.55248C11.6681 6.557 11.6668 6.56137 11.6646 6.56534C11.6624 6.5693 11.6594 6.57277 11.6557 6.57551C11.6521 6.57826 11.648 6.58023 11.6436 6.58129C11.6393 6.58272 11.6347 6.58323 11.6302 6.58281C11.6257 6.58238 11.6213 6.58102 11.6174 6.57882C11.6134 6.57662 11.6099 6.57362 11.6072 6.57001C11.6044 6.5664 11.6025 6.56226 11.6014 6.55786C11.5991 6.55331 11.598 6.54829 11.598 6.54321C11.598 6.53813 11.5992 6.53312 11.6014 6.52858C11.6037 6.52403 11.607 6.52008 11.6111 6.51702C11.6151 6.51397 11.6198 6.5119 11.6248 6.51098C11.6295 6.50957 11.6344 6.50921 11.6392 6.50992C11.644 6.51062 11.6485 6.51239 11.6526 6.51508C11.6566 6.51776 11.66 6.52131 11.6625 6.52547C11.665 6.52963 11.6665 6.53428 11.667 6.53911ZM11.4702 6.56254C11.4716 6.57059 11.47 6.5789 11.4657 6.58584C11.4614 6.59277 11.4546 6.59784 11.4467 6.60004C11.4424 6.60147 11.4379 6.60198 11.4333 6.60156C11.4288 6.60113 11.4244 6.59977 11.4205 6.59757C11.4165 6.59537 11.4131 6.59237 11.4103 6.58876C11.4076 6.58515 11.4056 6.58101 11.4045 6.57661C11.4031 6.57197 11.4028 6.56707 11.4035 6.56228C11.4042 6.55748 11.4059 6.5529 11.4086 6.54887C11.4113 6.54483 11.4149 6.54144 11.419 6.53895C11.4232 6.53645 11.4278 6.5349 11.4327 6.53442C11.437 6.53376 11.4414 6.53396 11.4456 6.53503C11.4498 6.53609 11.4538 6.53798 11.4573 6.5406C11.4608 6.54322 11.4637 6.54651 11.4659 6.55028C11.4681 6.55405 11.4696 6.55822 11.4702 6.56254ZM10.5702 6.55317C10.5734 6.56191 10.5733 6.57156 10.5698 6.58023C10.5664 6.5889 10.5598 6.59597 10.5514 6.60004C10.5471 6.60147 10.5425 6.60198 10.538 6.60156C10.5335 6.60113 10.5291 6.59977 10.5252 6.59757C10.5212 6.59537 10.5177 6.59237 10.515 6.58876C10.5122 6.58515 10.5103 6.58101 10.5092 6.57661C10.5059 6.56786 10.5061 6.55821 10.5095 6.54954C10.513 6.54087 10.5196 6.53381 10.528 6.52973C10.5325 6.52747 10.5375 6.5263 10.5426 6.5263C10.5477 6.52631 10.5527 6.52749 10.5572 6.52977C10.5618 6.53204 10.5657 6.53533 10.5688 6.5394C10.5718 6.54346 10.5739 6.54817 10.5748 6.55317H10.5702ZM10.7623 6.48754C10.7656 6.49629 10.7655 6.50594 10.762 6.51461C10.7586 6.52328 10.752 6.53034 10.7436 6.53442C10.7393 6.53584 10.7347 6.53636 10.7302 6.53593C10.7257 6.53551 10.7213 6.53415 10.7174 6.53195C10.7134 6.52974 10.7099 6.52674 10.7072 6.52314C10.7044 6.51953 10.7025 6.51539 10.7014 6.51098C10.6981 6.50224 10.6982 6.49258 10.7017 6.48392C10.7052 6.47525 10.7118 6.46818 10.7202 6.46411C10.7247 6.46184 10.7297 6.46067 10.7348 6.46068C10.7399 6.46068 10.7449 6.46187 10.7494 6.46414C10.754 6.46641 10.7579 6.46971 10.761 6.47377C10.764 6.47783 10.7661 6.48255 10.767 6.48754H10.7623ZM10.6967 6.60473C10.7002 6.61536 10.6997 6.62687 10.6954 6.63718C10.6911 6.6475 10.6832 6.65594 10.6733 6.66098C10.6681 6.66326 10.6624 6.66446 10.6567 6.66451C10.651 6.66456 10.6454 6.66346 10.6401 6.66127C10.6349 6.65908 10.6301 6.65585 10.6262 6.65177C10.6222 6.64769 10.6191 6.64285 10.617 6.63754C10.6139 6.62635 10.6151 6.6144 10.6203 6.604C10.6255 6.59361 10.6343 6.58552 10.6452 6.58129C10.6551 6.57811 10.6659 6.57874 10.6754 6.58307C10.685 6.5874 10.6926 6.59512 10.6967 6.60473ZM10.8373 6.69848C10.8406 6.70723 10.8405 6.71688 10.837 6.72555C10.8336 6.73422 10.827 6.74128 10.8186 6.74536C10.814 6.74762 10.809 6.74879 10.8039 6.74879C10.7989 6.74878 10.7939 6.74759 10.7893 6.74532C10.7848 6.74305 10.7808 6.73975 10.7778 6.73569C10.7747 6.73163 10.7726 6.72692 10.7717 6.72192C10.7687 6.71259 10.7695 6.70247 10.7739 6.69371C10.7783 6.68495 10.7859 6.67825 10.7952 6.67504C10.7995 6.67362 10.804 6.67311 10.8085 6.67353C10.813 6.67396 10.8174 6.67531 10.8214 6.67752C10.8253 6.67972 10.8288 6.68272 10.8316 6.68633C10.8343 6.68994 10.8363 6.69407 10.8373 6.69848ZM10.6452 6.74536C10.6484 6.7541 10.6483 6.76375 10.6448 6.77242C10.6414 6.78109 10.6348 6.78815 10.6264 6.79223C10.6222 6.79453 10.6175 6.79587 10.6127 6.79615C10.6079 6.79643 10.603 6.79565 10.5986 6.79386C10.5941 6.79207 10.5901 6.78931 10.5868 6.78579C10.5835 6.78227 10.581 6.77807 10.5795 6.77348C10.5765 6.76415 10.5773 6.75403 10.5817 6.74527C10.5861 6.73651 10.5937 6.72981 10.603 6.72661C10.611 6.72354 10.62 6.7238 10.6279 6.72731C10.6358 6.73082 10.642 6.7373 10.6452 6.74536ZM13.2795 6.45473C13.2763 6.46398 13.2696 6.47162 13.2609 6.476C13.2521 6.48038 13.242 6.48116 13.2326 6.47817C13.2234 6.47496 13.2158 6.46826 13.2114 6.4595C13.207 6.45075 13.2062 6.44062 13.2092 6.43129C13.2124 6.42204 13.2191 6.41441 13.2279 6.41003C13.2366 6.40565 13.2468 6.40487 13.2561 6.40786C13.2653 6.41106 13.273 6.41776 13.2774 6.42652C13.2817 6.43528 13.2825 6.4454 13.2795 6.45473ZM13.4858 6.52036C13.4835 6.52947 13.478 6.53742 13.4702 6.54263C13.4623 6.54784 13.4529 6.54992 13.4436 6.54848C13.4386 6.54739 13.4339 6.54529 13.4297 6.54231C13.4255 6.53933 13.422 6.53552 13.4194 6.53113C13.4167 6.52674 13.415 6.52185 13.4144 6.51677C13.4137 6.5117 13.4141 6.50653 13.4155 6.50161C13.4187 6.49235 13.4254 6.48472 13.4341 6.48034C13.4429 6.47596 13.453 6.47518 13.4623 6.47817C13.4716 6.48137 13.4792 6.48807 13.4836 6.49683C13.488 6.50559 13.4888 6.51572 13.4858 6.52504V6.52036ZM13.3592 6.58129C13.356 6.59203 13.349 6.60124 13.3395 6.60726C13.3301 6.61328 13.3187 6.61571 13.3076 6.61411C13.3014 6.61299 13.2955 6.61063 13.2902 6.60717C13.2849 6.60371 13.2804 6.59922 13.2769 6.59397C13.2734 6.58872 13.271 6.58281 13.2698 6.5766C13.2687 6.5704 13.2688 6.56402 13.2702 6.55786C13.2734 6.54616 13.2812 6.53621 13.2916 6.53009C13.3021 6.52397 13.3146 6.52216 13.3264 6.52504C13.3498 6.52973 13.3639 6.55786 13.3592 6.58129ZM13.4295 6.75473C13.4284 6.75974 13.4263 6.76447 13.4234 6.76863C13.4204 6.77279 13.4166 6.7763 13.4122 6.77893C13.4078 6.78157 13.4029 6.78328 13.3978 6.78395C13.3927 6.78463 13.3876 6.78425 13.3827 6.78286C13.3734 6.77965 13.3658 6.77295 13.3614 6.76419C13.357 6.75543 13.3562 6.74531 13.3592 6.73598C13.3624 6.72773 13.3683 6.72086 13.376 6.71657C13.3838 6.71229 13.3927 6.71086 13.4014 6.71254C13.4064 6.71363 13.4111 6.71573 13.4153 6.71871C13.4195 6.7217 13.423 6.7255 13.4256 6.7299C13.4282 6.73429 13.4299 6.73917 13.4306 6.74425C13.4313 6.74933 13.4309 6.75449 13.4295 6.75942V6.75473ZM13.228 6.67504C13.2248 6.68329 13.2189 6.69016 13.2111 6.69445C13.2034 6.69874 13.1944 6.70016 13.1858 6.69848C13.1765 6.69528 13.1689 6.68858 13.1645 6.67982C13.1601 6.67106 13.1593 6.66093 13.1623 6.65161C13.1655 6.64336 13.1714 6.63649 13.1792 6.6322C13.1869 6.62791 13.1959 6.62648 13.2045 6.62817C13.2138 6.63137 13.2214 6.63807 13.2258 6.64683C13.2302 6.65559 13.231 6.66572 13.228 6.67504Z" fill="#F5D8BC"/>
<path d="M13.6872 4.44839C13.6872 4.44839 13.5934 4.54214 13.4763 4.54214C13.3977 4.54375 13.3212 4.51714 13.2606 4.46714C13.2231 4.43901 13.27 4.36401 13.27 4.36401" stroke="black" stroke-width="0.15"/>
<path d="M11.6668 4.64058C11.6668 4.64058 11.4934 4.60776 11.4184 4.57964C11.348 4.5562 11.3668 4.50464 11.2777 4.50933C11.198 4.5187 11.1137 4.57964 11.1324 4.6687C11.1512 4.76245 11.2121 4.77183 11.273 4.75308C11.3293 4.73433 11.3105 4.62651 11.2355 4.6312C11.1559 4.64058 11.2215 4.71089 11.2215 4.71089M10.4668 4.49995C10.4668 4.49995 10.5137 4.57495 10.6402 4.56089C10.7668 4.55151 10.8137 4.47651 10.8184 4.44839C10.823 4.41558 10.8184 4.35464 10.7949 4.3312C10.7715 4.30776 10.6871 4.2937 10.6871 4.2937" stroke="black" stroke-width="0.1375"/>
<path d="M12.8997 13.52C13.0197 13.4 13.1997 13.264 13.3047 12.968C13.4022 12.688 13.4547 12.184 13.5447 11.928C13.6572 11.488 13.8897 11.064 13.6197 11.088C13.3497 11.12 13.2597 11.392 13.1622 11.592C13.1172 11.672 13.0122 11.832 12.9897 11.912C12.9897 11.768 12.9147 11.32 12.8997 10.872C12.8847 10.456 12.8997 10.024 12.8847 9.86401C12.8697 9.64801 12.8697 9.44801 12.8247 9.28801C12.8022 9.20801 12.7047 9.14401 12.6522 9.14401C12.5397 9.14401 12.4797 9.24801 12.4647 9.34401L12.4497 9.48001L12.4422 9.89601V10.344L12.4047 10.92C12.4047 10.816 12.3597 10.336 12.3447 9.88001C12.3385 9.71205 12.3335 9.54405 12.3297 9.37601L12.3222 9.00801C12.2997 8.83201 12.2472 8.76001 12.1347 8.76001C12.0597 8.76001 11.9397 8.81601 11.9097 9.00801C11.8898 9.12946 11.8823 9.25284 11.8872 9.37601L11.8947 9.77601C11.8872 10.296 11.8797 10.856 11.8572 11.016C11.8572 10.96 11.8047 10.688 11.7972 10.32C11.7902 10.16 11.7827 9.99998 11.7747 9.84001L11.7597 9.36001C11.7597 9.28001 11.7297 9.04801 11.5872 9.06401C11.5122 9.05601 11.4297 9.11201 11.3997 9.32801C11.3772 9.44801 11.3772 9.65601 11.3772 9.81601C11.3772 10.128 11.3622 10.392 11.3772 10.664V11.048C11.3772 11.072 11.3397 10.904 11.3172 10.68L11.2797 10.248C11.2797 10.136 11.2797 9.96801 11.2647 9.82401C11.2647 9.72001 11.2647 9.60001 11.1522 9.60801C11.0397 9.61601 10.9722 9.65601 10.9497 9.86401C10.9347 9.99201 10.9272 10.28 10.9272 10.384C10.9246 10.7377 10.897 11.0907 10.8447 11.44C10.8372 11.568 10.7847 11.728 10.7697 11.904C10.737 12.2485 10.7522 12.5963 10.8147 12.936C10.9047 13.288 11.1447 13.448 11.1297 13.688V14.536C11.1297 14.728 11.2797 14.736 11.6022 14.664C12.1272 14.544 12.4122 14.784 12.8397 14.608C12.7872 14.08 12.8922 13.768 12.8922 13.576L12.8997 13.52ZM12.5997 12.288C12.7047 11.968 12.8397 11.84 12.9747 11.776L12.5997 12.288Z" fill="#CC0000"/>
<path d="M12.5997 12.288C12.7047 11.968 12.8397 11.84 12.9747 11.776M12.8997 13.52C13.0197 13.4 13.1997 13.264 13.3047 12.968C13.4022 12.688 13.4547 12.184 13.5447 11.928C13.6572 11.488 13.8897 11.064 13.6197 11.088C13.3497 11.12 13.2597 11.392 13.1622 11.592C13.1172 11.672 13.0122 11.832 12.9897 11.912C12.9897 11.768 12.9147 11.32 12.8997 10.872C12.8847 10.456 12.8997 10.024 12.8847 9.86401C12.8697 9.64801 12.8697 9.44801 12.8247 9.28801C12.8022 9.20801 12.7047 9.14401 12.6522 9.14401C12.5397 9.14401 12.4797 9.24801 12.4647 9.34401L12.4497 9.48001L12.4422 9.89601V10.344L12.4047 10.92C12.4047 10.816 12.3597 10.336 12.3447 9.88001C12.3385 9.71205 12.3335 9.54405 12.3297 9.37601L12.3222 9.00801C12.2997 8.83201 12.2472 8.76001 12.1347 8.76001C12.0597 8.76001 11.9397 8.81601 11.9097 9.00801C11.8898 9.12946 11.8823 9.25284 11.8872 9.37601L11.8947 9.77601C11.8872 10.296 11.8797 10.856 11.8572 11.016C11.8572 10.96 11.8047 10.688 11.7972 10.32C11.7902 10.16 11.7827 9.99998 11.7747 9.84001L11.7597 9.36001C11.7597 9.28001 11.7297 9.04801 11.5872 9.06401C11.5122 9.05601 11.4297 9.11201 11.3997 9.32801C11.3772 9.44801 11.3772 9.65601 11.3772 9.81601C11.3772 10.128 11.3622 10.392 11.3772 10.664V11.048C11.3772 11.072 11.3397 10.904 11.3172 10.68L11.2797 10.248C11.2797 10.136 11.2797 9.96801 11.2647 9.82401C11.2647 9.72001 11.2647 9.60001 11.1522 9.60801C11.0397 9.61601 10.9722 9.65601 10.9497 9.86401C10.9347 9.99201 10.9272 10.28 10.9272 10.384C10.9246 10.7377 10.897 11.0907 10.8447 11.44C10.8372 11.568 10.7847 11.728 10.7697 11.904C10.737 12.2485 10.7522 12.5962 10.8147 12.936C10.9047 13.288 11.1447 13.448 11.1297 13.688V14.536C11.1297 14.728 11.2797 14.736 11.6022 14.664C12.1272 14.544 12.4122 14.784 12.8397 14.608C12.7872 14.08 12.8922 13.768 12.8922 13.576L12.8997 13.52Z" stroke="#161111" stroke-width="0.206559"/>
<path d="M11.4071 11.9601C11.5721 11.8881 11.7371 11.8401 11.9021 11.7761C12.1121 11.7201 12.3071 11.6321 12.5096 11.6001C12.6146 11.5761 12.7121 11.5521 12.8096 11.5441M11.1221 13.6481C11.1446 13.6321 11.1671 13.6641 11.1896 13.6641C11.2196 13.6721 11.2496 13.6881 11.2796 13.6801C11.3446 13.6787 11.4096 13.6787 11.4746 13.6801C11.5496 13.6801 11.6096 13.6801 11.6696 13.6321M12.1421 13.6561C12.1646 13.6801 12.1871 13.6961 12.2171 13.7041C12.2546 13.7201 12.2921 13.7281 12.5621 13.7041C12.7196 13.7121 12.8621 13.5681 12.9071 13.5201" stroke="#161111" stroke-width="0.206559"/>
</g>
<defs>
<clipPath id="clip0_208_23680">
<rect width="24" height="24" rx="12" fill="white"/>
</clipPath>
</defs>
</svg>
