<svg width="24" height="24" viewBox="0 0 24 24" fill="none" xmlns="http://www.w3.org/2000/svg">
<g clip-path="url(#clip0_208_20396)">
<path d="M0 0V24H24V0.009375H15.0938V0H0Z" fill="#68BFE5"/>
<path d="M14.541 11.9062V18.3C14.541 20.3906 18.3191 21.6328 18.3191 21.6328C18.3191 21.6328 22.0973 20.3906 22.0973 18.3047V11.9062H14.541Z" fill="white"/>
<path d="M17.7941 14.1562V17.0344H14.541V18.0797H17.7988V21.4313L18.3191 21.6328L18.8441 21.4313V18.0797H22.0973V17.0344H18.8441V14.1562H17.7941Z" fill="#D21034"/>
<path d="M14.541 11.9062H22.0973V14.3766H14.541V11.9062Z" fill="#D21034"/>
<path d="M15.1455 13.7578C15.3796 13.7578 15.5694 13.6043 15.5694 13.415C15.5694 13.2256 15.3796 13.0721 15.1455 13.0721C14.9114 13.0721 14.7217 13.2256 14.7217 13.415C14.7217 13.6043 14.9114 13.7578 15.1455 13.7578Z" fill="white" stroke="black" stroke-width="0.066486" stroke-miterlimit="3"/>
<path d="M15.1457 13.4275C15.3539 13.4275 15.5228 13.3423 15.5228 13.2373C15.5228 13.1324 15.3539 13.0472 15.1457 13.0472C14.9374 13.0472 14.7686 13.1324 14.7686 13.2373C14.7686 13.3423 14.9374 13.4275 15.1457 13.4275Z" fill="white" stroke="black" stroke-width="0.066486" stroke-miterlimit="3"/>
<path d="M15.1457 13.8108C15.3539 13.8108 15.5228 13.7256 15.5228 13.6207C15.5228 13.5157 15.3539 13.4305 15.1457 13.4305C14.9374 13.4305 14.7686 13.5157 14.7686 13.6207C14.7686 13.7256 14.9374 13.8108 15.1457 13.8108Z" fill="white" stroke="black" stroke-width="0.066486" stroke-miterlimit="3"/>
<path d="M15.1457 13.6051C15.3539 13.6051 15.5228 13.52 15.5228 13.415C15.5228 13.31 15.3539 13.2249 15.1457 13.2249C14.9374 13.2249 14.7686 13.31 14.7686 13.415C14.7686 13.52 14.9374 13.6051 15.1457 13.6051Z" fill="white" stroke="black" stroke-width="0.066486" stroke-miterlimit="3"/>
<path d="M21.9103 13.889L21.8493 13.7156C21.8493 13.7156 21.6806 13.65 21.6665 13.5562C21.6384 13.3219 21.5493 13.2281 21.4228 13.1953C21.3874 13.184 21.3501 13.1799 21.3131 13.1831C21.2761 13.1863 21.2401 13.1968 21.2071 13.214C21.1696 13.2703 20.9774 13.2703 20.8696 13.275C20.7618 13.2797 20.7618 13.2281 20.7618 13.2281C20.7387 13.2287 20.7158 13.2235 20.6953 13.2128C20.6748 13.2022 20.6574 13.1864 20.6446 13.1672C20.5884 13.0594 20.5509 13.0172 20.5228 13.0078C20.6634 13.0078 20.7665 12.9422 20.9212 12.7781C21.0946 12.6 21.2165 12.6703 21.2165 12.6703C21.1321 12.8344 21.2446 12.8203 21.2446 12.8203C21.4696 12.7078 21.2728 12.4125 21.2024 12.4265C21.1368 12.4406 21.1181 12.3937 21.1181 12.3937C21.1181 12.4453 21.0384 12.4687 21.0384 12.4687C21.0993 12.1359 20.8978 12.0469 20.8978 12.0469C20.8696 12.075 20.8509 12.1406 20.8509 12.1406C20.7993 12.3375 20.6165 12.3094 20.4103 12.2109C20.204 12.1125 19.6556 12.314 19.4821 12.3797C19.3134 12.45 18.9993 12.5578 18.7181 12.3984C18.4368 12.239 18.3665 12.2672 18.254 12.3C18.1415 12.3281 17.9446 12.375 17.8743 12.3375C17.8247 12.3125 17.7704 12.2981 17.7149 12.2953C17.7384 12.2859 17.7056 12.239 17.7056 12.239C17.6212 12.1219 17.7149 12.0515 17.7149 12.0515C17.7149 12.0515 17.5603 12.0984 17.6212 12.3703L17.6493 12.4125C17.6493 12.4125 17.6728 12.4969 17.7196 12.5203V12.539C17.7196 12.539 17.7571 12.5203 17.7665 12.5765C17.7853 12.6328 17.8415 12.5812 17.8696 12.5344C17.8696 12.5344 17.8228 12.7828 18.1321 12.8437C18.1321 12.8437 18.0993 12.8062 18.1134 12.7781C18.1274 12.7547 18.0759 12.7312 18.0806 12.6937C18.0806 12.6562 18.0009 12.6375 18.0665 12.6094C18.1321 12.5765 18.1603 12.5156 18.3009 12.6C18.4321 12.6797 18.5399 12.6609 18.5399 12.6609C18.5399 12.6609 18.4556 12.4922 18.5024 12.4922C18.5493 12.4922 18.7556 12.75 18.8587 12.7359C18.9618 12.7219 19.1587 12.6094 19.2571 12.6515C19.2571 12.6515 19.2665 12.6 19.6415 12.5344C20.0165 12.4687 20.4853 12.2812 20.6587 12.4453C20.6587 12.4453 20.6774 12.5765 20.7524 12.6094C20.7524 12.6094 20.7384 12.8812 20.2696 12.7312L20.1009 12.6844C20.1009 12.6844 20.0774 12.6047 19.1868 12.8344C19.1868 12.8344 19.1399 12.8531 19.1024 12.8812C19.0696 12.9047 19.0228 12.8625 18.8446 12.9281C18.6665 12.9937 18.0149 13.2094 17.6118 13.1297C17.5228 13.1062 17.4384 13.1156 17.4384 13.1062C17.4337 13.0875 17.4853 13.1062 17.4853 13.1062C17.4524 13.0734 17.4384 13.0687 17.4384 13.0687C17.1009 13.0359 17.1618 12.8812 17.1618 12.8812L17.1806 12.9281C17.2368 12.8578 17.1571 12.6844 17.1571 12.6844C17.1558 12.6796 17.1542 12.6749 17.1524 12.6703L17.1806 12.6515C17.3446 12.5109 17.5321 12.4875 17.5321 12.4875C17.4196 12.3469 17.1853 12.4219 17.1853 12.4219C17.1853 12.2578 17.1196 12.0656 17.1196 12.0656C16.8853 12.089 16.754 12.2812 16.754 12.2812C16.7493 12.1125 16.529 12.014 16.529 12.014C16.6087 12.1078 16.5571 12.3422 16.5571 12.3422L16.5665 12.3515H16.5478L16.5431 12.3984H16.5337C16.5337 12.3984 16.454 12.4265 16.3556 12.6422C16.3556 12.6422 16.3462 12.689 16.3087 12.7359V12.7219C16.3087 12.7219 16.2056 12.8625 15.9618 12.7219C15.9618 12.7219 15.6337 12.525 15.5165 12.5344C15.3993 12.539 15.3243 12.5953 15.329 12.6281C15.329 12.6281 15.0665 12.6047 14.9774 12.7547C14.9774 12.7547 14.7759 12.8297 14.9493 12.989C14.9493 12.989 14.9681 13.064 15.0196 13.1015C15.0196 13.1015 15.0103 12.9515 15.0478 12.9984C15.0478 12.9984 15.0571 13.0125 15.0759 13.0219C15.0759 13.0406 15.0946 13.1015 15.1321 13.1297L15.1556 13.1203C15.159 13.0851 15.1669 13.0504 15.179 13.0172H15.1884L15.1837 13.0219L15.2306 13.0922L15.2821 13.064C15.3103 13.064 15.3431 13.0875 15.3431 13.0875L15.404 13.0406V13.0359C15.4649 13.0453 15.479 12.9281 15.479 12.9281C15.5046 12.9342 15.5312 12.9348 15.557 12.93C15.5828 12.9251 15.6074 12.9149 15.629 12.9C15.6571 12.9937 15.8728 13.1015 15.8728 13.1015H15.8821L15.854 13.1203C15.9478 13.1906 16.1353 13.1719 16.1353 13.1719C16.0603 13.2047 16.0696 13.3453 16.0696 13.3453C16.0228 13.364 16.0228 13.4062 16.0228 13.4062C16.1681 13.4672 16.2712 13.4203 16.2712 13.4203C16.2806 13.4672 16.2712 13.4719 16.2712 13.4719C16.2103 13.5984 16.1821 13.725 16.1821 13.725V13.7344C16.1821 13.7344 15.9196 13.8281 15.8071 13.9547C15.8071 13.9547 15.7931 13.9172 15.7603 13.9172C15.7274 13.9172 15.6243 13.8328 15.5774 13.8234C15.5306 13.8047 15.4603 13.8328 15.4415 13.814C15.4274 13.7906 15.4368 13.6453 15.404 13.6219L15.3712 13.5281C15.3478 13.575 15.2587 13.5656 15.2587 13.5656C15.246 13.5747 15.2335 13.5841 15.2212 13.5937L15.1837 13.589C15.1743 13.589 15.1649 13.6172 15.1556 13.6406C15.1524 13.6437 15.1493 13.6468 15.1462 13.65V13.6219C15.1274 13.6359 15.0899 13.6172 15.0759 13.6172L15.0524 13.6594L14.9681 13.6687C14.954 13.6734 14.9681 13.7859 14.9681 13.7859C14.8603 13.8469 14.9118 13.9312 14.9118 13.9312C14.9681 14.2125 15.4509 14.0906 15.4884 14.1234C15.5212 14.1609 15.6056 14.1703 15.6524 14.1703C15.6946 14.1703 15.7462 14.2734 15.8118 14.2828C15.8728 14.2969 15.8118 14.2031 16.0931 14.1328C16.3837 14.0625 16.4774 13.9453 16.4774 13.9453C16.5712 13.9312 16.5946 13.8187 16.5993 13.7765L16.604 13.8469C16.6181 13.9406 16.5524 13.9781 16.5524 13.9781L16.7962 13.9031C16.8946 13.8797 16.8853 13.7953 16.8853 13.7953C16.979 14.0625 17.1478 14.0765 17.1478 14.0765C17.1853 13.9781 17.1806 13.9453 17.1806 13.9453H17.2556C17.2556 13.8844 17.2087 13.8422 17.1806 13.8234L17.2978 13.8984L17.3446 13.889C17.3446 13.9312 17.4103 13.9687 17.4103 13.9687L17.4196 13.9125C17.4759 13.9875 17.579 13.9594 17.579 13.9594C17.5766 13.9467 17.5735 13.9342 17.5696 13.9219C17.7899 14.0578 18.1368 13.8844 18.1368 13.8844C18.2306 13.9031 18.2446 13.8469 18.2446 13.8469C18.3524 13.8609 18.3759 13.7906 18.3759 13.7906C18.629 13.7672 18.8071 13.589 18.8071 13.589C18.929 13.5797 18.9337 13.4953 18.9337 13.4953C18.9337 13.4953 19.0603 13.514 19.1774 13.364C19.4587 12.9656 19.8712 13.1765 19.8712 13.1765L19.6368 13.1906C19.004 13.1859 19.2618 13.6125 19.2618 13.6125H19.304C19.3649 13.6219 19.5665 13.7859 19.4915 13.9078V13.9125C19.3603 14.0859 19.1212 13.9219 19.0556 13.7719C18.9853 13.6219 18.8493 13.6547 18.8493 13.6547C18.8493 13.6547 18.4931 13.7156 18.6384 13.9969H18.6431C18.6478 14.0672 18.6899 14.1469 18.8165 14.2265C18.8868 14.325 19.1212 14.3344 19.2946 14.2969C19.3743 14.2828 19.7962 14.1 19.7962 14.1C19.829 14.0062 19.9368 14.0297 20.0306 13.8984C20.1243 13.7625 19.8899 13.7156 19.8431 13.6453C19.7915 13.5703 19.8571 13.5844 19.8571 13.5844C20.0587 13.6969 20.0774 13.3406 20.0774 13.3406C20.0827 13.399 20.1045 13.4546 20.1402 13.5011C20.1759 13.5475 20.224 13.5829 20.279 13.6031C20.3915 13.4906 20.3071 13.2609 20.3071 13.2609C20.5743 13.739 20.7384 13.664 20.7384 13.664C20.5931 13.5703 20.6634 13.4531 20.6634 13.4531C20.7946 13.9594 21.3196 13.5187 21.3196 13.5187C21.2962 13.5937 21.3196 13.6359 21.3665 13.6828C21.4134 13.7297 21.4696 13.7484 21.4462 13.8375C21.4181 13.9219 21.1743 13.9031 21.1743 13.9031C21.1743 13.9031 20.9353 13.8937 20.9587 14.0906C20.9681 14.1375 21.1274 14.1562 21.1884 14.1469C21.1884 14.1469 21.1649 14.1469 21.2493 14.1609L21.3524 14.1656C21.4556 14.1656 21.5634 14.1469 21.5634 14.1469C21.704 14.114 21.6806 14.0672 21.6806 14.0672C21.8915 14.0297 21.9149 13.889 21.9149 13.889H21.9103Z" fill="#FFD100" stroke="black" stroke-width="0.1" stroke-miterlimit="3"/>
<path d="M14.9537 13.0125C14.9537 13.0125 14.9631 12.9843 14.9865 12.9796C15.0006 12.9796 15.024 12.989 15.0428 13.0171L15.0521 13.0078C15.0521 13.0078 14.9959 12.9234 15.0193 12.8671C15.0287 12.8437 15.0568 12.8203 15.0943 12.8203V12.8015C15.0475 12.8109 15.0193 12.8296 15.0053 12.8625C15.0012 12.8745 14.9996 12.8873 15.0006 12.9C15.0006 12.9281 15.01 12.9562 15.0193 12.975C15.0085 12.9671 14.9951 12.9637 14.9818 12.9656C14.9631 12.9703 14.949 12.9843 14.9443 12.9937L14.9537 13.0125ZM21.5631 14.1328C21.4225 14.1562 21.2068 14.1656 21.1881 14.1234C21.1881 14.1187 21.1881 14.0859 21.3053 14.0109L21.2912 13.9875C21.1975 14.0531 21.1506 14.1 21.1693 14.1328C21.1975 14.2125 21.5068 14.1656 21.5678 14.1562L21.5631 14.1328ZM18.8256 14.2171C18.7928 14.1656 18.8068 14.0953 18.8725 14.0109L18.849 13.9968C18.7787 14.0906 18.7646 14.1703 18.8021 14.2312L18.8256 14.2171Z" fill="black"/>
<path d="M18.6338 14.0016C18.6338 14.086 18.6948 14.1656 18.8119 14.236L18.826 14.2172C18.7182 14.1516 18.6619 14.0766 18.6573 13.9969C18.6573 13.8797 18.7791 13.7906 18.7791 13.786L18.7651 13.7672C18.7604 13.7672 18.6244 13.8656 18.6338 14.0016ZM21.0713 14.0297C21.0338 14.0906 21.0479 14.161 21.0479 14.161H21.0713C21.0713 14.161 21.0619 14.0953 21.0948 14.0438C21.1058 14.0286 21.1198 14.0158 21.1359 14.0062C21.152 13.9965 21.1699 13.9902 21.1885 13.9875V13.9641C21.1369 13.9735 21.0948 13.9969 21.0713 14.0297ZM15.4838 12.9375H15.4744V12.9422C15.4744 12.9422 15.4604 13.0172 15.4276 13.036C15.4228 13.0392 15.4174 13.0413 15.4117 13.0421C15.406 13.0429 15.4002 13.0424 15.3948 13.0406L15.3385 13.0078C15.3244 12.9938 15.3151 12.9891 15.301 12.9938C15.287 12.9767 15.2803 12.9548 15.2823 12.9328C15.2869 12.8953 15.3104 12.8625 15.3526 12.8344L15.3479 12.8203C15.301 12.8531 15.2729 12.8906 15.2682 12.9281C15.2635 12.975 15.2869 13.0031 15.2916 13.0078H15.2963C15.3104 13.0031 15.3151 13.0078 15.3291 13.0172L15.3901 13.0547H15.4369C15.4698 13.0313 15.4838 12.9656 15.4838 12.9516C15.6385 12.9844 15.7651 12.7969 15.7651 12.7922L15.7557 12.7828C15.7557 12.7828 15.6291 12.9703 15.4838 12.9375Z" fill="black"/>
<path d="M15.1176 12.9094C15.1082 12.9375 15.1176 12.9703 15.1316 12.9985C15.1504 13.0266 15.1645 13.0406 15.1832 13.0453C15.2066 13.0453 15.2207 13.0313 15.2348 13.0172C15.2441 13.0031 15.2582 12.9938 15.2629 12.9985L15.277 13.0078L15.291 12.9985L15.2676 12.9844C15.2535 12.9844 15.2395 12.9938 15.2254 13.0031C15.2113 13.0172 15.1973 13.0313 15.1832 13.0266C15.1738 13.0266 15.1598 13.0125 15.1457 12.9891C15.1381 12.9774 15.1329 12.9644 15.1305 12.9507C15.1281 12.937 15.1285 12.9229 15.1316 12.9094C15.1457 12.8438 15.2254 12.7922 15.2254 12.7922V12.7828C15.2207 12.7828 15.1316 12.8297 15.1176 12.9094ZM14.9066 13.875C14.916 13.8469 14.9348 13.8281 14.9676 13.8094C14.9629 13.8094 15.0004 13.8422 15.0332 13.8375L15.052 13.8281C15.0613 13.8328 15.1176 13.8844 15.1176 13.95C15.1176 13.9641 15.1176 13.9781 15.1082 13.9922L15.1223 13.9969C15.1691 13.9031 15.0613 13.8094 15.0613 13.8094H15.052L15.0285 13.8235C15.0051 13.8235 14.9723 13.7953 14.9676 13.7953C14.9254 13.8141 14.902 13.8422 14.8926 13.8703L14.9066 13.875ZM15.3941 13.6266C15.3613 13.6266 15.2723 13.6453 15.2441 13.6875C15.2348 13.7063 15.2348 13.725 15.2441 13.7438L15.2535 13.7766C15.2816 13.8469 15.3098 13.9219 15.3379 13.9406L15.3473 13.9266C15.3191 13.9125 15.291 13.8328 15.2676 13.7672L15.2535 13.7391C15.2502 13.7325 15.2485 13.7253 15.2485 13.718C15.2485 13.7107 15.2502 13.7034 15.2535 13.6969C15.2816 13.6594 15.3566 13.6406 15.3941 13.6406C15.4129 13.6406 15.4176 13.711 15.4223 13.7578H15.4363C15.4363 13.6875 15.427 13.6219 15.3895 13.6266H15.3941Z" fill="black"/>
<path d="M15.1554 13.6969C15.1497 13.7022 15.1455 13.7089 15.143 13.7162C15.1406 13.7236 15.14 13.7314 15.1413 13.7391C15.1413 13.7438 15.146 13.9266 15.2351 13.9641L15.2398 13.95C15.1601 13.9172 15.1554 13.7391 15.1554 13.7391C15.1554 13.7391 15.1507 13.7203 15.1648 13.7063C15.1741 13.6969 15.2023 13.6969 15.2398 13.7063V13.6922C15.2023 13.6781 15.1694 13.6828 15.1554 13.6969Z" fill="black"/>
<path d="M15.0854 13.7109C15.0479 13.739 15.0479 13.814 15.0479 13.8187H15.0619C15.0619 13.8187 15.0619 13.7437 15.0947 13.725C15.1041 13.7156 15.1229 13.7156 15.1416 13.725V13.7109C15.1229 13.7015 15.0994 13.7015 15.0854 13.7109Z" fill="black"/>
<path d="M17.1433 12.7076C17.1433 12.7076 17.1838 12.8011 17.1838 12.8728C17.1838 12.8852 17.1776 12.8946 17.1745 12.9039L17.1589 12.8634L17.1495 12.8946C17.1495 12.8946 17.1308 12.9382 17.1589 12.985C17.1963 13.0473 17.2898 13.0847 17.4394 13.1003V13.1034C17.435 13.1033 17.4307 13.1044 17.4269 13.1065L17.4207 13.1127V13.1252C17.4269 13.1408 17.4425 13.1408 17.4768 13.1408L17.4986 13.1439L17.5173 13.1501L17.5142 13.147C17.5453 13.147 17.5858 13.1564 17.6264 13.172L17.5952 13.1782L17.6295 13.1938C17.6326 13.1938 17.9006 13.3028 18.0097 13.3901C17.9785 13.4182 17.8445 13.5148 17.6139 13.4587L17.5765 13.4493L17.6014 13.4805C17.6014 13.4805 17.7541 13.655 17.7853 13.761C17.7323 13.761 17.5298 13.761 17.4581 13.6986L17.4425 13.7142C17.4425 13.7142 17.536 13.8576 17.5609 13.9667C17.5298 13.9729 17.4674 13.976 17.4269 13.923L17.4082 13.9012L17.3989 13.9636C17.3802 13.948 17.3552 13.9293 17.3552 13.9043V13.8919L17.2991 13.9012L17.1807 13.8295C17.1747 13.8251 17.1684 13.8209 17.162 13.8171L17.1495 13.8389L17.1682 13.8482C17.1932 13.8669 17.2368 13.9012 17.2399 13.9511H17.1651V13.9667C17.1651 13.976 17.1651 14.0103 17.1371 14.082C17.1028 14.0757 16.9719 14.029 16.894 13.8077L16.869 13.814V13.8202C16.869 13.842 16.8628 13.8919 16.7942 13.9106L16.5917 13.9729C16.6094 13.9474 16.6182 13.9167 16.6166 13.8856V13.8607C16.6128 13.8339 16.6107 13.8068 16.6104 13.7797C16.6104 13.7329 16.6197 13.7049 16.654 13.6862L16.6415 13.6613C16.6384 13.6613 16.3424 13.7828 16.1959 13.7329C16.2021 13.7018 16.227 13.602 16.2769 13.4961L16.2707 13.5023C16.28 13.4961 16.2894 13.4836 16.28 13.4337V13.4182L16.2644 13.4244C16.2644 13.4244 16.1709 13.468 16.0338 13.4182C16.0338 13.4057 16.0432 13.387 16.0712 13.3745L16.0806 13.3714V13.3465C16.0806 13.3091 16.0837 13.2218 16.1367 13.2031L16.1304 13.1782C16.1304 13.1782 15.9715 13.1907 15.8749 13.1377C15.9166 13.1077 15.9645 13.0874 16.0151 13.0785H16.0245V13.066C16.0241 13.0413 16.0188 13.0169 16.0089 12.9943C16.0463 13.0068 16.0899 13.0161 16.1055 13.0037L16.1117 13.0005L16.1055 12.9039H16.0806L16.0837 12.985L15.9902 12.9631L15.9528 12.9507L15.9777 12.9818C15.9928 13.0038 16.0004 13.03 15.9995 13.0566C15.943 13.0689 15.8898 13.0933 15.8437 13.1283L15.8281 13.1408L15.8437 13.1501C15.9185 13.2 16.0338 13.2062 16.093 13.2031C16.0665 13.2451 16.0524 13.2937 16.0525 13.3434V13.3558C16.0401 13.3631 16.0295 13.373 16.0214 13.3848C16.0133 13.3967 16.008 13.4102 16.0058 13.4244V13.4337L16.012 13.4369C16.0893 13.4724 16.177 13.478 16.2582 13.4524V13.4805C16.1959 13.6114 16.1647 13.7392 16.1647 13.7392V13.7516H16.1741C16.2956 13.8015 16.5075 13.736 16.6041 13.7018C16.5917 13.7236 16.5823 13.7485 16.5823 13.7797C16.5827 13.8152 16.5858 13.8506 16.5917 13.8856C16.5917 13.9573 16.5449 13.9854 16.5418 13.9854L16.5512 14.0103L16.8005 13.9355C16.8566 13.9199 16.8784 13.8856 16.8877 13.8576C16.9844 14.0882 17.1371 14.1069 17.1464 14.11H17.1558L17.1589 14.1007C17.1754 14.0609 17.1859 14.0189 17.19 13.976C17.215 13.975 17.2399 13.974 17.2648 13.9729V13.9573C17.2648 13.9355 17.2617 13.9168 17.2524 13.9012L17.296 13.9262L17.3365 13.9199C17.3459 13.9604 17.3957 13.9947 17.402 13.9978L17.4176 14.0072L17.4269 13.9542C17.4892 14.0072 17.5734 13.9916 17.5796 13.9916L17.589 13.9885V13.976C17.5765 13.8919 17.5204 13.7921 17.4861 13.7392C17.5952 13.789 17.7947 13.7859 17.804 13.7859H17.8165V13.7703C17.7754 13.6672 17.7163 13.5722 17.6419 13.4898C17.8975 13.5366 18.0346 13.4026 18.0409 13.3963L18.0502 13.387L18.0377 13.3808C17.9258 13.3007 17.8043 13.2348 17.6762 13.1844L17.7043 13.1782L17.6731 13.1626C17.6171 13.134 17.5552 13.1191 17.4924 13.119C17.4612 13.0816 17.4456 13.0785 17.4425 13.0753C17.268 13.0566 17.2056 13.0099 17.1807 12.9725V12.9631L17.1869 12.9538C17.2025 12.932 17.2087 12.9039 17.2087 12.8728C17.2087 12.7917 17.1682 12.7014 17.1682 12.6982L17.1433 12.7076Z" fill="black"/>
<path d="M16.3491 12.6576C16.3491 12.6576 16.3304 12.7511 16.2493 12.7979C16.187 12.8291 16.1091 12.8291 16.0125 12.7885L16 12.7854V12.7979C16.007 12.838 16.0293 12.8738 16.0623 12.8976C16.1028 12.9288 16.1652 12.9413 16.2462 12.935C16.2182 12.9662 16.134 13.0721 16.134 13.1781V13.1937C16.1465 13.1999 16.2774 13.2373 16.3397 13.1594C16.3397 13.1906 16.3522 13.2997 16.3927 13.3402C16.4176 13.3651 16.4238 13.3963 16.4238 13.4243C16.4238 13.4492 16.4176 13.4679 16.4176 13.4679L16.4114 13.4866L16.427 13.4742C16.4332 13.4711 16.5547 13.3807 16.5921 13.2654C16.5921 13.2654 16.614 13.2342 16.6514 13.2249V13.2404C16.6514 13.2872 16.6701 13.3682 16.8009 13.4181L16.8103 13.4212V13.4118C16.8099 13.4046 16.8099 13.3973 16.8103 13.39C16.8103 13.3558 16.8103 13.2965 16.8446 13.2654C16.8584 13.2525 16.8677 13.2356 16.871 13.2171C16.8744 13.1985 16.8717 13.1794 16.8633 13.1625C16.8913 13.1688 16.9537 13.1906 16.9786 13.2373C17.016 13.3059 17.1438 13.2498 17.15 13.2498L17.1469 13.2342C17.1469 13.2342 17.0908 13.2467 17.0565 13.2249C17.0493 13.2192 17.0434 13.2122 17.0391 13.2041C17.0348 13.1961 17.0322 13.1872 17.0316 13.1781L17.0253 13.1033C17.0253 13.0721 17.0191 13.0503 17.0035 13.0347C17.0191 13.0347 17.0534 13.0347 17.0659 13.0659C17.0908 13.1158 17.1687 13.1189 17.1718 13.1189L17.1999 13.122L17.1781 13.1064C17.1781 13.1064 17.1095 13.0628 17.122 13.0036L17.1313 12.96C17.15 12.882 17.1812 12.7543 17.1531 12.6732L17.1407 12.6795C17.1469 12.6982 17.15 12.7231 17.15 12.748C17.15 12.8166 17.1282 12.9039 17.1188 12.9568L17.1064 13.0005C17.1059 13.0056 17.1059 13.0109 17.1064 13.016C17.1064 13.0566 17.1282 13.0846 17.1469 13.1002C17.1251 13.0971 17.0939 13.0846 17.0846 13.0597C17.0627 13.016 17.0129 13.016 16.9911 13.0192L16.9724 13.0223L16.9848 13.0347C17.0066 13.0472 17.0098 13.0659 17.0098 13.1064L17.016 13.1781C17.0191 13.203 17.0316 13.2217 17.0472 13.2342C17.0659 13.2467 17.0846 13.2467 17.1001 13.2498C17.0627 13.2591 17.0098 13.2654 16.9911 13.2311C16.9568 13.1625 16.857 13.1469 16.8539 13.1438H16.8383L16.8446 13.1563C16.8446 13.1563 16.857 13.175 16.857 13.1999C16.857 13.2155 16.8508 13.2373 16.8352 13.2529C16.801 13.2872 16.7947 13.3526 16.7947 13.3869V13.3994C16.6825 13.3526 16.6638 13.2841 16.6638 13.2436V13.2124L16.6701 13.203H16.6576C16.6412 13.2058 16.6256 13.2123 16.6121 13.2221C16.5986 13.2318 16.5875 13.2445 16.5797 13.2591C16.5487 13.3353 16.4982 13.402 16.4332 13.4524C16.435 13.4421 16.436 13.4316 16.4363 13.4212C16.4363 13.3931 16.4301 13.3589 16.4051 13.3308C16.3584 13.2872 16.3522 13.1438 16.3522 13.1438V13.1189L16.3397 13.1407C16.2898 13.228 16.1465 13.1843 16.1434 13.1843C16.1371 13.0753 16.268 12.9319 16.268 12.9288L16.2805 12.9163H16.2618C16.1776 12.9288 16.1122 12.9163 16.0686 12.8852C16.0438 12.8654 16.0263 12.838 16.0187 12.8072C16.1122 12.8415 16.1932 12.8446 16.2556 12.8104C16.2825 12.794 16.3058 12.7723 16.324 12.7465C16.3423 12.7208 16.355 12.6916 16.3615 12.6608C16.455 12.4551 16.5329 12.4208 16.5329 12.4208L16.5298 12.4083C16.5236 12.4083 16.4425 12.4395 16.3491 12.6576Z" fill="black"/>
<path d="M16.5576 12.3491H16.5514L16.4766 12.452H16.4984C16.7309 12.4703 16.949 12.5721 17.1123 12.7387L17.1217 12.748L17.1934 12.6701L17.1871 12.6608C16.9846 12.3429 16.5607 12.3491 16.5545 12.3491H16.5576ZM16.5638 12.3772C16.6137 12.3772 16.9752 12.3865 17.1622 12.667L17.1217 12.7106C16.9573 12.5544 16.7458 12.4569 16.5202 12.4333C16.5347 12.4146 16.5492 12.3959 16.5638 12.3772Z" fill="black"/>
<path d="M16.4982 12.5611C16.4646 12.605 16.4422 12.6563 16.4327 12.7107L16.4358 12.7232C16.4142 12.7459 16.3975 12.7728 16.3867 12.8023C16.376 12.8318 16.3715 12.8632 16.3735 12.8946C16.3735 12.9351 16.3797 12.9756 16.3922 13.013L16.4016 13.0348C16.439 13.1408 16.4732 13.2343 16.6446 13.1782C16.8067 13.1283 16.8129 13.1158 16.8535 13.0473L16.8659 13.0317C16.8877 12.9943 16.9127 12.9881 16.9376 12.9787C16.9688 12.9694 16.9999 12.96 17.0311 12.9039L17.056 12.8634C17.0872 12.8229 17.1246 12.7699 17.1277 12.7076H17.1152C17.106 12.7617 17.0823 12.8123 17.0467 12.8541L17.0155 12.8977C17.0087 12.9149 16.9978 12.9302 16.9836 12.9422C16.9695 12.9541 16.9526 12.9624 16.9345 12.9662C16.9178 12.9694 16.902 12.9761 16.888 12.9857C16.8741 12.9954 16.8623 13.0079 16.8535 13.0223L16.841 13.041C16.8036 13.1065 16.7974 13.1158 16.6384 13.1657C16.4826 13.2156 16.4514 13.1377 16.414 13.0286L16.4047 13.0068C16.361 12.8883 16.3953 12.7699 16.4545 12.7263L16.4732 12.7107L16.4452 12.7138V12.7107C16.4452 12.6889 16.467 12.6297 16.5075 12.5704C16.5449 12.5206 16.6322 12.4738 16.6322 12.4707L16.6259 12.4583C16.6197 12.4614 16.5356 12.5112 16.4982 12.5611Z" fill="black"/>
<path d="M16.4231 12.9943C16.4512 13.013 16.4886 13.0099 16.5384 12.9943C16.5384 13.0099 16.5384 13.0473 16.5696 13.0722C16.607 13.1034 16.6631 13.1096 16.741 13.0909V13.0753C16.6662 13.094 16.6101 13.0878 16.5789 13.0597C16.569 13.0501 16.5614 13.0384 16.5565 13.0255C16.5517 13.0126 16.5498 12.9987 16.5509 12.9849V12.9725L16.5415 12.9787C16.4948 12.9974 16.4574 13.0005 16.4294 12.9787C16.3826 12.9475 16.3857 12.8634 16.3857 12.8634H16.3733C16.3733 12.8634 16.367 12.9569 16.4231 12.9943Z" fill="black"/>
<path d="M16.5109 12.879C16.4922 12.8852 16.486 12.9008 16.486 12.9133V12.9226C16.4922 12.96 16.5328 12.9849 16.567 12.9943C16.6044 13.0036 16.6481 13.0067 16.6637 12.9849C16.6699 12.9756 16.6761 12.96 16.6637 12.932C16.6502 12.9056 16.6273 12.8855 16.5994 12.8756C16.5716 12.8658 16.541 12.867 16.5141 12.879H16.5109ZM16.5733 12.9818C16.5421 12.9725 16.5047 12.9507 16.5016 12.9195C16.5016 12.9195 16.4985 12.8977 16.5172 12.8914C16.5413 12.8817 16.5681 12.8814 16.5924 12.8906C16.6167 12.8999 16.6366 12.918 16.6481 12.9413C16.6574 12.9538 16.6574 12.9662 16.6512 12.9725C16.6418 12.988 16.6076 12.9912 16.5733 12.9818ZM16.5608 13.066C16.5515 13.1439 16.5608 13.147 16.5639 13.147H16.5702L16.5764 13.1439L16.62 13.0815L16.5639 13.0566V13.066H16.5608ZM16.5764 13.0784L16.5982 13.0878L16.5733 13.1221V13.0784H16.5764ZM16.4455 13.0036L16.4424 13.0753L16.5047 13.0005L16.4424 12.9943V13.0036H16.4455ZM16.458 13.0099H16.4767L16.458 13.0348V13.0099Z" fill="black"/>
<path d="M16.4011 12.9787C16.4011 12.9787 16.4479 13.069 16.4572 13.1033C16.4604 13.122 16.4884 13.147 16.5196 13.1563C16.5507 13.1688 16.5819 13.1688 16.6037 13.1532L16.6442 13.1189C16.6567 13.1033 16.6629 13.1002 16.6754 13.1033V13.0877C16.6567 13.0877 16.6473 13.094 16.6349 13.1064L16.5944 13.1376C16.5694 13.1563 16.5414 13.1501 16.5258 13.1438C16.4946 13.1345 16.4728 13.1127 16.4697 13.0971C16.4604 13.0659 16.4167 12.9755 16.4136 12.9724L16.4011 12.9787ZM16.4635 12.7106C16.4283 12.7291 16.4016 12.7604 16.3887 12.7979L16.4011 12.801C16.4011 12.801 16.423 12.7449 16.4666 12.7231C16.4783 12.7178 16.4911 12.715 16.504 12.715C16.5169 12.715 16.5296 12.7178 16.5414 12.7231L16.5445 12.7106C16.5133 12.6982 16.4884 12.6982 16.4604 12.7106H16.4635ZM16.8001 12.8727C16.8063 12.8727 16.8998 12.9475 16.8468 13.0348L16.8562 13.0441C16.9185 12.9413 16.8094 12.8602 16.8094 12.8571L16.8001 12.8727ZM16.5133 12.8852C16.5133 12.8852 16.4978 12.9382 16.5757 12.9568C16.5757 12.9568 16.504 12.9568 16.4978 12.9381C16.4946 12.9195 16.4978 12.8789 16.5133 12.8852ZM16.7471 12.9475C16.7471 12.9537 16.7408 12.9568 16.7377 12.9568C16.7357 12.957 16.7337 12.9564 16.732 12.9553C16.7303 12.9542 16.729 12.9525 16.7284 12.9506C16.7284 12.9444 16.7315 12.9413 16.7377 12.9413C16.7408 12.9413 16.7471 12.9444 16.7471 12.9506V12.9475ZM16.7533 12.9849C16.7533 12.988 16.7533 12.9911 16.7471 12.9911C16.745 12.9912 16.743 12.9907 16.7414 12.9896C16.7397 12.9885 16.7384 12.9868 16.7377 12.9849C16.7377 12.9824 16.7387 12.98 16.7405 12.9783C16.7422 12.9765 16.7446 12.9755 16.7471 12.9755C16.7502 12.9755 16.7533 12.9787 16.7533 12.9849Z" fill="black"/>
<path d="M16.6978 12.9756C16.703 12.9756 16.7072 12.9714 16.7072 12.9663C16.7072 12.9611 16.703 12.9569 16.6978 12.9569C16.6927 12.9569 16.6885 12.9611 16.6885 12.9663C16.6885 12.9714 16.6927 12.9756 16.6978 12.9756Z" fill="black"/>
<path d="M16.7224 13.0161C16.7224 13.0186 16.7214 13.021 16.7197 13.0227C16.7179 13.0245 16.7155 13.0255 16.713 13.0255C16.7106 13.0255 16.7082 13.0245 16.7064 13.0227C16.7047 13.021 16.7037 13.0186 16.7037 13.0161C16.7037 13.013 16.7068 13.0099 16.713 13.0099L16.7224 13.0161ZM16.5011 12.7886C16.5011 12.7911 16.5001 12.7935 16.4984 12.7952C16.4966 12.797 16.4943 12.798 16.4918 12.798C16.4893 12.798 16.4869 12.797 16.4852 12.7952C16.4834 12.7935 16.4824 12.7911 16.4824 12.7886C16.4833 12.7873 16.4844 12.7863 16.4858 12.7855C16.4872 12.7848 16.4887 12.7844 16.4902 12.7844C16.4918 12.7844 16.4933 12.7848 16.4946 12.7855C16.496 12.7863 16.4972 12.7873 16.498 12.7886H16.5011Z" fill="black"/>
<path d="M16.4986 12.8322C16.5038 12.8322 16.508 12.828 16.508 12.8228C16.508 12.8177 16.5038 12.8135 16.4986 12.8135C16.4934 12.8135 16.4893 12.8177 16.4893 12.8228C16.4893 12.828 16.4934 12.8322 16.4986 12.8322Z" fill="black"/>
<path d="M16.4517 12.8166C16.4569 12.8166 16.4611 12.8124 16.4611 12.8072C16.4611 12.802 16.4569 12.7979 16.4517 12.7979C16.4466 12.7979 16.4424 12.802 16.4424 12.8072C16.4424 12.8124 16.4466 12.8166 16.4517 12.8166Z" fill="black"/>
<path d="M16.4736 12.8572C16.4737 12.8592 16.4732 12.8612 16.472 12.8629C16.4709 12.8646 16.4693 12.8658 16.4674 12.8665C16.4649 12.8665 16.4625 12.8655 16.4607 12.8638C16.459 12.862 16.458 12.8596 16.458 12.8572C16.458 12.8547 16.459 12.8523 16.4607 12.8506C16.4625 12.8488 16.4649 12.8478 16.4674 12.8478C16.4693 12.8485 16.4709 12.8498 16.472 12.8514C16.4732 12.8531 16.4737 12.8551 16.4736 12.8572ZM16.6232 12.558C16.6232 12.558 16.7323 12.6265 16.6263 12.7543C16.6263 12.7543 16.6793 12.7138 16.6824 12.6484C16.6886 12.5829 16.645 12.5299 16.6201 12.558H16.6232ZM17.0439 12.7419C17.0065 12.7606 16.9567 12.7263 16.9317 12.6951C16.9068 12.6639 16.8538 12.6546 16.8195 12.7138C16.7884 12.7699 16.7416 12.7917 16.7416 12.7917C16.7416 12.7917 16.7884 12.7668 16.8351 12.7138C16.8819 12.6639 16.9099 12.7045 16.9567 12.7294C17.0003 12.7543 17.0096 12.7606 17.0408 12.745V12.7419H17.0439Z" fill="black"/>
<path d="M17.0341 12.7512C17.0241 12.7589 17.0118 12.7628 16.9992 12.7622C16.9866 12.7616 16.9747 12.7566 16.9655 12.7481C16.9343 12.7231 16.9125 12.692 16.8782 12.7107C16.8408 12.7294 16.7754 12.7792 16.7754 12.7792C16.7754 12.7792 16.8845 12.7044 16.9063 12.7231C16.925 12.7387 16.9748 12.7792 17.0029 12.7668L17.0341 12.7512Z" fill="black"/>
<path d="M16.9504 12.7948C16.9161 12.7699 16.8818 12.826 16.8538 12.8198C16.8226 12.8135 16.8008 12.7637 16.8008 12.7637C16.8008 12.7637 16.8257 12.8135 16.8631 12.8042C16.9036 12.7917 16.9286 12.7668 16.9535 12.7855C16.9753 12.8042 16.9504 12.7948 16.9504 12.7948Z" fill="black"/>
<path d="M16.8971 12.8041C16.8882 12.8059 16.879 12.8058 16.8701 12.8037C16.8613 12.8015 16.853 12.7975 16.8459 12.7919C16.8388 12.7863 16.8329 12.7791 16.8289 12.771C16.8248 12.7629 16.8225 12.754 16.8223 12.7449C16.8223 12.7449 16.8441 12.801 16.9033 12.7916L16.8971 12.8041Z" fill="black"/>
<path d="M16.8938 12.7605C16.8969 12.776 16.8969 12.7854 16.8782 12.7854C16.8595 12.7854 16.847 12.7792 16.847 12.7605C16.847 12.7449 16.8907 12.748 16.8938 12.7605ZM16.6507 12.667C16.6499 12.6722 16.6473 12.677 16.6433 12.6804C16.6393 12.6838 16.6341 12.6857 16.6289 12.6857C16.6164 12.6857 16.6133 12.6794 16.6133 12.667C16.6133 12.6545 16.6133 12.6451 16.6289 12.6451C16.6444 12.6451 16.6507 12.6545 16.6507 12.667Z" fill="black"/>
<path d="M16.573 12.5891C16.573 12.5891 16.6915 12.5891 16.6354 12.7356C16.6354 12.7356 16.679 12.6639 16.6509 12.6109C16.6198 12.5611 16.5793 12.5735 16.5793 12.5735C16.5793 12.5735 16.5668 12.5829 16.573 12.5891Z" fill="black"/>
<path d="M16.5734 12.6484C16.5734 12.6795 16.5921 12.7076 16.6295 12.7388L16.6389 12.7263C16.6046 12.6982 16.5859 12.6733 16.5859 12.6484C16.5859 12.6234 16.6046 12.6079 16.6046 12.6079L16.5952 12.5985C16.5952 12.5985 16.5734 12.6172 16.5703 12.6484H16.5734Z" fill="black"/>
<path d="M16.598 12.6733C16.6011 12.6889 16.6167 12.7045 16.6354 12.7107L16.6417 12.6982C16.6261 12.692 16.6136 12.6795 16.6105 12.6671C16.6043 12.6421 16.623 12.6141 16.623 12.6141L16.6105 12.6047C16.6105 12.6047 16.5887 12.6421 16.598 12.6733ZM16.757 12.7543C16.757 12.7543 16.7788 12.8011 16.7476 12.8509L16.7165 12.9008C16.7165 12.9008 16.7539 12.8291 16.7383 12.8011C16.7258 12.7699 16.757 12.7543 16.757 12.7543ZM17.212 13.2467C17.3304 13.2686 17.6016 13.4805 17.6016 13.4805L17.6171 13.4618C17.6078 13.4524 17.3398 13.2436 17.2151 13.2218L17.2089 13.2467H17.212ZM17.318 13.5428C17.3242 13.6519 17.4426 13.7173 17.4426 13.7205L17.4582 13.6986C17.4582 13.6986 17.3491 13.6363 17.3429 13.5428H17.318ZM17.0281 13.5677C17.0281 13.6862 17.1403 13.8295 17.1465 13.8358L17.1652 13.8202C17.1652 13.8202 17.053 13.6768 17.053 13.5677H17.0281ZM16.651 13.5802C16.6697 13.6207 16.6697 13.6394 16.6635 13.6488C16.6572 13.6612 16.6448 13.6612 16.6448 13.6612L16.6479 13.6862C16.6572 13.6862 16.6759 13.6799 16.6853 13.6612C16.6978 13.6394 16.6946 13.6083 16.6728 13.5677L16.651 13.5802Z" fill="black"/>
<path d="M14.9539 12.989C14.9539 12.989 14.9539 13.0687 15.0195 13.1156C15.0195 13.1156 15.0102 13.0312 15.0289 12.9937C15.0289 12.9937 14.9961 12.9562 14.9492 12.9937L14.9539 12.989ZM15.0758 13.0406C15.0758 13.0406 15.0898 13.1109 15.132 13.1437L15.1555 13.139C15.1555 13.139 15.1695 13.0453 15.1836 13.0359C15.1977 13.0265 15.1227 13.0687 15.0758 13.0406Z" fill="white" stroke="black" stroke-width="0.025" stroke-miterlimit="3"/>
<path d="M15.1834 13.0359L15.2303 13.1109L15.2865 13.0828L15.2725 12.9938C15.2725 12.9938 15.2396 12.9844 15.1787 13.0406L15.1834 13.0359Z" fill="white" stroke="black" stroke-width="0.025" stroke-miterlimit="3"/>
<path d="M15.4036 13.05L15.3427 13.1016C15.3427 13.1016 15.3099 13.0782 15.2818 13.0828L15.2958 13.0032C15.2958 13.0032 15.3427 12.9703 15.4036 13.05ZM14.963 13.8C14.963 13.8 14.9536 13.6922 14.9677 13.6828C14.9677 13.6828 15.0146 13.6969 15.0286 13.6828C15.0286 13.6828 15.0568 13.7719 15.0474 13.8047C15.0427 13.8422 15.0005 13.8282 14.963 13.8047V13.8ZM15.2443 13.6875C15.2443 13.6875 15.2443 13.5938 15.2583 13.5797C15.2583 13.5797 15.3521 13.5938 15.3708 13.5469L15.4036 13.636C15.4036 13.636 15.3005 13.6266 15.2443 13.6828V13.6875Z" fill="white" stroke="black" stroke-width="0.025" stroke-miterlimit="3"/>
<path d="M15.1461 13.7063C15.1461 13.7063 15.1648 13.6078 15.1836 13.6031C15.1836 13.6031 15.2305 13.6172 15.2445 13.6031V13.7203C15.2445 13.7203 15.2445 13.6688 15.1508 13.7063H15.1461ZM15.043 13.7203C15.043 13.7203 15.0617 13.6313 15.0758 13.6313C15.0898 13.6313 15.1273 13.6547 15.1461 13.6406V13.7063C15.1461 13.7063 15.0664 13.6875 15.0523 13.8L15.043 13.7203Z" fill="white"/>
<path d="M15.1461 13.7063C15.1461 13.7063 15.1648 13.6078 15.1836 13.6031C15.1836 13.6031 15.2305 13.6172 15.2445 13.6031V13.7203C15.2445 13.7203 15.2445 13.6688 15.1508 13.7063H15.1461ZM15.1461 13.7063V13.6406C15.1273 13.6547 15.0898 13.6313 15.0758 13.6313C15.0617 13.6313 15.043 13.7203 15.043 13.7203L15.0523 13.8C15.0664 13.6875 15.1461 13.7063 15.1461 13.7063Z" stroke="black" stroke-width="0.025" stroke-miterlimit="3"/>
<path d="M16.4532 15.525C16.4532 15.525 16.7016 15.7594 16.6407 15.9563C16.6407 15.9563 16.7953 15.6141 16.6266 15.5156C16.4532 15.4125 16.4485 15.4922 16.4532 15.525Z" fill="#00A651" stroke="black" stroke-width="0.0625" stroke-miterlimit="4.8"/>
<path d="M16.1438 15.75C16.1438 15.75 16.0781 15.839 16.1485 15.9C16.1485 15.9 16.0735 16.0125 16.1297 16.1062C16.1297 16.1062 16.0828 16.2047 16.0969 16.3125C16.0969 16.3125 16.0547 16.4765 16.1438 16.5515C16.1438 16.5515 16.2375 16.5984 16.2797 16.5609C16.2797 16.5609 16.3594 16.4344 16.3078 16.3078C16.3078 16.3078 16.3688 16.2 16.3031 16.0687C16.3031 16.0687 16.3219 15.989 16.2656 15.9C16.2656 15.9 16.3031 15.8437 16.2703 15.7969C16.2703 15.7969 16.1531 15.675 16.1438 15.75Z" fill="#964B36" stroke="black" stroke-width="0.0625" stroke-miterlimit="4.8"/>
<path d="M16.2143 15.4594C16.2143 15.4594 15.9189 14.8969 15.7127 14.8734C15.5111 14.85 15.4971 14.6484 15.4971 14.6484C15.4971 14.6484 15.5205 14.7422 15.6846 14.7422C15.8486 14.7422 16.1674 14.9766 16.2002 15.15C16.2377 15.3281 16.2705 15.3047 16.2705 15.3047L16.2143 15.4594Z" fill="#00A651" stroke="black" stroke-width="0.0625" stroke-miterlimit="4.8"/>
<path d="M16.2144 15.4219C16.2144 15.4219 16.3222 14.7094 16.7863 14.6953C17.2503 14.6813 17.0957 14.7328 17.2082 14.6578C17.2082 14.6578 16.8941 14.8219 16.7019 14.8453C16.5097 14.8688 16.3503 15.2438 16.355 15.3141C16.3597 15.3844 16.2519 15.5203 16.1957 15.4735C16.1441 15.4266 16.2144 15.4219 16.2144 15.4219Z" fill="#00A651" stroke="black" stroke-width="0.0625" stroke-miterlimit="4.8"/>
<path d="M16.3181 15.6844C16.3181 15.6844 16.4259 15.4031 16.6087 15.4969C16.6087 15.4969 16.4681 15.225 16.215 15.4594C16.215 15.4594 16.3275 15.6141 16.3228 15.6844H16.3181ZM15.9665 15.4031C15.9665 15.4031 16.1259 16.0313 15.8915 16.2188C15.8915 16.2188 15.8962 15.8953 15.7556 15.7031C15.615 15.511 15.8962 15.3 15.9712 15.3985L15.9665 15.4031Z" fill="#00A651" stroke="black" stroke-width="0.0625" stroke-miterlimit="4.8"/>
<path d="M15.9844 15.5156C15.9844 15.5156 16.2656 15.7781 16.2797 15.8672C16.2984 15.9563 16.3594 15.6047 16.2328 15.5016C16.1525 15.442 16.0594 15.4019 15.9609 15.3844L15.9844 15.5156Z" fill="#00A651" stroke="black" stroke-width="0.0625" stroke-miterlimit="4.8"/>
<path d="M15.4736 16.2094C15.4736 16.2094 15.5018 16.3172 15.5674 16.3406C15.5674 16.3406 15.5721 16.4203 15.633 16.4484C15.633 16.4484 15.6002 16.514 15.6564 16.5562C15.6564 16.5562 15.6424 16.6969 15.6939 16.725C15.6939 16.725 15.8158 16.7156 15.858 16.6781C15.858 16.6781 15.8861 16.589 15.8158 16.5C15.8158 16.5 15.8252 16.4156 15.7596 16.3687C15.7596 16.3687 15.7783 16.2515 15.6939 16.2094C15.6939 16.2094 15.6799 16.1156 15.6283 16.0687C15.6283 16.0687 15.5205 16.2187 15.4736 16.2094Z" fill="#964B36" stroke="black" stroke-width="0.0625" stroke-miterlimit="4.8"/>
<path d="M15.6094 16.0734C15.6094 16.0734 15.2484 15.9375 15.0469 16.1296C15.0469 16.1296 15.3562 16.1718 15.3984 16.2328C15.4359 16.2937 15.6281 16.1343 15.6141 16.0734H15.6094Z" fill="#00A651" stroke="black" stroke-width="0.0625" stroke-miterlimit="4.8"/>
<path d="M15.502 16.2984L15.4364 16.2469C15.3989 16.2234 15.0942 16.139 15.052 16.4344C15.052 16.4344 14.9442 16.1437 15.1036 16.1062C15.263 16.0594 15.3942 16.1531 15.502 16.2937M15.263 15.6984C15.263 15.6984 15.3755 15.9328 15.4177 15.9515C15.4552 15.9609 15.488 15.9187 15.488 15.9187C15.488 15.9187 15.338 15.7031 15.263 15.6984ZM15.1786 15.3234C15.1786 15.3234 15.0849 15.014 14.977 15.0984C14.8645 15.1781 14.8927 15.4031 14.8927 15.4031C14.8927 15.4031 14.6677 15.1734 14.7989 14.9906C14.9302 14.8078 15.1833 15.0094 15.1833 15.3281L15.1786 15.3234Z" fill="#00A651"/>
<path d="M15.502 16.2984L15.4364 16.2469C15.3989 16.2234 15.0942 16.139 15.052 16.4344C15.052 16.4344 14.9442 16.1437 15.1036 16.1062C15.263 16.0594 15.3942 16.1531 15.502 16.2937M15.263 15.6984C15.263 15.6984 15.3755 15.9328 15.4177 15.9515C15.4552 15.9609 15.488 15.9187 15.488 15.9187C15.488 15.9187 15.338 15.7031 15.263 15.6984ZM15.1786 15.3234C15.1786 15.3234 15.0849 15.014 14.977 15.0984C14.8645 15.1781 14.8927 15.4031 14.8927 15.4031C14.8927 15.4031 14.6677 15.1734 14.7989 14.9906C14.9302 14.8078 15.1833 15.0094 15.1833 15.3281L15.1786 15.3234Z" stroke="black" stroke-width="0.0625" stroke-miterlimit="4.8"/>
<path d="M15.4316 15.9656C15.4316 15.9656 15.4316 16.0265 15.4785 16.0406C15.516 16.0593 15.591 16.0874 15.591 16.0546C15.591 16.0218 15.5348 15.8859 15.5113 15.8999C15.4879 15.9187 15.4457 15.9187 15.4316 15.9656Z" fill="#964B36" stroke="black" stroke-width="0.0625" stroke-miterlimit="4.8"/>
<path d="M15.3614 15.6047C15.3614 15.6047 15.352 15.3329 15.5255 15.2297C15.5255 15.2297 15.563 15.2391 15.5817 15.1829C15.5817 15.1829 15.4411 15.525 15.4786 15.6985V15.7219" fill="#00A651"/>
<path d="M15.3614 15.6047C15.3614 15.6047 15.352 15.3329 15.5255 15.2297C15.5255 15.2297 15.563 15.2391 15.5817 15.1829C15.5817 15.1829 15.4411 15.525 15.4786 15.6985V15.7219" stroke="black" stroke-width="0.0625" stroke-miterlimit="4.8"/>
<path d="M15.3984 15.2718C15.3984 15.2718 15.7172 14.6156 16.1016 14.8453C16.1016 14.8453 15.6984 14.925 15.5531 15.2156L15.4031 15.4312L15.3984 15.2718Z" fill="#00A651" stroke="black" stroke-width="0.0625" stroke-miterlimit="4.8"/>
<path d="M15.2301 15.5157C15.2301 15.5157 15.1363 15.075 15.0754 15.0141C15.0145 14.9578 14.916 14.8922 14.7988 14.9907C14.7988 14.9907 15.0051 14.8078 15.2207 14.9625C15.441 15.1172 15.3941 15.3563 15.3941 15.3563L15.3707 15.661L15.2207 15.525" fill="#00A651"/>
<path d="M15.2301 15.5157C15.2301 15.5157 15.1363 15.075 15.0754 15.0141C15.0145 14.9578 14.916 14.8922 14.7988 14.9907C14.7988 14.9907 15.0051 14.8078 15.2207 14.9625C15.441 15.1172 15.3941 15.3563 15.3941 15.3563L15.3707 15.661L15.2207 15.525" stroke="black" stroke-width="0.0625" stroke-miterlimit="4.8"/>
<path d="M15.5678 16.036C15.5678 16.036 15.1788 15.3047 14.9303 15.825C14.9303 15.825 14.8835 15.961 14.9303 16.0125C14.9303 16.0125 14.7897 15.9094 14.8553 15.6469C14.921 15.3938 15.3522 15.5063 15.4741 15.7219C15.596 15.9328 15.6335 16.036 15.6147 16.05C15.596 16.0594 15.5678 16.036 15.5678 16.036ZM16.66 16.2469C16.66 16.2469 16.9413 15.6657 17.11 15.9328C17.11 15.9328 17.1569 16.0594 17.0819 16.1157C17.0819 16.1157 16.9741 15.975 16.871 16.1438C16.7772 16.3078 16.8147 16.2938 16.8147 16.2938C16.8147 16.2938 16.7069 16.3266 16.66 16.2469Z" fill="#00A651" stroke="black" stroke-width="0.0625" stroke-miterlimit="4.8"/>
<path d="M17.082 16.1157C17.082 16.1157 17.2367 16.1954 17.1852 16.3594C17.1852 16.3594 17.3914 15.9657 17.1055 15.9329C17.1055 15.9329 17.1617 16.0547 17.0867 16.1157H17.082ZM17.1008 15.7125C17.1008 15.7125 17.4758 15.8204 17.4852 15.9797C17.4852 15.9797 17.5461 15.675 17.3352 15.5813C17.3352 15.5813 17.082 15.6188 17.1008 15.7125Z" fill="#00A651" stroke="black" stroke-width="0.0625" stroke-miterlimit="4.8"/>
<path d="M17.2645 15.225C17.4238 14.9156 17.6254 15.3281 17.6254 15.3281C17.6254 15.3281 17.6957 15 17.4941 14.9437C17.2926 14.8875 17.166 15.6328 17.166 15.6328L16.9316 15.6843C16.9316 15.6843 16.9973 15.0328 17.3488 14.9718L17.391 14.9812" fill="#00A651"/>
<path d="M17.2645 15.225C17.4238 14.9156 17.6254 15.3281 17.6254 15.3281C17.6254 15.3281 17.6957 15 17.4941 14.9437C17.2926 14.8875 17.166 15.6328 17.166 15.6328L16.9316 15.6843C16.9316 15.6843 16.9973 15.0328 17.3488 14.9718L17.391 14.9812" stroke="black" stroke-width="0.0625" stroke-miterlimit="4.8"/>
<path d="M16.9834 15.4125C16.9834 15.4125 16.7584 14.9579 16.6084 14.911C16.4537 14.8641 16.6928 14.7938 16.7866 14.8782C16.8803 14.9719 17.0537 15.0797 17.035 15.3141L16.9881 15.4125H16.9834ZM16.7537 16.0407C16.7537 16.0407 16.8194 15.7313 16.9975 15.6375C17.1709 15.5438 17.335 15.5766 17.335 15.5766C17.335 15.5766 17.1241 15.6235 17.0912 15.7313C17.0537 15.8391 16.9975 15.8438 16.9975 15.8438L16.7537 16.0407Z" fill="#00A651" stroke="black" stroke-width="0.0625" stroke-miterlimit="4.8"/>
<path d="M16.6602 16.2468C16.6602 16.2468 16.5617 16.4343 16.5852 16.4671C16.5852 16.4671 16.4774 16.6171 16.5196 16.6968C16.5196 16.6968 16.6274 16.7765 16.6742 16.7437C16.6742 16.7437 16.7961 16.5703 16.7633 16.4765C16.7633 16.4765 16.843 16.364 16.8102 16.2937C16.8102 16.2937 16.693 16.3031 16.6602 16.2468Z" fill="#964B36" stroke="black" stroke-width="0.0625" stroke-miterlimit="4.8"/>
<path d="M16.1439 15.9141C16.1486 15.9141 16.2096 15.9469 16.2518 15.9328L16.2799 15.9094L16.2564 15.8953C16.2424 15.9234 16.1768 15.9 16.1533 15.8906L16.1439 15.9141ZM16.1346 16.0969L16.1299 16.1203C16.1346 16.1203 16.2518 16.1437 16.3127 16.0922L16.2939 16.0734C16.2471 16.1203 16.1346 16.0969 16.1346 16.0969ZM16.1018 16.3031L16.0877 16.3219C16.0877 16.3219 16.2283 16.425 16.3221 16.3172L16.2986 16.2984C16.2236 16.3922 16.1111 16.3078 16.1064 16.2984L16.1018 16.3031ZM15.5674 16.3312V16.3453C15.5768 16.3453 15.6939 16.2984 15.7033 16.2094H15.6893C15.6799 16.2891 15.5674 16.3312 15.5674 16.3312ZM15.633 16.4391V16.4531C15.6377 16.4531 15.7455 16.4438 15.7643 16.3688H15.7502C15.7361 16.4344 15.633 16.4391 15.633 16.4391ZM15.6564 16.5516V16.5656C15.6564 16.5656 15.783 16.5703 15.8205 16.5047L15.8111 16.4953C15.7736 16.5562 15.6564 16.5516 15.6564 16.5516ZM16.5752 16.4766C16.5752 16.4766 16.6314 16.5281 16.6924 16.5234C16.7076 16.5231 16.7225 16.5197 16.7362 16.5132C16.75 16.5067 16.7622 16.4974 16.7721 16.4859L16.7533 16.4719C16.7372 16.4884 16.7155 16.4985 16.6924 16.5C16.6737 16.4991 16.6553 16.4945 16.6384 16.4865C16.6215 16.4784 16.6064 16.4671 16.5939 16.4531L16.5752 16.4766Z" fill="black"/>
<path d="M20.2219 16.9031C20.2146 16.9063 20.2082 16.9111 20.2031 16.9172L20.2219 16.9031ZM20.6531 16.7953C20.6531 16.7859 20.6484 16.7906 20.6437 16.7859L20.625 16.7484H20.6109L20.5781 16.6828C20.5789 16.6797 20.5789 16.6765 20.5781 16.6734C20.5783 16.6672 20.5783 16.6609 20.5781 16.6547C20.5734 16.65 20.5688 16.6547 20.5641 16.6453V16.6125L20.5594 16.5937V16.5656C20.56 16.5594 20.56 16.5531 20.5594 16.5469C20.55 16.5281 20.5406 16.514 20.5406 16.4906L20.5453 16.4437L20.5359 16.3969L20.5453 16.3547V16.1062C20.5359 16.0875 20.5406 16.0734 20.5359 16.0594V15.9656L20.5312 16.0828C20.5312 15.9797 20.5219 15.8812 20.5219 15.8812L20.3672 15.8109C20.3672 15.8109 20.3531 16.0969 20.3578 16.139C20.3578 16.1765 20.3719 16.4531 20.3672 16.4859C20.3578 16.5187 20.3438 16.6828 20.3438 16.6828C20.3438 16.6828 20.2688 16.739 20.2359 16.8C20.2078 16.8562 20.2125 16.8797 20.2031 16.8797L20.2781 16.8656L20.2219 16.9031C20.2273 16.9009 20.2331 16.9002 20.2389 16.901C20.2447 16.9018 20.2501 16.9042 20.2547 16.9078L20.2687 16.9172L20.2781 16.9078L20.3109 16.9265L20.3297 16.9125L20.3391 16.8937H20.3906C20.4047 16.8937 20.4141 16.875 20.4281 16.8609C20.4422 16.8515 20.4516 16.8469 20.4656 16.8469C20.4797 16.8469 20.4938 16.8609 20.5078 16.8656C20.5172 16.8656 20.5266 16.8656 20.5359 16.8515L20.55 16.8234H20.6391L20.6531 16.8328L20.6578 16.814V16.7953H20.6531Z" fill="#964B36"/>
<path d="M20.2219 16.9031C20.2146 16.9063 20.2082 16.9111 20.2031 16.9172L20.2219 16.9031ZM20.2219 16.9031L20.2781 16.8656L20.2031 16.8797C20.2125 16.8797 20.2078 16.8562 20.2359 16.8C20.2688 16.739 20.3438 16.6828 20.3438 16.6828C20.3438 16.6828 20.3578 16.5187 20.3672 16.4859C20.3719 16.4531 20.3578 16.1765 20.3578 16.139C20.3531 16.0969 20.3672 15.8109 20.3672 15.8109L20.5219 15.8812C20.5219 15.8812 20.5312 15.9797 20.5312 16.0828L20.5359 15.9656V16.0594C20.5406 16.0734 20.5359 16.0875 20.5453 16.1062V16.3547L20.5359 16.3969L20.5453 16.4437L20.5406 16.4906C20.5406 16.514 20.55 16.5281 20.5594 16.5469C20.56 16.5531 20.56 16.5594 20.5594 16.5656V16.5937L20.5641 16.6125V16.6453C20.5688 16.6547 20.5734 16.65 20.5781 16.6547C20.5783 16.6609 20.5783 16.6672 20.5781 16.6734C20.5789 16.6765 20.5789 16.6797 20.5781 16.6828L20.6109 16.7484H20.625L20.6437 16.7859C20.6484 16.7906 20.6531 16.7859 20.6531 16.7953H20.6578V16.814L20.6531 16.8328L20.6391 16.8234H20.55L20.5359 16.8515C20.5266 16.8656 20.5172 16.8656 20.5078 16.8656C20.4937 16.8609 20.4797 16.8469 20.4656 16.8469C20.4516 16.8469 20.4422 16.8515 20.4281 16.8609C20.4141 16.875 20.4047 16.8937 20.3906 16.8937H20.3391L20.3297 16.9125L20.3109 16.9265L20.2781 16.9078L20.2687 16.9172L20.2547 16.9078C20.2501 16.9042 20.2447 16.9018 20.2389 16.901C20.2331 16.9002 20.2273 16.9009 20.2219 16.9031Z" stroke="black" stroke-width="0.0375" stroke-miterlimit="4.8"/>
<path d="M20.3391 16.8984L20.3625 16.9031L20.3672 16.9125C20.3686 16.9133 20.3702 16.9137 20.3719 16.9137C20.3735 16.9137 20.3751 16.9133 20.3766 16.9125L20.3906 16.9172H20.4047L20.4234 16.9218C20.4328 16.9265 20.4422 16.9218 20.4516 16.9172C20.4609 16.9078 20.4656 16.9172 20.475 16.9265C20.4844 16.9359 20.4844 16.9312 20.4891 16.9265C20.489 16.925 20.489 16.9234 20.4891 16.9218L20.5031 16.9172L20.5219 16.9125L20.5359 16.9031L20.5547 16.9125C20.558 16.9136 20.5612 16.9152 20.5641 16.9172C20.5734 16.9031 20.5922 16.8984 20.6016 16.889H20.6625C20.6672 16.8843 20.6672 16.8797 20.6766 16.8797L20.7094 16.8984C20.7141 16.8984 20.7422 16.9078 20.7375 16.8843C20.7375 16.8656 20.7187 16.8797 20.7141 16.8656V16.8375C20.7124 16.8332 20.7099 16.8293 20.7067 16.8261C20.7034 16.8229 20.6996 16.8204 20.6953 16.8187H20.6813L20.6719 16.7953C20.6672 16.7953 20.6625 16.8 20.6531 16.7953L20.6437 16.7859C20.6297 16.7718 20.6203 16.7953 20.6109 16.7906C20.6016 16.7906 20.5922 16.7672 20.5828 16.7578C20.5828 16.7531 20.5688 16.7343 20.5641 16.739C20.5547 16.7437 20.5641 16.7625 20.5594 16.7718C20.5547 16.7765 20.5406 16.7718 20.5406 16.7718C20.5313 16.7718 20.5312 16.7718 20.5266 16.7859C20.5125 16.8 20.5078 16.814 20.4938 16.814L20.4703 16.8047C20.4656 16.8093 20.4609 16.8187 20.4516 16.8187C20.4454 16.82 20.439 16.82 20.4328 16.8187C20.4234 16.8187 20.4187 16.8047 20.4141 16.8C20.4141 16.7987 20.4136 16.7975 20.4127 16.7966C20.4118 16.7958 20.4106 16.7953 20.4094 16.7953C20.4081 16.7953 20.4069 16.7958 20.4061 16.7966C20.4052 16.7975 20.4047 16.7987 20.4047 16.8L20.3953 16.7953C20.3859 16.7906 20.3859 16.7953 20.3812 16.8047V16.8281L20.3625 16.8468L20.3438 16.8515C20.3391 16.8515 20.3297 16.8656 20.325 16.8515C20.3203 16.8328 20.3391 16.8 20.3156 16.8047C20.3156 16.8047 20.3063 16.8047 20.3016 16.8187V16.8468C20.3016 16.8609 20.2734 16.8843 20.2781 16.8937C20.2781 16.9078 20.2922 16.8937 20.2969 16.8937C20.3016 16.8984 20.2969 16.9078 20.3063 16.9125C20.3109 16.9265 20.3391 16.8937 20.3391 16.9125M20.2406 16.7859V16.7812L20.2172 16.7718L20.1984 16.7906C20.1844 16.814 20.1891 16.8375 20.1656 16.8375H20.1469C20.1375 16.8422 20.1469 16.8609 20.1469 16.8703V16.8843C20.1422 16.8843 20.1375 16.8843 20.1328 16.8937C20.1328 16.9125 20.1469 16.9078 20.1516 16.9078H20.1984L20.2266 16.8984L20.25 16.8937C20.2541 16.8863 20.2572 16.8784 20.2594 16.8703V16.8515C20.2594 16.8422 20.2687 16.8468 20.2734 16.8328C20.2734 16.8 20.2406 16.8234 20.2453 16.7906" fill="#964B36"/>
<path d="M20.3391 16.8984L20.3625 16.9031L20.3672 16.9125C20.3686 16.9133 20.3702 16.9137 20.3719 16.9137C20.3735 16.9137 20.3751 16.9133 20.3766 16.9125L20.3906 16.9172H20.4047L20.4234 16.9218C20.4328 16.9265 20.4422 16.9218 20.4516 16.9172C20.4609 16.9078 20.4656 16.9172 20.475 16.9265C20.4844 16.9359 20.4844 16.9312 20.4891 16.9265C20.489 16.925 20.489 16.9234 20.4891 16.9218L20.5031 16.9172L20.5219 16.9125L20.5359 16.9031L20.5547 16.9125C20.558 16.9136 20.5612 16.9152 20.5641 16.9172C20.5734 16.9031 20.5922 16.8984 20.6016 16.889H20.6625C20.6672 16.8843 20.6672 16.8797 20.6766 16.8797L20.7094 16.8984C20.7141 16.8984 20.7422 16.9078 20.7375 16.8843C20.7375 16.8656 20.7187 16.8797 20.7141 16.8656V16.8375C20.7124 16.8332 20.7099 16.8293 20.7067 16.8261C20.7034 16.8229 20.6996 16.8204 20.6953 16.8187H20.6813L20.6719 16.7953C20.6672 16.7953 20.6625 16.8 20.6531 16.7953L20.6437 16.7859C20.6297 16.7718 20.6203 16.7953 20.6109 16.7906C20.6016 16.7906 20.5922 16.7672 20.5828 16.7578C20.5828 16.7531 20.5688 16.7343 20.5641 16.739C20.5547 16.7437 20.5641 16.7625 20.5594 16.7718C20.5547 16.7765 20.5406 16.7718 20.5406 16.7718C20.5313 16.7718 20.5312 16.7718 20.5266 16.7859C20.5125 16.8 20.5078 16.814 20.4938 16.814L20.4703 16.8047C20.4656 16.8093 20.4609 16.8187 20.4516 16.8187C20.4454 16.82 20.439 16.82 20.4328 16.8187C20.4234 16.8187 20.4188 16.8047 20.4141 16.8C20.4141 16.7987 20.4136 16.7975 20.4127 16.7966C20.4118 16.7958 20.4106 16.7953 20.4094 16.7953C20.4081 16.7953 20.4069 16.7958 20.4061 16.7966C20.4052 16.7975 20.4047 16.7987 20.4047 16.8L20.3953 16.7953C20.3859 16.7906 20.3859 16.7953 20.3812 16.8047V16.8281L20.3625 16.8468L20.3438 16.8515C20.3391 16.8515 20.3297 16.8656 20.325 16.8515C20.3203 16.8328 20.3391 16.8 20.3156 16.8047C20.3156 16.8047 20.3063 16.8047 20.3016 16.8187V16.8468C20.3016 16.8609 20.2734 16.8843 20.2781 16.8937C20.2781 16.9078 20.2922 16.8937 20.2969 16.8937C20.3016 16.8984 20.2969 16.9078 20.3063 16.9125C20.3109 16.9265 20.3391 16.8937 20.3391 16.9125M20.2406 16.7859V16.7812L20.2172 16.7718L20.1984 16.7906C20.1844 16.814 20.1891 16.8375 20.1656 16.8375H20.1469C20.1375 16.8422 20.1469 16.8609 20.1469 16.8703V16.8843C20.1422 16.8843 20.1375 16.8843 20.1328 16.8937C20.1328 16.9125 20.1469 16.9078 20.1516 16.9078H20.1984L20.2266 16.8984L20.25 16.8937C20.2541 16.8863 20.2572 16.8784 20.2594 16.8703V16.8515C20.2594 16.8422 20.2687 16.8468 20.2734 16.8328C20.2734 16.8 20.2406 16.8234 20.2453 16.7906" stroke="black" stroke-width="0.0375" stroke-miterlimit="4.8"/>
<path d="M20.6352 15.8765C20.6352 15.9234 20.607 15.9562 20.5695 15.9562C20.532 15.9562 20.5039 15.9187 20.5039 15.8765C20.5039 15.8343 20.532 15.8015 20.5695 15.8015C20.607 15.8015 20.6352 15.8343 20.6352 15.8765ZM20.4242 15.7828C20.4242 15.8296 20.3914 15.8578 20.3586 15.8578C20.3211 15.8578 20.293 15.825 20.293 15.7828C20.293 15.7406 20.3211 15.7078 20.3586 15.7078C20.3914 15.7078 20.4242 15.7406 20.4242 15.7828Z" fill="black" stroke="black" stroke-width="0.0625" stroke-miterlimit="4.8"/>
<path d="M20.5318 15.8108C20.5318 15.8577 20.5037 15.8905 20.4709 15.8905C20.4334 15.8905 20.4053 15.853 20.4053 15.8108C20.4053 15.7687 20.4334 15.7358 20.4709 15.7358C20.5037 15.7358 20.5318 15.7687 20.5318 15.8108Z" fill="black" stroke="black" stroke-width="0.0625" stroke-miterlimit="4.8"/>
<path d="M20.4244 15.8812C20.4244 15.928 20.3963 15.9608 20.3635 15.9608C20.326 15.9608 20.2979 15.9233 20.2979 15.8812C20.2979 15.839 20.326 15.8062 20.3635 15.8062C20.3963 15.8062 20.4244 15.839 20.4244 15.8812Z" fill="black" stroke="black" stroke-width="0.0625" stroke-miterlimit="4.8"/>
<path d="M20.5277 15.9374C20.5277 15.9843 20.4996 16.0171 20.4621 16.0171C20.4246 16.0171 20.3965 15.9843 20.3965 15.9421C20.3965 15.8952 20.4246 15.8624 20.4621 15.8624C20.4996 15.8624 20.5277 15.8999 20.5277 15.9421V15.9374Z" fill="black" stroke="black" stroke-width="0.0625" stroke-miterlimit="4.8"/>
<path d="M20.5555 15.1078C20.5555 15.1078 21.2117 14.1985 21.9102 15.1453C21.9102 15.1453 21.9102 15.2391 21.8492 15.3328L21.8305 15.2625L21.793 15.2719L21.7789 15.225L21.7039 15.2203L21.7273 15.1219L21.643 15.1828L21.657 15.1125L21.5633 15.2063L21.5727 15.0094L21.4742 15.1781L21.4836 15.061L21.4508 15.1125L21.4273 15.0469L21.3992 15.1125L21.3523 15.0797V15.1266L21.268 15.0563L21.2398 15.15L21.193 15.0516L21.1836 15.1172L21.1461 15.0375L21.1367 15.1266L21.0055 15.0656L21.0336 15.15L20.968 15.1031L20.982 15.15L20.8883 15.1313L20.8977 15.1828L20.8039 15.1688L20.8227 15.2156L20.6914 15.1969L20.7383 15.2485L20.7242 15.2719C20.7242 15.2719 21.432 15.0375 21.4789 15.9188L21.3523 15.9844L21.3852 15.9141L21.3523 15.8906L21.2445 15.8063L21.2727 15.6938L21.2398 15.7078L21.2305 15.6422L21.2164 15.6563L21.1695 15.5906L21.1602 15.6141L21.132 15.5344L21.1039 15.5906L21.0852 15.4594L21.0383 15.5438L21.0336 15.4969L21.0148 15.525L20.9586 15.4547L20.9398 15.5016L20.9164 15.4641L20.8977 15.511L20.832 15.45V15.4969L20.7945 15.4594L20.7758 15.4828L20.6727 15.4313V15.4781L20.6164 15.4313L20.5977 15.4781C20.5977 15.4781 21.2398 15.8438 21.0383 16.4344L21.0055 16.5141L20.9914 16.3125L20.9352 16.4203L20.9727 16.186L20.9352 16.2328L20.9258 16.1391L20.8742 16.2328L20.8555 16.1297L20.832 16.1578L20.7992 16.0078L20.7664 16.0735L20.7195 15.9L20.6867 15.9703L20.6633 15.825L20.6398 15.9141L20.5695 15.7828L20.5555 15.8344L20.518 15.7313L20.4945 15.7641C20.4945 15.7641 20.3773 15.7641 20.3398 15.7313C20.3023 15.7031 20.2039 15.9094 20.2039 15.9094L20.218 15.7828L20.1711 15.8672V15.7828L20.1008 16.0313L20.082 15.8531L20.0398 16.0078L20.0211 15.961L20.0117 16.0266L19.9883 16.0031L19.9648 16.0688L19.9273 16.0406V16.1344L19.8945 16.0875L19.8617 16.2281L19.8477 16.1719V16.2375L19.8148 16.2L19.7867 16.3406L19.7445 16.2844V16.3828L19.7586 16.4578L19.7117 16.4344L19.7305 16.561C19.7305 16.561 19.543 16.2188 19.7633 15.8906C19.9836 15.5625 20.2789 15.4688 20.2789 15.4688L20.2461 15.4453L20.2414 15.4125L20.0633 15.5063L20.068 15.45L20.0211 15.4875L20.0117 15.4313L19.9836 15.4828L19.9742 15.4594L19.9367 15.525L19.9133 15.4313L19.8805 15.5438L19.8523 15.4641L19.7914 15.6328V15.5063L19.7445 15.6375L19.7305 15.4969L19.693 15.661V15.511L19.6414 15.661L19.6039 15.5203L19.5805 15.6563L19.5477 15.5485L19.5102 15.7078L19.4586 15.5672L19.4305 15.7781L19.393 15.6938L19.3883 15.8485L19.3461 15.7547L19.3883 15.9516L19.3367 15.8766L19.3508 15.9985L19.2758 15.8672L19.2805 16.0266L19.243 15.9703L19.2242 16.0313C19.2242 16.0313 19.2055 15.4219 19.6227 15.3C20.0398 15.1828 20.3117 15.3375 20.3117 15.3375L20.1523 15.2063L20.1711 15.1688H20.1102L20.1336 15.1219H20.0164L20.0492 15.075L19.9555 15.0891V15.061L19.8992 15.1078L19.9227 15.0563L19.8383 15.1078V15.0281L19.7914 15.0985L19.768 15.0281L19.5805 15.2156L19.632 15.0188L19.5992 15.0656L19.5945 15.0188L19.5383 15.1031L19.5289 15.0422L19.5055 15.1125L19.4867 15.0328L19.4445 15.1125L19.407 15.0375L19.3883 15.136L19.3555 15.0891L19.3227 15.1594L19.2758 15.1125L19.2711 15.1594L19.1773 15.1219L19.2008 15.1922L19.1305 15.1313L19.1117 15.225L19.0695 15.1781L19.0414 15.2953L19.0133 15.1828L18.9805 15.2766C18.9805 15.2766 19.3508 14.3297 20.2789 14.9485C20.2789 14.9485 20.382 15.0422 20.4055 15.1125C20.4289 15.1828 20.4055 15.1266 20.4055 15.1266L20.3914 14.4703L20.4289 14.7516L20.4523 14.6578L20.443 14.7985L20.5367 14.5969C20.5367 14.5969 20.4289 14.9391 20.4664 15.0656C20.4664 15.0656 20.5133 14.6672 20.6539 14.6203L20.5227 14.9016L20.5602 14.8969L20.532 14.9531H20.5695L20.5227 15.0469L20.5039 15.0938L20.5273 15.1406L20.5602 15.1078H20.5555Z" fill="#00A651" stroke="black" stroke-width="0.0625" stroke-miterlimit="4.8"/>
<path d="M20.4613 15.4922L20.4801 15.5062C20.4801 15.5062 20.541 15.4453 20.6348 15.525L20.6535 15.5062C20.5363 15.4078 20.4613 15.4922 20.4613 15.4922ZM20.4332 15.1734L20.4285 15.1922L20.4754 15.1734L20.4426 15.2297L20.5082 15.2062L20.4238 15.314L20.4473 15.3328L20.5785 15.1547L20.4941 15.1828L20.5316 15.1219L20.4613 15.1547L20.4754 15.0609H20.452L20.4332 15.1734Z" fill="black"/>
<path d="M20.307 15.1781L20.3352 15.2438L20.2883 15.225L20.4289 15.4594L20.443 15.4406L20.4148 15.5109L20.4383 15.5203L20.4992 15.3703L20.4758 15.3563L20.4289 15.4172L20.3492 15.2766L20.3867 15.2906L20.3492 15.2062L20.3961 15.2391V15.1453H20.3727V15.1922L20.2977 15.1406L20.3117 15.1781H20.307ZM20.2227 15.4781L20.232 15.5016C20.2695 15.4875 20.2977 15.4828 20.3258 15.4969C20.3492 15.5063 20.3586 15.5344 20.3586 15.5344L20.382 15.5297C20.382 15.5297 20.3727 15.4922 20.3352 15.4734C20.3023 15.4594 20.2648 15.4594 20.2227 15.4781ZM20.3258 15.7313L20.307 15.6H20.3305L20.3539 15.7313H20.3258ZM20.5086 15.7125L20.4758 15.6094L20.4992 15.6047L20.532 15.7031L20.5086 15.7125ZM20.5742 15.7875L20.5508 15.6844L20.5742 15.6797L20.5977 15.7781L20.5742 15.7875Z" fill="black"/>
<path d="M15.5631 18.7969C15.5631 18.7969 15.4506 18.75 15.399 18.7875C15.3521 18.825 15.3521 18.8765 15.31 18.8719C15.31 18.8719 15.4787 18.9094 15.5162 18.8672L15.5631 18.8109M15.5818 18.8484C15.5818 18.8484 15.5068 18.9422 15.535 18.9984C15.5584 19.0547 15.61 19.0594 15.6006 19.1015C15.6006 19.1015 15.6709 18.9469 15.6381 18.9047L15.5912 18.8484M15.46 18.5765C15.46 18.5765 15.3428 18.614 15.3287 18.6703C15.3146 18.7359 15.3568 18.7687 15.324 18.7969C15.324 18.7969 15.4693 18.7125 15.4693 18.6562C15.4698 18.6327 15.4682 18.6092 15.4646 18.5859M15.5256 18.6187C15.5256 18.6187 15.5818 18.5109 15.5443 18.4594C15.5115 18.4078 15.4553 18.4125 15.4646 18.3656C15.4646 18.3656 15.4178 18.5344 15.4646 18.5719L15.5115 18.6187M15.4131 18.5765C15.4131 18.5765 15.4131 18.4594 15.3615 18.4265C15.31 18.3937 15.2631 18.4219 15.249 18.3797C15.249 18.3797 15.2771 18.5484 15.3334 18.5672L15.4037 18.5812M15.61 18.7781C15.61 18.7781 15.7365 18.7359 15.7506 18.8719C15.7553 19.0125 15.7412 18.9656 15.7412 18.9656C15.7412 18.9656 15.6756 18.8156 15.6006 18.7922L15.61 18.7781Z" fill="#00A651"/>
<path d="M15.5631 18.7969C15.5631 18.7969 15.4506 18.75 15.399 18.7875C15.3521 18.825 15.3521 18.8765 15.31 18.8719C15.31 18.8719 15.4787 18.9094 15.5162 18.8672L15.5631 18.8109M15.5818 18.8484C15.5818 18.8484 15.5068 18.9422 15.535 18.9984C15.5584 19.0547 15.61 19.0594 15.6006 19.1015C15.6006 19.1015 15.6709 18.9469 15.6381 18.9047L15.5912 18.8484M15.46 18.5765C15.46 18.5765 15.3428 18.614 15.3287 18.6703C15.3146 18.7359 15.3568 18.7687 15.324 18.7969C15.324 18.7969 15.4693 18.7125 15.4693 18.6562C15.4698 18.6327 15.4682 18.6092 15.4646 18.5859M15.5256 18.6187C15.5256 18.6187 15.5818 18.5109 15.5443 18.4594C15.5115 18.4078 15.4553 18.4125 15.4646 18.3656C15.4646 18.3656 15.4178 18.5344 15.4646 18.5719L15.5115 18.6187M15.4131 18.5765C15.4131 18.5765 15.4131 18.4594 15.3615 18.4265C15.31 18.3937 15.2631 18.4219 15.249 18.3797C15.249 18.3797 15.2771 18.5484 15.3334 18.5672L15.4037 18.5812M15.61 18.7781C15.61 18.7781 15.7365 18.7359 15.7506 18.8719C15.7553 19.0125 15.7412 18.9656 15.7412 18.9656C15.7412 18.9656 15.6756 18.8156 15.6006 18.7922L15.61 18.7781Z" stroke="black" stroke-width="0.0625" stroke-miterlimit="4.8"/>
<path d="M15.5771 18.8485L15.5912 18.9563H15.61L15.5959 18.8485L15.6428 18.6188H15.6193L15.5771 18.8485Z" fill="black"/>
<path d="M15.4645 18.8156L15.4551 18.8297C15.516 18.8531 15.6004 18.7828 15.6051 18.7828L15.5957 18.7687C15.5957 18.7687 15.5113 18.8344 15.4645 18.8156ZM15.6191 18.6797L15.3379 18.5391L15.3473 18.5156L15.6285 18.6562L15.6191 18.6797Z" fill="black"/>
<path d="M15.4172 18.6469L15.3984 18.6328L15.4547 18.5719L15.4734 18.5906L15.4172 18.6469ZM15.5109 18.6188L15.4547 18.4922L15.4781 18.4781L15.5391 18.6094L15.5109 18.6188ZM15.6 18.7781V18.8063C15.675 18.8016 15.6937 18.8531 15.6937 18.8531L15.7219 18.8438C15.7219 18.8297 15.6891 18.7735 15.6 18.7781Z" fill="black"/>
<path d="M16.8984 18.839C16.9922 18.7875 17.0109 18.6 17.0109 18.6C16.9922 18.6656 16.8187 18.7359 16.8187 18.7359C16.9453 18.6562 17.1 18.2953 17.1 18.2953C17.0578 18.4265 16.725 18.5297 16.5047 18.6515C16.2891 18.7734 16.4016 19.1203 16.4016 19.1203C16.2989 19.013 16.2303 18.8775 16.2047 18.7312C16.1813 18.5672 16.1156 18.5062 15.9703 18.4875C15.8203 18.4687 15.7359 18.6328 15.7359 18.6328L15.5156 18.75L15.7359 18.7594C15.7359 18.7594 15.8953 18.8109 15.8953 18.9375C15.8953 19.064 15.7547 19.5609 15.9891 19.8422C16.1484 20.0344 16.7391 20.1469 16.7391 20.1469" fill="white"/>
<path d="M16.8984 18.839C16.9922 18.7875 17.0109 18.6 17.0109 18.6C16.9922 18.6656 16.8187 18.7359 16.8187 18.7359C16.9453 18.6562 17.1 18.2953 17.1 18.2953C17.0578 18.4265 16.725 18.5297 16.5047 18.6515C16.2891 18.7734 16.4016 19.1203 16.4016 19.1203C16.2989 19.013 16.2303 18.8775 16.2047 18.7312C16.1813 18.5672 16.1156 18.5062 15.9703 18.4875C15.8203 18.4687 15.7359 18.6328 15.7359 18.6328L15.5156 18.75L15.7359 18.7594C15.7359 18.7594 15.8953 18.8109 15.8953 18.9375C15.8953 19.064 15.7547 19.5609 15.9891 19.8422C16.1484 20.0344 16.7391 20.1469 16.7391 20.1469" stroke="black" stroke-width="0.0875" stroke-miterlimit="4.8"/>
<path d="M16.4678 19.2234C16.4678 19.2234 16.5146 18.9984 16.6553 19.0078C16.8053 19.0171 16.8475 18.8437 16.9365 18.8156C17.0209 18.7875 17.4709 18.6703 17.5225 18.45C17.5225 18.45 17.4756 18.8062 17.0678 18.9843C17.0678 18.9843 17.3959 18.8765 17.4381 18.8015C17.4381 18.8015 17.2881 19.1203 16.9318 19.1718C16.9318 19.1718 17.2693 19.1437 17.3162 19.0546C17.3162 19.0546 17.1662 19.2562 16.9178 19.2796C16.9178 19.2796 17.1475 19.3734 17.2084 19.2937C17.2084 19.2937 17.0818 19.4437 16.9271 19.4531L16.9693 19.4671C16.9693 19.4671 16.8193 19.6406 16.66 19.5234C16.4959 19.4062 16.4912 19.5515 16.4912 19.5515" fill="white"/>
<path d="M16.4678 19.2234C16.4678 19.2234 16.5146 18.9984 16.6553 19.0078C16.8053 19.0171 16.8475 18.8437 16.9365 18.8156C17.0209 18.7875 17.4709 18.6703 17.5225 18.45C17.5225 18.45 17.4756 18.8062 17.0678 18.9843C17.0678 18.9843 17.3959 18.8765 17.4381 18.8015C17.4381 18.8015 17.2881 19.1203 16.9318 19.1718C16.9318 19.1718 17.2693 19.1437 17.3162 19.0546C17.3162 19.0546 17.1662 19.2562 16.9178 19.2796C16.9178 19.2796 17.1475 19.3734 17.2084 19.2937C17.2084 19.2937 17.0818 19.4437 16.9271 19.4531L16.9693 19.4671C16.9693 19.4671 16.8193 19.6406 16.66 19.5234C16.4959 19.4062 16.4912 19.5515 16.4912 19.5515" stroke="black" stroke-width="0.0875" stroke-miterlimit="4.8"/>
<path d="M16.8002 19.5609C16.8002 19.5609 16.9877 19.8797 17.0111 20.0484C17.0111 20.0484 17.3721 20.4515 17.508 20.4703C17.508 20.4703 17.4471 20.4984 17.3299 20.4C17.3299 20.4 17.4236 20.5031 17.4471 20.5078C17.4658 20.5078 17.3674 20.4984 17.3533 20.4703C17.3533 20.4703 17.3908 20.5312 17.4189 20.5406L17.3908 20.5312C17.3908 20.5312 17.3439 20.5265 17.3205 20.5078C17.2971 20.489 17.3111 20.5547 17.3111 20.5547C17.3111 20.5547 17.2549 20.5406 17.2361 20.5219C17.2174 20.5031 17.2455 20.564 17.2455 20.564L17.1986 20.55L17.1611 20.5734C17.1611 20.5734 17.1611 20.5969 17.133 20.5781C17.1143 20.5594 17.0721 20.5781 17.0721 20.5781C17.0721 20.5781 17.0393 20.6062 17.0252 20.5875C17.0111 20.5687 16.9549 20.6578 16.9549 20.6578L16.7158 20.0812" fill="white"/>
<path d="M16.8002 19.5609C16.8002 19.5609 16.9877 19.8797 17.0111 20.0484C17.0111 20.0484 17.3721 20.4515 17.508 20.4703C17.508 20.4703 17.4471 20.4984 17.3299 20.4C17.3299 20.4 17.4236 20.5031 17.4471 20.5078C17.4658 20.5078 17.3674 20.4984 17.3533 20.4703C17.3533 20.4703 17.3908 20.5312 17.4189 20.5406L17.3908 20.5312C17.3908 20.5312 17.3439 20.5265 17.3205 20.5078C17.2971 20.489 17.3111 20.5547 17.3111 20.5547C17.3111 20.5547 17.2549 20.5406 17.2361 20.5219C17.2174 20.5031 17.2455 20.564 17.2455 20.564L17.1986 20.55L17.1611 20.5734C17.1611 20.5734 17.1611 20.5969 17.133 20.5781C17.1143 20.5594 17.0721 20.5781 17.0721 20.5781C17.0721 20.5781 17.0393 20.6062 17.0252 20.5875C17.0111 20.5687 16.9549 20.6578 16.9549 20.6578L16.7158 20.0812" stroke="black" stroke-width="0.0875" stroke-miterlimit="4.8"/>
<path d="M17.0256 20.6063L16.7256 20.0297L16.7584 20.0157L17.0584 20.5875L17.0256 20.6063ZM17.2881 20.5641L16.7725 19.9875L16.8006 19.9641L17.3162 20.5407L17.2881 20.5641ZM17.41 20.5172L16.8193 19.9688L16.8428 19.9407L17.4381 20.4844L17.41 20.5172Z" fill="black"/>
<path d="M15.9305 18.6694C15.9305 18.6694 15.8931 18.6009 15.8588 18.6289C15.8276 18.6539 15.8089 18.6601 15.8027 18.657C15.8027 18.657 15.8339 18.657 15.8557 18.6414C15.8744 18.6227 15.9056 18.632 15.9305 18.6726V18.6694ZM15.7248 18.6383L15.7466 18.6819L15.7217 18.7536L15.7404 18.7598L15.7622 18.6819L15.7404 18.632L15.7248 18.6383Z" fill="black"/>
<path d="M15.9245 18.6602C15.9245 18.6602 15.8933 18.6913 15.8559 18.6851L15.8154 18.6757H15.8715C15.8933 18.6757 15.9214 18.6664 15.9245 18.6602Z" fill="black"/>
<path d="M15.9149 18.6663C15.9149 18.6663 15.8775 18.6289 15.8525 18.6414C15.8525 18.6414 15.8962 18.6258 15.9211 18.6632L15.9149 18.6663Z" fill="black"/>
<path d="M15.9086 18.66C15.9086 18.66 15.868 18.6881 15.8244 18.66L15.8213 18.6538H15.8275C15.8275 18.6538 15.8805 18.6756 15.9086 18.66Z" fill="black"/>
<path d="M15.8748 18.6663C15.8817 18.6663 15.8872 18.6607 15.8872 18.6538C15.8872 18.6469 15.8817 18.6414 15.8748 18.6414C15.8679 18.6414 15.8623 18.6469 15.8623 18.6538C15.8623 18.6607 15.8679 18.6663 15.8748 18.6663Z" fill="black"/>
<path d="M15.9095 19.7063C15.9095 19.7063 15.8767 19.7672 15.8954 19.8C15.9095 19.8329 15.9845 19.8516 15.9892 19.8985C16.0032 19.9454 16.0267 19.9454 16.0595 19.936L16.1064 19.9313C16.1064 19.9313 15.9611 19.8516 15.9189 19.7297L15.9095 19.7063Z" fill="black"/>
<path d="M20.5689 18.5437C20.5689 18.5437 20.8267 18.1969 21.0611 18.2906C21.2954 18.3844 21.4454 18.4266 21.4454 18.4266C21.4454 18.4266 21.4501 18.6609 21.3282 18.6609C21.2017 18.6609 21.0845 18.4265 20.972 18.4922C20.8595 18.5625 20.7657 18.6562 20.7611 18.6891C20.7517 18.7219 20.4611 18.7312 20.5689 18.5484V18.5437Z" fill="#964B36" stroke="black" stroke-width="0.0375" stroke-miterlimit="4.8"/>
<path d="M19.5706 20.2125C19.5706 20.2125 19.5003 20.2875 19.5331 20.3063C19.566 20.325 19.6269 20.3063 19.6269 20.2781C19.6269 20.25 19.5847 20.2031 19.5706 20.2125Z" fill="#964B36" stroke="black" stroke-width="0.0625" stroke-miterlimit="4.8"/>
<path d="M19.5145 20.2874C19.5145 20.2874 19.3786 20.2077 19.2755 20.3906C19.1676 20.5734 19.0786 20.8687 19.0176 20.9062C18.9567 20.9437 19.6176 20.6156 19.627 20.4796C19.627 20.4796 19.6739 20.3015 19.5989 20.3015C19.5333 20.3062 19.5286 20.3156 19.5145 20.2827V20.2874Z" fill="#964B36" stroke="black" stroke-width="0.0625" stroke-miterlimit="4.8"/>
<path d="M19.533 20.3063C19.533 20.3063 19.3924 20.3391 19.3643 20.5359C19.3361 20.7328 19.1439 20.8313 19.1299 20.8406M21.4455 18.4219C21.4455 18.4219 21.2346 18.4969 21.2721 18.6422L21.4455 18.4219Z" fill="#964B36"/>
<path d="M19.533 20.3063C19.533 20.3063 19.3924 20.3391 19.3643 20.5359C19.3361 20.7328 19.1439 20.8313 19.1299 20.8406M21.4455 18.4219C21.4455 18.4219 21.2346 18.4969 21.2721 18.6422" stroke="black" stroke-width="0.0375" stroke-miterlimit="4.8"/>
<path d="M19.833 18.8484C19.833 18.8484 19.8377 18.3515 20.2455 18.3749C20.3252 18.3796 20.2877 18.4687 20.2877 18.4687C20.2877 18.4687 20.3768 18.4078 20.4143 18.5062C20.4143 18.5062 20.5455 18.4499 20.5549 18.5765C20.5549 18.5765 20.6955 18.5578 20.6814 18.6703C20.6814 18.6703 20.7752 18.6515 20.7752 18.7312C20.7752 18.7312 20.883 18.6843 20.8689 18.7968C20.8689 18.7968 20.9908 18.7171 20.9721 18.8624C20.9721 18.8624 21.0986 18.7781 21.1408 18.9234C21.1877 19.064 21.0143 19.3781 20.8502 19.4578" fill="#FFF200"/>
<path d="M19.833 18.8484C19.833 18.8484 19.8377 18.3515 20.2455 18.3749C20.3252 18.3796 20.2877 18.4687 20.2877 18.4687C20.2877 18.4687 20.3768 18.4078 20.4143 18.5062C20.4143 18.5062 20.5455 18.4499 20.5549 18.5765C20.5549 18.5765 20.6955 18.5578 20.6814 18.6703C20.6814 18.6703 20.7752 18.6515 20.7752 18.7312C20.7752 18.7312 20.883 18.6843 20.8689 18.7968C20.8689 18.7968 20.9908 18.7171 20.9721 18.8624C20.9721 18.8624 21.0986 18.7781 21.1408 18.9234C21.1877 19.064 21.0143 19.3781 20.8502 19.4578" stroke="black" stroke-width="0.0375" stroke-miterlimit="4.8"/>
<path d="M20.9631 18.8813C20.9631 18.8813 21.0193 19.2704 20.799 19.411L20.8084 19.4204C21.0334 19.2797 20.9771 18.8813 20.9771 18.8766H20.9631V18.8813ZM20.7006 19.3032L20.71 19.3125C20.8506 19.1766 20.8787 18.8157 20.8787 18.7969H20.8646C20.8646 18.8016 20.8365 19.1719 20.7006 19.3032ZM20.5693 19.2141H20.5834C20.6021 18.9938 20.7803 18.736 20.7803 18.736L20.7662 18.7266C20.7662 18.7266 20.5881 18.9891 20.5693 19.2141ZM20.4709 19.1485H20.485C20.5084 18.8813 20.6865 18.6797 20.6865 18.6797L20.6771 18.6657C20.6771 18.6657 20.4943 18.8766 20.4709 19.1485ZM20.3303 19.0594H20.3396C20.3537 18.7407 20.5646 18.586 20.5693 18.5813L20.56 18.5719C20.56 18.5719 20.3396 18.7313 20.3256 19.0594H20.3303ZM20.1943 18.9797H20.2131C20.199 18.6891 20.424 18.511 20.424 18.511L20.4193 18.5016C20.4193 18.5016 20.185 18.6844 20.1943 18.9797ZM19.96 18.8766H19.974C19.9845 18.7863 20.0205 18.7009 20.0778 18.6303C20.135 18.5598 20.2113 18.507 20.2975 18.4782L20.2928 18.4641C20.2046 18.4947 20.1269 18.5497 20.0688 18.6227C20.0107 18.6958 19.9746 18.7838 19.9646 18.8766H19.96Z" fill="black"/>
<path d="M19.5939 19.4531C19.5939 19.4531 19.5236 18.9937 19.8002 18.8437C19.8002 18.8437 19.8471 18.8344 19.8799 18.9C19.8799 18.9 20.0252 18.839 20.0299 18.9609C20.0299 18.9609 20.1002 18.9047 20.1236 18.9843C20.1236 18.9843 20.2783 18.9515 20.2455 19.0687C20.2455 19.0687 20.3767 19.0312 20.3674 19.1437C20.3674 19.1437 20.4986 19.0968 20.4752 19.1906C20.4752 19.1906 20.6158 19.1625 20.583 19.275C20.583 19.275 20.7517 19.2562 20.7002 19.3781C20.7002 19.3781 20.8267 19.3453 20.7986 19.4437C20.7986 19.4437 20.9674 19.4718 20.8924 19.575C20.7708 19.725 20.6125 19.8413 20.433 19.9125" fill="#00A651"/>
<path d="M19.5939 19.4531C19.5939 19.4531 19.5236 18.9937 19.8002 18.8437C19.8002 18.8437 19.8471 18.8344 19.8799 18.9C19.8799 18.9 20.0252 18.839 20.0299 18.9609C20.0299 18.9609 20.1002 18.9047 20.1236 18.9843C20.1236 18.9843 20.2783 18.9515 20.2455 19.0687C20.2455 19.0687 20.3767 19.0312 20.3674 19.1437C20.3674 19.1437 20.4986 19.0968 20.4752 19.1906C20.4752 19.1906 20.6158 19.1625 20.583 19.275C20.583 19.275 20.7517 19.2562 20.7002 19.3781C20.7002 19.3781 20.8267 19.3453 20.7986 19.4437C20.7986 19.4437 20.9674 19.4718 20.8924 19.575C20.7708 19.725 20.6125 19.8413 20.433 19.9125" stroke="black" stroke-width="0.0375" stroke-miterlimit="4.8"/>
<path d="M19.4444 19.9219C19.4444 19.9219 19.3319 19.5328 19.5475 19.4344C19.5475 19.4344 19.585 19.425 19.5944 19.4625C19.5944 19.4625 19.6412 19.4016 19.6787 19.4578C19.6787 19.4578 19.7866 19.4063 19.81 19.486C19.81 19.486 19.885 19.425 19.9225 19.5141C19.9225 19.5141 19.9881 19.486 19.9881 19.561C19.9881 19.561 20.0819 19.5141 20.0819 19.6078C20.0819 19.6078 20.1756 19.5703 20.1569 19.6688C20.1569 19.6688 20.2975 19.6875 20.2506 19.7531C20.2506 19.7531 20.3772 19.786 20.3303 19.8375C20.3303 19.8375 20.4662 19.8235 20.3912 19.9125C20.3912 19.9125 20.4944 19.8797 20.4381 19.9922C20.3772 20.1047 20.1991 20.2266 20.0678 20.2453" fill="#00A651"/>
<path d="M19.4444 19.9219C19.4444 19.9219 19.3319 19.5328 19.5475 19.4344C19.5475 19.4344 19.585 19.425 19.5944 19.4625C19.5944 19.4625 19.6412 19.4016 19.6787 19.4578C19.6787 19.4578 19.7866 19.4063 19.81 19.486C19.81 19.486 19.885 19.425 19.9225 19.5141C19.9225 19.5141 19.9881 19.486 19.9881 19.561C19.9881 19.561 20.0819 19.5141 20.0819 19.6078C20.0819 19.6078 20.1756 19.5703 20.1569 19.6688C20.1569 19.6688 20.2975 19.6875 20.2506 19.7531C20.2506 19.7531 20.3772 19.786 20.3303 19.8375C20.3303 19.8375 20.4662 19.8235 20.3912 19.9125C20.3912 19.9125 20.4944 19.8797 20.4381 19.9922C20.3772 20.1047 20.1991 20.2266 20.0678 20.2453" stroke="black" stroke-width="0.0375" stroke-miterlimit="4.8"/>
<path d="M19.5805 20.2219C19.5805 20.2219 19.3414 19.9875 19.4539 19.9219C19.4539 19.9219 19.5008 19.9359 19.5196 19.9875C19.5196 19.9875 19.5805 19.9031 19.6133 19.9875C19.6133 19.9875 19.6977 19.9594 19.6977 20.0203L19.768 20.0672C19.768 20.0672 19.8477 20.0672 19.8336 20.1141C19.8336 20.1141 19.9227 20.1047 19.918 20.1516C19.918 20.1516 19.993 20.1516 19.9883 20.2031C19.9883 20.2031 20.1149 20.2266 20.0586 20.2922C20.0586 20.2922 19.8289 20.3391 19.6696 20.2734C19.6696 20.2734 19.5852 20.2453 19.5758 20.2266L19.5805 20.2219Z" fill="#00A651" stroke="black" stroke-width="0.0375" stroke-miterlimit="4.8"/>
<path d="M20.4 19.8375L20.4047 19.8515C20.5453 19.7953 20.7938 19.4625 20.8032 19.4437L20.7938 19.439C20.7938 19.439 20.5407 19.7859 20.4 19.8375ZM20.3203 19.7765L20.325 19.7906C20.4683 19.6713 20.5959 19.5342 20.7047 19.3828L20.6953 19.3734C20.6953 19.3734 20.4422 19.7109 20.3203 19.7765ZM20.25 19.7484L20.2594 19.7578C20.3907 19.65 20.5782 19.289 20.5875 19.2796L20.5735 19.2703C20.5735 19.275 20.3766 19.6453 20.2453 19.7484H20.25ZM20.1844 19.664H20.1985C20.2266 19.4859 20.4797 19.2046 20.4797 19.1953L20.4703 19.1906C20.461 19.2 20.2125 19.4812 20.1891 19.664H20.1844ZM19.6782 19.4484H19.6922C19.6688 19.1906 19.8797 18.9093 19.8844 18.9046L19.875 18.8953C19.875 18.8953 19.6547 19.1859 19.6782 19.4484ZM19.8094 19.4671H19.8235C19.7907 19.2609 20.0297 18.9703 20.0344 18.9656L20.025 18.9562C20.011 18.9703 19.7766 19.2562 19.8094 19.4718V19.4671ZM20.0157 19.5421H20.0297C20.0297 19.3078 20.25 19.0734 20.25 19.0734L20.2407 19.064C20.2407 19.064 20.011 19.3031 20.0157 19.5421ZM19.5235 19.964H19.5375C19.4578 19.7484 19.5985 19.4718 19.5985 19.4671L19.5844 19.4625C19.5844 19.4625 19.4438 19.7437 19.5235 19.9687V19.964ZM19.6172 19.9828L19.6313 19.9781C19.561 19.7578 19.6782 19.4625 19.6828 19.4625L19.6688 19.4531C19.6688 19.4531 19.5469 19.7578 19.6219 19.9828H19.6172ZM20.0063 20.2031L20.011 20.2171C20.2453 20.1328 20.3953 19.9218 20.4 19.9171L20.386 19.9125C20.386 19.9125 20.236 20.1187 20.011 20.2031H20.0063ZM19.9594 20.1515L19.9641 20.1656C20.1516 20.0812 20.325 19.8468 20.325 19.8468L20.3157 19.8375C20.3157 19.8375 20.1422 20.0718 19.9594 20.1515ZM19.9125 20.1328L19.9219 20.1468C20.0672 20.039 20.25 19.7718 20.2547 19.7718L20.2453 19.7625C20.2453 19.7625 20.0578 20.0296 19.9172 20.1375L19.9125 20.1328ZM19.6828 19.9968H19.6969C19.6914 19.8202 19.7335 19.6453 19.8188 19.4906L19.8047 19.4812C19.8047 19.4812 19.65 19.7625 19.6828 19.9968ZM19.786 20.0625L19.7953 20.0718C19.9453 19.9359 19.9922 19.575 19.9969 19.5562H19.9828C19.9828 19.5609 19.9313 19.9312 19.786 20.0625Z" fill="black"/>
<path d="M19.8898 20.1047L19.8945 20.1188C20.1055 19.9641 20.1617 19.6688 20.1664 19.6688H20.1523C20.1523 19.6688 20.0961 19.9547 19.8898 20.1047ZM19.9133 19.4766V19.5141L19.7539 20.0297L19.768 20.0344L19.9273 19.5188C19.9039 19.2657 20.1242 18.9891 20.1242 18.9891L20.1148 18.9797C20.1148 18.9797 19.9133 19.2329 19.9133 19.4766Z" fill="black"/>
<path d="M20.0771 19.5984C20.0771 19.6078 20.0303 19.964 19.8381 20.0953L19.8428 20.1047C20.0396 19.9687 20.0912 19.6219 20.0912 19.6078C20.1756 19.5047 20.3725 19.1484 20.3725 19.1484L20.3631 19.139C20.3631 19.1437 20.1662 19.4953 20.0818 19.5984H20.0771ZM19.5146 19.9875C19.5146 19.9969 19.5475 20.175 19.585 20.2359L19.5943 20.2265C19.5615 20.1656 19.5287 19.9922 19.5287 19.9875H19.5146ZM19.6084 19.9875C19.6084 20.0812 19.6084 20.2219 19.599 20.2359H19.6131C19.6225 20.2219 19.6178 20.0297 19.6178 19.9922H19.6037L19.6084 19.9875Z" fill="black"/>
<path d="M19.6133 20.2406L19.6273 20.25C19.6883 20.114 19.707 20.0203 19.707 20.0203H19.693C19.693 20.0203 19.6742 20.114 19.6133 20.2406Z" fill="black"/>
<path d="M19.627 20.25L19.6316 20.2594C19.7013 20.2178 19.7518 20.1504 19.7723 20.0719H19.7582C19.7582 20.0719 19.7348 20.1844 19.627 20.2453V20.25ZM19.6457 20.2547V20.2688C19.7582 20.2594 19.8332 20.1235 19.8379 20.1188L19.8285 20.1094C19.8285 20.1094 19.7488 20.25 19.6457 20.2547Z" fill="black"/>
<path d="M19.6602 20.264V20.2781C19.71 20.2773 19.7591 20.266 19.8043 20.245C19.8496 20.224 19.8899 20.1938 19.9227 20.1562L19.9133 20.1469C19.9133 20.1469 19.8289 20.2547 19.6602 20.264Z" fill="black"/>
<path d="M19.6689 20.2687V20.2828C19.6783 20.2828 19.9033 20.3297 19.983 20.2125L19.9736 20.2031C19.8986 20.3156 19.6736 20.2687 19.6689 20.2687Z" fill="black"/>
<path d="M14.541 11.9062V18.3C14.541 20.3906 18.3191 21.6328 18.3191 21.6328C18.3191 21.6328 22.0973 20.3906 22.0973 18.3047V11.9062H14.541Z" stroke="black" stroke-width="0.35" stroke-miterlimit="4.8"/>
<path d="M0 0H12V12H0V0Z" fill="#012169"/>
<path d="M12 0V1.5L7.54688 6L12 10.3828V12H10.4297L5.95312 7.59375L1.59375 12H0V10.4062L4.35938 6.02344L0 1.73438V0H1.45312L5.95312 4.40625L10.3125 0H12Z" fill="white"/>
<path d="M4.3125 7.59375L4.57031 8.39062L0.984375 12H0V11.9297L4.3125 7.59375ZM7.21875 7.3125L8.48438 7.5L12 10.9453V12L7.21875 7.3125ZM12 0L7.5 4.59375L7.40625 3.5625L10.9219 0H12ZM0 0.0234375L4.52344 4.45312L3.14062 4.26562L0 1.14844V0.0234375Z" fill="#C8102E"/>
<path d="M4.125 0V12H7.875V0H4.125ZM0 4.125V7.875H12V4.125H0Z" fill="white"/>
<path d="M0 4.875V7.125H12V4.875H0ZM4.875 0V12H7.125V0H4.875Z" fill="#C8102E"/>
</g>
<defs>
<clipPath id="clip0_208_20396">
<rect width="24" height="24" rx="12" fill="white"/>
</clipPath>
</defs>
</svg>
