<svg width="24" height="24" viewBox="0 0 24 24" fill="none" xmlns="http://www.w3.org/2000/svg">
<g clip-path="url(#clip0_208_22502)">
<path d="M0 0H24V24H0V0Z" fill="#CC0000"/>
<path d="M0.0185547 1.99219H23.9811V3.91406H0.0185547V1.99219ZM0.0185547 5.92969H23.9811V7.85156H0.0185547V5.92969ZM0.0185547 9.87188H23.9811V11.7938H0.0185547V9.87188Z" fill="white"/>
<path d="M0 0H12V14.0016H0V0Z" fill="#000066"/>
<path d="M8.08635 4.0687L8.34885 5.85933L9.36135 4.35933L8.8176 6.08433L10.3785 5.17495L9.14104 6.49214L10.9457 6.35152L9.25823 6.99839L10.9457 7.65464L9.14104 7.50933L10.3785 8.82183L8.81291 7.92183L9.35666 9.64214L8.34416 8.14683L8.08166 9.93276L7.81916 8.15151L6.81135 9.64214L7.35041 7.92183L5.79416 8.8312L7.02698 7.51402L5.22698 7.65464L6.91448 7.00308L5.22698 6.35152L7.02698 6.49683L5.79416 5.17964L7.35041 6.08901L6.81604 4.35933L7.82385 5.85933L8.08635 4.0687ZM6.62385 4.1437C6.14783 3.93211 5.62648 3.84281 5.10717 3.88392C4.58787 3.92503 4.08706 4.09524 3.65026 4.3791C3.21345 4.66295 2.8545 5.05144 2.606 5.50929C2.3575 5.96713 2.22734 6.4798 2.22734 7.00073C2.22734 7.52167 2.3575 8.03434 2.606 8.49218C2.8545 8.95002 3.21345 9.33852 3.65026 9.62237C4.08706 9.90622 4.58787 10.0764 5.10717 10.1175C5.62648 10.1587 6.14783 10.0694 6.62385 9.85777C6.09846 10.2345 5.47937 10.4591 4.83463 10.5068C4.1899 10.5545 3.54449 10.4235 2.96938 10.1282C2.39426 9.83289 1.91171 9.38472 1.57477 8.83297C1.23784 8.28121 1.05957 7.64723 1.05957 7.00073C1.05957 6.35424 1.23784 5.72026 1.57477 5.1685C1.91171 4.61674 2.39426 4.16858 2.96938 3.87328C3.54449 3.57798 4.1899 3.44699 4.83463 3.49469C5.47937 3.5424 6.09846 3.76697 6.62385 4.1437Z" fill="#FFCC00"/>
<path d="M0.01875 13.8093H23.9813V15.7312H0.01875V13.8093ZM0.01875 17.7234H23.9813V19.6453H0.01875V17.7234ZM0 22.0781H23.9625V24H0V22.0781Z" fill="white"/>
</g>
<defs>
<clipPath id="clip0_208_22502">
<rect width="24" height="24" rx="12" fill="white"/>
</clipPath>
</defs>
</svg>
