<svg width="24" height="24" viewBox="0 0 24 24" fill="none" xmlns="http://www.w3.org/2000/svg">
<g clip-path="url(#clip0_208_24750)">
<mask id="mask0_208_24750" style="mask-type:luminance" maskUnits="userSpaceOnUse" x="-1" y="0" width="25" height="25">
<path d="M-0.000976562 0H24.0004V24.0013H-0.000976562V0Z" fill="white"/>
</mask>
<g mask="url(#mask0_208_24750)">
<path fill-rule="evenodd" clip-rule="evenodd" d="M-1.74805 0H34.2523V24.0013H-1.74805V0Z" fill="#ED0000"/>
<path fill-rule="evenodd" clip-rule="evenodd" d="M-1.74805 4.79883H34.2523V9.60113H-1.74805V4.79883ZM-1.74805 14.4H34.2523V19.199H-1.74805V14.4Z" fill="white"/>
<path fill-rule="evenodd" clip-rule="evenodd" d="M-1.74805 0L18.9107 11.9854L-1.74805 23.9539V0Z" fill="#0050F0"/>
<path fill-rule="evenodd" clip-rule="evenodd" d="M7.33484 15.2568L5.1098 13.5974L2.8983 15.2738L3.72126 12.5475L1.50977 10.8643L4.24281 10.8406L5.08948 8.12451L5.95647 10.8338L8.68951 10.8372L6.49156 12.5373L7.33484 15.2568Z" fill="white"/>
</g>
</g>
<defs>
<clipPath id="clip0_208_24750">
<rect width="24" height="24" rx="12" fill="white"/>
</clipPath>
</defs>
</svg>
