<svg width="24" height="24" viewBox="0 0 24 24" fill="none" xmlns="http://www.w3.org/2000/svg">
<g clip-path="url(#clip0_208_27118)">
<path d="M0 15.9985H24V24.0001H0V15.9985Z" fill="#1EB53A"/>
<path d="M0 0H24V8.00156H0V0Z" fill="#0099B5"/>
<path d="M0 7.67822H24V16.322H0V7.67822Z" fill="#CE1126"/>
<path d="M0 8.15625H24V15.8438H0V8.15625Z" fill="white"/>
<path d="M6.72187 6.71719C8.31142 6.71719 9.6 5.42861 9.6 3.83906C9.6 2.24952 8.31142 0.960938 6.72187 0.960938C5.13233 0.960938 3.84375 2.24952 3.84375 3.83906C3.84375 5.42861 5.13233 6.71719 6.72187 6.71719Z" fill="white"/>
<path d="M7.67793 6.71719C9.26747 6.71719 10.5561 5.42861 10.5561 3.83906C10.5561 2.24952 9.26747 0.960938 7.67793 0.960938C6.08839 0.960938 4.7998 2.24952 4.7998 3.83906C4.7998 5.42861 6.08839 6.71719 7.67793 6.71719Z" fill="#0099B5"/>
<path d="M13.0545 5.5647L12.8721 6.1119L13.1505 6.2079" fill="white"/>
<path d="M13.0549 5.5647L13.2373 6.1119L12.9589 6.2079" fill="white"/>
<path d="M13.6023 5.96278L13.0255 5.9584L13.0202 6.25284" fill="white"/>
<path d="M13.6018 5.96276L13.1378 6.30532L12.9605 6.07022" fill="white"/>
<path d="M12.5066 5.96276L12.9706 6.30532L13.1479 6.07022" fill="white"/>
<path d="M12.5061 5.96278L13.0829 5.9584L13.0882 6.25284" fill="white"/>
<path d="M13.3925 6.60672L13.2184 6.05682L12.9367 6.14279" fill="white"/>
<path d="M13.3927 6.60666L12.9235 6.27117L13.0923 6.02987" fill="white"/>
<path d="M12.7157 6.60666L13.1849 6.27117L13.0161 6.02987" fill="white"/>
<path d="M12.7159 6.60672L12.89 6.05682L13.1717 6.14279" fill="white"/>
<path d="M13.0545 5.5647L12.8721 6.1119L13.1505 6.2079" fill="white"/>
<path d="M13.0549 5.5647L13.2373 6.1119L12.9589 6.2079" fill="white"/>
<path d="M13.6023 5.96278L13.0255 5.9584L13.0202 6.25284" fill="white"/>
<path d="M13.6018 5.96276L13.1378 6.30532L12.9605 6.07022" fill="white"/>
<path d="M12.5066 5.96276L12.9706 6.30532L13.1479 6.07022" fill="white"/>
<path d="M12.5061 5.96278L13.0829 5.9584L13.0882 6.25284" fill="white"/>
<path d="M13.3925 6.60672L13.2184 6.05682L12.9367 6.14279" fill="white"/>
<path d="M13.3927 6.60666L12.9235 6.27117L13.0923 6.02987" fill="white"/>
<path d="M12.7157 6.60666L13.1849 6.27117L13.0161 6.02987" fill="white"/>
<path d="M12.7159 6.60672L12.89 6.05682L13.1717 6.14279" fill="white"/>
<path d="M13.0545 5.5647L12.8721 6.1119L13.1505 6.2079" fill="white"/>
<path d="M13.0549 5.5647L13.2373 6.1119L12.9589 6.2079" fill="white"/>
<path d="M13.6023 5.96278L13.0255 5.9584L13.0202 6.25284" fill="white"/>
<path d="M13.6018 5.96276L13.1378 6.30532L12.9605 6.07022" fill="white"/>
<path d="M12.5066 5.96276L12.9706 6.30532L13.1479 6.07022" fill="white"/>
<path d="M12.5061 5.96278L13.0829 5.9584L13.0882 6.25284" fill="white"/>
<path d="M13.3925 6.60672L13.2184 6.05682L12.9367 6.14279" fill="white"/>
<path d="M13.3927 6.60666L12.9235 6.27117L13.0923 6.02987" fill="white"/>
<path d="M12.7157 6.60666L13.1849 6.27117L13.0161 6.02987" fill="white"/>
<path d="M12.7159 6.60672L12.89 6.05682L13.1717 6.14279" fill="white"/>
<path d="M13.0545 5.5647L12.8721 6.1119L13.1505 6.2079" fill="white"/>
<path d="M13.0549 5.5647L13.2373 6.1119L12.9589 6.2079" fill="white"/>
<path d="M13.6023 5.96278L13.0255 5.9584L13.0202 6.25284" fill="white"/>
<path d="M13.6018 5.96276L13.1378 6.30532L12.9605 6.07022" fill="white"/>
<path d="M12.5066 5.96276L12.9706 6.30532L13.1479 6.07022" fill="white"/>
<path d="M12.5061 5.96278L13.0829 5.9584L13.0882 6.25284" fill="white"/>
<path d="M13.3925 6.60672L13.2184 6.05682L12.9367 6.14279" fill="white"/>
<path d="M13.3927 6.60666L12.9235 6.27117L13.0923 6.02987" fill="white"/>
<path d="M12.7157 6.60666L13.1849 6.27117L13.0161 6.02987" fill="white"/>
<path d="M12.7159 6.60672L12.89 6.05682L13.1717 6.14279" fill="white"/>
<path d="M13.0545 5.5647L12.8721 6.1119L13.1505 6.2079" fill="white"/>
<path d="M13.0549 5.5647L13.2373 6.1119L12.9589 6.2079" fill="white"/>
<path d="M13.6023 5.96278L13.0255 5.9584L13.0202 6.25284" fill="white"/>
<path d="M13.6018 5.96276L13.1378 6.30532L12.9605 6.07022" fill="white"/>
<path d="M12.5066 5.96276L12.9706 6.30532L13.1479 6.07022" fill="white"/>
<path d="M12.5061 5.96278L13.0829 5.9584L13.0882 6.25284" fill="white"/>
<path d="M13.3925 6.60672L13.2184 6.05682L12.9367 6.14279" fill="white"/>
<path d="M13.3927 6.60666L12.9235 6.27117L13.0923 6.02987" fill="white"/>
<path d="M12.7157 6.60666L13.1849 6.27117L13.0161 6.02987" fill="white"/>
<path d="M12.7159 6.60672L12.89 6.05682L13.1717 6.14279" fill="white"/>
<path d="M13.0545 5.5647L12.8721 6.1119L13.1505 6.2079" fill="white"/>
<path d="M13.0549 5.5647L13.2373 6.1119L12.9589 6.2079" fill="white"/>
<path d="M13.6023 5.96278L13.0255 5.9584L13.0202 6.25284" fill="white"/>
<path d="M13.6018 5.96276L13.1378 6.30532L12.9605 6.07022" fill="white"/>
<path d="M12.5066 5.96276L12.9706 6.30532L13.1479 6.07022" fill="white"/>
<path d="M12.5061 5.96278L13.0829 5.9584L13.0882 6.25284" fill="white"/>
<path d="M13.3925 6.60672L13.2184 6.05682L12.9367 6.14279" fill="white"/>
<path d="M13.3927 6.60666L12.9235 6.27117L13.0923 6.02987" fill="white"/>
<path d="M12.7157 6.60666L13.1849 6.27117L13.0161 6.02987" fill="white"/>
<path d="M12.7159 6.60672L12.89 6.05682L13.1717 6.14279" fill="white"/>
<path d="M13.0545 5.5647L12.8721 6.1119L13.1505 6.2079" fill="white"/>
<path d="M13.0549 5.5647L13.2373 6.1119L12.9589 6.2079" fill="white"/>
<path d="M13.6023 5.96278L13.0255 5.9584L13.0202 6.25284" fill="white"/>
<path d="M13.6018 5.96276L13.1378 6.30532L12.9605 6.07022" fill="white"/>
<path d="M12.5066 5.96276L12.9706 6.30532L13.1479 6.07022" fill="white"/>
<path d="M12.5061 5.96278L13.0829 5.9584L13.0882 6.25284" fill="white"/>
<path d="M13.3925 6.60672L13.2184 6.05682L12.9367 6.14279" fill="white"/>
<path d="M13.3927 6.60666L12.9235 6.27117L13.0923 6.02987" fill="white"/>
<path d="M12.7157 6.60666L13.1849 6.27117L13.0161 6.02987" fill="white"/>
<path d="M12.7159 6.60672L12.89 6.05682L13.1717 6.14279" fill="white"/>
<path d="M13.0545 5.5647L12.8721 6.1119L13.1505 6.2079" fill="white"/>
<path d="M13.0549 5.5647L13.2373 6.1119L12.9589 6.2079" fill="white"/>
<path d="M13.6023 5.96278L13.0255 5.9584L13.0202 6.25284" fill="white"/>
<path d="M13.6018 5.96276L13.1378 6.30532L12.9605 6.07022" fill="white"/>
<path d="M12.5066 5.96276L12.9706 6.30532L13.1479 6.07022" fill="white"/>
<path d="M12.5061 5.96278L13.0829 5.9584L13.0882 6.25284" fill="white"/>
<path d="M13.3925 6.60672L13.2184 6.05682L12.9367 6.14279" fill="white"/>
<path d="M13.3927 6.60666L12.9235 6.27117L13.0923 6.02987" fill="white"/>
<path d="M12.7157 6.60666L13.1849 6.27117L13.0161 6.02987" fill="white"/>
<path d="M12.7159 6.60672L12.89 6.05682L13.1717 6.14279" fill="white"/>
<path d="M13.0545 5.5647L12.8721 6.1119L13.1505 6.2079" fill="white"/>
<path d="M13.0549 5.5647L13.2373 6.1119L12.9589 6.2079" fill="white"/>
<path d="M13.6023 5.96278L13.0255 5.9584L13.0202 6.25284" fill="white"/>
<path d="M13.6018 5.96276L13.1378 6.30532L12.9605 6.07022" fill="white"/>
<path d="M12.5066 5.96276L12.9706 6.30532L13.1479 6.07022" fill="white"/>
<path d="M12.5061 5.96278L13.0829 5.9584L13.0882 6.25284" fill="white"/>
<path d="M13.3925 6.60672L13.2184 6.05682L12.9367 6.14279" fill="white"/>
<path d="M13.3927 6.60666L12.9235 6.27117L13.0923 6.02987" fill="white"/>
<path d="M12.7157 6.60666L13.1849 6.27117L13.0161 6.02987" fill="white"/>
<path d="M12.7159 6.60672L12.89 6.05682L13.1717 6.14279" fill="white"/>
<path d="M13.0545 5.5647L12.8721 6.1119L13.1505 6.2079" fill="white"/>
<path d="M13.0549 5.5647L13.2373 6.1119L12.9589 6.2079" fill="white"/>
<path d="M13.6023 5.96278L13.0255 5.9584L13.0202 6.25284" fill="white"/>
<path d="M13.6018 5.96276L13.1378 6.30532L12.9605 6.07022" fill="white"/>
<path d="M12.5066 5.96276L12.9706 6.30532L13.1479 6.07022" fill="white"/>
<path d="M12.5061 5.96278L13.0829 5.9584L13.0882 6.25284" fill="white"/>
<path d="M13.3925 6.60672L13.2184 6.05682L12.9367 6.14279" fill="white"/>
<path d="M13.3927 6.60666L12.9235 6.27117L13.0923 6.02987" fill="white"/>
<path d="M12.7157 6.60666L13.1849 6.27117L13.0161 6.02987" fill="white"/>
<path d="M12.7159 6.60672L12.89 6.05682L13.1717 6.14279" fill="white"/>
<path d="M13.0545 5.5647L12.8721 6.1119L13.1505 6.2079" fill="white"/>
<path d="M13.0549 5.5647L13.2373 6.1119L12.9589 6.2079" fill="white"/>
<path d="M13.6023 5.96278L13.0255 5.9584L13.0202 6.25284" fill="white"/>
<path d="M13.6018 5.96276L13.1378 6.30532L12.9605 6.07022" fill="white"/>
<path d="M12.5066 5.96276L12.9706 6.30532L13.1479 6.07022" fill="white"/>
<path d="M12.5061 5.96278L13.0829 5.9584L13.0882 6.25284" fill="white"/>
<path d="M13.3925 6.60672L13.2184 6.05682L12.9367 6.14279" fill="white"/>
<path d="M13.3927 6.60666L12.9235 6.27117L13.0923 6.02987" fill="white"/>
<path d="M12.7157 6.60666L13.1849 6.27117L13.0161 6.02987" fill="white"/>
<path d="M12.7159 6.60672L12.89 6.05682L13.1717 6.14279" fill="white"/>
<path d="M13.0545 5.5647L12.8721 6.1119L13.1505 6.2079" fill="white"/>
<path d="M13.0549 5.5647L13.2373 6.1119L12.9589 6.2079" fill="white"/>
<path d="M13.6023 5.96278L13.0255 5.9584L13.0202 6.25284" fill="white"/>
<path d="M13.6018 5.96276L13.1378 6.30532L12.9605 6.07022" fill="white"/>
<path d="M12.5066 5.96276L12.9706 6.30532L13.1479 6.07022" fill="white"/>
<path d="M12.5061 5.96278L13.0829 5.9584L13.0882 6.25284" fill="white"/>
<path d="M13.3925 6.60672L13.2184 6.05682L12.9367 6.14279" fill="white"/>
<path d="M13.3927 6.60666L12.9235 6.27117L13.0923 6.02987" fill="white"/>
<path d="M12.7157 6.60666L13.1849 6.27117L13.0161 6.02987" fill="white"/>
<path d="M12.7159 6.60672L12.89 6.05682L13.1717 6.14279" fill="white"/>
</g>
<defs>
<clipPath id="clip0_208_27118">
<rect width="24" height="24" rx="12" fill="white"/>
</clipPath>
</defs>
</svg>
