<svg width="24" height="24" viewBox="0 0 24 24" fill="none" xmlns="http://www.w3.org/2000/svg">
<g clip-path="url(#clip0_208_10442)">
<path d="M0 0H24V24H0V0Z" fill="#FFD520"/>
<path d="M0 24H24V0L0 24Z" fill="#FF4E12"/>
<path d="M13.2134 7.61719C13.0259 7.55157 12.9134 7.64532 12.9181 7.88438C12.9228 8.11876 13.0494 8.25469 13.2322 8.16563L13.2134 7.61719Z" fill="white" stroke="black" stroke-width="0.05"/>
<path d="M13.3729 7.17654C13.2229 7.05466 13.0775 7.10622 13.0072 7.33122C12.9369 7.55622 13.0119 7.72497 13.2135 7.70154L13.3729 7.17654Z" fill="white" stroke="black" stroke-width="0.05"/>
<path d="M13.6262 6.75001C13.4949 6.60939 13.3449 6.63283 13.2418 6.84376C13.1387 7.0547 13.1808 7.23283 13.3824 7.2422L13.6262 6.75001ZM13.4621 8.82189C13.2371 8.90626 13.2137 9.21095 13.3543 9.39845C13.4949 9.58595 13.7527 9.62345 13.898 9.39845L13.4574 8.82189H13.4621Z" fill="white" stroke="black" stroke-width="0.05"/>
<path d="M13.1998 8.175C12.9888 8.10469 12.7966 8.39063 12.7638 8.64375C12.7263 8.97188 12.2669 9.075 12.5201 9.56719C12.5716 9.25313 12.7779 9.08438 12.9419 9.07031C13.106 9.06094 13.3544 9.02344 13.4576 8.82188L13.1998 8.175ZM13.8701 9.43594C13.6263 9.49688 13.5888 9.825 13.7669 10.0594C13.9169 10.2609 14.3904 10.2141 14.3763 10.0125L13.8748 9.43594H13.8701ZM14.5732 11.4188C14.5826 11.2078 14.2451 11.1234 14.081 11.1656C13.9123 11.2078 13.5982 11.1609 13.5232 10.9828C13.4669 11.1234 13.5513 11.2781 13.7904 11.3578C13.9685 11.4141 13.9685 11.5453 13.9123 11.6016C14.0529 11.625 14.4513 11.625 14.5685 11.4188H14.5732Z" fill="white" stroke="black" stroke-width="0.05"/>
<path d="M14.3809 10.0641C14.1371 9.96099 13.9918 10.1204 13.9027 10.2797C13.7621 10.5094 13.3496 10.2141 13.209 10.5188C13.3965 10.4391 13.5934 10.6126 13.6824 10.6735C13.9449 10.8422 14.4418 10.7907 14.5121 10.3922L14.3762 10.0641H14.3809Z" fill="white" stroke="black" stroke-width="0.05"/>
<path d="M14.522 10.35C14.2783 10.5281 14.1845 10.7484 14.1939 10.8937C14.1939 11.0437 14.4049 11.3625 14.6252 11.3859C14.7564 11.1187 14.822 10.5609 14.522 10.35ZM13.5189 11.4844C13.5189 11.3953 13.6502 11.3625 13.7392 11.3906C13.8236 11.4187 13.9595 11.5078 13.9127 11.6015L13.5189 11.4844ZM12.1877 11.0015C12.1642 10.8937 12.3377 10.7109 12.5627 10.814C12.797 10.9125 12.8252 11.1094 12.7314 11.1844L12.1877 11.0015Z" fill="white" stroke="black" stroke-width="0.05"/>
<path d="M12.7493 11.1937C12.7306 11.1375 12.8946 11.0203 13.1759 11.0906C13.4571 11.1609 13.5275 11.3437 13.5181 11.4844L12.7493 11.1937ZM12.1587 11.0015C12.304 10.889 12.2525 10.6734 12.1165 10.6125C11.8775 10.4953 11.9665 10.1906 11.8118 10.1297C11.6571 10.0734 11.5118 9.9656 11.5071 9.85779C11.4275 10.0078 11.4743 10.139 11.5821 10.2328C11.69 10.3265 11.4978 10.7109 11.6337 10.814L12.1587 11.0015ZM9.00401 10.9172C8.88214 10.725 8.58214 10.7625 8.46495 10.8937C8.33839 11.0344 8.35714 11.2312 8.47433 11.3156L9.00401 10.9172ZM9.70714 10.6312C9.66026 10.3734 9.35089 10.3406 9.18214 10.4062C9.0087 10.4719 8.89151 10.7344 9.00401 10.9219L9.70714 10.6312Z" fill="white" stroke="black" stroke-width="0.05"/>
<path d="M10.1812 10.5937C10.2937 10.3781 10.0781 10.0547 9.82962 10.0078C9.62337 9.9656 9.37962 9.97029 9.29993 9.76404C9.25306 9.94216 9.37962 10.0547 9.53431 10.1531C9.689 10.2562 9.50618 10.514 9.75462 10.6594L10.1812 10.5937Z" fill="white" stroke="black" stroke-width="0.05"/>
<path d="M10.1576 10.6031C10.1108 10.4484 10.2139 10.2375 10.4248 10.2515C10.6358 10.2703 10.7529 10.4203 10.6592 10.6125L10.1576 10.6031Z" fill="white" stroke="black" stroke-width="0.05"/>
<path d="M10.6309 10.6125C10.598 10.4531 10.734 10.261 10.9402 10.3078C11.1465 10.35 11.2449 10.5188 11.1277 10.6969L10.6309 10.6125Z" fill="white" stroke="black" stroke-width="0.05"/>
<path d="M11.0951 10.6875C11.0763 10.5282 11.217 10.3407 11.4232 10.3969C11.6295 10.4485 11.7185 10.6219 11.5873 10.7954L11.0951 10.6875ZM7.54665 13.3875C7.1529 13.3875 7.05446 13.4813 6.99821 13.8844C6.9279 14.3907 7.61696 14.4469 7.54665 13.3875Z" fill="white" stroke="black" stroke-width="0.05"/>
<path d="M7.72012 12.8578C7.11543 12.6235 6.78262 13.5844 6.1873 13.4157C6.40293 13.7579 6.92324 13.4157 7.11543 13.4485C7.44355 13.5094 8.15605 13.3875 7.7248 12.8578H7.72012ZM7.32637 14.1703C7.02637 14.0297 6.70293 14.4891 6.76387 14.6907C6.83887 14.9485 7.52324 14.7375 7.32637 14.1703ZM5.9248 16.1438C6.09355 16.1907 6.29043 16.2844 6.25293 16.6032C6.22012 16.9219 5.62012 17.5688 5.08105 17.6063C4.5373 17.6391 4.34512 18.2953 3.87637 18.1125C4.3123 18.0282 4.3123 17.536 4.65449 17.3813C4.40605 17.2922 4.27949 17.85 3.96074 17.85C3.64199 17.85 3.49199 18.361 3.10293 18.3235C2.71387 18.2907 2.67168 18.9375 1.89355 18.9469C1.30293 18.9516 0.566992 19.65 0.299805 19.35C0.876367 19.2657 1.11074 18.9469 1.45293 18.5954C2.00605 18.0329 2.62949 18.2813 2.84512 17.7844C2.59719 17.9501 2.30416 18.0352 2.00605 18.0282C1.64512 18.0235 1.24668 18.6047 0.843555 18.3469C1.07793 18.3188 1.23262 18.2157 1.47637 17.9578C1.72949 17.6954 2.0998 17.8641 2.39512 17.5922C2.85449 17.1703 3.24824 17.5219 3.68887 16.9922C3.56699 16.936 3.2998 16.9782 3.05605 17.1047C2.80762 17.236 2.49355 17.0157 2.20762 17.1703C2.24043 16.8235 2.90137 17.0203 3.31387 16.7813C3.78262 16.5094 4.1623 16.5938 4.53262 16.6219C4.01699 16.6219 3.82012 16.1344 3.1123 16.275C2.80762 16.336 2.55918 15.8532 2.25449 16.0969C2.26387 15.9141 2.58262 15.7688 2.91074 15.9469C3.23887 16.1204 3.37949 15.7922 4.03574 16.2047C4.30293 16.3735 4.76699 16.0969 5.0623 16.2797C5.0248 16.1672 4.85605 16.0969 4.65918 16.1157C4.78105 15.8625 5.57793 15.8953 5.9248 16.1485V16.1438Z" fill="white" stroke="black" stroke-width="0.05"/>
<path d="M6.44941 15.7641C6.1916 15.5625 5.83066 15.8062 5.58691 15.7078C5.58691 15.8766 5.6666 16.1203 5.93848 16.2141C6.11812 16.0732 6.29023 15.923 6.4541 15.7641H6.44941Z" fill="white" stroke="black" stroke-width="0.05"/>
<path d="M6.85742 15.1922C6.44961 14.986 6.3793 15.4969 6.06055 15.3938C6.07461 15.5391 6.1918 15.7219 6.44961 15.7641L6.85742 15.1922Z" fill="white" stroke="black" stroke-width="0.05"/>
<path d="M7.09668 14.7281C6.49668 14.4937 6.42168 15.0703 6.06543 14.9578C6.1498 15.1547 6.65605 15.2625 6.91387 15.1922L7.10137 14.7234L7.09668 14.7281ZM7.92168 12.2016C7.76231 11.9766 7.42949 12.1594 7.37324 12.4266C7.32168 12.6891 7.45293 13.0594 7.67324 12.9797L7.92168 12.2016Z" fill="white" stroke="black" stroke-width="0.05"/>
<path d="M8.32984 11.4937C8.04859 11.4328 7.73452 11.4609 7.76734 11.7281C7.66421 11.775 7.6314 12.1266 7.92202 12.2016L8.32984 11.4984V11.4937Z" fill="white" stroke="black" stroke-width="0.05"/>
<path d="M8.51231 11.311C8.24043 10.9969 7.93574 11.0016 7.76699 11.1376C7.45762 11.386 7.15762 11.2407 7.14355 11.4891C7.33105 11.3485 7.4998 11.5173 7.6498 11.4657C7.80449 11.4141 7.91699 11.7094 8.33887 11.5829L8.51231 11.311ZM7.85606 16.0641C7.89824 16.1391 8.15137 16.1766 8.27793 16.0454C8.43731 15.8719 8.25918 15.3985 7.99668 15.361C7.73887 15.3282 7.71543 15.9001 7.85606 16.0641Z" fill="white" stroke="black" stroke-width="0.05"/>
<path d="M7.56055 16.0782C7.93555 16.2094 8.09023 15.9048 7.88867 15.7079C7.78745 15.8368 7.67784 15.959 7.56055 16.0735V16.0782Z" fill="white" stroke="black" stroke-width="0.05"/>
<path d="M6.17305 16.5797C6.10273 16.7953 5.73711 16.8281 5.3293 17.4891C4.91211 18.1453 4.51836 17.8688 4.41992 18.3235C4.91211 17.925 5.30117 18.1875 5.59648 17.7938C6.04648 17.1938 6.41211 17.2781 6.58555 16.875C6.83398 16.2985 7.9168 16.3125 7.97305 15.4031C7.61211 15.3328 6.4543 16.3125 6.17305 16.5797ZM15.4684 7.68752C15.9371 7.84221 15.9512 8.45159 16.4902 8.65315C17.034 8.85002 17.0855 9.33284 17.5262 9.21565C17.1137 9.10315 17.1418 8.62971 16.7152 8.51252C16.209 8.3719 16.0215 7.60315 15.6184 7.48596M17.6246 10.8844C17.709 11.0719 17.6949 11.4047 17.4043 11.4938C17.5637 11.5969 17.798 11.4985 17.9246 11.2828C17.7324 11.7141 17.8637 12.1032 18.1684 12.1735C18.023 11.8781 18.3512 11.7375 18.2434 11.5406C18.4402 11.625 18.609 11.8875 18.6043 12.0563C18.8574 11.775 18.4168 11.3953 18.4965 11.1281L17.6246 10.8844ZM14.5777 13.9078C14.2871 13.6547 14.1652 13.9735 14.0246 13.861C13.8934 13.7625 13.7152 13.7485 13.6496 13.8516C13.8934 13.8563 13.7762 14.0485 14.2543 14.0953C13.7762 14.1281 13.8605 14.6625 13.5418 14.6391C13.884 14.9625 14.0574 14.3485 14.3387 14.4516C14.2543 14.475 14.4652 14.6672 14.3199 14.925C14.5543 14.9203 14.6527 14.5922 14.6855 14.4188L14.5777 13.9078ZM8.22617 16.6547C8.11836 16.5703 7.81367 16.5281 7.69648 16.5985C7.5793 16.6688 7.62148 16.6875 7.76211 16.6969C7.90273 16.711 8.08555 16.936 7.78086 16.95C7.64023 16.9547 7.68711 17.2969 7.3918 17.325C7.50898 17.4656 7.85586 17.3719 7.97773 17.2078C7.9543 17.3438 8.13242 17.461 8.06211 17.6203C8.27773 17.6438 8.15586 17.1797 8.49805 17.2031C8.35742 17.2219 8.41367 17.5406 8.66211 17.4563C8.5168 17.5266 8.5918 17.7 8.75586 17.6578C8.65273 17.6906 8.61523 17.8266 8.76055 17.9063C8.90117 17.7094 8.74648 17.0156 8.22617 16.6547ZM21.0465 10.1578C21.2628 10.1578 21.4703 10.0719 21.6232 9.91895C21.7762 9.76599 21.8621 9.55853 21.8621 9.34221C21.8621 9.1259 21.7762 8.91844 21.6232 8.76548C21.4703 8.61252 21.2628 8.52659 21.0465 8.52659C20.8302 8.52659 20.6227 8.61252 20.4698 8.76548C20.3168 8.91844 20.2309 9.1259 20.2309 9.34221C20.2309 9.55853 20.3168 9.76599 20.4698 9.91895C20.6227 10.0719 20.8302 10.1578 21.0465 10.1578Z" fill="white"/>
<path d="M15.4684 7.68752C15.9371 7.84221 15.9512 8.45159 16.4902 8.65315C17.034 8.85002 17.0855 9.33284 17.5262 9.21565C17.1137 9.10315 17.1418 8.62971 16.7152 8.51252C16.209 8.3719 16.0215 7.60315 15.6184 7.48596M6.17305 16.5797C6.10273 16.7953 5.73711 16.8281 5.3293 17.4891C4.91211 18.1453 4.51836 17.8688 4.41992 18.3235C4.91211 17.925 5.30117 18.1875 5.59648 17.7938C6.04648 17.1938 6.41211 17.2781 6.58555 16.875C6.83398 16.2985 7.9168 16.3125 7.97305 15.4031C7.61211 15.3328 6.4543 16.3125 6.17305 16.5797ZM17.6246 10.8844C17.709 11.0719 17.6949 11.4047 17.4043 11.4938C17.5637 11.5969 17.798 11.4985 17.9246 11.2828C17.7324 11.7141 17.8637 12.1032 18.1684 12.1735C18.023 11.8782 18.3512 11.7375 18.2434 11.5406C18.4402 11.625 18.609 11.8875 18.6043 12.0563C18.8574 11.775 18.4168 11.3953 18.4965 11.1281L17.6246 10.8844ZM14.5777 13.9078C14.2871 13.6547 14.1652 13.9735 14.0246 13.861C13.8934 13.7625 13.7152 13.7485 13.6496 13.8516C13.8934 13.8563 13.7762 14.0485 14.2543 14.0953C13.7762 14.1282 13.8605 14.6625 13.5418 14.6391C13.884 14.9625 14.0574 14.3485 14.3387 14.4516C14.2543 14.475 14.4652 14.6672 14.3199 14.925C14.5543 14.9203 14.6527 14.5922 14.6855 14.4188L14.5777 13.9078ZM8.22617 16.6547C8.11836 16.5703 7.81367 16.5281 7.69648 16.5985C7.5793 16.6688 7.62148 16.6875 7.76211 16.6969C7.90273 16.711 8.08555 16.936 7.78086 16.95C7.64023 16.9547 7.68711 17.2969 7.3918 17.325C7.50898 17.4656 7.85586 17.3719 7.97773 17.2078C7.9543 17.3438 8.13242 17.461 8.06211 17.6203C8.27773 17.6438 8.15586 17.1797 8.49805 17.2031C8.35742 17.2219 8.41367 17.5406 8.66211 17.4563C8.5168 17.5266 8.5918 17.7 8.75586 17.6578C8.65273 17.6907 8.61523 17.8266 8.76055 17.9063C8.90117 17.7094 8.74648 17.0156 8.22617 16.6547ZM21.0465 10.1578C21.2628 10.1578 21.4703 10.0719 21.6232 9.91895C21.7762 9.76599 21.8621 9.55853 21.8621 9.34221C21.8621 9.12589 21.7762 8.91844 21.6232 8.76548C21.4703 8.61252 21.2628 8.52659 21.0465 8.52659C20.8302 8.52659 20.6227 8.61252 20.4698 8.76548C20.3168 8.91844 20.2309 9.12589 20.2309 9.34221C20.2309 9.55853 20.3168 9.76599 20.4698 9.91895C20.6227 10.0719 20.8302 10.1578 21.0465 10.1578Z" stroke="black" stroke-width="0.05"/>
<path d="M16.7807 11.1422C17.0291 10.9079 17.4041 10.7907 17.6619 10.9688C17.9197 11.1422 18.7822 11.3532 19.2088 11.0625C19.6307 10.7672 19.8275 10.6125 20.015 10.65C20.1557 10.861 20.3291 10.9594 20.54 10.9782C20.6057 11.0485 20.8354 11.1094 20.9619 11.0907C21.1494 11.1375 21.3838 11.0766 21.5666 10.8797C21.8479 10.9172 22.1104 10.7063 22.2135 10.3875C22.5135 10.3547 22.5322 10.0172 22.34 9.79692C22.1666 9.75942 22.3025 9.16411 21.6604 9.2813C21.9275 9.44536 21.7213 9.77817 21.9463 9.92817C21.7963 9.92817 21.5994 9.9938 21.5525 10.2235C21.6088 10.0641 21.5432 9.96099 21.501 9.92349C21.5057 9.78755 21.2057 9.45474 20.9244 9.57661C21.126 9.62349 21.0135 9.95161 21.1588 10.0735C21.1038 10.0763 21.05 10.0912 21.0014 10.1171C20.9528 10.143 20.9105 10.1794 20.8775 10.2235C20.7979 10.0875 20.5307 9.94692 20.3619 9.93755C20.3619 9.89067 20.3572 9.79692 20.3338 9.75005C20.2434 9.59087 20.2072 9.4066 20.2307 9.22505C20.09 9.37505 19.9682 9.59067 19.9025 9.74067C19.6775 9.59067 19.1244 9.81099 18.8619 9.87192C18.6041 9.93286 17.7369 9.78755 17.5354 9.57661C17.2565 9.35434 16.9287 9.20169 16.5791 9.1313C16.0775 8.98599 16.0729 8.43755 15.5197 8.05786C15.5104 8.74224 16.5463 10.9079 16.7807 11.1422ZM11.015 16.3454C11.2239 16.3454 11.4242 16.2624 11.5719 16.1147C11.7196 15.967 11.8025 15.7667 11.8025 15.5579C11.8025 15.349 11.7196 15.1487 11.5719 15.001C11.4242 14.8533 11.2239 14.7704 11.015 14.7704C10.8062 14.7704 10.6059 14.8533 10.4582 15.001C10.3105 15.1487 10.2275 15.349 10.2275 15.5579C10.2275 15.7667 10.3105 15.967 10.4582 16.1147C10.6059 16.2624 10.8062 16.3454 11.015 16.3454Z" fill="white" stroke="black" stroke-width="0.05"/>
<path d="M9.12637 15.7406C9.28574 15.9469 9.55762 15.9328 9.67012 15.9141C9.76387 16.1625 10.0639 16.1578 10.1951 16.2891C10.3217 16.4297 10.767 16.4156 10.8982 16.336C10.7764 16.3266 10.6217 16.2563 10.4764 16.1344C10.2982 15.9844 10.3826 15.6891 10.242 15.5813C10.3451 15.4641 10.3639 15.2672 10.3404 15.1922C10.4529 15.1266 10.5373 15.0235 10.5467 14.9672C10.7093 14.9571 10.8634 14.8908 10.9826 14.7797C11.0811 14.8735 11.3342 14.7516 11.4701 14.911C11.5029 14.5219 11.1279 14.3156 10.8842 14.4422C10.7811 14.3953 10.5186 14.4281 10.4717 14.4985C10.3873 14.461 10.1576 14.5781 10.0498 14.6578C10.1717 14.5922 10.1904 14.4 10.1436 14.3297C10.2373 14.2828 10.3545 14.1516 10.3639 14.0485C10.5045 14.0719 10.7154 13.9781 10.8139 14.0016C10.6592 13.8047 10.4061 13.7344 10.1482 13.7485C9.87637 13.7672 9.76387 13.9547 9.72637 14.1563C9.57168 14.25 9.51543 14.5688 9.57637 14.6813C9.48262 14.6813 9.39824 14.7656 9.36543 14.8172C9.23005 14.7605 9.08554 14.7288 8.93887 14.7235M8.99512 14.4047C8.93887 14.25 9.00918 14.1141 9.04199 13.9922C9.13574 13.6828 9.07949 13.6031 8.80762 13.6453C8.8233 13.9078 8.88685 14.1651 8.99512 14.4047Z" fill="white"/>
<path d="M9.12637 15.7406C9.28574 15.9469 9.55762 15.9328 9.67012 15.9141C9.76387 16.1625 10.0639 16.1578 10.1951 16.2891C10.3217 16.4297 10.767 16.4156 10.8982 16.336C10.7764 16.3266 10.6217 16.2563 10.4764 16.1344C10.2982 15.9844 10.3826 15.6891 10.242 15.5813C10.3451 15.4641 10.3639 15.2672 10.3404 15.1922C10.4529 15.1266 10.5373 15.0235 10.5467 14.9672C10.7093 14.9571 10.8634 14.8908 10.9826 14.7797C11.0811 14.8735 11.3342 14.7516 11.4701 14.911C11.5029 14.5219 11.1279 14.3156 10.8842 14.4422C10.7811 14.3953 10.5186 14.4281 10.4717 14.4985C10.3873 14.461 10.1576 14.5781 10.0498 14.6578C10.1717 14.5922 10.1904 14.4 10.1436 14.3297C10.2373 14.2828 10.3545 14.1516 10.3639 14.0485C10.5045 14.0719 10.7154 13.9781 10.8139 14.0016C10.6592 13.8047 10.4061 13.7344 10.1482 13.7485C9.87637 13.7672 9.76387 13.9547 9.72637 14.1563C9.57168 14.25 9.51543 14.5688 9.57637 14.6813C9.48262 14.6813 9.39824 14.7656 9.36543 14.8172C9.23005 14.7605 9.08554 14.7288 8.93887 14.7235M8.99512 14.4047C8.93887 14.25 9.00918 14.1141 9.04199 13.9922C9.13574 13.6828 9.07949 13.6031 8.80762 13.6453C8.8233 13.9078 8.88685 14.1651 8.99512 14.4047Z" stroke="black" stroke-width="0.05"/>
<path d="M8.78906 13.6593C8.85938 13.7343 9.1125 13.7672 9.13594 13.5422C9.16875 13.2843 9.06563 13.1859 8.84063 13.2843C8.82188 13.3453 8.80313 13.5843 8.79375 13.6593H8.78906Z" fill="white" stroke="black" stroke-width="0.05"/>
<path d="M8.84551 13.275C8.93926 13.3125 9.14082 13.3922 9.25332 13.1719C9.34707 12.9891 9.2252 12.8485 9.02832 12.8625C8.98145 12.9141 8.8877 13.1016 8.84082 13.275H8.84551Z" fill="white" stroke="black" stroke-width="0.05"/>
<path d="M9.01855 12.8438C9.04199 12.9141 9.28106 13.1485 9.45918 12.9797C9.63262 12.811 9.63262 12.5579 9.37012 12.4641C9.2998 12.4735 9.08887 12.7219 9.01855 12.8438Z" fill="white" stroke="black" stroke-width="0.05"/>
<path d="M9.36992 12.4594C9.42148 12.6094 9.58555 12.8626 9.89492 12.7407C10.1996 12.6282 10.0684 12.2438 9.92773 12.1688C9.84805 12.1688 9.51055 12.3235 9.36523 12.4594H9.36992Z" fill="white" stroke="black" stroke-width="0.05"/>
<path d="M9.92809 12.1688C9.90465 12.2953 9.92809 12.6516 10.35 12.6422C10.7625 12.6422 10.6453 12.15 10.5375 12.0797C10.3687 12.0797 10.0828 12.0844 9.92809 12.1688Z" fill="white" stroke="black" stroke-width="0.05"/>
<path d="M10.5605 12.0938C10.5136 12.1969 10.4058 12.8531 11.2214 12.675C11.3292 12.6516 11.6058 12.0422 10.5558 12.0984L10.5605 12.0938Z" fill="white" stroke="black" stroke-width="0.05"/>
<path d="M11.006 12.1546C10.9216 12.239 11.1372 12.9046 11.6904 12.7921C12.2435 12.6796 11.7794 12.0468 11.006 12.1546Z" fill="white" stroke="black" stroke-width="0.05"/>
<path d="M11.4749 12.2532C11.3905 12.4407 11.5217 12.9797 12.2014 12.9797C12.8249 12.9797 12.1733 12.2672 11.4795 12.2532H11.4749Z" fill="white" stroke="black" stroke-width="0.05"/>
<path d="M12.0139 12.4125C11.967 12.5157 11.9155 13.0875 12.717 13.1391C13.303 13.1719 13.1624 12.3469 12.0139 12.4125Z" fill="white" stroke="black" stroke-width="0.05"/>
<path d="M12.876 12.6562C12.7776 12.8344 12.6698 13.275 13.5557 13.3125C14.1182 13.3313 13.7714 12.6656 12.876 12.6562Z" fill="white" stroke="black" stroke-width="0.05"/>
<path d="M13.6118 12.7922C13.4853 12.9657 13.579 13.3125 13.9071 13.3782C14.3196 13.4625 14.3759 13.0735 14.0946 12.886C13.8134 12.6985 13.6118 12.7922 13.6118 12.7922Z" fill="white" stroke="black" stroke-width="0.05"/>
<path d="M14.0154 12.8719C13.9217 13.036 13.9779 13.4344 14.6014 13.4344C14.7326 13.4344 15.2248 12.9329 14.0154 12.8719ZM9.18262 20.5501C9.42566 20.5501 9.65876 20.4535 9.83061 20.2817C10.0025 20.1098 10.099 19.8767 10.099 19.6337C10.099 19.3906 10.0025 19.1575 9.83061 18.9857C9.65876 18.8138 9.42566 18.7173 9.18262 18.7173C8.94019 18.7173 8.7077 18.8136 8.53628 18.985C8.36486 19.1564 8.26855 19.3889 8.26855 19.6313C8.26855 19.8737 8.36486 20.1062 8.53628 20.2777C8.7077 20.4491 8.94019 20.5454 9.18262 20.5454V20.5501Z" fill="white" stroke="black" stroke-width="0.05"/>
<path d="M15.8947 7.23277C15.8244 7.30308 15.6791 7.51402 15.651 7.59839C15.3416 8.51714 16.1619 9.2062 16.6353 10.1906C16.8326 10.6367 16.9125 11.1259 16.8674 11.6116C16.8223 12.0973 16.6536 12.5634 16.3775 12.9656C16.176 13.2328 16.2369 13.3078 15.9791 13.5796C15.8807 13.6828 15.7682 13.814 15.801 14.189C15.9697 14.1328 16.2041 14.2828 16.251 14.414C16.3682 14.3578 16.5322 14.3812 16.5932 14.4515C16.79 14.3578 16.9588 14.4046 17.1322 14.5921C17.2869 14.5687 17.451 14.5921 17.601 14.7562C17.6853 14.5921 17.8494 14.5312 17.9666 14.5687C17.9572 14.3578 18.1682 14.2031 18.3557 14.2875C18.3404 14.2268 18.3418 14.1631 18.3597 14.1032C18.3777 14.0432 18.4115 13.9893 18.4576 13.947C18.5037 13.9047 18.5604 13.8757 18.6217 13.863C18.683 13.8503 18.7465 13.8545 18.8057 13.875C19.0166 13.7109 19.4385 13.6968 19.6494 13.9453C19.2744 13.8375 19.2885 14.2406 18.9697 14.2031C19.0541 14.4375 18.8385 14.5781 18.6275 14.6484C18.7635 14.5875 18.9088 14.5078 18.9557 14.5921C19.0728 14.489 19.3119 14.5265 19.3682 14.5781C19.5275 14.5312 19.6775 14.5687 19.7432 14.7562C19.9588 14.8875 20.0994 15.2156 19.9447 15.4593C19.8978 15.2015 19.7244 15.2156 19.6541 15.1078C19.4853 15.1687 19.326 15.1687 19.2791 15.0609C19.1853 15.1546 18.8619 15.239 18.7213 15.0984C18.6697 15.3093 18.4869 15.4875 18.276 15.4875C18.3322 15.6515 18.1682 15.9328 18.0416 16.0734C18.2385 16.1812 18.1822 16.4156 18.1353 16.5562C18.44 16.6031 18.1822 16.875 18.7119 17.0531C18.4494 17.1328 17.9432 17.0531 17.8728 16.7343C17.615 16.7203 17.4369 16.4625 17.451 16.1906C17.2494 16.0031 17.2166 15.7359 17.4978 15.5437C17.2635 15.614 17.1322 15.239 16.7947 15.3937C16.6213 15.4687 16.176 15.3375 16.1807 15.1828C16.1103 15.3 15.6791 15.2531 15.6182 15.0515C15.4775 15.1265 15.1494 15 15.1541 14.8031C14.9713 14.8875 14.7275 14.7375 14.7369 14.55C14.5682 14.5265 14.5494 14.3765 14.5588 14.2453C14.4088 14.175 14.451 14.025 14.5119 13.8515C14.4041 13.7343 14.451 13.5703 14.5307 13.4156C14.4135 13.2984 14.4369 13.1578 14.4744 12.9937C13.9072 12.9468 13.1994 12.8062 11.5775 12.3093C9.13065 11.5593 8.46971 13.3218 9.00878 14.4281C9.6369 15.7031 8.93846 15.9796 9.1494 16.9359C9.3744 16.9828 9.49159 17.1703 9.47753 17.3718C9.61346 17.3718 9.7119 17.4984 9.66503 17.7328C9.72724 17.7227 9.79095 17.7272 9.85113 17.7459C9.91131 17.7646 9.96635 17.797 10.0119 17.8406C10.0916 17.6859 10.3635 17.6531 10.5041 17.8312C10.8135 17.8078 10.9635 18.0515 10.9541 18.3609C11.0272 18.4993 11.0594 18.6557 11.0469 18.8117C11.0345 18.9678 10.9779 19.1171 10.8838 19.2421C10.8978 19.1203 10.8838 18.9421 10.8744 18.8343C10.865 18.6421 10.5932 18.6 10.6213 18.4406C10.4807 18.4546 10.3447 18.375 10.2978 18.2718C10.257 18.3063 10.2078 18.3297 10.1553 18.3395C10.1027 18.3494 10.0484 18.3454 9.99784 18.3281C10.1572 18.3984 10.2791 18.6843 10.2322 18.8718C10.3166 19.0125 10.2978 19.2703 10.1994 19.3875C10.1525 19.6125 9.9744 19.6968 9.74471 19.5937C9.80181 19.5554 9.84786 19.5027 9.87829 19.441C9.90872 19.3794 9.92246 19.3108 9.91815 19.2421C9.8411 19.164 9.79454 19.061 9.7869 18.9515C9.55721 18.989 9.23846 18.7921 9.17753 18.7171C9.05749 18.7178 8.93875 18.742 8.82808 18.7885C8.71742 18.835 8.617 18.9029 8.53256 18.9882C8.44811 19.0735 8.3813 19.1746 8.33593 19.2857C8.29057 19.3969 8.26753 19.5159 8.26815 19.6359C8.24471 19.4484 8.00565 19.2609 8.03378 19.1015C7.89315 18.6656 8.09471 18.2578 8.67128 18.1781C8.60096 18.014 8.84471 17.8406 8.75096 17.6531C8.5678 17.3194 8.34252 17.0106 8.08065 16.7343C8.28221 16.3921 8.22128 15.9375 8.10409 15.6515C7.93534 15.2437 7.77596 15.3468 7.17596 16.0031C6.19159 17.0812 4.88846 16.7812 3.73534 17.489C3.43065 17.6765 3.12596 17.7468 3.45409 17.4187C3.78221 17.0906 4.65409 16.7625 5.22128 16.4765C6.28065 15.9468 7.17596 15.0609 7.52753 13.3453C8.35721 9.30464 11.4135 10.6359 13.34 11.3906C15.1541 12.0937 14.826 10.4953 13.9072 9.52964C12.8057 8.37183 13.026 7.45777 13.5416 6.72652C14.4744 6.59995 16.2557 6.92339 15.8947 7.23277Z" fill="white" stroke="black" stroke-width="0.05"/>
<path d="M19.1719 17.1562C19.3042 17.1562 19.4353 17.1302 19.5575 17.0795C19.6798 17.0289 19.7909 16.9547 19.8845 16.8611C19.9781 16.7675 20.0523 16.6564 20.103 16.5341C20.1536 16.4118 20.1797 16.2808 20.1797 16.1484C20.1797 16.0161 20.1536 15.885 20.103 15.7628C20.0523 15.6405 19.9781 15.5294 19.8845 15.4358C19.7909 15.3422 19.6798 15.268 19.5575 15.2173C19.4353 15.1667 19.3042 15.1406 19.1719 15.1406C18.9046 15.1406 18.6482 15.2468 18.4592 15.4358C18.2702 15.6248 18.1641 15.8811 18.1641 16.1484C18.1641 16.4157 18.2702 16.6721 18.4592 16.8611C18.6482 17.0501 18.9046 17.1562 19.1719 17.1562Z" fill="white" stroke="black" stroke-width="0.05"/>
<path d="M15.3327 7.27966C15.1077 8.26873 15.2952 8.71873 15.628 9.15466C16.3077 10.0547 16.8468 12.1078 16.0733 13.4484" stroke="black" stroke-width="0.05"/>
<path d="M16.5088 12.2906C16.6025 12.2531 16.7807 12.1453 16.8229 11.9484M16.5791 11.8594C16.6072 11.6906 16.8744 11.6156 16.8791 11.4375M16.5838 11.1938C16.5697 11.0203 16.851 10.8609 16.8088 10.6828M16.4338 10.5609C16.4104 10.4625 16.6682 10.2703 16.5979 10.1109M16.2369 9.94219C16.1854 9.82969 16.3635 9.70312 16.2838 9.58125M15.9557 9.44531C15.9369 9.37031 16.0494 9.20156 15.9885 9.10312M15.6744 8.86875C15.6979 8.83594 15.7916 8.76563 15.7541 8.67656M15.4775 8.44219C15.5197 8.41875 15.6322 8.38125 15.6182 8.29688" stroke="black" stroke-width="0.05" stroke-linecap="round"/>
<path d="M9.58594 19.5375C9.35156 19.4531 9.05625 19.5703 9 19.7719M9.17344 19.9547C9.20625 19.7531 9.51094 19.6641 9.60469 19.7578C9.4125 19.6547 9.31875 20.0297 9.4875 20.0391M11.0719 15.3C10.9312 15.3703 10.8844 15.6281 11.0719 15.8203M11.2828 15.3563C11.1844 15.4406 11.1891 15.6844 11.3344 15.7453C11.2125 15.6562 11.3344 15.5063 11.4281 15.4969C11.5125 15.4969 11.5688 15.6 11.4656 15.7031M19.5516 15.9375C19.2234 15.8531 18.9562 16.2328 19.2562 16.575C19.2562 16.2469 19.4906 16.0266 19.7719 16.0875M19.6453 16.3125C19.6285 16.3118 19.6118 16.3147 19.5961 16.3208C19.5805 16.3269 19.5662 16.3362 19.5544 16.3481C19.5425 16.36 19.5332 16.3742 19.527 16.3899C19.5209 16.4055 19.5181 16.4223 19.5187 16.4391C19.5187 16.5047 19.575 16.5656 19.6641 16.5656C19.725 16.5656 19.7719 16.5 19.7719 16.4437M20.8031 9.08438C20.8594 9.29063 21.1313 9.37031 21.3516 9.32344M21.3516 9.19219C21.1828 9.20156 21.0422 9.04219 21.0516 8.90625C21.0516 9.00469 21.2859 9.05156 21.3516 8.98594" stroke="black" stroke-width="0.05" stroke-linecap="round" stroke-linejoin="round"/>
<path d="M9.66992 15.9141C9.62305 15.7969 9.81055 15.6797 9.81523 15.5672C9.82461 15.4547 10.0309 15.3703 10.2371 15.5812M10.1434 14.325C10.0965 14.3437 10.0637 14.3719 10.0309 14.3812M10.5465 14.9672C10.4996 14.9672 10.3918 14.9672 10.3355 14.925M10.3402 15.1922C10.298 15.2109 10.209 15.2484 10.1527 15.2578M8.32461 18.7453C8.31523 18.8531 8.41836 19.0078 8.4793 19.0547M8.7793 18.4922C8.72305 18.5859 8.68555 18.7359 8.72305 18.8391M9.66055 18.8484C9.55273 18.7781 9.62305 18.5953 9.61367 18.4734C9.59961 18.3562 9.73555 18.1687 9.99805 18.3328M8.6668 18.1781C8.77461 18.1594 8.88711 18.1641 8.95742 18.1922M10.0121 17.8406C9.97475 17.8948 9.95214 17.9578 9.94648 18.0234M10.509 17.8266C10.4246 17.8266 10.3543 17.8875 10.3168 17.9484M9.36523 14.8125C9.45898 14.8453 9.70273 14.9953 9.71211 15.15M10.3637 14.0437C10.073 14.0437 9.96523 13.7438 10.1809 13.7438M10.884 14.4375C10.7715 14.4844 10.823 14.6813 10.9777 14.775M10.1949 16.2891C10.1387 16.2187 10.209 16.0078 10.3918 16.0734M10.6262 18.4359C10.6355 18.2578 10.8605 18.1547 10.9543 18.3516M9.78711 18.9469C9.77305 18.75 9.87148 18.6844 9.96055 18.675C10.0496 18.6609 10.1762 18.7359 10.2324 18.8625M8.0293 19.0969C8.04336 18.9797 8.14648 18.8531 8.24961 18.8719M18.8059 13.875C18.7262 13.9312 18.6793 14.1797 18.9699 14.2031M18.3605 14.2875C18.3605 14.3156 18.3934 14.3578 18.4168 14.3719M19.7434 14.7562C19.6684 14.6953 19.4715 14.9344 19.6496 15.1078M17.873 16.7344C17.8262 16.5656 17.9855 16.5234 18.1309 16.5563M17.498 15.5437C17.5871 15.4875 17.6762 15.4219 17.784 15.3937M17.4512 16.1906C17.4512 16.05 17.5215 15.9328 17.5871 15.9M17.9668 14.5687C17.9643 14.7171 18.0033 14.8632 18.0793 14.9906M19.3684 14.5781C19.284 14.6062 19.209 14.6391 19.1762 14.7094M19.2746 15.0609C19.3168 15.0281 19.3637 14.9859 19.3824 14.9578M21.5012 9.92344C21.5012 10.0875 21.2949 10.1766 21.159 10.0734M21.9465 9.93281C22.0402 9.99844 22.3543 9.93281 22.2793 9.75M21.5621 10.875C21.4765 10.8507 21.3999 10.8018 21.3418 10.7344M22.2137 10.3875C22.1352 10.4077 22.0522 10.3994 21.9793 10.3641M20.5402 10.9781C20.6012 10.9781 20.7418 10.9547 20.8355 10.9031M20.3668 9.9375C20.3054 9.92609 20.242 9.93778 20.1887 9.97031M21.548 10.2234C21.5264 10.3155 21.4773 10.3988 21.4074 10.4625" stroke="black" stroke-width="0.05" stroke-linecap="round"/>
<path d="M20.165 10.486C20.3104 10.4203 20.4932 10.9219 20.8447 10.7438M20.8775 10.2281C20.8307 10.2891 20.7979 10.3875 20.7932 10.4766" stroke="black" stroke-width="0.05" stroke-linecap="round" stroke-linejoin="round"/>
<path d="M13.8375 9.45938C13.8844 9.45469 13.9687 9.43594 13.9828 9.375M7.78125 14.9437C7.95937 15.0422 8.08125 15.2156 8.00625 15.4688M15.8719 8.925C15.9281 8.95781 16.125 8.95781 16.2375 8.91562M16.3781 9.04219C16.3781 9.12187 16.3969 9.43594 16.2375 9.50156M16.2984 9.45469C16.4438 9.50156 16.7391 9.4875 16.8328 9.22031M16.6266 9.44531C16.6518 9.4839 16.6685 9.52743 16.6755 9.57299C16.6825 9.61854 16.6797 9.66507 16.6673 9.70946C16.6548 9.75385 16.6331 9.79507 16.6034 9.83036C16.5738 9.86564 16.5369 9.89418 16.4953 9.91406M16.6828 9.64219C16.8562 9.69844 17.25 9.70312 17.2078 9.37031M17.0766 9.64219C17.1937 9.80625 17.7094 9.99844 17.6297 9.65625M16.5984 10.1156C16.8 10.1625 17.0812 10.0266 16.9641 9.675M17.5266 9.85312C17.5594 9.98906 18.2156 10.1297 18.1266 9.825M18.0047 9.99844C18.1266 10.2797 18.7828 10.2609 18.5766 9.88125M18.4688 10.1719C18.6 10.3313 19.1719 10.2375 18.9469 9.85312M18.9422 10.1672C19.2984 10.4344 19.7156 10.05 19.2656 9.76406M19.4719 10.0781C19.7859 10.3313 20.175 9.87188 19.8984 9.74063M16.9547 9.975C17.0578 10.0031 17.2687 9.98906 17.3156 9.80625M17.2359 9.92813C17.2266 10.2 17.6766 10.3031 17.7891 9.99375M17.6391 10.1578C17.7234 10.3359 18.1172 10.4062 18.1828 10.1578M18.1172 10.2703C18.1828 10.4484 18.525 10.4297 18.6188 10.2469M18.4922 10.3641C18.6 10.5984 19.0359 10.5984 19.1344 10.2609M19.0594 10.4062C19.2281 10.5141 19.5937 10.4719 19.5656 10.1437M19.4953 10.3781C19.7484 10.5844 20.1047 10.3828 19.9313 10.0359M19.9125 10.6453C20.0484 10.6266 20.1188 10.3547 19.9781 10.2844M16.7766 10.6969C17.0578 10.5422 17.1094 10.2844 16.9172 10.0312M17.0156 10.4391C17.1937 10.5422 17.5313 10.4297 17.5875 10.1719M17.2594 10.4672C17.3531 10.5938 17.3766 10.7531 17.2453 10.9031M17.3391 10.6313C17.6531 10.4344 18.0422 10.7953 17.7516 11.0156M17.7 10.6125C17.7703 10.5937 17.8922 10.4672 17.9062 10.3172M17.8406 10.7484C17.9672 10.6125 18.8531 10.8891 18.2953 11.1703M18.2484 10.3734C18.4219 10.4438 18.5109 10.6828 18.2484 10.7672M18.4734 10.9688C18.6609 10.7719 19.2516 10.8984 19.0406 11.1422M18.9 10.8891C19.0031 10.5328 19.6359 10.7531 19.4297 10.9031M18.7734 10.5281C18.7875 10.6031 18.7922 10.7766 18.6797 10.8703M19.2984 10.4625C19.3103 10.5016 19.3136 10.5428 19.3079 10.5833C19.3022 10.6238 19.2878 10.6625 19.2656 10.6969M19.7016 10.4625C19.7344 10.5328 19.7953 10.65 19.6641 10.7531M14.6625 7.75781C14.6672 8.09531 14.7844 8.32031 15.2391 8.10469M14.8031 8.16094C14.5781 8.46094 14.8312 8.78438 15.2719 8.46094M14.1141 8.30625C14.4188 8.63437 14.9672 8.39531 14.6156 7.89375M14.9859 8.5875C14.925 8.91562 15.1922 8.97656 15.4078 8.83125M13.8422 8.3625C13.8984 8.68594 14.2312 8.94375 14.5547 8.7375M14.25 8.8125C14.25 9.27656 14.8922 9.32812 15.0375 8.84531M14.8031 9.14062C15.0141 9.5625 15.4594 9.39375 15.6094 9.13594M14.3438 8.45625C14.4281 8.66719 14.5922 8.89688 14.9766 8.72344M13.1672 8.35781C13.2187 8.53125 13.5281 8.73281 13.8797 8.49844M13.3875 8.57812C13.2 8.85469 13.575 9.1125 14.025 8.7M13.6078 8.92031C13.6875 9.30469 13.8422 9.61875 14.3906 9.11719M14.1141 9.31875C14.3156 9.56719 14.6203 9.71719 14.9109 9.3" stroke="black" stroke-width="0.05"/>
<path d="M15.1271 9.38904C15.1083 9.68435 15.1692 9.82966 15.3989 9.82029C15.5771 9.81091 15.7505 9.6656 15.8489 9.51091M15.3567 9.82029C15.3521 10.1531 15.6146 10.4203 16.1067 10.0781M15.563 10.214C15.4692 10.4672 15.7505 10.8797 16.3036 10.664M14.3911 9.53904C14.3536 9.86716 14.6583 10.0828 15.1411 9.6656M14.6255 9.89998C14.6442 10.1672 14.9442 10.4859 15.3849 10.0265M14.8364 10.2375C14.8036 10.6875 15.2208 10.8187 15.5724 10.4719M14.213 9.89998C14.3067 9.90466 14.3771 9.82498 14.4239 9.76404M14.4099 10.2328C14.4896 10.2469 14.6302 10.1719 14.6771 10.0781M14.6161 10.7672C14.7099 10.8656 15.0286 10.7953 15.0661 10.6594M14.9724 10.7578C15.1458 11.1703 15.6146 11.1562 15.8114 10.6875M15.7177 10.8562C15.8114 11.0953 16.0317 11.25 16.3974 11.1656M15.8958 11.1C15.6896 11.4375 15.9614 11.8312 16.4208 11.4422M16.0083 11.6015C15.9849 11.8125 16.1817 12.0562 16.4442 12.0843M15.1411 10.9828C15.0708 11.4609 15.413 11.6859 15.8442 11.4375M14.6442 11.2125C14.7567 11.3015 14.9536 11.3109 15.1411 11.2406M15.3755 11.5219C15.2677 11.9203 15.6802 12.2062 16.0317 11.7609M14.8036 11.2781C14.8036 11.4844 15.0099 11.7093 15.3567 11.6437M16.3271 12.0562C16.0927 12.2156 16.0458 12.4969 16.3739 12.6797M15.7505 11.9765C15.7599 12.2109 15.8724 12.3515 16.1396 12.3703M15.4036 11.85C15.0474 12.1734 15.3942 12.5531 15.8161 12.2297M15.6474 12.3328C15.5302 12.7031 15.9755 12.9281 16.2099 12.5484M14.9208 11.5406C14.7896 11.9062 14.9536 12.15 15.2536 12.1265M14.4567 11.4703C14.4708 11.6906 14.6583 11.7656 14.8739 11.7187M14.5927 11.7C14.4286 12.0094 14.6724 12.1687 14.9911 12.0562M15.9567 12.7359C15.9052 12.9328 15.9333 13.0734 16.2192 13.139M15.9755 13.0125C15.6239 13.1719 15.6005 13.5093 15.8677 13.725M15.6942 12.6422C15.6524 12.6782 15.6197 12.7238 15.599 12.775C15.5783 12.8262 15.5701 12.8817 15.5751 12.9367C15.5802 12.9917 15.5983 13.0448 15.628 13.0914C15.6577 13.138 15.6981 13.1768 15.7458 13.2047M14.1521 11.564C13.9505 11.7656 14.138 12.3094 14.5833 12.0094M15.2958 12.2531C15.0239 12.4781 15.1505 12.8859 15.5958 12.7687M14.8458 12.0843C14.7052 12.4828 14.8458 12.6234 15.1599 12.6328" stroke="black" stroke-width="0.05"/>
<path d="M13.8471 11.55C13.8035 11.5803 13.7668 11.6195 13.7395 11.665C13.7122 11.7106 13.6948 11.7614 13.6886 11.8141C13.6824 11.8669 13.6875 11.9203 13.7035 11.9709C13.7195 12.0216 13.7461 12.0682 13.7814 12.1078C13.8846 12.225 14.0861 12.1734 14.1471 12.0187M13.3408 11.3906C13.0736 11.7375 13.3408 12.15 13.7252 12.0281M14.7893 12.4219C14.5127 12.5156 14.3018 12.7734 14.4752 12.9891C14.5689 13.1203 15.0096 13.1391 15.1314 12.6375M14.2877 12.0984C14.133 12.3281 14.1846 12.5437 14.4752 12.6562M14.2736 12.525C14.1049 12.6188 13.9924 12.7312 14.0299 12.9375M13.8893 12.1688C13.8283 12.4453 13.9033 12.6141 14.0768 12.6984M13.8846 12.4969C13.6221 12.4781 13.4861 12.5906 13.5752 12.8484M13.5986 12.5625C13.3361 12.4688 13.2986 12.2438 13.4111 12.0094M13.3736 12.3563C13.0924 12.3656 12.9658 12.5063 12.9658 12.7031" stroke="black" stroke-width="0.05"/>
<path d="M12.989 11.2547C12.7827 11.3438 12.7171 11.6203 12.7968 11.7703C12.8718 11.925 13.1156 11.9391 13.2609 11.8359M12.4171 11.0391C12.2249 11.25 12.4406 11.6625 12.7781 11.5594M11.9343 10.8703C11.7562 11.1187 11.9484 11.5312 12.4031 11.4141M12.4265 12.5625C12.3796 12.2672 12.6843 12.075 13.0593 12.4547M12.8765 11.8594C12.8237 11.9085 12.7831 11.9692 12.7579 12.0367C12.7327 12.1043 12.7235 12.1768 12.7312 12.2484M11.4468 10.7344C11.2546 11.0625 11.489 11.3672 11.9062 11.25M12.539 11.5547C12.2577 11.8313 12.3515 12.1078 12.5624 12.2672M12.3609 11.8781C11.939 11.8828 11.9202 12.3656 12.2624 12.5203M12.0421 11.3953C11.8734 11.5125 11.8171 11.8359 12.1124 11.9672M12.0327 12.1172C11.8546 12.0375 11.6437 12.1359 11.6577 12.3422M11.7656 12.1266C11.6062 11.7516 11.1421 11.8125 11.1843 12.2016M11.8968 11.6578C11.7937 11.6766 11.5968 11.7375 11.5218 11.8922M11.5499 11.2359C11.3624 11.4469 11.5031 11.7047 11.6577 11.7516M10.9874 10.6406C10.9546 10.8938 11.0531 11.0156 11.3718 10.9969M11.0999 10.9641C10.9781 11.2734 11.1421 11.4047 11.4609 11.3859M11.1702 11.3391C10.9827 11.5641 11.114 11.8078 11.2968 11.9062M11.0812 11.625C10.7484 11.5828 10.6968 11.9719 10.8046 12.1547" stroke="black" stroke-width="0.05"/>
<path d="M10.8141 10.6078C10.6079 10.6969 10.486 10.9547 10.5985 11.114C10.711 11.2734 10.936 11.2219 11.0579 11.1375M10.6688 11.1844C10.5001 11.4422 10.6548 11.639 10.8376 11.714" stroke="black" stroke-width="0.05"/>
<path d="M10.0124 10.5797C9.87174 10.7203 9.9608 11.0063 10.2889 11.0156C10.5514 11.0156 10.6874 10.7672 10.6077 10.5938M10.2421 11.0156C10.1342 11.25 10.1999 11.5031 10.5983 11.461M10.7717 11.8313C10.5233 11.7188 10.1952 11.8313 10.3358 12.1266M10.2983 11.4141C10.1999 11.5547 10.2374 11.7563 10.3452 11.8828M10.2842 11.7891C10.1155 11.8172 9.95611 11.9063 10.0592 12.1641M10.0358 11.9531C9.82486 11.8922 9.55299 12.0469 9.71705 12.2625M9.67955 12.0563C9.50143 12.0282 9.28111 12.2203 9.45924 12.4125M9.38893 12.2531C9.22486 12.3 9.02799 12.4875 9.20143 12.6281M10.2186 11.3297C9.98424 11.4375 9.95611 11.7047 10.0686 11.8922M9.97018 10.8422C9.61861 10.9781 9.6233 11.4516 10.0124 11.5922M9.8483 11.4891C9.63268 11.6156 9.59518 11.85 9.7358 12.0047M9.47799 10.6641C9.33736 10.711 9.34674 11.1469 9.72174 11.1328M9.08893 10.8141C8.80768 11.0016 9.14518 11.4797 9.60455 11.1375M9.35143 11.2547C9.30924 11.4469 9.36549 11.6625 9.67955 11.686M9.37018 11.5125C9.3088 11.5436 9.25973 11.5945 9.23095 11.6569C9.20217 11.7194 9.19538 11.7898 9.21168 11.8566C9.22798 11.9234 9.26641 11.9828 9.32072 12.025C9.37503 12.0672 9.44202 12.0898 9.5108 12.0891M8.65768 11.0953C8.37174 11.3625 8.89205 11.5922 9.08893 11.2078M8.25924 11.536C8.11861 11.7094 8.6108 12.1547 8.82643 11.4094M8.88268 11.3953C8.89205 11.5735 8.99986 11.6766 9.21549 11.6906M9.21549 11.8594C8.86393 11.9156 8.75143 12.3516 9.14049 12.4453M8.56861 11.8031C8.55924 11.9672 8.72799 12.1031 8.92486 12.075M9.0983 12.4313C8.77955 12.5016 8.74205 12.9141 9.0233 12.8906M8.87799 13.275C8.6108 13.1953 8.60611 12.8813 8.84049 12.7594" stroke="black" stroke-width="0.05"/>
<path d="M8.65781 12.9984C8.43281 13.1297 8.52188 13.4578 8.63906 13.5047C8.75625 13.5515 8.85 13.4906 8.86406 13.3922M8.84531 13.8422C8.86875 13.9968 8.30156 13.9359 8.59219 13.4625M8.59219 13.8703C8.4 14.1703 8.70938 14.414 8.90625 14.1609M8.61563 14.2312C8.54063 14.475 8.83125 14.6484 9.01875 14.4609M7.98281 11.9765C7.875 12.1922 8.40469 12.2719 8.44219 11.8265M7.83281 12.2953C7.72969 12.7172 8.52656 12.6328 8.32031 12.0843M8.33906 12.3656C8.39207 12.3903 8.45012 12.4023 8.50859 12.4006C8.56705 12.3989 8.62431 12.3836 8.67578 12.3558C8.72725 12.328 8.7715 12.2885 8.80501 12.2406C8.83852 12.1927 8.86035 12.1375 8.86875 12.0797M8.62969 12.3797C8.64465 12.4393 8.67145 12.4954 8.70849 12.5445C8.74553 12.5936 8.79206 12.6348 8.84531 12.6656M8.24531 12.4922C8.2125 12.7219 8.44219 12.9094 8.70469 12.8906M8.28281 12.7125C8.15625 12.8906 8.11875 13.2281 8.52188 13.2562M7.66875 12.7734C7.60313 12.9562 7.9875 13.1437 8.2125 12.8437M7.55156 13.2375C7.51875 13.3781 7.86562 13.5656 8.05781 12.975M7.90313 13.275C7.9875 13.4203 8.26406 13.5375 8.43281 13.2515M8.15625 13.425C8.08594 13.6312 8.28281 13.8281 8.51719 13.7672M7.72031 13.3781C7.67344 13.6734 8.01094 13.8469 8.22187 13.6922M7.49063 13.5047C7.39219 13.8844 7.875 14.025 8.05313 13.7437M7.93594 13.8562C7.95 14.0672 8.28281 14.25 8.54062 14.0719M7.34531 14.0344C7.32187 14.1281 7.72031 14.2219 7.77656 13.8937M7.575 14.114C7.66875 14.3578 7.9875 14.414 8.17031 14.1187M8.0625 14.2359C8.10469 14.4609 8.39062 14.5875 8.64844 14.4328M8.75156 14.5218C8.68594 14.8218 9 15.0609 9.19219 14.8968M8.25469 14.4703C8.16094 14.7984 8.56875 14.9859 8.79844 14.8031M7.75781 14.3015C7.73438 14.6109 7.97344 14.7937 8.25 14.6578M7.23281 14.3297C7.15313 14.5312 7.58906 14.6953 7.79531 14.5265M6.96094 14.8781C7.07344 15.0094 7.4625 14.8781 7.5 14.5922M7.39219 14.8031C7.53281 14.9672 7.87031 15.0562 8.00156 14.7047M7.88906 14.8875C7.87969 15.1406 8.33437 15.3234 8.47969 14.8547M9.01406 14.9484C8.97188 15.0703 9.07031 15.2672 9.27188 15.2906M8.63906 14.8687C8.61094 15.0094 8.81719 15.2109 9.03281 15.1312M9.07969 15.1875C9.01875 15.3422 9.06563 15.5625 9.27188 15.5625M9.09844 15.4734C8.94375 15.6047 9.00469 15.8344 9.22969 15.8437M9.01875 15.6937C8.79844 15.839 8.87813 16.1625 9.16406 16.1437M8.35781 15.0656C8.35781 15.3844 8.75156 15.4312 8.82656 15.1406M8.67656 15.3281C8.61563 15.5156 8.77031 15.6984 9.00937 15.6468M8.72344 17.6015C8.775 17.6765 8.99531 17.5453 8.93438 17.414C8.87813 17.2875 8.64375 17.3578 8.67188 17.4937M8.88281 17.3625C8.91094 17.1047 8.60156 17.0625 8.52656 17.2875M8.63906 17.1562C8.71875 17.0297 8.45625 16.8515 8.35312 17.039M8.44687 16.964C8.51719 16.7765 8.22187 16.6922 8.19844 16.8656M8.13281 16.6172C8.17031 16.5234 8.49844 16.5797 8.35781 16.7765M8.61094 17.0109C8.74219 16.8937 8.52187 16.65 8.38594 16.739M9.48281 17.3719C9.37969 17.3812 9.27187 17.4469 9.34687 17.6672C9.40312 17.8172 9.62813 17.8265 9.66094 17.7328" stroke="black" stroke-width="0.05"/>
<path d="M9.32828 17.4796C9.23453 17.414 9.01422 17.5265 9.11266 17.7327M9.11266 17.7327C9.18766 17.8921 9.37984 17.8265 9.40797 17.7468M9.11266 17.7327C9.07047 17.8312 8.81735 17.8734 8.77047 17.7796M8.93922 17.489C8.99547 17.4562 9.08922 17.4984 9.11266 17.5452M8.92516 16.0406C8.75172 16.1531 8.85953 16.4906 9.12203 16.4062M8.86891 16.3124C8.73297 16.4202 8.85953 16.7531 9.11266 16.6265M8.9111 16.6265C8.81735 16.7202 8.9111 16.9827 9.15485 16.9359M8.8736 16.7577C8.82672 16.7343 8.6861 16.7531 8.62516 16.8374M8.71891 15.5671C8.59235 15.689 8.65328 15.9421 8.89703 15.9609M8.67672 15.8202C8.48922 15.914 8.48922 16.2843 8.86422 16.2984M8.66266 16.2374C8.55953 16.3218 8.60641 16.6406 8.8736 16.5984M8.74703 16.589C8.70953 16.6265 8.70016 16.7202 8.73297 16.7624M8.62985 16.4671C8.5361 16.4671 8.40953 16.5374 8.37672 16.6359M8.20797 16.2937C8.24547 16.1999 8.5361 16.2046 8.55485 16.4812M8.58297 16.1531C8.55041 16.1598 8.52024 16.1751 8.49552 16.1973C8.47081 16.2195 8.45246 16.2479 8.44235 16.2796M8.45641 15.2906C8.32984 15.4031 8.26891 15.764 8.65328 15.8343M8.20328 16.0359C8.20328 15.9421 8.46578 15.8577 8.55485 16.0031M8.03453 15.5109C8.07203 15.5812 8.25484 15.6843 8.36266 15.6046M7.08766 14.9343C7.08593 14.9766 7.09348 15.0188 7.10976 15.0579C7.12605 15.097 7.15068 15.1321 7.18194 15.1606C7.21319 15.1892 7.25032 15.2106 7.29071 15.2233C7.3311 15.2361 7.37379 15.2398 7.41578 15.2343C7.61266 15.2109 7.65016 15.0374 7.59391 14.9249M7.44391 15.239C7.31735 15.3984 7.47672 15.6234 7.62203 15.5577M7.59391 15.1265C7.66891 15.0984 7.92203 15.0609 7.99703 15.1781M6.77828 15.1781C6.71735 15.2624 7.08297 15.3515 7.20016 15.1781M7.08297 15.2718C7.06891 15.3843 7.12985 15.5859 7.42985 15.5062" stroke="black" stroke-width="0.05"/>
<path d="M7.47631 15.6844C7.52319 15.5906 7.29819 15.4219 7.12944 15.6047C6.956 15.7875 7.15288 15.9938 7.256 15.9235M6.6935 15.2906C6.59975 15.4453 6.94663 15.7266 7.13881 15.4641" stroke="black" stroke-width="0.05"/>
<path d="M6.469 15.5578C6.34244 15.6844 6.49713 15.914 6.67994 15.8437C6.86744 15.7734 6.84869 15.5812 6.8065 15.5297" stroke="black" stroke-width="0.05"/>
<path d="M6.22506 15.7922C6.13131 15.8859 6.22506 16.0969 6.36568 16.0969C6.50631 16.0969 6.586 15.989 6.55787 15.8531M6.79225 15.7734C6.76881 15.914 6.97037 16.0078 7.10162 15.8765M7.10631 15.6328C7.12506 15.6 7.10631 15.5531 7.07818 15.5297M6.01412 15.975C5.89693 16.0687 6.14537 16.3219 6.30006 16.0875M6.90006 15.9234C6.82506 15.9937 6.94225 16.1812 7.05943 16.125M6.49693 16.0547C6.511 16.1812 6.75943 16.275 6.91881 16.0828M6.62818 16.1765C6.59068 16.2609 6.67037 16.3875 6.76412 16.3687M8.97193 16.9078C8.87818 17.0859 9.1735 17.2969 9.38443 17.0812M9.18287 17.175C9.136 17.2687 9.19225 17.4094 9.27662 17.4562M8.90631 17.3765C8.92975 17.2922 9.05631 17.2078 9.16881 17.25M8.75631 17.1469C8.77037 17.0672 8.87818 16.9875 8.95787 17.0062M15.6844 13.4719C15.2672 13.4812 15.4454 14.1515 15.8016 14.0156M15.5485 13.9687C15.4688 14.1047 15.6282 14.3203 15.8016 14.1937M15.7547 14.2172C15.6329 14.4234 16.0735 14.7375 16.2516 14.414M16.111 14.5406C16.111 14.7328 16.6829 14.8547 16.5985 14.4703M16.5469 14.6812C16.6782 14.9109 17.1844 14.9344 17.1329 14.5875M17.0204 14.8265C17.1282 14.9812 17.6204 15.075 17.6063 14.7562M15.0141 12.8906C15.0844 13.0734 15.3282 13.139 15.5907 13.0312M14.8594 13.0219C15.0282 13.125 14.7844 13.6078 14.5313 13.4156M14.8594 13.3219C15.0469 13.4062 15.2672 13.3453 15.3282 13.0875M15.2204 13.2844C15.2391 13.4203 15.4313 13.5281 15.6891 13.4719M14.7657 13.425C15.0001 13.6265 14.6626 14.0344 14.5079 13.8469M14.8547 13.5797C14.9672 13.6594 15.2579 13.6125 15.286 13.3922M15.1547 13.5797C15.1782 13.7203 15.2954 13.7719 15.4501 13.7812M14.7938 13.7719C14.911 13.9359 15.2016 13.9875 15.3329 13.7672M15.5485 14.1422C15.3657 14.1797 15.1922 14.0484 15.2016 13.889C15.2251 14.114 14.9485 14.2312 14.7751 14.1328M14.5641 14.2453C14.7141 14.3203 14.8782 14.0344 14.7516 13.8328M14.7376 14.55C14.9251 14.564 14.9438 14.2828 14.7751 14.1281M15.1547 14.8031C15.3094 14.7656 15.2626 14.4281 14.8922 14.4047M15.6188 15.0515C15.7688 15.0094 15.6516 14.639 15.2438 14.6625M16.1813 15.1781C16.2797 15.0281 15.9469 14.7656 15.6797 14.9015M16.4579 15.3937C16.6407 15.4406 16.7626 14.9625 16.186 15.0375M16.7954 15.3937C16.9501 15.3469 17.0626 15.0656 16.5985 15.1594M17.1469 15.4172C17.2876 15.4875 17.3532 15.075 16.9219 15.1828M15.1313 14.0859C15.1922 14.189 15.1688 14.3953 15.0563 14.4515M15.1501 14.3344C15.2672 14.3812 15.4266 14.3344 15.5204 14.1469M15.3563 14.3344C15.3891 14.414 15.4032 14.5781 15.3282 14.6625M15.3844 14.475C15.5157 14.5453 15.6657 14.4515 15.7313 14.3156M15.6516 14.4328C15.7454 14.489 15.8251 14.7656 15.6704 14.8781M15.7547 14.7515C15.8672 14.7562 16.036 14.7562 16.1391 14.6109M16.0641 14.6906C16.1626 14.7187 16.2797 14.8875 16.2376 15.0328M16.2469 14.9812C16.3594 14.9672 16.5516 14.8875 16.6032 14.7562M16.5516 14.8453C16.6016 14.8754 16.6418 14.9193 16.6676 14.9716C16.6933 15.024 16.7035 15.0826 16.6969 15.1406M16.6969 15.0469C16.8094 15.0375 16.9079 14.9812 16.9407 14.8594M16.9079 14.939C16.9922 14.9672 17.0954 15.0609 17.0954 15.1734M17.086 15.1031C17.1704 15.089 17.2266 15.0375 17.2829 14.9578M17.5032 14.9437C17.611 15.0515 17.4704 15.4031 17.2501 15.3375M15.2438 7.80935C15.0282 7.9406 14.4094 7.9031 14.7141 7.38748M15.3047 7.46248C14.8735 7.63591 14.3438 7.3031 14.8969 6.94685M14.7516 6.82966C14.3907 6.82966 14.1516 7.40623 14.6344 7.6031M13.3547 7.06873C13.261 7.25623 13.5985 7.4531 13.8235 7.27029C14.0063 7.12966 13.9922 6.74529 13.8844 6.59998M13.1719 7.49998C13.0547 7.88904 13.9219 7.91248 13.7813 7.29373M13.1251 8.07654C13.1532 8.37185 13.9547 8.2781 13.6969 7.68279M13.7907 7.51873C13.8563 7.60779 14.0297 7.75779 14.3297 7.72966M13.9313 7.10154C13.9594 7.20466 14.1376 7.28904 14.3672 7.20935M5.90162 16.0594C5.69537 16.2047 6.00943 16.4344 6.12193 16.1812M5.74225 16.1719C5.54068 16.3125 5.85006 16.5469 5.96725 16.2937M5.5735 16.2797C5.37193 16.425 5.68131 16.6547 5.7985 16.4015M5.39537 16.3828C5.20318 16.4859 5.42818 16.739 5.62975 16.514M5.20787 16.4765C5.011 16.5797 5.24068 16.8328 5.43756 16.6125M6.18756 16.1765C6.18756 16.3265 6.4735 16.3875 6.57662 16.1625M6.37506 16.3125C6.286 16.425 6.45006 16.5656 6.53912 16.514M5.99537 16.2937C5.986 16.4203 6.23443 16.4906 6.35631 16.3547M6.13131 16.425C6.05162 16.5281 6.20631 16.6687 6.30943 16.6265M5.83131 16.4062C5.84068 16.5094 5.98131 16.6219 6.136 16.5562M5.92037 16.5422C5.86412 16.5937 5.89225 16.7203 5.97662 16.7578M5.61568 16.5328C5.59225 16.6265 5.74693 16.7859 5.90631 16.6828M5.6485 16.6359C5.55475 16.7156 5.56412 16.8234 5.686 16.8422M5.4235 16.6265C5.40943 16.6875 5.48912 16.7906 5.59225 16.7765M4.91725 16.6219C4.8235 16.6687 5.06725 16.9265 5.21725 16.6922M4.68756 16.7297C4.57037 16.7859 4.861 17.0672 4.99225 16.7765M5.45162 16.7156C5.35787 16.739 5.30162 16.8703 5.37662 16.9219M5.15162 16.7625C5.14225 16.8187 5.25006 16.9031 5.33912 16.8703M5.07662 16.7859C4.98287 16.8422 5.02975 16.9969 5.13756 16.9734M4.76256 16.889C4.67818 16.95 4.73443 17.0765 4.84693 17.0437M4.91256 16.8797C4.91256 16.9125 4.98756 16.964 5.0485 16.9453M4.47193 16.8281C4.36881 16.875 4.3735 17.1328 4.72037 16.9922M4.23756 16.9312C4.09693 17.0015 4.14381 17.1984 4.45787 17.0109M4.48131 17.025C4.44381 17.0531 4.40162 17.1844 4.54693 17.1328M4.21881 17.0859C4.15787 17.1375 4.19537 17.25 4.32662 17.2078M3.91412 17.1047C3.80631 17.1656 4.04068 17.2453 4.19537 17.0859M3.98443 17.1797C3.93756 17.2265 3.93756 17.3672 4.05943 17.3203M3.68443 17.2359C3.61412 17.2922 3.73131 17.3625 3.95631 17.264M3.76881 17.3109C3.68912 17.3812 3.6985 17.4656 3.81568 17.4422M3.52975 17.3484C3.436 17.4328 3.56725 17.489 3.72662 17.4234M3.52975 17.4422C3.37506 17.5125 3.44068 17.6437 3.53912 17.5922M8.74225 17.8922C8.70475 17.9719 8.82193 18.0328 8.93443 18.0187C9.04225 18 9.14537 17.9109 9.06568 17.7844M9.06568 17.939C9.1735 18.0234 9.36568 17.9297 9.36568 17.8031" stroke="black" stroke-width="0.05"/>
<path d="M15.5619 5.47024C15.0932 5.23586 14.1135 4.79524 13.8369 5.15149C14.09 5.04368 14.8307 5.15618 15.4447 5.72336L15.5619 5.47024Z" fill="white" stroke="black" stroke-width="0.05"/>
<path d="M15.8438 5.44217C15.3047 4.80936 14.9812 4.94999 14.5922 4.73436C14.2219 4.52811 13.6359 4.48592 13.5234 4.81405C14.0625 4.55155 14.5547 4.95467 14.8547 5.00155C15.2766 5.06717 15.5109 5.39061 15.6328 5.54061L15.8484 5.44686L15.8438 5.44217ZM17.8969 5.36249C17.6156 4.71561 17.0109 4.88436 16.7438 4.61249C16.3547 4.20936 15.375 3.83905 14.9672 4.11561C15.8578 4.06874 16.2422 4.72967 16.7203 4.95936C17.0625 5.12811 17.4234 5.47967 17.8969 5.36249Z" fill="white" stroke="black" stroke-width="0.05"/>
<path d="M16.8377 5.29214C16.3549 4.69214 15.6189 4.16246 15.2721 4.36402C15.7221 4.38746 15.8627 4.69683 16.1814 4.89839C16.5002 5.09996 16.3549 5.38589 16.8377 5.29214ZM14.5408 6.35152C14.0393 6.16402 13.0502 6.07027 12.5908 6.64683C13.3549 6.77339 14.5127 6.70308 14.5455 6.35152H14.5408Z" fill="white" stroke="black" stroke-width="0.05"/>
<path d="M14.4514 6.5765C13.9451 6.34213 13.5467 6.67025 13.0732 6.62338C12.1639 6.53431 11.517 6.58588 11.4326 7.02181C11.9529 6.55775 12.8248 6.94213 13.1764 6.84369C13.5326 6.74994 14.8357 6.83431 15.2482 7.01244C15.0373 6.74994 14.7092 6.68431 14.4514 6.5765ZM16.0404 5.2265C15.9186 4.83744 15.9279 4.42963 16.5092 4.45775C16.3639 4.27025 15.8201 4.1765 15.7311 4.86088C15.0889 4.39213 14.3904 4.30775 14.2592 4.71556C14.5873 4.43431 15.1029 4.64056 15.7123 5.33431C15.8152 5.28113 15.926 5.24473 16.0404 5.2265Z" fill="white" stroke="black" stroke-width="0.05"/>
<path d="M15.1546 5.76561C14.789 5.53123 14.2968 5.14686 15.1593 4.99217C14.7937 4.79061 14.25 4.87967 14.3109 5.56405C13.3171 5.16092 12.6093 5.29686 12.4593 5.69061C12.2953 6.12655 12.9093 6.3703 13.0125 6.09373C12.9 6.14061 12.5203 6.00936 12.7171 5.76561C12.9187 5.51717 13.9453 5.69998 14.9203 6.21092C15.1921 6.35155 16.1203 6.32811 15.1546 5.76561Z" fill="white" stroke="black" stroke-width="0.05"/>
<path d="M14.8962 6.41248C14.615 5.83591 13.7009 6.35623 13.5181 5.8031C13.265 6.61873 14.8166 6.16404 14.8962 6.41248ZM20.7087 7.03591C20.8962 7.12966 21.065 6.97966 20.7697 6.86248C20.9572 6.95623 21.1306 6.8156 20.8353 6.69373C21.0275 6.78748 21.1962 6.64685 20.9009 6.52498C20.8212 6.60466 20.7134 6.89529 20.7041 7.03591H20.7087ZM20.8025 5.92966C21.2291 5.47966 20.7697 5.32966 21.29 4.87029C21.7119 4.49529 21.3697 4.24216 21.7728 3.95154C21.8994 3.85779 22.1806 3.67029 22.2087 3.48279C22.3775 3.90466 21.6791 3.96091 21.7259 4.64529C21.7541 5.08123 21.4587 5.04373 21.3509 5.77029C21.3228 5.92966 21.2197 6.27185 20.8072 5.92966H20.8025Z" fill="white" stroke="black" stroke-width="0.05"/>
<path d="M20.9951 6.12651C21.2295 5.62026 21.5014 5.62964 21.6279 5.43276C21.8764 5.05776 22.4014 5.49839 22.8467 5.16089C22.767 5.63901 22.1717 5.47026 21.9092 5.77495C21.6561 6.07964 21.4404 6.22026 20.9951 6.12651Z" fill="white" stroke="black" stroke-width="0.05"/>
<path d="M21.0511 6.29527C21.4636 5.96714 21.7682 6.18277 22.0542 6.01402C22.7714 5.57339 23.062 6.09839 23.6995 5.89214C23.5307 6.30464 22.5839 5.95308 22.1714 6.25777C21.7589 6.56245 20.3104 6.85777 21.0511 6.29527ZM19.8511 8.63902C19.8403 8.52622 19.7927 8.4201 19.7156 8.33706C19.6385 8.25403 19.5362 8.1987 19.4245 8.17964C19.1761 8.15152 19.0682 7.89371 18.8807 7.87964C18.6932 7.87027 18.5667 7.49527 18.3089 7.49995C18.0511 7.50464 17.9432 7.84214 18.5526 8.14683C19.162 8.45152 19.8276 8.80308 19.8511 8.63902ZM19.087 8.79839C18.8292 8.81245 18.7917 9.18746 18.5432 9.20152C18.8854 9.38433 19.1339 9.11714 19.312 8.88277L19.087 8.79839Z" fill="white" stroke="black" stroke-width="0.05"/>
<path d="M19.2986 8.84534C19.0783 9.03284 19.0126 9.43127 19.3361 9.54377C19.1392 9.27659 19.6783 9.15471 19.5095 8.90627L19.2986 8.84534Z" fill="white" stroke="black" stroke-width="0.05"/>
<path d="M19.5234 8.8594C19.3452 9.20159 19.7999 9.24377 19.6827 9.50159C19.9405 9.44065 19.9827 8.95315 19.7484 8.8219L19.5234 8.8594Z" fill="white" stroke="black" stroke-width="0.05"/>
<path d="M17.7939 8.12807C18.2158 8.10464 18.6049 8.33432 18.8627 8.70464C19.0268 8.93901 19.5799 9.03276 19.7721 8.84526C19.9596 8.65776 19.8518 8.25932 19.383 8.38589C19.2658 8.18901 18.9236 8.25932 18.7596 8.09526C18.5955 7.92651 17.958 7.45776 17.7939 8.12807Z" fill="white" stroke="black" stroke-width="0.05"/>
<path d="M19.3826 8.3906C19.2701 8.40935 19.2326 8.60623 19.3029 8.70466L19.3826 8.3906ZM19.6217 8.50779C19.6592 8.56404 19.6357 8.64841 19.617 8.6906L19.6217 8.50779ZM18.4639 8.14685C18.6795 8.15623 18.7217 8.3156 18.9561 8.37654L18.4639 8.14685Z" fill="white"/>
<path d="M19.3826 8.3906C19.2701 8.40935 19.2326 8.60623 19.3029 8.70466M19.6217 8.50779C19.6592 8.56404 19.6357 8.64841 19.617 8.6906M18.4639 8.14685C18.6795 8.15623 18.7217 8.3156 18.9561 8.37654" stroke="black" stroke-width="0.05" stroke-linecap="round"/>
<path d="M18.3183 7.61246C19.0683 7.79996 19.6683 7.96403 20.0386 8.17496C20.4863 8.39848 21.0017 8.44533 21.4823 8.30622C21.9839 8.16559 22.9495 8.03434 22.9026 8.65778C23.1651 8.3484 22.8323 8.0109 22.162 7.95465C22.1761 7.64528 21.8479 7.36872 21.6136 7.55153C21.8292 7.5234 22.0167 7.92653 21.5901 8.09528C21.6124 8.02293 21.6129 7.94561 21.5914 7.87301C21.5699 7.80042 21.5274 7.73578 21.4694 7.68722C21.4113 7.63866 21.3402 7.60832 21.2649 7.60003C21.1897 7.59173 21.1136 7.60584 21.0464 7.64059C21.2479 7.70153 21.4542 8.03903 20.9995 8.17028C20.7136 8.25465 20.2964 8.14684 19.987 7.95934C19.6776 7.77184 17.9339 7.08747 18.3136 7.60778L18.3183 7.61246Z" fill="white" stroke="black" stroke-width="0.05"/>
<path d="M20.2169 7.30308C19.9825 7.41089 20.1325 7.65932 19.7715 7.79995C19.4059 7.94057 19.1528 8.2687 19.2325 8.54058C19.4809 8.00151 19.9169 8.02495 20.0715 7.80933C20.2215 7.59839 20.4465 7.28901 20.2169 7.30308Z" fill="white" stroke="black" stroke-width="0.05"/>
<path d="M20.2828 7.34062C20.2688 7.77187 19.9312 7.6125 20.0625 8.21719C20.1488 8.47636 20.1455 8.75699 20.0531 9.01406C20.4281 8.74219 20.1891 8.16094 20.3578 7.94062C20.4567 7.81599 20.5357 7.67686 20.5922 7.52812C20.4984 7.77656 20.5078 8.23125 20.7469 8.35312C20.5547 7.89375 21.2719 7.51875 20.775 6.98906C20.7047 7.11562 20.4844 7.34531 20.2828 7.34062ZM19.0828 6.90937C19.1391 7.00312 19.2 7.22344 19.1484 7.34531C19.2903 7.25018 19.4062 7.12133 19.4859 6.97031C19.7297 7.00312 19.8234 7.30312 19.5938 7.43906C19.7344 7.43906 19.9781 7.43906 20.1094 7.275C19.9453 7.09219 19.4344 6.81094 19.0781 6.90937H19.0828Z" fill="white" stroke="black" stroke-width="0.05"/>
<path d="M15.4219 6.06555C15.3583 6.01498 15.2821 5.98258 15.2016 5.9718C14.8453 5.90149 15.0328 5.58274 15.3328 5.58274C15.9797 4.87961 16.3453 5.42336 17.1328 5.19836C17.4141 5.11867 17.6016 5.14211 17.7516 5.20774C18.1031 4.97336 18.5156 5.03899 18.8156 5.31555C18.8484 5.26399 18.8953 5.2218 18.9562 5.20305C19.2375 5.12805 19.4578 5.36242 19.5328 5.6718C19.7484 5.62492 19.9969 5.73742 20.1609 5.88274C20.3813 5.76555 20.5359 5.76086 20.5922 5.88274C20.7937 5.78899 21.0516 5.72805 21.1828 6.0468C21.3141 6.36555 20.8781 6.26711 20.8078 6.93742C20.7609 7.35461 20.3016 7.51867 19.9359 7.26555C19.35 6.87649 18.7828 6.81086 18.4969 7.41086C18.2156 8.01086 17.9953 8.36242 17.3109 8.16086C17.0625 8.09524 16.7484 8.18899 16.5469 8.46086C16.3453 8.72805 16.0406 8.47492 15.675 8.50774C16.1344 8.43742 15.9562 8.32024 16.3547 8.29211C16.7203 8.26867 16.6266 7.93117 16.8609 7.87961C15.9469 8.11399 15.9797 7.77649 15.225 8.01086C15.5531 7.58899 16.0734 7.82336 16.3312 7.57492C15.6516 7.56555 15.3469 7.12024 15.0375 7.30305C14.5547 7.59836 14.7656 8.43742 13.5094 8.36242C12.9 8.32961 12.5063 8.4093 12.1406 8.77492C12.7781 7.46242 13.6406 8.1843 14.0625 7.76242C14.2808 7.56677 14.4702 7.34107 14.625 7.09211C14.6438 7.05569 14.6703 7.02382 14.7027 6.99872C14.7351 6.97362 14.7725 6.9559 14.8125 6.9468C13.7625 6.61867 14.3953 6.10305 15.4219 6.06555Z" fill="white" stroke="black" stroke-width="0.05"/>
<path d="M20.5924 5.88281C20.6112 5.91562 20.6159 5.95781 20.6159 6.00937C20.6159 6.27187 20.2315 6.28125 20.2081 6.66562C20.194 6.8625 20.1706 6.975 20.0346 6.95156C19.8987 6.92813 19.7815 6.71719 19.9128 6.46875" fill="white"/>
<path d="M20.5924 5.88281C20.6112 5.91562 20.6159 5.95781 20.6159 6.00937C20.6159 6.27187 20.2315 6.28125 20.2081 6.66562C20.194 6.8625 20.1706 6.975 20.0346 6.95156C19.8987 6.92813 19.7815 6.71719 19.9128 6.46875" stroke="black" stroke-width="0.05" stroke-linecap="round"/>
<path d="M15.6143 5.6812C15.5322 5.62206 15.4341 5.58935 15.333 5.58745L15.6143 5.6812ZM17.7471 5.20776C18.0611 5.3437 18.2111 5.66714 18.6658 5.67651C19.1018 5.69526 19.3689 6.32808 20.1002 5.91558L20.1564 5.88745M18.8158 5.31558C18.7537 5.4301 18.7322 5.56228 18.7549 5.69058L18.8158 5.31558ZM17.3955 6.64683C16.8377 6.64683 16.6971 6.92808 16.6971 7.19995C16.6971 7.47183 16.9596 7.82339 17.4143 7.82339C17.8736 7.82339 18.1221 7.54214 18.1221 7.23276C18.1221 6.92339 17.8408 6.64683 17.3908 6.64683H17.3955Z" fill="white"/>
<path d="M15.6143 5.6812C15.5322 5.62206 15.4341 5.58935 15.333 5.58745M17.7471 5.20776C18.0611 5.3437 18.2111 5.66714 18.6658 5.67651C19.1018 5.69526 19.3689 6.32808 20.1002 5.91558L20.1564 5.88745M18.8158 5.31558C18.7537 5.4301 18.7322 5.56228 18.7549 5.69058M17.3955 6.64683C16.8377 6.64683 16.6971 6.92808 16.6971 7.19995C16.6971 7.47183 16.9596 7.82339 17.4143 7.82339C17.8736 7.82339 18.1221 7.54214 18.1221 7.23276C18.1221 6.92339 17.8408 6.64683 17.3908 6.64683H17.3955Z" stroke="black" stroke-width="0.05"/>
<path d="M17.4934 7.80932C17.4793 7.65932 17.2028 7.68276 17.2121 7.56557C17.2215 7.44838 17.3668 7.39682 17.3668 7.23745C17.3668 7.07807 17.6153 7.05932 17.695 7.19057C17.7793 7.31713 18.0278 7.56557 18.0793 7.43901M17.6996 7.18589C17.6242 7.26655 17.5806 7.37193 17.5772 7.48235C17.5737 7.59277 17.6106 7.70067 17.6809 7.78589M17.8731 7.38745C17.8356 7.47651 17.8262 7.61245 17.8731 7.69214V7.38745Z" fill="white"/>
<path d="M17.4934 7.80932C17.4793 7.65932 17.2028 7.68276 17.2121 7.56557C17.2215 7.44838 17.3668 7.39682 17.3668 7.23745C17.3668 7.07807 17.6153 7.05932 17.695 7.19057C17.7793 7.31713 18.0278 7.56557 18.0793 7.43901M17.6996 7.18589C17.6242 7.26655 17.5806 7.37193 17.5772 7.48235C17.5737 7.59277 17.6106 7.70067 17.6809 7.78589M17.8731 7.38745C17.8356 7.47651 17.8262 7.61245 17.8731 7.69214" stroke="black" stroke-width="0.05"/>
<path d="M20.0713 6.95622C20.5072 6.98904 20.5775 6.5156 20.2588 6.48747M19.5416 5.66716C19.3916 5.47966 19.0447 5.41404 19.04 5.81716" stroke="black" stroke-width="0.05"/>
<path d="M18.9982 6.28122C18.8529 5.91559 18.4732 5.85934 18.2764 6.04684C18.1076 6.19684 18.1029 6.59059 18.4639 6.67497C18.5857 6.52965 18.8295 6.33278 18.9982 6.28122ZM18.8389 6.05153C18.6232 5.86403 18.3139 6.22028 18.5951 6.5484L18.8389 6.05153ZM14.8123 6.93747C14.9529 6.90465 15.1592 6.97497 15.4779 7.12497C15.6795 7.21872 16.2748 7.42028 16.6545 7.21872C16.2654 7.35934 15.9748 6.76872 15.6795 6.84372C15.3842 6.91403 14.8451 7.02184 14.6201 6.80622C15.1732 6.84372 15.4686 6.40309 16.1014 6.78278C16.2809 6.89523 16.4896 6.95229 16.7014 6.94684C16.1857 6.3234 15.5014 6.72184 15.4311 6.21559C15.7451 6.55309 16.5092 6.14059 16.8936 6.76872M15.5436 6.30934C15.4686 6.22028 15.5014 6.13122 15.4264 6.0609L15.5436 6.30934Z" fill="white"/>
<path d="M18.8389 6.05153C18.6232 5.86403 18.3139 6.22028 18.5951 6.5484M14.8123 6.93747C14.9529 6.90465 15.1592 6.97497 15.4779 7.12497C15.6795 7.21872 16.2748 7.42028 16.6545 7.21872C16.2654 7.35934 15.9748 6.76872 15.6795 6.84372C15.3842 6.91403 14.8451 7.02184 14.6201 6.80622C15.1732 6.84372 15.4686 6.40309 16.1014 6.78278C16.2809 6.89523 16.4896 6.95229 16.7014 6.94684C16.1857 6.3234 15.5014 6.72184 15.4311 6.21559C15.7451 6.55309 16.5092 6.14059 16.8936 6.76872M15.5436 6.30934C15.4686 6.22028 15.5014 6.13122 15.4264 6.0609M18.9982 6.28122C18.8529 5.91559 18.4732 5.85934 18.2764 6.04684C18.1076 6.19684 18.1029 6.59059 18.4639 6.67497C18.5857 6.52965 18.8295 6.33278 18.9982 6.28122Z" stroke="black" stroke-width="0.05"/>
<path d="M19.5423 5.67187C19.411 5.53125 19.1298 5.63906 19.2095 5.92031C19.2392 5.85444 19.2847 5.7969 19.3419 5.75276C19.3991 5.70862 19.4663 5.67923 19.5376 5.66718L19.5423 5.67187ZM18.7407 6.42187C18.819 6.36213 18.9059 6.3147 18.9985 6.28125C18.963 6.18753 18.9032 6.105 18.8251 6.04218C18.7595 5.99531 18.5626 6.25781 18.7407 6.42187Z" fill="black"/>
<path d="M18.3939 5.94375C18.183 5.80312 17.9861 5.81718 17.9252 5.93437C17.7705 5.92968 17.6439 6.04218 17.6345 6.2625M17.9627 6.35625C17.7095 6.18281 17.3627 6.24843 17.3861 6.6375M17.2361 6.85781C17.358 6.75937 17.5361 6.68906 17.6674 6.8625M19.1205 6.47343C19.0736 6.53906 19.0408 6.64218 19.1205 6.79218C19.0267 6.67031 18.7877 6.67031 18.5345 6.99843M19.683 6.45937C19.3783 6.49218 19.383 6.69375 19.6314 6.78281M17.5033 5.70937C17.2455 5.65781 17.058 5.8125 17.4142 5.94375M18.0002 5.53125C17.6345 5.4375 17.4845 5.53125 17.6533 5.61562M16.9455 6.99375C16.9314 7.125 17.0064 7.29375 17.2174 7.10156M17.0158 7.38281C17.0158 7.42031 17.0111 7.45781 16.9877 7.49062M16.1674 5.6625C15.947 5.59218 15.9049 5.38593 16.1627 5.40468M16.0924 6.13593C15.8439 6.05156 15.8439 5.80781 16.0502 5.83593M16.5517 6.00937C16.2611 5.93906 16.2517 5.74218 16.4674 5.77031M16.5845 5.39531C16.4345 5.38593 16.1955 5.55937 16.5939 5.65781M17.0158 5.74218C16.6549 5.68593 16.6642 5.83593 16.8752 5.92968M17.2877 5.4C17.0064 5.34843 16.9127 5.5125 17.1002 5.58281M16.4205 6.42187C16.3549 6.36562 16.2986 6.09843 16.622 6.17812M17.0908 6.3375C16.8752 6.28125 16.6689 6.49218 16.8658 6.61875M17.3814 6.08437C17.147 6.04687 16.9595 6.10781 17.0814 6.19218" stroke="black" stroke-width="0.05" stroke-linecap="round"/>
<path d="M19.5277 5.67188C19.4585 5.68448 19.3933 5.71366 19.3378 5.75693C19.2823 5.80019 19.2381 5.85625 19.209 5.92031" fill="white"/>
<path d="M19.5277 5.67188C19.4585 5.68448 19.3933 5.71366 19.3378 5.75693C19.2823 5.80019 19.2381 5.85625 19.209 5.92031" stroke="black" stroke-width="0.05"/>
</g>
<defs>
<clipPath id="clip0_208_10442">
<rect width="24" height="24" rx="12" fill="white"/>
</clipPath>
</defs>
</svg>
