<svg width="24" height="24" viewBox="0 0 24 24" fill="none" xmlns="http://www.w3.org/2000/svg">
<g clip-path="url(#clip0_208_28077)">
<path d="M0 0H24V24H0V0Z" fill="#000066"/>
<path d="M0 -0.0234375H12V11.9766H0V-0.0234375Z" fill="#012169"/>
<path d="M12 -0.0234375V1.47656L7.54688 5.97656L12 10.3594V11.9766H10.4297L5.95312 7.57031L1.59375 11.9766H0V10.3828L4.35938 6L0 1.71094V-0.0234375H1.45312L5.95312 4.38281L10.3125 -0.0234375H12Z" fill="white"/>
<path d="M4.3125 7.57031L4.57031 8.36719L0.984375 11.9766H0V11.9062L4.3125 7.57031ZM7.21875 7.28906L8.48438 7.47656L12 10.9219V11.9766L7.21875 7.28906ZM12 -0.0234375L7.5 4.57031L7.40625 3.53906L10.9219 -0.0234375H12ZM0 0L4.52344 4.42969L3.14062 4.24219L0 1.125V0Z" fill="#C8102E"/>
<path d="M4.125 -0.0234375V11.9766H7.875V-0.0234375H4.125ZM0 4.10156V7.85156H12V4.10156H0Z" fill="white"/>
<path d="M0 4.85156V7.10156H12V4.85156H0ZM4.875 -0.0234375V11.9766H7.125V-0.0234375H4.875Z" fill="#C8102E"/>
<path d="M21.0149 9.72094V12.9074C21.0149 15.6708 19.7083 16.6192 17.9581 17.3698C16.208 16.6192 14.8877 15.6708 14.8877 12.9074V9.71753H21.0149V9.72094Z" fill="white" stroke="white" stroke-width="0.873372" stroke-linejoin="round"/>
<path d="M12.987 17.1105C13.0859 17.3698 13.7887 17.7144 14.6075 17.2743C15.1636 16.9604 15.5218 16.5237 15.8664 15.739C15.9619 15.5412 16.0131 15.2955 15.7845 15.1488C15.6037 15.0158 15.3069 14.8691 15.1772 14.7394C15.1124 14.6712 15.0476 14.6234 14.9998 14.5757C15.034 14.6098 15.0647 14.6405 15.0954 14.6883C15.4229 15.0806 15.0817 15.6538 14.7201 15.9983C14.4574 16.244 13.9866 16.8478 13.2974 16.2747C13.1507 16.145 12.8062 16.6841 12.9904 17.1105H12.987ZM22.9284 17.1105C22.8124 17.3698 22.1096 17.7144 21.3079 17.2743C20.7552 16.9604 20.3936 16.5237 20.0354 15.739C19.9535 15.5412 19.9023 15.2955 20.1309 15.1488C20.3117 15.0158 20.6085 14.8691 20.7382 14.7394C20.803 14.6712 20.8507 14.6234 20.9156 14.5757C20.8815 14.6098 20.8507 14.6405 20.82 14.6883C20.4925 15.0806 20.8337 15.6538 21.1783 15.9983C21.441 16.244 21.9288 16.8478 22.618 16.2747C22.7647 16.145 23.0922 16.6841 22.925 17.1105H22.9284Z" fill="#FCEA83" stroke="white" stroke-width="0.873372" stroke-linejoin="round"/>
<path d="M17.9575 18.5161C19.2642 18.5161 21.277 17.9258 22.3585 15.8652C22.5359 15.5241 22.3585 15.3433 22.1436 15.2307C21.9006 15.1083 21.6793 14.947 21.4885 14.7531C21.7512 15.0157 21.7001 15.1966 21.5226 15.49C20.6868 16.8819 19.5439 17.5847 17.9575 17.5847C16.3711 17.5847 15.2282 16.8819 14.3924 15.49C14.215 15.1966 14.1638 15.0157 14.4094 14.7565C14.2215 14.9528 13.9996 15.1134 13.7544 15.2307C13.5429 15.3433 13.3621 15.5241 13.5429 15.8652C14.621 17.9258 16.6475 18.5161 17.9575 18.5161Z" fill="#FCEA83" stroke="white" stroke-width="0.873372" stroke-linejoin="round"/>
<path d="M14.932 15.7527C14.8979 15.589 14.6898 15.6538 14.625 15.8517C14.5367 15.7385 14.459 15.6175 14.393 15.49C14.1985 15.1966 14.1644 14.9988 14.4442 14.7224C14.5738 14.5928 14.8365 14.4427 15.0139 14.6064C15.3892 14.9169 15.1947 15.4252 14.932 15.7527ZM20.9672 15.7527C21.0013 15.589 21.2299 15.6538 21.2947 15.8517C21.3766 15.7357 21.4584 15.6231 21.5233 15.49C21.7177 15.1966 21.7518 14.9988 21.455 14.7224C21.3425 14.5928 21.0798 14.4427 20.8853 14.6064C20.5237 14.9169 20.7045 15.4252 20.9672 15.7527ZM12.9874 17.1106C12.8237 16.8649 12.694 16.2235 12.6599 16.0632C12.6121 15.9165 12.5951 15.7834 12.7759 15.722C12.9567 15.6538 13.1171 15.8824 13.1989 16.0803C13.2808 16.2747 13.4139 16.5681 13.5606 16.9297C13.1989 16.7182 12.9055 16.8615 12.9874 17.1106ZM22.9289 17.1106C23.0756 16.8649 23.2052 16.2235 23.2564 16.0632C23.2905 15.9165 23.3212 15.7834 23.1404 15.722C22.9596 15.6538 22.7992 15.8824 22.7173 16.0803C22.6355 16.2747 22.5024 16.5681 22.3557 16.9297C22.7173 16.7182 22.9937 16.8615 22.9289 17.1106Z" fill="#C8102E" stroke="white" stroke-width="0.873372" stroke-linejoin="round"/>
<path d="M16.6996 9.70389C16.4881 9.75165 16.3414 9.76871 16.1435 9.58789C16.0138 9.45825 16.0445 9.22967 16.1776 9.14438C16.3243 9.04886 16.4539 8.98404 16.6348 9.0318C16.8156 9.08298 17.2898 9.52307 17.1738 9.54013C17.0578 9.54013 16.8804 9.65271 16.6996 9.70389ZM17.2045 8.91922C17.2727 8.86804 17.3546 8.83734 17.5661 8.81687C17.764 8.80322 17.9073 8.80322 17.9585 8.95333C18.0267 9.13074 18.0745 9.34226 18.2041 9.44119C18.1222 9.48896 17.7128 9.54013 17.5661 9.45825C17.3717 9.35932 17.3205 8.98063 17.2079 8.91922H17.2045ZM18.6135 8.93628C18.6783 8.8851 18.7602 8.8851 18.9717 8.90216C19.1832 8.91922 19.2651 8.93628 19.3129 9.08298C19.364 9.24673 19.3129 9.45825 19.4152 9.60495C19.3129 9.63907 18.9888 9.63907 18.8728 9.52307C18.6954 9.39343 18.709 9.01474 18.6135 8.93286V8.93628Z" fill="white" stroke="white" stroke-width="0.873372" stroke-linejoin="round"/>
<path d="M19.5924 9.0318C19.4457 8.99768 19.3468 8.98404 19.2854 9.0318C19.3638 9.13074 19.299 9.52307 19.4628 9.65271C19.5754 9.73459 19.8722 9.75506 19.937 9.57083C20.0189 9.40708 20.0189 9.16144 19.5958 9.0318H19.5924ZM17.9105 8.86804C17.9583 8.82028 18.0572 8.80322 18.2517 8.80322C18.4666 8.80322 18.5928 8.83734 18.661 8.96698C18.7293 9.13074 18.7088 9.34226 18.8248 9.47531C18.777 9.54013 18.3335 9.54013 18.2039 9.44119C18.0231 9.3252 18.006 8.94992 17.9105 8.86804ZM16.522 9.01474C16.522 8.93286 16.6345 8.91922 16.9314 8.90216C17.2213 8.86804 17.2384 8.8851 17.3373 9.09662C17.3851 9.21262 17.4499 9.40708 17.583 9.4719C17.2213 9.55719 17.1054 9.60495 16.9109 9.48896C16.7689 9.40013 16.6515 9.27693 16.5697 9.13074C16.5527 9.08297 16.5527 9.0318 16.5186 9.01474H16.522Z" fill="#073163" stroke="white" stroke-width="0.873372" stroke-linejoin="round"/>
<path d="M16.5524 7.56137C16.4364 7.56137 16.3409 7.51361 16.2727 7.43173C16.1601 7.28162 15.8496 7.2168 15.7166 7.34985C15.6688 7.38397 15.604 7.38397 15.5562 7.39762C15.4743 7.39762 15.3754 7.4795 15.4061 7.64325C15.4743 7.59208 15.488 7.64325 15.5392 7.64325C15.5733 7.6262 15.5562 7.66031 15.5562 7.69102C15.5562 7.77289 15.7336 7.93665 15.8974 7.91959C16.0782 7.91959 16.1601 7.98783 16.1908 8.02194C16.242 8.06629 16.2078 8.05265 16.242 8.13452C16.2897 8.18229 16.3068 8.19935 16.2249 8.26417C16.1877 8.29522 16.1577 8.33409 16.1371 8.37801C16.1166 8.42193 16.1059 8.46983 16.1059 8.51833C16.1059 8.56683 16.1166 8.61473 16.1371 8.65865C16.1577 8.70257 16.1877 8.74144 16.2249 8.7725C16.4364 8.93284 16.9755 9.18189 17.5827 8.70426C18.1695 8.24711 19.0838 8.5098 19.1521 8.67015C19.2339 8.83732 19.2646 8.93284 19.2817 9.01472C19.2988 9.08295 19.3806 9.14777 19.4966 9.13071C19.6092 9.13071 19.7389 9.17848 19.8037 9.22965C19.889 9.27741 20.0016 9.26377 19.9708 9.11366C19.9026 8.6565 19.6263 8.59168 19.5956 8.38016C19.7559 8.39381 19.8685 8.39381 19.9367 8.32899C19.9845 8.26417 20.0493 8.14817 20.1176 8.11747C20.1653 8.08335 20.1653 8.04923 20.1005 8.06629C20.0186 8.08335 19.9709 8.11747 19.8207 8.10041C19.0702 8.01853 16.9618 7.44538 16.5524 7.56137Z" fill="#059334" stroke="white" stroke-width="0.873372" stroke-linejoin="round"/>
<path d="M19.8891 8.11753C19.7644 8.20551 19.6578 8.31671 19.5752 8.44504C19.4149 8.65656 18.9236 8.86808 18.3163 8.86808C17.7295 8.86808 17.3713 8.77256 17.1086 8.56104C16.9965 8.47136 16.8753 8.39361 16.747 8.32905C16.5696 8.24717 16.5355 8.06635 16.5832 7.91965C16.5355 8.00153 16.5048 8.08341 16.4058 8.06635C16.3376 8.06635 16.2079 8.06635 16.2421 8.13459C16.225 8.10047 16.225 8.05271 16.2079 8.03224L16.1738 8.00153C16.225 8.03565 16.341 7.93671 16.4229 7.93671C16.4877 7.95377 16.5696 7.87189 16.5525 7.77295L16.5048 7.56144C16.6344 7.4932 18.3504 7.80707 18.695 7.83778C19.0362 7.85483 20.0187 8.00153 19.8891 8.11753Z" fill="black" stroke="white" stroke-width="0.873372" stroke-linejoin="round"/>
<path d="M16.7812 7.49658C16.945 7.33282 17.1394 7.25095 17.3373 7.29871H17.3851C17.4874 7.21683 17.7126 7.19977 17.8456 7.26459H17.9105C18.1049 7.19977 18.4802 7.26459 18.6133 7.39764L18.661 7.43176C19.1045 7.39764 19.3638 7.59211 19.6743 7.90597C19.7084 7.94009 19.7561 8.0015 19.838 8.01856C19.937 8.03562 19.954 8.08679 19.8721 8.13455C19.741 8.21568 19.6254 8.31967 19.531 8.4416C19.3809 8.63947 18.9067 8.83734 18.3164 8.83734C17.7467 8.83734 17.4021 8.735 17.1394 8.54053C16.9927 8.42795 16.8802 8.36313 16.7983 8.31196C16.6993 8.27784 16.5697 8.1482 16.6175 8.01856C16.6516 7.88892 16.5697 7.72516 16.5049 7.5614C16.5526 7.52729 16.6823 7.47952 16.7471 7.51364L16.7812 7.49658Z" fill="#059334" stroke="white" stroke-width="0.873372" stroke-linejoin="round"/>
<path d="M19.6743 7.90597C19.3673 7.59211 19.1046 7.39765 18.661 7.42835C18.661 7.44541 18.661 7.49658 18.644 7.5307C18.9531 7.6694 19.2271 7.87577 19.4457 8.13455C19.514 8.06632 19.6265 7.98785 19.6743 7.90597ZM18.6133 7.39764C18.4802 7.268 18.105 7.19977 17.9105 7.268C17.9105 7.33282 17.9105 7.43176 17.8764 7.49658C17.9924 7.54434 18.0879 7.66034 18.1868 7.77292C18.2551 7.75586 18.4154 7.7081 18.4973 7.69104C18.5462 7.59759 18.585 7.49925 18.6133 7.39764ZM17.8457 7.26459C17.7126 7.19977 17.484 7.21683 17.3851 7.29871C17.351 7.36694 17.3373 7.49658 17.3373 7.5614C17.4056 7.5614 17.5011 7.60916 17.5318 7.64328C17.6342 7.60916 17.7638 7.54434 17.8116 7.49658C17.8286 7.42835 17.8593 7.33282 17.8457 7.268V7.26459ZM16.7812 7.49658C16.945 7.33282 17.1395 7.25095 17.3373 7.29871C17.3032 7.34988 17.2896 7.44541 17.2896 7.54434C17.1088 7.52729 16.8802 7.57846 16.7812 7.64328V7.49658Z" fill="#00493D" stroke="white" stroke-width="0.873372" stroke-linejoin="round"/>
<path d="M19.3808 8.16529C19.1753 7.92193 18.9192 7.72634 18.6303 7.59214C18.6303 7.6092 18.5962 7.67402 18.5791 7.72519C18.678 7.87189 18.8725 8.1994 18.9544 8.38022C19.0363 8.3461 19.2648 8.24717 19.3808 8.16529ZM18.139 8.52692C18.1673 8.30394 18.1832 8.07957 18.1868 7.85483C18.2686 7.83777 18.4324 7.79001 18.4972 7.77295C18.5791 7.90601 18.777 8.25058 18.8589 8.41092C18.661 8.45869 18.3335 8.54057 18.139 8.52692ZM17.5659 7.74225C17.6477 7.70813 17.7637 7.6399 17.8422 7.57849C17.9104 7.62625 18.0401 7.74225 18.0878 7.80707C18.0878 7.95377 18.0401 8.38022 18.023 8.52351C17.8934 8.52351 17.6819 8.4928 17.5659 8.42798C17.5829 8.18235 17.6 7.90601 17.5659 7.74225ZM16.7471 7.93671C16.7641 7.90259 16.7812 7.79001 16.7812 7.74225C16.9108 7.66037 17.2383 7.57849 17.484 7.70813C17.501 7.87189 17.484 8.28128 17.4669 8.38022C17.2481 8.20228 17.0073 8.05322 16.7505 7.93671H16.7471Z" fill="#00493D" stroke="white" stroke-width="0.873372" stroke-linejoin="round"/>
<path d="M15.9322 7.63984C15.8981 7.63984 15.8811 7.54431 15.8163 7.54431C15.7992 7.54431 15.7514 7.56137 15.7344 7.54431C15.7344 7.57843 15.7514 7.61254 15.7685 7.62619C15.7855 7.67395 15.8674 7.64325 15.9322 7.64325V7.63984Z" fill="black"/>
<path d="M15.9319 7.91959C16.1264 7.91959 16.1605 7.67396 16.2594 7.66031M16.0445 7.93665C16.1912 8.00488 16.3072 7.66031 16.4198 7.67396M15.7511 7.51361C15.7989 7.51361 15.833 7.44538 15.9149 7.52726C15.949 7.56137 15.9967 7.57843 16.0309 7.57843M15.9967 7.75583C15.9285 7.85818 15.8159 7.91959 15.7511 7.88889M15.717 7.34985C15.6692 7.38397 15.6385 7.44538 15.6044 7.49655M15.5566 7.59208V7.67396" stroke="white" stroke-width="0.873372" stroke-linejoin="round"/>
<path d="M17.306 7.34992C16.9614 7.08722 16.552 6.84159 16.1768 6.79382C16.5683 7.05488 16.9401 7.34452 17.2889 7.66037" fill="black"/>
<path d="M17.306 7.34992C16.9614 7.08722 16.552 6.84159 16.1768 6.79382C16.5683 7.05488 16.9401 7.34452 17.2889 7.66037" stroke="white" stroke-width="0.873372" stroke-linejoin="round"/>
<path d="M17.5009 7.10428C17.0915 6.82453 16.6173 6.51407 16.1602 6.48337C16.588 6.73128 16.969 7.05228 17.286 7.43179M18.0229 6.64712C18.2076 6.2273 18.4811 5.85251 18.8246 5.54858C18.6609 5.89316 18.4835 6.59595 18.3982 6.8757" fill="black"/>
<path d="M17.5009 7.10428C17.0915 6.82453 16.6173 6.51407 16.1602 6.48337C16.588 6.73128 16.969 7.05228 17.286 7.43179M18.0229 6.64712C18.2076 6.2273 18.4811 5.85251 18.8246 5.54858C18.6609 5.89316 18.4835 6.59595 18.3982 6.8757" stroke="white" stroke-width="0.873372" stroke-linejoin="round"/>
<path d="M18.3848 6.56527C18.5429 6.18085 18.8401 5.87019 19.2172 5.69531C18.9339 6.04875 18.7229 6.45448 18.5963 6.88938" fill="black"/>
<path d="M18.3848 6.56527C18.5429 6.18085 18.8401 5.87019 19.2172 5.69531C18.9339 6.04875 18.7229 6.45448 18.5963 6.88938" stroke="white" stroke-width="0.873372" stroke-linejoin="round"/>
<path d="M18.5312 6.88935C18.8445 6.40987 19.2934 6.03456 19.8208 5.81128C19.4114 6.22067 18.8076 6.97123 18.6609 7.26804M18.7598 7.25098C19.0532 7.08722 19.6434 6.82453 20.0665 6.90982C19.8072 7.00534 19.0225 7.36356 18.6779 7.69449" fill="black"/>
<path d="M18.5312 6.88935C18.8445 6.40987 19.2934 6.03456 19.8208 5.81128C19.4114 6.22067 18.8076 6.97123 18.6609 7.26804M18.7598 7.25098C19.0532 7.08722 19.6434 6.82453 20.0665 6.90982C19.8072 7.00534 19.0225 7.36356 18.6779 7.69449" stroke="white" stroke-width="0.873372" stroke-linejoin="round"/>
<path d="M18.6947 7.13496C18.971 6.84156 19.4793 6.40146 20.0184 6.22064C19.626 6.59592 18.7902 7.44882 18.6776 7.57846M17.91 6.95755C17.7121 6.35029 17.4187 5.78055 16.9786 5.59973C17.3292 6.1009 17.573 6.66873 17.6951 7.26801M17.5313 6.94049C17.2072 6.54816 16.7637 6.15582 16.2588 6.07395C16.7536 6.39771 17.1445 6.85731 17.3846 7.39765" fill="black"/>
<path d="M18.6947 7.13496C18.971 6.84156 19.4793 6.40146 20.0184 6.22064C19.626 6.59592 18.7902 7.44882 18.6776 7.57846M17.91 6.95755C17.7121 6.35029 17.4187 5.78055 16.9786 5.59973C17.3292 6.1009 17.573 6.66873 17.6951 7.26801M17.5313 6.94049C17.2072 6.54816 16.7637 6.15582 16.2588 6.07395C16.7536 6.39771 17.1445 6.85731 17.3846 7.39765" stroke="white" stroke-width="0.873372" stroke-linejoin="round"/>
<path d="M17.7161 6.9234C17.3067 6.1865 16.9928 6.05686 16.8154 5.91016C16.9621 6.1865 17.3203 6.9234 17.5319 7.23386" fill="black"/>
<path d="M17.7161 6.9234C17.3067 6.1865 16.9928 6.05686 16.8154 5.91016C16.9621 6.1865 17.3203 6.9234 17.5319 7.23386" stroke="white" stroke-width="0.873372" stroke-linejoin="round"/>
<path d="M16.8975 6.87573C17.1308 7.02247 17.3307 7.21657 17.4843 7.44547" stroke="white" stroke-width="0.873372" stroke-linejoin="round"/>
<path d="M16.8975 7.21683C16.993 7.29871 17.1738 7.39764 17.3376 7.54434L16.8975 7.21683ZM18.8421 7.46247C19.0058 7.33282 19.3641 7.1213 19.5449 7.05307L18.8421 7.46247ZM18.7261 7.34988C18.8898 7.13495 19.2174 6.84155 19.3334 6.74262L18.7261 7.34988ZM19.1832 6.33322C18.9634 6.57959 18.7562 6.83693 18.5623 7.10425L19.1832 6.33322ZM18.7602 6.18652C18.6054 6.41555 18.4685 6.65622 18.3508 6.90637L18.7602 6.18652ZM17.4672 6.22064C17.5661 6.48333 17.747 6.92343 17.8084 7.10425L17.4672 6.22064ZM17.3205 6.49698C17.3887 6.59933 17.5184 6.82449 17.5661 6.98825L17.3205 6.49698Z" fill="black"/>
<path d="M16.8975 7.21683C16.993 7.29871 17.1738 7.39764 17.3376 7.54434M18.8421 7.46247C19.0058 7.33282 19.3641 7.1213 19.5449 7.05307M18.7261 7.34988C18.8898 7.13495 19.2174 6.84155 19.3334 6.74262M19.1832 6.33322C18.9634 6.57959 18.7562 6.83693 18.5623 7.10425M18.7602 6.18652C18.6054 6.41555 18.4685 6.65622 18.3508 6.90637M17.4672 6.22064C17.5661 6.48333 17.747 6.92343 17.8084 7.10425M17.3205 6.49698C17.3887 6.59933 17.5184 6.82449 17.5661 6.98825" stroke="white" stroke-width="0.873372" stroke-linejoin="round"/>
<path d="M17.877 6.41508C17.877 6.26838 17.9759 6.10803 18.0748 6.10803C18.1874 6.10803 18.2693 6.30249 18.2693 6.41508C18.2693 6.54813 18.1704 6.66071 18.0748 6.66071C17.9725 6.66071 17.877 6.56519 17.877 6.41508Z" fill="black" stroke="white" stroke-width="0.873372" stroke-linejoin="round"/>
<path d="M17.6654 6.54819C17.6824 6.38444 17.795 6.2548 17.8939 6.26844C17.9929 6.2855 18.0406 6.48337 18.0236 6.59596C18.0065 6.7256 17.8939 6.82454 17.8121 6.80748C17.7302 6.80748 17.6483 6.69489 17.6654 6.54819ZM18.1055 6.59596C18.0713 6.44926 18.1396 6.28891 18.2385 6.26844C18.334 6.2548 18.433 6.41514 18.45 6.54819C18.4841 6.67784 18.3989 6.80748 18.317 6.80748C18.2385 6.82454 18.1225 6.74266 18.1055 6.59596Z" fill="black" stroke="white" stroke-width="0.873372" stroke-linejoin="round"/>
<path d="M17.8594 6.72562C17.8594 6.56528 17.9583 6.41858 18.0572 6.41858C18.1698 6.41858 18.2517 6.59598 18.2517 6.72562C18.2517 6.85868 18.1562 6.97126 18.0572 6.97126C17.9583 6.97126 17.8594 6.87573 17.8594 6.72562Z" fill="black" stroke="white" stroke-width="0.873372" stroke-linejoin="round"/>
<path d="M17.5664 6.80741C17.5664 6.66071 17.6824 6.50037 17.7779 6.50037C17.8803 6.50037 17.9758 6.69483 17.9758 6.80741C17.9758 6.94047 17.8598 7.05305 17.7779 7.05305C17.6824 7.05305 17.5664 6.95752 17.5664 6.80741ZM18.1703 6.74259C18.1703 6.59589 18.2726 6.43555 18.3681 6.43555C18.4807 6.43555 18.5626 6.63001 18.5626 6.74259C18.5626 6.87564 18.4671 6.98823 18.3681 6.98823C18.2692 6.98823 18.1703 6.88929 18.1703 6.74259Z" fill="black" stroke="white" stroke-width="0.873372" stroke-linejoin="round"/>
<path d="M18.1055 6.87564C18.1055 6.71188 18.2215 6.56519 18.317 6.56519C18.4193 6.56519 18.5149 6.74259 18.5149 6.87223C18.5149 7.00528 18.4159 7.12128 18.317 7.12128C18.2215 7.12128 18.1055 7.01893 18.1055 6.87564Z" fill="black" stroke="white" stroke-width="0.873372" stroke-linejoin="round"/>
<path d="M17.8459 7.02246C17.8459 6.8587 17.9414 6.712 18.0404 6.712C18.1564 6.712 18.2383 6.90647 18.2383 7.01905C18.2383 7.15551 18.1359 7.2681 18.0404 7.2681C17.9414 7.2681 17.8425 7.16575 17.8425 7.02246H17.8459ZM17.4365 7.02246C17.4365 6.8587 17.5184 6.712 17.6003 6.712C17.6822 6.712 17.747 6.90647 17.747 7.01905C17.747 7.15551 17.6651 7.2681 17.6003 7.2681C17.5184 7.2681 17.4365 7.16575 17.4365 7.02246ZM18.3508 6.99176C18.3508 6.84165 18.4327 6.69495 18.5146 6.69495C18.5965 6.69495 18.6784 6.87576 18.6784 6.98834C18.6784 7.13504 18.5794 7.23398 18.5146 7.23398C18.4327 7.23398 18.3508 7.13504 18.3508 6.98834V6.99176Z" fill="black" stroke="white" stroke-width="0.873372" stroke-linejoin="round"/>
<path d="M18.4499 7.26464C18.484 7.10429 18.5795 6.97124 18.6444 6.99171C18.7126 7.00536 18.7262 7.19982 18.6955 7.31581C18.6785 7.46251 18.5795 7.54439 18.5147 7.52733C18.4465 7.51369 18.4158 7.39769 18.4465 7.26805L18.4499 7.26464Z" fill="black" stroke="white" stroke-width="0.873372" stroke-linejoin="round"/>
<path d="M18.1394 7.21691C18.1564 7.07021 18.252 6.92351 18.3338 6.94057C18.4328 6.94057 18.4805 7.13503 18.4669 7.24761C18.4498 7.39772 18.3645 7.49666 18.2861 7.4796C18.2042 7.4796 18.1223 7.36361 18.1394 7.21691ZM17.6822 7.26467C17.6311 7.10432 17.5321 6.99174 17.4673 7.00539C17.4025 7.02244 17.3854 7.21691 17.4195 7.3329C17.4536 7.46254 17.5492 7.54442 17.614 7.52736C17.6652 7.51372 17.7163 7.39772 17.6822 7.26808V7.26467Z" fill="black" stroke="white" stroke-width="0.873372" stroke-linejoin="round"/>
<path d="M17.5664 7.23395C17.5664 7.08725 17.6483 6.94055 17.7302 6.94055C17.8291 6.94055 17.8939 7.12137 17.8939 7.23395C17.8939 7.38065 17.812 7.47959 17.7302 7.47959C17.6619 7.47959 17.5664 7.38065 17.5664 7.23395Z" fill="black" stroke="white" stroke-width="0.873372" stroke-linejoin="round"/>
<path d="M17.8118 7.29874C17.8118 7.13498 17.9107 6.9917 18.0063 6.9917C18.1223 6.9917 18.2041 7.1691 18.2041 7.29874C18.2041 7.43179 18.1052 7.54438 18.0063 7.54438C17.9107 7.54438 17.8118 7.44544 17.8118 7.29874ZM17.8937 5.50082C17.8596 5.63046 17.747 5.74646 17.8254 5.92727C17.6822 5.8761 17.5525 5.85904 17.4365 5.99209C17.5832 5.97504 17.7129 6.02621 17.7777 6.12174C17.648 6.10468 17.5832 6.17291 17.5491 6.25479C17.6651 6.22067 17.7777 6.18656 17.8289 6.20361C17.7777 6.25479 17.6958 6.33326 17.6822 6.40149C17.7777 6.31961 17.8937 6.33326 17.9585 6.28549C17.9107 6.40149 18.0063 6.51407 18.0881 6.62665C18.0745 6.46631 18.17 6.35373 18.1223 6.26843C18.269 6.30255 18.286 6.43219 18.4975 6.43219C18.4157 6.38443 18.3679 6.22067 18.269 6.22067C18.3167 6.20361 18.5146 6.18656 18.5487 6.22067C18.5146 6.15244 18.3986 6.09103 18.3338 6.09103C18.402 6.0228 18.5146 5.89316 18.5965 5.85904C18.4805 5.8761 18.3031 5.89316 18.2383 5.99209C18.3986 5.85904 18.3679 5.61682 18.5453 5.5827C18.4498 5.56564 18.3031 5.63046 18.1871 5.74646C18.2383 5.64752 18.2383 5.51788 18.3031 5.48376C18.17 5.51788 18.0233 5.68164 17.9756 5.76352C17.9685 5.67089 17.9405 5.58107 17.8937 5.50082Z" fill="black" stroke="white" stroke-width="0.873372" stroke-linejoin="round"/>
<path d="M17.976 5.76352C17.976 5.81128 17.976 5.91022 17.959 5.94092L17.976 5.76352ZM18.1876 5.74646C18.1534 5.78058 18.0886 5.89316 18.0886 5.9921L18.1876 5.74646Z" fill="black"/>
<path d="M17.976 5.76352C17.976 5.81128 17.976 5.91022 17.959 5.94092M18.1876 5.74646C18.1534 5.78058 18.0886 5.89316 18.0886 5.9921" stroke="white" stroke-width="0.873372" stroke-linejoin="round"/>
<path d="M18.2859 5.94092C18.2297 5.97451 18.1882 6.02814 18.1699 6.09103" stroke="white" stroke-width="0.873372" stroke-linejoin="round"/>
<path d="M12.987 17.1104C13.0859 17.3697 13.7887 17.7142 14.6075 17.2741C15.1636 16.9603 15.5218 16.5236 15.8664 15.7389C15.9619 15.541 16.0131 15.2954 15.7845 15.1487C15.6037 15.0157 15.3069 14.869 15.1772 14.7393C15.1124 14.6711 15.0476 14.6233 14.9998 14.5756C15.034 14.6097 15.0647 14.6404 15.0954 14.6881C15.4229 15.0805 15.0817 15.6536 14.7201 15.9982C14.4574 16.2438 13.9866 16.8477 13.2974 16.2745C13.1507 16.1449 12.8062 16.6839 12.9904 17.1104H12.987ZM22.9284 17.1104C22.8124 17.3697 22.1096 17.7142 21.3079 17.2741C20.7552 16.9603 20.3936 16.5236 20.0354 15.7389C19.9535 15.541 19.9023 15.2954 20.1309 15.1487C20.3117 15.0157 20.6085 14.869 20.7382 14.7393C20.803 14.6711 20.8507 14.6233 20.9156 14.5756C20.8815 14.6097 20.8507 14.6404 20.82 14.6881C20.4925 15.0805 20.8337 15.6536 21.1783 15.9982C21.441 16.2438 21.9288 16.8477 22.618 16.2745C22.7647 16.1449 23.0922 16.6839 22.925 17.1104H22.9284Z" fill="#FCEA83" stroke="black" stroke-width="0.127367"/>
<path d="M17.9575 18.5159C19.2642 18.5159 21.277 17.9257 22.3585 15.8651C22.5359 15.524 22.3585 15.3431 22.1436 15.2306C21.9006 15.1082 21.6793 14.9468 21.4885 14.7529C21.7512 15.0156 21.7001 15.1964 21.5226 15.4898C20.6868 16.8818 19.5439 17.5846 17.9575 17.5846C16.3711 17.5846 15.2282 16.8818 14.3924 15.4898C14.215 15.1964 14.1638 15.0156 14.4094 14.7563C14.2215 14.9526 13.9996 15.1133 13.7544 15.2306C13.5429 15.3431 13.3621 15.524 13.5429 15.8651C14.621 17.9257 16.6475 18.5159 17.9575 18.5159Z" fill="#FCEA83" stroke="black" stroke-width="0.127367"/>
<path d="M14.932 15.7526C14.8979 15.5889 14.6898 15.6537 14.625 15.8516C14.5367 15.7384 14.459 15.6173 14.393 15.4899C14.1985 15.1965 14.1644 14.9987 14.4442 14.7223C14.5738 14.5927 14.8365 14.4426 15.0139 14.6063C15.3892 14.9168 15.1947 15.4251 14.932 15.7526ZM20.9672 15.7526C21.0013 15.5889 21.2299 15.6537 21.2947 15.8516C21.3766 15.7356 21.4584 15.623 21.5233 15.4899C21.7177 15.1965 21.7518 14.9987 21.455 14.7223C21.3425 14.5927 21.0798 14.4426 20.8853 14.6063C20.5237 14.9168 20.7045 15.4251 20.9672 15.7526ZM12.9874 17.1104C12.8237 16.8648 12.694 16.2234 12.6599 16.0631C12.6121 15.9164 12.5951 15.7833 12.7759 15.7219C12.9567 15.6537 13.1171 15.8823 13.1989 16.0801C13.2808 16.2746 13.4139 16.568 13.5606 16.9296C13.1989 16.7181 12.9055 16.8614 12.9874 17.1104ZM22.9289 17.1104C23.0756 16.8648 23.2052 16.2234 23.2564 16.0631C23.2905 15.9164 23.3212 15.7833 23.1404 15.7219C22.9596 15.6537 22.7992 15.8823 22.7173 16.0801C22.6355 16.2746 22.5024 16.568 22.3557 16.9296C22.7173 16.7181 22.9937 16.8614 22.9289 17.1104Z" fill="#C8102E" stroke="black" stroke-width="0.127367"/>
<path d="M13.9361 15.6366L13.8064 15.7048C13.7723 15.7184 13.7723 15.7526 13.7723 15.7696H13.7553L13.6904 15.6229H13.7075C13.7075 15.6366 13.7245 15.657 13.7553 15.6366L14.035 15.4899C14.0691 15.4728 14.0691 15.4558 14.0521 15.4421L14.0657 15.425L14.1476 15.5888H14.1339C14.1169 15.5717 14.0998 15.5547 14.0657 15.5717L13.9531 15.64L14.0009 15.7355L14.1339 15.6877C14.1681 15.6707 14.1476 15.6366 14.1476 15.6195H14.1646L14.2329 15.7696C14.2158 15.7526 14.1988 15.7355 14.1646 15.7526L13.8883 15.8993C13.8542 15.9163 13.8542 15.9334 13.8712 15.947L13.8542 15.9641L13.7723 15.8174L13.7894 15.8003C13.8064 15.8174 13.8235 15.8344 13.8576 15.8174L13.9872 15.7492L13.9361 15.6366ZM14.2158 15.8515C14.2499 15.8344 14.2499 15.8174 14.2295 15.7833H14.2465L14.4103 16.0289L14.2977 16.1108V16.0971C14.3625 16.046 14.3625 15.9811 14.3455 15.9641C14.3284 15.947 14.3113 15.93 14.3113 15.9163C14.2977 15.9163 14.2977 15.8993 14.2636 15.9334L14.1476 16.0153C14.1646 16.0289 14.1817 16.0801 14.2636 16.0289H14.2806L14.0998 16.162V16.1449C14.1817 16.0767 14.1476 16.0289 14.1339 16.0153L14.0179 16.0971C13.9838 16.1108 13.9838 16.1313 13.9838 16.1449C14.0009 16.1449 14.0009 16.162 14.0179 16.179C14.035 16.2131 14.0862 16.2438 14.1646 16.2131L14.1817 16.2268L14.0521 16.2745L13.8883 16.0153H13.9054C13.919 16.0289 13.9395 16.0494 13.9702 16.0289L14.2158 15.8515ZM14.4751 16.4724L14.3625 16.5679C14.3455 16.585 14.3455 16.6191 14.3625 16.6362H14.3455L14.2295 16.5202L14.2465 16.5031C14.2636 16.5202 14.2806 16.5372 14.3148 16.5031L14.5263 16.2916C14.5604 16.2745 14.5604 16.2575 14.5399 16.2234L14.6559 16.3598C14.6389 16.3394 14.6082 16.3394 14.5877 16.3598L14.4922 16.4554L14.574 16.5372L14.673 16.4554C14.7071 16.4212 14.69 16.4076 14.673 16.3871L14.69 16.3735L14.8026 16.5031H14.7856C14.7719 16.5031 14.7514 16.4895 14.7207 16.5202L14.5092 16.718C14.4751 16.7522 14.4751 16.7658 14.4922 16.7829V16.7999L14.3796 16.6669C14.3932 16.6669 14.4273 16.6839 14.4444 16.6669L14.557 16.5543L14.4751 16.4724ZM14.7207 16.817L14.7719 16.8647L14.8367 16.718C14.8367 16.718 14.7856 16.7317 14.7037 16.7829L14.7207 16.817L14.7037 16.8306L14.6696 16.7965C14.6559 16.8136 14.6389 16.8136 14.6218 16.8306C14.574 16.8647 14.5877 16.8818 14.6082 16.8989V16.9125L14.5263 16.8306H14.5399L14.6082 16.8136L14.9323 16.6362L14.9493 16.6498C14.9493 16.6498 14.9323 16.6669 14.7856 16.9944C14.7856 17.0285 14.7719 17.0422 14.7856 17.0763L14.6559 16.9637L14.673 16.9466C14.69 16.9807 14.7207 16.9807 14.7378 16.9466C14.7378 16.9296 14.7549 16.8955 14.7549 16.8784L14.7037 16.8306L14.7207 16.8136V16.817ZM14.8504 17.1411L14.8674 17.124C14.8845 17.1411 14.9016 17.1411 14.9357 17.124L15.1472 16.8477L15.1301 16.8306C15.096 16.8136 15.0483 16.8136 15.0005 16.8647V16.8477L15.0653 16.7658L15.3109 16.9466L15.2291 17.0422H15.212C15.2598 16.9944 15.2461 16.9296 15.212 16.9125V16.8955L15.0005 17.1752C14.9664 17.1923 14.9834 17.223 15.0005 17.24H14.9834L14.8504 17.1411Z" fill="#00493D"/>
<path d="M15.2769 17.2059L15.1951 17.3219C15.178 17.356 15.1951 17.3697 15.2121 17.3902L15.1951 17.4038L15.0654 17.3049V17.2878C15.0995 17.3049 15.1132 17.3049 15.1303 17.2742L15.3111 17.0285C15.3247 16.9944 15.3111 16.9774 15.294 16.9603L15.3111 16.9467L15.4407 17.0422V17.0592C15.4066 17.0422 15.3929 17.0422 15.3725 17.0763L15.294 17.1923L15.3929 17.2571L15.4748 17.1411C15.4885 17.107 15.4748 17.0934 15.4578 17.0763L15.4748 17.0592L15.6045 17.1582V17.1752C15.5874 17.1582 15.5567 17.1582 15.5362 17.1923L15.3759 17.4516C15.3418 17.4686 15.3588 17.4857 15.3759 17.5027V17.5164L15.2292 17.4209H15.2462C15.2599 17.4209 15.2804 17.4209 15.294 17.4038L15.3759 17.2742L15.2769 17.2059ZM15.6045 17.6665L15.6215 17.6494C15.6386 17.6665 15.6693 17.6665 15.6863 17.6324L15.816 17.356C15.833 17.3219 15.816 17.3049 15.7989 17.2878L16.0787 17.4209L16.0104 17.5505L15.9968 17.5335C16.0446 17.4686 15.9968 17.4038 15.9797 17.3868C15.9627 17.3868 15.9456 17.3697 15.932 17.3697C15.9149 17.3697 15.9149 17.3697 15.8979 17.4038C15.8808 17.4209 15.833 17.5164 15.833 17.5164C15.8501 17.5335 15.8808 17.5676 15.949 17.4823H15.9627L15.8672 17.6802L15.8501 17.6665C15.8979 17.5642 15.833 17.5505 15.816 17.5505L15.7512 17.6802C15.7341 17.7143 15.7512 17.7313 15.7682 17.7313V17.7484L15.6045 17.6665ZM16.0787 17.8951C16.0309 17.861 16.0309 17.762 16.0787 17.6665C16.1128 17.5642 16.1776 17.4857 16.2424 17.5164C16.2902 17.5335 16.2766 17.6324 16.2424 17.7313C16.1913 17.8439 16.1264 17.9087 16.0787 17.8951H16.0616C16.1776 17.9428 16.2595 17.878 16.3073 17.762C16.355 17.6665 16.3414 17.5505 16.239 17.5027C16.1435 17.4516 16.0446 17.5164 15.9968 17.6324C15.949 17.7484 15.9627 17.861 16.065 17.8951H16.0787ZM16.5836 17.9258L16.6518 17.7313C16.6655 17.6972 16.6518 17.6802 16.6348 17.6631L16.7166 17.6802V17.6972C16.6996 17.6972 16.6825 17.6972 16.6655 17.7313L16.6007 17.9258C16.5665 18.0077 16.5188 18.0725 16.4232 18.0418C16.355 18.0247 16.3073 17.9428 16.3414 17.861L16.4232 17.6494C16.4369 17.6153 16.4232 17.5983 16.4062 17.5812V17.5676L16.5529 17.6324V17.6494C16.5358 17.6324 16.5051 17.6324 16.5051 17.6665L16.4198 17.8746C16.4028 17.9394 16.4028 18.0043 16.454 18.0213C16.5017 18.0384 16.5495 18.0043 16.5802 17.9224L16.5836 17.9258ZM16.7337 17.7143C16.7337 17.6972 16.7337 17.6972 16.7166 17.6972L16.8292 17.7143L16.9316 18.0247L16.9793 17.8269C16.993 17.7927 16.9793 17.7791 16.9623 17.762L17.0578 17.7791L17.0442 17.7961C17.0271 17.7961 17.01 17.7961 16.993 17.8303L16.9111 18.1885H16.8975L16.7644 17.7961L16.6825 18.0588C16.6825 18.1066 16.6996 18.1066 16.7166 18.1237V18.1407L16.6177 18.1066V18.0895C16.6348 18.1066 16.6655 18.0895 16.6655 18.0554L16.7474 17.762L16.7337 17.7143ZM17.2898 18.0418C17.2557 18.1885 17.1875 18.2226 17.1567 18.2226H17.1226C17.1226 18.2226 17.109 18.2055 17.1226 18.1885L17.1738 17.861C17.1909 17.8439 17.1909 17.8269 17.2079 17.8439H17.242C17.2727 17.8439 17.3034 17.9121 17.2898 18.0418L17.3376 18.0588C17.3717 17.8951 17.3034 17.8269 17.2216 17.8132C17.1567 17.7961 17.0578 17.7791 17.0578 17.7791V17.7961C17.0749 17.8132 17.109 17.8132 17.0919 17.8644L17.0442 18.1544C17.0271 18.1885 17.01 18.2055 16.993 18.2055H16.9793L17.1397 18.2397C17.2216 18.2533 17.3034 18.2397 17.3376 18.0588L17.2898 18.0418ZM17.4365 17.9087C17.4365 17.8746 17.4024 17.861 17.3853 17.861V17.8439L17.6821 17.878L17.6651 18.0077C17.6651 17.9258 17.6139 17.8951 17.5832 17.8951C17.5661 17.878 17.5491 17.878 17.532 17.878C17.5184 17.878 17.5184 17.878 17.5184 17.9258L17.5013 18.0588C17.5184 18.0588 17.5661 18.0725 17.6003 17.977L17.5832 18.1885H17.5661C17.5661 18.0895 17.5184 18.0895 17.4979 18.0895L17.4843 18.2362C17.4843 18.2704 17.4843 18.2704 17.5013 18.2704L17.5354 18.2874C17.5832 18.2874 17.631 18.2704 17.6651 18.1714H17.6821L17.648 18.3011L17.3376 18.2669C17.3717 18.2669 17.3853 18.2533 17.4058 18.2226L17.4365 17.9087ZM17.9755 18.1066C17.9755 18.2533 17.9244 18.3011 17.8766 18.3011C17.8595 18.2874 17.8595 18.2874 17.8425 18.2874L17.8288 18.2704L17.8459 17.9292C17.8459 17.9087 17.8459 17.9087 17.8595 17.9087H17.8937C17.9278 17.9087 17.9755 17.9599 17.9755 18.1066H18.0404C18.0404 17.9428 17.9585 17.8951 17.8766 17.8951C17.8084 17.878 17.7128 17.878 17.7128 17.878V17.8951C17.7299 17.8951 17.764 17.9087 17.764 17.9428L17.747 18.2533C17.747 18.2874 17.7299 18.3011 17.7128 18.3011V18.3181H17.8595C17.9414 18.3181 18.0233 18.284 18.0404 18.1066H17.9721H17.9755ZM18.4497 18.2362C18.4497 18.2704 18.4668 18.2704 18.4975 18.2704V18.2874L18.3167 18.3011C18.3338 18.2874 18.3679 18.2669 18.3679 18.2362L18.3338 17.9292C18.3167 17.8951 18.2996 17.8951 18.2689 17.8951V17.878L18.4497 17.861C18.4327 17.878 18.3986 17.8951 18.4156 17.9292L18.4497 18.2362ZM18.6135 18.2704V18.2533C18.6306 18.2533 18.6476 18.2362 18.6476 18.2055L18.5794 17.8644H18.5623C18.5282 17.878 18.4975 17.9087 18.5146 17.977H18.4975L18.4805 17.861L18.7773 17.8132L18.7909 17.9258H18.7773C18.7773 17.861 18.7261 17.8439 18.6749 17.8439H18.6613L18.7295 18.1851C18.7295 18.2192 18.7431 18.2362 18.7773 18.2362V18.2533L18.6135 18.2704ZM19.3163 17.9428L19.2481 17.7484C19.2481 17.7143 19.2174 17.7143 19.2003 17.7143V17.6972L19.2822 17.6631V17.6802C19.2651 17.6972 19.2651 17.6972 19.2651 17.7313L19.3334 17.9428C19.347 18.0111 19.347 18.1066 19.2515 18.1407C19.1832 18.1544 19.1048 18.1237 19.0877 18.0247L19.0195 17.8132C19.0058 17.7791 18.9888 17.7791 18.9717 17.7791L18.9547 17.762L19.1184 17.7143V17.7313C19.1048 17.7484 19.0843 17.7654 19.1048 17.7961L19.1525 18.0077C19.1696 18.0759 19.2208 18.1066 19.2651 18.1066C19.3163 18.0895 19.3334 18.0247 19.3163 17.9428ZM19.4971 17.8269C19.5756 17.7927 19.5619 17.7484 19.5449 17.6972C19.5278 17.6494 19.4971 17.6153 19.463 17.6324C19.4459 17.6324 19.4289 17.6494 19.4459 17.6665L19.4971 17.8269L19.5108 17.8439L19.5449 17.977C19.5619 18.0111 19.5926 18.0111 19.6131 17.9906V18.0077L19.463 18.0759L19.4459 18.0588C19.4801 18.0418 19.4801 18.0247 19.4801 17.9906L19.3641 17.7143C19.347 17.6665 19.3299 17.6802 19.2992 17.6802V17.6665L19.463 17.5983C19.5312 17.5846 19.5926 17.5983 19.6268 17.6665C19.6438 17.7484 19.6097 17.7961 19.5449 17.8303C19.5278 17.8303 19.5108 17.8439 19.5108 17.8439L19.4971 17.8269Z" fill="#00493D"/>
<path d="M19.903 17.8747C19.8552 17.8951 19.7904 17.8269 19.7392 17.7143C19.6915 17.6154 19.6915 17.5165 19.7392 17.5028C19.7904 17.4857 19.8552 17.5506 19.903 17.6495C19.9542 17.7484 19.9542 17.844 19.903 17.8781C20.0053 17.844 20.036 17.7314 19.9849 17.6154C19.9371 17.5165 19.8382 17.4516 19.7392 17.4857C19.7163 17.4973 19.6959 17.5133 19.6792 17.5329C19.6626 17.5524 19.6501 17.5752 19.6424 17.5997C19.6348 17.6242 19.6322 17.65 19.6347 17.6756C19.6373 17.7011 19.645 17.7259 19.6573 17.7484C19.7085 17.861 19.8075 17.9258 19.903 17.8781V17.8747ZM19.92 17.4209H19.8893L19.9849 17.3527L20.2817 17.5165L20.1793 17.339C20.1657 17.3049 20.1316 17.3049 20.1179 17.3049V17.2879L20.1998 17.2538C20.1827 17.2742 20.1657 17.2879 20.1998 17.322L20.3635 17.6495L20.3465 17.6666L19.9849 17.4687L20.1179 17.7143C20.1316 17.7484 20.1657 17.7484 20.1827 17.7314V17.7484L20.1009 17.7962V17.7791C20.1179 17.7621 20.1179 17.745 20.1009 17.7143L19.9712 17.4516L19.92 17.4175V17.4209ZM20.6569 17.4687V17.4516C20.6569 17.4346 20.674 17.4175 20.6569 17.3868L20.4591 17.1105H20.442C20.4079 17.1241 20.3943 17.1923 20.442 17.2401L20.4284 17.2572L20.3601 17.1412L20.6058 16.9774L20.674 17.0798C20.6228 17.0286 20.5717 17.0286 20.541 17.0456L20.5239 17.0593L20.7218 17.339C20.7388 17.3732 20.7695 17.3732 20.79 17.3561V17.3698L20.6569 17.4687Z" fill="#00493D"/>
<path d="M20.8375 17.0763L20.933 17.1923C20.95 17.2059 20.9842 17.2059 21.0012 17.1923V17.2059L20.8682 17.3219V17.3049C20.8852 17.2878 20.8852 17.2708 20.8682 17.2401L20.6737 16.9944C20.6566 16.9603 20.6396 16.9774 20.6055 16.9774L20.7385 16.8648V16.8818C20.7385 16.8955 20.7215 16.916 20.7385 16.9467L20.8204 17.0422L20.9159 16.9774L20.8375 16.8648C20.8204 16.8307 20.7863 16.8477 20.7692 16.8477L20.9023 16.7317V16.7488C20.8852 16.7658 20.8852 16.7829 20.9023 16.817L21.0967 17.0592C21.1138 17.0763 21.1309 17.0763 21.1479 17.0592L21.1616 17.0763L21.0319 17.1923L21.0149 17.1752C21.0319 17.1582 21.049 17.1411 21.0319 17.107L20.933 16.9944L20.8375 17.0763ZM20.9842 16.7317C20.9671 16.7181 20.933 16.7181 20.9159 16.7317V16.7181L21.1309 16.5202L21.2298 16.6191H21.2127C21.1616 16.5509 21.0967 16.585 21.066 16.6021C21.066 16.6191 21.049 16.6191 21.0319 16.6362C21.0319 16.6362 21.0319 16.6499 21.049 16.684L21.1479 16.7829C21.1616 16.7658 21.2127 16.7317 21.1479 16.6499H21.1616L21.2946 16.8V16.8136C21.2127 16.7317 21.1786 16.7795 21.1616 16.8L21.2639 16.8955C21.2776 16.9296 21.2946 16.9296 21.2946 16.9296L21.3424 16.8818C21.3594 16.8648 21.3765 16.8136 21.3424 16.7181H21.3594L21.4243 16.8307L21.2127 17.0422L21.1957 17.0285C21.2127 17.0115 21.2298 16.9944 21.1957 16.9603L20.9842 16.7317ZM21.3765 16.2746C21.3594 16.2916 21.3594 16.3257 21.3901 16.3428C21.4243 16.3735 21.4584 16.3735 21.5232 16.3428C21.5573 16.3257 21.6187 16.3087 21.6699 16.3565C21.7518 16.4383 21.7177 16.5032 21.704 16.5373C21.6869 16.5543 21.6528 16.5714 21.6358 16.585C21.6187 16.585 21.6187 16.585 21.6187 16.6021V16.6191L21.5061 16.5202H21.5232C21.588 16.5543 21.6528 16.568 21.6869 16.5202C21.7211 16.4861 21.6869 16.452 21.6699 16.4383C21.6358 16.4042 21.6017 16.4042 21.5539 16.4383C21.5061 16.4554 21.4413 16.4554 21.3901 16.4213C21.3253 16.3565 21.3253 16.3087 21.356 16.2575L21.4243 16.2098C21.4413 16.2098 21.4413 16.2098 21.4243 16.1756L21.5402 16.2575H21.5232C21.4413 16.2234 21.3901 16.2439 21.3765 16.2746ZM21.5232 16.1449C21.4891 16.1279 21.472 16.1449 21.455 16.162H21.4413L21.6221 15.8993L21.7347 15.9812L21.7177 15.9982C21.6972 15.9807 21.6712 15.9711 21.6443 15.9711C21.6174 15.9711 21.5914 15.9807 21.571 15.9982C21.571 16.0153 21.5539 16.0323 21.5539 16.046C21.5402 16.046 21.5402 16.0631 21.571 16.0801C21.588 16.0972 21.6869 16.162 21.6869 16.162C21.704 16.1449 21.7347 16.1108 21.6699 16.046V16.0289L21.8336 16.162C21.7347 16.1108 21.7177 16.162 21.704 16.1756L21.8166 16.2575C21.8507 16.2746 21.8644 16.2746 21.8644 16.2746C21.8644 16.2575 21.8814 16.2405 21.8985 16.2268C21.9155 16.1927 21.9326 16.1449 21.8644 16.0801L21.8814 16.0631L21.9633 16.162L21.7995 16.4076H21.7825C21.7995 16.3735 21.7995 16.3565 21.7688 16.3257L21.5232 16.1449ZM21.9633 15.8515L21.9155 15.9334C21.8473 15.8652 21.8166 15.8174 21.8166 15.8174L21.9633 15.8515H21.9974C22.0145 15.8515 22.0452 15.8652 22.0622 15.8652C22.11 15.8822 22.0963 15.8993 22.0793 15.9334H22.0963L22.1782 15.7833C22.1441 15.8174 22.127 15.8004 22.0963 15.8004C21.7518 15.7355 21.7211 15.7185 21.7211 15.7185V15.7355L21.9803 16.0289C21.9974 16.046 21.9974 16.0801 21.9974 16.0972H22.0145L22.0622 16.0153L22.0452 15.9982C22.0281 16.0323 22.0111 16.046 21.9803 15.9982L21.9462 15.9641L21.9974 15.8515H21.9633ZM21.8644 15.4899C21.8507 15.507 21.8507 15.5411 21.8985 15.5581C21.9462 15.5718 21.9667 15.5581 22.0145 15.524C22.0622 15.4899 22.11 15.4558 22.1748 15.4899C22.2772 15.5411 22.2567 15.623 22.243 15.6537L22.1919 15.7219V15.7526L22.0622 15.6844C22.1441 15.7014 22.2089 15.6844 22.226 15.6366C22.243 15.6025 22.2089 15.5718 22.1919 15.5547C22.1577 15.5411 22.127 15.5547 22.0793 15.5888C22.0281 15.6366 21.9769 15.6571 21.9155 15.623C21.8473 15.5888 21.8166 15.5411 21.8473 15.4899C21.8473 15.4558 21.8814 15.4421 21.8985 15.4251C21.8985 15.408 21.8985 15.408 21.8814 15.391V15.3773L22.0145 15.4421H21.9974C21.9155 15.4251 21.8644 15.4592 21.8644 15.4899Z" fill="#00493D"/>
<path d="M16.6996 9.70389C16.4881 9.75165 16.3414 9.76871 16.1435 9.58789C16.0138 9.45825 16.0445 9.22967 16.1776 9.14438C16.3243 9.04886 16.4539 8.98404 16.6348 9.0318C16.8156 9.08298 17.2898 9.52307 17.1738 9.54013C17.0578 9.54013 16.8804 9.65271 16.6996 9.70389ZM17.2045 8.91922C17.2727 8.86804 17.3546 8.83734 17.5661 8.81687C17.764 8.80322 17.9073 8.80322 17.9585 8.95333C18.0267 9.13074 18.0745 9.34226 18.2041 9.44119C18.1222 9.48896 17.7128 9.54013 17.5661 9.45825C17.3717 9.35932 17.3205 8.98063 17.2079 8.91922H17.2045ZM18.6135 8.93628C18.6783 8.8851 18.7602 8.8851 18.9717 8.90216C19.1832 8.91922 19.2651 8.93628 19.3129 9.08298C19.364 9.24673 19.3129 9.45825 19.4152 9.60495C19.3129 9.63907 18.9888 9.63907 18.8728 9.52307C18.6954 9.39343 18.709 9.01474 18.6135 8.93286V8.93628Z" fill="white" stroke="black" stroke-width="0.127367"/>
<path d="M19.5924 9.0318C19.4457 8.99768 19.3468 8.98404 19.2854 9.0318C19.3638 9.13074 19.299 9.52307 19.4628 9.65271C19.5754 9.73459 19.8722 9.75506 19.937 9.57083C20.0189 9.40708 20.0189 9.16144 19.5958 9.0318H19.5924ZM17.9105 8.86804C17.9583 8.82028 18.0572 8.80322 18.2517 8.80322C18.4666 8.80322 18.5928 8.83734 18.661 8.96698C18.7293 9.13074 18.7088 9.34226 18.8248 9.47531C18.777 9.54013 18.3335 9.54013 18.2039 9.44119C18.0231 9.3252 18.006 8.94992 17.9105 8.86804ZM16.522 9.01474C16.522 8.93286 16.6345 8.91922 16.9314 8.90216C17.2213 8.86804 17.2384 8.8851 17.3373 9.09662C17.3851 9.21262 17.4499 9.40708 17.583 9.4719C17.2213 9.55719 17.1054 9.60495 16.9109 9.48896C16.7689 9.40013 16.6515 9.27693 16.5697 9.13074C16.5527 9.08297 16.5527 9.0318 16.5186 9.01474H16.522Z" fill="#073163" stroke="black" stroke-width="0.127367"/>
<path d="M17.306 7.34992C16.9614 7.08722 16.552 6.84159 16.1768 6.79382C16.5683 7.05488 16.9401 7.34452 17.2889 7.66037" fill="#F9D050"/>
<path d="M17.306 7.34992C16.9614 7.08722 16.552 6.84159 16.1768 6.79382C16.5683 7.05488 16.9401 7.34452 17.2889 7.66037" stroke="black" stroke-width="0.0545858"/>
<path d="M17.5009 7.10428C17.0915 6.82453 16.6173 6.51407 16.1602 6.48337C16.588 6.73128 16.969 7.05228 17.286 7.43179M18.0229 6.64712C18.2076 6.2273 18.4811 5.85251 18.8246 5.54858C18.6609 5.89316 18.4835 6.59595 18.3982 6.8757" fill="#F9D050"/>
<path d="M17.5009 7.10428C17.0915 6.82453 16.6173 6.51407 16.1602 6.48337C16.588 6.73128 16.969 7.05228 17.286 7.43179M18.0229 6.64712C18.2076 6.2273 18.4811 5.85251 18.8246 5.54858C18.6609 5.89316 18.4835 6.59595 18.3982 6.8757" stroke="black" stroke-width="0.0545858"/>
<path d="M18.3848 6.56527C18.5429 6.18085 18.8401 5.87019 19.2172 5.69531C18.9339 6.04875 18.7229 6.45448 18.5963 6.88938" fill="#F9D050"/>
<path d="M18.3848 6.56527C18.5429 6.18085 18.8401 5.87019 19.2172 5.69531C18.9339 6.04875 18.7229 6.45448 18.5963 6.88938" stroke="black" stroke-width="0.0545858"/>
<path d="M18.5312 6.88935C18.8445 6.40987 19.2934 6.03456 19.8208 5.81128C19.4114 6.22067 18.8076 6.97123 18.6609 7.26804M18.7598 7.25098C19.0532 7.08722 19.6434 6.82453 20.0665 6.90982C19.8072 7.00534 19.0225 7.36356 18.6779 7.69449" fill="#F9D050"/>
<path d="M18.5312 6.88935C18.8445 6.40987 19.2934 6.03456 19.8208 5.81128C19.4114 6.22067 18.8076 6.97123 18.6609 7.26804M18.7598 7.25098C19.0532 7.08722 19.6434 6.82453 20.0665 6.90982C19.8072 7.00534 19.0225 7.36356 18.6779 7.69449" stroke="black" stroke-width="0.0545858"/>
<path d="M18.6947 7.13496C18.971 6.84156 19.4793 6.40146 20.0184 6.22064C19.626 6.59592 18.7902 7.44882 18.6776 7.57846M17.91 6.95755C17.7121 6.35029 17.4187 5.78055 16.9786 5.59973C17.3292 6.1009 17.573 6.66873 17.6951 7.26801M17.5313 6.94049C17.2072 6.54816 16.7637 6.15582 16.2588 6.07395C16.7536 6.39771 17.1445 6.85731 17.3846 7.39765" fill="#F9D050"/>
<path d="M18.6947 7.13496C18.971 6.84156 19.4793 6.40146 20.0184 6.22064C19.626 6.59592 18.7902 7.44882 18.6776 7.57846M17.91 6.95755C17.7121 6.35029 17.4187 5.78055 16.9786 5.59973C17.3292 6.1009 17.573 6.66873 17.6951 7.26801M17.5313 6.94049C17.2072 6.54816 16.7637 6.15582 16.2588 6.07395C16.7536 6.39771 17.1445 6.85731 17.3846 7.39765" stroke="black" stroke-width="0.0545858"/>
<path d="M17.7161 6.9234C17.3067 6.1865 16.9928 6.05686 16.8154 5.91016C16.9621 6.1865 17.3203 6.9234 17.5319 7.23386" fill="#F9D050"/>
<path d="M17.7161 6.9234C17.3067 6.1865 16.9928 6.05686 16.8154 5.91016C16.9621 6.1865 17.3203 6.9234 17.5319 7.23386" stroke="black" stroke-width="0.0545858"/>
<path d="M16.8975 6.87573C17.1308 7.02247 17.3307 7.21657 17.4843 7.44547" stroke="black" stroke-width="0.0545858"/>
<path d="M16.8975 7.21683C16.993 7.29871 17.1738 7.39764 17.3376 7.54434L16.8975 7.21683ZM18.8421 7.46247C19.0058 7.33282 19.3641 7.1213 19.5449 7.05307L18.8421 7.46247ZM18.7261 7.34988C18.8898 7.13495 19.2174 6.84155 19.3334 6.74262L18.7261 7.34988ZM19.1832 6.33322C18.9634 6.57959 18.7562 6.83693 18.5623 7.10425L19.1832 6.33322ZM18.7602 6.18652C18.6054 6.41555 18.4685 6.65622 18.3508 6.90637L18.7602 6.18652ZM17.4672 6.22064C17.5661 6.48333 17.747 6.92343 17.8084 7.10425L17.4672 6.22064ZM17.3205 6.49698C17.3887 6.59933 17.5184 6.82449 17.5661 6.98825L17.3205 6.49698Z" fill="#F9D050"/>
<path d="M16.8975 7.21683C16.993 7.29871 17.1738 7.39764 17.3376 7.54434M18.8421 7.46247C19.0058 7.33282 19.3641 7.1213 19.5449 7.05307M18.7261 7.34988C18.8898 7.13495 19.2174 6.84155 19.3334 6.74262M19.1832 6.33322C18.9634 6.57959 18.7562 6.83693 18.5623 7.10425M18.7602 6.18652C18.6054 6.41555 18.4685 6.65622 18.3508 6.90637M17.4672 6.22064C17.5661 6.48333 17.747 6.92343 17.8084 7.10425M17.3205 6.49698C17.3887 6.59933 17.5184 6.82449 17.5661 6.98825" stroke="black" stroke-width="0.0545858"/>
<path d="M17.876 6.41508C17.876 6.26838 17.9749 6.10803 18.0738 6.10803C18.1864 6.10803 18.2683 6.30249 18.2683 6.41508C18.2683 6.54813 18.1694 6.66071 18.0738 6.66071C17.9715 6.66071 17.876 6.56519 17.876 6.41508Z" fill="#F9D050" stroke="black" stroke-width="0.0545858"/>
<path d="M17.6644 6.54819C17.6814 6.38444 17.794 6.2548 17.893 6.26844C17.9919 6.2855 18.0397 6.48337 18.0226 6.59596C18.0055 6.7256 17.893 6.82454 17.8111 6.80748C17.7292 6.80748 17.6473 6.69489 17.6644 6.54819ZM18.1045 6.59596C18.0704 6.44926 18.1386 6.28891 18.2375 6.26844C18.3331 6.2548 18.432 6.41514 18.4491 6.54819C18.4832 6.67784 18.3979 6.80748 18.316 6.80748C18.2375 6.82454 18.1215 6.74266 18.1045 6.59596Z" fill="#F9D050" stroke="black" stroke-width="0.0545858"/>
<path d="M17.8584 6.72562C17.8584 6.56528 17.9573 6.41858 18.0563 6.41858C18.1689 6.41858 18.2507 6.59598 18.2507 6.72562C18.2507 6.85868 18.1552 6.97126 18.0563 6.97126C17.9573 6.97126 17.8584 6.87573 17.8584 6.72562Z" fill="#F9D050" stroke="black" stroke-width="0.0545858"/>
<path d="M17.5654 6.80741C17.5654 6.66071 17.6814 6.50037 17.7769 6.50037C17.8793 6.50037 17.9748 6.69483 17.9748 6.80741C17.9748 6.94047 17.8588 7.05305 17.7769 7.05305C17.6814 7.05305 17.5654 6.95752 17.5654 6.80741ZM18.1693 6.74259C18.1693 6.59589 18.2716 6.43555 18.3672 6.43555C18.4797 6.43555 18.5616 6.63001 18.5616 6.74259C18.5616 6.87564 18.4661 6.98823 18.3672 6.98823C18.2682 6.98823 18.1693 6.88929 18.1693 6.74259Z" fill="#F9D050" stroke="black" stroke-width="0.0545858"/>
<path d="M18.1045 6.87564C18.1045 6.71188 18.2205 6.56519 18.316 6.56519C18.4184 6.56519 18.5139 6.74259 18.5139 6.87223C18.5139 7.00528 18.4149 7.12128 18.316 7.12128C18.2205 7.12128 18.1045 7.01893 18.1045 6.87564Z" fill="#F9D050" stroke="black" stroke-width="0.0545858"/>
<path d="M17.8449 7.02246C17.8449 6.8587 17.9405 6.712 18.0394 6.712C18.1554 6.712 18.2373 6.90647 18.2373 7.01905C18.2373 7.15551 18.1349 7.2681 18.0394 7.2681C17.9405 7.2681 17.8415 7.16575 17.8415 7.02246H17.8449ZM17.4355 7.02246C17.4355 6.8587 17.5174 6.712 17.5993 6.712C17.6812 6.712 17.746 6.90647 17.746 7.01905C17.746 7.15551 17.6641 7.2681 17.5993 7.2681C17.5174 7.2681 17.4355 7.16575 17.4355 7.02246ZM18.3499 6.99176C18.3499 6.84165 18.4317 6.69495 18.5136 6.69495C18.5955 6.69495 18.6774 6.87576 18.6774 6.98834C18.6774 7.13504 18.5784 7.23398 18.5136 7.23398C18.4317 7.23398 18.3499 7.13504 18.3499 6.98834V6.99176Z" fill="#F9D050" stroke="black" stroke-width="0.0545858"/>
<path d="M18.4489 7.26464C18.483 7.10429 18.5786 6.97124 18.6434 6.99171C18.7116 7.00536 18.7253 7.19982 18.6946 7.31581C18.6775 7.46251 18.5786 7.54439 18.5137 7.52733C18.4455 7.51369 18.4148 7.39769 18.4455 7.26805L18.4489 7.26464Z" fill="#F9D050" stroke="black" stroke-width="0.0545858"/>
<path d="M18.1384 7.21691C18.1555 7.07021 18.251 6.92351 18.3329 6.94057C18.4318 6.94057 18.4796 7.13503 18.4659 7.24761C18.4489 7.39772 18.3636 7.49666 18.2851 7.4796C18.2032 7.4796 18.1213 7.36361 18.1384 7.21691ZM17.6812 7.26467C17.6301 7.10432 17.5311 6.99174 17.4663 7.00539C17.4015 7.02244 17.3844 7.21691 17.4186 7.3329C17.4527 7.46254 17.5482 7.54442 17.613 7.52736C17.6642 7.51372 17.7154 7.39772 17.6812 7.26808V7.26467Z" fill="#F9D050" stroke="black" stroke-width="0.0545858"/>
<path d="M17.5654 7.23395C17.5654 7.08725 17.6473 6.94055 17.7292 6.94055C17.8281 6.94055 17.8929 7.12137 17.8929 7.23395C17.8929 7.38065 17.8111 7.47959 17.7292 7.47959C17.661 7.47959 17.5654 7.38065 17.5654 7.23395Z" fill="#F9D050" stroke="black" stroke-width="0.0545858"/>
<path d="M17.8108 7.29874C17.8108 7.13498 17.9098 6.9917 18.0053 6.9917C18.1213 6.9917 18.2032 7.1691 18.2032 7.29874C18.2032 7.43179 18.1042 7.54438 18.0053 7.54438C17.9098 7.54438 17.8108 7.44544 17.8108 7.29874ZM17.8927 5.50082C17.8586 5.63046 17.746 5.74646 17.8245 5.92727C17.6812 5.8761 17.5515 5.85904 17.4355 5.99209C17.5822 5.97504 17.7119 6.02621 17.7767 6.12174C17.6471 6.10468 17.5822 6.17291 17.5481 6.25479C17.6641 6.22067 17.7767 6.18656 17.8279 6.20361C17.7767 6.25479 17.6948 6.33326 17.6812 6.40149C17.7767 6.31961 17.8927 6.33326 17.9575 6.28549C17.9098 6.40149 18.0053 6.51407 18.0872 6.62665C18.0735 6.46631 18.169 6.35373 18.1213 6.26843C18.268 6.30255 18.285 6.43219 18.4966 6.43219C18.4147 6.38443 18.3669 6.22067 18.268 6.22067C18.3157 6.20361 18.5136 6.18656 18.5477 6.22067C18.5136 6.15244 18.3976 6.09103 18.3328 6.09103C18.401 6.0228 18.5136 5.89316 18.5955 5.85904C18.4795 5.8761 18.3021 5.89316 18.2373 5.99209C18.3976 5.85904 18.3669 5.61682 18.5443 5.5827C18.4488 5.56564 18.3021 5.63046 18.1861 5.74646C18.2373 5.64752 18.2373 5.51788 18.3021 5.48376C18.169 5.51788 18.0223 5.68164 17.9746 5.76352C17.9675 5.67089 17.9395 5.58107 17.8927 5.50082Z" fill="#F9D050" stroke="black" stroke-width="0.0545858"/>
<path d="M17.9751 5.76352C17.9751 5.81128 17.9751 5.91022 17.958 5.94092L17.9751 5.76352ZM18.1866 5.74646C18.1525 5.78058 18.0877 5.89316 18.0877 5.9921L18.1866 5.74646Z" fill="#F9D050"/>
<path d="M17.9751 5.76352C17.9751 5.81128 17.9751 5.91022 17.958 5.94092M18.1866 5.74646C18.1525 5.78058 18.0877 5.89316 18.0877 5.9921" stroke="black" stroke-width="0.0545858"/>
<path d="M18.2849 5.94092C18.2287 5.97451 18.1873 6.02814 18.1689 6.09103" stroke="black" stroke-width="0.0545858"/>
<path d="M16.5524 7.56137C16.4364 7.56137 16.3409 7.51361 16.2727 7.43173C16.1601 7.28162 15.8496 7.2168 15.7166 7.34985C15.6688 7.38397 15.604 7.38397 15.5562 7.39762C15.4743 7.39762 15.3754 7.4795 15.4061 7.64325C15.4743 7.59208 15.488 7.64325 15.5392 7.64325C15.5733 7.6262 15.5562 7.66031 15.5562 7.69102C15.5562 7.77289 15.7336 7.93665 15.8974 7.91959C16.0782 7.91959 16.1601 7.98783 16.1908 8.02194C16.242 8.06629 16.2078 8.05265 16.242 8.13452C16.2897 8.18229 16.3068 8.19935 16.2249 8.26417C16.1877 8.29522 16.1577 8.33409 16.1371 8.37801C16.1166 8.42193 16.1059 8.46983 16.1059 8.51833C16.1059 8.56683 16.1166 8.61473 16.1371 8.65865C16.1577 8.70257 16.1877 8.74144 16.2249 8.7725C16.4364 8.93284 16.9755 9.18189 17.5827 8.70426C18.1695 8.24711 19.0838 8.5098 19.1521 8.67015C19.2339 8.83732 19.2646 8.93284 19.2817 9.01472C19.2988 9.08295 19.3806 9.14777 19.4966 9.13071C19.6092 9.13071 19.7389 9.17848 19.8037 9.22965C19.889 9.27741 20.0016 9.26377 19.9708 9.11366C19.9026 8.6565 19.6263 8.59168 19.5956 8.38016C19.7559 8.39381 19.8685 8.39381 19.9367 8.32899C19.9845 8.26417 20.0493 8.14817 20.1176 8.11747C20.1653 8.08335 20.1653 8.04923 20.1005 8.06629C20.0186 8.08335 19.9709 8.11747 19.8207 8.10041C19.0702 8.01853 16.9618 7.44538 16.5524 7.56137Z" fill="#059334" stroke="black" stroke-width="0.127367"/>
<path d="M19.8891 8.11753C19.7644 8.20551 19.6578 8.31671 19.5752 8.44504C19.4149 8.65656 18.9236 8.86808 18.3163 8.86808C17.7295 8.86808 17.3713 8.77256 17.1086 8.56104C16.9965 8.47136 16.8753 8.39361 16.747 8.32905C16.5696 8.24717 16.5355 8.06635 16.5832 7.91965C16.5355 8.00153 16.5048 8.08341 16.4058 8.06635C16.3376 8.06635 16.2079 8.06635 16.2421 8.13459C16.225 8.10047 16.225 8.05271 16.2079 8.03224L16.1738 8.00153C16.225 8.03565 16.341 7.93671 16.4229 7.93671C16.4877 7.95377 16.5696 7.87189 16.5525 7.77295L16.5048 7.56144C16.6344 7.4932 18.3504 7.80707 18.695 7.83778C19.0362 7.85483 20.0187 8.00153 19.8891 8.11753Z" fill="black" stroke="black" stroke-width="0.127367"/>
<path d="M16.7812 7.49658C16.945 7.33282 17.1394 7.25095 17.3373 7.29871H17.3851C17.4874 7.21683 17.7126 7.19977 17.8456 7.26459H17.9105C18.1049 7.19977 18.4802 7.26459 18.6133 7.39764L18.661 7.43176C19.1045 7.39764 19.3638 7.59211 19.6743 7.90597C19.7084 7.94009 19.7561 8.0015 19.838 8.01856C19.937 8.03562 19.954 8.08679 19.8721 8.13455C19.741 8.21568 19.6254 8.31967 19.531 8.4416C19.3809 8.63947 18.9067 8.83734 18.3164 8.83734C17.7467 8.83734 17.4021 8.735 17.1394 8.54053C16.9927 8.42795 16.8802 8.36313 16.7983 8.31196C16.6993 8.27784 16.5697 8.1482 16.6175 8.01856C16.6516 7.88892 16.5697 7.72516 16.5049 7.5614C16.5526 7.52729 16.6823 7.47952 16.7471 7.51364L16.7812 7.49658Z" fill="#059334" stroke="black" stroke-width="0.127367"/>
<path d="M19.6743 7.90597C19.3673 7.59211 19.1046 7.39765 18.661 7.42835C18.661 7.44541 18.661 7.49658 18.644 7.5307C18.9531 7.6694 19.2271 7.87577 19.4457 8.13455C19.514 8.06632 19.6265 7.98785 19.6743 7.90597ZM18.6133 7.39764C18.4802 7.268 18.105 7.19977 17.9105 7.268C17.9105 7.33282 17.9105 7.43176 17.8764 7.49658C17.9924 7.54434 18.0879 7.66034 18.1868 7.77292C18.2551 7.75586 18.4154 7.7081 18.4973 7.69104C18.5462 7.59759 18.585 7.49925 18.6133 7.39764ZM17.8457 7.26459C17.7126 7.19977 17.484 7.21683 17.3851 7.29871C17.351 7.36694 17.3373 7.49658 17.3373 7.5614C17.4056 7.5614 17.5011 7.60916 17.5318 7.64328C17.6342 7.60916 17.7638 7.54434 17.8116 7.49658C17.8286 7.42835 17.8593 7.33282 17.8457 7.268V7.26459ZM16.7812 7.49658C16.945 7.33282 17.1395 7.25095 17.3373 7.29871C17.3032 7.34988 17.2896 7.44541 17.2896 7.54434C17.1088 7.52729 16.8802 7.57846 16.7812 7.64328V7.49658Z" fill="#00493D" stroke="black" stroke-width="0.127367"/>
<path d="M19.3808 8.16529C19.1753 7.92193 18.9192 7.72634 18.6303 7.59214C18.6303 7.6092 18.5962 7.67402 18.5791 7.72519C18.678 7.87189 18.8725 8.1994 18.9544 8.38022C19.0363 8.3461 19.2648 8.24717 19.3808 8.16529ZM18.139 8.52692C18.1673 8.30394 18.1832 8.07957 18.1868 7.85483C18.2686 7.83777 18.4324 7.79001 18.4972 7.77295C18.5791 7.90601 18.777 8.25058 18.8589 8.41092C18.661 8.45869 18.3335 8.54057 18.139 8.52692ZM17.5659 7.74225C17.6477 7.70813 17.7637 7.6399 17.8422 7.57849C17.9104 7.62625 18.0401 7.74225 18.0878 7.80707C18.0878 7.95377 18.0401 8.38022 18.023 8.52351C17.8934 8.52351 17.6819 8.4928 17.5659 8.42798C17.5829 8.18235 17.6 7.90601 17.5659 7.74225ZM16.7471 7.93671C16.7641 7.90259 16.7812 7.79001 16.7812 7.74225C16.9108 7.66037 17.2383 7.57849 17.484 7.70813C17.501 7.87189 17.484 8.28128 17.4669 8.38022C17.2481 8.20228 17.0073 8.05322 16.7505 7.93671H16.7471Z" fill="#00493D" stroke="black" stroke-width="0.127367"/>
<path d="M15.9322 7.63984C15.8981 7.63984 15.8811 7.54431 15.8163 7.54431C15.7992 7.54431 15.7514 7.56137 15.7344 7.54431C15.7344 7.57843 15.7514 7.61254 15.7685 7.62619C15.7855 7.67395 15.8674 7.64325 15.9322 7.64325V7.63984Z" fill="black"/>
<path d="M15.9319 7.91959C16.1264 7.91959 16.1605 7.67396 16.2594 7.66031M16.0445 7.93665C16.1912 8.00488 16.3072 7.66031 16.4198 7.67396M15.7511 7.51361C15.7989 7.51361 15.833 7.44538 15.9149 7.52726C15.949 7.56137 15.9967 7.57843 16.0309 7.57843M15.9967 7.75583C15.9285 7.85818 15.8159 7.91959 15.7511 7.88889M15.717 7.34985C15.6692 7.38397 15.6385 7.44538 15.6044 7.49655M15.5566 7.59208V7.67396" stroke="black" stroke-width="0.127367"/>
<path d="M21.014 9.72094V12.9074C21.014 15.6708 19.7073 16.6192 17.9572 17.3698C16.207 16.6192 14.8867 15.6708 14.8867 12.9074V9.71753H21.014V9.72094Z" fill="white"/>
<path d="M17.9576 12.4161C18.1043 12.4161 18.3329 12.2865 18.5308 12.0886C18.7423 11.86 19.1039 11.7816 19.4792 12.0886C19.8545 12.3991 20.0831 12.2694 20.281 12.0886C20.4754 11.9112 20.6392 11.843 21.0145 11.843V9.72095H14.8838V11.8464C15.2591 11.8464 15.4228 11.9146 15.6207 12.092C15.8152 12.2728 16.0437 12.4025 16.4224 12.092C16.8148 11.785 17.1559 11.8634 17.3845 12.092C17.5653 12.2899 17.7939 12.4195 17.9576 12.4195V12.4161Z" fill="#C8102E"/>
<path d="M17.9576 14.0537C18.1555 14.0537 18.5479 13.8388 18.6434 13.791C19.005 13.5761 19.2643 13.774 19.4792 13.8729C19.7078 13.9684 20.1308 14.0844 20.3935 13.8729C20.6562 13.658 20.8029 13.675 20.9837 13.675C21.0179 13.4294 21.0179 13.1838 21.0179 12.9074V12.7096C20.7859 12.6618 20.6733 12.7266 20.4277 12.9415C20.182 13.1531 19.9023 13.1053 19.5406 12.9757C19.1995 12.8256 18.8583 12.5663 18.5137 12.9757C18.3708 13.1354 18.1714 13.2332 17.9576 13.2486C17.712 13.2486 17.5005 13.0882 17.4016 12.9757C17.0433 12.5663 16.7158 12.8256 16.3712 12.9757C16.013 13.1053 15.7162 13.1531 15.474 12.9415C15.2454 12.7266 15.1294 12.6618 14.8838 12.7096V12.9074C14.8838 13.1838 14.9008 13.4294 14.9316 13.675C15.1124 13.675 15.2454 13.658 15.5047 13.8729C15.7674 14.0844 16.2075 13.9684 16.4224 13.8729C16.651 13.774 16.9103 13.5761 17.2719 13.791C17.3709 13.8388 17.7461 14.0503 17.9576 14.0503V14.0537ZM17.9576 14.7565C18.2409 14.7412 18.5162 14.6569 18.7594 14.5109C19.0869 14.3301 19.3155 14.4085 19.643 14.5757C19.9841 14.7395 20.2639 14.6883 20.4618 14.5757C20.5573 14.5075 20.6392 14.3778 20.8507 14.429C20.7552 14.8384 20.6051 15.1966 20.4277 15.49C20.2883 15.5362 20.1411 15.5543 19.9947 15.5432C19.8483 15.532 19.7055 15.4919 19.5748 15.4252C19.2336 15.2614 18.8071 15.1625 18.5786 15.3092C18.3932 15.4299 18.1787 15.4982 17.9576 15.5071C17.7768 15.5071 17.5483 15.4388 17.3367 15.3092C17.1082 15.1625 16.6817 15.2614 16.3405 15.4252C16.21 15.4925 16.0674 15.5332 15.9209 15.5449C15.7745 15.5566 15.6272 15.5391 15.4876 15.4934C15.3102 15.1966 15.1635 14.835 15.0646 14.429C15.2761 14.3778 15.358 14.5109 15.4569 14.5757C15.5793 14.6448 15.7173 14.6811 15.8578 14.6811C15.9983 14.6811 16.1364 14.6448 16.2587 14.5757C16.5998 14.412 16.8284 14.3301 17.1559 14.5075C17.3988 14.6547 17.6741 14.7402 17.9576 14.7565ZM17.9576 17.3698C18.59 17.1248 19.1804 16.7829 19.7078 16.3566C19.5748 16.3088 19.4963 16.3395 19.3803 16.2576C19.2643 16.1758 18.9231 16.145 18.6297 16.3088C18.4263 16.4275 18.1949 16.49 17.9594 16.49C17.7238 16.49 17.4925 16.4275 17.289 16.3088C16.9922 16.145 16.651 16.1758 16.5384 16.2576C16.4224 16.3395 16.3405 16.3088 16.2075 16.36C16.7328 16.7885 17.3237 17.1295 17.9576 17.3698Z" fill="#0B50A0"/>
<path d="M17.531 10.5192C17.5481 10.5533 17.5174 10.6352 17.531 10.6659C17.5651 10.7342 17.5651 10.7683 17.6129 10.799H17.7289C18.0871 10.799 18.5136 10.6523 18.8718 10.6523C19.2164 10.6523 19.4279 10.7649 19.6223 10.7649C19.7383 10.7649 19.8373 10.683 19.8373 10.6011C19.8373 10.5192 19.7076 10.4715 19.4279 10.4715C19.0355 10.4715 18.824 10.5704 18.4965 10.5704C18.0052 10.5704 17.9234 10.3896 17.9234 10.3077C17.9234 10.2258 18.0052 10.1132 18.2679 10.1132C18.3498 10.1132 18.4146 10.0962 18.4487 10.0621C18.4658 10.028 18.5136 9.96314 18.6125 9.91537C18.7251 9.84714 18.9537 9.91537 19.0697 9.8335C19.0697 9.90173 18.9707 9.99725 18.8888 10.0314C19.0526 9.9802 19.23 9.9802 19.2641 10.1132C19.1822 10.0621 19.0526 10.0962 19.0048 10.1132C18.9366 10.1269 18.9059 10.1474 18.8411 10.161C18.9059 10.144 18.94 10.2736 19.0355 10.2736C18.94 10.3555 18.7763 10.3555 18.6125 10.2907C18.5613 10.2736 18.4317 10.2258 18.3498 10.2258C18.186 10.2258 18.0871 10.2599 18.0871 10.3248C18.0871 10.4066 18.1895 10.4544 18.4794 10.4544C18.7763 10.4544 18.94 10.3725 19.3801 10.3725C19.346 10.3248 19.3972 10.2736 19.3324 10.2258C19.4961 10.2258 19.6735 10.2736 19.7417 10.3896C19.7247 10.2736 19.8202 10.1781 19.7895 10.0791C19.8884 10.0962 19.9703 10.1917 19.984 10.2736C19.984 10.2258 20.0522 10.2258 20.0522 10.1781C20.0978 10.2027 20.1347 10.2409 20.1579 10.2872C20.1811 10.3336 20.1895 10.386 20.1818 10.4374C20.2296 10.3555 20.2808 10.3896 20.3115 10.2907C20.3456 10.3589 20.3285 10.5533 20.2125 10.6182C20.3149 10.5499 20.4582 10.5499 20.5571 10.6659C20.4582 10.6523 20.4104 10.7 20.3627 10.7171C20.1246 10.8388 19.8586 10.8953 19.5916 10.8809C19.3324 10.8638 19.2982 10.8126 19.1345 10.8126C19.2334 10.8297 19.4279 11.0276 19.6121 11.0276C19.7247 11.0276 19.8066 11.0276 19.8543 11.0105C19.9021 10.9934 19.984 11.0105 20.0488 11.0446C20.1 11.0924 20.1989 11.1401 20.2637 11.1265C20.2467 11.1913 20.2125 11.222 20.1648 11.2391C20.2467 11.2903 20.1989 11.321 20.2808 11.3858C20.2467 11.3858 20.2125 11.4199 20.1648 11.4028C20.2125 11.4506 20.2125 11.5188 20.2637 11.5495C20.2467 11.5495 20.1955 11.5666 20.1648 11.5495C20.2125 11.6178 20.1648 11.6962 20.2125 11.7304C20.2637 11.7986 20.1648 11.877 20.0829 11.8122C20.1 11.86 20.0488 11.9112 20.001 11.8941C19.9533 11.8771 19.9191 11.8259 19.9328 11.8122C19.9328 11.7952 19.9328 11.7952 19.9533 11.7781C19.9191 11.8293 19.8543 11.8293 19.8202 11.8122C19.8066 11.7952 19.7861 11.7781 19.7861 11.7645C19.6735 11.7986 19.6257 11.6962 19.6428 11.6485C19.6565 11.6007 19.7554 11.5802 19.7895 11.6007C19.8236 11.6144 19.8543 11.6348 19.8884 11.6007C19.9226 11.5837 19.9362 11.5495 19.9362 11.5188C19.9362 11.4677 19.8884 11.321 19.6735 11.338C19.4279 11.3551 19.0355 11.2903 18.8411 11.222C18.824 11.2084 18.807 11.2084 18.7899 11.1879C18.7899 11.2561 18.7251 11.2903 18.7251 11.3551C18.7251 11.437 18.7592 11.5018 18.8581 11.5325C18.807 11.6144 18.7251 11.6007 18.6944 11.5495C18.6944 11.6007 18.6261 11.6314 18.6261 11.6962C18.6125 11.6621 18.592 11.6485 18.5784 11.6144C18.5306 11.7304 18.3976 11.7952 18.3327 11.7645C18.2509 11.8293 18.1553 11.8122 18.1212 11.7474C18.0735 11.7815 18.0052 11.7815 17.9745 11.7474C17.9745 11.7952 17.9404 11.7815 17.9234 11.8463C17.9234 11.8805 17.8585 11.8941 17.8278 11.8805C17.7937 11.86 17.7767 11.7952 17.8108 11.7645C17.763 11.7986 17.7118 11.7986 17.6811 11.7645C17.6811 11.7304 17.6811 11.6826 17.7152 11.6621H17.746C17.7118 11.6485 17.6641 11.6621 17.63 11.6485C17.5958 11.6144 17.5958 11.5802 17.6129 11.5495C17.63 11.5325 17.6811 11.5018 17.7152 11.5325L17.7289 11.5495C17.7289 11.5154 17.746 11.4847 17.763 11.4847C17.7971 11.4677 17.8415 11.4677 17.8927 11.5188C17.9268 11.5666 17.9575 11.5666 18.0564 11.5529C18.1383 11.5529 18.2679 11.4677 18.3635 11.3858C18.0905 11.338 18.2509 11.1572 18.3327 11.0924C18.2679 11.0753 18.169 11.0753 18.1042 11.1094C17.763 11.2903 17.4014 11.5018 17.1728 11.437C17.176 11.4712 17.1877 11.504 17.2069 11.5325C17.1557 11.5325 17.0568 11.5325 17.0261 11.4847C17.009 11.5188 16.9783 11.6007 17.009 11.6655C16.9749 11.6314 16.8794 11.5973 16.8282 11.5837C16.8623 11.6178 16.8282 11.6826 16.8453 11.7304C16.7975 11.6826 16.7156 11.6485 16.6815 11.6826C16.6474 11.7167 16.5826 11.7304 16.5348 11.7167C16.503 11.7617 16.4576 11.7952 16.4052 11.8122C16.4052 11.7781 16.4052 11.7304 16.3881 11.7133C16.3711 11.7645 16.3199 11.8293 16.2585 11.86C16.2585 11.8259 16.2585 11.7781 16.2414 11.7474C16.2414 11.8122 16.1118 11.8463 16.0947 11.8941C16.1118 11.8463 16.1118 11.7952 16.1118 11.7645C16.0937 11.7935 16.0698 11.8184 16.0416 11.8378C16.0135 11.8572 15.9816 11.8705 15.948 11.8771C15.9617 11.8429 15.9821 11.8088 15.9617 11.7781C15.948 11.8463 15.8491 11.8805 15.7672 11.86C15.7672 11.8941 15.699 11.9419 15.6205 11.8941C15.5693 11.8771 15.5386 11.8259 15.5693 11.7952C15.5045 11.7952 15.4397 11.7304 15.4738 11.6826C15.4738 11.6655 15.4875 11.6485 15.4875 11.6314C15.4397 11.5973 15.4226 11.5325 15.4738 11.4847C15.4875 11.4677 15.5386 11.4677 15.5693 11.4677C15.5693 11.338 15.6853 11.338 15.7331 11.4335C15.7672 11.4847 15.8662 11.5666 15.948 11.5495C15.9822 11.5495 15.9958 11.5325 16.0299 11.5325C16.1767 11.484 16.3148 11.4126 16.4393 11.321C16.453 11.2732 16.453 11.2391 16.453 11.2084C16.3881 11.2425 16.3233 11.2732 16.2892 11.321V11.2732C16.2414 11.2732 16.1596 11.2561 16.1254 11.2561C16.1425 11.2391 16.1596 11.1572 16.1937 11.1401C16.1118 11.1572 16.0299 11.1401 15.9617 11.1265C15.9958 11.0924 15.9958 11.0446 16.0129 10.9934C15.9787 11.0105 15.8969 10.9798 15.832 10.9934C15.8491 10.9457 15.8662 10.8809 15.9139 10.8638C15.8457 10.8809 15.7672 10.8638 15.6853 10.8297C15.7536 10.8297 15.7843 10.7478 15.832 10.7478C15.7024 10.7478 15.6683 10.683 15.6035 10.6523C15.6512 10.6659 15.6853 10.6182 15.7331 10.6182C15.6853 10.6011 15.6035 10.5192 15.6376 10.4715C15.6205 10.4885 15.6035 10.5192 15.5693 10.5397C15.5352 10.5533 15.4738 10.5397 15.4226 10.4885C15.3885 10.4203 15.4056 10.3418 15.4738 10.3248C15.4588 10.3238 15.4445 10.3186 15.4324 10.3097C15.4203 10.3008 15.411 10.2886 15.4056 10.2746C15.4002 10.2606 15.399 10.2454 15.402 10.2307C15.405 10.216 15.4122 10.2025 15.4226 10.1917C15.4397 10.1576 15.5045 10.1132 15.5386 10.1576L15.5864 10.2258C15.5693 10.1917 15.5693 10.1269 15.5693 10.0791C15.5864 10.0314 15.6205 10.0314 15.6717 10.0109C15.716 10.0109 15.7502 10.0621 15.7502 10.1132C15.7502 10.161 15.7672 10.1917 15.7843 10.2599L15.7979 10.1917C15.7979 10.1269 15.8798 10.144 15.931 10.1576C15.9787 10.1781 15.9958 10.2736 15.931 10.3248C15.8969 10.3589 15.9139 10.4066 15.948 10.4374C16.0606 10.6182 16.2551 10.7649 16.4222 10.7819C16.4222 10.7137 16.4564 10.6523 16.5041 10.6011C16.5041 10.567 16.5178 10.5192 16.5382 10.4885C16.5519 10.3896 16.5997 10.3418 16.6645 10.3725C16.6508 10.3555 16.6304 10.3384 16.6304 10.3248C16.5826 10.2736 16.5348 10.1917 16.5689 10.1269C16.6031 10.0621 16.6986 10.0791 16.7327 10.1132C16.7156 10.0109 16.8282 9.93243 16.8282 9.88126C16.8453 9.93243 16.8794 9.99725 16.8623 10.045C16.8794 9.9802 16.992 9.89832 17.0739 9.86761C17.0397 9.91537 17.1421 9.99725 17.125 10.045C17.1592 9.96314 17.2888 9.91537 17.3843 9.91537C17.3502 9.94949 17.3502 10.0143 17.3502 10.045C17.4014 10.045 17.4867 10.0314 17.5174 9.9802C17.5174 10.0484 17.4833 10.1132 17.4491 10.144C17.4662 10.1269 17.531 10.1269 17.5822 10.1269C17.531 10.1781 17.5481 10.2292 17.5003 10.2599C17.5651 10.2258 17.647 10.2258 17.6641 10.2941C17.6982 10.3418 17.647 10.4237 17.6129 10.4715C17.5788 10.4885 17.5481 10.5192 17.531 10.5192Z" fill="#F9D050" stroke="black" stroke-width="0.127367"/>
<path d="M16.5207 10.7172C16.4047 10.7649 16.3706 10.8809 16.3535 10.9457" stroke="black" stroke-width="0.127367"/>
<path d="M16.5043 10.8297C16.3405 10.9321 16.2723 11.0105 16.3064 11.1913M16.5828 11.3244C16.6851 11.2903 16.7465 11.2562 16.8284 11.1095" stroke="black" stroke-width="0.127367"/>
<path d="M16.7802 11.1743C16.7461 11.2425 16.7802 11.3551 16.7324 11.4029C16.7763 11.3811 16.8142 11.3488 16.8427 11.309C16.8713 11.2691 16.8896 11.2229 16.8962 11.1743" stroke="black" stroke-width="0.127367"/>
<path d="M16.8145 11.3551C16.8793 11.321 16.9782 11.222 17.026 11.1094C17.0089 11.1572 17.026 11.2391 16.9919 11.2903C17.0737 11.2084 17.1079 11.1572 17.1249 11.0753L17.1386 11.1436C17.1727 11.1094 17.2068 11.0753 17.2068 11.0105M17.2034 11.0583V11.1401C17.2716 11.0924 17.2887 11.0276 17.2887 10.9457" stroke="black" stroke-width="0.127367"/>
<path d="M17.2718 11.0446C17.3707 10.9764 17.3844 10.8809 17.3844 10.7342M17.3844 10.8979C17.4526 10.8467 17.4662 10.816 17.4662 10.6659M17.2547 10.2258C17.2206 10.2258 17.1865 10.2429 17.1865 10.2941C17.1865 10.3248 17.1387 10.3725 17.1387 10.4237C17.1251 10.4885 17.091 10.5056 17.0432 10.4885C16.992 10.4544 16.992 10.4544 16.992 10.4066C16.992 10.3384 17.0739 10.3248 17.0739 10.2599C17.091 10.2258 17.108 10.1781 17.1251 10.1781C17.0432 10.2258 16.9272 10.1917 16.9102 10.0962" stroke="black" stroke-width="0.127367"/>
<path d="M17.4015 10.2736C17.3674 10.2906 17.3333 10.2395 17.2889 10.2599C17.2719 10.2599 17.2207 10.2736 17.207 10.2599" stroke="black" stroke-width="0.127367"/>
<path d="M17.1728 10.3554C17.1898 10.3725 17.2717 10.4066 17.3536 10.3725C17.2853 10.3896 17.2376 10.3077 17.3024 10.2599M17.0261 10.1917C16.9578 10.1917 16.9101 10.2429 16.9271 10.294C16.9442 10.3418 17.009 10.3418 17.0568 10.3077M16.9101 11.0105C16.9271 10.9934 16.9442 10.9627 16.9442 10.9422C16.9783 10.9422 17.0124 10.9286 17.0261 10.9115C17.0909 10.9115 17.1386 10.8638 17.1557 10.816C17.1898 10.816 17.2069 10.7341 17.2239 10.7C17.2376 10.7171 17.2717 10.7 17.2888 10.6318C17.3229 10.6523 17.3706 10.6318 17.3843 10.584M16.7156 10.4714C16.7156 10.4885 16.6815 10.5192 16.6474 10.5397C16.6644 10.5704 16.6474 10.6523 16.6167 10.6659C16.6337 10.7 16.6167 10.7478 16.5996 10.7819C16.5996 10.799 16.6167 10.8501 16.6167 10.8638M16.7804 10.1439C16.7463 10.2258 16.7634 10.3247 16.8282 10.3418" stroke="black" stroke-width="0.127367"/>
<path d="M16.8144 10.4032C16.7973 10.4885 16.7973 10.6011 16.7803 10.6523C16.7632 10.6864 16.7325 10.799 16.8622 10.8297C17.0089 10.8638 17.0907 10.8467 17.1726 10.6011M17.4183 11.2391C17.4183 11.2561 17.4012 11.2903 17.3705 11.2903M17.5308 11.2084C17.5308 11.2425 17.4967 11.2903 17.4831 11.3039M17.6468 11.1743C17.6468 11.2084 17.6468 11.2561 17.6127 11.2732M16.6506 10.161C16.6643 10.161 16.6848 10.1951 16.6984 10.2258C16.6506 10.1917 16.5995 10.2736 16.6302 10.3248M16.5995 10.4374L16.5346 10.4885M16.5517 10.5841C16.5346 10.5841 16.5176 10.6011 16.5039 10.6011M15.767 10.2907C15.767 10.2736 15.767 10.2736 15.7841 10.2565M15.6203 10.2429C15.6033 10.2429 15.6033 10.2429 15.5862 10.2258M15.634 10.4715H15.6681M15.5692 10.3725C15.5432 10.3468 15.5098 10.3301 15.4736 10.3248M16.4698 10.9798C16.3538 11.0753 16.3061 11.1572 16.289 11.2732M16.5824 11.0583C16.5534 11.119 16.5087 11.1709 16.4528 11.2084M15.9478 11.5495C15.8932 11.5671 15.8353 11.572 15.7785 11.5637C15.7218 11.5554 15.6676 11.5342 15.6203 11.5018C15.6033 11.4847 15.5862 11.4847 15.5692 11.4677M16.4357 11.3244C16.4221 11.3858 16.4016 11.4677 16.3709 11.4847C16.5039 11.4165 16.6165 11.321 16.6336 11.1743M15.4873 11.6314C15.5385 11.6144 15.5896 11.6485 15.6203 11.6144M18.3326 11.0924C18.3667 11.1094 18.4144 11.1265 18.4315 11.1401C18.4486 11.106 18.5134 11.0583 18.5611 11.0446M17.1726 11.437C17.1556 11.3687 17.1897 11.2903 17.2886 11.2561M16.5346 11.7133C16.5517 11.6792 16.5517 11.6314 16.5688 11.6007M15.8148 11.7645C15.7977 11.7986 15.767 11.8293 15.767 11.86M15.5692 11.7952C15.5692 11.7952 15.5692 11.7781 15.5862 11.7781C15.6203 11.7645 15.6681 11.7304 15.6852 11.6962M17.7935 11.5666C17.7594 11.5837 17.7458 11.5666 17.7287 11.5495M17.7765 11.6485C17.7765 11.6485 17.7628 11.6655 17.7424 11.6655M17.8583 11.7304C17.8413 11.7474 17.8242 11.7645 17.8106 11.7645M18.3326 11.7645C18.3667 11.7474 18.3837 11.7133 18.4008 11.6485M18.121 11.7474C18.1688 11.7304 18.2029 11.6962 18.2507 11.6485M18.5782 11.6144C18.5782 11.5802 18.5782 11.5495 18.5953 11.5188M19.7893 11.7645C19.7552 11.7304 19.7552 11.6826 19.8064 11.6485C19.8405 11.6314 19.8541 11.6144 19.8883 11.6007" stroke="black" stroke-width="0.127367"/>
<path d="M18.7896 11.1879C18.5303 11.0753 18.5474 10.9286 18.3325 10.9457M19.953 11.6996C19.97 11.7133 19.953 11.7645 19.953 11.7781M20.0997 11.6996C20.0826 11.7474 20.0826 11.7645 20.0826 11.8122M18.8408 10.161H18.7043M17.4659 10.7171C17.4659 10.7512 17.5171 10.816 17.6467 10.816C17.6297 10.816 17.6126 10.799 17.6126 10.799M17.5307 10.5192C17.5171 10.5363 17.4966 10.5192 17.4966 10.5192C17.4659 10.4851 17.5171 10.4237 17.5649 10.3896C17.5171 10.4066 17.483 10.4066 17.4489 10.4066C17.4148 10.5056 17.3192 10.5533 17.2544 10.4885C17.2373 10.5533 17.1555 10.6352 17.0907 10.6182C17.0224 10.5841 17.0088 10.5363 17.0224 10.4885C16.944 10.5841 16.845 10.5226 16.8143 10.4885C16.7973 10.4544 16.8143 10.3725 16.8484 10.2736" stroke="black" stroke-width="0.127367"/>
<path d="M18.5779 11.1401C18.5302 11.1743 18.479 11.1401 18.4312 11.1913C18.3971 11.2254 18.4483 11.2391 18.479 11.2391C18.4653 11.2902 18.4653 11.3073 18.5472 11.3073C18.5131 11.3551 18.612 11.3721 18.595 11.4369C18.6155 11.4156 18.6296 11.389 18.6357 11.36C18.6417 11.331 18.6394 11.3009 18.6291 11.2732C18.612 11.222 18.5267 11.1913 18.5779 11.1401Z" fill="black"/>
<path d="M17.0908 10.6182C17.0226 10.5841 17.0089 10.5363 17.0226 10.4886C17.0089 10.5227 16.9782 10.5363 16.9441 10.5363C16.8759 10.683 16.7974 10.8161 16.6985 10.8161C16.5825 10.8297 16.5996 10.9457 16.6814 10.9457C16.8622 10.9799 16.9441 10.9116 17.0908 10.6182ZM15.4737 10.2259C15.5215 10.1781 15.4874 10.127 15.4567 10.1133C15.4055 10.0962 15.31 10.1133 15.2588 10.1918C15.31 10.1781 15.3611 10.1781 15.3748 10.2088C15.3918 10.2429 15.4225 10.2771 15.4737 10.2259ZM15.5556 9.93249C15.6682 9.93249 15.7023 9.94955 15.7159 9.99731C15.733 10.0314 15.7023 10.0792 15.6682 10.0792C15.6204 10.0792 15.5692 10.0451 15.5863 10.0314C15.6034 9.99731 15.6034 9.94955 15.5522 9.92908L15.5556 9.93249ZM15.8797 10.1918C15.9616 10.2088 15.9957 10.1577 15.9479 10.0962C15.9309 10.0451 15.8797 10.0144 15.7978 10.028C15.8797 10.0792 15.7978 10.1611 15.8797 10.1918ZM15.2758 10.4715C15.2905 10.5005 15.3151 10.5234 15.3451 10.5359C15.3751 10.5484 15.4087 10.5498 15.4396 10.5398C15.4874 10.5193 15.5078 10.4715 15.4874 10.4374C15.4533 10.3896 15.4055 10.3726 15.3918 10.4374C15.3577 10.5056 15.31 10.4886 15.2758 10.4715ZM15.5215 11.4677C15.4874 11.4029 15.3918 11.4029 15.31 11.4677C15.3441 11.4507 15.4055 11.4677 15.4225 11.5018C15.4396 11.5359 15.4737 11.5359 15.4908 11.5359C15.5044 11.5189 15.5385 11.5018 15.5215 11.4677ZM15.6511 11.3722C15.6511 11.2903 15.5385 11.2698 15.4737 11.304C15.5078 11.304 15.5556 11.3381 15.5556 11.3722C15.5692 11.4063 15.6034 11.4199 15.6204 11.4199C15.6545 11.4029 15.6682 11.3858 15.6545 11.3722H15.6511ZM15.4874 11.6656C15.3918 11.6485 15.3407 11.7645 15.3407 11.843C15.3577 11.7952 15.4089 11.7645 15.4567 11.7782C15.5044 11.7782 15.5215 11.7645 15.5215 11.7304C15.5385 11.6963 15.5215 11.6826 15.4874 11.6622V11.6656ZM15.5044 11.9419C15.5385 11.959 15.5727 11.9249 15.5863 11.8771C15.5863 11.843 15.6545 11.843 15.6682 11.86C15.7023 11.8771 15.7023 11.9419 15.6511 11.976C15.617 11.9931 15.5385 12.0102 15.5044 11.9419ZM17.7766 11.4507C17.7424 11.437 17.664 11.4029 17.5992 11.4507C17.6469 11.437 17.681 11.4677 17.6947 11.5018C17.6947 11.5359 17.7459 11.5496 17.7629 11.5189C17.7766 11.5018 17.797 11.4677 17.7766 11.4507ZM17.6299 11.5666C17.565 11.5325 17.4832 11.6144 17.4661 11.6826C17.4994 11.6554 17.5395 11.6378 17.5821 11.6315C17.6162 11.6485 17.6469 11.6315 17.6469 11.5974C17.664 11.5837 17.664 11.5666 17.6299 11.5666ZM17.7151 11.6997C17.664 11.6997 17.5992 11.7645 17.5992 11.8293C17.6128 11.7952 17.6469 11.7782 17.681 11.7952C17.7151 11.7952 17.7629 11.7782 17.7629 11.7475C17.7629 11.7133 17.7459 11.6963 17.7117 11.6963L17.7151 11.6997ZM17.8584 11.8293C17.8243 11.8123 17.7766 11.8293 17.7766 11.8771C17.7766 11.9249 17.7766 11.976 17.7629 11.9931C17.797 11.959 17.8277 11.9419 17.8584 11.9249C17.8755 11.9112 17.8926 11.86 17.8584 11.8293ZM19.7075 11.6826C19.6734 11.6485 19.6256 11.6656 19.6086 11.6963C19.5915 11.7304 19.5745 11.8123 19.6086 11.8771C19.6086 11.843 19.6427 11.7952 19.6768 11.7952C19.7246 11.7782 19.7382 11.7133 19.7075 11.6826ZM19.8065 11.7475C19.7382 11.7816 19.7382 11.8942 19.7894 11.959C19.7894 11.9249 19.8065 11.8771 19.8372 11.86C19.8883 11.86 19.9054 11.7952 19.8883 11.7645C19.8542 11.7304 19.8201 11.7475 19.8065 11.7475ZM20.0009 11.8123C19.9668 11.7952 19.9327 11.8293 19.9327 11.86C19.919 11.9112 19.9532 11.976 20.0009 12.0067C20.0009 11.9726 20.018 11.9419 20.035 11.9249C20.0828 11.8908 20.0692 11.8293 20.0009 11.8123ZM20.1476 11.7952C20.1135 11.7952 20.0828 11.843 20.1135 11.8942C20.1306 11.9283 20.1647 11.9419 20.2295 11.9283C20.2124 11.9283 20.1817 11.8771 20.1954 11.86C20.2124 11.8259 20.1954 11.7952 20.1476 11.7952Z" fill="#073163"/>
<path d="M15.604 14.852L16.4228 12.3342L17.2416 14.852L15.0957 13.2997H17.7499L15.604 14.852Z" fill="#F9D050"/>
<path d="M15.7673 14.6234L17.4663 13.3815H15.375L17.0569 14.6234L16.4224 12.631L15.7673 14.6234Z" fill="#024919"/>
<path d="M15.604 14.852L16.4228 12.3342L17.2416 14.852L15.0957 13.2997H17.7499L15.604 14.852Z" fill="#F9D050"/>
<path d="M15.7673 14.6234L17.4663 13.3815H15.375L17.0569 14.6234L16.4224 12.631L15.7673 14.6234Z" fill="#024919"/>
<path d="M15.604 14.852L16.4228 12.3342L17.2416 14.852L15.0957 13.2997H17.7499L15.604 14.852Z" fill="#F9D050"/>
<path d="M15.7673 14.6234L17.4663 13.3815H15.375L17.0569 14.6234L16.4224 12.631L15.7673 14.6234Z" fill="#024919"/>
<path d="M21.014 9.72094V12.9074C21.014 15.6708 19.7073 16.6192 17.9572 17.3698C16.207 16.6192 14.8867 15.6708 14.8867 12.9074V9.71753H21.014V9.72094Z" stroke="black" stroke-width="0.127367"/>
</g>
<defs>
<clipPath id="clip0_208_28077">
<rect width="24" height="24" rx="12" fill="white"/>
</clipPath>
</defs>
</svg>
