<svg width="24" height="24" viewBox="0 0 24 24" fill="none" xmlns="http://www.w3.org/2000/svg">
<g clip-path="url(#clip0_208_20047)">
<path d="M0 0H24V24H0V0Z" fill="#E32118"/>
<path d="M0 0H24V15.9984H0V0Z" fill="white"/>
<path d="M0 0H24V8.00156H0V0Z" fill="#3E9A00"/>
<path d="M0 0V24L7.5 12L0 0Z" fill="#0073CE"/>
<path d="M10.0781 9.58594H13.9078V13.5984C13.9078 14.9484 12.15 13.9078 12 14.6297C11.7375 13.8891 10.0875 14.9578 10.0875 13.5187L10.0781 9.58594Z" fill="white" stroke="black" stroke-width="0.125"/>
<path d="M12.2674 13.9875C12.2674 13.9875 12.2205 14.0391 12.1268 14.0016C12.0377 13.9594 12.0283 11.4281 12.0283 11.4281C12.2299 11.2078 12.3893 11.1422 12.3893 11.1422L12.5064 11.236C12.0564 11.4703 12.0986 11.7985 12.1361 12.3703C12.1502 12.5813 12.1502 12.8485 12.1971 13.111C12.2674 13.4391 12.408 13.7203 12.4174 13.9313C12.4268 14.0625 12.2674 13.9922 12.2674 13.9922V13.9875Z" fill="#73452B" stroke="black" stroke-width="0.025"/>
<path d="M11.9582 11.0813H12.141C11.9863 12.5344 12.1176 13.3922 12.1176 13.8094C12.1176 13.95 12.1973 13.9969 12.1879 13.9969C12.0098 14.1985 11.916 13.9875 11.916 13.9875L11.9582 11.0813Z" fill="#73452B" stroke="black" stroke-width="0.025"/>
<path d="M11.6762 13.9875C11.5074 14.0719 11.4887 13.9125 11.4981 13.8938C11.8684 13.1438 12.0277 11.4891 11.6856 11.311L11.709 11.1516C11.8356 11.1891 11.9574 11.3579 11.9574 11.3579C12.0043 13.2094 11.9574 13.9688 11.9293 14.0016C11.7465 14.1891 11.6762 13.9688 11.6668 13.95" fill="#A36629"/>
<path d="M11.6762 13.9875C11.5074 14.0719 11.4887 13.9125 11.4981 13.8938C11.8684 13.1438 12.0277 11.4891 11.6856 11.311L11.709 11.1516C11.8356 11.1891 11.9574 11.3579 11.9574 11.3579C12.0043 13.2094 11.9574 13.9688 11.9293 14.0016C11.7465 14.1891 11.6762 13.9688 11.6668 13.95" stroke="black" stroke-width="0.025"/>
<path d="M11.6715 13.9594C11.6387 13.8 11.9293 13.3875 11.9059 12.9609M12.159 13.3125C12.2481 13.5609 12.2903 13.7812 12.2668 13.9922" stroke="black" stroke-width="0.025"/>
<path d="M12.5489 10.4016C12.6098 10.3313 12.6098 10.3313 12.7176 10.3313C12.7364 10.1813 12.9895 10.1813 13.0082 10.3688C13.2098 10.3313 13.2473 10.4485 13.1676 10.5703C13.3551 10.5235 13.5286 10.5703 13.477 10.7906C13.8192 10.8844 13.6879 11.1188 13.5379 11.1656C13.5192 11.3203 13.3786 11.3719 13.1864 11.3063C12.952 11.4797 12.8114 11.4188 12.6989 11.25C12.427 11.2875 12.4082 11.2313 12.2911 11.0813C12.0801 11.1703 12.0379 11.1703 11.8598 11.0578C11.8504 11.1985 11.7989 11.161 11.7098 11.1516C11.7192 11.3297 11.6489 11.4094 11.4895 11.3485C11.6067 11.6016 11.302 11.7094 11.1473 11.4985C11.0067 11.5078 10.9973 11.4703 10.927 11.4188C10.8707 11.6203 10.6457 11.5922 10.6082 11.4797C10.327 11.4375 10.3598 11.2922 10.5895 11.2781C10.6082 11.1188 10.7489 11.1516 10.8379 11.1703C10.8473 11.0719 10.9082 11.0906 10.9598 11.1094C10.927 11.0391 10.9504 11.0016 11.0395 10.9781C10.9082 10.8094 10.9926 10.7485 11.1192 10.6875C11.0489 10.5281 11.1661 10.5375 11.2598 10.5281C11.2504 10.3594 11.2973 10.3313 11.4801 10.3078C11.4567 10.2516 11.4895 10.2 11.5879 10.2C11.527 10.0313 11.6067 9.98908 11.7895 10.0219C11.8176 9.77345 12.352 9.89064 12.3051 10.2281C12.4598 10.2516 12.5067 10.2797 12.5489 10.4016Z" fill="#009A3B" stroke="black" stroke-width="0.025"/>
<path d="M11.4793 10.3125C11.5168 10.3313 11.5684 10.3125 11.5777 10.4203C11.6574 10.2797 11.7559 10.3594 11.7559 10.5188M12.309 10.2281C12.2668 10.2891 12.1215 10.2891 12.1355 10.4485C12.0887 10.3781 11.9902 10.3594 11.948 10.4297M12.548 10.4016C12.548 10.4391 12.5387 10.561 12.5012 10.6219M13.1668 10.5703C13.1762 10.5797 13.0262 10.5703 12.9559 10.6172M13.5371 11.1703C13.4996 11.1516 13.4152 11.1 13.359 11.1797C13.359 11.1375 13.359 11.0297 13.2465 11.0297M13.1902 11.311C13.1902 11.2078 13.1668 11.1797 13.1434 11.1516M12.8621 11.1703C12.7777 11.1094 12.698 11.1985 12.698 11.25M12.2762 11.0813C12.2762 11.0391 12.248 10.9594 12.3184 10.9313M11.1371 11.4985C11.1559 11.4 11.2309 11.4 11.2168 11.3485M11.2168 11.3485C11.2074 11.2688 11.1184 11.1985 11.0059 11.311M11.2168 11.3485C11.2777 11.3297 11.3387 11.3391 11.3574 11.3719M11.048 10.9781C11.0902 10.9406 11.1887 10.95 11.2496 10.9781M11.2496 10.7438C11.2965 10.7438 11.3902 10.7203 11.4184 10.8094C11.5262 10.6406 11.6059 10.6594 11.6293 10.7016M11.8262 10.6781C11.9059 10.65 12.0465 10.7297 12.1262 10.8656C12.1684 10.7625 12.2293 10.7813 12.2902 10.7719M12.6652 10.8656C12.7965 10.8094 12.8762 10.9313 12.9184 10.9781C12.9793 10.8985 13.0262 10.8985 13.0871 10.8985M11.4559 11.1094C11.4887 11.0625 11.559 11.0485 11.6059 11.0813C11.5965 10.9875 11.6574 10.95 11.6996 10.9688" stroke="black" stroke-width="0.025"/>
<path d="M11.8684 9.02813L11.648 9.0375L11.5402 9.23438L11.4184 9.04688L11.198 9.05625L11.2965 8.85469L11.1793 8.66719L11.409 8.65781L11.5074 8.46094L11.6293 8.64844L11.8496 8.63906L11.7465 8.83594L11.8684 9.02813ZM10.9309 9.09844L10.7059 9.15469L10.6496 9.36563L10.4902 9.20625L10.2793 9.25781L10.3355 9.04688L10.1902 8.88281L10.3965 8.83125L10.4574 8.61563L10.6168 8.775L10.8371 8.72812L10.7668 8.93906L10.9309 9.09844ZM10.0168 9.28594L9.81992 9.38437L9.80586 9.60938L9.61836 9.4875L9.4168 9.58125L9.43555 9.36094L9.24805 9.23906L9.44961 9.13594L9.46836 8.91562L9.64648 9.0375L9.84805 8.94375L9.83867 9.16406L10.0168 9.28594ZM12.159 9.02813L12.3793 9.0375L12.4777 9.23438L12.5996 9.04688L12.8199 9.05625L12.7168 8.85469L12.8387 8.66719L12.6184 8.65781L12.5059 8.46094L12.3887 8.64844L12.1684 8.63906L12.2668 8.83594L12.159 9.02813ZM13.0965 9.09844L13.3074 9.15469L13.3684 9.36563L13.5277 9.20625L13.7387 9.25781L13.6777 9.04688L13.8371 8.88281L13.6168 8.83125L13.5559 8.61563L13.3965 8.775L13.1902 8.72812L13.2465 8.93906L13.0965 9.09844ZM13.9965 9.28594L14.198 9.38437L14.2074 9.60938L14.3949 9.4875L14.5965 9.58125L14.5871 9.36094L14.7652 9.23906L14.5684 9.13594L14.559 8.91562L14.3715 9.0375L14.1652 8.94375L14.1887 9.16406L13.9965 9.28594Z" fill="#FFD700" stroke="black" stroke-width="0.1"/>
<path d="M14.2687 13.5188L14.5172 13.8798L14.7516 13.5376L14.5875 13.2516L14.2687 13.5188ZM12.675 14.5688L12.6984 14.9298C12.6984 14.9298 12.7969 14.9298 12.8859 14.9016C12.9703 14.8688 13.0406 14.8079 13.0406 14.8079L13.0266 14.6204L12.675 14.5688ZM11.3391 14.5688L11.3156 14.9204C11.3156 14.9204 11.2266 14.9204 11.1375 14.9016C11.084 14.8864 11.0334 14.8627 10.9875 14.8313L10.8891 14.5876L11.3391 14.5688ZM9.72656 13.5188L9.46875 13.8798L9.1875 13.4204L9.39844 13.2001L9.72656 13.5188Z" fill="white" stroke="black" stroke-width="0.1"/>
<path d="M10.9785 15.2906C10.9785 15.6281 13.041 15.6281 13.041 15.2906V14.8125C13.041 15.0609 10.9785 15.0094 10.9785 14.8125V15.2906Z" fill="white" stroke="black" stroke-width="0.1"/>
<path d="M9.14043 14.1798C9.31855 15.0985 10.9779 15.1173 10.9779 15.1173V14.8126C10.9404 14.6907 11.0061 14.6485 11.2779 14.611C11.3904 14.6016 11.3389 14.4423 11.3389 14.4423C11.3389 14.4423 10.617 14.5688 10.1061 14.3719C9.41699 14.0907 9.31856 13.5516 9.31856 13.5516C9.31856 13.5516 9.27168 13.9735 9.13574 14.1798H9.14043ZM14.8686 14.1798C14.6998 15.0985 13.0404 15.1173 13.0404 15.1173V14.8126C13.0686 14.6907 12.9936 14.6485 12.7264 14.611C12.6186 14.6016 12.6795 14.4423 12.6795 14.4423C12.6795 14.4423 13.3967 14.5688 13.9076 14.3719C14.5873 14.0907 14.667 13.5516 14.667 13.5516C14.667 13.5516 14.7373 13.9735 14.8686 14.1798Z" fill="white" stroke="black" stroke-width="0.1"/>
<path d="M9.26722 13.8282C8.80785 13.5797 9.16879 13.3219 9.20629 12.5813C9.2766 13.0313 9.78754 13.2188 9.7266 13.5094C9.51566 13.5188 9.41722 13.2 9.31879 13.5516L9.27191 13.8329L9.26722 13.8282ZM14.7375 13.8282C15.1969 13.5704 14.8172 13.3219 14.7797 12.5813C14.7094 13.0313 14.2078 13.2188 14.2641 13.5094C14.4703 13.5188 14.5688 13.2 14.6672 13.5516L14.7375 13.8188V13.8282Z" fill="white" stroke="black" stroke-width="0.1"/>
<path d="M9.54828 14.1704L9.59516 14.2079L9.48734 14.3297C9.44047 14.3766 9.43109 14.4094 9.46391 14.4375C9.50141 14.475 9.52953 14.461 9.56703 14.4188L9.68891 14.2922L9.72641 14.3297L9.60922 14.4704C9.5436 14.5454 9.48266 14.5266 9.4311 14.4797C9.38422 14.4422 9.36078 14.3813 9.4311 14.3063L9.54828 14.1704ZM9.74985 14.3391L9.79672 14.3719L9.78735 14.6063L9.89985 14.4375L9.94672 14.4704L9.78735 14.7282L9.72641 14.7L9.73578 14.461L9.62797 14.6297L9.58109 14.6016L9.74985 14.3391ZM9.83891 14.761L9.97953 14.4797L10.0264 14.5079L9.89985 14.7797L9.83891 14.761ZM10.0592 14.5219L9.94672 14.8079L10.0592 14.85C10.1623 14.8875 10.2092 14.8407 10.242 14.7563C10.2748 14.6625 10.2608 14.6016 10.1577 14.5594L10.0592 14.5219ZM10.0967 14.5922C10.1998 14.625 10.2092 14.6672 10.1811 14.7329C10.153 14.8032 10.1248 14.8266 10.0264 14.7797L10.0967 14.5922ZM10.3873 14.6297L10.2092 14.9016L10.2795 14.9204L10.317 14.85L10.4389 14.8782L10.4483 14.9485L10.5186 14.9579L10.4483 14.6391L10.3873 14.6297ZM10.4061 14.7L10.4295 14.8219L10.3498 14.8125L10.4061 14.7ZM10.5608 14.6532L10.5467 14.9672H10.6639C10.7764 14.9672 10.8045 14.911 10.8092 14.8172C10.8092 14.7235 10.7764 14.6672 10.6686 14.6625L10.5608 14.6579V14.6532ZM10.617 14.7094C10.7295 14.7094 10.7483 14.7469 10.7436 14.8219C10.7436 14.8969 10.7248 14.9297 10.6123 14.9157L10.617 14.7094ZM11.6061 15.0891V15.4079H11.6764V15.2907C11.6764 15.2907 11.7373 15.2907 11.7889 15.2813C11.8264 15.2719 11.8545 15.2438 11.8545 15.1829C11.8545 15.1219 11.8217 15.0891 11.7608 15.0891H11.6061ZM11.6764 15.136L11.7467 15.1407C11.8077 15.1407 11.7936 15.2297 11.7467 15.2297H11.6764V15.136ZM11.967 15.0891L11.8358 15.4079H11.9061L11.9389 15.3282H12.0702L12.0983 15.4079H12.1686L12.0373 15.0891H11.967ZM11.9998 15.1594L12.0467 15.2813H11.9577L11.9998 15.1594ZM12.1686 15.3469L12.3373 15.1407H12.1873V15.0938H12.4264V15.1407L12.2483 15.3516H12.4264V15.4125H12.1686V15.3469ZM13.1764 14.7282L13.2373 14.7188L13.2655 14.9016C13.2795 14.9625 13.2467 15.0094 13.2045 15.0235C13.153 15.0422 13.0873 15.0235 13.078 14.9391L13.1248 14.9297C13.1389 14.9813 13.1623 14.986 13.1858 14.9766C13.2045 14.9719 13.2139 14.9391 13.2092 14.911L13.1764 14.7282ZM13.2795 14.7141L13.3358 14.7L13.3639 14.85C13.378 14.9157 13.3967 14.9438 13.4389 14.9344C13.4858 14.925 13.4952 14.8969 13.4858 14.8407L13.4483 14.6813L13.5092 14.6719L13.5467 14.836C13.5702 14.9297 13.5233 14.9766 13.453 14.986C13.392 14.9954 13.3311 14.9813 13.3123 14.8875L13.2795 14.7141ZM13.5889 14.85L13.6358 14.8313C13.6639 14.8782 13.7014 14.8735 13.7295 14.8594C13.7717 14.8407 13.7764 14.8032 13.7577 14.7938C13.7248 14.775 13.6592 14.7985 13.617 14.7844C13.5748 14.7704 13.5561 14.7422 13.5561 14.7047C13.5608 14.6579 13.603 14.6344 13.6498 14.6204C13.6967 14.6063 13.7436 14.611 13.7764 14.6672L13.7202 14.6907C13.6967 14.6579 13.6733 14.6579 13.6498 14.6672C13.6311 14.6766 13.603 14.6954 13.617 14.7235C13.6311 14.7422 13.7061 14.7282 13.7436 14.7282C13.7858 14.7282 13.8186 14.761 13.8233 14.7985C13.828 14.85 13.8092 14.8782 13.7483 14.9063C13.6686 14.9344 13.603 14.9016 13.5889 14.85ZM13.8561 14.6016L13.7764 14.6391L13.7577 14.5922L13.978 14.4985L13.9967 14.5407L13.917 14.5782L14.0108 14.7985L13.9592 14.8313L13.8561 14.6016ZM13.9873 14.4891L14.0342 14.461L14.1748 14.7188L14.128 14.7516L13.9873 14.4891ZM14.3295 14.5079L14.3858 14.4891C14.3927 14.5078 14.3949 14.5278 14.3922 14.5475C14.3896 14.5672 14.3822 14.586 14.3706 14.6022C14.3591 14.6184 14.3437 14.6315 14.3259 14.6403C14.3082 14.6492 14.2885 14.6536 14.2686 14.6532C14.1186 14.6532 14.0998 14.4844 14.128 14.4282C14.1655 14.3344 14.278 14.3391 14.3295 14.3907L14.278 14.4282C14.2452 14.3907 14.1748 14.4141 14.1702 14.4516C14.1659 14.4806 14.1709 14.5102 14.1844 14.5363C14.1978 14.5623 14.2191 14.5835 14.2452 14.5969C14.292 14.6204 14.3623 14.5641 14.3295 14.5079ZM14.2967 14.3016L14.3436 14.2594L14.5311 14.4985L14.4795 14.5407L14.2967 14.3016ZM14.4842 14.1516L14.4373 14.1891L14.5498 14.4891L14.5967 14.4422L14.5686 14.3813L14.6577 14.3016L14.7186 14.3297L14.7655 14.2922L14.4842 14.1516ZM14.5077 14.2219L14.6061 14.2688L14.5498 14.3297L14.5077 14.2219Z" fill="black"/>
</g>
<defs>
<clipPath id="clip0_208_20047">
<rect width="24" height="24" rx="12" fill="white"/>
</clipPath>
</defs>
</svg>
