<svg width="24" height="24" viewBox="0 0 24 24" fill="none" xmlns="http://www.w3.org/2000/svg">
<g clip-path="url(#clip0_208_22270)">
<path fill-rule="evenodd" clip-rule="evenodd" d="M0 0H24V24H0V0Z" fill="#00ABC2"/>
<path fill-rule="evenodd" clip-rule="evenodd" d="M2.01484 23.3438C2.17891 23.4985 2.12266 23.7657 2.57734 23.7329C3.26641 23.7329 3.28516 23.311 3.28516 23.0157C3.28516 22.7204 2.25391 22.3126 2.20703 21.8766C2.16016 21.4407 2.44609 21.3235 2.68516 21.3235C2.91953 21.3235 3.08828 21.4641 3.08828 21.5813C3.08828 21.6985 2.97109 21.736 2.80703 21.736C2.64297 21.736 2.87734 21.6516 2.73203 21.5813C2.58672 21.511 2.49766 21.6844 2.49766 21.7922C2.49766 21.8954 2.85391 21.9282 3.08828 21.8532C3.13516 22.0876 3.16328 22.1016 2.82578 22.5001C3.06484 22.3454 3.08828 22.3126 3.35078 22.3969C3.08828 22.1719 3.28516 21.7126 3.29453 21.5954C3.30391 21.4782 3.24766 21.3376 3.13984 21.2672C2.94766 21.0985 2.53047 21.0891 2.28203 21.2016C1.91641 21.361 1.89766 21.8391 1.99609 21.9985L3.00391 23.0297C3.07422 23.1516 3.09766 23.4891 2.67109 23.5079C2.21641 23.5407 2.06172 22.9266 1.98203 22.7204C1.87422 22.9454 1.75703 23.5641 1.30234 23.5266C0.875781 23.5126 0.791406 23.1751 0.861719 23.0532L1.89766 21.9985C1.99141 21.8391 1.97734 21.361 1.61641 21.2016C1.36328 21.0891 0.946094 21.0985 0.753906 21.2719C0.650781 21.3376 0.589844 21.4782 0.599219 21.5954C0.608594 21.7126 0.805469 22.1719 0.542969 22.3922C0.805469 22.3079 0.824219 22.3454 1.06328 22.5001C0.735156 22.1016 0.753906 22.0829 0.805469 21.8485C1.03984 21.9282 1.40078 21.8954 1.40078 21.7922C1.40078 21.6844 1.30703 21.511 1.16172 21.5813C1.02109 21.6516 1.25547 21.736 1.09141 21.736C0.922656 21.736 0.805469 21.7032 0.805469 21.5813C0.805469 21.4594 0.969531 21.3235 1.20859 21.3235C1.44766 21.3235 1.73359 21.4454 1.68203 21.8766C1.63516 22.3079 0.580469 22.7813 0.580469 23.0766C0.580469 23.3719 0.655469 23.7329 1.34453 23.7329C1.79922 23.7657 1.85078 23.4985 2.01484 23.3391V23.3438Z" fill="#FFEC2D"/>
<path fill-rule="evenodd" clip-rule="evenodd" d="M1.95918 17.1563C2.12324 16.9969 2.25449 16.5234 2.70918 16.5609C3.39824 16.5609 3.66074 16.9406 3.66074 17.2359C3.66074 17.5313 2.25449 19.9406 2.20762 20.3766C2.16074 20.8078 2.44668 20.9297 2.68574 20.9297C2.92012 20.9297 3.08887 20.7891 3.08887 20.6672C3.08887 20.5453 2.97168 20.5125 2.80762 20.5125C2.64355 20.5125 2.87324 20.5969 2.73262 20.6672C2.59199 20.7375 2.49824 20.5641 2.49824 20.4609C2.49824 20.3531 2.8498 20.3203 3.08887 20.4C3.13574 20.1656 3.15918 20.1469 2.82637 19.7484C3.06543 19.9031 3.08887 19.9359 3.35137 19.8516C3.08887 20.0766 3.28574 20.5359 3.29512 20.6531C3.30449 20.7703 3.24824 20.9109 3.13574 20.9813C2.94824 21.1547 2.52637 21.1594 2.28262 21.0469C1.91699 20.8875 1.89824 20.4094 1.99668 20.25L3.35137 17.3203C3.42168 17.1984 3.23418 16.8047 2.80293 16.7859C2.35293 16.7484 2.19355 17.2219 2.11855 17.4281L2.73262 17.3813C2.73262 17.3813 2.75605 17.475 2.73262 17.5406C2.41387 17.5594 2.11855 17.6203 2.11855 17.6203L2.09512 17.9297H2.3998L2.37168 18.0703C2.37168 18.0703 2.11855 18.0516 2.09043 18.0703C2.06699 18.0891 2.04355 18.3844 2.04355 18.3844C2.04355 18.3844 1.99668 18.3984 1.9498 18.3984C1.89355 18.3984 1.84668 18.3844 1.84668 18.3844C1.84668 18.3844 1.82324 18.0891 1.7998 18.0703C1.77637 18.0516 1.51855 18.0703 1.51855 18.0703L1.49512 17.9297H1.7998L1.77637 17.6203C1.77637 17.6203 1.47637 17.5594 1.15762 17.5406C1.13418 17.4797 1.15762 17.3859 1.15762 17.3859L1.77637 17.4328C1.69668 17.2219 1.54199 16.7484 1.0873 16.7859C0.660742 16.8 0.468555 17.1984 0.538867 17.3203L1.89824 20.25C1.99199 20.4094 1.97324 20.8875 1.6123 21.0469C1.36387 21.1594 0.94668 21.1547 0.754492 20.9813C0.64668 20.9109 0.59043 20.7703 0.599805 20.6531C0.60918 20.5359 0.801367 20.0766 0.538867 19.8563C0.801367 19.9406 0.824805 19.9031 1.06387 19.7484C0.735742 20.1469 0.754492 20.1656 0.801367 20.4C1.04043 20.3203 1.39668 20.3531 1.39668 20.4609C1.39668 20.5641 1.30293 20.7375 1.1623 20.6672C1.01699 20.5969 1.25605 20.5125 1.0873 20.5125C0.923242 20.5125 0.806055 20.5453 0.806055 20.6672C0.806055 20.7891 0.970117 20.9297 1.20918 20.9297C1.44824 20.9297 1.72949 20.8078 1.68262 20.3719C1.63574 19.9406 0.229492 17.5313 0.229492 17.2313C0.229492 16.9406 0.491992 16.5609 1.18105 16.5609C1.63574 16.5234 1.79512 16.9969 1.95918 17.1563Z" fill="#FFEC2D"/>
<path fill-rule="evenodd" clip-rule="evenodd" d="M1.95898 15.9609C2.12305 16.1203 2.2543 16.5937 2.70898 16.5562C3.39805 16.5562 3.66055 16.1766 3.66055 15.8812C3.66055 15.5859 2.2543 13.1766 2.20742 12.7406C2.16055 12.3094 2.44648 12.1875 2.68555 12.1875C2.91992 12.1875 3.08867 12.3281 3.08867 12.45C3.08867 12.5719 2.97148 12.6047 2.80742 12.6047C2.64336 12.6047 2.87773 12.5203 2.73242 12.45C2.58711 12.3797 2.49805 12.5531 2.49805 12.6562C2.49805 12.7641 2.84961 12.7969 3.08867 12.7172C3.13555 12.9516 3.15898 12.9703 2.82617 13.3687C3.06523 13.2141 3.08867 13.1812 3.35117 13.2656C3.08867 13.0406 3.28555 12.5812 3.29492 12.4641C3.3043 12.3469 3.24805 12.2062 3.13555 12.1359C2.94805 11.9625 2.52617 11.9578 2.28242 12.0703C1.9168 12.2297 1.89805 12.7078 1.99648 12.8672L3.35117 15.7969C3.42148 15.9187 3.23398 16.3125 2.80273 16.3312C2.35273 16.3687 2.19336 15.8953 2.11836 15.6891L2.73242 15.7359C2.73242 15.7359 2.75586 15.6422 2.73242 15.5766C2.41367 15.5531 2.11836 15.4969 2.11836 15.4969L2.09492 15.1875H2.39023L2.3668 15.0469C2.3668 15.0469 2.11367 15.0656 2.08555 15.0469C2.0668 15.0281 2.03867 14.7328 2.03867 14.7328C2.03867 14.7328 1.9918 14.7187 1.94492 14.7187C1.88867 14.7187 1.8418 14.7328 1.8418 14.7328C1.8418 14.7328 1.81836 15.0281 1.79492 15.0469C1.77148 15.0656 1.51367 15.0469 1.51367 15.0469L1.49023 15.1875H1.79492L1.77148 15.4969C1.77148 15.4969 1.47148 15.5531 1.15273 15.5766C1.1293 15.6375 1.15273 15.7312 1.15273 15.7312L1.77148 15.6844C1.6918 15.8953 1.53711 16.3687 1.08242 16.3312C0.655859 16.3172 0.463672 15.9187 0.538672 15.7969L1.89336 12.8672C1.98711 12.7078 1.96836 12.2297 1.60742 12.0703C1.35898 11.9578 0.941797 11.9625 0.749609 12.1359C0.641797 12.2062 0.585547 12.3469 0.594922 12.4641C0.604297 12.5812 0.796484 13.0406 0.533984 13.2609C0.796484 13.1766 0.819922 13.2141 1.05898 13.3687C0.726172 12.9703 0.749609 12.9516 0.796484 12.7172C1.03555 12.7969 1.3918 12.7641 1.3918 12.6562C1.3918 12.5484 1.29805 12.3797 1.15742 12.45C1.0168 12.5203 1.25117 12.6047 1.08242 12.6047C0.918359 12.6047 0.801172 12.5719 0.801172 12.45C0.801172 12.3281 0.965234 12.1922 1.2043 12.1922C1.44336 12.1922 1.72461 12.3094 1.67773 12.7453C1.63086 13.1766 0.224609 15.5859 0.224609 15.8859C0.224609 16.1766 0.487109 16.5562 1.17617 16.5562C1.63086 16.5937 1.79023 16.1203 1.9543 15.9609H1.95898Z" fill="#FFEC2D"/>
<path fill-rule="evenodd" clip-rule="evenodd" d="M1.95918 8.02509C2.12324 7.86571 2.25449 7.39227 2.70918 7.42509C3.39824 7.42509 3.66074 7.80946 3.66074 8.10477C3.66074 8.3954 2.25449 10.8048 2.20762 11.2407C2.16074 11.672 2.44668 11.7938 2.68574 11.7938C2.92012 11.7938 3.08887 11.6532 3.08887 11.536C3.08887 11.4188 2.97168 11.3766 2.80762 11.3766C2.64355 11.3766 2.87324 11.4657 2.73262 11.536C2.59199 11.6063 2.49824 11.4329 2.49824 11.3251C2.49824 11.222 2.8498 11.1845 3.08887 11.2641C3.13574 11.0298 3.15918 11.0157 2.82637 10.6173C3.06543 10.772 3.08887 10.8048 3.35137 10.7204C3.08887 10.9454 3.28574 11.4048 3.29512 11.5173C3.30449 11.6298 3.24824 11.7751 3.13574 11.8454C2.94824 12.0188 2.52637 12.0282 2.28262 11.9157C1.91699 11.7516 1.89824 11.2735 1.99668 11.1188L3.35137 8.18915C3.42168 8.06727 3.23418 7.66884 2.80293 7.65009C2.35293 7.61727 2.19355 8.09071 2.11855 8.29696L2.73262 8.25009C2.73262 8.25009 2.75605 8.34384 2.73262 8.40946C2.41387 8.42821 2.11855 8.48446 2.11855 8.48446L2.09512 8.79852H2.3998L2.37168 8.93915C2.37168 8.93915 2.11855 8.9204 2.09043 8.93915C2.06699 8.95321 2.04355 9.24852 2.04355 9.24852C2.04355 9.24852 1.99668 9.26727 1.9498 9.26727C1.89355 9.26727 1.84668 9.24852 1.84668 9.24852C1.84668 9.24852 1.82324 8.95321 1.7998 8.93915C1.77637 8.9204 1.51855 8.93915 1.51855 8.93915L1.49512 8.79852H1.7998L1.77637 8.48446C1.77637 8.48446 1.47637 8.42821 1.15762 8.40946C1.13418 8.34852 1.15762 8.25009 1.15762 8.25009L1.77637 8.29696C1.69668 8.09071 1.54199 7.61727 1.0873 7.65009C0.660742 7.66884 0.468555 8.06727 0.538867 8.18915L1.89824 11.1188C1.99199 11.2735 1.97324 11.7516 1.6123 11.9157C1.36387 12.0282 0.94668 12.0188 0.754492 11.8454C0.64668 11.7798 0.59043 11.6391 0.599805 11.5173C0.60918 11.3954 0.801367 10.9454 0.538867 10.7204C0.801367 10.8048 0.824805 10.772 1.06387 10.6173C0.735742 11.0157 0.754492 11.0345 0.801367 11.2641C1.04043 11.1891 1.39668 11.222 1.39668 11.3251C1.39668 11.4282 1.30293 11.6063 1.1623 11.536C1.01699 11.4657 1.25605 11.3766 1.0873 11.3766C0.923242 11.3766 0.806055 11.4141 0.806055 11.536C0.806055 11.6579 0.970117 11.7938 1.20918 11.7938C1.44824 11.7938 1.72949 11.672 1.68262 11.2407C1.63574 10.8048 0.229492 8.3954 0.229492 8.10009C0.229492 7.80946 0.491992 7.42509 1.18105 7.42509C1.63574 7.39227 1.79512 7.86571 1.95918 8.02509Z" fill="#FFEC2D"/>
<path fill-rule="evenodd" clip-rule="evenodd" d="M1.95918 6.82971C2.12324 6.98908 2.25449 7.45783 2.70918 7.42502C3.39824 7.42502 3.66074 7.04533 3.66074 6.75002C3.66074 6.45471 2.25449 4.04533 2.20762 3.6094C2.16074 3.17815 2.44668 3.05627 2.68574 3.05627C2.92012 3.05627 3.08887 3.1969 3.08887 3.31408C3.08887 3.43127 2.97168 3.47346 2.80762 3.47346C2.64355 3.47346 2.87793 3.3844 2.73262 3.31408C2.5873 3.24377 2.49824 3.4219 2.49824 3.52502C2.49824 3.62815 2.8498 3.66565 3.08887 3.58596C3.13574 3.82033 3.15918 3.8344 2.82637 4.23283C3.06543 4.07815 3.08887 4.04533 3.35137 4.12971C3.08887 3.90471 3.28574 3.44533 3.29512 3.33283C3.30449 3.22033 3.24824 3.07502 3.13574 3.00471C2.94824 2.83127 2.52637 2.8219 2.28262 2.9344C1.91699 3.09846 1.89824 3.57658 1.99668 3.73127L3.35137 6.66096C3.42168 6.78283 3.23418 7.18127 2.80293 7.20002C2.35293 7.23283 2.19355 6.7594 2.11855 6.55315L2.73262 6.60002C2.73262 6.60002 2.75605 6.50627 2.73262 6.44065C2.52668 6.42722 2.32167 6.40218 2.11855 6.36565L2.09512 6.05158H2.39043L2.36699 5.91096C2.36699 5.91096 2.11387 5.92971 2.08574 5.91096C2.06699 5.8969 2.03887 5.60158 2.03887 5.60158C2.03887 5.60158 1.99199 5.58283 1.94512 5.58283C1.88887 5.58283 1.84199 5.60158 1.84199 5.60158C1.84199 5.60158 1.81855 5.8969 1.79512 5.91565C1.77168 5.92971 1.51387 5.91565 1.51387 5.91565L1.49043 6.05627H1.79512L1.77168 6.36565C1.77168 6.36565 1.47168 6.4219 1.15293 6.44065C1.13983 6.49296 1.13983 6.5477 1.15293 6.60002L1.77168 6.55315C1.69199 6.7594 1.5373 7.23283 1.08262 7.20002C0.656055 7.18127 0.463867 6.78283 0.538867 6.66096L1.89355 3.73127C1.9873 3.57658 1.96855 3.09846 1.60762 2.9344C1.35918 2.8219 0.941992 2.83127 0.749805 3.00471C0.641992 3.07502 0.585742 3.21096 0.595117 3.33283C0.604492 3.45471 0.79668 3.90471 0.53418 4.12971C0.79668 4.04533 0.820117 4.08283 1.05918 4.23283C0.726367 3.8344 0.749805 3.82033 0.79668 3.58596C1.03574 3.66096 1.39199 3.63283 1.39199 3.52502C1.39199 3.41721 1.29824 3.24377 1.15762 3.31408C1.01699 3.3844 1.25137 3.47346 1.08262 3.47346C0.918555 3.47346 0.801367 3.43596 0.801367 3.31408C0.801367 3.19221 0.96543 3.05627 1.20449 3.05627C1.44355 3.05627 1.72949 3.17815 1.68262 3.6094C1.63574 4.04533 0.229492 6.45471 0.229492 6.75002C0.229492 7.04533 0.491992 7.42502 1.18105 7.42502C1.63574 7.45783 1.79512 6.98908 1.95918 6.82971Z" fill="#FFEC2D"/>
<path fill-rule="evenodd" clip-rule="evenodd" d="M2.01484 0.64224C2.17891 0.482865 2.12266 0.220365 2.57734 0.24849C3.26641 0.24849 3.28516 0.670365 3.28516 0.965677C3.28516 1.26099 2.25391 1.67349 2.20703 2.10474C2.16016 2.54068 2.44609 2.66255 2.68516 2.66255C2.91953 2.66255 3.08828 2.52193 3.08828 2.40005C3.08828 2.27818 2.97109 2.25005 2.81172 2.25005C2.65234 2.25005 2.88203 2.33911 2.73672 2.40474C2.59141 2.47036 2.50234 2.30161 2.50234 2.19849C2.50234 2.09536 2.85859 2.05786 3.09297 2.13755C3.13984 1.90318 3.16797 1.88443 2.83047 1.48599C3.06484 1.64068 3.09297 1.67349 3.35078 1.5938C3.08828 1.8188 3.28516 2.27818 3.29453 2.39068C3.30391 2.50318 3.24766 2.64849 3.13984 2.7188C2.94766 2.89224 2.53047 2.90161 2.28203 2.78911C1.91641 2.62505 1.89766 2.14693 1.99609 1.99224L3.00391 0.96099C3.07422 0.834427 3.09766 0.496927 2.67109 0.478177C2.21641 0.445365 2.06172 1.06411 1.98203 1.26568C1.87422 1.04068 1.75703 0.421927 1.30234 0.45474C0.875781 0.47349 0.791406 0.81099 0.861719 0.932865L1.89766 1.98755C1.99141 2.14224 1.97734 2.62036 1.61641 2.78443C1.36328 2.89693 0.946094 2.88755 0.753906 2.71411C0.650781 2.6438 0.589844 2.50786 0.599219 2.38599C0.608594 2.26411 0.805469 1.81411 0.542969 1.58911C0.805469 1.67349 0.824219 1.63599 1.06328 1.4813C0.735156 1.87974 0.753906 1.90318 0.805469 2.13286C1.03984 2.05318 1.40078 2.08599 1.40078 2.1938C1.40078 2.29693 1.30703 2.47505 1.16172 2.40005C1.02109 2.33443 1.25547 2.24536 1.09141 2.24536C0.922656 2.24536 0.805469 2.28287 0.805469 2.40005C0.805469 2.51724 0.969531 2.66255 1.20859 2.66255C1.44766 2.66255 1.73359 2.54068 1.68203 2.10474C1.63516 1.67349 0.580469 1.20005 0.580469 0.90474C0.580469 0.609427 0.655469 0.24849 1.34453 0.24849C1.79922 0.215677 1.85078 0.482865 2.01484 0.64224Z" fill="#FFEC2D"/>
<path d="M17.6295 10.5539C17.6295 8.46601 15.8435 6.77344 13.6404 6.77344C11.4373 6.77344 9.65137 8.46601 9.65137 10.5539C9.65137 12.6418 11.4373 14.3344 13.6404 14.3344C15.8435 14.3344 17.6295 12.6418 17.6295 10.5539Z" fill="#FFEC2D"/>
<path fill-rule="evenodd" clip-rule="evenodd" d="M13.4525 4.51873C13.415 4.51873 13.2369 5.77498 13.1713 6.05623C13.1057 6.68904 14.015 6.6656 13.865 6.03279L13.4525 4.51404V4.51873ZM13.7713 16.6969C13.8041 16.6969 14.076 15.4547 14.165 15.1781C14.2729 14.5547 13.3635 14.5219 13.4619 15.1594L13.7713 16.6969ZM7.41504 10.5281C7.41504 10.5609 8.72285 10.8234 9.01348 10.9078C9.66973 11.0156 9.7166 10.1578 9.0416 10.2515L7.41504 10.5328V10.5281ZM20.151 10.6781C20.151 10.6453 18.8291 10.4297 18.5338 10.3547C17.8729 10.275 17.8682 11.1328 18.5338 11.0156L20.151 10.6781ZM8.75566 6.54373C8.73223 6.56716 9.59473 7.54216 9.76816 7.78123C10.2182 8.24998 10.8135 7.59373 10.2182 7.27498L8.75566 6.54841V6.54373ZM18.651 14.5594C18.6744 14.5359 17.7275 13.6359 17.5307 13.4156C17.0385 12.9844 16.5088 13.6828 17.1275 13.9547L18.651 14.564V14.5594ZM10.7291 5.18435C10.701 5.19841 11.1041 6.40779 11.1697 6.69373C11.3947 7.28904 12.2104 6.89998 11.7885 6.38904L10.7338 5.18435H10.7291ZM16.4994 16.0781C16.5322 16.064 16.2182 14.8312 16.176 14.5453C15.9932 13.9359 15.1541 14.264 15.5338 14.8078L16.5041 16.0734L16.4994 16.0781ZM17.9197 6.0281C17.8916 6.00466 16.851 6.80623 16.5978 6.9656C16.0963 7.38748 16.776 7.95935 17.1229 7.40154L17.9197 6.0281ZM9.3416 15.1078C9.36504 15.1312 10.4666 14.4047 10.7291 14.2594C11.2588 13.875 10.626 13.2562 10.2369 13.7906L9.34629 15.1078H9.3416ZM7.70098 8.3531C7.68691 8.38123 8.82598 9.04216 9.07441 9.2156C9.66035 9.52029 10.0025 8.72341 9.33223 8.59685L7.70098 8.3531ZM19.5932 12.9656C19.6072 12.9375 18.515 12.2015 18.2807 12.014C17.7182 11.6672 17.3197 12.4406 17.9807 12.6094L19.5932 12.9656ZM15.815 4.86091C15.7822 4.85154 15.1307 5.95779 14.9572 6.19685C14.9575 6.27319 14.9818 6.34752 15.0265 6.4094C15.0712 6.47129 15.1341 6.51763 15.2065 6.54193C15.2789 6.56623 15.357 6.56726 15.43 6.54488C15.503 6.52251 15.5672 6.47785 15.6135 6.41716L15.815 4.86091ZM11.4135 16.3125C11.4463 16.3265 12.1775 15.2625 12.365 15.0328C12.7072 14.489 11.8775 14.1422 11.7229 14.7703L11.4135 16.3125ZM7.78066 13.064C7.79473 13.0922 9.09316 12.7828 9.39785 12.7359C10.0354 12.5578 9.6791 11.7703 9.1166 12.1359L7.78066 13.064ZM19.5978 8.24998C19.5885 8.22185 18.2713 8.44216 17.9666 8.47029C17.3104 8.60623 17.615 9.41716 18.201 9.08904L19.5978 8.24998Z" fill="#FFEC2D"/>
<path fill-rule="evenodd" clip-rule="evenodd" d="M14.7463 4.59844C14.7135 4.59375 14.2729 5.78906 14.1416 6.05156C13.9494 6.66094 14.8447 6.81094 14.8307 6.16406L14.751 4.59375L14.7463 4.59844ZM12.4729 16.5938C12.5057 16.6031 13.0354 15.4359 13.1854 15.1781C13.4197 14.5875 12.5385 14.3813 12.5057 15.0234L12.4682 16.5938H12.4729ZM12.0182 4.71562C11.9854 4.725 12.1072 5.99063 12.1072 6.28125C12.1963 6.90469 13.0729 6.68906 12.7822 6.10781L12.0182 4.71562ZM15.2057 16.5234C15.2385 16.5188 15.2057 15.2484 15.2291 14.9578C15.1869 14.325 14.2916 14.4844 14.5447 15.0844L15.201 16.5234H15.2057ZM9.75879 5.76562C9.73066 5.78437 10.3541 6.90469 10.4713 7.17188C10.8088 7.72031 11.5354 7.20469 11.0244 6.76875L9.75879 5.76562ZM17.4838 15.5109C17.5119 15.4922 16.9682 14.3297 16.8744 14.0578C16.5791 13.4906 15.8197 13.9594 16.2932 14.4234L17.4838 15.5109ZM8.10879 7.34062C8.09004 7.36875 9.09785 8.20313 9.30879 8.41875C9.8291 8.8125 10.3119 8.08125 9.67441 7.85156L8.10879 7.34062ZM19.0869 13.8891C19.1057 13.8609 18.1635 12.9609 17.9666 12.7359C17.4791 12.3094 16.9447 13.0078 17.5635 13.2797L19.0869 13.8891ZM7.38691 9.30469C7.37754 9.3375 8.61973 9.81094 8.8916 9.94687C9.51973 10.1578 9.72129 9.31875 9.03691 9.3L7.38691 9.30469ZM19.9213 12.0141C19.9354 11.9859 18.7307 11.4328 18.4682 11.2781C17.8588 11.025 17.5916 11.85 18.2713 11.9156L19.9213 12.0141ZM7.34473 11.7188C7.34941 11.7469 8.69004 11.7281 8.99473 11.7516C9.66035 11.7188 9.50098 10.8703 8.86348 11.1L7.34473 11.7188ZM20.0104 9.60938C20.0104 9.57656 18.6697 9.50625 18.3697 9.46406C17.6994 9.45469 17.7978 10.3125 18.4494 10.1203L20.0104 9.60469V9.60938ZM8.49316 14.2219C8.51191 14.25 9.71191 13.6781 9.99316 13.5703C10.5744 13.2656 10.04 12.5672 9.57598 13.0406L8.49316 14.2219ZM18.9135 7.08281C18.8947 7.05469 17.6619 7.54688 17.3666 7.63594C16.7619 7.90313 17.2447 8.63438 17.7416 8.19375L18.9135 7.08281ZM10.4432 15.8812C10.4713 15.8953 11.3291 14.9203 11.5447 14.7141C11.9525 14.2125 11.1697 13.7766 10.94 14.3859L10.4432 15.8812ZM16.9916 5.39062C16.9682 5.37187 16.04 6.28594 15.8104 6.47812C15.3697 6.95156 16.1197 7.43906 16.3916 6.84844L16.9869 5.39062H16.9916Z" fill="#FFEC2D"/>
<path fill-rule="evenodd" clip-rule="evenodd" d="M7.54119 13.0684C7.6128 13.3102 7.62303 14.6639 9.06546 15.9694C10.4977 17.2651 12.9529 17.5552 12.9529 17.5552C12.9529 17.5552 12.9631 17.739 12.7892 17.7486C12.6153 17.768 11.7764 17.6036 11.357 17.4779C10.9478 17.3618 10.5795 17.1491 10.5386 17.1588C10.4874 17.1781 10.4056 17.3135 10.2828 17.2941C10.1601 17.2748 9.56672 16.6946 9.30074 16.5399C8.76874 16.1052 8.29775 15.608 7.89924 15.0604C7.6128 14.6253 7.54119 14.3352 7.44912 14.3352C7.35705 14.3352 7.01946 14.5479 7.01946 14.5479C7.01946 14.5479 6.71255 14.1128 6.44657 13.4165C6.17036 12.7203 6.20106 12.3142 6.26244 12.2852C6.33405 12.2562 6.33404 12.7977 6.53864 13.2908C6.74324 13.7937 7.02969 13.9484 7.02969 13.9484C7.02969 13.9484 6.84554 13.6873 6.70232 13.0394C6.5591 12.3915 6.49772 11.763 6.60002 11.5696C6.70232 11.3762 6.79439 11.3182 6.80462 11.3278C6.82508 11.3472 6.63072 11.6276 6.76371 12.3722C6.8967 13.1168 7.25475 13.7453 7.33659 13.7163C7.41843 13.6873 7.28544 13.5326 7.23429 13.0974C7.18314 12.6623 7.28544 12.3915 7.39797 12.3528C7.44912 12.3142 7.53096 12.8363 7.54119 13.0684ZM6.53864 14.3062C6.26243 14.0644 5.83278 13.2231 5.74071 13.2618C5.63841 13.3102 6.43635 14.5189 6.45681 14.6156C6.47727 14.7316 6.65118 15.0604 6.51819 15.0121C6.3852 14.9637 5.43381 14.0161 5.54634 14.1998C5.65887 14.3835 6.37496 15.2151 6.33404 15.2635C6.29312 15.3118 5.7407 14.7993 5.72024 14.867C5.71001 14.925 6.26244 15.4279 6.25221 15.4859C6.24198 15.5439 5.89416 15.1668 5.89416 15.2441C5.89416 15.3215 6.25221 15.6986 6.25221 15.7566C6.25221 15.8147 5.94531 15.4859 6.04761 15.6599C6.13968 15.8533 6.40565 16.0177 6.39542 16.0757C6.38519 16.1338 6.17037 15.9984 6.17037 16.0274C6.17037 16.0564 6.56934 16.1918 6.66141 16.2981C6.76371 16.4045 7.41843 17.1201 7.90947 17.4779C8.40051 17.8357 9.81224 18.4642 9.91454 18.4642C10.0066 18.4642 10.1498 18.2708 10.1191 18.1934C10.0885 18.1161 8.7074 17.6713 8.32889 17.3425C7.94015 17.0137 6.999 16.2208 6.91716 16.1821C6.84555 16.1338 6.63072 16.1531 6.63072 16.1047C6.63072 16.0564 6.90693 16.1338 6.88647 16.1047C6.87624 16.0757 6.50796 15.921 6.51819 15.892C6.53865 15.863 6.77394 15.95 6.77394 15.921C6.77394 15.892 6.34428 15.6696 6.36474 15.6213C6.37497 15.5729 6.68187 15.7566 6.68187 15.718C6.68187 15.6986 6.27266 15.4279 6.28289 15.3795C6.29312 15.3312 6.60002 15.5922 6.58979 15.5342C6.57956 15.4762 6.34427 15.1474 6.34427 15.1088C6.34427 15.0604 6.71255 15.4375 6.75347 15.3602C6.77393 15.2925 6.62049 14.6639 6.63072 14.6543C6.64095 14.6446 6.90692 14.7896 6.94784 14.7026C6.99899 14.6059 6.7637 14.4802 6.53864 14.3062ZM11.2547 19.0637C11.0603 19.0927 10.9682 19.025 11.0808 18.8703C11.2342 18.8703 11.6434 18.7446 11.7866 18.6866C11.9299 18.6286 12.0833 18.5512 12.2061 18.4449C12.3288 18.3191 12.4107 18.5125 12.3391 18.6189C12.2879 18.6866 12.0526 18.8123 11.8787 18.88C11.623 18.9574 11.3979 19.0734 11.2547 19.0637ZM12.5334 18.5706C12.4004 18.4352 12.513 18.3385 12.7073 18.2321C12.9938 18.0871 12.9119 17.884 13.2802 17.7196C13.4439 17.6229 15.7354 16.7526 16.4822 16.2885C17.229 15.8243 19.3261 14.3255 19.8888 13.2908C20.4412 12.2658 20.1752 12.1885 20.2571 12.1498C20.3287 12.1014 20.4105 12.2948 20.4003 12.5269C20.3798 12.7493 20.1957 13.4262 20.2571 13.4939C20.3185 13.5616 21.0959 12.962 21.4233 12.2368C21.7507 11.5116 21.9962 10.7573 22.1496 10.7573C22.3133 10.7573 21.8836 11.9951 21.6074 12.4786C21.3415 12.962 21.0243 13.2038 21.0959 13.3102C21.1778 13.4069 21.9757 12.7783 22.2519 12.3142C22.5179 11.8403 22.7737 11.4245 22.8248 11.5116C22.7434 12.078 22.5072 12.6146 22.1394 13.0684C21.7097 13.5326 21.1982 13.871 21.2801 13.9387C21.3517 14.0161 21.9348 14.0934 22.5384 13.7066C23.1522 13.3102 23.2135 12.7396 23.2852 12.7687C23.367 12.7977 23.2135 13.5809 22.6304 14.0644C22.0473 14.5479 21.2801 14.5963 21.3005 14.7026C21.3415 14.7993 22.968 14.2578 22.9373 14.3835C22.9066 14.4996 20.83 15.2731 20.8095 15.3505C20.8095 15.4085 21.1675 15.4279 21.7302 15.3022C22.2826 15.1861 22.8146 14.7703 22.8862 14.867C22.9066 15.0024 22.4872 15.3312 21.853 15.4859C21.2085 15.6406 20.8913 15.8437 20.8709 15.892C20.8606 15.9404 22.0166 15.7566 22.0166 15.8147C22.0166 15.8727 20.5026 16.1531 20.4924 16.2305C20.4719 16.2981 21.9246 15.95 21.9041 16.0371C21.8632 16.1047 19.9297 16.6463 19.9502 16.6753C19.9604 16.7139 21.5665 16.3465 21.5358 16.4045C21.4949 16.4722 18.8351 17.1781 18.8146 17.2264C18.7942 17.2651 21.1675 16.7236 21.1471 16.772C21.1266 16.8203 19.9195 17.1007 19.9195 17.1298C19.9195 17.1588 20.8913 16.9847 20.8709 17.0331C20.8606 17.0717 18.4157 17.6616 18.3645 17.7486C18.3134 17.8453 19.633 17.5069 19.6126 17.6809C19.5921 17.855 16.7789 18.7446 16.7686 18.5802C16.7482 18.4158 18.4771 18 18.4668 17.9517C18.4464 17.9033 17.4745 18.0484 17.4541 17.9614C17.4438 17.8647 18.0985 17.6713 18.0474 17.6326C17.9962 17.5842 17.5052 17.768 17.5461 17.6616C17.5973 17.5552 18.5282 17.1491 18.5077 17.1201C18.4975 17.0911 18.1702 17.2168 18.2008 17.1201C18.2418 17.0137 20.2162 16.4722 20.1855 16.4045C20.1548 16.3465 19.275 16.5399 19.1932 16.5592C19.1625 16.5012 20.4208 16.0564 20.4003 15.979C20.3594 15.9114 19.7251 16.2401 19.6842 16.1531C19.6637 16.0564 20.7993 15.6406 20.7277 15.5729C20.656 15.5052 20.1445 15.747 20.0729 15.6793C20.0013 15.6116 21.1471 14.867 20.9732 14.8477C20.7993 14.838 20.5844 15.0797 20.564 14.925C20.5844 14.7316 21.454 14.4125 21.2596 14.2578C20.9527 14.1708 19.9195 14.3255 19.4898 14.5672C19.0602 14.809 17.628 16.1531 17.2801 16.3658C16.9323 16.5689 15.7456 17.0427 15.5206 17.1394C15.1728 17.2555 15.1114 17.4295 14.7533 17.6036C14.1088 17.768 14.1191 17.9517 13.8122 18.0581C13.6996 18.0871 12.5437 18.6092 12.5334 18.5706ZM10.9171 19.2474C10.7227 19.3441 10.5488 19.5762 10.6613 19.6729C10.7227 19.789 10.9171 19.4118 11.0705 19.4312L11.8889 19.4699C12.3288 19.4989 12.5437 19.3828 12.7892 19.4022C13.0347 19.4215 13.5769 19.2765 13.8326 19.2765C14.0884 19.2765 14.1395 19.3055 14.16 19.1991C14.1907 19.1024 13.3621 19.1701 12.9938 19.1604C12.6255 19.1411 12.1651 19.2281 11.8889 19.2281C11.6332 19.2184 11.1933 19.1411 10.9171 19.2474Z" fill="#FFEC2D"/>
<path d="M12.1447 19.1314C12.1447 19.0513 12.0668 18.9863 11.9708 18.9863C11.8747 18.9863 11.7969 19.0513 11.7969 19.1314C11.7969 19.2115 11.8747 19.2764 11.9708 19.2764C12.0668 19.2764 12.1447 19.2115 12.1447 19.1314Z" fill="#FFEC2D"/>
<path fill-rule="evenodd" clip-rule="evenodd" d="M16.226 18.851C16.3999 18.822 16.8705 18.9767 17.1978 19.0444C17.7912 19.2668 18.896 19.1604 18.896 19.2668C18.896 19.3732 18.8244 19.4989 18.5686 19.5182C18.3129 19.5376 17.6684 19.4215 17.6889 19.4215C17.7093 19.4215 18.2004 19.6439 18.0571 19.7019C17.9139 19.76 17.4945 19.5762 17.4229 19.6246C17.3513 19.6729 17.8116 19.76 17.7298 19.789C17.6684 19.818 17.3513 19.7503 17.249 19.76C17.1467 19.7793 17.3308 19.8857 17.2081 19.9243C17.0853 19.9727 16.8807 19.8663 16.7989 19.8953C16.7068 19.9243 16.983 20.0887 16.8602 20.1081C16.7375 20.1274 16.451 20.0307 16.2874 20.0114C16.1237 20.0114 16.4408 20.1661 16.3385 20.1854C16.2362 20.1951 15.9498 20.0597 15.8782 20.0597C15.8065 20.0597 15.8782 20.2531 15.7759 20.2531C15.6736 20.2531 15.5508 20.0887 15.4894 20.0887C15.428 20.0887 15.4894 20.2821 15.3871 20.2821C15.2848 20.2821 15.2439 20.0791 15.1621 20.0887C15.0598 20.1081 15.1621 20.3498 15.0188 20.3305C14.8859 20.3208 14.8654 20.0791 14.7529 20.0887C14.6506 20.1081 14.7733 20.3305 14.671 20.3305C14.5687 20.3305 14.5483 20.1081 14.446 20.0887C14.3437 20.0791 14.3846 20.3015 14.3232 20.3015C14.2618 20.3015 14.2004 20.0887 14.1595 20.0887C14.1288 20.0887 14.1595 20.3015 14.0368 20.2821C13.914 20.2628 13.914 20.0501 13.8833 20.0597C13.8424 20.0791 13.8424 20.2338 13.7605 20.2338C13.6787 20.2338 13.6685 20.0791 13.6378 20.0984C13.5969 20.1081 13.4741 20.3015 13.3923 20.2725C13.3002 20.2434 13.4127 20.0887 13.3718 20.0887C13.3309 20.0887 13.2286 20.1951 13.1672 20.1854C13.1058 20.1758 13.1672 20.0501 13.1467 20.0501C13.1263 20.0501 12.9728 20.1274 12.9012 20.1274C12.8296 20.1274 12.6352 20.2241 12.5841 20.1371C12.5329 20.0404 12.7171 20.0404 12.758 19.9534C12.7887 19.8663 12.6557 19.6052 12.7989 19.5182C12.9319 19.4215 13.3718 19.6439 14.0265 19.4892C15.2132 19.1894 16.1339 18.8413 16.226 18.851Z" fill="#FFEC2D"/>
</g>
<defs>
<clipPath id="clip0_208_22270">
<rect width="24" height="24" rx="12" fill="white"/>
</clipPath>
</defs>
</svg>
