<svg width="24" height="24" viewBox="0 0 24 24" fill="none" xmlns="http://www.w3.org/2000/svg">
<g clip-path="url(#clip0_208_20522)">
<mask id="mask0_208_20522" style="mask-type:luminance" maskUnits="userSpaceOnUse" x="0" y="0" width="24" height="24">
<path d="M0 0H24V24H0V0Z" fill="white"/>
</mask>
<g mask="url(#mask0_208_20522)">
<path d="M0 0H24V24H0V0Z" fill="white"/>
<path fill-rule="evenodd" clip-rule="evenodd" d="M9.86266 17.0391C9.86266 17.0391 10.4064 16.5985 10.9314 16.5985C11.4564 16.5985 11.6064 16.9641 11.972 16.9922C12.3377 17.025 12.647 16.6266 13.097 16.6172C13.5564 16.5985 14.1283 16.936 14.1283 16.936L12.1361 17.5313L9.86266 17.0344V17.0391ZM8.7236 16.3922L15.4877 16.425C15.4877 16.425 14.9017 15.7922 14.2127 15.7781C13.5283 15.7641 13.7158 16.0735 13.1908 16.1156C12.6611 16.1625 12.5298 15.7922 12.047 15.8063C11.5642 15.8203 11.283 16.1156 10.922 16.1297C10.5517 16.1438 10.083 15.7641 9.80641 15.7781C9.52516 15.7922 8.53141 16.2188 8.53141 16.2188L8.71891 16.3922H8.7236ZM7.85641 15.586L16.2048 15.6188C16.3408 15.4266 15.797 14.9719 15.3002 14.9297C14.8877 14.9438 14.597 15.3516 14.2595 15.3656C13.922 15.3844 13.5423 14.9438 13.158 14.9578C12.783 14.9719 12.3845 15.3703 12.0048 15.3703C11.6205 15.3703 11.3439 14.9438 10.8611 14.9438C10.3783 14.9438 10.158 15.4125 9.79235 15.3844C9.42203 15.3516 9.10328 14.9156 8.75172 14.9156C8.40016 14.9156 7.81422 15.4406 7.69703 15.4125C7.57985 15.3844 7.84235 15.6328 7.85641 15.586Z" fill="#083D9C" stroke="#083D9C" stroke-width="0.333333"/>
<path fill-rule="evenodd" clip-rule="evenodd" d="M11.0629 10.9453L12.9848 11.4609V8.71872C12.1035 8.7656 11.3723 7.04997 12.9238 6.93279C11.4051 6.70779 11.227 7.10622 11.0488 7.5281L11.0676 10.9453H11.0629Z" fill="#FF0000" stroke="black" stroke-width="0.3125" stroke-linejoin="round"/>
<path fill-rule="evenodd" clip-rule="evenodd" d="M9.84863 12.9375L14.1846 12.9516L9.84863 12.9375Z" fill="#083D9C"/>
<path d="M9.84863 12.9375L14.1846 12.9516" stroke="#083D9C" stroke-width="0.625" stroke-linecap="round"/>
<path d="M10.0547 11.8969L10.5703 12.5859M10.0547 12.5859L10.6125 11.9109M10.35 11.85L10.3312 12.2765M10.875 11.8969L11.3906 12.5859M10.875 12.5859L11.4328 11.9109M11.1703 11.85L11.1516 12.2765M11.7141 11.8969L12.2203 12.5859M11.7094 12.5859L12.2672 11.9109M12.0047 11.85L11.9906 12.2765M12.5719 11.8969L13.0875 12.5859M12.5719 12.5859L13.1344 11.9109M12.8672 11.85L12.8531 12.2765M13.4109 11.8969L13.9219 12.5859M13.4062 12.5859L13.9688 11.9109M13.7016 11.85L13.6875 12.2765" stroke="black" stroke-width="0.5" stroke-linecap="round"/>
<path fill-rule="evenodd" clip-rule="evenodd" d="M6.93711 12.9844L8.7793 12.9938V11.8359L6.66992 11.7375L6.93242 12.9797L6.93711 12.9844ZM6.84336 11.3859L8.81211 11.5734L8.79336 10.7531L6.87148 9.99375L6.84805 11.3859H6.84336ZM7.2418 9.74531L8.75117 10.4766L8.9668 10.2516C8.9668 10.2516 8.82617 10.1578 8.83555 10.0641C8.83555 9.97969 8.97617 9.96563 8.97617 9.86719C8.97617 9.77813 8.82148 9.76875 8.82148 9.67969C8.80742 9.58594 8.94336 9.47812 8.94336 9.47812L7.5793 8.29688L7.2418 9.75V9.74531ZM17.1418 12.9938H15.1965L15.1824 11.8687L17.3199 11.7047L17.1418 12.9938ZM15.2105 11.6016L17.5262 11.3203L17.0246 9.99375L15.1965 10.7672L15.2105 11.6016ZM16.898 9.62812L15.2199 10.5C15.1965 10.4062 15.173 10.3125 15.0605 10.2375C15.0605 10.2375 15.1637 10.1766 15.1637 10.0734C15.1637 9.97031 15.0277 9.95625 15.0277 9.9C15.0277 9.84375 15.1496 9.7875 15.159 9.65625C15.1449 9.5625 15.0277 9.44063 15.0512 9.4125L16.3496 8.41875L16.8887 9.62344L16.898 9.62812ZM13.2699 11.5781L14.109 11.5406L14.123 11.2031L13.2746 11.5781H13.2699ZM10.7246 11.55L9.84336 11.5312V11.1797L10.7246 11.5547V11.55ZM10.7199 11.4469L9.84336 10.9969V10.4109C9.84336 10.4109 9.74023 10.425 9.7543 10.3078C9.75898 10.0641 10.4012 10.7531 10.7246 10.9781L10.7199 11.4469ZM13.2699 11.3953V11.0156C13.2699 11.0156 14.0574 10.3031 14.2262 10.1719C14.2262 10.3172 14.1324 10.4297 14.1324 10.4297V10.9922L13.2699 11.4V11.3953ZM8.15586 8.18906L9.0418 9.17344C9.06523 9.07969 9.2668 9.07031 9.47305 9.07969C9.6793 9.09844 9.84336 9.07031 9.84336 9.22031C9.84336 9.36094 9.73555 9.34219 9.73555 9.44531C9.73555 9.54844 9.89492 9.53906 9.89492 9.67031C9.89492 9.80156 9.78242 9.77344 9.77773 9.87656C9.77773 9.96094 9.89961 9.97031 9.89961 9.97031L10.7293 10.7719V9.90937L9.01836 7.22344L8.15586 8.18906ZM9.51523 7.17188L10.6777 9.54844C10.6777 9.54844 10.6918 7.35469 10.884 7.2375L10.5559 6.6375L9.51523 7.17188ZM14.5637 7.26562L13.2699 9.57656V8.60156C13.2699 8.60156 13.3777 8.4375 13.209 8.45156C13.0402 8.46563 12.8293 8.4375 12.8293 8.4375L13.3496 6.60938L14.5684 7.26562H14.5637ZM15.8949 8.25469C15.8809 8.28281 15.0184 9.15469 15.0184 9.15469C14.9809 9.05156 14.7184 9.10312 14.4746 9.10312C14.2262 9.10312 14.1934 9.18281 14.2027 9.24375C14.2309 9.41719 14.3152 9.29063 14.3152 9.45C14.3152 9.60469 14.1934 9.54375 14.184 9.66094C14.1934 9.79219 14.3715 9.75937 14.2684 9.8625L13.2699 10.8188V9.90937L15.1262 7.02656L15.8949 8.25469Z" fill="#EF7D08"/>
<path fill-rule="evenodd" clip-rule="evenodd" d="M11.4893 13.4203C11.0721 14.1094 9.95644 13.9078 9.69863 13.4203C9.61894 13.4016 9.66582 10.4438 9.66582 10.4438C9.66582 10.4438 9.53926 10.3875 9.53457 10.2984C9.52988 10.2047 9.70332 10.2 9.70332 10.0828C9.70332 9.96563 9.5252 10.0078 9.52051 9.89531C9.52051 9.77813 9.7127 9.79219 9.70801 9.68906C9.69395 9.57187 9.49238 9.59062 9.48301 9.47812C9.47363 9.39375 9.62363 9.31875 9.67051 9.28125H9.20644C8.98144 9.28125 9.21113 9.33281 9.20644 9.46875C9.20644 9.55312 9.09395 9.60938 9.08457 9.68438C9.08457 9.75938 9.24395 9.81094 9.24863 9.90469C9.24863 9.98438 9.08457 9.99375 9.08926 10.0688C9.10332 10.1953 9.23457 10.2234 9.23457 10.3031C9.23457 10.3781 9.05176 10.4109 9.05176 10.4719L9.07988 13.5094C9.36113 15 11.0205 15.375 11.4893 13.4156V13.4203ZM12.5814 13.4203C13.0033 14.1094 14.1143 13.9078 14.3768 13.4203C14.4564 13.4016 14.4096 10.4438 14.4096 10.4438C14.4096 10.4438 14.5361 10.3875 14.5408 10.2984C14.5455 10.2047 14.3814 10.2 14.3814 10.0828C14.3814 9.96563 14.5502 10.0078 14.5549 9.89531C14.5549 9.77813 14.3768 9.7875 14.3861 9.67969C14.3955 9.5625 14.5314 9.57656 14.5408 9.46875C14.5455 9.375 14.4518 9.31875 14.4096 9.28125H14.8643C15.0939 9.28125 14.8643 9.33281 14.8643 9.46875C14.8643 9.55312 14.9814 9.60938 14.9908 9.68438C14.9908 9.75938 14.8268 9.81094 14.8268 9.90469C14.8268 9.98438 14.9908 9.99375 14.9814 10.0688C14.9721 10.1953 14.8408 10.2234 14.8408 10.3031C14.8408 10.3781 15.0236 10.4109 15.0236 10.4719C15.0143 10.5937 14.9955 13.5094 14.9955 13.5094C14.7096 15 13.0549 15.375 12.5814 13.4156V13.4203Z" fill="#FF0000" stroke="black" stroke-width="0.3125" stroke-linejoin="round"/>
<path fill-rule="evenodd" clip-rule="evenodd" d="M11.0857 14.7797H12.9514C12.9654 14.7656 12.5295 14.1328 12.0139 14.1797C11.442 14.1938 11.0529 14.7797 11.0857 14.7797ZM17.0295 14.7328H14.4795C14.4795 14.7328 14.8076 14.5406 14.9014 14.3578C15.0654 14.4516 15.0186 14.5406 15.3467 14.5547C15.6748 14.5688 15.9936 14.1797 16.3076 14.1937C16.6217 14.2078 17.0295 14.7469 17.0295 14.7328ZM6.97949 14.7328H9.52949C9.52949 14.7328 9.20137 14.5406 9.10762 14.3578C8.94356 14.4516 8.99043 14.5406 8.65762 14.5547C8.32949 14.5688 8.01543 14.1797 7.69668 14.1937C7.38262 14.2078 6.97949 14.7469 6.97949 14.7328ZM7.16699 13.9359L8.98574 13.9453C8.98574 13.9453 8.86855 13.6969 8.85449 13.3922C8.38574 13.2281 8.00137 13.7437 7.66856 13.7578C7.33106 13.7719 6.97949 13.3922 6.97949 13.3922L7.16699 13.9313V13.9359ZM16.8701 13.9359L15.0514 13.9453C15.0514 13.9453 15.1686 13.6969 15.1826 13.3922C15.6514 13.2281 16.0311 13.7437 16.3686 13.7578C16.7061 13.7719 17.0576 13.3922 17.0576 13.3922L16.8701 13.9313V13.9359ZM11.5498 13.9453L12.4732 13.9172C12.4732 13.9172 12.4873 13.6359 12.0045 13.6359C11.5217 13.6359 11.5639 13.9641 11.5498 13.9453ZM10.9873 13.5516C11.1514 13.4625 11.3014 13.3734 11.3998 13.1719L10.7717 13.1859C10.7717 13.1859 10.4811 13.3594 10.3311 13.5516H10.9873ZM13.0264 13.5516C12.8518 13.4742 12.7082 13.3405 12.6186 13.1719L13.2467 13.1859C13.2467 13.1859 13.542 13.3594 13.6873 13.5516H13.0311H13.0264Z" fill="#083D9C" stroke="#083D9C" stroke-width="0.333333"/>
<path fill-rule="evenodd" clip-rule="evenodd" d="M-6 18H30V24H-6V18ZM-6 0H30V6H-6V0Z" fill="#DE2010"/>
</g>
</g>
<defs>
<clipPath id="clip0_208_20522">
<rect width="24" height="24" rx="12" fill="white"/>
</clipPath>
</defs>
</svg>
