<svg width="24" height="24" viewBox="0 0 24 24" fill="none" xmlns="http://www.w3.org/2000/svg">
<g clip-path="url(#clip0_208_11961)">
<path fill-rule="evenodd" clip-rule="evenodd" d="M24 20.8125C23.7328 21.1406 23.5031 21.9094 22.7859 21.9094C21.3563 21.9094 21 20.2875 19.9266 20.2875C19.2141 20.2875 18.8578 21.9141 18.1453 21.9141C16.7109 21.9141 16.3547 20.2875 15.2859 20.2875C14.5688 20.2875 14.2125 21.9141 13.5047 21.9141C12.0703 21.9141 11.7141 20.2875 10.6453 20.2875C9.92813 20.2875 9.57187 21.9141 8.85938 21.9141C7.42969 21.9141 7.07344 20.2875 6 20.2875C5.28281 20.2875 4.92656 21.9141 4.21406 21.9141C2.78438 21.9141 2.42812 20.2875 1.35469 20.2875C0.642187 20.2875 0.43125 21.4453 0 21.4453V23.5312C0.43125 23.5312 0.642187 22.3734 1.35938 22.3734C2.42812 22.3734 2.78906 24 4.21406 24C4.93125 24 5.2875 22.3734 6 22.3734C7.07344 22.3734 7.42969 24 8.85938 24C9.57187 24 9.92813 22.3734 10.6406 22.3734C11.7141 22.3734 12.075 24 13.5 24C14.2172 24 14.5734 22.3734 15.2859 22.3734C16.3594 22.3734 16.7156 24 18.1453 24C18.8578 24 19.2141 22.3734 19.9266 22.3734C21 22.3734 21.3609 24 22.7859 24C23.5031 24 23.7328 23.5406 24 23.2125V20.8125ZM24 16.7531C23.7328 17.0859 23.5031 17.85 22.7859 17.85C21.3563 17.85 21 16.2281 19.9266 16.2281C19.2141 16.2281 18.8578 17.85 18.1453 17.85C16.7109 17.85 16.3547 16.2281 15.2859 16.2281C14.5688 16.2281 14.2125 17.85 13.5047 17.85C12.0703 17.85 11.7141 16.2281 10.6453 16.2281C9.92813 16.2281 9.57187 17.85 8.85938 17.85C7.42969 17.85 7.07344 16.2281 6 16.2281C5.28281 16.2281 4.92656 17.85 4.21406 17.85C2.78438 17.85 2.42812 16.2281 1.35469 16.2281C0.642187 16.2281 0.43125 17.3859 0 17.3859V19.4766C0.43125 19.4766 0.642187 18.3187 1.35938 18.3187C2.42812 18.3187 2.78906 19.9453 4.21406 19.9453C4.93125 19.9453 5.2875 18.3187 6 18.3187C7.07344 18.3187 7.42969 19.9453 8.85938 19.9453C9.57187 19.9453 9.92813 18.3187 10.6406 18.3187C11.7141 18.3187 12.075 19.9453 13.5 19.9453C14.2172 19.9453 14.5734 18.3187 15.2859 18.3187C16.3594 18.3187 16.7156 19.9453 18.1453 19.9453C18.8578 19.9453 19.2141 18.3187 19.9266 18.3187C21 18.3187 21.3609 19.9453 22.7859 19.9453C23.5031 19.9453 23.7328 19.4859 24 19.1531V16.7531ZM24 12.6937C23.7328 13.0312 23.5031 13.7953 22.7859 13.7953C21.3563 13.7953 21 12.1688 19.9266 12.1688C19.2141 12.1688 18.8578 13.7953 18.1453 13.7953C16.7109 13.7953 16.3547 12.1688 15.2859 12.1688C14.5688 12.1688 14.2125 13.7953 13.5047 13.7953C12.0703 13.7953 11.7141 12.1688 10.6453 12.1688C9.92813 12.1688 9.57187 13.7953 8.85938 13.7953C7.42969 13.7953 7.07344 12.1688 6 12.1688C5.28281 12.1688 4.92656 13.7953 4.21406 13.7953C2.78438 13.7953 2.42812 12.1688 1.35469 12.1688C0.642187 12.1688 0.43125 13.3312 0 13.3312V15.4172C0.43125 15.4172 0.642187 14.2641 1.35938 14.2641C2.42812 14.2641 2.78906 15.8859 4.21406 15.8859C4.93125 15.8859 5.2875 14.2641 6 14.2641C7.07344 14.2641 7.42969 15.8859 8.85938 15.8859C9.57187 15.8859 9.92813 14.2641 10.6406 14.2641C11.7141 14.2641 12.075 15.8859 13.5 15.8859C14.2172 15.8859 14.5734 14.2641 15.2859 14.2641C16.3594 14.2641 16.7156 15.8859 18.1453 15.8859C18.8578 15.8859 19.2141 14.2641 19.9266 14.2641C21 14.2641 21.3609 15.8859 22.7859 15.8859C23.5031 15.8859 23.7328 15.4219 24 15.0938V12.6937ZM24 8.63906C23.7328 8.96719 23.5031 9.73594 22.7859 9.73594C21.3563 9.73594 21 8.11406 19.9266 8.11406C19.2141 8.11406 18.8578 9.73594 18.1453 9.73594C16.7109 9.73594 16.3547 8.11406 15.2859 8.11406C14.5688 8.11406 14.2125 9.73594 13.5047 9.73594C12.0703 9.73594 11.7141 8.11406 10.6453 8.11406C9.92813 8.11406 9.57187 9.73594 8.85938 9.73594C7.42969 9.73594 7.07344 8.11406 6 8.11406C5.28281 8.11406 4.92656 9.73594 4.21406 9.73594C2.78438 9.73594 2.42812 8.11406 1.35469 8.11406C0.642187 8.11406 0.43125 9.27188 0 9.27188V11.3625C0.43125 11.3625 0.642187 10.2047 1.35938 10.2047C2.42812 10.2047 2.78906 11.8312 4.21406 11.8312C4.93125 11.8312 5.2875 10.2047 6 10.2047C7.07344 10.2047 7.42969 11.8312 8.85938 11.8312C9.57187 11.8312 9.92813 10.2047 10.6406 10.2047C11.7141 10.2047 12.075 11.8312 13.5 11.8312C14.2172 11.8312 14.5734 10.2047 15.2859 10.2047C16.3594 10.2047 16.7156 11.8312 18.1453 11.8312C18.8578 11.8312 19.2141 10.2047 19.9266 10.2047C21 10.2047 21.3609 11.8312 22.7859 11.8312C23.5031 11.8312 23.7328 11.3625 24 11.0344V8.63906ZM24 4.57969C23.7328 4.90781 23.5031 5.68125 22.7859 5.68125C21.3563 5.68125 21 4.05469 19.9266 4.05469C19.2141 4.05469 18.8578 5.68125 18.1453 5.68125C16.7109 5.68125 16.3547 4.05469 15.2859 4.05469C14.5688 4.05469 14.2125 5.68125 13.5047 5.68125C12.0703 5.68125 11.7141 4.05469 10.6453 4.05469C9.92813 4.05469 9.57187 5.68125 8.85938 5.68125C7.42969 5.68125 7.07344 4.05469 6 4.05469C5.28281 4.05469 4.92656 5.68125 4.21406 5.68125C2.78438 5.68125 2.42812 4.05469 1.35469 4.05469C0.642187 4.05937 0.426563 5.22656 0 5.22656V7.3125C0.43125 7.3125 0.642187 6.15469 1.35938 6.15469C2.42812 6.15469 2.78437 7.77656 4.21875 7.77656C4.93125 7.77656 5.2875 6.15469 6 6.15469C7.07344 6.15469 7.42969 7.77656 8.85938 7.77656C9.57187 7.77656 9.92813 6.15469 10.6406 6.15469C11.7141 6.15469 12.0703 7.77656 13.5 7.77656C14.2172 7.77656 14.5734 6.15469 15.2859 6.15469C16.3594 6.15469 16.7156 7.77656 18.1453 7.77656C18.8578 7.77656 19.2141 6.15469 19.9266 6.15469C21 6.15469 21.3609 7.77656 22.7859 7.77656C23.4984 7.77656 23.7328 7.31719 24 6.98438V4.59375V4.57969ZM24 0.525C23.7328 0.853125 23.5031 1.62656 22.7859 1.62656C21.3563 1.62656 21 0 19.9266 0C19.2141 0 18.8578 1.62656 18.1453 1.62656C16.7109 1.62656 16.3547 0 15.2859 0C14.5688 0 14.2125 1.62656 13.5047 1.62656C12.0703 1.62656 11.7141 0 10.6453 0C9.92813 0 9.57187 1.62656 8.85469 1.62656C7.425 1.62656 7.07812 0 6 0C5.28281 0 4.93125 1.62656 4.21406 1.62656C2.78438 1.62656 2.42812 0 1.35469 0C0.646875 0 0.43125 1.1625 0 1.1625V3.25313C0.43125 3.25313 0.642187 2.09531 1.35938 2.09531C2.42812 2.09531 2.78437 3.72188 4.21875 3.72188C4.93125 3.72188 5.2875 2.09531 6 2.09531C7.07344 2.09531 7.42969 3.72188 8.85938 3.72188C9.57187 3.72188 9.92813 2.09531 10.6406 2.09531C11.7141 2.09531 12.0703 3.72188 13.5 3.72188C14.2172 3.72188 14.5734 2.09531 15.2859 2.09531C16.3594 2.09531 16.7156 3.72188 18.1453 3.72188C18.8578 3.72188 19.2141 2.09531 19.9266 2.09531C21 2.09531 21.3609 3.72188 22.7859 3.72188C23.4984 3.72188 23.7328 3.25781 24 2.925V0.525Z" fill="#000063"/>
<path fill-rule="evenodd" clip-rule="evenodd" d="M17.6859 7.92188L17.5312 22.0406C17.5312 22.7859 18.2016 22.7859 18.2719 22.0406L18.1266 7.93125L17.6859 7.92188Z" fill="#A24300" stroke="white" stroke-width="0.2375"/>
<path fill-rule="evenodd" clip-rule="evenodd" d="M19.2236 13.1719L18.7549 12.6563L18.6424 13.1766L18.4361 12.4266L18.2486 12.8016L18.2158 12.0047L18.0283 12.3844L17.9908 11.5875L17.8033 11.9625L17.6908 11.025L17.5033 11.4L17.3955 10.4625L17.208 10.8375L17.0955 9.90002L17.0439 9.43127L17.1377 9.24377L17.3814 9.33752L17.7752 9.70784L18.558 10.4531L18.0705 10.2656L18.858 11.0156L18.3705 10.8281L19.158 11.5781L18.6705 11.3906L19.3783 12L18.8908 11.8125L19.6033 12.4172L19.1158 12.2297L19.6549 12.886L19.0924 12.5578L19.2236 13.1719Z" fill="#006D00" stroke="white" stroke-width="0.2125"/>
<path d="M19.2236 13.1719L17.1377 9.24377M18.5627 10.4531L17.4377 9.80627L17.208 10.8375" stroke="black" stroke-width="0.0375"/>
<path d="M18.8576 11.0156L17.7326 10.364L17.5029 11.4046" stroke="black" stroke-width="0.0375"/>
<path d="M19.1582 11.5781L18.0332 10.9265L17.7988 11.9625" stroke="black" stroke-width="0.0375"/>
<path d="M19.3781 12L18.3281 11.4844L18.0234 12.3797" stroke="black" stroke-width="0.0375"/>
<path d="M19.6027 12.4219L18.5527 11.9062L18.248 12.8063" stroke="black" stroke-width="0.0375"/>
<path d="M19.6549 12.8906L18.7033 12.1875L18.6377 13.1766" stroke="black" stroke-width="0.0375"/>
<path fill-rule="evenodd" clip-rule="evenodd" d="M13.7438 6.4688L14.5078 6.76411L14.2875 6.18286L14.9531 6.83911L14.8922 6.37036L15.4313 7.15786L15.3656 6.68911L15.9094 7.47661L15.8438 7.00317L16.5469 7.8938L16.4813 7.42505L17.1797 8.31567L17.1141 7.84692L17.8172 8.73755L18.1641 9.18755L18.1969 9.42192L17.9109 9.44536L17.3016 9.25786L16.0969 8.88755L16.6688 8.84067L15.4594 8.46567L16.0359 8.4188L14.8266 8.0438L15.3984 7.99692L14.3484 7.72974L14.9203 7.68286L13.8703 7.41567L14.4422 7.36411L13.5234 6.96567L14.2547 7.02192L13.7484 6.4688H13.7438Z" fill="#006D00" stroke="white" stroke-width="0.225"/>
<path d="M13.7441 6.46875L18.1973 9.42188M16.0973 8.8875L17.5598 9L17.1145 7.84687" stroke="black" stroke-width="0.0375"/>
<path d="M15.459 8.46567L16.9215 8.57817L16.4809 7.42505" stroke="black" stroke-width="0.0375"/>
<path d="M14.8262 8.04849L16.2887 8.1563L15.8434 7.00317" stroke="black" stroke-width="0.0375"/>
<path d="M14.3486 7.73433H15.6518L15.3705 6.68433" stroke="black" stroke-width="0.0375"/>
<path d="M13.875 7.41567H15.1781L14.8922 6.37036" stroke="black" stroke-width="0.0375"/>
<path d="M13.5234 6.96567L14.8594 7.20942L14.2875 6.18286" stroke="black" stroke-width="0.0375"/>
<path fill-rule="evenodd" clip-rule="evenodd" d="M22.617 7.4531L21.9842 7.92185L22.6873 8.00154L21.7029 8.23591L22.2279 8.38591L21.1686 8.4656L21.6889 8.62029L20.6295 8.69529L21.1498 8.84998L19.9123 9.00466L20.4326 9.15935L19.1951 9.31404L19.7154 9.47341L18.4779 9.6281L17.8592 9.7031L17.5967 9.6281L17.6904 9.39373L18.1498 9.00466L19.0639 8.23123L18.867 8.69529L19.7811 7.92185L19.5842 8.38591L20.4982 7.61248L20.3014 8.07654L21.0373 7.3781L20.8404 7.84685L21.5717 7.14373L21.3795 7.61248L22.1951 7.06873L21.8201 7.61248L22.617 7.45779V7.4531Z" fill="#006D00" stroke="white" stroke-width="0.225"/>
<path d="M22.6172 7.45312L17.6016 9.62344M19.0641 8.23125L18.3141 9.31406L19.7203 9.47344" stroke="black" stroke-width="0.0375"/>
<path d="M19.7812 7.92188L19.0312 9L20.4375 9.15469" stroke="black" stroke-width="0.0375"/>
<path d="M20.498 7.61255L19.748 8.69536L21.1543 8.85005" stroke="black" stroke-width="0.0375"/>
<path d="M21.0377 7.37817L20.4658 8.38599L21.6893 8.62036" stroke="black" stroke-width="0.0375"/>
<path d="M21.5766 7.1438L21 8.1563L22.2188 8.39067" stroke="black" stroke-width="0.0375"/>
<path d="M22.1957 7.06873L21.3613 7.99685H22.6879" stroke="black" stroke-width="0.0375"/>
<path fill-rule="evenodd" clip-rule="evenodd" d="M22.5189 12.1546L21.7221 11.9203L22.008 12.4828L21.2721 11.8781L21.3846 12.3468L20.7658 11.6015L20.8783 12.0703L20.2549 11.325L20.3674 11.7937L19.5799 10.9546L19.6924 11.4234L18.9002 10.589L19.0127 11.0531L18.2205 10.2187L17.8268 9.79683L17.7705 9.56714L18.0518 9.52026L18.6752 9.66089L19.9174 9.93276L19.3549 10.0265L20.5924 10.3031L20.0299 10.3968L21.2721 10.6687L20.7096 10.7625L21.783 10.95L21.2205 11.0437L22.2893 11.2218L21.7268 11.3156L22.683 11.6437H21.9518L22.5143 12.1546H22.5189Z" fill="#006D00" stroke="white" stroke-width="0.225"/>
<path d="M22.5187 12.1547L17.7656 9.5625M19.9125 9.92813L18.4406 9.93281L19.0078 11.0484" stroke="black" stroke-width="0.0375"/>
<path d="M20.5922 10.3031H19.125L19.6875 11.4187" stroke="black" stroke-width="0.0375"/>
<path d="M21.2719 10.6687L19.8047 10.6781L20.3672 11.789" stroke="black" stroke-width="0.0375"/>
<path d="M21.7826 10.9453L20.4795 11.0438L20.8779 12.0656" stroke="black" stroke-width="0.0375"/>
<path d="M22.2887 11.2219L20.9902 11.3204L21.384 12.3422" stroke="black" stroke-width="0.0375"/>
<path d="M22.6875 11.6391L21.3281 11.5078L22.0078 12.4828" stroke="black" stroke-width="0.0375"/>
<path fill-rule="evenodd" clip-rule="evenodd" d="M14.2686 12.4219L14.667 11.8687L14.0576 11.9578L14.8076 11.5359L14.3295 11.5125L15.192 11.2031L14.7139 11.1844L15.5717 10.8797L15.0936 10.8562L16.0779 10.4437L15.6045 10.4203L16.5889 10.0078L16.1107 9.98904L17.0998 9.57185L17.592 9.3656L17.8311 9.37498L17.817 9.60935L17.5498 10.05L17.0061 10.9406L17.0389 10.4859L16.4998 11.3765L16.5279 10.9219L15.9889 11.8125L16.0217 11.3578L15.6092 12.1406L15.6373 11.6859L15.2248 12.4687L15.2576 12.0094L14.7326 12.675L14.892 12.1078L14.2686 12.4219Z" fill="#006D00" stroke="white" stroke-width="0.2125"/>
<path d="M14.2686 12.4219L17.8311 9.375M17.0154 10.9453L17.3295 9.82031L16.1154 9.99375" stroke="black" stroke-width="0.0375"/>
<path d="M16.4998 11.3812L16.8139 10.2468L15.6045 10.4203" stroke="black" stroke-width="0.0375"/>
<path d="M15.9893 11.8125L16.3127 10.6875L15.0986 10.8609" stroke="black" stroke-width="0.0375"/>
<path d="M15.6092 12.1406L15.7967 11.1188L14.7139 11.1844" stroke="black" stroke-width="0.0375"/>
<path d="M15.2246 12.4687L15.4121 11.4421L14.334 11.5125" stroke="black" stroke-width="0.0375"/>
<path d="M14.7328 12.675L15.1594 11.6625L14.0625 11.9578" stroke="black" stroke-width="0.0375"/>
<path fill-rule="evenodd" clip-rule="evenodd" d="M21.4688 5.10935L20.7 5.62498L20.5781 5.07654L20.1234 5.83591L20.0391 5.47029L19.6734 6.2531L19.6219 5.89216L19.3312 6.69373L19.1672 6.30935L18.8812 7.28435L18.7172 6.89529L18.4313 7.87029L18.2672 7.48591L17.9766 8.45622L17.8359 8.94373L17.9156 9.1406L18.225 9.03748L18.7594 8.64372L19.8234 7.85154L19.2141 8.0531L20.2781 7.2656L19.6594 7.46716L20.7281 6.67498L20.1141 6.87654L21.1828 6.26248L20.4516 6.43591L21.6047 5.8406L20.9016 6.02341L21.7453 5.3531L21.0187 5.69998L21.4688 5.10935Z" fill="#006D00" stroke="white" stroke-width="0.225"/>
<path d="M21.1738 5.39062L20.0629 6.34219L17.916 9.14062" stroke="black" stroke-width="0.0375"/>
<path d="M19.5939 7.9688L18.3658 8.55005L18.2627 7.65942" stroke="black" stroke-width="0.0375"/>
<path d="M20.0621 7.38755L18.8199 7.96411L18.7168 7.07349" stroke="black" stroke-width="0.0375"/>
<path d="M20.5033 6.79685L19.2705 7.37341L19.1768 6.48279" stroke="black" stroke-width="0.0375"/>
<path d="M20.8732 6.36091L19.7248 6.78279L19.5889 6.06091" stroke="black" stroke-width="0.0375"/>
<path d="M21.2953 5.93904L20.0625 6.34685L20.0156 5.63904" stroke="black" stroke-width="0.0375"/>
<path d="M21.4594 5.5406L20.3203 6.12654L20.5406 5.2406" stroke="black" stroke-width="0.0375"/>
<path fill-rule="evenodd" clip-rule="evenodd" d="M17.3109 4.14844L17.6578 4.93125L18.0984 4.51875L18.0187 5.37188L18.3141 5.09531L18.1547 5.92969L18.4172 5.64375L18.1734 6.45469L18.5484 6.20156L18.2062 7.1625L18.5812 6.90469L18.2344 7.86563L18.6094 7.60781L18.2625 8.56875L18.0891 9.05156L17.9016 9.17813L17.7 8.95313L17.4844 8.37656L17.0531 7.22344L17.4562 7.67344L17.025 6.52031L17.4281 6.96563L16.9969 5.8125L17.3953 6.2625L16.8609 5.25937L17.3766 5.73281L16.7578 4.71094L17.2453 5.17969L16.9313 4.22812L17.3391 4.85625L17.3109 4.14844Z" fill="#006D00" stroke="white" stroke-width="0.225"/>
<path d="M17.4004 4.5188L17.766 5.8313L17.902 9.17817" stroke="black" stroke-width="0.0375"/>
<path d="M17.1797 7.42969L17.8734 8.475L18.5016 7.75781" stroke="black" stroke-width="0.0375"/>
<path d="M17.1328 6.72192L17.8453 7.76724L18.4734 7.05474" stroke="black" stroke-width="0.0375"/>
<path d="M17.1143 6.0188L17.8174 7.06411L18.4361 6.34692" stroke="black" stroke-width="0.0375"/>
<path d="M17.0625 5.48438L17.7891 6.36094L18.3422 5.79844" stroke="black" stroke-width="0.0375"/>
<path d="M16.959 4.93591L17.7652 5.83123L18.234 5.24998" stroke="black" stroke-width="0.0375"/>
<path d="M17.0625 4.5188L17.6813 5.5313L18.0281 4.67349" stroke="black" stroke-width="0.0375"/>
<path fill-rule="evenodd" clip-rule="evenodd" d="M12.7129 9.90466L13.716 9.21091L13.2145 8.9531L14.091 9.1031L13.791 8.70466L14.6441 9.02341L14.3395 8.62498L15.1973 8.94373L14.8926 8.54998L15.9238 8.89685L15.6238 8.49841L16.627 9.01404L16.3223 8.62029L17.3535 8.96716L17.8551 9.22498L18.0051 9.42654L17.8035 9.56716L17.2551 9.64216L16.3645 10.0078L16.5285 9.69373L15.4223 9.84373L15.8254 9.56716L14.6957 9.89529L15.0941 9.61404L14.1426 9.97498L14.5691 9.52498L13.5895 10.05L14.016 9.60466L13.2191 10.1625L13.6645 9.54373L12.7129 9.90466Z" fill="#006D00" stroke="white" stroke-width="0.2125"/>
<path d="M13.0312 9.71724L14.0625 9.27192L14.625 9.18755L15.0844 9.18286L15.8812 9.22974L16.5938 9.26255L18 9.42192" stroke="black" stroke-width="0.0375"/>
<path d="M16.5004 9.8625L17.2973 9.375L16.4863 8.74219" stroke="black" stroke-width="0.0375"/>
<path d="M15.6094 9.78752L16.5891 9.26721L15.7828 8.6344" stroke="black" stroke-width="0.0375"/>
<path d="M14.9762 9.77344L15.8715 9.23438L15.0605 8.64844M13.7949 9.91406L14.6199 9.19219L13.9496 8.82656" stroke="black" stroke-width="0.0375"/>
<path d="M13.4248 9.96563L14.067 9.27188L13.5514 9.08438M14.3436 9.83438L15.1592 9.1875L14.5029 8.74219" stroke="black" stroke-width="0.0375"/>
<path fill-rule="evenodd" clip-rule="evenodd" d="M16.0829 17.5122L16.0734 16.3419L15.7344 15.7954C15.6495 15.5267 15.6911 15.397 15.8287 15.3878C15.9658 15.3796 16.1017 15.4572 16.2993 15.4659C16.4968 15.4746 16.4597 15.1625 16.7515 15.1712C17.0434 15.1799 17.5523 15.3362 17.9851 15.3622C18.4185 15.3878 18.6443 15.2233 19.1437 15.2059C19.6431 15.1886 19.7747 15.4225 19.803 15.4225C19.8313 15.4225 19.9728 15.3275 20.1137 15.3101C20.2552 15.2928 20.3024 15.3622 20.3024 15.3622C20.3024 15.3622 20.2929 15.657 20.2269 15.8301C20.1609 16.0038 19.9256 16.2898 19.9162 16.2898C19.9067 16.2898 19.8313 17.5643 19.8313 17.573C19.8313 17.5816 16.0829 17.5382 16.0829 17.5122Z" fill="#CC0000" stroke="black" stroke-width="0.0189296"/>
<path fill-rule="evenodd" clip-rule="evenodd" d="M19.9592 16.313C19.9592 16.313 20.3366 16.0474 20.3466 15.4084C20.3521 15.0406 20.1557 14.775 19.664 14.775C18.9759 14.775 17.9932 15.0463 17.9932 15.0463V15.1367C17.9932 15.1367 18.7795 14.8654 19.6646 14.8654C20.0575 14.8654 20.2545 15.131 20.2545 15.4028C20.2545 15.8554 19.8605 16.3135 19.8605 16.3135V17.0373H19.9592V16.313Z" fill="#FFF100" stroke="black" stroke-width="0.0189296"/>
<path fill-rule="evenodd" clip-rule="evenodd" d="M20.1641 16.124C20.163 16.1365 20.1648 16.149 20.1693 16.1609C20.1738 16.1727 20.1809 16.1835 20.1901 16.1927C20.1994 16.2018 20.2106 16.2092 20.2231 16.2142C20.2355 16.2192 20.249 16.2218 20.2626 16.2218C20.2761 16.2218 20.2896 16.2192 20.3021 16.2142C20.3145 16.2092 20.3257 16.2018 20.335 16.1927C20.3442 16.1835 20.3513 16.1727 20.3558 16.1609C20.3603 16.149 20.3621 16.1365 20.3611 16.124C20.3592 16.1012 20.348 16.0798 20.3297 16.0642C20.3115 16.0486 20.2875 16.0399 20.2626 16.0399C20.2376 16.0399 20.2136 16.0486 20.1954 16.0642C20.1771 16.0798 20.1659 16.1012 20.1641 16.124Z" fill="white" stroke="black" stroke-width="0.0189296"/>
<path fill-rule="evenodd" clip-rule="evenodd" d="M20.2617 15.9169C20.2607 15.9294 20.2625 15.9419 20.267 15.9537C20.2715 15.9655 20.2786 15.9763 20.2878 15.9855C20.297 15.9947 20.3082 16.002 20.3207 16.007C20.3332 16.012 20.3466 16.0146 20.3602 16.0146C20.3738 16.0146 20.3873 16.012 20.3997 16.007C20.4122 16.002 20.4234 15.9947 20.4326 15.9855C20.4419 15.9763 20.449 15.9655 20.4534 15.9537C20.4579 15.9419 20.4597 15.9294 20.4587 15.9169C20.4568 15.894 20.4457 15.8726 20.4274 15.857C20.4091 15.8414 20.3851 15.8328 20.3602 15.8328C20.3353 15.8328 20.3113 15.8414 20.293 15.857C20.2748 15.8726 20.2636 15.894 20.2617 15.9169Z" fill="white" stroke="black" stroke-width="0.0189296"/>
<path fill-rule="evenodd" clip-rule="evenodd" d="M20.3144 15.7056C20.3134 15.7181 20.3152 15.7306 20.3197 15.7424C20.3242 15.7542 20.3313 15.765 20.3405 15.7742C20.3498 15.7834 20.361 15.7907 20.3734 15.7957C20.3859 15.8007 20.3994 15.8033 20.4129 15.8033C20.4265 15.8033 20.44 15.8007 20.4524 15.7957C20.4649 15.7907 20.4761 15.7834 20.4854 15.7742C20.4946 15.765 20.5017 15.7542 20.5062 15.7424C20.5107 15.7306 20.5125 15.7181 20.5114 15.7056C20.5096 15.6827 20.4984 15.6613 20.4801 15.6457C20.4619 15.6301 20.4379 15.6215 20.4129 15.6215C20.388 15.6215 20.364 15.6301 20.3458 15.6457C20.3275 15.6613 20.3163 15.6827 20.3144 15.7056Z" fill="white" stroke="black" stroke-width="0.0189296"/>
<path fill-rule="evenodd" clip-rule="evenodd" d="M20.3516 15.4822C20.3505 15.4947 20.3523 15.5072 20.3568 15.519C20.3613 15.5308 20.3684 15.5417 20.3776 15.5508C20.3869 15.56 20.3981 15.5673 20.4106 15.5723C20.423 15.5773 20.4365 15.5799 20.4501 15.5799C20.4636 15.5799 20.4771 15.5773 20.4896 15.5723C20.502 15.5673 20.5132 15.56 20.5225 15.5508C20.5317 15.5417 20.5388 15.5308 20.5433 15.519C20.5478 15.5072 20.5496 15.4947 20.5486 15.4822C20.5467 15.4593 20.5355 15.4379 20.5172 15.4223C20.499 15.4067 20.475 15.3981 20.4501 15.3981C20.4251 15.3981 20.4011 15.4067 20.3829 15.4223C20.3646 15.4379 20.3534 15.4593 20.3516 15.4822Z" fill="white" stroke="black" stroke-width="0.0189296"/>
<path fill-rule="evenodd" clip-rule="evenodd" d="M20.3428 15.2384C20.3418 15.2509 20.3435 15.2634 20.348 15.2752C20.3525 15.287 20.3596 15.2979 20.3689 15.3071C20.3781 15.3162 20.3893 15.3235 20.4018 15.3286C20.4142 15.3336 20.4277 15.3361 20.4413 15.3361C20.4549 15.3361 20.4683 15.3336 20.4808 15.3286C20.4932 15.3235 20.5044 15.3162 20.5137 15.3071C20.5229 15.2979 20.53 15.287 20.5345 15.2752C20.539 15.2634 20.5408 15.2509 20.5398 15.2384C20.5379 15.2155 20.5267 15.1942 20.5084 15.1786C20.4902 15.163 20.4662 15.1543 20.4413 15.1543C20.4164 15.1543 20.3924 15.163 20.3741 15.1786C20.3558 15.1942 20.3446 15.2155 20.3428 15.2384Z" fill="white" stroke="black" stroke-width="0.0189296"/>
<path fill-rule="evenodd" clip-rule="evenodd" d="M20.0225 16.3069C20.0214 16.3194 20.0232 16.3319 20.0277 16.3437C20.0322 16.3555 20.0393 16.3664 20.0485 16.3755C20.0578 16.3847 20.069 16.392 20.0815 16.397C20.0939 16.402 20.1074 16.4046 20.121 16.4046C20.1345 16.4046 20.148 16.402 20.1605 16.397C20.1729 16.392 20.1841 16.3847 20.1934 16.3755C20.2026 16.3664 20.2097 16.3555 20.2142 16.3437C20.2187 16.3319 20.2205 16.3194 20.2194 16.3069C20.2176 16.284 20.2064 16.2626 20.1881 16.247C20.1699 16.2314 20.1459 16.2228 20.121 16.2228C20.096 16.2228 20.072 16.2314 20.0538 16.247C20.0355 16.2626 20.0243 16.284 20.0225 16.3069Z" fill="white" stroke="black" stroke-width="0.0189296"/>
<path fill-rule="evenodd" clip-rule="evenodd" d="M20.2578 15.0068C20.2568 15.0193 20.2586 15.0319 20.2631 15.0437C20.2676 15.0555 20.2746 15.0663 20.2839 15.0755C20.2931 15.0847 20.3043 15.092 20.3168 15.097C20.3293 15.102 20.3427 15.1046 20.3563 15.1046C20.3699 15.1046 20.3833 15.102 20.3958 15.097C20.4083 15.092 20.4195 15.0847 20.4287 15.0755C20.438 15.0663 20.4451 15.0555 20.4495 15.0437C20.454 15.0319 20.4558 15.0193 20.4548 15.0068C20.4529 14.984 20.4417 14.9626 20.4235 14.947C20.4052 14.9314 20.3812 14.9227 20.3563 14.9227C20.3314 14.9227 20.3074 14.9314 20.2891 14.947C20.2709 14.9626 20.2597 14.984 20.2578 15.0068Z" fill="white" stroke="black" stroke-width="0.0189296"/>
<path fill-rule="evenodd" clip-rule="evenodd" d="M20.0752 14.824C20.0742 14.8365 20.076 14.849 20.0805 14.8608C20.0849 14.8726 20.092 14.8835 20.1013 14.8926C20.1105 14.9018 20.1217 14.9091 20.1342 14.9141C20.1466 14.9191 20.1601 14.9217 20.1737 14.9217C20.1873 14.9217 20.2007 14.9191 20.2132 14.9141C20.2257 14.9091 20.2369 14.9018 20.2461 14.8926C20.2553 14.8835 20.2624 14.8726 20.2669 14.8608C20.2714 14.849 20.2732 14.8365 20.2722 14.824C20.2703 14.8011 20.2591 14.7797 20.2409 14.7641C20.2226 14.7485 20.1986 14.7399 20.1737 14.7399C20.1488 14.7399 20.1248 14.7485 20.1065 14.7641C20.0882 14.7797 20.0771 14.8011 20.0752 14.824Z" fill="white" stroke="black" stroke-width="0.0189296"/>
<path fill-rule="evenodd" clip-rule="evenodd" d="M19.8311 14.7022C19.83 14.7146 19.8318 14.7272 19.8363 14.739C19.8408 14.7508 19.8479 14.7616 19.8571 14.7708C19.8664 14.78 19.8776 14.7873 19.89 14.7923C19.9025 14.7973 19.916 14.7999 19.9295 14.7999C19.9431 14.7999 19.9566 14.7973 19.969 14.7923C19.9815 14.7873 19.9927 14.78 20.002 14.7708C20.0112 14.7616 20.0183 14.7508 20.0228 14.739C20.0273 14.7272 20.0291 14.7146 20.028 14.7022C20.0262 14.6793 20.015 14.6579 19.9967 14.6423C19.9785 14.6267 19.9545 14.618 19.9295 14.618C19.9046 14.618 19.8806 14.6267 19.8624 14.6423C19.8441 14.6579 19.8329 14.6793 19.8311 14.7022Z" fill="white" stroke="black" stroke-width="0.0189296"/>
<path fill-rule="evenodd" clip-rule="evenodd" d="M19.5879 14.6859C19.5869 14.6984 19.5887 14.7109 19.5931 14.7227C19.5976 14.7346 19.6047 14.7454 19.614 14.7546C19.6232 14.7637 19.6344 14.7711 19.6469 14.7761C19.6593 14.7811 19.6728 14.7837 19.6864 14.7837C19.7 14.7837 19.7134 14.7811 19.7259 14.7761C19.7383 14.7711 19.7495 14.7637 19.7588 14.7546C19.768 14.7454 19.7751 14.7346 19.7796 14.7227C19.7841 14.7109 19.7859 14.6984 19.7849 14.6859C19.783 14.663 19.7718 14.6417 19.7536 14.6261C19.7353 14.6105 19.7113 14.6018 19.6864 14.6018C19.6615 14.6018 19.6375 14.6105 19.6192 14.6261C19.6009 14.6417 19.5898 14.663 19.5879 14.6859Z" fill="white" stroke="black" stroke-width="0.0189296"/>
<path fill-rule="evenodd" clip-rule="evenodd" d="M19.3232 14.694C19.3222 14.7065 19.324 14.719 19.3285 14.7308C19.333 14.7426 19.3401 14.7534 19.3493 14.7626C19.3586 14.7718 19.3698 14.7791 19.3822 14.7841C19.3947 14.7891 19.4081 14.7917 19.4217 14.7917C19.4353 14.7917 19.4488 14.7891 19.4612 14.7841C19.4737 14.7791 19.4849 14.7718 19.4941 14.7626C19.5034 14.7534 19.5105 14.7426 19.515 14.7308C19.5195 14.719 19.5212 14.7065 19.5202 14.694C19.5184 14.6711 19.5072 14.6497 19.4889 14.6341C19.4706 14.6185 19.4467 14.6099 19.4217 14.6099C19.3968 14.6099 19.3728 14.6185 19.3546 14.6341C19.3363 14.6497 19.3251 14.6711 19.3232 14.694Z" fill="white" stroke="black" stroke-width="0.0189296"/>
<path fill-rule="evenodd" clip-rule="evenodd" d="M19.0596 14.7306C19.0585 14.7431 19.0603 14.7556 19.0648 14.7674C19.0693 14.7792 19.0764 14.7901 19.0857 14.7992C19.0949 14.8084 19.1061 14.8157 19.1186 14.8207C19.131 14.8257 19.1445 14.8283 19.1581 14.8283C19.1717 14.8283 19.1851 14.8257 19.1976 14.8207C19.21 14.8157 19.2212 14.8084 19.2305 14.7992C19.2397 14.7901 19.2468 14.7792 19.2513 14.7674C19.2558 14.7556 19.2576 14.7431 19.2566 14.7306C19.2547 14.7077 19.2435 14.6863 19.2252 14.6708C19.207 14.6552 19.183 14.6465 19.1581 14.6465C19.1331 14.6465 19.1092 14.6552 19.0909 14.6708C19.0726 14.6863 19.0614 14.7077 19.0596 14.7306Z" fill="white" stroke="black" stroke-width="0.0189296"/>
<path fill-rule="evenodd" clip-rule="evenodd" d="M18.7998 14.7631C18.7988 14.7755 18.8006 14.7881 18.8051 14.7999C18.8096 14.8117 18.8166 14.8225 18.8259 14.8317C18.8351 14.8409 18.8463 14.8482 18.8588 14.8532C18.8713 14.8582 18.8847 14.8608 18.8983 14.8608C18.9119 14.8608 18.9253 14.8582 18.9378 14.8532C18.9503 14.8482 18.9615 14.8409 18.9707 14.8317C18.98 14.8225 18.987 14.8117 18.9915 14.7999C18.996 14.7881 18.9978 14.7755 18.9968 14.7631C18.9949 14.7402 18.9837 14.7188 18.9655 14.7032C18.9472 14.6876 18.9232 14.679 18.8983 14.679C18.8734 14.679 18.8494 14.6876 18.8311 14.7032C18.8129 14.7188 18.8017 14.7402 18.7998 14.7631Z" fill="white" stroke="black" stroke-width="0.0189296"/>
<path fill-rule="evenodd" clip-rule="evenodd" d="M18.5146 14.8037C18.5136 14.8162 18.5154 14.8287 18.5199 14.8405C18.5244 14.8524 18.5315 14.8632 18.5407 14.8724C18.55 14.8815 18.5612 14.8889 18.5736 14.8939C18.5861 14.8989 18.5995 14.9014 18.6131 14.9014C18.6267 14.9014 18.6402 14.8989 18.6526 14.8939C18.6651 14.8889 18.6763 14.8815 18.6856 14.8724C18.6948 14.8632 18.7019 14.8524 18.7064 14.8405C18.7109 14.8287 18.7127 14.8162 18.7116 14.8037C18.7098 14.7808 18.6986 14.7595 18.6803 14.7439C18.6621 14.7283 18.6381 14.7196 18.6131 14.7196C18.5882 14.7196 18.5642 14.7283 18.546 14.7439C18.5277 14.7595 18.5165 14.7808 18.5146 14.8037Z" fill="white" stroke="black" stroke-width="0.0189296"/>
<path fill-rule="evenodd" clip-rule="evenodd" d="M18.2715 14.8688C18.2705 14.8813 18.2723 14.8938 18.2767 14.9056C18.2812 14.9174 18.2883 14.9283 18.2976 14.9374C18.3068 14.9466 18.318 14.9539 18.3305 14.9589C18.3429 14.9639 18.3564 14.9665 18.37 14.9665C18.3836 14.9665 18.397 14.9639 18.4095 14.9589C18.4219 14.9539 18.4331 14.9466 18.4424 14.9374C18.4516 14.9283 18.4587 14.9174 18.4632 14.9056C18.4677 14.8938 18.4695 14.8813 18.4685 14.8688C18.4666 14.8459 18.4554 14.8245 18.4372 14.8089C18.4189 14.7933 18.3949 14.7847 18.37 14.7847C18.3451 14.7847 18.3211 14.7933 18.3028 14.8089C18.2845 14.8245 18.2733 14.8459 18.2715 14.8688Z" fill="white" stroke="black" stroke-width="0.0189296"/>
<path fill-rule="evenodd" clip-rule="evenodd" d="M15.8213 16.124C15.8223 16.1365 15.8205 16.149 15.816 16.1609C15.8115 16.1727 15.8045 16.1835 15.7952 16.1927C15.786 16.2018 15.7748 16.2092 15.7623 16.2142C15.7498 16.2192 15.7364 16.2218 15.7228 16.2218C15.7092 16.2218 15.6958 16.2192 15.6833 16.2142C15.6708 16.2092 15.6596 16.2018 15.6504 16.1927C15.6411 16.1835 15.6341 16.1727 15.6296 16.1609C15.6251 16.149 15.6233 16.1365 15.6243 16.124C15.6262 16.1012 15.6374 16.0798 15.6556 16.0642C15.6739 16.0486 15.6979 16.0399 15.7228 16.0399C15.7477 16.0399 15.7717 16.0486 15.79 16.0642C15.8082 16.0798 15.8194 16.1012 15.8213 16.124Z" fill="white" stroke="black" stroke-width="0.0189296"/>
<path fill-rule="evenodd" clip-rule="evenodd" d="M15.7197 15.9169C15.7207 15.9294 15.719 15.9419 15.7145 15.9537C15.71 15.9655 15.7029 15.9763 15.6936 15.9855C15.6844 15.9947 15.6732 16.002 15.6607 16.007C15.6483 16.012 15.6348 16.0146 15.6212 16.0146C15.6076 16.0146 15.5942 16.012 15.5817 16.007C15.5693 16.002 15.5581 15.9947 15.5488 15.9855C15.5396 15.9763 15.5325 15.9655 15.528 15.9537C15.5235 15.9419 15.5217 15.9294 15.5227 15.9169C15.5246 15.894 15.5358 15.8726 15.5541 15.857C15.5723 15.8414 15.5963 15.8328 15.6212 15.8328C15.6461 15.8328 15.6701 15.8414 15.6884 15.857C15.7067 15.8726 15.7179 15.894 15.7197 15.9169Z" fill="white" stroke="black" stroke-width="0.0189296"/>
<path fill-rule="evenodd" clip-rule="evenodd" d="M15.6709 15.7056C15.6719 15.7181 15.6701 15.7306 15.6656 15.7424C15.6612 15.7542 15.6541 15.765 15.6448 15.7742C15.6356 15.7834 15.6244 15.7907 15.6119 15.7957C15.5994 15.8007 15.586 15.8033 15.5724 15.8033C15.5588 15.8033 15.5454 15.8007 15.5329 15.7957C15.5204 15.7907 15.5092 15.7834 15.5 15.7742C15.4907 15.765 15.4837 15.7542 15.4792 15.7424C15.4747 15.7306 15.4729 15.7181 15.4739 15.7056C15.4758 15.6827 15.487 15.6613 15.5052 15.6457C15.5235 15.6301 15.5475 15.6215 15.5724 15.6215C15.5973 15.6215 15.6213 15.6301 15.6396 15.6457C15.6578 15.6613 15.669 15.6827 15.6709 15.7056Z" fill="white" stroke="black" stroke-width="0.0189296"/>
<path fill-rule="evenodd" clip-rule="evenodd" d="M15.6348 15.4822C15.6358 15.4947 15.634 15.5072 15.6295 15.519C15.625 15.5308 15.6179 15.5417 15.6087 15.5508C15.5994 15.56 15.5882 15.5673 15.5758 15.5723C15.5633 15.5773 15.5499 15.5799 15.5363 15.5799C15.5227 15.5799 15.5092 15.5773 15.4968 15.5723C15.4843 15.5673 15.4731 15.56 15.4639 15.5508C15.4546 15.5417 15.4475 15.5308 15.443 15.519C15.4386 15.5072 15.4368 15.4947 15.4378 15.4822C15.4396 15.4593 15.4508 15.4379 15.4691 15.4223C15.4874 15.4067 15.5114 15.3981 15.5363 15.3981C15.5612 15.3981 15.5852 15.4067 15.6035 15.4223C15.6217 15.4379 15.6329 15.4593 15.6348 15.4822Z" fill="white" stroke="black" stroke-width="0.0189296"/>
<path fill-rule="evenodd" clip-rule="evenodd" d="M15.6426 15.2384C15.6436 15.2509 15.6418 15.2634 15.6373 15.2752C15.6328 15.287 15.6257 15.2979 15.6165 15.3071C15.6073 15.3162 15.596 15.3235 15.5836 15.3286C15.5711 15.3336 15.5577 15.3361 15.5441 15.3361C15.5305 15.3361 15.517 15.3336 15.5046 15.3286C15.4921 15.3235 15.4809 15.3162 15.4717 15.3071C15.4624 15.2979 15.4553 15.287 15.4509 15.2752C15.4464 15.2634 15.4446 15.2509 15.4456 15.2384C15.4475 15.2155 15.4586 15.1942 15.4769 15.1786C15.4952 15.163 15.5192 15.1543 15.5441 15.1543C15.569 15.1543 15.593 15.163 15.6113 15.1786C15.6295 15.1942 15.6407 15.2155 15.6426 15.2384Z" fill="white" stroke="black" stroke-width="0.0189296"/>
<path fill-rule="evenodd" clip-rule="evenodd" d="M15.7246 15.0068C15.7256 15.0193 15.7238 15.0319 15.7194 15.0437C15.7149 15.0555 15.7078 15.0663 15.6985 15.0755C15.6893 15.0847 15.6781 15.092 15.6656 15.097C15.6532 15.102 15.6397 15.1046 15.6261 15.1046C15.6125 15.1046 15.5991 15.102 15.5866 15.097C15.5742 15.092 15.563 15.0847 15.5537 15.0755C15.5445 15.0663 15.5374 15.0555 15.5329 15.0437C15.5284 15.0319 15.5266 15.0193 15.5276 15.0068C15.5295 14.984 15.5407 14.9626 15.5589 14.947C15.5772 14.9314 15.6012 14.9227 15.6261 14.9227C15.651 14.9227 15.675 14.9314 15.6933 14.947C15.7116 14.9626 15.7227 14.984 15.7246 15.0068Z" fill="white" stroke="black" stroke-width="0.0189296"/>
<path fill-rule="evenodd" clip-rule="evenodd" d="M15.9033 14.824C15.9043 14.8365 15.9026 14.849 15.8981 14.8608C15.8936 14.8726 15.8865 14.8835 15.8772 14.8926C15.868 14.9018 15.8568 14.9091 15.8443 14.9141C15.8319 14.9191 15.8184 14.9217 15.8048 14.9217C15.7912 14.9217 15.7778 14.9191 15.7653 14.9141C15.7529 14.9091 15.7417 14.9018 15.7324 14.8926C15.7232 14.8835 15.7161 14.8726 15.7116 14.8608C15.7071 14.849 15.7053 14.8365 15.7063 14.824C15.7082 14.8011 15.7194 14.7797 15.7377 14.7641C15.7559 14.7485 15.7799 14.7399 15.8048 14.7399C15.8297 14.7399 15.8537 14.7485 15.872 14.7641C15.8903 14.7797 15.9015 14.8011 15.9033 14.824Z" fill="white" stroke="black" stroke-width="0.0189296"/>
<path fill-rule="evenodd" clip-rule="evenodd" d="M16.1504 14.7022C16.1514 14.7146 16.1496 14.7272 16.1451 14.739C16.1406 14.7508 16.1336 14.7616 16.1243 14.7708C16.1151 14.78 16.1039 14.7873 16.0914 14.7923C16.0789 14.7973 16.0655 14.7999 16.0519 14.7999C16.0383 14.7999 16.0249 14.7973 16.0124 14.7923C15.9999 14.7873 15.9887 14.78 15.9795 14.7708C15.9702 14.7616 15.9632 14.7508 15.9587 14.739C15.9542 14.7272 15.9524 14.7146 15.9534 14.7022C15.9553 14.6793 15.9665 14.6579 15.9847 14.6423C16.003 14.6267 16.027 14.618 16.0519 14.618C16.0768 14.618 16.1008 14.6267 16.1191 14.6423C16.1373 14.6579 16.1485 14.6793 16.1504 14.7022Z" fill="white" stroke="black" stroke-width="0.0189296"/>
<path fill-rule="evenodd" clip-rule="evenodd" d="M16.3945 14.6859C16.3956 14.6984 16.3938 14.7109 16.3893 14.7227C16.3848 14.7346 16.3777 14.7454 16.3685 14.7546C16.3592 14.7637 16.348 14.7711 16.3355 14.7761C16.3231 14.7811 16.3096 14.7837 16.296 14.7837C16.2824 14.7837 16.269 14.7811 16.2565 14.7761C16.2441 14.7711 16.2329 14.7637 16.2236 14.7546C16.2144 14.7454 16.2073 14.7346 16.2028 14.7227C16.1983 14.7109 16.1965 14.6984 16.1975 14.6859C16.1994 14.663 16.2106 14.6417 16.2289 14.6261C16.2471 14.6105 16.2711 14.6018 16.296 14.6018C16.321 14.6018 16.3449 14.6105 16.3632 14.6261C16.3815 14.6417 16.3927 14.663 16.3945 14.6859Z" fill="white" stroke="black" stroke-width="0.0189296"/>
<path fill-rule="evenodd" clip-rule="evenodd" d="M16.6582 14.694C16.6592 14.7065 16.6574 14.719 16.6529 14.7308C16.6485 14.7426 16.6414 14.7534 16.6321 14.7626C16.6229 14.7718 16.6117 14.7791 16.5992 14.7841C16.5868 14.7891 16.5733 14.7917 16.5597 14.7917C16.5461 14.7917 16.5327 14.7891 16.5202 14.7841C16.5077 14.7791 16.4965 14.7718 16.4873 14.7626C16.4781 14.7534 16.471 14.7426 16.4665 14.7308C16.462 14.719 16.4602 14.7065 16.4612 14.694C16.4631 14.6711 16.4743 14.6497 16.4925 14.6341C16.5108 14.6185 16.5348 14.6099 16.5597 14.6099C16.5846 14.6099 16.6086 14.6185 16.6269 14.6341C16.6452 14.6497 16.6563 14.6711 16.6582 14.694Z" fill="white" stroke="black" stroke-width="0.0189296"/>
<path fill-rule="evenodd" clip-rule="evenodd" d="M16.9229 14.7306C16.9239 14.7431 16.9221 14.7556 16.9176 14.7674C16.9131 14.7792 16.906 14.7901 16.8968 14.7992C16.8875 14.8084 16.8763 14.8157 16.8639 14.8207C16.8514 14.8257 16.838 14.8283 16.8244 14.8283C16.8108 14.8283 16.7973 14.8257 16.7849 14.8207C16.7724 14.8157 16.7612 14.8084 16.7519 14.7992C16.7427 14.7901 16.7356 14.7792 16.7311 14.7674C16.7266 14.7556 16.7248 14.7431 16.7259 14.7306C16.7277 14.7077 16.7389 14.6863 16.7572 14.6708C16.7754 14.6552 16.7994 14.6465 16.8244 14.6465C16.8493 14.6465 16.8733 14.6552 16.8915 14.6708C16.9098 14.6863 16.921 14.7077 16.9229 14.7306Z" fill="white" stroke="black" stroke-width="0.0189296"/>
<path fill-rule="evenodd" clip-rule="evenodd" d="M17.1865 14.7631C17.1875 14.7755 17.1858 14.7881 17.1813 14.7999C17.1768 14.8117 17.1697 14.8225 17.1604 14.8317C17.1512 14.8409 17.14 14.8482 17.1275 14.8532C17.1151 14.8582 17.1016 14.8608 17.088 14.8608C17.0744 14.8608 17.061 14.8582 17.0485 14.8532C17.0361 14.8482 17.0249 14.8409 17.0156 14.8317C17.0064 14.8225 16.9993 14.8117 16.9948 14.7999C16.9903 14.7881 16.9885 14.7755 16.9895 14.7631C16.9914 14.7402 17.0026 14.7188 17.0209 14.7032C17.0391 14.6876 17.0631 14.679 17.088 14.679C17.1129 14.679 17.1369 14.6876 17.1552 14.7032C17.1735 14.7188 17.1847 14.7402 17.1865 14.7631Z" fill="white" stroke="black" stroke-width="0.0189296"/>
<path fill-rule="evenodd" clip-rule="evenodd" d="M17.4668 14.8037C17.4678 14.8162 17.466 14.8287 17.4615 14.8405C17.4571 14.8524 17.45 14.8632 17.4407 14.8724C17.4315 14.8815 17.4203 14.8889 17.4078 14.8939C17.3953 14.8989 17.3819 14.9014 17.3683 14.9014C17.3547 14.9014 17.3413 14.8989 17.3288 14.8939C17.3163 14.8889 17.3051 14.8815 17.2959 14.8724C17.2866 14.8632 17.2796 14.8524 17.2751 14.8405C17.2706 14.8287 17.2688 14.8162 17.2698 14.8037C17.2717 14.7808 17.2829 14.7595 17.3011 14.7439C17.3194 14.7283 17.3434 14.7196 17.3683 14.7196C17.3932 14.7196 17.4172 14.7283 17.4355 14.7439C17.4537 14.7595 17.4649 14.7808 17.4668 14.8037Z" fill="white" stroke="black" stroke-width="0.0189296"/>
<path fill-rule="evenodd" clip-rule="evenodd" d="M17.7109 14.8688C17.712 14.8813 17.7102 14.8938 17.7057 14.9056C17.7012 14.9174 17.6941 14.9283 17.6849 14.9374C17.6756 14.9466 17.6644 14.9539 17.6519 14.9589C17.6395 14.9639 17.626 14.9665 17.6124 14.9665C17.5989 14.9665 17.5854 14.9639 17.5729 14.9589C17.5605 14.9539 17.5493 14.9466 17.54 14.9374C17.5308 14.9283 17.5237 14.9174 17.5192 14.9056C17.5147 14.8938 17.5129 14.8813 17.5139 14.8688C17.5158 14.8459 17.527 14.8245 17.5453 14.8089C17.5635 14.7933 17.5875 14.7847 17.6124 14.7847C17.6374 14.7847 17.6614 14.7933 17.6796 14.8089C17.6979 14.8245 17.7091 14.8459 17.7109 14.8688Z" fill="white" stroke="black" stroke-width="0.0189296"/>
<path fill-rule="evenodd" clip-rule="evenodd" d="M15.96 16.3069C15.961 16.3194 15.9592 16.3319 15.9547 16.3437C15.9502 16.3555 15.9431 16.3664 15.9339 16.3755C15.9246 16.3847 15.9134 16.392 15.901 16.397C15.8885 16.402 15.8751 16.4046 15.8615 16.4046C15.8479 16.4046 15.8344 16.402 15.822 16.397C15.8095 16.392 15.7983 16.3847 15.7891 16.3755C15.7798 16.3664 15.7727 16.3555 15.7682 16.3437C15.7637 16.3319 15.762 16.3194 15.763 16.3069C15.7648 16.284 15.776 16.2626 15.7943 16.247C15.8126 16.2314 15.8366 16.2228 15.8615 16.2228C15.8864 16.2228 15.9104 16.2314 15.9286 16.247C15.9469 16.2626 15.9581 16.284 15.96 16.3069Z" fill="white" stroke="black" stroke-width="0.0189296"/>
<path fill-rule="evenodd" clip-rule="evenodd" d="M16.0271 16.313C16.0271 16.313 15.6498 16.0474 15.6398 15.4084C15.6342 15.0406 15.8307 14.775 16.3223 14.775C17.0104 14.775 17.9931 15.0463 17.9931 15.0463V15.1367C17.9931 15.1367 17.2068 14.8654 16.3217 14.8654C15.9289 14.8654 15.7319 15.131 15.7319 15.4028C15.7319 15.8554 16.1259 16.3135 16.1259 16.3135V17.0373H16.0271V16.313Z" fill="#FFF100" stroke="black" stroke-width="0.0189296"/>
<path fill-rule="evenodd" clip-rule="evenodd" d="M16.7119 16.6483C16.7119 16.6483 16.7402 16.5794 16.8431 16.5794C16.913 16.5794 16.974 16.6483 16.974 16.7172V16.8551H17.0397V16.7172C17.0397 16.6483 17.1052 16.5794 17.1706 16.5794C17.269 16.5794 17.3018 16.6483 17.3018 16.6483C17.3018 16.6483 17.3018 16.4415 17.1706 16.4415C17.0724 16.4415 17.0397 16.5103 17.0397 16.5103C17.0397 16.5103 17.0724 16.407 17.0724 16.3035C17.0724 16.2 17.0069 16.1311 17.0069 16.1311C17.0069 16.1443 16.9413 16.2002 16.9413 16.3035C16.9413 16.4068 16.974 16.5103 16.974 16.5103C16.974 16.5103 16.9413 16.4415 16.8431 16.4415C16.7119 16.4415 16.7119 16.6483 16.7119 16.6483Z" fill="#FFF100" stroke="black" stroke-width="0.015177"/>
<path fill-rule="evenodd" clip-rule="evenodd" d="M18.6787 16.6483C18.6787 16.6483 18.707 16.5794 18.8099 16.5794C18.8798 16.5794 18.9408 16.6483 18.9408 16.7172V16.8551H19.0065V16.7172C19.0065 16.6483 19.072 16.5794 19.1374 16.5794C19.2358 16.5794 19.2686 16.6483 19.2686 16.6483C19.2686 16.6483 19.2686 16.4415 19.1374 16.4415C19.0392 16.4415 19.0065 16.5103 19.0065 16.5103C19.0065 16.5103 19.0392 16.407 19.0392 16.3035C19.0392 16.2 18.9737 16.1311 18.9737 16.1311C18.9737 16.1443 18.9081 16.2002 18.9081 16.3035C18.9081 16.4068 18.9408 16.5103 18.9408 16.5103C18.9408 16.5103 18.9081 16.4415 18.8099 16.4415C18.6787 16.4415 18.6787 16.6483 18.6787 16.6483Z" fill="#FFF100" stroke="black" stroke-width="0.015177"/>
<path fill-rule="evenodd" clip-rule="evenodd" d="M16.0273 17.5804V16.7656C16.0273 16.7656 16.2238 17.0374 16.519 17.0374C16.7604 17.0374 17.0106 16.6752 17.0106 16.6752C17.0106 16.6752 17.2409 16.947 17.5023 16.947C17.7353 16.947 17.9934 16.5966 17.9934 16.5966C17.9934 16.5966 18.2331 16.947 18.485 16.947C18.7375 16.947 18.9767 16.6752 18.9767 16.6752C18.9767 16.6752 19.2336 17.0374 19.5665 17.0374C19.8612 17.0374 19.96 16.7656 19.96 16.7656V17.5804H16.0273Z" fill="#FFF100" stroke="black" stroke-width="0.0189296"/>
<path fill-rule="evenodd" clip-rule="evenodd" d="M16.0273 17.5803V16.9469C16.0273 16.9469 16.6172 17.1272 16.6172 17.5803H16.0273Z" fill="#FFF100" stroke="black" stroke-width="0.0189296"/>
<path fill-rule="evenodd" clip-rule="evenodd" d="M19.9551 17.5803V16.9469C19.9551 16.9469 19.3652 17.1272 19.3652 17.5803H19.9551Z" fill="#FFF100" stroke="black" stroke-width="0.0189296"/>
<path fill-rule="evenodd" clip-rule="evenodd" d="M16.4199 17.5803C16.4199 17.1272 17.0098 16.8412 17.0098 16.8412C17.0098 16.8412 17.5997 17.1272 17.5997 17.5803H16.4199Z" fill="#FFF100" stroke="black" stroke-width="0.0189296"/>
<path fill-rule="evenodd" clip-rule="evenodd" d="M18.3867 17.5803C18.3867 17.1272 18.9766 16.8412 18.9766 16.8412C18.9766 16.8412 19.5664 17.1272 19.5664 17.5803H18.3867Z" fill="#FFF100" stroke="black" stroke-width="0.0189296"/>
<path fill-rule="evenodd" clip-rule="evenodd" d="M17.3047 17.5828C17.3047 17.1302 17.9933 16.7686 17.9933 16.7686C17.9933 16.7686 18.6814 17.1302 18.6814 17.5828H17.3052H17.3047Z" fill="#FFF100" stroke="black" stroke-width="0.0189296"/>
<path fill-rule="evenodd" clip-rule="evenodd" d="M20.0556 17.5811C19.8613 17.4907 19.1448 17.4003 17.9911 17.4003C16.8373 17.4003 16.0709 17.4907 15.8761 17.5811C15.6819 17.6715 15.6819 17.8528 15.8761 17.9432C16.0703 18.0337 16.8379 18.1241 17.9911 18.1241C19.1443 18.1241 19.8613 18.0337 20.0556 17.9432C20.2498 17.8528 20.2498 17.6715 20.0556 17.5811Z" fill="white" stroke="black" stroke-width="0.0188222"/>
<path fill-rule="evenodd" clip-rule="evenodd" d="M19.9599 17.9419C19.9599 18.1247 18.3227 18.1247 17.9936 18.1247C17.6361 18.1247 16.0273 18.1735 16.0273 17.9419C16.0273 17.7632 17.6483 17.7632 17.9936 17.7632C18.3349 17.7632 19.9599 17.7997 19.9599 17.9419Z" fill="#808080"/>
<path fill-rule="evenodd" clip-rule="evenodd" d="M16.2223 17.2919C16.2223 17.3529 16.1817 17.4016 16.1248 17.4016C16.068 17.4016 16.0273 17.3529 16.0273 17.2919C16.0273 17.231 16.068 17.1863 16.1248 17.1863C16.1777 17.1863 16.2223 17.235 16.2223 17.2919ZM19.9599 17.2919C19.9599 17.3529 19.9152 17.4016 19.8583 17.4016C19.8055 17.4016 19.7608 17.3529 19.7608 17.2919C19.7608 17.231 19.8055 17.1863 19.8583 17.1863C19.9152 17.1863 19.9558 17.235 19.9558 17.2919H19.9599Z" fill="#CC0000"/>
<path fill-rule="evenodd" clip-rule="evenodd" d="M18.188 17.2391C18.188 17.2959 18.0986 17.3447 17.993 17.3447C17.8874 17.3447 17.7939 17.2959 17.7939 17.235C17.7939 17.1741 17.8833 17.1294 17.993 17.1294C18.1027 17.1294 18.188 17.1781 18.188 17.235V17.2391Z" fill="black"/>
<path fill-rule="evenodd" clip-rule="evenodd" d="M19.1312 17.2391C19.1312 17.2959 19.0662 17.3447 18.985 17.3447C18.9037 17.3447 18.8387 17.2959 18.8387 17.235C18.8387 17.1741 18.9037 17.1294 18.985 17.1294C19.0663 17.1294 19.1312 17.1781 19.1312 17.235V17.2391ZM17.1081 17.2391C17.1081 17.2959 17.0431 17.3447 16.9619 17.3447C16.8806 17.3447 16.8115 17.2959 16.8115 17.235C16.8115 17.1741 16.8765 17.1294 16.9619 17.1294C17.0431 17.1294 17.1081 17.1781 17.1081 17.235V17.2391Z" fill="#006300"/>
<path fill-rule="evenodd" clip-rule="evenodd" d="M17.598 16.615C17.598 16.615 17.7102 16.4603 17.8228 16.4603H17.935V16.5633C17.935 16.7186 17.7667 16.7706 17.7667 16.7706H18.2159C18.2159 16.7706 18.0473 16.7186 18.0473 16.5633V16.4603H18.1598C18.272 16.4603 18.3843 16.6156 18.3843 16.6156V16.2014C18.3843 16.2014 18.272 16.3567 18.1598 16.3567H18.0473V16.253C18.0473 16.0981 18.2159 16.0464 18.2159 16.0464H17.7663C17.7663 16.0464 17.9347 16.0981 17.9347 16.253V16.3567H17.8225C17.7099 16.3567 17.5977 16.2014 17.5977 16.2014V16.6153L17.598 16.615Z" fill="#FFF100" stroke="black" stroke-width="0.0178474"/>
<path fill-rule="evenodd" clip-rule="evenodd" d="M16.0244 16.9478H16.1368C16.1368 16.9478 16.0525 16.9026 16.0525 16.7667V16.6765H16.1086C16.1649 16.6765 16.2212 16.8124 16.2212 16.8124V16.45C16.2212 16.45 16.1649 16.5858 16.1086 16.5858H16.0525V16.4952C16.0525 16.3595 16.1368 16.3143 16.1368 16.3143H16.0244V16.9478Z" fill="#FFF100" stroke="black" stroke-width="0.0177106"/>
<path fill-rule="evenodd" clip-rule="evenodd" d="M19.958 16.9478H19.8456C19.8456 16.9478 19.9299 16.9026 19.9299 16.7667V16.6765H19.8738C19.8175 16.6765 19.7612 16.8124 19.7612 16.8124V16.45C19.7612 16.45 19.8175 16.5858 19.8738 16.5858H19.9299V16.4952C19.9299 16.3595 19.8456 16.3143 19.8456 16.3143H19.958V16.9478Z" fill="#FFF100" stroke="black" stroke-width="0.0177106"/>
<path fill-rule="evenodd" clip-rule="evenodd" d="M18.091 16.4039C18.091 16.4279 18.0806 16.4509 18.0622 16.4678C18.0438 16.4848 18.0188 16.4943 17.9927 16.4943C17.9667 16.4943 17.9417 16.4848 17.9233 16.4678C17.9049 16.4509 17.8945 16.4279 17.8945 16.4039C17.8945 16.3799 17.9049 16.3569 17.9233 16.34C17.9417 16.323 17.9667 16.3135 17.9927 16.3135C18.0188 16.3135 18.0438 16.323 18.0622 16.34C18.0806 16.3569 18.091 16.3799 18.091 16.4039Z" fill="white" stroke="black" stroke-width="0.0189296"/>
<path fill-rule="evenodd" clip-rule="evenodd" d="M17.598 14.7137C17.598 14.7137 17.7102 14.559 17.8228 14.559H17.935V14.6621C17.935 14.8174 17.7667 14.8693 17.7667 14.8693H18.2159C18.2159 14.8693 18.0473 14.8174 18.0473 14.6621V14.559H18.1598C18.272 14.559 18.3843 14.7143 18.3843 14.7143V14.3001C18.3843 14.3001 18.272 14.4554 18.1598 14.4554H18.0473V14.3518C18.0473 14.1968 18.2159 14.1451 18.2159 14.1451H17.7663C17.7663 14.1451 17.9347 14.1968 17.9347 14.3518V14.4554H17.8225C17.7099 14.4554 17.5977 14.3001 17.5977 14.3001V14.714L17.598 14.7137Z" fill="#FFF100" stroke="black" stroke-width="0.0178474"/>
<path fill-rule="evenodd" clip-rule="evenodd" d="M18.0998 14.5189C18.0998 14.5429 18.0894 14.5659 18.071 14.5828C18.0526 14.5998 18.0276 14.6093 18.0015 14.6093C17.9755 14.6093 17.9505 14.5998 17.9321 14.5828C17.9137 14.5659 17.9033 14.5429 17.9033 14.5189C17.9033 14.4949 17.9137 14.4719 17.9321 14.4549C17.9505 14.438 17.9755 14.4285 18.0015 14.4285C18.0276 14.4285 18.0526 14.438 18.071 14.4549C18.0894 14.4719 18.0998 14.4949 18.0998 14.5189Z" fill="white" stroke="black" stroke-width="0.0189296"/>
<path fill-rule="evenodd" clip-rule="evenodd" d="M17.7965 14.8673H18.1899V15.1391H17.7959L17.7965 14.8673Z" fill="#FFF100" stroke="black" stroke-width="0.0189296"/>
<path fill-rule="evenodd" clip-rule="evenodd" d="M17.7965 15.0093H18.1899V16.0436H17.7959L17.7965 15.0093Z" fill="#FFF100" stroke="black" stroke-width="0.0189296"/>
<path fill-rule="evenodd" clip-rule="evenodd" d="M18.0889 15.86C18.0899 15.8725 18.0881 15.885 18.0836 15.8968C18.0791 15.9086 18.072 15.9195 18.0628 15.9286C18.0535 15.9378 18.0423 15.9451 18.0299 15.9501C18.0174 15.9551 18.004 15.9577 17.9904 15.9577C17.9768 15.9577 17.9633 15.9551 17.9509 15.9501C17.9384 15.9451 17.9272 15.9378 17.918 15.9286C17.9087 15.9195 17.9016 15.9086 17.8971 15.8968C17.8927 15.885 17.8909 15.8725 17.8919 15.86C17.8937 15.8371 17.9049 15.8157 17.9232 15.8001C17.9415 15.7845 17.9655 15.7759 17.9904 15.7759C18.0153 15.7759 18.0393 15.7845 18.0576 15.8001C18.0758 15.8157 18.087 15.8371 18.0889 15.86Z" fill="white" stroke="black" stroke-width="0.0189296"/>
<path fill-rule="evenodd" clip-rule="evenodd" d="M18.0889 15.6284C18.0899 15.6409 18.0881 15.6534 18.0836 15.6653C18.0791 15.6771 18.072 15.6879 18.0628 15.6971C18.0535 15.7062 18.0423 15.7136 18.0299 15.7186C18.0174 15.7236 18.004 15.7262 17.9904 15.7262C17.9768 15.7262 17.9633 15.7236 17.9509 15.7186C17.9384 15.7136 17.9272 15.7062 17.918 15.6971C17.9087 15.6879 17.9016 15.6771 17.8971 15.6653C17.8927 15.6534 17.8909 15.6409 17.8919 15.6284C17.8937 15.6056 17.9049 15.5842 17.9232 15.5686C17.9415 15.553 17.9655 15.5443 17.9904 15.5443C18.0153 15.5443 18.0393 15.553 18.0576 15.5686C18.0758 15.5842 18.087 15.6056 18.0889 15.6284Z" fill="white" stroke="black" stroke-width="0.0189296"/>
<path fill-rule="evenodd" clip-rule="evenodd" d="M18.0889 15.4131C18.0899 15.4256 18.0881 15.4381 18.0836 15.4499C18.0791 15.4617 18.072 15.4726 18.0628 15.4817C18.0535 15.4909 18.0423 15.4982 18.0299 15.5032C18.0174 15.5082 18.004 15.5108 17.9904 15.5108C17.9768 15.5108 17.9633 15.5082 17.9509 15.5032C17.9384 15.4982 17.9272 15.4909 17.918 15.4817C17.9087 15.4726 17.9016 15.4617 17.8971 15.4499C17.8927 15.4381 17.8909 15.4256 17.8919 15.4131C17.8937 15.3902 17.9049 15.3688 17.9232 15.3532C17.9415 15.3376 17.9655 15.329 17.9904 15.329C18.0153 15.329 18.0393 15.3376 18.0576 15.3532C18.0758 15.3688 18.087 15.3902 18.0889 15.4131Z" fill="white" stroke="black" stroke-width="0.0189296"/>
<path fill-rule="evenodd" clip-rule="evenodd" d="M18.0889 15.1856C18.0899 15.198 18.0881 15.2106 18.0836 15.2224C18.0791 15.2342 18.072 15.245 18.0628 15.2542C18.0535 15.2634 18.0423 15.2707 18.0299 15.2757C18.0174 15.2807 18.004 15.2833 17.9904 15.2833C17.9768 15.2833 17.9633 15.2807 17.9509 15.2757C17.9384 15.2707 17.9272 15.2634 17.918 15.2542C17.9087 15.245 17.9016 15.2342 17.8971 15.2224C17.8927 15.2106 17.8909 15.198 17.8919 15.1856C17.8937 15.1627 17.9049 15.1413 17.9232 15.1257C17.9415 15.1101 17.9655 15.1014 17.9904 15.1014C18.0153 15.1014 18.0393 15.1101 18.0576 15.1257C18.0758 15.1413 18.087 15.1627 18.0889 15.1856Z" fill="white" stroke="black" stroke-width="0.0189296"/>
<path fill-rule="evenodd" clip-rule="evenodd" d="M18.2009 17.5845C18.2009 17.6251 18.1115 17.6576 17.9978 17.6576C17.884 17.6576 17.8028 17.6251 17.8028 17.5845C17.8028 17.5439 17.8921 17.5114 18.0018 17.5114C18.1115 17.5114 18.2009 17.5438 18.2009 17.5845ZM20.0127 17.7632C20.0005 17.7917 19.903 17.7957 19.7934 17.7673C19.6837 17.7429 19.6065 17.7023 19.6146 17.6738C19.6268 17.6454 19.7243 17.6413 19.834 17.6698C19.9437 17.6942 20.0209 17.7348 20.0127 17.7632ZM19.2531 17.6413C19.2531 17.6779 19.1556 17.6982 19.0418 17.6942C18.9321 17.686 18.8427 17.6494 18.8468 17.6129C18.8509 17.5763 18.9484 17.556 19.0581 17.5641C19.1718 17.5723 19.2612 17.6048 19.2531 17.6413ZM15.9299 17.7632C15.938 17.7917 16.0355 17.7957 16.1452 17.7673C16.2549 17.7429 16.3362 17.7023 16.324 17.6738C16.3118 17.6454 16.2143 17.6413 16.1046 17.6698C15.999 17.6942 15.9177 17.7348 15.9299 17.7632ZM16.7221 17.6251C16.7262 17.6616 16.8237 17.682 16.9334 17.6738C17.0471 17.6657 17.1365 17.6332 17.1284 17.5926C17.1284 17.5601 17.0309 17.5357 16.9171 17.5438C16.8074 17.5519 16.7181 17.5845 16.7221 17.6251Z" fill="black"/>
<path d="M0 0H12V12H0V0Z" fill="#012169"/>
<path d="M12 0V1.5L7.54688 6L12 10.3828V12H10.4297L5.95312 7.59375L1.59375 12H0V10.4062L4.35938 6.02344L0 1.73438V0H1.45312L5.95312 4.40625L10.3125 0H12Z" fill="white"/>
<path d="M4.3125 7.59375L4.57031 8.39062L0.984375 12H0V11.9297L4.3125 7.59375ZM7.21875 7.3125L8.48438 7.5L12 10.9453V12L7.21875 7.3125ZM12 0L7.5 4.59375L7.40625 3.5625L10.9219 0H12ZM0 0.0234375L4.52344 4.45312L3.14062 4.26562L0 1.14844V0.0234375Z" fill="#C8102E"/>
<path d="M4.125 0V12H7.875V0H4.125ZM0 4.125V7.875H12V4.125H0Z" fill="white"/>
<path d="M0 4.875V7.125H12V4.875H0ZM4.875 0V12H7.125V0H4.875Z" fill="#C8102E"/>
</g>
<defs>
<clipPath id="clip0_208_11961">
<rect width="24" height="24" rx="12" fill="white"/>
</clipPath>
</defs>
</svg>
