<svg width="24" height="24" viewBox="0 0 24 24" fill="none" xmlns="http://www.w3.org/2000/svg">
<g clip-path="url(#clip0_208_23657)">
<path fill-rule="evenodd" clip-rule="evenodd" d="M7.30273 0H16.6965V24H7.30273V0Z" fill="white"/>
<path fill-rule="evenodd" clip-rule="evenodd" d="M0 0H7.30313V24H0V0ZM16.6969 0H24V24H16.6969V0Z" fill="#198200"/>
<path fill-rule="evenodd" clip-rule="evenodd" d="M11.3903 15.5812V17.5031L12.1637 17.5125C12.1637 17.5125 11.9153 15.8343 12.0512 15.6093C12.1918 15.389 12.3184 15.4218 12.3184 15.4218C12.3184 15.4218 12.8246 15.5718 12.8809 15.5484C12.9371 15.525 12.8715 15.3562 13.1434 15.3796C13.2325 15.3468 13.1856 15.1921 13.2653 15.1875C13.345 15.1781 14.8918 15.6187 15.2246 15.2015C15.1403 14.9671 14.8356 15.1875 14.7559 15.1921C14.6809 15.1921 14.3809 15.0515 14.2028 15.1921C14.0387 15.075 13.3121 14.9953 13.3121 14.9953C13.2184 14.9015 15.0465 15.0421 15.1543 14.9718C15.37 14.7562 14.7559 14.7796 14.6575 14.85C14.4887 14.7468 14.2731 14.7562 14.1418 14.8265C14.0762 14.6765 13.4856 14.7421 13.1528 14.7C13.045 14.6343 13.059 14.6015 13.134 14.5593C13.8278 14.5921 14.5168 14.6812 15.2106 14.6531C15.3981 14.4046 14.9762 14.3109 14.7137 14.5218C14.559 14.2687 14.245 14.5125 14.0387 14.489C13.8325 14.4656 13.9262 14.2078 14.1934 14.25C14.4559 14.2875 14.9293 14.2312 15.0184 14.1093C15.1075 13.9921 14.9668 13.8703 14.5309 13.9828C14.3809 13.8421 14.0575 13.9828 13.9028 14.0296C13.7012 13.9218 13.2325 14.0156 13.0731 14.0578C12.9137 13.9593 13.8981 13.8 13.8981 13.8C14.2731 13.7953 14.4887 13.7296 14.6106 13.6968C15.1825 13.3875 14.6012 13.3546 14.3012 13.5796C14.1137 13.4343 13.9356 13.5937 13.7668 13.65C13.5981 13.7062 13.2793 13.7437 13.2793 13.7203C13.2793 13.6968 13.7387 13.4156 13.7387 13.4156C13.7387 13.4156 14.3012 13.3734 14.409 13.3593C14.5215 13.3453 15.0981 13.05 14.3153 13.2468C14.0434 13.2703 13.8793 13.2562 13.7762 13.2609C13.1715 13.2 13.8325 13.1437 13.8325 13.1437C13.8325 13.1437 14.6856 13.064 14.6996 13.0218C14.7137 12.6937 13.9965 12.8484 13.9965 12.8484C13.9965 12.6093 13.3262 12.8531 13.3262 12.8484C13.1996 12.7734 13.4012 12.6937 13.4012 12.6937C13.5746 12.6515 13.8418 12.6375 13.9075 12.5812C13.9075 12.5812 14.4043 12.5812 14.4653 12.4453C14.3434 12.1078 13.4106 12.5062 13.2887 12.5671C13.12 12.5671 13.4012 12.2953 13.4059 12.2859C13.4153 12.2765 14.1746 12.2437 14.5356 11.7562C14.5637 11.4609 14.1137 11.925 14.1137 11.925C14.0809 11.5406 13.6262 11.9484 13.3637 11.9812C13.0965 12.014 13.0871 11.8593 13.27 11.8406C13.4575 11.8125 13.6637 11.8312 13.7668 11.55C13.8746 11.2687 14.1887 11.564 14.2403 11.4562C14.2965 11.3578 14.1278 11.2687 14.1278 11.2687C14.1278 11.2687 14.3621 11.0296 13.9871 11.0343C13.6121 11.0437 13.12 10.9875 13.12 10.9875C13.12 10.9875 13.5137 10.8375 13.8793 10.8468C14.2496 10.8515 14.0481 10.5796 13.6918 10.5796C13.345 10.5796 13.1575 10.4578 13.1575 10.4578L13.7621 10.2328L13.72 10.064C13.72 10.064 14.0715 9.78276 13.5793 9.84839L13.0215 9.92339L12.0231 10.0734C12.0137 10.0734 11.7512 9.9937 12.0043 9.93276C12.2621 9.86714 13.1668 9.67964 13.3028 9.7312C13.4434 9.77808 13.2887 9.3937 12.8059 9.34683C12.3278 9.29995 12.0278 9.46401 12.0278 9.46401C12.0278 9.46401 11.7184 9.35151 12.0043 9.25776C12.295 9.16401 12.7543 9.29058 12.7543 9.29058C12.7543 9.29058 13.2653 9.13589 12.8387 9.07026C12.4168 9.00933 12.2762 9.1312 12.0887 9.13589C12.009 9.04214 12.7543 9.0187 12.8012 8.93433C12.7215 8.7937 12.2575 8.93433 11.9903 8.93433C11.8731 8.88745 11.8684 8.80776 11.9996 8.76089C12.2715 8.75151 12.5293 8.76558 12.8059 8.7562C12.7965 8.6062 12.8059 8.43276 12.8012 8.28745C12.4496 8.22183 12.0418 8.33433 11.845 8.32495C11.8965 8.16558 12.6512 8.12339 12.7356 8.0812C12.909 7.86089 11.9996 8.0812 11.9856 8.0812C11.8309 8.05776 11.845 7.95464 11.9387 7.8937C12.1731 7.87026 12.6934 7.92651 12.6559 7.77183C12.6231 7.62183 12.295 7.70151 12.159 7.73433C12.0184 7.76714 11.8215 7.7437 11.8215 7.7437C11.7325 7.62651 12.6043 7.67339 12.5996 7.58433C12.5856 7.47651 12.0465 7.55151 11.8637 7.5562C11.7184 7.46245 12.5528 7.39214 12.5668 7.38276C12.595 7.11558 12.0043 7.38276 11.8918 7.38276C11.7793 7.38276 11.8356 7.21401 11.8356 7.21401C11.8356 7.21401 12.07 7.11089 12.0606 7.09214C12.0559 7.07808 11.8871 7.02183 11.8731 7.02183C11.8543 7.02183 11.8731 6.83433 11.8731 6.83433C11.8731 6.83433 12.0606 6.6937 12.0465 6.65151C12.0278 6.61401 11.8215 6.68433 11.8215 6.68433V6.52495C11.8215 6.52495 11.9715 6.5062 11.9903 6.43589C12.0043 6.36558 11.8028 6.3562 11.8028 6.3562L11.7278 5.51245L11.6528 6.29995L11.3903 6.34214C11.3903 6.34214 11.5731 6.44526 11.6059 6.54839C11.6387 6.65151 11.3809 6.6187 11.3809 6.6187C11.3809 6.6187 11.5871 6.79683 11.6059 6.86245C11.62 6.92339 11.3153 6.94214 11.3153 6.94214C11.3153 6.94214 11.5731 7.12964 11.5871 7.22808C11.6059 7.33589 11.5871 7.39214 11.5871 7.39214C11.5871 7.39214 11.1653 7.01714 10.8934 7.12495C10.7528 7.19995 11.2168 7.23276 11.5262 7.49995C11.5262 7.56089 10.7762 7.31714 10.7481 7.47183C10.7668 7.51401 11.545 7.62651 11.6059 7.72495C11.32 7.73901 10.7293 7.66401 10.7481 7.75776C10.6871 7.86558 11.3059 7.80464 11.5637 7.89839C11.6387 7.98276 11.634 8.05308 11.5028 8.06245C11.2496 7.94526 10.6918 7.8562 10.6918 8.0062C10.6918 8.04839 11.2684 8.02026 11.4746 8.16089C11.1981 8.22183 10.2559 8.02964 10.2512 8.12339C10.2793 8.17026 10.4293 8.35776 10.6825 8.35308C10.9403 8.3437 11.5309 8.4562 11.5731 8.53589C11.6106 8.61558 10.8043 8.36714 10.495 8.51245C10.1856 8.65776 11.3715 8.5687 11.5637 8.74683C11.7559 8.92495 11.1793 8.72808 11.1793 8.72808C11.1793 8.72808 10.3825 8.61558 10.2606 8.67183C10.1387 8.72808 10.0028 8.85933 10.0028 8.85933C10.0028 8.85933 10.0825 9.0187 10.1621 8.98589C10.2418 8.95308 10.1387 9.07964 10.1387 9.07964C10.1387 9.07964 11.2637 9.35151 11.5075 9.59526C11.7559 9.82964 10.0825 9.22026 10.0825 9.22026C10.0825 9.22026 9.40746 9.46401 10.12 9.48276C10.0403 9.59995 10.1668 9.67026 10.1668 9.67026C10.1668 9.67026 11.3481 9.92339 11.47 10.1156C11.5871 10.3031 10.659 9.92808 10.4528 9.82495C10.2418 9.72183 9.65121 9.89058 9.6559 9.92808C9.66527 9.97026 9.94652 10.0265 9.9559 10.0968C9.96058 10.1718 9.60902 10.1906 9.60902 10.2562C9.60902 10.3218 11.109 10.6312 11.5075 10.9734C11.9059 11.3156 10.3309 10.5703 10.3309 10.5703C10.3309 10.5703 10.42 10.6921 10.3309 10.725C10.2418 10.7531 9.92777 10.275 9.41683 10.5703C9.32308 10.6921 9.86683 10.7906 10.0028 10.8046C9.9559 10.9218 9.91371 10.964 10.1059 11.0859C10.2981 11.2031 9.7309 10.9078 9.7309 10.9218L9.7684 11.1328C9.59027 10.9921 9.37934 10.9453 9.17777 11.0906C9.17777 11.0906 9.1684 11.2359 9.37934 11.325C9.26215 11.5593 9.5059 11.4843 9.89027 11.7C9.3184 11.55 9.27152 11.8312 9.67933 11.8921C10.0918 11.9578 11.2121 11.9953 11.4746 12.3421C11.7418 12.6843 11.0996 12.2109 11.0293 12.2015C11.0116 12.2578 11.0006 12.316 10.9965 12.375C10.8329 12.2672 10.6522 12.188 10.4621 12.1406C10.4481 12.1781 10.4528 12.2203 10.434 12.2531C10.2465 12.1218 10.0871 12.0281 9.81996 12.014L9.78715 12.1406C9.78715 12.1406 9.56215 11.8593 9.12152 12.1406C8.87309 12.3187 10.0496 12.2062 10.2465 12.4125C10.434 12.6234 10.284 12.6562 10.284 12.6562L9.80121 12.4781C9.80121 12.4781 9.23402 12.375 9.07465 12.5015C8.91059 12.6281 11.4137 12.9421 11.484 13.289C11.5309 13.4765 10.8981 13.0921 10.345 12.9281L10.284 13.1156C10.284 13.1156 10.0637 12.8906 9.81527 12.8531L9.86215 13.0687C9.86215 13.0687 9.25277 12.7828 8.93871 12.9328C8.62465 13.0875 10.0262 13.1671 10.1575 13.3078C10.284 13.4578 9.7309 13.214 9.67933 13.3078C9.63246 13.4062 8.95277 13.1343 8.96215 13.2609C8.96683 13.3921 9.0559 13.4625 9.0559 13.4625C9.0559 13.4625 10.4762 13.6031 10.5231 13.7671C10.57 13.9359 9.73558 13.6734 9.73558 13.6734C9.73558 13.6734 9.6559 13.7906 9.72152 13.8468C9.78715 13.9031 9.23871 13.5281 9.29027 13.7765C9.11215 13.7062 8.65746 13.4859 8.7184 13.6546C8.78402 13.8234 10.0121 14.0625 10.0121 14.0625C10.0121 14.0625 9.47309 14.1046 9.49652 14.2406C8.80746 13.8187 8.82621 14.0906 8.84027 14.1C8.85434 14.1046 7.94965 13.8703 8.63402 14.2406C9.31371 14.6109 8.99965 14.5453 9.00902 14.5546C9.0184 14.5593 9.07933 14.7421 9.06527 14.7421C9.04652 14.7421 8.59652 14.4984 8.44652 14.4796C8.29652 14.4656 7.57465 14.6812 8.3434 15.0187C9.11215 15.3562 9.58559 14.939 10.0121 14.9859C10.434 15.0328 10.6356 15.1078 10.5934 15.2437C10.5559 15.3796 10.1621 14.7937 9.74965 15.3C9.27621 15.2062 8.95277 15.1546 9.19652 15.4968C8.42777 15.2156 7.95902 15.5906 8.92933 15.7406C9.8809 15.7687 10.4668 15.5062 10.4668 15.5062C10.4668 15.5062 10.6262 15.8015 10.8606 15.5953C11.095 15.3843 11.0996 15.675 11.109 15.675L11.334 15.5812H11.3903Z" fill="#198200" stroke="black" stroke-width="0.0875" stroke-linecap="round" stroke-linejoin="round"/>
<path fill-rule="evenodd" clip-rule="evenodd" d="M11.4845 14.4374V14.3062C11.4845 14.3062 11.1798 14.2546 11.0345 14.2827C10.9407 14.2358 10.861 14.1655 10.7579 14.2218C10.7392 14.2687 10.9454 14.3812 11.0204 14.3812C11.1048 14.4327 11.4845 14.4468 11.4845 14.4421V14.4374ZM11.4798 14.6577C11.4798 14.6577 11.1751 14.5499 11.0579 14.6765C11.0767 14.8124 11.4142 14.878 11.4798 14.8405C11.5548 14.803 11.4798 14.6671 11.4798 14.6577ZM11.9907 14.714V14.8077C11.9907 14.8077 12.3517 14.878 12.4126 14.7983C12.4782 14.7233 12.1314 14.6718 11.9907 14.714ZM11.972 14.339L11.986 14.4468C11.986 14.4468 12.3001 14.5171 12.4173 14.3437C12.5392 14.1749 12.1454 14.3437 11.972 14.339ZM11.9907 13.9733V14.0437C11.9907 14.0437 12.2251 14.0812 12.2767 13.9827C12.3329 13.8796 11.9954 13.9827 11.9907 13.9733ZM11.4985 13.7577C11.461 13.7108 11.3345 13.5796 10.9923 13.5421C10.7579 13.5421 11.4235 13.8937 11.4985 13.7577ZM11.9814 13.4015L11.972 13.4952C11.972 13.4952 12.7782 13.2608 12.9657 13.2749C13.1345 13.228 13.1673 13.1108 13.1626 13.1108C13.0173 13.0077 12.3235 13.1952 11.9814 13.4015ZM12.0001 13.1202L11.9907 13.214C11.9907 13.214 12.5532 13.1015 12.7079 12.9937C12.8579 12.8858 12.0048 13.1202 12.0001 13.1155V13.1202ZM11.9767 12.839V12.9327C11.9767 12.9327 12.3517 12.9233 12.4314 12.8437C12.4782 12.7687 12.0985 12.8343 11.9767 12.839ZM12.7642 13.6358C12.7642 13.6358 12.961 13.6593 12.9985 13.603C12.9939 13.4999 12.7642 13.6358 12.7642 13.6312V13.6358ZM11.9907 12.4874L11.9954 12.6937C11.9954 12.6937 12.9048 12.403 12.961 12.3515C13.0173 12.2999 13.1485 12.1358 11.9907 12.4874ZM11.9673 12.1968V12.3468C11.9673 12.3468 12.3329 12.3233 12.5017 12.1827C12.6657 12.0421 11.9673 12.2015 11.9673 12.1968ZM11.5267 11.8546L11.5501 11.9952L10.3501 11.6015C10.3501 11.6015 10.2892 11.4046 11.522 11.8546H11.5267ZM11.5454 11.3718C11.5454 11.3858 11.5454 11.503 11.5407 11.4983C11.5407 11.4983 10.7064 11.1515 10.6735 11.1796C10.5657 10.9218 11.5454 11.3765 11.5454 11.3671V11.3718ZM11.9532 11.5874L11.9673 11.7046C11.9673 11.7046 12.4782 11.5968 12.5064 11.5452C12.5345 11.4983 11.9532 11.5921 11.9532 11.5874ZM11.9626 11.8593L11.9814 11.9765C11.9814 11.9765 12.1829 11.9624 12.2157 11.9155C12.2439 11.8687 11.9626 11.8593 11.9626 11.8593ZM11.9345 11.2358V11.353C11.9345 11.353 12.497 11.2405 12.5579 11.189C12.6189 11.1327 11.9204 11.2358 11.9345 11.2358ZM11.9345 10.9265C11.9345 10.9358 11.9157 11.0437 11.9298 11.0437C12.1985 11.0065 12.4615 10.9356 12.7126 10.8327C12.8204 10.739 11.9439 10.9405 11.9345 10.9265ZM11.9251 10.3827V10.4999C11.9251 10.4999 12.3564 10.4108 12.4407 10.3218C12.5251 10.2327 11.9251 10.3921 11.9251 10.3827ZM11.8501 9.59053L11.8642 9.76865C11.8642 9.76865 12.4407 9.68897 12.5251 9.59053C12.6095 9.49678 11.8501 9.59053 11.8501 9.59053ZM11.5829 8.25928V8.37178C11.5829 8.37178 11.3064 8.35772 11.3767 8.31084C11.4423 8.26397 11.5829 8.26865 11.5829 8.26397V8.25928ZM11.8407 8.40928V8.55928C11.8407 8.55928 12.2017 8.52647 12.2298 8.46553C12.2532 8.41397 11.8454 8.40928 11.8407 8.40928ZM11.8173 8.6249L11.8314 8.71865C11.836 8.71865 11.972 8.70928 12.0001 8.67178C12.0282 8.63428 11.8314 8.63428 11.8173 8.6249ZM11.5173 9.05615C11.5173 9.06553 11.5267 9.19678 11.5173 9.19678C11.5173 9.19678 10.7439 8.97178 10.6735 8.97646C10.5985 8.97646 10.5798 8.79834 11.5173 9.05615ZM11.5782 9.30928C11.5782 9.33272 11.597 9.47334 11.5689 9.46865C11.5407 9.46396 11.0439 9.30459 11.1001 9.25771C11.147 9.21084 11.5782 9.31865 11.5782 9.30459V9.30928ZM11.536 10.3687V10.4952C11.536 10.4952 10.6735 10.2327 10.6454 10.1905C10.6126 10.1437 10.5282 9.94209 11.536 10.3687ZM11.5689 10.678C11.5689 10.6827 11.5782 10.7999 11.5689 10.7999L10.397 10.3874C10.397 10.3874 10.3032 10.078 11.5689 10.678Z" fill="white" stroke="black" stroke-width="0.1" stroke-linecap="round" stroke-linejoin="round"/>
<path fill-rule="evenodd" clip-rule="evenodd" d="M10.1719 14.7515V14.8828C10.1719 14.8828 9.9375 14.8172 9.86719 14.6906C10.0031 14.6531 10.1766 14.7562 10.1719 14.7515Z" fill="white" stroke="black" stroke-width="0.1" stroke-linejoin="round"/>
</g>
<defs>
<clipPath id="clip0_208_23657">
<rect width="24" height="24" rx="12" fill="white"/>
</clipPath>
</defs>
</svg>
