<svg width="24" height="24" viewBox="0 0 24 24" fill="none" xmlns="http://www.w3.org/2000/svg">
<g clip-path="url(#clip0_208_20389)">
<mask id="mask0_208_20389" style="mask-type:luminance" maskUnits="userSpaceOnUse" x="0" y="0" width="24" height="24">
<path d="M0.000976562 0H23.995V23.994H0.000976562V0Z" fill="white"/>
</mask>
<g mask="url(#mask0_208_20389)">
<path fill-rule="evenodd" clip-rule="evenodd" d="M-11.8125 0H36.1803V23.994H-11.8125V0Z" fill="#6797D6"/>
<path fill-rule="evenodd" clip-rule="evenodd" d="M12.7568 4.08775H14.6338L13.11 5.12297L13.6905 6.80642L12.1763 5.76636L10.6525 6.80642L11.233 5.12297L9.71404 4.08291H11.6007L12.1812 2.4043M12.7617 19.9644H14.6386L13.1148 18.9244L13.6953 17.2409L12.1812 18.281L10.6574 17.2409L11.2379 18.9244L9.71888 19.9644H11.6007L12.1812 21.643M4.92492 11.1311L6.72447 10.5797L5.5683 12.0212L6.61804 13.458L4.86203 12.9065L3.7107 14.3481L3.77843 12.5679L2.01758 12.0164L3.81713 11.4698L3.88002 9.68957M19.4084 11.1311L17.6137 10.5797L18.765 12.0164L17.7153 13.458L19.4761 12.9065L20.6226 14.3481L20.5597 12.5679L22.3206 12.0164L20.521 11.4698L20.4581 9.68957" fill="white"/>
</g>
</g>
<defs>
<clipPath id="clip0_208_20389">
<rect width="24" height="24" rx="12" fill="white"/>
</clipPath>
</defs>
</svg>
