<svg width="24" height="24" viewBox="0 0 24 24" fill="none" xmlns="http://www.w3.org/2000/svg">
<g clip-path="url(#clip0_208_20067)">
<mask id="mask0_208_20067" style="mask-type:luminance" maskUnits="userSpaceOnUse" x="0" y="0" width="24" height="24">
<path d="M0 0H24V24H0V0Z" fill="white"/>
</mask>
<g mask="url(#mask0_208_20067)">
<path fill-rule="evenodd" clip-rule="evenodd" d="M-2.25 0H25.4766V24H-2.25V0Z" fill="#BE0027"/>
<path fill-rule="evenodd" clip-rule="evenodd" d="M-2.25 24L25.4766 23.9859V12L-2.25 24Z" fill="#B4D7F4"/>
<path fill-rule="evenodd" clip-rule="evenodd" d="M-2.25 0L25.4766 0.0140625V12L-2.25 0Z" fill="#239E46"/>
<path fill-rule="evenodd" clip-rule="evenodd" d="M6.97539 16.4719C6.56758 16.5844 6.3332 16.9031 6.33789 17.2031L8.34414 17.1938C8.36289 16.8703 8.10039 16.575 7.69727 16.4578C9.66602 16.4203 11.3723 15.6797 11.6816 15.211C11.377 15.075 11.0207 15.2906 10.7676 15.2391C11.3676 14.9625 13.1676 13.7953 12.877 12.5485C12.6399 13.1414 12.2151 13.6403 11.6676 13.9688C12.3379 12.9469 13.2613 11.8828 12.4645 11.0625C12.502 11.5406 12.1551 12.0656 12.0051 12.1032C12.3941 11.025 12.7691 9.66565 11.9207 8.77502C12.0332 9.09846 11.991 10.0078 11.8363 10.05C11.7895 9.31409 11.6629 7.7719 10.8895 7.79534C11.1379 8.01096 11.241 8.61096 11.2504 9.21096C11.0723 8.79846 10.8754 8.48909 10.4441 8.17971C10.0623 7.51857 9.51876 6.96531 8.86445 6.5719C8.87606 6.84817 8.95519 7.1174 9.09493 7.35601C9.23466 7.59462 9.43074 7.79536 9.66602 7.94065C9.31445 7.91721 8.96289 7.25159 8.58789 7.23284C8.28789 7.21877 8.05352 7.50471 7.56133 7.34065C7.61758 7.50002 7.84258 7.57502 7.88945 7.69221C7.79102 7.76252 7.53789 7.68284 7.33164 7.57502C7.61758 7.9594 8.0582 8.1844 8.4332 8.1094C8.87852 8.02502 9.35664 8.0719 9.81133 8.32971C9.52756 8.38915 9.23541 8.39709 8.94883 8.35315C9.21602 8.62034 9.38945 8.79846 9.84883 8.79377C10.2613 8.79377 10.477 8.57815 10.5801 8.7094C10.8379 9.01409 11.0113 9.31877 11.227 9.67502C10.7488 9.73127 10.8941 9.14065 10.3645 8.83596C10.0691 9.45471 10.7066 10.1813 11.1426 10.486C11.1426 10.95 11.2129 11.3297 11.4098 11.686C11.541 11.9344 11.7145 12.1875 11.6488 12.75C11.391 12.5625 11.1332 11.9203 11.227 11.4141C10.8988 11.5031 10.777 12.0703 10.927 12.361C11.0441 12.5813 11.1191 13.0031 10.9879 13.1906C10.8566 13.3641 10.8473 13.3453 10.8473 13.7203C10.8473 13.9453 10.7254 14.2125 10.5191 14.3953C10.566 14.2406 10.6129 13.9641 10.566 13.7953C10.402 14.0719 9.99883 14.3531 9.87227 14.6485C9.7457 14.9438 9.71289 15.4547 9.1082 15.5719C8.32539 15.7266 8.05352 15.8625 7.55195 16.0688C7.4957 15.6891 7.66445 14.8922 7.9832 14.9391C8.29727 14.9953 9.23945 14.611 8.90195 13.8141C8.83633 14.0672 8.61133 14.311 8.37227 14.325C8.63008 13.9875 9.09414 13.636 8.86914 13.0735C8.73321 13.3592 8.51645 13.5988 8.2457 13.7625C8.56914 13.1485 8.2832 12.9656 7.90352 13.4672C7.76289 13.6641 7.66914 14.0578 7.58008 14.5547C7.43008 14.1516 7.43945 13.6172 7.26133 13.186C7.07383 12.7172 7.50977 12.5906 7.71133 12.6281C8.2082 12.7641 9.04258 12.7641 8.97695 11.9391C8.76602 12.2203 8.38633 12.3047 7.97852 12.2063C8.43789 11.8688 8.79883 11.2453 8.28789 10.9172C8.26457 11.1107 8.19373 11.2955 8.08168 11.455C7.96963 11.6144 7.81985 11.7437 7.6457 11.8313C7.5629 11.5232 7.55807 11.1995 7.63164 10.8891C7.43008 11.1 7.28477 11.536 7.16758 12.0375C7.16394 11.6601 7.21607 11.2841 7.32227 10.9219C7.42539 10.5328 7.68789 10.786 8.08633 10.8141C8.4707 10.8375 9.00039 10.6266 8.90195 10.1016C8.7707 10.3078 8.49883 10.3875 8.22227 10.3688C8.55508 10.1672 9.13164 9.80627 8.81758 9.26252C8.68164 9.46877 8.63945 9.6469 8.25508 9.71252C8.35352 9.47815 8.37227 9.15002 8.67227 9.02346C8.13789 8.91565 7.8332 9.26721 7.67852 9.81096C7.61289 9.43596 7.53789 9.29534 7.52383 9.01409C7.81445 8.69534 7.84258 8.06721 7.21914 7.93127C7.18164 8.25002 7.1957 8.32971 7.26602 8.58752C6.9707 8.41877 6.56289 8.32034 6.28164 8.56877C6.46914 8.77034 6.75977 8.94377 7.20508 8.72815C7.09727 9.07034 6.82539 9.0094 6.45039 8.87815C6.68008 9.3094 6.96602 9.38909 7.28945 9.33752C7.45352 9.77815 7.46289 10.111 6.97539 10.7531C6.99414 10.3547 6.96602 10.0594 6.64727 9.73596C6.38008 9.46877 6.15977 9.75002 6.58164 10.3406C6.27292 10.0956 6.05242 9.75659 5.95352 9.37502C5.86914 9.84846 5.94414 10.4063 6.20664 10.725C6.08008 10.8563 5.93945 10.711 5.7332 10.3875C5.8082 11.4281 6.25352 11.625 6.85352 11.3953C6.86758 11.9672 6.86758 12.4969 6.90039 13.186C6.64236 12.7833 6.28789 12.4514 5.86914 12.2203C5.78945 12.5016 6.08008 12.8625 6.24414 13.0641C5.9957 13.0172 5.46133 12.6094 5.46133 12.6094C5.40508 13.0735 6.00508 13.5 6.39414 13.6922C5.93945 13.6735 5.73789 13.5047 5.44258 13.2235C5.44727 14.5078 6.83477 14.2828 7.09727 14.086L7.21445 16.0828C6.8207 16.0172 6.85352 15.8953 6.51602 15.8672C5.5832 15.8297 4.84258 14.7469 4.59883 13.95C4.52852 14.0813 4.58477 14.2172 4.51914 14.3813C4.36914 13.9875 4.17695 13.486 3.91445 13.2516C3.98008 13.4766 3.98945 13.711 3.96602 14.1328C3.87695 13.8563 3.79258 13.7719 3.78789 13.4485C3.79258 13.2 4.02695 13.0172 4.01758 12.6657C4.0082 12.4125 3.77383 11.8594 3.73633 11.4281C3.62383 11.8735 3.55352 12.3375 3.38008 12.6094C3.46914 12.1406 3.44102 11.8125 3.58633 11.4985C3.75508 11.161 3.8957 10.8656 3.7832 10.5281C3.67539 10.6594 3.71289 10.7766 3.4457 11.0906C3.38477 10.7485 3.79258 10.2 4.18633 9.97502C4.46758 9.8344 4.81445 9.30471 4.58945 8.94377C4.32695 9.13127 4.20977 9.38909 3.83945 9.82034C4.10195 8.78909 4.78633 8.5219 5.60664 8.51721C5.79414 8.51721 6.15508 8.45159 6.26289 8.21252C6.02852 8.30159 5.75195 8.31096 5.51289 8.2594C5.68633 8.00627 6.06133 8.03909 6.4082 8.0344C6.68008 8.0344 7.10664 7.9969 7.28008 7.61252C6.90286 7.75654 6.49047 7.78109 6.09883 7.68284C6.61914 7.41096 7.43477 7.38284 7.85195 7.02659C7.37383 6.67502 6.1832 7.11565 5.4332 7.63127C5.64414 7.43909 5.97695 7.0969 6.15977 6.82034C5.74727 6.62346 4.70664 7.77659 4.35039 8.46096C4.01289 8.64846 3.87695 8.95315 3.74102 9.16409C3.92852 8.55002 3.94258 8.10471 4.09258 7.60315C2.93008 8.00159 3.41289 10.1578 3.15977 10.6735C3.18789 10.1016 3.16445 9.37034 2.93008 8.99534C2.57383 9.26721 2.54102 10.8797 2.8832 12.225C2.75664 11.8641 2.52695 11.5266 2.45664 11.0906C1.92227 12.061 2.76602 13.2 3.46914 14.1047C2.90852 13.7567 2.43156 13.2894 2.07227 12.736C2.16602 14.4703 3.98008 14.8313 4.26133 15.2578C3.87695 15.0797 3.15039 14.7281 2.83633 15.0985C3.27137 15.1794 3.68872 15.3365 4.06914 15.5625C4.53789 16.1485 5.42852 16.4063 6.97539 16.4719Z" fill="#F3E295"/>
</g>
</g>
<defs>
<clipPath id="clip0_208_20067">
<rect width="24" height="24" rx="12" fill="white"/>
</clipPath>
</defs>
</svg>
