<svg width="24" height="24" viewBox="0 0 24 24" fill="none" xmlns="http://www.w3.org/2000/svg">
<g clip-path="url(#clip0_208_21730)">
<path d="M0 0H24V24H0V0Z" fill="#18C3DF"/>
<path d="M0 8.00159H24V15.9985H0V8.00159Z" fill="white"/>
<path d="M11.9996 10.6666L11.5996 12L12.2663 12.1333L11.9996 10.6666Z" fill="#18C3DF"/>
<path d="M11.9994 10.6666L12.3994 12L11.7327 12.1333L11.9994 10.6666Z" fill="#18C3DF"/>
<path d="M13.2681 11.5879L11.8765 11.6195L11.9557 12.2948L13.2681 11.5879Z" fill="#18C3DF"/>
<path d="M13.268 11.588L12.1235 12.3804L11.7907 11.7876L13.268 11.588Z" fill="#18C3DF"/>
<path d="M10.732 11.588L11.8765 12.3804L12.2093 11.7876L10.732 11.588Z" fill="#18C3DF"/>
<path d="M10.7319 11.5879L12.1235 11.6195L12.0443 12.2948L10.7319 11.5879Z" fill="#18C3DF"/>
<path d="M12.7838 13.0786L12.3237 11.7648L11.706 12.0488L12.7838 13.0786Z" fill="#18C3DF"/>
<path d="M12.7836 13.0786L11.6762 12.235L12.1372 11.7353L12.7836 13.0786Z" fill="#18C3DF"/>
<path d="M11.2164 13.0786L12.3238 12.235L11.8628 11.7353L11.2164 13.0786Z" fill="#18C3DF"/>
<path d="M11.2162 13.0786L11.6763 11.7648L12.294 12.0488L11.2162 13.0786Z" fill="#18C3DF"/>
<path d="M18.6656 8.53381L18.2656 9.86715L18.9323 10.0005L18.6656 8.53381Z" fill="#18C3DF"/>
<path d="M18.6654 8.53381L19.0654 9.86715L18.3988 10.0005L18.6654 8.53381Z" fill="#18C3DF"/>
<path d="M19.9342 9.45513L18.5425 9.48673L18.6217 10.162L19.9342 9.45513Z" fill="#18C3DF"/>
<path d="M19.934 9.45515L18.7895 10.2476L18.4567 9.65476L19.934 9.45515Z" fill="#18C3DF"/>
<path d="M17.398 9.45515L18.5425 10.2476L18.8753 9.65476L17.398 9.45515Z" fill="#18C3DF"/>
<path d="M17.3979 9.45513L18.7896 9.48673L18.7104 10.162L17.3979 9.45513Z" fill="#18C3DF"/>
<path d="M19.4498 10.9458L18.9897 9.632L18.372 9.91599L19.4498 10.9458Z" fill="#18C3DF"/>
<path d="M19.4496 10.9458L18.3423 10.1022L18.8032 9.60249L19.4496 10.9458Z" fill="#18C3DF"/>
<path d="M17.8824 10.9458L18.9898 10.1022L18.5288 9.60249L17.8824 10.9458Z" fill="#18C3DF"/>
<path d="M17.8822 10.9458L18.3423 9.632L18.96 9.91599L17.8822 10.9458Z" fill="#18C3DF"/>
<path d="M18.6656 12.5323L18.2656 13.8657L18.9323 13.999L18.6656 12.5323Z" fill="#18C3DF"/>
<path d="M18.6654 12.5323L19.0654 13.8657L18.3988 13.999L18.6654 12.5323Z" fill="#18C3DF"/>
<path d="M19.9342 13.4537L18.5425 13.4853L18.6217 14.1605L19.9342 13.4537Z" fill="#18C3DF"/>
<path d="M19.934 13.4537L18.7895 14.2461L18.4567 13.6533L19.934 13.4537Z" fill="#18C3DF"/>
<path d="M17.398 13.4537L18.5425 14.2461L18.8753 13.6533L17.398 13.4537Z" fill="#18C3DF"/>
<path d="M17.3979 13.4537L18.7896 13.4853L18.7104 14.1605L17.3979 13.4537Z" fill="#18C3DF"/>
<path d="M19.4498 14.9443L18.9897 13.6305L18.372 13.9145L19.4498 14.9443Z" fill="#18C3DF"/>
<path d="M19.4496 14.9443L18.3423 14.1008L18.8032 13.601L19.4496 14.9443Z" fill="#18C3DF"/>
<path d="M17.8824 14.9443L18.9898 14.1008L18.5288 13.601L17.8824 14.9443Z" fill="#18C3DF"/>
<path d="M17.8822 14.9443L18.3423 13.6305L18.96 13.9145L17.8822 14.9443Z" fill="#18C3DF"/>
<path d="M5.33359 8.53381L4.93359 9.86715L5.60026 10.0005L5.33359 8.53381Z" fill="#18C3DF"/>
<path d="M5.3334 8.53381L5.7334 9.86715L5.06673 10.0005L5.3334 8.53381Z" fill="#18C3DF"/>
<path d="M6.60212 9.45513L5.21044 9.48673L5.28964 10.162L6.60212 9.45513Z" fill="#18C3DF"/>
<path d="M6.60198 9.45515L5.45751 10.2476L5.12469 9.65476L6.60198 9.45515Z" fill="#18C3DF"/>
<path d="M4.06599 9.45515L5.21046 10.2476L5.54328 9.65476L4.06599 9.45515Z" fill="#18C3DF"/>
<path d="M4.06585 9.45513L5.45753 9.48673L5.37833 10.162L4.06585 9.45513Z" fill="#18C3DF"/>
<path d="M6.1178 10.9458L5.65769 9.632L5.03998 9.91599L6.1178 10.9458Z" fill="#18C3DF"/>
<path d="M6.11755 10.9458L5.01023 10.1022L5.4712 9.60249L6.11755 10.9458Z" fill="#18C3DF"/>
<path d="M4.55042 10.9458L5.65774 10.1022L5.19676 9.60249L4.55042 10.9458Z" fill="#18C3DF"/>
<path d="M4.55017 10.9458L5.01028 9.632L5.62799 9.91599L4.55017 10.9458Z" fill="#18C3DF"/>
<path d="M5.33359 12.5323L4.93359 13.8657L5.60026 13.999L5.33359 12.5323Z" fill="#18C3DF"/>
<path d="M5.3334 12.5323L5.7334 13.8657L5.06673 13.999L5.3334 12.5323Z" fill="#18C3DF"/>
<path d="M6.60212 13.4537L5.21044 13.4853L5.28964 14.1605L6.60212 13.4537Z" fill="#18C3DF"/>
<path d="M6.60198 13.4537L5.45751 14.2461L5.12469 13.6533L6.60198 13.4537Z" fill="#18C3DF"/>
<path d="M4.06599 13.4537L5.21046 14.2461L5.54328 13.6533L4.06599 13.4537Z" fill="#18C3DF"/>
<path d="M4.06585 13.4537L5.45753 13.4853L5.37833 14.1605L4.06585 13.4537Z" fill="#18C3DF"/>
<path d="M6.1178 14.9443L5.65769 13.6305L5.03998 13.9145L6.1178 14.9443Z" fill="#18C3DF"/>
<path d="M6.11755 14.9443L5.01023 14.1008L5.4712 13.601L6.11755 14.9443Z" fill="#18C3DF"/>
<path d="M4.55042 14.9443L5.65774 14.1008L5.19676 13.601L4.55042 14.9443Z" fill="#18C3DF"/>
<path d="M4.55017 14.9443L5.01028 13.6305L5.62799 13.9145L4.55017 14.9443Z" fill="#18C3DF"/>
</g>
<defs>
<clipPath id="clip0_208_21730">
<rect width="24" height="24" rx="12" fill="white"/>
</clipPath>
</defs>
</svg>
