<svg width="24" height="24" viewBox="0 0 24 24" fill="none" xmlns="http://www.w3.org/2000/svg">
<g clip-path="url(#clip0_208_23206)">
<mask id="mask0_208_23206" style="mask-type:luminance" maskUnits="userSpaceOnUse" x="0" y="0" width="24" height="24">
<path d="M0 0H24V24H0V0Z" fill="white"/>
</mask>
<g mask="url(#mask0_208_23206)">
<path fill-rule="evenodd" clip-rule="evenodd" d="M0 0H24V24H0V0Z" fill="white"/>
<path fill-rule="evenodd" clip-rule="evenodd" d="M-5.07227 0.009375L-5.03477 17.2875L21.8715 0L-5.07227 0.009375Z" fill="#3662A2"/>
<path fill-rule="evenodd" clip-rule="evenodd" d="M29.5637 23.9765L29.498 6.01404L2.35742 23.9906L29.5637 23.9765Z" fill="#38A100"/>
<path fill-rule="evenodd" clip-rule="evenodd" d="M-5.05859 18.5906L-5.03516 24L0.838282 23.9906L29.5117 4.76721L29.4836 0.0656494L23.6805 0.00939941L-5.05391 18.5906H-5.05859Z" fill="#C70000"/>
<path fill-rule="evenodd" clip-rule="evenodd" d="M7.21875 8.59692L6.13594 7.94067L5.50781 9.04692L4.89844 7.9313L3.79688 8.57817L3.825 7.30786L2.55937 7.31724L3.21562 6.22974L2.10938 5.60161L3.225 4.99224L2.57812 3.89067L3.84375 3.9188L3.83906 2.64849L4.92656 3.30474L5.55469 2.19849L6.16406 3.30942L7.275 2.67192L7.24688 3.93755L8.5125 3.93286L7.85625 5.02036L8.9625 5.6438L7.84687 6.25786L8.48906 7.35474L7.22344 7.3313L7.21875 8.59692Z" fill="#FFE700"/>
<path fill-rule="evenodd" clip-rule="evenodd" d="M7.86523 5.62495C7.86523 6.89995 6.81992 7.93589 5.53086 7.93589C4.2418 7.93589 3.20117 6.89995 3.20117 5.62026C3.20117 4.34058 4.24648 3.30933 5.53555 3.30933C6.82461 3.30933 7.86523 4.34058 7.86523 5.62026V5.62495Z" fill="#3662A2"/>
<path fill-rule="evenodd" clip-rule="evenodd" d="M7.35898 5.62499C7.37153 5.87254 7.33361 6.12005 7.24752 6.35248C7.16143 6.58492 7.02897 6.79742 6.8582 6.97707C6.68742 7.15671 6.4819 7.29976 6.25412 7.3975C6.02635 7.49525 5.78107 7.54565 5.5332 7.54565C5.28534 7.54565 5.04006 7.49525 4.81228 7.3975C4.58451 7.29976 4.37898 7.15671 4.20821 6.97707C4.03744 6.79742 3.90498 6.58492 3.81889 6.35248C3.7328 6.12005 3.69487 5.87254 3.70742 5.62499C3.73115 5.15676 3.93387 4.71555 4.27367 4.39254C4.61347 4.06952 5.06438 3.8894 5.5332 3.8894C6.00203 3.8894 6.45294 4.06952 6.79274 4.39254C7.13254 4.71555 7.33525 5.15676 7.35898 5.62499Z" fill="#FFE700"/>
</g>
</g>
<defs>
<clipPath id="clip0_208_23206">
<rect width="24" height="24" rx="12" fill="white"/>
</clipPath>
</defs>
</svg>
