<svg width="24" height="24" viewBox="0 0 24 24" fill="none" xmlns="http://www.w3.org/2000/svg">
<g clip-path="url(#clip0_208_20312)">
<path d="M0 0H24V24H0V0Z" fill="#012169"/>
<path fill-rule="evenodd" clip-rule="evenodd" d="M14.775 15.1515C14.7451 15.1507 14.7153 15.1522 14.6857 15.156C14.534 15.1828 14.293 15.6781 14.1636 15.9682C13.9539 16.2181 13.8468 16.4144 13.762 16.5572C13.7263 16.6152 13.6727 16.6777 13.6906 16.7536C13.3782 16.8294 13.3604 17.0972 13.3604 17.1998C13.3604 17.3158 13.3961 17.3694 13.3961 17.3694L13.5835 17.7175V17.7219C13.7843 18.1369 14.0744 18.6903 14.2439 18.7349C14.476 18.8018 15.0829 18.5787 15.5381 18.1905C16.4151 18.5557 17.3548 18.7467 18.3048 18.7528C19.3669 18.7528 20.3219 18.4984 21.0671 18.1905C21.5223 18.5787 22.1247 18.8018 22.3612 18.7349C22.5263 18.6903 22.8209 18.1325 23.0217 17.7219L23.2046 17.3694C23.2046 17.3694 23.2403 17.3158 23.2403 17.2043C23.2403 17.1016 23.2225 16.8294 22.9101 16.758C22.928 16.6822 22.8789 16.6152 22.8432 16.5572C22.7539 16.4099 22.6468 16.2136 22.4415 15.9592C22.3077 15.6692 22.0667 15.1828 21.9194 15.156C21.7052 15.1203 21.2501 15.2274 21.2501 15.2675V15.2899L20.3263 16.1511C20.3263 16.1734 20.3709 16.7982 20.5494 17.356C19.8262 17.6133 19.0635 17.7417 18.2959 17.7353C17.4123 17.7353 16.6581 17.5791 16.0468 17.3515C16.1616 16.9585 16.2364 16.5548 16.2699 16.1467L15.3551 15.2899V15.2675C15.3551 15.2363 15.0026 15.1515 14.775 15.1515ZM15.007 16.2225C15.123 16.2225 15.2435 16.3207 15.3462 16.4233L15.3372 16.4858C15.3008 16.6466 15.2531 16.8047 15.1944 16.9588C14.9665 16.8279 14.7527 16.6739 14.5563 16.4992C14.6545 16.3921 14.8151 16.2493 14.9847 16.227H15.007V16.2225ZM21.5937 16.2225H21.616C21.7856 16.2493 21.9462 16.3921 22.0488 16.4992C21.8511 16.6742 21.6357 16.8282 21.4062 16.9588C21.3475 16.8047 21.2998 16.6466 21.2634 16.4858C21.2596 16.4651 21.2566 16.4443 21.2545 16.4233C21.3527 16.3162 21.4776 16.2225 21.5937 16.2225ZM14.1859 17.4452C14.3064 17.539 14.4671 17.6461 14.6589 17.7576C14.6071 17.7924 14.5498 17.818 14.4894 17.8335C14.409 17.8513 14.3287 17.8469 14.2439 17.829C14.212 17.7478 14.1939 17.6618 14.1904 17.5747C14.188 17.5315 14.1865 17.4884 14.1859 17.4452ZM22.4192 17.4452L22.4103 17.5747C22.4067 17.6618 22.3886 17.7478 22.3568 17.829C22.2863 17.8458 22.2133 17.8481 22.1419 17.8358C22.0706 17.8235 22.0025 17.7969 21.9417 17.7576C22.1381 17.6461 22.2987 17.539 22.4192 17.4452Z" fill="url(#paint0_linear_208_20312)" stroke="white" stroke-width="1.19"/>
<path fill-rule="evenodd" clip-rule="evenodd" d="M15.5664 16.7404C15.5664 16.7404 15.2447 16.2206 14.9851 16.262C14.7198 16.2974 14.4715 16.6282 14.4546 16.6459C14.3077 16.5158 14.1769 16.367 14.0652 16.2029C14.0821 16.1852 14.4715 15.2284 14.686 15.187C14.9129 15.165 15.1416 15.2015 15.3519 15.2934L15.5664 16.7404Z" fill="url(#paint1_linear_208_20312)" stroke="black" stroke-width="0.184752"/>
<path fill-rule="evenodd" clip-rule="evenodd" d="M16.2717 16.1852C16.2717 16.2207 16.1588 17.5909 15.7073 18.0693C15.2558 18.5477 14.5052 18.843 14.2399 18.7722C13.9803 18.6954 13.3765 17.3133 13.3765 17.3133C13.3765 17.3133 14.0142 17.9748 14.4883 17.8626C14.9623 17.7563 15.2445 16.9235 15.3348 16.516C15.4251 16.1144 15.3518 15.317 15.3518 15.317L16.2773 16.1852H16.2717Z" fill="url(#paint2_linear_208_20312)" stroke="black" stroke-width="0.184752"/>
<path fill-rule="evenodd" clip-rule="evenodd" d="M21.0361 16.7404C21.0361 16.7404 21.3578 16.2206 21.6174 16.262C21.8827 16.2974 22.131 16.6282 22.148 16.6459C22.2949 16.5158 22.4257 16.367 22.5374 16.2029C22.5204 16.1852 22.131 15.2284 21.9166 15.187C21.6896 15.165 21.4609 15.2015 21.2506 15.2934L21.0361 16.7404Z" fill="url(#paint3_linear_208_20312)" stroke="black" stroke-width="0.184752"/>
<path fill-rule="evenodd" clip-rule="evenodd" d="M20.3308 16.1852C20.3308 16.2207 20.4437 17.5909 20.8952 18.0693C21.3467 18.5477 22.0973 18.843 22.3626 18.7722C22.6222 18.6954 23.2261 17.3133 23.2261 17.3133C23.2261 17.3133 22.5883 17.9748 22.1143 17.8626C21.6402 17.7563 21.358 16.9235 21.2677 16.516C21.1774 16.1144 21.2508 15.317 21.2508 15.317L20.3252 16.1852H20.3308Z" fill="url(#paint4_linear_208_20312)" stroke="black" stroke-width="0.184752"/>
<path fill-rule="evenodd" clip-rule="evenodd" d="M14.169 15.9561C13.9593 16.2104 13.8477 16.4112 13.7585 16.5585C13.6692 16.7058 13.7228 16.9155 13.9236 17.2056C14.1467 17.5179 15.9496 18.754 18.3013 18.754C20.6531 18.754 22.4559 17.5224 22.6746 17.2056C22.8798 16.911 22.9334 16.7058 22.8441 16.5585C22.7549 16.4112 22.6433 16.2104 22.4336 15.9561C22.4336 16.3398 20.9387 17.7411 18.3013 17.7411C15.664 17.7411 14.169 16.3398 14.169 15.9561Z" fill="url(#paint5_linear_208_20312)" stroke="black" stroke-width="0.1785"/>
<path fill-rule="evenodd" clip-rule="evenodd" d="M22.3267 18.5658L22.733 17.863L22.5299 17.7153C22.4734 17.8925 22.242 17.9516 22.2025 18.176C22.163 18.4005 22.3605 18.619 22.3267 18.5658Z" fill="url(#paint6_linear_208_20312)" stroke="black" stroke-width="0.184752"/>
<path fill-rule="evenodd" clip-rule="evenodd" d="M22.6954 18.3646C22.6954 18.3646 22.7688 18.0516 22.5374 18.0103C22.3116 17.9748 22.1875 18.1874 22.2213 18.1047C22.2552 18.0102 22.3906 17.9217 22.4132 17.6086C22.4302 17.2956 22.3963 17.1243 22.3963 17.1243C22.3963 17.1243 22.4866 16.7227 22.8534 16.7758C23.2259 16.8349 23.2429 17.1302 23.2429 17.2365C23.2429 17.3428 23.209 17.4019 23.209 17.4019L22.6954 18.3646Z" fill="url(#paint7_linear_208_20312)" stroke="black" stroke-width="0.184752"/>
<path d="M21.4109 17.1625L21.4873 17.2962L21.537 17.2657L21.5026 17.1778L21.5102 17.1587L21.5981 17.1052L21.8273 17.5102V17.5293L21.7776 17.5637L21.8006 17.6019L22.0183 17.4605L21.9992 17.4223L21.9495 17.4528L21.9305 17.4491L21.7013 17.0441L21.7853 16.9868H21.8044L21.8617 17.0632L21.9113 17.0288L21.8349 16.8989L21.4109 17.1663L21.4109 17.1625ZM20.8646 17.4758L20.8837 17.514L20.9295 17.4949L20.9486 17.4987L21.1473 17.9113L21.1435 17.9304L21.0976 17.9571L21.1167 17.9953L21.3345 17.8807L21.3154 17.8425L21.2695 17.8616L21.2505 17.8578L21.1549 17.663L21.3765 17.5484L21.472 17.7394L21.4682 17.7585L21.4223 17.789L21.4414 17.8272L21.6592 17.7126L21.6401 17.6744L21.5943 17.6936L21.5752 17.6859L21.3765 17.2772L21.3803 17.258L21.4262 17.2313L21.4071 17.1931L21.1893 17.3077L21.2084 17.3459L21.2543 17.323L21.2733 17.3306L21.3574 17.4987L21.1358 17.6133L21.0518 17.4453L21.0594 17.4261L21.1014 17.3994L21.0824 17.3612L20.8646 17.4758ZM20.7385 17.8272L20.75 17.8654L20.8111 17.8502L20.8302 17.8578L20.8799 18.0297L20.834 18.045C20.7079 18.0832 20.6048 18.0221 20.5628 17.8731C20.5208 17.7279 20.5704 17.6171 20.6926 17.5789C20.7161 17.5716 20.7408 17.569 20.7653 17.5713L20.7805 17.5827L20.8226 17.663L20.8837 17.6439L20.8455 17.5063C20.7767 17.5063 20.7156 17.514 20.6621 17.5293C20.4787 17.5904 20.3947 17.7394 20.4405 17.9113C20.4902 18.0832 20.643 18.1634 20.8149 18.1099C20.8783 18.0895 20.9377 18.0585 20.9907 18.0183L20.9333 17.8272L20.9448 17.812L20.9907 17.7929L20.9792 17.7508L20.7385 17.8272ZM20.2304 18.3048L20.4749 18.2284L20.4635 18.1863L20.4061 18.1978L20.3909 18.1902L20.2571 17.747L20.2648 17.7318L20.3182 17.7088L20.3068 17.6706L20.0623 17.747L20.0738 17.7852L20.1311 17.7738L20.1464 17.7814L20.2801 18.2246L20.2686 18.2398L20.2189 18.2628L20.2304 18.301V18.3048ZM18.9009 18.5225L19.3327 18.4843L19.3174 18.3277L19.2639 18.3315L19.2563 18.4232L19.2486 18.4385L19.0614 18.4576L19.0423 18.2284L19.1492 18.2208L19.1607 18.2322L19.1722 18.2934H19.2218L19.2028 18.0909H19.1569V18.1558L19.1454 18.1711L19.0385 18.1788L19.0232 17.9725L19.1836 17.961L19.1951 17.9686L19.2104 18.045L19.2677 18.0412L19.2563 17.9036L18.8513 17.9418V17.9801H18.9047L18.9162 17.9953L18.9544 18.4538L18.9468 18.4691L18.8971 18.4767V18.5225H18.9009ZM18.2553 17.9495V17.9915L18.305 17.9953L18.3165 18.0106L18.3241 18.4691L18.3126 18.4843L18.2668 18.492V18.5302H18.496V18.4882L18.4463 18.4843L18.4311 18.4691V18.2513L18.6603 18.2475L18.6679 18.4653L18.6564 18.4805L18.6068 18.4843V18.5264H18.836V18.4805H18.7863L18.7748 18.4653L18.7672 18.003L18.7787 17.9877L18.8245 17.9839V17.9418H18.5953V17.9877L18.645 17.9915L18.6602 18.003V18.194L18.431 18.1978L18.4234 18.0068L18.4387 17.9953L18.4845 17.9915V17.9495H18.2553ZM17.7663 17.9342V18.087H17.8198L17.8351 17.9953L17.8465 17.9839H17.9421V18.4576L17.9268 18.4729H17.8733V18.5187H18.114V18.4805L18.0605 18.4729L18.049 18.4576L18.0528 17.9877H18.1484L18.1636 17.9992L18.1751 18.0947H18.2286V17.9418L17.7663 17.9342ZM17.0213 18.4271L17.4416 18.4461L17.4492 18.2933L17.3957 18.2895L17.3805 18.3812L17.369 18.3926L17.1856 18.385L17.1971 18.1558L17.3002 18.1634L17.3078 18.1749L17.3155 18.2398H17.3613L17.369 18.0412H17.3232L17.3117 18.0985L17.3003 18.11H17.1971L17.2085 17.8998L17.3613 17.9075L17.3728 17.9189L17.3843 17.9953L17.4378 17.9992L17.4416 17.8616L17.0481 17.8425V17.8846L17.094 17.8922L17.1054 17.9075L17.0863 18.3659L17.071 18.3812H17.0213V18.4232V18.4271ZM16.0548 18.1749L16.2764 18.2513L16.2878 18.2131L16.242 18.1902L16.2344 18.1711L16.3681 17.7318L16.3834 17.7241L16.4368 17.7356L16.4483 17.6973L16.2229 17.6209L16.2114 17.6591L16.2573 17.6821L16.2688 17.6973L16.1312 18.1367L16.116 18.1481L16.0663 18.1329L16.0548 18.1749ZM15.6537 18.0221C15.6945 18.0557 15.7411 18.0816 15.7912 18.0985C15.9135 18.1367 16.0128 18.0909 16.0433 17.9954C16.051 17.97 16.0522 17.943 16.0468 17.917C16.0415 17.891 16.0298 17.8667 16.0128 17.8464C15.9746 17.8005 15.9402 17.7738 15.9249 17.7508C15.8905 17.7126 15.8791 17.6783 15.8867 17.6401C15.902 17.598 15.9479 17.5751 16.0013 17.5942C16.0281 17.6019 16.0395 17.6095 16.0548 17.6248L16.0586 17.6401L16.0472 17.7279L16.1006 17.747L16.1389 17.6133C16.1005 17.5802 16.0565 17.5543 16.009 17.5369C15.902 17.4987 15.8103 17.5484 15.7798 17.6401C15.7738 17.6619 15.7725 17.6847 15.7758 17.707C15.779 17.7294 15.7869 17.7508 15.7988 17.77C15.8256 17.812 15.8562 17.8387 15.8791 17.8654C15.9249 17.9113 15.9402 17.9533 15.9287 17.9953C15.9135 18.0412 15.8676 18.0641 15.8065 18.0412C15.7843 18.0332 15.7637 18.0216 15.7454 18.0068L15.7377 17.9915L15.7568 17.8884L15.6995 17.8693L15.6537 18.0221ZM15.1455 17.8082L15.5276 17.9992L15.5925 17.8578L15.5467 17.8349L15.497 17.9113L15.4817 17.9189L15.3136 17.8349L15.4092 17.6324L15.5009 17.6783L15.5047 17.6936L15.4856 17.7547L15.5276 17.7776L15.6116 17.5942L15.5696 17.5751L15.5352 17.6248L15.5199 17.6324L15.4283 17.5866L15.5123 17.3994L15.6537 17.472L15.6613 17.4873L15.6384 17.5598L15.6881 17.5828L15.7454 17.4605L15.3863 17.281L15.371 17.3192L15.4092 17.3459L15.4168 17.365L15.2258 17.7814L15.2105 17.7852L15.1647 17.77L15.1494 17.8082H15.1455ZM15.0845 17.1129L14.8935 16.9791L14.8705 17.0173L14.9087 17.0479V17.067L14.668 17.4491L14.649 17.4528L14.6108 17.4299L14.584 17.4681L14.775 17.598C14.8438 17.6439 14.9011 17.6668 14.9622 17.6591C15.0424 17.6515 15.115 17.6057 15.1685 17.5178C15.264 17.365 15.2373 17.216 15.0845 17.1129ZM15.0042 17.1129L15.0424 17.1434C15.1455 17.2122 15.157 17.3153 15.0691 17.4491C14.9813 17.5828 14.8896 17.6171 14.7865 17.5445L14.7483 17.5216L15.0042 17.1167V17.1129ZM16.5323 17.7165L16.5247 17.7547L16.5705 17.77L16.5782 17.7852L16.4865 18.236L16.4712 18.2475L16.4254 18.2437L16.4177 18.2819L16.6355 18.3316L16.6432 18.2934L16.5973 18.2742L16.5858 18.259L16.624 18.0679L16.6393 18.0718C16.7157 18.0909 16.731 18.1291 16.7386 18.217C16.7386 18.259 16.7386 18.2972 16.773 18.343C16.7883 18.3621 16.8113 18.3812 16.8495 18.385C16.8746 18.3907 16.9001 18.3945 16.9259 18.3965L16.9335 18.3583L16.9259 18.3544C16.8724 18.343 16.8495 18.3239 16.8456 18.2742C16.8418 18.2284 16.8456 18.1826 16.8265 18.1367C16.8131 18.106 16.7885 18.0814 16.7578 18.0679C16.8495 18.0679 16.9029 18.0297 16.9182 17.9533C16.9373 17.8578 16.8877 17.7929 16.7654 17.7661L16.5362 17.7165H16.5323ZM16.6852 17.7967L16.7157 17.8043C16.7921 17.8234 16.8227 17.8693 16.8074 17.9381C16.7921 18.0183 16.7463 18.045 16.6622 18.0259C16.6546 18.0259 16.647 18.0259 16.6355 18.0183L16.6814 17.7967H16.6852ZM19.5122 17.8464L19.5198 17.8884H19.5695L19.5848 17.896L19.6574 18.3544L19.6459 18.3659L19.5962 18.3812L19.6039 18.4194L19.8407 18.3812L19.8369 18.3392L19.7835 18.343L19.7682 18.3316L19.7376 18.1405H19.7529C19.8369 18.1214 19.8675 18.1558 19.9057 18.2322C19.9248 18.2704 19.9363 18.3086 19.9859 18.3354C20.0088 18.3468 20.0432 18.3544 20.0814 18.3468C20.1099 18.3411 20.138 18.3334 20.1655 18.3239L20.1578 18.2857H20.1464C20.0891 18.2972 20.0623 18.2857 20.0356 18.2437C20.0126 18.2055 19.9974 18.1596 19.9668 18.1253C19.9439 18.1023 19.9133 18.0871 19.8713 18.0871C19.963 18.0527 20.005 17.9954 19.9935 17.9151C19.9783 17.8196 19.9019 17.7814 19.772 17.8005L19.5122 17.8464ZM19.6956 17.8654L19.7338 17.8616C19.814 17.8464 19.8637 17.8769 19.8751 17.9495C19.8866 18.0259 19.8522 18.0717 19.7605 18.087H19.73L19.6918 17.8654H19.6956Z" fill="black"/>
<path fill-rule="evenodd" clip-rule="evenodd" d="M14.2788 18.5658L13.8724 17.863L14.0756 17.7153C14.1321 17.8925 14.3634 17.9516 14.403 18.176C14.4425 18.4005 14.2449 18.619 14.2788 18.5658Z" fill="url(#paint8_linear_208_20312)" stroke="black" stroke-width="0.184752"/>
<path fill-rule="evenodd" clip-rule="evenodd" d="M13.9071 18.3646C13.9071 18.3646 13.8338 18.0516 14.0652 18.0103C14.2909 17.9748 14.4151 18.1874 14.3812 18.1047C14.3473 18.0102 14.2119 17.9217 14.1893 17.6086C14.1724 17.2956 14.2062 17.1243 14.2062 17.1243C14.2062 17.1243 14.1159 16.7227 13.7491 16.7758C13.3766 16.8349 13.3597 17.1302 13.3597 17.2365C13.3597 17.3428 13.3935 17.4019 13.3935 17.4019L13.9071 18.3646Z" fill="url(#paint9_linear_208_20312)" stroke="black" stroke-width="0.184752"/>
<path fill-rule="evenodd" clip-rule="evenodd" d="M18.3062 17.5096C18.3062 17.5096 14.0452 16.2456 14.0734 11.4734L14.1016 5.15369H22.5051L22.5334 11.4379C22.5616 16.2102 18.3006 17.5037 18.3006 17.5037L18.3062 17.5096Z" fill="#0072C4" stroke="white" stroke-width="0.600445"/>
<path fill-rule="evenodd" clip-rule="evenodd" d="M14.6869 6.56879C14.6945 6.56879 14.7441 6.5191 14.7938 6.4771C14.8588 6.4389 14.9199 6.39685 14.9848 6.36249C15.0383 6.33577 15.1376 6.31281 15.1797 6.28993C15.2416 6.25995 15.2963 6.21694 15.3401 6.16384C15.3478 6.07979 15.3592 6.01867 15.3592 5.92318L15.5502 5.82765C15.6381 5.80473 15.6572 5.77037 15.7451 5.75509C15.8024 5.73596 15.894 5.73596 15.9743 5.73596C16.0621 5.73596 16.1156 5.80093 16.1959 5.81237C16.2914 5.85057 16.3334 5.87729 16.4098 5.94226C16.448 5.99574 16.4747 6.04159 16.5473 6.07979C16.6046 6.11035 16.6581 6.1562 16.7231 6.17148C16.7995 6.21348 16.8606 6.24024 16.9179 6.30137C16.9714 6.33957 16.9943 6.39306 17.0401 6.43126C17.0964 6.4793 17.1565 6.52274 17.2197 6.56115C17.2961 6.61084 17.3725 6.64899 17.4909 6.63756C17.5559 6.63756 17.6247 6.62607 17.7011 6.63756C17.7889 6.63756 17.873 6.63756 17.9494 6.66048C18.0411 6.66048 18.1137 6.67192 18.1977 6.67956C18.2741 6.69484 18.3543 6.69484 18.4422 6.69484C18.5186 6.71781 18.6027 6.71396 18.6905 6.71396H19.1872C19.275 6.71396 19.3667 6.71776 19.4317 6.73304C19.5135 6.73182 19.5952 6.72545 19.6762 6.71396C19.7755 6.71396 19.8481 6.69868 19.9436 6.69484H20.2416C20.318 6.71781 20.4173 6.73304 20.4708 6.77124C20.5434 6.79037 20.5778 6.82473 20.6466 6.84765C20.715 6.87577 20.7764 6.91885 20.8261 6.97374C20.8819 7.03476 20.9294 7.10284 20.9674 7.17624C21.0133 7.24881 21.0324 7.32906 21.0706 7.4169C21.0897 7.50095 21.1088 7.58115 21.1088 7.67284C21.1241 7.75309 21.1241 7.84093 21.1241 7.93262C21.105 8.01667 21.1011 8.1084 21.0706 8.1886C21.0706 8.28029 21.0515 8.36049 21.0362 8.42926C21.0209 8.50567 21.0018 8.55535 20.998 8.65084V8.91062C20.998 8.99467 20.9751 9.05579 20.9674 9.14748C20.9202 9.238 20.8781 9.33112 20.8414 9.42638C20.7858 9.46581 20.738 9.515 20.7 9.57156C20.6618 9.59827 20.6427 9.63268 20.6466 9.64796C20.7191 9.67088 20.7 9.72053 20.7 9.81221C20.7115 9.88482 20.7153 9.97267 20.7382 10.0529C20.742 10.1408 20.7612 10.1942 20.7879 10.2554C20.8184 10.2936 20.8261 10.2745 20.7535 10.2745C20.7038 10.3127 20.6504 10.2936 20.6313 10.2172C20.5914 10.1564 20.5665 10.087 20.5587 10.0147C20.551 9.93067 20.5357 9.84662 20.509 9.79313C20.4975 9.69001 20.4708 9.69001 20.3676 9.68232C20.318 9.64032 20.253 9.62888 20.1537 9.62888C20.0582 9.62888 20.0506 9.6174 20.0467 9.72052V9.98031C20.0315 10.0567 19.9971 10.114 19.978 10.1828C19.9245 10.221 19.9016 10.2859 19.8366 10.328C19.8061 10.412 19.764 10.4273 19.68 10.4426L19.573 10.3127C19.6227 10.2287 19.6647 10.2172 19.6953 10.1255C19.7335 10.0529 19.7564 10.0071 19.7832 9.9421C19.745 9.88482 19.7144 9.85806 19.68 9.77785C19.642 9.71395 19.6113 9.64604 19.5883 9.57535C19.531 9.55243 19.4393 9.54863 19.3973 9.51807C19.3094 9.49895 19.2865 9.59448 19.1834 9.59448H18.9389C18.8281 9.59448 18.8013 9.65176 18.7096 9.64796C18.6791 9.6556 18.6141 9.64412 18.5148 9.64796C18.4384 9.67468 18.3505 9.66704 18.2665 9.66704C18.1786 9.66704 18.106 9.64412 18.0373 9.62884C17.9571 9.60592 17.8768 9.58299 17.7928 9.5754C17.6858 9.5754 17.6476 9.58299 17.5788 9.62884C17.5253 9.66324 17.4451 9.73581 17.3878 9.77785C17.3611 9.83898 17.3496 9.9421 17.3114 10.0147C17.2961 10.0911 17.2656 10.1331 17.2426 10.2019C17.2142 10.2726 17.1974 10.3474 17.1929 10.4235C17.1854 10.5457 17.1586 10.5304 17.086 10.4961C17.0555 10.4426 17.0096 10.3891 16.9791 10.328C16.9943 10.2363 17.0173 10.1904 17.0173 10.0911C16.9981 10.0147 16.9599 10.0224 16.9103 10.072C16.9103 10.1675 16.9103 10.2439 16.8721 10.2936C16.8654 10.3234 16.8529 10.3517 16.8352 10.3766C16.8175 10.4015 16.7949 10.4227 16.7689 10.4387C16.7422 10.5075 16.6849 10.5419 16.6276 10.5686C16.6199 10.5686 16.6276 10.5457 16.6276 10.4922C16.5855 10.412 16.6276 10.3394 16.6276 10.2363C16.6276 10.1446 16.6199 10.0835 16.6467 9.99943C16.6467 9.90774 16.6085 9.8237 16.5932 9.75873C16.5588 9.68996 16.5397 9.6556 16.4519 9.62888C16.3869 9.60212 16.299 9.57156 16.257 9.51423C16.2165 9.45788 16.1609 9.41417 16.0965 9.38818C16.0201 9.36146 15.9781 9.33085 15.9208 9.29649C15.8673 9.23537 15.8215 9.21245 15.7986 9.13224C15.7604 9.07492 15.7566 8.96795 15.7298 8.89154C15.7222 8.81557 15.7043 8.74101 15.6763 8.66996C15.6676 8.59419 15.6497 8.51977 15.6228 8.44838C15.6114 8.37198 15.5923 8.29557 15.5693 8.20768C15.5693 8.11984 15.5693 8.03195 15.5503 7.95174V7.69196C15.5388 7.61556 15.535 7.50859 15.5159 7.45126C15.5159 7.35193 15.5044 7.29845 15.4776 7.22968C15.4394 7.16476 15.4394 7.13799 15.3745 7.11892C15.3287 7.1762 15.2561 7.20296 15.1644 7.2144C15.0995 7.19912 15.0078 7.18768 14.9352 7.15712C14.8626 7.14184 14.8168 7.11127 14.7594 7.08071C14.7264 7.03041 14.6907 6.98195 14.6525 6.93554C14.641 6.84001 14.6219 6.79037 14.6143 6.69484C14.6143 6.62607 14.6181 6.66427 14.6907 6.56879H14.6869Z" fill="#BCBCBC"/>
<path fill-rule="evenodd" clip-rule="evenodd" d="M15.7298 7.23352L15.7451 7.21824C15.7145 7.24881 15.726 7.23352 15.7948 7.20681C15.833 7.18384 15.9055 7.14184 15.9323 7.11512C15.9629 7.09984 16.0163 7.07692 16.0469 7.05015C16.0775 7.01195 16.1118 6.98138 16.1577 6.94702C16.2035 6.90498 16.2494 6.8897 16.3067 6.85534C16.3754 6.8477 16.4022 6.81713 16.4671 6.84006C16.5283 6.85534 16.555 6.85534 16.6047 6.80185C16.6543 6.77129 16.7116 6.73688 16.7307 6.68724V6.60699C16.7307 6.69104 16.7116 6.7216 16.6543 6.74832C16.6161 6.79801 16.5626 6.8477 16.5397 6.89349C16.5015 6.95082 16.4939 6.98138 16.4556 7.0081C16.4213 7.05015 16.3678 7.07307 16.3563 7.14184C16.3716 7.1724 16.3563 7.18768 16.3945 7.19152C16.4289 7.22204 16.4671 7.2106 16.5168 7.19152C16.5583 7.14655 16.5918 7.09489 16.6161 7.03871C16.6581 6.97754 16.6811 6.95082 16.704 6.90498C16.7498 6.87442 16.7766 6.85149 16.7918 6.80185C16.8415 6.77124 16.8835 6.74068 16.9179 6.71012C16.9561 6.6872 16.9752 6.66812 17.0287 6.65668C17.0326 6.70799 17.0192 6.75912 16.9905 6.80185C16.9791 6.87441 16.9829 6.90882 17.0058 6.95467C17.0402 6.98138 17.0325 7.00051 17.0555 7.05015C17.0745 7.00431 17.086 6.92026 17.0937 6.86677V6.85534C17.0937 6.90877 17.0937 6.98518 17.0784 7.02343C17.0784 7.09984 17.0975 7.1342 17.1166 7.19152C17.1357 7.22209 17.1548 7.24116 17.1777 7.25645C17.1777 7.18004 17.2006 7.1342 17.2044 7.06543C17.2197 7.11512 17.2159 7.18768 17.2274 7.24496C17.2312 7.30613 17.2541 7.35198 17.277 7.40162C17.3076 7.4169 17.3152 7.47038 17.3267 7.42834C17.3572 7.3367 17.3572 7.23737 17.3764 7.14184C17.3802 7.09215 17.384 7.01959 17.4031 6.98523L17.3764 7.13804C17.3802 7.0922 17.384 7.02343 17.4031 6.98523V6.96995C17.417 7.03925 17.4259 7.10946 17.4298 7.18004C17.4298 7.23737 17.426 7.29465 17.4413 7.34813C17.4795 7.32906 17.5063 7.28321 17.5292 7.23352C17.556 7.18112 17.5894 7.13234 17.6285 7.08835L17.5291 7.22973C17.5562 7.17865 17.5896 7.13116 17.6285 7.08835V7.07692C17.6212 7.13648 17.6173 7.19643 17.617 7.25645C17.617 7.31757 17.617 7.38634 17.6285 7.42838C17.6438 7.49715 17.6629 7.50859 17.6667 7.5812C17.6667 7.6194 17.6591 7.6576 17.6781 7.67668C17.7316 7.68817 17.7316 7.6576 17.7393 7.58499C17.7393 7.50095 17.7622 7.44367 17.766 7.36342C17.766 7.26409 17.7775 7.3749 17.789 7.4131C17.8118 7.46767 17.8248 7.52588 17.8272 7.58499C17.8272 7.6232 17.8233 7.6576 17.8386 7.67668C17.8883 7.65376 17.9074 7.60027 17.9379 7.56971C17.9646 7.50859 17.9914 7.48187 18.0143 7.43982C18.0793 7.42838 18.0755 7.40162 18.0755 7.32521C18.0755 7.26029 18.0716 7.19532 18.0907 7.14184C18.1106 7.08553 18.1272 7.02814 18.1404 6.96995C18.1634 6.95846 18.1863 6.99287 18.2016 7.02338C18.2283 7.06543 18.2245 7.12656 18.2245 7.19152C18.2398 7.24881 18.2627 7.29465 18.2894 7.34813C18.3126 7.39525 18.3421 7.43896 18.3772 7.47802C18.3887 7.52007 18.3887 7.59263 18.3887 7.64996C18.4384 7.59263 18.446 7.51243 18.4499 7.42838C18.4422 7.37106 18.4422 7.29849 18.4269 7.24501C18.4269 7.18768 18.4116 7.1304 18.4002 7.08835C18.362 7.06927 18.3505 7.05015 18.3887 6.99667C18.4269 6.96231 18.4728 6.97759 18.5377 6.98523C18.5721 7.01959 18.5835 7.03867 18.5874 7.11507C18.5874 7.18388 18.5874 7.23737 18.6141 7.28321C18.6371 7.32142 18.6599 7.34813 18.6752 7.41306C18.6944 7.43218 18.7096 7.45895 18.7364 7.42838C18.7516 7.39018 18.7631 7.31377 18.7746 7.27173C18.786 7.22204 18.809 7.19532 18.8357 7.18004C18.8357 7.25265 18.8357 7.29465 18.8624 7.34813C18.8854 7.40546 18.9006 7.42838 18.9236 7.49331C18.9503 7.51243 18.9541 7.55063 18.9885 7.56971C18.9961 7.50859 19 7.43982 19 7.36342V7.18004C19.0038 7.11892 19.0191 7.08451 19.0382 7.03487C19.0764 7.08835 19.0764 7.10743 19.0764 7.18004C19.1146 7.16476 19.1222 7.1342 19.1375 7.08835C19.1642 7.06163 19.1757 7.05015 19.1872 7.11507C19.1948 7.18388 19.2101 7.24501 19.2254 7.30993C19.2483 7.34049 19.2788 7.41306 19.3094 7.43982C19.3311 7.47806 19.3567 7.51391 19.3859 7.54679C19.4049 7.58499 19.4088 7.61171 19.4623 7.6232C19.4623 7.53535 19.4623 7.44746 19.447 7.36342C19.447 7.28701 19.4317 7.26029 19.424 7.19152C19.4011 7.14948 19.3896 7.08071 19.3973 7.06163C19.4472 7.10418 19.4864 7.15781 19.5119 7.21824C19.5386 7.28317 19.5654 7.32521 19.5883 7.39013C19.6246 7.42994 19.6567 7.47348 19.6838 7.52002C19.7297 7.55823 19.7526 7.60027 19.7984 7.63463C19.8214 7.6576 19.8749 7.67284 19.8863 7.6614C19.8825 7.58499 19.871 7.52007 19.8481 7.4551C19.8479 7.40059 19.8349 7.3469 19.8099 7.29845C19.7602 7.25645 19.722 7.22588 19.6953 7.1686C19.68 7.14948 19.6762 7.13799 19.6724 7.10363C19.7382 7.15589 19.7972 7.2162 19.8481 7.28317C19.8728 7.32173 19.907 7.3533 19.9474 7.37485C19.9703 7.40541 20.0429 7.43982 20.0964 7.45126C20.1274 7.49229 20.1722 7.52078 20.2225 7.53151L20.0964 7.4551C20.128 7.49471 20.1727 7.52179 20.2225 7.53151V7.54679C20.2133 7.47185 20.1872 7.39998 20.1461 7.33665C20.1222 7.2785 20.0825 7.2282 20.0315 7.19148C20.0004 7.14407 19.9585 7.10478 19.9092 7.07687C19.8749 7.03867 19.8252 6.9699 19.7946 6.94702C19.8519 6.90877 19.9131 6.9699 19.9703 6.99667C20.02 7.05015 20.0659 7.11892 20.0964 7.15327C20.1258 7.21603 20.1644 7.274 20.211 7.32521C20.2645 7.35577 20.2989 7.38634 20.3447 7.42834C20.4211 7.44746 20.3906 7.4207 20.3714 7.36342C20.3447 7.28701 20.3714 7.28701 20.4211 7.3367C20.4555 7.36342 20.4975 7.40162 20.5472 7.42834C20.5663 7.4551 20.6007 7.47418 20.6313 7.4551C20.6466 7.43598 20.6466 7.43598 20.6466 7.4169C20.6198 7.33285 20.5931 7.27173 20.5319 7.24496C20.5052 7.20676 20.4555 7.16856 20.4173 7.13035C20.3944 7.09215 20.3676 7.06923 20.3447 7.02338L20.4211 7.12656C20.3944 7.08835 20.3676 7.06923 20.3447 7.02343H20.3333C20.4097 7.02343 20.4364 7.04631 20.4937 7.07687C20.54 7.09578 20.5798 7.12761 20.6084 7.16856C20.6313 7.19912 20.6733 7.23352 20.6962 7.27173L20.8184 7.36342C20.8605 7.4169 20.8681 7.45126 20.8681 7.53151C20.8949 7.56971 20.8987 7.64612 20.9063 7.68812C20.8987 7.76073 20.8719 7.7034 20.8681 7.6614C20.8605 7.60407 20.8376 7.60792 20.7917 7.6232C20.7917 7.6996 20.8032 7.72252 20.8299 7.77981C20.8247 7.82603 20.8091 7.87045 20.7841 7.9097C20.7535 7.92882 20.7459 7.87149 20.7191 7.84477C20.7191 7.76837 20.6962 7.75688 20.6427 7.71488V7.76837C20.6733 7.82185 20.7038 7.87149 20.7077 7.9479C20.7275 8.00298 20.7365 8.06134 20.7344 8.11984C20.7344 8.18476 20.7344 8.24593 20.7191 8.30321C20.7191 8.37198 20.7077 8.40254 20.7077 8.47131V8.83806C20.6985 8.8936 20.6947 8.94988 20.6962 9.00615L20.7077 8.83806C20.7 8.8839 20.6962 8.94118 20.6962 9.00615V9.01759C20.6733 8.95267 20.6465 8.89534 20.6313 8.82657C20.5945 8.78815 20.5659 8.74267 20.5472 8.69288C20.5357 8.63556 20.5319 8.57063 20.5205 8.52479C20.5014 8.47895 20.4823 8.42926 20.4441 8.45982C20.4288 8.55535 20.4517 8.61263 20.4823 8.70432C20.5014 8.76545 20.5014 8.81893 20.5205 8.87626C20.551 8.94502 20.5739 8.95267 20.5205 9.02907C20.4937 9.07492 20.4823 9.08635 20.4708 9.13604C20.425 9.15896 20.4135 9.17424 20.4097 9.22773C20.3944 9.17804 20.3562 9.11691 20.3333 9.05963C20.3103 8.99466 20.2836 8.92974 20.2722 8.87626C20.2416 8.83041 20.2072 8.76165 20.1728 8.73109C20.1384 8.69288 20.0964 8.61648 20.0735 8.57827C20.0238 8.52095 20.0124 8.48659 19.9703 8.45982C19.9627 8.4331 19.9474 8.3987 19.9206 8.42162C19.9206 8.48274 19.9206 8.54771 19.936 8.6012C19.9474 8.6776 19.9703 8.7196 19.9742 8.79601V8.94118C19.9436 8.86477 19.9092 8.80365 19.8863 8.73109C19.8557 8.69288 19.8328 8.61648 19.7984 8.58971C19.7755 8.53627 19.7602 8.49423 19.7335 8.45987C19.7297 8.42162 19.7106 8.42162 19.6953 8.3949C19.6953 8.46746 19.722 8.49423 19.7335 8.54771C19.7567 8.5978 19.7659 8.65325 19.7602 8.70816C19.7297 8.61648 19.6991 8.51715 19.6609 8.4331C19.6227 8.37962 19.5845 8.31085 19.5615 8.26117C19.5234 8.21917 19.4851 8.21532 19.447 8.18476C19.4142 8.17012 19.3854 8.14786 19.3629 8.11984C19.3706 8.1886 19.3973 8.23445 19.4126 8.28793C19.4202 8.35285 19.4508 8.40634 19.4623 8.45982C19.447 8.54771 19.4241 8.4331 19.4126 8.3949C19.3973 8.31849 19.3744 8.28029 19.3476 8.23824C19.3132 8.21152 19.2865 8.16948 19.2483 8.14656C19.2101 8.13127 19.2254 8.14656 19.2254 8.19624C19.2254 8.27645 19.2254 8.32993 19.2483 8.37962C19.275 8.41782 19.275 8.46746 19.275 8.53623C19.2712 8.6012 19.2598 8.65084 19.2598 8.7196V8.82277C19.233 8.76929 19.2063 8.73488 19.1834 8.66612C19.1451 8.60499 19.1299 8.56299 19.0993 8.49802C19.0726 8.48659 19.0229 8.4751 19 8.49802C19.0038 8.56299 19.0344 8.58971 19.0382 8.66612C18.9885 8.71581 18.9962 8.73109 18.9618 8.65468C18.9351 8.59356 18.9006 8.59735 18.8624 8.56299C18.8013 8.55535 18.8204 8.51331 18.8013 8.45602C18.8013 8.40634 18.8013 8.3567 18.786 8.31465C18.7173 8.31465 18.6791 8.31465 18.6371 8.35285C18.6179 8.39106 18.6256 8.46746 18.6371 8.52479V8.70432C18.6218 8.75016 18.5989 8.75401 18.5874 8.81129C18.5645 8.86477 18.5568 8.9259 18.5377 8.9641C18.4919 9.00615 18.511 9.00995 18.4881 8.94118V8.52095C18.4881 8.45218 18.4995 8.41782 18.4995 8.35285C18.4766 8.29942 18.469 8.28793 18.3849 8.28793C18.3696 8.32229 18.3773 8.38341 18.3849 8.41782C18.3849 8.48274 18.3926 8.54392 18.4002 8.58971C18.4002 8.65848 18.4079 8.70052 18.4116 8.75781C18.4116 8.82657 18.3964 8.88006 18.362 8.91062C18.32 8.9259 18.3582 8.95646 18.3123 8.96795C18.2623 8.94419 18.216 8.91331 18.1748 8.87626C18.1289 8.86098 18.0831 8.84954 18.0143 8.84954C17.9303 8.84954 17.9303 8.83806 17.8997 8.77313C17.8782 8.7046 17.8628 8.63427 17.8539 8.56299C17.8233 8.50187 17.8157 8.45987 17.8042 8.39106C17.787 8.35447 17.7607 8.32291 17.7278 8.29937C17.7087 8.36813 17.6896 8.42162 17.6896 8.49802C17.6744 8.52859 17.6705 8.60499 17.6667 8.6394C17.6399 8.6012 17.6285 8.52479 17.6132 8.47131C17.5903 8.3949 17.5712 8.34142 17.491 8.36818C17.4069 8.36818 17.4031 8.36818 17.4031 8.45982L17.5024 8.61263V8.79601C17.5024 8.87242 17.5063 8.89538 17.4527 8.91062C17.4336 8.83421 17.3878 8.75781 17.3382 8.69288C17.3343 8.6394 17.319 8.65468 17.2656 8.65468C17.2312 8.65468 17.1968 8.64704 17.1777 8.66612V8.78073C17.1471 8.78837 17.1395 8.78073 17.1166 8.75781C17.0936 8.79601 17.1127 8.84949 17.1166 8.89918C17.1013 8.96031 17.0784 9.01379 17.0555 9.04435C17.0478 9.02523 17.0363 9.03287 17.0555 9.03287C16.9676 8.99851 16.9026 8.97943 16.8262 8.95646C16.788 8.95646 16.7536 8.99851 16.7307 9.03287C16.6658 9.05199 16.639 9.07107 16.5665 9.07107C16.5015 9.07107 16.4671 9.08256 16.406 9.08256C16.3602 9.09399 16.3028 9.09784 16.2417 9.09784C16.2111 9.08635 16.15 9.08635 16.1309 9.07112C16.1577 9.03287 16.1844 9.01379 16.2074 8.95646C16.2433 8.92769 16.2765 8.89573 16.3067 8.86098C16.3372 8.83806 16.3754 8.78837 16.406 8.75785C16.4251 8.69288 16.4519 8.68145 16.4939 8.65468C16.5703 8.65468 16.5817 8.6814 16.6543 8.69288C16.7269 8.7196 16.7689 8.73109 16.8071 8.6776C16.8644 8.65468 16.9141 8.61263 16.9791 8.6012L17.1051 8.52479C17.1586 8.49038 17.1815 8.45602 17.2274 8.41782C17.2426 8.36434 17.2808 8.32229 17.2656 8.26501C17.1968 8.24588 17.1548 8.24973 17.1127 8.28793C17.0631 8.33377 17.0516 8.35285 16.9905 8.39106C16.9408 8.40634 16.9141 8.42926 16.853 8.44454C16.8033 8.46367 16.7384 8.45602 16.6811 8.45602C16.6238 8.45602 16.5512 8.45218 16.5168 8.47131C16.5741 8.4331 16.639 8.3949 16.6925 8.37962C16.7422 8.34521 16.7613 8.32993 16.83 8.32613C16.8606 8.28793 16.895 8.28793 16.9064 8.22301C16.9256 8.1466 16.8568 8.16948 16.8033 8.19624C16.7536 8.20768 16.6964 8.24209 16.6543 8.26117C16.6025 8.27804 16.5484 8.28707 16.4939 8.28793C16.4786 8.26501 16.5053 8.24588 16.5168 8.21152C16.5741 8.1886 16.5855 8.18096 16.5932 8.11984C16.5283 8.12748 16.5015 8.1504 16.4404 8.15804C16.3792 8.17332 16.3143 8.18096 16.2417 8.18476H16.0698C16.0087 8.18476 15.9743 8.16948 15.9055 8.16948C15.8558 8.14276 15.8558 8.13127 15.8558 8.05487C15.8941 8.00902 15.9322 8.01666 16.0086 8.01666L16.1424 7.9479C16.1882 7.94026 16.2188 7.92118 16.2074 7.89826H16.0316C15.9629 7.8677 16.0316 7.85621 16.0698 7.83329C16.1309 7.83329 16.1921 7.83329 16.2303 7.85626C16.3067 7.85626 16.3334 7.82949 16.3945 7.77985C16.4404 7.7416 16.4633 7.71488 16.5168 7.68812C16.555 7.64612 16.5932 7.6232 16.6161 7.58499C16.6696 7.53531 16.704 7.50859 16.7307 7.46654C16.7613 7.44746 16.7842 7.42834 16.7689 7.40162C16.6887 7.40926 16.6543 7.43982 16.6047 7.47802C16.576 7.50879 16.5424 7.53461 16.5053 7.55443C16.4581 7.58797 16.4026 7.6078 16.3449 7.61171C16.2799 7.61171 16.2303 7.60027 16.1691 7.59643C16.1004 7.58879 16.1615 7.57351 16.1806 7.54299C16.2073 7.52767 16.2264 7.48567 16.2073 7.4551C16.1539 7.43598 16.0927 7.43982 16.0316 7.43982H15.8558C15.7909 7.43982 15.7642 7.42454 15.7184 7.40162C15.7069 7.36341 15.7184 7.3749 15.768 7.3749C15.8236 7.37266 15.8788 7.36368 15.9323 7.34813C15.9896 7.33285 15.9972 7.30993 16.0087 7.24501C15.9476 7.24501 15.8826 7.24501 15.8444 7.23352H15.7298ZM14.6525 6.93554C14.641 6.84006 14.6181 6.79037 14.6143 6.69488C14.6143 6.62612 14.6181 6.66432 14.6868 6.56879C14.6945 6.56879 14.7441 6.5191 14.7938 6.4771C14.8588 6.4389 14.9199 6.39685 14.9848 6.36249C15.0345 6.33577 15.1376 6.31281 15.1797 6.28993C15.2416 6.25995 15.2963 6.21694 15.3401 6.16384C15.3439 6.07979 15.3554 6.01867 15.3554 5.92318L15.5502 5.82765C15.6381 5.80473 15.6572 5.77037 15.7451 5.75509C15.8024 5.73596 15.894 5.73596 15.9743 5.73596C16.0621 5.73596 16.1156 5.80093 16.1959 5.81237C16.2914 5.85057 16.3334 5.87729 16.406 5.94226C16.448 5.99574 16.4747 6.04159 16.5473 6.07979C16.6046 6.11035 16.6581 6.1562 16.7231 6.17148C16.7231 6.24024 16.7384 6.22876 16.6925 6.22876C16.6849 6.29752 16.6696 6.29373 16.6046 6.29373C16.5582 6.26971 16.5188 6.23421 16.49 6.1906C16.5168 6.12179 16.5015 6.24404 16.49 6.26701C16.4594 6.29373 16.4404 6.32045 16.406 6.29373C16.383 6.22881 16.3678 6.18676 16.3678 6.11035C16.3563 6.0301 16.3334 6.08743 16.3181 6.12179C16.299 6.19056 16.3066 6.21348 16.3296 6.26696C16.2646 6.26696 16.2149 6.25932 16.1691 6.25552C16.1233 6.24409 16.0698 6.25552 16.0163 6.27845C15.9514 6.32045 15.9743 6.32045 16.0049 6.37013C16.0621 6.38921 16.1042 6.41982 16.1577 6.44654C16.2111 6.4389 16.2723 6.42362 16.3296 6.40834C16.3907 6.38926 16.4442 6.40449 16.5053 6.40834C16.5359 6.42742 16.5741 6.43126 16.5932 6.44654C16.5932 6.48854 16.5932 6.53059 16.5779 6.55351C16.555 6.57259 16.5282 6.61843 16.4901 6.62991C16.4365 6.66138 16.3786 6.68457 16.3181 6.69868C16.2417 6.69868 16.2111 6.71776 16.1538 6.74837C16.1462 6.81713 16.1271 6.83242 16.066 6.85534C16.0123 6.8809 15.9535 6.89396 15.894 6.89354C15.8558 6.89354 15.8215 6.89734 15.8062 6.87826C15.8486 6.834 15.8823 6.78216 15.9055 6.72545C15.917 6.69868 15.9399 6.6796 15.917 6.65668C15.8444 6.66048 15.8253 6.66048 15.8176 6.73309C15.81 6.80565 15.7833 6.81713 15.7298 6.84006C15.7451 6.77893 15.7489 6.72545 15.768 6.67196C15.7149 6.68028 15.6612 6.68411 15.6075 6.6834C15.5693 6.71012 15.5541 6.71776 15.5693 6.75981C15.5196 6.77888 15.4547 6.76745 15.3936 6.75981C15.3401 6.75981 15.3707 6.73688 15.3325 6.71012C15.3058 6.66048 15.279 6.64904 15.2179 6.6452C15.1911 6.6834 15.1415 6.69488 15.1071 6.7216C15.0536 6.74068 15.0192 6.72545 14.9695 6.69868C14.9084 6.69868 14.9161 6.71776 14.9313 6.7636C14.9581 6.77893 14.9313 6.79801 14.9695 6.80185C15.0077 6.83241 15.0383 6.84006 15.1071 6.84006C15.1605 6.82857 15.2217 6.82857 15.2828 6.82857C15.3439 6.82857 15.3325 6.84385 15.3325 6.90498C15.2943 6.93554 15.2331 6.9317 15.1682 6.9317C15.1172 6.92507 15.0671 6.91225 15.0192 6.89354C14.9619 6.8897 14.9161 6.87826 14.8702 6.89354C14.8511 6.91646 14.7938 6.9241 14.8588 6.93174C14.8855 6.95846 15.0306 6.94318 15.0383 6.98902C15.0765 7.02723 15.0651 7.07692 15.0077 7.07692C14.9945 7.06881 14.9793 7.06453 14.9638 7.06453C14.9483 7.06453 14.9331 7.06881 14.9199 7.07692C14.8817 7.08456 14.8282 7.07692 14.7556 7.08456C14.8511 7.0922 14.6868 6.98138 14.6525 6.93554Z" fill="#FEFEFE"/>
<path fill-rule="evenodd" clip-rule="evenodd" d="M15.0463 6.50392L14.9699 6.55356C14.9164 6.58412 14.8553 6.62997 14.8209 6.65669C14.7942 6.67965 14.7942 6.69494 14.7598 6.69494C14.8171 6.68729 14.8438 6.67197 14.8973 6.64525C14.9623 6.63761 15.0234 6.62233 15.0578 6.59176C15.0922 6.58033 15.0578 6.53064 15.0463 6.50008V6.50392ZM15.6194 5.88883C15.627 5.88883 15.6423 5.92703 15.669 5.95379C15.6881 6.00344 15.7072 6.03784 15.7072 6.09897C15.7225 6.034 15.7454 5.98436 15.7569 5.91559C15.7378 5.87734 15.7378 5.8659 15.6805 5.86206C15.6805 5.90026 15.6881 5.87354 15.6194 5.88883Z" fill="#BCBCBC"/>
<path fill-rule="evenodd" clip-rule="evenodd" d="M15.2358 6.44534C15.2076 6.44534 15.281 6.41581 15.3092 6.4099C15.3318 6.36265 15.3431 6.33312 15.3826 6.30359C15.4447 6.30359 15.4785 6.32721 15.5067 6.36856C15.5632 6.38628 15.5801 6.4099 15.6422 6.42171C15.6704 6.44534 15.6986 6.44534 15.6422 6.46306C15.6083 6.48078 15.5575 6.48668 15.4955 6.48668C15.4445 6.49069 15.3947 6.50471 15.3487 6.52803C15.2641 6.52803 15.2753 6.52803 15.2358 6.44534Z" fill="#C4C4C2" stroke="black" stroke-width="0.138564"/>
<path fill-rule="evenodd" clip-rule="evenodd" d="M15.8447 5.90025V5.91549C15.8447 5.87733 15.8447 5.89641 15.8562 5.96517C15.8753 6.01102 15.8829 6.05686 15.8829 6.12563C15.919 6.09407 15.9455 6.05303 15.9593 6.00717C15.9593 5.90405 15.9403 5.90789 15.8447 5.90025ZM16.3032 7.40161H16.3184C16.2802 7.40161 16.3032 7.40161 16.3681 7.36341C16.4101 7.33285 16.4445 7.287 16.5057 7.27172C16.5529 7.23139 16.6074 7.20029 16.6661 7.18003C16.6967 7.16475 16.7234 7.14183 16.754 7.16475C16.7463 7.22972 16.7349 7.25644 16.6776 7.2832C16.6508 7.32141 16.6088 7.34433 16.5668 7.35961C16.5286 7.37869 16.4827 7.38253 16.4674 7.42838C16.3987 7.45894 16.391 7.4513 16.307 7.40161H16.3032ZM16.5438 7.77984C16.5629 7.76072 16.6432 7.68047 16.6814 7.64991C16.7151 7.60051 16.7563 7.5567 16.8036 7.52006C16.8418 7.46274 16.8876 7.42453 16.9182 7.37489L17.0176 7.245C17.0176 7.30228 17.0099 7.37869 17.029 7.41309C17.0327 7.46798 17.0194 7.52267 16.9908 7.5697C16.9641 7.61555 16.9411 7.64611 16.8762 7.67667C16.8227 7.70724 16.7884 7.71488 16.7425 7.75308C16.7058 7.77725 16.6675 7.79895 16.6279 7.81805C16.5935 7.83333 16.6088 7.82949 16.5438 7.77984ZM16.1541 8.07778H16.1694C16.1312 8.07778 16.1504 8.08163 16.2191 8.03958C16.2726 7.98614 16.3146 7.96317 16.3796 7.93645C16.4326 7.93415 16.4845 7.92115 16.5324 7.89825C16.5591 7.89061 16.5821 7.87153 16.6049 7.89825C16.6431 7.95174 16.6546 7.96702 16.5935 8.00138C16.5562 8.0312 16.5133 8.05329 16.4674 8.06634C16.4369 8.09306 16.3757 8.09306 16.3146 8.10455C16.2688 8.10455 16.2382 8.11219 16.2191 8.07783L16.3184 8.10455C16.2688 8.10455 16.242 8.11219 16.1542 8.07783L16.1541 8.07778ZM16.689 8.07778V8.06634C16.689 8.10455 16.689 8.08542 16.7158 8.01286C16.7654 7.9403 16.7807 7.89825 16.8419 7.88297C16.8686 7.84477 16.9183 7.83713 16.9794 7.81805C17.0023 7.85625 16.9832 7.90209 16.9794 7.94789C16.9641 7.99758 16.9183 8.03194 16.8915 8.06634C16.8533 8.09306 16.838 8.11983 16.7769 8.13127C16.731 8.13127 16.7578 8.13127 16.6928 8.07783L16.689 8.07778Z" fill="#BCBCBC"/>
<path fill-rule="evenodd" clip-rule="evenodd" d="M15.4698 6.3854C15.4698 6.41976 15.4431 6.45033 15.4087 6.45033C15.4001 6.45039 15.3917 6.44876 15.3837 6.44552C15.3758 6.44228 15.3687 6.43751 15.3626 6.43146C15.3566 6.42542 15.3518 6.41824 15.3486 6.41033C15.3453 6.40242 15.3437 6.39395 15.3438 6.3854C15.3438 6.3472 15.3743 6.32043 15.4087 6.32043C15.4431 6.32043 15.4698 6.3472 15.4698 6.3854Z" fill="black"/>
<path fill-rule="evenodd" clip-rule="evenodd" d="M15.6197 10.0478H15.6705C15.5124 10.0478 15.6084 10.036 15.868 10.2546C15.9809 10.1601 15.9809 10.1482 16.0655 10.3136C16.122 10.4022 16.1333 10.3018 16.2179 10.2073C16.2574 10.3963 16.28 10.5912 16.4154 10.414C16.5735 10.414 16.7315 10.4022 16.8161 10.4672C16.9177 10.6621 16.8839 10.4317 16.9629 10.5203C17.1886 10.544 17.183 10.3195 17.42 10.2605C17.5668 10.4554 17.6345 10.3077 17.8151 10.2132C17.9562 10.2487 18.086 10.4672 18.1142 10.2546C18.2271 10.0656 18.2327 10.0774 18.3117 10.2546C18.4246 10.3609 18.4698 10.2073 18.5601 10.1542C18.7294 10.2546 18.9156 10.2723 19.1583 10.2073C19.2035 10.3786 19.305 10.3018 19.4123 10.2546C19.6324 10.355 19.7057 10.3845 19.9597 10.2546C20.0839 10.101 20.0162 10.2605 20.1065 10.3609C20.2927 10.3018 20.2419 10.29 20.4564 10.3077C20.6765 10.3077 20.6934 10.3077 20.7555 10.1542C20.8684 10.2664 20.9022 10.3491 21.0546 10.2073C21.2916 10.2073 21.2183 10.2368 21.3537 10.1482C21.461 10.3845 21.4835 10.2191 21.6077 10.3077C21.5379 10.4822 21.4148 10.6276 21.2578 10.7212C21.1618 10.8983 21.0998 11.0755 20.9079 11.1464C20.7668 11.2941 20.6144 11.3827 20.4564 11.5126C20.2419 11.5717 20.0049 11.5598 19.7622 11.5598H17.6627C17.516 11.6425 17.2676 11.678 17.0645 11.7193C16.8387 11.7193 16.5735 11.7193 16.4154 11.6662C16.3082 11.5539 16.122 11.4299 16.0204 11.3C15.9075 11.2114 15.9075 11.0401 15.8172 10.9338C15.7382 10.7861 15.7043 10.5499 15.6197 10.414V10.0478Z" fill="#005120" stroke="#002B0D" stroke-width="0.20528"/>
<path fill-rule="evenodd" clip-rule="evenodd" d="M20.4565 10.5204V10.5676C20.4565 10.4259 20.4622 10.5027 20.3549 10.7803C20.338 10.8452 20.2872 10.8629 20.2082 10.8866M20.0107 10.7271H20.0615C19.8752 10.9043 19.7511 10.9929 19.7115 11.1996L20.0615 10.7271C19.8752 10.9043 19.7511 10.9929 19.7115 11.1996M19.3108 10.4672C19.3108 10.4672 19.3052 10.6503 19.26 10.7271L19.3108 10.4672ZM18.7126 10.5204H18.7634H18.707C18.7295 10.5204 18.7465 10.5204 18.707 10.5204H18.7126ZM15.9189 10.5204C15.9415 10.5204 16.0431 10.6858 16.1673 10.7803C16.1391 10.9338 16.0883 11.111 16.1673 11.2528M16.3197 10.8334C16.3422 10.8334 16.4382 10.9988 16.568 11.0933L16.3197 10.8334C16.3422 10.8334 16.4382 10.9988 16.568 11.0933V11.1464C16.568 10.9811 16.5567 10.8157 16.6188 10.7271C16.6752 10.8275 16.7429 10.9811 16.7655 10.8334C17.0477 10.8216 17.1831 10.7389 17.3637 10.6739C17.3637 10.7507 17.3525 10.7153 17.4202 10.7803M20.8064 10.5676H20.8572C20.7613 10.6503 20.6879 10.8216 20.6089 10.9338M18.7634 10.4141H19.1585H18.7634Z" fill="#005120"/>
<path d="M20.4565 10.5204V10.5676C20.4565 10.4259 20.4622 10.5027 20.3549 10.7803C20.338 10.8452 20.2872 10.8629 20.2082 10.8866M20.0107 10.7271H20.0615M20.0615 10.7271C19.8752 10.9043 19.7511 10.9929 19.7115 11.1996L20.0615 10.7271ZM19.3108 10.4672C19.3108 10.4672 19.3052 10.6503 19.26 10.7271M19.1133 10.8334V10.8807M18.707 10.5204H18.7634H18.7126H18.707ZM18.707 10.5204C18.7295 10.5204 18.7465 10.5204 18.707 10.5204ZM15.9189 10.5204C15.9415 10.5204 16.0431 10.6858 16.1673 10.7803C16.1391 10.9338 16.0883 11.111 16.1673 11.2528M16.568 11.0933C16.4382 10.9988 16.3422 10.8334 16.3197 10.8334L16.568 11.0933ZM16.568 11.0933V11.1464C16.568 10.9811 16.5567 10.8157 16.6188 10.7271C16.6752 10.8275 16.7429 10.9811 16.7655 10.8334C17.0477 10.8216 17.1831 10.7389 17.3637 10.6739C17.3637 10.7507 17.3525 10.7153 17.4202 10.7803M20.8064 10.5676H20.8572C20.7613 10.6503 20.6879 10.8216 20.6089 10.9338M18.7634 10.4141H19.1585" stroke="#002B0D" stroke-width="0.20528"/>
<path fill-rule="evenodd" clip-rule="evenodd" d="M15.501 10.7827C14.9012 10.7827 14.7025 11.4092 14.1028 11.4092H14.0684V11.4474C14.0684 11.8829 14.0989 12.2879 14.1639 12.6661C14.7178 12.6279 14.9203 12.0396 15.501 12.0396C16.1008 12.0396 16.3033 12.6661 16.903 12.6661C17.5028 12.6661 17.7015 12.0396 18.3013 12.0396C18.9011 12.0396 19.1036 12.6661 19.7033 12.6661C20.3031 12.6661 20.5018 12.0396 21.1016 12.0396C21.6784 12.0396 21.8847 12.6203 22.4387 12.6623C22.5065 12.2494 22.5384 11.8314 22.5342 11.413H22.4998C21.9 11.413 21.7014 10.7865 21.1016 10.7865C20.5018 10.7865 20.2993 11.413 19.7033 11.413C19.1074 11.413 18.9011 10.7865 18.3013 10.7865C17.7015 10.7865 17.499 11.413 16.903 11.413C16.3071 11.413 16.1008 10.7865 15.501 10.7865V10.7827ZM15.501 13.2315C15.0349 13.2315 14.8133 13.6135 14.4504 13.7778C14.5704 14.1065 14.72 14.4236 14.8974 14.7253C15.0693 14.5992 15.2489 14.4884 15.501 14.4884C16.1008 14.4884 16.3033 15.1149 16.8992 15.1149C17.5028 15.1149 17.7015 14.4884 18.3013 14.4884C18.9011 14.4884 19.1035 15.1149 19.6995 15.1149C20.2955 15.1149 20.5018 14.4884 21.1016 14.4884C21.3193 14.495 21.5282 14.5759 21.6937 14.7176C21.8706 14.417 22.0202 14.1012 22.1407 13.774C21.7892 13.6021 21.5639 13.2315 21.1016 13.2315C20.5018 13.2315 20.2993 13.858 19.6995 13.858C19.0997 13.858 18.9011 13.2315 18.3013 13.2315C17.7015 13.2315 17.499 13.858 16.8992 13.858C16.2995 13.858 16.1008 13.2315 15.501 13.2315ZM18.3013 15.6765C17.7015 15.6765 17.499 16.3069 16.903 16.3069C16.3338 16.3069 16.1237 15.7453 15.5965 15.6842C16.3033 16.4711 17.1017 16.9449 17.648 17.2123C17.8352 17.0671 18.0262 17.3842 18.2975 17.3842C18.5764 17.3842 18.7635 17.0633 18.9469 17.2046C19.7157 16.8328 20.4068 16.3181 20.9832 15.688C20.4712 15.7644 20.2573 16.3069 19.6995 16.3069C19.0997 16.3069 18.9011 15.6804 18.3013 15.6804L18.3013 15.6765Z" fill="white"/>
<path d="M14.6016 13.5596C14.7963 13.4903 14.9942 13.4312 15.1945 13.3824L16.1151 14.3094L15.3583 14.4688L14.6016 13.5596Z" stroke="#512007" stroke-width="0.076991"/>
<path d="M16.3916 14.7661C16.406 14.5529 16.8125 13.3292 16.8125 13.3292M16.5303 14.78L16.8508 13.3385M16.6403 14.7846L16.9082 13.3385M16.406 14.5899C16.4777 14.5529 16.6834 14.4972 16.6834 14.4972M16.5064 14.3767C16.5734 14.3767 16.7121 14.3211 16.7121 14.3211M16.5447 14.2145C16.6128 14.1895 16.6833 14.1709 16.7551 14.1589M16.5734 14.0106L16.7982 13.9735M16.6738 13.8344C16.6738 13.8483 16.8269 13.8483 16.8269 13.8483M16.7121 13.6768L16.8652 13.7" stroke="#512007" stroke-width="0.0753386"/>
<path d="M18.8604 15.7009C18.8434 15.3362 18.3634 13.2429 18.3634 13.2429M18.6966 15.6295L18.3182 13.2508M18.5271 15.4472C18.5159 15.3124 18.2504 13.2588 18.2504 13.2588M18.8434 15.3996C18.7587 15.3362 18.5159 15.241 18.5159 15.241M18.7248 15.0349C18.6457 15.0349 18.482 14.9397 18.482 14.9397M18.6796 14.7574C18.5991 14.7146 18.5159 14.6828 18.4311 14.6622M18.6457 14.4085L18.3803 14.3451M18.5271 14.1072C18.5271 14.131 18.3464 14.131 18.3464 14.131M18.482 13.8376L18.3012 13.8772" stroke="#512007" stroke-width="0.0713783"/>
<path d="M20.251 15.1631C20.234 14.8915 19.754 13.3329 19.754 13.3329M20.0872 15.11L19.7088 13.3388M19.9178 14.9742C19.9065 14.8738 19.641 13.3447 19.641 13.3447M20.234 14.9388C20.1493 14.8915 19.9065 14.8207 19.9065 14.8207M20.1154 14.6672C20.0364 14.6672 19.8726 14.5963 19.8726 14.5963M20.0703 14.4606C19.9898 14.4287 19.9066 14.405 19.8218 14.3897M20.0364 14.2008L19.7709 14.1535M19.9178 13.9764C19.9178 13.9941 19.7371 13.9941 19.7371 13.9941M19.8726 13.7757L19.6919 13.8052" stroke="#512007" stroke-width="0.076991"/>
<path fill-rule="evenodd" clip-rule="evenodd" d="M18.1487 15.378L18.1995 11.0681C18.1995 11.0681 18.3464 11.0503 18.3464 11.0681C18.3464 11.0858 18.3294 15.3603 18.3125 15.378C18.2955 15.3957 18.1317 15.4075 18.1487 15.378ZM19.7582 11.257L19.7243 14.8761L19.6114 15.0178L19.6453 11.257H19.7582Z" fill="#DD8B59" stroke="#512007" stroke-width="0.076991"/>
<path fill-rule="evenodd" clip-rule="evenodd" d="M16.324 14.6695C16.324 14.6695 16.4935 16.4407 18.3797 16.3875C20.266 16.3344 20.7912 14.6045 20.7912 14.6045L19.9723 14.5691C19.9554 14.5691 19.3172 15.3956 18.4927 15.3779C17.6681 15.3602 17.4084 15.1536 17.2276 14.9824C17.0469 14.8052 16.8888 14.5514 16.8888 14.5514L15.9287 14.1558L15.9852 14.5337L16.324 14.6695ZM21.4237 14.4923L21.3673 14.2562V14.0554L21.4576 13.8429C21.4576 13.8429 20.0288 14.0613 20.0288 14.0791L20.0231 14.4805L21.4237 14.4864V14.4923Z" fill="#DD8B59" stroke="#512007" stroke-width="0.076991"/>
<path d="M16.2617 14.6517C16.3125 14.6517 16.6909 14.7403 16.6909 14.7403L17.0863 15.2894M21.1525 14.0554L21.1186 14.4097H21.3501L21.3332 14.0554H21.1525ZM20.9096 14.0731L20.8927 14.451L21.0395 14.4333L21.0564 14.0731H20.9096ZM20.6611 14.451V14.1558L20.808 14.1027L20.8249 14.3979L20.6611 14.451ZM20.3787 14.4333L20.4126 14.1735L20.5821 14.1912L20.5934 14.4687L20.3787 14.4333ZM20.0681 14.4333L20.0851 14.2089L20.2545 14.1912V14.451L20.0681 14.4333Z" stroke="#512007" stroke-width="0.076991"/>
<path d="M16.5391 14.7226C16.556 14.7403 16.8836 15.8916 18.4592 15.8916C20.0349 15.8916 20.4132 14.5868 20.4132 14.5868" stroke="#512007" stroke-width="0.076991"/>
<path d="M20.662 14.6223C20.662 14.6223 19.9052 16.3345 18.4595 16.2164C17.0194 16.0983 16.7878 15.5315 16.6749 15.2363C16.5619 14.9411 16.4941 14.705 16.4941 14.705" stroke="#512007" stroke-width="0.076991"/>
<path fill-rule="evenodd" clip-rule="evenodd" d="M16.9004 14.5515C16.9173 14.4511 16.9173 11.3397 16.9173 11.3397L16.8213 11.3279L16.8043 14.4983L16.9004 14.5574V14.5515ZM14.5566 13.5419L15.7991 14.1736L15.7709 14.2622C15.7709 14.2622 14.5736 13.6718 14.5736 13.6541C14.5736 13.6363 14.5849 13.5655 14.5566 13.536V13.5419Z" fill="#DD8B59" stroke="#512007" stroke-width="0.076991"/>
<path fill-rule="evenodd" clip-rule="evenodd" d="M15.127 13.3529C15.127 13.4001 15.3077 14.451 15.3077 14.451C15.3077 14.451 15.4206 14.4687 15.4206 14.451L15.2286 13.3706L15.127 13.3529ZM16.279 13.3824C16.3412 13.3824 17.465 13.1935 17.465 13.1935L17.4424 13.3824L16.3412 13.5005L16.279 13.3824Z" fill="#DD8B59" stroke="#512007" stroke-width="0.076991"/>
<path fill-rule="evenodd" clip-rule="evenodd" d="M16.4375 11.9595C16.477 11.9595 16.8328 12.1485 16.9853 12.1012C17.1378 12.054 17.0361 11.9241 17.0644 11.9241C17.0983 11.9241 17.2112 12.0127 17.279 11.9418C17.3467 11.8769 17.3919 11.6703 17.3637 11.688C17.3298 11.7057 16.4601 12.0304 16.4431 11.9595H16.4375Z" fill="#FECF3E" stroke="#512007" stroke-width="0.076991"/>
<path fill-rule="evenodd" clip-rule="evenodd" d="M16.2959 12.3905C16.358 12.4083 17.64 12.0304 17.64 12.0304C17.64 12.0304 17.64 12.1485 17.6231 12.1485L16.2959 12.5086V12.3905Z" fill="#DD8B59" stroke="#512007" stroke-width="0.076991"/>
<path fill-rule="evenodd" clip-rule="evenodd" d="M19.261 11.8592C19.261 11.8592 19.3457 12.0658 19.4304 12.0304C19.5151 11.995 19.5942 11.9241 19.5942 11.9241C19.5942 11.9241 19.6619 12.1012 19.7749 12.0658C19.8878 12.0304 19.9556 11.8415 19.9556 11.8415C19.9556 11.8415 20.0686 11.8769 20.1194 11.8592C20.1702 11.8415 20.2323 11.564 20.2323 11.564L19.2666 11.8592H19.261ZM19.165 13.5241C19.148 13.5595 19.2497 13.6422 19.3344 13.6422C19.4191 13.6422 19.4473 13.5241 19.4643 13.5595C19.4812 13.589 19.4812 13.7484 19.6902 13.6953C19.8991 13.6422 19.9048 13.4887 19.9048 13.4887C19.9048 13.4887 19.8427 13.5418 19.9895 13.5595C20.1363 13.5772 20.2832 13.3352 20.2719 13.3352C20.2493 13.3352 19.1988 13.5418 19.165 13.5241Z" fill="#FECF3E" stroke="#512007" stroke-width="0.076991"/>
<path fill-rule="evenodd" clip-rule="evenodd" d="M16.3466 11.8887C16.3362 11.9419 16.3401 11.997 16.3579 12.0481L17.4309 11.6702C17.4309 11.6702 17.4761 11.5817 17.4309 11.5817C17.3857 11.5817 16.3296 11.9241 16.3409 11.8946L16.3466 11.8887ZM17.7584 11.6525C17.7867 11.6525 18.854 11.2924 18.854 11.2924C18.854 11.2924 18.871 11.4459 18.854 11.4459L17.8544 11.7529L17.7528 11.6525H17.7584Z" fill="#DD8B59" stroke="#512007" stroke-width="0.076991"/>
<path fill-rule="evenodd" clip-rule="evenodd" d="M19.1647 12.4082C19.1647 12.4082 19.0009 12.5972 19.0518 12.851C19.1026 13.1108 19.1647 13.3352 19.1817 13.3352C19.1986 13.3352 19.3793 12.9927 19.577 12.975C19.7747 12.9573 20.1361 13.164 20.1361 13.164C20.1361 13.164 20.0853 12.7507 20.1022 12.5617C20.1192 12.3728 20.3959 12.0481 20.3959 12.0481L19.1647 12.4023V12.4082Z" fill="#FECF3E" stroke="#512007" stroke-width="0.076991"/>
<path fill-rule="evenodd" clip-rule="evenodd" d="M17.674 12.0954C17.674 12.0954 17.6401 12.2548 17.6571 12.2548L19.052 11.8769V11.7648L17.674 12.0895V12.0954Z" fill="#DD8B59" stroke="#512007" stroke-width="0.076991"/>
<path fill-rule="evenodd" clip-rule="evenodd" d="M15.9011 14.1736C15.9011 14.1736 15.5735 14.1264 15.5905 14.209C15.6074 14.2976 15.7543 14.3802 15.7712 14.4334C15.7881 14.4865 15.7204 14.6695 15.822 14.6577C15.918 14.64 16.014 14.5692 16.014 14.516L15.9971 14.2208L15.9011 14.1736Z" fill="#B6B6B4" stroke="#512007" stroke-width="0.076991"/>
<path fill-rule="evenodd" clip-rule="evenodd" d="M17.7246 13.3175V13.4356L18.9049 13.2643L18.8711 13.1758L17.7246 13.3175Z" fill="#DD8B59" stroke="#512007" stroke-width="0.076991"/>
<path fill-rule="evenodd" clip-rule="evenodd" d="M16.3245 13.5242C16.3471 13.5242 16.3245 13.6777 16.46 13.6422C16.5899 13.6068 16.6238 13.5242 16.6238 13.5242C16.6238 13.5242 16.6577 13.7131 16.8384 13.6954C17.0191 13.6777 17.1208 13.471 17.1208 13.471C17.1208 13.471 17.1321 13.6245 17.245 13.5714C17.358 13.5183 17.3919 13.4002 17.3919 13.4002L16.3584 13.5537L16.3301 13.5242H16.3245ZM16.3245 12.5087C16.3245 12.5087 16.1776 12.5618 16.2285 12.8688C16.2793 13.1758 16.3979 13.353 16.4092 13.353C16.4261 13.353 16.556 13.0578 16.7537 13.0105C16.9513 12.9515 17.2958 13.164 17.2958 13.164C17.2958 13.164 17.262 12.8865 17.3128 12.6327C17.349 12.4673 17.4226 12.3135 17.5274 12.184C17.5274 12.184 16.3753 12.5087 16.3301 12.5087H16.3245Z" fill="#FECF3E" stroke="#512007" stroke-width="0.076991"/>
<path fill-rule="evenodd" clip-rule="evenodd" d="M19.0863 13.4001L19.1032 13.5063C19.1032 13.5063 20.2892 13.3528 20.2892 13.3292C20.2892 13.3174 20.2892 13.2111 20.2666 13.2111C20.2497 13.2111 19.1032 13.4178 19.0806 13.4001H19.0863ZM19.0693 12.3019L19.0863 12.42L20.4812 12.0303C20.4812 12.0303 20.5151 11.9241 20.4982 11.9241C20.4812 11.9241 19.1032 12.3551 19.0693 12.3019Z" fill="#DD8B59" stroke="#512007" stroke-width="0.076991"/>
<path d="M21.4011 13.7426L20.3846 12.0658M20.249 13.2289C20.266 13.1817 20.3168 12.1485 20.3168 12.1485M19.2155 11.7529C19.2155 11.7529 19.1986 11.8592 19.2155 11.8592C19.2325 11.8592 20.249 11.5994 20.249 11.5817C20.249 11.564 20.3507 11.4636 20.266 11.4813C20.1869 11.499 19.2494 11.8061 19.2155 11.7529Z" stroke="#512007" stroke-width="0.076991"/>
<path fill-rule="evenodd" clip-rule="evenodd" d="M17.7931 11.7057C17.8496 11.7175 17.9682 11.8946 18.036 11.8592C18.1037 11.8238 18.1997 11.7175 18.1997 11.7175C18.1997 11.7175 18.1828 11.9242 18.3127 11.8947C18.4482 11.8592 18.4652 11.7175 18.4652 11.7175C18.4652 11.7175 18.5612 11.7766 18.6459 11.7175C18.725 11.6703 18.804 11.4105 18.7758 11.4105C18.7476 11.4105 17.8214 11.7175 17.7875 11.7057H17.7931ZM17.7592 12.2017C17.7592 12.2371 17.5898 12.5087 17.6463 12.7684C17.7028 13.0282 17.7875 13.2644 17.8044 13.2644C17.8214 13.2644 18.0699 12.9928 18.2845 12.9397C18.4934 12.8865 18.8097 13.1109 18.7927 13.1109C18.7758 13.1109 18.708 12.8511 18.708 12.6622C18.708 12.4732 18.9565 11.8947 18.9565 11.8947L17.7592 12.2017ZM17.7592 13.4415C17.7592 13.4533 17.8044 13.5714 17.923 13.5714C18.036 13.5714 18.0529 13.4533 18.0529 13.4533C18.0529 13.4533 18.036 13.6599 18.2167 13.6422C18.3974 13.6245 18.4595 13.4356 18.4595 13.4356C18.4595 13.4356 18.4765 13.5419 18.629 13.4887C18.7758 13.4356 18.9678 13.2644 18.9565 13.2644C18.9396 13.2644 17.7705 13.4887 17.7536 13.4415H17.7592Z" fill="#FECF3E" stroke="#512007" stroke-width="0.076991"/>
<path fill-rule="evenodd" clip-rule="evenodd" d="M17.8922 12.5267C17.9155 12.5276 17.9374 12.5382 17.9532 12.5561C17.9689 12.574 17.9773 12.5977 17.9764 12.622C17.9755 12.6463 17.9654 12.6692 17.9483 12.6857C17.9313 12.7022 17.9086 12.711 17.8854 12.71C17.8622 12.709 17.8403 12.6984 17.8245 12.6805C17.8087 12.6627 17.8004 12.639 17.8013 12.6146C17.8022 12.5903 17.8123 12.5674 17.8293 12.5509C17.8464 12.5344 17.869 12.5257 17.8922 12.5267Z" fill="#BE0F17" stroke="#512007" stroke-width="0.0754957"/>
<path fill-rule="evenodd" clip-rule="evenodd" d="M18.486 12.3691C18.5092 12.37 18.5311 12.3806 18.5469 12.3985C18.5627 12.4164 18.571 12.4401 18.5701 12.4644C18.5692 12.4887 18.5591 12.5116 18.5421 12.5281C18.525 12.5446 18.5024 12.5534 18.4792 12.5524C18.4559 12.5514 18.434 12.5408 18.4182 12.5229C18.4025 12.5051 18.3941 12.4814 18.395 12.4571C18.3959 12.4327 18.406 12.4098 18.4231 12.3933C18.4401 12.3768 18.4628 12.3681 18.486 12.3691Z" fill="#BE0F17" stroke="#512007" stroke-width="0.0754957"/>
<path fill-rule="evenodd" clip-rule="evenodd" d="M18.1891 12.6932C18.2123 12.6941 18.2342 12.7047 18.25 12.7226C18.2658 12.7405 18.2742 12.7642 18.2732 12.7885C18.2723 12.8128 18.2622 12.8357 18.2452 12.8522C18.2281 12.8687 18.2055 12.8775 18.1823 12.8765C18.1591 12.8755 18.1371 12.8649 18.1214 12.847C18.1056 12.8292 18.0972 12.8055 18.0981 12.7811C18.0991 12.7568 18.1091 12.7339 18.1262 12.7174C18.1433 12.7009 18.1659 12.6922 18.1891 12.6932Z" fill="#BE0F17" stroke="#512007" stroke-width="0.0754957"/>
<path fill-rule="evenodd" clip-rule="evenodd" d="M18.1891 12.1982C18.2123 12.1991 18.2342 12.2097 18.25 12.2276C18.2658 12.2455 18.2742 12.2692 18.2732 12.2935C18.2723 12.3178 18.2622 12.3407 18.2452 12.3572C18.2281 12.3737 18.2055 12.3825 18.1823 12.3815C18.1591 12.3805 18.1371 12.3699 18.1214 12.352C18.1056 12.3342 18.0972 12.3105 18.0981 12.2862C18.0991 12.2618 18.1091 12.2389 18.1262 12.2224C18.1433 12.2059 18.1659 12.1972 18.1891 12.1982Z" fill="#BE0F17" stroke="#512007" stroke-width="0.0754957"/>
<path d="M18.3126 11.1153C18.3126 11.1035 18.8208 11.3396 18.8208 11.3574C18.8208 11.3751 20.628 13.8843 20.645 13.8843M19.7414 11.3574L20.2045 11.564L20.3513 11.9419M16.8837 11.3278C16.8668 11.3278 17.392 11.7411 17.392 11.7411L17.4598 12.0776M15.0991 13.8311C15.325 13.7308 16.9176 12.2725 16.9176 12.2725M14.6699 13.5536L16.4602 11.9773M17.6574 12.2134L19.3517 15.1536M19.1484 13.4297C19.1484 13.4297 19.3461 14.1204 19.5437 14.2267C19.6912 14.3094 19.8344 14.4001 19.9729 14.4983" stroke="#512007" stroke-width="0.076991"/>
<path d="M19.125 13.4474C19.125 13.4474 19.2662 14.2621 19.4639 14.4156C19.6615 14.5691 19.8592 14.7404 19.8592 14.7404" stroke="#512007" stroke-width="0.076991"/>
<path d="M17.7656 13.3864C17.7656 13.3864 17.9576 14.5199 18.353 14.7797C18.5951 14.9371 18.8361 15.0965 19.0758 15.2579" stroke="#512007" stroke-width="0.076991"/>
<path d="M17.7491 13.3687C17.7491 13.3687 18.1726 14.2661 18.5397 14.5376C18.8955 14.8151 19.3869 15.069 19.3869 15.069M16.3711 13.4454C16.484 13.652 16.4671 14.0476 16.597 14.1834C16.7164 14.3245 16.8259 14.4745 16.9245 14.6321M16.3993 13.4572C16.4671 13.5576 16.6478 14.0712 16.7608 14.2247C16.8455 14.3664 17.6813 15.2402 17.6813 15.2402" stroke="#512007" stroke-width="0.076991"/>
<path fill-rule="evenodd" clip-rule="evenodd" d="M17.4047 15.2816C17.4047 15.2986 17.4015 15.3155 17.3953 15.3313C17.389 15.347 17.3799 15.3613 17.3683 15.3734C17.3568 15.3855 17.3431 15.395 17.328 15.4016C17.313 15.4081 17.2968 15.4115 17.2805 15.4115C17.2642 15.4115 17.248 15.4081 17.2329 15.4016C17.2179 15.395 17.2042 15.3855 17.1926 15.3734C17.1811 15.3613 17.172 15.347 17.1657 15.3313C17.1595 15.3155 17.1562 15.2986 17.1563 15.2816C17.1563 15.2471 17.1693 15.2141 17.1926 15.1897C17.2159 15.1654 17.2475 15.1517 17.2805 15.1517C17.3134 15.1517 17.345 15.1654 17.3683 15.1897C17.3916 15.2141 17.4047 15.2471 17.4047 15.2816ZM18.009 15.5591C18.009 15.5888 17.9977 15.6173 17.9776 15.6384C17.9575 15.6594 17.9302 15.6712 17.9017 15.6712C17.8733 15.6712 17.846 15.6594 17.8258 15.6384C17.8057 15.6173 17.7944 15.5888 17.7944 15.5591C17.7944 15.5293 17.8057 15.5008 17.8258 15.4797C17.846 15.4587 17.8733 15.4469 17.9017 15.4469C17.9302 15.4469 17.9575 15.4587 17.9776 15.4797C17.9977 15.5008 18.009 15.5293 18.009 15.5591ZM18.7827 15.6299C18.7827 15.6596 18.7714 15.6882 18.7513 15.7092C18.7312 15.7303 18.7039 15.7421 18.6754 15.7421C18.647 15.7421 18.6197 15.7303 18.5996 15.7092C18.5794 15.6882 18.5681 15.6596 18.5681 15.6299C18.5681 15.6001 18.5794 15.5716 18.5996 15.5506C18.6197 15.5295 18.647 15.5177 18.6754 15.5177C18.7039 15.5177 18.7312 15.5295 18.7513 15.5506C18.7714 15.5716 18.7827 15.6001 18.7827 15.6299ZM19.4548 15.3642C19.4548 15.4233 19.4152 15.4646 19.3644 15.4646C19.3136 15.4646 19.2741 15.4174 19.2741 15.3642C19.2741 15.3111 19.3136 15.2579 19.3644 15.2579C19.4152 15.2579 19.4548 15.3052 19.4548 15.3642ZM19.9969 15.0277C19.9969 15.0808 19.9461 15.1222 19.8896 15.1222C19.8332 15.1222 19.7823 15.0808 19.7823 15.0277C19.7823 14.9746 19.8332 14.9332 19.8896 14.9332C19.9461 14.9332 19.9969 14.9746 19.9969 15.0277Z" fill="black" stroke="#512007" stroke-width="0.076991"/>
<path fill-rule="evenodd" clip-rule="evenodd" d="M16.8114 11.3436C16.7606 11.379 15.9417 11.5857 16.0546 11.5679C16.1676 11.5502 16.8283 11.7451 16.8114 11.686C16.7944 11.627 16.8114 11.379 16.8114 11.3436ZM18.2063 11.0897C18.1724 11.0897 17.698 11.2786 17.715 11.2786C17.7319 11.2786 18.2572 11.4322 18.2402 11.3967C18.2233 11.3613 18.2233 11.137 18.2063 11.0897ZM19.6351 11.2609C19.6013 11.2786 19.0422 11.4144 19.1438 11.4322C19.2455 11.4499 19.6182 11.5857 19.6182 11.5502C19.6182 11.5207 19.6182 11.2786 19.6351 11.255V11.2609Z" fill="#FF0000" stroke="#512007" stroke-width="0.076991"/>
<path d="M19.042 15.2757C19.0589 15.0041 19.539 13.4454 19.539 13.4454M19.2058 15.2225L19.5842 13.4513M19.3752 15.0867C19.3865 14.9864 19.6519 13.4572 19.6519 13.4572M19.0589 15.0513C19.1436 15.0041 19.3865 14.9332 19.3865 14.9332M19.1775 14.7797C19.2566 14.7797 19.4204 14.7089 19.4204 14.7089M19.2227 14.5731C19.3032 14.5413 19.3864 14.5176 19.4712 14.5023M19.2566 14.3133L19.522 14.2661M19.3752 14.089C19.3752 14.1067 19.5559 14.1067 19.5559 14.1067M19.4204 13.8882L19.6011 13.9178" stroke="#512007" stroke-width="0.076991"/>
<path d="M17.6475 15.281C17.6644 14.9989 18.1444 13.3796 18.1444 13.3796M17.8112 15.2994L18.1896 13.3919M17.9411 15.3056L18.2574 13.3919M17.6644 15.048C17.7491 14.9989 17.992 14.9253 17.992 14.9253M17.783 14.7658C17.8621 14.7658 18.0258 14.6922 18.0258 14.6922M17.8282 14.5511C17.9087 14.5181 17.9919 14.4934 18.0767 14.4775M17.8621 14.2813L18.1275 14.2322M17.9807 14.0482C17.9807 14.0666 18.1614 14.0666 18.1614 14.0666M18.0258 13.8397L18.2066 13.8703" stroke="#512007" stroke-width="0.0784731"/>
<path d="M17.457 15.0942C17.4401 14.821 16.9601 13.2528 16.9601 13.2528M17.2933 15.0407L16.9149 13.2587M17.1238 14.9041C17.1125 14.8031 16.8471 13.2647 16.8471 13.2647M17.4401 14.8685C17.3554 14.821 17.1125 14.7497 17.1125 14.7497M17.3215 14.5952C17.2424 14.5952 17.0786 14.524 17.0786 14.524M17.2763 14.3873C17.1958 14.3553 17.1126 14.3315 17.0278 14.3161M17.2424 14.126L16.977 14.0785M17.1238 13.9003C17.1238 13.9181 16.9431 13.9181 16.9431 13.9181M17.0786 13.6983L16.8979 13.728" stroke="#512007" stroke-width="0.0772254"/>
<path fill-rule="evenodd" clip-rule="evenodd" d="M19.905 14.5692L21.4637 14.6046L21.4806 14.4865L19.8711 14.4688L19.905 14.5692ZM19.9727 14.1382C20.1535 14.1382 21.5145 13.8666 21.5145 13.8666C21.5145 13.8666 21.5653 13.6895 21.5145 13.6895C21.4637 13.6895 19.9727 14.0201 19.9727 14.0201V14.1382Z" fill="#DD8B59" stroke="#512007" stroke-width="0.076991"/>
<path fill-rule="evenodd" clip-rule="evenodd" d="M18.1891 12.4456C18.2123 12.4466 18.2342 12.4572 18.25 12.4751C18.2658 12.4929 18.2742 12.5166 18.2732 12.5409C18.2723 12.5653 18.2622 12.5882 18.2452 12.6047C18.2281 12.6212 18.2055 12.6299 18.1823 12.6289C18.1591 12.6279 18.1371 12.6174 18.1214 12.5995C18.1056 12.5816 18.0972 12.5579 18.0981 12.5336C18.0991 12.5093 18.1091 12.4864 18.1262 12.4699C18.1433 12.4534 18.1659 12.4446 18.1891 12.4456Z" fill="#BE0F17" stroke="#512007" stroke-width="0.0754957"/>
<path d="M0 0H12V12H0V0Z" fill="#012169"/>
<path d="M12 0V1.5L7.54688 6L12 10.3828V12H10.4297L5.95312 7.59375L1.59375 12H0V10.4062L4.35938 6.02344L0 1.73438V0H1.45312L5.95312 4.40625L10.3125 0H12Z" fill="white"/>
<path d="M4.3125 7.59375L4.57031 8.39062L0.984375 12H0V11.9297L4.3125 7.59375ZM7.21875 7.3125L8.48438 7.5L12 10.9453V12L7.21875 7.3125ZM12 0L7.5 4.59375L7.40625 3.5625L10.9219 0H12ZM0 0.0234375L4.52344 4.45312L3.14062 4.26562L0 1.14844V0.0234375Z" fill="#C8102E"/>
<path d="M4.125 0V12H7.875V0H4.125ZM0 4.125V7.875H12V4.125H0Z" fill="white"/>
<path d="M0 4.875V7.125H12V4.875H0ZM4.875 0V12H7.125V0H4.875Z" fill="#C8102E"/>
</g>
<defs>
<linearGradient id="paint0_linear_208_20312" x1="4.72243" y1="27.1478" x2="5.90504" y2="26.4698" gradientUnits="userSpaceOnUse">
<stop stop-color="#A43907"/>
<stop offset="1" stop-color="white"/>
</linearGradient>
<linearGradient id="paint1_linear_208_20312" x1="15.5589" y1="16.4406" x2="14.0304" y2="15.6033" gradientUnits="userSpaceOnUse">
<stop stop-color="#A43907"/>
<stop offset="1" stop-color="white"/>
</linearGradient>
<linearGradient id="paint2_linear_208_20312" x1="16.5101" y1="17.0505" x2="13.1957" y2="16.6183" gradientUnits="userSpaceOnUse">
<stop stop-color="#A43907"/>
<stop offset="1" stop-color="white"/>
</linearGradient>
<linearGradient id="paint3_linear_208_20312" x1="22.6286" y1="15.6456" x2="21.0942" y2="15.7272" gradientUnits="userSpaceOnUse">
<stop stop-color="#A43907"/>
<stop offset="1" stop-color="white"/>
</linearGradient>
<linearGradient id="paint4_linear_208_20312" x1="23.2514" y1="16.4954" x2="19.9924" y2="16.6904" gradientUnits="userSpaceOnUse">
<stop stop-color="#A43907"/>
<stop offset="1" stop-color="white"/>
</linearGradient>
<linearGradient id="paint5_linear_208_20312" x1="22.8888" y1="17.3528" x2="13.7139" y2="17.3528" gradientUnits="userSpaceOnUse">
<stop stop-color="#A43907"/>
<stop offset="1" stop-color="white"/>
</linearGradient>
<linearGradient id="paint6_linear_208_20312" x1="13.9703" y1="18.0194" x2="27.3894" y2="18.0675" gradientUnits="userSpaceOnUse">
<stop stop-color="#A43907"/>
<stop offset="1" stop-color="white"/>
</linearGradient>
<linearGradient id="paint7_linear_208_20312" x1="23.2109" y1="17.2938" x2="22.1258" y2="17.3253" gradientUnits="userSpaceOnUse">
<stop stop-color="#A43907"/>
<stop offset="1" stop-color="white"/>
</linearGradient>
<linearGradient id="paint8_linear_208_20312" x1="13.6754" y1="18.3638" x2="14.7267" y2="18.4334" gradientUnits="userSpaceOnUse">
<stop stop-color="#A43907"/>
<stop offset="1" stop-color="white"/>
</linearGradient>
<linearGradient id="paint9_linear_208_20312" x1="14.7018" y1="18.2137" x2="12.7923" y2="17.7427" gradientUnits="userSpaceOnUse">
<stop stop-color="#A43907"/>
<stop offset="1" stop-color="white"/>
</linearGradient>
<clipPath id="clip0_208_20312">
<rect width="24" height="24" rx="12" fill="white"/>
</clipPath>
</defs>
</svg>
