<svg width="24" height="24" viewBox="0 0 24 24" fill="none" xmlns="http://www.w3.org/2000/svg">
<g clip-path="url(#clip0_208_19094)">
<path d="M0 15.9984H24V24H0V15.9984Z" fill="black"/>
<path d="M0 8.00159H24V15.9985H0V8.00159Z" fill="white"/>
<path d="M0 0H24V8.00156H0V0Z" fill="#CE1126"/>
<path d="M12.0315 12.0958L14.7715 14.6398L14.5755 10.0199C14.5475 9.31986 13.9395 9.47986 13.4955 9.73185C13.0515 10.0199 12.5355 10.0199 11.9995 9.83185C11.4595 10.0199 10.9475 10.0199 10.5035 9.73185C10.0635 9.47986 9.45154 9.31986 9.42354 10.0199L9.22754 14.6398L12.0315 12.0958Z" fill="white" stroke="#C09300" stroke-width="0.138666" stroke-linejoin="round"/>
<path d="M9.73954 9.85986L9.54754 14.3518L9.22754 14.6398L9.42354 10.0199C9.51804 9.94739 9.62519 9.89313 9.73954 9.85986ZM10.1235 10.1799L9.96354 13.9398L9.64354 14.2678L9.83554 9.92786C9.89954 9.99186 10.0875 10.1479 10.1235 10.1799ZM10.4715 10.4679L10.3475 13.6038L10.0875 13.8558L10.2475 10.2799C10.3115 10.3399 10.4395 10.4319 10.4715 10.4679ZM10.8515 10.6279L10.7275 13.2998L10.4755 13.5038L10.5995 10.5319C10.6635 10.5599 10.7875 10.6279 10.8515 10.6279ZM11.2035 10.6279L11.1115 12.8559L10.8515 13.1079L10.9515 10.6559C11.0115 10.6559 11.1755 10.6559 11.2035 10.6279Z" fill="#C09300"/>
<path d="M14.2595 9.85986L14.4515 14.3518L14.7715 14.6398L14.5755 10.0199C14.481 9.94739 14.3738 9.89313 14.2595 9.85986ZM13.8755 10.1799L14.0355 13.9398L14.3555 14.2678L14.1635 9.92786C14.0995 9.99186 13.9115 10.1479 13.8755 10.1799ZM13.5275 10.4679L13.6515 13.6038L13.9115 13.8558L13.7515 10.2799C13.6875 10.3399 13.5595 10.4319 13.5275 10.4679ZM13.1475 10.6279L13.2715 13.2998L13.5235 13.5038L13.3995 10.5319C13.3355 10.5599 13.2115 10.6279 13.1475 10.6279ZM12.7955 10.6279L12.8875 12.8559L13.1475 13.1079L13.0475 10.6559C12.9875 10.6559 12.8235 10.6559 12.7955 10.6279Z" fill="#C09300"/>
<path d="M12.1273 12.5999L12.5113 14.3518L12.3833 14.4798L12.2513 14.3798L12.0353 12.8199L12.1273 14.3798L11.9993 14.5398L11.8753 14.3798L11.9673 12.8199L11.7473 14.3798L11.6153 14.4798L11.4873 14.3518L11.8713 12.6039H12.1273V12.5999Z" fill="#C09300" stroke="#C09300" stroke-width="0.117333"/>
<path d="M11.14 11.8319L10.376 14.5399L11.428 14.6999L11.872 12.6639L11.14 11.8319Z" fill="white" stroke="#C09300" stroke-width="0.127999" stroke-linejoin="round"/>
<path d="M10.8877 12.7599L10.9797 12.9799L11.4757 12.5079" stroke="#C09300" stroke-width="0.138666" stroke-linejoin="round"/>
<path d="M11.2323 12.2L11.3363 13.1719L11.6523 12.7559M11.5243 12.9159L11.6963 13.5159M11.7643 13.2959L11.4163 13.8239M11.5243 14.3519L11.4123 13.8239M11.4123 13.8239L11.3163 13.2879L11.0803 13.6039L10.9803 13.2399L10.6523 13.5759L10.8163 14.1839L11.0483 13.8079L11.1723 14.1919L11.4123 13.8239Z" stroke="#C09300" stroke-width="0.138666" stroke-linejoin="round"/>
<path d="M10.5996 14.4799L10.8116 14.1799L10.9476 14.6399L11.1396 14.3199L11.2636 14.7039" stroke="#C09300" stroke-width="0.138666" stroke-linejoin="round"/>
<path d="M12.859 11.8319L13.623 14.5399L12.5711 14.6999L12.1271 12.6639L12.859 11.8319Z" fill="white" stroke="#C09300" stroke-width="0.127999" stroke-linejoin="round"/>
<path d="M13.1113 12.7599L13.0193 12.9799L12.5233 12.5079" stroke="#C09300" stroke-width="0.138666" stroke-linejoin="round"/>
<path d="M12.7667 12.2L12.6627 13.1719L12.3467 12.7559M12.4747 12.9159L12.3027 13.5159M12.2347 13.2959L12.5827 13.8239M12.4747 14.3519L12.5867 13.8239M12.5867 13.8239L12.6827 13.2879L12.9187 13.6039L13.0187 13.2399L13.3467 13.5759L13.1827 14.1839L12.9507 13.8079L12.8267 14.1919L12.5867 13.8239Z" stroke="#C09300" stroke-width="0.138666" stroke-linejoin="round"/>
<path d="M13.3994 14.4799L13.1874 14.1799L13.0514 14.6399L12.8594 14.3199L12.7354 14.7039" stroke="#C09300" stroke-width="0.138666" stroke-linejoin="round"/>
<path d="M11.9991 15.7518C12.7991 15.7518 13.5591 15.6878 14.0071 15.5638C14.1951 15.5278 14.1951 15.4318 14.1951 15.3038C14.3871 15.2398 14.2911 15.0158 14.4231 15.0158C14.2871 15.0558 14.2631 14.7958 14.1031 14.8278C14.1031 14.6038 13.8751 14.5758 13.6871 14.6398C13.3071 14.7638 12.6351 14.7958 11.9991 14.7958C11.3591 14.7638 10.6951 14.7638 10.3111 14.6358C10.1231 14.5758 9.8991 14.6038 9.8991 14.8278C9.7391 14.7958 9.7111 15.0518 9.5791 15.0158C9.7111 15.0158 9.6111 15.2438 9.8031 15.3038C9.8031 15.4318 9.8031 15.5278 9.9951 15.5638C10.4351 15.6878 11.2031 15.7518 11.9991 15.7518Z" fill="white" stroke="#C09300" stroke-width="0.255999" stroke-linecap="round" stroke-linejoin="round"/>
<path d="M10.9151 14.5398C11.1711 14.5758 11.4591 14.6038 11.6831 14.5758C11.8111 14.5758 11.9031 14.7958 11.6471 14.8278C11.4271 14.8558 11.0751 14.8278 10.8871 14.7958C10.6397 14.7525 10.3942 14.6991 10.1511 14.6358C9.9271 14.5398 10.0871 14.3558 10.2151 14.3798C10.4435 14.453 10.6776 14.5065 10.9151 14.5398ZM13.0831 14.5398C12.8271 14.5758 12.5391 14.6038 12.3231 14.5758C12.1871 14.5758 12.0951 14.7958 12.3511 14.8278C12.5751 14.8558 12.9231 14.8278 13.1111 14.7958C13.2711 14.7638 13.6231 14.7038 13.8471 14.6358C14.0711 14.5398 13.9111 14.3558 13.7831 14.3798C13.5547 14.453 13.3206 14.5065 13.0831 14.5398Z" fill="white" stroke="#C09300" stroke-width="0.138666" stroke-linecap="round" stroke-linejoin="round"/>
<path d="M10.1195 14.4159C9.92749 14.3799 9.83949 14.6039 9.89949 14.7319C9.92749 14.6679 10.0595 14.6679 10.0875 14.6039C10.1235 14.5079 10.0595 14.5079 10.1235 14.4159H10.1195ZM10.8875 15.0039C10.8875 14.8759 11.0115 14.8919 11.0115 14.7639C11.0115 14.7039 10.9795 14.6039 10.9155 14.6039C10.8822 14.6058 10.8507 14.6199 10.8271 14.6435C10.8035 14.6671 10.7894 14.6985 10.7875 14.7319C10.7595 14.8559 10.8875 14.8759 10.8875 15.0039ZM11.7955 14.6399C11.9835 14.6399 11.9635 14.8919 11.8755 15.0199C11.8755 14.9279 11.7155 14.8919 11.7155 14.8279C11.7155 14.7319 11.8595 14.7319 11.7955 14.6399ZM13.8755 14.4159C14.0715 14.3799 14.1635 14.6039 14.0995 14.7319C14.0715 14.6679 13.9395 14.6679 13.9115 14.6039C13.8755 14.5079 13.9395 14.5079 13.8755 14.4159ZM13.1195 14.9999C13.1195 14.8719 12.9915 14.8879 12.9915 14.7599C12.9915 14.6999 13.0235 14.5999 13.0875 14.5999C13.1208 14.6018 13.1523 14.6159 13.1759 14.6395C13.1995 14.6631 13.2136 14.6945 13.2155 14.7279C13.2435 14.8519 13.1155 14.8719 13.1155 14.9999H13.1195ZM12.1995 14.6399C12.0115 14.6399 12.0315 14.8919 12.1195 15.0199C12.1195 14.9279 12.2795 14.8919 12.2795 14.8279C12.2795 14.7319 12.1355 14.7319 12.1995 14.6399Z" fill="white" stroke="#C09300" stroke-width="0.138666" stroke-linecap="round" stroke-linejoin="round"/>
<path d="M10.1875 14.4799C10.2515 14.4799 10.3475 14.5079 10.3755 14.5439L10.1875 14.4799ZM10.5035 14.5759C10.5355 14.5759 10.6635 14.6039 10.7235 14.6399L10.5035 14.5759ZM11.6475 14.7039C11.5875 14.7039 11.4595 14.7039 11.4275 14.7319L11.6475 14.6999V14.7039ZM11.2995 14.7039C11.2635 14.6679 11.1395 14.6679 11.0755 14.7039H11.2995ZM13.8115 14.4799C13.7436 14.4807 13.6778 14.5031 13.6235 14.5439L13.8115 14.4799ZM13.4995 14.5759C13.4595 14.5759 13.3395 14.6039 13.2755 14.6399L13.4995 14.5759ZM12.3515 14.7039C12.4115 14.7039 12.5395 14.7039 12.5755 14.7319L12.3515 14.6999V14.7039ZM12.6995 14.7039C12.7355 14.6679 12.8595 14.6679 12.9235 14.7039H12.6995Z" fill="white" stroke="#C09300" stroke-width="0.0959996" stroke-linecap="round" stroke-linejoin="round"/>
<path d="M10.131 14.9839C10.111 14.9799 10.099 14.9599 10.107 14.9439C10.111 14.9159 10.131 14.9039 10.147 14.9119C10.163 14.9119 10.183 14.9359 10.183 14.9439L10.167 14.9719L10.159 14.9759C10.159 14.9839 10.143 14.9839 10.131 14.9839ZM12.331 15.1399C12.323 15.1399 12.307 15.1199 12.307 15.1119C12.307 15.0959 12.331 15.0719 12.347 15.0719L12.379 15.0879C12.391 15.0999 12.391 15.1239 12.375 15.1359C12.367 15.1439 12.343 15.1439 12.331 15.1359V15.1399ZM12.343 15.2399C12.327 15.2319 12.323 15.2239 12.319 15.2079C12.319 15.1879 12.319 15.1839 12.339 15.1719L12.355 15.1639L12.371 15.1719C12.387 15.1799 12.399 15.1879 12.399 15.2039C12.399 15.2159 12.387 15.2279 12.371 15.2359C12.359 15.2439 12.355 15.2439 12.343 15.2359V15.2399Z" fill="#C09300"/>
<path d="M10.3109 14.7998C10.2949 14.7998 10.2749 14.8158 10.2629 14.8238C10.2389 14.8278 10.2069 14.8438 10.1829 14.8238C10.1589 14.8198 10.1269 14.8238 10.1229 14.8558C10.1269 14.8838 10.1629 14.8958 10.1869 14.8798C10.2029 14.8598 10.2469 14.8438 10.2549 14.8798C10.2349 14.9118 10.2389 14.9478 10.2229 14.9758C10.2229 14.9958 10.2109 15.0118 10.2029 15.0278C10.1829 15.0278 10.1629 15.0278 10.1469 15.0398C10.1345 15.0398 10.1222 15.0427 10.1111 15.0482C10.1 15.0538 10.0903 15.0619 10.0829 15.0718C10.0669 15.0958 10.0509 15.1198 10.0469 15.1518C10.0509 15.1758 10.0869 15.1838 10.1109 15.1878L10.1909 15.2118L10.3189 15.2478C10.3829 15.2678 10.4469 15.2758 10.5109 15.2918L10.5309 15.2958C10.5589 15.3038 10.5709 15.2758 10.5709 15.2558L10.6109 15.1118C10.6189 15.0918 10.6309 15.0518 10.5949 15.0598C10.5749 15.0718 10.5549 15.0918 10.5309 15.0918C10.4949 15.0918 10.5149 15.1318 10.5309 15.1438C10.5309 15.1678 10.5229 15.1958 10.5109 15.2158C10.4869 15.2278 10.4629 15.2158 10.4389 15.2078C10.4189 15.2078 10.3709 15.1958 10.3909 15.1678L10.4109 15.0958C10.4229 15.0718 10.4229 15.0438 10.4309 15.0158C10.4149 14.9878 10.3909 15.0278 10.3709 15.0318C10.3549 15.0398 10.3069 15.0438 10.3309 15.0718C10.3549 15.0878 10.3389 15.1158 10.3309 15.1398C10.3309 15.1678 10.2989 15.1798 10.2749 15.1678C10.2509 15.1678 10.2149 15.1478 10.2349 15.1238L10.2549 15.0518L10.2829 14.9718C10.2829 14.9438 10.2949 14.9238 10.3069 14.8998C10.3069 14.8718 10.3269 14.8478 10.3269 14.8198C10.3269 14.8078 10.3189 14.8038 10.3109 14.8038V14.7998ZM10.1629 15.0918C10.1647 15.0907 10.1668 15.0902 10.1689 15.0902C10.171 15.0902 10.173 15.0907 10.1749 15.0918C10.1829 15.0998 10.1829 15.1078 10.1749 15.1158L10.1629 15.1238C10.1429 15.1238 10.1389 15.1198 10.1389 15.1118C10.1389 15.1078 10.1389 15.1038 10.1509 15.0998C10.1557 15.0963 10.1611 15.0936 10.1669 15.0918H10.1629ZM10.1229 15.2918C10.1029 15.2758 10.1069 15.2638 10.1349 15.2398C10.1509 15.2318 10.1549 15.2318 10.1709 15.2438C10.1949 15.2638 10.1949 15.2758 10.1709 15.2958C10.1629 15.3038 10.1589 15.3038 10.1509 15.3038C10.1389 15.3038 10.1349 15.3038 10.1229 15.2958V15.2918ZM10.2429 15.3318C10.2339 15.329 10.2264 15.3229 10.222 15.3147C10.2175 15.3065 10.2164 15.2968 10.2189 15.2878C10.2269 15.2718 10.2309 15.2678 10.2549 15.2678C10.2829 15.2678 10.2869 15.2718 10.2909 15.2958C10.2909 15.3118 10.2909 15.3158 10.2789 15.3238C10.2744 15.3273 10.2693 15.3299 10.2637 15.3313C10.2582 15.3326 10.2525 15.3328 10.2469 15.3318H10.2429ZM13.8109 15.3318C13.8029 15.3278 13.7989 15.3238 13.7989 15.3118C13.7989 15.2958 13.8069 15.2838 13.8309 15.2758C13.8549 15.2638 13.8709 15.2638 13.8789 15.2838C13.8909 15.3078 13.8909 15.3158 13.8749 15.3318C13.8669 15.3438 13.8629 15.3438 13.8429 15.3438C13.8229 15.3438 13.8189 15.3438 13.8109 15.3358V15.3318ZM10.4109 15.3798C10.3949 15.3798 10.3869 15.3638 10.3869 15.3478C10.3869 15.3358 10.3869 15.3318 10.3949 15.3238L10.4189 15.3158L10.4429 15.3198C10.4629 15.3358 10.4669 15.3518 10.4549 15.3678C10.4429 15.3838 10.4309 15.3838 10.4069 15.3798H10.4109ZM11.2829 15.4198L11.2749 15.4078C11.2749 15.3838 11.2749 15.3638 11.2829 15.3398C11.2869 15.3198 11.2829 15.2998 11.2909 15.2798L11.3069 15.1678C11.3069 15.1478 11.3069 15.1278 11.3149 15.1118C11.3189 15.0798 11.3149 15.0518 11.3229 15.0238C11.3229 15.0118 11.3349 14.9838 11.3469 14.9998C11.3629 15.0238 11.3829 15.0398 11.4029 15.0598C11.4189 15.0718 11.4029 15.0878 11.3909 15.0918C11.3749 15.0958 11.3709 15.1158 11.3709 15.1318L11.3629 15.1798C11.3629 15.2078 11.3629 15.2318 11.3549 15.2598L11.3509 15.3318L11.3429 15.3798C11.3429 15.3958 11.3429 15.4158 11.3269 15.4238C11.3149 15.4318 11.2949 15.4318 11.2869 15.4198H11.2829ZM12.4709 15.0278L12.4189 15.0758C12.3949 15.0958 12.4389 15.1038 12.4429 15.1198C12.4509 15.1438 12.4509 15.1678 12.4509 15.1918C12.4589 15.2158 12.4629 15.2358 12.4589 15.2598C12.4589 15.2878 12.4269 15.2798 12.4109 15.2958C12.3909 15.3038 12.3829 15.3238 12.3709 15.3358C12.3614 15.3559 12.3559 15.3776 12.3549 15.3998C12.3549 15.4198 12.3429 15.4398 12.3549 15.4558L12.3589 15.4638H12.3789L12.4389 15.4598C12.4869 15.4518 12.5389 15.4518 12.5869 15.4478L12.6749 15.4398C12.6989 15.4438 12.7109 15.4198 12.7109 15.3998C12.6949 15.3718 12.7069 15.3438 12.6949 15.3198C12.6869 15.2878 12.6909 15.2598 12.6869 15.2318C12.6869 15.2078 12.6589 15.1998 12.6469 15.2158C12.6309 15.2318 12.6069 15.2358 12.5989 15.2518C12.5869 15.2758 12.6229 15.2758 12.6309 15.2918L12.6349 15.3518C12.6389 15.3758 12.6149 15.3758 12.5949 15.3798C12.5749 15.3878 12.5469 15.3918 12.5349 15.3678C12.5269 15.3478 12.5269 15.3278 12.5269 15.3078C12.5269 15.2678 12.5149 15.2358 12.5149 15.1998C12.5149 15.1598 12.5029 15.1158 12.5029 15.0718C12.5029 15.0518 12.4989 15.0238 12.4709 15.0278ZM12.4469 15.3558H12.4589V15.3878L12.4469 15.3918C12.4416 15.3935 12.4363 15.3948 12.4309 15.3958C12.4282 15.3959 12.4255 15.3959 12.4229 15.3958C12.4149 15.3878 12.4149 15.3758 12.4269 15.3638L12.4469 15.3558ZM11.2469 14.9878C11.2349 14.9878 11.2149 15.0158 11.1989 15.0118C11.1629 15.0158 11.1669 15.0518 11.1949 15.0638V15.0958C11.1989 15.1278 11.1789 15.1558 11.1829 15.1878C11.1829 15.2198 11.1709 15.2558 11.1709 15.2918C11.1589 15.3278 11.1589 15.3638 11.1549 15.3998C11.1509 15.4318 11.1269 15.4198 11.1069 15.4118V15.3718C11.1109 15.3358 11.0869 15.3278 11.0589 15.3238C11.0309 15.3238 11.0189 15.3038 11.0269 15.2798C11.0389 15.2638 11.0669 15.2678 11.0869 15.2678C11.1269 15.2758 11.1229 15.2238 11.1029 15.2038C11.0869 15.1798 11.0549 15.1638 11.0469 15.1398C11.0469 15.1078 11.0269 15.0718 10.9989 15.0558C10.9549 15.0518 10.9189 15.0878 10.9069 15.1278C10.8869 15.1278 10.8669 15.1358 10.8509 15.1438C10.8229 15.1518 10.7829 15.1998 10.8229 15.2198C10.8429 15.2238 10.9109 15.2398 10.8789 15.2678C10.8629 15.2998 10.8309 15.2998 10.8029 15.2918C10.7749 15.2918 10.7429 15.2758 10.7429 15.2438C10.7389 15.2118 10.7389 15.1798 10.7269 15.1518C10.7189 15.1198 10.6829 15.1278 10.6789 15.1598C10.6509 15.1798 10.6549 15.2158 10.6749 15.2398C10.6869 15.2678 10.6749 15.3038 10.6629 15.3278C10.6549 15.3678 10.6149 15.3678 10.5869 15.3758C10.5749 15.3838 10.5229 15.3758 10.5429 15.4038C10.5729 15.4176 10.6064 15.4218 10.6389 15.4158C10.6709 15.4158 10.6989 15.3878 10.7189 15.3598C10.7389 15.3398 10.7749 15.3518 10.8069 15.3518C10.8349 15.3518 10.8669 15.3718 10.8989 15.3558C10.9069 15.3358 10.9469 15.2958 10.9589 15.3358C10.9589 15.3718 10.9869 15.3878 11.0189 15.3838C11.0549 15.3838 11.0389 15.4078 11.0389 15.4318C11.0389 15.4678 11.0669 15.4878 11.0989 15.5038H11.1309C11.1589 15.4918 11.1909 15.4798 11.2029 15.4478C11.2149 15.4198 11.2149 15.3878 11.2229 15.3598C11.2309 15.3158 11.2389 15.2678 11.2389 15.2238C11.2509 15.1838 11.2469 15.1398 11.2549 15.0958L11.2669 15.0038C11.2669 14.9838 11.2589 14.9838 11.2469 14.9878ZM10.9789 15.1518C10.9829 15.1518 10.9869 15.1598 10.9869 15.1718C10.9869 15.1878 10.9949 15.1998 11.0069 15.2038V15.2158L10.9749 15.2238C10.9549 15.2238 10.9389 15.2158 10.9269 15.2038L10.9189 15.1958L10.9309 15.1878L10.9509 15.1678C10.9629 15.1558 10.9709 15.1518 10.9789 15.1518ZM13.6189 14.8358C13.5958 14.8375 13.5731 14.8415 13.5509 14.8478C13.5109 14.8478 13.4909 14.8878 13.5309 14.9118C13.5549 14.9718 13.5909 14.8958 13.6309 14.9038C13.6869 14.9118 13.6909 14.9758 13.7029 15.0238C13.7029 15.0678 13.7189 15.1118 13.7309 15.1558C13.7709 15.1998 13.7029 15.2278 13.6749 15.1958C13.6509 15.1678 13.5949 15.1358 13.5669 15.1718C13.5309 15.1878 13.5269 15.2358 13.4989 15.2518C13.4509 15.2638 13.4469 15.2038 13.4189 15.1798C13.3949 15.1438 13.3509 15.1398 13.3149 15.1318C13.2989 15.0958 13.3069 15.0358 13.2749 15.0118C13.2429 15.0238 13.1869 15.0798 13.2349 15.1078C13.2749 15.1478 13.2149 15.1638 13.1949 15.1878C13.1629 15.2238 13.1549 15.2678 13.1549 15.3078C13.1029 15.3358 13.0949 15.2758 13.0869 15.2398C13.0869 15.1958 13.0469 15.2078 13.0189 15.2238C12.9789 15.2398 12.9629 15.2758 12.9389 15.3038V15.3838C12.9469 15.4198 12.9869 15.4038 13.0109 15.3998C13.0509 15.3838 13.0669 15.4278 13.0349 15.4518C13.0109 15.4758 12.9469 15.4638 12.9549 15.5078H13.0189C13.0589 15.4958 13.1069 15.4638 13.1109 15.4158C13.1189 15.3758 13.1789 15.3798 13.2109 15.3718C13.2509 15.3598 13.3029 15.3558 13.3149 15.4118C13.3429 15.4398 13.4029 15.4718 13.4349 15.4318C13.4501 15.4221 13.4623 15.4084 13.4701 15.3921C13.4779 15.3759 13.4809 15.3577 13.4789 15.3398C13.4749 15.3078 13.5309 15.3078 13.5469 15.3278C13.5669 15.3598 13.6309 15.3518 13.6629 15.3278C13.6949 15.3078 13.7029 15.2638 13.7509 15.2638L13.9669 15.2038C14.0229 15.1918 13.9589 15.1558 13.9429 15.1318C13.9029 15.1118 13.8629 15.1998 13.8149 15.1558C13.7749 15.1278 13.7789 15.0758 13.7669 15.0318C13.7549 14.9758 13.7589 14.9118 13.7189 14.8718C13.6949 14.8438 13.6549 14.8358 13.6189 14.8358ZM13.3469 15.2158C13.3509 15.2158 13.3589 15.2158 13.3669 15.2238C13.3829 15.2318 13.3949 15.2478 13.3949 15.2638C13.3949 15.2718 13.3949 15.2718 13.3829 15.2758L13.3629 15.2838C13.3549 15.2838 13.3349 15.2718 13.3349 15.2638V15.2478C13.3269 15.2318 13.3269 15.2318 13.3349 15.2238L13.3469 15.2158ZM13.6069 15.2318C13.6229 15.2318 13.6309 15.2318 13.6389 15.2438C13.6429 15.2598 13.6389 15.2678 13.6229 15.2758L13.6029 15.2838L13.5869 15.2718C13.5789 15.2678 13.5749 15.2638 13.5749 15.2558C13.5749 15.2438 13.5909 15.2318 13.6069 15.2278V15.2318ZM13.2469 15.2318C13.2549 15.2318 13.2589 15.2318 13.2629 15.2398C13.2709 15.2478 13.2749 15.2518 13.2749 15.2638V15.2878C13.2749 15.2998 13.2749 15.2958 13.2509 15.2958C13.2269 15.2958 13.2229 15.2958 13.2229 15.2718C13.2229 15.2558 13.2229 15.2518 13.2349 15.2438C13.2389 15.2358 13.2469 15.2358 13.2509 15.2358L13.2469 15.2318ZM13.0309 15.2918C13.0346 15.2929 13.0381 15.295 13.0409 15.2978C13.0437 15.3006 13.0457 15.304 13.0469 15.3078C13.0469 15.3198 13.0469 15.3278 13.0389 15.3318C13.0269 15.3358 13.0069 15.3398 12.9989 15.3318C12.9988 15.3305 12.9988 15.3291 12.9989 15.3278C12.9909 15.3238 12.9909 15.3198 12.9989 15.3158V15.3118L13.0069 15.2998C13.0093 15.2959 13.0131 15.293 13.0174 15.2915C13.0218 15.2901 13.0266 15.2902 13.0309 15.2918ZM13.3989 15.3398L13.4189 15.3438V15.3678H13.3709L13.3669 15.3598C13.3669 15.3518 13.3669 15.3478 13.3749 15.3438L13.3989 15.3398ZM12.7149 15.5318C12.7109 15.5318 12.7029 15.5278 12.7109 15.5238C12.7149 15.5118 12.7309 15.5078 12.7429 15.4998C12.7647 15.4915 12.7839 15.4777 12.7989 15.4598C12.7989 15.4438 12.8149 15.4358 12.8149 15.4198L12.8109 15.3638C12.8055 15.347 12.7941 15.3328 12.7789 15.3238C12.7669 15.3198 12.7509 15.3158 12.7469 15.2998C12.7469 15.2878 12.7589 15.2758 12.7629 15.2638L12.7869 15.2158C12.7989 15.2038 12.8149 15.2158 12.8189 15.2238L12.8389 15.2638C12.8509 15.2758 12.8589 15.2878 12.8629 15.3038C12.8709 15.3198 12.8789 15.3318 12.8789 15.3438L12.8869 15.3958C12.8869 15.4158 12.8869 15.4398 12.8789 15.4598L12.8549 15.4918C12.8429 15.5038 12.8309 15.5158 12.8149 15.5198C12.8029 15.5238 12.7949 15.5358 12.7789 15.5358H12.7189L12.7149 15.5318ZM12.4389 15.5478C12.4309 15.5398 12.4269 15.5358 12.4269 15.5238C12.4269 15.5118 12.4269 15.5118 12.4389 15.4998C12.4549 15.4838 12.4629 15.4838 12.4949 15.4998C12.5229 15.5158 12.5349 15.5158 12.5349 15.5038C12.5389 15.4958 12.5549 15.4838 12.5749 15.4838C12.5823 15.4841 12.5893 15.4869 12.5949 15.4918C12.6029 15.4998 12.6069 15.5038 12.6069 15.5198C12.6069 15.5398 12.6069 15.5398 12.5949 15.5518C12.5829 15.5598 12.5829 15.5598 12.5669 15.5598C12.5598 15.5594 12.5529 15.5569 12.5472 15.5527C12.5415 15.5484 12.5372 15.5425 12.5349 15.5358C12.5349 15.5278 12.5349 15.5238 12.5269 15.5318L12.5189 15.5358C12.5109 15.5358 12.4949 15.5478 12.4869 15.5558L12.4669 15.5598C12.4509 15.5598 12.4509 15.5598 12.4389 15.5478ZM11.6469 15.1918C11.6189 15.1918 11.5909 15.2158 11.5869 15.2438C11.5949 15.2718 11.6189 15.3038 11.6029 15.3318C11.6149 15.3718 11.5709 15.3878 11.5429 15.3678C11.5269 15.3278 11.5189 15.2878 11.4909 15.2478C11.4589 15.2398 11.4469 15.2918 11.4229 15.3118C11.4349 15.3398 11.4669 15.3678 11.4709 15.4038C11.4789 15.4438 11.4549 15.4838 11.4269 15.4998C11.3989 15.5278 11.3589 15.5198 11.3269 15.5238C11.2869 15.5478 11.3549 15.5558 11.3749 15.5558C11.4149 15.5598 11.4589 15.5558 11.4949 15.5238C11.5229 15.5118 11.5189 15.4558 11.5549 15.4518L11.7469 15.4638C11.7789 15.4718 11.8309 15.4598 11.8549 15.4838C11.8549 15.5238 11.8949 15.5558 11.9309 15.5718C11.9509 15.5798 11.9709 15.5518 11.9909 15.5478C12.0309 15.5358 12.0189 15.4878 12.0429 15.4678H12.2429C12.2509 15.4678 12.2549 15.4478 12.2669 15.4398L12.2589 15.3638C12.2469 15.3318 12.2589 15.2918 12.2389 15.2638C12.2029 15.2558 12.1749 15.2838 12.1429 15.2878C12.1029 15.3038 12.0749 15.3398 12.0709 15.3798C12.0509 15.4158 12.0149 15.3718 12.0309 15.3398L12.0269 15.2998C12.0069 15.2798 11.9709 15.2878 11.9429 15.2838L11.8229 15.2758C11.7829 15.2758 11.7469 15.2798 11.7149 15.2718C11.6749 15.2718 11.6749 15.2318 11.6749 15.1998C11.6669 15.1937 11.6569 15.1909 11.6469 15.1918ZM11.7269 15.3398L11.7669 15.3438H11.8189C11.8589 15.3518 11.8989 15.3518 11.9389 15.3518C11.9469 15.3518 11.9549 15.3598 11.9629 15.3678V15.4478C11.9629 15.4598 11.9629 15.4758 11.9549 15.4798C11.9528 15.483 11.9501 15.4857 11.9469 15.4878C11.941 15.4868 11.9355 15.4844 11.9306 15.481C11.9258 15.4775 11.9218 15.473 11.9189 15.4678V15.4118C11.9109 15.4051 11.9012 15.4009 11.8909 15.3998L11.7869 15.3958L11.7069 15.3918C11.6949 15.3878 11.6789 15.3918 11.6709 15.3758C11.6629 15.3678 11.6749 15.3518 11.6869 15.3478C11.6994 15.3422 11.7131 15.3394 11.7269 15.3398ZM12.1789 15.3518C12.1829 15.3518 12.1869 15.3518 12.1869 15.3638L12.1949 15.3838C12.1949 15.3878 12.1949 15.3918 12.1869 15.3918C12.1669 15.3998 12.1469 15.3998 12.1389 15.3918C12.1389 15.3878 12.1389 15.3718 12.1469 15.3678L12.1789 15.3518Z" fill="#C09300"/>
<path d="M11.9993 13.0879C13.3033 12.0879 13.1913 10.6159 13.1913 10.6159L13.0913 10.6239C12.8153 10.6239 12.1633 10.4639 12.0113 10.2679C11.8513 10.4479 11.1793 10.6279 10.9073 10.6279L10.8073 10.6159C10.8073 10.6159 10.6913 12.0839 11.9993 13.0879Z" fill="white" stroke="#C09300" stroke-width="0.117333"/>
<path d="M13.0871 10.7199H13.0551C12.8071 10.7199 12.2311 10.5959 12.0071 10.4039C11.7751 10.5799 11.1871 10.7239 10.9431 10.7239C10.9324 10.7235 10.9217 10.7222 10.9111 10.7199C10.9133 10.9727 10.9483 11.2241 11.0151 11.4679C11.1756 12.0553 11.5205 12.5755 11.9991 12.9519C12.478 12.5741 12.8229 12.0525 12.9831 11.4639C13.0496 11.2214 13.0846 10.9714 13.0871 10.7199Z" fill="white" stroke="#C09300" stroke-width="0.0959996"/>
<path d="M11.5751 10.5999C11.3603 10.6699 11.1369 10.7103 10.9111 10.7199L10.9151 10.8839C10.9288 11.0802 10.9623 11.2745 11.0151 11.4639C11.1227 11.8573 11.3137 12.223 11.5751 12.5359V10.5999ZM12.3991 10.5999V12.5679C12.6732 12.2478 12.8727 11.8707 12.9831 11.4639C13.0359 11.2745 13.0694 11.0802 13.0831 10.8839L13.0871 10.7239H13.0551C12.9031 10.7239 12.6391 10.6759 12.3991 10.5959V10.5999Z" fill="#C09300"/>
<path d="M12.4911 10.1199C12.5191 10.1239 12.4551 9.9799 12.4551 9.9799C12.5271 10.0519 12.7911 10.0719 12.7911 10.0719C12.6311 9.9999 12.4711 9.4679 12.4911 9.0399C12.5071 8.61591 12.4311 8.44791 12.3711 8.38391C12.2911 8.30391 12.0311 8.23191 11.8631 8.22391C11.7631 8.21991 11.7831 8.29591 11.7831 8.29591C11.6031 8.25191 11.4231 8.23191 11.3431 8.28791C11.2711 8.33591 11.2551 8.58791 11.3111 8.54391C11.4431 8.43591 11.5591 8.53591 11.6391 8.65191C11.7111 8.75191 11.7071 9.0399 11.6031 9.3799C11.511 9.63694 11.3758 9.87637 11.2031 10.0879C11.3631 10.0879 11.5871 9.9479 11.5871 9.9479L11.5351 10.1679C11.7031 10.0879 11.8351 9.9639 11.8351 9.9639L11.9951 10.1319C12.0471 10.0599 12.1551 9.9639 12.1551 9.9639C12.1551 9.9639 12.2871 10.1039 12.4911 10.1239V10.1199Z" fill="white" stroke="#C09300" stroke-width="0.127999"/>
<path d="M11.8429 9.10386C11.8429 9.10386 11.7549 9.75986 11.5869 9.94386M11.9869 9.08386C11.9869 9.08386 11.9469 9.75186 11.8349 9.96386M12.1109 9.11186C12.1109 9.11186 12.1109 9.83986 12.1509 9.96386M12.2709 9.14786C12.2709 9.14786 12.3029 9.75986 12.4549 9.97986" stroke="#C09300" stroke-width="0.138666"/>
<path d="M11.6795 8.78396C11.6759 8.73758 11.6623 8.69253 11.6395 8.65196C11.5595 8.53196 11.4435 8.43596 11.3115 8.54396C11.3115 8.54396 11.3555 8.40396 11.4555 8.39996C11.5275 8.39596 11.6995 8.45596 11.8515 8.71196C11.8515 8.71196 11.7395 8.68796 11.7115 8.71196C11.6635 8.75196 11.6835 8.78396 11.6835 8.78396H11.6795Z" fill="#C09300" stroke="#C09300" stroke-width="0.0319999"/>
<path d="M11.2949 8.37191C11.3069 8.33191 11.3229 8.29991 11.3469 8.28791C11.4269 8.23191 11.6029 8.24791 11.7829 8.29591C11.7829 8.29591 11.7669 8.21991 11.8629 8.22391C12.0309 8.23191 12.2869 8.30391 12.3669 8.38391C12.3925 8.41203 12.4129 8.44456 12.4269 8.47991C12.3869 8.42391 12.2749 8.42791 12.2469 8.43191C12.2069 8.43591 12.1789 8.43191 12.1229 8.44791C12.0949 8.45591 12.0549 8.46391 12.0309 8.47991C12.0149 8.49591 11.9989 8.54391 11.9749 8.54391C11.9349 8.54391 11.9349 8.53591 11.9229 8.52391C11.9109 8.50391 11.9029 8.47991 11.8869 8.48391C11.8469 8.48791 11.7749 8.45591 11.6869 8.38391C11.5949 8.31191 11.5589 8.29591 11.4469 8.30391C11.3269 8.31191 11.2949 8.37991 11.2949 8.37991V8.37191Z" fill="#C09300" stroke="#C09300" stroke-width="0.0319999"/>
<path d="M11.9513 8.47588C11.9778 8.47588 11.9993 8.45439 11.9993 8.42788C11.9993 8.40137 11.9778 8.37988 11.9513 8.37988C11.9248 8.37988 11.9033 8.40137 11.9033 8.42788C11.9033 8.45439 11.9248 8.47588 11.9513 8.47588Z" fill="white"/>
</g>
<defs>
<clipPath id="clip0_208_19094">
<rect width="24" height="24" rx="12" fill="white"/>
</clipPath>
</defs>
</svg>
