<svg width="24" height="24" viewBox="0 0 24 24" fill="none" xmlns="http://www.w3.org/2000/svg">
<g clip-path="url(#clip0_208_22387)">
<path d="M0 0H24V24H0V0Z" fill="white"/>
<path d="M0 16.8H24V24H0V16.8Z" fill="#009543"/>
<path d="M0 0H24V7.2H0V0Z" fill="#00209F"/>
<path d="M12.075 7.64526C11.9344 7.64526 11.8031 7.79995 11.8031 7.79995L11.8172 9.41714L11.3016 9.9562H11.7234L11.7141 10.8796L9.26719 14.1796L8.90625 14.0531L8.27344 15.4031C8.27344 15.4031 9.83906 16.3828 12.1078 16.3546C14.6016 16.3218 15.9516 15.3562 15.9516 15.3562L15.3 14.025L14.9813 14.1656L12.4969 10.8843V9.92808H12.9094L12.3469 9.39839L12.3516 7.78589C12.3516 7.78589 12.2109 7.64526 12.075 7.64526Z" fill="black" stroke="black" stroke-width="0.2125"/>
<path d="M12.9285 11.5218H11.2363C11.2363 11.5218 10.6222 10.2281 10.7206 9.3187C10.8238 8.39995 11.3488 7.96402 12.0519 7.95933C12.8769 7.94527 13.3081 8.36245 13.4394 9.28589C13.5706 10.2 12.9285 11.5218 12.9285 11.5218Z" stroke="black" stroke-width="1.0625"/>
<path d="M9.11719 14.6062C9.08906 14.6437 8.88281 15.0468 8.88281 15.0468L9.23438 14.9718L9.11719 14.6062ZM9.31875 15.1312L8.94844 15.2531L9.39375 15.4265L9.31875 15.1312ZM9.4875 14.6156L9.67031 15.1593L10.1203 15.0281L10.0031 14.7703L9.4875 14.6156ZM9.76875 15.3515L9.83438 15.5718L10.4344 15.7218L10.2 15.2156L9.77344 15.3562L9.76875 15.3515ZM10.4344 14.8921L10.6453 15.3984L11.1 15.225L10.95 15L10.4344 14.8921ZM10.7297 15.5812L10.8047 15.7781L11.5078 15.8765L11.2078 15.4171L10.7297 15.5812ZM11.4047 15.0375L11.6625 15.4921L12.3187 15.2531L12.2438 15.075L11.4 15.0375H11.4047ZM11.7797 15.6562L11.9203 15.8953L12.7313 15.8671L12.4266 15.4171L11.7797 15.6562ZM12.6375 15.0562L12.8625 15.4312L13.3781 15.1875L13.2375 14.9859L12.6375 15.0562ZM13.4859 15.3421L12.9703 15.6L13.1109 15.825L13.8 15.7125L13.4859 15.3421ZM13.6547 14.9484L13.9219 15.2765L14.3531 14.939L14.2078 14.7796L13.6547 14.9484ZM14.4469 15.1218L14.0297 15.4359L14.1422 15.6281L14.7141 15.4828L14.4469 15.1218ZM15.0187 14.4656L15.1219 14.6156L14.8359 15.0375L14.5406 14.6625L15.0187 14.4656ZM15.2109 14.8359L15.3891 15.1875L15.0375 15.3046L15.0094 15.1406L15.2109 14.8359Z" fill="white"/>
</g>
<defs>
<clipPath id="clip0_208_22387">
<rect width="24" height="24" rx="12" fill="white"/>
</clipPath>
</defs>
</svg>
