<svg width="24" height="24" viewBox="0 0 24 24" fill="none" xmlns="http://www.w3.org/2000/svg">
<g clip-path="url(#clip0_208_27345)">
<mask id="mask0_208_27345" style="mask-type:luminance" maskUnits="userSpaceOnUse" x="0" y="0" width="24" height="24">
<path d="M0 0H23.9963V23.9963H0V0Z" fill="white"/>
</mask>
<g mask="url(#mask0_208_27345)">
<path fill-rule="evenodd" clip-rule="evenodd" d="M0 0L16.2846 10.2855H35.9993V13.7156H16.2846L0 23.9963V0Z" fill="black"/>
<path fill-rule="evenodd" clip-rule="evenodd" d="M0 23.1447L16.6281 12.5157H35.9993V11.4852H16.6281L0 0.856201V2.40435L15.5976 11.998L0 21.6014V23.1399V23.1447Z" fill="#FFFF00"/>
<path fill-rule="evenodd" clip-rule="evenodd" d="M0 23.9963L16.6281 13.3721H35.9993V23.9963H0Z" fill="#40AA40"/>
<path fill-rule="evenodd" clip-rule="evenodd" d="M0 0L16.6281 10.629H35.9993V0H0Z" fill="#CE0000"/>
<path fill-rule="evenodd" clip-rule="evenodd" d="M4.48956 12.4965C4.54762 12.511 4.56213 12.5255 4.62019 12.4432C4.6347 12.3997 4.66857 12.3465 4.69759 12.2884C4.74114 12.2207 4.76049 12.1917 4.79435 12.2449C4.82338 12.2739 4.92498 12.2207 4.96852 12.2497C5.03141 12.2981 4.99271 12.2884 5.04593 12.24C5.08463 12.153 5.04593 12.1626 4.99271 12.1239C4.95401 12.0997 4.84757 12.153 4.80887 12.1239C4.82338 12.0417 4.85241 12.0272 4.90079 12.0127C4.93949 12.0417 5.04593 11.9933 5.08463 11.9933C5.13301 12.003 5.17172 12.0078 5.18623 11.9401C5.21042 11.8917 5.20074 11.9256 5.18623 11.8917C5.13785 11.8627 5.04109 11.9159 4.99755 11.8917C4.94917 11.8482 4.95401 11.8337 4.98787 11.7708C5.02658 11.7466 5.0556 11.7563 5.10882 11.7901C5.1572 11.824 5.23945 11.7563 5.28783 11.7514C5.32653 11.703 5.37491 11.6885 5.34588 11.6353C5.33137 11.5869 5.31685 11.5869 5.2588 11.5724C5.20074 11.5337 5.12817 11.6063 5.10398 11.5482C5.15236 11.4853 5.16688 11.4998 5.22493 11.5337C5.2588 11.5482 5.37007 11.4853 5.3991 11.4805C5.45232 11.466 5.42813 11.524 5.46199 11.3934C5.45232 11.345 5.3604 11.4273 5.30718 11.4128C5.2588 11.4224 5.21526 11.4031 5.21042 11.3499C5.21042 11.2773 5.24912 11.2725 5.2975 11.2821C5.34588 11.2918 5.44748 11.2338 5.48618 11.2338C5.5394 11.2628 5.55875 11.2531 5.60229 11.1854C5.63132 11.108 5.59746 11.137 5.54424 11.0983C5.5007 11.0741 5.3991 11.1273 5.3604 11.0983C5.36523 11.0741 5.37975 11.0354 5.40878 11.0209C5.44748 11.0306 5.48135 11.0257 5.52973 11.0596C5.5781 11.0789 5.66035 10.987 5.70389 10.9531C5.69422 10.9048 5.61197 10.9725 5.56359 10.9386C5.53456 10.9193 5.49586 10.8951 5.48618 10.8709C5.51521 10.7887 5.5007 10.7935 5.5781 10.8225C5.61681 10.808 5.68454 10.808 5.641 10.7354C5.63132 10.7209 5.59262 10.7258 5.55875 10.7112C5.51037 10.6822 5.47167 10.6532 5.42813 10.6387C5.3991 10.6338 5.35072 10.6242 5.32653 10.629C5.32169 10.6774 5.33621 10.7064 5.32653 10.7645C5.35072 10.7983 5.38942 10.7983 5.3991 10.8128C5.35556 10.8467 5.33621 10.8274 5.29266 10.8322C5.23945 10.7935 5.26847 10.6822 5.20558 10.7064C5.22009 10.7403 5.21526 10.8661 5.23945 10.8903C5.26847 10.9096 5.30718 10.929 5.31202 10.958C5.26364 11.0257 5.24912 11.0209 5.19591 10.987C5.14753 10.958 5.16688 10.8564 5.12817 10.8612C5.07979 10.8951 5.07979 10.8951 5.08947 10.9483C5.08947 11.0112 5.06528 11.1031 5.1185 11.1418C5.18139 11.1902 5.19107 11.1805 5.13785 11.2676C5.10398 11.3112 5.08463 11.3015 5.04109 11.2821C5.00239 11.2531 5.01206 11.1467 4.9782 11.108C4.9153 11.0741 4.94917 11.0741 4.90079 11.1176C4.88144 11.1805 4.89595 11.195 4.92014 11.2483C4.93949 11.2773 4.93949 11.3934 4.9782 11.3934C5.03625 11.4321 5.03625 11.4224 4.96852 11.4902C4.92014 11.4902 4.89595 11.5047 4.85725 11.4563C4.80887 11.4224 4.8379 11.3112 4.775 11.3063C4.71695 11.3112 4.70727 11.3112 4.71211 11.3886C4.72178 11.4611 4.69759 11.5676 4.75081 11.6111C4.80403 11.6353 4.8379 11.6305 4.85241 11.6595L4.78952 11.7321C4.75565 11.7321 4.71695 11.7079 4.6734 11.6982C4.62502 11.6788 4.64921 11.6353 4.61051 11.6063C4.56213 11.6208 4.56213 11.5579 4.53794 11.6208C4.54762 11.674 4.52827 11.7417 4.58148 11.7756C4.62019 11.8046 4.65405 11.8627 4.69759 11.8869C4.74597 11.9449 4.72178 11.9546 4.69759 12.032C4.65889 12.032 4.61051 12.0078 4.57181 11.9788C4.52827 11.9498 4.53794 11.8433 4.4944 11.8143C4.46053 11.7804 4.47021 11.7514 4.41699 11.824C4.41699 11.8772 4.42183 11.882 4.43634 11.9207C4.43634 11.9691 4.42183 12.0659 4.47021 12.0997L4.61535 12.1481C4.64921 12.1965 4.61535 12.1868 4.57664 12.2546C4.54762 12.3223 4.54762 12.332 4.50891 12.3658C4.47021 12.4142 4.46053 12.4336 4.48956 12.4965Z" fill="#FFFF00"/>
<path fill-rule="evenodd" clip-rule="evenodd" d="M5.66979 12.5546C5.70366 12.5014 5.72301 12.4917 5.66979 12.395C5.63593 12.3659 5.59722 12.3031 5.55852 12.2498C5.51014 12.1773 5.49563 12.1531 5.55852 12.1289C5.59722 12.1144 5.58755 11.9837 5.63109 11.9499C5.69398 11.9015 5.67463 11.9402 5.65044 11.8628C5.58755 11.7854 5.58271 11.8289 5.52465 11.8725C5.48111 11.9063 5.49562 12.037 5.45208 12.066C5.37951 12.0176 5.38435 11.9886 5.38435 11.9257C5.42306 11.8967 5.42789 11.7612 5.44241 11.7273C5.47144 11.679 5.49079 11.6354 5.43273 11.5919C5.39403 11.5435 5.42306 11.5725 5.38435 11.5774C5.34081 11.6112 5.35532 11.7419 5.31178 11.7709C5.25373 11.8144 5.24405 11.7951 5.19567 11.737C5.19567 11.6886 5.21502 11.6596 5.2634 11.6161C5.31178 11.5774 5.28275 11.4612 5.30211 11.4129C5.27308 11.35 5.27792 11.2919 5.21502 11.3016C5.16664 11.3016 5.15697 11.3161 5.12794 11.3693C5.06505 11.4177 5.10375 11.5241 5.04086 11.5241C4.99731 11.4467 5.01667 11.4371 5.07472 11.3935C5.09891 11.3597 5.0844 11.2193 5.09407 11.1806C5.10375 11.1226 5.14245 11.171 5.04569 11.0839C4.98764 11.0742 5.03118 11.2097 4.99731 11.2581C4.9828 11.3113 4.94893 11.35 4.90056 11.3306C4.83282 11.3016 4.8425 11.2629 4.87637 11.2097C4.90056 11.1661 4.89088 11.0355 4.90539 10.992C4.95377 10.9484 4.95377 10.9242 4.90539 10.8517C4.84734 10.7888 4.86185 10.8371 4.8038 10.8807C4.76025 10.9097 4.77477 11.0452 4.73123 11.0742C4.70704 11.0549 4.68285 11.0258 4.67801 10.992C4.7022 10.9533 4.71187 10.9146 4.76025 10.8759C4.79896 10.8323 4.74574 10.7065 4.73123 10.6533C4.68768 10.6436 4.71671 10.7501 4.66349 10.7936C4.63447 10.8178 4.59576 10.8468 4.56674 10.8468C4.50868 10.7888 4.50384 10.7984 4.55706 10.7307C4.56673 10.6823 4.59092 10.6098 4.50868 10.634C4.48933 10.634 4.47965 10.6823 4.45062 10.7114C4.40708 10.7404 4.36354 10.7743 4.33451 10.8178C4.31516 10.8468 4.28613 10.8952 4.28613 10.9242C4.32484 10.9436 4.3587 10.9436 4.40708 10.9726C4.45062 10.9629 4.46514 10.9242 4.47965 10.9146C4.499 10.9775 4.46998 10.992 4.45546 11.0403C4.40224 11.0839 4.31032 11.0065 4.31032 11.079C4.34419 11.079 4.45546 11.1371 4.49417 11.1178C4.52319 11.0936 4.55222 11.0645 4.58125 11.0694C4.62963 11.1419 4.61511 11.1613 4.5619 11.2048C4.51352 11.2387 4.42643 11.1855 4.41676 11.2242C4.43127 11.2919 4.43127 11.2919 4.47965 11.3016C4.54255 11.3258 4.61511 11.3887 4.67317 11.35C4.7409 11.3016 4.73606 11.2871 4.79896 11.3742C4.82315 11.4274 4.80863 11.4467 4.77477 11.4806C4.72639 11.5145 4.62963 11.4612 4.58609 11.4806C4.52803 11.5338 4.54255 11.4951 4.56674 11.5725C4.61511 11.6112 4.62963 11.6064 4.68768 11.5967C4.72639 11.587 4.83282 11.6354 4.85218 11.5967C4.90056 11.5483 4.90055 11.5483 4.93442 11.6451C4.91507 11.6983 4.91507 11.7273 4.85701 11.7515C4.80863 11.7902 4.71187 11.7128 4.68768 11.7757C4.66833 11.8386 4.66349 11.8531 4.73606 11.8725C4.80863 11.8918 4.89572 11.9644 4.95861 11.9209C4.99731 11.8725 5.00699 11.8434 5.04569 11.8338L5.0844 11.9305C5.06988 11.9692 5.03602 11.9983 5.00699 12.0418C4.96829 12.0853 4.93442 12.0418 4.89572 12.0757C4.89572 12.124 4.83282 12.1047 4.8812 12.1531C4.93442 12.1676 4.99248 12.2111 5.04086 12.1724C5.0844 12.1434 5.14729 12.124 5.18599 12.095C5.25856 12.066 5.25856 12.095 5.32146 12.1531C5.29777 12.1968 5.26473 12.2348 5.2247 12.2644C5.17632 12.2934 5.0844 12.245 5.04569 12.2789C4.99731 12.2982 4.97796 12.2789 5.0215 12.3659C5.06988 12.3901 5.07472 12.3805 5.11343 12.3805C5.16181 12.3998 5.24405 12.4579 5.29727 12.4192C5.3263 12.3708 5.36984 12.3224 5.39403 12.2885C5.45208 12.2644 5.43273 12.2982 5.47627 12.3659C5.52465 12.424 5.53917 12.4288 5.55368 12.4821C5.58271 12.5401 5.59722 12.5643 5.66979 12.5546Z" fill="#FFFF00"/>
<path fill-rule="evenodd" clip-rule="evenodd" d="M4.59564 14.7412C4.59564 14.4944 4.55694 14.2429 4.59564 14.2429C6.78724 14.2429 7.33393 12.7431 7.33393 11.7513C7.33393 10.7547 6.57437 9.75324 5.14233 9.75324C3.49742 9.75324 2.9459 10.7305 2.9459 11.7513C2.9459 12.7479 3.76835 13.493 4.59081 13.493C5.68902 13.493 5.96479 13.2463 6.78724 12.2496C6.51148 13.493 5.14233 13.9913 4.59564 13.9913C4.30126 14.001 4.00807 13.9496 3.73459 13.8402C3.46112 13.7308 3.21332 13.5659 3.00688 13.3558C2.80044 13.1457 2.63983 12.8951 2.53524 12.6197C2.43064 12.3444 2.38432 12.0503 2.39921 11.7562C2.39921 10.508 3.22166 9.25977 5.14233 9.25977C6.78724 9.25977 7.88546 10.508 7.88546 11.7562C7.88546 13.4978 6.51148 14.746 4.59564 14.746V14.7412Z" fill="#FFFF00"/>
</g>
</g>
<defs>
<clipPath id="clip0_208_27345">
<rect width="24" height="24" rx="12" fill="white"/>
</clipPath>
</defs>
</svg>
