<svg width="24" height="24" viewBox="0 0 24 24" fill="none" xmlns="http://www.w3.org/2000/svg">
<g clip-path="url(#clip0_208_23393)">
<path d="M0 0H24V24H0V0Z" fill="#0067C6"/>
<path d="M0 8.00159H24V15.9985H0V8.00159Z" fill="white"/>
<path d="M8.40039 11.9719L8.79883 12L8.80352 11.9391L8.64414 11.9297L8.6582 11.7422L8.82695 11.6203V11.5453L8.65352 11.6719C8.64883 11.6297 8.62539 11.5875 8.5832 11.5735C8.5457 11.5594 8.50352 11.5547 8.4707 11.5828C8.4332 11.611 8.42383 11.6672 8.41914 11.7094L8.40039 11.9719ZM8.46133 11.9203L8.47539 11.7235C8.48008 11.6906 8.48477 11.6531 8.51289 11.6297C8.51922 11.6247 8.52672 11.6215 8.53467 11.6203C8.54263 11.619 8.55076 11.6199 8.5583 11.6227C8.56583 11.6255 8.57251 11.6302 8.5777 11.6364C8.58288 11.6425 8.58639 11.6499 8.58789 11.6578C8.61133 11.7047 8.60195 11.761 8.59727 11.8125L8.58789 11.9297L8.46133 11.9203ZM8.45195 11.3578L8.84102 11.4516L8.93477 11.0719L8.87383 11.0578L8.79883 11.386L8.68164 11.3531L8.74727 11.0625L8.6957 11.0485L8.62539 11.3391L8.52227 11.3156L8.59258 11.0063L8.53633 10.9922L8.45195 11.3578ZM8.59258 10.8375L8.96758 10.9688L8.99102 10.9125L8.84102 10.8656L8.90195 10.6922C8.91133 10.6453 8.9207 10.5891 8.89258 10.5469C8.88143 10.5311 8.86669 10.5182 8.84958 10.5092C8.83246 10.5003 8.81346 10.4955 8.79414 10.4953C8.74727 10.4953 8.71445 10.5281 8.6957 10.5656C8.66758 10.6172 8.64883 10.6781 8.63008 10.7344L8.59258 10.8375ZM8.66758 10.8L8.72852 10.6313C8.73789 10.5985 8.75664 10.5656 8.78945 10.5563C8.81758 10.5469 8.85039 10.5703 8.85039 10.6031C8.85977 10.65 8.83633 10.7063 8.81758 10.7531L8.78945 10.8469L8.66758 10.8ZM8.80352 10.3547L9.01445 10.4766C9.05664 10.5 9.1082 10.5141 9.15039 10.486C9.20664 10.4578 9.24414 10.3922 9.27227 10.3406C9.29102 10.2938 9.30977 10.2328 9.28164 10.1813C9.24883 10.1344 9.19258 10.111 9.1457 10.0781L9.00508 9.99846L8.98164 10.0453C9.04727 10.0922 9.11758 10.1297 9.1832 10.1672C9.21602 10.186 9.24414 10.2235 9.23477 10.261C9.22686 10.3072 9.20752 10.3507 9.17852 10.3875C9.15508 10.4203 9.11758 10.4438 9.08008 10.4344C9.0332 10.4297 9.00508 10.4016 8.96758 10.3828L8.82695 10.3031L8.80352 10.35V10.3547ZM9.08945 9.88596L9.4082 10.125L9.55352 9.93284C9.58164 9.89065 9.60977 9.83909 9.59102 9.79221C9.58243 9.77141 9.56825 9.75339 9.55004 9.74015C9.53184 9.72691 9.51033 9.71897 9.48789 9.71721C9.46914 9.71721 9.44102 9.72659 9.43164 9.73596C9.44102 9.68909 9.4082 9.65159 9.3707 9.64221C9.32383 9.62346 9.27695 9.65627 9.24414 9.68909C9.20664 9.72659 9.17383 9.77346 9.14102 9.81565L9.08945 9.88127V9.88596ZM9.16914 9.8719L9.28164 9.73127C9.30039 9.70784 9.32852 9.6844 9.35664 9.69846C9.38477 9.71252 9.38945 9.74534 9.37539 9.76409C9.35664 9.81096 9.32852 9.83909 9.30039 9.87659L9.25352 9.93752L9.16914 9.8719ZM9.30039 9.96565L9.41289 9.82502C9.43633 9.80159 9.45977 9.77346 9.49258 9.77815C9.5207 9.78752 9.53945 9.81565 9.53477 9.84377C9.51602 9.89534 9.47852 9.93752 9.4457 9.9844L9.39883 10.0453L9.30039 9.97034V9.96565ZM9.45039 9.4594L9.72227 9.75002L9.95664 9.52502L9.91914 9.48752L9.73164 9.66565H9.72227L9.48789 9.41721L9.45039 9.4594ZM9.80195 9.15002L10.0457 9.46877L10.0926 9.43127L9.84883 9.11252L9.80195 9.15002ZM10.1582 8.90627C10.1215 8.92964 10.0897 8.95988 10.0645 8.99534C10.0406 9.0249 10.0268 9.06132 10.0251 9.09927C10.0235 9.13722 10.0339 9.17471 10.0551 9.20627C10.0744 9.23799 10.1019 9.26391 10.1348 9.28127C10.1676 9.29534 10.2004 9.30471 10.2379 9.30002C10.2853 9.29121 10.3305 9.27298 10.3707 9.24641C10.411 9.21984 10.4455 9.18547 10.4723 9.14534C10.4905 9.10912 10.4955 9.06766 10.4863 9.02815L10.4301 9.05159C10.4441 9.13127 10.3926 9.16877 10.3363 9.20627C10.2426 9.25784 10.1582 9.25315 10.102 9.17346C10.0504 9.07971 10.1113 9.00471 10.1863 8.95315C10.2426 8.92034 10.2941 8.8969 10.3457 8.92971L10.3926 8.89221C10.3625 8.87125 10.326 8.86131 10.2895 8.86409C10.2473 8.86409 10.2051 8.87815 10.1582 8.91096V8.90627ZM10.6316 8.6719L10.5895 9.11721L10.6551 9.09377L10.6645 8.95315L10.8707 8.87346L10.9738 8.96721L11.0348 8.93909L10.6973 8.64377L10.6316 8.6719ZM10.6879 8.71877L10.8191 8.83127L10.6691 8.89221L10.6879 8.71877ZM11.5082 8.42346L11.5363 8.8219L11.752 8.80784C11.8082 8.80315 11.8691 8.78909 11.9066 8.74221C11.9285 8.7131 11.9432 8.67931 11.9497 8.64351C11.9562 8.60771 11.9543 8.57089 11.9441 8.53596C11.9335 8.50553 11.9148 8.47856 11.89 8.45792C11.8653 8.43728 11.8354 8.42375 11.8035 8.41877C11.7473 8.40471 11.6863 8.41409 11.6207 8.41877L11.5082 8.42346ZM11.5691 8.47502L11.7426 8.46565C11.7761 8.4639 11.8093 8.47384 11.8363 8.49377C11.8562 8.50789 11.8719 8.52709 11.8818 8.54935C11.8917 8.57162 11.8954 8.59614 11.8926 8.62034C11.8911 8.64774 11.8813 8.67405 11.8646 8.6958C11.8479 8.71756 11.8249 8.73374 11.7988 8.74221L11.7051 8.75627L11.5879 8.76096L11.5691 8.47971V8.47502ZM12.066 8.40002L12.0426 8.79846L12.4316 8.8219V8.76565L12.1035 8.7469L12.1129 8.62502L12.4082 8.64377L12.4129 8.58752L12.1176 8.56877V8.46096L12.441 8.47971V8.42346L12.066 8.40002ZM13.1113 8.56877L12.9707 8.94377L13.0176 8.95784L13.1348 8.66252V8.64846L13.1441 8.66721L13.2848 9.06096L13.3504 9.08909L13.491 8.71409L13.4441 8.69534L13.327 8.99065V9.00471L13.3176 8.99065L13.177 8.59221L13.1113 8.56877ZM13.6504 8.79846L13.4629 9.15471L13.416 9.12659L13.5941 8.77034L13.6504 8.79846ZM13.9504 8.97659C13.915 8.95208 13.8752 8.93458 13.8332 8.92502C13.7962 8.91541 13.757 8.91796 13.7216 8.93232C13.6861 8.94667 13.6562 8.97205 13.6363 9.00471C13.6155 9.03373 13.6026 9.06764 13.5988 9.10315C13.5988 9.14065 13.6082 9.17815 13.627 9.21096C13.6542 9.24924 13.6894 9.28121 13.7301 9.30471C13.777 9.33752 13.8191 9.35159 13.8613 9.35627C13.9082 9.35627 13.941 9.3469 13.9785 9.32346L13.9316 9.27659C13.866 9.32346 13.8098 9.29534 13.7535 9.25784C13.6645 9.20159 13.6316 9.11721 13.6832 9.03752C13.7441 8.94377 13.8426 8.96721 13.9176 9.01877C13.9738 9.05159 14.016 9.09377 14.0113 9.15471L14.0582 9.17815C14.0663 9.14167 14.0613 9.10352 14.0441 9.07034C14.0211 9.03183 13.9889 8.99962 13.9504 8.97659ZM14.3301 9.25784L13.9129 9.42659L13.9598 9.47346L14.091 9.4219L14.2598 9.56252L14.227 9.70315L14.2738 9.74534L14.3816 9.30471L14.3348 9.25784H14.3301ZM14.316 9.33284L14.2691 9.50159L14.152 9.39846L14.316 9.33284ZM14.6348 9.53909L14.3254 9.79221L14.3629 9.83909L14.4848 9.74065L14.6066 9.88596L14.5691 10.0875L14.616 10.1485L14.6535 9.93284C14.691 9.96096 14.7426 9.97971 14.7801 9.95159C14.8176 9.93752 14.8504 9.90471 14.8504 9.86252C14.8551 9.80627 14.8176 9.76409 14.7848 9.7219L14.6348 9.53909ZM14.6254 9.61877C14.6723 9.67502 14.7191 9.72659 14.7566 9.78284C14.7754 9.81096 14.8035 9.84846 14.7754 9.88127C14.7613 9.9094 14.7191 9.9094 14.6957 9.89065C14.6488 9.85784 14.616 9.80627 14.5738 9.76409L14.527 9.70315L14.6254 9.61877ZM15.0988 10.1766L14.6488 10.1953L14.6863 10.2563L14.827 10.2469L14.9348 10.4344L14.8551 10.5563L14.8926 10.6125L15.1363 10.2375L15.1035 10.1766H15.0988ZM15.0613 10.2375L14.9676 10.3828L14.8879 10.2422L15.0613 10.2375ZM15.3566 10.7063C15.3332 10.636 15.291 10.5656 15.2254 10.5328C15.188 10.5146 15.1456 10.5093 15.1049 10.5178C15.0641 10.5262 15.0274 10.548 15.0004 10.5797C14.9535 10.636 14.9535 10.711 14.9629 10.7766C14.9766 10.8552 15.0124 10.9284 15.066 10.9875L15.0379 10.9969L15.0566 11.0485L15.2441 10.9828L15.1691 10.7813L15.127 10.7953L15.1832 10.9453L15.1176 10.9688C15.0646 10.9185 15.0285 10.853 15.0145 10.7813C15.0004 10.725 15.0004 10.6594 15.0426 10.6219C15.0895 10.575 15.1691 10.5563 15.2301 10.5985C15.2796 10.6424 15.3127 10.7019 15.3238 10.7672C15.3379 10.8094 15.3379 10.861 15.3051 10.8938C15.2957 10.8985 15.3051 10.9078 15.3098 10.9172L15.3285 10.9406C15.3451 10.9271 15.3584 10.9099 15.3673 10.8904C15.3763 10.8709 15.3806 10.8496 15.3801 10.8281C15.3801 10.786 15.3707 10.7438 15.3566 10.7063ZM15.4738 11.0203L15.2488 11.0625C15.2066 11.0719 15.1785 11.0813 15.1551 11.1C15.1363 11.1188 15.1223 11.1422 15.1129 11.175C15.1066 11.2156 15.1082 11.257 15.1176 11.2969C15.127 11.3438 15.141 11.3813 15.1645 11.4094C15.1785 11.4375 15.202 11.4563 15.2254 11.4656C15.2535 11.4703 15.2863 11.475 15.3285 11.4656L15.5488 11.4188L15.5395 11.3625L15.3238 11.4094C15.2254 11.4235 15.1926 11.3719 15.1738 11.2875C15.1551 11.1938 15.1691 11.1375 15.2676 11.1188L15.4832 11.0719L15.4738 11.0203ZM15.5957 11.7L15.1832 11.5219V11.5875L15.3145 11.6438L15.3285 11.8594L15.2113 11.9344L15.216 12L15.6004 11.7656L15.5957 11.7ZM15.5348 11.7375L15.3848 11.8313L15.3707 11.6672L15.5348 11.7375ZM8.70977 12.736L8.65352 12.75L8.71445 12.9938L8.77539 12.9797L8.70977 12.736ZM15.291 12.736L15.3473 12.75L15.2863 12.9938L15.2254 12.9797L15.291 12.736ZM9.32852 13.7578L8.8832 13.8094L8.9207 13.8656L9.06133 13.8516L9.17852 14.0344L9.11289 14.1563L9.15039 14.2125L9.36602 13.8141L9.32852 13.7578ZM9.2957 13.8235L9.21133 13.9782L9.11758 13.8422L9.2957 13.8235ZM9.50195 14.0063L9.21602 14.2688L9.25352 14.3156L9.49258 14.086L9.36602 14.4328L9.41289 14.4797L9.75508 14.3766L9.5207 14.5969L9.5582 14.6344L9.83945 14.3719L9.7832 14.3063L9.43633 14.4141L9.56758 14.0719L9.50195 14.0063ZM9.91445 14.4281L9.67539 14.7469L9.98477 14.9813L10.0176 14.9344L9.75508 14.7375L9.83008 14.6438L10.0645 14.8172L10.102 14.7703L9.86289 14.5922L9.92852 14.5078L10.1816 14.7L10.2145 14.6531L9.91445 14.4281ZM10.3082 14.7141L10.1207 15.0656L10.1676 15.0938L10.2426 14.9531L10.416 15.0469L10.4535 15.2485L10.5191 15.2813L10.477 15.0703C10.5238 15.0844 10.5707 15.075 10.6035 15.0422C10.627 15.0141 10.6457 14.9719 10.6316 14.9344C10.6176 14.8828 10.566 14.8547 10.5238 14.8313L10.3082 14.7141ZM10.3316 14.7938L10.5145 14.8875C10.5379 14.911 10.5754 14.9344 10.5707 14.9719C10.5707 15.0047 10.5332 15.0188 10.5051 15.0188C10.4441 15.0047 10.3973 14.9719 10.3457 14.9438L10.2707 14.9063L10.3316 14.7938ZM10.7582 14.9485L10.6082 15.3235L10.6645 15.3422L10.8145 14.9719L10.7582 14.9485ZM11.1191 15.075C11.0785 15.0608 11.0356 15.0544 10.9926 15.0563C10.9546 15.0566 10.9178 15.0691 10.8875 15.0919C10.8571 15.1147 10.8348 15.1465 10.8238 15.1828C10.8112 15.2173 10.8079 15.2545 10.8145 15.2907C10.8238 15.3282 10.8426 15.361 10.8707 15.3844C10.9058 15.4164 10.9473 15.4404 10.9926 15.4547C11.0441 15.4735 11.091 15.4735 11.1332 15.4688C11.1744 15.4601 11.2111 15.4368 11.2363 15.4031L11.1848 15.375C11.1285 15.436 11.0676 15.4219 11.002 15.4031C10.9035 15.3656 10.852 15.2953 10.8801 15.2016C10.9129 15.0985 11.0113 15.0985 11.1004 15.1266C11.1613 15.1453 11.2129 15.1735 11.2223 15.2344L11.2785 15.2391C11.2739 15.2034 11.2574 15.1704 11.2316 15.1453C11.2005 15.113 11.1619 15.0888 11.1191 15.075ZM11.5223 15.1688L11.2598 15.5297L11.3254 15.5391L11.4051 15.4266L11.6207 15.4594L11.6676 15.5906L11.7332 15.6L11.5879 15.1781L11.5223 15.1641V15.1688ZM11.5457 15.2344L11.602 15.3985L11.4426 15.375L11.5457 15.2344ZM12.4598 15.1688C12.4165 15.1763 12.3751 15.1922 12.3379 15.2156C12.3053 15.2346 12.2796 15.2635 12.2644 15.298C12.2492 15.3325 12.2454 15.371 12.2535 15.4078C12.2608 15.4426 12.277 15.4749 12.3004 15.5016C12.3238 15.5344 12.3566 15.5485 12.3941 15.5625C12.4316 15.5719 12.4785 15.5719 12.5348 15.5625C12.5816 15.5536 12.6252 15.5326 12.6613 15.5016C12.6932 15.4755 12.7148 15.439 12.7223 15.3985H12.6566C12.6426 15.4781 12.5816 15.4922 12.516 15.511C12.4082 15.5297 12.3285 15.4922 12.3098 15.3985C12.291 15.2906 12.3754 15.2391 12.4645 15.2203C12.5254 15.2063 12.5863 15.2063 12.6191 15.2531L12.6754 15.2344C12.6549 15.2052 12.6252 15.1838 12.591 15.1735C12.5454 15.1596 12.4969 15.158 12.4504 15.1688H12.4598ZM12.727 15.1219L12.8395 15.5063L13.2145 15.3938L13.1957 15.3375L12.8816 15.4313L12.8441 15.3188L13.1301 15.2297L13.116 15.1781L12.8301 15.2625L12.7973 15.1594L13.102 15.0656L13.0879 15.0141L12.727 15.1219ZM13.1582 14.9813L13.327 15.3469L13.3738 15.3235L13.2332 15.0235L13.6223 15.2016H13.6504L13.6973 15.1735L13.5332 14.8125L13.4863 14.836L13.6223 15.136L13.2238 14.9531L13.1582 14.986V14.9813ZM13.5988 14.7797L13.6316 14.8266L13.7723 14.7328L13.777 14.7282L13.9645 15.0141L14.0113 14.9813L13.8285 14.7V14.6906L13.9738 14.5969L13.9457 14.55L13.5988 14.7797ZM14.002 14.4985L14.2738 14.7985L14.316 14.7563L14.2082 14.6438L14.3488 14.5125L14.5551 14.536L14.6066 14.4891L14.391 14.461C14.4191 14.4235 14.4285 14.3672 14.4051 14.3297C14.3863 14.2969 14.3535 14.2688 14.3113 14.2688C14.2551 14.2688 14.2176 14.3063 14.1707 14.3438L14.002 14.5031V14.4985ZM14.0816 14.5031L14.2363 14.3625C14.2598 14.3438 14.302 14.3156 14.3348 14.3391C14.3629 14.3578 14.3629 14.3953 14.3441 14.4235C14.316 14.4703 14.2691 14.5078 14.227 14.55L14.1707 14.5969L14.0816 14.5031ZM14.466 14.0344L14.6441 14.4516L14.691 14.4L14.6301 14.2688L14.7707 14.1L14.9066 14.1328L14.9488 14.0766L14.5082 13.9828L14.466 14.0391V14.0344ZM14.5363 14.0531L14.7098 14.086L14.6066 14.2125L14.5363 14.0531ZM14.6395 13.8094L14.977 14.0297L15.1504 13.7578L15.1035 13.725L14.9629 13.9406V13.95L14.9535 13.9453L14.6723 13.7578L14.6395 13.8094Z" fill="#C8A400"/>
<mask id="mask0_208_23393" style="mask-type:luminance" maskUnits="userSpaceOnUse" x="9" y="9" width="6" height="5">
<path d="M11.9982 9.05591L9.4502 13.4679H14.5462L11.9982 9.05591Z" fill="white"/>
</mask>
<g mask="url(#mask0_208_23393)">
<path d="M11.9981 9.05591L10.7381 11.2359L10.1221 12.3039H13.8741L13.2861 11.2879L11.9981 9.05591Z" fill="white"/>
<path opacity="0.6" d="M11.9974 9.05591L11.9014 9.21591L11.9974 11.4159L12.0934 9.21591L11.9974 9.05591Z" fill="#17C0EB" stroke="#17C0EB" stroke-width="0.0106666"/>
<path d="M11.9972 11.0999H11.9932L11.9972 11.2199L12.0012 11.0999H11.9972Z" fill="white"/>
<path opacity="0.6" d="M14.2455 10.6894L14.0637 10.6476L12.001 11.4187L14.123 10.8302L14.2455 10.6894Z" fill="#17C0EB" stroke="#17C0EB" stroke-width="0.0106666"/>
<path d="M12.302 11.3211L12.3008 11.3173L12.1879 11.3581L12.3033 11.3249L12.302 11.3211Z" fill="white"/>
<path opacity="0.6" d="M13.3872 13.3324L13.3708 13.1466L12 11.4232L13.2155 13.2594L13.3872 13.3324Z" fill="#17C0EB" stroke="#17C0EB" stroke-width="0.0106666"/>
<path d="M12.1862 11.6789L12.1895 11.6765L12.1157 11.5818L12.183 11.6812L12.1862 11.6789Z" fill="white"/>
<path opacity="0.6" d="M10.6079 13.3324L10.7796 13.2594L11.995 11.4231L10.6243 13.1465L10.6079 13.3324Z" fill="#17C0EB" stroke="#17C0EB" stroke-width="0.0106666"/>
<path d="M11.8093 11.6788L11.8125 11.6812L11.8798 11.5817L11.806 11.6764L11.8093 11.6788Z" fill="white"/>
<path opacity="0.6" d="M9.74939 10.6893L9.8719 10.8301L11.9939 11.4186L9.93123 10.6475L9.74939 10.6893Z" fill="#17C0EB" stroke="#17C0EB" stroke-width="0.0106666"/>
<path d="M11.6936 11.321L11.6924 11.3248L11.8077 11.3581L11.6949 11.3172L11.6936 11.321Z" fill="white"/>
<path opacity="0.6" d="M12.3275 9.07903L12.2102 9.22412L11.999 11.4161L12.4003 9.25084L12.3275 9.07903Z" fill="#17C0EB" stroke="#17C0EB" stroke-width="0.0106666"/>
<path d="M12.043 11.1031L12.0391 11.1025L12.0263 11.2219L12.047 11.1037L12.043 11.1031Z" fill="white"/>
<path opacity="0.6" d="M14.3262 11.0095L14.152 10.9427L12.0021 11.4193L14.1853 11.1318L14.3262 11.0095Z" fill="#17C0EB" stroke="#17C0EB" stroke-width="0.0106666"/>
<path d="M12.3132 11.3644L12.3125 11.3605L12.195 11.3853L12.3139 11.3684L12.3132 11.3644Z" fill="white"/>
<path opacity="0.6" d="M13.1076 13.5072L13.1173 13.3209L11.9997 11.4235L12.9477 13.411L13.1076 13.5072Z" fill="#17C0EB" stroke="#17C0EB" stroke-width="0.0106666"/>
<path d="M12.1478 11.7024L12.1514 11.7006L12.0915 11.5965L12.1443 11.7043L12.1478 11.7024Z" fill="white"/>
<path opacity="0.6" d="M10.3557 13.1204L10.5359 13.072L11.9951 11.4228L10.3978 12.9387L10.3557 13.1204Z" fill="#17C0EB" stroke="#17C0EB" stroke-width="0.0106666"/>
<path d="M11.7754 11.6502L11.7783 11.653L11.8588 11.5639L11.7726 11.6474L11.7754 11.6502Z" fill="white"/>
<path opacity="0.6" d="M9.87314 10.3837L9.97486 10.5401L11.9943 11.4182L10.059 10.3675L9.87314 10.3837Z" fill="#17C0EB" stroke="#17C0EB" stroke-width="0.0106666"/>
<path d="M11.7107 11.2797L11.709 11.2833L11.8186 11.3323L11.7125 11.2761L11.7107 11.2797Z" fill="white"/>
<path opacity="0.6" d="M12.6499 9.14755L12.5135 9.2749L11.9994 11.4161L12.6981 9.32782L12.6499 9.14755Z" fill="#17C0EB" stroke="#17C0EB" stroke-width="0.0106666"/>
<path d="M12.0869 11.1123L12.083 11.1112L12.0538 11.2277L12.0907 11.1134L12.0869 11.1123Z" fill="white"/>
<path opacity="0.6" d="M14.3608 11.3374L14.1975 11.247L12.0022 11.4198L14.2042 11.4389L14.3608 11.3374Z" fill="#17C0EB" stroke="#17C0EB" stroke-width="0.0106666"/>
<path d="M12.3185 11.4088L12.3184 11.4048L12.1986 11.413L12.3186 11.4128L12.3185 11.4088Z" fill="white"/>
<path opacity="0.6" d="M12.8063 13.6414L12.8418 13.4582L11.9991 11.4237L12.6613 13.5238L12.8063 13.6414Z" fill="#17C0EB" stroke="#17C0EB" stroke-width="0.0106666"/>
<path d="M12.1076 11.7206L12.1113 11.7192L12.0665 11.6078L12.1038 11.722L12.1076 11.7206Z" fill="white"/>
<path opacity="0.6" d="M10.1352 12.8754L10.3204 12.8525L11.9949 11.4224L10.2022 12.7012L10.1352 12.8754Z" fill="#17C0EB" stroke="#17C0EB" stroke-width="0.0106666"/>
<path d="M11.7456 11.617L11.748 11.6201L11.8401 11.5431L11.7431 11.6138L11.7456 11.617Z" fill="white"/>
<path opacity="0.6" d="M10.0381 10.098L10.117 10.2671L11.9946 11.4177L10.2244 10.1079L10.0381 10.098Z" fill="#17C0EB" stroke="#17C0EB" stroke-width="0.0106666"/>
<path d="M11.7327 11.2411L11.7305 11.2444L11.8322 11.3082L11.7349 11.2378L11.7327 11.2411Z" fill="white"/>
<path opacity="0.6" d="M12.9598 9.26024L12.807 9.36736L11.9999 11.4162L12.9824 9.44545L12.9598 9.26024Z" fill="#17C0EB" stroke="#17C0EB" stroke-width="0.0106666"/>
<path d="M12.1287 11.1275L12.125 11.1259L12.0798 11.2371L12.1323 11.1291L12.1287 11.1275Z" fill="white"/>
<path opacity="0.6" d="M14.3493 11.667L14.2003 11.5548L12.0023 11.4203L14.1802 11.7458L14.3493 11.667Z" fill="#17C0EB" stroke="#17C0EB" stroke-width="0.0106666"/>
<path d="M12.317 11.4533L12.3174 11.4493L12.1976 11.4408L12.3165 11.4573L12.317 11.4533Z" fill="white"/>
<path opacity="0.6" d="M12.4901 13.7322L12.5507 13.5558L11.9994 11.4238L12.3629 13.5957L12.4901 13.7322Z" fill="#17C0EB" stroke="#17C0EB" stroke-width="0.0106666"/>
<path d="M12.0654 11.7329L12.0693 11.7321L12.0405 11.6155L12.0615 11.7337L12.0654 11.7329Z" fill="white"/>
<path opacity="0.6" d="M9.95102 12.6019L10.1376 12.6051L11.9948 11.4219L10.0416 12.4388L9.95102 12.6019Z" fill="#17C0EB" stroke="#17C0EB" stroke-width="0.0106666"/>
<path d="M11.7216 11.5799L11.7236 11.5834L11.8256 11.5199L11.7196 11.5764L11.7216 11.5799Z" fill="white"/>
<path opacity="0.6" d="M10.242 9.83808L10.2966 10.0165L11.9958 11.4172L10.4251 9.8738L10.242 9.83808Z" fill="#17C0EB" stroke="#17C0EB" stroke-width="0.0106666"/>
<path d="M11.7605 11.2058L11.7578 11.2087L11.8497 11.2861L11.7632 11.2028L11.7605 11.2058Z" fill="white"/>
<path opacity="0.6" d="M13.2504 9.41513L13.0842 9.49994L11.9998 11.4165L13.247 9.60169L13.2504 9.41513Z" fill="#17C0EB" stroke="#17C0EB" stroke-width="0.0106666"/>
<path d="M12.1675 11.1485L12.1641 11.1464L12.1039 11.2502L12.1708 11.1506L12.1675 11.1485Z" fill="white"/>
<path opacity="0.6" d="M14.2912 11.9918L14.1592 11.86L12.0013 11.4209L14.1128 12.0463L14.2912 11.9918Z" fill="#17C0EB" stroke="#17C0EB" stroke-width="0.0106666"/>
<path d="M12.3076 11.4973L12.3086 11.4934L12.1912 11.4683L12.3067 11.5012L12.3076 11.4973Z" fill="white"/>
<path opacity="0.6" d="M12.162 13.7782L12.2467 13.6119L11.9974 11.4239L12.0551 13.6253L12.162 13.7782Z" fill="#17C0EB" stroke="#17C0EB" stroke-width="0.0106666"/>
<path d="M12.0194 11.7392L12.0234 11.7389L12.0111 11.6195L12.0155 11.7394L12.0194 11.7392Z" fill="white"/>
<path opacity="0.6" d="M9.80583 12.3055L9.99015 12.3346L11.994 11.4215L9.91822 12.1566L9.80583 12.3055Z" fill="#17C0EB" stroke="#17C0EB" stroke-width="0.0106666"/>
<path d="M11.7006 11.5399L11.7021 11.5436L11.8119 11.4949L11.6992 11.5362L11.7006 11.5399Z" fill="white"/>
<path opacity="0.6" d="M10.4778 9.60895L10.5071 9.79322L11.9948 11.4168L10.6542 9.66981L10.4778 9.60895Z" fill="#17C0EB" stroke="#17C0EB" stroke-width="0.0106666"/>
<path d="M11.7921 11.1748L11.7891 11.1774L11.8693 11.2667L11.7952 11.1722L11.7921 11.1748Z" fill="white"/>
<path opacity="0.6" d="M13.5179 9.60907L13.3415 9.66993L12.0009 11.4169L13.4886 9.79334L13.5179 9.60907Z" fill="#17C0EB" stroke="#17C0EB" stroke-width="0.0106666"/>
<path d="M12.2042 11.1748L12.2012 11.1722L12.1271 11.2667L12.2073 11.1774L12.2042 11.1748Z" fill="white"/>
<path opacity="0.6" d="M14.1896 12.3056L14.0772 12.1566L12.0015 11.4215L14.0053 12.3346L14.1896 12.3056Z" fill="#17C0EB" stroke="#17C0EB" stroke-width="0.0106666"/>
<path d="M12.2944 11.5398L12.2959 11.5361L12.1831 11.4949L12.2929 11.5436L12.2944 11.5398Z" fill="white"/>
<path opacity="0.6" d="M11.8329 13.7782L11.9399 13.6253L11.9976 11.424L11.7483 13.6119L11.8329 13.7782Z" fill="#17C0EB" stroke="#17C0EB" stroke-width="0.0106666"/>
<path d="M11.9755 11.7392L11.9795 11.7395L11.9839 11.6195L11.9715 11.7389L11.9755 11.7392Z" fill="white"/>
<path opacity="0.6" d="M9.70431 11.9918L9.88279 12.0463L11.9942 11.4209L9.83634 11.86L9.70431 11.9918Z" fill="#17C0EB" stroke="#17C0EB" stroke-width="0.0106666"/>
<path d="M11.6875 11.4973L11.6885 11.5012L11.8039 11.4683L11.6865 11.4935L11.6875 11.4973Z" fill="white"/>
<path opacity="0.6" d="M10.7455 9.41519L10.7488 9.60175L11.9961 11.4166L10.9117 9.50001L10.7455 9.41519Z" fill="#17C0EB" stroke="#17C0EB" stroke-width="0.0106666"/>
<path d="M11.8286 11.1486L11.8252 11.1508L11.8922 11.2504L11.832 11.1465L11.8286 11.1486Z" fill="white"/>
<path opacity="0.6" d="M13.7547 9.83807L13.5715 9.87378L12.0009 11.4172L13.7 10.0165L13.7547 9.83807Z" fill="#17C0EB" stroke="#17C0EB" stroke-width="0.0106666"/>
<path d="M12.2361 11.2057L12.2334 11.2028L12.1469 11.286L12.2388 11.2087L12.2361 11.2057Z" fill="white"/>
<path opacity="0.6" d="M14.0448 12.6019L13.9542 12.4388L12.001 11.4219L13.8582 12.6051L14.0448 12.6019Z" fill="#17C0EB" stroke="#17C0EB" stroke-width="0.0106666"/>
<path d="M12.2744 11.5799L12.2764 11.5764L12.1704 11.5199L12.2724 11.5833L12.2744 11.5799Z" fill="white"/>
<path opacity="0.6" d="M11.5067 13.7322L11.6339 13.5957L11.9974 11.4238L11.446 13.5558L11.5067 13.7322Z" fill="#17C0EB" stroke="#17C0EB" stroke-width="0.0106666"/>
<path d="M11.9316 11.7329L11.9355 11.7338L11.9566 11.6156L11.9277 11.7321L11.9316 11.7329Z" fill="white"/>
<path opacity="0.6" d="M9.64719 11.667L9.81635 11.7457L11.9943 11.4203L9.79628 11.5548L9.64719 11.667Z" fill="#17C0EB" stroke="#17C0EB" stroke-width="0.0106666"/>
<path d="M11.6802 11.4533L11.6807 11.4573L11.7996 11.4408L11.6798 11.4493L11.6802 11.4533Z" fill="white"/>
<path opacity="0.6" d="M11.0359 9.26027L11.0133 9.44548L11.9958 11.4162L11.1887 9.36739L11.0359 9.26027Z" fill="#17C0EB" stroke="#17C0EB" stroke-width="0.0106666"/>
<path d="M11.8669 11.1275L11.8633 11.1292L11.9157 11.2371L11.8706 11.1259L11.8669 11.1275Z" fill="white"/>
<path opacity="0.6" d="M13.957 10.098L13.7707 10.1079L12.0005 11.4177L13.878 10.2671L13.957 10.098Z" fill="#17C0EB" stroke="#17C0EB" stroke-width="0.0106666"/>
<path d="M12.262 11.241L12.2598 11.2377L12.1625 11.3081L12.2642 11.2443L12.262 11.241Z" fill="white"/>
<path opacity="0.6" d="M13.8608 12.8753L13.7938 12.7012L12.0011 11.4224L13.6756 12.8525L13.8608 12.8753Z" fill="#17C0EB" stroke="#17C0EB" stroke-width="0.0106666"/>
<path d="M12.2505 11.6169L12.2529 11.6138L12.1559 11.543L12.248 11.6201L12.2505 11.6169Z" fill="white"/>
<path opacity="0.6" d="M11.1891 13.6414L11.334 13.5238L11.9963 11.4237L11.1536 13.4582L11.1891 13.6414Z" fill="#17C0EB" stroke="#17C0EB" stroke-width="0.0106666"/>
<path d="M11.8878 11.7207L11.8916 11.722L11.9289 11.6079L11.8841 11.7193L11.8878 11.7207Z" fill="white"/>
<path opacity="0.6" d="M9.63519 11.3374L9.79174 11.4389L11.9937 11.4198L9.79844 11.2471L9.63519 11.3374Z" fill="#17C0EB" stroke="#17C0EB" stroke-width="0.0106666"/>
<path d="M11.6779 11.4087L11.6777 11.4127L11.7978 11.4129L11.678 11.4047L11.6779 11.4087Z" fill="white"/>
<path opacity="0.6" d="M11.3462 9.14749L11.298 9.32775L11.9967 11.4161L11.4826 9.27483L11.3462 9.14749Z" fill="#17C0EB" stroke="#17C0EB" stroke-width="0.0106666"/>
<path d="M11.9091 11.1123L11.9053 11.1134L11.9422 11.2277L11.913 11.1112L11.9091 11.1123Z" fill="white"/>
<path opacity="0.6" d="M14.1222 10.3836L13.9363 10.3675L12.001 11.4182L14.0204 10.5401L14.1222 10.3836Z" fill="#17C0EB" stroke="#17C0EB" stroke-width="0.0106666"/>
<path d="M12.285 11.2797L12.2832 11.2761L12.1771 11.3323L12.2867 11.2833L12.285 11.2797Z" fill="white"/>
<path opacity="0.6" d="M13.6399 13.1204L13.5978 12.9386L12.0005 11.4228L13.4597 13.072L13.6399 13.1204Z" fill="#17C0EB" stroke="#17C0EB" stroke-width="0.0106666"/>
<path d="M12.2198 11.6501L12.2227 11.6473L12.1364 11.5638L12.2169 11.6529L12.2198 11.6501Z" fill="white"/>
<path opacity="0.6" d="M10.8879 13.5072L11.0478 13.411L11.9958 11.4234L10.8782 13.3208L10.8879 13.5072Z" fill="#17C0EB" stroke="#17C0EB" stroke-width="0.0106666"/>
<path d="M11.8471 11.7025L11.8506 11.7043L11.9034 11.5965L11.8435 11.7006L11.8471 11.7025Z" fill="white"/>
<path opacity="0.6" d="M9.66999 11.0093L9.81089 11.1317L11.9941 11.4191L9.84423 10.9426L9.66999 11.0093Z" fill="#17C0EB" stroke="#17C0EB" stroke-width="0.0106666"/>
<path d="M11.6833 11.3642L11.6826 11.3682L11.8015 11.3851L11.684 11.3603L11.6833 11.3642Z" fill="white"/>
<path opacity="0.6" d="M11.6693 9.07892L11.5965 9.25073L11.9977 11.4159L11.7866 9.22401L11.6693 9.07892Z" fill="#17C0EB" stroke="#17C0EB" stroke-width="0.0106666"/>
<path d="M11.9542 11.1031L11.9502 11.1036L11.9709 11.2219L11.9581 11.1025L11.9542 11.1031Z" fill="white"/>
<path d="M11.9977 10.632C11.5716 10.6315 11.1597 10.7849 10.8377 11.064L10.2537 12.08C10.2328 12.1894 10.222 12.3005 10.2217 12.412H10.4217C10.442 12.0082 10.6168 11.6278 10.9097 11.3492C11.2027 11.0707 11.5914 10.9153 11.9957 10.9153C12.3999 10.9153 12.7887 11.0707 13.0816 11.3492C13.3746 11.6278 13.5493 12.0082 13.5697 12.412H13.7697C13.7706 12.3007 13.7612 12.1895 13.7417 12.08L13.1577 11.064C12.8355 10.7852 12.4237 10.6318 11.9977 10.632Z" fill="#FF0000"/>
<path d="M11.9979 10.668C11.5458 10.667 11.1112 10.842 10.7859 11.156L10.3059 11.992C10.2719 12.128 10.2544 12.2677 10.2539 12.408H10.4259C10.4543 12.0104 10.6322 11.6384 10.9239 11.3668C11.2156 11.0952 11.5993 10.9442 11.9979 10.9442C12.3965 10.9442 12.7802 11.0952 13.0719 11.3668C13.3636 11.6384 13.5415 12.0104 13.5699 12.408H13.7419C13.7416 12.2664 13.7241 12.1254 13.6899 11.988L13.2099 11.156C12.8846 10.842 12.45 10.667 11.9979 10.668Z" fill="#FF6600"/>
<path d="M11.9982 10.7C11.7565 10.6993 11.5174 10.75 11.2968 10.8486C11.0761 10.9472 10.8789 11.0915 10.7182 11.272L10.3702 11.872C10.3147 12.0465 10.2877 12.2288 10.2902 12.412H10.4222C10.4426 12.0082 10.6173 11.6278 10.9102 11.3492C11.2032 11.0707 11.5919 10.9153 11.9962 10.9153C12.4004 10.9153 12.7892 11.0707 13.0822 11.3492C13.3751 11.6278 13.5498 12.0082 13.5702 12.412H13.7102C13.7102 12.224 13.6782 12.044 13.6262 11.876L13.2742 11.272C13.1141 11.0918 12.9175 10.9476 12.6976 10.849C12.4776 10.7504 12.2392 10.6996 11.9982 10.7Z" fill="#FFFF00"/>
<path d="M11.9984 10.7319C11.7225 10.7318 11.4508 10.7996 11.2073 10.9293C10.9638 11.0591 10.7561 11.2468 10.6024 11.4759L10.4904 11.6719C10.377 11.9021 10.3182 12.1553 10.3184 12.4119H10.4264C10.4547 12.0144 10.6327 11.6423 10.9244 11.3707C11.216 11.0991 11.5998 10.9481 11.9984 10.9481C12.3969 10.9481 12.7807 11.0991 13.0723 11.3707C13.364 11.6423 13.542 12.0144 13.5703 12.4119H13.6783C13.6786 12.1553 13.6197 11.9021 13.5063 11.6719L13.3943 11.4719C13.2406 11.2428 13.0329 11.0551 12.7894 10.9253C12.5459 10.7956 12.2742 10.7278 11.9984 10.7279V10.7319Z" fill="#00FF00"/>
<path d="M11.9976 10.7599C11.7809 10.7599 11.5662 10.8026 11.366 10.8857C11.1658 10.9688 10.984 11.0905 10.8309 11.244C10.6778 11.3974 10.5565 11.5796 10.4739 11.78C10.3913 11.9804 10.3491 12.1951 10.3496 12.4119H10.4256C10.454 12.0143 10.6319 11.6423 10.9236 11.3707C11.2153 11.0991 11.5991 10.9481 11.9976 10.9481C12.3962 10.9481 12.7799 11.0991 13.0716 11.3707C13.3633 11.6423 13.5412 12.0143 13.5696 12.4119H13.6456C13.6461 12.1951 13.6039 11.9804 13.5213 11.78C13.4387 11.5796 13.3174 11.3974 13.1643 11.244C13.0112 11.0905 12.8294 10.9688 12.6292 10.8857C12.429 10.8026 12.2144 10.7599 11.9976 10.7599Z" fill="#00CCFF"/>
<path d="M11.9978 10.792C11.5692 10.792 11.1582 10.9622 10.8551 11.2653C10.5521 11.5684 10.3818 11.9794 10.3818 12.408H10.4378C10.4378 11.9943 10.6022 11.5975 10.8947 11.3049C11.1873 11.0123 11.5841 10.848 11.9978 10.848C12.4116 10.848 12.8084 11.0123 13.1009 11.3049C13.3935 11.5975 13.5578 11.9943 13.5578 12.408H13.6138C13.6117 11.9808 13.4405 11.5718 13.1377 11.2705C12.8349 10.9691 12.425 10.8 11.9978 10.8V10.792Z" fill="#0000FF"/>
<path d="M11.9983 10.828C11.7879 10.8279 11.5796 10.8698 11.3856 10.9512C11.1916 11.0325 11.0157 11.1517 10.8682 11.3018C10.7208 11.4518 10.6047 11.6298 10.5268 11.8252C10.4488 12.0206 10.4106 12.2296 10.4143 12.44H10.4463V12.408C10.4506 11.9964 10.6181 11.6033 10.9122 11.3152C11.2062 11.0272 11.6027 10.8677 12.0143 10.872C12.4259 10.8762 12.819 11.0438 13.107 11.3379C13.3951 11.6319 13.5545 12.0284 13.5503 12.44H13.5823V12.408C13.5823 12.2 13.5413 11.994 13.4617 11.8018C13.3821 11.6096 13.2654 11.435 13.1184 11.2879C12.9713 11.1408 12.7966 11.0242 12.6045 10.9445C12.4123 10.8649 12.2063 10.824 11.9983 10.824V10.828Z" fill="#800080"/>
<path d="M12.014 11.5239C11.986 11.5239 11.966 11.5039 11.942 11.4999C11.9303 11.5102 11.9215 11.5233 11.9166 11.5381C11.9117 11.5529 11.9108 11.5687 11.914 11.5839C11.926 11.5879 11.926 11.5999 11.95 11.6199C11.974 11.6399 11.97 11.6479 11.966 11.6999C11.966 11.7159 11.97 11.7599 11.99 11.7639C12.01 11.7679 12.03 11.7519 12.034 11.7159C12.038 11.6879 12.05 11.6679 12.062 11.6519C12.074 11.5759 12.054 11.5479 12.014 11.5239Z" fill="#510000"/>
<path d="M11.8864 11.34C11.8624 11.34 11.8224 11.38 11.8064 11.36C11.7984 11.348 11.7944 11.324 11.8064 11.304C11.8244 11.2642 11.8555 11.2318 11.8944 11.212C11.9864 11.156 12.0504 11.172 12.0944 11.252C12.1384 11.324 12.1824 11.404 12.1864 11.468C12.1864 11.488 12.1984 11.524 12.1784 11.544C12.1264 11.6 11.9944 11.484 11.9184 11.504C11.8944 11.508 11.8624 11.528 11.8384 11.512C11.8224 11.5 11.8384 11.472 11.8504 11.46C11.8744 11.44 11.9104 11.364 11.9064 11.332C11.9064 11.316 11.9064 11.34 11.8864 11.34Z" fill="#FF0000"/>
<path d="M11.8783 11.3039C11.8303 11.3199 11.8383 11.3439 11.8143 11.3639C11.8223 11.3679 11.8463 11.3759 11.8703 11.3519C11.8783 11.3439 11.8903 11.3399 11.8983 11.3399L11.8703 11.3679C11.8465 11.3875 11.8274 11.4121 11.8143 11.4399C11.8023 11.4719 11.7983 11.5079 11.8023 11.5119C11.8023 11.5119 11.8183 11.5439 11.8623 11.5599C11.9423 11.5919 11.9583 11.6599 12.0423 11.6599C12.1063 11.6599 12.0983 11.6159 12.1503 11.6239C12.1903 11.6319 12.2183 11.5959 12.1743 11.5759C12.103 11.5619 12.0296 11.5619 11.9583 11.5759C11.9423 11.4159 11.9583 11.4719 11.9543 11.3999C11.9503 11.3319 11.9263 11.3279 11.9543 11.2679C11.9343 11.3079 11.9063 11.2999 11.8743 11.2999L11.8783 11.3039Z" fill="url(#paint0_linear_208_23393)"/>
<path d="M12.0382 11.1919L12.0342 11.2159L12.0462 11.2559L12.0542 11.2959C12.0542 11.3079 12.0702 11.3119 12.0822 11.3199C12.0982 11.3319 12.0822 11.3599 12.0942 11.3639C12.1022 11.3639 12.1142 11.3239 12.1142 11.3159V11.2879C12.1079 11.2757 12.1012 11.2637 12.0942 11.2519C12.0917 11.2478 12.089 11.2438 12.0862 11.2399C12.0773 11.2264 12.0665 11.2143 12.0542 11.2039C12.0503 11.201 12.0463 11.1984 12.0422 11.1959L12.0342 11.1919H12.0382Z" fill="#FF2A2A"/>
<path d="M12.0496 11.4959L11.9696 11.4679C11.9176 11.4519 11.8656 11.4199 11.8296 11.4359C11.8176 11.4399 11.8176 11.4519 11.8136 11.4719C11.8136 11.4919 11.7936 11.5239 11.8136 11.5119C11.8376 11.4959 11.9096 11.5439 11.9336 11.5559C11.9456 11.5639 11.9736 11.5799 11.9776 11.5959C11.9856 11.6199 11.9776 11.6679 11.9776 11.6919C11.9776 11.7119 11.9856 11.7639 12.0056 11.7719C12.0296 11.7759 12.0496 11.7559 12.0576 11.7199C12.0696 11.6839 12.0736 11.6639 12.0896 11.6439C12.1056 11.6239 12.1216 11.6119 12.1416 11.6079C12.1656 11.6079 12.1976 11.6279 12.1976 11.5999C12.1976 11.5839 12.1816 11.5679 12.1896 11.5439C12.1936 11.5239 12.1736 11.5279 12.1536 11.5199L12.0456 11.4959H12.0496Z" fill="url(#paint1_linear_208_23393)"/>
<path d="M11.9339 11.5559C11.9179 11.5479 11.8419 11.4959 11.8139 11.5159C11.8019 11.5159 11.7979 11.5159 11.7979 11.5039L11.8059 11.4679C11.8059 11.4559 11.8139 11.4359 11.8259 11.4279C11.8539 11.4039 11.9179 11.4479 11.9499 11.4599L11.9339 11.5559Z" fill="#910000"/>
<path d="M12.0698 11.6559C12.1058 11.5919 12.1298 11.5999 12.1738 11.5999C12.1898 11.5999 12.1938 11.5879 12.1898 11.5719C12.1778 11.5959 12.1218 11.5719 12.0898 11.5839C12.0298 11.6119 12.0418 11.7319 12.0098 11.7439C12.0418 11.7719 12.0538 11.6759 12.0698 11.6559Z" fill="#FF3A3A"/>
<path d="M10.1217 12.304L9.72168 12.996H14.2777L13.8777 12.308H10.1257L10.1217 12.304Z" fill="white"/>
<path d="M9.98534 12.856C9.92248 12.8558 9.85968 12.8599 9.79734 12.868L9.77734 12.904C9.87334 12.892 9.96534 12.876 10.0653 12.876C10.1933 12.876 10.3133 12.908 10.4533 12.908H10.6373C10.7773 12.908 10.8933 12.876 11.0253 12.876C11.1573 12.876 11.2773 12.908 11.4173 12.908H11.6013C11.7413 12.908 11.8573 12.876 11.9893 12.876C12.1213 12.876 12.2413 12.908 12.3813 12.908H12.5613C12.7013 12.908 12.8213 12.876 12.9533 12.876C13.0853 12.876 13.2053 12.908 13.3453 12.908H13.5253C13.6653 12.908 13.7853 12.876 13.9173 12.876C14.0213 12.876 14.1173 12.896 14.2173 12.904L14.1973 12.864C14.1389 12.8579 14.0801 12.8552 14.0213 12.856H13.8413C13.7013 12.856 13.5813 12.884 13.4493 12.888C13.3173 12.888 13.1973 12.856 13.0573 12.856H12.8773C12.7373 12.856 12.6173 12.884 12.4853 12.888C12.3533 12.888 12.2333 12.856 12.0933 12.856H11.9173C11.7773 12.856 11.6573 12.884 11.5253 12.888C11.3933 12.888 11.2733 12.856 11.1333 12.856H10.9533C10.8133 12.856 10.6933 12.884 10.5613 12.888C10.4293 12.888 10.3133 12.856 10.1733 12.856H9.98934H9.98534Z" fill="url(#paint2_linear_208_23393)"/>
<path d="M9.98534 12.856C9.92248 12.8558 9.85968 12.8599 9.79734 12.868L9.77734 12.904C9.87334 12.892 9.96534 12.876 10.0653 12.876C10.1933 12.876 10.3133 12.908 10.4533 12.908H10.6373C10.7773 12.908 10.8933 12.876 11.0253 12.876C11.1573 12.876 11.2773 12.908 11.4173 12.908H11.6013C11.7413 12.908 11.8573 12.876 11.9893 12.876C12.1213 12.876 12.2413 12.908 12.3813 12.908H12.5613C12.7013 12.908 12.8213 12.876 12.9533 12.876C13.0853 12.876 13.2053 12.908 13.3453 12.908H13.5253C13.6653 12.908 13.7853 12.876 13.9173 12.876C14.0213 12.876 14.1173 12.896 14.2173 12.904L14.1973 12.864C14.1389 12.8579 14.0801 12.8552 14.0213 12.856H13.8413C13.7013 12.856 13.5813 12.884 13.4493 12.888C13.3173 12.888 13.1973 12.856 13.0573 12.856H12.8773C12.7373 12.856 12.6173 12.884 12.4853 12.888C12.3533 12.888 12.2333 12.856 12.0933 12.856H11.9173C11.7773 12.856 11.6573 12.884 11.5253 12.888C11.3933 12.888 11.2733 12.856 11.1333 12.856H10.9533C10.8133 12.856 10.6933 12.884 10.5613 12.888C10.4293 12.888 10.3133 12.856 10.1733 12.856H9.98934H9.98534Z" fill="url(#paint3_linear_208_23393)"/>
<path d="M9.98534 12.856C9.92248 12.8558 9.85968 12.8599 9.79734 12.868L9.77734 12.904C9.87334 12.892 9.96534 12.876 10.0653 12.876C10.1933 12.876 10.3133 12.908 10.4533 12.908H10.6373C10.7773 12.908 10.8933 12.876 11.0253 12.876C11.1573 12.876 11.2773 12.908 11.4173 12.908H11.6013C11.7413 12.908 11.8573 12.876 11.9893 12.876C12.1213 12.876 12.2413 12.908 12.3813 12.908H12.5613C12.7013 12.908 12.8213 12.876 12.9533 12.876C13.0853 12.876 13.2053 12.908 13.3453 12.908H13.5253C13.6653 12.908 13.7853 12.876 13.9173 12.876C14.0213 12.876 14.1173 12.896 14.2173 12.904L14.1973 12.864C14.1389 12.8579 14.0801 12.8552 14.0213 12.856H13.8413C13.7013 12.856 13.5813 12.884 13.4493 12.888C13.3173 12.888 13.1973 12.856 13.0573 12.856H12.8773C12.7373 12.856 12.6173 12.884 12.4853 12.888C12.3533 12.888 12.2333 12.856 12.0933 12.856H11.9173C11.7773 12.856 11.6573 12.884 11.5253 12.888C11.3933 12.888 11.2733 12.856 11.1333 12.856H10.9533C10.8133 12.856 10.6933 12.884 10.5613 12.888C10.4293 12.888 10.3133 12.856 10.1733 12.856H9.98934H9.98534Z" fill="url(#paint4_linear_208_23393)"/>
<path d="M9.98534 12.856C9.92248 12.8558 9.85968 12.8599 9.79734 12.868L9.77734 12.904C9.87334 12.892 9.96534 12.876 10.0653 12.876C10.1933 12.876 10.3133 12.908 10.4533 12.908H10.6373C10.7773 12.908 10.8933 12.876 11.0253 12.876C11.1573 12.876 11.2773 12.908 11.4173 12.908H11.6013C11.7413 12.908 11.8573 12.876 11.9893 12.876C12.1213 12.876 12.2413 12.908 12.3813 12.908H12.5613C12.7013 12.908 12.8213 12.876 12.9533 12.876C13.0853 12.876 13.2053 12.908 13.3453 12.908H13.5253C13.6653 12.908 13.7853 12.876 13.9173 12.876C14.0213 12.876 14.1173 12.896 14.2173 12.904L14.1973 12.864C14.1389 12.8579 14.0801 12.8552 14.0213 12.856H13.8413C13.7013 12.856 13.5813 12.884 13.4493 12.888C13.3173 12.888 13.1973 12.856 13.0573 12.856H12.8773C12.7373 12.856 12.6173 12.884 12.4853 12.888C12.3533 12.888 12.2333 12.856 12.0933 12.856H11.9173C11.7773 12.856 11.6573 12.884 11.5253 12.888C11.3933 12.888 11.2733 12.856 11.1333 12.856H10.9533C10.8133 12.856 10.6933 12.884 10.5613 12.888C10.4293 12.888 10.3133 12.856 10.1733 12.856H9.98934H9.98534Z" fill="url(#paint5_linear_208_23393)"/>
<path d="M9.98534 12.856C9.92248 12.8558 9.85968 12.8599 9.79734 12.868L9.77734 12.904C9.87334 12.892 9.96534 12.876 10.0653 12.876C10.1933 12.876 10.3133 12.908 10.4533 12.908H10.6373C10.7773 12.908 10.8933 12.876 11.0253 12.876C11.1573 12.876 11.2773 12.908 11.4173 12.908H11.6013C11.7413 12.908 11.8573 12.876 11.9893 12.876C12.1213 12.876 12.2413 12.908 12.3813 12.908H12.5613C12.7013 12.908 12.8213 12.876 12.9533 12.876C13.0853 12.876 13.2053 12.908 13.3453 12.908H13.5253C13.6653 12.908 13.7853 12.876 13.9173 12.876C14.0213 12.876 14.1173 12.896 14.2173 12.904L14.1973 12.864C14.1389 12.8579 14.0801 12.8552 14.0213 12.856H13.8413C13.7013 12.856 13.5813 12.884 13.4493 12.888C13.3173 12.888 13.1973 12.856 13.0573 12.856H12.8773C12.7373 12.856 12.6173 12.884 12.4853 12.888C12.3533 12.888 12.2333 12.856 12.0933 12.856H11.9173C11.7773 12.856 11.6573 12.884 11.5253 12.888C11.3933 12.888 11.2733 12.856 11.1333 12.856H10.9533C10.8133 12.856 10.6933 12.884 10.5613 12.888C10.4293 12.888 10.3133 12.856 10.1733 12.856H9.98934H9.98534Z" fill="url(#paint6_linear_208_23393)"/>
<path d="M9.98534 12.856C9.92248 12.8558 9.85968 12.8599 9.79734 12.868L9.77734 12.904C9.87334 12.892 9.96534 12.876 10.0653 12.876C10.1933 12.876 10.3133 12.908 10.4533 12.908H10.6373C10.7773 12.908 10.8933 12.876 11.0253 12.876C11.1573 12.876 11.2773 12.908 11.4173 12.908H11.6013C11.7413 12.908 11.8573 12.876 11.9893 12.876C12.1213 12.876 12.2413 12.908 12.3813 12.908H12.5613C12.7013 12.908 12.8213 12.876 12.9533 12.876C13.0853 12.876 13.2053 12.908 13.3453 12.908H13.5253C13.6653 12.908 13.7853 12.876 13.9173 12.876C14.0213 12.876 14.1173 12.896 14.2173 12.904L14.1973 12.864C14.1389 12.8579 14.0801 12.8552 14.0213 12.856H13.8413C13.7013 12.856 13.5813 12.884 13.4493 12.888C13.3173 12.888 13.1973 12.856 13.0573 12.856H12.8773C12.7373 12.856 12.6173 12.884 12.4853 12.888C12.3533 12.888 12.2333 12.856 12.0933 12.856H11.9173C11.7773 12.856 11.6573 12.884 11.5253 12.888C11.3933 12.888 11.2733 12.856 11.1333 12.856H10.9533C10.8133 12.856 10.6933 12.884 10.5613 12.888C10.4293 12.888 10.3133 12.856 10.1733 12.856H9.98934H9.98534Z" fill="url(#paint7_linear_208_23393)"/>
<path d="M9.98534 12.856C9.92248 12.8558 9.85968 12.8599 9.79734 12.868L9.77734 12.904C9.87334 12.892 9.96534 12.876 10.0653 12.876C10.1933 12.876 10.3133 12.908 10.4533 12.908H10.6373C10.7773 12.908 10.8933 12.876 11.0253 12.876C11.1573 12.876 11.2773 12.908 11.4173 12.908H11.6013C11.7413 12.908 11.8573 12.876 11.9893 12.876C12.1213 12.876 12.2413 12.908 12.3813 12.908H12.5613C12.7013 12.908 12.8213 12.876 12.9533 12.876C13.0853 12.876 13.2053 12.908 13.3453 12.908H13.5253C13.6653 12.908 13.7853 12.876 13.9173 12.876C14.0213 12.876 14.1173 12.896 14.2173 12.904L14.1973 12.864C14.1389 12.8579 14.0801 12.8552 14.0213 12.856H13.8413C13.7013 12.856 13.5813 12.884 13.4493 12.888C13.3173 12.888 13.1973 12.856 13.0573 12.856H12.8773C12.7373 12.856 12.6173 12.884 12.4853 12.888C12.3533 12.888 12.2333 12.856 12.0933 12.856H11.9173C11.7773 12.856 11.6573 12.884 11.5253 12.888C11.3933 12.888 11.2733 12.856 11.1333 12.856H10.9533C10.8133 12.856 10.6933 12.884 10.5613 12.888C10.4293 12.888 10.3133 12.856 10.1733 12.856H9.98934H9.98534Z" fill="url(#paint8_linear_208_23393)"/>
<path d="M9.98534 12.856C9.92248 12.8558 9.85968 12.8599 9.79734 12.868L9.77734 12.904C9.87334 12.892 9.96534 12.876 10.0653 12.876C10.1933 12.876 10.3133 12.908 10.4533 12.908H10.6373C10.7773 12.908 10.8933 12.876 11.0253 12.876C11.1573 12.876 11.2773 12.908 11.4173 12.908H11.6013C11.7413 12.908 11.8573 12.876 11.9893 12.876C12.1213 12.876 12.2413 12.908 12.3813 12.908H12.5613C12.7013 12.908 12.8213 12.876 12.9533 12.876C13.0853 12.876 13.2053 12.908 13.3453 12.908H13.5253C13.6653 12.908 13.7853 12.876 13.9173 12.876C14.0213 12.876 14.1173 12.896 14.2173 12.904L14.1973 12.864C14.1389 12.8579 14.0801 12.8552 14.0213 12.856H13.8413C13.7013 12.856 13.5813 12.884 13.4493 12.888C13.3173 12.888 13.1973 12.856 13.0573 12.856H12.8773C12.7373 12.856 12.6173 12.884 12.4853 12.888C12.3533 12.888 12.2333 12.856 12.0933 12.856H11.9173C11.7773 12.856 11.6573 12.884 11.5253 12.888C11.3933 12.888 11.2733 12.856 11.1333 12.856H10.9533C10.8133 12.856 10.6933 12.884 10.5613 12.888C10.4293 12.888 10.3133 12.856 10.1733 12.856H9.98934H9.98534Z" fill="url(#paint9_linear_208_23393)"/>
<path d="M9.98534 12.856C9.92248 12.8558 9.85968 12.8599 9.79734 12.868L9.77734 12.904C9.87334 12.892 9.96534 12.876 10.0653 12.876C10.1933 12.876 10.3133 12.908 10.4533 12.908H10.6373C10.7773 12.908 10.8933 12.876 11.0253 12.876C11.1573 12.876 11.2773 12.908 11.4173 12.908H11.6013C11.7413 12.908 11.8573 12.876 11.9893 12.876C12.1213 12.876 12.2413 12.908 12.3813 12.908H12.5613C12.7013 12.908 12.8213 12.876 12.9533 12.876C13.0853 12.876 13.2053 12.908 13.3453 12.908H13.5253C13.6653 12.908 13.7853 12.876 13.9173 12.876C14.0213 12.876 14.1173 12.896 14.2173 12.904L14.1973 12.864C14.1389 12.8579 14.0801 12.8552 14.0213 12.856H13.8413C13.7013 12.856 13.5813 12.884 13.4493 12.888C13.3173 12.888 13.1973 12.856 13.0573 12.856H12.8773C12.7373 12.856 12.6173 12.884 12.4853 12.888C12.3533 12.888 12.2333 12.856 12.0933 12.856H11.9173C11.7773 12.856 11.6573 12.884 11.5253 12.888C11.3933 12.888 11.2733 12.856 11.1333 12.856H10.9533C10.8133 12.856 10.6933 12.884 10.5613 12.888C10.4293 12.888 10.3133 12.856 10.1733 12.856H9.98934H9.98534Z" fill="url(#paint10_linear_208_23393)"/>
<path d="M10.1255 12.2999V12.3079H13.8735L13.8695 12.2999H10.1255ZM10.1175 12.3119L10.1135 12.3239H13.8775L13.8735 12.3119H10.1135H10.1175ZM10.1095 12.3279L10.1015 12.3399H13.8935L13.8855 12.3279H10.1095ZM10.0975 12.3479L10.0855 12.3679H13.9095L13.8975 12.3479H10.0975ZM10.0815 12.3759L10.0695 12.3959H13.9255L13.9135 12.3759H10.0815ZM10.0655 12.4039L10.0575 12.4199H13.9375L13.9295 12.4039H10.0655ZM10.0495 12.4319L10.0415 12.4479H13.9575L13.9455 12.4319H10.0495ZM10.0335 12.4599L10.0215 12.4839H13.9735L13.9615 12.4599H10.0375H10.0335Z" fill="url(#paint11_linear_208_23393)"/>
<path d="M10.2939 12.4919C10.4299 12.5199 10.4419 12.4919 10.4419 12.4919H10.2939ZM13.5539 12.4919C13.5539 12.4919 13.5659 12.5199 13.7019 12.4919H13.5539Z" fill="url(#paint12_linear_208_23393)"/>
<path d="M13.2222 11.8799C13.1542 11.8799 13.1342 11.9159 13.1342 11.9159C13.0262 12.3399 12.6622 12.7679 12.2302 12.7679H11.9102V13.1999H14.3661L14.1181 12.7599C13.7301 12.7039 13.4142 12.3079 13.3142 11.9159C13.3142 11.9159 13.2902 11.8799 13.2222 11.8799Z" fill="url(#paint13_linear_208_23393)"/>
<path d="M13.2219 11.8998C13.1899 11.8998 13.1739 11.9038 13.1619 11.9118L13.1499 11.9238C13.0899 12.1453 12.9742 12.3477 12.8139 12.5118C12.6539 12.6758 12.4539 12.7878 12.2299 12.7878H11.9219V13.1838H14.3579L14.1299 12.7838C13.9419 12.7558 13.7699 12.6558 13.6339 12.5118C13.4735 12.3477 13.3578 12.1453 13.2979 11.9238L13.2859 11.9118C13.2662 11.9016 13.2439 11.8974 13.2219 11.8998Z" fill="#97C924"/>
<path d="M13.2219 11.8999H13.2379V12.3319C13.234 12.4228 13.2065 12.511 13.1579 12.5879C13.1379 12.6519 13.1179 12.6279 13.0659 12.7039C12.9984 12.7272 12.9287 12.7432 12.8579 12.7519C12.7579 12.7679 12.5379 12.7839 12.4219 12.7559C12.5707 12.7104 12.7056 12.6278 12.8139 12.5159C12.8436 12.4841 12.8717 12.4507 12.8979 12.4159C12.9425 12.3605 12.9826 12.3016 13.0179 12.2399L13.0579 12.1599C13.077 12.1221 13.0944 12.0834 13.1099 12.0439C13.1253 12.0046 13.1387 11.9646 13.1499 11.9239L13.1619 11.9119L13.1859 11.9039L13.2259 11.8999H13.2219Z" fill="#EDE71F"/>
<path d="M13.1981 11.9559C13.1781 12.1959 13.1061 12.4839 12.9301 12.6679C12.8661 12.7199 12.7821 12.7719 12.7061 12.7599C12.9741 12.5399 13.1381 12.1999 13.1941 11.9559H13.1981Z" fill="#C6CB24"/>
<path d="M12.9778 12.3718C12.9378 12.4798 12.7858 12.6398 12.6258 12.7718H12.5098C12.6098 12.7638 12.8418 12.5718 12.9778 12.3718Z" fill="#9ECB34"/>
<path d="M13.2222 11.8799C13.1542 11.8799 13.1342 11.9159 13.1342 11.9159C13.0262 12.3399 12.6622 12.7679 12.2302 12.7679H11.9102V13.1999H14.3661L14.1181 12.7599C13.7301 12.7039 13.4142 12.3079 13.3142 11.9159C13.3142 11.9159 13.2902 11.8799 13.2222 11.8799Z" fill="url(#paint14_linear_208_23393)"/>
<path d="M13.2219 11.8998C13.1899 11.8998 13.1739 11.9038 13.1619 11.9118L13.1499 11.9238C13.0899 12.1453 12.9742 12.3477 12.8139 12.5118C12.6539 12.6758 12.4539 12.7878 12.2299 12.7878H11.9219V13.1838H14.3579L14.1299 12.7838C13.9419 12.7558 13.7699 12.6558 13.6339 12.5118C13.4735 12.3477 13.3578 12.1453 13.2979 11.9238L13.2859 11.9118C13.2662 11.9016 13.2439 11.8974 13.2219 11.8998Z" fill="#97C924"/>
<path d="M13.2219 11.8999H13.2379V12.3319C13.234 12.4228 13.2065 12.511 13.1579 12.5879C13.1379 12.6519 13.1179 12.6279 13.0659 12.7039C12.9984 12.7272 12.9287 12.7432 12.8579 12.7519C12.7579 12.7679 12.5379 12.7839 12.4219 12.7559C12.5707 12.7104 12.7056 12.6278 12.8139 12.5159C12.8436 12.4841 12.8717 12.4507 12.8979 12.4159C12.9425 12.3605 12.9826 12.3016 13.0179 12.2399L13.0579 12.1599C13.077 12.1221 13.0944 12.0834 13.1099 12.0439C13.1253 12.0046 13.1387 11.9646 13.1499 11.9239L13.1619 11.9119L13.1859 11.9039L13.2259 11.8999H13.2219Z" fill="#EDE71F"/>
<path d="M13.1981 11.9559C13.1781 12.1959 13.1061 12.4839 12.9301 12.6679C12.8661 12.7199 12.7821 12.7719 12.7061 12.7599C12.9741 12.5399 13.1381 12.1999 13.1941 11.9559H13.1981Z" fill="#C6CB24"/>
<path d="M12.9778 12.3718C12.9378 12.4798 12.7858 12.6398 12.6258 12.7718H12.5098C12.6098 12.7638 12.8418 12.5718 12.9778 12.3718Z" fill="#9ECB34"/>
<path d="M12.0856 11.9199C12.1976 12.3399 12.5576 12.7679 12.9896 12.7679H13.3136V13.1999H10.6816V12.7679H11.0016C11.4336 12.7679 11.7976 12.3399 11.9056 11.9159C11.9056 11.9159 11.9296 11.8839 11.9976 11.8839C12.0656 11.8839 12.0856 11.9159 12.0856 11.9159V11.9199Z" fill="url(#paint15_linear_208_23393)"/>
<path d="M11.9973 11.8999C12.0293 11.8999 12.0453 11.9079 12.0573 11.9119L12.0693 11.9239C12.1292 12.1454 12.2449 12.3478 12.4053 12.5119C12.5653 12.6759 12.7653 12.7879 12.9893 12.7879H13.2973V13.1839H10.6973V12.7839H11.0053C11.2253 12.7839 11.4293 12.6759 11.5893 12.5119C11.7482 12.3473 11.8624 12.145 11.9213 11.9239L11.9333 11.9119C11.9531 11.9021 11.9752 11.8979 11.9973 11.8999Z" fill="#97C924"/>
<path d="M11.9693 11.8999C11.9653 11.8997 11.9613 11.8997 11.9573 11.8999L11.9333 11.9119L11.9213 11.9239C11.9101 11.9646 11.8968 12.0047 11.8813 12.0439C11.8672 12.0846 11.8511 12.1247 11.8333 12.1639C11.8207 12.1897 11.8074 12.215 11.7933 12.2399C11.758 12.3017 11.7179 12.3605 11.6733 12.4159C11.6469 12.4493 11.6189 12.4814 11.5893 12.5119C11.4815 12.6252 11.3465 12.7092 11.1973 12.7559C11.3093 12.7839 11.3573 12.7559 11.4573 12.7399C11.5373 12.7279 11.6253 12.7159 11.6973 12.6919C11.7573 12.6119 11.7373 12.6399 11.7573 12.5759C11.8053 12.4879 11.8773 12.4079 11.8933 12.3079C11.9573 12.1879 11.9693 11.9639 11.9693 11.8999Z" fill="#EDE71F"/>
<path d="M11.9695 11.9559C11.9535 12.1959 11.8775 12.4839 11.7015 12.6679C11.6375 12.7199 11.5575 12.7719 11.4775 12.7599C11.7495 12.5399 11.9135 12.1999 11.9695 11.9559Z" fill="#C6CB24"/>
<path d="M11.7492 12.3719C11.6622 12.5292 11.5421 12.6657 11.3972 12.7719H11.2852C11.3852 12.7639 11.6132 12.5719 11.7492 12.3719Z" fill="#9ECB34"/>
<path d="M12.0374 11.9039L12.0574 11.9119L12.0734 11.9239C12.0848 11.9646 12.0981 12.0046 12.1134 12.0439C12.1275 12.0847 12.1435 12.1247 12.1614 12.1639L12.2014 12.2399C12.2367 12.3017 12.2768 12.3605 12.3214 12.4159C12.3477 12.4494 12.3757 12.4814 12.4054 12.5119C12.5125 12.6298 12.6472 12.7191 12.7974 12.7719C12.5054 12.7719 12.3814 12.7479 12.2774 12.6119C12.2018 12.5319 12.1444 12.4363 12.1094 12.3319C12.0894 12.2519 12.0294 12.0719 12.0334 11.9039H12.0374Z" fill="#EDE71F"/>
<path d="M12.0576 11.9559C12.0736 12.1959 12.1456 12.4359 12.3216 12.6199C12.3856 12.6759 12.4656 12.7239 12.5456 12.7119C12.2943 12.5296 12.1203 12.26 12.0576 11.9559Z" fill="#C6CB24"/>
<path d="M11.3901 11.8799C11.3181 11.8799 11.2981 11.9159 11.2981 11.9159C11.1981 12.3079 10.8261 12.8079 10.4381 12.8679L10.2461 13.1999H12.2061V12.7479C11.8541 12.6519 11.5701 12.2799 11.4781 11.9159C11.4781 11.9159 11.4581 11.8839 11.3861 11.8839L11.3901 11.8799Z" fill="url(#paint16_linear_208_23393)"/>
<path d="M11.3898 11.8999C11.3578 11.8999 11.3378 11.9079 11.3258 11.9119L11.3138 11.9239C11.2465 12.1434 11.1364 12.3473 10.9898 12.5239C10.8538 12.6959 10.6018 12.8679 10.4298 12.8839L10.2578 13.1839H12.1778V12.7559C12.0334 12.7083 11.9029 12.6259 11.7978 12.5159C11.6369 12.3507 11.5212 12.1468 11.4618 11.9239L11.4498 11.9119C11.4312 11.9026 11.4105 11.8985 11.3898 11.8999Z" fill="#97C924"/>
<path d="M11.3338 11.9559C11.3098 12.3159 11.1098 12.7759 10.8818 12.8519C10.8058 12.8799 10.6778 12.8879 10.6338 12.8919C10.8102 12.7939 10.964 12.66 11.0852 12.4987C11.2065 12.3375 11.2926 12.1526 11.3378 11.9559H11.3338Z" fill="#93BC30"/>
<path d="M11.3901 11.8999H11.3701V12.3319C11.3701 12.4239 11.4061 12.4999 11.4501 12.5879L11.4581 12.6079C11.4781 12.6519 11.4901 12.6679 11.5501 12.7159C11.7219 12.8385 11.932 12.8953 12.1421 12.8759C12.0981 12.8399 12.0501 12.8079 12.0061 12.7799L12.1861 12.7599C12.0379 12.7115 11.9043 12.6261 11.7981 12.5119C11.7788 12.4925 11.7601 12.4725 11.7421 12.4519L11.7181 12.4199C11.6708 12.3634 11.628 12.3032 11.5901 12.2399C11.5759 12.2137 11.5626 12.187 11.5501 12.1599C11.5256 12.1093 11.5042 12.0572 11.4861 12.0039C11.4772 11.9775 11.4692 11.9508 11.4621 11.9239L11.4501 11.9119C11.4425 11.9081 11.4345 11.9054 11.4261 11.9039C11.413 11.9007 11.3996 11.8994 11.3861 11.8999H11.3901Z" fill="#EDE71F"/>
<path d="M11.4141 11.9559C11.4341 12.1959 11.5061 12.4839 11.6821 12.6679C11.7461 12.7199 11.8261 12.7719 11.9061 12.7599C11.6621 12.5499 11.49 12.2688 11.4141 11.9559Z" fill="#CCD11E"/>
<path d="M11.582 12.2918C11.7116 12.5452 11.9153 12.7532 12.166 12.8878H12.266C12.09 12.7918 11.806 12.6558 11.586 12.2878L11.582 12.2918Z" fill="#9ECB34"/>
<path d="M11.3901 11.8799C11.3181 11.8799 11.2981 11.9159 11.2981 11.9159C11.1981 12.3079 10.8261 12.8079 10.4381 12.8679L10.2461 13.1999H12.2061V12.7479C11.8541 12.6519 11.5701 12.2799 11.4781 11.9159C11.4781 11.9159 11.4581 11.8839 11.3861 11.8839L11.3901 11.8799Z" fill="url(#paint17_linear_208_23393)"/>
<path d="M11.3898 11.8999C11.3578 11.8999 11.3378 11.9079 11.3258 11.9119L11.3138 11.9239C11.2465 12.1434 11.1364 12.3473 10.9898 12.5239C10.8538 12.6959 10.6018 12.8679 10.4298 12.8839L10.2578 13.1839H12.1778V12.7559C12.0334 12.7083 11.9029 12.6259 11.7978 12.5159C11.6369 12.3507 11.5212 12.1468 11.4618 11.9239L11.4498 11.9119C11.4312 11.9026 11.4105 11.8985 11.3898 11.8999Z" fill="#97C924"/>
<path d="M11.3338 11.9559C11.3098 12.3159 11.1098 12.7759 10.8818 12.8519C10.8058 12.8799 10.6778 12.8879 10.6338 12.8919C10.8102 12.7939 10.964 12.66 11.0852 12.4987C11.2065 12.3375 11.2926 12.1526 11.3378 11.9559H11.3338Z" fill="#93BC30"/>
<path d="M11.3901 11.8999H11.3701V12.3319C11.3701 12.4239 11.4061 12.4999 11.4501 12.5879L11.4581 12.6079C11.4781 12.6519 11.4901 12.6679 11.5501 12.7159C11.7219 12.8385 11.932 12.8953 12.1421 12.8759C12.0981 12.8399 12.0501 12.8079 12.0061 12.7799L12.1861 12.7599C12.0379 12.7115 11.9043 12.6261 11.7981 12.5119C11.7788 12.4925 11.7601 12.4725 11.7421 12.4519L11.7181 12.4199C11.6708 12.3634 11.628 12.3032 11.5901 12.2399C11.5759 12.2137 11.5626 12.187 11.5501 12.1599C11.5256 12.1093 11.5042 12.0572 11.4861 12.0039C11.4772 11.9775 11.4692 11.9508 11.4621 11.9239L11.4501 11.9119C11.4425 11.9081 11.4345 11.9054 11.4261 11.9039C11.413 11.9007 11.3996 11.8994 11.3861 11.8999H11.3901Z" fill="#EDE71F"/>
<path d="M11.4141 11.9559C11.4341 12.1959 11.5061 12.4839 11.6821 12.6679C11.7461 12.7199 11.8261 12.7719 11.9061 12.7599C11.6621 12.5499 11.49 12.2688 11.4141 11.9559Z" fill="#C6CB24"/>
<path d="M11.582 12.2918C11.7116 12.5452 11.9153 12.7532 12.166 12.8878H12.266C12.09 12.7918 11.806 12.6558 11.586 12.2878L11.582 12.2918Z" fill="#9ECB34"/>
<path d="M14.2582 12.9879C14.2342 12.9959 14.0822 12.9799 14.0022 12.9879L13.9502 12.9999H13.8182C13.6742 12.9999 13.5502 13.0399 13.4142 13.0399C13.2782 13.0399 13.1542 12.9999 13.0142 12.9999H12.8782C12.7342 12.9999 12.6102 13.0399 12.4742 13.0399C12.3382 13.0399 12.2142 12.9999 12.0742 12.9999H11.9382C11.7942 12.9999 11.6702 13.0399 11.5382 13.0399C11.3982 13.0399 11.2782 12.9999 11.1342 12.9999H10.9982C10.8542 12.9999 10.7342 13.0399 10.5982 13.0399C10.4582 13.0399 10.3382 12.9999 10.1942 12.9999H10.0582C9.94619 12.9999 9.81019 13.0239 9.7022 13.0319L9.4502 13.4679H14.5462L14.2582 12.9879Z" fill="white"/>
<path d="M13.9179 12.924H13.8939C13.7659 12.928 13.6699 12.968 13.4459 12.968C13.2219 12.968 13.1979 12.9279 12.9419 12.9359C12.7019 12.9359 12.6059 12.9839 12.4739 12.9839C12.3459 12.9839 12.1379 12.9559 11.9739 12.9719C11.8139 12.9879 11.6219 13.0239 11.4939 13.0239C11.3379 13.0239 11.1819 12.9959 11.0219 13.0119C10.8579 13.0279 10.7819 13.0719 10.5779 13.0719C10.4019 13.0719 10.2179 13.0439 10.0659 13.0439C9.92988 13.0439 9.77788 13.0839 9.66588 13.0999L9.62988 13.1599C9.72188 13.1479 9.97388 13.1079 10.0619 13.1079C10.1579 13.1079 10.4899 13.1279 10.6739 13.1199C10.8619 13.1159 10.8819 13.0719 11.1019 13.0719C11.2539 13.0719 11.3659 13.0879 11.5219 13.0879C11.6219 13.0879 11.7099 13.0399 11.8579 13.0399L11.9699 13.0359C12.0939 13.0159 12.3059 13.0359 12.4499 13.0439C12.5819 13.0519 12.6699 13.0199 12.8099 13.0159L12.9859 13.0119C13.1259 13.0039 13.2419 13.0359 13.3739 13.0359C13.5019 13.0279 13.6299 12.9959 13.7659 12.9959L13.9459 12.988C14.0379 12.988 14.1819 12.988 14.2779 13.008L14.2459 12.9519C14.1499 12.9479 14.0339 12.924 13.9179 12.924Z" fill="url(#paint18_linear_208_23393)"/>
<path d="M10.0099 13.3919C9.87391 13.3919 9.75391 13.4239 9.62591 13.4279C9.57773 13.4267 9.52965 13.4227 9.48191 13.4159L9.46191 13.4479H9.70191C9.84191 13.4479 9.95791 13.4159 10.0859 13.4119C10.2179 13.4159 10.3339 13.4519 10.4739 13.4519H10.6539C10.7899 13.4519 10.9099 13.4159 11.0379 13.4119C11.1699 13.4159 11.2899 13.4519 11.4259 13.4519H11.6059C11.7459 13.4519 11.8619 13.4159 11.9939 13.4119C12.1219 13.4159 12.2379 13.4519 12.3779 13.4519H12.5579C12.6939 13.4519 12.8139 13.4159 12.9459 13.4119C13.0739 13.4159 13.1939 13.4519 13.3299 13.4519H13.5099C13.6499 13.4519 13.7659 13.4159 13.8939 13.4119C14.0259 13.4159 14.1419 13.4519 14.2819 13.4519H14.4619L14.5339 13.4479L14.5139 13.4159C14.4739 13.4199 14.4299 13.4279 14.3859 13.4279C14.2539 13.4279 14.1379 13.3879 13.9979 13.3879H13.8179C13.6819 13.3879 13.5619 13.4279 13.4339 13.4279C13.3019 13.4239 13.1859 13.3879 13.0459 13.3879H12.8659C12.7299 13.3879 12.6099 13.4279 12.4819 13.4279C12.3499 13.4239 12.2339 13.3879 12.0939 13.3879H11.9139C11.7739 13.3879 11.6579 13.4279 11.5299 13.4279C11.3979 13.4239 11.2819 13.3879 11.1419 13.3879H10.9619C10.8259 13.3879 10.7059 13.4279 10.5779 13.4279C10.4459 13.4239 10.3299 13.3879 10.1899 13.3879H10.0099V13.3919Z" fill="url(#paint19_linear_208_23393)"/>
<path d="M10.0099 13.3919C9.87391 13.3919 9.75391 13.4239 9.62591 13.4279C9.57773 13.4267 9.52965 13.4227 9.48191 13.4159L9.46191 13.4479H9.70191C9.84191 13.4479 9.95791 13.4159 10.0859 13.4119C10.2179 13.4159 10.3339 13.4519 10.4739 13.4519H10.6539C10.7899 13.4519 10.9099 13.4159 11.0379 13.4119C11.1699 13.4159 11.2899 13.4519 11.4259 13.4519H11.6059C11.7459 13.4519 11.8619 13.4159 11.9939 13.4119C12.1219 13.4159 12.2379 13.4519 12.3779 13.4519H12.5579C12.6939 13.4519 12.8139 13.4159 12.9459 13.4119C13.0739 13.4159 13.1939 13.4519 13.3299 13.4519H13.5099C13.6499 13.4519 13.7659 13.4159 13.8939 13.4119C14.0259 13.4159 14.1419 13.4519 14.2819 13.4519H14.4619L14.5339 13.4479L14.5139 13.4159C14.4739 13.4199 14.4299 13.4279 14.3859 13.4279C14.2539 13.4279 14.1379 13.3879 13.9979 13.3879H13.8179C13.6819 13.3879 13.5619 13.4279 13.4339 13.4279C13.3019 13.4239 13.1859 13.3879 13.0459 13.3879H12.8659C12.7299 13.3879 12.6099 13.4279 12.4819 13.4279C12.3499 13.4239 12.2339 13.3879 12.0939 13.3879H11.9139C11.7739 13.3879 11.6579 13.4279 11.5299 13.4279C11.3979 13.4239 11.2819 13.3879 11.1419 13.3879H10.9619C10.8259 13.3879 10.7059 13.4279 10.5779 13.4279C10.4459 13.4239 10.3299 13.3879 10.1899 13.3879H10.0099V13.3919Z" fill="url(#paint20_linear_208_23393)"/>
<path d="M10.0099 13.3919C9.87391 13.3919 9.75391 13.4239 9.62591 13.4279C9.57773 13.4267 9.52965 13.4227 9.48191 13.4159L9.46191 13.4479H9.70191C9.84191 13.4479 9.95791 13.4159 10.0859 13.4119C10.2179 13.4159 10.3339 13.4519 10.4739 13.4519H10.6539C10.7899 13.4519 10.9099 13.4159 11.0379 13.4119C11.1699 13.4159 11.2899 13.4519 11.4259 13.4519H11.6059C11.7459 13.4519 11.8619 13.4159 11.9939 13.4119C12.1219 13.4159 12.2379 13.4519 12.3779 13.4519H12.5579C12.6939 13.4519 12.8139 13.4159 12.9459 13.4119C13.0739 13.4159 13.1939 13.4519 13.3299 13.4519H13.5099C13.6499 13.4519 13.7659 13.4159 13.8939 13.4119C14.0259 13.4159 14.1419 13.4519 14.2819 13.4519H14.4619L14.5339 13.4479L14.5139 13.4159C14.4739 13.4199 14.4299 13.4279 14.3859 13.4279C14.2539 13.4279 14.1379 13.3879 13.9979 13.3879H13.8179C13.6819 13.3879 13.5619 13.4279 13.4339 13.4279C13.3019 13.4239 13.1859 13.3879 13.0459 13.3879H12.8659C12.7299 13.3879 12.6099 13.4279 12.4819 13.4279C12.3499 13.4239 12.2339 13.3879 12.0939 13.3879H11.9139C11.7739 13.3879 11.6579 13.4279 11.5299 13.4279C11.3979 13.4239 11.2819 13.3879 11.1419 13.3879H10.9619C10.8259 13.3879 10.7059 13.4279 10.5779 13.4279C10.4459 13.4239 10.3299 13.3879 10.1899 13.3879H10.0099V13.3919Z" fill="url(#paint21_linear_208_23393)"/>
<path d="M10.0099 13.3919C9.87391 13.3919 9.75391 13.4239 9.62591 13.4279C9.57773 13.4267 9.52965 13.4227 9.48191 13.4159L9.46191 13.4479H9.70191C9.84191 13.4479 9.95791 13.4159 10.0859 13.4119C10.2179 13.4159 10.3339 13.4519 10.4739 13.4519H10.6539C10.7899 13.4519 10.9099 13.4159 11.0379 13.4119C11.1699 13.4159 11.2899 13.4519 11.4259 13.4519H11.6059C11.7459 13.4519 11.8619 13.4159 11.9939 13.4119C12.1219 13.4159 12.2379 13.4519 12.3779 13.4519H12.5579C12.6939 13.4519 12.8139 13.4159 12.9459 13.4119C13.0739 13.4159 13.1939 13.4519 13.3299 13.4519H13.5099C13.6499 13.4519 13.7659 13.4159 13.8939 13.4119C14.0259 13.4159 14.1419 13.4519 14.2819 13.4519H14.4619L14.5339 13.4479L14.5139 13.4159C14.4739 13.4199 14.4299 13.4279 14.3859 13.4279C14.2539 13.4279 14.1379 13.3879 13.9979 13.3879H13.8179C13.6819 13.3879 13.5619 13.4279 13.4339 13.4279C13.3019 13.4239 13.1859 13.3879 13.0459 13.3879H12.8659C12.7299 13.3879 12.6099 13.4279 12.4819 13.4279C12.3499 13.4239 12.2339 13.3879 12.0939 13.3879H11.9139C11.7739 13.3879 11.6579 13.4279 11.5299 13.4279C11.3979 13.4239 11.2819 13.3879 11.1419 13.3879H10.9619C10.8259 13.3879 10.7059 13.4279 10.5779 13.4279C10.4459 13.4239 10.3299 13.3879 10.1899 13.3879H10.0099V13.3919Z" fill="url(#paint22_linear_208_23393)"/>
<path d="M10.0099 13.3919C9.87391 13.3919 9.75391 13.4239 9.62591 13.4279C9.57773 13.4267 9.52965 13.4227 9.48191 13.4159L9.46191 13.4479H9.70191C9.84191 13.4479 9.95791 13.4159 10.0859 13.4119C10.2179 13.4159 10.3339 13.4519 10.4739 13.4519H10.6539C10.7899 13.4519 10.9099 13.4159 11.0379 13.4119C11.1699 13.4159 11.2899 13.4519 11.4259 13.4519H11.6059C11.7459 13.4519 11.8619 13.4159 11.9939 13.4119C12.1219 13.4159 12.2379 13.4519 12.3779 13.4519H12.5579C12.6939 13.4519 12.8139 13.4159 12.9459 13.4119C13.0739 13.4159 13.1939 13.4519 13.3299 13.4519H13.5099C13.6499 13.4519 13.7659 13.4159 13.8939 13.4119C14.0259 13.4159 14.1419 13.4519 14.2819 13.4519H14.4619L14.5339 13.4479L14.5139 13.4159C14.4739 13.4199 14.4299 13.4279 14.3859 13.4279C14.2539 13.4279 14.1379 13.3879 13.9979 13.3879H13.8179C13.6819 13.3879 13.5619 13.4279 13.4339 13.4279C13.3019 13.4239 13.1859 13.3879 13.0459 13.3879H12.8659C12.7299 13.3879 12.6099 13.4279 12.4819 13.4279C12.3499 13.4239 12.2339 13.3879 12.0939 13.3879H11.9139C11.7739 13.3879 11.6579 13.4279 11.5299 13.4279C11.3979 13.4239 11.2819 13.3879 11.1419 13.3879H10.9619C10.8259 13.3879 10.7059 13.4279 10.5779 13.4279C10.4459 13.4239 10.3299 13.3879 10.1899 13.3879H10.0099V13.3919Z" fill="url(#paint23_linear_208_23393)"/>
<path d="M10.0099 13.3919C9.87391 13.3919 9.75391 13.4239 9.62591 13.4279C9.57773 13.4267 9.52965 13.4227 9.48191 13.4159L9.46191 13.4479H9.70191C9.84191 13.4479 9.95791 13.4159 10.0859 13.4119C10.2179 13.4159 10.3339 13.4519 10.4739 13.4519H10.6539C10.7899 13.4519 10.9099 13.4159 11.0379 13.4119C11.1699 13.4159 11.2899 13.4519 11.4259 13.4519H11.6059C11.7459 13.4519 11.8619 13.4159 11.9939 13.4119C12.1219 13.4159 12.2379 13.4519 12.3779 13.4519H12.5579C12.6939 13.4519 12.8139 13.4159 12.9459 13.4119C13.0739 13.4159 13.1939 13.4519 13.3299 13.4519H13.5099C13.6499 13.4519 13.7659 13.4159 13.8939 13.4119C14.0259 13.4159 14.1419 13.4519 14.2819 13.4519H14.4619L14.5339 13.4479L14.5139 13.4159C14.4739 13.4199 14.4299 13.4279 14.3859 13.4279C14.2539 13.4279 14.1379 13.3879 13.9979 13.3879H13.8179C13.6819 13.3879 13.5619 13.4279 13.4339 13.4279C13.3019 13.4239 13.1859 13.3879 13.0459 13.3879H12.8659C12.7299 13.3879 12.6099 13.4279 12.4819 13.4279C12.3499 13.4239 12.2339 13.3879 12.0939 13.3879H11.9139C11.7739 13.3879 11.6579 13.4279 11.5299 13.4279C11.3979 13.4239 11.2819 13.3879 11.1419 13.3879H10.9619C10.8259 13.3879 10.7059 13.4279 10.5779 13.4279C10.4459 13.4239 10.3299 13.3879 10.1899 13.3879H10.0099V13.3919Z" fill="url(#paint24_linear_208_23393)"/>
<path d="M10.0099 13.3919C9.87391 13.3919 9.75391 13.4239 9.62591 13.4279C9.57773 13.4267 9.52965 13.4227 9.48191 13.4159L9.46191 13.4479H9.70191C9.84191 13.4479 9.95791 13.4159 10.0859 13.4119C10.2179 13.4159 10.3339 13.4519 10.4739 13.4519H10.6539C10.7899 13.4519 10.9099 13.4159 11.0379 13.4119C11.1699 13.4159 11.2899 13.4519 11.4259 13.4519H11.6059C11.7459 13.4519 11.8619 13.4159 11.9939 13.4119C12.1219 13.4159 12.2379 13.4519 12.3779 13.4519H12.5579C12.6939 13.4519 12.8139 13.4159 12.9459 13.4119C13.0739 13.4159 13.1939 13.4519 13.3299 13.4519H13.5099C13.6499 13.4519 13.7659 13.4159 13.8939 13.4119C14.0259 13.4159 14.1419 13.4519 14.2819 13.4519H14.4619L14.5339 13.4479L14.5139 13.4159C14.4739 13.4199 14.4299 13.4279 14.3859 13.4279C14.2539 13.4279 14.1379 13.3879 13.9979 13.3879H13.8179C13.6819 13.3879 13.5619 13.4279 13.4339 13.4279C13.3019 13.4239 13.1859 13.3879 13.0459 13.3879H12.8659C12.7299 13.3879 12.6099 13.4279 12.4819 13.4279C12.3499 13.4239 12.2339 13.3879 12.0939 13.3879H11.9139C11.7739 13.3879 11.6579 13.4279 11.5299 13.4279C11.3979 13.4239 11.2819 13.3879 11.1419 13.3879H10.9619C10.8259 13.3879 10.7059 13.4279 10.5779 13.4279C10.4459 13.4239 10.3299 13.3879 10.1899 13.3879H10.0099V13.3919Z" fill="url(#paint25_linear_208_23393)"/>
<path d="M10.0099 13.3919C9.87391 13.3919 9.75391 13.4239 9.62591 13.4279C9.57773 13.4267 9.52965 13.4227 9.48191 13.4159L9.46191 13.4479H9.70191C9.84191 13.4479 9.95791 13.4159 10.0859 13.4119C10.2179 13.4159 10.3339 13.4519 10.4739 13.4519H10.6539C10.7899 13.4519 10.9099 13.4159 11.0379 13.4119C11.1699 13.4159 11.2899 13.4519 11.4259 13.4519H11.6059C11.7459 13.4519 11.8619 13.4159 11.9939 13.4119C12.1219 13.4159 12.2379 13.4519 12.3779 13.4519H12.5579C12.6939 13.4519 12.8139 13.4159 12.9459 13.4119C13.0739 13.4159 13.1939 13.4519 13.3299 13.4519H13.5099C13.6499 13.4519 13.7659 13.4159 13.8939 13.4119C14.0259 13.4159 14.1419 13.4519 14.2819 13.4519H14.4619L14.5339 13.4479L14.5139 13.4159C14.4739 13.4199 14.4299 13.4279 14.3859 13.4279C14.2539 13.4279 14.1379 13.3879 13.9979 13.3879H13.8179C13.6819 13.3879 13.5619 13.4279 13.4339 13.4279C13.3019 13.4239 13.1859 13.3879 13.0459 13.3879H12.8659C12.7299 13.3879 12.6099 13.4279 12.4819 13.4279C12.3499 13.4239 12.2339 13.3879 12.0939 13.3879H11.9139C11.7739 13.3879 11.6579 13.4279 11.5299 13.4279C11.3979 13.4239 11.2819 13.3879 11.1419 13.3879H10.9619C10.8259 13.3879 10.7059 13.4279 10.5779 13.4279C10.4459 13.4239 10.3299 13.3879 10.1899 13.3879H10.0099V13.3919Z" fill="url(#paint26_linear_208_23393)"/>
<path d="M10.0099 13.3919C9.87391 13.3919 9.75391 13.4239 9.62591 13.4279C9.57773 13.4267 9.52965 13.4227 9.48191 13.4159L9.46191 13.4479H9.70191C9.84191 13.4479 9.95791 13.4159 10.0859 13.4119C10.2179 13.4159 10.3339 13.4519 10.4739 13.4519H10.6539C10.7899 13.4519 10.9099 13.4159 11.0379 13.4119C11.1699 13.4159 11.2899 13.4519 11.4259 13.4519H11.6059C11.7459 13.4519 11.8619 13.4159 11.9939 13.4119C12.1219 13.4159 12.2379 13.4519 12.3779 13.4519H12.5579C12.6939 13.4519 12.8139 13.4159 12.9459 13.4119C13.0739 13.4159 13.1939 13.4519 13.3299 13.4519H13.5099C13.6499 13.4519 13.7659 13.4159 13.8939 13.4119C14.0259 13.4159 14.1419 13.4519 14.2819 13.4519H14.4619L14.5339 13.4479L14.5139 13.4159C14.4739 13.4199 14.4299 13.4279 14.3859 13.4279C14.2539 13.4279 14.1379 13.3879 13.9979 13.3879H13.8179C13.6819 13.3879 13.5619 13.4279 13.4339 13.4279C13.3019 13.4239 13.1859 13.3879 13.0459 13.3879H12.8659C12.7299 13.3879 12.6099 13.4279 12.4819 13.4279C12.3499 13.4239 12.2339 13.3879 12.0939 13.3879H11.9139C11.7739 13.3879 11.6579 13.4279 11.5299 13.4279C11.3979 13.4239 11.2819 13.3879 11.1419 13.3879H10.9619C10.8259 13.3879 10.7059 13.4279 10.5779 13.4279C10.4459 13.4239 10.3299 13.3879 10.1899 13.3879H10.0099V13.3919Z" fill="url(#paint27_linear_208_23393)"/>
<path d="M9.7543 12.9879L9.6543 13.1559C9.7703 13.1359 9.9383 13.0879 10.0823 13.0879C10.2263 13.0879 10.4023 13.1239 10.5783 13.1279C10.7783 13.1279 10.8583 13.0799 11.0183 13.0639C11.1823 13.0479 11.3383 13.0839 11.4983 13.0879C11.6223 13.0879 11.8143 13.0439 11.9783 13.0279C12.1383 13.0079 12.2863 13.0399 12.4783 13.0399C12.6743 13.0439 12.7063 12.9919 12.9423 12.9879C13.1983 12.9839 13.2223 13.0239 13.4463 13.0239C13.6143 13.0319 13.7623 12.9879 13.9143 12.9799C14.0663 12.9679 14.1343 12.9799 14.2463 12.9799L14.1703 12.8519L10.1183 12.9439L9.7543 12.9879Z" fill="#97C924"/>
<path d="M13.998 12.9839L14.158 12.9959C14.1966 13.0005 14.2353 13.0045 14.274 13.0079L14.258 12.9879C14.234 12.9959 14.082 12.9799 14.002 12.9879L13.998 12.9839Z" fill="white"/>
</g>
<path d="M12.0002 8.99536L10.7158 11.2219L9.40332 13.5H14.5971L13.3127 11.2735L12.0002 8.99536ZM12.0002 9.11255L13.2658 11.3016L14.4986 13.4391H9.50645L10.7674 11.2547L12.0002 9.11255Z" fill="#C8A400"/>
</g>
<defs>
<linearGradient id="paint0_linear_208_23393" x1="11.9463" y1="11.5639" x2="12.0223" y2="11.3359" gradientUnits="userSpaceOnUse">
<stop stop-color="#510000"/>
<stop offset="0.3" stop-color="#8A0000"/>
<stop offset="1" stop-color="#AA0000"/>
</linearGradient>
<linearGradient id="paint1_linear_208_23393" x1="12.0536" y1="11.6559" x2="12.1136" y2="11.4959" gradientUnits="userSpaceOnUse">
<stop stop-color="#FF2A2A"/>
<stop offset="1" stop-color="#FF0000"/>
</linearGradient>
<linearGradient id="paint2_linear_208_23393" x1="9.77734" y1="12.7" x2="17.3733" y2="12.7" gradientUnits="userSpaceOnUse">
<stop stop-color="#002255"/>
<stop offset="0.5" stop-color="#0044AA"/>
<stop offset="1" stop-color="#002255"/>
</linearGradient>
<linearGradient id="paint3_linear_208_23393" x1="9.77734" y1="12.7" x2="17.3733" y2="12.7" gradientUnits="userSpaceOnUse">
<stop stop-color="#002255"/>
<stop offset="0.5" stop-color="#0044AA"/>
<stop offset="1" stop-color="#002255"/>
</linearGradient>
<linearGradient id="paint4_linear_208_23393" x1="9.77734" y1="12.7" x2="17.3733" y2="12.7" gradientUnits="userSpaceOnUse">
<stop stop-color="#002255"/>
<stop offset="0.5" stop-color="#0044AA"/>
<stop offset="1" stop-color="#002255"/>
</linearGradient>
<linearGradient id="paint5_linear_208_23393" x1="9.77734" y1="12.7" x2="17.3733" y2="12.7" gradientUnits="userSpaceOnUse">
<stop stop-color="#002255"/>
<stop offset="0.5" stop-color="#0044AA"/>
<stop offset="1" stop-color="#002255"/>
</linearGradient>
<linearGradient id="paint6_linear_208_23393" x1="9.77734" y1="12.7" x2="17.3733" y2="12.7" gradientUnits="userSpaceOnUse">
<stop stop-color="#002255"/>
<stop offset="0.5" stop-color="#0044AA"/>
<stop offset="1" stop-color="#002255"/>
</linearGradient>
<linearGradient id="paint7_linear_208_23393" x1="9.77734" y1="12.7" x2="17.3733" y2="12.7" gradientUnits="userSpaceOnUse">
<stop stop-color="#002255"/>
<stop offset="0.5" stop-color="#0044AA"/>
<stop offset="1" stop-color="#002255"/>
</linearGradient>
<linearGradient id="paint8_linear_208_23393" x1="9.77734" y1="12.7" x2="17.3733" y2="12.7" gradientUnits="userSpaceOnUse">
<stop stop-color="#002255"/>
<stop offset="0.5" stop-color="#0044AA"/>
<stop offset="1" stop-color="#002255"/>
</linearGradient>
<linearGradient id="paint9_linear_208_23393" x1="9.77734" y1="12.7" x2="17.3733" y2="12.7" gradientUnits="userSpaceOnUse">
<stop stop-color="#002255"/>
<stop offset="0.5" stop-color="#0044AA"/>
<stop offset="1" stop-color="#002255"/>
</linearGradient>
<linearGradient id="paint10_linear_208_23393" x1="9.77734" y1="12.7" x2="17.3733" y2="12.7" gradientUnits="userSpaceOnUse">
<stop stop-color="#002255"/>
<stop offset="0.5" stop-color="#0044AA"/>
<stop offset="1" stop-color="#002255"/>
</linearGradient>
<linearGradient id="paint11_linear_208_23393" x1="9.77749" y1="12.6999" x2="17.3735" y2="12.6999" gradientUnits="userSpaceOnUse">
<stop stop-color="#002255"/>
<stop offset="0.5" stop-color="#0044AA"/>
<stop offset="1" stop-color="#002255"/>
</linearGradient>
<linearGradient id="paint12_linear_208_23393" x1="9.77795" y1="12.6999" x2="17.3739" y2="12.6999" gradientUnits="userSpaceOnUse">
<stop stop-color="#002255"/>
<stop offset="0.5" stop-color="#0044AA"/>
<stop offset="1" stop-color="#002255"/>
</linearGradient>
<linearGradient id="paint13_linear_208_23393" x1="11.3902" y1="12.4679" x2="11.3902" y2="12.7039" gradientUnits="userSpaceOnUse">
<stop stop-color="#F5F549"/>
<stop offset="1" stop-color="#97C924"/>
</linearGradient>
<linearGradient id="paint14_linear_208_23393" x1="11.3902" y1="12.4679" x2="11.3902" y2="12.7039" gradientUnits="userSpaceOnUse">
<stop stop-color="#F5F549"/>
<stop offset="1" stop-color="#97C924"/>
</linearGradient>
<linearGradient id="paint15_linear_208_23393" x1="11.3896" y1="12.4679" x2="11.3896" y2="12.7039" gradientUnits="userSpaceOnUse">
<stop stop-color="#F5F549"/>
<stop offset="1" stop-color="#97C924"/>
</linearGradient>
<linearGradient id="paint16_linear_208_23393" x1="11.3901" y1="12.4679" x2="11.3901" y2="12.7039" gradientUnits="userSpaceOnUse">
<stop stop-color="#F5F549"/>
<stop offset="1" stop-color="#97C924"/>
</linearGradient>
<linearGradient id="paint17_linear_208_23393" x1="11.3901" y1="12.4679" x2="11.3901" y2="12.7039" gradientUnits="userSpaceOnUse">
<stop stop-color="#F5F549"/>
<stop offset="1" stop-color="#97C924"/>
</linearGradient>
<linearGradient id="paint18_linear_208_23393" x1="9.63037" y1="12.9249" x2="14.2836" y2="12.9249" gradientUnits="userSpaceOnUse">
<stop stop-color="#002255"/>
<stop offset="0.5" stop-color="#0044AA"/>
<stop offset="1" stop-color="#002255"/>
</linearGradient>
<linearGradient id="paint19_linear_208_23393" x1="9.47959" y1="13.3896" x2="14.5161" y2="13.3896" gradientUnits="userSpaceOnUse">
<stop stop-color="#002255"/>
<stop offset="0.5" stop-color="#0044AA"/>
<stop offset="1" stop-color="#002255"/>
</linearGradient>
<linearGradient id="paint20_linear_208_23393" x1="9.47959" y1="13.3896" x2="14.5161" y2="13.3896" gradientUnits="userSpaceOnUse">
<stop stop-color="#002255"/>
<stop offset="0.5" stop-color="#0044AA"/>
<stop offset="1" stop-color="#002255"/>
</linearGradient>
<linearGradient id="paint21_linear_208_23393" x1="9.47959" y1="13.3896" x2="14.5161" y2="13.3896" gradientUnits="userSpaceOnUse">
<stop stop-color="#002255"/>
<stop offset="0.5" stop-color="#0044AA"/>
<stop offset="1" stop-color="#002255"/>
</linearGradient>
<linearGradient id="paint22_linear_208_23393" x1="9.47959" y1="13.3896" x2="14.5161" y2="13.3896" gradientUnits="userSpaceOnUse">
<stop stop-color="#002255"/>
<stop offset="0.5" stop-color="#0044AA"/>
<stop offset="1" stop-color="#002255"/>
</linearGradient>
<linearGradient id="paint23_linear_208_23393" x1="9.47959" y1="13.3896" x2="14.5161" y2="13.3896" gradientUnits="userSpaceOnUse">
<stop stop-color="#002255"/>
<stop offset="0.5" stop-color="#0044AA"/>
<stop offset="1" stop-color="#002255"/>
</linearGradient>
<linearGradient id="paint24_linear_208_23393" x1="9.47959" y1="13.3896" x2="14.5161" y2="13.3896" gradientUnits="userSpaceOnUse">
<stop stop-color="#002255"/>
<stop offset="0.5" stop-color="#0044AA"/>
<stop offset="1" stop-color="#002255"/>
</linearGradient>
<linearGradient id="paint25_linear_208_23393" x1="9.47959" y1="13.3896" x2="14.5161" y2="13.3896" gradientUnits="userSpaceOnUse">
<stop stop-color="#002255"/>
<stop offset="0.5" stop-color="#0044AA"/>
<stop offset="1" stop-color="#002255"/>
</linearGradient>
<linearGradient id="paint26_linear_208_23393" x1="9.47959" y1="13.3896" x2="14.5161" y2="13.3896" gradientUnits="userSpaceOnUse">
<stop stop-color="#002255"/>
<stop offset="0.5" stop-color="#0044AA"/>
<stop offset="1" stop-color="#002255"/>
</linearGradient>
<linearGradient id="paint27_linear_208_23393" x1="9.47959" y1="13.3896" x2="14.5161" y2="13.3896" gradientUnits="userSpaceOnUse">
<stop stop-color="#002255"/>
<stop offset="0.5" stop-color="#0044AA"/>
<stop offset="1" stop-color="#002255"/>
</linearGradient>
<clipPath id="clip0_208_23393">
<rect width="24" height="24" rx="12" fill="white"/>
</clipPath>
</defs>
</svg>
