<svg width="24" height="24" viewBox="0 0 24 24" fill="none" xmlns="http://www.w3.org/2000/svg">
<g clip-path="url(#clip0_208_26332)">
<path d="M0 0H24V24H0V0Z" fill="#FFB700"/>
<path d="M0.998047 12.0001L4.28398 0.998535H7.56992V23.0017H4.28867L0.998047 12.0001Z" fill="#FF5B00"/>
<path d="M0.998047 0.998535H4.28398V23.0017H1.00273L0.998047 0.998535Z" fill="#005641"/>
<path d="M8.56445 0.998535H23.002V23.0017H8.56445V0.998535Z" fill="#8D2029"/>
<path d="M21.7217 21.3235C21.7217 21.3235 21.8576 21.6 22.0076 21.7125C22.2326 21.8766 22.6873 21.8672 22.8795 22.0594C23.1139 22.2938 22.8607 22.5938 22.8654 22.6219L22.8795 22.7813C22.8795 22.7813 22.7201 22.7813 22.6545 22.7954C22.5561 22.8094 22.5139 22.8891 22.3311 22.8797C21.867 22.8469 21.8857 22.4297 21.8623 22.0735C21.8389 21.9329 21.7826 21.7594 21.7545 21.6235C21.7264 21.5063 21.7217 21.3235 21.7217 21.3235Z" fill="#FFB700" stroke="black" stroke-width="0.1125"/>
<path d="M9.97949 21.3235C9.97949 21.3235 9.84355 21.6 9.69355 21.7125C9.46855 21.8766 9.01387 21.8672 8.82168 22.0594C8.5873 22.2938 8.84043 22.5938 8.83574 22.6219L8.82168 22.7813C8.82168 22.7813 8.98105 22.7813 9.04668 22.7954C9.14512 22.8094 9.1873 22.8891 9.37012 22.8797C9.83418 22.8469 9.81543 22.4297 9.83887 22.0735C9.8623 21.9329 9.91855 21.7594 9.94668 21.6235C9.9748 21.5063 9.97949 21.3235 9.97949 21.3235Z" fill="#FFB700" stroke="black" stroke-width="0.1125"/>
<path d="M21.7217 2.67651C21.7217 2.67651 21.8576 2.39995 22.0076 2.28745C22.2326 2.12339 22.6873 2.13276 22.8795 1.94058C23.1139 1.7062 22.8607 1.4062 22.8654 1.37808L22.8795 1.2187C22.8795 1.2187 22.7201 1.2187 22.6545 1.20464C22.5561 1.19058 22.5139 1.11089 22.3311 1.12026C21.867 1.15308 21.8857 1.57026 21.8623 1.92651C21.8389 2.06714 21.7826 2.24058 21.7545 2.37651C21.7264 2.4937 21.7217 2.67651 21.7217 2.67651Z" fill="#FFB700" stroke="black" stroke-width="0.1125"/>
<path d="M9.97461 2.67651C9.97461 2.67651 9.83867 2.39995 9.68867 2.28745C9.46367 2.12339 9.00898 2.13276 8.8168 1.94058C8.58242 1.7062 8.83555 1.4062 8.83086 1.37808L8.8168 1.2187C8.8168 1.2187 8.97617 1.2187 9.0418 1.20464C9.14023 1.19058 9.18242 1.11089 9.36523 1.12026C9.8293 1.15308 9.81055 1.57026 9.83398 1.92651C9.85742 2.06714 9.91367 2.24058 9.9418 2.37651C9.96992 2.4937 9.97461 2.67651 9.97461 2.67651Z" fill="#FFB700" stroke="black" stroke-width="0.1125"/>
<path d="M13.6312 15.7425L13.7174 15.69L13.7549 15.7425C13.8037 15.81 13.9424 15.8062 14.0324 15.7425L14.1037 15.6862L14.1637 15.7387C14.2387 15.81 14.3812 15.81 14.4749 15.7387C14.5387 15.6937 14.5499 15.69 14.5874 15.7275C14.6137 15.75 14.6887 15.7725 14.7524 15.7837C14.8724 15.7987 14.8724 15.7987 14.9399 15.6937C14.9999 15.6075 15.0074 15.5737 14.9962 15.4875C14.9857 15.4216 14.9782 15.3553 14.9737 15.2887C14.9662 15.1912 14.9699 15.1912 15.1087 15.1387C15.1775 15.1176 15.2452 15.0926 15.3112 15.0637C15.3674 15.03 15.5249 14.8462 15.5249 14.8087C15.5249 14.8012 15.4649 14.7862 15.3899 14.7787C15.0899 14.7412 15.0412 14.5837 15.2362 14.2912C15.5474 13.8037 15.7387 13.335 15.7387 13.0387C15.7387 12.9037 15.7499 12.8587 15.7649 12.8887C15.8362 13.005 15.7087 13.5037 15.5212 13.8637L15.4462 14.0062L15.5174 13.9912C15.5549 13.98 15.7949 13.8787 16.0424 13.7662C16.7249 13.4587 16.9574 13.3987 17.3999 13.4175C17.7712 13.4325 17.9249 13.5037 18.1874 13.7775C18.3262 13.9275 18.4612 14.0287 18.7049 14.1825C19.2224 14.505 19.2449 14.535 19.2712 14.9175C19.2974 15.3037 19.2824 15.3262 18.9899 15.39C18.7387 15.4462 18.5812 15.5625 18.5399 15.7275C18.5174 15.81 18.5662 15.8137 18.6899 15.7312L18.7837 15.6712L18.8249 15.7312C18.8812 15.81 18.9937 15.81 19.0874 15.7312L19.1624 15.675L19.2374 15.7312C19.3499 15.825 19.4999 15.8025 19.5449 15.6862C19.5524 15.6675 19.5749 15.6712 19.6199 15.7125C19.7062 15.7875 19.9199 15.8175 19.9424 15.7575C19.9499 15.735 19.9349 15.6825 19.9049 15.6375C19.7812 15.45 19.7399 15.3637 19.7399 15.2625C19.7399 15.12 19.7774 15.0487 19.9424 14.9362C20.1374 14.7937 20.1974 14.6137 20.0474 14.6137C19.9574 14.6137 19.8637 14.5312 19.8037 14.4C19.6837 14.13 19.7099 13.83 19.8899 13.3275C20.0279 13.0318 20.0972 12.7087 20.0924 12.3825C20.0924 12.105 20.0849 12.06 20.0249 11.9062C19.978 11.7993 19.9202 11.6975 19.8524 11.6025L19.7474 11.4637L19.8787 11.3512C20.2837 11.0175 20.2012 10.47 19.7137 10.26C19.5637 10.1925 19.5262 10.1887 19.2637 10.1887C19.1137 10.1887 18.8699 10.2112 18.7387 10.2375C18.5625 10.2654 18.3845 10.2804 18.2062 10.2825C17.9512 10.2825 17.9062 10.275 17.8087 10.2225C17.7074 10.17 17.6887 10.1437 17.6699 10.0162C17.6681 10.0042 17.6634 9.99281 17.6562 9.98301C17.649 9.97321 17.6396 9.96531 17.6287 9.95997C17.5912 9.94872 17.4337 10.0875 17.4112 10.1475C17.3962 10.1812 17.3887 10.1775 17.3549 10.1362C17.3231 10.0954 17.2978 10.0498 17.2799 10.0012C17.2424 9.87748 17.2912 9.78747 17.4374 9.71622L17.5499 9.66372L17.4824 9.62247C17.3474 9.53622 17.1149 9.59622 17.0324 9.73497C17.0062 9.77247 16.9799 9.80997 16.9724 9.80997C16.9649 9.80997 16.9199 9.77247 16.8749 9.72372C16.6987 9.55122 16.7587 9.29622 16.9949 9.22122C17.1187 9.17997 17.2312 9.20997 17.2537 9.29622C17.2912 9.41997 17.3962 9.25497 17.3774 9.10122C17.3662 8.99997 17.3662 8.99622 17.4374 8.99622C17.5349 8.99622 17.7374 9.12372 17.8049 9.22122C17.8799 9.33747 17.8724 9.52122 17.7899 9.65622L17.7262 9.76122L17.8124 9.74622C17.9324 9.71997 18.0524 9.64497 18.1124 9.55122C18.144 9.49151 18.1618 9.42545 18.1644 9.35794C18.167 9.29042 18.1544 9.22319 18.1274 9.16122C18.0712 9.05997 18.0787 9.04498 18.1612 9.07873C18.2962 9.13498 18.3712 9.19872 18.4237 9.30747C18.4762 9.40497 18.4799 9.42747 18.4537 9.53247C18.4357 9.59641 18.4079 9.65714 18.3712 9.71247C18.3262 9.77247 18.3224 9.78372 18.3599 9.78372C18.4274 9.78372 18.5624 9.71997 18.6112 9.67122C18.6374 9.64122 18.6749 9.57747 18.6937 9.52122L18.7312 9.42747L18.7687 9.50247C18.8249 9.60372 18.9374 9.69748 19.0724 9.75748C19.2187 9.81748 19.2787 9.82122 19.2037 9.76497C19.1512 9.72747 19.0537 9.44622 19.0874 9.41997C19.2493 9.5106 19.3971 9.62429 19.5262 9.75748C19.7399 9.94873 19.8749 10.0125 20.0699 10.0125C20.3212 10.0125 20.4674 9.79497 20.3549 9.58872C20.2912 9.46872 20.1449 9.44997 20.0549 9.55122C20.0174 9.59997 20.0062 9.63747 20.0174 9.68997C20.0324 9.74997 20.0287 9.75748 19.9724 9.75748C19.8974 9.75748 19.7549 9.66372 19.4999 9.44997C19.145 9.14451 18.737 8.90682 18.2962 8.74872C17.9976 8.6797 17.6892 8.66321 17.3849 8.69997C17.1449 8.74497 16.8599 8.88372 16.7024 9.02997C16.4287 9.29247 16.4249 9.64122 16.6912 9.95997L16.7662 10.05L16.7174 10.1325C16.6808 10.1916 16.6626 10.2603 16.6653 10.3298C16.6679 10.3993 16.6913 10.4664 16.7324 10.5225C16.7699 10.575 16.8074 10.6162 16.8187 10.6162C16.8262 10.6162 16.8337 10.5825 16.8374 10.5412C16.8449 10.44 16.8899 10.3725 16.9649 10.3462C17.0324 10.32 17.0774 10.335 17.3849 10.4587C17.7112 10.5862 18.2474 10.5937 18.8174 10.4812C19.0645 10.4242 19.3216 10.4267 19.5674 10.4887C19.8374 10.6012 19.8974 10.89 19.7024 11.1075C19.6162 11.205 19.5374 11.2425 19.2637 11.3175C19.0253 11.3803 18.7776 11.3994 18.5324 11.3737C18.1274 11.37 17.9812 11.3775 17.8199 11.4112C17.6362 11.4487 17.5274 11.4525 17.0024 11.4412L16.3912 11.4262L16.4587 11.4787C16.4948 11.5108 16.5337 11.5397 16.5749 11.565C16.6237 11.5912 16.6199 11.595 16.5524 11.6212C16.5149 11.6362 16.4249 11.6475 16.3537 11.6475H16.2299L16.2149 11.7525C16.2048 11.802 16.2048 11.853 16.2149 11.9025C16.2299 11.94 16.2224 11.9475 16.1849 11.9325C16.1587 11.9212 16.0874 11.9025 16.0237 11.8912C15.9594 11.8774 15.8965 11.8573 15.8362 11.8312C15.7649 11.7937 15.7574 11.7937 15.7312 11.8425C15.7087 11.88 15.4987 12.0375 15.4687 12.0375C15.4551 11.9402 15.4273 11.8454 15.3862 11.7562C15.3487 11.6775 15.3149 11.5875 15.3037 11.5612C15.2924 11.52 15.2849 11.5162 15.2662 11.55C15.2549 11.5687 15.2399 11.625 15.2287 11.67C15.2155 11.7307 15.1927 11.789 15.1612 11.8425L15.1049 11.925L15.0674 11.8537C15.0299 11.7787 14.9699 11.6962 14.9474 11.6962C14.9399 11.6962 14.9287 11.7187 14.9212 11.7525C14.9024 11.8125 14.7562 11.9887 14.7187 11.9887C14.7074 11.9887 14.6962 11.94 14.6962 11.8762C14.6962 11.82 14.6849 11.7675 14.6699 11.7675C14.6549 11.7675 14.6437 11.7862 14.6437 11.805C14.6437 11.85 14.5199 11.9925 14.4749 11.9925C14.4599 11.9925 14.4299 12.0075 14.4112 12.03C14.3662 12.0787 14.3287 12.0712 14.3474 12.015C14.3527 11.9669 14.3476 11.9184 14.3324 11.8725L14.2949 11.7525C14.2874 11.7337 14.2424 11.7412 14.1449 11.7712C13.9949 11.82 13.9424 11.8087 14.0212 11.7487C14.0512 11.7262 14.0962 11.6475 14.1187 11.5762C14.1449 11.5012 14.1824 11.4375 14.2012 11.43C14.2274 11.4225 14.2274 11.43 14.1937 11.475C14.172 11.5035 14.1578 11.537 14.1524 11.5725C14.1524 11.5912 14.1337 11.64 14.1149 11.6812C14.0924 11.7187 14.0774 11.7562 14.0812 11.76C14.0849 11.7637 14.1449 11.7412 14.2124 11.7112L14.3324 11.6512V11.7037C14.3324 11.7337 14.3474 11.8087 14.3662 11.8725L14.3999 11.985L14.4824 11.9475C14.5649 11.91 14.6437 11.775 14.6437 11.6662C14.6437 11.6137 14.6737 11.6212 14.6887 11.6775C14.6887 11.6925 14.7112 11.7562 14.7262 11.8162L14.7637 11.9212L14.8199 11.8537C14.8537 11.8162 14.8912 11.7412 14.9062 11.6925C14.9362 11.6025 14.9812 11.5612 14.9812 11.6287C14.9812 11.6737 15.1087 11.8462 15.1312 11.8312C15.1462 11.8237 15.1687 11.76 15.1874 11.6887C15.2249 11.5387 15.2812 11.4412 15.3187 11.4637C15.3337 11.4712 15.3374 11.4862 15.3299 11.5012C15.3224 11.5087 15.3524 11.6062 15.3974 11.7112C15.43 11.7899 15.4625 11.8687 15.4949 11.9475C15.5099 11.985 15.5249 11.985 15.6187 11.8987C15.6749 11.8462 15.7312 11.79 15.7349 11.7712C15.7462 11.7412 15.7574 11.745 15.8099 11.7787C15.9205 11.8371 16.0416 11.8728 16.1662 11.8837C16.1737 11.8762 16.1812 11.8087 16.1812 11.7337L16.1849 11.595L16.2599 11.61C16.2974 11.6212 16.3837 11.6212 16.4474 11.61L16.5599 11.595L16.4587 11.52C16.4024 11.4825 16.3462 11.4337 16.3312 11.4112C16.3199 11.3887 16.2674 11.3662 16.2112 11.3625C16.0574 11.3475 15.7837 11.1975 15.7837 11.1225C15.7837 11.1075 15.8212 11.1337 15.8662 11.175C15.9712 11.2687 16.1137 11.325 16.2412 11.325H16.3312L16.2749 11.25C16.2348 11.1918 16.2091 11.125 16.1999 11.055C16.1924 10.9425 16.1812 10.9275 16.0649 10.8487C15.9975 10.801 15.9347 10.747 15.8774 10.6875L15.8137 10.6162L15.7799 10.7025C15.7612 10.7512 15.7424 10.7887 15.7312 10.7887C15.7237 10.7887 15.6862 10.7587 15.6562 10.725C15.6351 10.7005 15.6096 10.6802 15.5812 10.665C15.5699 10.665 15.5437 10.71 15.5137 10.7662L15.4612 10.8675L15.4237 10.8112C15.3903 10.7652 15.3526 10.7225 15.3112 10.6837C15.2662 10.6462 15.2474 10.6162 15.2624 10.6162C15.2774 10.6162 15.3262 10.6537 15.3749 10.7025L15.4574 10.7887L15.4949 10.725C15.5166 10.6808 15.5232 10.6307 15.5137 10.5825C15.4987 10.515 15.5024 10.5112 15.5249 10.5562C15.5573 10.5986 15.5951 10.6364 15.6374 10.6687L15.7199 10.7362L15.7762 10.635C15.8324 10.53 15.8324 10.53 15.8549 10.5937C15.8924 10.6725 16.1362 10.875 16.3424 10.9912C16.3799 11.01 16.3649 10.95 16.3049 10.8037C16.2869 10.7557 16.2768 10.705 16.2749 10.6537C16.2749 10.5862 16.2562 10.5562 16.1699 10.4887C16.1163 10.4544 16.0714 10.4081 16.0389 10.3534C16.0063 10.2987 15.987 10.2372 15.9824 10.1737C15.9712 10.11 15.9487 10.0425 15.9299 10.02C15.9074 9.98248 15.8999 10.005 15.9074 10.1175C15.9149 10.1962 15.9037 10.2937 15.8849 10.335L15.8549 10.41L15.8324 10.3462C15.8174 10.3125 15.7574 10.2525 15.7012 10.215C15.6449 10.1775 15.6037 10.14 15.6112 10.1325C15.6187 10.125 15.6787 10.1587 15.7424 10.2075C15.8437 10.2862 15.8624 10.2937 15.8774 10.26C15.8924 10.2225 15.8774 10.05 15.8474 9.92997C15.8324 9.86997 15.8324 9.86998 15.9074 9.94498C15.9599 9.99748 15.9899 10.065 16.0162 10.1775C16.0462 10.32 16.0612 10.3462 16.1924 10.4625C16.2712 10.5337 16.3424 10.5862 16.3462 10.5825C16.3537 10.575 16.3612 10.395 16.3687 10.1775C16.3837 9.76122 16.3687 9.65997 16.2674 9.53247L16.2149 9.46497L16.2974 9.37872C16.3898 9.29032 16.4516 9.1747 16.4737 9.04872L16.4887 8.94748L16.3987 9.03372C16.3237 9.10497 16.2862 9.11997 16.1999 9.11997C16.1137 9.11997 16.0799 9.10497 16.0237 9.04497C15.9361 8.96063 15.8292 8.89885 15.7124 8.86497C15.6674 8.84997 15.6524 8.85747 15.6524 8.88747C15.6524 8.90997 15.6299 8.96997 15.5999 9.02622L15.5474 9.12372L15.4349 9.01122C15.3637 8.94747 15.2849 8.89122 15.2212 8.87622C15.0674 8.83872 15.0599 8.83872 15.0599 8.95497C15.0599 9.13122 14.9849 9.16497 14.8499 9.04872C14.7449 8.95872 14.6624 8.93622 14.4637 8.96247L14.3137 8.97747L14.3399 9.04497C14.3624 9.10122 14.3587 9.12748 14.3099 9.19122C14.2312 9.29623 14.1299 9.34122 13.9724 9.34122C13.8974 9.34122 13.8074 9.35622 13.7699 9.37497C13.7324 9.39372 13.6349 9.41247 13.5562 9.41997C13.4812 9.42747 13.3949 9.44247 13.3687 9.44997C13.3312 9.46497 13.3312 9.44997 13.3424 9.36747C13.3612 9.23997 13.2674 9.14247 13.1287 9.14247C12.9449 9.14247 12.8624 9.30747 12.9337 9.52497C12.9483 9.5719 12.9608 9.61945 12.9712 9.66747C13.0204 9.76125 13.0865 9.84515 13.1662 9.91497C13.2637 10.0125 13.3537 10.1137 13.3687 10.14C13.3989 10.1791 13.4373 10.2111 13.4812 10.2337L13.5637 10.2787L13.5524 10.1887C13.5412 10.0912 13.5599 10.0762 13.6124 10.1475C13.6312 10.17 13.6799 10.2112 13.7174 10.2337C13.7812 10.2712 13.7924 10.2712 13.7924 10.2412C13.7924 10.2187 13.8037 10.17 13.8187 10.1325L13.8449 10.065L13.8937 10.1587C13.9199 10.2112 14.0062 10.3275 14.0849 10.4212C14.2387 10.5975 14.3362 10.7962 14.2874 10.8412C14.2649 10.86 14.2124 10.86 14.0999 10.8375C14.0174 10.8225 13.9124 10.8112 13.8674 10.8187C13.7812 10.83 13.7737 10.8187 13.8299 10.7512C13.8862 10.6762 13.8749 10.665 13.7624 10.665C13.6312 10.665 13.3049 10.6012 13.1774 10.5525C13.0574 10.5037 13.0274 10.515 12.9899 10.6312L12.9262 10.8412L12.8887 10.9537L13.0237 10.9425C13.0933 10.9352 13.1622 10.9227 13.2299 10.905C13.2565 10.8961 13.2845 10.8923 13.3124 10.8937C13.3199 10.8975 13.3012 10.9425 13.2749 10.995L13.2224 11.085L13.3049 11.07C13.3499 11.0587 13.4174 11.0362 13.4549 11.0175C13.5224 10.9875 13.5299 10.9875 13.5824 11.0737C13.6462 11.175 13.6949 11.1712 13.7062 11.0625C13.7174 10.95 13.7549 10.965 13.8262 11.115C13.8937 11.2575 13.9612 11.31 13.9762 11.2275C13.9799 11.1975 14.0137 11.1525 14.0549 11.1225C14.1374 11.0662 14.1974 11.085 14.2312 11.1712C14.2687 11.265 14.1862 11.3587 13.9537 11.5012C13.7384 11.6201 13.5531 11.7867 13.412 11.9882C13.271 12.1896 13.1779 12.4207 13.1399 12.6637C13.0687 13.1062 13.2899 13.5637 13.7249 13.8975C13.9349 14.055 14.2687 14.22 14.2462 14.16C14.1562 13.8862 14.1599 13.3725 14.2499 13.2862C14.2649 13.2712 14.2612 13.3237 14.2387 13.4025C14.1637 13.6987 14.2012 13.9312 14.3887 14.4787C14.5537 14.9737 14.5312 15.1875 14.2912 15.3262C14.2162 15.3712 14.1674 15.3787 13.9612 15.375C13.7362 15.375 13.7099 15.375 13.6387 15.435C13.5525 15.523 13.4961 15.6358 13.4774 15.7575C13.4774 15.8062 13.5299 15.7987 13.6274 15.7425H13.6312Z" fill="#FFB700" stroke="black" stroke-width="0.56"/>
<path d="M17.2687 15.7311L17.3624 15.6711L17.4262 15.7311C17.5087 15.8098 17.6099 15.8061 17.6887 15.7273C17.7262 15.6898 17.7562 15.6673 17.7599 15.6711L17.7937 15.7311C17.8124 15.7648 17.8537 15.7798 17.9287 15.7873C18.0149 15.7911 18.0412 15.7873 18.0787 15.7348L18.1162 15.6711L18.2099 15.7311C18.4649 15.8961 18.5999 15.7236 18.4837 15.3823C18.4274 15.2098 18.4612 15.1123 18.6449 14.8948C18.7237 14.8011 18.7874 14.6998 18.7874 14.6698C18.7874 14.6286 18.7724 14.6211 18.6674 14.6248C18.5699 14.6248 18.5399 14.6136 18.4874 14.5573C18.4012 14.4636 18.4087 14.3548 18.5024 14.2348L18.5774 14.1411L18.4424 14.0511C18.3347 13.9715 18.2343 13.8824 18.1424 13.7848C18.0606 13.6882 17.9605 13.6087 17.8479 13.5508C17.7353 13.4929 17.6124 13.4577 17.4862 13.4473L17.3099 13.4286V13.5636C17.3099 13.7323 17.3924 13.8973 17.6099 14.1748C17.8574 14.4898 17.8724 14.5386 17.8837 14.9511L17.8949 15.2998L17.8199 15.3673C17.7562 15.4273 17.7299 15.4386 17.5199 15.4498C17.3212 15.4611 17.2762 15.4723 17.2199 15.5248C17.1541 15.5728 17.1086 15.6437 17.0924 15.7236C17.0812 15.7798 17.0849 15.7911 17.1262 15.7911C17.1524 15.7911 17.2162 15.7648 17.2687 15.7311ZM11.9362 14.8311C11.9589 14.7978 11.9718 14.7588 11.9737 14.7186C11.9737 14.6811 11.9962 14.6661 12.0937 14.6511L12.2099 14.6361L12.1349 14.5723C12.0412 14.4973 12.0299 14.4411 12.1124 14.4411C12.1949 14.4411 12.3299 14.3586 12.3524 14.2948C12.3637 14.2648 12.3524 14.2273 12.3374 14.2086C12.2924 14.1561 12.2062 14.1636 12.1912 14.2236C12.1724 14.2836 12.1462 14.2836 12.0787 14.2236C11.9849 14.1298 11.9812 13.9386 12.0787 13.8261C12.1199 13.7736 12.1199 13.7736 12.0637 13.7173C12.0037 13.6573 11.9587 13.5448 11.9887 13.5148C11.9962 13.5073 12.0449 13.5148 12.0937 13.5336C12.1687 13.5561 12.1949 13.5561 12.2249 13.5336C12.3112 13.4623 12.2174 13.3723 12.0749 13.3948C12.0149 13.4023 11.9924 13.3948 11.9849 13.3648C11.9774 13.3423 11.9287 13.3123 11.8724 13.2973C11.7712 13.2711 11.7712 13.2711 11.7712 13.3423C11.7712 13.4173 11.7262 13.4323 11.6437 13.3836C11.5762 13.3461 11.5124 13.3761 11.5124 13.4473C11.5124 13.5148 11.5762 13.5448 11.6999 13.5373C11.7899 13.5336 11.7937 13.6011 11.7074 13.6986L11.6437 13.7736L11.6924 13.8448C11.7674 13.9498 11.7599 14.1261 11.6812 14.2161L11.6174 14.2836L11.5762 14.2273C11.5162 14.1523 11.4374 14.1561 11.4149 14.2386C11.4037 14.2911 11.4149 14.3136 11.4824 14.3736C11.5274 14.4111 11.5949 14.4411 11.6287 14.4411C11.7149 14.4411 11.7112 14.5123 11.6212 14.5798L11.5462 14.6361L11.6587 14.6511C11.7187 14.6623 11.7712 14.6773 11.7712 14.6886C11.7712 14.7373 11.8462 14.8836 11.8687 14.8836C11.8837 14.8836 11.9137 14.8573 11.9362 14.8273V14.8311Z" fill="#FFB700" stroke="black" stroke-width="0.56"/>
<path d="M13.3686 14.2087C13.4699 14.1712 13.6874 13.9837 13.6874 13.9425C13.6874 13.9275 13.6274 13.86 13.5524 13.7925C13.4024 13.6575 13.2336 13.4212 13.1886 13.2862C13.1661 13.2112 13.0574 13.0912 12.7499 12.7912L12.3411 12.3975L12.2249 12.4275C12.1574 12.4425 12.0786 12.4575 12.0486 12.4575C11.9924 12.4575 11.9924 12.4575 12.0674 12.5175L12.1424 12.5775L12.2549 12.5175C12.3561 12.4575 12.3599 12.4575 12.3711 12.5062C12.3786 12.5325 12.3636 12.5812 12.3336 12.615C12.3074 12.6487 12.2924 12.69 12.2961 12.7012C12.3074 12.7125 12.2811 12.7387 12.2399 12.7612C12.1649 12.7987 12.1086 12.9225 12.1686 12.9225C12.2249 12.9225 12.3449 12.7725 12.3299 12.7237C12.3224 12.6975 12.3299 12.6712 12.3374 12.6637C12.3861 12.6375 12.3824 12.7537 12.3374 12.8137C12.3074 12.8437 12.2924 12.8812 12.2999 12.8962C12.3074 12.9075 12.2811 12.9337 12.2399 12.9562C12.1649 12.9937 12.1086 13.1175 12.1686 13.1175C12.2286 13.1175 12.3449 12.975 12.3336 12.9225C12.3261 12.8962 12.3261 12.8662 12.3374 12.8587C12.3711 12.8437 12.3861 12.9337 12.3599 12.9787C12.353 12.9914 12.3494 13.0055 12.3494 13.02C12.3494 13.0344 12.353 13.0486 12.3599 13.0612C12.3861 13.11 12.3599 13.2 12.3111 13.23C12.2924 13.2412 12.3036 13.2675 12.3561 13.305C12.4311 13.3575 12.4311 13.365 12.4311 13.605C12.4311 13.8075 12.4386 13.86 12.4761 13.8937C12.5136 13.9312 12.5211 13.9312 12.5211 13.8937C12.5211 13.8562 12.5961 13.8037 12.6524 13.8037C12.6711 13.8037 12.7799 13.8975 12.8961 14.01C13.0124 14.1225 13.1361 14.2237 13.1699 14.2275L13.2524 14.2425C13.2636 14.2425 13.3161 14.2312 13.3686 14.205V14.2087ZM12.1199 13.23C12.1199 13.1662 11.9849 13.095 11.8236 13.08C11.6924 13.0612 11.6924 13.065 11.6924 13.1287C11.6924 13.1812 11.7111 13.2037 11.8049 13.2412C11.9474 13.305 12.1199 13.2975 12.1199 13.23Z" fill="#FFB700" stroke="black" stroke-width="0.56"/>
<path d="M12.2662 13.2224C12.3337 13.1624 12.3637 13.0949 12.3225 13.0949C12.2775 13.0949 12.1575 13.1999 12.1575 13.2449C12.1575 13.3049 12.18 13.3012 12.27 13.2224H12.2662ZM12.1275 13.0312C12.1312 12.9937 12.1087 12.9712 12.0412 12.9374C11.8912 12.8737 11.7187 12.8399 11.6775 12.8737C11.5987 12.9374 11.6512 13.0199 11.775 13.0349C11.8275 13.0387 11.895 13.0537 11.9287 13.0687C12.0262 13.1062 12.1162 13.0874 12.1275 13.0312ZM12.1275 12.8324C12.135 12.7837 12.1012 12.7649 11.8275 12.6674C11.6212 12.5924 11.5312 12.6299 11.5987 12.7537C11.6212 12.7949 11.6587 12.8137 11.745 12.8287C11.8087 12.8362 11.895 12.8549 11.9362 12.8699C12.0487 12.9074 12.1162 12.8924 12.1237 12.8324H12.1275ZM12.2625 12.6487C12.3037 12.6074 12.3375 12.5587 12.3375 12.5362C12.3375 12.4799 12.1762 12.5849 12.1537 12.6599C12.1312 12.7462 12.1725 12.7424 12.2662 12.6487H12.2625ZM12.1275 12.6374C12.135 12.5774 12.0375 12.5249 11.8425 12.4837C11.6962 12.4499 11.6325 12.4687 11.6437 12.5362C11.6512 12.5737 11.7 12.5999 11.8312 12.6412C12.0525 12.7087 12.1162 12.7087 12.1275 12.6374ZM12.315 12.3599C12.57 12.2474 12.5887 11.9662 12.3525 11.8912C12.255 11.8612 12.195 11.8799 12.1575 11.9437C12.1275 11.9962 12.1462 12.0862 12.1837 12.0862C12.1987 12.0862 12.21 12.1049 12.21 12.1237C12.21 12.2249 11.8275 12.2662 11.67 12.1874C11.6137 12.1612 11.595 12.0862 11.6362 12.0862C11.6737 12.0862 11.6962 12.0112 11.6775 11.9624C11.655 11.8874 11.58 11.8649 11.4787 11.8949C11.2425 11.9549 11.25 12.2324 11.49 12.3449C11.7555 12.4424 12.0461 12.4476 12.315 12.3599Z" fill="#FFB700" stroke="black" stroke-width="0.56"/>
<path d="M12.1609 12.1424C12.1759 12.1274 12.1684 12.1049 12.1459 12.0899C12.0934 12.0487 12.0971 11.9849 12.1534 11.9137C12.1984 11.8612 12.2021 11.7787 12.2171 10.9724C12.2434 9.58116 12.3484 8.53491 12.4834 8.27991C12.5396 8.18241 12.5321 8.18241 12.3896 8.27991C12.2027 8.41016 12.0518 8.58561 11.9509 8.78991C11.7184 9.22116 11.6396 9.80241 11.6396 11.0474C11.6396 11.7524 11.6434 11.8462 11.6846 11.9099C11.7221 11.9774 11.7221 11.9999 11.6996 12.0674C11.6809 12.1087 11.6734 12.1537 11.6809 12.1612C11.7334 12.2099 12.1084 12.1987 12.1609 12.1424ZM14.2646 10.8149C14.2759 10.8037 14.2571 10.7399 14.2271 10.6799C14.1821 10.5824 14.1634 10.5674 14.0996 10.5674C13.7998 10.5413 13.5074 10.46 13.2371 10.3274C13.0459 10.2412 12.9746 10.2224 12.9559 10.2449C12.8959 10.3012 12.9934 10.4324 13.1434 10.5037C13.3641 10.5832 13.5953 10.63 13.8296 10.6424C13.9309 10.6424 13.9346 10.6424 13.8746 10.7287L13.8371 10.7887H13.9496L14.1371 10.8112C14.2496 10.8374 14.2496 10.8374 14.2646 10.8149Z" fill="#FFB700" stroke="black" stroke-width="0.56"/>
<path d="M15.4497 11.4412C15.4497 11.4037 15.3409 11.31 15.2359 11.2462C15.1497 11.1975 15.1347 11.1937 15.1347 11.235C15.1347 11.295 15.0822 11.4487 15.0597 11.4487C15.0484 11.4487 15.0297 11.4187 15.0222 11.385C15.0109 11.3475 14.9697 11.2725 14.9284 11.2237L14.8534 11.13L14.8009 11.2162C14.7484 11.2987 14.6547 11.3775 14.6134 11.3775C14.6059 11.3775 14.6022 11.3325 14.6134 11.2837C14.6172 11.2237 14.6134 11.1787 14.5947 11.1712C14.5797 11.16 14.5647 11.1637 14.5647 11.1787C14.5647 11.2087 14.4372 11.3512 14.4147 11.3512C14.3997 11.3512 14.3847 11.3137 14.3772 11.2612L14.3472 11.0812C14.3397 11.0362 14.3584 11.0662 14.3847 11.1562L14.4447 11.31L14.5047 11.2162C14.5319 11.1775 14.5522 11.1343 14.5647 11.0887C14.5647 11.07 14.5759 11.0625 14.5909 11.07C14.6059 11.0775 14.6247 11.1412 14.6322 11.2087L14.6509 11.3362L14.7184 11.2612C14.7538 11.2236 14.7864 11.1835 14.8159 11.1412C14.8422 11.0962 14.8459 11.0962 14.9022 11.1412C14.9322 11.1712 14.9809 11.235 15.0109 11.2875C15.0409 11.34 15.0672 11.3775 15.0709 11.3737L15.0934 11.2537L15.1084 11.1412C15.1122 11.1225 15.3109 11.2537 15.3859 11.3175C15.4309 11.3587 15.4759 11.3887 15.4834 11.3812C15.4909 11.3737 15.4984 11.3137 15.4984 11.2425C15.4984 11.1375 15.4872 11.1075 15.4234 11.0512C15.3484 10.9837 15.3484 10.9837 15.3184 11.0325C15.2809 11.0962 15.2397 11.0962 15.2397 11.0325C15.2397 10.9875 15.0972 10.8112 15.0634 10.8112C15.0522 10.8112 15.0222 10.8487 14.9959 10.8975C14.9697 10.9462 14.9397 10.9837 14.9322 10.9837C14.8947 10.9837 14.6959 10.7587 14.6959 10.7212C14.6959 10.6912 14.7109 10.6987 14.7447 10.7512C14.7782 10.8005 14.8172 10.8458 14.8609 10.8862C14.9359 10.9537 14.9659 10.9387 14.9959 10.8075C15.0072 10.77 15.0222 10.74 15.0334 10.74C15.0634 10.74 15.2359 10.9237 15.2584 10.9837L15.2847 11.0437L15.3034 10.9762C15.3259 10.8937 15.3522 10.8937 15.3897 10.9687C15.4047 10.9987 15.4797 11.0662 15.5547 11.1112L15.6934 11.2012L15.7197 11.1112C15.7347 11.0625 15.7572 11.0362 15.7647 11.0512C15.7797 11.07 15.7422 11.22 15.7159 11.25C15.7159 11.2537 15.6672 11.2275 15.6184 11.1937L15.5247 11.1262V11.2462C15.5247 11.31 15.5172 11.3887 15.5097 11.4187C15.4909 11.4787 15.4459 11.4937 15.4459 11.4412H15.4497ZM14.7559 10.4887C14.5909 10.3537 14.5684 10.3237 14.5684 10.2562L14.5722 10.1887L14.5834 10.2525C14.5909 10.29 14.6359 10.35 14.6884 10.395L14.7859 10.47L14.8422 10.4025C14.8759 10.365 14.9022 10.32 14.9022 10.305C14.9022 10.26 14.9097 10.2637 15.0222 10.3612C15.1197 10.4475 15.1234 10.4475 15.1347 10.3912C15.1459 10.3612 15.1422 10.3012 15.1347 10.26C15.0972 10.1475 15.1047 10.1325 15.1534 10.2L15.2434 10.305C15.2809 10.3462 15.2847 10.3462 15.2997 10.2937C15.3109 10.26 15.3184 10.2037 15.3184 10.1662V10.095L15.4047 10.1962C15.4909 10.2937 15.4984 10.2975 15.5209 10.2487C15.5397 10.2225 15.5509 10.1587 15.5509 10.11C15.5509 10.0425 15.5584 10.0275 15.5734 10.05C15.6034 10.095 15.5847 10.2075 15.5322 10.305L15.4947 10.38L15.4459 10.3012C15.3822 10.2037 15.3597 10.2037 15.3222 10.3087C15.2847 10.41 15.2584 10.4175 15.2209 10.3387C15.1984 10.29 15.1909 10.2975 15.1759 10.4025L15.1572 10.515L15.0447 10.4287L14.9322 10.3425L14.8759 10.3987C14.8497 10.4325 14.8272 10.4737 14.8272 10.4887C14.8272 10.5262 14.7972 10.5262 14.7559 10.4887ZM16.2184 9.97872C16.1622 9.92622 16.1209 9.87372 16.1284 9.86622C16.1397 9.85497 16.1472 9.85122 16.1509 9.85872C16.1872 9.8974 16.2248 9.93492 16.2634 9.97122C16.3909 10.1062 16.3647 10.11 16.2222 9.97872H16.2184ZM14.2684 9.77622C14.2159 9.70122 14.2197 9.65622 14.2872 9.57372C14.3322 9.51747 14.3547 9.50997 14.4372 9.52122C14.4934 9.52497 14.6097 9.57372 14.6959 9.62622C14.8206 9.70069 14.9632 9.73959 15.1084 9.73872L15.0447 9.63372C14.9622 9.50997 14.9622 9.49497 15.0597 9.56997C15.1572 9.64872 15.2734 9.67122 15.5359 9.66372L15.6634 9.65997L15.5884 9.58497C15.4872 9.48372 15.5172 9.47247 15.6334 9.57372C15.7384 9.66747 15.7347 9.67497 15.5059 9.69747C15.4106 9.7071 15.3142 9.70077 15.2209 9.67872C15.0934 9.64122 15.0859 9.64497 15.1122 9.68622C15.1272 9.71247 15.1497 9.73122 15.1609 9.73122C15.1759 9.73122 15.1872 9.74622 15.1872 9.76122C15.1872 9.80997 14.9097 9.76497 14.7747 9.70122C14.4747 9.54747 14.4372 9.53247 14.3622 9.55497C14.3422 9.56265 14.324 9.57424 14.3085 9.58905C14.2931 9.60385 14.2807 9.62159 14.2722 9.64122C14.2234 9.76497 14.3997 9.86247 14.4709 9.75372C14.4934 9.71997 14.4897 9.70122 14.4522 9.65997C14.3997 9.60747 14.4072 9.59997 14.4747 9.62247C14.5234 9.64122 14.5272 9.75747 14.4822 9.80247C14.4334 9.85122 14.3134 9.83997 14.2684 9.77622Z" fill="black" stroke="black" stroke-width="0.56"/>
<path d="M15.4646 9.47247C15.4271 9.43497 15.4571 9.42747 15.6258 9.42372C15.8358 9.41997 15.9633 9.38622 16.1133 9.28872C16.2333 9.21372 16.2671 9.22872 16.1508 9.30747C16.0496 9.38247 15.8883 9.43497 15.7271 9.44997L15.5358 9.47622C15.5058 9.48372 15.4721 9.47997 15.4608 9.47247H15.4646Z" fill="black" stroke="black" stroke-width="0.56"/>
<path d="M13.6312 15.7425L13.7174 15.69L13.7549 15.7425C13.8037 15.81 13.9424 15.8062 14.0324 15.7425L14.1037 15.6862L14.1637 15.7387C14.2387 15.81 14.3812 15.81 14.4749 15.7387C14.5387 15.6937 14.5499 15.69 14.5874 15.7275C14.6137 15.75 14.6887 15.7725 14.7524 15.7837C14.8724 15.7987 14.8724 15.7987 14.9399 15.6937C14.9999 15.6075 15.0074 15.5737 14.9962 15.4875C14.9857 15.4216 14.9782 15.3553 14.9737 15.2887C14.9662 15.1912 14.9699 15.1912 15.1087 15.1387C15.1775 15.1176 15.2452 15.0926 15.3112 15.0637C15.3674 15.03 15.5249 14.8462 15.5249 14.8087C15.5249 14.8012 15.4649 14.7862 15.3899 14.7787C15.0899 14.7412 15.0412 14.5837 15.2362 14.2912C15.5474 13.8037 15.7387 13.335 15.7387 13.0387C15.7387 12.9037 15.7499 12.8587 15.7649 12.8887C15.8362 13.005 15.7087 13.5037 15.5212 13.8637L15.4462 14.0062L15.5174 13.9912C15.5549 13.98 15.7949 13.8787 16.0424 13.7662C16.7249 13.4587 16.9574 13.3987 17.3999 13.4175C17.7712 13.4325 17.9249 13.5037 18.1874 13.7775C18.3262 13.9275 18.4612 14.0287 18.7049 14.1825C19.2224 14.505 19.2449 14.535 19.2712 14.9175C19.2974 15.3037 19.2824 15.3262 18.9899 15.39C18.7387 15.4462 18.5812 15.5625 18.5399 15.7275C18.5174 15.81 18.5662 15.8137 18.6899 15.7312L18.7837 15.6712L18.8249 15.7312C18.8812 15.81 18.9937 15.81 19.0874 15.7312L19.1624 15.675L19.2374 15.7312C19.3499 15.825 19.4999 15.8025 19.5449 15.6862C19.5524 15.6675 19.5749 15.6712 19.6199 15.7125C19.7062 15.7875 19.9199 15.8175 19.9424 15.7575C19.9499 15.735 19.9349 15.6825 19.9049 15.6375C19.7812 15.45 19.7399 15.3637 19.7399 15.2625C19.7399 15.12 19.7774 15.0487 19.9424 14.9362C20.1374 14.7937 20.1974 14.6137 20.0474 14.6137C19.9574 14.6137 19.8637 14.5312 19.8037 14.4C19.6837 14.13 19.7099 13.83 19.8899 13.3275C20.0279 13.0318 20.0972 12.7087 20.0924 12.3825C20.0924 12.105 20.0849 12.06 20.0249 11.9062C19.978 11.7993 19.9202 11.6975 19.8524 11.6025L19.7474 11.4637L19.8787 11.3512C20.2837 11.0175 20.2012 10.47 19.7137 10.26C19.5637 10.1925 19.5262 10.1887 19.2637 10.1887C19.1137 10.1887 18.8699 10.2112 18.7387 10.2375C18.5625 10.2654 18.3845 10.2804 18.2062 10.2825C17.9512 10.2825 17.9062 10.275 17.8087 10.2225C17.7074 10.17 17.6887 10.1437 17.6699 10.0162C17.6681 10.0042 17.6634 9.99281 17.6562 9.98301C17.649 9.97321 17.6396 9.96531 17.6287 9.95997C17.5912 9.94872 17.4337 10.0875 17.4112 10.1475C17.3962 10.1812 17.3887 10.1775 17.3549 10.1362C17.3231 10.0954 17.2978 10.0498 17.2799 10.0012C17.2424 9.87748 17.2912 9.78747 17.4374 9.71622L17.5499 9.66372L17.4824 9.62247C17.3474 9.53622 17.1149 9.59622 17.0324 9.73497C17.0062 9.77247 16.9799 9.80997 16.9724 9.80997C16.9649 9.80997 16.9199 9.77247 16.8749 9.72372C16.6987 9.55122 16.7587 9.29622 16.9949 9.22122C17.1187 9.17997 17.2312 9.20997 17.2537 9.29622C17.2912 9.41997 17.3962 9.25497 17.3774 9.10122C17.3662 8.99997 17.3662 8.99622 17.4374 8.99622C17.5349 8.99622 17.7374 9.12372 17.8049 9.22122C17.8799 9.33747 17.8724 9.52122 17.7899 9.65622L17.7262 9.76122L17.8124 9.74622C17.9324 9.71997 18.0524 9.64497 18.1124 9.55122C18.144 9.49151 18.1618 9.42545 18.1644 9.35794C18.167 9.29042 18.1544 9.22319 18.1274 9.16122C18.0712 9.05997 18.0787 9.04498 18.1612 9.07873C18.2962 9.13498 18.3712 9.19872 18.4237 9.30747C18.4762 9.40497 18.4799 9.42747 18.4537 9.53247C18.4357 9.59641 18.4079 9.65714 18.3712 9.71247C18.3262 9.77247 18.3224 9.78372 18.3599 9.78372C18.4274 9.78372 18.5624 9.71997 18.6112 9.67122C18.6374 9.64122 18.6749 9.57747 18.6937 9.52122L18.7312 9.42747L18.7687 9.50247C18.8249 9.60372 18.9374 9.69748 19.0724 9.75748C19.2187 9.81748 19.2787 9.82122 19.2037 9.76497C19.1512 9.72747 19.0537 9.44622 19.0874 9.41997C19.2493 9.5106 19.3971 9.62429 19.5262 9.75748C19.7399 9.94873 19.8749 10.0125 20.0699 10.0125C20.3212 10.0125 20.4674 9.79497 20.3549 9.58872C20.2912 9.46872 20.1449 9.44997 20.0549 9.55122C20.0174 9.59997 20.0062 9.63747 20.0174 9.68997C20.0324 9.74997 20.0287 9.75748 19.9724 9.75748C19.8974 9.75748 19.7549 9.66372 19.4999 9.44997C19.145 9.14451 18.737 8.90682 18.2962 8.74872C17.9976 8.6797 17.6892 8.66321 17.3849 8.69997C17.1449 8.74497 16.8599 8.88372 16.7024 9.02997C16.4287 9.29247 16.4249 9.64122 16.6912 9.95997L16.7662 10.05L16.7174 10.1325C16.6808 10.1916 16.6626 10.2603 16.6653 10.3298C16.6679 10.3993 16.6913 10.4664 16.7324 10.5225C16.7699 10.575 16.8074 10.6162 16.8187 10.6162C16.8262 10.6162 16.8337 10.5825 16.8374 10.5412C16.8449 10.44 16.8899 10.3725 16.9649 10.3462C17.0324 10.32 17.0774 10.335 17.3849 10.4587C17.7112 10.5862 18.2474 10.5937 18.8174 10.4812C19.0645 10.4242 19.3216 10.4267 19.5674 10.4887C19.8374 10.6012 19.8974 10.89 19.7024 11.1075C19.6162 11.205 19.5374 11.2425 19.2637 11.3175C19.0253 11.3803 18.7776 11.3994 18.5324 11.3737C18.1274 11.37 17.9812 11.3775 17.8199 11.4112C17.6362 11.4487 17.5274 11.4525 17.0024 11.4412L16.3912 11.4262L16.4587 11.4787C16.4948 11.5108 16.5337 11.5397 16.5749 11.565C16.6237 11.5912 16.6199 11.595 16.5524 11.6212C16.5149 11.6362 16.4249 11.6475 16.3537 11.6475H16.2299L16.2149 11.7525C16.2048 11.802 16.2048 11.853 16.2149 11.9025C16.2299 11.94 16.2224 11.9475 16.1849 11.9325C16.1587 11.9212 16.0874 11.9025 16.0237 11.8912C15.9594 11.8774 15.8965 11.8573 15.8362 11.8312C15.7649 11.7937 15.7574 11.7937 15.7312 11.8425C15.7087 11.88 15.4987 12.0375 15.4687 12.0375C15.4551 11.9402 15.4273 11.8454 15.3862 11.7562C15.3487 11.6775 15.3149 11.5875 15.3037 11.5612C15.2924 11.52 15.2849 11.5162 15.2662 11.55C15.2549 11.5687 15.2399 11.625 15.2287 11.67C15.2155 11.7307 15.1927 11.789 15.1612 11.8425L15.1049 11.925L15.0674 11.8537C15.0299 11.7787 14.9699 11.6962 14.9474 11.6962C14.9399 11.6962 14.9287 11.7187 14.9212 11.7525C14.9024 11.8125 14.7562 11.9887 14.7187 11.9887C14.7074 11.9887 14.6962 11.94 14.6962 11.8762C14.6962 11.82 14.6849 11.7675 14.6699 11.7675C14.6549 11.7675 14.6437 11.7862 14.6437 11.805C14.6437 11.85 14.5199 11.9925 14.4749 11.9925C14.4599 11.9925 14.4299 12.0075 14.4112 12.03C14.3662 12.0787 14.3287 12.0712 14.3474 12.015C14.3527 11.9669 14.3476 11.9184 14.3324 11.8725L14.2949 11.7525C14.2874 11.7337 14.2424 11.7412 14.1449 11.7712C13.9949 11.82 13.9424 11.8087 14.0212 11.7487C14.0512 11.7262 14.0962 11.6475 14.1187 11.5762C14.1449 11.5012 14.1824 11.4375 14.2012 11.43C14.2274 11.4225 14.2274 11.43 14.1937 11.475C14.172 11.5035 14.1578 11.537 14.1524 11.5725C14.1524 11.5912 14.1337 11.64 14.1149 11.6812C14.0924 11.7187 14.0774 11.7562 14.0812 11.76C14.0849 11.7637 14.1449 11.7412 14.2124 11.7112L14.3324 11.6512V11.7037C14.3324 11.7337 14.3474 11.8087 14.3662 11.8725L14.3999 11.985L14.4824 11.9475C14.5649 11.91 14.6437 11.775 14.6437 11.6662C14.6437 11.6137 14.6737 11.6212 14.6887 11.6775C14.6887 11.6925 14.7112 11.7562 14.7262 11.8162L14.7637 11.9212L14.8199 11.8537C14.8537 11.8162 14.8912 11.7412 14.9062 11.6925C14.9362 11.6025 14.9812 11.5612 14.9812 11.6287C14.9812 11.6737 15.1087 11.8462 15.1312 11.8312C15.1462 11.8237 15.1687 11.76 15.1874 11.6887C15.2249 11.5387 15.2812 11.4412 15.3187 11.4637C15.3337 11.4712 15.3374 11.4862 15.3299 11.5012C15.3224 11.5087 15.3524 11.6062 15.3974 11.7112C15.43 11.7899 15.4625 11.8687 15.4949 11.9475C15.5099 11.985 15.5249 11.985 15.6187 11.8987C15.6749 11.8462 15.7312 11.79 15.7349 11.7712C15.7462 11.7412 15.7574 11.745 15.8099 11.7787C15.9205 11.8371 16.0416 11.8728 16.1662 11.8837C16.1737 11.8762 16.1812 11.8087 16.1812 11.7337L16.1849 11.595L16.2599 11.61C16.2974 11.6212 16.3837 11.6212 16.4474 11.61L16.5599 11.595L16.4587 11.52C16.4024 11.4825 16.3462 11.4337 16.3312 11.4112C16.3199 11.3887 16.2674 11.3662 16.2112 11.3625C16.0574 11.3475 15.7837 11.1975 15.7837 11.1225C15.7837 11.1075 15.8212 11.1337 15.8662 11.175C15.9712 11.2687 16.1137 11.325 16.2412 11.325H16.3312L16.2749 11.25C16.2348 11.1918 16.2091 11.125 16.1999 11.055C16.1924 10.9425 16.1812 10.9275 16.0649 10.8487C15.9975 10.801 15.9347 10.747 15.8774 10.6875L15.8137 10.6162L15.7799 10.7025C15.7612 10.7512 15.7424 10.7887 15.7312 10.7887C15.7237 10.7887 15.6862 10.7587 15.6562 10.725C15.6351 10.7005 15.6096 10.6802 15.5812 10.665C15.5699 10.665 15.5437 10.71 15.5137 10.7662L15.4612 10.8675L15.4237 10.8112C15.3903 10.7652 15.3526 10.7225 15.3112 10.6837C15.2662 10.6462 15.2474 10.6162 15.2624 10.6162C15.2774 10.6162 15.3262 10.6537 15.3749 10.7025L15.4574 10.7887L15.4949 10.725C15.5166 10.6808 15.5232 10.6307 15.5137 10.5825C15.4987 10.515 15.5024 10.5112 15.5249 10.5562C15.5573 10.5986 15.5951 10.6364 15.6374 10.6687L15.7199 10.7362L15.7762 10.635C15.8324 10.53 15.8324 10.53 15.8549 10.5937C15.8924 10.6725 16.1362 10.875 16.3424 10.9912C16.3799 11.01 16.3649 10.95 16.3049 10.8037C16.2869 10.7557 16.2768 10.705 16.2749 10.6537C16.2749 10.5862 16.2562 10.5562 16.1699 10.4887C16.1163 10.4544 16.0714 10.4081 16.0389 10.3534C16.0063 10.2987 15.987 10.2372 15.9824 10.1737C15.9712 10.11 15.9487 10.0425 15.9299 10.02C15.9074 9.98248 15.8999 10.005 15.9074 10.1175C15.9149 10.1962 15.9037 10.2937 15.8849 10.335L15.8549 10.41L15.8324 10.3462C15.8174 10.3125 15.7574 10.2525 15.7012 10.215C15.6449 10.1775 15.6037 10.14 15.6112 10.1325C15.6187 10.125 15.6787 10.1587 15.7424 10.2075C15.8437 10.2862 15.8624 10.2937 15.8774 10.26C15.8924 10.2225 15.8774 10.05 15.8474 9.92997C15.8324 9.86997 15.8324 9.86998 15.9074 9.94498C15.9599 9.99748 15.9899 10.065 16.0162 10.1775C16.0462 10.32 16.0612 10.3462 16.1924 10.4625C16.2712 10.5337 16.3424 10.5862 16.3462 10.5825C16.3537 10.575 16.3612 10.395 16.3687 10.1775C16.3837 9.76122 16.3687 9.65997 16.2674 9.53247L16.2149 9.46497L16.2974 9.37872C16.3898 9.29032 16.4516 9.1747 16.4737 9.04872L16.4887 8.94748L16.3987 9.03372C16.3237 9.10497 16.2862 9.11997 16.1999 9.11997C16.1137 9.11997 16.0799 9.10497 16.0237 9.04497C15.9361 8.96063 15.8292 8.89885 15.7124 8.86497C15.6674 8.84997 15.6524 8.85747 15.6524 8.88747C15.6524 8.90997 15.6299 8.96997 15.5999 9.02622L15.5474 9.12372L15.4349 9.01122C15.3637 8.94747 15.2849 8.89122 15.2212 8.87622C15.0674 8.83872 15.0599 8.83872 15.0599 8.95497C15.0599 9.13122 14.9849 9.16497 14.8499 9.04872C14.7449 8.95872 14.6624 8.93622 14.4637 8.96247L14.3137 8.97747L14.3399 9.04497C14.3624 9.10122 14.3587 9.12748 14.3099 9.19122C14.2312 9.29623 14.1299 9.34122 13.9724 9.34122C13.8974 9.34122 13.8074 9.35622 13.7699 9.37497C13.7324 9.39372 13.6349 9.41247 13.5562 9.41997C13.4812 9.42747 13.3949 9.44247 13.3687 9.44997C13.3312 9.46497 13.3312 9.44997 13.3424 9.36747C13.3612 9.23997 13.2674 9.14247 13.1287 9.14247C12.9449 9.14247 12.8624 9.30747 12.9337 9.52497C12.9483 9.5719 12.9608 9.61945 12.9712 9.66747C13.0204 9.76125 13.0865 9.84515 13.1662 9.91497C13.2637 10.0125 13.3537 10.1137 13.3687 10.14C13.3989 10.1791 13.4373 10.2111 13.4812 10.2337L13.5637 10.2787L13.5524 10.1887C13.5412 10.0912 13.5599 10.0762 13.6124 10.1475C13.6312 10.17 13.6799 10.2112 13.7174 10.2337C13.7812 10.2712 13.7924 10.2712 13.7924 10.2412C13.7924 10.2187 13.8037 10.17 13.8187 10.1325L13.8449 10.065L13.8937 10.1587C13.9199 10.2112 14.0062 10.3275 14.0849 10.4212C14.2387 10.5975 14.3362 10.7962 14.2874 10.8412C14.2649 10.86 14.2124 10.86 14.0999 10.8375C14.0174 10.8225 13.9124 10.8112 13.8674 10.8187C13.7812 10.83 13.7737 10.8187 13.8299 10.7512C13.8862 10.6762 13.8749 10.665 13.7624 10.665C13.6312 10.665 13.3049 10.6012 13.1774 10.5525C13.0574 10.5037 13.0274 10.515 12.9899 10.6312L12.9262 10.8412L12.8887 10.9537L13.0237 10.9425C13.0933 10.9352 13.1622 10.9227 13.2299 10.905C13.2565 10.8961 13.2845 10.8923 13.3124 10.8937C13.3199 10.8975 13.3012 10.9425 13.2749 10.995L13.2224 11.085L13.3049 11.07C13.3499 11.0587 13.4174 11.0362 13.4549 11.0175C13.5224 10.9875 13.5299 10.9875 13.5824 11.0737C13.6462 11.175 13.6949 11.1712 13.7062 11.0625C13.7174 10.95 13.7549 10.965 13.8262 11.115C13.8937 11.2575 13.9612 11.31 13.9762 11.2275C13.9799 11.1975 14.0137 11.1525 14.0549 11.1225C14.1374 11.0662 14.1974 11.085 14.2312 11.1712C14.2687 11.265 14.1862 11.3587 13.9537 11.5012C13.7384 11.6201 13.5531 11.7867 13.412 11.9882C13.271 12.1896 13.1779 12.4207 13.1399 12.6637C13.0687 13.1062 13.2899 13.5637 13.7249 13.8975C13.9349 14.055 14.2687 14.22 14.2462 14.16C14.1562 13.8862 14.1599 13.3725 14.2499 13.2862C14.2649 13.2712 14.2612 13.3237 14.2387 13.4025C14.1637 13.6987 14.2012 13.9312 14.3887 14.4787C14.5537 14.9737 14.5312 15.1875 14.2912 15.3262C14.2162 15.3712 14.1674 15.3787 13.9612 15.375C13.7362 15.375 13.7099 15.375 13.6387 15.435C13.5525 15.523 13.4961 15.6358 13.4774 15.7575C13.4774 15.8062 13.5299 15.7987 13.6274 15.7425H13.6312Z" fill="#FFB700"/>
<path d="M17.2687 15.7311L17.3624 15.6711L17.4262 15.7311C17.5087 15.8098 17.6099 15.8061 17.6887 15.7273C17.7262 15.6898 17.7562 15.6673 17.7599 15.6711L17.7937 15.7311C17.8124 15.7648 17.8537 15.7798 17.9287 15.7873C18.0149 15.7911 18.0412 15.7873 18.0787 15.7348L18.1162 15.6711L18.2099 15.7311C18.4649 15.8961 18.5999 15.7236 18.4837 15.3823C18.4274 15.2098 18.4612 15.1123 18.6449 14.8948C18.7237 14.8011 18.7874 14.6998 18.7874 14.6698C18.7874 14.6286 18.7724 14.6211 18.6674 14.6248C18.5699 14.6248 18.5399 14.6136 18.4874 14.5573C18.4012 14.4636 18.4087 14.3548 18.5024 14.2348L18.5774 14.1411L18.4424 14.0511C18.3347 13.9715 18.2343 13.8824 18.1424 13.7848C18.0606 13.6882 17.9605 13.6087 17.8479 13.5508C17.7353 13.4929 17.6124 13.4577 17.4862 13.4473L17.3099 13.4286V13.5636C17.3099 13.7323 17.3924 13.8973 17.6099 14.1748C17.8574 14.4898 17.8724 14.5386 17.8837 14.9511L17.8949 15.2998L17.8199 15.3673C17.7562 15.4273 17.7299 15.4386 17.5199 15.4498C17.3212 15.4611 17.2762 15.4723 17.2199 15.5248C17.1541 15.5728 17.1086 15.6437 17.0924 15.7236C17.0812 15.7798 17.0849 15.7911 17.1262 15.7911C17.1524 15.7911 17.2162 15.7648 17.2687 15.7311ZM11.9362 14.8311C11.9589 14.7978 11.9718 14.7588 11.9737 14.7186C11.9737 14.6811 11.9962 14.6661 12.0937 14.6511L12.2099 14.6361L12.1349 14.5723C12.0412 14.4973 12.0299 14.4411 12.1124 14.4411C12.1949 14.4411 12.3299 14.3586 12.3524 14.2948C12.3637 14.2648 12.3524 14.2273 12.3374 14.2086C12.2924 14.1561 12.2062 14.1636 12.1912 14.2236C12.1724 14.2836 12.1462 14.2836 12.0787 14.2236C11.9849 14.1298 11.9812 13.9386 12.0787 13.8261C12.1199 13.7736 12.1199 13.7736 12.0637 13.7173C12.0037 13.6573 11.9587 13.5448 11.9887 13.5148C11.9962 13.5073 12.0449 13.5148 12.0937 13.5336C12.1687 13.5561 12.1949 13.5561 12.2249 13.5336C12.3112 13.4623 12.2174 13.3723 12.0749 13.3948C12.0149 13.4023 11.9924 13.3948 11.9849 13.3648C11.9774 13.3423 11.9287 13.3123 11.8724 13.2973C11.7712 13.2711 11.7712 13.2711 11.7712 13.3423C11.7712 13.4173 11.7262 13.4323 11.6437 13.3836C11.5762 13.3461 11.5124 13.3761 11.5124 13.4473C11.5124 13.5148 11.5762 13.5448 11.6999 13.5373C11.7899 13.5336 11.7937 13.6011 11.7074 13.6986L11.6437 13.7736L11.6924 13.8448C11.7674 13.9498 11.7599 14.1261 11.6812 14.2161L11.6174 14.2836L11.5762 14.2273C11.5162 14.1523 11.4374 14.1561 11.4149 14.2386C11.4037 14.2911 11.4149 14.3136 11.4824 14.3736C11.5274 14.4111 11.5949 14.4411 11.6287 14.4411C11.7149 14.4411 11.7112 14.5123 11.6212 14.5798L11.5462 14.6361L11.6587 14.6511C11.7187 14.6623 11.7712 14.6773 11.7712 14.6886C11.7712 14.7373 11.8462 14.8836 11.8687 14.8836C11.8837 14.8836 11.9137 14.8573 11.9362 14.8273V14.8311Z" fill="#FFB700"/>
<path d="M13.3686 14.2087C13.4699 14.1712 13.6874 13.9837 13.6874 13.9425C13.6874 13.9275 13.6274 13.86 13.5524 13.7925C13.4024 13.6575 13.2336 13.4212 13.1886 13.2862C13.1661 13.2112 13.0574 13.0912 12.7499 12.7912L12.3411 12.3975L12.2249 12.4275C12.1574 12.4425 12.0786 12.4575 12.0486 12.4575C11.9924 12.4575 11.9924 12.4575 12.0674 12.5175L12.1424 12.5775L12.2549 12.5175C12.3561 12.4575 12.3599 12.4575 12.3711 12.5062C12.3786 12.5325 12.3636 12.5812 12.3336 12.615C12.3074 12.6487 12.2924 12.69 12.2961 12.7012C12.3074 12.7125 12.2811 12.7387 12.2399 12.7612C12.1649 12.7987 12.1086 12.9225 12.1686 12.9225C12.2249 12.9225 12.3449 12.7725 12.3299 12.7237C12.3224 12.6975 12.3299 12.6712 12.3374 12.6637C12.3861 12.6375 12.3824 12.7537 12.3374 12.8137C12.3074 12.8437 12.2924 12.8812 12.2999 12.8962C12.3074 12.9075 12.2811 12.9337 12.2399 12.9562C12.1649 12.9937 12.1086 13.1175 12.1686 13.1175C12.2286 13.1175 12.3449 12.975 12.3336 12.9225C12.3261 12.8962 12.3261 12.8662 12.3374 12.8587C12.3711 12.8437 12.3861 12.9337 12.3599 12.9787C12.353 12.9914 12.3494 13.0055 12.3494 13.02C12.3494 13.0344 12.353 13.0486 12.3599 13.0612C12.3861 13.11 12.3599 13.2 12.3111 13.23C12.2924 13.2412 12.3036 13.2675 12.3561 13.305C12.4311 13.3575 12.4311 13.365 12.4311 13.605C12.4311 13.8075 12.4386 13.86 12.4761 13.8937C12.5136 13.9312 12.5211 13.9312 12.5211 13.8937C12.5211 13.8562 12.5961 13.8037 12.6524 13.8037C12.6711 13.8037 12.7799 13.8975 12.8961 14.01C13.0124 14.1225 13.1361 14.2237 13.1699 14.2275L13.2524 14.2425C13.2636 14.2425 13.3161 14.2312 13.3686 14.205V14.2087ZM12.1199 13.23C12.1199 13.1662 11.9849 13.095 11.8236 13.08C11.6924 13.0612 11.6924 13.065 11.6924 13.1287C11.6924 13.1812 11.7111 13.2037 11.8049 13.2412C11.9474 13.305 12.1199 13.2975 12.1199 13.23Z" fill="#FFB700"/>
<path d="M12.2662 13.2224C12.3337 13.1624 12.3637 13.0949 12.3225 13.0949C12.2775 13.0949 12.1575 13.1999 12.1575 13.2449C12.1575 13.3049 12.18 13.3012 12.27 13.2224H12.2662ZM12.1275 13.0312C12.1312 12.9937 12.1087 12.9712 12.0412 12.9374C11.8912 12.8737 11.7187 12.8399 11.6775 12.8737C11.5987 12.9374 11.6512 13.0199 11.775 13.0349C11.8275 13.0387 11.895 13.0537 11.9287 13.0687C12.0262 13.1062 12.1162 13.0874 12.1275 13.0312ZM12.1275 12.8324C12.135 12.7837 12.1012 12.7649 11.8275 12.6674C11.6212 12.5924 11.5312 12.6299 11.5987 12.7537C11.6212 12.7949 11.6587 12.8137 11.745 12.8287C11.8087 12.8362 11.895 12.8549 11.9362 12.8699C12.0487 12.9074 12.1162 12.8924 12.1237 12.8324H12.1275ZM12.2625 12.6487C12.3037 12.6074 12.3375 12.5587 12.3375 12.5362C12.3375 12.4799 12.1762 12.5849 12.1537 12.6599C12.1312 12.7462 12.1725 12.7424 12.2662 12.6487H12.2625ZM12.1275 12.6374C12.135 12.5774 12.0375 12.5249 11.8425 12.4837C11.6962 12.4499 11.6325 12.4687 11.6437 12.5362C11.6512 12.5737 11.7 12.5999 11.8312 12.6412C12.0525 12.7087 12.1162 12.7087 12.1275 12.6374ZM12.315 12.3599C12.57 12.2474 12.5887 11.9662 12.3525 11.8912C12.255 11.8612 12.195 11.8799 12.1575 11.9437C12.1275 11.9962 12.1462 12.0862 12.1837 12.0862C12.1987 12.0862 12.21 12.1049 12.21 12.1237C12.21 12.2249 11.8275 12.2662 11.67 12.1874C11.6137 12.1612 11.595 12.0862 11.6362 12.0862C11.6737 12.0862 11.6962 12.0112 11.6775 11.9624C11.655 11.8874 11.58 11.8649 11.4787 11.8949C11.2425 11.9549 11.25 12.2324 11.49 12.3449C11.7555 12.4424 12.0461 12.4476 12.315 12.3599Z" fill="#FFB700"/>
<path d="M12.1609 12.1424C12.1759 12.1274 12.1684 12.1049 12.1459 12.0899C12.0934 12.0487 12.0971 11.9849 12.1534 11.9137C12.1984 11.8612 12.2021 11.7787 12.2171 10.9724C12.2434 9.58116 12.3484 8.53491 12.4834 8.27991C12.5396 8.18241 12.5321 8.18241 12.3896 8.27991C12.2027 8.41016 12.0518 8.58561 11.9509 8.78991C11.7184 9.22116 11.6396 9.80241 11.6396 11.0474C11.6396 11.7524 11.6434 11.8462 11.6846 11.9099C11.7221 11.9774 11.7221 11.9999 11.6996 12.0674C11.6809 12.1087 11.6734 12.1537 11.6809 12.1612C11.7334 12.2099 12.1084 12.1987 12.1609 12.1424ZM14.2646 10.8149C14.2759 10.8037 14.2571 10.7399 14.2271 10.6799C14.1821 10.5824 14.1634 10.5674 14.0996 10.5674C13.7998 10.5413 13.5074 10.46 13.2371 10.3274C13.0459 10.2412 12.9746 10.2224 12.9559 10.2449C12.8959 10.3012 12.9934 10.4324 13.1434 10.5037C13.3641 10.5832 13.5953 10.63 13.8296 10.6424C13.9309 10.6424 13.9346 10.6424 13.8746 10.7287L13.8371 10.7887H13.9496L14.1371 10.8112C14.2496 10.8374 14.2496 10.8374 14.2646 10.8149Z" fill="#FFB700"/>
<path d="M15.4497 11.4412C15.4497 11.4037 15.3409 11.31 15.2359 11.2462C15.1497 11.1975 15.1347 11.1937 15.1347 11.235C15.1347 11.295 15.0822 11.4487 15.0597 11.4487C15.0484 11.4487 15.0297 11.4187 15.0222 11.385C15.0109 11.3475 14.9697 11.2725 14.9284 11.2237L14.8534 11.13L14.8009 11.2162C14.7484 11.2987 14.6547 11.3775 14.6134 11.3775C14.6059 11.3775 14.6022 11.3325 14.6134 11.2837C14.6172 11.2237 14.6134 11.1787 14.5947 11.1712C14.5797 11.16 14.5647 11.1637 14.5647 11.1787C14.5647 11.2087 14.4372 11.3512 14.4147 11.3512C14.3997 11.3512 14.3847 11.3137 14.3772 11.2612L14.3472 11.0812C14.3397 11.0362 14.3584 11.0662 14.3847 11.1562L14.4447 11.31L14.5047 11.2162C14.5319 11.1775 14.5522 11.1343 14.5647 11.0887C14.5647 11.07 14.5759 11.0625 14.5909 11.07C14.6059 11.0775 14.6247 11.1412 14.6322 11.2087L14.6509 11.3362L14.7184 11.2612C14.7538 11.2236 14.7864 11.1835 14.8159 11.1412C14.8422 11.0962 14.8459 11.0962 14.9022 11.1412C14.9322 11.1712 14.9809 11.235 15.0109 11.2875C15.0409 11.34 15.0672 11.3775 15.0709 11.3737L15.0934 11.2537L15.1084 11.1412C15.1122 11.1225 15.3109 11.2537 15.3859 11.3175C15.4309 11.3587 15.4759 11.3887 15.4834 11.3812C15.4909 11.3737 15.4984 11.3137 15.4984 11.2425C15.4984 11.1375 15.4872 11.1075 15.4234 11.0512C15.3484 10.9837 15.3484 10.9837 15.3184 11.0325C15.2809 11.0962 15.2397 11.0962 15.2397 11.0325C15.2397 10.9875 15.0972 10.8112 15.0634 10.8112C15.0522 10.8112 15.0222 10.8487 14.9959 10.8975C14.9697 10.9462 14.9397 10.9837 14.9322 10.9837C14.8947 10.9837 14.6959 10.7587 14.6959 10.7212C14.6959 10.6912 14.7109 10.6987 14.7447 10.7512C14.7782 10.8005 14.8172 10.8458 14.8609 10.8862C14.9359 10.9537 14.9659 10.9387 14.9959 10.8075C15.0072 10.77 15.0222 10.74 15.0334 10.74C15.0634 10.74 15.2359 10.9237 15.2584 10.9837L15.2847 11.0437L15.3034 10.9762C15.3259 10.8937 15.3522 10.8937 15.3897 10.9687C15.4047 10.9987 15.4797 11.0662 15.5547 11.1112L15.6934 11.2012L15.7197 11.1112C15.7347 11.0625 15.7572 11.0362 15.7647 11.0512C15.7797 11.07 15.7422 11.22 15.7159 11.25C15.7159 11.2537 15.6672 11.2275 15.6184 11.1937L15.5247 11.1262V11.2462C15.5247 11.31 15.5172 11.3887 15.5097 11.4187C15.4909 11.4787 15.4459 11.4937 15.4459 11.4412H15.4497ZM14.7559 10.4887C14.5909 10.3537 14.5684 10.3237 14.5684 10.2562L14.5722 10.1887L14.5834 10.2525C14.5909 10.29 14.6359 10.35 14.6884 10.395L14.7859 10.47L14.8422 10.4025C14.8759 10.365 14.9022 10.32 14.9022 10.305C14.9022 10.26 14.9097 10.2637 15.0222 10.3612C15.1197 10.4475 15.1234 10.4475 15.1347 10.3912C15.1459 10.3612 15.1422 10.3012 15.1347 10.26C15.0972 10.1475 15.1047 10.1325 15.1534 10.2L15.2434 10.305C15.2809 10.3462 15.2847 10.3462 15.2997 10.2937C15.3109 10.26 15.3184 10.2037 15.3184 10.1662V10.095L15.4047 10.1962C15.4909 10.2937 15.4984 10.2975 15.5209 10.2487C15.5397 10.2225 15.5509 10.1587 15.5509 10.11C15.5509 10.0425 15.5584 10.0275 15.5734 10.05C15.6034 10.095 15.5847 10.2075 15.5322 10.305L15.4947 10.38L15.4459 10.3012C15.3822 10.2037 15.3597 10.2037 15.3222 10.3087C15.2847 10.41 15.2584 10.4175 15.2209 10.3387C15.1984 10.29 15.1909 10.2975 15.1759 10.4025L15.1572 10.515L15.0447 10.4287L14.9322 10.3425L14.8759 10.3987C14.8497 10.4325 14.8272 10.4737 14.8272 10.4887C14.8272 10.5262 14.7972 10.5262 14.7559 10.4887ZM16.2184 9.97872C16.1622 9.92622 16.1209 9.87372 16.1284 9.86622C16.1397 9.85497 16.1472 9.85122 16.1509 9.85872C16.1872 9.8974 16.2248 9.93492 16.2634 9.97122C16.3909 10.1062 16.3647 10.11 16.2222 9.97872H16.2184ZM14.2684 9.77622C14.2159 9.70122 14.2197 9.65622 14.2872 9.57372C14.3322 9.51747 14.3547 9.50997 14.4372 9.52122C14.4934 9.52497 14.6097 9.57372 14.6959 9.62622C14.8206 9.70069 14.9632 9.73959 15.1084 9.73872L15.0447 9.63372C14.9622 9.50997 14.9622 9.49497 15.0597 9.56997C15.1572 9.64872 15.2734 9.67122 15.5359 9.66372L15.6634 9.65997L15.5884 9.58497C15.4872 9.48372 15.5172 9.47247 15.6334 9.57372C15.7384 9.66747 15.7347 9.67497 15.5059 9.69747C15.4106 9.7071 15.3142 9.70077 15.2209 9.67872C15.0934 9.64122 15.0859 9.64497 15.1122 9.68622C15.1272 9.71247 15.1497 9.73122 15.1609 9.73122C15.1759 9.73122 15.1872 9.74622 15.1872 9.76122C15.1872 9.80997 14.9097 9.76497 14.7747 9.70122C14.4747 9.54747 14.4372 9.53247 14.3622 9.55497C14.3422 9.56265 14.324 9.57424 14.3085 9.58905C14.2931 9.60385 14.2807 9.62159 14.2722 9.64122C14.2234 9.76497 14.3997 9.86247 14.4709 9.75372C14.4934 9.71997 14.4897 9.70122 14.4522 9.65997C14.3997 9.60747 14.4072 9.59997 14.4747 9.62247C14.5234 9.64122 14.5272 9.75747 14.4822 9.80247C14.4334 9.85122 14.3134 9.83997 14.2684 9.77622Z" fill="black"/>
<path d="M15.4646 9.47247C15.4271 9.43497 15.4571 9.42747 15.6258 9.42372C15.8358 9.41997 15.9633 9.38622 16.1133 9.28872C16.2333 9.21372 16.2671 9.22872 16.1508 9.30747C16.0496 9.38247 15.8883 9.43497 15.7271 9.44997L15.5358 9.47622C15.5058 9.48372 15.4721 9.47997 15.4608 9.47247H15.4646Z" fill="black"/>
</g>
<defs>
<clipPath id="clip0_208_26332">
<rect width="24" height="24" rx="12" fill="white"/>
</clipPath>
</defs>
</svg>
