<svg width="24" height="24" viewBox="0 0 24 24" fill="none" xmlns="http://www.w3.org/2000/svg">
<g clip-path="url(#clip0_208_8929)">
<mask id="mask0_208_8929" style="mask-type:luminance" maskUnits="userSpaceOnUse" x="0" y="0" width="24" height="24">
<path d="M0 0H24V24H0V0Z" fill="white"/>
</mask>
<g mask="url(#mask0_208_8929)">
<path d="M0 0V24H36V0H0Z" fill="#3399CC"/>
<path d="M0 15.9984V17.3344H36V15.9984H0ZM0 18.6703V20.0015H36V18.6656H0V18.6703Z" fill="#FFFF00"/>
<path d="M5.71914 1.3125L5.83164 1.42969L5.72383 1.31719L5.71914 1.3125ZM5.83164 1.5375L5.94414 1.65L5.83633 1.5375H5.83164Z" fill="#99CCCC"/>
<path d="M5.83164 1.65002L5.94414 1.76252L5.83633 1.65002H5.83164Z" fill="#CCCCFF"/>
<path d="M5.71875 1.875L5.83125 1.98281L5.72344 1.875H5.71875Z" fill="#CC6666"/>
<path d="M5.83164 2.09534L5.94414 2.20784L5.83633 2.09534H5.83164Z" fill="#FFCCCC"/>
<path d="M5.39043 2.20776L5.49824 2.32026L5.38574 2.20776H5.39043Z" fill="#66CCCC"/>
<path d="M5.70469 1.54224L4.92188 4.50942L1.94531 5.31567L4.9125 6.08911L5.70469 9.0563L6.49688 6.08911L9.45938 5.29692L6.49219 4.50942L5.70469 1.54224Z" fill="#CC0000" stroke="white" stroke-width="0.375"/>
<path d="M5.39043 2.32031L5.49824 2.43281L5.38574 2.32031" fill="#99CCFF"/>
<path d="M5.27344 2.65308L5.39062 2.76558L5.27812 2.65308" fill="#99CCFF"/>
<path d="M5.39043 2.76562L5.49824 2.87813L5.38574 2.76562" fill="#FFCCCC"/>
<path d="M5.27344 3.21094L5.39062 3.32812L5.27812 3.21562" fill="#FFCCCC"/>
<path d="M6.38867 3.21094L6.50117 3.32344L6.39336 3.21094H6.38867Z" fill="#6699CC"/>
<path d="M5.05273 3.32817L5.16523 3.43599L5.05273 3.32349V3.32817Z" fill="#99CCCC"/>
<path d="M6.20117 3.39844L6.24336 3.47344L6.20586 3.39844H6.20117Z" fill="#CC3333"/>
<path d="M6.38867 3.32817L6.50117 3.43599L6.39336 3.32349L6.38867 3.32817Z" fill="#99CCCC"/>
<path d="M4.94043 3.65625L5.05293 3.76875L4.94043 3.66094V3.65625Z" fill="#99CCCC"/>
<path d="M5.20293 3.7312L5.23574 3.8062L5.19824 3.7312" fill="#CC3333"/>
<path d="M6.50195 3.65625L6.61445 3.76875L6.50195 3.66094V3.65625Z" fill="#99CCCC"/>
<path d="M6.94668 4.43909L7.05918 4.55159L6.95137 4.43909H6.94668Z" fill="#CCCCFF"/>
<path d="M6.83887 4.55156L6.94668 4.66406L6.84355 4.54688L6.83887 4.55156Z" fill="#FFCCCC"/>
<path d="M4.45312 4.70154L4.53281 4.73904L4.45781 4.70154" fill="#CC3333"/>
<path d="M7.73418 4.66406L7.84199 4.77656L7.72949 4.66406H7.73418Z" fill="#99CCCC"/>
<path d="M3.375 4.77661L3.49219 4.88442L3.375 4.7813V4.77661Z" fill="#99CCCC"/>
<path d="M3.9375 4.77661L4.05 4.88442L3.9375 4.7813V4.77661Z" fill="#FFCCCC"/>
<path d="M8.0625 4.77661L8.175 4.88442L8.06719 4.77661H8.0625Z" fill="#99CCCC"/>
<path d="M3.04668 4.8844L3.15449 4.9969L3.04199 4.8844H3.04668Z" fill="#99CCFF"/>
<path d="M2.37207 5.10938L2.48457 5.22188L2.37676 5.10938H2.37207Z" fill="#CCCCFF"/>
<path d="M2.37207 5.55469L2.48457 5.67188L2.37676 5.55937L2.37207 5.55469Z" fill="#CCCCFF"/>
<path d="M2.92969 5.77966L3.04219 5.89216L2.93437 5.77966H2.92969Z" fill="#6699CC"/>
<path d="M3.04668 5.77966L3.15449 5.89216L3.04199 5.77966H3.04668Z" fill="#99CCFF"/>
<path d="M3.78711 5.8125L3.86211 5.85469L3.78711 5.81719" fill="#CC3333"/>
<path d="M3.375 5.89221L3.49219 6.00002L3.37969 5.89221H3.375Z" fill="#99CCCC"/>
<path d="M4.125 5.92974L4.19531 5.96255L4.125 5.92505" fill="#CC3333"/>
<path d="M8.0625 5.89221L8.175 6.00002L8.06719 5.89221H8.0625Z" fill="#99CCCC"/>
<path d="M4.45312 6.03748L4.53281 6.07498L4.45781 6.03748" fill="#CC3333"/>
<path d="M7.73418 6L7.84199 6.1125L7.72949 6H7.73418Z" fill="#99CCCC"/>
<path d="M6.94668 6.22498L7.05918 6.33748L6.95137 6.22498H6.94668Z" fill="#CCCCFF"/>
<path d="M4.82812 6.56255L4.94063 6.67036L4.82812 6.55786V6.56255Z" fill="#CCCCFF"/>
<path d="M6.61426 6.56255L6.72676 6.67036L6.61426 6.55786V6.56255Z" fill="#CCCCFF"/>
<path d="M4.94043 6.89062L5.05293 7.00781L4.94043 6.89531V6.89062Z" fill="#CCCCFF"/>
<path d="M5.20293 6.97034L5.23574 7.04534L5.19824 6.97034" fill="#CC3333"/>
<path d="M6.50195 6.89062L6.61445 7.00781L6.50195 6.89531V6.89062Z" fill="#CCCCFF"/>
<path d="M5.16602 7.1156L5.27383 7.2281L5.16602 7.12029" fill="#FFCCCC"/>
<path d="M6.20117 7.3031L6.24336 7.3781L6.20586 7.3031H6.20117Z" fill="#CC3333"/>
<path d="M6.38867 7.22815L6.50117 7.34065L6.39336 7.22815H6.38867Z" fill="#CCFFFF"/>
<path d="M6.16406 7.45312L6.28125 7.56562L6.16875 7.45312H6.16406Z" fill="#FFCCCC"/>
<path d="M6.38867 7.45312L6.50117 7.56562L6.39336 7.45312H6.38867Z" fill="#6699CC"/>
<path d="M5.39043 7.89844L5.49824 8.01094L5.38574 7.89844" fill="#FFCCCC"/>
<path d="M6.16406 8.12341L6.28125 8.23123L6.16875 8.12341H6.16406Z" fill="#6699CC"/>
<path d="M5.39043 8.34375L5.49824 8.45625L5.38574 8.34375H5.39043Z" fill="#99CCFF"/>
<path d="M5.39043 8.4563L5.49824 8.5688L5.38574 8.4563" fill="#66CCCC"/>
<path d="M5.83164 8.56873L5.94414 8.68123L5.83633 8.56873H5.83164Z" fill="#FFCCCC"/>
<path d="M5.71875 8.7937L5.83125 8.90151L5.72344 8.7937H5.71875Z" fill="#CC6666"/>
<path d="M5.83164 9.01404L5.94414 9.12654L5.83633 9.01404H5.83164Z" fill="#CCCCFF"/>
<path d="M5.83164 9.12659L5.94414 9.23909L5.83633 9.12659M5.72383 9.35159L5.83633 9.4594L5.72383 9.3469V9.35159Z" fill="#99CCCC"/>
</g>
</g>
<defs>
<clipPath id="clip0_208_8929">
<rect width="24" height="24" rx="12" fill="white"/>
</clipPath>
</defs>
</svg>
