<svg width="24" height="24" viewBox="0 0 24 24" fill="none" xmlns="http://www.w3.org/2000/svg">
<g clip-path="url(#clip0_208_26869)">
<path d="M0 0H24V24H0V0Z" fill="#009FCA"/>
<path fill-rule="evenodd" clip-rule="evenodd" d="M22.4066 10.6079L22.7395 11.5642L21.877 10.9735L21.0098 11.5642L21.3426 10.6079L20.4754 10.0173H21.5488L21.877 9.06104L22.2051 10.0173H23.2738L22.4066 10.6079ZM19.7254 18.2392L20.0535 19.1954L19.191 18.6001L18.3285 19.1954L18.6566 18.2392L17.7941 17.6438H18.8629L19.191 16.6876L19.5191 17.6485H20.5926L19.7254 18.2392ZM22.4113 16.5095L22.7395 17.4657L21.877 16.8751L21.0098 17.4657L21.3426 16.5095L20.4754 15.9188H21.5488L21.877 14.9626L22.2051 15.9188H23.2738L22.4113 16.5095ZM10.8707 22.0407L11.2035 23.0017L10.341 22.4063L9.47383 23.0017L9.80664 22.0454L8.93945 21.4548H10.0082L10.3363 20.4985L10.6691 21.4548H11.7379L10.8707 22.0407ZM12.891 17.897L12.5629 16.9407L13.4254 17.5313L14.2879 16.9407L13.9598 17.897L14.8223 18.4876H13.7535L13.4254 19.4438L13.0973 18.4876H12.0285L12.891 17.897ZM16.0457 13.5376L15.7129 12.5813L16.5754 13.172L17.4426 12.5813L17.1145 13.5376L17.977 14.1282H16.9082L16.5801 15.0845L16.252 14.1282H15.1785L16.0457 13.5376ZM18.6941 12.6329L18.366 11.6767L19.2285 12.2673L20.091 11.6767L19.7629 12.6329L20.6254 13.2235H19.5566L19.2285 14.1798L18.9004 13.2235H17.827L18.6941 12.6329ZM16.0457 20.1798L15.7129 19.2235L16.5754 19.8142L17.4426 19.2235L17.1145 20.1798L17.977 20.7704H16.9082L16.5801 21.7267L16.252 20.7704H15.1785L16.0457 20.1798ZM12.891 20.9485L12.5629 19.9923L13.4254 20.5829L14.2879 19.9923L13.9598 20.9485L14.8223 21.5392H13.7535L13.4254 22.4954L13.0973 21.5392H12.0285L12.891 20.9485Z" fill="#FFF40D"/>
<path d="M0 0H12V12H0V0Z" fill="#012169"/>
<path d="M12 0V1.5L7.54688 6L12 10.3828V12H10.4297L5.95312 7.59375L1.59375 12H0V10.4062L4.35938 6.02344L0 1.73438V0H1.45312L5.95312 4.40625L10.3125 0H12Z" fill="white"/>
<path d="M4.3125 7.59375L4.57031 8.39062L0.984375 12H0V11.9297L4.3125 7.59375ZM7.21875 7.3125L8.48438 7.5L12 10.9453V12L7.21875 7.3125ZM12 0L7.5 4.59375L7.40625 3.5625L10.9219 0H12ZM0 0.0234375L4.52344 4.45312L3.14062 4.26562L0 1.14844V0.0234375Z" fill="#C8102E"/>
<path d="M4.125 0V12H7.875V0H4.125ZM0 4.125V7.875H12V4.125H0Z" fill="white"/>
<path d="M0 4.875V7.125H12V4.875H0ZM4.875 0V12H7.125V0H4.875Z" fill="#C8102E"/>
</g>
<defs>
<clipPath id="clip0_208_26869">
<rect width="24" height="24" rx="12" fill="white"/>
</clipPath>
</defs>
</svg>
