<svg width="24" height="24" viewBox="0 0 24 24" fill="none" xmlns="http://www.w3.org/2000/svg">
<g clip-path="url(#clip0_208_20802)">
<path d="M0 0H24V24H0V0Z" fill="white"/>
<path d="M0 12H24V24H0V12ZM2.49844 12C2.49844 13.0508 2.7054 14.0912 3.10752 15.062C3.50964 16.0328 4.09903 16.9149 4.84204 17.6579C5.58505 18.401 6.46714 18.9903 7.43793 19.3925C8.40873 19.7946 9.44922 20.0015 10.5 20.0015C11.5508 20.0015 12.5913 19.7946 13.5621 19.3925C14.5329 18.9903 15.4149 18.401 16.158 17.6579C16.901 16.9149 17.4904 16.0328 17.8925 15.062C18.2946 14.0912 18.5016 13.0508 18.5016 12C18.5016 9.87783 17.6585 7.8426 16.158 6.34202C14.6574 4.84143 12.6221 3.99841 10.5 3.99841C8.37785 3.99841 6.34263 4.84143 4.84204 6.34202C3.34146 7.8426 2.49844 9.87783 2.49844 12Z" fill="#D00C33"/>
</g>
<defs>
<clipPath id="clip0_208_20802">
<rect width="24" height="24" rx="12" fill="white"/>
</clipPath>
</defs>
</svg>
