<svg width="24" height="24" viewBox="0 0 24 24" fill="none" xmlns="http://www.w3.org/2000/svg">
<g clip-path="url(#clip0_208_23152)">
<path d="M0.00976562 0H24.0098V24H0.00976562V0Z" fill="#012169"/>
<path d="M13.2004 5.95312H22.8285L22.8145 12.8109C22.8941 15.5625 21.1738 17.2734 18.0191 18.0469C15.7738 17.4844 13.1863 16.3359 13.1816 12.8906L13.1957 5.95312H13.2004Z" fill="white"/>
<path d="M13.4107 6.15942H22.617L22.6076 12.7313C22.6826 15.3704 21.042 17.0063 18.0232 17.7469C15.8764 17.2125 13.4014 16.1063 13.4014 12.8063L13.4107 6.15942Z" fill="#00A2BD" stroke="black" stroke-width="0.225"/>
<path d="M22.5467 13.5094C22.2092 16.0266 20.2686 17.1281 18.0186 17.7141C16.0311 17.1797 13.8936 16.3266 13.4717 13.5188L22.5467 13.5094Z" fill="#A53D08"/>
<path d="M17.6576 7.38286L17.6436 6.55786L18.2998 6.56255L18.3045 7.38286H20.0951L20.0998 8.02505L18.3045 8.03442L18.2904 15.6L17.6529 15.6047L17.6436 8.02505L15.8623 8.03442V7.37817L17.6576 7.38286Z" fill="black"/>
<path fill-rule="evenodd" clip-rule="evenodd" d="M16.2093 13.8188L17.8499 15.5204C18.4124 14.8969 18.0186 12.5672 17.2733 12.1407C17.1843 12.4172 17.0343 12.75 16.8702 12.8532C16.5139 13.0969 15.6468 13.3782 15.9327 13.5563C16.003 13.4672 16.1764 13.3829 16.2608 13.5844C16.3546 13.9079 15.8952 13.9266 15.8952 13.9266C15.8952 13.9266 15.6046 13.8891 15.553 13.5985C15.5061 13.2985 15.9889 13.0266 16.0264 13.0079C16.0733 12.9938 16.7014 12.8204 16.8093 12.2625C16.9405 11.7094 17.0811 11.7938 17.1046 11.7844C17.9343 11.8641 18.4733 13.3454 18.5061 14.386C18.5343 15.4266 18.0843 16.1204 17.9999 16.1672C17.9155 16.2094 16.0311 13.9219 16.0311 13.9219L16.2093 13.8188Z" fill="#FF9A08" stroke="black" stroke-width="0.1"/>
<path d="M17.3998 12.2344L17.4139 15.3047L17.3998 12.2344ZM17.217 12.2953L17.2264 15.0797L17.217 12.2953ZM17.0154 12.6984L17.0295 14.9109L17.0154 12.6984ZM16.8561 12.8531L16.8654 14.6859L16.8561 12.8531ZM16.6826 12.9375V14.4844V12.9375ZM16.4951 13.0594V14.2828V13.0594ZM16.3311 13.1578V14.0953V13.1578Z" fill="#FF9A08"/>
<path d="M17.3998 12.2344L17.4139 15.3047M17.217 12.2953L17.2264 15.0797M17.0154 12.6984L17.0295 14.9109M16.8561 12.8531L16.8654 14.6859M16.6826 12.9375V14.4844M16.4951 13.0594V14.2828M16.3311 13.1578V14.0953" stroke="black" stroke-width="0.1"/>
<path d="M16.1816 14.0156L17.8691 15.9469" stroke="#FFDF00" stroke-width="0.125" stroke-linecap="round"/>
<path d="M17.953 12.7969C17.953 12.7969 18.7171 14.4703 18.0093 15.8438M15.9843 13.6594C15.9843 13.6594 16.0405 13.5141 16.1108 13.575M15.8483 13.2328C15.8483 13.2328 15.5436 13.5047 15.7077 13.6781" stroke="#FFDF00" stroke-width="0.175" stroke-linecap="round"/>
<path d="M18.3096 8.97183C18.4221 8.87808 18.483 8.81714 18.5534 8.8312C18.6237 8.84058 18.7174 8.8312 18.7877 8.81245C18.9722 8.76961 19.1633 8.76324 19.3502 8.79371C19.3971 8.80308 19.4627 8.82652 19.5659 8.91089C19.6643 8.99527 19.8096 9.14527 19.7627 9.54839C19.7159 9.95152 19.7299 10.125 19.7065 10.3546C19.669 10.7531 19.5799 11.0812 19.4252 11.0578C19.6362 11.4328 19.6596 11.7609 19.8002 12.0187C19.9409 12.2765 20.0252 12.8062 19.9737 13.3781C19.9174 13.9546 19.7674 15.239 20.2221 16.1062C20.1471 16.1578 19.9643 16.1062 19.8002 15.9328C19.6362 15.7593 19.5659 15.764 19.4299 15.8671C19.0221 16.1812 18.633 16.5609 18.0705 16.1812C17.9393 16.0968 17.8971 15.9937 17.9955 15.7265C18.2299 15.0703 18.3471 14.1609 18.3096 13.739V8.97183Z" fill="#008021" stroke="black" stroke-width="0.0375"/>
<path d="M18.7027 8.56872C18.7309 8.66247 18.7449 8.77966 18.6981 8.88747C18.6512 8.99528 18.6371 9.12185 18.7168 9.28122C18.8481 9.09841 19.0309 9.1406 19.1387 9.0281C19.2465 8.92028 19.2699 8.81716 19.3496 8.79372C19.2699 8.72341 19.1434 8.6531 19.1715 8.44216C19.1996 8.2406 19.4856 8.06716 19.2277 7.75778C19.1663 7.68333 19.0787 7.6351 18.9829 7.62291C18.8871 7.61072 18.7903 7.63548 18.7121 7.69216C18.666 7.72388 18.6276 7.76552 18.5996 7.81403C18.5856 7.85153 18.6043 7.93122 18.5668 7.9781L18.4731 8.07185C18.4449 8.08591 18.4262 8.10935 18.4543 8.14216C18.4637 8.15153 18.4871 8.15622 18.5059 8.16091C18.4956 8.18548 18.4831 8.20902 18.4684 8.23122C18.4543 8.24528 18.459 8.25935 18.4731 8.2781C18.4543 8.33903 18.4918 8.34841 18.4684 8.39528C18.4449 8.43747 18.4121 8.48903 18.4965 8.53591C18.5246 8.54997 18.6371 8.5781 18.6981 8.56872H18.7027ZM17.6481 9.64216C17.4981 9.68435 17.2543 9.61872 17.0668 9.64216C16.9871 9.64685 16.9262 9.60466 16.9356 9.52497C16.9449 9.44528 16.9543 9.31872 16.9356 9.20622C16.9121 9.0281 16.9965 8.78435 17.1184 8.51247C17.211 8.34388 17.2715 8.15947 17.2965 7.96872C17.2965 7.88435 17.3059 7.7906 17.3809 7.74372C17.4371 7.70622 17.4465 7.67341 17.4652 7.64528C17.5121 7.57497 17.559 7.56091 17.559 7.59841C17.5637 7.62185 17.559 7.64528 17.5356 7.6781C17.5824 7.63591 17.6668 7.58903 17.6856 7.57497C17.7043 7.5656 17.7981 7.49528 17.8027 7.56091C17.8402 7.54216 17.8684 7.54216 17.8777 7.56091C17.8871 7.58435 17.8777 7.59372 17.8637 7.60778C17.8871 7.60778 17.9199 7.65466 17.8637 7.69216C17.8965 7.68278 17.9246 7.72966 17.8731 7.77653C17.8215 7.81872 17.7606 7.85153 17.7418 7.88435C17.7231 7.92185 17.5965 8.02028 17.5449 8.03903C17.4934 8.06247 17.4887 8.0906 17.4887 8.1656C17.4887 8.99997 17.3902 8.93435 17.3902 9.13122C17.3902 9.18747 17.3809 9.23435 17.4371 9.22028C17.484 9.20153 17.5684 9.1781 17.6481 9.1781V9.64685V9.64216ZM17.6809 11.4375C17.9246 11.3156 18.2059 11.2734 18.3512 11.2359C18.4918 11.1984 18.7262 11.0812 18.8434 11.025C18.9559 10.964 19.0496 10.8843 19.1106 10.8609C19.1762 10.8375 19.2512 10.7953 19.2887 10.7156C19.4996 10.3031 19.6168 9.97497 19.6168 9.68435C19.6168 9.49685 19.5699 9.28591 19.3824 9.4406C19.209 9.58122 19.0215 9.85778 18.9699 10.0547C18.8949 10.3593 18.8293 10.425 18.8152 10.4812C18.7965 10.5422 18.7356 10.5422 18.6652 10.5562C18.4301 10.594 18.2105 10.698 18.0324 10.8562C17.8182 11.0138 17.5943 11.1578 17.3621 11.2875C17.1887 11.3812 17.1559 11.3953 17.1184 11.475C17.0905 11.5374 17.0542 11.5958 17.0106 11.6484C16.9967 11.6642 16.9865 11.683 16.9808 11.7033C16.9751 11.7236 16.9741 11.7449 16.9777 11.7656L16.9637 12.0187C16.9637 12.0703 16.9731 12.0843 16.9965 12.089C17.0152 12.089 17.0434 12.0797 17.0574 12.014C17.0481 12.0797 17.1371 12.0609 17.1418 12.014C17.1418 12.0797 17.2356 12.0375 17.2356 11.9765C17.2356 12.0234 17.3106 11.9906 17.3152 11.9672L17.3668 11.8078C17.3996 11.7468 17.4324 11.6672 17.4981 11.6203C17.5684 11.5734 17.5356 11.5125 17.6809 11.4375ZM19.4293 15.8672L19.4902 16.0359C19.4996 16.0781 19.4809 16.0875 19.4715 16.1109C19.4085 16.2415 19.3643 16.3804 19.3402 16.5234C19.3402 16.5797 19.2934 16.6406 19.2793 16.6734C19.2559 16.7109 19.2652 16.7437 19.3121 16.7812C19.3356 16.7953 19.4059 16.7718 19.4199 16.7343C19.4434 16.7625 19.4949 16.7531 19.5137 16.7109C19.5418 16.7343 19.5793 16.7203 19.6074 16.6781C19.6309 16.6968 19.6684 16.664 19.6824 16.6406C19.7199 16.6593 19.7574 16.6406 19.7621 16.5609L19.7809 16.5047C19.7902 16.4859 19.7949 16.4531 19.7949 16.425C19.7949 16.3922 19.8137 16.3312 19.8371 16.2937C19.8606 16.2468 19.9074 16.1765 19.884 16.1062C19.8699 16.0406 19.8418 16.0453 19.8184 15.9515C19.7574 15.8906 19.6777 15.8015 19.5934 15.7968C19.509 15.7922 19.4621 15.8484 19.4293 15.8672ZM17.8918 16.3312C17.9668 16.4062 18.1402 16.4109 18.2574 16.2843C18.2106 16.2656 18.1168 16.2234 18.0793 16.1906C18.0184 16.2468 17.9481 16.3125 17.8918 16.3312Z" fill="#FFE1CF" stroke="black" stroke-width="0.0375"/>
<path d="M18.6562 7.73436C18.6891 7.54686 18.825 7.54686 18.9094 7.5703C18.9469 7.57499 19.0313 7.58436 19.1109 7.56092C19.275 7.51874 19.3922 7.57499 19.3781 7.72967C19.425 7.76249 19.4672 7.83749 19.4578 7.90311C19.4484 7.96874 19.4625 7.99686 19.5234 8.00155C19.5844 8.01092 19.7109 8.08592 19.6266 8.18905C19.7063 8.23592 19.7672 8.36249 19.725 8.44217C19.6828 8.52655 19.5516 8.54061 19.5 8.46561C19.4391 8.49374 19.3406 8.49842 19.2844 8.43749C19.2422 8.48436 19.1437 8.47967 19.1203 8.43749C19.1016 8.39061 19.0734 8.37186 19.0312 8.3578C18.9844 8.34374 18.9844 8.22655 19.05 8.21249C19.0406 8.17499 19.0453 8.13749 19.0594 8.11874C19.0781 8.09999 19.0641 8.06249 19.0266 8.03436C18.9891 8.00155 18.9563 7.89374 18.9938 7.82811C18.9281 7.85155 18.7875 7.78592 18.7594 7.74374C18.7266 7.69686 18.6844 7.69686 18.6609 7.73436H18.6562Z" fill="#870F00" stroke="black" stroke-width="0.0375"/>
<path d="M18.7033 8.5688C18.8064 8.55474 18.8439 8.48911 18.9189 8.4938M18.4736 8.27349L18.5018 8.29224C18.5205 8.30161 18.5486 8.3063 18.5674 8.3063M18.5064 8.16099L18.5533 8.18911M18.7502 7.73443C18.6893 7.67818 18.858 7.5563 19.0314 7.72974C19.0643 7.75786 19.1486 7.76255 19.1721 7.75317M18.9939 7.82818C19.0736 7.80943 19.1955 7.80943 19.2283 7.89849C19.2658 7.99224 19.3361 7.9313 19.3924 8.03911C19.4486 8.15161 19.5424 8.27349 19.6268 8.18911M19.2846 8.43755C19.2705 8.41462 19.2616 8.38894 19.2584 8.36225C19.2551 8.33556 19.2577 8.30848 19.2658 8.28286C19.233 8.24536 19.2471 8.17036 19.2658 8.13286M19.0502 8.21255C19.0502 8.24536 19.0971 8.3063 19.1627 8.31567M19.5002 8.46568C19.4627 8.4188 19.4674 8.37192 19.4768 8.31567" stroke="black" stroke-width="0.0375"/>
<path d="M19.1064 7.92661C19.1064 7.97349 19.1299 8.03911 19.1814 8.06724C19.1955 8.09067 19.2471 8.16567 19.3549 8.1563M19.3783 7.73442C19.3082 7.67192 19.2223 7.62978 19.1299 7.61255M18.7174 9.2813C18.6236 9.40786 18.5674 9.5813 18.6096 9.82505C18.6564 10.0641 18.7221 10.425 18.5439 10.5844M19.4205 11.0579C19.2986 11.0297 19.1205 11.0297 19.0221 11.1C18.9669 11.1341 18.9041 11.1538 18.8393 11.157C18.7746 11.1603 18.7101 11.1472 18.6518 11.1188" stroke="black" stroke-width="0.0375"/>
<path d="M19.1575 11.0484C19.0497 11.0672 18.9981 11.1422 18.9981 11.3438C18.9981 11.5406 18.9559 11.8359 18.9934 12.1219M18.9606 11.1328C18.8903 11.1516 18.82 11.1516 18.8293 11.3438M18.595 11.3438C18.595 11.2312 18.6418 11.1234 18.7168 11.1422M19.3731 11.3672C19.3825 11.1141 19.3262 11.0391 19.2465 11.0391C19.3497 11.0438 19.42 11.0578 19.4622 11.4797C19.495 11.7891 19.5606 11.9016 19.6356 12.15C19.8325 12.7875 19.734 13.7719 19.8325 14.1188M19.2278 11.4469C19.4938 12.1957 19.4855 13.0146 19.2043 13.7578C19.4293 14.3859 19.659 14.8406 19.7012 15.0984M18.5762 12.8484C18.6137 12.7172 18.4825 12.6984 18.5997 12.225C18.6465 12.0187 18.6606 11.8969 18.6278 11.8266" stroke="black" stroke-width="0.0375"/>
<path d="M18.6281 12.1078C18.5812 12.3187 18.7828 12.7172 18.6797 12.9984M18.4219 13.0547C18.4219 13.2422 18.4687 13.4765 18.4594 13.664C18.45 13.8469 18.525 13.9312 18.6094 14.1047C18.9234 14.7328 19.1391 15.1828 19.1063 15.7687C19.1063 15.8765 19.1391 16.1062 19.0266 16.1719M18.4359 16.3312C18.4687 16.3312 18.5016 16.3172 18.5438 16.2187C18.5813 16.125 18.7125 15.539 18.6609 15.1406M18.7219 15.5906C18.7472 15.7865 18.7263 15.9855 18.6609 16.1719" stroke="black" stroke-width="0.0375"/>
<path d="M18.9282 15.2203C18.9751 15.4828 18.9751 15.7219 18.9329 15.8906M18.8204 15.8906C18.8251 15.9985 18.8766 16.2656 18.7923 16.2891M19.2282 14.6344C19.4251 14.9485 19.5844 15.7219 19.7485 15.886M19.4016 15.7594C19.3923 15.675 19.3876 15.5532 19.3407 15.5016M17.2407 11.9766C17.2407 11.9156 17.2313 11.8594 17.2969 11.7656M17.1423 12.0094C17.1516 11.8032 17.1469 11.7844 17.2079 11.7281M17.0626 12.0141C17.0626 11.8688 17.0438 11.8172 17.1001 11.7188M17.8032 7.55627L17.5876 7.71565M17.8594 7.60315C17.836 7.60784 17.7657 7.66877 17.6298 7.7719M17.8688 7.68752C17.8219 7.70627 17.7469 7.78127 17.6719 7.83752M17.5313 7.67346L17.4563 7.74846M19.4204 16.7344C19.4063 16.7203 19.4063 16.6735 19.4298 16.6219M19.5141 16.711C19.5001 16.6969 19.5141 16.6313 19.5329 16.5891M19.6079 16.6781C19.5891 16.6688 19.5844 16.6313 19.6079 16.5844M19.6829 16.6406C19.6688 16.6406 19.6641 16.6172 19.6829 16.5563" stroke="black" stroke-width="0.0375"/>
<path d="M18.6187 7.90785C18.6562 7.95473 18.6984 7.95473 18.7031 7.98754L18.7219 8.03441H18.6937L18.6281 8.02973C18.6094 8.02973 18.5859 8.00629 18.6 8.0016C18.6141 8.0016 18.6141 7.99691 18.6094 7.98754L18.6234 7.95941C18.6328 7.95473 18.6234 7.95941 18.6234 7.94066C18.6141 7.9266 18.6094 7.89379 18.6187 7.90785ZM18.6422 7.86098C18.7014 7.86696 18.7572 7.89157 18.8016 7.93129C18.8344 7.96879 18.8062 7.95941 18.7922 7.95941C18.7734 7.95941 18.7453 7.95004 18.7266 7.93129C18.7125 7.91254 18.6609 7.88441 18.6328 7.87973C18.6234 7.87504 18.6094 7.85629 18.6422 7.86098Z" fill="black"/>
<path d="M0.00976562 0H12.0098V12H0.00976562V0Z" fill="#012169"/>
<path d="M12.0098 0V1.5L7.55664 6L12.0098 10.3828V12H10.4395L5.96289 7.59375L1.60352 12H0.00976562V10.4062L4.36914 6.02344L0.00976562 1.73438V0H1.46289L5.96289 4.40625L10.3223 0H12.0098Z" fill="white"/>
<path d="M4.32227 7.59375L4.58008 8.39062L0.994141 12H0.00976562V11.9297L4.32227 7.59375ZM7.22852 7.3125L8.49414 7.5L12.0098 10.9453V12L7.22852 7.3125ZM12.0098 0L7.50977 4.59375L7.41602 3.5625L10.9316 0H12.0098ZM0.00976562 0.0234375L4.5332 4.45312L3.15039 4.26562L0.00976562 1.14844V0.0234375Z" fill="#C8102E"/>
<path d="M4.13477 0V12H7.88477V0H4.13477ZM0.00976562 4.125V7.875H12.0098V4.125H0.00976562Z" fill="white"/>
<path d="M0.00976562 4.875V7.125H12.0098V4.875H0.00976562ZM4.88477 0V12H7.13477V0H4.88477Z" fill="#C8102E"/>
</g>
<defs>
<clipPath id="clip0_208_23152">
<rect width="24" height="24" rx="12" fill="white"/>
</clipPath>
</defs>
</svg>
