<svg width="24" height="24" viewBox="0 0 24 24" fill="none" xmlns="http://www.w3.org/2000/svg">
<g clip-path="url(#clip0_208_9174)">
<path d="M0 0H24V24H0V0Z" fill="#3A7DCE"/>
<path d="M5.04863 11.2922C4.88457 10.9219 4.88457 10.9219 4.88457 10.5562C4.8002 10.5562 4.78613 10.575 4.73926 10.5562C4.69238 10.5422 4.67363 10.8984 4.51895 10.8281C4.49551 10.7953 4.63145 10.5375 4.48145 10.4344C4.43457 10.3969 4.49551 10.1859 4.47207 10.0969C4.47207 10.0969 4.28457 10.2047 4.14395 9.82029C4.07832 9.72185 3.98457 9.91404 3.98457 9.91404C3.98457 9.91404 4.02676 10.0312 3.95176 10.0547C3.84395 9.97029 3.76895 10.0172 3.6377 9.89998C3.50176 9.78279 3.66582 9.64685 3.4127 9.54373C3.57676 9.08435 3.57676 9.1781 3.98457 8.9906C3.74082 8.80779 3.74082 8.80779 3.57676 8.53123C3.32832 8.43748 3.24863 8.34842 3.00488 8.1656C2.67676 7.70623 2.5127 6.78748 2.5127 6.1406C2.71895 5.92498 3.00488 6.87654 3.4127 7.1531L3.98457 7.42967C4.3127 7.61717 4.39238 7.79529 4.64082 7.98279L5.37207 8.25935C5.7002 8.53123 5.86426 8.90154 6.10801 8.9906C6.3752 8.9906 6.42676 8.82185 6.51113 8.80779C6.98926 8.78435 7.2377 8.71404 7.33145 8.54998C7.4252 8.41873 7.65957 8.62498 8.31582 8.34842L8.23145 7.98279C8.23145 7.98279 8.40957 7.81873 8.64394 7.88904C8.63457 7.72029 8.62051 7.27498 8.8502 7.06873C8.70957 6.90467 8.80332 6.78748 8.80332 6.78748C8.80332 6.78748 8.93457 6.64685 8.95332 6.57185C8.88301 6.16404 9.00957 6.15935 9.04238 6.04217C9.07051 5.92029 8.92988 5.96248 8.96738 5.79842C9.00957 5.63435 9.24863 5.59217 9.27676 5.45623C9.30957 5.32498 9.20645 5.25467 9.21582 5.22185C9.2627 5.09529 9.22051 4.7906 9.21582 4.67342C9.65176 4.53748 9.79707 4.13904 9.95176 4.3031C10.0314 3.74998 10.1158 3.56717 10.608 3.56717C10.6736 3.39842 10.4252 3.2531 10.5236 3.20154C10.6877 3.1781 10.8096 3.18748 11.0018 3.46873C11.0627 3.55779 11.0721 3.33748 11.133 3.31404C11.1986 3.2906 11.3439 3.2906 11.3674 3.18279C11.3861 3.07029 11.4189 2.92498 11.5033 2.74217C11.5736 2.59217 11.6252 2.79842 11.6908 3.08904C12.033 3.1031 12.8111 3.19217 13.1393 3.2906C13.383 3.3656 13.5471 3.22029 13.7814 3.19217C13.9549 3.38904 14.1189 3.23904 14.208 3.66092C14.3393 3.88123 14.5502 3.67498 14.5971 3.74529C14.8736 4.58904 15.8158 4.01717 15.8814 4.03123C16.0033 4.03123 16.1486 4.41092 16.2424 4.40623C16.3971 4.37342 16.3549 4.25623 16.4861 4.3031C16.4533 4.62185 16.7533 4.99217 16.7533 5.22654C16.7533 5.22654 16.8236 5.26873 16.8939 5.19842C16.9596 5.1281 17.0205 4.94529 17.0814 4.94998C17.2221 4.97342 17.283 4.99685 17.4471 5.02498C17.8877 5.19842 18.1174 5.23592 18.2908 5.32029C18.3658 5.48904 18.4455 5.57342 18.6096 5.5406C18.7408 5.64373 18.6424 5.77498 18.7221 5.78435C18.8861 5.6906 18.9424 5.59217 19.1018 5.68123C19.2658 5.77498 19.4299 5.96248 19.5143 6.1406C19.5143 6.23435 19.4299 6.59998 19.5143 7.1531C19.5518 7.3406 19.5752 7.48123 19.7486 7.79998C19.7018 8.12342 19.9689 8.66717 19.9689 8.80779C19.9689 8.9906 19.8377 9.08904 19.758 9.26717C20.0861 9.54842 19.758 10.0031 19.5939 10.2797C20.8221 10.5562 20.2502 11.1094 21.2299 10.8328C20.9814 11.475 21.0705 11.4234 21.3143 12.0656C20.8268 12.4359 21.3049 12.5484 20.9768 13.0031C20.958 13.0359 21.1736 13.4062 21.4736 13.4062C21.3939 14.1422 21.1455 13.8656 21.2299 14.9672C20.583 14.9531 20.8455 15.7922 20.4096 15.7031C20.4377 16.2328 20.658 16.275 20.5736 16.8094C20.2455 16.9031 20.2455 16.9031 20.0861 17.175L19.8377 17.0812C19.758 17.5453 19.5939 17.6344 19.8377 18.0937C19.8377 18.0937 19.5236 18.1078 19.4299 18.0937C19.4252 18.2531 19.5705 18.2953 19.5939 18.464C19.5799 18.5297 19.1252 18.8203 18.7783 18.8297C18.6846 19.0594 19.0221 19.2984 19.0033 19.4156C18.6189 19.4953 18.4502 20.025 18.4502 20.025C18.4502 20.025 18.6471 20.1187 18.6143 20.2125C18.5064 20.1234 18.4502 20.1187 18.2861 20.1187C18.2064 20.1422 18.0049 20.114 17.8174 20.475C17.6064 20.5547 17.508 20.5219 17.3486 20.7609C17.2783 20.5359 17.1752 20.7609 17.0533 20.8547C16.9268 20.939 16.7627 21.1547 16.7393 21.1453C16.7439 21.0844 16.8143 20.8547 16.8143 20.8547L16.4064 20.9484H16.3596C16.3221 20.9531 16.3314 20.6812 16.2564 20.6906C16.1768 20.7047 15.9564 21.0328 15.8814 21.0469C15.8064 21.0562 15.783 20.939 15.7174 20.9531C15.6518 20.9578 15.5252 21.3 15.483 21.3094C15.4361 21.3187 15.2486 21.1031 15.0939 21.1312C14.2877 21.45 14.1611 20.5031 14.0346 21.0375C13.8658 20.939 13.8939 20.9953 13.7252 21.0469C13.6174 21.0797 13.608 20.8828 13.5096 20.8875C13.3127 20.8922 13.3221 21.0984 13.2189 21.0375C13.1346 20.6062 12.6096 20.6859 12.558 20.4984C12.5158 20.3109 12.783 20.3109 12.8721 20.1797C12.9377 19.9922 12.8018 19.9219 13.0736 19.739C13.4205 19.4719 13.2189 19.3734 13.2799 19.1719C13.3924 18.8812 13.3924 18.8109 13.2986 18.5531C13.2986 18.5531 13.0268 17.7281 12.9705 17.7281C12.8111 17.6765 12.8111 18.0328 12.5721 18.1312C12.0799 18.314 11.2127 17.6625 11.0627 17.6625C10.9221 17.6672 10.2893 17.8359 10.3127 17.475C10.2189 17.8265 9.8627 17.5594 9.84395 17.5594C9.51582 17.5594 9.64238 17.8406 9.42207 17.8312C9.32363 17.7937 8.31582 17.7281 8.31582 17.7281V17.9156L7.65957 17.5406L7.0877 17.3578C6.6002 17.175 6.84395 16.7156 6.02832 16.9922V16.439H5.62051C5.77988 15.3375 5.62051 15.8906 5.53613 14.8781L5.20801 14.9719C4.87988 14.4703 5.6627 14.5687 4.96426 14.2312C4.96426 14.2312 4.97832 13.6828 4.8002 13.8656C4.76738 13.889 4.88457 14.1422 4.88457 14.1422C4.22832 14.0484 4.06426 13.8656 4.06426 13.1297C4.06426 13.1297 4.60332 13.2187 4.55645 13.1297C4.48145 12.989 4.37832 12.0984 4.39707 12.0375C4.3877 11.9156 4.89863 11.6109 4.8002 11.3203C4.86113 11.2922 5.04863 11.2922 5.04863 11.2922Z" fill="white"/>
<path d="M21.6685 13.9687C21.6443 14.0276 21.6484 14.0866 21.6726 14.132C21.7169 14.0549 21.6806 14.0231 21.6726 13.9687H21.6685ZM2.4751 7.19147C2.4751 7.19147 2.35413 7.17333 2.37832 7.29581C2.41865 7.20508 2.47106 7.19601 2.4751 7.19147ZM2.463 6.90115C2.39445 6.90115 2.30978 6.89208 2.34203 7.01456C2.38236 6.9193 2.463 6.90569 2.463 6.90115ZM2.97509 8.54782C2.97509 8.54782 3.07993 8.53875 3.05574 8.66123C3.01542 8.5705 2.97509 8.55236 2.97509 8.54782Z" stroke="white" stroke-width="0.285123" stroke-linejoin="round"/>
</g>
<defs>
<clipPath id="clip0_208_9174">
<rect width="24" height="24" rx="12" fill="white"/>
</clipPath>
</defs>
</svg>
