<svg width="24" height="24" viewBox="0 0 24 24" fill="none" xmlns="http://www.w3.org/2000/svg">
<g clip-path="url(#clip0_208_11790)">
<path d="M0 0H24V24H0V0Z" fill="#0021AD"/>
<path d="M0 0H24V24L0 0Z" fill="#1C8A42"/>
<path d="M11.9996 14.8922C13.5969 14.8922 14.8918 13.5973 14.8918 12C14.8918 10.4027 13.5969 9.10779 11.9996 9.10779C10.4023 9.10779 9.10742 10.4027 9.10742 12C9.10742 13.5973 10.4023 14.8922 11.9996 14.8922Z" fill="#FFC639"/>
<path d="M10.2332 10.7015C10.4348 10.9734 10.7301 11.4281 10.9738 11.3109C11.1613 11.3109 11.2551 11.325 11.2832 11.4515C11.5973 11.4829 11.9142 11.4335 12.2038 11.308C12.4934 11.1825 12.7461 10.985 12.9379 10.7343C12.9379 10.7343 12.9754 10.7343 12.9613 10.5093C12.9613 10.4062 13.102 10.4296 13.102 10.4625C13.1207 10.5093 13.116 10.5468 13.1441 10.5468C13.2004 10.5281 13.2801 10.4015 13.3457 10.3218C13.3598 10.2843 13.3504 10.2468 13.3551 10.2C13.3926 10.1156 13.477 10.1343 13.4957 10.1812C13.5098 10.2093 13.5098 10.2281 13.5285 10.2609C13.6129 10.3171 13.7723 10.2609 13.7863 10.2609C13.8004 10.1906 13.8473 10.2 13.8473 10.2C13.9035 10.1859 13.8801 10.1906 13.9223 10.2093C13.8848 10.5937 13.9973 10.6125 13.9879 10.8093C13.9879 11.0296 13.9223 11.0906 13.9223 11.175C13.941 11.2781 14.2645 11.2828 14.1566 11.3671C14.0535 11.4234 14.1566 11.5218 14.002 11.5593C13.5613 11.7843 13.477 11.9765 13.477 11.9765C13.477 11.9765 13.3691 12.1828 13.3551 12.1828C13.2801 12.3234 13.191 12.2484 13.1348 12.314C13.1113 12.3984 13.0832 12.5906 13.1348 12.689C13.1582 12.8203 13.1348 12.8953 13.0973 13.0312C13.0691 13.3125 12.9566 13.3546 12.9426 13.4531C12.8957 13.5562 12.9566 14.0531 12.9051 14.0531C12.577 14.0578 12.3285 13.9921 12.202 13.964C12.3238 13.4203 12.277 12.9421 12.277 12.8953C12.2441 12.5062 11.6957 12.6 11.6113 12.5484C11.541 12.5343 11.4988 12.4781 11.4707 12.4546C11.3957 12.4453 11.3676 12.4265 11.2879 12.4171C11.2504 12.4359 11.2738 12.4593 11.1848 12.4828C10.9691 12.5109 10.8707 12.2953 10.8707 12.2953C10.8801 12.2203 10.3785 12.3093 10.102 12.2484C9.98945 12.3093 9.94258 12.4921 9.84883 12.5156C9.84883 12.5718 9.69883 12.4687 9.66602 12.4125C9.66602 12.2484 9.81133 12.1781 9.81133 12.1781C9.92852 12.089 9.99883 12.075 10.0598 12.0187C10.0879 11.8781 10.0738 11.7703 10.1348 11.6625C10.1816 11.5828 10.2613 11.6156 10.3129 11.5828C10.3691 11.5453 10.3926 11.3015 10.341 11.2406L10.1066 11.0296C10.0316 10.8187 10.191 10.6875 10.2332 10.7015Z" fill="#1C8A42"/>
<path d="M21.2016 2.9859C21.0703 2.47028 19.8938 1.35465 19.0172 0.642155C18.8063 0.50153 18.6703 0.585905 18.6938 0.787467C18.8063 0.974967 18.886 1.17184 18.9985 1.35465C19.0266 1.47653 19.0875 1.5609 19.1157 1.68278C19.1157 1.68278 19.125 1.89372 19.1438 1.91715C19.2958 2.06962 19.4028 2.26099 19.4532 2.47028C19.5918 2.76535 19.7878 3.02986 20.0297 3.2484C20.3391 3.44528 20.1141 4.04997 20.1235 4.3734C20.1235 4.57497 19.9735 4.55153 19.8469 4.52809C18.8391 3.59997 17.8407 3.59997 16.9594 3.33278C16.6125 3.29528 16.6078 3.45934 16.7203 3.5484C17.3344 4.20465 17.9157 4.65465 18.675 5.02965L19.0594 5.26872L19.5 5.63434C19.8375 5.85465 19.8657 6.05622 19.8657 6.07497C19.875 6.48747 19.6547 6.80622 19.5938 6.93278C19.4766 7.36872 19.2422 7.4484 19.2422 7.4484C17.3625 8.71403 16.3735 9.04216 13.3172 8.65309C13.2703 8.62966 12.9797 8.67653 13.3172 8.7984C14.0953 9.05622 16.0032 9.4734 17.85 8.59684C18.2953 8.28747 18.5953 8.39059 18.9141 8.20309C19.4438 7.87497 20.1938 7.47184 20.3344 7.42966C20.7422 7.20934 21.8953 6.96091 22.1625 6.74059C22.4672 6.71716 22.7813 6.67497 22.8047 6.41247C22.9032 6.35153 23.0485 6.3984 23.1563 6.18278C23.4 6.14059 23.3578 6.05622 23.3578 6.05622C23.2969 5.88278 23.0766 5.81247 22.9125 5.69059C22.6735 5.6109 22.5094 5.58747 22.336 5.67184L22.1719 5.74684C22.1719 5.74684 21.9141 5.70934 21.9141 5.69059C21.3469 5.65778 21.3985 3.76872 21.2016 2.9859Z" fill="#FFC639"/>
<path d="M5.4689 14.6621L5.0593 14.2781L4.6465 14.6557L4.6913 14.0989L4.1377 14.0093L4.6017 13.6957L4.3265 13.2093L4.8609 13.3789L5.0689 12.8605L5.2705 13.3821L5.8049 13.2221L5.5233 13.7021L5.9841 14.0221L5.4305 14.1021L5.4689 14.6589V14.6621Z" fill="white"/>
<path d="M6.91568 19.2861L6.47408 18.9949L6.04527 19.3021L6.19887 18.8061L5.76367 18.5021L6.29487 18.4893L6.45488 17.9933L6.63408 18.4829L7.16848 18.4797L6.74288 18.7901L6.91248 19.2829L6.91568 19.2861Z" fill="white"/>
<path d="M5.4689 14.6621L5.0593 14.2781L4.6465 14.6557L4.6913 14.0989L4.1377 14.0093L4.6017 13.6957L4.3265 13.2093L4.8609 13.3789L5.0689 12.8605L5.2705 13.3821L5.8049 13.2221L5.5233 13.7021L5.9841 14.0221L5.4305 14.1021L5.4689 14.6589V14.6621Z" fill="white"/>
<path d="M5.4689 14.6621L5.0593 14.2781L4.6465 14.6557L4.6913 14.0989L4.1377 14.0093L4.6017 13.6957L4.3265 13.2093L4.8609 13.3789L5.0689 12.8605L5.2705 13.3821L5.8049 13.2221L5.5233 13.7021L5.9841 14.0221L5.4305 14.1021L5.4689 14.6589V14.6621Z" fill="white"/>
<path d="M5.4689 14.6621L5.0593 14.2781L4.6465 14.6557L4.6913 14.0989L4.1377 14.0093L4.6017 13.6957L4.3265 13.2093L4.8609 13.3789L5.0689 12.8605L5.2705 13.3821L5.8049 13.2221L5.5233 13.7021L5.9841 14.0221L5.4305 14.1021L5.4689 14.6589V14.6621Z" fill="white"/>
</g>
<defs>
<clipPath id="clip0_208_11790">
<rect width="24" height="24" rx="12" fill="white"/>
</clipPath>
</defs>
</svg>
