<svg width="24" height="24" viewBox="0 0 24 24" fill="none" xmlns="http://www.w3.org/2000/svg">
<g clip-path="url(#clip0_208_27973)">
<path d="M0 0H24V24H0V0Z" fill="#032EA1"/>
<path d="M0 6H24V18H0V6Z" fill="#E00025"/>
<path d="M8.62109 11.3147H15.4491V13.9427H8.62109V11.3147Z" fill="white" stroke="black" stroke-width="0.16" stroke-linejoin="bevel"/>
<path d="M15.1011 12.7607H15.3111V13.7507H15.1011V12.7607ZM8.62109 12.2747H15.4491V12.5747H8.62109V12.2747ZM8.62109 11.8547H15.4491V12.1307H8.62109V11.8547Z" fill="white" stroke="black" stroke-width="0.16" stroke-linejoin="bevel"/>
<path d="M8.62109 11.4467H15.4491V11.7047H8.62109V11.4467Z" fill="white" stroke="black" stroke-width="0.144" stroke-linejoin="bevel"/>
<path d="M10.4216 12.7607H10.6376V13.7507H10.4216V12.7607ZM13.3616 12.7607H13.5776V13.7507H13.3616V12.7607ZM8.68164 12.7607H8.89164V13.7507H8.68164V12.7607ZM9.10164 12.7607H9.31164V13.7507H9.10164V12.7607ZM9.55164 12.7607H9.76164V13.7507H9.55164V12.7607ZM10.0016 12.7607H10.2116V13.7507H10.0016V12.7607ZM13.7696 12.7607H13.9856V13.7507H13.7696V12.7607ZM14.2196 12.7607H14.4356V13.7507H14.2196V12.7607ZM14.6696 12.7607H14.8856V13.7507H14.6696V12.7607Z" fill="white" stroke="black" stroke-width="0.16" stroke-linejoin="bevel"/>
<path d="M5.95117 14.0747C6.07663 14.0064 6.17112 13.8926 6.21517 13.7567H17.8012C17.8452 13.8926 17.9397 14.0064 18.0652 14.0747H5.95117Z" fill="white" stroke="black" stroke-width="0.16"/>
<path d="M11.8611 7.31267C11.8611 7.31267 11.8551 7.06667 11.9991 7.06067C12.1371 7.06067 12.1311 7.31267 12.1311 7.31267H11.8611ZM11.1111 10.5827V10.2527C11.1111 10.0847 10.9431 10.0727 10.9431 9.95267C10.9431 9.95267 10.9191 9.77267 10.9671 9.68867C11.0331 9.92867 11.1471 9.88667 11.1471 9.78467C11.1471 9.70067 11.0871 9.61667 10.9491 9.40667C10.9011 9.34067 10.9311 9.13067 10.9911 9.05267C11.0151 9.23267 11.0451 9.32267 11.1231 9.32267C11.1711 9.32267 11.2071 9.29267 11.2071 9.20267C11.2071 9.08267 11.1291 9.02267 11.0871 8.91467C11.0664 8.86092 11.0616 8.80236 11.0733 8.74597C11.085 8.68958 11.1127 8.63775 11.1531 8.59667C11.1831 8.77667 11.1771 8.84867 11.2551 8.84867C11.4171 8.79467 11.2551 8.56067 11.2191 8.50067C11.1831 8.43467 11.2791 8.29667 11.2791 8.29667C11.3271 8.45867 11.3391 8.47067 11.3991 8.45267C11.4711 8.43467 11.4591 8.33267 11.3751 8.24867C11.3211 8.18867 11.3271 8.11067 11.3871 8.05067C11.4471 8.16467 11.5191 8.15867 11.5251 8.08667L11.4771 7.82267H12.5211L12.4671 8.08067C12.4551 8.15267 12.5511 8.17067 12.6111 8.05067C12.6711 8.11067 12.6771 8.19467 12.6231 8.24867C12.5391 8.33267 12.5271 8.43467 12.5991 8.45267C12.6591 8.47067 12.6711 8.45267 12.7191 8.29667C12.7191 8.29667 12.8091 8.38667 12.7791 8.50067C12.7431 8.56067 12.5811 8.80067 12.7431 8.84867C12.8211 8.84867 12.8151 8.77667 12.8451 8.59667C12.8844 8.6384 12.911 8.69053 12.9216 8.74689C12.9322 8.80325 12.9265 8.86147 12.9051 8.91467C12.8691 9.02267 12.7851 9.08267 12.7851 9.20267C12.7851 9.29267 12.8271 9.32267 12.8751 9.32267C12.9531 9.32267 12.9831 9.23867 13.0071 9.05267C13.0671 9.13067 13.0971 9.34067 13.0491 9.41267C12.9111 9.61667 12.8451 9.70067 12.8451 9.78467C12.8451 9.88667 12.9651 9.92867 13.0251 9.68867C13.0791 9.77267 13.0551 9.95267 13.0551 9.95267C13.0551 10.0727 12.8931 10.0847 12.8871 10.2527V10.5827H11.1111ZM11.5431 7.82267L11.5191 7.63667H12.4731L12.4491 7.82267H11.5431ZM11.6031 7.63067L11.5911 7.48067H12.4011L12.3831 7.63067H11.6031ZM11.7411 7.47467L11.7231 7.31867H12.2631L12.2571 7.47467H11.7411ZM13.7211 14.0747C13.6011 14.0327 13.4211 13.9007 13.4211 13.7747V12.3167L13.5771 12.1127H10.4211L10.5711 12.3167V13.7747C10.5711 13.9007 10.4511 14.0327 10.3311 14.0747H13.7211Z" fill="white" stroke="black" stroke-width="0.16"/>
<path d="M10.9727 12.7606H11.1887V13.7506H10.9727V12.7606ZM12.7967 12.7606H13.0127V13.7506H12.7967V12.7606Z" fill="white" stroke="black" stroke-width="0.16" stroke-linejoin="bevel"/>
<path d="M10.3605 10.4567V12.1127H13.6005V10.4567C13.5631 10.4703 13.5294 10.4927 13.5023 10.5219C13.4752 10.5511 13.4554 10.5863 13.4445 10.6247V11.3327H10.5225V10.6247C10.5225 10.6247 10.4865 10.5047 10.3545 10.4567H10.3605Z" fill="white" stroke="black" stroke-width="0.16"/>
<path d="M13.1571 14.0747C13.0491 14.0327 12.8211 13.9007 12.8211 13.7747V12.1427C12.8451 12.0527 12.9651 11.9987 13.0431 11.9387H10.9011C11.0031 11.9987 11.1171 12.0407 11.1591 12.1427V13.7747C11.1591 13.9007 10.9791 14.0327 10.8711 14.0747H13.1571Z" fill="white" stroke="black" stroke-width="0.16"/>
<path d="M13.4445 11.9566V10.7806H13.1505V10.6666H10.8225V10.7866H10.5225V11.9566H13.4445ZM12.7005 14.0746C12.5925 14.0326 12.4425 13.9006 12.4425 13.7746V12.3826L12.5265 12.2566H11.4645L11.5545 12.3766V13.7746C11.5545 13.9006 11.3985 14.0326 11.2965 14.0746H12.7005Z" fill="white" stroke="black" stroke-width="0.16"/>
<path d="M11.7227 12.2567H12.2627V14.0747H11.7227V12.2567Z" fill="white" stroke="black" stroke-width="0.16"/>
<path d="M12.5451 11.8547C12.5451 11.7347 12.8931 11.7287 13.0731 11.6267H10.9131C11.0931 11.7287 11.4351 11.7347 11.4351 11.8547L11.5071 12.0887L12.4071 12.1247L12.5451 11.8547Z" fill="white" stroke="black" stroke-width="0.16" stroke-linejoin="bevel"/>
<path d="M12.9649 10.5827C12.9649 10.2887 12.9769 10.1807 13.0669 10.1807V11.1047C12.8449 11.1887 12.6889 11.4647 12.6889 11.4647H11.2969C11.2969 11.4647 11.1409 11.1887 10.9189 11.1047V10.1747C11.0269 10.1747 11.0269 10.2947 11.0269 10.5767L12.9649 10.5827ZM13.0669 10.4627C13.0669 10.1267 13.3609 10.0907 13.3609 10.0907V10.3907C13.2469 10.3847 13.1929 10.4867 13.1929 10.6307C13.1929 10.7807 13.2829 10.7807 13.2829 10.7807V11.6327H13.0669V10.4627Z" fill="white" stroke="black" stroke-width="0.16"/>
<path d="M10.919 10.4627C10.919 10.1267 10.625 10.0907 10.625 10.0907V10.3907C10.739 10.3847 10.793 10.4867 10.793 10.6307C10.793 10.7807 10.703 10.7807 10.703 10.7807V11.6327H10.919V10.4627Z" fill="white" stroke="black" stroke-width="0.16"/>
<path d="M11.4891 8.14062H12.5211M11.3691 8.46463H12.6291M11.2491 8.85463H12.7431M11.1231 9.32863H12.8931M11.0811 9.86863H12.9051" stroke="black" stroke-width="0.128"/>
<path d="M10.5293 11.6447H13.4453M11.4533 11.6447H12.5333V12.0407H11.4533V11.6447Z" stroke="black" stroke-width="0.16"/>
<path d="M11.3213 10.7567C11.5013 10.9727 11.4773 11.3387 11.4773 11.5547H12.5213C12.5213 11.3387 12.4973 10.9727 12.6773 10.7567H11.3213ZM11.9033 8.29673L11.7593 8.21873V8.00873C11.8193 8.02673 11.8793 8.03273 11.8913 8.12873C11.9093 7.99073 11.9513 8.00273 12.0053 7.94873C12.0653 8.00273 12.0953 7.99073 12.1193 8.12873C12.1193 8.03273 12.1913 8.02673 12.2453 8.00873V8.21873L12.1073 8.29073L11.9033 8.29673Z" fill="white" stroke="black" stroke-width="0.16"/>
<path d="M11.8914 8.63865L11.6514 8.47064V8.28464C11.7414 8.30264 11.8314 8.31464 11.8434 8.41664C11.8674 8.26664 11.9214 8.19464 12.0054 8.13464C12.0834 8.19464 12.1374 8.26664 12.1674 8.41664C12.1734 8.31464 12.2694 8.30264 12.3474 8.28464V8.47664L12.1134 8.63865H11.8914Z" fill="white" stroke="black" stroke-width="0.16"/>
<path d="M11.8728 9.17271L11.6028 8.93271V8.65071C11.6988 8.67471 11.8068 8.68671 11.8188 8.83671C11.8488 8.62671 11.9088 8.51271 11.9988 8.42871C12.0948 8.51271 12.1548 8.62671 12.1908 8.83671C12.2028 8.68671 12.3108 8.67471 12.4068 8.65071V8.93271L12.1308 9.17271H11.8728ZM12.3768 9.49071L12.1368 9.83271H11.8548L11.6088 9.49071H12.3768ZM11.4648 10.0607C11.5848 10.1267 11.6328 10.2647 11.6448 10.5167H12.3408C12.3528 10.2647 12.4008 10.1267 12.5208 10.0607H11.4648Z" fill="white" stroke="black" stroke-width="0.16"/>
<path d="M12.5331 9.48467V9.14867C12.4815 9.15968 12.4335 9.18362 12.3936 9.21825C12.3537 9.25288 12.3233 9.29707 12.3051 9.34667C12.3051 9.22667 12.1551 8.96867 11.9931 8.83667C11.8311 8.98067 11.6751 9.22067 11.6811 9.34067C11.6511 9.25067 11.5731 9.17867 11.4531 9.14867V9.49067L12.5331 9.48467Z" fill="white" stroke="black" stroke-width="0.16" stroke-linejoin="bevel"/>
<path d="M12.5813 10.0607V9.72472C12.4553 9.76072 12.3713 9.82672 12.3353 9.92272C12.3353 9.80272 12.1733 9.54472 11.9933 9.41272C11.8133 9.56272 11.6453 9.79672 11.6513 9.92272C11.6213 9.83272 11.5313 9.76072 11.4053 9.72472V10.0667L12.5813 10.0607Z" fill="white" stroke="black" stroke-width="0.16" stroke-linejoin="bevel"/>
<path d="M12.7249 10.7626V10.3666C12.5999 10.4057 12.492 10.4861 12.4189 10.5946C12.4189 10.3846 12.1789 10.0546 11.9929 9.95264C11.8009 10.0606 11.5669 10.3966 11.5669 10.5946C11.4919 10.4853 11.3818 10.4049 11.2549 10.3666V10.7626H12.7249Z" fill="white" stroke="black" stroke-width="0.16" stroke-linejoin="bevel"/>
<path d="M12.6407 11.6446V11.2366C12.4967 11.2906 12.4607 11.4226 12.4127 11.5186C12.4307 11.1046 12.1847 10.6666 11.9927 10.5526C11.8007 10.6666 11.5487 11.1166 11.5727 11.5126C11.5247 11.4286 11.4827 11.2906 11.3447 11.2366V11.6386L12.6407 11.6446Z" fill="white" stroke="black" stroke-width="0.16" stroke-linejoin="bevel"/>
<path d="M12.5454 12.2567V11.8487C12.3954 11.8847 12.3894 11.9387 12.3414 12.0287C12.3594 11.7827 12.1854 11.5007 11.9934 11.3927C11.8014 11.5007 11.6334 11.7827 11.6454 12.0287C11.5974 11.9387 11.5914 11.8847 11.4414 11.8487V12.2567H12.5454Z" fill="white" stroke="black" stroke-width="0.16"/>
<path d="M6.22131 13.7567V12.5327C6.17931 12.3767 6.04131 12.2327 5.94531 12.2087V11.1287L6.16731 11.2487L6.42531 12.3827V13.7627L6.22131 13.7567Z" fill="white" stroke="black" stroke-width="0.16"/>
<path d="M6.22131 13.7626V12.5326C6.17931 12.3766 6.04131 12.2326 5.94531 12.2086V11.0566C6.09531 11.0566 6.16731 11.2486 6.16731 11.2486L6.42531 12.3826V13.7566L6.22131 13.7626Z" fill="white" stroke="black" stroke-width="0.16"/>
<path d="M6.05957 14.0747C6.16157 14.0327 6.31157 13.9007 6.31157 13.7747V12.2387L6.23957 12.1187H8.86157L8.75957 12.2387V13.7747C8.76397 13.8382 8.78518 13.8995 8.82102 13.9522C8.85686 14.0049 8.90605 14.0472 8.96357 14.0747H6.05957Z" fill="white" stroke="black" stroke-width="0.16"/>
<path d="M8.42905 14.0747C8.32705 14.0327 8.17706 13.9007 8.17706 13.7747V12.3167L8.39305 12.1127H6.61705L6.83305 12.3167V13.7747C6.83305 13.9007 6.68305 14.0327 6.58105 14.0747H8.42905Z" fill="white" stroke="black" stroke-width="0.16"/>
<path d="M8.18315 14.0747C8.08115 14.0327 7.92515 13.9007 7.92515 13.7747V12.4547L8.06915 12.2567H6.94115L7.08515 12.4547V13.7747C7.08515 13.9007 6.93515 14.0327 6.82715 14.0747H8.18315Z" fill="white" stroke="black" stroke-width="0.16"/>
<path d="M7.24135 12.2567H7.77535V14.0807H7.23535L7.24135 12.2567Z" fill="white" stroke="black" stroke-width="0.16"/>
<path d="M6.50338 12.7606H6.71938V13.7506H6.50338V12.7606ZM8.35138 12.7606H8.56138V13.7506H8.34538L8.35138 12.7606ZM6.31738 11.0926H6.58138V12.1126H6.31738V11.0926ZM6.31738 10.9006H6.57538V11.0926H6.31738V10.9006ZM8.45338 11.3146H8.81938V12.0946H8.45338V11.3146Z" fill="white"/>
<path d="M6.31738 11.0926H6.58138V12.1126H6.31738V11.0926ZM6.31738 11.0926H6.57538V10.9006H6.31738V11.0926ZM6.50338 12.7606H6.71938V13.7506H6.50338V12.7606ZM8.35138 12.7606H8.56138V13.7506H8.34538L8.35138 12.7606ZM8.45338 11.3146H8.81938V12.0946H8.45338V11.3146Z" stroke="black" stroke-width="0.16" stroke-linejoin="bevel"/>
<path d="M6.57513 12.1007V10.3607C6.64713 10.3607 6.65913 10.6187 6.82713 10.6187C6.91713 10.6187 6.91113 10.5107 6.85713 10.4267C6.81513 10.3487 6.76113 10.2467 6.83313 10.0487C6.88713 10.1987 7.01913 10.2467 6.99513 10.1567C6.95313 9.99466 6.82713 9.96466 6.92313 9.71866C6.95313 9.92266 7.08513 9.91666 7.05513 9.79666C7.01913 9.65866 6.94113 9.59866 7.03713 9.40666C7.09113 9.62866 7.15713 9.61666 7.15713 9.47866C7.15713 9.27466 7.15713 9.05866 7.40913 8.98066C7.40913 8.98066 7.42713 8.80066 7.52313 8.80066C7.61313 8.80066 7.63113 8.98066 7.63113 8.98066C7.88913 9.05866 7.88313 9.28066 7.88313 9.47866C7.88313 9.61666 7.94913 9.62866 8.00313 9.40666C8.09913 9.59866 8.02113 9.65866 7.98513 9.79666C7.95513 9.91666 8.08713 9.92266 8.11713 9.71866C8.21313 9.96466 8.08713 9.99466 8.04513 10.1567C8.02113 10.2467 8.15313 10.1987 8.20713 10.0487C8.27913 10.2467 8.22513 10.3487 8.18313 10.4267C8.13513 10.5107 8.12313 10.6187 8.21313 10.6187C8.38113 10.6187 8.39313 10.3667 8.46513 10.3667V12.1007H6.57513ZM6.16113 10.7867V12.1127H6.31113V10.7867C6.25713 10.7567 6.20913 10.7567 6.16113 10.7867Z" fill="white" stroke="black" stroke-width="0.16"/>
<path d="M6.17285 11.6446C6.35885 11.7406 6.54485 11.8546 6.59285 12.1126H6.17285V11.6446ZM8.76485 11.2486V12.1126H8.88485V11.2486C8.84885 11.2306 8.79485 11.2246 8.76485 11.2486Z" fill="white" stroke="black" stroke-width="0.16"/>
<path d="M8.88548 11.6446C8.69948 11.7346 8.51348 11.8426 8.46548 12.1066H8.88548V11.6446ZM7.64948 9.6226L7.75748 9.5326V9.4126C7.72148 9.4126 7.69748 9.4306 7.66748 9.4726C7.65584 9.43407 7.63655 9.39828 7.61078 9.36735C7.58501 9.33643 7.55328 9.31101 7.51748 9.2926C7.48116 9.30969 7.44864 9.3339 7.42185 9.36379C7.39505 9.39368 7.37452 9.42864 7.36148 9.4666C7.33148 9.4246 7.31348 9.4186 7.27148 9.4066V9.5266L7.37948 9.6226H7.64948Z" fill="white" stroke="black" stroke-width="0.16"/>
<path d="M7.70948 9.91672L7.75748 9.80271V9.65271C7.72148 9.65271 7.69748 9.67071 7.66748 9.71271C7.65584 9.67418 7.63655 9.63839 7.61078 9.60747C7.58501 9.57654 7.55328 9.55112 7.51748 9.53271C7.48116 9.54981 7.44864 9.57401 7.42185 9.6039C7.39505 9.63379 7.37452 9.66875 7.36148 9.70672C7.33148 9.66472 7.31348 9.65871 7.27148 9.65271V9.80271L7.31948 9.91672H7.70948Z" fill="white" stroke="black" stroke-width="0.16"/>
<path d="M7.72137 10.3127L7.87737 10.1147V9.92265C7.81737 9.92265 7.78737 9.95265 7.74537 10.0187C7.70337 9.88065 7.62537 9.85665 7.51737 9.79065C7.40337 9.85065 7.32537 9.88065 7.28937 10.0127C7.24137 9.94665 7.21137 9.92865 7.15137 9.92265V10.1147L7.31337 10.3127H7.72137Z" fill="white" stroke="black" stroke-width="0.16"/>
<path d="M7.76338 10.7027C7.76338 10.7027 7.95538 10.5407 7.96138 10.4507V10.2407C7.88938 10.2467 7.82338 10.2647 7.76938 10.3547C7.72138 10.1807 7.64938 10.1327 7.51738 10.0547C7.37938 10.1327 7.30738 10.1807 7.26538 10.3547C7.20538 10.2647 7.14538 10.2467 7.06738 10.2347V10.4507C7.11778 10.5459 7.18484 10.6312 7.26538 10.7027H7.76338Z" fill="white" stroke="black" stroke-width="0.16"/>
<path d="M7.84085 11.4227C7.84085 11.4227 8.10485 11.1407 8.11085 11.0267V10.7027C8.01485 10.7147 7.91885 10.7807 7.84685 10.9187C7.78685 10.6487 7.69085 10.4627 7.51685 10.3307C7.33685 10.4627 7.24085 10.6487 7.18085 10.9187C7.10885 10.7807 7.01885 10.7147 6.92285 10.7027V11.0267C6.94085 11.1407 7.18685 11.4227 7.18685 11.4227H7.84085Z" fill="white" stroke="black" stroke-width="0.16"/>
<path d="M7.84085 11.8486C7.84085 11.8486 8.06285 11.6266 8.11085 11.5306V11.2066C8.01485 11.2186 7.91885 11.2846 7.84685 11.4166C7.8308 11.3074 7.79339 11.2025 7.73677 11.1078C7.68015 11.0131 7.60542 10.9304 7.51685 10.8646C7.33685 10.9966 7.24085 11.1466 7.18085 11.4166C7.10885 11.2846 7.01885 11.2186 6.92285 11.2066V11.5306C6.98285 11.6266 7.18685 11.8486 7.18685 11.8486H7.84085Z" fill="white" stroke="black" stroke-width="0.16"/>
<path d="M7.93124 12.1007C7.87124 11.8187 7.81124 11.6087 7.50524 11.3987C7.19324 11.6087 7.13924 11.8187 7.07324 12.1007H7.93124Z" fill="white" stroke="black" stroke-width="0.16"/>
<path d="M8.09285 12.2566V11.8486C7.94885 11.9086 7.82285 11.9866 7.77485 12.0766C7.72685 11.8486 7.62485 11.7526 7.49885 11.6146C7.37285 11.7526 7.28885 11.8546 7.23485 12.0766C7.18685 11.9866 7.06085 11.9026 6.92285 11.8486V12.2566H8.09285Z" fill="white" stroke="black" stroke-width="0.16"/>
<path d="M17.7826 13.7567V12.5327C17.8246 12.3767 17.9626 12.2327 18.0586 12.2087V11.1287L17.8366 11.2487L17.5786 12.3827V13.7627L17.7826 13.7567Z" fill="white" stroke="black" stroke-width="0.16"/>
<path d="M17.7826 13.7626V12.5326C17.8246 12.3766 17.9626 12.2326 18.0586 12.2086V11.0566C17.9086 11.0566 17.8366 11.2486 17.8366 11.2486L17.5786 12.3826V13.7566L17.7826 13.7626Z" fill="white" stroke="black" stroke-width="0.16"/>
<path d="M17.9443 14.0747C17.8423 14.0327 17.6923 13.9007 17.6923 13.7747V12.2387L17.7643 12.1187H15.1423L15.2443 12.2387V13.7747C15.2399 13.8382 15.2187 13.8995 15.1829 13.9522C15.147 14.0049 15.0979 14.0472 15.0403 14.0747H17.9443Z" fill="white" stroke="black" stroke-width="0.16"/>
<path d="M15.5749 14.0747C15.6769 14.0327 15.8269 13.9007 15.8269 13.7747V12.3167L15.6109 12.1127H17.3869L17.1709 12.3167V13.7747C17.1709 13.9007 17.3209 14.0327 17.4229 14.0747H15.5749Z" fill="white" stroke="black" stroke-width="0.16"/>
<path d="M15.8208 14.0747C15.9228 14.0327 16.0788 13.9007 16.0788 13.7747V12.4547L15.9348 12.2567H17.0628L16.9188 12.4547V13.7747C16.9188 13.9007 17.0688 14.0327 17.1768 14.0747H15.8208Z" fill="white" stroke="black" stroke-width="0.16"/>
<path d="M16.7626 12.2567H16.2286V14.0807H16.7686L16.7626 12.2567Z" fill="white" stroke="black" stroke-width="0.16"/>
<path d="M17.5005 12.7606H17.2845V13.7506H17.5005V12.7606ZM15.6525 12.7606H15.4425V13.7506H15.6585L15.6525 12.7606ZM17.6865 11.0926H17.4225V12.1126H17.6865V11.0926ZM17.6865 10.9006H17.4285V11.0926H17.6865V10.9006ZM15.5505 11.3146H15.1845V12.0946H15.5505V11.3146Z" fill="white"/>
<path d="M17.6865 11.0926H17.4225V12.1126H17.6865V11.0926ZM17.6865 11.0926H17.4285V10.9006H17.6865V11.0926ZM17.5005 12.7606H17.2845V13.7506H17.5005V12.7606ZM15.6525 12.7606H15.4425V13.7506H15.6585L15.6525 12.7606ZM15.5505 11.3146H15.1845V12.0946H15.5505V11.3146Z" stroke="black" stroke-width="0.16" stroke-linejoin="bevel"/>
<path d="M17.4288 12.1007V10.3607C17.3568 10.3607 17.3448 10.6187 17.1768 10.6187C17.0868 10.6187 17.0928 10.5107 17.1468 10.4267C17.1888 10.3487 17.2428 10.2467 17.1708 10.0487C17.1168 10.1987 16.9848 10.2467 17.0088 10.1567C17.0508 9.99466 17.1768 9.96466 17.0808 9.71866C17.0508 9.92266 16.9188 9.91666 16.9488 9.79666C16.9848 9.65866 17.0628 9.59866 16.9668 9.40666C16.9128 9.62866 16.8468 9.61666 16.8468 9.47866C16.8468 9.27466 16.8468 9.05866 16.5948 8.98066C16.5948 8.98066 16.5768 8.80066 16.4808 8.80066C16.3908 8.80066 16.3728 8.98066 16.3728 8.98066C16.1148 9.05866 16.1208 9.28066 16.1208 9.47866C16.1208 9.61666 16.0548 9.62866 16.0008 9.40666C15.9048 9.59866 15.9828 9.65866 16.0188 9.79666C16.0488 9.91666 15.9168 9.92266 15.8868 9.71866C15.7908 9.96466 15.9168 9.99466 15.9588 10.1567C15.9828 10.2467 15.8508 10.1987 15.7968 10.0487C15.7248 10.2467 15.7788 10.3487 15.8208 10.4267C15.8688 10.5107 15.8808 10.6187 15.7908 10.6187C15.6228 10.6187 15.6108 10.3667 15.5388 10.3667V12.1007H17.4288ZM17.8428 10.7867V12.1127H17.6928V10.7867C17.7468 10.7567 17.7948 10.7567 17.8428 10.7867Z" fill="white" stroke="black" stroke-width="0.16"/>
<path d="M17.8311 11.6446C17.6451 11.7406 17.4591 11.8546 17.4111 12.1126H17.8311V11.6446ZM15.2391 11.2486V12.1126H15.1191V11.2486C15.1551 11.2306 15.2091 11.2246 15.2391 11.2486Z" fill="white" stroke="black" stroke-width="0.16"/>
<path d="M15.1184 11.6446C15.3044 11.7346 15.4904 11.8426 15.5384 12.1066H15.1184V11.6446ZM16.3544 9.6226L16.2464 9.5326V9.4126C16.2824 9.4126 16.3064 9.4306 16.3364 9.4726C16.3481 9.43407 16.3674 9.39828 16.3931 9.36735C16.4189 9.33643 16.4506 9.31101 16.4864 9.2926C16.5227 9.30969 16.5553 9.3339 16.5821 9.36379C16.6089 9.39368 16.6294 9.42864 16.6424 9.4666C16.6724 9.4246 16.6904 9.4186 16.7324 9.4066V9.5266L16.6244 9.6226H16.3544Z" fill="white" stroke="black" stroke-width="0.16"/>
<path d="M16.2944 9.91672L16.2464 9.80271V9.65271C16.2824 9.65271 16.3064 9.67071 16.3364 9.71271C16.3481 9.67418 16.3674 9.63839 16.3931 9.60747C16.4189 9.57654 16.4506 9.55112 16.4864 9.53271C16.5227 9.54981 16.5553 9.57401 16.5821 9.6039C16.6089 9.63379 16.6294 9.66875 16.6424 9.70672C16.6724 9.66472 16.6904 9.65871 16.7324 9.65271V9.80271L16.6844 9.91672H16.2944Z" fill="white" stroke="black" stroke-width="0.16"/>
<path d="M16.2825 10.3127L16.1265 10.1147V9.92265C16.1865 9.92265 16.2165 9.95265 16.2585 10.0187C16.3005 9.88065 16.3785 9.85665 16.4865 9.79065C16.6005 9.85065 16.6785 9.88065 16.7145 10.0127C16.7625 9.94665 16.7925 9.92865 16.8525 9.92265V10.1147L16.6905 10.3127H16.2825Z" fill="white" stroke="black" stroke-width="0.16"/>
<path d="M16.2405 10.7027C16.2405 10.7027 16.0485 10.5407 16.0425 10.4507V10.2407C16.1145 10.2467 16.1805 10.2647 16.2345 10.3547C16.2825 10.1807 16.3545 10.1327 16.4865 10.0547C16.6245 10.1327 16.6965 10.1807 16.7385 10.3547C16.7985 10.2647 16.8585 10.2467 16.9365 10.2347V10.4507C16.8861 10.5459 16.8191 10.6312 16.7385 10.7027H16.2405Z" fill="white" stroke="black" stroke-width="0.16"/>
<path d="M16.1631 11.4227C16.1631 11.4227 15.8991 11.1407 15.8931 11.0267V10.7027C15.9891 10.7147 16.0851 10.7807 16.1571 10.9187C16.2171 10.6487 16.3131 10.4627 16.4871 10.3307C16.6671 10.4627 16.7631 10.6487 16.8231 10.9187C16.8951 10.7807 16.9851 10.7147 17.0811 10.7027V11.0267C17.0631 11.1407 16.8171 11.4227 16.8171 11.4227H16.1631Z" fill="white" stroke="black" stroke-width="0.16"/>
<path d="M16.1631 11.8486C16.1631 11.8486 15.9411 11.6266 15.8931 11.5306V11.2066C15.9891 11.2186 16.0851 11.2846 16.1571 11.4166C16.1731 11.3074 16.2105 11.2025 16.2671 11.1078C16.3238 11.0131 16.3985 10.9304 16.4871 10.8646C16.6671 10.9966 16.7631 11.1466 16.8231 11.4166C16.8951 11.2846 16.9851 11.2186 17.0811 11.2066V11.5306C17.0211 11.6266 16.8171 11.8486 16.8171 11.8486H16.1631Z" fill="white" stroke="black" stroke-width="0.16"/>
<path d="M16.0727 12.1007C16.1327 11.8187 16.1927 11.6087 16.4987 11.3987C16.8107 11.6087 16.8647 11.8187 16.9307 12.1007H16.0727Z" fill="white" stroke="black" stroke-width="0.16"/>
<path d="M15.9111 12.2566V11.8486C16.0551 11.9086 16.1811 11.9866 16.2291 12.0766C16.2771 11.8486 16.3791 11.7526 16.5051 11.6146C16.6311 11.7526 16.7151 11.8546 16.7691 12.0766C16.8171 11.9866 16.9431 11.9026 17.0811 11.8486V12.2566H15.9111Z" fill="white" stroke="black" stroke-width="0.16"/>
<path d="M4.64293 15.5627H19.3609V16.3127H4.64293V15.5627ZM4.25293 16.3127H19.7509V17.0627H4.25293V16.3127ZM5.41693 14.4347H18.5809V14.9207H5.41693V14.4347Z" fill="white" stroke="black" stroke-width="0.16"/>
<path d="M5.0332 14.9206H18.9772V15.5566H5.0332V14.9206ZM5.6452 14.0626H18.3652V14.4346H5.6452V14.0626Z" fill="white" stroke="black" stroke-width="0.16"/>
<path d="M7.02539 14.0626H7.98539V17.0626H7.02539V14.0626Z" fill="white" stroke="black" stroke-width="0.16"/>
<path d="M7.24135 14.0626H7.77535V17.0626H7.23535L7.24135 14.0626ZM11.5014 14.0626H12.4614V17.0626H11.5014V14.0626Z" fill="white" stroke="black" stroke-width="0.16"/>
<path d="M11.7227 14.0626H12.2627V17.0626H11.7227V14.0626ZM16.0127 14.0626H16.9727V17.0626H16.0127V14.0626Z" fill="white" stroke="black" stroke-width="0.16"/>
<path d="M16.2227 14.0626H16.7627V17.0626H16.2227V14.0626Z" fill="white" stroke="black" stroke-width="0.16"/>
<path d="M6.2207 13.7567H17.8007M7.2287 16.6847H7.7807M7.2287 16.3067H7.7807M7.2287 15.9347H7.7807M7.2287 15.5567H7.7807M7.2287 15.1847H7.7807M7.2287 14.8067H7.7807M7.2287 14.4347H7.7807M11.7287 16.6847H12.2447M11.7287 16.3067H12.2447M11.7287 15.9347H12.2447M11.7287 15.5567H12.2447M11.7287 15.1847H12.2447M11.7287 14.8067H12.2447M11.7287 14.4347H12.2447M16.2167 16.6847H16.7687M16.2167 16.3067H16.7687M16.2167 15.9347H16.7687M16.2167 15.5567H16.7687M16.2167 15.1847H16.7687M16.2167 14.8067H16.7687M16.2167 14.4347H16.7687" stroke="black" stroke-width="0.16"/>
</g>
<defs>
<clipPath id="clip0_208_27973">
<rect width="24" height="24" rx="12" fill="white"/>
</clipPath>
</defs>
</svg>
