<svg width="24" height="24" viewBox="0 0 24 24" fill="none" xmlns="http://www.w3.org/2000/svg">
<g clip-path="url(#clip0_208_22561)">
<path fill-rule="evenodd" clip-rule="evenodd" d="M0 0H23.9953V24H0V0Z" fill="#3B5AA3"/>
<path fill-rule="evenodd" clip-rule="evenodd" d="M6.51562 0.0562744L6.26719 4.18127L5.17969 1.55159L5.60156 4.35002L3.91875 2.09065L5.02031 4.66877L2.81719 2.95784L4.53281 5.1094L2.03906 4.00315L4.22344 5.65784L1.50469 5.2969L4.07812 6.31409L0.046875 6.6844L4.07812 6.95159L1.52344 8.00159L4.21875 7.64065L2.04375 9.24377L4.56563 8.13752L2.84531 10.3032L5.03438 8.64377L3.9375 11.175L5.69063 8.98127L5.22188 11.7141L6.31875 9.1594L6.57187 13.1953L6.95625 9.16877L7.90781 11.7422L7.54688 8.9719L9.29062 11.1656L8.14219 8.60159L10.3312 10.3641L8.59687 8.16096L11.1938 9.24377L8.89219 7.56565L11.6953 8.0344L9.00937 7.00315L13.1813 6.74534L9.00937 6.35627L11.7656 5.43752L8.92031 5.79377L11.2734 4.15315L8.62031 5.21721L10.4484 3.00002L8.22187 4.73909L9.3 2.07659L7.56562 4.34065L7.94062 1.51409L6.90937 4.18127L6.525 0.0562744H6.51562Z" fill="white"/>
<path fill-rule="evenodd" clip-rule="evenodd" d="M0 23.3531L24 0V4.34531L0 24V23.3531Z" fill="#E2AE57"/>
<path fill-rule="evenodd" clip-rule="evenodd" d="M0.843555 24L23.9998 8.96248L23.9951 4.18591L-0.00488281 24H0.838867H0.843555Z" fill="white"/>
</g>
<defs>
<clipPath id="clip0_208_22561">
<rect width="24" height="24" rx="12" fill="white"/>
</clipPath>
</defs>
</svg>
