<svg width="24" height="24" viewBox="0 0 24 24" fill="none" xmlns="http://www.w3.org/2000/svg">
<g clip-path="url(#clip0_208_18966)">
<path fill-rule="evenodd" clip-rule="evenodd" d="M0 0H24V24H0V0Z" fill="#FFE800"/>
<path fill-rule="evenodd" clip-rule="evenodd" d="M0 12H24V24H0V12Z" fill="#00148E"/>
<path fill-rule="evenodd" clip-rule="evenodd" d="M0 18H24V24H0V18Z" fill="#DA0010"/>
<path fill-rule="evenodd" clip-rule="evenodd" d="M10.0084 11.4469L7.44434 14.1516L7.39746 14.0954L9.96152 11.386L10.0084 11.4469ZM11.7896 11.8875L8.43809 15.4219L8.38184 15.3657L11.7334 11.8313L11.7943 11.8875H11.7896Z" fill="black"/>
<path fill-rule="evenodd" clip-rule="evenodd" d="M8.48828 15.4254L8.21002 15.7078L7.88862 15.9488L8.12373 15.6249L8.40199 15.3424L8.48828 15.4254Z" fill="#808080" stroke="black" stroke-width="0.0425298"/>
<path fill-rule="evenodd" clip-rule="evenodd" d="M7.62598 14.0426L7.34772 14.325L7.02631 14.5659L7.26143 14.242L7.53969 13.9596L7.62598 14.0426Z" fill="#808080" stroke="black" stroke-width="0.0425298"/>
<path fill-rule="evenodd" clip-rule="evenodd" d="M7.8331 5.25378C7.8331 5.25378 7.55101 12.922 8.67938 12.922C9.80776 12.922 10.3735 12.1155 10.3735 12.1155L10.3608 7.90097L7.8331 5.25378Z" fill="#FFDF00" stroke="black" stroke-width="0.0677495"/>
<path fill-rule="evenodd" clip-rule="evenodd" d="M8.52371 5.96912C8.52371 6.37234 8.3978 12.1155 8.96199 12.1155C9.52618 12.1155 10.3741 11.7123 10.3741 11.7123L10.3613 7.90097L8.52371 5.96912Z" fill="#0000C4" stroke="black" stroke-width="0.0677495"/>
<path fill-rule="evenodd" clip-rule="evenodd" d="M8.88965 6.35645C8.88965 6.75967 8.96137 11.3091 9.52715 11.3091H10.3734L10.3607 7.90101L8.88965 6.35645Z" fill="#E10000" stroke="black" stroke-width="0.0677495"/>
<path fill-rule="evenodd" clip-rule="evenodd" d="M7.76738 5.25937L10.3268 7.96406L10.3736 7.90781L7.80957 5.20312L7.7627 5.25937H7.76738Z" fill="black"/>
<path fill-rule="evenodd" clip-rule="evenodd" d="M7.02307 6.74304C7.02307 6.74304 6.29294 14.0799 8.48332 14.0799C10.3086 14.0799 10.3086 12.9225 10.6737 12.9225L10.3086 10.2196L7.02101 6.74304H7.02307Z" fill="#FFDF00" stroke="black" stroke-width="0.0753879"/>
<path d="M8.63819 8.04542C8.65314 8.04439 9.19033 6.85123 10.518 6.10536" stroke="black" stroke-width="0.0802019"/>
<path fill-rule="evenodd" clip-rule="evenodd" d="M8.55868 6.88198C8.74534 6.97107 8.86295 7.0738 8.96973 7.19365C8.75551 7.14814 8.64493 7.12981 8.45827 7.04072C8.27162 6.95163 8.12977 6.81505 8.01709 6.70454C8.15628 6.74767 8.37099 6.79241 8.55868 6.88198Z" fill="#005B00" stroke="black" stroke-width="0.0364699"/>
<path fill-rule="evenodd" clip-rule="evenodd" d="M9.13503 7.57189C9.14759 7.59664 9.13387 7.63121 9.10368 7.64796C9.0735 7.6647 9.03873 7.65782 9.02586 7.63245C9.01298 7.60708 9.02733 7.57374 9.05752 7.557C9.0877 7.54026 9.12247 7.54714 9.13503 7.57189Z" fill="#FF0000" stroke="black" stroke-width="0.0253814"/>
<path fill-rule="evenodd" clip-rule="evenodd" d="M9.59065 6.1055C9.5092 6.31761 9.41932 6.45757 9.31573 6.58826C9.36226 6.35253 9.38202 6.23154 9.46347 6.01943C9.54492 5.80732 9.66381 5.63679 9.75992 5.50104C9.71846 5.65606 9.67255 5.89221 9.59065 6.1055Z" fill="#005B00" stroke="black" stroke-width="0.034563"/>
<path fill-rule="evenodd" clip-rule="evenodd" d="M9.44481 6.10468C9.4253 6.31255 9.38217 6.47369 9.32544 6.63721C9.3103 6.43538 9.29907 6.33454 9.31859 6.12667C9.3381 5.9188 9.39851 5.71624 9.44782 5.55401C9.44868 5.69394 9.46444 5.89566 9.44481 6.10468Z" fill="#005B00" stroke="black" stroke-width="0.0302635"/>
<path fill-rule="evenodd" clip-rule="evenodd" d="M9.60753 6.37972C9.49724 6.5036 9.40401 6.5557 9.30584 6.58821C9.40353 6.41447 9.45134 6.32191 9.56163 6.19804C9.67193 6.07416 9.79082 6.01838 9.8863 5.97518C9.81591 6.08053 9.71844 6.25517 9.60753 6.37972Z" fill="#005B00" stroke="black" stroke-width="0.0326215"/>
<path fill-rule="evenodd" clip-rule="evenodd" d="M8.73244 6.74952C8.85122 6.90054 8.90683 7.0442 8.94636 7.2023C8.78663 7.08803 8.70205 7.03441 8.58327 6.88339C8.46448 6.73237 8.40265 6.5459 8.35435 6.39568C8.45254 6.48404 8.613 6.59766 8.73244 6.74952Z" fill="#005B00" stroke="black" stroke-width="0.0363119"/>
<path fill-rule="evenodd" clip-rule="evenodd" d="M8.32298 7.63385C8.48418 7.76366 8.56995 7.89786 8.6388 8.04958C8.43454 7.9644 8.32736 7.92622 8.16616 7.79641C8.00495 7.6666 7.90582 7.49049 7.82775 7.34833C7.95587 7.41893 8.16089 7.50332 8.32298 7.63385Z" fill="#005B00" stroke="black" stroke-width="0.0400078"/>
<path fill-rule="evenodd" clip-rule="evenodd" d="M9.06544 7.57351C8.94242 7.77714 8.80815 7.91461 8.65388 8.04466C8.72597 7.82214 8.75691 7.70829 8.87993 7.50466C9.00295 7.30104 9.18034 7.13274 9.3237 6.99864C9.26033 7.1459 9.18915 7.36876 9.06544 7.57351Z" fill="#005B00" stroke="black" stroke-width="0.0401468"/>
<path fill-rule="evenodd" clip-rule="evenodd" d="M9.26946 7.77609C9.06414 7.91778 8.88528 7.99017 8.69467 8.04627C8.87007 7.86311 8.95513 7.76669 9.16045 7.625C9.36577 7.48332 9.59495 7.4006 9.77915 7.33561C9.65078 7.44971 9.47592 7.63362 9.26946 7.77609Z" fill="#005B00" stroke="black" stroke-width="0.039891"/>
<path fill-rule="evenodd" clip-rule="evenodd" d="M10.6204 5.97256C10.5339 6.07692 10.4559 6.1411 10.3718 6.19847C10.4426 6.07679 10.4765 6.01381 10.5631 5.90945C10.6496 5.80509 10.75 5.72811 10.8308 5.66702C10.778 5.74563 10.7074 5.86763 10.6204 5.97256Z" fill="#005B00" stroke="black" stroke-width="0.0198975"/>
<path fill-rule="evenodd" clip-rule="evenodd" d="M10.5294 5.93658C10.4785 6.04687 10.423 6.12889 10.3592 6.21049C10.3891 6.09914 10.402 6.04305 10.4529 5.93275C10.5038 5.82246 10.5771 5.72014 10.6363 5.63831C10.6101 5.71431 10.5806 5.82567 10.5294 5.93658Z" fill="#005B00" stroke="black" stroke-width="0.0178486"/>
<path fill-rule="evenodd" clip-rule="evenodd" d="M10.601 6.1404C10.5136 6.193 10.4494 6.20881 10.386 6.21327C10.4752 6.13179 10.5203 6.08781 10.6076 6.03521C10.695 5.98261 10.7749 5.96826 10.8387 5.95761C10.7781 6.00551 10.6888 6.0875 10.601 6.1404Z" fill="#005B00" stroke="black" stroke-width="0.0191855"/>
<path fill-rule="evenodd" clip-rule="evenodd" d="M9.44709 6.85438C9.28588 6.95195 9.15398 7.00651 9.01691 7.05209C9.16499 6.93168 9.23807 6.86876 9.39927 6.77119C9.56048 6.67362 9.72782 6.60971 9.86207 6.55924C9.75702 6.63546 9.60918 6.75627 9.44709 6.85438Z" fill="#005B00" stroke="black" stroke-width="0.0248807"/>
<path fill-rule="evenodd" clip-rule="evenodd" d="M9.97157 6.81325C9.75776 6.94052 9.57598 6.99992 9.38409 7.04199C9.57218 6.87063 9.66405 6.77987 9.87786 6.6526C10.0917 6.52534 10.3237 6.45936 10.5101 6.40783C10.3742 6.51313 10.1866 6.68528 9.97157 6.81325Z" fill="#005B00" stroke="black" stroke-width="0.0398045"/>
<path d="M8.56545 8.87295C8.57916 8.86532 8.44685 7.75131 9.31093 6.59839" stroke="black" stroke-width="0.0803551"/>
<path fill-rule="evenodd" clip-rule="evenodd" d="M9.94167 6.43749C9.95423 6.46224 9.94051 6.49681 9.91032 6.51356C9.88014 6.5303 9.84537 6.52342 9.8325 6.49805C9.81962 6.47268 9.83397 6.43934 9.86416 6.4226C9.89434 6.40586 9.92911 6.41274 9.94167 6.43749Z" fill="#FF0000" stroke="black" stroke-width="0.0253814"/>
<path fill-rule="evenodd" clip-rule="evenodd" d="M10.3255 6.21251C10.338 6.23726 10.3243 6.27184 10.2941 6.28858C10.2639 6.30532 10.2292 6.29844 10.2163 6.27307C10.2034 6.24771 10.2178 6.21437 10.2479 6.19762C10.2781 6.18088 10.3129 6.18776 10.3255 6.21251Z" fill="#FF0000" stroke="black" stroke-width="0.0253814"/>
<path fill-rule="evenodd" clip-rule="evenodd" d="M8.95875 6.89222C8.96812 6.91097 8.95116 6.94116 8.92031 6.95878C8.88947 6.97641 8.8568 6.97519 8.84719 6.95597C8.83758 6.93675 8.85502 6.9075 8.88586 6.88988C8.9167 6.87225 8.94937 6.87347 8.95875 6.89222Z" fill="#FF0000" stroke="black" stroke-width="0.0223779"/>
<path fill-rule="evenodd" clip-rule="evenodd" d="M9.06715 6.84535C9.07652 6.8641 9.05955 6.89428 9.02871 6.91191C8.99787 6.92953 8.9652 6.92832 8.95559 6.9091C8.94598 6.88988 8.96341 6.86063 8.99426 6.843C9.0251 6.82538 9.05777 6.8266 9.06715 6.84535Z" fill="#FF0000" stroke="black" stroke-width="0.0223779"/>
<path fill-rule="evenodd" clip-rule="evenodd" d="M9.00562 6.94374C9.015 6.96249 8.99803 6.99267 8.96719 7.0103C8.93634 7.02792 8.90367 7.0267 8.89406 7.00749C8.88445 6.98827 8.90189 6.95902 8.93273 6.94139C8.96358 6.92377 8.99625 6.92499 9.00562 6.94374Z" fill="#FF0000" stroke="black" stroke-width="0.0223779"/>
<path fill-rule="evenodd" clip-rule="evenodd" d="M9.44625 6.9216C9.46013 6.94916 9.44485 6.98755 9.41136 7.00606C9.37787 7.02456 9.33935 7.01679 9.32513 6.98853C9.3109 6.96028 9.32688 6.92327 9.36037 6.90476C9.39385 6.88626 9.43238 6.89403 9.44625 6.9216Z" fill="#FF0000" stroke="black" stroke-width="0.0281766"/>
<path fill-rule="evenodd" clip-rule="evenodd" d="M9.52535 6.84188C9.53923 6.86945 9.52395 6.90784 9.49046 6.92634C9.45697 6.94485 9.41845 6.93707 9.40423 6.90882C9.39001 6.88057 9.40598 6.84356 9.43947 6.82505C9.47296 6.80655 9.51148 6.81432 9.52535 6.84188Z" fill="#FF0000" stroke="black" stroke-width="0.0281766"/>
<path fill-rule="evenodd" clip-rule="evenodd" d="M9.54488 6.87936C9.55876 6.90692 9.54348 6.94531 9.50999 6.96382C9.4765 6.98233 9.43798 6.97455 9.42376 6.9463C9.40954 6.91805 9.42551 6.88103 9.459 6.86253C9.49249 6.84402 9.53101 6.8518 9.54488 6.87936Z" fill="#FF0000" stroke="black" stroke-width="0.0281766"/>
<path fill-rule="evenodd" clip-rule="evenodd" d="M7.75342 7.51685C7.75342 7.90265 7.02329 12.1509 8.85067 13.3083C9.58079 13.6941 10.676 12.9225 10.676 13.3083L10.3109 10.2197L7.75342 7.51685Z" fill="#0000C4" stroke="black" stroke-width="0.0753879"/>
<path fill-rule="evenodd" clip-rule="evenodd" d="M8.48308 8.28845C8.48308 8.67426 8.11802 11.7629 9.21527 12.5367C9.9454 13.3083 11.7728 13.099 11.7728 13.099L10.3105 10.2197L8.48308 8.28845Z" fill="#E10000" stroke="black" stroke-width="0.0753879"/>
<path fill-rule="evenodd" clip-rule="evenodd" d="M6.97461 6.74998L10.3262 10.2844L10.3871 10.2281L7.03086 6.69373L6.97461 6.74998Z" fill="black"/>
<path fill-rule="evenodd" clip-rule="evenodd" d="M6.41808 6.35288L6.63546 6.40017L6.70184 6.4682C6.69314 6.46722 6.76821 6.53624 6.68358 6.62501C6.59895 6.71379 6.46668 6.57722 6.46668 6.57722C6.46668 6.57722 6.5148 6.80206 6.64793 6.93852C6.78105 7.07497 6.93168 7.05384 6.93168 7.05384C6.93168 7.05384 6.78163 6.92582 6.88356 6.829C6.9856 6.73129 7.03456 6.80826 7.03456 6.80826L7.16731 6.94433L7.25242 6.85505L6.72105 6.31039L6.67292 6.08554L6.34337 6.01748L6.41819 6.35199L6.41808 6.35288Z" fill="#CECECC" stroke="black" stroke-width="0.0216892"/>
<path fill-rule="evenodd" clip-rule="evenodd" d="M7.06295 4.83571L7.3128 5.21596L7.64102 5.29096L7.42115 5.43201L7.81525 5.40712L7.98998 5.5236L8.05673 5.42348L7.88151 5.30667L7.75328 4.93274L7.70727 5.19051L7.51218 4.91582L7.06284 4.83482L7.06295 4.83571Z" fill="#CECECC" stroke="black" stroke-width="0.0224846"/>
<path fill-rule="evenodd" clip-rule="evenodd" d="M8.01637 5.12615C8.01637 5.14809 7.98796 5.16674 7.95529 5.16674C7.92263 5.16674 7.8928 5.14809 7.8928 5.12615C7.8928 5.10422 7.92121 5.08447 7.95529 5.08447C7.98938 5.08447 8.01637 5.10312 8.01637 5.12615ZM7.92831 5.21281C7.92831 5.60549 8.22515 7.27274 8.2493 7.31332C8.25072 7.36268 8.18112 7.38352 8.14845 7.3232C8.05471 7.13234 7.85303 5.5682 7.84593 5.20294C7.84167 5.05266 7.89848 5.0406 7.96381 5.04389C8.01637 5.04608 8.0817 5.08447 8.0817 5.13054C8.0817 5.18539 7.99932 5.22597 7.92831 5.21281Z" fill="#E10000" stroke="black" stroke-width="0.0443791"/>
<path fill-rule="evenodd" clip-rule="evenodd" d="M8.07141 5.307C8.06072 5.32762 8.02492 5.33859 7.99419 5.33104C7.96346 5.3235 7.94449 5.29907 7.95518 5.27845C7.96587 5.25782 8.00221 5.24582 8.03427 5.2537C8.06633 5.26157 8.08263 5.28534 8.07141 5.307ZM7.94636 5.36812C8.03908 6.10467 7.70616 7.24701 7.70857 7.29178C7.68639 7.33748 7.61024 7.34203 7.60944 7.27673C7.59368 7.2345 7.97522 6.20175 7.87369 5.33981C7.94289 5.19754 8.00221 5.19932 8.06206 5.21751C8.11042 5.23172 8.15317 5.2829 8.13072 5.32622C8.104 5.37778 8.00675 5.3969 7.94636 5.36812Z" fill="#0000C4" stroke="black" stroke-width="0.0449434"/>
<path fill-rule="evenodd" clip-rule="evenodd" d="M7.26094 6.53249C7.26094 6.56811 7.22466 6.59839 7.18294 6.59839C7.14122 6.59839 7.10312 6.56811 7.10312 6.53249C7.10312 6.49686 7.1394 6.4648 7.18294 6.4648C7.22648 6.4648 7.26094 6.49508 7.26094 6.53249ZM7.14847 6.67321C7.14847 7.31089 7.52761 10.0184 7.55845 10.0843C7.56026 10.1645 7.47137 10.1983 7.42965 10.1003C7.30992 9.79039 7.05233 7.25033 7.04326 6.65718C7.03781 6.41315 7.11038 6.39355 7.19382 6.3989C7.26094 6.40246 7.34439 6.4648 7.34439 6.53961C7.34439 6.62868 7.23917 6.69458 7.14847 6.67321Z" fill="#E10000" stroke="black" stroke-width="0.063914"/>
<path fill-rule="evenodd" clip-rule="evenodd" d="M7.35649 6.80347C7.34289 6.83722 7.29712 6.85541 7.25777 6.84333C7.21842 6.83126 7.19404 6.79154 7.20764 6.75779C7.22123 6.72404 7.26768 6.70417 7.30875 6.71677C7.34981 6.72937 7.37076 6.76803 7.35649 6.80347ZM7.19671 6.90423C7.31833 8.10573 6.8969 9.97297 6.90016 10.046C6.87196 10.1208 6.77453 10.1288 6.77325 10.0222C6.7529 9.95343 7.237 8.26469 7.1036 6.85859C7.19158 6.62583 7.2675 6.62827 7.34416 6.65748C7.4061 6.68028 7.46102 6.76349 7.43247 6.83437C7.39849 6.91874 7.2741 6.95073 7.19671 6.90423Z" fill="#0000C4" stroke="black" stroke-width="0.0641563"/>
<path fill-rule="evenodd" clip-rule="evenodd" d="M13.5748 11.4469L16.1389 14.1516L16.1857 14.0954L13.6217 11.386L13.5748 11.4469ZM11.7936 11.8875L15.1404 15.4219L15.1967 15.3657L11.8451 11.8313L11.7842 11.8875H11.7936Z" fill="black"/>
<path fill-rule="evenodd" clip-rule="evenodd" d="M15.0889 15.4254L15.3671 15.7078L15.6885 15.9488L15.4534 15.6249L15.1752 15.3424L15.0889 15.4254Z" fill="#808080" stroke="black" stroke-width="0.0425298"/>
<path fill-rule="evenodd" clip-rule="evenodd" d="M15.9561 14.0426L16.2343 14.325L16.5557 14.5659L16.3206 14.242L16.0423 13.9596L15.9561 14.0426Z" fill="#808080" stroke="black" stroke-width="0.0425298"/>
<path fill-rule="evenodd" clip-rule="evenodd" d="M15.7538 5.25378C15.7538 5.25378 16.0359 12.922 14.9075 12.922C13.7792 12.922 13.2134 12.1155 13.2134 12.1155L13.2261 7.90097L15.7538 5.25378Z" fill="#FFDF00" stroke="black" stroke-width="0.0677495"/>
<path fill-rule="evenodd" clip-rule="evenodd" d="M15.0642 5.96912C15.0642 6.37234 15.1901 12.1155 14.6259 12.1155C14.0617 12.1155 13.2138 11.7123 13.2138 11.7123L13.2266 7.90097L15.0642 5.96912Z" fill="#0000C4" stroke="black" stroke-width="0.0677495"/>
<path fill-rule="evenodd" clip-rule="evenodd" d="M14.6973 6.35645C14.6973 6.75967 14.6255 11.3091 14.0598 11.3091H13.2135L13.2262 7.90101L14.6973 6.35645Z" fill="#E10000" stroke="black" stroke-width="0.0677495"/>
<path fill-rule="evenodd" clip-rule="evenodd" d="M15.8152 5.25933L13.2559 7.9687L13.209 7.91245L15.773 5.20776L15.8199 5.26401L15.8152 5.25933Z" fill="black"/>
<path fill-rule="evenodd" clip-rule="evenodd" d="M13.8597 7.2843C13.8597 7.2843 14.5885 8.20127 14.9383 8.91435C15.2877 9.62895 15.694 10.7204 15.694 10.7204C15.694 10.7204 15.465 9.64233 15.0246 8.7833C14.4473 7.70311 13.8589 7.34644 13.8597 7.2843Z" fill="#005B00" stroke="black" stroke-width="0.0321027"/>
<path fill-rule="evenodd" clip-rule="evenodd" d="M13.7103 6.57535C13.7103 6.57535 14.4968 7.67249 14.856 8.49091C15.2147 9.3109 15.6144 10.5429 15.6144 10.5429C15.6144 10.5429 15.42 9.35361 14.9652 8.36464C14.3659 7.11728 13.7053 6.64168 13.7103 6.57535Z" fill="#005B00" stroke="black" stroke-width="0.0356576"/>
<path fill-rule="evenodd" clip-rule="evenodd" d="M14.4897 5.51795C14.4897 5.51795 15.0647 7.20219 15.2413 8.24171C15.417 9.28214 15.5264 10.7125 15.5264 10.7125C15.5264 10.7125 15.6331 9.51419 15.3967 8.23828C15.0699 6.60446 14.4662 5.56969 14.4897 5.51795Z" fill="#005B00" stroke="black" stroke-width="0.0413995"/>
<path fill-rule="evenodd" clip-rule="evenodd" d="M13.9008 5.41814C13.9008 5.41814 14.6624 6.92178 14.9553 7.94322C15.2473 8.96611 15.5175 10.4416 15.5175 10.4416C15.5175 10.4416 15.4883 9.10158 15.1093 7.85815C14.6002 6.27851 13.8833 5.48591 13.9008 5.41814Z" fill="#005B00" stroke="black" stroke-width="0.0416501"/>
<path fill-rule="evenodd" clip-rule="evenodd" d="M14.8929 5.8405C14.8929 5.8405 15.2934 7.46128 15.3983 8.43197C15.5023 9.40334 15.5399 10.7168 15.5399 10.7168C15.5399 10.7168 15.6668 9.64941 15.5224 8.45471C15.3184 6.92089 14.8723 5.88345 14.8929 5.8405Z" fill="#005B00" stroke="black" stroke-width="0.0372517"/>
<path fill-rule="evenodd" clip-rule="evenodd" d="M13.7885 5.93115C13.7885 5.93115 14.5485 7.22363 14.8608 8.12708C15.1725 9.03195 15.4848 10.3544 15.4848 10.3544C15.4848 10.3544 15.3975 9.12885 14.9969 8.0316C14.4628 6.6408 13.7756 5.99528 13.7885 5.93115Z" fill="#005B00" stroke="black" stroke-width="0.0379578"/>
<path fill-rule="evenodd" clip-rule="evenodd" d="M13.7054 6.80371C13.7054 6.80371 14.491 7.83037 14.8471 8.61754C15.2026 9.40632 15.5959 10.6045 15.5959 10.6045C15.5959 10.6045 15.4098 9.42991 14.9586 8.48064C14.3635 7.28577 13.6998 6.8707 13.7054 6.80371Z" fill="#005B00" stroke="black" stroke-width="0.0360998"/>
<path fill-rule="evenodd" clip-rule="evenodd" d="M13.8089 6.31537C13.8089 6.31537 14.5435 7.48683 14.8639 8.33788C15.1837 9.19044 15.5248 10.4574 15.5248 10.4574C15.5248 10.4574 15.3871 9.25355 14.9792 8.22308C14.4391 6.92078 13.8008 6.38093 13.8089 6.31537Z" fill="#005B00" stroke="black" stroke-width="0.0356228"/>
<path fill-rule="evenodd" clip-rule="evenodd" d="M14.6664 5.55459C14.6664 5.55459 15.1467 7.20562 15.266 8.21162C15.3845 9.21843 15.416 10.5929 15.416 10.5929C15.416 10.5929 15.5865 9.4559 15.4205 8.21969C15.1841 6.63496 14.6403 5.6023 14.6664 5.55459Z" fill="#005B00" stroke="black" stroke-width="0.0403239"/>
<path fill-rule="evenodd" clip-rule="evenodd" d="M14.0326 5.14999C14.0326 5.14999 14.7186 6.71858 14.9611 7.76352C15.2028 8.80984 15.401 10.3053 15.401 10.3053C15.401 10.3053 15.4361 8.96699 15.1185 7.69288C14.6874 6.07172 14.012 5.21592 14.0326 5.14999Z" fill="#005B00" stroke="black" stroke-width="0.0417358"/>
<path fill-rule="evenodd" clip-rule="evenodd" d="M15.0677 6.00273C15.0677 6.00273 15.3739 7.55463 15.4231 8.47459C15.4715 9.39513 15.4344 10.6326 15.4344 10.6326C15.4344 10.6326 15.621 9.63802 15.5452 8.50468C15.4293 7.04833 15.0448 6.04167 15.0677 6.00273Z" fill="#005B00" stroke="black" stroke-width="0.0357147"/>
<path fill-rule="evenodd" clip-rule="evenodd" d="M13.8598 5.63955C13.8598 5.63955 14.573 6.99574 14.8397 7.93085C15.1056 8.86736 15.3427 10.2276 15.3427 10.2276C15.3427 10.2276 15.337 8.97892 14.9905 7.84197C14.5235 6.3993 13.8416 5.70386 13.8598 5.63955Z" fill="#005B00" stroke="black" stroke-width="0.0394041"/>
<path fill-rule="evenodd" clip-rule="evenodd" d="M16.5599 6.74304C16.5599 6.74304 17.2901 14.0799 15.0997 14.0799C13.2744 14.0799 13.2744 12.9225 12.9093 12.9225L13.2744 10.2196L16.562 6.74304H16.5599Z" fill="#FFDF00" stroke="black" stroke-width="0.0753879"/>
<path fill-rule="evenodd" clip-rule="evenodd" d="M15.8296 7.51685C15.8296 7.90265 16.5597 12.1509 14.7323 13.3083C14.0022 13.6941 12.907 12.9225 12.907 13.3083L13.2721 10.2197L15.8296 7.51685Z" fill="#0000C4" stroke="black" stroke-width="0.0753879"/>
<path fill-rule="evenodd" clip-rule="evenodd" d="M15.0989 8.28845C15.0989 8.67426 15.464 11.7629 14.3668 12.5367C13.6366 13.3083 11.8093 13.099 11.8093 13.099L13.2716 10.2197L15.0989 8.28845Z" fill="#E10000" stroke="black" stroke-width="0.0753879"/>
<path fill-rule="evenodd" clip-rule="evenodd" d="M16.6078 6.74998L13.2562 10.2844L13.1953 10.2281L16.5516 6.69373L16.6078 6.74998Z" fill="black"/>
<path fill-rule="evenodd" clip-rule="evenodd" d="M17.1688 6.35288L16.9515 6.40017L16.8851 6.4682C16.8938 6.46722 16.8187 6.53624 16.9033 6.62501C16.988 6.71379 17.1202 6.57722 17.1202 6.57722C17.1202 6.57722 17.0721 6.80206 16.939 6.93852C16.8059 7.07497 16.6552 7.05384 16.6552 7.05384C16.6552 7.05384 16.8053 6.92582 16.7034 6.829C16.6013 6.73129 16.5524 6.80826 16.5524 6.80826L16.4196 6.94433L16.3345 6.85505L16.8659 6.31039L16.914 6.08554L17.2435 6.01748L17.1687 6.35199L17.1688 6.35288Z" fill="#CECECC" stroke="black" stroke-width="0.0216892"/>
<path fill-rule="evenodd" clip-rule="evenodd" d="M16.5152 4.83571L16.2653 5.21596L15.9371 5.29096L16.157 5.43201L15.7629 5.40712L15.5881 5.5236L15.5214 5.42348L15.6966 5.30667L15.8248 4.93274L15.8709 5.19051L16.0659 4.91582L16.5153 4.83482L16.5152 4.83571Z" fill="#CECECC" stroke="black" stroke-width="0.0224846"/>
<path fill-rule="evenodd" clip-rule="evenodd" d="M15.5618 5.12615C15.5618 5.14809 15.5902 5.16674 15.6228 5.16674C15.6555 5.16674 15.6853 5.14809 15.6853 5.12615C15.6853 5.10422 15.6569 5.08447 15.6228 5.08447C15.5887 5.08447 15.5618 5.10312 15.5618 5.12615ZM15.6498 5.21281C15.6498 5.60549 15.353 7.27274 15.3288 7.31332C15.3274 7.36268 15.397 7.38352 15.4297 7.3232C15.5234 7.13234 15.7251 5.5682 15.7322 5.20294C15.7365 5.05266 15.6796 5.0406 15.6143 5.04389C15.5618 5.04608 15.4964 5.08447 15.4964 5.13054C15.4964 5.18539 15.5788 5.22597 15.6498 5.21281Z" fill="#E10000" stroke="black" stroke-width="0.0443791"/>
<path fill-rule="evenodd" clip-rule="evenodd" d="M15.5106 5.307C15.5213 5.32762 15.5571 5.33859 15.5878 5.33104C15.6186 5.3235 15.6375 5.29907 15.6269 5.27845C15.6162 5.25782 15.5798 5.24582 15.5478 5.2537C15.5157 5.26157 15.4994 5.28534 15.5106 5.307ZM15.6357 5.36812C15.543 6.10467 15.8759 7.24701 15.8735 7.29178C15.8956 7.33748 15.9718 7.34203 15.9726 7.27673C15.9884 7.2345 15.6068 6.20175 15.7083 5.33981C15.6391 5.19754 15.5798 5.19932 15.52 5.21751C15.4716 5.23172 15.4289 5.2829 15.4513 5.32622C15.478 5.37778 15.5753 5.3969 15.6357 5.36812Z" fill="#0000C4" stroke="black" stroke-width="0.0449434"/>
<path fill-rule="evenodd" clip-rule="evenodd" d="M16.3172 6.53249C16.3172 6.56811 16.3535 6.59839 16.3952 6.59839C16.4369 6.59839 16.475 6.56811 16.475 6.53249C16.475 6.49686 16.4387 6.4648 16.3952 6.4648C16.3516 6.4648 16.3172 6.49508 16.3172 6.53249ZM16.4297 6.67321C16.4297 7.31089 16.0505 10.0184 16.0197 10.0843C16.0179 10.1645 16.1068 10.1983 16.1485 10.1003C16.2682 9.79039 16.5258 7.25033 16.5349 6.65718C16.5403 6.41315 16.4677 6.39355 16.3843 6.3989C16.3172 6.40246 16.2337 6.4648 16.2337 6.53961C16.2337 6.62868 16.339 6.69458 16.4297 6.67321Z" fill="#E10000" stroke="black" stroke-width="0.063914"/>
<path fill-rule="evenodd" clip-rule="evenodd" d="M16.2255 6.80347C16.2391 6.83722 16.2849 6.85541 16.3243 6.84333C16.3636 6.83126 16.388 6.79154 16.3744 6.75779C16.3608 6.72404 16.3143 6.70417 16.2733 6.71677C16.2322 6.72937 16.2113 6.76803 16.2255 6.80347ZM16.3853 6.90423C16.2637 8.10573 16.6851 9.97297 16.6819 10.046C16.7101 10.1208 16.8075 10.1288 16.8088 10.0222C16.8291 9.95343 16.345 8.26469 16.4784 6.85859C16.3904 6.62583 16.3145 6.62827 16.2379 6.65748C16.1759 6.68028 16.121 6.76349 16.1496 6.83437C16.1835 6.91874 16.3079 6.95073 16.3853 6.90423Z" fill="#0000C4" stroke="black" stroke-width="0.0641563"/>
<path fill-rule="evenodd" clip-rule="evenodd" d="M10.6778 16.0111C10.8445 16.1123 11.0333 16.1655 11.2254 16.1655C11.4176 16.1655 11.6064 16.1123 11.773 16.0111V12.9225H11.0429C11.408 14.0799 11.408 15.2395 10.6758 16.0111H10.6778Z" fill="#E10000" stroke="black" stroke-width="0.0753879"/>
<path fill-rule="evenodd" clip-rule="evenodd" d="M11.2193 12.9458C11.2193 15.1196 10.6914 15.6035 10.6914 16.0407C10.9113 16.0407 11.0579 15.8368 11.2193 15.5568C11.4392 15.1196 11.4603 12.9114 11.4392 12.9458H11.2193Z" fill="#0000C4" stroke="black" stroke-width="0.0621065"/>
<path fill-rule="evenodd" clip-rule="evenodd" d="M10.7798 12.9458C10.7687 14.2157 10.2233 15.3922 10.3264 15.6526C10.4432 15.8859 10.7798 15.1196 11.2196 15.5543C11.4394 15.1196 11.4606 12.9114 11.4394 12.9433H10.7798V12.9458Z" fill="#0000C4" stroke="black" stroke-width="0.0621065"/>
<path fill-rule="evenodd" clip-rule="evenodd" d="M10.8356 12.9574C10.8356 14.4094 10.3301 14.5062 10.3301 14.8934C10.5499 14.8934 10.8344 14.6817 10.8356 14.7014C11.0555 14.4094 11.0766 12.9344 11.0555 12.9574H10.8356Z" fill="#FFDF00" stroke="black" stroke-width="0.0507581"/>
<path fill-rule="evenodd" clip-rule="evenodd" d="M10.3956 12.9574C10.3844 13.8056 9.85154 14.5275 9.95464 14.7014C10.0726 14.8556 10.3956 14.4094 10.8353 14.7014C11.0552 14.4094 11.0763 12.9344 11.0552 12.9574H10.3956Z" fill="#FFDF00" stroke="black" stroke-width="0.0507581"/>
<path fill-rule="evenodd" clip-rule="evenodd" d="M12.9052 16.0111C12.7385 16.1123 12.5497 16.1655 12.3576 16.1655C12.1654 16.1655 11.9766 16.1123 11.81 16.0111V12.9225H12.5401C12.175 14.0799 12.175 15.2395 12.9072 16.0111H12.9052Z" fill="#E10000" stroke="black" stroke-width="0.0753879"/>
<path fill-rule="evenodd" clip-rule="evenodd" d="M12.3627 12.9458C12.3627 15.1196 12.8906 15.6035 12.8906 16.0407C12.6708 16.0407 12.5242 15.8368 12.3627 15.5568C12.1428 15.1196 12.1217 12.9114 12.1428 12.9458H12.3627Z" fill="#0000C4" stroke="black" stroke-width="0.0621065"/>
<path fill-rule="evenodd" clip-rule="evenodd" d="M12.8022 12.9458C12.8134 14.2157 13.3587 15.3922 13.2556 15.6526C13.1388 15.8859 12.8022 15.1196 12.3625 15.5543C12.1426 15.1196 12.1215 12.9114 12.1426 12.9433H12.8022V12.9458Z" fill="#0000C4" stroke="black" stroke-width="0.0621065"/>
<path fill-rule="evenodd" clip-rule="evenodd" d="M12.7522 12.9574C12.7522 14.4094 13.2578 14.5062 13.2578 14.8934C13.0379 14.8934 12.7535 14.6817 12.7522 14.7014C12.5324 14.4094 12.5113 12.9344 12.5324 12.9574H12.7522Z" fill="#FFDF00" stroke="black" stroke-width="0.0507581"/>
<path fill-rule="evenodd" clip-rule="evenodd" d="M13.1913 12.9574C13.2025 13.8056 13.7354 14.5275 13.6323 14.7014C13.5143 14.8556 13.1913 14.4094 12.7516 14.7014C12.5317 14.4094 12.5106 12.9344 12.5317 12.9574H13.1913Z" fill="#FFDF00" stroke="black" stroke-width="0.0507581"/>
<path fill-rule="evenodd" clip-rule="evenodd" d="M9.01319 13.2544L8.63477 13.5365L9.01319 13.8186L9.20219 13.6775L9.29669 13.8186L9.39119 14.1007L9.48611 13.8186L9.58061 13.6775H14.6511V13.3954H9.58019L9.48569 13.2536C9.48569 13.1125 9.50552 12.9715 9.58061 12.9715H9.95861C9.95861 12.8304 9.76961 12.5483 9.39119 12.5483C9.01319 12.5483 8.82377 12.8304 8.82377 12.9715H9.20219C9.27686 12.9715 9.29669 13.1125 9.29669 13.2544L9.20219 13.3954L9.01277 13.2536L9.01319 13.2544Z" fill="#908F8A" stroke="black" stroke-width="0.0695774"/>
<path fill-rule="evenodd" clip-rule="evenodd" d="M10.125 13.9223H13.4394V14.0941H10.126L10.125 13.9223ZM10.125 13.7496H13.4394V13.9223H10.126L10.125 13.7496ZM10.125 13.5779H13.4394V13.7506H10.126L10.125 13.5779ZM10.125 13.4061H13.4394V13.5779H10.126L10.125 13.4061ZM10.125 13.2344H13.4394V13.4061H10.126L10.125 13.2344ZM10.125 13.0616H13.4394V13.2344H10.126L10.125 13.0616ZM10.125 12.8909H13.4394V13.0616H10.126L10.125 12.8909Z" fill="#B74D00"/>
<path d="M13.4394 13.9223H10.125L10.126 14.0941H13.4394V13.9223ZM13.4394 13.9223V13.7496H10.125L10.126 13.9223H13.4394ZM13.4394 13.5779H10.125L10.126 13.7506H13.4394V13.5779ZM13.4394 13.5779V13.4061M13.4394 13.5779H10.126L10.125 13.4061H13.4394M13.4394 13.4061V13.2344M13.4394 13.4061H10.126L10.125 13.2344H13.4394M13.4394 13.2344V13.0616M13.4394 13.2344H10.126L10.125 13.0616H13.4394M13.4394 13.0616V12.8909H10.125L10.126 13.0616H13.4394Z" stroke="black" stroke-width="0.0469113"/>
<path fill-rule="evenodd" clip-rule="evenodd" d="M10.3223 12.8888L11.5495 14.092H11.725L10.4986 12.8898H10.3232L10.3223 12.8888Z" fill="#908F8A" stroke="black" stroke-width="0.0818061"/>
<path fill-rule="evenodd" clip-rule="evenodd" d="M10.3223 14.0924L11.5495 12.8892H11.725L10.4986 14.0914H10.3232L10.3223 14.0924Z" fill="#908F8A" stroke="black" stroke-width="0.0818061"/>
<path fill-rule="evenodd" clip-rule="evenodd" d="M10.3027 12.8888V14.092H10.477V12.8888H10.3027Z" fill="#908F8A" stroke="black" stroke-width="0.0807917"/>
<path fill-rule="evenodd" clip-rule="evenodd" d="M11.8887 12.8888L13.116 14.092H13.2914L12.065 12.8898H11.8896L11.8887 12.8888Z" fill="#908F8A" stroke="black" stroke-width="0.0818061"/>
<path fill-rule="evenodd" clip-rule="evenodd" d="M11.8887 14.0924L13.116 12.8892H13.2914L12.065 14.0914H11.8896L11.8887 14.0924Z" fill="#908F8A" stroke="black" stroke-width="0.0818061"/>
<path fill-rule="evenodd" clip-rule="evenodd" d="M13.0918 12.8888V14.092H13.266V12.8888H13.0918Z" fill="#908F8A" stroke="black" stroke-width="0.0807917"/>
<path fill-rule="evenodd" clip-rule="evenodd" d="M11.873 12.8888V14.092H12.0473V12.8888H11.873Z" fill="#908F8A" stroke="black" stroke-width="0.0807917"/>
<path fill-rule="evenodd" clip-rule="evenodd" d="M11.5215 12.8888V14.092H11.6957V12.8888H11.5215Z" fill="#908F8A" stroke="black" stroke-width="0.0807917"/>
<path fill-rule="evenodd" clip-rule="evenodd" d="M14.3308 9.44804C14.3308 11.3662 13.1841 12.9225 11.7733 12.9225C10.3626 12.9225 9.21582 11.3662 9.21582 9.44804C9.21582 7.52991 10.3605 5.97144 11.7733 5.97144C13.1861 5.97144 14.3308 7.52773 14.3308 9.44586V9.44804ZM13.9658 9.44804C13.9658 11.1526 12.984 12.5367 11.7733 12.5367C10.5626 12.5367 9.58088 11.1526 9.58088 9.44804C9.58088 7.74134 10.5626 6.35724 11.7733 6.35724C12.984 6.35724 13.9658 7.74134 13.9658 9.44804Z" fill="#FFDF00" stroke="black" stroke-width="0.0753879"/>
<path fill-rule="evenodd" clip-rule="evenodd" d="M12.7697 6.24608C12.4624 6.06952 12.1262 5.97144 11.7735 5.97144C11.4208 5.97144 11.0847 6.06952 10.7773 6.2439L10.9217 6.60137C11.1811 6.44337 11.4752 6.3602 11.7746 6.3602C12.0739 6.3602 12.368 6.44337 12.6274 6.60137L12.7697 6.2439V6.24608Z" fill="#FFDF00" stroke="black" stroke-width="0.0753879"/>
<path fill-rule="evenodd" clip-rule="evenodd" d="M12.7746 12.6632C12.4673 12.8398 12.1311 12.9379 11.7784 12.9379C11.4257 12.9379 11.0895 12.8398 10.7822 12.6654L10.9266 12.3079C11.186 12.4659 11.4801 12.5491 11.7794 12.5491C12.0788 12.5491 12.3729 12.4659 12.6323 12.3079L12.7746 12.6654V12.6632Z" fill="#FFDF00" stroke="black" stroke-width="0.0753879"/>
<path fill-rule="evenodd" clip-rule="evenodd" d="M13.9686 9.44526C13.9686 11.1515 12.9842 12.5343 11.7748 12.5343C10.5607 12.5343 9.58105 11.1515 9.58105 9.44526C9.58105 7.73901 10.5654 6.3562 11.7748 6.3562C12.9842 6.3562 13.9639 7.73901 13.9639 9.44526H13.9686Z" fill="#A7CFFF"/>
<path fill-rule="evenodd" clip-rule="evenodd" d="M13.9654 9.44801C13.9881 10.0278 13.8706 10.3112 13.72 10.9149C13.6808 10.9803 13.4931 10.7733 13.3818 10.6708C13.2704 10.5684 13.2209 10.7624 13.0806 10.6054C12.9424 10.4441 12.8538 10.649 12.7506 10.5139C12.6475 10.3787 11.6926 10.3613 11.6926 10.3482C11.7874 10.3003 12.2742 10.3526 12.1958 10.1063C12.1071 9.84908 11.5564 10.0976 11.4822 9.77061C11.4306 9.44365 10.3767 9.43058 10.3004 9.35211C10.3313 9.47417 11.1213 9.52648 11.1027 9.84254C11.0841 9.97332 10.3251 10.0104 10.2509 10.1194C10.189 10.2567 10.849 10.0823 10.8717 10.2501C10.8717 10.3199 10.7748 10.2501 10.4324 10.3591C10.2591 10.4136 10.75 10.5836 10.5644 10.6774C10.3788 10.7711 9.98069 10.8125 9.99719 10.8517C10.0591 11.0479 10.9191 11.279 10.8346 11.3116C10.5293 11.4555 10.3684 11.5492 10.222 11.6321C9.79293 10.9951 9.56814 10.2297 9.58057 9.44801C10.2344 9.19953 10.0962 9.14722 11.3048 9.14722C12.5134 9.14722 12.9136 9.19735 13.9654 9.44801Z" fill="#AFFF7B" stroke="black" stroke-width="0.0753879"/>
<path fill-rule="evenodd" clip-rule="evenodd" d="M13.9659 9.44805C13.8009 9.44805 13.6277 9.52215 13.4503 9.52215C13.2709 9.52215 13.0894 9.44587 12.9037 9.44587C12.7181 9.44587 12.5057 9.54613 12.3159 9.54613C12.1241 9.54613 11.9571 9.44805 11.7652 9.44805C11.5734 9.44805 11.3816 9.52215 11.1919 9.52215C11.0021 9.52215 10.8144 9.44587 10.6309 9.44587C10.4473 9.44587 10.2658 9.52215 10.0905 9.52215C9.91518 9.52215 9.74399 9.44587 9.58105 9.44587C9.58105 9.02083 9.64293 8.61541 9.7543 8.24486C10.3112 8.28845 9.98118 7.90265 10.3112 7.90265C10.4075 7.89714 10.5039 7.91333 10.5938 7.95016C10.6838 7.98698 10.7653 8.0436 10.833 8.11626C10.8825 8.11626 11.13 7.86777 11.4084 7.90265C11.6848 7.93752 11.5837 8.4977 11.9529 8.52604C12.1386 8.67426 12.2479 8.76798 12.5036 8.82901C12.8687 8.86389 13.9144 8.77452 13.9206 8.82465C13.9507 9.03093 13.9658 9.23933 13.9659 9.44805Z" fill="white" stroke="black" stroke-width="0.0753879"/>
<path fill-rule="evenodd" clip-rule="evenodd" d="M12.1521 11.3279C12.1521 11.2309 12.2502 11.1663 12.2502 11.0114C12.2502 10.8566 12.163 10.8532 12.1601 10.7086C12.1586 10.649 12.2349 10.5895 12.2683 10.5827C12.3018 10.5758 12.3301 10.7086 12.3301 10.7375C12.3301 10.7664 12.296 10.666 12.2676 10.6643C12.2393 10.6626 12.1783 10.6745 12.1783 10.7035C12.1783 10.7613 12.2858 10.8328 12.2778 11.0268C12.2698 11.2173 12.1855 11.2752 12.1855 11.333C12.1855 11.3909 12.2218 11.5508 12.2218 11.5508C12.2218 11.5508 12.1514 11.4232 12.1514 11.3262L12.1521 11.3279Z" fill="black" stroke="black" stroke-width="0.0395337"/>
<path fill-rule="evenodd" clip-rule="evenodd" d="M12.2463 11.3138C12.2463 11.2168 12.1483 11.1522 12.1483 10.9973C12.1483 10.8425 12.2354 10.8391 12.2384 10.6944C12.2456 10.6264 12.1526 10.5821 12.1192 10.577C12.0858 10.5719 12.0465 10.7132 12.0465 10.7404C12.0465 10.7676 12.0858 10.6519 12.1141 10.6502C12.1424 10.6485 12.2202 10.6604 12.2202 10.6893C12.2202 10.7472 12.1127 10.8187 12.1206 11.0126C12.1286 11.2032 12.2129 11.2611 12.2129 11.3189C12.2129 11.3768 12.1766 11.5367 12.1766 11.5367C12.1766 11.5367 12.2471 11.4091 12.2471 11.3121L12.2463 11.3138Z" fill="black" stroke="black" stroke-width="0.0395337"/>
<path fill-rule="evenodd" clip-rule="evenodd" d="M12.2486 10.5235C12.2486 10.5703 12.2252 10.6125 12.2018 10.6125C12.1689 10.6125 12.1455 10.575 12.1455 10.5235C12.1455 10.4719 12.1689 10.4391 12.1971 10.4391C12.2252 10.4391 12.2486 10.4766 12.2486 10.5235ZM12.9096 10.7813H12.9283V11.4703H12.9096V10.7813ZM13.0596 10.725H13.0783V11.4188H13.0596V10.725Z" fill="black"/>
<path fill-rule="evenodd" clip-rule="evenodd" d="M12.9424 11.1094V11.0859L13.083 11.1141V11.1281L12.9424 11.1094Z" fill="black"/>
<path fill-rule="evenodd" clip-rule="evenodd" d="M10.9737 11.2392C10.9737 11.2392 11.51 11.4877 11.6276 11.6359C11.7431 11.7841 11.6977 11.7841 11.6977 11.7841L12.8877 11.8343C12.8877 11.7601 13.0981 11.7601 13.1456 11.5858C13.193 11.4136 13.193 11.3634 13.193 11.3634L12.8197 11.4877L12.8403 11.2654H12.5144L12.467 11.4877L11.7657 11.4637L11.8132 10.8687L11.6729 10.8926L11.6523 11.4593C11.6276 11.4593 10.9964 11.2872 10.9717 11.2392H10.9737Z" fill="#B74D00" stroke="black" stroke-width="0.0753879"/>
<path fill-rule="evenodd" clip-rule="evenodd" d="M9.89648 7.69127C9.89648 7.69127 10.674 7.44714 11.796 7.46458C12.918 7.48202 13.6956 7.74358 13.6791 7.74358C13.6626 7.74358 13.4646 7.34252 13.4646 7.34252C13.4646 7.34252 12.6726 7.11365 11.7795 7.09621C10.8885 7.07877 10.111 7.27059 10.1295 7.28802L9.89648 7.69127Z" fill="#FEDE00" stroke="#FEDE00" stroke-width="0.0753879"/>
<path fill-rule="evenodd" clip-rule="evenodd" d="M11.2965 7.1625L11.7793 7.15313V7.43438L11.3012 7.44375L11.2965 7.1625ZM10.1902 7.31719L10.0215 7.59375L10.5934 7.52344L10.5465 7.24219L10.1902 7.31719ZM10.6777 7.20938L11.1559 7.16719L11.1793 7.44844L10.7012 7.49063L10.6777 7.20938ZM12.4074 7.18125L11.9293 7.14844L11.9105 7.42969L12.3887 7.4625L12.4074 7.18125ZM13.4387 7.35938L13.6121 7.70156L13.0965 7.57031L13.1527 7.29844L13.4387 7.35938ZM13.0215 7.25625L12.548 7.19531L12.5152 7.47187L12.9887 7.53281L13.0215 7.25625Z" fill="#38A9F9"/>
<path fill-rule="evenodd" clip-rule="evenodd" d="M11.7955 7.84812L11.7439 7.55387L11.5872 7.80453L11.6449 7.51027L11.4119 7.67811L11.5686 7.4318L11.2922 7.49283L11.5294 7.32718L11.251 7.27269L11.5294 7.21601L11.2922 7.05036L11.5686 7.11139L11.4098 6.86508L11.6449 7.03292L11.5872 6.73866L11.7439 6.98933L11.7955 6.69507L11.8491 6.98933L12.0038 6.73866L11.9481 7.03292L12.1812 6.86508L12.0224 7.11139L12.3008 7.05036L12.0636 7.21601L12.342 7.27269L12.0636 7.32718L12.3008 7.49283L12.0224 7.4318L12.1812 7.67811L11.9481 7.51027L12.0059 7.80453L11.8491 7.55387L11.7955 7.84812Z" fill="#FFDF00" stroke="black" stroke-width="0.0753879"/>
<path fill-rule="evenodd" clip-rule="evenodd" d="M12.1415 7.26721C12.1415 7.43635 12.0085 7.57276 11.8432 7.57276C11.678 7.57276 11.5449 7.43635 11.5449 7.26721C11.5449 7.09806 11.678 6.95984 11.8432 6.95984C12.0085 6.95984 12.1415 7.09806 12.1415 7.26903V7.26721Z" fill="#FFDF00" stroke="black" stroke-width="0.0680768"/>
<path fill-rule="evenodd" clip-rule="evenodd" d="M11.8121 7.19058C11.8121 7.20933 11.7699 7.22339 11.7184 7.22339C11.6668 7.22339 11.6152 7.20933 11.6152 7.19058C11.6152 7.17183 11.6621 7.15308 11.7137 7.15308C11.7652 7.15308 11.8168 7.17183 11.8168 7.19058H11.8121ZM12.0324 7.19058C12.0324 7.20933 11.9949 7.22339 11.9574 7.22339C11.9199 7.22339 11.8824 7.20933 11.8824 7.19058C11.8824 7.17183 11.9152 7.15308 11.9574 7.15308C11.9996 7.15308 12.0277 7.17183 12.0277 7.19058H12.0324Z" fill="black"/>
<path d="M11.7693 7.31174L11.7899 7.32352C11.7405 7.29346 11.763 7.30462 11.8403 7.38052C11.885 7.35521 11.8936 7.33207 11.9215 7.30064" stroke="black" stroke-width="0.0755067"/>
<path d="M11.6642 7.42965L11.6807 7.44709C11.6415 7.40349 11.6601 7.42529 11.7467 7.48196C11.8292 7.49286 11.9138 7.45581 11.9633 7.39478" stroke="black" stroke-width="0.0753879"/>
<path fill-rule="evenodd" clip-rule="evenodd" d="M10.4766 8.00159C10.4766 8.00159 10.5094 8.28284 10.2891 8.6344C10.0781 8.98127 10.1109 8.8594 10.1109 8.8594C10.1109 8.8594 10.2094 9.0469 10.1953 9.0469C10.1812 9.0469 10.0266 8.87815 10.0266 8.87815L9.84844 9.06565C9.84844 9.06565 10.0125 8.77034 9.99375 8.77034C9.975 8.77034 9.94687 8.66721 9.94687 8.66721L10.0781 8.61565C10.0781 8.61565 10.275 8.25002 10.275 8.26409C10.275 8.27815 9.67969 8.66721 9.67969 8.66721L10.4766 8.00159ZM10.6078 8.1094C10.5891 8.1094 10.6875 8.39065 10.7719 8.53127C10.8235 8.62652 10.8523 8.7324 10.8563 8.84065L11.1375 8.98127L10.7719 8.44221L11.0063 8.52659L10.6078 8.10471V8.1094ZM10.6078 8.84065C10.6078 8.84065 10.8047 9.05159 10.8234 9.1219C10.8422 9.19221 10.8375 9.3469 10.8375 9.3469L10.7578 9.17346L10.6406 9.33284C10.6406 9.33284 10.725 9.0844 10.7062 9.07034C10.6875 9.05627 10.575 9.15471 10.575 9.15471L10.6219 9.00002C10.6219 8.98596 10.6219 8.89221 10.6078 8.84065ZM9.60938 9.33284C9.675 9.27659 9.81094 9.23909 9.81094 9.23909C9.81094 9.23909 9.72656 9.37971 9.70781 9.37971C9.68906 9.37971 9.64219 9.37971 9.61406 9.33284H9.60938ZM11.8922 8.56409C11.8922 8.56409 12.3187 8.82659 12.3187 8.84534C12.3187 8.86409 12.0375 8.71877 12.0375 8.71877L11.8922 8.56409ZM11.1187 8.01565C11.1516 8.0344 11.7469 8.5219 11.7281 8.5219C11.7094 8.5219 11.4656 8.38127 11.4656 8.40002V8.5219L11.3344 8.24065L11.3016 8.34846L11.1187 8.02034V8.01565ZM11.2687 8.80315L11.4328 9.13127L11.5969 9.09846C11.5969 9.09846 11.2828 8.80315 11.2687 8.80315ZM11.7844 8.59221L11.7984 8.90627C11.7984 8.90627 11.8922 8.99534 11.8922 8.97659C11.8922 8.95784 11.7984 8.61096 11.7797 8.59221H11.7844Z" fill="#B7E1FF"/>
<path fill-rule="evenodd" clip-rule="evenodd" d="M6.92773 4.32183C6.92773 4.32183 7.67305 3.91401 8.52148 3.60464C9.14204 3.37738 9.78226 3.20791 10.434 3.09839C10.6871 3.09839 11.1137 3.72651 11.184 3.72651C11.259 3.72651 11.5449 3.55308 11.9012 3.55308C12.2574 3.55308 12.473 3.83433 12.548 3.83433H13.1902C13.2605 3.83433 12.9746 3.1312 13.1902 3.1687C13.298 3.18745 14.2121 3.32808 15.0605 3.59995C15.909 3.8812 17.1137 4.36401 17.1137 4.36401C17.1137 4.36401 15.1449 4.62651 14.6199 4.55151C14.5496 4.58433 14.6199 5.01089 14.5168 4.82339C14.3527 4.78589 13.748 4.69214 13.6402 4.69214C13.5324 4.69214 13.3355 4.81401 13.0496 4.87964C12.8329 4.93488 12.6172 4.99426 12.4027 5.05776L12.8715 5.78901L12.2949 6.07026C12.2949 6.07026 11.9387 5.2312 11.7934 5.2312C11.648 5.2312 11.5824 5.82651 11.3996 5.7937C11.2215 5.7562 11.1512 5.2312 11.0105 5.09058C10.8652 4.94995 10.1105 4.90308 9.82461 4.83276C9.53867 4.76245 9.07461 4.7062 8.82617 4.63589C8.57773 4.56558 8.32461 4.81401 8.2168 4.81401C8.10898 4.81401 8.35742 4.60308 8.2543 4.56558C8.15117 4.52808 8.07617 4.67339 8.00117 4.67339C7.93086 4.67339 7.18086 4.53276 7.11055 4.49526C7.03555 4.46245 7.28867 4.32183 7.21836 4.32183H6.93242H6.92773Z" fill="#984000"/>
<path fill-rule="evenodd" clip-rule="evenodd" d="M12.2434 3.96099C12.2434 4.15974 12.0841 4.32099 11.8884 4.32099C11.6927 4.32099 11.5342 4.15974 11.5342 3.96099C11.5342 3.76224 11.6927 3.60193 11.8884 3.60193C12.0841 3.60193 12.2434 3.76318 12.2434 3.96099Z" fill="#808080" stroke="#772600" stroke-width="0.0840173"/>
<path fill-rule="evenodd" clip-rule="evenodd" d="M10.4834 4.04067C10.5481 3.96642 10.6282 3.85392 10.8378 3.85392C10.8861 3.83479 10.8861 3.72229 10.9981 3.72229C11.1111 3.72229 11.0782 3.83479 11.1593 3.87304C11.2395 3.91017 11.899 3.83479 11.899 3.83479C11.899 3.83479 11.9627 3.89104 11.9627 3.96642C11.9627 4.04179 11.9145 4.09692 11.899 4.09692C11.8836 4.09692 11.2395 4.04067 11.1912 4.05979C11.1429 4.07892 11.1111 4.09692 10.9981 4.09692C10.8861 4.09692 10.8532 3.96642 10.7731 3.96642C10.6929 3.96642 10.6128 3.94729 10.4834 4.04179V4.04067Z" fill="#984000" stroke="#772600" stroke-width="0.147308"/>
<path d="M12.4455 4.00387H12.7024C12.7951 4.00499 12.8269 4.03762 12.9119 4.04099H13.1369C13.219 4.03762 13.2624 4.01512 13.3455 4.00387C13.4855 4.00162 13.4382 3.98924 13.4102 3.89137C13.3851 3.81824 13.3812 3.78337 13.3455 3.74174C13.3319 3.65174 13.301 3.62024 13.2972 3.51674C13.2827 3.43799 13.2557 3.38512 13.2817 3.29174C13.3184 3.35587 13.3329 3.38174 13.4266 3.38624C13.5231 3.38624 13.5608 3.38287 13.6197 3.42337C13.6641 3.47849 13.724 3.46049 13.8128 3.46049C13.8862 3.47624 13.8988 3.52012 13.9567 3.55387C14.0253 3.59887 14.0697 3.61012 14.1653 3.61012C14.2425 3.62699 14.3101 3.63937 14.3584 3.66637C14.3999 3.72374 14.4646 3.73837 14.5515 3.74174C14.5998 3.74174 14.6384 3.73612 14.68 3.72262C14.7543 3.72712 14.8296 3.72262 14.9214 3.72262C14.9812 3.80362 14.9948 3.83399 15.0981 3.83512C15.1695 3.89362 15.2294 3.90262 15.2912 3.92849H15.5326C15.6195 3.93637 15.6465 3.97799 15.7257 4.00387C15.7937 4.03963 15.8633 4.07081 15.9343 4.09724C16.0034 4.11182 16.0736 4.11823 16.1438 4.11637C16.2027 4.15237 16.2752 4.15462 16.3206 4.19062C16.3872 4.20749 16.478 4.22774 16.5291 4.24687C16.6141 4.26037 16.6469 4.29187 16.7223 4.30312C16.787 4.32562 16.701 4.34362 16.6576 4.35937C16.5629 4.35599 16.5562 4.31437 16.4644 4.30312C16.4162 4.27049 16.3428 4.27499 16.2713 4.24687H16.2559C16.3196 4.29187 16.3814 4.31999 16.3524 4.39762C16.2703 4.39762 16.2037 4.38524 16.1274 4.37849C16.0463 4.36049 16.0096 4.34137 15.9189 4.34137C16.0096 4.31549 16.0328 4.34362 16.0956 4.37849C16.1187 4.46849 16.0685 4.43474 15.9826 4.43474C15.9092 4.40437 15.8648 4.36724 15.774 4.35937H15.5809C15.6765 4.36387 15.6968 4.40549 15.7576 4.45387C15.7624 4.48312 15.7566 4.48087 15.7093 4.49099C15.6591 4.44037 15.5944 4.42349 15.5162 4.39762C15.4399 4.39424 15.3598 4.38637 15.2912 4.35937C15.2439 4.35599 15.2516 4.29074 15.3559 4.39762C15.4187 4.44037 15.4409 4.47637 15.436 4.51012C15.353 4.48537 15.3124 4.44712 15.2593 4.41562C15.1871 4.38643 15.1107 4.37382 15.0343 4.37849C14.9513 4.35262 15.043 4.33799 15.0981 4.43474C15.2178 4.53374 15.0826 4.49099 15.0343 4.47187C14.9619 4.44824 14.8866 4.41337 14.8248 4.39762C14.7765 4.38074 14.734 4.36499 14.68 4.35937C14.764 4.36837 14.792 4.40324 14.8248 4.47187C14.9098 4.53937 14.8209 4.50674 14.7447 4.49099C14.6964 4.44149 14.6336 4.41562 14.5998 4.35937C14.5197 4.31324 14.5168 4.25812 14.5679 4.37849C14.5805 4.41674 14.5776 4.49999 14.5834 4.51012C14.5245 4.43474 14.537 4.41562 14.4714 4.41562C14.426 4.37962 14.3603 4.35149 14.3265 4.30312C14.2647 4.29637 14.2609 4.27049 14.1981 4.24687C14.2493 4.31774 14.3178 4.38749 14.3584 4.45387C14.4318 4.50112 14.4521 4.54387 14.5032 4.58437C14.5235 4.62599 14.5805 4.65974 14.5197 4.60349C14.4501 4.52474 14.399 4.50562 14.2947 4.45387C14.2348 4.39762 14.2136 4.37512 14.1498 4.32224C14.0629 4.28962 14.0967 4.27162 14.1498 4.37849C14.2107 4.44374 14.257 4.51574 14.3101 4.56637C14.3518 4.62433 14.4006 4.67475 14.455 4.71599C14.4695 4.74074 14.5129 4.74524 14.455 4.75312C14.4067 4.70137 14.3352 4.66874 14.2783 4.62149C14.1981 4.59562 14.1605 4.54724 14.1015 4.49099C14.0629 4.42462 14.0011 4.37399 13.9567 4.32224C13.864 4.27949 13.9751 4.36274 14.005 4.41562C14.0253 4.48424 14.0513 4.53937 14.0687 4.60349C14.0958 4.66537 13.9876 4.58887 13.9567 4.56637C13.8932 4.51841 13.8218 4.48624 13.7472 4.47187C13.6832 4.45694 13.6188 4.44456 13.554 4.43474C13.4816 4.41224 13.5936 4.48874 13.6352 4.56637C13.7163 4.65524 13.555 4.58212 13.5067 4.56637C13.427 4.55059 13.3461 4.54418 13.2653 4.54724C13.162 4.55399 13.2363 4.56974 13.2653 4.62149C13.2972 4.65074 13.3194 4.71149 13.3136 4.73399C13.246 4.72274 13.1881 4.70024 13.1041 4.69687C13.0365 4.72274 12.9563 4.71599 12.8791 4.71599C12.8762 4.76324 12.8936 4.72274 12.9273 4.77224C12.9834 4.79812 13.02 4.82962 13.0085 4.86562H12.5421C12.4909 4.88137 12.5527 4.87349 12.5903 4.94099C12.5691 5.00174 12.5421 4.97812 12.4774 4.97812C12.4339 4.95787 12.346 4.94887 12.3007 4.92187C12.2553 4.92187 12.2591 4.90837 12.2205 4.90274C12.3557 5.01524 12.2881 4.98712 12.3654 5.07149C12.3779 5.07712 12.4088 5.09062 12.3808 5.09062M11.3196 5.69024C11.3099 5.69024 11.2887 5.62949 11.2559 5.57774C11.2327 5.51024 11.2037 5.54849 11.1747 5.44612C11.1786 5.34037 11.1815 5.32237 11.1747 5.22112C11.1091 5.16712 11.0811 5.15137 11.0299 5.05237C10.9488 4.97362 11.0424 4.83862 11.0579 4.73962C10.9864 4.72162 10.9517 4.86899 10.8426 4.92187C10.7634 4.98374 10.8329 4.79362 10.7943 4.68337C10.7682 4.52699 10.69 4.76212 10.661 4.82849C10.6079 4.87012 10.5915 4.92412 10.5162 4.84649C10.5162 4.78912 10.5635 4.62712 10.5432 4.59562C10.4679 4.63949 10.3694 4.76999 10.2912 4.79024C10.212 4.77112 10.3076 4.62374 10.3076 4.51462C10.2786 4.50337 10.1657 4.80487 10.1193 4.80712C10.073 4.80937 10.0932 4.51462 10.071 4.52137C10.0372 4.57762 9.96867 4.69462 9.92136 4.73512C9.82962 4.72049 9.93488 4.53824 9.9484 4.47074C9.96385 4.38974 9.86246 4.62599 9.80838 4.64062C9.76879 4.68112 9.69057 4.70812 9.66354 4.71599C9.69444 4.64624 9.84701 4.50562 9.83735 4.46512C9.74755 4.46849 9.61139 4.60574 9.53511 4.62262C9.4849 4.62262 9.41537 4.64174 9.40668 4.64062C9.41054 4.55062 9.59401 4.47637 9.62298 4.42124C9.53318 4.43812 9.36033 4.53037 9.31012 4.60349C9.25025 4.61812 9.17493 4.63724 9.11699 4.60349C9.12568 4.51912 9.26087 4.35599 9.29081 4.30199C9.20873 4.34362 9.16817 4.37624 9.08127 4.39537C9.06485 4.41449 9.0185 4.45499 9.03298 4.41449C9.05906 4.33574 9.09768 4.30199 9.12955 4.24574C9.05712 4.26149 9.03009 4.30987 8.95284 4.35824C8.90359 4.36049 8.76261 4.52587 8.71529 4.52812C8.63521 4.60166 8.54173 4.65285 8.44202 4.67774C8.36863 4.69349 8.33291 4.71149 8.29718 4.75312C8.33387 4.67774 8.38988 4.60687 8.44202 4.56637C8.47385 4.49808 8.52505 4.44479 8.58687 4.41562C8.60521 4.38974 8.65542 4.38299 8.60232 4.37849C8.55693 4.42574 8.47968 4.47974 8.44202 4.51012C8.39277 4.54612 8.3358 4.58212 8.31263 4.56637C8.3387 4.48537 8.38505 4.46512 8.42561 4.39762C8.51058 4.33462 8.42561 4.37512 8.36091 4.39762C8.31939 4.44037 8.24503 4.47299 8.1842 4.51012C8.11661 4.53037 8.07122 4.57762 7.99107 4.60349C7.99107 4.63049 8.01425 4.55512 8.02391 4.52812C8.08957 4.44487 8.10695 4.42124 8.1842 4.39762C8.20351 4.36499 8.22669 4.37849 8.16875 4.37849C8.12433 4.42349 8.06446 4.44824 8.00749 4.49099C7.95052 4.50562 7.87617 4.51012 7.79892 4.51012C7.69849 4.52362 7.70718 4.53262 7.79892 4.47187C7.85009 4.41562 7.89258 4.43024 7.89548 4.35937C7.83464 4.41112 7.76029 4.44937 7.68594 4.49099C7.62414 4.49324 7.60772 4.51012 7.54109 4.51012C7.57296 4.47187 7.59227 4.42349 7.63766 4.39762C7.70525 4.31099 7.59517 4.38074 7.57296 4.39762H7.33155C7.28907 4.46062 7.32962 4.39762 7.36438 4.35937C7.40591 4.33462 7.44936 4.30199 7.44453 4.28512C7.39625 4.33349 7.34121 4.35599 7.29969 4.39762C7.25527 4.41337 7.20312 4.42012 7.20312 4.43474C7.23885 4.37512 7.29583 4.33799 7.33252 4.28512C7.38659 4.27162 7.43294 4.25137 7.44453 4.22887H7.21954H7.37983C7.46191 4.22887 7.53144 4.21987 7.60579 4.20974C7.73325 4.18499 7.5942 4.17262 7.52468 4.17262C7.51212 4.14337 7.56523 4.12762 7.62124 4.11637C7.66952 4.08937 7.73036 4.06574 7.7825 4.04099C7.82853 4.02466 7.87192 3.99957 7.91093 3.96674C7.86265 3.96899 7.86265 3.98249 7.81437 3.98474C7.88679 3.97912 7.93797 3.96674 8.02391 3.96674C8.09468 3.93956 8.16429 3.9084 8.23248 3.87337C8.26145 3.83287 8.27304 3.83512 8.20062 3.83512C8.26531 3.81149 8.35705 3.79912 8.40919 3.77887C8.47575 3.76262 8.54053 3.73772 8.60232 3.70462C8.64963 3.66749 8.67667 3.62362 8.73074 3.59212C8.79351 3.64162 8.79447 3.64837 8.90745 3.64837C8.99822 3.64724 9.05423 3.62137 9.10058 3.57299C9.1701 3.55049 9.18266 3.51224 9.26184 3.49874C9.33624 3.51236 9.41152 3.51838 9.48683 3.51674C9.56408 3.49312 9.63843 3.44924 9.6954 3.40424C9.74465 3.37612 9.80355 3.33562 9.85666 3.31087C9.9146 3.34574 9.96095 3.37387 10.0334 3.38624C10.1077 3.37274 10.1473 3.32999 10.2101 3.31087C10.2488 3.26286 10.2995 3.23021 10.3549 3.21749C10.4486 3.16349 10.4418 3.23437 10.4834 3.29174C10.5316 3.35024 10.5934 3.32212 10.6601 3.34799C10.6977 3.41549 10.7248 3.46049 10.773 3.49762C10.8107 3.55162 10.8551 3.56512 10.9343 3.57299C10.9633 3.61799 10.9401 3.64949 10.998 3.66637C11.0212 3.69562 11.0608 3.70687 11.0946 3.72262" stroke="#772600" stroke-width="0.0972786"/>
<path d="M12.2606 5.21213V5.22113C12.2606 5.19526 12.2606 5.20988 12.277 5.25938C12.2828 5.29988 12.2692 5.29538 12.2528 5.32463C12.2499 5.36626 12.2451 5.39663 12.2451 5.44613C12.2393 5.48663 12.22 5.52488 12.2046 5.55863C12.1891 5.59351 12.1225 5.61376 12.1244 5.66213C12.0858 5.67451 12.0848 5.64526 12.0838 5.59576C12.0607 5.56538 12.0529 5.52376 12.0356 5.48326C12.0259 5.44501 12.0027 5.41576 11.9873 5.37076C11.9641 5.32913 11.9438 5.31676 11.9236 5.26838C11.9149 5.24588 11.9168 5.21663 11.8994 5.20313C11.8733 5.16376 11.856 5.15813 11.8106 5.15588C11.7758 5.16488 11.7623 5.18288 11.7304 5.19301C11.7053 5.20313 11.657 5.19976 11.6261 5.21213C11.6184 5.22676 11.6416 5.23463 11.6503 5.26838C11.629 5.28863 11.6213 5.32351 11.6097 5.35276C11.5904 5.38088 11.5779 5.39438 11.5692 5.43713C11.5827 5.46301 11.5711 5.49788 11.5537 5.52151C11.5479 5.56426 11.5296 5.58788 11.5209 5.62388C11.4958 5.64526 11.4861 5.66438 11.4649 5.69926C11.4465 5.72963 11.4301 5.72738 11.3847 5.72738C11.349 5.71613 11.3442 5.69363 11.3123 5.68013C11.3094 5.66888 11.3065 5.66551 11.2959 5.66213" stroke="#782600" stroke-width="0.086161"/>
<path fill-rule="evenodd" clip-rule="evenodd" d="M11.3533 5.59685C11.3533 5.59685 11.3393 5.77029 11.2268 5.88748C11.1143 6.00466 10.8799 6.1406 10.8799 6.1406C10.8799 6.1406 11.1939 5.99529 11.2268 6.02341C11.2596 6.05623 11.0252 6.31873 11.0252 6.31873C11.0252 6.31873 11.3299 6.04216 11.3721 6.04216C11.4143 6.04216 11.4986 6.30935 11.5314 6.30466C11.5643 6.29998 11.4611 5.96716 11.4752 5.9156C11.4893 5.86404 11.4752 5.58748 11.4752 5.58748L11.3533 5.59685ZM12.0799 5.57341C12.0799 5.57341 12.0658 5.76091 11.9486 5.88279C11.8314 6.00466 11.6018 6.15466 11.6018 6.15466C11.6018 6.15466 11.9205 5.99529 11.9486 6.03279C11.9814 6.0656 11.7471 6.34216 11.7471 6.34216C11.7471 6.34216 12.0564 6.05154 12.0939 6.05154C12.1314 6.05154 12.2252 6.33279 12.258 6.33279C12.2908 6.32341 12.183 5.96716 12.2018 5.91091C12.2158 5.85935 12.2018 5.55935 12.2018 5.55935L12.0799 5.57341ZM11.0627 3.87185C11.0627 3.90935 11.0299 3.93748 10.9877 3.93748C10.9455 3.93748 10.9127 3.90935 10.9127 3.87185C10.9127 3.83435 10.9455 3.81091 10.9877 3.81091C11.0299 3.81091 11.0627 3.83904 11.0627 3.87185Z" fill="#812E00"/>
</g>
<defs>
<clipPath id="clip0_208_18966">
<rect width="24" height="24" rx="12" fill="white"/>
</clipPath>
</defs>
</svg>
