<svg width="24" height="24" viewBox="0 0 24 24" fill="none" xmlns="http://www.w3.org/2000/svg">
<g clip-path="url(#clip0_208_27690)">
<mask id="mask0_208_27690" style="mask-type:luminance" maskUnits="userSpaceOnUse" x="-1" y="0" width="25" height="24">
<path d="M-0.00195312 0H23.9944V23.9963H-0.00195312V0Z" fill="white"/>
</mask>
<g mask="url(#mask0_208_27690)">
<path fill-rule="evenodd" clip-rule="evenodd" d="M-12 0H23.9945V23.9963H-12V0Z" fill="#198A00"/>
<path fill-rule="evenodd" clip-rule="evenodd" d="M19.7753 8.62134H23.9941V23.9964H19.7705L19.7753 8.62134Z" fill="#EF7D00"/>
<path fill-rule="evenodd" clip-rule="evenodd" d="M15.5566 8.61157H19.7753V23.9963H15.5566V8.61157Z" fill="black"/>
<path fill-rule="evenodd" clip-rule="evenodd" d="M11.2461 8.62598H15.5519V23.9962H11.2461V8.62598Z" fill="#DE2010"/>
<path fill-rule="evenodd" clip-rule="evenodd" d="M21.1691 3.07201C21.1691 3.07201 22.7608 2.3947 22.9108 2.25439C22.9833 2.33664 22.277 3.19296 20.903 3.51227C22.1512 3.21231 23.2155 2.28826 23.4284 2.31729C23.4913 2.3318 23.4768 3.22199 20.6224 3.99123C22.5963 3.47356 23.7477 2.52048 23.7332 2.62692C23.7477 2.64627 23.5397 3.3768 21.8077 3.94285C22.2915 3.83157 23.5977 3.03331 23.5832 3.18812C23.6268 3.25102 22.3157 4.92979 19.9499 4.3831C21.8367 4.87657 23.0656 3.69127 23.2397 3.71062C23.2784 3.7203 22.8914 4.74595 20.5111 4.80884C21.6529 4.69273 21.3239 4.804 21.3239 4.804C21.3239 4.804 20.6466 5.33134 19.8386 4.97333C20.4773 5.1475 20.545 5.15234 20.5595 5.21039C20.516 5.27813 19.9935 5.38456 19.4855 5.11363C19.8919 5.27813 20.2595 5.30715 20.2644 5.37005C20.1929 5.42074 20.11 5.45301 20.0231 5.46398C19.9362 5.47495 19.8479 5.46429 19.7661 5.43294C19.5387 5.33134 17.4051 4.02025 17.4051 4.02025L21.0336 3.02363L21.1691 3.07201ZM16.902 6.61824C16.8619 6.61352 16.8213 6.6172 16.7828 6.62905C16.7442 6.6409 16.7085 6.66066 16.678 6.68706C16.6475 6.71346 16.6229 6.74593 16.6056 6.78239C16.5884 6.81886 16.5789 6.85852 16.5779 6.89885C16.5779 6.89885 16.5488 6.92303 16.5682 7.0585C16.5902 7.0159 16.6161 6.97541 16.6456 6.93755C16.6794 6.93755 16.8294 6.98593 17.0568 6.80692C16.8488 7.02463 16.9746 7.10688 16.9746 7.10688C16.9746 7.10688 16.9262 7.28104 17.0858 7.31491C17.0375 7.24234 17.0665 7.18429 17.0665 7.18429C17.0665 7.18429 17.289 7.1601 17.2745 6.88433C17.2842 7.13107 17.4197 7.19396 17.4197 7.19396C17.4197 7.19396 17.4197 7.32942 17.5648 7.3391C17.4874 7.27137 17.5019 7.16493 17.5019 7.16493C17.5019 7.16493 17.6954 7.02463 17.5309 6.79241C17.6277 6.73919 17.7099 6.58438 17.7099 6.58438C17.7099 6.58438 17.5745 6.52632 17.5164 6.47794C17.4874 6.41989 17.5164 6.08123 17.5164 6.08123L17.4342 5.64581L17.2068 6.32313C17.2165 6.22637 17.2213 6.6134 16.902 6.6134V6.61824Z" fill="#EF7D00" stroke="black" stroke-width="0.116111" stroke-linejoin="round"/>
<path fill-rule="evenodd" clip-rule="evenodd" d="M18.479 5.63615C18.4839 5.64582 18.7209 5.90223 18.9435 5.88772C19.0257 5.81999 18.7645 5.66517 18.7645 5.63131C18.8612 5.71355 19.2434 6.04253 19.4902 5.92159C19.5869 5.78612 19.3112 5.80547 19.0112 5.42811C19.2192 5.56841 19.7466 5.87804 19.9933 5.75709C20.0949 5.64582 19.4466 5.29265 19.2289 5.02172L18.6677 4.73145L17.9033 5.36038L18.479 5.63615Z" fill="#EF7D00" stroke="black" stroke-width="0.116111" stroke-linejoin="round"/>
<path fill-rule="evenodd" clip-rule="evenodd" d="M17.6182 3.50738C17.6182 3.50738 17.8794 3.35257 18.9147 3.42998C19.026 3.44449 19.6211 3.22678 19.8098 3.16389C20.1097 3.11067 21.0676 2.8978 21.3289 2.70428C21.5127 2.68009 21.2805 3.04294 21.0483 3.12518C20.8064 3.23646 19.9162 3.54609 19.5969 3.50254C19.9791 3.50738 19.7662 3.81701 19.1373 3.66704C19.4372 3.83636 19.3308 3.86539 19.3308 3.86539C19.3308 3.86539 18.7986 3.89442 18.6535 3.77347C19.0115 3.90893 18.8664 3.95731 18.8664 3.95731C18.8664 3.95731 18.4987 3.99118 18.3342 3.91377C18.5906 3.99118 18.46 4.03956 18.46 4.03956C18.46 4.03956 18.2471 4.07343 18.0729 4.01053C17.8988 3.94764 17.6327 3.50738 17.6182 3.50738Z" fill="#EF7D00" stroke="black" stroke-width="0.116111" stroke-linecap="round" stroke-linejoin="round"/>
<path fill-rule="evenodd" clip-rule="evenodd" d="M18.0342 5.78131L18.0729 6.46831L18.0342 6.52152C18.0148 6.54571 17.5504 6.44895 17.6133 6.8118C17.6133 6.95694 17.6133 6.99081 17.71 7.07305C17.6858 6.97629 17.6955 6.90856 17.6955 6.90856C17.6955 6.90856 17.8261 6.99081 17.9568 6.7731C17.8697 6.98597 17.9326 7.06338 17.9519 7.06338C17.9713 7.10692 17.9181 7.28108 18.0922 7.27625C18.0245 7.21335 18.0584 7.11659 18.0584 7.11659C18.0584 7.11659 18.2422 7.08757 18.1745 6.75375C18.2422 6.68602 18.2712 6.75375 18.2712 6.75375C18.2712 6.75375 18.2906 6.94727 18.4502 6.90856C18.5228 6.9521 18.4406 7.05854 18.4406 7.05854C18.4406 7.05854 18.5567 7.05854 18.5905 6.96178C18.6292 6.86502 18.668 6.68601 18.4744 6.61345C18.4502 6.54088 18.5518 6.53604 18.5518 6.53604C18.5518 6.53604 18.6728 6.57474 18.7115 6.63764C18.7454 6.70053 18.7308 6.47798 18.5809 6.45379C18.3922 6.44895 18.3825 6.40541 18.3825 6.40058L18.3341 5.76196L18.0342 5.78131Z" fill="#EF7D00" stroke="black" stroke-width="0.116111" stroke-linejoin="round"/>
<path fill-rule="evenodd" clip-rule="evenodd" d="M18.6874 6.36671C18.6874 6.33285 18.3681 5.90227 18.4455 5.84421C18.5278 5.86357 18.6633 6.06192 18.7697 5.99419C18.7407 5.91678 18.6439 5.96032 18.5278 5.76681C18.4214 5.54426 18.4068 5.21044 18.0198 4.84759C18.2714 5.23463 18.8374 5.45718 18.8616 5.34107C18.8858 5.22495 18.3633 4.80889 18.3875 4.70245C18.4891 4.91532 19.0164 5.37977 19.4035 5.3459C19.4277 5.25398 19.0842 5.07014 18.9971 4.90081C18.7552 4.73632 18.0924 4.16544 18.0779 4.03481C17.9634 3.8368 17.8064 3.66661 17.6183 3.5365C17.5892 3.50748 17.5844 3.47361 17.5795 3.45426C17.4296 3.10592 17.6279 2.98981 17.744 2.97046C17.8408 2.96562 17.865 2.9753 17.9376 2.94627L17.6908 2.84951C17.7973 2.92692 18.0682 2.85919 18.0053 3.08173C18.1262 3.03819 18.3778 2.74308 17.7198 2.67051C17.507 2.42861 16.6313 2.28347 16.4136 3.35266C16.4281 3.36717 16.4378 3.38169 16.4958 3.42523C16.2152 3.28977 15.4702 3.18333 15.1993 3.14463C14.4736 2.93176 13.7188 2.42861 13.6463 2.48666C13.5495 2.53504 14.0817 3.03335 14.0575 3.04303C13.5882 2.7721 13.1673 2.57859 12.7706 2.40442C12.49 2.29798 12.2142 2.05608 12.1804 2.10446C12.0836 2.31733 12.6303 2.84951 12.7319 2.91241C12.8287 2.97046 13.6366 3.34782 13.6221 3.34782C12.4126 2.80113 12.2094 2.69953 12.1513 2.63664C12.0449 2.61245 11.7837 2.26412 11.7159 2.28347C11.6724 2.32217 11.7498 2.87854 12.3304 3.12528C12.4271 3.19301 13.564 3.60907 13.5544 3.6381L12.1949 3.0769C11.9433 2.98014 11.6337 2.6318 11.5756 2.67051C11.5224 2.70921 11.7208 3.08173 11.9723 3.20268C12.1078 3.26074 12.6158 3.51231 13.0802 3.67197C13.1093 3.68648 12.2529 3.34782 11.8369 3.17366C11.653 3.0769 11.5611 2.94143 11.5369 2.97046C11.4885 2.99949 11.6047 3.55102 12.9303 3.86548C12.9641 3.88 13.3947 3.76389 13.3754 3.7784C13.1304 3.83928 12.8814 3.88293 12.6303 3.90903C12.6158 3.94773 12.7126 4.14609 13.3995 4.10255C13.4866 4.10255 13.9607 3.93322 13.922 3.96708C13.9027 3.98643 13.2738 4.18963 13.2254 4.19447C13.1867 4.19447 12.9641 4.22349 12.9593 4.24285C12.9496 4.27671 13.1189 4.41701 13.4915 4.43636C13.8156 4.45572 14.43 4.24285 14.4204 4.25736C14.4058 4.27187 13.8253 4.47023 13.8059 4.47991C13.7866 4.49442 13.5737 4.5041 13.564 4.52345C13.5495 4.56215 13.8737 4.86694 14.8364 4.5428C14.7397 4.67343 14.2752 4.76051 14.2752 4.7847C14.2752 4.80405 14.3768 4.90565 14.5413 4.93951C14.6235 4.95887 14.7348 4.95403 14.8316 4.93951C15.0705 4.89252 15.2897 4.77449 15.4605 4.60086C15.4847 4.67343 14.8461 5.00241 14.8751 5.03144C15.0154 5.16206 15.475 5.01208 15.5041 4.99757C15.8158 4.8328 16.115 4.64522 16.3991 4.43636C16.4136 4.50893 15.2863 5.12336 15.3009 5.14755C15.3734 5.25882 15.7605 5.13787 15.775 5.12819L16.2781 4.85727C16.2926 4.84759 15.7266 5.19109 15.775 5.24431C15.7508 5.46201 16.6603 5.08949 16.7329 5.04111C16.7668 5.01692 16.2975 5.24914 16.2975 5.36042C16.4426 5.61683 16.9361 5.53458 17.0087 5.47653C17.0474 5.45234 16.9603 5.67005 16.9893 5.6507C17.0478 5.59075 17.0967 5.52222 17.1345 5.4475C17.1248 5.52007 17.0667 5.63134 17.0377 5.76197C17.0087 5.89259 16.999 6.04257 16.9554 6.19739C16.9458 6.26512 17.2554 6.06192 17.2119 5.57813C17.2361 5.8297 17.1151 6.30382 17.1441 6.32317C17.2119 6.37155 17.386 6.09095 17.4102 5.89743C17.4586 5.99419 17.5747 6.19739 17.6715 6.24577C17.6618 6.10063 17.6715 6.10063 17.6279 5.96032C17.6521 5.76681 17.657 5.50556 17.6618 5.2056C17.9279 5.70875 18.0295 5.92162 17.9569 6.30866C18.0343 6.34252 18.1601 6.03773 18.1504 5.88292C18.2472 6.31833 18.6826 6.38123 18.6923 6.36671H18.6874Z" fill="#EF7D00" stroke="black" stroke-width="0.129012" stroke-linecap="round" stroke-linejoin="round"/>
<path fill-rule="evenodd" clip-rule="evenodd" d="M14.3137 3.17358C14.3137 3.17358 14.1347 3.30905 13.9121 3.29937C13.9653 3.52192 14.4298 3.35259 14.4298 3.35259C14.4298 3.35259 14.2072 3.59933 14.0427 3.64287C14.1395 3.71544 14.541 3.69125 14.6088 3.65254C14.6765 3.609 14.7975 3.45902 14.7975 3.45902C14.7975 3.45902 14.3862 3.93315 14.3233 3.92831C14.3185 3.98152 14.7588 3.96217 14.8507 3.87993C14.9426 3.79768 15.17 3.67189 15.17 3.67189C15.17 3.67189 14.5652 4.0928 14.541 4.0928C14.7636 4.15569 15.2184 4.02507 15.5086 3.84606C15.0781 4.1315 15.0394 4.18472 14.8216 4.28148C15.0152 4.32018 15.1119 4.45081 15.7747 4.16537C16.1521 3.98636 16.365 3.66222 16.365 3.66222C16.0775 3.99946 15.7338 4.28428 15.349 4.50403C15.3296 4.55241 15.7892 4.74592 16.3795 4.13634" fill="#EF7D00"/>
<path d="M14.3137 3.17358C14.3137 3.17358 14.1347 3.30905 13.9121 3.29937C13.9653 3.52192 14.4298 3.35259 14.4298 3.35259C14.4298 3.35259 14.2072 3.59933 14.0427 3.64287C14.1395 3.71544 14.541 3.69125 14.6088 3.65254C14.6765 3.609 14.7975 3.45902 14.7975 3.45902C14.7975 3.45902 14.3862 3.93315 14.3233 3.92831C14.3185 3.98152 14.7588 3.96217 14.8507 3.87993C14.9426 3.79768 15.17 3.67189 15.17 3.67189C15.17 3.67189 14.5652 4.0928 14.541 4.0928C14.7636 4.15569 15.2184 4.02507 15.5086 3.84606C15.0781 4.1315 15.0394 4.18472 14.8216 4.28148C15.0152 4.32018 15.1119 4.45081 15.7747 4.16537C16.1521 3.98636 16.365 3.66222 16.365 3.66222C16.0775 3.99946 15.7338 4.28428 15.349 4.50403C15.3296 4.55241 15.7892 4.74592 16.3795 4.13634" stroke="black" stroke-width="0.129012" stroke-linecap="round" stroke-linejoin="round"/>
<path fill-rule="evenodd" clip-rule="evenodd" d="M17.5065 4.49924C17.5065 4.49924 17.5452 4.68792 17.7001 4.82822C17.8597 4.97336 17.8742 5.11366 17.8742 5.11366M17.4243 3.28491C17.4243 3.28491 17.4823 3.45424 17.642 3.56068C17.8165 3.70051 17.9641 3.87102 18.0774 4.06382C18.1274 4.27751 18.1645 4.494 18.1887 4.71211M16.4132 3.54132C16.4228 3.60906 16.1809 3.92836 16.5148 4.30572C16.21 4.67825 16.21 4.72663 16.21 4.72663C16.21 4.72663 16.3793 4.82339 16.6889 4.5573C17.1921 5.17656 17.0276 5.462 17.0276 5.462" fill="#EF7D00"/>
<path d="M17.5065 4.49924C17.5065 4.49924 17.5452 4.68792 17.7001 4.82822C17.8597 4.97336 17.8742 5.11366 17.8742 5.11366M17.4243 3.28491C17.4243 3.28491 17.4823 3.45424 17.642 3.56068C17.8165 3.70051 17.9641 3.87102 18.0774 4.06382C18.1274 4.27751 18.1645 4.494 18.1887 4.71211M16.4132 3.54132C16.4228 3.60906 16.1809 3.92836 16.5148 4.30572C16.21 4.67825 16.21 4.72663 16.21 4.72663C16.21 4.72663 16.3793 4.82339 16.6889 4.5573C17.1921 5.17656 17.0276 5.462 17.0276 5.462" stroke="black" stroke-width="0.129012" stroke-linecap="round"/>
<path fill-rule="evenodd" clip-rule="evenodd" d="M16.9793 5.02663C16.9793 5.02663 16.9357 4.95889 17.018 4.71216C17.0954 4.79924 17.1776 4.81859 17.2115 4.8573C17.2454 4.896 17.6324 4.94922 17.6566 5.20079" fill="#EF7D00"/>
<path d="M16.9793 5.02663C16.9793 5.02663 16.9357 4.95889 17.018 4.71216C17.0954 4.79924 17.1776 4.81859 17.2115 4.8573C17.2454 4.896 17.6324 4.94922 17.6566 5.20079" stroke="black" stroke-width="0.129012" stroke-linecap="round" stroke-linejoin="round"/>
<path fill-rule="evenodd" clip-rule="evenodd" d="M17.4293 2.69469C17.4293 2.67534 17.3518 2.51085 17.0664 2.71405C17.2212 2.72372 17.3712 2.81081 17.4293 2.69469Z" fill="#EF7D00" stroke="black" stroke-width="0.129012"/>
<path fill-rule="evenodd" clip-rule="evenodd" d="M20.158 3.44458C20.1725 3.45426 21.0143 3.6381 21.2949 3.54134C20.9369 4.0203 20.2209 3.69615 20.2209 3.69615C20.5741 3.80259 20.5886 3.79291 20.6999 3.88967C20.7337 3.98643 20.0564 3.94289 19.829 3.8171C20.458 4.01062 20.4676 4.00095 20.487 4.07352C20.516 4.17995 19.471 4.04933 19.3742 3.90903C19.6549 4.12673 19.8097 4.16544 19.9645 4.26703C19.771 4.34928 19.4226 4.43153 18.7792 3.97676C19.6258 4.75083 20.3902 4.70245 20.5112 4.83792C20.2161 5.27333 19.0743 4.5815 18.547 4.22833C18.0245 3.88 19.6984 5.07498 19.8532 5.05562C19.7758 5.17657 19.2243 5.07014 19.1856 5.01208" fill="#EF7D00"/>
<path d="M20.158 3.44458C20.1725 3.45426 21.0143 3.6381 21.2949 3.54134C20.9369 4.0203 20.2209 3.69615 20.2209 3.69615C20.5741 3.80259 20.5886 3.79291 20.6999 3.88967C20.7337 3.98643 20.0564 3.94289 19.829 3.8171C20.458 4.01062 20.4676 4.00095 20.487 4.07352C20.516 4.17995 19.471 4.04933 19.3742 3.90903C19.6549 4.12673 19.8097 4.16544 19.9645 4.26703C19.771 4.34928 19.4226 4.43153 18.7792 3.97676C19.6258 4.75083 20.3902 4.70245 20.5112 4.83792C20.2161 5.27333 19.0743 4.5815 18.547 4.22833C18.0245 3.88 19.6984 5.07498 19.8532 5.05562C19.7758 5.17657 19.2243 5.07014 19.1856 5.01208" stroke="black" stroke-width="0.129012" stroke-linejoin="round"/>
<path fill-rule="evenodd" clip-rule="evenodd" d="M20.3758 4.25244C20.2791 4.26696 19.9888 4.26696 19.9404 4.25728L20.3758 4.25244Z" fill="#EF7D00"/>
<path d="M20.3758 4.25244C20.2791 4.26696 19.9888 4.26696 19.9404 4.25728" stroke="black" stroke-width="0.129012" stroke-linecap="round"/>
<path fill-rule="evenodd" clip-rule="evenodd" d="M14.0674 3.04785C14.0674 3.04785 14.706 3.38651 14.9769 3.36232C14.9044 3.43005 14.7979 3.45908 14.7979 3.45908C14.8656 3.48327 15.0495 3.58487 15.3301 3.51713C15.2672 3.58487 15.1801 3.66227 15.1801 3.66227C15.1801 3.66227 15.422 3.75419 15.6929 3.61389C15.6464 3.66966 15.6028 3.7278 15.5623 3.78806L15.7558 3.80257" fill="#EF7D00"/>
<path d="M14.0674 3.04785C14.0674 3.04785 14.706 3.38651 14.9769 3.36232C14.9044 3.43005 14.7979 3.45908 14.7979 3.45908C14.8656 3.48327 15.0495 3.58487 15.3301 3.51713C15.2672 3.58487 15.1801 3.66227 15.1801 3.66227C15.1801 3.66227 15.422 3.75419 15.6929 3.61389C15.6464 3.66966 15.6028 3.7278 15.5623 3.78806L15.7558 3.80257" stroke="black" stroke-width="0.129012" stroke-linecap="round" stroke-linejoin="round"/>
</g>
</g>
<defs>
<clipPath id="clip0_208_27690">
<rect width="24" height="24" rx="12" fill="white"/>
</clipPath>
</defs>
</svg>
