<svg width="24" height="24" viewBox="0 0 24 24" fill="none" xmlns="http://www.w3.org/2000/svg">
<g clip-path="url(#clip0_208_8843)">
<path d="M24 24V0H0V24H24Z" fill="#000066"/>
<path d="M22.0824 10.2844C22.0824 12.9938 21.6512 15.9188 18.1262 17.3157C14.6199 15.9188 14.1887 12.9938 14.1699 10.2844H22.0824Z" fill="#8FC5FF" stroke="white" stroke-width="0.443326"/>
<path d="M18.1262 17.2968C19.4618 16.8299 20.5762 15.8826 21.2527 14.639H20.9199C20.8215 14.625 17.5449 14.3109 17.1465 14.1422C16.8184 14.025 15.5152 14.2593 14.9199 14.4703C15.5766 15.7975 16.7279 16.8141 18.1262 17.3015V17.2968Z" fill="#366CC9" stroke="black" stroke-width="0.443326"/>
<path d="M15.6654 15.6376H15.867C15.9139 15.6376 15.9139 15.6376 15.9326 15.5907C15.9514 15.5391 15.9982 15.5532 16.0311 15.5719C16.0639 15.586 16.1342 15.5719 16.167 15.5391C16.1998 15.5063 16.1998 15.5063 16.2326 15.5391C16.2654 15.5719 16.2795 15.5532 16.317 15.5391C16.3311 15.5391 16.3967 15.5063 16.4107 15.4547C16.4295 15.4079 16.4811 15.3891 16.4998 15.4219C16.5139 15.4547 16.5467 15.4547 16.5795 15.4547C16.617 15.4547 16.617 15.4735 16.617 15.5204C16.617 15.5532 16.617 15.5672 16.6967 15.5063C16.7623 15.5719 16.7811 15.5391 16.7811 15.4735C16.7811 15.4032 16.7811 15.1407 16.7482 15.1219C16.7154 15.1079 16.7014 14.9907 16.6826 14.9063C16.6826 14.7422 16.6826 14.7422 16.5139 14.6579C16.5139 14.611 16.4811 14.5922 16.3498 14.5922C16.3639 14.5735 16.3498 14.5219 16.317 14.5079C16.2842 14.4891 16.2842 14.4751 16.317 14.4094C16.3498 14.4094 16.4107 14.4094 16.4295 14.3579C16.467 14.3251 16.5654 14.3251 16.6311 14.3579C16.6967 14.3907 16.7623 14.3907 16.8795 14.3579L17.0811 14.2594C17.1654 14.2126 17.1795 14.1938 17.1795 14.1235C17.1795 13.9594 17.1326 13.7954 17.0951 13.711C17.0482 13.6266 17.0482 13.5422 16.9826 13.3922C16.9123 13.261 16.9123 13.2282 16.8467 13.1438C16.8139 13.111 16.7998 13.0969 16.7998 13.0454C16.795 12.9802 16.7647 12.9196 16.7154 12.8766C16.5795 12.7641 16.5467 12.3797 16.4811 12.0985C16.4482 11.9297 16.4811 11.5501 16.4154 11.4797C16.2982 11.4001 16.2467 11.4141 16.167 11.386C16.1014 11.2969 16.0826 11.1516 16.017 11.0016C15.9326 11.0157 15.8811 11.0954 15.8295 11.1329C15.7826 11.1657 15.7686 11.1657 15.7686 11.2501C15.7686 11.3157 15.717 11.4141 15.6514 11.5501C15.5857 11.6813 15.4357 11.6297 15.3186 11.8126C15.0842 11.5313 15.0842 11.4469 15.0701 11.3672C15.0701 11.2829 15.0186 11.2641 14.8826 11.1469V10.8985C14.7701 10.8188 14.7045 10.8329 14.6529 10.8985C14.6061 10.9454 14.5686 11.0344 14.4889 11.0672C14.4514 11.1329 14.3201 11.2641 14.2217 11.4469C14.3201 12.9469 14.6529 14.4422 15.6654 15.6376Z" fill="#5D3100" stroke="black" stroke-width="0.05"/>
<path d="M22.0824 10.2844C22.0824 9.25311 22.0355 8.25467 22.0496 7.39217C20.7991 6.90641 19.4676 6.66302 18.1262 6.67498C17.2449 6.67498 15.5152 6.81092 14.2027 7.39217C14.2355 8.25467 14.1699 9.25311 14.1699 10.2844H22.0824Z" fill="#FFFF00" stroke="white" stroke-width="0.443326"/>
<path d="M14.3906 11.461C14.4328 11.5313 14.5125 11.6485 14.5172 11.7141C14.5547 11.6532 14.5734 11.6204 14.5781 11.5875C14.5875 11.55 14.6344 11.4704 14.6156 11.4329C14.5922 11.3907 14.5875 11.3579 14.6344 11.386C14.6813 11.4188 14.6719 11.4704 14.6625 11.5454C14.6344 11.7563 14.5453 11.8032 14.5312 11.9485C14.6578 12.2438 14.5641 12.3516 14.7 12.6469C14.7234 12.661 14.7797 12.6375 14.7984 12.6469C14.8734 12.5907 14.925 12.6094 15.0328 12.6282C15.1313 12.6516 15.1875 12.7219 15.1875 12.7922C15.1875 12.8579 15.1875 12.8719 15.2109 12.9094C15.2344 12.9563 15.2813 13.0125 15.2672 13.05C15.2578 13.0969 15.2766 13.1204 15.2906 13.1438C15.3047 13.1672 15.2859 13.2094 15.2719 13.2422C15.2578 13.2797 15.2625 13.3125 15.3187 13.3829C15.3656 13.4438 15.4875 13.711 15.4875 13.875C15.4875 14.0297 15.4969 14.1094 15.5625 14.1375C15.6281 14.1704 15.6516 14.1938 15.6375 14.2641C15.6416 14.4258 15.6557 14.587 15.6797 14.7469C15.6891 14.8032 15.7078 14.7938 15.7313 14.8219C15.7594 14.85 15.7781 14.8875 15.8625 14.8875C15.9562 14.8875 16.0312 14.8735 16.0922 14.8875C16.1672 14.9907 16.2141 15.136 16.2328 15.2297C16.2469 15.3235 16.2469 15.4454 16.2797 15.4454C16.3078 15.4454 16.3406 15.4454 16.3266 15.3375C16.3172 15.225 16.3125 15.2063 16.275 15.15C16.2328 15.0938 16.2141 15.0657 16.2328 15.0329C16.2562 15 16.2609 14.9391 16.2516 14.8969C16.2422 14.8547 16.2328 14.7891 16.3031 14.8735L16.425 15.0141C16.4484 15.0469 16.4531 15.0985 16.4484 15.1547C16.4437 15.2016 16.4531 15.225 16.4813 15.2016C16.5141 15.1735 16.5516 15.2204 16.5328 15.2766C16.5188 15.3328 16.5328 15.3704 16.5891 15.3844C16.6453 15.3985 16.6641 15.4125 16.6734 15.45C16.6828 15.4875 16.7344 15.5063 16.7344 15.4313C16.7344 15.3516 16.7016 15.1875 16.6828 15.136C16.6594 15.0844 16.6406 14.9719 16.6359 14.9016C16.6359 14.8407 16.6219 14.8266 16.5891 14.8079C16.5609 14.7985 16.5328 14.7797 16.5281 14.7422C16.5281 14.7094 16.4953 14.7094 16.4813 14.7094C16.4625 14.7094 16.4438 14.6907 16.4344 14.6719C16.425 14.6485 16.4109 14.6485 16.3875 14.6438C16.3688 14.6438 16.3313 14.6532 16.3219 14.6204C16.3125 14.5875 16.2938 14.536 16.275 14.5079C16.2563 14.475 16.2328 14.4704 16.2281 14.3672C16.2281 14.2735 16.2281 14.2641 16.1953 14.2266C16.1561 14.1751 16.1216 14.1202 16.0922 14.0625C16.0734 14.0297 16.0453 13.9875 16.0453 14.0672C16.0453 14.1469 16.0453 14.1938 16.1016 14.2219C16.1531 14.2547 16.1672 14.2547 16.1437 14.2969C16.1203 14.3391 16.1438 14.3719 16.1531 14.4C16.1625 14.4329 16.1813 14.461 16.1531 14.4938C16.125 14.5219 16.1016 14.5125 16.1063 14.4657C16.1084 14.4167 16.0971 14.368 16.0734 14.325C16.05 14.2829 16.0312 14.2547 16.0078 14.2782C15.9797 14.3016 15.9609 14.2782 15.975 14.2594C15.9937 14.2454 15.9891 14.2266 15.975 14.2125C15.9609 14.2079 15.9609 14.1891 15.9844 14.1657C16.0078 14.1375 16.0031 14.1235 15.9891 14.0625C15.975 14.0063 15.8812 13.7016 15.8391 13.6313C15.7922 13.561 15.8016 13.5094 15.8531 13.5844C15.9094 13.65 15.9609 13.7063 15.9609 13.7672C15.9703 13.8235 15.9844 13.861 15.9938 13.8797C16.0078 13.9032 16.0313 13.8891 16.0359 13.8469C16.0406 13.8 16.0828 13.8141 16.0172 13.7204C15.9609 13.6313 15.8484 13.4813 15.8063 13.2047C15.7594 12.9329 15.7453 12.7547 15.6984 12.6844C15.6562 12.6094 15.6422 12.5907 15.6375 12.5204C15.6375 12.45 15.6375 12.3797 15.6047 12.3329C15.5719 12.286 15.5578 12.2719 15.5531 12.3516C15.5474 12.446 15.5553 12.5407 15.5766 12.6329C15.6 12.661 15.5906 12.736 15.5812 12.7829C15.5766 12.825 15.5109 12.8672 15.6516 12.9563C15.7078 12.9891 15.6984 13.036 15.6891 13.0641C15.6844 13.0969 15.675 13.0922 15.6422 13.0454C15.6141 12.9985 15.5813 12.961 15.5484 12.9329C15.5203 12.9047 15.5203 12.886 15.5203 12.8297C15.525 12.7735 15.5391 12.7266 15.5203 12.7032C15.5063 12.6844 15.4969 12.7032 15.4875 12.736C15.4781 12.7688 15.4734 12.8625 15.4547 12.886C15.4359 12.9094 15.4266 12.9 15.4125 12.8391C15.3984 12.7829 15.4172 12.6985 15.4453 12.6C15.4781 12.4969 15.4969 12.3985 15.4734 12.2672C15.4453 12.136 15.4594 12.0985 15.3563 11.986C15.2578 11.8829 15.15 11.7797 15.0984 11.6438C15.0516 11.5079 15.0422 11.3954 14.9906 11.3344C14.9421 11.272 14.8835 11.2181 14.8172 11.175V10.9688C14.8172 10.9219 14.7937 10.8938 14.7422 10.9032C14.6859 10.9125 14.6484 10.9547 14.6156 11.025C14.5828 11.086 14.5547 11.0579 14.5078 11.1657C14.4562 11.2782 14.3906 11.3344 14.3906 11.4563V11.461Z" fill="#CF6200"/>
<path d="M14.705 12.7312C14.7378 12.7547 14.7707 12.764 14.8222 12.7406C14.8691 12.7172 14.9347 12.6375 15.0097 12.7125C15.0759 12.7949 15.1122 12.8974 15.1128 13.0031C15.1128 13.0968 15.1128 13.275 15.2207 13.3734C15.3285 13.4718 15.3894 13.575 15.3894 13.7062C15.3941 13.8375 15.441 14.0344 15.4597 14.0906C15.4691 14.1375 15.4972 14.1984 15.53 14.2312C15.5675 14.2687 15.591 14.3719 15.6003 14.4656C15.6003 14.5781 15.5863 14.6531 15.6003 14.7C15.6144 14.7469 15.6003 14.7937 15.5582 14.7656C15.5207 14.7422 15.5113 14.7328 15.4925 14.6859C15.4738 14.639 15.441 14.6531 15.4644 14.7187C15.4878 14.789 15.5488 14.8406 15.605 14.8406C15.6613 14.8406 15.68 14.85 15.7128 14.8875C15.7457 14.9203 15.755 14.939 15.816 14.939C15.8769 14.939 15.8816 14.939 15.9378 14.9578C15.9941 14.9719 15.9941 14.9625 16.0269 14.9578C16.055 14.9484 16.0878 14.9719 16.1066 15.0281C16.1253 15.089 16.1816 15.2437 16.1816 15.2812C16.1816 15.3234 16.1816 15.3703 16.2097 15.4125C16.2425 15.4593 16.2332 15.5015 16.1957 15.4734C16.1628 15.4453 16.1628 15.4593 16.1394 15.4593C16.1113 15.464 16.0925 15.4547 16.0597 15.4312C16.0269 15.4078 16.0457 15.4125 16.0128 15.3609C15.98 15.314 15.9566 15.2906 15.9566 15.3281C15.9566 15.3656 15.9566 15.4172 15.9238 15.3984C15.9003 15.375 15.8863 15.375 15.8628 15.3984C15.8394 15.4219 15.8347 15.4359 15.8066 15.3937C15.7832 15.3515 15.755 15.3469 15.7269 15.3375C15.6988 15.3281 15.6988 15.3328 15.6894 15.2906C15.6753 15.2531 15.6378 15.2437 15.6003 15.2437C15.5675 15.2437 15.5488 15.2297 15.5441 15.2015C15.5441 15.1734 15.5207 15.1547 15.5019 15.1453C15.4832 15.1312 15.4972 15.0984 15.4878 15.0703C15.4832 15.0422 15.4597 15.0515 15.441 15.0469C15.4222 15.0422 15.4128 15.0469 15.4128 15C15.4128 14.9531 15.3941 14.9437 15.38 14.9109C15.3707 14.8781 15.38 14.85 15.3894 14.8172C15.3933 14.8026 15.3936 14.7874 15.3903 14.7727C15.3871 14.758 15.3803 14.7443 15.3707 14.7328C15.3425 14.7 15.366 14.6719 15.2957 14.6109C15.23 14.55 15.1925 14.6015 15.1691 14.4562C15.1525 14.292 15.1179 14.1301 15.066 13.9734C15.0332 13.9265 15.0003 13.8937 14.9628 13.8797C14.9253 13.8656 14.8972 13.8797 14.8972 13.7906C14.8878 13.7109 14.8644 13.6078 14.8128 13.5562L14.7097 13.4625C14.6863 13.4484 14.6769 13.4062 14.7097 13.3312C14.7472 13.2562 14.7332 13.1578 14.7285 13.1109C14.7285 13.064 14.7097 13.0031 14.7238 12.9515C14.7332 12.9047 14.7238 12.8344 14.7097 12.8015C14.7003 12.7687 14.6816 12.7547 14.705 12.7312ZM15.7457 11.5031C15.6888 11.5785 15.6208 11.6449 15.5441 11.7C15.4597 11.7562 15.3566 11.7984 15.4128 11.9015C15.4738 11.9953 15.5207 12.0093 15.53 12.0843C15.5441 12.1593 15.5582 12.2203 15.6144 12.239C15.6753 12.2578 15.6988 12.2437 15.6988 12.3656C15.6988 12.4875 15.6988 12.5343 15.7503 12.5765C15.8066 12.6234 15.7972 12.6703 15.816 12.7828C15.8394 12.8906 15.8394 13.125 15.9097 13.2843C15.9847 13.4437 16.1394 13.7531 16.1207 13.814C16.1019 13.875 16.0785 13.9265 16.1488 14.0015C16.2113 14.0717 16.2534 14.1576 16.2707 14.25C16.2753 14.3156 16.2847 14.339 16.355 14.3156C16.4253 14.2922 16.4582 14.2687 16.4816 14.2359C16.505 14.2078 16.5472 14.2172 16.6128 14.25C16.6785 14.2828 16.7769 14.3156 16.8332 14.2828C16.8894 14.25 16.9222 14.1984 16.9738 14.1984C17.0535 14.1375 17.0816 14.0156 17.1003 13.9828C17.1144 13.95 17.1003 13.95 17.0675 13.9172C17.0347 13.8843 17.0535 13.8234 17.0441 13.7672C17.0333 13.6707 17.0013 13.5779 16.9503 13.4953C16.88 13.3687 16.8378 13.214 16.791 13.1672C16.7441 13.1297 16.7253 13.0359 16.7207 12.989C16.7113 12.9422 16.6597 12.9 16.6269 12.8672C16.5894 12.8344 16.5566 12.7828 16.5191 12.5765C16.4769 12.375 16.4488 12.2343 16.4488 12.2015C16.4488 12.164 16.4394 12.1547 16.4019 12.15C16.3738 12.1359 16.355 12.0797 16.3644 12.0468C16.3738 12.0187 16.355 11.9906 16.341 11.9531C16.3269 11.925 16.341 11.8593 16.3644 11.8218C16.3878 11.789 16.3832 11.6906 16.3597 11.6109C16.3363 11.5312 16.3128 11.4609 16.2238 11.4468C16.13 11.4375 16.116 11.414 16.0785 11.339C16.041 11.264 16.0082 11.1328 15.9941 11.1047C15.9847 11.0718 15.9707 11.0718 15.9003 11.1281C15.83 11.1843 15.8066 11.2031 15.8066 11.3109C15.8066 11.3765 15.816 11.4047 15.8394 11.4468C15.8628 11.4843 15.8722 11.4937 15.8863 11.6062C15.905 11.7187 16.0035 11.8875 15.8769 11.9859C15.7457 12.089 15.7691 12.1078 15.7738 12.1734C15.7738 12.2437 15.741 12.2906 15.7175 12.1922C15.6941 12.0984 15.7175 12.0375 15.7832 11.9906C15.8535 11.9437 15.9191 11.8875 15.8722 11.8218C15.8253 11.7609 15.8066 11.6109 15.8066 11.5406C15.8019 11.475 15.7832 11.4468 15.7457 11.5031Z" fill="#CF6200"/>
<path d="M14.7191 12.9703L14.7285 13.1109C14.7285 13.1578 14.7472 13.2562 14.7097 13.3265C14.6769 13.4015 14.6863 13.4437 14.7097 13.4671C14.7238 13.4631 14.7369 13.456 14.7481 13.4464C14.7592 13.4369 14.7682 13.425 14.7744 13.4117C14.7806 13.3984 14.7839 13.3839 14.7841 13.3692C14.7842 13.3545 14.7813 13.34 14.7753 13.3265C14.7661 13.3055 14.7621 13.2826 14.7637 13.2597C14.7654 13.2369 14.7726 13.2147 14.7847 13.1953C14.8035 13.1578 14.8035 13.1343 14.7847 13.1062C14.766 13.0781 14.766 13.0781 14.7847 12.9937C14.8082 12.9234 14.7566 12.9234 14.7191 12.9703ZM15.4597 14.0906C15.441 14.0343 15.3941 13.8375 15.3894 13.7062C15.3856 13.6421 15.3686 13.5795 15.3396 13.5223C15.3105 13.465 15.2701 13.4144 15.2207 13.3734C15.1363 13.2984 15.1222 13.1718 15.1128 13.0781C15.0519 13.0359 15.0238 13.0546 15.0332 13.125C15.0332 13.2046 15.1128 13.2421 15.1035 13.35C15.0894 13.4671 15.0894 13.4343 15.1457 13.4906C15.1972 13.5515 15.2207 13.5984 15.1925 13.6218C15.1644 13.6453 15.1597 13.6828 15.1972 13.6968C15.2394 13.7156 15.2441 13.7578 15.2347 13.8C15.2347 13.8375 15.2675 13.8468 15.291 13.875C15.3033 13.8963 15.3098 13.9206 15.3098 13.9453C15.3098 13.97 15.3033 13.9942 15.291 14.0156C15.2722 14.0531 15.2675 14.114 15.3097 14.0812C15.3519 14.0484 15.366 14.0812 15.3988 14.1375C15.4222 14.1843 15.4457 14.1703 15.4785 14.1515C15.4686 14.1305 15.4607 14.1085 15.455 14.0859L15.4597 14.0906ZM16.0175 15.0937C15.9894 15.1406 15.9613 15.1265 15.9378 15.0984C15.9097 15.075 15.8769 15.075 15.891 15.0281C15.905 14.9812 15.9003 14.9718 15.8628 14.9437C15.8597 14.9437 15.8566 14.9437 15.8535 14.9437H15.816C15.755 14.9437 15.7457 14.9203 15.7128 14.8875C15.707 14.8793 15.7007 14.8715 15.6941 14.864V14.8968C15.6941 14.9437 15.6941 14.9343 15.6472 14.9484C15.6003 14.9625 15.605 14.9015 15.5957 14.864C15.5948 14.8561 15.5932 14.8482 15.591 14.8406C15.5394 14.8312 15.4832 14.775 15.4644 14.7187C15.441 14.6484 15.4644 14.6437 15.4878 14.6859C15.5066 14.7234 15.5207 14.7421 15.5582 14.7656C15.5957 14.789 15.605 14.7515 15.5957 14.7C15.5933 14.6813 15.5933 14.6624 15.5957 14.6437C15.5816 14.625 15.5722 14.6109 15.5535 14.6015C15.4878 14.5734 15.5066 14.564 15.5113 14.5078C15.5113 14.4562 15.5019 14.4562 15.4597 14.4796C15.4128 14.5171 15.4128 14.4796 15.4128 14.3906C15.4128 14.3062 15.3519 14.3062 15.3425 14.3671C15.3285 14.4281 15.3097 14.3859 15.2816 14.3015C15.2582 14.2125 15.2207 14.1937 15.216 14.2781C15.216 14.3437 15.1972 14.3625 15.1503 14.325L15.1691 14.4562C15.1925 14.5968 15.2253 14.55 15.2957 14.6109C15.366 14.6718 15.3425 14.7046 15.366 14.7328C15.3941 14.7609 15.3988 14.7796 15.3894 14.8171C15.38 14.85 15.366 14.8828 15.38 14.9109C15.3941 14.9437 15.4128 14.9578 15.4128 14.9953C15.4128 15.0375 15.4222 15.0375 15.441 15.0468L15.4738 15.0515L15.5066 15.0046C15.5628 14.9578 15.6472 15.0093 15.666 15.075C15.6894 15.1359 15.7222 15.1593 15.7597 15.1078C15.7972 15.0609 15.7878 15.0609 15.83 15.1078C15.8675 15.1546 15.891 15.15 15.891 15.15C15.891 15.15 15.9378 15.1312 15.966 15.1593C15.9941 15.1828 16.0128 15.1781 16.0644 15.0984C16.1253 15.0187 16.041 15.0421 16.0175 15.0984V15.0937ZM16.1722 12.7218C16.1863 12.5953 16.1722 12.4687 16.2285 12.4218C16.2753 12.375 16.341 12.2859 16.3363 12.4828C16.3363 12.675 16.3269 12.6703 16.2894 12.7078C16.2425 12.7546 16.2097 12.7687 16.2519 12.8484C16.2941 12.9187 16.2988 12.9234 16.2941 13.0359C16.2847 13.1531 16.2847 13.2 16.3316 13.2562C16.3785 13.3171 16.3878 13.3218 16.3972 13.3875C16.4141 13.4595 16.4497 13.5257 16.5003 13.5796C16.5472 13.6265 16.6128 13.7578 16.6175 13.8515C16.6269 13.9453 16.7066 13.9687 16.7816 14.0296C16.8519 14.0953 16.7628 14.1375 16.7066 14.114C16.6503 14.0765 16.6738 14.114 16.6363 14.1468C16.6035 14.1937 16.5894 14.1937 16.5613 14.1281C16.5285 14.0625 16.4347 14.0109 16.3878 13.9921C16.3457 13.9781 16.3035 13.9031 16.2613 13.8281C16.2455 13.7958 16.2217 13.7681 16.1921 13.7476C16.1626 13.727 16.1283 13.7144 16.0925 13.7109C16.116 13.7578 16.1253 13.8 16.116 13.814C16.1019 13.8796 16.0785 13.9265 16.1488 14.0015C16.2113 14.0717 16.2534 14.1576 16.2707 14.25C16.2707 14.3109 16.2847 14.3343 16.3503 14.3109C16.4253 14.2875 16.4582 14.264 16.4816 14.2359C16.505 14.2078 16.5472 14.2125 16.6128 14.25C16.6738 14.2828 16.7722 14.3156 16.8285 14.2828C16.8894 14.25 16.9175 14.1984 16.9691 14.1984C17.0535 14.1375 17.0769 14.0156 17.0957 13.9828C17.1144 13.95 17.1003 13.95 17.0675 13.9171C17.0347 13.8843 17.0535 13.8234 17.0441 13.7671C17.0394 13.7062 17.016 13.6218 16.9457 13.4953C16.8753 13.364 16.8378 13.214 16.791 13.1671C16.7441 13.1296 16.7253 13.0359 16.716 12.9843C16.716 12.9375 16.6597 12.9 16.6222 12.8625C16.5894 12.8296 16.5566 12.7828 16.5144 12.5812L16.4488 12.2343C16.4113 12.3046 16.3832 12.3187 16.3644 12.2718C16.3503 12.225 16.3269 12.1921 16.3035 12.225C16.28 12.2578 16.2707 12.1968 16.2707 12.1687C16.2707 12.1406 16.2707 12.1359 16.2378 12.1359C16.2097 12.1359 16.2332 12.089 16.2191 12C16.2097 11.9156 16.191 11.9062 16.1816 12.0093C16.1722 12.1125 16.116 12.1734 16.1347 12.1968C16.1582 12.2203 16.1488 12.2671 16.1253 12.3375C16.1019 12.4031 16.1113 12.4453 16.13 12.4921C16.1488 12.539 16.116 12.6281 16.1066 12.6984C16.0925 12.7734 16.1535 12.8484 16.1722 12.7218ZM15.1175 11.6906C15.0707 11.6906 15.0425 11.7281 15.0707 11.8593C15.0847 11.939 15.0238 11.925 15.005 11.8828C14.9769 11.8406 14.9582 11.7562 14.9113 11.6812C14.8691 11.6062 14.8878 11.7281 14.8878 11.8031C14.8785 11.8687 14.9253 11.8687 14.9675 11.9296C15.0097 11.9906 14.9675 12.0093 14.9253 12.0093C14.8832 12.0093 14.9019 12.1031 14.9113 12.164C14.9253 12.2296 14.9019 12.239 14.8691 12.1875C14.8363 12.1359 14.855 12.0562 14.8644 11.9531C14.8691 11.8593 14.8738 11.8828 14.8082 11.8593C14.7472 11.8359 14.7613 11.8265 14.78 11.7656C14.8035 11.7093 14.8269 11.6812 14.7988 11.6484C14.7707 11.625 14.7753 11.6062 14.8222 11.6015C14.8691 11.5921 14.8503 11.5593 14.8878 11.5453C14.93 11.5359 14.9488 11.5546 14.9582 11.4796C14.9582 11.414 14.9816 11.3765 15.0238 11.4C15.0566 11.4937 15.0894 11.6437 15.1175 11.6859V11.6906ZM15.6941 12.3656C15.6941 12.4875 15.6941 12.5343 15.7457 12.5765C15.8019 12.6234 15.7925 12.6703 15.816 12.7828C15.8394 12.8906 15.8394 13.125 15.9097 13.2843L15.9847 13.4578C16.0202 13.4283 16.049 13.3915 16.0691 13.35C16.0878 13.3125 16.0363 13.2328 15.9941 13.1625C15.9519 13.0921 15.9988 13.0687 16.041 12.9843C16.0785 12.8906 16.0316 12.8906 15.9707 12.8671C15.905 12.8437 15.905 12.7875 15.8722 12.6937C15.8394 12.6 15.8441 12.5625 15.8722 12.5109C15.8863 12.4593 15.8722 12.4171 15.8253 12.4078C15.7785 12.3937 15.7925 12.3609 15.8066 12.3046C15.83 12.2437 15.8394 12.2343 15.7691 12.2484C15.7175 12.2625 15.7035 12.2718 15.6847 12.2953C15.6941 12.3093 15.6941 12.3328 15.6941 12.3656Z" fill="#00B800"/>
<path d="M16.359 12.6094C16.359 12.6751 16.359 12.7079 16.3403 12.7313C16.3215 12.7547 16.3309 12.7922 16.3497 12.8251C16.3637 12.8626 16.3778 12.9094 16.3637 12.9657C16.345 13.0313 16.3731 13.0876 16.4059 13.1063C16.4387 13.1204 16.4575 13.1063 16.4481 13.186C16.4441 13.2227 16.4484 13.2598 16.4605 13.2947C16.4727 13.3296 16.4925 13.3613 16.5184 13.3876C16.5606 13.4204 16.5887 13.4766 16.5887 13.5094C16.5794 13.5422 16.6122 13.5797 16.6544 13.5985C16.6965 13.6126 16.6872 13.6219 16.6872 13.6454C16.6872 13.6688 16.7059 13.6688 16.7528 13.6782C16.7997 13.6876 16.8325 13.7204 16.8887 13.7813C16.9403 13.8469 17.0106 13.8844 17.0012 13.8094C16.9919 13.7344 17.0012 13.6969 16.9356 13.6594C16.8606 13.6266 16.809 13.4579 16.7809 13.3454C16.7518 13.23 16.6919 13.1246 16.6075 13.0407C16.6028 12.9657 16.6122 12.9235 16.5606 12.886C16.5399 12.87 16.5231 12.8494 16.5118 12.8258C16.5004 12.8022 16.4946 12.7763 16.495 12.7501C16.495 12.7079 16.4622 12.6563 16.4434 12.6516C16.42 12.6376 16.4106 12.6047 16.4106 12.5719C16.4106 12.5391 16.3637 12.5438 16.3637 12.6047L16.359 12.6094Z" fill="#5D3100"/>
<path d="M16.0547 15.6938C16.198 15.6744 16.3382 15.6366 16.4719 15.5813C16.5428 15.6351 16.6243 15.6734 16.7109 15.6938C16.6125 15.7172 16.5469 15.7032 16.5234 15.6844C16.5328 15.7172 16.5703 15.7641 16.5891 15.7688C16.4953 15.7641 16.3875 15.7407 16.3547 15.7079C16.2703 15.7407 16.1344 15.75 16.0547 15.6985V15.6938ZM16.2422 15.8344L16.4859 15.8672C16.425 15.9235 16.4766 15.9704 16.5797 15.961C16.5281 15.9704 16.4766 15.9891 16.5094 15.9938C16.6378 15.9953 16.7652 15.9714 16.8844 15.9235C16.8047 16.0266 16.4062 16.125 16.2422 15.8297V15.8344ZM16.4062 16.0875C16.4531 16.0641 16.5797 16.0735 16.6406 16.1016C16.5703 16.125 16.4437 16.125 16.4062 16.0875Z" fill="#00D860"/>
<path d="M16.5936 16.0875C16.6779 16.0734 16.9264 16.1344 17.0154 16.0781C16.9826 16.1578 16.8279 16.1719 16.7764 16.1531C16.7201 16.1344 16.6732 16.1109 16.6357 16.1156C16.6498 16.1016 16.6217 16.1016 16.5889 16.0875H16.5936Z" fill="black"/>
<path d="M16.6826 16.2094C16.7482 16.2187 16.9873 16.1906 17.0576 16.1625C17.1373 16.1859 17.292 16.2328 17.3248 16.2234C17.2545 16.2703 17.1139 16.2422 17.067 16.2234C16.9357 16.2703 16.8326 16.2797 16.6826 16.2094Z" fill="#00D860"/>
<path d="M16.7953 16.2515C16.8937 16.2703 16.9734 16.2562 17.0672 16.2234C17.1195 16.2436 17.1752 16.2531 17.2313 16.2515C17.2781 16.275 17.3344 16.3078 17.3906 16.3125C17.2856 16.3302 17.1778 16.3222 17.0766 16.289C16.9593 16.2878 16.8429 16.3101 16.7344 16.3546C16.7344 16.3218 16.7531 16.2796 16.7953 16.2515Z" fill="#00D860"/>
<path d="M16.6833 15.7641C16.7583 15.7875 17.0301 15.7782 17.1661 15.7172C17.2223 15.6844 17.2551 15.7266 17.1895 15.75C16.9692 15.825 16.7911 15.8579 16.6598 15.7922C16.6083 15.7594 16.6036 15.736 16.6833 15.7641Z" fill="black"/>
<path d="M18.0046 15.3938C17.6765 15.5532 17.4562 15.6 16.9921 15.4594C16.9499 15.4454 16.9218 15.4594 16.9687 15.4875C17.084 15.5374 17.2053 15.572 17.3296 15.5907C17.3905 15.5907 17.3671 15.6235 17.3296 15.6329C17.2921 15.6422 17.2827 15.6704 17.3296 15.6469C17.3858 15.6282 17.6577 15.6235 17.7749 15.6844C17.8218 15.7079 17.8405 15.7032 17.8312 15.6844C17.8265 15.661 17.8546 15.6516 17.8921 15.6469C17.9296 15.6469 17.9483 15.6329 17.9202 15.6188C17.8968 15.6047 17.8874 15.6 17.9108 15.5907C17.9343 15.5813 17.9343 15.5719 17.9015 15.5625C17.8687 15.5625 17.8499 15.5485 17.878 15.5297C17.9108 15.5157 17.953 15.5063 17.9905 15.5063C17.9952 15.4829 17.9812 15.4125 18.0046 15.3985V15.3938Z" fill="#00D860"/>
<path d="M17.4565 15.436C17.7209 15.4396 17.9782 15.35 18.1831 15.1829C18.244 15.2204 18.3378 15.2625 18.3847 15.2766C18.4315 15.2813 18.4784 15.3235 18.3987 15.3235C18.3284 15.3235 18.2206 15.2907 18.1737 15.2766C17.9579 15.4069 17.7084 15.4705 17.4565 15.4594C17.4097 15.4547 17.3909 15.4313 17.4565 15.436Z" fill="black"/>
<path d="M16.8939 14.4C16.9872 14.4733 17.1034 14.5115 17.222 14.5078C17.2938 14.5614 17.3748 14.6011 17.4611 14.625C17.3626 14.6672 17.2548 14.7 17.2267 14.7328C17.1798 14.6906 17.1236 14.7 17.1048 14.6766C17.0673 14.7094 17.072 14.7328 17.1001 14.7516C17.1236 14.7703 17.3439 14.8031 17.4001 14.7891C17.4517 14.7703 17.4658 14.8219 17.4236 14.836C17.3017 14.8735 17.0767 14.836 17.0017 14.7094C16.922 14.5875 16.8611 14.5406 16.6455 14.6531C16.622 14.5922 16.622 14.5781 16.5798 14.5781C16.533 14.5781 16.4626 14.5219 16.5189 14.5266C16.5798 14.5266 16.7533 14.5031 16.8939 14.4Z" fill="#00D860"/>
<path d="M16.9451 14.6719C16.9123 14.6859 16.8044 14.7422 16.7669 14.7422C16.7341 14.7469 16.6685 14.8031 16.7341 14.8031C16.8044 14.8031 16.8888 14.7328 16.9357 14.7234C16.9873 14.7141 16.9873 14.6625 16.9451 14.6766V14.6719ZM17.1513 14.8969C17.1279 14.8969 17.0154 14.925 16.9826 14.9203C16.9498 14.9203 16.9263 14.9297 16.931 14.9484C16.931 14.9719 16.9404 14.9813 16.8982 14.9813C16.8513 14.9813 16.8091 14.9953 16.7951 15.0047C16.781 15.0188 16.781 15.0328 16.8279 15.0422C16.8748 15.0469 16.8935 15.0469 16.9451 15.0234C17.0013 15 17.0482 14.9625 17.1044 14.9578C17.1607 14.9578 17.2169 14.8875 17.1513 14.8922V14.8969Z" fill="#00D860"/>
<path d="M16.9969 15.0281C17.0438 15.0609 17.2782 15.1359 17.3626 15.1312C17.4469 15.1265 17.4329 15.164 17.3672 15.1781C17.236 15.2062 17.0766 15.15 16.9641 15.0656C16.9172 15.0187 16.9641 15.0047 16.9969 15.0281Z" fill="black"/>
<path d="M18.103 15.1406C17.9249 15.1969 17.7421 15.1781 17.6718 15.1594C17.5968 15.1453 17.5311 15.1359 17.578 15.1828C17.6296 15.2297 17.789 15.2625 17.8827 15.2391C17.5593 15.3141 17.4749 15.3047 17.3952 15.2906C17.297 15.2812 17.1981 15.2812 17.0999 15.2906C17.053 15.2906 16.9874 15.2906 16.9593 15.2672C16.9358 15.2484 16.9218 15.2203 17.0061 15.2297C17.0905 15.2391 17.0999 15.2203 17.0296 15.2063C16.9546 15.1969 16.8515 15.2297 16.9546 15.2906C17.053 15.3563 17.2686 15.2906 17.4093 15.3281C17.5499 15.3656 17.8405 15.3938 18.1218 15.1688C18.1358 15.1594 18.1593 15.1219 18.103 15.1406ZM17.2265 14.8781V14.9391C17.2218 14.9531 17.2218 14.9719 17.2452 14.9531C17.2733 14.9344 17.2921 14.9063 17.3202 14.9203C17.3644 14.9329 17.4107 14.9361 17.4561 14.9297C17.489 14.9297 17.4936 14.9203 17.4468 14.8969C17.3999 14.8781 17.353 14.8734 17.3249 14.8734C17.3015 14.8781 17.2686 14.8734 17.2452 14.8641C17.2218 14.85 17.2218 14.8594 17.2265 14.8781Z" fill="#00D860"/>
<path d="M17.6861 14.9625C17.641 14.958 17.5968 14.9469 17.5549 14.9297C17.5174 14.9156 17.4611 14.9109 17.5033 14.9578C17.5408 15.0094 17.7002 15.0375 17.7564 15.0141C17.8174 14.9906 17.7892 14.9672 17.8455 14.9953C17.9017 15.0281 17.958 15.0563 18.0002 15.0563C18.0424 15.0563 18.0564 15.0563 18.0095 15.0281C17.9627 15.0047 17.9439 14.9953 17.9439 14.9766C17.9439 14.9578 17.9299 14.9438 17.972 14.9578C18.0095 14.9719 18.0564 14.9906 18.0892 14.9719C18.1267 14.9578 18.183 14.9203 18.2392 14.9203L18.2533 14.8875C18.1736 14.8781 18.1267 14.9016 18.0986 14.9109C18.0672 14.9228 18.0332 14.9261 18.0002 14.9203C17.958 14.9109 17.9064 14.9062 17.8924 14.8969C17.8783 14.8875 17.8783 14.8734 17.9111 14.8688C17.9439 14.8641 17.958 14.8406 17.9111 14.85C17.8642 14.8594 17.7377 14.85 17.672 14.8312C17.6017 14.8125 17.5783 14.8078 17.5455 14.8172C17.5174 14.8266 17.522 14.8594 17.5642 14.8641C17.6017 14.8641 17.6955 14.8734 17.733 14.9016C17.7658 14.9344 17.7564 14.9344 17.7189 14.9203C17.6861 14.9016 17.6205 14.9109 17.6861 14.9672V14.9625Z" fill="#00D860"/>
<path d="M18.2486 14.8875L18.2393 14.9204C18.354 14.9156 18.4686 14.9331 18.5768 14.9719C18.6377 14.925 18.6236 14.911 18.6705 14.9204C18.7174 14.925 18.7643 14.9438 18.7924 14.9297C18.8158 14.9157 18.8299 14.9204 18.858 14.9204C18.8814 14.9297 18.9377 14.9204 18.9705 14.8969C18.9986 14.8782 19.0689 14.85 19.1111 14.85C19.1486 14.85 19.1955 14.8454 19.1252 14.8313C19.0525 14.8271 18.9796 14.835 18.9096 14.8547C18.8721 14.8688 18.7596 14.8782 18.6939 14.8782C18.633 14.8782 18.5393 14.911 18.4689 14.8922C18.3939 14.8735 18.2908 14.8875 18.2486 14.8875Z" fill="#00D860"/>
<path d="M19.2515 14.85C19.1249 14.9438 18.9655 14.9625 18.7827 14.9766C18.7265 14.9766 18.7452 14.9953 18.7921 15C18.9796 15.0188 19.2093 14.9532 19.2796 14.8688C19.303 14.85 19.303 14.8125 19.2515 14.85Z" fill="black"/>
<path d="M18.3701 15.0656C18.4217 15.0656 18.6186 15.1219 18.6842 15.1406C18.7311 15.1406 18.7451 15.1266 18.7311 15.1078C18.7217 15.0891 18.717 15.075 18.8014 15.075H19.1295C19.1576 15.0656 19.2232 15.0141 19.2561 15.0094C19.1764 15.0188 18.8482 15.0328 18.8107 15.0281C18.7803 15.0229 18.749 15.0279 18.7217 15.0422C18.6936 15.0563 18.6842 15.0656 18.6467 15.0516C18.6139 15.0422 18.5576 15.0188 18.5295 15.0422C18.492 15.061 18.4264 15.0422 18.3701 15.0656Z" fill="#00D860"/>
<path d="M19.125 15.0749C19.1578 15.0656 19.2234 15.0093 19.2562 15.0093C19.3125 15.0093 19.3734 15.0281 19.4062 15.0328C19.4343 15.0328 19.4671 15.0328 19.4437 15.0093C19.4203 14.9859 19.4437 14.9437 19.5375 14.9578C19.6218 14.9671 19.6687 14.9812 19.7531 14.9718C19.8375 14.9671 19.8796 15.0281 20.039 14.9624C20.0296 15.0281 20.0625 15.0281 20.0906 15.0187C20.1234 15.0093 20.1562 15.0093 20.2078 15.0515C20.2546 15.089 20.5734 15.0984 20.6484 15.0796C20.7187 15.0656 20.7609 15.1031 20.7046 15.1265C20.6484 15.1406 20.6343 15.164 20.6484 15.1828C20.6578 15.2015 20.6718 15.2203 20.6015 15.2156C20.5359 15.2062 20.5218 15.2249 20.489 15.2531C20.4562 15.2812 20.4421 15.2859 20.3484 15.2671C20.2546 15.2531 20.2359 15.2671 20.1843 15.2765C20.1281 15.2859 20.1234 15.2812 20.0671 15.2671C19.9918 15.2409 19.9107 15.236 19.8328 15.2531C19.7625 15.2718 19.7156 15.2999 19.6546 15.2812C19.5937 15.2624 19.589 15.2671 19.6265 15.2343C19.6687 15.1968 19.6734 15.1968 19.7484 15.1874C19.8234 15.1781 19.8796 15.1546 19.8281 15.1265C19.7718 15.0984 19.7578 15.0984 19.6875 15.1359C19.6218 15.1687 19.5843 15.1921 19.5046 15.1499C19.4296 15.1031 19.3921 15.1124 19.3359 15.1265C19.2843 15.1406 19.2 15.1124 19.125 15.0796V15.0749ZM19.3875 15.2062C19.2843 15.2203 19.2609 15.1593 19.1531 15.1734C19.125 15.1734 19.0593 15.2203 19.1437 15.2109C19.2234 15.2062 19.3125 15.2484 19.3875 15.2437C19.4671 15.2343 19.4343 15.2015 19.3875 15.2062ZM19.2656 15.2812C19.3218 15.2624 19.4296 15.2999 19.4718 15.2906C19.5187 15.2859 19.5656 15.3093 19.514 15.3281C19.4625 15.3421 19.35 15.2999 19.2984 15.314C19.2515 15.3281 19.1953 15.3093 19.2656 15.2812ZM18.2343 15.5624C18.3046 15.5624 18.5625 15.5531 18.6656 15.3374C18.6703 15.3187 18.6796 15.314 18.7125 15.3374C18.7406 15.3609 18.8625 15.4312 19.0875 15.4453C19.1484 15.4546 19.214 15.4828 19.0875 15.4734C18.9609 15.464 18.764 15.4359 18.6984 15.389C18.5859 15.5671 18.3843 15.5906 18.2296 15.5859C18.1453 15.5859 18.1687 15.5578 18.2296 15.5624H18.2343Z" fill="#00D860"/>
<path d="M18.7971 15.2671C18.7596 15.314 18.6424 15.3984 18.5908 15.4078C18.5299 15.4078 18.3705 15.389 18.3283 15.375C18.2908 15.3609 18.2346 15.3656 18.2955 15.4078C18.3761 15.4501 18.4674 15.468 18.558 15.4593C18.6189 15.45 18.6846 15.4265 18.7268 15.4593C18.7736 15.4921 18.8627 15.539 18.9096 15.5296C18.9716 15.5171 19.0357 15.5187 19.0971 15.5343C19.1252 15.5484 19.1814 15.5953 19.0971 15.5671C19.0127 15.539 18.9471 15.5671 18.9049 15.5437C18.9518 15.6046 19.0455 15.7031 19.1299 15.7031C19.1486 15.7031 19.1627 15.7359 19.1205 15.7546C19.158 15.7781 19.2564 15.7921 19.308 15.7453C19.2939 15.764 19.3033 15.7781 19.3221 15.7875C19.3408 15.7968 19.3689 15.8156 19.3314 15.8156C19.2939 15.8203 19.2049 15.8296 19.1768 15.8203C19.2611 15.8718 19.4814 15.9609 19.7018 15.914C19.7486 15.914 19.7674 15.8906 19.7018 15.8953C19.5518 15.8953 19.5471 15.8953 19.5189 15.8812C19.4908 15.8671 19.5002 15.8531 19.5424 15.839C19.5799 15.825 19.683 15.8156 19.7299 15.8156C19.7721 15.8156 19.8143 15.7921 19.7299 15.7921C19.6455 15.7921 19.5283 15.7921 19.4861 15.7781C19.4439 15.7687 19.4111 15.7453 19.4533 15.7125C19.5002 15.6796 19.5471 15.6937 19.5705 15.6656C19.4299 15.6656 19.2518 15.5906 19.3502 15.5156C19.3736 15.5015 19.3643 15.5015 19.3268 15.4968C19.2893 15.4968 19.1861 15.464 19.1393 15.4359C19.0924 15.4078 19.1252 15.389 19.158 15.3843C19.0783 15.3984 18.9096 15.3515 18.7924 15.2671H18.7971ZM20.0627 15.2625C19.9767 15.3158 19.8779 15.3449 19.7768 15.3468C19.7158 15.3468 19.7018 15.3656 19.7533 15.375C19.8002 15.3796 19.8518 15.3843 19.8752 15.3796C19.8986 15.375 19.908 15.375 19.9455 15.3843C19.9965 15.4045 20.0528 15.4061 20.1049 15.389C20.1705 15.3708 20.2385 15.3629 20.3064 15.3656C20.3486 15.3656 20.3955 15.3656 20.3064 15.3468C20.2259 15.3316 20.1432 15.3316 20.0627 15.3468C20.0346 15.3515 19.9455 15.3468 19.9924 15.3375C20.0319 15.3242 20.0685 15.3035 20.1002 15.2765C20.0861 15.2765 20.0768 15.2671 20.0627 15.2625ZM20.0205 15.4312C19.944 15.4881 19.853 15.5222 19.758 15.5296C19.8518 15.5625 19.9268 15.6609 19.983 15.6562C19.9549 15.6703 19.9174 15.6937 19.8846 15.7031C19.9408 15.7171 20.0346 15.7031 20.1096 15.6562C20.2408 15.6937 20.4096 15.6703 20.4658 15.6234C20.3839 15.6238 20.3038 15.5993 20.2361 15.5531C20.2783 15.5531 20.3158 15.5296 20.3393 15.5062C20.2361 15.5203 20.0674 15.4687 20.0205 15.4312Z" fill="#00D860"/>
<path d="M19.8848 15.7032C19.9223 15.7032 19.9551 15.6704 19.9832 15.6563C19.8167 15.6685 19.6503 15.6309 19.5051 15.5485C19.416 15.4641 19.416 15.5297 19.4816 15.586C19.5347 15.6362 19.5989 15.6729 19.669 15.6933C19.7391 15.7137 19.8131 15.7171 19.8848 15.7032ZM20.1098 15.9001C20.0723 15.9235 19.8848 15.9329 19.8285 15.9235C19.7676 15.9094 19.7348 15.9141 19.7535 15.9376C19.7723 15.961 19.777 15.9844 19.7254 15.9797C19.6672 15.9723 19.6082 15.9771 19.552 15.9938C19.5191 16.0079 19.4676 16.0407 19.552 16.0266C19.6223 16.0172 19.6926 15.9985 19.7535 16.0172C19.8098 16.0313 20.0207 16.036 20.0629 16.0172C20.1004 15.9938 20.077 15.9985 20.0535 15.9985C20.0348 15.9985 20.0301 15.9891 20.0535 15.9751C20.0816 15.961 20.1051 15.9282 20.1098 15.9001ZM18.3145 15.6469C18.1838 15.6956 18.0488 15.7317 17.9113 15.7547C17.8486 15.7876 17.7802 15.8082 17.7098 15.8157C17.7426 15.8438 17.8551 15.8719 17.902 15.8579C17.87 15.8857 17.8335 15.9079 17.7941 15.9235C17.8645 15.9188 17.9441 15.9329 17.9816 15.9376C17.8956 15.9841 17.798 16.0053 17.7004 15.9985C17.7191 16.0313 17.7473 16.0594 17.7941 16.0594C17.7177 16.0808 17.637 16.0824 17.5598 16.0641C17.5785 16.111 17.602 16.1344 17.6301 16.1391C17.5645 16.1485 17.4754 16.1579 17.4004 16.1157C17.4566 16.1907 17.5832 16.2188 17.7754 16.1954C17.9115 16.18 18.0418 16.1317 18.1551 16.0547C18.0754 16.0641 17.9723 16.0688 17.9207 16.0547C18.0513 16.0225 18.1762 15.9703 18.291 15.9001C18.2495 15.9012 18.2087 15.8897 18.1738 15.8672C18.2301 15.8719 18.4457 15.8485 18.5066 15.8204C18.4485 15.8075 18.397 15.7743 18.3613 15.7266C18.5961 15.7951 18.8444 15.8031 19.0832 15.7501C19.116 15.7407 19.1254 15.6938 19.0551 15.7032C18.9332 15.7079 18.6988 15.6751 18.6379 15.6469C18.6894 15.6844 18.7487 15.7101 18.8113 15.7219C18.6988 15.7547 18.5395 15.7782 18.3145 15.6469Z" fill="#00D860"/>
<path d="M17.7938 15.9282L17.9016 15.8626C17.8349 15.8661 17.7685 15.8515 17.7094 15.8204C17.7516 15.8204 17.8219 15.7969 17.9109 15.7594C17.7516 15.7547 17.6438 15.7547 17.5828 15.7266C17.5196 15.7044 17.4516 15.6996 17.3859 15.7126C17.3484 15.7219 17.3625 15.7829 17.5266 15.7688C17.4258 15.8161 17.3132 15.8324 17.2031 15.8157C17.2219 15.8719 17.2359 15.9282 17.2172 15.9563C17.3109 16.0079 17.5453 16.0782 17.6625 16.0641C17.5594 16.0266 17.5031 15.9844 17.5875 15.9751C17.6719 15.9657 17.7188 15.9469 17.7938 15.9282Z" fill="#00D860"/>
<path d="M17.531 16.2094C17.7325 16.1907 18.0091 16.186 18.2341 16.0032C18.2903 15.9516 18.3278 15.9704 18.2716 16.0172C18.0741 16.1678 17.8353 16.2545 17.5872 16.2657C17.4747 16.2657 17.4231 16.2188 17.531 16.2094Z" fill="black"/>
<path d="M19.0785 15.8625C19.027 15.886 18.8817 15.9094 18.8395 15.9047C18.7926 15.9 18.7317 15.8954 18.6988 15.9141C18.6613 15.9329 18.6613 15.9469 18.7082 15.9563L18.8488 15.961C18.8193 15.9771 18.7937 15.9995 18.7738 16.0266C18.8395 16.0079 18.9707 16.0407 19.0082 16.0641C18.9754 16.0688 18.9473 16.0594 18.9238 16.0454C19.041 16.1719 19.3879 16.1719 19.4395 16.1485C19.416 16.1672 19.3926 16.186 19.3645 16.1954C19.4629 16.2094 19.5754 16.2094 19.6832 16.1438C19.6252 16.1458 19.5672 16.1427 19.5098 16.1344C19.5338 16.1123 19.5627 16.0963 19.5942 16.0875C19.5236 16.0791 19.452 16.0839 19.3832 16.1016C19.3973 16.0735 19.416 16.0407 19.4442 16.0313C19.291 16.0424 19.1371 16.0265 18.9895 15.9844C19.1113 15.9985 19.2426 15.9282 19.3035 15.9282C19.2098 15.9282 19.102 15.9047 19.0785 15.8625ZM18.6426 15.961C18.5597 15.9764 18.4782 15.9983 18.3988 16.0266C18.3613 16.0454 18.3285 16.0641 18.3988 16.0641C18.4082 16.061 18.4176 16.0578 18.427 16.0547C18.3988 16.0547 18.3613 16.0547 18.4176 16.036C18.4738 16.0172 18.5488 15.9797 18.6426 15.961ZM18.4738 16.1625C18.502 16.1625 18.6379 16.1625 18.6848 16.1157C18.741 16.1579 18.8442 16.2188 18.9098 16.2188C18.9801 16.2188 18.9707 16.2329 18.9098 16.2422C18.8535 16.2469 18.741 16.2094 18.6848 16.1672C18.6051 16.1954 18.5395 16.1719 18.4692 16.1579L18.4738 16.1625ZM17.4707 16.7438C17.6067 16.7954 17.7801 16.8375 17.9113 16.7907C17.9863 16.8563 18.1363 16.861 18.2207 16.8422C18.3004 16.8282 18.3754 16.8141 18.4645 16.8422C18.5582 16.875 18.741 16.8797 18.7926 16.9219C18.7457 16.9219 18.6473 16.9219 18.6192 16.9313C18.5957 16.936 18.6098 16.95 18.652 16.9782C18.4848 16.9723 18.3193 17.0129 18.1738 17.0954C18.1953 17.0466 18.2309 17.0053 18.276 16.9769C18.3211 16.9485 18.3737 16.9343 18.427 16.936C18.352 16.9079 18.0988 16.9079 18.0192 16.9547C17.9957 16.9313 17.9676 16.8891 17.9676 16.875C17.8317 16.9454 17.5785 16.8375 17.4707 16.7438ZM17.1285 16.5C17.2879 16.4813 17.4004 16.4297 17.4473 16.3782C17.4707 16.4063 17.5879 16.4344 17.7145 16.3922C17.7038 16.4011 17.6962 16.4132 17.6929 16.4267C17.6895 16.4402 17.6905 16.4544 17.6957 16.4672C17.5938 16.476 17.4941 16.5013 17.4004 16.5422C17.3488 16.5657 17.1895 16.5891 17.1379 16.561C17.091 16.5329 17.0863 16.5047 17.1285 16.5Z" fill="#00D860"/>
<path d="M17.6957 16.4672C17.6113 16.4672 17.4566 16.5141 17.4004 16.5422L17.4238 16.6219C17.6322 16.5617 17.8495 16.5379 18.066 16.5516C18.0051 16.5516 17.8785 16.6219 17.8129 16.6313C17.9816 16.6172 18.141 16.6547 18.1879 16.6641C18.2301 16.6735 18.2348 16.711 18.2066 16.7391C18.1738 16.7672 18.1598 16.7719 18.2301 16.7719C18.2957 16.7719 18.441 16.7719 18.5066 16.7063C18.4785 16.6781 18.4129 16.6875 18.3941 16.6688C18.4364 16.654 18.4749 16.63 18.5066 16.5985C18.4407 16.6015 18.3746 16.5968 18.3098 16.5844C18.2723 16.575 18.2441 16.5656 18.291 16.5375C18.3231 16.5212 18.3517 16.499 18.3754 16.4719C18.291 16.4953 18.1598 16.5188 18.0473 16.425C18.0941 16.4438 18.1879 16.4344 18.2207 16.4203C18.1832 16.3969 18.1551 16.3875 18.127 16.3875C18.2113 16.3406 18.3848 16.3031 18.6051 16.3875C18.707 16.3793 18.8096 16.3856 18.9098 16.4063C18.9473 16.3735 19.0176 16.2891 19.0551 16.2703C18.802 16.2891 18.3473 16.2422 18.352 16.111C18.2723 16.2188 18.0848 16.2797 18.0004 16.261C17.991 16.2985 18.0238 16.3453 18.052 16.3735C17.9723 16.3875 17.8223 16.4063 17.752 16.3875C17.7895 16.4297 17.8645 16.4625 17.9113 16.4578C17.8176 16.4578 17.7707 16.4766 17.6957 16.4672Z" fill="#00D860"/>
<path d="M18.2295 16.7719C18.2951 16.7719 18.4404 16.7719 18.5061 16.7062C18.4779 16.6781 18.4123 16.6875 18.3936 16.6688C18.4358 16.6539 18.4742 16.6299 18.5061 16.5984C18.6889 16.5797 18.8482 16.5891 18.9279 16.5656C19.0076 16.5422 19.2092 16.5562 19.242 16.5422C19.0732 16.575 19.0404 16.5891 19.0264 16.6172C19.017 16.6453 19.0873 16.6641 19.1248 16.6641C19.0498 16.6641 18.9514 16.7437 18.9373 16.7766C18.8436 16.7203 18.792 16.7906 18.7779 16.8141C18.7333 16.8031 18.6869 16.8016 18.6417 16.8096C18.5965 16.8177 18.5535 16.8352 18.5154 16.8609C18.4217 16.8375 18.3607 16.8188 18.267 16.8375C18.3279 16.8234 18.3139 16.7812 18.2295 16.7766V16.7719ZM19.0545 16.2656C19.1154 16.2656 19.242 16.275 19.2889 16.2656C19.2592 16.2796 19.2323 16.2986 19.2092 16.3219C19.3592 16.3031 19.5561 16.2937 19.6123 16.3031C19.5467 16.2891 19.4717 16.3359 19.4342 16.3641C19.3967 16.3875 19.4201 16.3969 19.467 16.4062C19.5186 16.4109 19.5889 16.4531 19.4951 16.4391C19.3908 16.4277 19.2857 16.4262 19.1811 16.4344C19.1389 16.4391 19.1154 16.4203 19.1811 16.4109C19.2373 16.3969 19.2842 16.3781 19.3123 16.3641C19.2533 16.3735 19.1932 16.3735 19.1342 16.3641C19.1014 16.3547 19.0826 16.3359 19.1154 16.3312C19.1482 16.3266 19.1295 16.3078 19.092 16.3125C19.0545 16.3219 18.9607 16.3594 18.9092 16.4062C18.9654 16.35 19.017 16.2984 19.0545 16.2703V16.2656Z" fill="#00D860"/>
<path d="M18.3985 16.3687C18.4346 16.41 18.4794 16.4428 18.5296 16.4647C18.5799 16.4865 18.6344 16.497 18.6892 16.4953C18.7173 16.4953 18.7689 16.5328 18.6985 16.5375C18.5204 16.5421 18.4314 16.5046 18.3517 16.3875C18.3329 16.3593 18.361 16.3265 18.3985 16.364V16.3687ZM19.4767 14.8546C19.6167 14.9105 19.7666 14.9376 19.9173 14.9343C19.9454 14.9343 19.9923 14.9578 19.9314 14.9671C19.7712 14.9866 19.6089 14.9554 19.4673 14.8781C19.4345 14.8593 19.4439 14.8406 19.4814 14.8546H19.4767Z" fill="black"/>
<path d="M19.5748 14.8594C19.7248 14.85 19.8373 14.85 19.8795 14.8969C19.9639 14.8688 20.1139 14.85 20.1467 14.8641C20.1842 14.8734 20.2217 14.85 20.142 14.8313C20.0623 14.8125 19.8748 14.8031 19.8186 14.8172C19.7623 14.8266 19.5842 14.8359 19.5186 14.8266C19.542 14.8313 19.5607 14.8359 19.5748 14.85V14.8594ZM20.1467 14.9109C20.217 14.8734 20.4186 14.9109 20.4748 14.8828C20.4279 14.9344 20.6154 14.9391 20.7701 14.8969C20.7092 14.9344 20.5826 14.9438 20.5264 14.9672C20.4701 14.9906 20.4373 14.9719 20.3951 14.9578C20.3482 14.9391 20.2404 14.8969 20.1467 14.9109Z" fill="#00D860"/>
<path d="M20.7701 14.8969C20.6154 14.9437 20.4326 14.9344 20.4795 14.8828C20.4139 14.9109 20.217 14.8734 20.1514 14.9109C20.217 14.8688 20.2732 14.9016 20.3248 14.8125C20.3623 14.8219 20.4326 14.8266 20.4654 14.7891C20.5153 14.7992 20.563 14.8182 20.6061 14.8453C20.6342 14.8688 20.6717 14.8406 20.6389 14.7984C20.7045 14.775 20.6623 14.8359 20.8311 14.7891C20.8639 14.7797 20.9482 14.7656 20.9811 14.7656C20.9178 14.8175 20.8486 14.8615 20.7748 14.8969H20.7701Z" fill="#00D860"/>
<path d="M17.7139 14.175L17.6764 10.486C17.6764 10.3172 17.5967 10.35 17.5967 10.486V14.1422L17.7139 14.175ZM18.9092 10.2844L19.0404 14.175L19.0264 14.2079H18.9373L18.8529 10.2844H18.9092ZM20.0389 13.575L19.9732 10.4157C19.9732 10.3219 19.8889 10.336 19.8889 10.4344L19.9545 13.575H20.0389Z" fill="#FFFF00" stroke="black" stroke-width="0.05"/>
<path d="M18.244 10.9312L17.0815 10.9172C17.0346 11.1515 17.3159 11.1328 17.4096 11.0812C17.5503 11.1656 17.644 11.1656 17.7143 11.0812C17.8081 11.1656 17.9487 11.1469 17.9956 11.0812C18.1268 11.1984 18.2768 11.0812 18.244 10.9172V10.9312ZM18.3284 11.4984H17.1659C16.9456 11.7 17.2128 11.7984 17.4471 11.6625C17.48 11.7328 17.6112 11.7656 17.7143 11.714C17.8081 11.7797 17.9487 11.7328 18.0096 11.6672C18.1268 11.714 18.2768 11.7328 18.3425 11.4984H18.3284ZM18.2956 12.2484H17.1659C17.1471 12.4312 17.3815 12.4125 17.4612 12.3609C17.5456 12.4969 17.7425 12.464 17.8128 12.3797C17.93 12.464 18.0284 12.4453 18.08 12.3797C18.1925 12.4781 18.3143 12.3469 18.2956 12.2484ZM18.3612 12.9797L17.0815 12.9609C17.0159 13.1765 17.2128 13.2094 17.2971 13.1625C17.33 13.275 17.494 13.2422 17.5456 13.1625C17.6112 13.2094 17.6956 13.1765 17.7331 13.1297C17.7471 13.2422 17.8971 13.2609 18.0143 13.1625C18.2487 13.3265 18.4596 13.1297 18.3425 12.975L18.3612 12.9797ZM19.4721 12.6797H18.4268C18.4737 12.8765 18.5768 12.9281 18.7409 12.8109C18.8768 12.9469 19.0737 12.8953 19.1253 12.8297C19.3596 13.0125 19.4721 12.7969 19.4721 12.6609V12.6797ZM19.3784 11.9484L18.3471 11.9156C18.3612 12.1781 18.6096 12.164 18.7409 12.0656C18.8253 12.1781 18.994 12.1453 19.0737 12.0656C19.1909 12.1969 19.4065 12.1125 19.3737 11.9484H19.3784ZM19.5096 11.1328H18.4128C18.4128 11.3156 18.6612 11.414 18.844 11.25C18.8909 11.4656 19.0925 11.4 19.1721 11.3156C19.3081 11.4797 19.594 11.2828 19.5096 11.1469V11.1328ZM19.4393 10.5844L18.4456 10.5984C18.4456 10.7672 18.68 10.8328 18.7596 10.7015C18.8065 10.7812 18.9753 10.7672 19.0268 10.7015C19.0925 10.8187 19.1909 10.7344 19.2237 10.7015C19.3409 10.7812 19.4581 10.7344 19.4393 10.5844ZM20.5878 10.95L19.3925 10.9312C19.3925 11.0484 19.5096 11.1 19.5893 11.0484C19.5893 11.1844 19.7581 11.2172 19.8706 11.114C19.9409 11.2312 20.1518 11.25 20.2409 11.114C20.405 11.264 20.6065 11.1469 20.569 10.95H20.5878ZM20.5737 11.9344H19.4065C19.4065 12.0984 19.594 12.1453 19.7065 12.0656C19.7253 12.1969 19.8753 12.2109 19.955 12.1312C20.0721 12.2484 20.2362 12.2625 20.3393 12.1312C20.4706 12.1781 20.5878 12.0656 20.5737 11.9297V11.9344ZM20.5034 12.8109H19.5753C19.5753 12.9797 19.7721 12.9797 19.8565 12.8953C19.955 13.0125 20.0909 13.0125 20.1706 12.9281C20.2878 13.0265 20.4893 12.9937 20.5034 12.8109Z" fill="white" stroke="black" stroke-width="0.05"/>
<path d="M19.0268 14.2078C18.5252 14.2078 18.0096 14.2078 17.6627 14.175C17.3111 14.1421 17.2127 14.0765 16.9643 13.9265L16.0315 13.3593C15.9518 13.3218 15.8674 13.3734 15.9846 13.439L16.9127 14.0531C17.1658 14.2218 17.3299 14.3718 17.4752 14.5546C17.6768 14.7703 17.8127 14.7703 17.9111 14.7375C18.0096 14.7046 18.1455 14.6531 18.2955 14.6859C18.4268 14.7187 18.6236 14.7328 18.7268 14.7187C18.8111 14.8031 19.0268 14.7843 19.144 14.7515C19.235 14.7231 19.3318 14.7182 19.4252 14.7375H19.7065C19.7908 14.7375 20.0065 14.6859 20.1565 14.7046C20.3205 14.7375 20.4705 14.7046 20.5736 14.7046C20.6807 14.6766 20.7922 14.6702 20.9018 14.6859C20.983 14.6292 21.0425 14.5466 21.0705 14.4515C21.169 14.4375 21.2018 14.4187 21.2205 14.3718L21.319 14.1046H21.3518V14.0062L21.2861 13.9031L21.319 13.739L21.4033 13.7062L21.3705 13.5375L19.908 13.5703C19.8537 13.6195 19.8174 13.6855 19.8049 13.7578L19.3736 13.8234C19.3268 13.8375 19.2752 13.8375 19.2236 13.9031L19.0268 14.2078Z" fill="black" stroke="black" stroke-width="0.05"/>
<path d="M20.7699 13.5609L20.9855 12.7453C21.0184 12.6609 20.9387 12.6469 20.9012 12.7453L20.6855 13.5609H20.7699Z" fill="black" stroke="black" stroke-width="0.05"/>
<path d="M21.6189 12.6469C21.4361 12.7265 21.3377 12.7781 21.2533 12.7453C21.1689 12.7125 21.0658 12.6984 21.0049 12.7265C21.0056 12.7328 21.0056 12.7391 21.0049 12.7453C20.9432 12.9565 20.8807 13.1674 20.8174 13.3781C20.958 13.425 21.1877 13.425 21.2393 13.3781C21.3049 13.3125 21.4549 13.3312 21.5346 13.3312C21.5814 13.2609 21.6002 13.1765 21.5814 13.1437C21.5674 13.1109 21.5814 13.0265 21.5814 12.9797C21.5814 12.9281 21.6518 12.7453 21.6189 12.6469Z" fill="white" stroke="black" stroke-width="0.05"/>
<path d="M17.4281 11.0812C17.1069 11.9207 16.6595 12.7062 16.1016 13.4109M16.4297 13.6078C17.1679 13.0144 17.8085 12.3089 18.3281 11.5171M17.1656 12.2296C17.1141 12.6796 16.9781 13.4765 16.9125 13.8937M17.3484 13.2281C17.1797 13.3921 16.9641 13.6593 16.7812 13.8093M18.8906 12.3281C18.7594 12.464 18.6094 12.6281 18.4594 12.6609M18.975 12.3609C19.0973 12.5017 19.2516 12.611 19.425 12.6796M18.8906 11.6484C18.7459 11.775 18.5768 11.8707 18.3937 11.9296M18.9562 11.6625C19.0597 11.78 19.1856 11.8756 19.3266 11.9437M18.4219 11.1375C18.5885 11.0893 18.7423 11.0044 18.8719 10.889M18.9188 10.889C19.0359 11.0062 19.2516 11.1234 19.3688 11.1515M18.4547 10.6031C18.6112 10.5751 18.7526 10.4919 18.8531 10.3687M18.9 10.3406C19.0219 10.439 19.2375 10.575 19.3547 10.589M19.8844 10.7203C19.8188 10.8046 19.6359 10.9359 19.5187 10.9359M19.9688 10.7203C20.0156 10.8046 20.1516 10.9359 20.2359 10.9359M19.4391 11.9343C19.6165 11.8679 19.7755 11.7602 19.9031 11.6203M19.9828 11.6343C20.0638 11.7582 20.173 11.861 20.3016 11.9343M19.6219 12.7968C19.6922 12.7968 19.875 12.6937 19.9219 12.5812M20.025 12.5296C20.1158 12.6431 20.2271 12.7385 20.3531 12.8109M17.2453 12.9609C17.5684 12.8338 17.8585 12.635 18.0938 12.3796M17.6953 12.6937C17.8551 12.8188 18.0361 12.9141 18.2297 12.975M17.1984 12.2296C17.3449 12.1711 17.4798 12.087 17.5969 11.9812M17.6766 11.9625C17.7281 12.0281 18.0797 12.2437 18.2297 12.2437M17.5969 11.264C17.4701 11.3622 17.3295 11.4412 17.1797 11.4984M17.6766 11.264C17.7938 11.3484 18.0422 11.4984 18.1922 11.4984M17.5969 10.5984C17.4831 10.7265 17.3484 10.8343 17.1984 10.9171M17.6766 10.6171C17.7469 10.7343 17.9438 10.8984 18.0797 10.9171M19.4062 11.3437C19.7698 11.9723 20.2636 12.5157 20.8547 12.9375M18.5109 10.7296C18.9797 11.3953 19.8703 12.839 20.7375 13.3734M20.9016 12.8109C20.6798 13.1114 20.405 13.3687 20.0906 13.5703M20.8406 12.989C20.5547 12.5203 20.4047 11.9437 20.1703 11.1609M18.1734 14.2218L17.8453 13.2234H17.6953M17.7797 13.2046L18.0938 14.2031M17.6953 13.1578L17.9953 14.189M17.6625 13.1718L17.8969 14.189M17.8969 14.1515H18.1781M18.1453 14.0578H17.8781M18.1125 13.9687H17.8453M18.0797 13.889H17.8125M18.0281 13.7859H17.8125M17.7938 13.7062H18.0094M17.775 13.6406H17.9953M17.7609 13.5562H17.9625M17.7469 13.4906H17.9297M17.7281 13.4062H17.8969M17.7094 13.3406H17.8781M17.6953 13.289H17.8594M17.4141 13.2234L17.2125 14.0531M17.4609 13.2234L17.2969 14.0859M17.5125 13.1906L17.3812 14.1046M17.5781 13.1718L17.4797 14.1375M17.5969 14.0718H17.2641M17.5922 13.9875H17.2172M17.5922 13.889H17.25M17.5828 13.8046H17.2687M17.5969 13.7203H17.2828M17.6016 13.6218H17.3203M17.6016 13.5375H17.3203M17.5828 13.4531H17.3344M17.5828 13.3734H17.3672M17.5828 13.289H17.3859M17.5828 13.2421H17.4M17.5687 14.1515V13.1718M18.6469 12.8437L17.9813 14.189M18.6984 12.825L18.1359 14.2031M18.7313 12.8062L18.2812 14.2031M18.7828 12.8437L18.4172 14.2031M18.4313 14.1562H18.0141M18.4641 14.0203H18.0656M18.4828 13.9218H18.1406M18.5391 13.8234H18.2062M18.5531 13.7203H18.2391M18.5906 13.6218H18.2906M18.6188 13.5046H18.3563M18.6375 13.4203H18.3891M18.6703 13.3265H18.4359M18.6891 13.2562H18.4734M18.7078 13.1906H18.4734M18.6891 13.125H18.5203M18.6891 13.0734H18.5391M18.7031 13.0078H18.5719M18.7359 12.9421H18.6094M18.7406 12.8906H18.6281M19.1906 12.8718L19.4719 13.8046L19.7719 12.9421M19.2375 12.8906L19.5891 13.7859L19.8563 12.9046M19.2891 12.8906L19.7109 13.7718M19.8047 13.6875L19.3406 12.8718M19.8094 13.7062H19.4719M19.7719 13.5703H19.4437M19.725 13.4718H19.4062M19.6547 13.3546H19.3734M19.5891 13.2562H19.3406M19.5281 13.139H19.3078M19.4719 13.0218H19.275M19.4062 12.9234H19.2422M19.7062 13.7718L19.9078 12.9421M19.9547 12.975L19.7906 13.7531M19.5094 13.7062H19.7906M19.5422 13.6031H19.8234M19.575 13.4906H19.8422M19.6219 13.3875H19.875M19.6547 13.2703H19.8891M19.6922 13.1765H19.9078M19.7391 13.0546H19.9406M19.7719 12.9609H19.9406M20.0906 12.975L20.2219 13.5703M20.1375 12.9421L20.325 13.5515M20.2078 12.9421L20.4047 13.5515M20.2875 12.975L20.5031 13.5562M20.4891 13.5093H20.2078M20.4562 13.4203H20.1891M20.4234 13.3406H20.1703M20.3906 13.2375H20.1375M20.3391 13.1578H20.1047M20.3063 13.0734H20.0906M20.2734 12.989H20.0719" stroke="black" stroke-width="0.05"/>
<path d="M17.541 14.5172C17.615 14.4771 17.6985 14.4576 17.7827 14.4609C17.8668 14.4642 17.9485 14.4901 18.0191 14.5359C18.1598 14.4562 18.4082 14.4797 18.5254 14.5828C18.7035 14.4609 18.8535 14.4422 19.027 14.5593C19.1676 14.4656 19.3645 14.4562 19.5285 14.5687C19.6832 14.4937 19.8566 14.4328 20.0066 14.5968C19.9129 14.5312 19.7254 14.475 19.5285 14.625C19.3738 14.475 19.1113 14.5312 19.027 14.6343C18.9955 14.6 18.9571 14.5728 18.9143 14.5544C18.8715 14.5361 18.8253 14.527 18.7787 14.5279C18.7322 14.5288 18.6864 14.5396 18.6443 14.5596C18.6022 14.5795 18.5649 14.6082 18.5348 14.6437C18.3801 14.5125 18.1457 14.5078 18.0191 14.6109C17.9207 14.5312 17.7754 14.4656 17.541 14.5172Z" fill="#00B800"/>
<path d="M19.8983 14.3344C19.0621 14.4225 18.2181 14.4068 17.3858 14.2875C17.278 14.2547 17.3061 14.2172 17.3998 14.2407C17.9403 14.3145 18.4868 14.3333 19.0311 14.2969L19.2983 13.936C19.3452 13.8844 19.3545 13.875 19.4389 13.861L19.8139 13.8V13.8516L19.7858 13.8797C19.7858 13.9641 19.8045 14.1797 19.8186 14.2641C19.8373 14.2641 19.8608 14.25 19.8655 14.25C19.903 14.2407 19.9311 14.3204 19.903 14.3297L19.8983 14.3344Z" fill="#CF6200"/>
<path d="M21.0279 14.3671H21.117C21.1361 14.3661 21.1544 14.3593 21.1695 14.3475C21.1845 14.3358 21.1957 14.3197 21.2014 14.3015L21.2951 14.0296L21.2248 13.9265C21.2372 13.8517 21.2481 13.7767 21.2576 13.7015L21.3514 13.6687C21.3514 13.65 21.3467 13.5937 21.3233 13.575C21.0279 13.589 20.1514 13.6218 19.9826 13.6218C19.9451 13.6218 19.9264 13.6218 19.9123 13.6734C19.8279 13.9828 19.9451 14.414 20.2545 14.6578C20.2779 14.6812 20.3014 14.6625 20.2639 14.6296C20.1926 14.5601 20.1311 14.4813 20.0811 14.3953L20.3014 14.3859C20.3201 14.4562 20.3717 14.6109 20.3858 14.6343C20.3951 14.6625 20.4186 14.6718 20.4092 14.6343C20.3764 14.5406 20.3623 14.4328 20.3483 14.3859L20.5826 14.3812L20.592 14.6015C20.592 14.6343 20.6201 14.6343 20.6201 14.6015V14.3765L20.8217 14.3718L20.8029 14.5921C20.8029 14.625 20.817 14.6484 20.8264 14.5921L20.8592 14.3718H20.9998C20.9998 14.4093 20.9529 14.5546 20.9389 14.5875C20.9295 14.625 20.9436 14.625 20.9576 14.5875C20.9894 14.517 21.013 14.443 21.0279 14.3671Z" fill="#CF6200"/>
<path d="M20.0441 14.3297C20.0254 14.2828 19.9504 14.1141 19.9457 13.9922L20.2363 13.9828C20.2494 14.0977 20.2682 14.2119 20.2926 14.325L20.0441 14.3297ZM20.2926 13.9828L20.3395 14.325H20.5738L20.5645 13.9781L20.2926 13.9828ZM19.9551 13.6828C19.9457 13.7437 19.941 13.875 19.9457 13.9359L20.2316 13.9313L20.2082 13.6734L19.9551 13.6828ZM20.2645 13.6734L20.2832 13.9266L20.5645 13.9219L20.5504 13.6641L20.2645 13.6734ZM20.6066 13.6641C20.6066 13.7203 20.616 13.8797 20.6113 13.9219L20.8598 13.9125C20.8598 13.8562 20.8691 13.6969 20.8645 13.6547L20.6066 13.6641ZM20.9113 13.6547L20.9066 13.9125L21.1691 13.9031C21.1832 13.8516 21.2066 13.7016 21.2066 13.6406L20.9113 13.6547ZM21.1832 13.9594L20.902 13.9688C20.8948 14.083 20.8854 14.1971 20.8738 14.3109L21.141 14.3016C21.1776 14.216 21.2089 14.1284 21.2348 14.0391L21.1832 13.9594ZM20.6207 13.9734L20.6254 14.3156L20.827 14.3109L20.8551 13.9688L20.6207 13.9734ZM19.4676 13.9078L19.3598 13.9313C19.2726 14.0572 19.1819 14.1807 19.0879 14.3016L19.4816 14.2922L19.4676 13.9125V13.9078ZM19.5191 13.8984L19.5332 14.2875L19.7676 14.2687L19.7348 13.8609L19.5191 13.8984Z" fill="black"/>
<path d="M18.3607 12.9797H17.0811V12.9469L18.3607 12.9609V12.9797ZM19.3592 11.9484C19.3732 11.9484 19.3732 11.9484 19.3592 11.9484L18.3607 11.9297C18.342 11.9297 18.342 11.9297 18.3607 11.9297H19.3592V11.9484ZM18.2951 12.2297C18.3092 12.2297 18.3092 12.2484 18.2951 12.2484H17.1654C17.1467 12.2484 17.1654 12.2297 17.1654 12.2297H18.2951ZM18.3279 11.4984C18.342 11.4984 18.342 11.5172 18.3279 11.5172H17.1467C17.1279 11.5172 17.1279 11.4984 17.1467 11.4984H18.3279ZM18.2436 10.9172C18.2623 10.9172 18.2623 10.9312 18.2436 10.9312H17.0951C17.0811 10.9312 17.0951 10.8984 17.0951 10.8984L18.2623 10.9172H18.2436Z" fill="black"/>
<path d="M19.3592 11.9484C19.3732 11.9484 19.3732 11.9484 19.3592 11.9484ZM19.3592 11.9484L18.3607 11.9297M19.3592 11.9484V11.9297H18.3607M18.3607 11.9297C18.342 11.9297 18.342 11.9297 18.3607 11.9297ZM18.3607 12.9797H17.0811V12.9469L18.3607 12.9609V12.9797ZM18.2951 12.2297C18.3092 12.2297 18.3092 12.2484 18.2951 12.2484H17.1654C17.1467 12.2484 17.1654 12.2297 17.1654 12.2297H18.2951ZM18.3279 11.4984C18.342 11.4984 18.342 11.5172 18.3279 11.5172H17.1467C17.1279 11.5172 17.1279 11.4984 17.1467 11.4984H18.3279ZM18.2436 10.9172C18.2623 10.9172 18.2623 10.9312 18.2436 10.9312H17.0951C17.0811 10.9312 17.0951 10.8984 17.0951 10.8984L18.2623 10.9172H18.2436Z" stroke="black" stroke-width="0.05"/>
<path d="M19.4391 10.5844L18.4453 10.5984" stroke="black" stroke-width="0.05"/>
<path d="M19.4906 11.1469C19.5094 11.1469 19.5094 11.1469 19.4906 11.1469H18.4125C18.3937 11.1469 18.3937 11.1469 18.4125 11.1469H19.4906ZM20.5688 11.9156V11.9297H19.4063C19.3734 11.9297 19.3734 11.9297 19.4063 11.9297H20.5781L20.5688 11.9156ZM20.5688 10.9313C20.6063 10.9313 20.6063 10.95 20.5688 10.95H19.3922C19.3734 10.95 19.3734 10.9313 19.3922 10.9313H20.5875H20.5688ZM19.4719 12.6657C19.4906 12.6657 19.4906 12.6797 19.4719 12.6797H18.4125V12.661L19.4719 12.6657ZM20.5031 12.811C20.5219 12.811 20.5219 12.811 20.5031 12.811V12.811Z" fill="black"/>
<path d="M19.4906 11.1469C19.5094 11.1469 19.5094 11.1469 19.4906 11.1469ZM19.4906 11.1469H18.4125M18.4125 11.1469C18.3937 11.1469 18.3937 11.1469 18.4125 11.1469ZM19.4063 11.9297H20.5688V11.9156L20.5781 11.9297H19.4063ZM19.4063 11.9297C19.3734 11.9297 19.3734 11.9297 19.4063 11.9297ZM20.5031 12.811C20.5219 12.811 20.5219 12.811 20.5031 12.811ZM20.5031 12.811H19.575M20.5688 10.9313C20.6063 10.9313 20.6063 10.95 20.5688 10.95H19.3922C19.3734 10.95 19.3734 10.9313 19.3922 10.9313H20.5875H20.5688ZM19.4719 12.6657C19.4906 12.6657 19.4906 12.6797 19.4719 12.6797H18.4125V12.661L19.4719 12.6657Z" stroke="black" stroke-width="0.05"/>
<path d="M21.3512 12.9797C21.3699 12.9027 21.3699 12.8223 21.3512 12.7453C21.319 12.7543 21.2849 12.7543 21.2527 12.7453C21.2378 12.7335 21.2221 12.7226 21.2059 12.7125C21.2059 12.7781 21.1684 12.961 21.1355 13.0266C21.0887 13.0266 20.9715 13.0266 20.9199 12.9938L20.873 13.1625C20.9549 13.1804 21.0396 13.1804 21.1215 13.1625C21.1215 13.2563 21.1027 13.3453 21.0512 13.411C21.1355 13.411 21.2199 13.411 21.2387 13.3641C21.2855 13.2938 21.2855 13.1953 21.3043 13.1438L21.384 13.1297L21.4684 13.0922L21.5855 13.0781V12.9797L21.6184 12.9094L21.3512 12.9938V12.9797Z" fill="#EF072D" stroke="black" stroke-width="0.05"/>
<path d="M17.2312 7.35934C17.0633 7.35111 16.895 7.36212 16.7296 7.39216C16.6827 7.42497 16.664 7.43903 16.7624 7.45778C16.8656 7.47653 17.0437 7.54216 17.1468 7.58903C17.2007 7.62551 17.2441 7.67537 17.2729 7.73372C17.3017 7.79207 17.3147 7.8569 17.3109 7.92184C17.2742 8.12733 17.3029 8.33913 17.3929 8.52746C17.4828 8.7158 17.6296 8.87121 17.8124 8.97184C17.8265 8.98591 17.8452 9.00466 17.8265 9.07028L17.7796 9.25778C17.7796 9.28591 17.7609 9.31872 17.8124 9.30466C17.7604 9.39634 17.7041 9.4855 17.6437 9.57184C17.3812 9.53434 17.1468 9.57184 17.1468 9.86716C17.1468 9.89997 17.1468 9.93747 17.1796 9.86716C17.2265 9.80153 17.2781 9.73591 17.3952 9.70309C17.3296 9.82028 17.2968 9.91872 17.3109 9.98434C17.3109 10.0312 17.3484 10.0687 17.3812 9.98434C17.3952 9.91872 17.4609 9.85309 17.5124 9.80153C17.5452 9.78747 17.5452 9.78747 17.5312 9.83434C17.5124 9.88122 17.5452 9.98434 17.5781 10.0218C17.6109 10.05 17.6249 10.0359 17.6109 9.98434C17.6109 9.91872 17.6109 9.80153 17.6952 9.76872C17.7937 9.70309 17.8968 9.73591 17.9296 9.80153C17.9765 9.88591 18.0093 9.80153 17.9624 9.73591C17.9156 9.67028 17.8593 9.58591 17.7937 9.58591L17.9624 9.30466C17.9624 9.27184 17.9952 9.25778 18.0281 9.27184C18.0281 9.28591 18.0609 9.28591 18.0749 9.23903L18.1921 9.00466L18.2952 8.97184L18.4593 9.22028V9.31872C18.4593 9.38903 18.3937 9.53434 18.3749 9.58591C18.1781 9.58591 18.0796 9.58591 18.0093 9.70309C17.9765 9.74997 18.0281 9.76872 18.0796 9.74997C18.1292 9.72015 18.1858 9.70398 18.2437 9.70309C18.2765 9.70309 18.2906 9.73591 18.2437 9.74997C18.1265 9.80153 18.0421 9.88591 18.0421 10.0031C18.0421 10.0359 18.0796 10.05 18.0937 10.0031C18.1406 9.91872 18.2296 9.85309 18.3093 9.83434C18.3093 9.91872 18.3281 10.05 18.3937 10.0828C18.4406 10.1203 18.4406 10.0828 18.4265 10.0359C18.3937 9.95153 18.4265 9.86716 18.4734 9.82028C18.5577 9.71716 18.7593 9.85309 18.8109 9.88591C18.8437 9.91872 18.8765 9.93278 18.8437 9.83903C18.8249 9.71716 18.6562 9.67028 18.5109 9.63747L18.7077 8.93434C18.7921 8.98591 18.8765 8.85466 19.0077 8.90622C19.2421 9.00466 19.589 9.22028 19.6406 9.27184C19.7062 9.31872 19.7249 9.30466 19.7577 9.27184C19.7906 9.25309 19.8421 9.27184 19.889 9.27184C19.9218 9.28591 19.9546 9.30466 19.9077 9.20622C19.8135 9.02987 19.6765 8.87998 19.5093 8.77028C19.6406 8.77028 19.8046 8.77028 19.8046 8.73747C19.8046 8.70466 19.6077 8.63903 19.5234 8.63903C19.6228 8.62075 19.7153 8.57533 19.7906 8.50778C19.8234 8.47028 19.7906 8.45622 19.6546 8.45622C19.3077 8.45622 19.1249 8.45622 18.9421 8.35778C18.6421 8.18903 18.4593 7.99216 18.3093 7.92184C18.2437 7.87497 18.1921 7.77184 18.1452 7.68747C18.0609 7.44372 18.0609 7.31247 17.8452 7.22341C17.7397 7.19284 17.6282 7.18927 17.5209 7.21302C17.4136 7.23677 17.314 7.28709 17.2312 7.35934Z" fill="black" stroke="black" stroke-width="0.05"/>
<path d="M17.2497 7.42499H16.9638L17.2122 7.49061C17.2591 7.49061 17.2451 7.53749 17.2122 7.52343C17.1794 7.50936 17.1466 7.52343 17.1794 7.55624C17.3482 7.67343 17.381 7.72499 17.3482 8.17499L17.4279 8.24061C17.4607 8.24061 17.4466 8.27343 17.4279 8.25468C17.4138 8.24061 17.3482 8.25468 17.3951 8.28749C17.4419 8.32499 17.4794 8.32499 17.4279 8.32499C17.381 8.32499 17.3294 8.3578 17.4279 8.33905C17.5122 8.33905 17.5638 8.37186 17.4279 8.38593C17.3294 8.38593 17.3622 8.42343 17.4279 8.42343C17.5451 8.42343 17.5122 8.45624 17.4747 8.45624C17.4466 8.45624 17.4279 8.48905 17.5122 8.48905H17.6294C17.6435 8.48905 17.6622 8.48905 17.6294 8.5078C17.5966 8.5078 17.5966 8.54061 17.6435 8.54061C17.6951 8.54061 17.7279 8.54061 17.6763 8.55468C17.6622 8.55468 17.6294 8.57343 17.6763 8.58749C17.7935 8.58749 17.8122 8.6203 17.7794 8.63436C17.7466 8.65311 17.7326 8.65311 17.7794 8.65311C17.8263 8.65311 17.8779 8.67186 17.8263 8.69061C17.7935 8.69061 17.7794 8.72343 17.8263 8.72343C17.8779 8.72343 17.9107 8.75624 17.8779 8.7703C17.8451 8.78905 17.831 8.80311 17.8779 8.80311C17.9247 8.80311 17.9435 8.82186 17.9107 8.83593C17.8779 8.87343 17.8638 8.87343 17.8263 8.83593C17.8263 8.80311 17.7935 8.80311 17.7935 8.83593L17.7607 8.78905C17.7466 8.74218 17.7138 8.74218 17.7138 8.78905C17.7138 8.83593 17.6763 8.80311 17.6435 8.78905C17.7236 8.88243 17.8328 8.94614 17.9536 8.96995C18.0743 8.99375 18.1995 8.97627 18.3091 8.9203C18.3279 8.9203 18.3419 8.9203 18.356 8.96718L18.4591 9.15468C18.4779 9.18749 18.506 9.15468 18.506 9.12186L18.6091 8.84061C18.6091 8.78905 18.6747 8.75624 18.656 8.88749C18.7076 8.85468 18.9091 8.84061 19.0779 8.88749C19.2362 8.95125 19.3858 9.03472 19.5232 9.13593C19.5349 9.14526 19.5486 9.15181 19.5632 9.15506C19.5778 9.15831 19.593 9.15818 19.6076 9.15468C19.6544 9.15468 19.6732 9.15468 19.5888 9.0703C19.5091 8.98593 19.5419 8.95311 19.5888 8.98593C19.6404 9.02343 19.6732 9.00468 19.6216 8.95311L19.4576 8.80311C19.4388 8.80311 19.4388 8.7703 19.3591 8.7703H19.106C19.0732 8.7703 19.0404 8.7703 19.1435 8.80311C19.2372 8.83593 19.4247 8.97186 19.4716 9.00468C19.5232 9.03749 19.5419 9.10311 19.4576 9.03749C19.2682 8.9097 19.0673 8.79985 18.8576 8.70936C18.4122 8.75624 18.0419 8.80311 17.7794 8.52186C17.6435 8.37186 17.6435 8.05311 17.8591 7.92186C17.8263 7.88905 17.8263 7.85624 17.8451 7.85624V7.7578C17.8122 7.73905 17.7794 7.71093 17.7794 7.67343C17.7326 7.67343 17.6951 7.58905 17.6107 7.62655C17.531 7.65936 17.5122 7.62655 17.4794 7.6078C17.4607 7.57499 17.4466 7.57499 17.3951 7.57499C17.3482 7.57499 17.3107 7.57499 17.3107 7.54218C17.3107 7.50936 17.3482 7.50936 17.4138 7.54218C17.531 7.58905 17.6294 7.62655 17.7138 7.50936C17.7794 7.40624 17.6763 7.32186 17.5451 7.29374C17.3951 7.26093 17.2966 7.37343 17.231 7.42499H17.2497Z" fill="white" stroke="black" stroke-width="0.05"/>
<path d="M17.9767 7.37341C17.929 7.33135 17.8732 7.29945 17.8127 7.27966C17.7658 7.27966 17.7658 7.30779 17.7799 7.32654V7.42498C17.8127 7.44373 17.8267 7.47185 17.7799 7.47185C17.747 7.50935 17.7799 7.62654 17.8267 7.58904H17.8595C17.8595 7.58904 17.8595 7.6406 17.897 7.6406C17.9299 7.6406 17.897 7.67341 17.897 7.68748H17.9299C17.9627 7.68748 17.9439 7.75779 17.9111 7.77185C17.958 7.77185 17.9767 7.77185 17.9767 7.80935C17.9955 7.84216 18.0424 7.85623 18.0424 7.9031C18.0424 7.95935 18.0424 7.95935 17.9767 7.9406C17.9111 7.92185 17.9111 7.9406 17.897 7.97341C17.8783 8.00623 17.8595 8.02029 17.897 8.02029C17.9299 8.02029 17.9627 8.03904 17.9111 8.05779C17.8642 8.07185 17.8127 8.05779 17.7939 8.10466C17.7939 8.15623 17.7939 8.17498 17.8267 8.15623L17.9439 8.0906L18.0283 8.10466C18.0611 8.12341 18.0283 8.18904 17.9955 8.15623C17.9627 8.12341 17.9299 8.15623 17.9111 8.17498L17.8267 8.20779C17.7939 8.20779 17.7611 8.20779 17.7799 8.28748C17.7799 8.52185 17.9627 8.6906 18.2955 8.6906H18.8439C18.7408 8.62029 18.6752 8.58748 18.6283 8.58748H18.5767C18.5955 8.57341 18.5767 8.5406 18.558 8.5406C18.5439 8.5406 18.5111 8.50779 18.4783 8.5406L18.3095 8.62029C18.2767 8.62029 18.2299 8.62029 18.2767 8.58748L18.4267 8.52185C18.4595 8.52185 18.4455 8.48904 18.4455 8.48904C18.4455 8.48904 18.4455 8.44216 18.4924 8.45623C18.583 8.52302 18.6845 8.57376 18.7924 8.60623C18.8392 8.60623 18.858 8.57341 18.8252 8.55935C18.8124 8.55212 18.8015 8.54199 18.7934 8.52977C18.7852 8.51756 18.7801 8.50361 18.7783 8.48904C18.7783 8.47029 18.7924 8.45623 18.858 8.48904C18.9249 8.53183 18.9975 8.56497 19.0736 8.58748C19.1252 8.60623 19.158 8.60623 19.0736 8.55466L18.6939 8.27341C18.647 8.22654 18.647 8.27341 18.6611 8.30623C18.6752 8.33904 18.6142 8.3531 18.5767 8.32498C18.5439 8.28748 18.5299 8.27341 18.5767 8.25466C18.6236 8.2406 18.6095 8.22185 18.558 8.17498C18.4924 8.12341 18.4783 8.12341 18.4924 8.17498C18.5111 8.22185 18.5111 8.25466 18.4595 8.2406C18.4127 8.22185 18.3611 8.19373 18.4127 8.17498C18.4455 8.14216 18.4924 8.12341 18.4127 8.07185C18.3283 8.02498 18.3752 8.07185 18.3611 8.10466C18.3424 8.14216 18.2955 8.14216 18.2767 8.10466C18.2627 8.07185 18.2299 8.05779 18.2439 8.03904C18.2627 8.02498 18.2627 8.00623 18.2908 8.03904C18.3283 8.07185 18.3611 8.03904 18.3095 7.99216C18.2627 7.9406 18.2439 7.95935 18.2627 7.99216C18.2767 8.02498 18.2299 8.05779 18.1595 7.99216C18.1267 7.97341 18.1267 7.9406 18.1595 7.92185C18.1924 7.92185 18.1924 7.90779 18.1595 7.87498C18.0424 7.67341 18.0939 7.52341 17.9627 7.37341H17.9767Z" fill="white" stroke="black" stroke-width="0.05"/>
<path d="M17.9862 7.40627C17.9769 7.42502 17.9722 7.42502 17.9534 7.43909C17.9253 7.45315 17.9206 7.50471 17.9628 7.49534C17.9956 7.49534 18.0097 7.4719 18.019 7.46252C18.0098 7.44286 17.9988 7.42404 17.9862 7.40627ZM17.8503 7.29846C17.8175 7.33127 17.8128 7.34534 17.8269 7.34534C17.8503 7.34534 17.8409 7.34534 17.8269 7.36877C17.8128 7.39221 17.855 7.40159 17.8737 7.39221C17.8878 7.37815 17.8925 7.36877 17.9019 7.39221C17.9112 7.40627 17.9347 7.39221 17.9581 7.37346C17.9258 7.34362 17.8895 7.31838 17.8503 7.29846ZM17.7894 7.48596C17.7472 7.5094 17.7659 7.61721 17.8269 7.58909C17.8503 7.57971 17.869 7.57971 17.8644 7.59846V7.62659C17.893 7.61534 17.9186 7.59771 17.9394 7.57502C17.9815 7.52815 17.9394 7.52815 17.8831 7.52815C17.8222 7.52815 17.8034 7.52346 17.8644 7.48596C17.9112 7.45315 17.8784 7.4344 17.8081 7.44377C17.8175 7.45784 17.8081 7.47659 17.7894 7.48596ZM18.0425 7.73909C18.005 7.70627 18.0284 7.68752 18.0659 7.67346L18.08 7.65471L18.0519 7.5469C18.0331 7.5469 18.0144 7.58909 18.005 7.61252C18.0003 7.64065 17.9909 7.6594 17.9628 7.64534C17.9347 7.64065 17.9112 7.66877 17.9065 7.70159H17.9206C17.9347 7.70159 17.944 7.72034 17.9394 7.7344C18.019 7.7344 18.0331 7.78596 18.0425 7.82815C18.0565 7.86565 18.0753 7.85627 18.0894 7.83752C18.0987 7.81409 18.0706 7.7719 18.0425 7.7344V7.73909Z" fill="#CF6200"/>
<path d="M18.0605 8.18901C18.0465 8.22183 18.0465 8.22183 17.9996 8.22183C17.9527 8.22183 17.8965 8.23589 17.873 8.25933C17.859 8.27339 17.7793 8.27808 17.7793 8.31558C17.7793 8.34839 17.7793 8.37651 17.8121 8.3812C17.8449 8.3812 17.8496 8.39058 17.8402 8.41401C17.8262 8.43745 17.8168 8.48433 17.873 8.48433C17.934 8.48901 17.9809 8.47495 17.9949 8.50776C18.009 8.54058 17.9949 8.60151 18.0043 8.61558C18.0184 8.63901 18.0605 8.65308 18.1215 8.67183C18.1684 8.6812 18.323 8.69058 18.3746 8.68589C18.4215 8.67651 18.4074 8.65308 18.3559 8.6437C18.309 8.6437 18.2668 8.63433 18.2527 8.59683C18.2434 8.56401 18.234 8.54526 18.2668 8.51245C18.2902 8.47964 18.3184 8.46089 18.3043 8.40933C18.2855 8.36245 18.2574 8.29683 18.2012 8.28276C18.1449 8.2687 18.1637 8.18901 18.1074 8.18433L18.0605 8.18901Z" fill="#FFFF00"/>
<path d="M17.7797 8.66248C17.8312 8.66248 17.8734 8.67654 17.8359 8.69061C17.7891 8.69998 17.7656 8.72342 17.8219 8.72811C17.8734 8.73279 17.9156 8.75154 17.8781 8.76561C17.8406 8.77967 17.8312 8.80311 17.8781 8.79842C17.925 8.79842 17.9484 8.82654 17.9156 8.84529C17.8828 8.86404 17.8594 8.87811 17.8359 8.84529C17.8172 8.81248 17.8031 8.79842 17.7938 8.82654C17.7891 8.84998 17.775 8.83123 17.7562 8.79373C17.7422 8.75154 17.7094 8.74686 17.7188 8.77498C17.7281 8.80779 17.6859 8.80779 17.6484 8.79373C17.6867 8.83261 17.7292 8.86719 17.775 8.89686C17.8219 8.87811 17.8875 8.89686 17.9062 8.89686C17.925 8.89686 17.9953 8.91561 18.0281 8.92967C18.0656 8.94842 18.0891 8.91561 18.075 8.88279C18.0609 8.83592 18.0562 8.85467 18.0422 8.87342C18.0187 8.89686 18.0187 8.86404 18.0187 8.81717C18.0187 8.78436 17.9953 8.79373 17.9813 8.81717C17.9719 8.84061 17.9578 8.80311 17.9672 8.77967C17.9766 8.75623 17.9672 8.74686 17.9437 8.75154C17.925 8.76092 17.925 8.75154 17.9203 8.70467C17.9203 8.66248 17.9016 8.67186 17.8969 8.68592C17.8875 8.70467 17.8734 8.68123 17.8453 8.64842C17.8219 8.61561 17.7984 8.63436 17.7516 8.65311L17.7844 8.66248H17.7797Z" fill="#CF6200"/>
<path d="M18.3045 8.92498C18.0701 9.02342 17.9013 8.98123 17.7701 8.89217C17.8263 8.87811 17.8873 8.89217 17.906 8.89217C17.9486 8.8999 17.9897 8.91413 18.0279 8.93436C18.0654 8.95311 18.0888 8.91561 18.0748 8.87811C18.1123 8.9203 18.131 8.94842 18.1685 8.94842C18.2154 8.94373 18.2717 8.93905 18.3092 8.92498H18.3045ZM17.8029 7.84217C17.7888 7.7953 17.7748 7.78123 17.7467 7.78123L17.681 7.77186C17.6529 7.7578 17.6107 7.77186 17.6107 7.82342C17.6107 7.87967 17.5732 7.90311 17.531 7.93123C17.4842 7.96405 17.4607 7.99217 17.4607 8.04373C17.4607 8.09061 17.4467 8.10936 17.4232 8.14217L17.3717 8.19842L17.4279 8.23592C17.456 8.2453 17.4467 8.26873 17.4138 8.25936C17.381 8.25467 17.3529 8.26873 17.4045 8.2828C17.4513 8.29217 17.4795 8.31561 17.4326 8.31561C17.381 8.31561 17.3248 8.35311 17.4232 8.34373C17.517 8.33436 17.5545 8.37655 17.442 8.37655C17.3248 8.38592 17.3717 8.42342 17.4326 8.42342C17.5404 8.42342 17.5076 8.45155 17.4795 8.45155C17.4513 8.45155 17.4373 8.48436 17.5076 8.47967H17.5123C17.5217 8.4703 17.531 8.45623 17.5357 8.43748C17.5451 8.40467 17.5592 8.30623 17.6013 8.27342C17.6388 8.2453 17.6623 8.2078 17.6623 8.17967C17.6786 8.10982 17.7125 8.04529 17.7607 7.99217C17.8029 7.95936 17.817 7.88905 17.8076 7.84217H17.8029Z" fill="#FFFF00"/>
<path d="M17.719 7.84219C17.6769 7.81407 17.6347 7.83282 17.6347 7.87969C17.6347 7.93126 17.6112 7.95001 17.5784 7.96407C17.56 7.9752 17.5442 7.99018 17.532 8.00797C17.5199 8.02577 17.5117 8.04596 17.5081 8.06719C17.4987 8.10469 17.5128 8.13282 17.48 8.16563C17.4565 8.19844 17.4472 8.22188 17.4706 8.24063C17.494 8.25938 17.494 8.25938 17.4987 8.28751C17.5081 8.31094 17.555 8.28751 17.555 8.25469C17.555 8.22188 17.569 8.22188 17.6019 8.20782C17.6347 8.18907 17.6862 8.10469 17.6722 8.08126C17.6628 8.06251 17.6347 8.04376 17.6722 8.01094C17.7097 7.97344 17.7472 7.97344 17.7472 7.94063C17.7472 7.90782 17.7565 7.90313 17.7706 7.88907C17.78 7.87969 17.7425 7.86094 17.719 7.84219Z" fill="#CF6200"/>
<path d="M17.7184 7.8C17.6902 7.79062 17.6762 7.84688 17.7137 7.85625C17.7512 7.86094 17.7559 7.80937 17.7137 7.8H17.7184ZM17.709 7.875C17.6856 7.875 17.6481 7.9125 17.6996 7.90781C17.7465 7.90313 17.7652 7.86563 17.709 7.875ZM17.6574 7.94062C17.6246 7.95937 17.634 7.99688 17.6715 7.96875C17.7137 7.93594 17.7277 7.90781 17.6574 7.94531V7.94062ZM17.6106 8.00625C17.5777 8.02031 17.5871 8.05781 17.6293 8.02969C17.6715 8.00156 17.6856 7.96875 17.6106 8.00625Z" fill="black"/>
<path d="M17.5496 8.02965C17.5168 8.04371 17.5403 8.0859 17.5824 8.05778C17.6293 8.03434 17.6246 7.99215 17.5496 8.03434V8.02965ZM17.5824 8.06715C17.5543 8.08121 17.5778 8.1234 17.6153 8.09528C17.6574 8.06715 17.6621 8.02965 17.5824 8.06715Z" fill="black"/>
<path d="M17.536 8.08121C17.5032 8.09996 17.522 8.13746 17.5689 8.10933C17.6157 8.08121 17.6064 8.04371 17.536 8.08121ZM17.5689 8.12808C17.536 8.14215 17.5548 8.17965 17.6017 8.15152C17.6439 8.1234 17.6392 8.09058 17.5642 8.12808H17.5689Z" fill="black"/>
<path d="M17.5172 8.15153C17.4844 8.16559 17.5079 8.20309 17.5547 8.17497C17.6016 8.15153 17.5876 8.11403 17.5172 8.15153Z" fill="black"/>
<path d="M17.5214 8.189C17.4886 8.20307 17.5073 8.24057 17.5542 8.21244C17.6011 8.189 17.5917 8.1515 17.5214 8.189Z" fill="black"/>
<path d="M17.4986 8.55466C17.4657 8.55466 17.4517 8.60154 17.4845 8.60623C17.522 8.6156 17.5314 8.6156 17.5314 8.64841C17.5314 8.67654 17.5407 8.71404 17.5829 8.71873C17.6251 8.71873 17.6626 8.67185 17.6251 8.66248C17.5876 8.64841 17.5548 8.63435 17.5548 8.60623C17.5548 8.56873 17.522 8.54998 17.4986 8.55466Z" fill="#CF6200"/>
<path d="M18.5625 8.30625L18.5766 8.32501C18.6047 8.34844 18.661 8.325 18.6516 8.30625C18.6469 8.28282 18.6188 8.22188 18.6844 8.27344L19.0829 8.55C19.1625 8.60625 19.111 8.61563 19.0735 8.59688L18.8625 8.49844C18.7969 8.46094 18.7922 8.475 18.7782 8.48438C18.7735 8.49844 18.7782 8.52188 18.8016 8.54532C18.7641 8.55 18.7032 8.54532 18.6844 8.49844C18.661 8.45157 18.6094 8.39063 18.5766 8.34375C18.5625 8.325 18.5532 8.31563 18.5579 8.30625H18.5625Z" fill="#FFFF00"/>
<path d="M20.7044 15.3844C20.6481 15.4172 20.5731 15.4828 20.6247 15.5719L20.6388 15.5625C20.8459 15.3111 21.0295 15.0412 21.1872 14.7562V14.7328C21.1307 14.7808 21.0676 14.8203 20.9997 14.85C21.0231 14.9203 20.9059 15.0094 20.8356 15.0375C20.8638 15.0844 20.8544 15.1453 20.7981 15.1594C20.8122 15.1969 20.7653 15.1969 20.7184 15.2203C20.6669 15.2437 20.6388 15.2531 20.6247 15.2859C20.6481 15.2672 20.6903 15.2531 20.7091 15.2625C20.7278 15.2719 20.7372 15.3 20.695 15.3094C20.6575 15.3187 20.6294 15.3375 20.62 15.3562C20.6763 15.3375 20.7559 15.3469 20.6997 15.3844H20.7044Z" fill="#00D860"/>
<path d="M18.1406 8.22183C18.0796 8.17496 18.0609 8.20777 18.0796 8.22183C18.0937 8.24058 18.0796 8.28746 18.0281 8.30621H17.8593C17.8265 8.30621 17.7796 8.37183 17.8593 8.35308L18.1265 8.30621C18.1593 8.30621 18.1921 8.2734 18.1265 8.22183H18.1406ZM18.2624 8.32496C18.2109 8.2734 18.1921 8.28746 18.2109 8.32496C18.2296 8.35777 18.1921 8.37183 18.164 8.37183L17.9296 8.43746C17.8593 8.43746 17.8593 8.48902 17.9437 8.48902C18.0281 8.48902 18.1921 8.40465 18.2109 8.40465C18.2296 8.40465 18.2437 8.35777 18.2578 8.37183C18.2765 8.39058 18.3093 8.37183 18.2578 8.32496H18.2624ZM18.3093 8.45621L18.1453 8.54058C18.0984 8.54058 18.0609 8.58746 18.1453 8.58746C18.2296 8.58746 18.3093 8.50777 18.3421 8.48902L18.4124 8.45621C18.4124 8.45621 18.4781 8.43746 18.4124 8.39058C18.3421 8.34371 18.2765 8.39058 18.3093 8.40465C18.3421 8.4234 18.3093 8.45152 18.3093 8.45152V8.45621Z" fill="black" stroke="black" stroke-width="0.05"/>
<path d="M17.6294 7.37339C17.5262 7.30777 17.4044 7.44839 17.5216 7.52808C17.6247 7.59839 17.7325 7.43902 17.6294 7.37339Z" fill="black"/>
<path d="M17.4988 7.43909H17.5317C17.5223 7.4719 17.5551 7.51877 17.6067 7.5094C17.5645 7.53752 17.4895 7.50471 17.4988 7.43909ZM17.9114 9.0094C17.9442 9.01877 18.052 9.03284 18.0895 9.03284L18.0426 9.12659C18.0285 9.15471 18.0239 9.1594 18.0239 9.11721C18.0239 9.07034 17.9957 9.04221 17.977 9.08909L17.9301 9.16877C17.9207 9.18752 17.902 9.1969 17.9067 9.15002V9.01409L17.9114 9.0094Z" fill="white"/>
<path d="M22.0824 10.2844C22.0824 12.9937 21.6512 15.9187 18.1262 17.3156C14.6199 15.9187 14.1887 12.9937 14.1699 10.2844M22.0824 10.2844H14.1699M22.0824 10.2844C22.0824 9.25311 22.0355 8.25467 22.0496 7.39217C20.7991 6.90641 19.4676 6.66302 18.1262 6.67498C17.2449 6.67498 15.5152 6.81092 14.2027 7.39217C14.2355 8.25467 14.1699 9.25311 14.1699 10.2844" stroke="black" stroke-width="0.1375"/>
<path d="M0 0H12V12H0V0Z" fill="#012169"/>
<path d="M12 0V1.5L7.54688 6L12 10.3828V12H10.4297L5.95312 7.59375L1.59375 12H0V10.4062L4.35938 6.02344L0 1.73438V0H1.45312L5.95312 4.40625L10.3125 0H12Z" fill="white"/>
<path d="M4.3125 7.59375L4.57031 8.39062L0.984375 12H0V11.9297L4.3125 7.59375ZM7.21875 7.3125L8.48438 7.5L12 10.9453V12L7.21875 7.3125ZM12 0L7.5 4.59375L7.40625 3.5625L10.9219 0H12ZM0 0.0234375L4.52344 4.45312L3.14062 4.26562L0 1.14844V0.0234375Z" fill="#C8102E"/>
<path d="M4.125 0V12H7.875V0H4.125ZM0 4.125V7.875H12V4.125H0Z" fill="white"/>
<path d="M0 4.875V7.125H12V4.875H0ZM4.875 0V12H7.125V0H4.875Z" fill="#C8102E"/>
</g>
<defs>
<clipPath id="clip0_208_8843">
<rect width="24" height="24" rx="12" fill="white"/>
</clipPath>
</defs>
</svg>
