<svg width="24" height="24" viewBox="0 0 24 24" fill="none" xmlns="http://www.w3.org/2000/svg">
<g clip-path="url(#clip0_208_22149)">
<path d="M0 8.00159H24V15.9985H0V8.00159Z" fill="white"/>
<path d="M0 0H24V8.00156H0V0Z" fill="#CE1126"/>
<path d="M0 15.9984H24V24H0V15.9984Z" fill="black"/>
<path d="M15.5455 10.5301C15.4999 10.5082 15.4584 10.4786 15.4229 10.4425C15.3966 10.3987 15.4141 10.3987 15.528 10.425C15.7294 10.4863 15.8608 10.46 15.9922 10.3549L16.1061 10.2586L16.2375 10.3199C16.3163 10.3637 16.3951 10.3899 16.4126 10.3812C16.474 10.3637 16.5966 10.206 16.5878 10.1534C16.5878 10.0921 16.6404 10.1097 16.6754 10.1797C16.728 10.3199 16.6491 10.4863 16.5002 10.5213C16.4389 10.5388 16.3776 10.5301 16.2725 10.4951C16.1499 10.4513 16.1236 10.4513 16.0623 10.4951C15.9889 10.5505 15.9009 10.5834 15.8091 10.5896C15.7173 10.5958 15.6257 10.5751 15.5455 10.5301ZM16.0535 10.0659C15.9942 9.95873 15.964 9.83793 15.9659 9.7155C15.9747 9.66294 15.9922 9.64542 16.036 9.66294C16.1236 9.68922 16.1411 9.75053 16.1236 9.92571C16.1236 10.0834 16.0973 10.1272 16.0535 10.0659ZM10.1324 9.89944C10.1236 10.0133 10.3426 10.3024 10.439 10.3549C10.3689 10.3812 10.2901 10.3724 10.2287 10.3987C9.87838 10.7491 8.61707 11.9753 8.38934 12.2731C9.07254 12.2907 9.82582 12.2644 10.4652 12.2381C10.4652 11.7739 10.9032 11.7476 11.201 11.5812C11.3499 11.8177 11.7265 11.8002 11.7791 12.1593V13.7009H5.95432C5.93229 13.8178 5.88596 13.9287 5.81833 14.0266C5.75069 14.1244 5.66327 14.207 5.56171 14.2689C5.46016 14.3308 5.34673 14.3707 5.22877 14.3861C5.11081 14.4014 4.99096 14.3917 4.87695 14.3578C5.05213 14.1826 5.34994 14.1125 5.45505 13.8585C5.54264 13.298 5.27987 12.9563 5.10469 12.6323C5.32503 12.5616 5.53219 12.4551 5.71782 12.3169C5.51637 12.9301 6.26088 12.8688 6.80395 12.8512C6.82146 12.641 6.81271 12.3958 6.65504 12.3607C6.8565 12.2819 6.89154 12.2556 7.23314 11.9753V12.8162L11.2711 12.8074C11.2711 12.5447 11.3411 12.1155 11.1309 12.1155C10.9382 12.1155 11.1309 12.6585 10.9733 12.6585H7.84628V12.133C7.97766 11.9929 7.96014 12.0016 8.86233 11.0994C8.94992 11.0118 9.58933 10.4337 10.1411 9.89944H10.1324ZM17.9367 9.87316C18.1557 9.99579 18.3309 10.1534 18.5936 10.2235C18.5674 10.3374 18.4623 10.3812 18.436 10.4951V12.86C18.7338 12.9213 18.8039 12.7461 18.944 12.6585C18.979 13.0352 19.2243 13.4031 19.2068 13.7096H17.9367V9.88192V9.87316ZM16.2375 11.1432C16.2375 11.1432 16.7017 10.7491 16.7017 10.7315V12.7899H17.0345L17.0258 10.4863C17.1572 10.3461 17.4287 10.1534 17.49 10.0133V13.6921H14.5645C14.5207 12.9301 14.5119 12.1418 15.4053 12.3082V12.0016C15.3791 11.9491 15.3265 12.0104 15.3178 11.9403C15.4579 11.8002 15.5017 11.7651 15.8871 11.4323L15.8959 12.7899H16.2375V11.1432ZM15.1338 12.7724C15.1951 12.86 15.4141 12.86 15.3966 12.7023C15.3703 12.571 15.09 12.6147 15.1338 12.7724Z" fill="#007A3D"/>
<path d="M6.65467 14.314C6.75142 14.314 6.82985 14.2356 6.82985 14.1388C6.82985 14.0421 6.75142 13.9636 6.65467 13.9636C6.55792 13.9636 6.47949 14.0421 6.47949 14.1388C6.47949 14.2356 6.55792 14.314 6.65467 14.314Z" fill="#007A3D"/>
<path d="M12.1729 9.88196C12.3918 9.99583 12.567 10.1622 12.8385 10.2323C12.8035 10.3374 12.7072 10.3812 12.6809 10.4951V12.86C12.9787 12.9214 13.04 12.7549 13.1801 12.6586C13.2239 13.0352 13.4604 13.4119 13.4517 13.7097H12.1729V9.88196Z" fill="#007A3D"/>
</g>
<defs>
<clipPath id="clip0_208_22149">
<rect width="24" height="24" rx="12" fill="white"/>
</clipPath>
</defs>
</svg>
