<svg width="24" height="24" viewBox="0 0 24 24" fill="none" xmlns="http://www.w3.org/2000/svg">
<g clip-path="url(#clip0_208_25609)">
<mask id="mask0_208_25609" style="mask-type:luminance" maskUnits="userSpaceOnUse" x="-1" y="0" width="25" height="24">
<path d="M-0.000976562 0H23.9976V23.9986H-0.000976562V0Z" fill="white"/>
</mask>
<g mask="url(#mask0_208_25609)">
<path fill-rule="evenodd" clip-rule="evenodd" d="M-2.90625 0H45.0958V23.9986H-2.90625V0Z" fill="white"/>
<path fill-rule="evenodd" clip-rule="evenodd" d="M-2.90625 16.0022H45.0958V23.9985H-2.90625V16.0022Z" fill="#D50000"/>
<path fill-rule="evenodd" clip-rule="evenodd" d="M-2.90625 8.00122H45.0958V16.0024H-2.90625V8.00122Z" fill="#0000BF"/>
<path fill-rule="evenodd" clip-rule="evenodd" d="M10.7027 4.35774C10.5145 7.24838 10.4083 8.83124 9.96918 9.56476C9.49143 10.3514 9.02815 10.9256 7.17022 11.6205C5.31712 10.9256 4.85385 10.3514 4.3761 9.56476C3.94178 8.83124 3.83078 7.24838 3.64258 4.35774L3.91765 4.26605C4.46779 4.09715 4.8828 3.96202 5.18683 3.90411C5.62115 3.8076 5.99273 3.70626 7.1654 3.68213C8.33806 3.70143 8.70965 3.81242 9.14397 3.90411C9.45282 3.96685 9.88231 4.09715 10.4276 4.26605L10.7027 4.36256V4.35774Z" fill="#D50000"/>
<path fill-rule="evenodd" clip-rule="evenodd" d="M10.4318 4.26117C10.2532 7.14698 10.1085 8.46925 9.87201 9.10142C9.42321 10.1921 8.70899 10.7904 7.16957 11.3551C5.63497 10.7856 4.92076 10.1921 4.46713 9.10142C4.23549 8.46925 4.08589 7.15181 3.91699 4.26117C4.45748 4.09226 4.88215 3.96197 5.18617 3.89923C5.62049 3.80754 5.99208 3.69655 7.16474 3.67725C8.33741 3.69655 8.71382 3.80754 9.14814 3.89923C9.45699 3.96197 9.88648 4.09226 10.4318 4.26117Z" fill="#0000BF"/>
<path fill-rule="evenodd" clip-rule="evenodd" d="M7.1703 5.14429L7.24269 5.32284L7.56601 5.36627L7.3585 5.49174L7.56119 5.62687L7.26682 5.67512L7.17513 5.83437L7.07861 5.6703L6.78906 5.63169L6.98209 5.49174L6.78906 5.36627L7.09791 5.31802L7.1703 5.14429Z" fill="#FFDF00"/>
<path fill-rule="evenodd" clip-rule="evenodd" d="M9.76107 8.42099L9.58252 8.27622L9.45222 8.06388L9.20128 7.8419L9.06616 7.61991L8.81522 7.3931L8.68975 7.17112L8.55463 7.06012L8.46294 6.97808L8.23612 7.17594L8.11065 7.39793L7.9514 7.53787L7.7825 7.40275L7.6522 7.17594L7.16963 6.32178L6.68705 7.17594L6.56158 7.40275L6.38785 7.53787L6.23342 7.3931L6.10795 7.17594L5.88114 6.97808L5.78945 7.06012L5.65433 7.17112L5.52886 7.3931L5.27792 7.61991L5.1428 7.8419L4.88703 8.06388L4.76156 8.27622L4.58301 8.42099C4.68603 9.0647 4.99009 9.65931 5.45165 10.1197C5.7605 10.414 6.39268 10.8146 7.1648 11.08C7.79891 10.8792 8.38521 10.5507 8.8876 10.1148C9.35004 9.65642 9.65575 9.06357 9.76107 8.42099Z" fill="white"/>
<path fill-rule="evenodd" clip-rule="evenodd" d="M7.94209 3.93305L8.01448 4.10678L8.3378 4.15503L8.13029 4.27568L8.33298 4.41563L8.0386 4.46388L7.94691 4.62314L7.8504 4.45906L7.56568 4.42045L7.75871 4.27568L7.56085 4.15503L7.8697 4.10678L7.94209 3.93305ZM6.39784 3.93305L6.47023 4.10195L6.79355 4.15021L6.58604 4.27568L6.78873 4.4108L6.49435 4.45906L6.40266 4.61831L6.30132 4.45423L6.02143 4.41563L6.21446 4.27568L6.0166 4.15021L6.32545 4.10195L6.39784 3.92822V3.93305Z" fill="#FFDF00"/>
<path fill-rule="evenodd" clip-rule="evenodd" d="M9.36126 9.51641H9.0138L8.69048 9.49228L8.29959 9.29925L7.85562 9.30407L7.47438 9.49228L7.17518 9.51641L6.87116 9.49228L6.48992 9.30407H6.05077L5.65988 9.49711L5.33656 9.51641H4.97945L4.81055 9.22686L4.81537 9.21721L5.34138 9.30407L5.65988 9.27995L6.05077 9.08691H6.49475L6.88081 9.27995L7.18001 9.30407L7.4792 9.27512L7.86527 9.09174H8.29959L8.6953 9.27995L9.01863 9.30407L9.52534 9.21238L9.53499 9.22686L9.36126 9.51641ZM5.3076 9.96521L5.65506 9.94108L6.04595 9.74805H6.48509L6.87116 9.93625L7.17035 9.96521L7.46955 9.93625L7.85562 9.74805H8.29476L8.68565 9.94108L9.03793 9.96521L9.26474 9.68531L9.25509 9.67566L9.0138 9.74805L8.69048 9.72392L8.29959 9.53089H7.86044L7.47438 9.72392L7.17518 9.74805L6.87598 9.72392L6.48992 9.53089H6.05077L5.65988 9.72392L5.33656 9.74805L5.09527 9.69014V9.69979L5.3076 9.96521Z" fill="#0000BF"/>
</g>
</g>
<defs>
<clipPath id="clip0_208_25609">
<rect width="24" height="24" rx="12" fill="white"/>
</clipPath>
</defs>
</svg>
