<svg width="24" height="24" viewBox="0 0 24 24" fill="none" xmlns="http://www.w3.org/2000/svg">
<g clip-path="url(#clip0_208_26907)">
<path fill-rule="evenodd" clip-rule="evenodd" d="M0 0H24V24H0V0Z" fill="black"/>
<path fill-rule="evenodd" clip-rule="evenodd" d="M15.998 0H23.9996V24H15.998V0Z" fill="#009900"/>
<path fill-rule="evenodd" clip-rule="evenodd" d="M8.00195 0H15.9988V24H8.00195V0Z" fill="#BF0000"/>
<path fill-rule="evenodd" clip-rule="evenodd" d="M12.7754 13.0242H13.1045C13.1045 13.1511 13.1839 13.2859 13.283 13.3613H12.6484C12.7476 13.274 12.7754 13.163 12.7754 13.0242Z" fill="white" stroke="#BD6B00" stroke-width="0.0528819"/>
<path fill-rule="evenodd" clip-rule="evenodd" d="M10.6807 11.1483L10.8631 11.3466L13.1238 11.3546L13.3062 11.1563L12.7272 11.1444L12.4496 10.946H11.5373L11.2756 11.1483H10.6807Z" fill="white"/>
<path fill-rule="evenodd" clip-rule="evenodd" d="M11.6046 10.9181H12.386C12.4891 10.8626 12.5248 10.6841 12.5248 10.585C12.5248 10.2915 12.3146 10.1487 12.1083 10.1408C12.0766 10.1408 12.0409 10.117 12.033 10.0892C12.0132 10.0258 12.0171 9.98212 11.9933 9.98609C11.9775 9.98609 11.9814 10.0258 11.9656 10.0813C11.9537 10.113 11.9219 10.1408 11.8862 10.1447C11.6324 10.1566 11.4658 10.343 11.4698 10.585C11.4738 10.7436 11.4936 10.8388 11.6046 10.9181Z" fill="white" stroke="#BD6B00" stroke-width="0.0528819"/>
<path fill-rule="evenodd" clip-rule="evenodd" d="M10.3243 13.6985H13.6677L13.3703 13.4565H10.6178L10.3203 13.6985H10.3243Z" fill="white"/>
<path fill-rule="evenodd" clip-rule="evenodd" d="M11.8585 12.7822L11.918 12.9646H12.0568L11.9457 12.7822H11.8585ZM11.7792 12.9646L11.8188 13.1471H11.9775L11.918 12.9646H11.7792ZM12.0568 12.9646L12.1678 13.1471H12.4018L12.2194 12.9646H12.0568ZM10.6885 13.3771C10.8114 13.2621 10.8907 13.1669 10.8907 13.0281H11.1922C11.1922 13.1074 11.2199 13.151 11.2636 13.1471H11.569V12.9686H11.3469V11.989C11.3389 11.6399 11.7673 11.4416 11.9418 11.4416H10.8987V11.4099H13.092V11.4416H12.0409C12.3543 11.4416 12.6557 11.7391 12.6596 11.989V12.2666H12.62L12.616 11.9929C12.616 11.7193 12.271 11.4654 11.9933 11.4734C11.7554 11.4773 11.3826 11.7074 11.3865 11.989V12.0762L11.9537 12.0802L11.9497 12.1793L12.037 12.2349L12.2154 12.2904V12.4411L12.3424 12.4768V12.6236L12.4931 12.691V12.8417L12.5922 12.9012L12.5883 13.0559L12.7191 13.1471H12.4098L12.6041 13.3652H12.3146L12.1718 13.1471H11.9854L12.0687 13.3613H11.8704L11.8188 13.1471H11.5729V13.3771H10.6924H10.6885ZM11.569 12.7822V12.9646H11.7792L11.7395 12.7822H11.565H11.569Z" fill="white"/>
<path d="M11.918 12.9646L11.8585 12.7822H11.9457L12.0568 12.9646M11.918 12.9646H12.0568M11.918 12.9646L11.9775 13.1471H11.8188M11.918 12.9646H11.7792M12.0568 12.9646L12.1678 13.1471H12.4018L12.2194 12.9646H12.0568ZM11.7792 12.9646L11.8188 13.1471M11.7792 12.9646H11.569V12.7822H11.565H11.7395L11.7792 12.9646ZM11.8188 13.1471L11.8704 13.3613H12.0687L11.9854 13.1471H12.1718L12.3146 13.3652H12.6041L12.4098 13.1471H12.7191L12.5883 13.0559L12.5922 12.9012L12.4931 12.8417V12.691L12.3424 12.6236V12.4768L12.2154 12.4411V12.2904L12.037 12.2349L11.9497 12.1793L11.9537 12.0802L11.3865 12.0762V11.989C11.3826 11.7074 11.7554 11.4773 11.9933 11.4734C12.271 11.4654 12.616 11.7193 12.616 11.9929L12.62 12.2666H12.6596V11.989C12.6557 11.7391 12.3543 11.4416 12.0409 11.4416H13.092V11.4099H10.8987V11.4416H11.9418C11.7673 11.4416 11.3389 11.6399 11.3469 11.989V12.9686H11.569V13.1471H11.2636C11.2199 13.151 11.1922 13.1074 11.1922 13.0281H10.8907C10.8907 13.1669 10.8114 13.2621 10.6885 13.3771H10.6924H11.5729V13.1471H11.8188Z" stroke="#BD6B00" stroke-width="0.0528819"/>
<path fill-rule="evenodd" clip-rule="evenodd" d="M11.5811 12.4651H11.7119V12.7665H11.5811V12.4651Z" stroke="#BD6B00" stroke-width="0.0528819"/>
<path fill-rule="evenodd" clip-rule="evenodd" d="M11.3945 12.7862H11.5214V12.5641C11.5214 12.4689 11.6087 12.3698 11.6484 12.3658C11.696 12.3658 11.7634 12.457 11.7673 12.5562V12.7862H11.9022V12.2151H11.3945V12.7862ZM12.4099 12.9171H12.5685V13.044H12.4099V12.9171ZM12.3147 12.7069H12.4733V12.8298H12.3147V12.7069ZM12.16 12.4927H12.3186V12.6157H12.16V12.4927ZM12.0291 12.3142H12.1878V12.4372H12.0291V12.3142Z" stroke="#BD6B00" stroke-width="0.0528819"/>
<path fill-rule="evenodd" clip-rule="evenodd" d="M11.9219 12.7862L12.0885 12.7941L12.378 13.0479V12.8972L12.2788 12.8258V12.7068L12.136 12.6275V12.4966L11.9972 12.449V12.2785L11.9298 12.219L11.9258 12.7901L11.9219 12.7862Z" stroke="#BD6B00" stroke-width="0.0528819"/>
<path fill-rule="evenodd" clip-rule="evenodd" d="M12.6123 12.4094H12.652V12.691H12.6123V12.4094Z" fill="white" stroke="#BD6B00" stroke-width="0.0528819"/>
<path fill-rule="evenodd" clip-rule="evenodd" d="M10.308 11.4657C10.2604 11.3864 10.2009 11.5768 9.99862 11.7156C9.90739 11.779 9.83997 11.9496 9.83997 12.0606C9.83997 12.1399 9.8479 12.2153 9.83997 12.2907C9.836 12.3343 9.78444 12.4414 9.82014 12.4691C9.90739 12.5326 10.0224 12.6833 10.074 12.7349C10.1216 12.7745 10.1612 12.5247 10.193 12.4176C10.2326 12.2986 10.2168 12.1518 10.3199 12.0448C10.3913 11.9654 10.5737 11.894 10.5578 11.8623L10.308 11.4657Z" fill="white" stroke="#BD6B00" stroke-width="0.0528819"/>
<path fill-rule="evenodd" clip-rule="evenodd" d="M10.2959 12.0764C10.2801 12.039 10.2587 12.0042 10.2324 11.9733C10.2071 11.942 10.1744 11.9174 10.1372 11.9019C10.1007 11.8911 10.0678 11.8705 10.0421 11.8424C10.0269 11.8254 10.016 11.805 10.0103 11.7829C10.0058 11.7567 10.0058 11.7299 10.0103 11.7036L9.99843 11.7155C9.90721 11.779 9.83979 11.9495 9.83979 12.0606C9.83856 12.091 9.83856 12.1214 9.83979 12.1518C9.84772 12.1716 9.85169 12.1914 9.86358 12.2033L9.90721 12.2351L10.0143 12.2628C10.0544 12.2809 10.0897 12.308 10.1174 12.3422C10.1463 12.3727 10.1704 12.4075 10.1888 12.4453L10.1967 12.4136C10.2285 12.3065 10.2245 12.1795 10.2999 12.0764H10.2959Z" fill="#BF0000" stroke="#BD6B00" stroke-width="0.0528819"/>
<path d="M10.0105 11.6997C9.99068 11.8306 10.066 11.8782 10.1374 11.902C10.2088 11.9297 10.2683 12.0051 10.2961 12.0765M9.83203 12.136C9.86376 12.255 9.94308 12.2391 10.0145 12.2629C10.0859 12.2907 10.1612 12.3819 10.1929 12.4533" stroke="#BD6B00" stroke-width="0.0528819"/>
<path fill-rule="evenodd" clip-rule="evenodd" d="M10.2402 11.3863L10.2799 11.3625L10.9819 12.5484L10.9422 12.5722L10.2402 11.3824V11.3863Z" fill="white" stroke="#BD6B00" stroke-width="0.0528819"/>
<path fill-rule="evenodd" clip-rule="evenodd" d="M10.3159 11.3387C10.3159 11.3597 10.3075 11.3799 10.2926 11.3948C10.2778 11.4097 10.2576 11.418 10.2365 11.418C10.2155 11.418 10.1953 11.4097 10.1805 11.3948C10.1656 11.3799 10.1572 11.3597 10.1572 11.3387C10.1572 11.3177 10.1656 11.2975 10.1805 11.2826C10.1953 11.2677 10.2155 11.2594 10.2365 11.2594C10.2576 11.2594 10.2778 11.2677 10.2926 11.2826C10.3075 11.2975 10.3159 11.3177 10.3159 11.3387ZM10.9187 10.3868H11.2043V10.4503H10.9187V10.3868ZM10.9187 10.5098H11.2043V11.0571H10.9187V10.5098ZM10.9029 10.3115H11.2202C11.2281 10.2044 11.121 10.0894 11.0615 10.0894C10.998 10.0933 10.8989 10.2083 10.9029 10.3115Z" fill="white" stroke="#BD6B00" stroke-width="0.0528819"/>
<path fill-rule="evenodd" clip-rule="evenodd" d="M11.7077 10.2479C11.6483 10.2717 11.6007 10.3391 11.5729 10.4185C11.5451 10.4978 11.5332 10.589 11.5491 10.6604C11.5491 10.6881 11.561 10.704 11.5689 10.7199C11.5769 10.7318 11.5848 10.7397 11.5927 10.7397C11.6046 10.7397 11.6165 10.7397 11.6205 10.7278L11.6284 10.6961C11.6245 10.6168 11.6245 10.5454 11.6403 10.4819C11.658 10.4114 11.7001 10.3496 11.7593 10.3074C11.7712 10.2995 11.7752 10.2876 11.7791 10.2796C11.779 10.2692 11.7747 10.2592 11.7672 10.2519C11.7514 10.24 11.7276 10.236 11.7077 10.2479ZM11.7157 10.2638C11.7315 10.2558 11.7474 10.2638 11.7553 10.2677L11.7593 10.2757C11.7593 10.2796 11.7593 10.2836 11.7474 10.2915C11.6865 10.3362 11.643 10.4007 11.6245 10.474C11.608 10.5468 11.604 10.6219 11.6126 10.6961C11.6126 10.7047 11.6098 10.713 11.6046 10.7199C11.6046 10.7199 11.6046 10.7238 11.5967 10.7199C11.5967 10.7199 11.5888 10.7199 11.5808 10.708C11.573 10.6931 11.5676 10.677 11.565 10.6604C11.5531 10.589 11.565 10.5017 11.5927 10.4224C11.6205 10.351 11.6641 10.2876 11.7117 10.2638H11.7157Z" fill="#BD6B00"/>
<path fill-rule="evenodd" clip-rule="evenodd" d="M11.8104 10.3235C11.7509 10.3512 11.7112 10.4147 11.6914 10.49C11.6703 10.5662 11.6663 10.6461 11.6795 10.724C11.6874 10.7756 11.7191 10.8034 11.7429 10.8034C11.7548 10.8073 11.7667 10.8034 11.7747 10.7915C11.7826 10.7796 11.7866 10.7677 11.7826 10.7518C11.7667 10.6883 11.7628 10.617 11.7707 10.5495C11.7826 10.4821 11.8104 10.4226 11.858 10.3869C11.8699 10.375 11.8778 10.3671 11.8778 10.3552C11.8782 10.3509 11.8776 10.3466 11.8763 10.3425C11.8749 10.3384 11.8727 10.3346 11.8699 10.3314C11.854 10.3195 11.8302 10.3155 11.8104 10.3235ZM11.8183 10.3433C11.8342 10.3354 11.85 10.3393 11.858 10.3433L11.8619 10.3552L11.85 10.3711C11.8234 10.3924 11.8013 10.4188 11.7849 10.4488C11.7686 10.4787 11.7584 10.5116 11.7548 10.5456C11.7429 10.617 11.7509 10.6923 11.7628 10.7518C11.7667 10.7677 11.7628 10.7756 11.7628 10.7835L11.7429 10.7875C11.731 10.7875 11.7033 10.7677 11.6953 10.7201C11.6834 10.6527 11.6874 10.5654 11.7072 10.494C11.7271 10.4226 11.7667 10.3631 11.8183 10.3433Z" fill="#BD6B00"/>
<path fill-rule="evenodd" clip-rule="evenodd" d="M10.9026 11.5012H11.2199V11.9375H10.9026V11.5012ZM10.9224 12.1913H11.2278V12.2865H10.9224V12.1913ZM10.9145 12.3539H11.2318V12.699H10.9145V12.3539ZM10.8907 12.7704H11.2357V12.9647H10.8907V12.7704ZM10.9343 12.112H11.2119L11.2675 12.0168H10.8867L10.9343 12.112ZM11.3071 11.7709L11.3111 11.5329H11.5015C11.4196 11.5967 11.3532 11.678 11.3071 11.7709Z" fill="white" stroke="#BD6B00" stroke-width="0.0528819"/>
<path fill-rule="evenodd" clip-rule="evenodd" d="M10.9541 11.8702C10.9541 11.9217 11.0136 11.9019 11.0136 11.8741V11.652C11.0136 11.6124 11.1088 11.6203 11.1088 11.6481V11.886C11.1088 11.9257 11.1762 11.9217 11.1722 11.886V11.6084C11.1722 11.5211 10.9541 11.5251 10.9541 11.6044V11.8702ZM10.9541 12.3977H11.1802V12.6753H10.9541V12.3977Z" stroke="#BD6B00" stroke-width="0.0528819"/>
<path fill-rule="evenodd" clip-rule="evenodd" d="M11.0973 12.5166H11.1766V12.5563H11.0973V12.5166ZM10.9585 12.5166H11.0378V12.5563H10.9585V12.5166ZM11.0378 12.3976H11.0973V12.5166H11.0378V12.3976ZM11.0378 12.5563H11.0973V12.6792H11.0378V12.5563ZM9.78051 9.58169C9.79638 9.79982 9.72499 9.92277 9.60997 9.90294C9.57824 9.78396 9.64963 9.70067 9.78051 9.58169ZM9.52272 10.0695C9.4196 10.018 9.49495 9.61342 9.53461 9.44287C9.56238 9.66101 9.61394 9.97037 9.52272 10.0695Z" fill="white"/>
<path d="M11.0973 12.5166H11.1766V12.5563H11.0973M11.0973 12.5166V12.5563M11.0973 12.5166V12.3976H11.0378V12.5166M11.0973 12.5166H11.0378M11.0973 12.5563H11.0378M11.0973 12.5563V12.6792H11.0378V12.5563M11.0378 12.5166H10.9585V12.5563H11.0378M11.0378 12.5166V12.5563M9.78051 9.58169C9.79638 9.79982 9.72499 9.92277 9.60997 9.90294C9.57824 9.78396 9.64963 9.70067 9.78051 9.58169ZM9.52272 10.0695C9.4196 10.018 9.49495 9.61342 9.53461 9.44287C9.56238 9.66101 9.61394 9.97037 9.52272 10.0695Z" stroke="#BD6B00" stroke-width="0.0528819"/>
<path fill-rule="evenodd" clip-rule="evenodd" d="M9.55788 10.0893C9.73239 10.1488 9.87517 9.96238 9.9188 9.74424C9.77602 9.94255 9.54202 9.94254 9.56185 10.0893H9.55788ZM9.427 10.2916C9.29215 10.2559 9.37147 9.82753 9.39924 9.65698C9.427 9.83546 9.52219 10.2321 9.427 10.2916ZM9.47459 10.2797C9.48253 10.1329 9.62927 10.1726 9.73239 10.0933C9.71256 10.1726 9.65307 10.2995 9.47459 10.2797ZM9.30802 10.478C9.17317 10.4383 9.25249 9.97824 9.24456 9.78787C9.28422 9.95444 9.41114 10.4343 9.30802 10.478ZM9.37147 10.4581C9.48253 10.4938 9.62927 10.4185 9.64117 10.2876C9.54202 10.355 9.3913 10.3035 9.37147 10.4581Z" fill="white" stroke="#BD6B00" stroke-width="0.0528819"/>
<path fill-rule="evenodd" clip-rule="evenodd" d="M9.20458 10.6802C9.07766 10.6921 9.13319 10.2995 9.13319 9.93457C9.18078 10.2757 9.31166 10.589 9.20458 10.6802Z" fill="white" stroke="#BD6B00" stroke-width="0.0528819"/>
<path fill-rule="evenodd" clip-rule="evenodd" d="M9.25293 10.6644C9.34018 10.7041 9.49486 10.6367 9.53849 10.4899C9.37985 10.5573 9.27673 10.4899 9.25293 10.6644ZM10.2683 9.78394C10.2445 9.97828 10.1651 10.0893 10.0501 10.0695C10.0184 9.95051 10.1136 9.87119 10.2683 9.78394ZM9.9589 10.2757C10.1532 10.3035 10.2207 10.1568 10.3555 9.96241C10.1691 10.0973 9.95097 10.1211 9.9589 10.2797V10.2757Z" fill="white" stroke="#BD6B00" stroke-width="0.0528819"/>
<path fill-rule="evenodd" clip-rule="evenodd" d="M9.8991 10.2559C9.79598 10.129 9.8991 9.96639 9.97842 9.83154C9.96255 10.0338 10.03 10.1488 9.8991 10.2559ZM9.85944 10.4661C9.84357 10.3392 10.0577 10.3114 10.1529 10.244C10.1172 10.3154 10.0736 10.5098 9.85547 10.4661H9.85944Z" fill="white" stroke="#BD6B00" stroke-width="0.0528819"/>
<path fill-rule="evenodd" clip-rule="evenodd" d="M9.81213 10.4663C9.66539 10.4504 9.72488 10.2005 9.83197 10.0657C9.78834 10.256 9.91129 10.3869 9.81213 10.4663Z" fill="white" stroke="#BD6B00" stroke-width="0.0528819"/>
<path fill-rule="evenodd" clip-rule="evenodd" d="M9.70043 10.6763C9.53385 10.597 9.64094 10.3908 9.70043 10.2678C9.67663 10.4304 9.81148 10.5534 9.70043 10.6724V10.6763Z" fill="white" stroke="#BD6B00" stroke-width="0.0528819"/>
<path fill-rule="evenodd" clip-rule="evenodd" d="M9.73288 10.6525C9.82014 10.7715 9.99068 10.6208 10.0264 10.4463C9.87963 10.5692 9.76858 10.5494 9.73288 10.6565V10.6525ZM9.35213 11.4577C9.33627 11.2871 9.46318 10.9817 9.37196 10.8151C9.36006 10.7913 9.39973 10.7319 9.42749 10.7675C9.46715 10.827 9.50681 10.9936 9.52664 10.9302C9.54251 10.8627 9.54647 10.7477 9.60597 10.7239C9.64563 10.712 9.69719 10.7001 9.68132 10.7636C9.66546 10.8191 9.63373 10.8984 9.66942 10.9024C9.68925 10.9024 9.74875 10.8231 9.80031 10.7834C9.83997 10.7517 9.90343 10.8072 9.83997 10.8548C9.64959 11.0134 9.46318 11.0888 9.35213 11.4577ZM9.00708 14.0158C8.98328 14.0158 8.95552 14.0039 8.98328 14.0396C9.20935 14.3172 9.27281 14.3966 9.602 14.3569C9.93119 14.3133 10.0105 14.2221 10.2445 14.0912C10.3123 14.0555 10.3864 14.0337 10.4626 14.0269C10.5389 14.0201 10.6157 14.0284 10.6887 14.0515C10.7522 14.0713 10.7918 14.0713 10.7442 14.0237C10.6967 13.9801 10.6451 13.9167 10.5856 13.873C10.4376 13.7741 10.2573 13.7357 10.0819 13.7659C9.84393 13.8056 9.64166 13.9603 9.39973 14.0198C9.27015 14.046 9.13665 14.046 9.00708 14.0198V14.0158ZM10.9029 14.5116C10.9426 14.5195 10.9703 14.5988 10.9941 14.5473C11.0258 14.4561 11.002 14.3886 10.9624 14.3926C10.9148 14.4045 10.8394 14.5116 10.9029 14.5116Z" fill="white" stroke="#BD6B00" stroke-width="0.0528819"/>
<path fill-rule="evenodd" clip-rule="evenodd" d="M8.85155 11.3267C8.80396 11.2712 8.81585 11.2553 8.89121 11.2514C8.94674 11.2514 9.05779 11.291 9.10142 11.2553C9.14108 11.2276 9.12125 11.1086 9.14108 11.057C9.14901 11.0213 9.16884 10.9777 9.2204 11.0491C9.36318 11.2791 9.53769 11.5567 9.61701 11.8264C9.65668 11.9772 9.61701 12.2151 9.48217 12.3738C9.48217 12.2389 9.43457 12.1477 9.37508 12.0327C9.29576 11.8859 9.01416 11.4774 8.85155 11.3227V11.3267Z" fill="white"/>
<path fill-rule="evenodd" clip-rule="evenodd" d="M9.44289 12.5324C9.60153 12.5324 9.62929 12.3222 9.62929 12.2627C9.54997 12.2786 9.41512 12.4094 9.44289 12.5324ZM10.8112 14.5908C10.9223 14.6146 10.9183 14.3449 10.8033 14.2299C10.8548 14.4044 10.7239 14.5631 10.8072 14.5869L10.8112 14.5908ZM10.7636 14.5869C10.7715 14.7138 10.4463 14.571 10.367 14.4679C10.5574 14.5512 10.7557 14.4837 10.7636 14.5869ZM10.6248 14.4044C10.6367 14.5274 10.3472 14.4163 10.2559 14.3211C10.4503 14.3846 10.6129 14.3013 10.6248 14.4004V14.4044ZM10.6764 14.4203C10.7914 14.448 10.7715 14.1664 10.6605 14.0713C10.716 14.2577 10.5891 14.3925 10.6764 14.4203ZM10.5574 14.2497C10.6724 14.2775 10.605 14.0356 10.5217 13.9404C10.5375 14.1149 10.482 14.2378 10.5613 14.2497H10.5574ZM10.4979 14.2497C10.5098 14.3766 10.2837 14.2815 10.1965 14.1585C10.3868 14.218 10.486 14.1466 10.4979 14.2497ZM10.4384 14.1506C10.5098 14.099 10.4344 13.9602 10.2916 13.9681C10.3075 14.0514 10.3551 14.2021 10.4384 14.1506ZM10.9936 14.7336C10.9976 14.8605 10.6764 14.7971 10.5732 14.6622C10.7795 14.7019 10.9817 14.6305 10.9897 14.7336H10.9936ZM9.70862 14.5036C9.72052 14.6305 9.36753 14.4877 9.28027 14.3687C9.46668 14.4322 9.69672 14.4004 9.70862 14.5036ZM9.92279 14.5551C9.99815 14.5036 9.84743 14.3687 9.72448 14.337C9.74035 14.4203 9.84347 14.6067 9.92279 14.5591V14.5551ZM9.94659 14.6463C9.95452 14.7614 9.5698 14.6979 9.47065 14.5908C9.79984 14.6503 9.93469 14.5472 9.94659 14.6463Z" fill="white" stroke="#BD6B00" stroke-width="0.0528819"/>
<path fill-rule="evenodd" clip-rule="evenodd" d="M10.129 14.7219C10.1687 14.829 9.79983 14.8012 9.66895 14.7417C9.87915 14.7417 10.0973 14.6465 10.129 14.7219Z" fill="white" stroke="#BD6B00" stroke-width="0.0528819"/>
<path fill-rule="evenodd" clip-rule="evenodd" d="M10.3 14.8012C10.3397 14.8964 9.99861 14.8964 9.83203 14.8409C10.0541 14.8409 10.2604 14.706 10.3 14.8012ZM10.5499 14.8528C10.6134 14.9678 10.2485 14.9757 10.1335 14.9202C10.3397 14.8924 10.4983 14.7615 10.5499 14.8528ZM10.1255 14.6584C10.0105 14.7298 10.0184 14.5156 9.92722 14.3689C10.07 14.4998 10.2048 14.591 10.1255 14.6584Z" fill="white" stroke="#BD6B00" stroke-width="0.0528819"/>
<path fill-rule="evenodd" clip-rule="evenodd" d="M10.3311 14.7376C10.2359 14.8208 10.1566 14.5274 10.0693 14.3608C10.2121 14.5194 10.4184 14.6662 10.3311 14.7336V14.7376ZM10.6008 14.8169C10.5215 14.9121 10.2835 14.5392 10.1963 14.3409C10.3271 14.4956 10.6643 14.7376 10.6008 14.8169ZM10.3708 15.1024C10.3311 15.2452 9.72825 14.9676 9.65686 14.8208C10.0059 15.0033 10.3787 14.9636 10.3708 15.0985V15.1024ZM8.43926 12.1754C8.42339 12.1556 8.38373 12.1754 8.39166 12.2191C8.40356 12.2785 8.49082 12.5839 8.64153 12.6871C8.74862 12.7664 9.31577 12.8893 9.56961 12.9449C9.71239 12.9726 9.82741 13.044 9.92259 13.1551C9.89 13.0234 9.85028 12.8937 9.80361 12.7664C9.75601 12.6474 9.6291 12.5205 9.49425 12.5165C9.25231 12.5046 8.93502 12.4848 8.70102 12.3856C8.59503 12.3409 8.50318 12.2683 8.43529 12.1754H8.43926Z" fill="white" stroke="#BD6B00" stroke-width="0.0528819"/>
<path fill-rule="evenodd" clip-rule="evenodd" d="M9.83999 13.3853C9.91932 13.4408 10.0026 13.2385 9.90742 13.0442C9.90345 13.2306 9.7567 13.2941 9.83999 13.3853Z" fill="white" stroke="#BD6B00" stroke-width="0.0528819"/>
<path fill-rule="evenodd" clip-rule="evenodd" d="M9.91538 13.5716C10.0225 13.6033 10.0542 13.4129 9.98677 13.2622C9.99866 13.4248 9.81622 13.524 9.91538 13.5716Z" fill="white" stroke="#BD6B00" stroke-width="0.0528819"/>
<path fill-rule="evenodd" clip-rule="evenodd" d="M9.99828 13.7223C10.1014 13.7738 10.1371 13.5795 10.0657 13.4407C10.0736 13.6192 9.91896 13.6747 9.99828 13.7183V13.7223Z" fill="white" stroke="#BD6B00" stroke-width="0.0528819"/>
<path fill-rule="evenodd" clip-rule="evenodd" d="M9.95499 13.7342C9.91533 13.8532 9.67736 13.6271 9.6377 13.5042C9.78444 13.6509 9.98275 13.6311 9.95499 13.7302V13.7342Z" fill="white" stroke="#BD6B00" stroke-width="0.0528819"/>
<path fill-rule="evenodd" clip-rule="evenodd" d="M9.84705 13.5479C9.79945 13.6669 9.50199 13.3496 9.43457 13.2029C9.58132 13.3496 9.87878 13.4607 9.84705 13.544V13.5479Z" fill="white" stroke="#BD6B00" stroke-width="0.0528819"/>
<path fill-rule="evenodd" clip-rule="evenodd" d="M9.78826 13.3614C9.74066 13.5002 9.41941 13.1314 9.32422 13.0005C9.48286 13.1433 9.82395 13.2622 9.78826 13.3614ZM9.77636 13.2265C9.89534 13.2027 9.77239 13.1076 9.62961 12.9529C9.62565 13.1155 9.64944 13.2305 9.77636 13.2265Z" fill="white" stroke="#BD6B00" stroke-width="0.0528819"/>
<path fill-rule="evenodd" clip-rule="evenodd" d="M9.58156 13.1314C9.63312 13.0799 9.53794 13.0561 9.41895 12.9212C9.39912 13.0124 9.53 13.179 9.58553 13.1314H9.58156ZM10.1368 13.7343C10.2003 13.7739 10.2399 13.6431 10.1646 13.528C10.1448 13.655 10.0813 13.6867 10.1368 13.7343ZM8.7804 12.9292C8.64952 13.0085 8.43932 12.6912 8.38379 12.5603C8.49881 12.711 8.8042 12.8459 8.7804 12.9292Z" fill="white" stroke="#BD6B00" stroke-width="0.0528819"/>
<path fill-rule="evenodd" clip-rule="evenodd" d="M8.89546 13.1114C8.8201 13.1908 8.59006 12.9726 8.51074 12.8616C8.62973 12.9687 8.92719 12.9806 8.89546 13.1114Z" fill="white" stroke="#BD6B00" stroke-width="0.0528819"/>
<path fill-rule="evenodd" clip-rule="evenodd" d="M9.01831 13.2781C8.99451 13.3891 8.66135 13.1392 8.58203 13.0203C8.72481 13.1591 9.0421 13.1472 9.01831 13.2781Z" fill="white" stroke="#BD6B00" stroke-width="0.0528819"/>
<path fill-rule="evenodd" clip-rule="evenodd" d="M8.96687 13.401C8.91531 13.5001 8.64164 13.2503 8.57422 13.1233C8.74476 13.2661 9.01049 13.3018 8.97083 13.401H8.96687ZM8.82805 12.9131C8.91134 12.8219 8.87565 12.7783 8.81219 12.6355C8.78046 12.7822 8.7289 12.8417 8.82805 12.9131ZM8.94307 13.0837C9.10171 13.0916 8.94307 12.9012 8.90341 12.7386C8.91927 12.9211 8.86375 13.0678 8.94307 13.0837Z" fill="white" stroke="#BD6B00" stroke-width="0.0528819"/>
<path fill-rule="evenodd" clip-rule="evenodd" d="M9.04272 13.2345C9.14981 13.2107 9.12204 13.056 9.03479 12.8696C9.05462 13.0719 8.94357 13.1869 9.04272 13.2345ZM9.00306 13.5399C8.9634 13.6589 8.65404 13.3813 8.60645 13.2702C8.76509 13.4051 9.03082 13.4487 9.00306 13.5399Z" fill="white" stroke="#BD6B00" stroke-width="0.0528819"/>
<path fill-rule="evenodd" clip-rule="evenodd" d="M9.18871 13.7303C9.14508 13.8493 8.81986 13.6034 8.7207 13.4685C8.91504 13.6272 9.2125 13.6113 9.18871 13.7303Z" fill="white" stroke="#BD6B00" stroke-width="0.0528819"/>
<path fill-rule="evenodd" clip-rule="evenodd" d="M9.3795 13.9245C9.32794 14.095 8.98685 13.8214 8.8877 13.6865C9.10187 13.8531 9.40329 13.8055 9.3795 13.9245ZM9.06221 13.4882C9.15343 13.5319 9.18912 13.2741 9.13756 13.0876C9.13756 13.286 8.95115 13.4367 9.05824 13.4843L9.06221 13.4882Z" fill="white" stroke="#BD6B00" stroke-width="0.0528819"/>
<path fill-rule="evenodd" clip-rule="evenodd" d="M9.21738 13.6947C9.32843 13.7264 9.29671 13.4448 9.19755 13.2584C9.18565 13.4448 9.10633 13.6154 9.21738 13.6947ZM9.41569 13.889C9.53467 13.893 9.45535 13.6471 9.35223 13.5083C9.3681 13.6867 9.31257 13.8652 9.41569 13.889ZM9.19755 13.9921C9.15789 14.0556 9.07064 13.9406 8.91992 13.8533C9.05477 13.893 9.21342 13.9326 9.19755 13.9921ZM9.12616 11.902C9.24515 11.8147 9.15392 11.6561 9.12616 11.5054C9.0865 11.6482 8.99131 11.8385 9.12616 11.902ZM9.12616 12.1122C8.94768 12.0924 8.97545 11.8703 8.96752 11.7275C9.02304 11.9218 9.16582 11.9535 9.12616 12.1162V12.1122ZM9.14996 12.0844C9.29671 12.0765 9.28877 11.9099 9.29671 11.7433C9.22135 11.898 9.13806 11.9218 9.14996 12.0844Z" fill="white" stroke="#BD6B00" stroke-width="0.0528819"/>
<path fill-rule="evenodd" clip-rule="evenodd" d="M9.14557 12.2905C9.02659 12.3024 8.97106 12.1874 8.94727 12.0129C9.05435 12.1755 9.14954 12.1239 9.14557 12.2905ZM9.18523 12.2786C9.33198 12.2984 9.30422 12.1279 9.30422 12.001C9.25662 12.12 9.13764 12.1596 9.18523 12.2786Z" fill="white" stroke="#BD6B00" stroke-width="0.0528819"/>
<path fill-rule="evenodd" clip-rule="evenodd" d="M8.95508 12.2073C8.96698 12.3183 9.03837 12.5087 9.15339 12.4651C9.19701 12.3302 9.05027 12.3025 8.95508 12.2073Z" fill="white" stroke="#BD6B00" stroke-width="0.0528819"/>
<path fill-rule="evenodd" clip-rule="evenodd" d="M9.18523 12.477C9.13763 12.3818 9.30421 12.3302 9.33594 12.2033C9.35577 12.3857 9.3399 12.5047 9.18523 12.4809V12.477ZM8.71325 11.3189C8.80448 11.2237 8.72515 11.065 8.69739 10.9143C8.65773 11.0571 8.59824 11.2475 8.71325 11.3189ZM8.71325 11.5013C8.55461 11.5211 8.51495 11.1959 8.49512 11.0531C8.55064 11.2475 8.73309 11.3308 8.71325 11.5053V11.5013ZM8.74498 11.5013C8.85604 11.4418 8.83224 11.3149 8.86397 11.2237C8.79258 11.3387 8.72119 11.3545 8.74498 11.5013Z" fill="white" stroke="#BD6B00" stroke-width="0.0528819"/>
<path fill-rule="evenodd" clip-rule="evenodd" d="M8.70915 11.7154C8.54654 11.7273 8.44739 11.3664 8.43945 11.2236C8.49101 11.418 8.73295 11.5211 8.71312 11.7154H8.70915ZM8.74485 11.7075C8.90349 11.6718 8.88366 11.5687 8.85986 11.4061C8.8083 11.5727 8.72105 11.537 8.74485 11.7075Z" fill="white" stroke="#BD6B00" stroke-width="0.0528819"/>
<path fill-rule="evenodd" clip-rule="evenodd" d="M8.70889 11.9217C8.52645 11.9534 8.53835 11.6599 8.3916 11.4497C8.51852 11.6084 8.74855 11.8067 8.70889 11.9217ZM8.74855 11.9098C8.89134 11.9177 8.9072 11.7075 8.89927 11.6203C8.86357 11.7075 8.70096 11.7868 8.75252 11.9137L8.74855 11.9098Z" fill="white" stroke="#BD6B00" stroke-width="0.0528819"/>
<path fill-rule="evenodd" clip-rule="evenodd" d="M8.42383 11.6956C8.49125 11.9216 8.59041 12.1477 8.70939 12.1318C8.76888 12.0009 8.59437 11.9851 8.42383 11.6956Z" fill="white" stroke="#BD6B00" stroke-width="0.0528819"/>
<path fill-rule="evenodd" clip-rule="evenodd" d="M8.75328 12.0962C8.70568 11.997 8.87226 11.9494 8.90399 11.8225C8.92382 12.005 8.90796 12.1239 8.75328 12.0962ZM8.47168 11.9534C8.57083 12.1557 8.61446 12.3897 8.74931 12.354C8.80087 12.1953 8.5986 12.1636 8.47168 11.9534Z" fill="white" stroke="#BD6B00" stroke-width="0.0528819"/>
<path fill-rule="evenodd" clip-rule="evenodd" d="M8.77666 12.3183C8.71717 12.2072 8.88375 12.1715 8.92738 12.0248C8.94721 12.2152 8.92738 12.354 8.77666 12.3143V12.3183ZM9.06222 10.95C9.15741 10.9738 9.26053 10.8667 9.22484 10.7041C9.11379 10.7279 9.06619 10.831 9.06222 10.95ZM8.7489 10.8667C8.75683 10.9143 8.81632 10.9182 8.79649 10.8508C8.78168 10.8071 8.78168 10.7597 8.79649 10.716C8.8156 10.6567 8.8156 10.5928 8.79649 10.5335C8.78063 10.4939 8.7251 10.5177 8.7489 10.5494C8.7727 10.5851 8.77666 10.6604 8.75683 10.6961C8.73304 10.7477 8.74097 10.8151 8.7489 10.8667ZM9.65715 11.5013C9.61748 11.5528 9.54213 11.5171 9.60162 11.4418C9.64921 11.3823 9.7206 11.3307 9.7206 11.2673C9.72854 11.1879 9.77216 11.069 9.81579 11.0253C9.85942 10.9817 9.91098 11.0412 9.86339 11.0729C9.81183 11.1047 9.77613 11.2474 9.7801 11.303C9.77613 11.3823 9.70077 11.4418 9.65715 11.5013ZM9.53816 11.41C9.4985 11.4656 9.44297 11.4299 9.4747 11.3426C9.50247 11.2831 9.50643 11.2038 9.53816 11.1602C9.58576 11.0928 9.65715 11.0372 9.70077 10.9936C9.74837 10.9539 9.7801 10.9936 9.74044 11.0333C9.69182 11.0818 9.64799 11.135 9.60955 11.1919C9.55403 11.2792 9.57782 11.3506 9.53816 11.41ZM8.91548 11.1245C8.91151 11.2038 8.97497 11.2197 8.971 11.1086C8.971 10.9896 8.88375 10.8786 8.93134 10.7001C8.96307 10.6129 8.96307 10.4502 8.94721 10.367C8.93134 10.2797 8.86788 10.3352 8.89565 10.4026C8.91944 10.482 8.89168 10.6248 8.87185 10.7001C8.81236 10.9143 8.91944 11.0174 8.91151 11.1245H8.91548ZM9.08602 10.6882C9.07809 10.7636 9.01463 10.7675 9.03446 10.6684C9.05033 10.5891 9.05033 10.5256 9.03446 10.4582C9.01067 10.3749 9.0186 10.2321 9.03446 10.1726C9.05429 10.1092 9.11379 10.1448 9.08999 10.1924C9.0623 10.2674 9.05815 10.349 9.07809 10.4264C9.10189 10.5058 9.09792 10.6168 9.08602 10.6922V10.6882ZM8.4673 12.1596C8.49903 12.1953 8.54663 12.1715 8.50697 12.12C8.4673 12.0803 8.4792 12.0724 8.45541 12.0248C8.43161 11.9693 8.43557 11.9415 8.40781 11.9058C8.38005 11.8662 8.34435 11.9058 8.36815 11.9336C8.39988 11.9732 8.39195 11.997 8.40781 12.0327C8.44747 12.0922 8.43557 12.124 8.4673 12.1596ZM9.2764 13.1353C9.32488 13.1621 9.3661 13.2003 9.3965 13.2466C9.42691 13.2929 9.44558 13.3459 9.45091 13.401C9.45505 13.4998 9.48222 13.5962 9.53023 13.6826C9.45091 13.6628 9.41125 13.5359 9.39935 13.4129C9.38745 13.286 9.32002 13.2345 9.28036 13.1353H9.2764ZM9.47867 13.3693C9.54609 13.4923 9.63732 13.5399 9.64525 13.6311C9.65318 13.7382 9.66111 13.7421 9.68888 13.8453C9.60955 13.8254 9.58972 13.8175 9.56989 13.6588C9.55799 13.5478 9.46677 13.4724 9.47867 13.3693Z" fill="white" stroke="#BD6B00" stroke-width="0.0528819"/>
<path fill-rule="evenodd" clip-rule="evenodd" d="M11.5645 14.5116C11.6041 14.583 11.6438 14.6901 11.7231 14.6703C11.7231 14.6187 11.6398 14.5791 11.5645 14.5116ZM11.6835 14.5354C11.8302 14.5989 11.9611 14.583 11.9809 14.6782C11.8382 14.6941 11.7826 14.6386 11.6795 14.5354H11.6835ZM11.0449 14.0317C11.1435 14.1084 11.2133 14.2159 11.2432 14.3371C11.2752 14.4468 11.3233 14.551 11.386 14.6465C11.2829 14.5772 11.2082 14.473 11.1758 14.353C11.148 14.234 11.1123 14.1428 11.0449 14.0357V14.0317ZM11.1679 14.0317C11.2789 14.119 11.382 14.2221 11.4138 14.3451C11.4455 14.4601 11.4653 14.5473 11.5407 14.6624C11.4217 14.587 11.3781 14.4759 11.3424 14.353C11.3146 14.234 11.2432 14.1468 11.1679 14.0357V14.0317ZM11.5328 14.3213C11.5312 14.3114 11.5331 14.3012 11.5382 14.2925C11.5432 14.2839 11.5511 14.2772 11.5605 14.2737C11.5944 14.2617 11.6289 14.2511 11.6636 14.2419C11.7033 14.23 11.7271 14.2578 11.7271 14.2776V14.357C11.7271 14.3847 11.7192 14.3887 11.6993 14.3927C11.6716 14.3966 11.6319 14.4006 11.6041 14.4204C11.5804 14.4363 11.5566 14.4244 11.5447 14.4006L11.5328 14.3213ZM11.9532 14.3213C11.9532 14.2975 11.9452 14.2776 11.9294 14.2737C11.8993 14.2612 11.8667 14.2558 11.8342 14.2578C11.7945 14.2578 11.7906 14.2657 11.7906 14.2816V14.3649C11.7906 14.3966 11.7906 14.3966 11.8064 14.4046C11.8342 14.4046 11.8778 14.4046 11.9056 14.4284C11.9254 14.4403 11.9452 14.4284 11.9492 14.4046L11.9532 14.3213Z" fill="white"/>
<path fill-rule="evenodd" clip-rule="evenodd" d="M13.1316 15.4356C13.1316 15.4832 13.1395 15.5228 13.1713 15.5585C12.9898 15.5037 12.7944 15.5193 12.6239 15.6021C12.5525 15.6339 12.4653 15.5625 12.5486 15.4951C12.6676 15.4038 12.9333 15.4554 13.1316 15.4356ZM10.8511 15.4356C10.8545 15.4759 10.8491 15.5165 10.8352 15.5545C11.0097 15.4871 11.1961 15.5466 11.3746 15.618C11.4936 15.6696 11.5055 15.5783 11.4857 15.5506C11.4637 15.5174 11.4344 15.4898 11.4 15.4698C11.3656 15.4499 11.327 15.4381 11.2873 15.4356H10.8511ZM11.0018 14.5749C10.9502 14.5551 10.8947 14.5749 10.8431 14.6304C10.6726 14.797 10.4703 14.9596 10.3077 15.0905C10.2482 15.1421 10.1887 15.2373 10.4426 15.3285C10.4545 15.3364 10.6409 15.4078 10.7598 15.4078C10.8114 15.4078 10.8114 15.4792 10.7995 15.499C10.7797 15.5387 10.7955 15.5545 10.7559 15.5902C10.7123 15.6299 10.7559 15.6735 10.7955 15.6418C10.9383 15.5149 11.1763 15.5982 11.4024 15.6696C11.4579 15.6854 11.5531 15.6815 11.5531 15.6061C11.5531 15.5268 11.6126 15.4713 11.6483 15.4673C11.7434 15.4832 12.2035 15.4871 12.3423 15.4713C12.4217 15.4594 12.4296 15.5863 12.4732 15.6299C12.5049 15.6656 12.62 15.6735 12.7033 15.6378C12.8619 15.5664 13.0999 15.5664 13.199 15.6378C13.2387 15.6656 13.2744 15.6378 13.2506 15.6101C13.2189 15.5704 13.2228 15.5466 13.207 15.5149C13.1673 15.4356 13.199 15.4197 13.2387 15.4157C13.675 15.3562 13.8177 15.2095 13.6829 15.0865C13.5084 14.9358 13.318 14.7811 13.1514 14.6027C13.1038 14.5551 13.0721 14.5352 12.9809 14.5749C12.665 14.7181 12.3241 14.7976 11.9775 14.8089C11.6417 14.7872 11.3119 14.7095 11.0018 14.5789V14.5749Z" fill="white"/>
<path fill-rule="evenodd" clip-rule="evenodd" d="M13.0566 14.5989L12.9932 14.6147C12.6362 14.7417 12.311 14.8289 11.9739 14.8289C11.6447 14.8289 11.2996 14.7337 10.9863 14.6068C10.967 14.6002 10.9461 14.6002 10.9268 14.6068C10.907 14.6108 10.8872 14.6227 10.8753 14.6346C10.7287 14.7812 10.5723 14.9177 10.4073 15.0431C10.3795 15.0629 10.3835 15.1145 10.4271 15.1303C10.7563 15.2493 11.0775 15.4675 11.9977 15.4595C12.9297 15.4516 13.2589 15.2374 13.5524 15.1383C13.5722 15.1303 13.5921 15.1184 13.604 15.0986C13.6068 15.0939 13.6086 15.0886 13.6093 15.0832C13.61 15.0777 13.6095 15.0722 13.6079 15.0669C13.6028 15.0545 13.5946 15.0435 13.5841 15.0352C13.4136 14.8963 13.2351 14.7853 13.1161 14.6227C13.1042 14.6028 13.0804 14.5989 13.0566 14.6028V14.5989ZM13.0566 14.6187C13.0765 14.6187 13.0963 14.6187 13.1003 14.6306C13.2192 14.8011 13.4057 14.9082 13.5722 15.0471L13.5881 15.0748C13.5892 15.0773 13.5898 15.08 13.5898 15.0827C13.5898 15.0855 13.5892 15.0882 13.5881 15.0907C13.5841 15.1026 13.5643 15.1145 13.5484 15.1184C13.247 15.2216 12.9258 15.4357 12.0016 15.4437C11.0815 15.4516 10.7642 15.2335 10.435 15.1145C10.4033 15.0986 10.4073 15.0669 10.4192 15.0589C10.5857 14.932 10.7444 14.7893 10.8872 14.6465C10.8994 14.635 10.9145 14.6268 10.9308 14.6227H10.9784C11.2918 14.7589 11.6283 14.8342 11.9699 14.8448C12.315 14.8448 12.6442 14.7575 13.0011 14.6346C13.0203 14.627 13.0402 14.6217 13.0606 14.6187H13.0566Z" fill="#BD6B00"/>
<path fill-rule="evenodd" clip-rule="evenodd" d="M10.7993 8.61388C10.7993 8.55836 10.8786 8.55439 10.8707 8.62975C10.8588 8.72097 11.0491 8.95894 11.065 9.10568C11.0769 9.20484 11.0055 9.28813 10.9381 9.34365C10.8992 9.37119 10.8535 9.3876 10.806 9.39109C10.7585 9.39459 10.7109 9.38504 10.6684 9.36348C10.6327 9.33175 10.601 9.2326 10.6287 9.19294C10.6367 9.18104 10.6803 9.33969 10.7755 9.33969C10.9064 9.33969 11.0135 9.24053 11.0135 9.15328C11.0214 9.00256 10.8032 8.7646 10.7993 8.61388ZM11.1761 8.9867C11.1999 8.97083 11.2316 9.03826 11.2078 9.05412C11.188 9.06602 11.1483 9.00256 11.1761 8.98273V8.9867ZM11.2356 8.84788C11.2237 8.85582 11.2038 8.84788 11.2078 8.83995C11.2459 8.787 11.2945 8.74245 11.3506 8.70907C11.3664 8.70114 11.3902 8.72493 11.3823 8.73683C11.3418 8.78386 11.2918 8.82172 11.2356 8.84788ZM11.7353 8.45127C11.7472 8.42747 11.8186 8.39971 11.8384 8.38385C11.8543 8.36402 11.8622 8.39971 11.8543 8.41161C11.8424 8.43937 11.7789 8.47903 11.7512 8.483C11.7393 8.483 11.7274 8.46713 11.7353 8.45524V8.45127ZM11.9058 8.46317C11.9267 8.41043 11.9609 8.36398 12.005 8.32832C12.0248 8.31642 12.0565 8.32832 12.0486 8.34418C12.0217 8.39664 11.9822 8.44161 11.9336 8.47507C11.9217 8.48697 11.9019 8.47507 11.9058 8.46317ZM11.7591 8.57025C11.7472 8.57819 11.7551 8.59802 11.7631 8.60198C11.7868 8.60992 11.8225 8.60992 11.8424 8.60198C11.8662 8.58612 11.8543 8.48697 11.8225 8.53853C11.7987 8.57025 11.7829 8.56232 11.7591 8.57025ZM11.4696 8.79236C11.418 8.7527 11.4854 8.69717 11.537 8.73683C11.6441 8.81616 11.3783 9.12551 11.2356 9.2683C11.2078 9.29606 11.184 9.22863 11.2197 9.19294C11.323 9.10643 11.4125 9.0048 11.4854 8.89151C11.5013 8.87168 11.5132 8.82805 11.4696 8.79236ZM12.0764 8.53059C12.0803 8.49093 12.0129 8.53059 12.0129 8.47903C12.0129 8.45127 12.0883 8.43144 12.12 8.46317C12.1716 8.51869 12.1319 8.60992 12.0407 8.61785C11.9693 8.61785 11.8424 8.72493 11.8622 8.74476C11.882 8.77253 12.0764 8.78839 12.1914 8.77253C12.2628 8.76063 12.2469 8.82409 12.1755 8.83202C12.1041 8.83995 12.0486 8.83202 11.9852 8.85582C11.9058 8.87565 11.8741 8.9748 11.8305 9.01446C11.8225 9.02239 11.7987 8.98273 11.8067 8.96687C11.8384 8.91927 11.886 8.84788 11.9415 8.82409C11.9733 8.81219 11.8463 8.80822 11.8067 8.79632C11.775 8.78839 11.7829 8.74476 11.7948 8.72097C11.8106 8.68924 11.9296 8.56629 11.9812 8.57025C12.0248 8.57025 12.0724 8.55836 12.0764 8.53059ZM12.2747 8.53853C12.2985 8.51869 12.3143 8.48697 12.3342 8.46713C12.3461 8.45524 12.3699 8.46713 12.3659 8.49886C12.3619 8.52663 12.3262 8.54646 12.3064 8.56629C12.2866 8.57819 12.2668 8.55042 12.2787 8.53853H12.2747ZM12.5325 8.4473C12.5682 8.4473 12.5721 8.51076 12.5404 8.51869C12.5166 8.52663 12.5008 8.45127 12.5325 8.4473ZM12.4492 8.64561C12.4492 8.7051 12.477 8.70114 12.5285 8.69717C12.5801 8.69717 12.6237 8.69717 12.6237 8.64958C12.6237 8.59802 12.5959 8.55042 12.584 8.58612C12.5801 8.61785 12.5721 8.67337 12.5523 8.64958C12.5364 8.62975 12.5444 8.62578 12.5127 8.65751C12.4928 8.67734 12.4928 8.64958 12.4809 8.63371C12.473 8.62181 12.4492 8.64164 12.4492 8.64958V8.64561ZM12.0843 8.93117C12.0724 9.00653 12.0843 9.10965 12.12 9.10965C12.1676 9.10965 12.2628 8.951 12.3104 8.86375C12.3381 8.81616 12.3818 8.80822 12.3619 8.85978C12.3342 8.93514 12.3381 9.09775 12.3619 9.14534C12.3778 9.16914 12.4809 9.12155 12.4968 9.08585C12.5285 9.01843 12.5008 8.89548 12.5127 8.82012C12.5166 8.77253 12.5642 8.76063 12.5602 8.80822C12.554 8.90725 12.5527 9.00653 12.5563 9.10568C12.5563 9.14534 12.6713 9.20087 12.6872 9.08189C12.6951 9.0105 12.7348 8.93514 12.6872 8.85582C12.6554 8.80426 12.7308 8.80822 12.7705 8.87961C12.7982 8.92721 12.7467 9.00653 12.7506 9.06602C12.7506 9.16121 12.6792 9.21674 12.6277 9.21674C12.5801 9.21674 12.5483 9.15724 12.5087 9.15724C12.469 9.15724 12.4214 9.22467 12.3897 9.2207C12.2469 9.21277 12.3223 9.0105 12.2787 9.00653C12.2311 9.00653 12.1795 9.20484 12.12 9.20087C12.0645 9.19294 12.001 9.03429 12.0288 8.97083C12.0486 8.90738 12.0883 8.89151 12.0843 8.93117ZM12.7546 8.61388C12.6872 8.57422 12.7546 8.46713 12.7903 8.50283C12.8537 8.58215 12.9172 8.76063 12.9648 8.77649C12.9926 8.78443 12.9886 8.64164 13.0084 8.57819C13.0243 8.52663 13.0798 8.54249 13.0719 8.60595C13.0679 8.62578 12.9926 8.85978 13.0005 8.86771C13.0533 8.96669 13.0971 9.07023 13.1314 9.17707C13.1433 9.22467 13.0877 9.19294 13.0798 9.18501C13.0441 9.12948 12.9846 8.92721 12.9846 8.93911L12.9172 9.2445C12.9093 9.28416 12.8498 9.27623 12.8656 9.20484C12.8775 9.14931 12.9569 8.87565 12.9529 8.86375C12.9075 8.76596 12.8395 8.68033 12.7546 8.61388Z" fill="white"/>
<path fill-rule="evenodd" clip-rule="evenodd" d="M12.8735 9.27217C12.8577 9.27217 12.8259 9.31184 12.9211 9.33167C13.0441 9.35546 13.1829 9.31184 13.2226 9.18889C13.2741 9.04214 13.3019 8.90332 13.3296 8.85176C13.3614 8.79227 13.401 8.79624 13.3693 8.70898C13.3495 8.64156 13.3098 8.66139 13.3019 8.69708C13.282 8.78831 13.1988 9.0937 13.171 9.14526C13.1234 9.24838 13.0242 9.28804 12.8735 9.27217Z" fill="white"/>
<path fill-rule="evenodd" clip-rule="evenodd" d="M13.1278 8.78847C13.112 8.76071 13.0802 8.78847 13.0882 8.81624C13.0901 8.82744 13.0959 8.8376 13.1046 8.84487C13.1134 8.85215 13.1244 8.85606 13.1358 8.8559C13.1635 8.8559 13.223 8.85986 13.223 8.81624C13.223 8.78451 13.1953 8.75674 13.1794 8.79244C13.1596 8.82417 13.1397 8.8202 13.1278 8.79244V8.78847ZM13.1556 8.66949C13.1477 8.67742 13.1556 8.71312 13.1675 8.70915C13.2131 8.70948 13.258 8.69858 13.2984 8.67742C13.3063 8.66949 13.3023 8.64966 13.2904 8.64966C13.2508 8.64966 13.1873 8.64966 13.1556 8.66949ZM13.5046 8.76071C13.5363 8.71312 13.6157 8.70915 13.5839 8.77657C13.5025 8.94012 13.4192 9.10274 13.3341 9.26441C13.3023 9.31994 13.2785 9.29217 13.3023 9.24855C13.3301 9.19302 13.4967 8.77261 13.5046 8.76071Z" fill="white"/>
<path fill-rule="evenodd" clip-rule="evenodd" d="M13.1989 9.34375C13.1909 9.31202 13.1394 9.26443 13.1473 9.35168C13.1552 9.50239 13.3654 9.4548 13.4249 9.40324C13.4844 9.35168 13.4368 9.57378 13.5122 9.59758C13.5519 9.60948 13.6312 9.55395 13.6708 9.50239C13.7779 9.36358 13.8493 9.16131 13.9485 9.02646C13.9881 8.97093 13.9286 8.93127 13.9088 8.9749C13.8136 9.12561 13.7026 9.43497 13.5796 9.51429C13.4805 9.57775 13.5122 9.43497 13.5082 9.38738C13.5043 9.35565 13.4646 9.30805 13.413 9.35168C13.3716 9.38489 13.3194 9.40181 13.2663 9.39927C13.2385 9.39927 13.2108 9.39927 13.1989 9.34375Z" fill="white"/>
<path fill-rule="evenodd" clip-rule="evenodd" d="M13.5719 9.06602C13.5719 9.05412 13.5283 9.05015 13.5322 9.09378C13.5322 9.12551 13.5719 9.13344 13.5759 9.13344C13.6353 9.08585 13.564 9.10965 13.5719 9.06205V9.06602ZM13.4807 9.24053C13.4688 9.24053 13.4569 9.28019 13.4886 9.28416L13.6433 9.27622C13.6591 9.27622 13.6671 9.24053 13.6274 9.2445C13.5798 9.2445 13.5203 9.2326 13.4807 9.2445V9.24053ZM11.0217 8.58215C11.0415 8.58215 11.0851 8.63768 11.0811 8.65751C11.0811 8.66544 11.0336 8.65751 11.0217 8.64561C11.0098 8.63371 11.0137 8.58215 11.0217 8.58215ZM10.8115 8.99463C10.7718 9.01843 10.8194 9.06205 10.8511 9.04222C10.9622 8.96687 11.1287 8.89151 11.1684 8.74476C11.1803 8.69717 11.2239 8.62181 11.2676 8.60595C11.3072 8.58612 11.3707 8.6813 11.4103 8.60595C11.4341 8.56629 11.5174 8.63371 11.5373 8.59008C11.5611 8.53852 11.5492 8.51076 11.5492 8.45523C11.5492 8.4235 11.5214 8.41557 11.5016 8.46713C11.4936 8.49093 11.5016 8.51473 11.4976 8.53059C11.4897 8.53852 11.4738 8.54645 11.4579 8.53852C11.45 8.53059 11.4579 8.51076 11.4341 8.49886C11.4262 8.49886 11.4103 8.4949 11.4024 8.50679C11.3746 8.55835 11.3627 8.60595 11.3191 8.54645C11.2834 8.50679 11.2636 8.4235 11.2398 8.53456C11.2319 8.57422 11.1724 8.62974 11.1367 8.62974C11.093 8.62974 11.1049 8.51076 11.0098 8.53059C10.9582 8.54249 10.9622 8.63768 10.9701 8.66941C10.982 8.72096 11.1287 8.68527 11.1168 8.717C11.093 8.82408 10.9423 8.93117 10.8115 8.99463ZM9.91114 9.51816C9.90717 9.53799 9.93097 9.58558 9.95477 9.58955C9.97856 9.58955 9.99443 9.53799 9.98649 9.51816C9.97856 9.50626 9.9151 9.50626 9.91114 9.51816ZM10.042 9.7125C10.0262 9.69664 9.97856 9.74026 10.0182 9.77199C10.0381 9.79182 10.1174 9.81562 10.1372 9.77992C10.1689 9.73233 10.1094 9.56179 10.1372 9.54196C10.157 9.52213 10.2483 9.65301 10.2959 9.66094C10.4029 9.6768 10.3752 9.4785 10.4942 9.49436C10.5695 9.50229 10.5774 9.40711 10.5656 9.34365C10.5576 9.28416 10.4624 9.20087 10.4188 9.16121C10.3633 9.11361 10.3355 9.20087 10.3712 9.22466C10.4188 9.26433 10.5021 9.33968 10.514 9.38728C10.518 9.41107 10.4585 9.45867 10.4347 9.44677C10.3791 9.41504 10.3315 9.28812 10.284 9.26036C10.2681 9.25243 10.2284 9.27226 10.2443 9.31192C10.2681 9.35555 10.3633 9.41901 10.3672 9.4666C10.3712 9.50626 10.3276 9.59352 10.2959 9.59352C10.2602 9.59352 10.1769 9.48643 10.1491 9.43487C10.1332 9.41504 10.0896 9.41504 10.0817 9.45073C10.0791 9.52399 10.0858 9.59728 10.1015 9.66887C10.1094 9.73233 10.0658 9.7363 10.042 9.7125ZM9.88338 9.37141C9.86751 9.38728 9.9151 9.41901 9.92304 9.41107C9.9389 9.39521 10.0063 9.31985 9.99443 9.29209C9.98253 9.26829 9.89131 9.21277 9.87544 9.24053C9.84768 9.28416 9.9627 9.30795 9.94287 9.31985C9.92069 9.33413 9.90066 9.35149 9.88338 9.37141ZM10.046 9.03826C10.046 9.03826 10.0777 9.13741 10.1015 9.09378C10.1174 9.06602 10.046 9.03826 10.046 9.03826ZM10.0936 9.1969C10.0856 9.1969 10.0539 9.22466 10.0737 9.23656C10.1055 9.25243 10.1888 9.26829 10.1689 9.2088C10.157 9.17311 10.2959 9.2088 10.2602 9.11361C10.2458 9.08426 10.2221 9.06053 10.1927 9.04619C10.1769 9.04619 10.1332 9.06602 10.161 9.08188C10.1808 9.08982 10.2403 9.12551 10.2205 9.14931C10.1927 9.17311 10.1769 9.13741 10.1451 9.14534C10.1293 9.14534 10.1412 9.19294 10.1293 9.20483C10.1293 9.21277 10.1015 9.18897 10.0936 9.19294V9.1969ZM10.3117 8.82012C10.2873 8.84034 10.2705 8.86834 10.2641 8.89944C10.2641 8.90737 10.276 8.92324 10.284 8.91927C10.3084 8.90073 10.3253 8.87396 10.3315 8.84392C10.3315 8.83202 10.3236 8.81219 10.3117 8.82012ZM10.4228 8.80822C10.391 8.76856 10.4624 8.7051 10.4902 8.78839C10.51 8.83995 10.7083 9.10171 10.748 9.18897C10.7797 9.24846 10.748 9.27226 10.7123 9.22863C10.6131 9.10171 10.5299 8.94307 10.4228 8.80822ZM10.629 8.81219C10.6647 8.77252 10.7361 8.6932 10.7163 8.65354C10.7004 8.61388 10.6568 8.61388 10.6488 8.62578C10.6092 8.67734 10.6806 8.66544 10.6687 8.6813C10.6488 8.72097 10.629 8.74476 10.6171 8.78442C10.6131 8.79632 10.6211 8.82012 10.629 8.81219ZM13.7147 8.9391C13.6869 8.91927 13.7385 8.82012 13.7742 8.85978C13.8654 8.96687 13.909 9.31985 13.9368 9.58558C13.9368 9.58558 13.8971 9.62128 13.8971 9.61335C13.8971 9.47453 13.8376 9.04222 13.7147 8.9391ZM11.6086 8.59801C11.5769 8.52662 11.6523 8.50283 11.6642 8.55042C11.7157 8.78046 11.8426 8.95497 11.9418 9.10965C11.9696 9.15724 11.9418 9.18897 11.8744 9.14138C11.8268 9.10965 11.7752 8.9867 11.7554 8.98273C11.7078 8.9748 11.6047 9.18104 11.3945 9.12155C11.3389 9.10568 11.3429 8.94307 11.3389 8.87168C11.3389 8.83598 11.3786 8.83202 11.3786 8.87168C11.3786 8.9391 11.3786 9.07792 11.4619 9.08585C11.5333 9.08585 11.684 8.99066 11.7157 8.91134C11.7475 8.83202 11.6404 8.67734 11.6086 8.59405V8.59801Z" fill="white"/>
<path fill-rule="evenodd" clip-rule="evenodd" d="M13.7703 9.55784C13.7861 9.51024 14.0122 9.12949 14.0439 9.04621C14.0598 9.00654 14.1233 9.1176 14.0598 9.17709C14.0043 9.22468 13.8417 9.49438 13.8099 9.58957C13.7941 9.62923 13.7544 9.6094 13.7703 9.55784Z" fill="white"/>
<path fill-rule="evenodd" clip-rule="evenodd" d="M14.1549 9.1969C14.1945 9.03826 14.2977 9.2207 14.2064 9.30796C14.0716 9.44281 14.028 9.7006 13.8098 9.74027C13.7543 9.75216 13.6512 9.7125 13.6195 9.68871C13.6076 9.68077 13.6274 9.62525 13.6631 9.65301C13.7146 9.69267 13.8257 9.70457 13.8852 9.65698C14.0148 9.53063 14.1079 9.3717 14.1549 9.1969ZM11.8942 9.7006C11.8823 9.7125 11.8545 9.7125 11.8506 9.72837C11.8387 9.78389 11.8506 9.81562 11.8387 9.87115C11.8268 9.92667 11.7871 9.92667 11.7911 9.88305C11.7911 9.82752 11.8426 9.74423 11.8069 9.74027C11.7831 9.7363 11.7673 9.70457 11.7911 9.68871C11.8347 9.66094 11.8585 9.66491 11.8863 9.67284C11.8982 9.67681 11.9021 9.69267 11.8942 9.7006Z" fill="white"/>
<path fill-rule="evenodd" clip-rule="evenodd" d="M11.862 9.62128C11.8065 9.67681 11.751 9.69664 11.6994 9.7601C11.6756 9.78389 11.6796 9.81959 11.6637 9.85528C11.6518 9.89098 11.6082 9.89495 11.5963 9.89098C11.5765 9.87512 11.5804 9.81166 11.5566 9.84339C11.5328 9.87908 11.5209 9.92271 11.4892 9.92271C11.4614 9.92271 11.4099 9.86322 11.4377 9.86322C11.5289 9.85132 11.5249 9.78389 11.5566 9.77596C11.5963 9.772 11.5963 9.83545 11.6241 9.82356C11.6399 9.81562 11.6518 9.74027 11.6717 9.72044C11.7311 9.65698 11.7787 9.62525 11.8422 9.57765C11.87 9.55386 11.8938 9.59749 11.862 9.62525V9.62128ZM12.0722 9.81959C12.0246 9.82752 12.0326 9.88701 12.0484 9.89098C12.0683 9.90288 12.104 9.90684 12.1159 9.83942C12.1238 9.81166 12.1278 9.97823 12.1873 9.91478C12.2269 9.87512 12.3102 9.92271 12.3459 9.87512C12.3737 9.83942 12.3856 9.81562 12.3618 9.76803C12.3538 9.75613 12.3221 9.7601 12.3221 9.79579C12.3221 9.82752 12.3023 9.86322 12.2705 9.85925C12.2547 9.85528 12.2785 9.78389 12.2626 9.76406C12.2589 9.76043 12.2539 9.75839 12.2487 9.75839C12.2435 9.75839 12.2386 9.76043 12.2348 9.76406C12.2229 9.77993 12.2467 9.85132 12.211 9.85925C12.1635 9.86718 12.1873 9.81166 12.1714 9.80373C12.104 9.772 12.1 9.81166 12.0722 9.81562V9.81959ZM12.4292 9.70061C12.4649 9.69267 12.453 9.69267 12.5085 9.64905C12.5283 9.63318 12.5323 9.68077 12.5283 9.70061C12.5283 9.72837 12.4887 9.70854 12.4768 9.7363C12.4609 9.772 12.4688 9.85528 12.4609 9.88701C12.4609 9.90288 12.4292 9.90288 12.4292 9.88701C12.4213 9.84735 12.4332 9.80769 12.4292 9.75613C12.4292 9.74027 12.4094 9.7125 12.4292 9.70457V9.70061ZM12.2309 9.60145C12.2229 9.63715 12.2229 9.66491 12.2229 9.69267C12.2229 9.7125 12.2626 9.7006 12.2626 9.69664C12.2626 9.66491 12.2705 9.61732 12.2626 9.60542C12.2547 9.60145 12.2348 9.59352 12.2309 9.60145Z" fill="white"/>
<path fill-rule="evenodd" clip-rule="evenodd" d="M11.9815 9.23267L11.926 9.45477L11.8467 9.30406V9.45874L11.6721 9.2525L11.7316 9.4746L11.573 9.33975L11.6602 9.49047L11.3826 9.31199L11.5571 9.51823L11.335 9.40718L11.4937 9.54203L11.1367 9.40718L11.4818 9.57772C11.6385 9.50636 11.8093 9.47112 11.9815 9.4746C12.1758 9.4746 12.3504 9.51426 12.4773 9.57772L12.8263 9.40718L12.4693 9.54203L12.628 9.40718L12.4098 9.51823L12.5804 9.31199L12.3028 9.49047L12.39 9.33975L12.2314 9.47063L12.2909 9.2525L12.1203 9.45874V9.30406L12.041 9.45477L11.9815 9.23267Z" fill="white"/>
<path d="M11.6715 14.0483L11.6668 14.1515H11.648V14.0812C11.6437 14.0603 11.6374 14.0399 11.6293 14.0202C11.623 14.0039 11.6152 13.9882 11.6059 13.9733C11.5944 13.9554 11.5819 13.9382 11.5684 13.9218L11.6012 13.8374C11.625 13.8645 11.6426 13.8965 11.6527 13.9312C11.6672 13.9686 11.6751 14.0082 11.6762 14.0483M11.934 13.889C11.934 13.9171 11.9293 13.9358 11.9199 13.9452C11.9105 13.9593 11.8918 13.9687 11.873 13.9733L11.8824 14.0249C11.8867 14.0513 11.8867 14.0782 11.8824 14.1046V14.1515H11.8637V14.1046C11.8617 14.0918 11.8586 14.0793 11.8543 14.0671C11.8498 14.0545 11.8451 14.042 11.8402 14.0296C11.8324 14.0101 11.823 13.9913 11.8121 13.9733L11.7746 13.9124L11.798 13.8374L11.8355 13.8796L11.8684 13.889C11.9012 13.889 11.9152 13.8749 11.9152 13.8421H11.9293C11.9291 13.8499 11.9291 13.8577 11.9293 13.8655V13.889M12.1684 14.0718L12.1496 14.1515L12.1215 14.1233C12.1145 14.1085 12.1097 14.0927 12.1074 14.0765C12.1059 14.0546 12.1059 14.0327 12.1074 14.0108C12.0937 14.0145 12.0795 14.0161 12.0652 14.0155C12.0465 14.0155 12.0324 14.0155 12.0184 14.0015C12.0125 13.9971 12.0078 13.9914 12.0046 13.9849C12.0013 13.9784 11.9996 13.9712 11.9996 13.964C11.9996 13.9312 12.009 13.903 12.0277 13.8796C12.0418 13.8515 12.0605 13.8374 12.084 13.8374C12.098 13.8374 12.1121 13.8421 12.1168 13.8515L12.1309 13.889V13.964C12.1309 13.9968 12.1309 14.0202 12.1402 14.0296C12.1402 14.0437 12.1543 14.053 12.1684 14.0718ZM12.098 13.9358C12.098 13.9171 12.084 13.9077 12.0652 13.9077C12.0587 13.9076 12.0522 13.9092 12.0465 13.9124C12.0371 13.9171 12.0371 13.9218 12.0371 13.9265C12.0371 13.9358 12.0465 13.9405 12.0746 13.9405C12.0824 13.9414 12.0903 13.9414 12.098 13.9405M12.4215 14.0483L12.4121 14.1468C12.3934 14.1327 12.3746 14.1093 12.3605 14.0765C12.3389 14.0265 12.3216 13.9747 12.309 13.9218C12.2983 13.9691 12.2857 14.016 12.2715 14.0624L12.2434 14.1233C12.2361 14.1346 12.2265 14.1442 12.2152 14.1515V14.0577L12.2527 14.0015C12.2649 13.9809 12.2743 13.9588 12.2809 13.9358C12.2875 13.9049 12.2922 13.8736 12.2949 13.8421H12.3137L12.3465 13.9358C12.363 13.9783 12.3886 14.0167 12.4215 14.0483Z" fill="white"/>
<path d="M13.1484 14.9625C13.1625 14.9766 13.1719 14.9906 13.1766 15.0094L13.1859 15.0656H13.1578C13.1487 15.0473 13.1377 15.03 13.125 15.0141C13.1101 14.9977 13.0945 14.9821 13.0781 14.9672L13.0172 14.9109C12.993 14.8897 12.9679 14.8694 12.9422 14.85L12.9188 14.8312L12.9094 14.8031C12.9063 14.783 12.9048 14.7626 12.9047 14.7422L13.0031 14.8219C13.0354 14.8488 13.0667 14.8769 13.0969 14.9062L13.1484 14.9625ZM12.7922 14.7469L12.7875 14.8219L12.6703 14.8172L12.6797 14.7422H12.7922M13.1063 15.075L12.825 15.1641L12.7687 15.0891L13.0125 15.0187C13.0054 15.0073 12.9976 14.9963 12.9891 14.9859L12.9562 14.9625C12.9559 14.9697 12.9541 14.9768 12.9509 14.9832C12.9476 14.9897 12.9431 14.9954 12.9375 15C12.927 15.0107 12.9142 15.0187 12.9 15.0234C12.8785 15.0292 12.8559 15.0292 12.8344 15.0234C12.8109 15.0234 12.7969 15.0094 12.7875 14.9953C12.7721 14.9716 12.764 14.9439 12.7641 14.9156C12.7641 14.8781 12.7734 14.8547 12.7922 14.8453C12.8203 14.8359 12.8578 14.8453 12.9094 14.8688C12.9539 14.8904 12.9926 14.9226 13.0219 14.9625L13.1063 15.075ZM12.8859 14.925C12.8769 14.9209 12.8675 14.9178 12.8578 14.9156C12.8502 14.9134 12.842 14.9134 12.8344 14.9156C12.8303 14.9161 12.8264 14.9177 12.8231 14.9201C12.8198 14.9226 12.8172 14.9259 12.8156 14.9297C12.814 14.9325 12.8131 14.9358 12.8131 14.9391C12.8131 14.9424 12.814 14.9456 12.8156 14.9484L12.8344 14.9578H12.8578C12.8636 14.9543 12.8684 14.9495 12.8719 14.9437L12.8859 14.925ZM12.5859 14.8688L12.5672 14.9437L12.45 14.9297L12.4688 14.8594L12.5859 14.8688ZM12.8672 15.15L12.8016 15.1688C12.7798 15.1724 12.7577 15.1724 12.7359 15.1688C12.7164 15.1683 12.6972 15.1635 12.6797 15.1547C12.6703 15.1734 12.6516 15.1875 12.6281 15.2016C12.6086 15.2101 12.5882 15.2164 12.5672 15.2203L12.5203 15.2344L12.4828 15.1594L12.5297 15.15L12.5766 15.1359L12.6047 15.1172C12.5943 15.11 12.5833 15.1037 12.5719 15.0984C12.5632 15.094 12.5534 15.0924 12.5438 15.0938C12.5407 15.0927 12.5374 15.0927 12.5344 15.0938C12.5329 15.0983 12.5329 15.1032 12.5344 15.1078H12.5109C12.4922 15.075 12.4875 15.0516 12.4969 15.0328C12.5109 15.0141 12.5344 15 12.5719 14.9906C12.6094 14.9812 12.6422 14.9812 12.6703 14.9906C12.6984 14.9906 12.7172 15.0047 12.7266 15.0187C12.7313 15.0281 12.7359 15.0375 12.7313 15.0469C12.7313 15.0563 12.7312 15.0703 12.7172 15.0938C12.7324 15.0988 12.7488 15.0988 12.7641 15.0938L12.825 15.0797L12.8625 15.1547M12.5625 15.225L12.5016 15.2344C12.4688 15.2344 12.4406 15.2344 12.4172 15.2156C12.3884 15.1907 12.3673 15.1582 12.3563 15.1219L12.3281 15.0422C12.3236 15.0241 12.3138 15.0078 12.3 14.9953L12.2625 14.9813L12.2859 14.9016L12.3375 14.9437L12.375 15.0047L12.3937 15.0609C12.4039 15.0903 12.4199 15.1174 12.4406 15.1406C12.45 15.1547 12.4594 15.1594 12.4734 15.1547L12.5344 15.1453L12.5625 15.225ZM12.3047 14.9437L12.2625 15.0141L12.1547 14.9859L12.1922 14.9156L12.3047 14.9437ZM12.3703 15.2578L12.0891 15.2812L12.075 15.2062L12.3094 15.1828C12.3028 15.1697 12.2932 15.1585 12.2812 15.15C12.2694 15.1412 12.2568 15.1334 12.2438 15.1266L12.2672 15.0563C12.2906 15.0703 12.3141 15.0844 12.3234 15.1031C12.3328 15.1219 12.3469 15.15 12.3516 15.1828L12.3703 15.2578ZM12.1453 15.2953C12.117 15.2942 12.0888 15.291 12.0609 15.2859C12.0401 15.2814 12.0198 15.2751 12 15.2672C11.985 15.2737 11.9692 15.2784 11.9531 15.2812H11.8125C11.7891 15.2812 11.775 15.2812 11.7656 15.2719L11.7375 15.2344C11.7199 15.2498 11.6991 15.261 11.6766 15.2672C11.6569 15.2737 11.6363 15.2768 11.6156 15.2766H11.55L11.5594 15.1922L11.6203 15.1969C11.6531 15.1969 11.6813 15.1969 11.7 15.1828C11.7281 15.1687 11.7469 15.1453 11.7469 15.1172H11.775C11.7731 15.1328 11.7715 15.1484 11.7703 15.1641C11.7703 15.1781 11.7703 15.1875 11.7844 15.1922L11.8172 15.2016H11.9531C11.9719 15.1922 11.9812 15.1781 11.9859 15.1547L11.9906 15.1406C11.9966 15.137 12.0029 15.1338 12.0094 15.1312L12.0281 15.1266V15.1547L12.0141 15.1922C12.0396 15.202 12.0665 15.2084 12.0938 15.2109C12.0938 15.2063 12.0937 15.1969 12.0844 15.1875C12.0844 15.1734 12.075 15.1687 12.075 15.1641C12.0756 15.1606 12.0773 15.1573 12.0797 15.1547L12.0938 15.1453L12.1312 15.1125L12.1453 15.1453C12.1453 15.1547 12.15 15.1687 12.1453 15.1828L12.1406 15.2953M11.7188 14.9672L11.6484 15.0141L11.5969 14.9859L11.5453 15.0234L11.475 14.9813L11.5406 14.9344L11.5969 14.9672L11.6484 14.925L11.7188 14.9719M11.6063 15.2719L11.3344 15.225L11.3672 15.15L11.5922 15.1875C11.5961 15.1753 11.5961 15.1622 11.5922 15.15C11.5853 15.1399 11.5775 15.1305 11.5688 15.1219L11.6297 15.0609C11.6438 15.0797 11.6531 15.0984 11.6531 15.1172C11.6531 15.1359 11.6531 15.1641 11.6344 15.1969L11.6063 15.2719ZM11.3766 15.2344L11.3203 15.2203C11.2875 15.2156 11.2688 15.2016 11.2641 15.1781C11.2594 15.1547 11.2688 15.1219 11.2969 15.075L11.3438 14.9953L11.3531 14.9531L11.3391 14.925L11.4234 14.8688L11.4328 14.9203C11.4328 14.9391 11.4234 14.9625 11.4047 14.9859L11.3766 15.0422C11.3596 15.0658 11.3484 15.0931 11.3438 15.1219C11.3438 15.1359 11.3484 15.1453 11.3625 15.1453L11.4188 15.1594L11.3766 15.2344ZM11.2359 14.9391L11.1422 14.9813L11.0766 14.9156L11.1703 14.8781L11.2406 14.9391M11.1984 15.1875C11.1834 15.2084 11.1643 15.2259 11.1422 15.2391C11.1234 15.2531 11.1 15.2578 11.0766 15.2625C11.047 15.2665 11.017 15.2665 10.9875 15.2625C10.9523 15.2565 10.9178 15.2471 10.8844 15.2344C10.8363 15.221 10.7926 15.1952 10.7578 15.1594C10.7344 15.1312 10.7344 15.1031 10.7578 15.075C10.7774 15.0507 10.8012 15.03 10.8281 15.0141C10.8733 14.9913 10.9203 14.9725 10.9688 14.9578L10.9875 14.9766C10.9406 14.9953 10.9031 15.0094 10.8844 15.0234C10.8668 15.0314 10.8509 15.0425 10.8375 15.0563C10.8234 15.075 10.8234 15.0938 10.8422 15.1172C10.9091 15.1699 10.9914 15.1995 11.0766 15.2016C11.1234 15.2016 11.1516 15.1875 11.1656 15.1734L11.1844 15.1406L11.1891 15.075L11.2828 15.0187L11.2781 15.075C11.2734 15.0938 11.2594 15.1125 11.2406 15.1359L11.1984 15.1875Z" fill="#BF0000"/>
</g>
<defs>
<clipPath id="clip0_208_26907">
<rect width="24" height="24" rx="12" fill="white"/>
</clipPath>
</defs>
</svg>
