<svg width="24" height="24" viewBox="0 0 24 24" fill="none" xmlns="http://www.w3.org/2000/svg">
<g clip-path="url(#clip0_208_23254)">
<path fill-rule="evenodd" clip-rule="evenodd" d="M0 0H24V24H0V0Z" fill="#00247D"/>
<path d="M18.5811 7.26233V7.90679L19.87 7.26233H18.5811Z" fill="white"/>
<path d="M18.8554 7.97853L18.4766 7.45715L19.8981 7.22092L18.8554 7.97853Z" fill="white"/>
<path d="M18.5811 7.26233V7.90679L17.2921 7.26233H18.5811Z" fill="white"/>
<path d="M18.3067 7.97853L18.6855 7.45715L17.264 7.22092L18.3067 7.97853Z" fill="white"/>
<path d="M18.9492 7.52954L18.3363 7.72869L19.3475 8.75538L18.9492 7.52954Z" fill="white"/>
<path d="M18.3526 8.0121L18.7314 7.49072L19.3954 8.76971L18.3526 8.0121Z" fill="white"/>
<path d="M18.2129 7.52954L18.8258 7.72869L18.6112 6.3037L18.2129 7.52954Z" fill="white"/>
<path d="M18.9791 7.48969L18.3662 7.68884L18.5808 6.26386L18.9791 7.48969Z" fill="white"/>
<path d="M18.2129 7.52954L18.8258 7.72869L17.8146 8.75538L18.2129 7.52954Z" fill="white"/>
<path d="M18.8095 8.0121L18.4307 7.49072L17.7667 8.76971L18.8095 8.0121Z" fill="white"/>
<path d="M18.582 7.39355V7.81941L19.4337 7.39355H18.582Z" fill="#CC142B"/>
<path d="M18.763 7.86686L18.5127 7.52234L19.4521 7.36624L18.763 7.86686Z" fill="#CC142B"/>
<path d="M18.5811 7.39355V7.81941L17.7293 7.39355H18.5811Z" fill="#CC142B"/>
<path d="M18.4001 7.86686L18.6504 7.52234L17.711 7.36624L18.4001 7.86686Z" fill="#CC142B"/>
<path d="M18.8252 7.57019L18.4202 7.70179L19.0884 8.38021L18.8252 7.57019Z" fill="#CC142B"/>
<path d="M18.4304 7.88896L18.6807 7.54443L19.1194 8.38958L18.4304 7.88896Z" fill="#CC142B"/>
<path d="M18.3389 7.57019L18.7439 7.70179L18.6021 6.76017L18.3389 7.57019Z" fill="#CC142B"/>
<path d="M18.8454 7.54382L18.4404 7.67542L18.5822 6.73379L18.8454 7.54382Z" fill="#CC142B"/>
<path d="M18.3379 7.57019L18.7429 7.70179L18.0747 8.38021L18.3379 7.57019Z" fill="#CC142B"/>
<path d="M18.7327 7.88896L18.4824 7.54443L18.0437 8.38958L18.7327 7.88896Z" fill="#CC142B"/>
<path d="M21.957 10.2382L21.957 10.8116L23.104 10.2382L21.957 10.2382Z" fill="white"/>
<path d="M22.2013 10.8756L21.8643 10.4116L23.1293 10.2014L22.2013 10.8756Z" fill="white"/>
<path d="M21.957 10.2382L21.957 10.8116L20.8101 10.2382L21.957 10.2382Z" fill="white"/>
<path d="M21.7127 10.8756L22.0498 10.4116L20.7848 10.2014L21.7127 10.8756Z" fill="white"/>
<path d="M22.2852 10.476L21.7397 10.6532L22.6396 11.5668L22.2852 10.476Z" fill="white"/>
<path d="M21.7537 10.9054L22.0908 10.4414L22.6817 11.5795L21.7537 10.9054Z" fill="white"/>
<path d="M21.6299 10.476L22.1753 10.6532L21.9843 9.38512L21.6299 10.476Z" fill="white"/>
<path d="M22.312 10.4406L21.7666 10.6178L21.9576 9.34975L22.312 10.4406Z" fill="white"/>
<path d="M21.6299 10.476L22.1753 10.6532L21.2755 11.5668L21.6299 10.476Z" fill="white"/>
<path d="M22.1613 10.9054L21.8242 10.4414L21.2334 11.5795L22.1613 10.9054Z" fill="white"/>
<path d="M21.957 10.3694L21.957 10.7243L22.6668 10.3694L21.957 10.3694Z" fill="#CC142B"/>
<path d="M22.108 10.7638L21.8994 10.4767L22.6822 10.3466L22.108 10.7638Z" fill="#CC142B"/>
<path d="M21.957 10.3694L21.957 10.7243L21.2473 10.3694L21.957 10.3694Z" fill="#CC142B"/>
<path d="M21.8061 10.7638L22.0146 10.4767L21.2318 10.3466L21.8061 10.7638Z" fill="#CC142B"/>
<path d="M22.1592 10.5166L21.8217 10.6263L22.3785 11.1916L22.1592 10.5166Z" fill="#CC142B"/>
<path d="M21.8314 10.7822L22.04 10.4951L22.4057 11.1994L21.8314 10.7822Z" fill="#CC142B"/>
<path d="M21.7549 10.5165L22.0924 10.6261L21.9742 9.84146L21.7549 10.5165Z" fill="#CC142B"/>
<path d="M22.1764 10.4946L21.8389 10.6042L21.957 9.81956L22.1764 10.4946Z" fill="#CC142B"/>
<path d="M21.7549 10.5165L22.0924 10.6261L21.5356 11.1915L21.7549 10.5165Z" fill="#CC142B"/>
<path d="M22.0826 10.7822L21.874 10.4951L21.5084 11.1994L22.0826 10.7822Z" fill="#CC142B"/>
<path d="M14.6465 11.2244L14.6465 11.8688L15.9354 11.2244L14.6465 11.2244Z" fill="white"/>
<path d="M14.9208 11.9406L14.542 11.4192L15.9636 11.183L14.9208 11.9406Z" fill="white"/>
<path d="M14.6465 11.2244L14.6465 11.8688L13.3576 11.2244L14.6465 11.2244Z" fill="white"/>
<path d="M14.3722 11.9406L14.751 11.4192L13.3294 11.183L14.3722 11.9406Z" fill="white"/>
<path d="M15.0146 11.4916L14.4017 11.6907L15.4129 12.7174L15.0146 11.4916Z" fill="white"/>
<path d="M14.4181 11.9741L14.7969 11.4528L15.4608 12.7317L14.4181 11.9741Z" fill="white"/>
<path d="M14.2783 11.4916L14.8912 11.6907L14.6766 10.2657L14.2783 11.4916Z" fill="white"/>
<path d="M15.0446 11.4517L14.4316 11.6509L14.6463 10.2259L15.0446 11.4517Z" fill="white"/>
<path d="M14.2783 11.4916L14.8912 11.6907L13.88 12.7174L14.2783 11.4916Z" fill="white"/>
<path d="M14.8749 11.9741L14.4961 11.4528L13.8321 12.7317L14.8749 11.9741Z" fill="white"/>
<path d="M14.6475 11.3555L14.6475 11.7813L15.4992 11.3555L14.6475 11.3555Z" fill="#CC142B"/>
<path d="M14.8284 11.8288L14.5781 11.4843L15.5175 11.3282L14.8284 11.8288Z" fill="#CC142B"/>
<path d="M14.6465 11.3555L14.6465 11.7813L13.7948 11.3555L14.6465 11.3555Z" fill="#CC142B"/>
<path d="M14.4655 11.8288L14.7158 11.4843L13.7765 11.3282L14.4655 11.8288Z" fill="#CC142B"/>
<path d="M14.8906 11.5321L14.4856 11.6637L15.1538 12.3421L14.8906 11.5321Z" fill="#CC142B"/>
<path d="M14.4958 11.8509L14.7461 11.5063L15.1848 12.3515L14.4958 11.8509Z" fill="#CC142B"/>
<path d="M14.4043 11.5321L14.8093 11.6637L14.6675 10.7221L14.4043 11.5321Z" fill="#CC142B"/>
<path d="M14.9109 11.5057L14.5059 11.6373L14.6477 10.6957L14.9109 11.5057Z" fill="#CC142B"/>
<path d="M14.4033 11.5321L14.8083 11.6637L14.1401 12.3421L14.4033 11.5321Z" fill="#CC142B"/>
<path d="M14.7982 11.8509L14.5479 11.5063L14.1091 12.3515L14.7982 11.8509Z" fill="#CC142B"/>
<path d="M18.5801 17.4403V18.1557L20.0109 17.4403H18.5801Z" fill="white"/>
<path d="M18.8854 18.2354L18.4648 17.6566L20.043 17.3944L18.8854 18.2354Z" fill="white"/>
<path d="M18.5811 17.4403V18.1557L17.1502 17.4403H18.5811Z" fill="white"/>
<path d="M18.2758 18.2354L18.6963 17.6566L17.1182 17.3944L18.2758 18.2354Z" fill="white"/>
<path d="M18.9883 17.7369L18.3079 17.958L19.4304 19.0978L18.9883 17.7369Z" fill="white"/>
<path d="M18.3265 18.2725L18.7471 17.6937L19.4841 19.1136L18.3265 18.2725Z" fill="white"/>
<path d="M18.1719 17.7368L18.8523 17.9579L18.614 16.376L18.1719 17.7368Z" fill="white"/>
<path d="M19.0222 17.6926L18.3418 17.9137L18.5801 16.3318L19.0222 17.6926Z" fill="white"/>
<path d="M18.1729 17.7369L18.8533 17.958L17.7307 19.0978L18.1729 17.7369Z" fill="white"/>
<path d="M18.8346 18.2725L18.4141 17.6937L17.677 19.1136L18.8346 18.2725Z" fill="white"/>
<path d="M18.5811 17.5714V18.0682L19.5747 17.5714H18.5811Z" fill="#CC142B"/>
<path d="M18.793 18.1236L18.501 17.7217L19.5969 17.5396L18.793 18.1236Z" fill="#CC142B"/>
<path d="M18.5811 17.5714V18.0682L17.5874 17.5714H18.5811Z" fill="#CC142B"/>
<path d="M18.3691 18.1236L18.6611 17.7217L17.5652 17.5396L18.3691 18.1236Z" fill="#CC142B"/>
<path d="M18.8643 17.7775L18.3917 17.931L19.1713 18.7225L18.8643 17.7775Z" fill="#CC142B"/>
<path d="M18.4043 18.1495L18.6963 17.7476L19.2081 18.7336L18.4043 18.1495Z" fill="#CC142B"/>
<path d="M18.2979 17.7773L18.7704 17.9309L18.6049 16.8323L18.2979 17.7773Z" fill="#CC142B"/>
<path d="M18.8885 17.7467L18.416 17.9003L18.5815 16.8017L18.8885 17.7467Z" fill="#CC142B"/>
<path d="M18.2979 17.7775L18.7704 17.931L17.9908 18.7225L18.2979 17.7775Z" fill="#CC142B"/>
<path d="M18.7578 18.1495L18.4658 17.7476L17.954 18.7336L18.7578 18.1495Z" fill="#CC142B"/>
<path d="M0 0H12V12H0V0Z" fill="#012169"/>
<path d="M12 0V1.5L7.54688 6L12 10.3828V12H10.4297L5.95312 7.59375L1.59375 12H0V10.4062L4.35938 6.02344L0 1.73438V0H1.45312L5.95312 4.40625L10.3125 0H12Z" fill="white"/>
<path d="M4.3125 7.59375L4.57031 8.39062L0.984375 12H0V11.9297L4.3125 7.59375ZM7.21875 7.3125L8.48438 7.5L12 10.9453V12L7.21875 7.3125ZM12 0L7.5 4.59375L7.40625 3.5625L10.9219 0H12ZM0 0.0234375L4.52344 4.45312L3.14062 4.26562L0 1.14844V0.0234375Z" fill="#C8102E"/>
<path d="M4.125 0V12H7.875V0H4.125ZM0 4.125V7.875H12V4.125H0Z" fill="white"/>
<path d="M0 4.875V7.125H12V4.875H0ZM4.875 0V12H7.125V0H4.875Z" fill="#C8102E"/>
</g>
<defs>
<clipPath id="clip0_208_23254">
<rect width="24" height="24" rx="12" fill="white"/>
</clipPath>
</defs>
</svg>
