<svg width="24" height="24" viewBox="0 0 24 24" fill="none" xmlns="http://www.w3.org/2000/svg">
<g clip-path="url(#clip0_208_27712)">
<mask id="mask0_208_27712" style="mask-type:luminance" maskUnits="userSpaceOnUse" x="0" y="-1" width="25" height="25">
<path d="M0.00390625 -0.000976562H24.002V23.9977H0.00390625V-0.000976562Z" fill="white"/>
</mask>
<g mask="url(#mask0_208_27712)">
<path d="M-0.0703125 0.00463867H47.7664V23.9919H-0.0703125V0.00463867Z" fill="#006400"/>
<path d="M-0.0703125 3.4314H47.7664V20.5651H-0.0703125V3.4314Z" fill="#FFD200"/>
<path d="M-0.0703125 6.85815H47.7664V17.1384H-0.0703125V6.85815Z" fill="#D40000"/>
<path d="M-0.0703125 10.2849H47.7664V13.7117H-0.0703125V10.2849Z" fill="black"/>
<path d="M-0.0703125 0.00463867V23.9919L15.8752 11.9983L-0.0703125 0.00463867Z" fill="black" stroke="black" stroke-width="3.04162"/>
<path d="M-0.0703125 0.00463867V23.9919L15.8752 11.9983L-0.0703125 0.00463867Z" fill="white"/>
<path d="M5.99499 5.96729L9.15563 15.7164L0.886719 9.69102H11.109L2.83436 15.7164L5.99499 5.96729Z" fill="#D40000"/>
<path d="M4.64455 14.4941L5.20264 14.3913L6.23341 14.3513L6.61496 14.3856L7.46919 14.5283L7.53183 14.4427V13.8259L7.63434 13.2947L7.80519 12.7579L7.99312 12.3295L8.2323 11.884L8.61955 11.9811H8.72205L8.73345 11.9069L7.91339 11.2044L7.05916 10.5476L5.82338 9.62238L5.70948 9.59382L5.5785 8.62291L5.48169 8.33163L5.35071 8.21741L5.10583 8.13745L4.83248 8.14887L4.70719 8.21741L4.44523 8.27452L4.30855 8.29737L4.21743 8.40588L4.20604 8.54295L4.5876 8.55437L4.68441 8.59435L4.67302 8.63433L4.45662 8.66289L4.35411 8.69715L4.4737 8.78853L4.59899 8.83422L4.75844 8.89134L4.79261 9.00556L4.804 10.4791L4.71858 10.7075L4.69011 11.1359L4.81539 11.6499L4.49648 12.0154L4.31425 12.3409L4.28008 12.5408L4.18326 12.7407L4.17188 12.8664L4.23452 13.0034L4.4794 13.8144L4.60468 14.4827L4.64455 14.4941Z" fill="#FFCC00"/>
<path d="M4.94128 8.11469C4.83878 8.11469 4.79322 8.12611 4.6964 8.17751C4.61618 8.22356 4.52664 8.25089 4.43444 8.25747C4.29207 8.25747 4.17817 8.36027 4.17817 8.49163V8.5773L4.38319 8.57158C4.98684 8.58872 4.44014 8.64583 4.39458 8.65154C4.24651 8.6801 4.42875 8.80004 4.60529 8.86286C4.79322 8.91997 4.78183 8.8857 4.78183 9.71955C4.78183 10.3992 4.78183 10.4963 4.72488 10.6505C4.65085 10.8789 4.65085 11.2216 4.72488 11.4501C4.75905 11.5414 4.78183 11.6214 4.78183 11.6385C4.78183 11.6499 4.69071 11.7585 4.58251 11.8841C4.38319 12.1126 4.2636 12.3467 4.2636 12.5123C4.25649 12.5656 4.23698 12.6165 4.20665 12.6608C4.13262 12.7579 4.13262 12.9236 4.20095 12.9864C4.27499 13.0549 4.57681 14.2314 4.58251 14.4542C4.58251 14.5341 4.5939 14.5341 5.05518 14.4427C5.43104 14.3685 6.31374 14.3514 6.76363 14.4085C6.96865 14.437 7.20783 14.4827 7.29325 14.4999C7.56661 14.5741 7.55522 14.5855 7.55522 14.2543C7.55731 13.7324 7.65578 13.2153 7.84565 12.7294C7.95447 12.4525 8.0859 12.185 8.2386 11.9298C8.2386 11.9298 8.3411 11.9412 8.46639 11.9755C8.69988 12.0326 8.76822 12.0269 8.76822 11.9184C8.76822 11.8613 8.52334 11.6557 7.32173 10.719C6.83708 10.3212 6.33747 9.94207 5.82398 9.58248C5.78982 9.58248 5.75565 9.56534 5.74995 9.5425L5.66453 8.99993C5.62466 8.72008 5.56772 8.44594 5.54494 8.38883C5.46521 8.21749 5.31145 8.13182 5.05518 8.11469C5.01722 8.11346 4.97924 8.11346 4.94128 8.11469ZM4.94698 8.1718H5.06087C5.43673 8.19464 5.50507 8.29744 5.60758 8.97137C5.63524 9.14967 5.65803 9.32868 5.67592 9.50823C5.67592 9.55392 5.62466 9.61103 5.49368 9.6967C5.27818 9.84836 5.08626 10.0312 4.9242 10.2393L4.85017 10.3421L4.83308 10.1022V9.42827C4.85017 8.93139 4.83308 8.8857 4.67363 8.82859C4.54264 8.7829 4.3718 8.73721 4.41736 8.70865C4.47431 8.67439 4.53125 8.69723 4.66793 8.65725C4.72488 8.64583 4.71918 8.65154 4.70779 8.60585C4.69641 8.53161 4.61668 8.49163 4.40597 8.50305C4.23512 8.51447 4.21804 8.50876 4.22943 8.46307C4.25221 8.37169 4.34332 8.31458 4.4857 8.29744C4.57286 8.28733 4.65762 8.26221 4.73627 8.2232C4.79984 8.18487 4.87281 8.16509 4.94698 8.16609V8.1718ZM5.79551 9.6453H5.81829C5.9151 9.66243 8.71127 11.8556 8.71127 11.9184C8.71127 11.9412 8.68849 11.9584 8.65432 11.9584C8.63154 11.9584 7.91969 11.7585 7.07685 11.5129C5.73287 11.1131 5.53924 11.056 5.48229 10.9817C5.44268 10.9315 5.42065 10.8697 5.41962 10.8057C5.41859 10.7416 5.43862 10.6791 5.4766 10.6276C5.50394 10.5944 5.52341 10.5553 5.53355 10.5134C5.53355 10.4449 5.39118 10.6162 5.3627 10.7133C5.33423 10.8275 5.39118 11.0217 5.4766 11.0845C5.51077 11.1131 5.76704 11.1988 6.04608 11.2844C6.52445 11.4215 6.55862 11.4386 6.5814 11.5186C6.63835 11.7071 6.43903 11.9298 6.15429 11.9926C6.04752 12.0183 5.94687 12.0648 5.85815 12.1297C5.56269 12.3751 5.2326 12.5753 4.87864 12.7237C4.85586 12.7408 4.82739 12.8322 4.8103 12.9178C4.77613 13.1063 4.76474 13.1349 4.70779 13.1349C4.67932 13.1349 4.67363 13.1177 4.6964 13.0549C4.73627 12.9407 4.73057 12.8036 4.69071 12.8036C4.66224 12.8036 4.65085 12.8436 4.65085 12.9064C4.65085 12.9635 4.63376 13.0321 4.61098 13.0492C4.58251 13.0835 4.57681 13.0606 4.5882 12.9178C4.59959 12.8208 4.5939 12.7465 4.58251 12.7465C4.55403 12.7465 4.50278 12.8893 4.4857 13.0149C4.47431 13.0892 4.47431 13.0892 4.45153 12.9978C4.43444 12.9293 4.44014 12.8836 4.49139 12.7979C4.52375 12.7359 4.54313 12.6678 4.54834 12.598C4.54834 12.5238 4.60529 12.4495 4.87295 12.1811C5.04379 12.004 5.2545 11.7813 5.32853 11.6842C5.45951 11.5243 5.46521 11.5129 5.45951 11.3473C5.45951 11.2559 5.44812 11.1702 5.43673 11.1588C5.40257 11.1245 5.35701 11.3073 5.37979 11.4044C5.39118 11.4957 5.37979 11.5243 5.19186 11.747C5.05665 11.9023 4.91411 12.0509 4.76474 12.1925C4.54264 12.3981 4.46292 12.5123 4.46292 12.6151C4.46292 12.6494 4.44014 12.7294 4.40597 12.8036C4.3718 12.8779 4.36041 12.9521 4.3718 12.9692C4.38319 12.9864 4.3718 12.9864 4.35471 12.9692C4.32624 12.9407 4.32624 12.895 4.34902 12.7979C4.36206 12.7496 4.36592 12.6992 4.36041 12.6494C4.33194 12.5923 4.29207 12.6608 4.27499 12.8036C4.2636 12.8836 4.24651 12.9464 4.22943 12.935C4.18956 12.9121 4.20095 12.7636 4.25221 12.6837C4.28068 12.6437 4.30916 12.5523 4.32624 12.4781C4.3661 12.2668 4.45722 12.0954 4.65654 11.867C4.72038 11.7973 4.78118 11.7249 4.83878 11.6499L4.78183 11.4615C4.70545 11.2068 4.7015 10.9358 4.77044 10.679C4.84447 10.462 4.99254 10.245 5.22603 10.0108C5.45382 9.78808 5.67592 9.65101 5.79551 9.6453ZM6.64974 11.4843C6.65693 11.4838 6.66421 11.4843 6.6711 11.4858C6.67799 11.4872 6.68434 11.4897 6.68972 11.4929C6.6951 11.4961 6.69939 11.5001 6.70232 11.5045C6.70524 11.509 6.70673 11.5138 6.70668 11.5186C6.70319 11.5253 6.69665 11.5311 6.68797 11.5353C6.6793 11.5394 6.66892 11.5416 6.65828 11.5416C6.64764 11.5416 6.63726 11.5394 6.62858 11.5353C6.61991 11.5311 6.61337 11.5253 6.60987 11.5186C6.60958 11.5107 6.61339 11.5029 6.62065 11.4967C6.62792 11.4905 6.6382 11.4861 6.64974 11.4843ZM6.79211 11.5015C6.7993 11.5009 6.80658 11.5014 6.81347 11.5029C6.82037 11.5044 6.82671 11.5068 6.83209 11.51C6.83747 11.5133 6.84176 11.5172 6.84469 11.5217C6.84761 11.5261 6.8491 11.5309 6.84906 11.5357C6.84556 11.5424 6.83902 11.5483 6.83034 11.5524C6.82167 11.5565 6.81129 11.5587 6.80065 11.5587C6.79001 11.5587 6.77963 11.5565 6.77096 11.5524C6.76228 11.5483 6.75574 11.5424 6.75224 11.5357C6.75195 11.5278 6.75576 11.5201 6.76302 11.5138C6.77029 11.5076 6.78057 11.5032 6.79211 11.5015ZM6.94017 11.53C6.94737 11.5295 6.95465 11.53 6.96154 11.5314C6.96843 11.5329 6.97478 11.5354 6.98016 11.5386C6.98554 11.5418 6.98983 11.5458 6.99275 11.5502C6.99568 11.5547 6.99717 11.5594 6.99712 11.5643C6.99362 11.571 6.98708 11.5768 6.97841 11.5809C6.96974 11.5851 6.95936 11.5873 6.94872 11.5873C6.93807 11.5873 6.9277 11.5851 6.91902 11.5809C6.91035 11.5768 6.90381 11.571 6.90031 11.5643C6.90001 11.5564 6.90382 11.5486 6.91109 11.5424C6.91836 11.5361 6.92863 11.5318 6.94017 11.53ZM7.07685 11.5586C7.08404 11.558 7.09132 11.5585 7.09822 11.56C7.10511 11.5615 7.11145 11.5639 7.11683 11.5672C7.12221 11.5704 7.12651 11.5744 7.12943 11.5788C7.13235 11.5832 7.13384 11.588 7.1338 11.5928C7.1303 11.5996 7.12376 11.6054 7.11509 11.6095C7.10641 11.6136 7.09603 11.6158 7.08539 11.6158C7.07475 11.6158 7.06437 11.6136 7.0557 11.6095C7.04702 11.6054 7.04048 11.5996 7.03699 11.5928C7.03669 11.5849 7.0405 11.5772 7.04777 11.5709C7.05503 11.5647 7.06531 11.5603 7.07685 11.5586ZM6.71807 11.5928C6.72527 11.5923 6.73255 11.5928 6.73944 11.5943C6.74633 11.5957 6.75268 11.5982 6.75806 11.6014C6.76344 11.6047 6.76773 11.6086 6.77065 11.613C6.77358 11.6175 6.77507 11.6223 6.77502 11.6271C6.77152 11.6338 6.76499 11.6396 6.75631 11.6438C6.74764 11.6479 6.73726 11.6501 6.72662 11.6501C6.71597 11.6501 6.7056 11.6479 6.69692 11.6438C6.68825 11.6396 6.68171 11.6338 6.67821 11.6271C6.67792 11.6192 6.68172 11.6115 6.68899 11.6052C6.69626 11.599 6.70653 11.5946 6.71807 11.5928ZM6.85475 11.6157C6.86194 11.6151 6.86923 11.6156 6.87612 11.6171C6.88301 11.6186 6.88935 11.621 6.89473 11.6243C6.90011 11.6275 6.90441 11.6315 6.90733 11.6359C6.91026 11.6403 6.91174 11.6451 6.9117 11.6499C6.9082 11.6567 6.90166 11.6625 6.89299 11.6666C6.88431 11.6707 6.87394 11.673 6.86329 11.673C6.85265 11.673 6.84227 11.6707 6.8336 11.6666C6.82492 11.6625 6.81838 11.6567 6.81489 11.6499C6.81459 11.642 6.8184 11.6343 6.82567 11.6281C6.83293 11.6218 6.84321 11.6174 6.85475 11.6157ZM7.15088 11.6271C7.15808 11.6266 7.16536 11.6271 7.17225 11.6285C7.17914 11.63 7.18549 11.6325 7.19087 11.6357C7.19625 11.6389 7.20054 11.6429 7.20346 11.6473C7.20639 11.6517 7.20788 11.6565 7.20783 11.6614C7.20433 11.6681 7.19779 11.6739 7.18912 11.678C7.18045 11.6822 7.17007 11.6844 7.15942 11.6844C7.14878 11.6844 7.1384 11.6822 7.12973 11.678C7.12106 11.6739 7.11452 11.6681 7.11102 11.6614C7.11072 11.6535 7.11453 11.6457 7.1218 11.6395C7.12907 11.6332 7.13934 11.6289 7.15088 11.6271ZM6.99712 11.6271C7.00431 11.6266 7.0116 11.6271 7.01849 11.6285C7.02538 11.63 7.03172 11.6325 7.0371 11.6357C7.04248 11.6389 7.04678 11.6429 7.0497 11.6473C7.05263 11.6517 7.05412 11.6565 7.05407 11.6614C7.05057 11.6681 7.04403 11.6739 7.03536 11.678C7.02668 11.6822 7.01631 11.6844 7.00566 11.6844C6.99502 11.6844 6.98464 11.6822 6.97597 11.678C6.9673 11.6739 6.96076 11.6681 6.95726 11.6614C6.95696 11.6535 6.96077 11.6457 6.96804 11.6395C6.9753 11.6332 6.98558 11.6289 6.99712 11.6271ZM7.28186 11.6614C7.28756 11.6614 7.49257 11.7071 7.73745 11.7756L8.18734 11.907L8.10192 12.0612C8.05419 12.1437 8.00862 12.2275 7.96525 12.3125C7.9083 12.4267 7.89691 12.4267 7.62355 12.3639C7.32742 12.2953 6.86045 12.2325 6.38208 12.1925L5.92649 12.1525L6.09734 12.0897C6.20049 12.0499 6.30127 12.0041 6.39916 11.9526C6.51306 11.8898 6.55862 11.8784 6.73516 11.8955C6.99143 11.9127 7.16227 11.8613 7.23061 11.7585L7.28756 11.6614H7.28186ZM6.78072 11.6956C6.78791 11.6951 6.79519 11.6956 6.80208 11.6971C6.80898 11.6985 6.81532 11.701 6.8207 11.7042C6.82608 11.7075 6.83037 11.7114 6.8333 11.7158C6.83622 11.7203 6.83771 11.7251 6.83767 11.7299C6.83417 11.7366 6.82763 11.7425 6.81895 11.7466C6.81028 11.7507 6.7999 11.7529 6.78926 11.7529C6.77862 11.7529 6.76824 11.7507 6.75957 11.7466C6.75089 11.7425 6.74435 11.7366 6.74085 11.7299C6.74056 11.722 6.74437 11.7143 6.75163 11.708C6.7589 11.7018 6.76918 11.6974 6.78072 11.6956ZM7.09963 11.6956C7.10682 11.6951 7.1141 11.6956 7.121 11.6971C7.12789 11.6985 7.13423 11.701 7.13961 11.7042C7.14499 11.7075 7.14929 11.7114 7.15221 11.7158C7.15513 11.7203 7.15662 11.7251 7.15658 11.7299C7.15227 11.7355 7.14573 11.7402 7.1377 11.7435C7.12966 11.7467 7.12043 11.7485 7.11102 11.7485C7.10161 11.7485 7.09238 11.7467 7.08434 11.7435C7.0763 11.7402 7.06977 11.7355 7.06546 11.7299C7.06517 11.722 7.06897 11.7143 7.07624 11.708C7.08351 11.7018 7.09378 11.6974 7.10532 11.6956H7.09963ZM6.64404 11.6956C6.65123 11.6951 6.65852 11.6956 6.66541 11.6971C6.6723 11.6985 6.67864 11.701 6.68402 11.7042C6.6894 11.7075 6.6937 11.7114 6.69662 11.7158C6.69955 11.7203 6.70103 11.7251 6.70099 11.7299C6.69749 11.7366 6.69095 11.7425 6.68228 11.7466C6.6736 11.7507 6.66323 11.7529 6.65258 11.7529C6.64194 11.7529 6.63156 11.7507 6.62289 11.7466C6.61422 11.7425 6.60768 11.7366 6.60418 11.7299C6.60568 11.723 6.6103 11.7166 6.61743 11.7115C6.62455 11.7064 6.63384 11.7028 6.64404 11.7014V11.6956ZM6.94587 11.7071C6.95904 11.706 6.97234 11.7083 6.98297 11.7137C6.99359 11.719 7.00071 11.7269 7.00282 11.7356C6.99932 11.7423 6.99278 11.7482 6.98411 11.7523C6.97543 11.7564 6.96505 11.7586 6.95441 11.7586C6.94377 11.7586 6.93339 11.7564 6.92472 11.7523C6.91604 11.7482 6.9095 11.7423 6.906 11.7356C6.90751 11.7287 6.91213 11.7223 6.91925 11.7172C6.92638 11.7121 6.93566 11.7085 6.94587 11.7071ZM6.57001 11.7699C6.5772 11.7693 6.58448 11.7698 6.59138 11.7713C6.59827 11.7728 6.60461 11.7752 6.60999 11.7785C6.61537 11.7817 6.61966 11.7857 6.62259 11.7901C6.62551 11.7945 6.627 11.7993 6.62696 11.8042C6.62346 11.8109 6.61692 11.8167 6.60825 11.8208C6.59957 11.8249 6.58919 11.8272 6.57855 11.8272C6.56791 11.8272 6.55753 11.8249 6.54886 11.8208C6.54018 11.8167 6.53364 11.8109 6.53014 11.8042C6.52985 11.7962 6.53366 11.7885 6.54093 11.7823C6.54819 11.776 6.55847 11.7716 6.57001 11.7699ZM6.71238 11.7699C6.72035 11.7692 6.72845 11.7698 6.73603 11.7716C6.7436 11.7734 6.75043 11.7764 6.75598 11.7802C6.76152 11.7841 6.76562 11.7888 6.76794 11.794C6.77026 11.7991 6.77073 11.8046 6.76933 11.8099C6.76583 11.8166 6.75929 11.8224 6.75062 11.8265C6.74194 11.8307 6.73156 11.8329 6.72092 11.8329C6.71028 11.8329 6.6999 11.8307 6.69123 11.8265C6.68255 11.8224 6.67601 11.8166 6.67252 11.8099C6.67222 11.802 6.67603 11.7942 6.6833 11.788C6.69056 11.7817 6.70084 11.7774 6.71238 11.7756V11.7699ZM6.86045 11.7813C6.87362 11.7802 6.88692 11.7826 6.89754 11.7879C6.90817 11.7932 6.91528 11.8011 6.91739 11.8099C6.9139 11.8166 6.90736 11.8224 6.89868 11.8265C6.89001 11.8307 6.87963 11.8329 6.86899 11.8329C6.85835 11.8329 6.84797 11.8307 6.83929 11.8265C6.83062 11.8224 6.82408 11.8166 6.82058 11.8099C6.82208 11.803 6.82671 11.7965 6.83383 11.7914C6.84096 11.7863 6.85024 11.7828 6.86045 11.7813ZM7.0199 11.7813C7.02709 11.7808 7.03438 11.7813 7.04127 11.7827C7.04816 11.7842 7.0545 11.7867 7.05988 11.7899C7.06526 11.7931 7.06956 11.7971 7.07248 11.8015C7.07541 11.8059 7.07689 11.8107 7.07685 11.8156C7.07335 11.8223 7.06681 11.8281 7.05814 11.8322C7.04946 11.8364 7.03909 11.8386 7.02844 11.8386C7.0178 11.8386 7.00742 11.8364 6.99875 11.8322C6.99007 11.8281 6.98354 11.8223 6.98004 11.8156C6.97974 11.8077 6.98355 11.7999 6.99082 11.7937C6.99808 11.7874 7.00836 11.7831 7.0199 11.7813ZM5.86385 12.2439C6.5361 12.2618 7.20526 12.3421 7.86274 12.4838C7.86843 12.4895 7.82857 12.6266 7.76593 12.7922L7.65203 13.1349C7.64633 13.1634 7.60647 13.1634 7.50966 13.152C7.03699 13.0778 5.67022 13.0835 5.1463 13.1634C4.84447 13.2091 4.80461 13.2034 4.82739 13.1406L4.88433 12.9407L4.9185 12.7865L5.22603 12.6266C5.431 12.5217 5.62551 12.3974 5.8069 12.2553H5.85815L5.86385 12.2439ZM4.32624 13.0549C4.34332 13.0549 4.37749 13.0721 4.41736 13.1006C4.47431 13.1349 4.54264 13.1634 4.57112 13.1634C4.71918 13.1634 4.79891 13.3747 4.9242 14.0772L4.96976 14.3285C4.98115 14.3856 4.96976 14.3971 4.83878 14.4256C4.67932 14.4599 4.63946 14.4656 4.63946 14.4427C4.63946 14.3856 4.48 13.6603 4.41166 13.4033C4.37765 13.2901 4.34726 13.1758 4.32055 13.0606C4.32141 13.0601 4.32239 13.0599 4.32339 13.0599C4.32439 13.0599 4.32537 13.0601 4.32624 13.0606V13.0549ZM5.95497 13.1691H6.12012L6.06317 13.2263C5.96635 13.3405 5.9208 13.3462 5.85246 13.2719C5.82846 13.2471 5.80916 13.2181 5.79551 13.1863C5.79551 13.1749 5.86954 13.1634 5.95497 13.1634V13.1691ZM6.30235 13.1691H6.60987L6.54153 13.2377C6.46181 13.3291 6.45611 13.3291 6.37069 13.2377L6.30235 13.1634V13.1691ZM6.76933 13.1691H6.84336C6.88322 13.1691 6.95726 13.1691 7.00282 13.1806L7.08824 13.1977L7.00851 13.2719C6.96295 13.3119 6.92309 13.3462 6.91739 13.3405L6.83767 13.2491L6.76933 13.1634V13.1691ZM7.25339 13.1863L7.32173 13.2034C7.36159 13.2148 7.44701 13.2205 7.50966 13.2263H7.62355L7.53813 13.3005C7.50719 13.3294 7.47275 13.3544 7.43562 13.3747C7.42993 13.3747 7.37868 13.3291 7.33881 13.2777L7.25339 13.1863ZM5.53355 13.192H5.54494C5.55063 13.2034 5.52785 13.2491 5.48799 13.2891L5.43104 13.369L5.34562 13.3005L5.26019 13.2263L5.39687 13.2091L5.53355 13.192ZM5.66453 13.2034L5.75565 13.2834L5.84676 13.369L5.67592 13.3805L5.50507 13.3862L5.5848 13.3005L5.66453 13.2034ZM6.6896 13.2034C6.70668 13.2034 6.71807 13.2091 6.73516 13.2205C6.76494 13.2487 6.78995 13.2814 6.80919 13.3176C6.83197 13.3633 6.82628 13.3747 6.75224 13.3747L6.60987 13.3462L6.54153 13.3291L6.61557 13.2548C6.64974 13.2205 6.67252 13.1977 6.6953 13.1977L6.6896 13.2034ZM6.21693 13.2034C6.2454 13.2034 6.27388 13.2205 6.30805 13.2777C6.34791 13.3405 6.34791 13.3405 6.19415 13.3405H6.04039L6.12012 13.2662C6.15998 13.2263 6.19415 13.2091 6.21693 13.2091V13.2034ZM7.18505 13.2148L7.25339 13.2834C7.33312 13.3576 7.34451 13.4033 7.28756 13.3976L7.1281 13.3805L7.00282 13.369L7.09393 13.2948L7.18505 13.2148ZM5.18047 13.2548C5.19186 13.2548 5.23742 13.2834 5.27158 13.3233L5.33992 13.3976L5.19755 13.4204L4.99823 13.449C4.95837 13.4604 4.96976 13.4319 5.05518 13.3576C5.11213 13.3005 5.16908 13.2548 5.18047 13.2548ZM4.96976 13.2548H4.99254C5.0381 13.2662 5.0381 13.2777 4.95837 13.3576L4.87295 13.4433L4.84447 13.369C4.82169 13.3119 4.82739 13.2948 4.87864 13.2719C4.90782 13.2611 4.93863 13.2553 4.96976 13.2548ZM7.58939 13.3576C7.60078 13.3576 7.60078 13.369 7.58939 13.3919C7.578 13.4376 7.52674 13.449 7.52674 13.4033C7.52674 13.3919 7.54383 13.3747 7.56661 13.3633H7.58369L7.58939 13.3576ZM6.37069 13.449C6.80919 13.449 7.25339 13.4604 7.36159 13.4718C7.53813 13.4947 7.55522 13.5004 7.55522 13.5689C7.55522 13.6489 7.53244 13.6546 7.29325 13.6146C7.22492 13.5975 6.93448 13.5746 6.65543 13.5518C6.11384 13.519 5.57036 13.5381 5.0324 13.6089C4.9242 13.6203 4.89572 13.6089 4.89572 13.5746C4.89572 13.5004 5.4766 13.449 6.37069 13.449ZM5.78412 13.6146H6.09164L6.0233 13.6889C5.93788 13.7802 5.93219 13.7802 5.85246 13.6889L5.78412 13.6146ZM6.18276 13.6146L6.26249 13.6946L6.34221 13.786L6.17706 13.7917H6.01191L6.09734 13.7003L6.17706 13.6146H6.18276ZM6.30235 13.6146H6.60987L6.54153 13.6889C6.46181 13.7802 6.45611 13.7802 6.37069 13.6889L6.30235 13.6146ZM5.57341 13.6146C5.5848 13.6146 5.57341 13.6432 5.53355 13.7003C5.49368 13.7517 5.45382 13.7917 5.44812 13.7917C5.43673 13.7917 5.39687 13.7574 5.3627 13.7174L5.29436 13.6432H5.39687C5.44898 13.6434 5.50083 13.6357 5.55063 13.6203C5.55815 13.6188 5.5659 13.6188 5.57341 13.6203V13.6146ZM5.68731 13.6432L5.76134 13.7117L5.84676 13.786L5.6987 13.7974L5.53355 13.8088L5.61328 13.7231L5.68731 13.6432ZM6.67821 13.6432L6.75794 13.7346C6.84906 13.8316 6.84336 13.8374 6.63835 13.7974L6.54153 13.7802L6.60987 13.7117L6.67821 13.6432ZM6.79211 13.6432H6.92878C7.07685 13.6432 7.09393 13.666 7.00851 13.746C6.94017 13.8031 6.94017 13.8031 6.86045 13.7174L6.79211 13.6432ZM5.04949 13.6717C5.11782 13.6717 5.11213 13.6774 5.02671 13.7631C4.96406 13.8259 4.95837 13.8259 4.93559 13.7802C4.9185 13.7231 4.96976 13.6774 5.04949 13.6717ZM7.25908 13.6832C7.28186 13.6832 7.32742 13.6832 7.37298 13.6946L7.50396 13.7174L7.42993 13.786L7.36159 13.8545L7.29895 13.7745L7.242 13.6832H7.25908ZM5.20894 13.7117C5.22603 13.7117 5.24311 13.7231 5.27158 13.7517C5.32853 13.8088 5.32853 13.8088 5.28297 13.8316C5.23884 13.8462 5.19275 13.8539 5.1463 13.8545H5.05518L5.12921 13.7745C5.16908 13.7346 5.18616 13.7174 5.20325 13.7117H5.20894ZM7.15088 13.7288C7.17366 13.7288 7.19075 13.7403 7.21922 13.786L7.27047 13.8545H7.15088C7.07116 13.8545 7.03699 13.8431 7.03699 13.8202C7.04838 13.7974 7.07685 13.7631 7.11102 13.746L7.15088 13.7288ZM7.51535 13.8031C7.52674 13.8031 7.52674 13.8145 7.52674 13.8316C7.52674 13.8888 7.47549 13.9287 7.45271 13.8888C7.44701 13.8716 7.4584 13.8431 7.48118 13.8259L7.51535 13.8031ZM6.04039 13.8716C6.53584 13.8716 7.08254 13.9059 7.40715 13.963L7.49827 13.9801V14.2314C7.49827 14.4199 7.48688 14.4827 7.4584 14.4827L7.17366 14.4256C6.51515 14.3136 5.84428 14.2944 5.18047 14.3685L5.04949 14.3856L5.01532 14.1743C5.00116 14.1028 4.99354 14.0302 4.99254 13.9573C4.99254 13.9573 5.12352 13.9287 5.27728 13.9116C5.46521 13.883 5.74426 13.8716 6.04039 13.8716Z" fill="black"/>
<path d="M7.03653 12.4438C6.86569 12.4438 6.74609 12.5638 6.74609 12.7408C6.74609 13.015 7.05362 13.152 7.23585 12.9579C7.41809 12.7637 7.2928 12.4438 7.03653 12.4438ZM7.03653 12.5124C7.06645 12.5124 7.09607 12.5183 7.1237 12.5298C7.15134 12.5413 7.17645 12.5581 7.19761 12.5793C7.21876 12.6005 7.23554 12.6257 7.24698 12.6534C7.25843 12.6811 7.26432 12.7108 7.26432 12.7408C7.26432 12.9122 7.0764 13.0264 6.92263 12.9521C6.76887 12.8665 6.78026 12.6038 6.94541 12.5352C6.97227 12.5225 7.00122 12.5147 7.03084 12.5124H7.03653Z" fill="black"/>
<path d="M7.03653 12.4438C6.86569 12.4438 6.74609 12.5638 6.74609 12.7408C6.74609 13.015 7.05362 13.152 7.23585 12.9579C7.41809 12.7637 7.2928 12.4438 7.03653 12.4438ZM7.03653 12.5124C7.06645 12.5124 7.09607 12.5183 7.1237 12.5298C7.15134 12.5413 7.17645 12.5581 7.19761 12.5793C7.21876 12.6005 7.23554 12.6257 7.24698 12.6534C7.25843 12.6811 7.26432 12.7108 7.26432 12.7408C7.26432 12.9122 7.0764 13.0264 6.92263 12.9521C6.76887 12.8665 6.78026 12.6038 6.94541 12.5352C6.97227 12.5225 7.00122 12.5147 7.03084 12.5124H7.03653Z" fill="black"/>
<path d="M4.94073 8.30297C4.91695 8.30443 4.89452 8.31513 4.87771 8.33304C4.8609 8.35095 4.85089 8.37482 4.84961 8.40007C4.84961 8.42813 4.86011 8.45505 4.8788 8.4749C4.89749 8.49474 4.92284 8.50589 4.94927 8.50589C4.9757 8.50589 5.00105 8.49474 5.01974 8.4749C5.03843 8.45505 5.04893 8.42813 5.04893 8.40007C5.04828 8.38597 5.04491 8.37217 5.03903 8.35952C5.03314 8.34686 5.02487 8.33563 5.01472 8.32653C5.00457 8.31742 4.99276 8.31063 4.98003 8.30658C4.9673 8.30252 4.95392 8.3013 4.94073 8.30297ZM4.94642 8.33724C4.96455 8.33724 4.98193 8.34386 4.99474 8.35564C5.00756 8.36742 5.01476 8.3834 5.01476 8.40007C5.01476 8.41673 5.00756 8.43271 4.99474 8.44449C4.98193 8.45627 4.96455 8.46289 4.94642 8.46289C4.9283 8.46289 4.91092 8.45627 4.8981 8.44449C4.88528 8.43271 4.87808 8.41673 4.87808 8.40007C4.87808 8.39182 4.87985 8.38365 4.88329 8.37602C4.88672 8.3684 4.89175 8.36148 4.8981 8.35564C4.90445 8.34981 4.91198 8.34518 4.92027 8.34202C4.92856 8.33887 4.93745 8.33724 4.94642 8.33724Z" fill="black"/>
</g>
</g>
<defs>
<clipPath id="clip0_208_27712">
<rect width="24" height="24" rx="12" fill="white"/>
</clipPath>
</defs>
</svg>
