<svg width="24" height="24" viewBox="0 0 24 24" fill="none" xmlns="http://www.w3.org/2000/svg">
<g clip-path="url(#clip0_208_22413)">
<path d="M0 0H24.0047V12H0V0Z" fill="#002B7F"/>
<path d="M0 12H24.0047V24H0V12Z" fill="#CE1126"/>
<path d="M6.12432 4.89205L6.04832 7.39204H3.51233C3.20034 6.78404 2.94434 6.27204 2.94434 5.57204C2.94434 4.98805 3.40433 4.52405 4.06433 4.52405C4.76433 4.52405 5.53633 4.76005 6.12432 4.89205Z" fill="#FFD83D"/>
<path d="M3.24902 5.00798V6.44798V5.00798ZM3.44902 4.85999V6.77998V4.85999ZM3.65702 4.75999V7.04798V4.75999ZM3.85702 4.71199V6.50798V4.71199ZM4.06102 4.70399V6.51598V4.70399ZM4.26502 4.63599V6.51598V4.63599ZM4.46902 4.63599V6.51598V4.63599ZM4.67302 4.65599V6.53598V4.65599ZM4.87702 4.67599V6.55198V4.67599ZM5.08102 4.79199V6.67198V4.79199ZM5.28102 4.81199V6.92798V4.81199ZM5.48901 4.81199V6.69198V4.81199ZM5.68901 4.81199V6.69198V4.81199Z" fill="#FFD83D"/>
<path d="M3.24902 5.00798V6.44798M3.44902 4.85999V6.77998M3.65702 4.75999V7.04798M3.85702 4.71199V6.50798M4.06102 4.70399V6.51598M4.26502 4.63599V6.51598M4.46902 4.63599V6.51598M4.67302 4.65599V6.53598M4.87702 4.67599V6.55198M5.08102 4.79199V6.67198M5.28102 4.81199V6.92798M5.48901 4.81199V6.69198M5.68901 4.81199V6.69198" stroke="black" stroke-width="0.159999" stroke-linecap="round" stroke-linejoin="round"/>
<path d="M4.52505 4.71997C4.95705 4.78797 5.90104 5.23197 5.79304 5.82797C5.64105 6.67596 5.14505 6.33596 4.48905 6.21596L3.99305 6.37996C3.81305 6.55996 3.55305 6.72796 3.37705 6.50796H3.08105V7.65996H6.33704V4.87997L4.52505 4.71997Z" fill="black" stroke="black" stroke-width="0.159999" stroke-linecap="round" stroke-linejoin="round"/>
<path d="M5.98018 4.71597C6.08843 4.71597 6.17618 4.62822 6.17618 4.51997C6.17618 4.41173 6.08843 4.32397 5.98018 4.32397C5.87193 4.32397 5.78418 4.41173 5.78418 4.51997C5.78418 4.62822 5.87193 4.71597 5.98018 4.71597Z" fill="#FFD83D" stroke="black" stroke-width="0.213332" stroke-linecap="round" stroke-linejoin="round"/>
<path d="M5.53682 4.60806C5.64507 4.60806 5.73282 4.52031 5.73282 4.41206C5.73282 4.30382 5.64507 4.21606 5.53682 4.21606C5.42857 4.21606 5.34082 4.30382 5.34082 4.41206C5.34082 4.52031 5.42857 4.60806 5.53682 4.60806Z" fill="#FFD83D" stroke="black" stroke-width="0.213332" stroke-linecap="round" stroke-linejoin="round"/>
<path d="M5.08467 4.496C5.19292 4.496 5.28067 4.40825 5.28067 4.3C5.28067 4.19176 5.19292 4.104 5.08467 4.104C4.97642 4.104 4.88867 4.19176 4.88867 4.3C4.88867 4.40825 4.97642 4.496 5.08467 4.496Z" fill="#FFD83D" stroke="black" stroke-width="0.213332" stroke-linecap="round" stroke-linejoin="round"/>
<path d="M4.63252 4.41995C4.74077 4.41995 4.82852 4.3322 4.82852 4.22395C4.82852 4.11571 4.74077 4.02795 4.63252 4.02795C4.52428 4.02795 4.43652 4.11571 4.43652 4.22395C4.43652 4.3322 4.52428 4.41995 4.63252 4.41995Z" fill="#FFD83D" stroke="black" stroke-width="0.213332" stroke-linecap="round" stroke-linejoin="round"/>
<path d="M4.18037 4.37601C4.28862 4.37601 4.37637 4.28826 4.37637 4.18001C4.37637 4.07176 4.28862 3.98401 4.18037 3.98401C4.07213 3.98401 3.98438 4.07176 3.98438 4.18001C3.98438 4.28826 4.07213 4.37601 4.18037 4.37601Z" fill="#FFD83D" stroke="black" stroke-width="0.213332" stroke-linecap="round" stroke-linejoin="round"/>
<path d="M3.74092 4.40006C3.84917 4.40006 3.93692 4.3123 3.93692 4.20406C3.93692 4.09581 3.84917 4.00806 3.74092 4.00806C3.63267 4.00806 3.54492 4.09581 3.54492 4.20406C3.54492 4.3123 3.63267 4.40006 3.74092 4.40006Z" fill="#FFD83D" stroke="black" stroke-width="0.213332" stroke-linecap="round" stroke-linejoin="round"/>
<path d="M3.31709 4.54398C3.42534 4.54398 3.51309 4.45622 3.51309 4.34798C3.51309 4.23973 3.42534 4.15198 3.31709 4.15198C3.20885 4.15198 3.12109 4.23973 3.12109 4.34798C3.12109 4.45622 3.20885 4.54398 3.31709 4.54398Z" fill="#FFD83D" stroke="black" stroke-width="0.213332" stroke-linecap="round" stroke-linejoin="round"/>
<path d="M2.96065 4.80801C3.0689 4.80801 3.15665 4.72026 3.15665 4.61201C3.15665 4.50377 3.0689 4.41602 2.96065 4.41602C2.8524 4.41602 2.76465 4.50377 2.76465 4.61201C2.76465 4.72026 2.8524 4.80801 2.96065 4.80801Z" fill="#FFD83D" stroke="black" stroke-width="0.213332" stroke-linecap="round" stroke-linejoin="round"/>
<path d="M2.70869 5.17203C2.81694 5.17203 2.90469 5.08428 2.90469 4.97603C2.90469 4.86778 2.81694 4.78003 2.70869 4.78003C2.60045 4.78003 2.5127 4.86778 2.5127 4.97603C2.5127 5.08428 2.60045 5.17203 2.70869 5.17203Z" fill="#FFD83D" stroke="black" stroke-width="0.213332" stroke-linecap="round" stroke-linejoin="round"/>
<path d="M2.58467 5.60403C2.69292 5.60403 2.78067 5.51628 2.78067 5.40804C2.78067 5.29979 2.69292 5.21204 2.58467 5.21204C2.47642 5.21204 2.38867 5.29979 2.38867 5.40804C2.38867 5.51628 2.47642 5.60403 2.58467 5.60403Z" fill="#FFD83D" stroke="black" stroke-width="0.213332" stroke-linecap="round" stroke-linejoin="round"/>
<path d="M2.58858 6.048C2.69682 6.048 2.78458 5.96025 2.78458 5.85201C2.78458 5.74376 2.69682 5.65601 2.58858 5.65601C2.48033 5.65601 2.39258 5.74376 2.39258 5.85201C2.39258 5.96025 2.48033 6.048 2.58858 6.048Z" fill="#FFD83D" stroke="black" stroke-width="0.213332" stroke-linecap="round" stroke-linejoin="round"/>
<path d="M2.67647 6.48404C2.78472 6.48404 2.87247 6.39629 2.87247 6.28804C2.87247 6.17979 2.78472 6.09204 2.67647 6.09204C2.56822 6.09204 2.48047 6.17979 2.48047 6.28804C2.48047 6.39629 2.56822 6.48404 2.67647 6.48404Z" fill="#FFD83D" stroke="black" stroke-width="0.213332" stroke-linecap="round" stroke-linejoin="round"/>
<path d="M6.06849 4.77999L6.04849 5.03998C5.55649 4.95999 4.86049 4.68799 4.20849 4.68799C3.6085 4.68799 3.1445 4.92798 3.1445 5.53598C3.1445 6.13198 3.3965 6.67598 3.7325 7.22798L3.3845 7.38798C3.0725 6.78798 2.8125 6.26798 2.8125 5.57198C2.8125 4.98799 3.2725 4.41199 4.06449 4.41199C4.76449 4.41199 5.48049 4.65199 6.06849 4.77999Z" fill="#FFD83D" stroke="black" stroke-width="0.213332" stroke-linecap="round" stroke-linejoin="round"/>
<path d="M6.57294 4.89205L6.64894 7.39204H9.18493C9.49693 6.78404 9.75293 6.27204 9.75293 5.57204C9.75293 4.98805 9.29293 4.52405 8.63293 4.52405C7.93294 4.52405 7.16094 4.76005 6.57294 4.89205Z" fill="#FFD83D"/>
<path d="M9.44824 5.00798V6.44798V5.00798ZM9.24824 4.85999V6.77998V4.85999ZM9.04024 4.75999V7.04798V4.75999ZM8.84024 4.71199V6.50798V4.71199ZM8.63625 4.70399V6.51598V4.70399ZM8.43225 4.63599V6.51598V4.63599ZM8.22825 4.63599V6.51598V4.63599ZM8.02425 4.65599V6.53598V4.65599ZM7.82025 4.67599V6.55198V4.67599ZM7.61625 4.79199V6.67198V4.79199ZM7.41625 4.81199V6.92798V4.81199ZM7.20825 4.81199V6.69198V4.81199ZM7.00825 4.81199V6.69198V4.81199Z" fill="#FFD83D"/>
<path d="M9.44824 5.00798V6.44798M9.24824 4.85999V6.77998M9.04024 4.75999V7.04798M8.84024 4.71199V6.50798M8.63625 4.70399V6.51598M8.43225 4.63599V6.51598M8.22825 4.63599V6.51598M8.02425 4.65599V6.53598M7.82025 4.67599V6.55198M7.61625 4.79199V6.67198M7.41625 4.81199V6.92798M7.20825 4.81199V6.69198M7.00825 4.81199V6.69198" stroke="black" stroke-width="0.159999" stroke-linecap="round" stroke-linejoin="round"/>
<path d="M8.17222 4.71997C7.74022 4.78797 6.79622 5.23197 6.90422 5.82797C7.05622 6.67596 7.55222 6.33596 8.20822 6.21596L8.70421 6.37996C8.88421 6.55996 9.14421 6.72796 9.32021 6.50796H9.61621V7.65996H6.36022V4.87997L8.17222 4.71997Z" fill="black" stroke="black" stroke-width="0.159999" stroke-linecap="round" stroke-linejoin="round"/>
<path d="M6.71709 4.71597C6.60884 4.71597 6.52109 4.62822 6.52109 4.51997C6.52109 4.41173 6.60884 4.32397 6.71709 4.32397C6.82533 4.32397 6.91309 4.41173 6.91309 4.51997C6.91309 4.62822 6.82533 4.71597 6.71709 4.71597Z" fill="#FFD83D" stroke="black" stroke-width="0.213332" stroke-linecap="round" stroke-linejoin="round"/>
<path d="M7.16045 4.60806C7.0522 4.60806 6.96445 4.52031 6.96445 4.41206C6.96445 4.30382 7.0522 4.21606 7.16045 4.21606C7.26869 4.21606 7.35645 4.30382 7.35645 4.41206C7.35645 4.52031 7.26869 4.60806 7.16045 4.60806Z" fill="#FFD83D" stroke="black" stroke-width="0.213332" stroke-linecap="round" stroke-linejoin="round"/>
<path d="M7.61259 4.496C7.50435 4.496 7.4166 4.40825 7.4166 4.3C7.4166 4.19176 7.50435 4.104 7.61259 4.104C7.72084 4.104 7.80859 4.19176 7.80859 4.3C7.80859 4.40825 7.72084 4.496 7.61259 4.496Z" fill="#FFD83D" stroke="black" stroke-width="0.213332" stroke-linecap="round" stroke-linejoin="round"/>
<path d="M8.06474 4.41995C7.9565 4.41995 7.86874 4.3322 7.86874 4.22395C7.86874 4.11571 7.9565 4.02795 8.06474 4.02795C8.17299 4.02795 8.26074 4.11571 8.26074 4.22395C8.26074 4.3322 8.17299 4.41995 8.06474 4.41995Z" fill="#FFD83D" stroke="black" stroke-width="0.213332" stroke-linecap="round" stroke-linejoin="round"/>
<path d="M8.51689 4.37601C8.40864 4.37601 8.32089 4.28826 8.32089 4.18001C8.32089 4.07176 8.40864 3.98401 8.51689 3.98401C8.62514 3.98401 8.71289 4.07176 8.71289 4.18001C8.71289 4.28826 8.62514 4.37601 8.51689 4.37601Z" fill="#FFD83D" stroke="black" stroke-width="0.213332" stroke-linecap="round" stroke-linejoin="round"/>
<path d="M8.95634 4.40006C8.8481 4.40006 8.76035 4.3123 8.76035 4.20406C8.76035 4.09581 8.8481 4.00806 8.95634 4.00806C9.06459 4.00806 9.15234 4.09581 9.15234 4.20406C9.15234 4.3123 9.06459 4.40006 8.95634 4.40006Z" fill="#FFD83D" stroke="black" stroke-width="0.213332" stroke-linecap="round" stroke-linejoin="round"/>
<path d="M9.38017 4.54398C9.27193 4.54398 9.18417 4.45622 9.18417 4.34798C9.18417 4.23973 9.27193 4.15198 9.38017 4.15198C9.48842 4.15198 9.57617 4.23973 9.57617 4.34798C9.57617 4.45622 9.48842 4.54398 9.38017 4.54398Z" fill="#FFD83D" stroke="black" stroke-width="0.213332" stroke-linecap="round" stroke-linejoin="round"/>
<path d="M9.73662 4.80801C9.62837 4.80801 9.54062 4.72026 9.54062 4.61201C9.54062 4.50377 9.62837 4.41602 9.73662 4.41602C9.84486 4.41602 9.93262 4.50377 9.93262 4.61201C9.93262 4.72026 9.84486 4.80801 9.73662 4.80801Z" fill="#FFD83D" stroke="black" stroke-width="0.213332" stroke-linecap="round" stroke-linejoin="round"/>
<path d="M9.98857 5.17203C9.88032 5.17203 9.79257 5.08428 9.79257 4.97603C9.79257 4.86778 9.88032 4.78003 9.98857 4.78003C10.0968 4.78003 10.1846 4.86778 10.1846 4.97603C10.1846 5.08428 10.0968 5.17203 9.98857 5.17203Z" fill="#FFD83D" stroke="black" stroke-width="0.213332" stroke-linecap="round" stroke-linejoin="round"/>
<path d="M10.1126 5.60403C10.0043 5.60403 9.9166 5.51628 9.9166 5.40804C9.9166 5.29979 10.0043 5.21204 10.1126 5.21204C10.2208 5.21204 10.3086 5.29979 10.3086 5.40804C10.3086 5.51628 10.2208 5.60403 10.1126 5.60403Z" fill="#FFD83D" stroke="black" stroke-width="0.213332" stroke-linecap="round" stroke-linejoin="round"/>
<path d="M10.1087 6.048C10.0004 6.048 9.91269 5.96025 9.91269 5.85201C9.91269 5.74376 10.0004 5.65601 10.1087 5.65601C10.2169 5.65601 10.3047 5.74376 10.3047 5.85201C10.3047 5.96025 10.2169 6.048 10.1087 6.048Z" fill="#FFD83D" stroke="black" stroke-width="0.213332" stroke-linecap="round" stroke-linejoin="round"/>
<path d="M10.0208 6.48404C9.91255 6.48404 9.8248 6.39629 9.8248 6.28804C9.8248 6.17979 9.91255 6.09204 10.0208 6.09204C10.129 6.09204 10.2168 6.17979 10.2168 6.28804C10.2168 6.39629 10.129 6.48404 10.0208 6.48404Z" fill="#FFD83D" stroke="black" stroke-width="0.213332" stroke-linecap="round" stroke-linejoin="round"/>
<path d="M6.62878 4.77999L6.64878 5.03998C7.14078 4.95999 7.83677 4.68799 8.48877 4.68799C9.08877 4.68799 9.55277 4.92798 9.55277 5.53598C9.55277 6.13198 9.30077 6.67598 8.96477 7.22798L9.31277 7.38798C9.62477 6.78798 9.88477 6.26798 9.88477 5.57198C9.88477 4.98799 9.42477 4.41199 8.63277 4.41199C7.93277 4.41199 7.21678 4.65199 6.62878 4.77999Z" fill="#FFD83D" stroke="black" stroke-width="0.213332" stroke-linecap="round" stroke-linejoin="round"/>
<path d="M6.3483 2.124L6.1403 2.51199L6.3483 2.89599L6.5523 2.51199L6.3483 2.12V2.124ZM6.3483 3.09999L6.1403 3.48399L6.3483 3.87199L6.5483 3.47999L6.3443 3.09599L6.3483 3.09999ZM5.6123 2.99999L5.9363 3.20399L6.2603 2.99999L5.9403 2.79199L5.6123 2.99999ZM6.4323 2.99999L6.7563 3.20399L7.0843 2.99999L6.7563 2.79199L6.4363 2.99999H6.4323Z" fill="#FFD83D" stroke="black" stroke-width="0.213332" stroke-linecap="round" stroke-linejoin="round"/>
<path d="M6.34838 3.16002C6.43454 3.16002 6.50438 3.09018 6.50438 3.00402C6.50438 2.91787 6.43454 2.84802 6.34838 2.84802C6.26223 2.84802 6.19238 2.91787 6.19238 3.00402C6.19238 3.09018 6.26223 3.16002 6.34838 3.16002Z" fill="#FFD83D" stroke="black" stroke-width="0.213332" stroke-linecap="round" stroke-linejoin="round"/>
<path d="M6.34871 4.41995C6.58067 4.41995 6.76871 4.23191 6.76871 3.99995C6.76871 3.768 6.58067 3.57996 6.34871 3.57996C6.11675 3.57996 5.92871 3.768 5.92871 3.99995C5.92871 4.23191 6.11675 4.41995 6.34871 4.41995Z" fill="#FFD83D" stroke="black" stroke-width="0.213332" stroke-linecap="round" stroke-linejoin="round"/>
<path d="M6.24043 3.59595V3.85995C6.14121 3.86472 6.04237 3.87541 5.94443 3.89195M6.75243 3.89195C6.65317 3.87521 6.55298 3.86452 6.45243 3.85995V3.59595M5.94043 4.10395C6.07519 4.08061 6.21166 4.06856 6.34843 4.06795C6.48443 4.06795 6.62043 4.07995 6.74843 4.10395" stroke="black" stroke-width="0.159999" stroke-linecap="round" stroke-linejoin="round"/>
<path d="M5.94073 4.70801C5.90073 5.38801 5.82073 6.088 5.55273 6.592L5.98473 6.416C6.13673 5.844 6.16873 5.10401 6.21273 4.75201L5.94073 4.70801ZM6.75673 4.70801L6.48073 4.75201C6.52873 5.10401 6.56073 5.844 6.70873 6.416L7.14073 6.592C6.87673 6.088 6.79673 5.39201 6.75673 4.70801Z" fill="#FFD83D" stroke="black" stroke-width="0.213332" stroke-linecap="round" stroke-linejoin="round"/>
<path d="M6.34863 6.18799C5.82863 6.18799 5.44864 6.42799 5.42864 7.05199C5.30064 6.82799 4.76864 6.13199 4.26864 6.22399C3.97264 6.27999 3.70864 6.69199 3.75664 7.15998C3.50864 6.45599 2.79265 6.33999 2.26465 6.75999C2.73265 7.13998 2.94065 8.27198 3.33264 8.75998H9.36062C9.75262 8.27198 9.96062 7.13998 10.4286 6.75999C9.90462 6.33999 9.18462 6.45599 8.94062 7.15998C8.98062 6.69199 8.72062 6.27999 8.42062 6.22399C7.92463 6.13199 7.39263 6.82799 7.26463 7.05199C7.24463 6.43199 6.86463 6.18799 6.34463 6.18799H6.34863Z" fill="#FFD83D" stroke="black" stroke-width="0.213332" stroke-linecap="round" stroke-linejoin="round"/>
<path d="M9.3528 8.76004C9.3528 8.98404 8.0088 9.22804 6.34881 9.22804C4.68881 9.22804 3.34082 8.98804 3.34082 8.76004C3.34082 8.54004 4.68881 8.42004 6.34881 8.42004C8.0048 8.42004 9.3528 8.54004 9.3528 8.76004Z" fill="black" stroke="black" stroke-width="0.159999" stroke-linecap="round" stroke-linejoin="round"/>
<path d="M6.34898 4.71603C6.4263 4.71603 6.48898 4.65335 6.48898 4.57603C6.48898 4.49872 6.4263 4.43604 6.34898 4.43604C6.27166 4.43604 6.20898 4.49872 6.20898 4.57603C6.20898 4.65335 6.27166 4.71603 6.34898 4.71603Z" fill="#FFD83D" stroke="black" stroke-width="0.159999" stroke-linecap="round" stroke-linejoin="round"/>
<path d="M6.34917 5.02805C6.43091 5.02805 6.49717 4.96179 6.49717 4.88005C6.49717 4.79832 6.43091 4.73206 6.34917 4.73206C6.26743 4.73206 6.20117 4.79832 6.20117 4.88005C6.20117 4.96179 6.26743 5.02805 6.34917 5.02805Z" fill="#FFD83D" stroke="black" stroke-width="0.159999" stroke-linecap="round" stroke-linejoin="round"/>
<path d="M6.34857 5.37207C6.43914 5.37207 6.51257 5.29864 6.51257 5.20807C6.51257 5.11749 6.43914 5.04407 6.34857 5.04407C6.258 5.04407 6.18457 5.11749 6.18457 5.20807C6.18457 5.29864 6.258 5.37207 6.34857 5.37207Z" fill="#FFD83D" stroke="black" stroke-width="0.159999" stroke-linecap="round" stroke-linejoin="round"/>
<path d="M6.34913 5.76003C6.45296 5.76003 6.53713 5.67586 6.53713 5.57203C6.53713 5.4682 6.45296 5.38403 6.34913 5.38403C6.2453 5.38403 6.16113 5.4682 6.16113 5.57203C6.16113 5.67586 6.2453 5.76003 6.34913 5.76003Z" fill="#FFD83D" stroke="black" stroke-width="0.159999" stroke-linecap="round" stroke-linejoin="round"/>
<path d="M6.34853 6.17997C6.4612 6.17997 6.55253 6.08864 6.55253 5.97597C6.55253 5.86331 6.4612 5.77197 6.34853 5.77197C6.23587 5.77197 6.14453 5.86331 6.14453 5.97597C6.14453 6.08864 6.23587 6.17997 6.34853 6.17997Z" fill="#FFD83D" stroke="black" stroke-width="0.159999" stroke-linecap="round" stroke-linejoin="round"/>
<path d="M6.26872 6.36804C6.24472 6.36804 6.22472 6.38804 6.22872 6.42404L6.25272 6.59604C6.26072 6.65604 6.29272 6.63604 6.30472 6.59604C6.31272 6.54804 6.30872 6.51604 6.31272 6.43204C6.31272 6.38804 6.28872 6.36804 6.26472 6.36804H6.26872ZM6.42872 6.36804C6.40472 6.36804 6.38472 6.38804 6.38472 6.43204C6.38472 6.51604 6.38472 6.54804 6.39272 6.59204C6.40072 6.64004 6.43272 6.65604 6.44472 6.59204L6.46472 6.42404C6.47272 6.38404 6.44872 6.36804 6.42872 6.36804ZM6.12072 6.39204C6.11011 6.39204 6.09994 6.39626 6.09244 6.40376C6.08494 6.41126 6.08072 6.42143 6.08072 6.43204C6.08072 6.47204 6.09272 6.52404 6.09672 6.58404C6.10472 6.64404 6.14872 6.62404 6.15272 6.58404C6.15272 6.55204 6.16072 6.49604 6.15272 6.42804C6.15272 6.40404 6.14472 6.39204 6.12872 6.38804C6.12607 6.38771 6.12338 6.38771 6.12072 6.38804V6.39204ZM6.56472 6.39204C6.55272 6.39204 6.54072 6.40404 6.53672 6.43204C6.53457 6.48285 6.53725 6.53374 6.54472 6.58404C6.54472 6.62404 6.59272 6.64404 6.59672 6.58404C6.59672 6.52404 6.61272 6.47604 6.61272 6.43604C6.61272 6.41204 6.59272 6.39604 6.57272 6.39204C6.57006 6.39171 6.56738 6.39171 6.56472 6.39204ZM5.94872 6.46004C5.92872 6.46404 5.90872 6.48804 5.91672 6.51204C5.92872 6.56404 5.94072 6.62004 5.94072 6.67204C5.94072 6.71604 5.97672 6.70004 5.98072 6.67204C5.98384 6.61877 5.98517 6.5654 5.98472 6.51204C5.98472 6.47204 5.96472 6.45604 5.94472 6.46004H5.94872ZM6.73272 6.46004C6.72072 6.46404 6.70872 6.48004 6.70872 6.51204L6.71672 6.67204C6.71672 6.70004 6.75672 6.71604 6.75672 6.67204C6.75672 6.62004 6.76472 6.56404 6.77672 6.51204C6.78472 6.48804 6.76472 6.46404 6.74872 6.46004C6.74478 6.45903 6.74065 6.45903 6.73672 6.46004H6.73272ZM4.37273 6.46804C4.34873 6.46804 4.33273 6.49604 4.34873 6.52804C4.37273 6.58404 4.40073 6.61604 4.42473 6.67204C4.44473 6.72404 4.48073 6.69204 4.46873 6.65604L4.41273 6.50804C4.40073 6.48004 4.38473 6.46804 4.37273 6.46804ZM8.32471 6.46804C8.30871 6.46804 8.29671 6.48004 8.28471 6.50804C8.24871 6.58404 8.23671 6.62004 8.22471 6.65604C8.21671 6.69604 8.24871 6.72404 8.27271 6.67204L8.34471 6.52804C8.36071 6.49604 8.34471 6.46804 8.32471 6.46804ZM4.53273 6.46804C4.51273 6.47604 4.50473 6.49604 4.51273 6.52004C4.53673 6.56804 4.56473 6.62004 4.58473 6.67204C4.60073 6.71604 4.64073 6.70404 4.62473 6.66404L4.58473 6.51604C4.56873 6.47604 4.54473 6.46404 4.53273 6.46804ZM8.15271 6.46804C8.13671 6.47204 8.12071 6.48804 8.11271 6.51604C8.08471 6.59604 8.08071 6.62004 8.06871 6.66404C8.05271 6.70404 8.09271 6.71604 8.10871 6.67204L8.18071 6.52004C8.18871 6.49604 8.18071 6.47604 8.16471 6.46804C8.16078 6.46703 8.15665 6.46703 8.15271 6.46804ZM4.73273 6.50804C4.70873 6.51204 4.69273 6.54404 4.70873 6.58404C4.72473 6.63204 4.74873 6.67604 4.77273 6.73204C4.79673 6.78804 4.83273 6.77604 4.82473 6.74004C4.81273 6.70404 4.80473 6.64804 4.77673 6.56004C4.76473 6.52004 4.74873 6.50404 4.73273 6.50804ZM7.96471 6.50804C7.94871 6.50804 7.92872 6.52004 7.91672 6.56004C7.89272 6.64804 7.87672 6.70404 7.87272 6.74004C7.86072 6.78004 7.90071 6.78804 7.92071 6.73204C7.94471 6.67604 7.96871 6.63204 7.98471 6.58404C8.00071 6.54404 7.98471 6.51204 7.96471 6.50804ZM4.23673 6.53604C4.21273 6.53604 4.19673 6.57604 4.20873 6.60404C4.22873 6.64404 4.24473 6.66004 4.26473 6.70804C4.28873 6.75604 4.31273 6.72004 4.30473 6.68804C4.29273 6.65604 4.28073 6.62004 4.27273 6.57604C4.26473 6.54404 4.24873 6.53604 4.23273 6.53604H4.23673ZM8.46071 6.53604C8.44471 6.53604 8.43271 6.54404 8.42071 6.57604L8.39271 6.68804C8.38471 6.72004 8.40871 6.75604 8.43271 6.70804C8.45271 6.66004 8.46471 6.64804 8.48871 6.60404C8.50071 6.57604 8.48071 6.54004 8.46071 6.53604ZM5.78072 6.64804C5.75272 6.64804 5.72872 6.68004 5.74072 6.70804C5.74872 6.75604 5.77272 6.79604 5.78472 6.85604C5.80072 6.90804 5.83672 6.88404 5.83272 6.84804C5.82982 6.7943 5.82313 6.74084 5.81272 6.68804C5.80472 6.66004 5.79272 6.64804 5.77672 6.64804H5.78072ZM6.91672 6.64804C6.90472 6.64804 6.88872 6.66004 6.88472 6.68804C6.87297 6.74074 6.86495 6.79421 6.86072 6.84804C6.86072 6.88404 6.89672 6.90804 6.90872 6.85604L6.95672 6.70804C6.96472 6.68004 6.94072 6.64804 6.91672 6.64804ZM6.34872 6.69604C6.31672 6.69604 6.31272 6.73604 6.31272 6.76404C6.31028 6.85514 6.28258 6.94376 6.23272 7.02004C6.19272 7.06804 6.14072 7.05604 6.09272 7.02804C6.0462 7.00268 6.00202 6.97324 5.96072 6.94004C5.90472 6.90004 5.86472 6.92404 5.92872 7.01604C6.11272 7.28004 6.31272 7.50404 6.31272 7.93604C6.31272 7.98804 6.32472 8.00404 6.34872 8.00404C6.37272 8.00404 6.38072 7.98804 6.38072 7.93204C6.38072 7.50404 6.58072 7.28004 6.76472 7.01204C6.82872 6.92404 6.78872 6.90004 6.73672 6.94004C6.69559 6.97347 6.6514 7.00294 6.60472 7.02804C6.55272 7.05604 6.50072 7.06804 6.46472 7.02004C6.41486 6.94376 6.38716 6.85514 6.38472 6.76404C6.38072 6.73604 6.37672 6.69604 6.34472 6.69604H6.34872ZM4.93673 6.63204C4.93408 6.63159 4.93137 6.63159 4.92873 6.63204C4.91673 6.63604 4.91273 6.64804 4.91673 6.67204L4.96073 6.82804C4.97273 6.86804 5.01673 6.85604 5.00873 6.80804L4.98473 6.68404C4.97673 6.65204 4.95273 6.63204 4.93673 6.63204ZM7.76072 6.63204C7.74072 6.63204 7.72072 6.65204 7.71272 6.68404C7.69672 6.74004 7.69672 6.75604 7.68872 6.80404C7.67672 6.85604 7.72472 6.86404 7.73272 6.82804L7.78071 6.66804C7.78071 6.64804 7.77672 6.63604 7.76472 6.63204C7.76207 6.63159 7.75936 6.63159 7.75672 6.63204H7.76072ZM4.09673 6.64804C4.07273 6.64804 4.05673 6.68004 4.08073 6.72004C4.10473 6.76804 4.14873 6.82404 4.16873 6.86004C4.18873 6.89204 4.22473 6.86804 4.20073 6.82804C4.17673 6.78804 4.16873 6.73604 4.13673 6.67604C4.13409 6.66761 4.12873 6.66029 4.1215 6.65523C4.11426 6.65016 4.10555 6.64764 4.09673 6.64804ZM8.59671 6.64804C8.58471 6.64804 8.56871 6.65604 8.55671 6.67604C8.52871 6.73604 8.51671 6.78404 8.49671 6.82804C8.47271 6.86804 8.50471 6.89204 8.52471 6.86004C8.54471 6.82404 8.58871 6.76804 8.61271 6.72004C8.63671 6.68004 8.62071 6.64804 8.59671 6.64804ZM2.82874 6.78004C2.80474 6.78004 2.79674 6.82804 2.82074 6.86004C2.8518 6.89935 2.88663 6.93552 2.92473 6.96804C2.95673 7.00004 2.96473 6.96004 2.94873 6.92804L2.87673 6.82004C2.85673 6.79204 2.84074 6.78004 2.82874 6.78004ZM9.86471 6.78004C9.85271 6.78004 9.83671 6.79204 9.82071 6.82004L9.74471 6.92804C9.72871 6.96004 9.73671 7.00004 9.77271 6.96804C9.81085 6.93556 9.84569 6.89938 9.87671 6.86004C9.90071 6.82804 9.89271 6.78004 9.86471 6.78004ZM3.03273 6.82004C3.00873 6.82004 2.99273 6.83604 3.01273 6.87204L3.08873 7.02404C3.10873 7.06404 3.16873 7.07604 3.14473 7.01604L3.09273 6.86404C3.08073 6.83604 3.05273 6.82404 3.03273 6.82404V6.82004ZM9.66471 6.82004C9.64071 6.82004 9.61271 6.83604 9.60071 6.86404L9.55271 7.01604C9.52871 7.07604 9.58871 7.06404 9.60871 7.02404C9.62871 6.98404 9.66071 6.92404 9.68071 6.87204C9.70071 6.83604 9.68471 6.82004 9.66471 6.82004ZM2.64074 6.83604C2.60874 6.83604 2.60874 6.86404 2.63674 6.88404C2.67274 6.91204 2.71674 6.94004 2.75674 6.97604C2.80874 7.01604 2.82474 6.97604 2.79674 6.94404C2.77274 6.91204 2.74874 6.88004 2.68074 6.84404C2.66474 6.83604 2.65274 6.83604 2.64074 6.83604ZM10.0527 6.83604C10.0447 6.83604 10.0287 6.83604 10.0127 6.84404C9.94871 6.88004 9.92071 6.91204 9.89271 6.94404C9.86871 6.98004 9.88871 7.01604 9.93671 6.97604C9.97671 6.94004 10.0247 6.91204 10.0567 6.88404C10.0887 6.86404 10.0847 6.83604 10.0567 6.83604H10.0527ZM5.66872 6.86404C5.64872 6.86404 5.63672 6.88404 5.64072 6.91204L5.68072 7.05604C5.68872 7.10004 5.74072 7.10004 5.73272 7.05604C5.72472 7.01604 5.72072 6.96404 5.70472 6.90004C5.70072 6.87604 5.68872 6.86404 5.67272 6.86004C5.67139 6.85993 5.67005 6.85993 5.66872 6.86004V6.86404ZM7.02072 6.86404C7.00872 6.86404 6.99672 6.87604 6.98872 6.90404C6.97272 6.96404 6.96872 7.01604 6.96072 7.06004C6.95272 7.10004 7.00472 7.10004 7.01272 7.05604L7.05272 6.91204C7.06072 6.88404 7.04472 6.86404 7.02872 6.86404C7.02607 6.86359 7.02337 6.86359 7.02072 6.86404ZM4.46073 6.78404C4.44873 6.78404 4.44073 6.81204 4.45273 6.85204C4.49516 6.96732 4.51682 7.0892 4.51673 7.21204C4.50473 7.26004 4.47673 7.26404 4.44073 7.25204C4.40149 7.23267 4.36401 7.20992 4.32873 7.18404C4.29673 7.16404 4.26073 7.18804 4.30873 7.22804C4.54873 7.42804 4.72073 7.65604 4.78873 7.93204C4.79673 7.98804 4.83273 7.99604 4.82473 7.93204C4.76873 7.58404 4.75673 7.29604 4.84073 7.12004C4.87273 7.05204 4.84073 6.98804 4.79273 7.09604C4.75673 7.16804 4.70473 7.19604 4.66073 7.13604C4.59819 7.03842 4.54463 6.93534 4.50073 6.82804C4.49273 6.80004 4.48073 6.78804 4.46873 6.78404C4.4674 6.78382 4.46605 6.78382 4.46473 6.78404H4.46073ZM8.22471 6.78404C8.21271 6.78404 8.20071 6.80004 8.19271 6.82404C8.16471 6.90404 8.07671 7.07204 8.03271 7.13604C7.98872 7.20004 7.93671 7.16804 7.90472 7.09604C7.85272 6.98804 7.82472 7.05204 7.85272 7.12004C7.93672 7.29604 7.92472 7.58404 7.87272 7.93204C7.86072 7.99604 7.89672 7.98804 7.91272 7.93204C7.9867 7.6511 8.15292 7.40317 8.38471 7.22804C8.43271 7.18804 8.39671 7.16404 8.36471 7.18804C8.32922 7.2113 8.29174 7.23138 8.25271 7.24804C8.21271 7.26404 8.18871 7.26004 8.17671 7.20804C8.16871 7.16004 8.18471 7.05204 8.24471 6.84804C8.25271 6.81604 8.24471 6.78804 8.23271 6.78404C8.23013 6.78313 8.2273 6.78313 8.22471 6.78404ZM3.24473 6.88004C3.22473 6.88004 3.20473 6.89604 3.21673 6.92804C3.23273 6.98404 3.26473 7.04004 3.27673 7.07204C3.28873 7.10804 3.32473 7.09204 3.31673 7.04404L3.29673 6.92004C3.29673 6.89604 3.26873 6.88004 3.24473 6.88004ZM9.44871 6.88004C9.42471 6.88004 9.40071 6.89604 9.39671 6.92004L9.38071 7.04404C9.37271 7.09204 9.40871 7.10804 9.42071 7.07204C9.42871 7.04004 9.46071 6.98404 9.47671 6.92804C9.48871 6.89604 9.47271 6.88004 9.44871 6.88004ZM3.99673 6.81204C3.97273 6.80804 3.96873 6.87204 3.98873 6.90004L4.10073 7.02404C4.13273 7.06404 4.15273 7.02804 4.13273 6.99604L4.02873 6.84404C4.01673 6.82404 4.00473 6.81204 3.99673 6.81204ZM8.69671 6.81204C8.68871 6.81204 8.67671 6.82404 8.66471 6.84404L8.56071 6.99604C8.54071 7.02804 8.56071 7.06404 8.59671 7.02404L8.70471 6.90004C8.72471 6.87204 8.72471 6.80804 8.69671 6.81204ZM3.41673 6.97204C3.40073 6.97204 3.38873 6.98004 3.39673 7.01204C3.40473 7.06004 3.41673 7.09204 3.42873 7.13604C3.44073 7.17604 3.46873 7.17204 3.46873 7.13204L3.45673 7.00404C3.45499 6.99446 3.45012 6.98573 3.44288 6.97921C3.43564 6.9727 3.42644 6.96877 3.41673 6.96804V6.97204ZM9.27671 6.97204C9.26735 6.97185 9.25822 6.97495 9.25092 6.9808C9.24361 6.98664 9.23858 6.99487 9.23671 7.00404L9.22471 7.13204C9.22471 7.17204 9.25671 7.18004 9.26471 7.13604L9.30071 7.01604C9.30871 6.98004 9.29271 6.96804 9.27671 6.96804V6.97204ZM3.94073 7.02804C3.91673 7.02804 3.89673 7.05604 3.92473 7.09204C3.96873 7.15204 4.02073 7.19204 4.04073 7.21204C4.05673 7.23604 4.10073 7.22804 4.07273 7.18404L3.98073 7.04404C3.97273 7.02804 3.95673 7.02404 3.94073 7.02804ZM8.74071 7.02804C8.73271 7.02804 8.72071 7.03204 8.71671 7.04404L8.62071 7.18404C8.59271 7.22804 8.63671 7.23604 8.65671 7.21604C8.67271 7.19204 8.72471 7.15204 8.77271 7.09204C8.80071 7.05204 8.77671 7.02804 8.75271 7.02804C8.75005 7.02774 8.74737 7.02774 8.74471 7.02804H8.74071ZM3.11273 7.19204C3.09673 7.19204 3.08873 7.20804 3.11273 7.24404C3.17451 7.31897 3.21952 7.40626 3.24473 7.50004C3.24873 7.55604 3.22473 7.55604 3.20073 7.55604C3.12473 7.55604 3.08873 7.50004 3.02473 7.48404C2.95673 7.47204 2.94473 7.50404 2.99273 7.54004C3.22201 7.68503 3.42156 7.87237 3.58073 8.09204C3.62073 8.16804 3.67273 8.19204 3.64473 8.12404C3.56701 7.96805 3.5338 7.79367 3.54873 7.62004C3.56873 7.50804 3.59673 7.43604 3.59273 7.37204C3.59273 7.31204 3.55273 7.31604 3.54073 7.37204L3.50073 7.48404C3.48473 7.50404 3.42873 7.51604 3.38073 7.44804C3.3127 7.36456 3.23777 7.28695 3.15673 7.21604C3.14473 7.20404 3.12873 7.19604 3.11673 7.19204H3.11273ZM9.58071 7.19204C9.56871 7.19204 9.55271 7.20004 9.53671 7.21604C9.45708 7.28715 9.38349 7.36475 9.31671 7.44804C9.26471 7.51604 9.20871 7.50404 9.19671 7.48804C9.17847 7.45124 9.16503 7.41226 9.15671 7.37204C9.14071 7.31604 9.10471 7.31204 9.10071 7.37204C9.10071 7.43604 9.12471 7.50804 9.14471 7.62004C9.16471 7.73204 9.14471 7.90804 9.05271 8.12404C9.02071 8.19204 9.07671 8.16404 9.11671 8.09204C9.27441 7.87249 9.47263 7.68512 9.70071 7.54004C9.74871 7.50404 9.74071 7.47204 9.67271 7.48404C9.60471 7.50004 9.56871 7.55604 9.49671 7.55604C9.47271 7.55604 9.44471 7.55604 9.44871 7.50004C9.45271 7.44804 9.52071 7.32404 9.58071 7.24404C9.60471 7.20404 9.60071 7.19204 9.58071 7.19204Z" fill="black"/>
<path d="M3.47266 8.50797L3.55266 8.75197L3.47266 8.50797ZM3.63266 8.45997L3.70465 8.70797L3.63266 8.45997ZM3.80865 8.42797L3.85665 8.68397L3.80865 8.42797ZM3.96865 8.39997L4.02065 8.65197L3.96865 8.39997ZM4.17265 8.37997L4.21265 8.63597L4.17265 8.37997ZM4.39265 8.37997L4.43665 8.63197L4.39265 8.37997ZM4.60865 8.30797L4.64065 8.56397L4.60865 8.30797ZM4.80865 8.31997L4.84065 8.57597L4.80865 8.31997ZM5.00465 8.29597L5.03665 8.55197L5.00465 8.29597ZM5.19665 8.27197L5.21665 8.53197L5.19665 8.27197ZM5.40865 8.27197L5.42465 8.53197L5.40865 8.27197ZM5.60065 8.25997L5.61265 8.51997L5.60065 8.25997ZM5.80865 8.24797L5.82065 8.50397L5.80865 8.24797ZM6.04865 8.23997L6.06065 8.49997L6.04865 8.23997ZM9.22063 8.50797L9.14063 8.75197L9.22063 8.50797ZM9.06063 8.45997L8.99263 8.70797L9.06063 8.45997ZM8.88863 8.42797L8.84063 8.68397L8.88863 8.42797ZM8.72864 8.39997L8.67664 8.65197L8.72864 8.39997ZM8.51664 8.37997L8.47664 8.63597L8.51664 8.37997ZM8.30064 8.37997L8.25664 8.63597L8.30064 8.37997ZM8.08864 8.30797L8.05664 8.56397L8.08864 8.30797ZM7.88464 8.31997L7.85264 8.57597L7.88464 8.31997ZM7.69264 8.29597L7.65664 8.55197L7.69264 8.29597ZM7.49664 8.27197L7.47664 8.53197L7.49664 8.27197ZM7.28464 8.27197L7.26864 8.53197L7.28464 8.27197ZM7.09664 8.25997L7.08464 8.51997L7.09664 8.25997ZM6.88464 8.24797L6.87664 8.50397L6.88464 8.24797ZM6.64464 8.23997L6.63664 8.49997L6.64464 8.23997ZM6.34864 8.21997V8.50797V8.21997Z" fill="#FFD83D"/>
<path d="M3.47266 8.50797L3.55266 8.75197M3.63266 8.45997L3.70465 8.70797M3.80865 8.42797L3.85665 8.68397M3.96865 8.39997L4.02065 8.65197M4.17265 8.37997L4.21265 8.63597M4.39265 8.37997L4.43665 8.63197M4.60865 8.30797L4.64065 8.56397M4.80865 8.31997L4.84065 8.57597M5.00465 8.29597L5.03665 8.55197M5.19665 8.27197L5.21665 8.53197M5.40865 8.27197L5.42465 8.53197M5.60065 8.25997L5.61265 8.51997M5.80865 8.24797L5.82065 8.50397M6.04865 8.23997L6.06065 8.49997M9.22063 8.50797L9.14063 8.75197M9.06063 8.45997L8.99263 8.70797M8.88863 8.42797L8.84063 8.68397M8.72864 8.39997L8.67664 8.65197M8.51664 8.37997L8.47664 8.63597M8.30064 8.37997L8.25664 8.63597M8.08864 8.30797L8.05664 8.56397M7.88464 8.31997L7.85264 8.57597M7.69264 8.29597L7.65664 8.55197M7.49664 8.27197L7.47664 8.53197M7.28464 8.27197L7.26864 8.53197M7.09664 8.25997L7.08464 8.51997M6.88464 8.24797L6.87664 8.50397M6.64464 8.23997L6.63664 8.49997M6.34864 8.21997V8.50797" stroke="black" stroke-width="0.159999" stroke-linecap="round" stroke-linejoin="round"/>
</g>
<defs>
<clipPath id="clip0_208_22413">
<rect width="24" height="24" rx="12" fill="white"/>
</clipPath>
</defs>
</svg>
