<svg width="24" height="24" viewBox="0 0 24 24" fill="none" xmlns="http://www.w3.org/2000/svg">
<g clip-path="url(#clip0_208_9939)">
<path d="M0 0H24V24H0V0Z" fill="#D0103A"/>
<path d="M0 0H16.3219V24H0V0Z" fill="#FEDF00"/>
<path d="M0 0H7.67813V24H0V0Z" fill="#0018A8"/>
<path d="M11.2645 8.12341C11.5551 8.12341 11.6723 8.37185 11.9629 8.37185C12.141 8.37185 12.2441 8.3156 12.3988 8.22654C12.5113 8.1656 12.577 8.13279 12.7035 8.13279C12.8301 8.13279 12.9098 8.17029 12.9754 8.2781C13.017 8.35553 13.0334 8.44403 13.0223 8.53123C13.0011 8.63921 12.9681 8.74453 12.9238 8.84529C12.9004 8.90154 12.877 8.93904 12.877 8.99998C12.877 9.15466 13.0832 9.20623 13.2238 9.21091C13.2566 9.21091 13.5191 9.21091 13.6785 9.05154C13.5895 9.05154 13.491 8.98123 13.491 8.89216C13.491 8.79841 13.5613 8.7281 13.6551 8.69998C13.6738 8.69529 13.702 8.70935 13.7207 8.69998C13.7441 8.6906 13.7301 8.66248 13.7535 8.64841C13.8004 8.61091 13.8285 8.58748 13.8895 8.58748C13.9231 8.58532 13.9563 8.5953 13.9832 8.6156C13.9973 8.62498 14.0066 8.64373 14.0254 8.64373C14.0723 8.64373 14.091 8.6156 14.1332 8.6156C14.166 8.6156 14.1895 8.6156 14.2176 8.63435C14.2457 8.64841 14.2457 8.6906 14.2738 8.6906C14.2879 8.6906 14.3629 8.66248 14.4051 8.66248C14.4848 8.66248 14.5316 8.6906 14.5832 8.75623C14.5973 8.77029 14.6066 8.8031 14.6207 8.8031C14.6579 8.80594 14.6939 8.81762 14.7257 8.83719C14.7575 8.85676 14.7842 8.88364 14.8035 8.9156C14.8129 8.92966 14.827 8.96716 14.8457 8.97654C14.8645 8.98123 14.8785 8.98123 14.9066 8.99998C14.9383 9.01923 14.9646 9.04598 14.9835 9.07787C15.0023 9.10976 15.0129 9.1458 15.0145 9.18279C15.0145 9.20623 15.0004 9.23904 14.9957 9.26248C14.9254 9.50623 14.7566 9.5906 14.5879 9.79685C14.5129 9.8906 14.4566 9.96091 14.4566 10.0781C14.4566 10.1062 14.4941 10.1578 14.5035 10.1812C14.4988 10.125 14.5223 10.0594 14.5785 10.0547C14.6582 10.0547 14.7191 10.1109 14.7285 10.1859C14.7285 10.2047 14.7285 10.2375 14.7191 10.2562C14.7613 10.2281 14.8129 10.2094 14.8691 10.2047C14.8925 10.2029 14.916 10.2029 14.9395 10.2047C15.067 10.214 15.1883 10.2632 15.2863 10.3453C15.3766 10.4225 15.4483 10.5191 15.4962 10.6278C15.544 10.7366 15.5668 10.8547 15.5629 10.9734C15.5301 11.175 15.5488 11.5312 15.0473 11.6765C15.141 11.714 15.202 11.7844 15.202 11.8687C15.202 11.9625 15.1316 12.0469 15.0379 12.0469C15.0136 12.0486 14.9891 12.0448 14.9664 12.0359C14.9437 12.027 14.9233 12.0131 14.9066 11.9953C14.8035 12.0984 14.7801 12.2062 14.7801 12.3562C14.7801 12.4453 14.7988 12.4969 14.8363 12.5765C14.863 12.6545 14.9119 12.7229 14.977 12.7734C15.0145 12.7172 15.052 12.6797 15.1176 12.6797C15.1879 12.6797 15.2441 12.6984 15.2723 12.7594C15.277 12.7734 15.2723 12.7922 15.2816 12.8062C15.291 12.8297 15.3145 12.8343 15.3285 12.8578C15.3426 12.8953 15.3285 12.9234 15.3426 12.9609C15.352 12.9844 15.3754 12.989 15.3895 13.0078C15.4035 13.05 15.4082 13.0734 15.4082 13.1156C15.4082 13.2281 15.3051 13.3031 15.1926 13.3031C15.1551 13.3031 15.1363 13.2937 15.1035 13.2984C15.1691 13.3594 15.216 13.3922 15.2676 13.4672C15.3423 13.5811 15.3799 13.7154 15.3754 13.8515C15.3754 14.0203 15.3473 14.1234 15.2723 14.2734C15.2163 14.4021 15.1254 14.5126 15.0098 14.5922C14.8323 14.7189 14.6261 14.7995 14.4098 14.8265C14.2504 14.8593 14.1613 14.8734 13.9973 14.8828L13.4676 14.9109C13.2004 14.9297 13.0129 14.9672 12.8207 15.1594C12.9145 15.225 12.9754 15.2906 12.9754 15.4031C12.9754 15.5156 12.9051 15.6 12.7926 15.6375C12.7691 15.6422 12.7457 15.6375 12.727 15.6468C12.6988 15.6609 12.6988 15.6937 12.6707 15.7125C12.629 15.7396 12.5797 15.7527 12.5301 15.75C12.427 15.75 12.3613 15.7265 12.2863 15.6562C12.2066 15.7219 12.1785 15.7828 12.0848 15.839C12.052 15.8531 12.0379 15.8765 12.0051 15.8765C11.9488 15.8765 11.9207 15.8437 11.8785 15.8109C11.8156 15.7671 11.7589 15.7151 11.7098 15.6562C11.6254 15.7078 11.5738 15.75 11.4754 15.75C11.4237 15.7517 11.3728 15.7369 11.3301 15.7078C11.302 15.6937 11.2973 15.6656 11.2691 15.6515C11.241 15.6328 11.2223 15.6422 11.1895 15.6281C11.077 15.5812 11.002 15.4969 11.002 15.3703C11.002 15.2625 11.0723 15.1922 11.1707 15.15C10.9832 14.9625 10.7957 14.9297 10.5332 14.9156C10.327 14.8969 10.2051 14.8969 10.0035 14.8828C9.84414 14.8734 9.75039 14.8547 9.59102 14.8312C9.46914 14.8125 9.39883 14.8031 9.28633 14.7515C8.90195 14.5734 8.6582 14.3297 8.60664 13.9078V13.814C8.60664 13.5937 8.69102 13.4625 8.84102 13.3078C8.80352 13.2984 8.78008 13.3078 8.73789 13.2984C8.64414 13.2609 8.57383 13.1953 8.57383 13.0922C8.57383 13.0547 8.57383 13.0265 8.59258 12.9984C8.60664 12.9703 8.63008 12.9656 8.63945 12.9422C8.64414 12.9047 8.63945 12.8812 8.65352 12.8484C8.66289 12.825 8.68164 12.825 8.69102 12.8015C8.72383 12.7312 8.76602 12.675 8.8457 12.675C8.91133 12.675 8.95352 12.7125 8.98633 12.7687C9.05195 12.7359 9.0707 12.689 9.1082 12.6281C9.16914 12.525 9.19258 12.4547 9.19258 12.3375C9.19582 12.2672 9.18466 12.197 9.15977 12.1312C9.14102 12.075 9.13633 12.0375 9.09414 11.9906C9.07792 12.0093 9.05768 12.024 9.03496 12.0338C9.01223 12.0435 8.98759 12.048 8.96289 12.0469C8.85508 12.0469 8.77539 11.9531 8.77539 11.8453C8.77539 11.7656 8.81289 11.7047 8.88789 11.6719C8.82695 11.625 8.77539 11.6156 8.71445 11.5781C8.61602 11.5125 8.57852 11.4515 8.51758 11.3531C8.4707 11.2875 8.46133 11.2453 8.44258 11.175C8.41529 11.0998 8.40102 11.0206 8.40039 10.9406V10.8797C8.42852 10.6969 8.46133 10.5797 8.57852 10.4344C8.63196 10.3545 8.70664 10.2912 8.79414 10.2515C8.88761 10.202 8.9935 10.1808 9.09883 10.1906C9.1457 10.2 9.16914 10.2 9.20664 10.2234C9.2207 10.2328 9.24883 10.2562 9.24883 10.2375L9.23945 10.1906C9.23945 10.1109 9.2957 10.0406 9.3707 10.0406C9.42695 10.0406 9.45039 10.0875 9.47852 10.1344C9.49727 10.1062 9.50664 10.0875 9.50664 10.0547C9.50664 9.92341 9.43633 9.85779 9.35664 9.75935C9.1832 9.53904 8.96289 9.43591 8.96289 9.15935C8.96289 9.07498 9.00508 9.01873 9.07539 8.97185C9.09414 8.96248 9.12227 8.97185 9.1457 8.96248C9.15977 8.94841 9.15977 8.92966 9.16914 8.91091C9.18445 8.88614 9.20531 8.86528 9.23008 8.84998C9.26758 8.81248 9.30508 8.82654 9.34727 8.79373C9.3707 8.77966 9.37539 8.76091 9.39414 8.73748C9.44102 8.68123 9.48789 8.6531 9.56289 8.6531C9.60039 8.6531 9.62383 8.6531 9.65664 8.66716C9.6707 8.66716 9.69414 8.6906 9.69883 8.68591C9.70352 8.67654 9.72695 8.6531 9.75039 8.63904C9.7832 8.62498 9.79727 8.62029 9.83477 8.62029C9.87695 8.62029 9.90039 8.64373 9.94258 8.64373C9.96133 8.64373 9.96133 8.62966 9.97539 8.62029C10.0129 8.59685 10.0316 8.58279 10.0785 8.58279C10.1254 8.58279 10.1441 8.59685 10.1816 8.62029C10.2145 8.63904 10.2191 8.66716 10.2566 8.6906L10.3129 8.70466C10.4066 8.73279 10.4816 8.79841 10.4816 8.90154C10.4816 8.95779 10.4723 8.99529 10.4301 9.03279C10.3973 9.06091 10.3645 9.05623 10.3223 9.07029C10.4415 9.16527 10.592 9.2121 10.7441 9.20154C10.9082 9.20154 11.1004 9.1406 11.1004 8.98123C11.1004 8.90623 11.0582 8.86873 11.0301 8.8031C10.978 8.70323 10.9507 8.5923 10.9504 8.47966C10.9504 8.37654 10.9598 8.3156 11.0207 8.23123C11.0816 8.14216 11.1613 8.12341 11.2645 8.12341Z" fill="#C7B37F"/>
<path d="M10.2139 8.9625C10.2232 9.00469 10.2561 9.0375 10.3076 9.05625C10.3335 9.06178 10.3605 9.05987 10.3854 9.05075C10.4102 9.04163 10.432 9.02566 10.4482 9.00469C10.4857 8.95781 10.4811 8.89688 10.4717 8.85C10.459 8.81582 10.4361 8.78637 10.4061 8.76562L10.2139 8.9625Z" stroke="#703D29" stroke-width="0.0625" stroke-linejoin="round"/>
<path d="M15.0374 11.8547C14.9906 11.7469 14.8781 11.7938 14.8687 11.8547C14.8546 11.9954 14.9765 12.0329 15.0609 12.0094C15.1031 12 15.1359 11.9719 15.1546 11.9391C15.1781 11.9016 15.1827 11.8454 15.1687 11.7985C15.1616 11.7763 15.1505 11.7556 15.1359 11.7375C15.1232 11.7193 15.1073 11.7034 15.089 11.6907C15.0562 11.6719 15.0187 11.6672 14.9624 11.6672C14.7562 11.6672 14.5734 11.9157 14.5124 12.1735C14.4785 12.3213 14.4753 12.4744 14.5031 12.6235C14.5345 12.7823 14.611 12.9288 14.7234 13.0454C14.828 13.1466 14.9548 13.222 15.0937 13.2657C15.1452 13.2797 15.1968 13.2797 15.239 13.2657C15.3656 13.2422 15.4218 13.125 15.3609 13.0079C15.3093 12.9141 15.1593 12.8579 15.089 12.9797C15.0774 12.998 15.071 13.0191 15.0702 13.0407C15.0702 13.0735 15.0843 13.111 15.1077 13.125C15.164 13.1625 15.2484 13.1532 15.2484 13.0547" stroke="#703D29" stroke-width="0.0625" stroke-linecap="round"/>
<path d="M14.39 13.275C14.454 13.2007 14.5418 13.151 14.6385 13.1344C14.751 13.125 14.8494 13.1578 14.9479 13.2094C15.069 13.2659 15.1714 13.3561 15.2429 13.4691C15.3143 13.5821 15.3518 13.7132 15.351 13.8469C15.351 13.9875 15.3135 14.1282 15.2807 14.2032C15.2479 14.2641 15.1635 14.536 14.7041 14.7282C14.393 14.8243 14.0688 14.8717 13.7432 14.8688C13.3494 14.8875 12.9932 14.9016 12.7822 15.1594" stroke="#703D29" stroke-width="0.0875"/>
<path d="M14.4884 13.7157C14.4791 13.6735 14.4884 13.636 14.5213 13.5891C14.5681 13.5282 14.6572 13.5094 14.7416 13.5563C14.7697 13.5704 14.8025 13.5938 14.8353 13.636L14.8822 13.6922L14.9197 13.786C15.0134 14.0485 14.8634 14.3344 14.6759 14.4469C14.5259 14.5407 14.3478 14.5782 14.1369 14.6016L13.8884 14.6157H13.5322C13.4416 14.611 13.3509 14.611 13.2603 14.6157L12.9791 14.6438L12.7728 14.6813L12.7025 14.7001L12.6556 14.7141C12.529 14.7496 12.4077 14.8016 12.2947 14.8688C12.2619 14.8876 12.2244 14.911 12.2009 14.9344L12.1494 14.9813C12.0791 15.0469 12.0041 15.1219 11.9853 15.2297V15.2907C11.9853 15.3563 12.0369 15.4501 12.1869 15.4782M12.3931 9.09849C12.4213 9.15474 12.44 9.19224 12.4213 9.24381C12.4025 9.30943 12.3556 9.35162 12.29 9.35162C12.14 9.35162 12.0556 9.17349 12.1213 9.06099C12.2384 8.85943 12.4681 8.97193 12.6838 9.07037C12.6697 9.02349 12.6509 9.00474 12.6556 8.93912C12.6556 8.78443 12.7775 8.71412 12.8244 8.56412C12.8525 8.47974 12.8619 8.40474 12.7963 8.34381C12.7447 8.28756 12.6791 8.29224 12.6088 8.32037C12.4634 8.37662 12.29 8.53599 11.9853 8.54068C11.6806 8.54068 11.5025 8.37662 11.3572 8.32037C11.2869 8.29224 11.2213 8.28756 11.1697 8.34381C11.1041 8.40474 11.1134 8.48443 11.1416 8.56881C11.1884 8.70943 11.3056 8.78443 11.3103 8.94381C11.3103 9.00474 11.2963 9.01881 11.2822 9.07037C11.4978 8.97662 11.7369 8.85006 11.8447 9.06099C11.9056 9.17818 11.8259 9.35162 11.6759 9.35162C11.6103 9.35162 11.5634 9.30474 11.5447 9.24381C11.5259 9.19224 11.5447 9.14068 11.5728 9.09849" stroke="#703D29" stroke-width="0.075"/>
<path d="M11.7982 8.99536C11.8545 9.04224 11.892 9.0938 11.8873 9.18286C11.8826 9.27661 11.8545 9.30005 11.7842 9.35161M11.8732 9.21099C11.8686 9.26724 11.8451 9.30474 11.7889 9.32817" stroke="#703D29" stroke-width="0.075" stroke-linecap="round"/>
<path d="M10.3781 8.74695L10.4016 8.7657L10.4297 8.79851L10.4484 8.83601L10.4578 8.86414V8.93445L10.4484 8.96726L10.4297 8.9907L10.4109 9.01414L10.3781 9.0282L10.3359 9.03757L10.3031 9.04695L10.2656 9.0282L10.2281 9.00476L10.2094 8.97195L10.1953 8.93445V8.92039L10.3781 8.74695Z" fill="#C7B37F"/>
<path d="M10.3216 8.89221C10.3076 8.83128 10.2372 8.81721 10.2091 8.85471C10.1622 8.91096 10.1951 9.00471 10.2841 9.03284C10.31 9.03837 10.337 9.03646 10.3619 9.02734C10.3867 9.01822 10.4085 9.00225 10.4247 8.98128C10.4622 8.9344 10.4622 8.87346 10.4482 8.83128C10.4388 8.79846 10.4154 8.77503 10.3826 8.75159C10.2794 8.6719 10.1154 8.69065 10.0638 8.8219C9.99349 8.99065 10.1435 9.11721 10.2841 9.21096C10.4622 9.32815 10.6591 9.35159 10.8138 9.35159C11.156 9.3469 11.4185 9.18284 11.5872 9.08909C11.6247 9.06565 11.6669 9.07034 11.6857 9.09846C11.7091 9.12659 11.7091 9.16878 11.6763 9.20159" stroke="#703D29" stroke-width="0.0625" stroke-linecap="round"/>
<path d="M9.29922 13.5469L9.22422 13.5703L9.14453 13.6312L9.11172 13.6781L9.06953 13.7531L9.05078 13.8094L9.03672 13.8797L9.02734 13.9266M9.73984 13.5516V13.6172L9.72578 13.6641L9.69297 13.7438L9.64141 13.8141L9.58516 13.8609L9.53828 13.8797L9.48203 13.8937" stroke="#703D29" stroke-width="0.0625"/>
<path d="M11.9906 15.3423C11.9766 15.4032 11.9203 15.4735 11.7891 15.5017H11.7656" stroke="#703D29" stroke-width="0.075"/>
<path d="M15.1588 13.3594C15.227 13.4247 15.2809 13.5033 15.3172 13.5904C15.3535 13.6776 15.3714 13.7713 15.3697 13.8656C15.365 13.9969 15.3322 14.1469 15.2947 14.2172C15.2619 14.2781 15.1775 14.5547 14.7182 14.7422C14.4072 14.8397 14.0831 14.8887 13.7572 14.8875C13.3729 14.9063 13.0166 14.9203 12.8057 15.1688" stroke="#703D29" stroke-width="0.0875"/>
<path d="M14.5312 13.6079C14.5594 13.5657 14.6625 13.5188 14.7469 13.561C14.7847 13.5787 14.817 13.6062 14.8406 13.6407" stroke="#703D29" stroke-width="0.0625"/>
<path d="M15.0605 13.2656L15.1121 13.2844C15.161 13.299 15.2132 13.299 15.2621 13.2844C15.3652 13.2563 15.4355 13.1578 15.3793 13.0266C15.3644 12.995 15.3418 12.9676 15.3137 12.9469" stroke="#703D29" stroke-width="0.0875"/>
<path d="M9.00898 10.4907C8.93867 10.5375 8.88711 10.5469 8.83086 10.6079C8.7869 10.6891 8.7538 10.7758 8.73242 10.8657M10.4621 8.92505C10.4621 8.99067 10.4152 9.03286 10.3496 9.04692" stroke="#703D29" stroke-width="0.0625" stroke-linecap="round"/>
<path d="M14.8916 10.2001C15.0697 10.2001 15.5854 10.336 15.59 10.9407C15.59 11.5407 15.215 11.6391 15.0697 11.6766" stroke="#703D29" stroke-width="0.0625"/>
<path d="M14.9391 10.2001C15.2438 10.186 15.5578 10.411 15.5719 10.9735C15.5859 11.4141 15.2719 11.611 15.1219 11.6532M14.7656 12.3141L14.775 12.2579L14.7938 12.1641L14.8219 12.0844L14.8547 12.0235L14.8922 11.9766M15.1875 11.8501L15.1828 11.9063L15.1641 11.9485L15.1406 11.986L15.1078 12.0094L15.0609 12.0235H14.9906M14.4562 10.0407L14.4703 9.97976L14.4984 9.91882L14.5312 9.86257L14.5969 9.78289L14.6437 9.72664L14.7234 9.64695L14.7938 9.57664L14.8406 9.52507L14.8969 9.45476L14.9437 9.37507L14.9766 9.31414L14.9953 9.22976L15 9.13132L14.9906 9.09851M14.5312 13.9079L14.5922 13.8938L14.6391 13.8704L14.6625 13.8469L14.6813 13.8141L14.6906 13.7673V13.7391M8.76562 13.2798L8.80781 13.2844H8.86406L8.925 13.261M9.1125 11.8876L9.10312 11.9438L9.09375 11.9626L9.075 11.986L9.05156 12.0048L9.02344 12.0188L8.98594 12.0235H8.9625M9.3375 11.4376L9.32344 11.5219L9.30469 11.5548L9.27188 11.6016L9.225 11.6344L9.18281 11.6579L9.09844 11.6766M9.67031 10.186L9.65625 10.2329L9.63281 10.2704L9.60469 10.3126L9.56719 10.3454L9.52031 10.3688L9.48281 10.3782H9.45469M9.46875 10.1438V10.1813" stroke="#703D29" stroke-width="0.0625"/>
<path d="M9.53398 11.4048C9.51187 11.4246 9.4865 11.4405 9.45898 11.4517M15.1027 13.1251L15.1215 13.1345C15.1684 13.1673 15.2762 13.1251 15.248 13.0407" stroke="#703D29" stroke-width="0.0625" stroke-linecap="round"/>
<path d="M14.9152 11.9859C14.9527 12.0328 15.0277 12.0469 15.084 12.0328C15.1262 12.0234 15.1543 11.9953 15.1777 11.9578C15.1965 11.9203 15.2059 11.8688 15.1918 11.8172C15.1847 11.795 15.1736 11.7744 15.159 11.7563C15.1444 11.7367 15.127 11.7193 15.1074 11.7047L15.0934 11.6953M15.3371 12.9703C15.338 12.961 15.338 12.9515 15.3371 12.9422C15.3371 12.9 15.3184 12.8625 15.2902 12.8344C15.2809 12.825 15.2715 12.8109 15.2574 12.8063M15.2762 12.8203C15.2762 12.75 15.2152 12.7031 15.1449 12.6891M14.9902 12.7969C14.9715 12.7828 14.9527 12.7734 14.9434 12.7547C14.8404 12.6473 14.7819 12.505 14.7793 12.3563C14.7793 12.2016 14.8402 12.0422 14.9105 11.9813M12.7965 15.1547L12.8668 15.0938L12.9137 15.0563L12.998 15.0047L13.0824 14.9625L13.1387 14.9484L13.2559 14.925L13.3918 14.9016M12.2809 15.6281C12.2098 15.7319 12.1106 15.8132 11.9949 15.8625C11.8793 15.8132 11.7801 15.7319 11.709 15.6281" stroke="#703D29" stroke-width="0.0625"/>
<path d="M11.7887 15.4735C11.7746 15.5306 11.7473 15.5836 11.709 15.6282" stroke="#703D29" stroke-width="0.0625" stroke-linecap="round"/>
<path d="M11.8029 15.3938L11.7842 15.4781M11.6998 15.6328L11.6623 15.6703L11.5967 15.7031L11.5264 15.7266M11.3154 9.06094C11.3248 9.03281 11.3342 9.00938 11.3295 8.9625C11.3295 8.80313 11.2123 8.73281 11.1654 8.5875C11.1373 8.50313 11.1232 8.42813 11.1889 8.3625C11.2451 8.31094 11.3061 8.31563 11.3764 8.33906C11.5264 8.39531 11.6998 8.55938 12.0045 8.56406M12.0045 8.56406C11.6998 8.55938 11.5264 8.39531 11.3811 8.33906C11.3061 8.31094 11.2404 8.30156 11.1842 8.35781C11.1186 8.41875 11.1373 8.49844 11.1654 8.59219C11.2123 8.73281 11.3201 8.80313 11.3248 8.9625C11.3248 9.00938 11.3154 9.03281 11.3061 9.05625M12.0045 8.56406C12.3092 8.55938 12.4873 8.39531 12.6279 8.33906C12.6982 8.31563 12.7592 8.31094 12.8154 8.3625C12.7592 8.31094 12.7217 8.30625 12.6467 8.32031C12.5623 8.33438 12.3045 8.53594 12.0045 8.55469M14.9904 12.7969C14.918 12.743 14.8591 12.6731 14.8185 12.5925C14.7778 12.512 14.7564 12.423 14.7561 12.3328C14.7561 12.1781 14.817 12.0188 14.892 11.9578M12.267 15.6141C12.1972 15.7171 12.0997 15.7984 11.9857 15.8484C11.8682 15.8001 11.7673 15.7187 11.6951 15.6141" stroke="#703D29" stroke-width="0.0625"/>
<path d="M11.498 9.14071L11.5871 9.09384C11.6246 9.06571 11.6762 9.0704 11.6949 9.09384C11.7184 9.12665 11.723 9.17353 11.6902 9.20165" stroke="#703D29" stroke-width="0.0625" stroke-linecap="round"/>
<path d="M11.0523 9.34697C11.2586 9.30478 11.4273 9.21104 11.5492 9.14072M12.7633 15.3001L12.7914 15.3329L12.8008 15.3657C12.8102 15.422 12.7727 15.4595 12.7305 15.4642C12.7034 15.4674 12.6761 15.4619 12.6524 15.4484C12.6288 15.4349 12.6101 15.4141 12.5992 15.3892M11.0383 9.3376C11.2445 9.29072 11.4133 9.20166 11.5398 9.13135M15.1961 13.1392C15.1633 13.1532 15.1398 13.1532 15.093 13.1298L15.0227 13.0923C14.9289 13.0407 14.8117 12.9517 14.7039 12.7548C14.6765 12.7014 14.656 12.6447 14.643 12.586C14.6336 12.5438 14.6242 12.5017 14.6242 12.4595C14.6224 12.3807 14.6303 12.302 14.6477 12.2251C14.6691 12.102 14.7206 11.986 14.7977 11.8876C14.8445 11.8267 14.8773 11.7938 14.9617 11.7938M9.57109 10.3173C9.60298 10.3432 9.62846 10.3762 9.64553 10.4136C9.6626 10.451 9.67082 10.4918 9.66953 10.5329C9.66953 10.6501 9.57578 10.8376 9.33203 10.9079C9.23828 10.9313 9.15391 10.9079 9.09766 10.8751" stroke="#703D29" stroke-width="0.0625"/>
<path d="M9.60938 10.7109C9.65625 10.7391 9.67031 10.7766 9.67031 10.8328C9.67031 10.8703 9.64688 10.9266 9.6 10.9734C9.55809 11.0191 9.50747 11.0559 9.45111 11.0816C9.39476 11.1074 9.33381 11.1216 9.27188 11.1234C9.19187 11.1255 9.11321 11.1026 9.04688 11.0578C8.97666 11.0104 8.92655 10.9385 8.90625 10.8563" stroke="#703D29" stroke-width="0.0625"/>
<path d="M9.60898 10.9594C9.65586 11.0063 9.66992 11.0625 9.66992 11.1328C9.66992 11.2359 9.62773 11.3156 9.5293 11.4C9.50889 11.4198 9.48507 11.4356 9.45898 11.4469M14.3152 10.6219V10.7578M14.3012 10.5891V10.7766M14.3152 10.1859V10.4297M14.3012 10.1344V10.4625M14.2309 13.5422C14.184 13.6359 14.1465 13.6828 14.0762 13.7531C14.0129 13.8178 13.9382 13.8702 13.8559 13.9078C13.7787 13.9456 13.6967 13.9724 13.6121 13.9875C13.5137 14.0109 13.4527 14.0156 13.3543 14.0203C13.2605 14.0203 13.209 14.0203 13.1152 14.0109C13.0168 14.0109 12.9605 13.9922 12.8621 13.9828C12.7824 13.9781 12.7355 13.9688 12.6512 13.9688C12.512 13.9654 12.3734 13.9893 12.2434 14.0391C12.1402 14.0812 12.0277 14.1516 12.0043 14.1797C11.9809 14.1516 11.8637 14.0812 11.7652 14.0391C11.6337 13.9887 11.4935 13.9648 11.3527 13.9688C11.273 13.9688 11.2262 13.9781 11.1465 13.9828C11.048 13.9922 10.9918 14.0062 10.8934 14.0109C10.7275 14.0268 10.5601 14.019 10.3965 13.9875C10.298 13.9641 10.2418 13.95 10.148 13.9031C10.0591 13.8615 9.97945 13.8026 9.91367 13.7297M11.4887 15.7313L11.559 15.7219M12.6934 15.6328L12.759 15.6281L12.8246 15.6L12.8715 15.5766L12.9324 15.5016L12.9465 15.4734L12.9559 15.4125V15.3844M14.7184 10.2563C14.7465 10.1578 14.709 10.0547 14.6152 10.0547M9.66523 11.8031C9.64315 11.8759 9.59466 11.9377 9.5293 11.9766M9.66992 10.2234C9.65883 10.2572 9.64049 10.2881 9.6162 10.314C9.59191 10.3399 9.56225 10.3602 9.5293 10.3734C9.46367 10.4063 9.3793 10.3734 9.3418 10.3453" stroke="#703D29" stroke-width="0.0625"/>
<path d="M9.14062 10.5891C9.20156 10.6172 9.25781 10.575 9.24844 10.5C9.24365 10.4779 9.23202 10.4578 9.21519 10.4427C9.19836 10.4276 9.17719 10.4181 9.15469 10.4156" stroke="#703D29" stroke-width="0.0625" stroke-linecap="round"/>
<path d="M9.37932 13.7485C9.39338 13.7626 9.39807 13.7766 9.41213 13.7766C9.43557 13.7813 9.45901 13.7907 9.48245 13.7579C9.51526 13.7157 9.49651 13.6548 9.4637 13.6126C9.43531 13.5843 9.39859 13.5658 9.35894 13.5599C9.31929 13.554 9.27879 13.561 9.24338 13.5798C9.21995 13.5938 9.18245 13.6126 9.14963 13.6548L9.10745 13.7157L9.06526 13.8094C8.99026 14.0251 9.07932 14.2548 9.22463 14.3954" stroke="#703D29" stroke-width="0.0625"/>
<path d="M12.7586 15.2954L12.782 15.3235L12.7914 15.3563C12.8008 15.4126 12.7633 15.4501 12.7164 15.4501C12.6555 15.4595 12.6133 15.422 12.5898 15.3751" stroke="#703D29" stroke-width="0.0625" stroke-linecap="round"/>
<path d="M14.6063 8.80322C14.6693 8.8138 14.727 8.84557 14.7696 8.89329C14.8122 8.94101 14.8372 9.00183 14.8406 9.06572C14.8406 9.23447 14.7844 9.29541 14.6953 9.4126C14.6016 9.53916 14.2969 9.77353 14.2969 10.0407C14.2969 10.2001 14.3437 10.3032 14.4562 10.3548C14.5312 10.3876 14.6203 10.3548 14.6578 10.3173C14.7516 10.2282 14.7188 10.0735 14.6109 10.0548C14.4938 10.036 14.4703 10.2282 14.5875 10.2142M15.2578 12.8063C15.2524 12.774 15.2358 12.7446 15.211 12.7232C15.1861 12.7019 15.1546 12.6898 15.1219 12.6892C15.0846 12.6892 15.0488 12.704 15.0224 12.7303C14.9961 12.7567 14.9813 12.7925 14.9813 12.8298C14.9813 12.8673 15 12.9001 15.0234 12.9235" stroke="#703D29" stroke-width="0.0625"/>
<path d="M14.3952 10.3173C14.3633 10.3432 14.3378 10.3762 14.3208 10.4136C14.3037 10.451 14.2955 10.4918 14.2968 10.5329C14.2968 10.6501 14.3905 10.8376 14.6343 10.9079C14.7233 10.9313 14.8124 10.9266 14.8686 10.8938M9.01395 10.5094C8.94264 10.5316 8.88025 10.576 8.83583 10.636C8.79138 10.706 8.76112 10.784 8.74676 10.8657C8.74208 10.8985 8.7327 11.0063 8.75145 11.1141C8.76721 11.1895 8.79746 11.2612 8.84051 11.3251L8.87801 11.3719L8.9202 11.4048M11.3202 14.8548C11.503 14.9391 11.6343 14.9954 11.7515 15.1782C11.7927 15.2539 11.8072 15.3414 11.7928 15.4264C11.7783 15.5114 11.7357 15.5891 11.6718 15.6469C11.6377 15.6773 11.5974 15.6998 11.5536 15.7128C11.5098 15.7258 11.4638 15.7289 11.4186 15.7219C11.3483 15.7126 11.278 15.661 11.2686 15.6282M9.52489 11.4094C9.57219 11.4389 9.61067 11.4806 9.63624 11.5301C9.66182 11.5796 9.67355 11.6351 9.6702 11.6907C9.6702 11.8313 9.59989 11.9157 9.5202 11.9673" stroke="#703D29" stroke-width="0.0625"/>
<path d="M9.43066 11.8641C9.58535 12.0563 9.66504 12.1688 9.66973 12.3938C9.67441 12.6094 9.6041 12.7548 9.48223 12.9094" stroke="#703D29" stroke-width="0.0625" stroke-linecap="round"/>
<path d="M12.365 9.35164C12.3945 9.33139 12.416 9.30158 12.426 9.26726C12.4447 9.21101 12.4447 9.16414 12.4119 9.12195C12.4494 9.16882 12.4541 9.21101 12.4447 9.26726C12.4354 9.30476 12.4119 9.32351 12.3838 9.35164M14.315 12.586V13.186C14.315 13.2394 14.3103 13.2928 14.301 13.3454M14.301 12.5251V13.2657L14.2822 13.3641M14.301 11.7563V12.3001M14.315 11.7985V12.2391M14.315 11.2313V11.5641M14.301 11.1938V11.6063M14.315 10.8938V11.0251M14.301 10.8657V11.0532M14.2354 13.5001L14.2213 13.5235C14.1825 13.6049 14.1284 13.6781 14.0619 13.7391C13.9996 13.8017 13.9266 13.8525 13.8463 13.8891C13.7679 13.9289 13.6843 13.9574 13.5979 13.9735C13.5041 13.9969 13.4432 14.0016 13.34 14.0063C13.2463 14.0063 13.1994 14.0063 13.1057 13.9969C13.0025 13.9923 12.951 13.9782 12.8525 13.9688C12.7682 13.9641 12.7213 13.9548 12.6416 13.9548C12.5008 13.9509 12.3607 13.9748 12.2291 14.0251C12.1307 14.0673 12.0182 14.1376 11.9947 14.1657C11.9239 14.1052 11.843 14.0576 11.7557 14.0251C11.6241 13.9748 11.4839 13.9509 11.3432 13.9548C11.2635 13.9548 11.2166 13.9641 11.1322 13.9688C11.0385 13.9782 10.9822 13.9923 10.8791 13.9969C10.7148 14.0124 10.549 14.0045 10.3869 13.9735C10.2114 13.942 10.0487 13.8607 9.91816 13.7391C9.88548 13.7058 9.85568 13.6697 9.8291 13.6313M9.7541 13.5141C9.761 13.5658 9.75706 13.6183 9.74253 13.6683C9.72801 13.7184 9.70321 13.7648 9.66973 13.8048C9.63691 13.8376 9.5666 13.8985 9.48223 13.8985C9.3416 13.9032 9.29473 13.8048 9.29004 13.7813" stroke="#703D29" stroke-width="0.0625"/>
<path d="M9.58594 13.4531C9.61442 13.482 9.63816 13.5152 9.65625 13.5516C9.68906 13.6172 9.67969 13.7297 9.65156 13.7859C9.64715 13.7909 9.64245 13.7956 9.6375 13.8M8.88281 14.475C8.96719 14.5687 9.09375 14.6625 9.29062 14.7422C9.60153 14.8399 9.92567 14.8889 10.2516 14.8875C10.6266 14.9016 10.9781 14.9203 11.1891 15.1547M11.8406 15C11.9063 15.0577 11.9577 15.1299 11.9906 15.2109M11.7141 15.6422C11.7066 15.6504 11.6988 15.6582 11.6906 15.6656C11.6571 15.6954 11.6175 15.7175 11.5747 15.7304C11.5318 15.7434 11.4866 15.7469 11.4422 15.7406C11.4098 15.7372 11.3785 15.7272 11.3503 15.711C11.322 15.6949 11.2975 15.673 11.2781 15.6469M11.0766 15.5344L11.0906 15.5484C11.1387 15.6027 11.2059 15.6363 11.2781 15.6422M12.2906 15.6422C12.2189 15.7442 12.1198 15.8238 12.0047 15.8719C11.889 15.8225 11.7898 15.7412 11.7188 15.6375L11.7094 15.6234M12.2906 15.6375L12.3187 15.6656C12.3523 15.6954 12.3918 15.7175 12.4347 15.7304C12.4776 15.7434 12.5228 15.7469 12.5672 15.7406C12.5984 15.7378 12.6286 15.7279 12.6554 15.7116C12.6822 15.6954 12.7049 15.6732 12.7219 15.6469L12.7406 15.6188" stroke="#703D29" stroke-width="0.0625"/>
<path d="M12.7125 15.6235L12.6844 15.6704L12.6422 15.7032L12.5812 15.7313H12.5156" stroke="#703D29" stroke-width="0.0625"/>
<path d="M12.8623 15.197C12.9005 15.225 12.9311 15.262 12.9514 15.3048C12.9607 15.3329 12.9701 15.3657 12.9701 15.3985C12.9721 15.4532 12.9538 15.5067 12.9186 15.5485C12.8926 15.5776 12.8608 15.601 12.8253 15.6171C12.7898 15.6332 12.7513 15.6418 12.7123 15.6423C12.7076 15.6424 12.7029 15.6424 12.6982 15.6423M12.7029 15.6329C12.6671 15.6337 12.6315 15.627 12.5984 15.6133C12.5654 15.5996 12.5355 15.5791 12.5107 15.5532M14.9014 13.0079C14.8252 12.9381 14.7618 12.8557 14.7139 12.7642C14.6864 12.7107 14.666 12.654 14.6529 12.5954C14.6436 12.5532 14.6342 12.5157 14.6342 12.4735C14.6342 12.3985 14.6389 12.3235 14.6576 12.2392C14.6807 12.1142 14.7337 11.9968 14.8123 11.897C14.8357 11.8688 14.8592 11.8313 14.8873 11.8126M14.8404 8.97197C14.9342 8.98135 15.0186 9.07978 15.0186 9.18291C15.0186 9.32822 14.9717 9.38916 14.8545 9.52979C14.7561 9.65635 14.4561 9.87197 14.4654 10.0782C14.4654 10.1157 14.4889 10.1532 14.5123 10.1813M14.3904 10.3126C14.4092 10.336 14.4373 10.3501 14.4654 10.3642C14.491 10.3744 14.5186 10.3789 14.5462 10.3773C14.5737 10.3757 14.6006 10.368 14.6248 10.3548M13.8326 8.73291C13.8698 8.75673 13.8991 8.79097 13.917 8.83135C13.9826 9.0001 13.8326 9.12666 13.692 9.22041C13.5986 9.28234 13.4932 9.32387 13.3826 9.34229" stroke="#703D29" stroke-width="0.0625"/>
<path d="M13.673 9.05625C13.6402 9.05625 13.598 9.04688 13.5559 9C13.5447 8.99076 13.5352 8.97966 13.5277 8.96719M12.9699 9.15C12.9522 9.14032 12.9364 9.12763 12.923 9.1125C12.8902 9.075 12.8668 9.02344 12.8902 8.94844C12.9137 8.87812 13.0309 8.67656 13.0309 8.54062C13.0449 8.32969 12.9605 8.20312 12.834 8.15625" stroke="#703D29" stroke-width="0.0625"/>
<path d="M13.0266 8.49377L13.0219 8.57346L12.9984 8.65315L12.9562 8.76096L12.9234 8.83596L12.8906 8.90627L12.8766 8.95315L12.8672 8.99065L12.8719 9.02815M14.3016 13.7625C14.3016 13.7766 14.3203 13.7907 14.3203 13.7907C14.3445 13.8236 14.3754 13.8511 14.4109 13.8712C14.4465 13.8914 14.4859 13.9039 14.5266 13.9078C14.6672 13.9078 14.7 13.8094 14.7047 13.786C14.7234 13.6782 14.6859 13.6453 14.6297 13.6172C14.6297 13.6172 14.5969 13.6031 14.5594 13.6078" stroke="#703D29" stroke-width="0.0625" stroke-linecap="round"/>
<path d="M8.88728 13.2891C8.84131 13.3021 8.79262 13.3021 8.74665 13.2891C8.63884 13.2563 8.55915 13.1531 8.60134 13.0313M9.1029 11.836C9.11228 11.8453 9.11696 11.8641 9.11696 11.8735C9.13103 12.0141 9.01384 12.0516 8.92946 12.0328C8.88097 12.0182 8.83938 11.9866 8.81228 11.9438C8.79756 11.918 8.78951 11.889 8.78884 11.8594M9.61853 10.9688C9.63728 10.9922 9.65603 11.0156 9.6654 11.0391M9.61853 10.7203C9.64196 10.7344 9.65603 10.7485 9.6654 10.7672" stroke="#703D29" stroke-width="0.0625"/>
<path d="M9.67012 10.8938C9.65549 10.9284 9.63486 10.9601 9.60918 10.9875C9.56687 11.0323 9.51607 11.0682 9.45973 11.0932C9.4034 11.1181 9.34266 11.1316 9.28105 11.1328C9.20105 11.1349 9.12239 11.112 9.05605 11.0672C8.98055 11.0202 8.92537 10.9466 8.90137 10.861" stroke="#703D29" stroke-width="0.0625" stroke-linecap="round"/>
<path d="M9.57617 10.3219C9.61848 10.3547 9.65092 10.3984 9.66992 10.4485" stroke="#703D29" stroke-width="0.0625"/>
<path d="M9.66953 10.6219C9.64564 10.6957 9.60273 10.7618 9.54512 10.8137C9.48751 10.8655 9.41724 10.9012 9.34141 10.9173C9.25776 10.9355 9.17029 10.9204 9.09766 10.8751" stroke="#703D29" stroke-width="0.0625" stroke-linecap="round"/>
<path d="M9 10.5938C9.00938 10.6922 9.07969 10.7672 9.20156 10.7719C9.37969 10.7719 9.48281 10.5188 9.32812 10.3359" stroke="#703D29" stroke-width="0.0625"/>
<path d="M8.60547 11.4562C8.62891 11.4891 8.66172 11.5172 8.68984 11.5453C8.75569 11.6009 8.83228 11.6424 8.91484 11.6672M9.11172 11.6859C9.27109 11.6672 9.36016 11.55 9.34141 11.4141C9.32734 11.3063 9.22891 11.2266 9.16328 11.2266" stroke="#703D29" stroke-width="0.0625" stroke-linecap="round"/>
<path d="M9.37012 10.0547C9.43574 10.0547 9.47793 10.1156 9.47324 10.1672" stroke="#703D29" stroke-width="0.0625"/>
<path d="M9.35156 9.11719C9.38774 9.20828 9.45387 9.28433 9.53906 9.33281M14.9531 10.5C14.9704 10.5268 14.98 10.5579 14.9807 10.5898C14.9815 10.6217 14.9734 10.6533 14.9575 10.6809C14.9415 10.7085 14.9181 10.7312 14.8901 10.7464C14.862 10.7616 14.8303 10.7688 14.7984 10.7672C14.7654 10.7666 14.7331 10.7577 14.7044 10.7413C14.6758 10.7249 14.6517 10.7016 14.6344 10.6734" stroke="#703D29" stroke-width="0.0625" stroke-linecap="round"/>
<path d="M14.3154 9.34229V9.93291" stroke="#703D29" stroke-width="0.0625"/>
<path d="M9.1402 10.5891C9.19645 10.6266 9.26207 10.561 9.23395 10.4907C9.21988 10.4438 9.14957 10.3922 9.05582 10.4532C8.95738 10.5235 8.98551 10.7485 9.18238 10.7485C9.35582 10.7532 9.46363 10.4954 9.30895 10.3172C9.15895 10.1438 8.88707 10.1813 8.69957 10.3266C8.56704 10.4396 8.4749 10.5926 8.43707 10.7626C8.4116 10.8768 8.4116 10.9952 8.43707 11.1094C8.4559 11.2096 8.49412 11.3052 8.54957 11.3907L8.59645 11.4516L8.67145 11.5266C8.77856 11.6212 8.91767 11.6715 9.06051 11.6672C9.23863 11.6626 9.34176 11.536 9.31832 11.3907C9.29957 11.2501 9.15895 11.1797 9.0652 11.2501C9.00426 11.2922 8.98082 11.4282 9.09332 11.461C9.15426 11.4797 9.21051 11.4001 9.16832 11.3532M14.0246 8.65787C14.1277 8.60162 14.2027 8.611 14.2589 8.69068C14.3139 8.76992 14.3357 8.86746 14.3199 8.96256C14.3011 9.06568 14.273 9.10318 14.1886 9.17818" stroke="#703D29" stroke-width="0.0625" stroke-linecap="round"/>
<path d="M14.2686 8.70007C14.3857 8.62507 14.5123 8.6532 14.5779 8.76101C14.625 8.82783 14.6466 8.90931 14.6389 8.9907C14.6345 9.06123 14.6124 9.12952 14.5747 9.18931C14.5371 9.2491 14.485 9.29847 14.4232 9.33288" stroke="#703D29" stroke-width="0.0625" stroke-linecap="round"/>
<path d="M14.8118 8.96729C14.9055 8.97666 14.9852 9.06104 14.9852 9.16416C14.9852 9.30479 14.9477 9.37041 14.8305 9.51103C14.7321 9.63291 14.4368 9.84854 14.4415 10.0595C14.4415 10.1345 14.5118 10.2095 14.568 10.2142" stroke="#703D29" stroke-width="0.0625"/>
<path d="M14.8257 10.5891C14.7694 10.6266 14.7038 10.5656 14.7319 10.4953C14.7507 10.4484 14.8163 10.3922 14.9053 10.4531C15.0085 10.5234 14.9803 10.7484 14.7835 10.7484C14.61 10.7531 14.4882 10.5047 14.6569 10.3172C14.8116 10.1438 15.0975 10.1766 15.2757 10.3172C15.3507 10.3828 15.51 10.5516 15.5382 10.7672C15.5803 11.0297 15.571 11.3578 15.3038 11.5547C15.1869 11.6348 15.0469 11.6744 14.9053 11.6672C14.7272 11.6625 14.6241 11.5359 14.6475 11.3906C14.6663 11.25 14.8022 11.1891 14.9007 11.25C15.0038 11.3016 14.985 11.4516 14.8725 11.4609C14.8069 11.4703 14.7553 11.4 14.7975 11.3531" stroke="#703D29" stroke-width="0.0625" stroke-linecap="round"/>
<path d="M14.7324 10.5C14.7605 10.3641 14.873 10.3547 14.9668 10.3547C15.2105 10.3547 15.384 10.65 15.3887 10.936C15.3887 11.2922 15.234 11.5032 14.9668 11.5125C14.9059 11.5172 14.7887 11.4844 14.784 11.4047" stroke="#703D29" stroke-width="0.0625"/>
<path d="M14.882 10.4391C15.1445 10.4953 15.2383 10.7297 15.2383 10.9547C15.2383 11.1375 15.2195 11.386 14.8633 11.4703" stroke="#703D29" stroke-width="0.0625" stroke-linecap="square"/>
<path d="M15.3132 12.9516C15.3182 12.9264 15.3165 12.9003 15.3081 12.876C15.2997 12.8517 15.285 12.83 15.2655 12.8132C15.246 12.7965 15.2224 12.7852 15.1971 12.7805C15.1718 12.7758 15.1457 12.778 15.1215 12.7867C15.0973 12.7954 15.0758 12.8104 15.0593 12.8301C15.0428 12.8498 15.0318 12.8736 15.0275 12.8989C15.0231 12.9243 15.0256 12.9503 15.0346 12.9744C15.0437 12.9985 15.0589 13.0197 15.0789 13.036" stroke="#703D29" stroke-width="0.0625"/>
<path d="M14.7933 12.7266C14.8501 12.821 14.931 12.8986 15.0276 12.9516M14.9808 13.3453C14.8542 13.2656 14.6198 13.1578 14.4089 13.2609C14.3727 13.2763 14.34 13.2987 14.3127 13.3269C14.2853 13.3551 14.2638 13.3884 14.2495 13.425C14.2292 13.4861 14.2251 13.5515 14.2374 13.6147C14.2497 13.6779 14.2781 13.7369 14.3198 13.7859C14.3671 13.8419 14.4344 13.8772 14.5073 13.8844C14.6479 13.8844 14.6808 13.7906 14.6854 13.7672C14.6995 13.6641 14.6386 13.6219 14.6104 13.6125C14.5823 13.6031 14.5073 13.6031 14.4886 13.6594C14.4839 13.6781 14.4839 13.7109 14.4979 13.7344" stroke="#703D29" stroke-width="0.0625" stroke-linecap="round"/>
<path d="M12.7684 15.3141C12.8059 15.3985 12.7637 15.436 12.7074 15.4407C12.6277 15.4501 12.5855 15.3891 12.5809 15.3329C12.5715 15.2391 12.6512 15.1501 12.7449 15.1548C12.7856 15.1557 12.8252 15.1686 12.8585 15.192C12.8919 15.2154 12.9176 15.2481 12.9324 15.286C12.9418 15.3141 12.9465 15.3423 12.9465 15.3751C12.9497 15.4313 12.9313 15.4867 12.8949 15.5298C12.8695 15.5583 12.8385 15.5813 12.8038 15.5974C12.7691 15.6135 12.7316 15.6224 12.6934 15.6235C12.534 15.6282 12.4121 15.4829 12.4121 15.3282C12.4121 15.0423 12.8387 14.8829 13.0121 14.8407C13.2319 14.7886 13.4566 14.7603 13.6824 14.7563C13.8184 14.747 13.9168 14.7516 14.0621 14.7376C14.1934 14.7235 14.2637 14.7141 14.3996 14.686C14.5744 14.6469 14.7359 14.5628 14.8684 14.4423C14.9931 14.3486 15.0795 14.2128 15.1114 14.0601C15.1433 13.9074 15.1186 13.7484 15.0418 13.6126C14.9999 13.5455 14.9437 13.4885 14.8773 13.4455C14.8109 13.4026 14.7358 13.3748 14.6574 13.3641C14.5168 13.3407 14.3949 13.4016 14.3199 13.5423C14.3044 13.5795 14.2968 13.6196 14.2976 13.66C14.2984 13.7003 14.3076 13.74 14.3246 13.7766C14.348 13.8188 14.4184 13.8845 14.5027 13.8845C14.6434 13.8845 14.6809 13.7907 14.6855 13.7673C14.6996 13.6641 14.6387 13.622 14.6105 13.6126C14.5824 13.6032 14.5074 13.6032 14.4887 13.6595C14.484 13.6782 14.484 13.711 14.498 13.7345" stroke="#703D29" stroke-width="0.0625" stroke-linecap="round"/>
<path d="M12.6462 14.8594C12.4587 14.9391 12.3274 15 12.2149 15.1734C12.183 15.2307 12.1668 15.2954 12.168 15.3609C12.168 15.4594 12.2149 15.5719 12.2946 15.6422C12.3282 15.6734 12.3684 15.6968 12.4122 15.7105C12.456 15.7243 12.5023 15.7282 12.5477 15.7219C12.618 15.7125 12.6883 15.6609 12.6977 15.6281" stroke="#703D29" stroke-width="0.0625" stroke-linecap="round"/>
<path d="M14.4375 11.4048C14.3578 11.4329 14.2969 11.5642 14.2969 11.686C14.2969 11.8267 14.3625 11.9204 14.4469 11.9673" stroke="#703D29" stroke-width="0.0625"/>
<path d="M14.5305 11.8641C14.3805 12.0563 14.2961 12.1688 14.2961 12.3938C14.2914 12.6094 14.3571 12.7548 14.4836 12.9094" stroke="#703D29" stroke-width="0.0625" stroke-linecap="round"/>
<path d="M13.7197 8.70001L13.7338 8.68126C13.7947 8.58751 13.9072 8.56407 13.9916 8.62501C14.0854 8.70001 14.1135 8.82657 14.0854 8.96251C14.0754 9.00516 14.057 9.04538 14.0312 9.0808C14.0054 9.11623 13.9729 9.14613 13.9354 9.16876" stroke="#703D29" stroke-width="0.0625"/>
<path d="M9.93741 8.65787C9.84366 8.611 9.76398 8.62037 9.70304 8.69068C9.6757 8.72981 9.65661 8.77409 9.64694 8.82084C9.63727 8.86758 9.63722 8.9158 9.64679 8.96256C9.66554 9.061 9.69366 9.10319 9.77804 9.17819" stroke="#703D29" stroke-width="0.0625" stroke-linecap="round"/>
<path d="M9.69804 8.70007C9.58085 8.62507 9.45429 8.6532 9.38866 8.76101C9.34156 8.82783 9.31995 8.90931 9.32772 8.9907C9.33213 9.06123 9.35418 9.12952 9.39186 9.18931C9.42953 9.2491 9.48162 9.29847 9.54335 9.33288" stroke="#703D29" stroke-width="0.0625"/>
<path d="M9.36074 8.80322C9.29978 8.81102 9.24361 8.84034 9.20236 8.88589C9.16111 8.93144 9.13748 8.99023 9.13574 9.05166C9.13574 9.22041 9.17793 9.28604 9.27168 9.4126C9.36543 9.53916 9.67012 9.77353 9.67012 10.0407C9.67012 10.2001 9.62324 10.3032 9.51074 10.3548C9.43574 10.3876 9.34668 10.3548 9.30918 10.3173C9.21543 10.2282 9.25293 10.0735 9.35137 10.0548C9.47324 10.036 9.49668 10.2282 9.37949 10.2142" stroke="#703D29" stroke-width="0.0625"/>
<path d="M9.14941 8.96729C9.05566 8.97666 8.96191 9.06104 8.96191 9.15479C8.96191 9.3001 9.01816 9.36572 9.13535 9.51103C9.2291 9.63291 9.51035 9.84854 9.50566 10.0548C9.50566 10.1298 9.44941 10.2282 9.39785 10.2142" stroke="#703D29" stroke-width="0.0625"/>
<path d="M8.92931 11.8547C8.97618 11.7469 9.08868 11.7938 9.09337 11.8547C9.11212 11.9954 8.99024 12.0329 8.90587 12.0094C8.85899 12 8.83087 11.9719 8.81212 11.9391C8.79504 11.9074 8.78771 11.8714 8.79105 11.8355C8.79438 11.7996 8.80824 11.7656 8.83087 11.7375C8.84359 11.7193 8.85946 11.7034 8.87774 11.6907C8.91056 11.6719 8.94806 11.6672 9.00431 11.6672C9.21056 11.6672 9.39337 11.9157 9.45431 12.1735C9.48824 12.3213 9.49143 12.4744 9.46368 12.6235C9.43225 12.7823 9.35577 12.9288 9.24337 13.0454C9.13861 13.1464 9.01186 13.2218 8.87306 13.2657C8.82412 13.2803 8.77199 13.2803 8.72306 13.2657C8.61993 13.2375 8.54962 13.1344 8.60587 13.0079C8.65274 12.9094 8.80743 12.8579 8.87774 12.9797C8.88243 12.9938 8.89181 13.0125 8.89181 13.0407C8.89181 13.0735 8.87774 13.111 8.85431 13.125C8.80274 13.1625 8.71368 13.1532 8.71837 13.0547" stroke="#703D29" stroke-width="0.0625" stroke-linecap="round"/>
<path d="M8.76566 13.1391C8.80316 13.1532 8.8266 13.1532 8.87347 13.1298L8.94379 13.0923C9.03754 13.0407 9.15472 12.9516 9.25785 12.7548C9.28686 12.7016 9.30891 12.6448 9.32347 12.586C9.33285 12.5438 9.34222 12.5016 9.34222 12.4594C9.34405 12.3807 9.33618 12.3019 9.31879 12.2251C9.29732 12.1019 9.2458 11.986 9.16879 11.8876C9.12191 11.8266 9.0891 11.7938 9.00472 11.7938M8.65316 12.9516C8.64816 12.9264 8.64995 12.9003 8.65834 12.876C8.66674 12.8517 8.68144 12.83 8.70094 12.8132C8.72044 12.7965 8.74404 12.7852 8.76934 12.7805C8.79464 12.7758 8.82072 12.778 8.84492 12.7867C8.86913 12.7954 8.89058 12.8104 8.9071 12.8301C8.92362 12.8498 8.93461 12.8736 8.93894 12.8989C8.94327 12.9243 8.9408 12.9503 8.93177 12.9744C8.92273 12.9985 8.90747 13.0198 8.88754 13.036" stroke="#703D29" stroke-width="0.0625"/>
<path d="M8.70898 12.8063C8.71444 12.774 8.73101 12.7446 8.75583 12.7232C8.78065 12.7018 8.81216 12.6897 8.84492 12.6891C8.88222 12.6891 8.91799 12.7039 8.94436 12.7303C8.97073 12.7566 8.98555 12.7924 8.98555 12.8297C8.98259 12.8658 8.96579 12.8994 8.93867 12.9235" stroke="#703D29" stroke-width="0.0625"/>
<path d="M8.97656 12.7969C9.04897 12.7431 9.10785 12.6731 9.14853 12.5926C9.18921 12.512 9.21057 12.4231 9.21094 12.3329C9.21094 12.1782 9.15 12.0188 9.075 11.9579" stroke="#703D29" stroke-width="0.0625"/>
<path d="M9.17285 12.7266C9.11616 12.8211 9.03525 12.8988 8.93848 12.9516" stroke="#703D29" stroke-width="0.0625" stroke-linecap="round"/>
<path d="M9.54779 13.2657C9.51029 13.1813 9.44467 13.1438 9.33217 13.1298C9.22371 13.1215 9.11542 13.1478 9.02279 13.2048C8.93421 13.2449 8.85505 13.3032 8.79045 13.3759C8.72584 13.4485 8.67724 13.534 8.64779 13.6267C8.62623 13.6964 8.61671 13.7693 8.61967 13.8423C8.61967 13.9782 8.65717 14.1235 8.69467 14.1938C8.72279 14.2595 8.80717 14.5313 9.26654 14.7188C9.57874 14.8184 9.90448 14.869 10.2322 14.8688C10.6212 14.8829 10.9822 14.897 11.1884 15.1548" stroke="#703D29" stroke-width="0.0625"/>
<path d="M8.98535 13.3453C9.11191 13.2656 9.3416 13.1578 9.55254 13.261C9.62538 13.2938 9.68372 13.3522 9.7166 13.425C9.73686 13.4862 9.74104 13.5515 9.72872 13.6147C9.71641 13.6779 9.68802 13.7369 9.64629 13.786C9.61348 13.8188 9.54785 13.8797 9.45879 13.8844C9.31816 13.8844 9.28535 13.7906 9.28066 13.7672C9.2666 13.6641 9.32754 13.6219 9.35566 13.6125C9.3791 13.6031 9.45879 13.6031 9.47754 13.6594C9.48223 13.6781 9.48223 13.711 9.46816 13.7344" stroke="#703D29" stroke-width="0.0625" stroke-linecap="round"/>
<path d="M9.47755 13.7156C9.48412 13.6936 9.48454 13.6701 9.47876 13.6478C9.47297 13.6255 9.46121 13.6052 9.44474 13.5891C9.41597 13.5614 9.3793 13.5434 9.33982 13.5375C9.30034 13.5316 9.26001 13.5382 9.22443 13.5563C9.18664 13.574 9.15427 13.6015 9.13068 13.6359L9.0838 13.6922L9.0463 13.7859C8.95255 14.0484 9.10255 14.3297 9.29005 14.4469C9.4538 14.5431 9.63925 14.5963 9.82912 14.6016L10.0776 14.6156H10.7057L10.9869 14.6438L11.1932 14.6813L11.2635 14.7L11.3104 14.7141C11.437 14.7495 11.5583 14.8016 11.6713 14.8688C11.7041 14.8875 11.7416 14.9063 11.7651 14.9344L11.8166 14.9813C11.8869 15.0469 11.9619 15.1219 11.9807 15.2297V15.2906C11.9807 15.3563 11.9291 15.45 11.7791 15.4781" stroke="#703D29" stroke-width="0.0625"/>
<path d="M11.2031 15.3141C11.1562 15.3985 11.2031 15.436 11.2594 15.4407C11.3391 15.4501 11.3812 15.3891 11.3859 15.3329C11.3953 15.2391 11.3156 15.1501 11.2219 15.1548C11.1811 15.1557 11.1416 15.1686 11.1082 15.192C11.0749 15.2154 11.0492 15.2481 11.0344 15.286C11.0245 15.3147 11.0197 15.3448 11.0203 15.3751C11.0158 15.4307 11.0325 15.486 11.0672 15.5298C11.0932 15.5588 11.1249 15.5822 11.1604 15.5983C11.196 15.6145 11.2344 15.6231 11.2734 15.6235C11.4328 15.6282 11.5547 15.4829 11.5547 15.3282C11.5547 15.0423 11.1281 14.8829 10.9547 14.8407C10.7349 14.7886 10.5102 14.7603 10.2844 14.7563C10.1484 14.747 10.05 14.7516 9.90468 14.7376C9.77343 14.7235 9.70312 14.7141 9.56718 14.686C9.39242 14.6469 9.23086 14.5628 9.09843 14.4423C8.97369 14.3486 8.8873 14.2128 8.85539 14.0601C8.82347 13.9074 8.84821 13.7484 8.92499 13.6126C8.96691 13.5455 9.02308 13.4885 9.08951 13.4455C9.15593 13.4026 9.231 13.3748 9.30937 13.3641C9.44999 13.3407 9.57187 13.4016 9.64218 13.5423C9.67968 13.6079 9.67031 13.7204 9.64218 13.7766C9.62293 13.8083 9.59617 13.8347 9.56428 13.8535C9.5324 13.8723 9.49636 13.8829 9.45937 13.8845C9.31874 13.8845 9.28593 13.7907 9.28124 13.7673C9.26718 13.6641 9.32812 13.622 9.35624 13.6126C9.37968 13.6032 9.45937 13.6032 9.47812 13.6595C9.48281 13.6782 9.48281 13.711 9.46874 13.7345" stroke="#703D29" stroke-width="0.0625"/>
<path d="M10.2461 8.70001C10.2415 8.69375 10.2368 8.6875 10.2321 8.68126C10.1711 8.58751 10.0586 8.56407 9.97427 8.62501C9.88052 8.70001 9.8524 8.82657 9.88052 8.96251C9.89049 9.00516 9.9089 9.04538 9.93466 9.0808C9.96043 9.11623 9.99302 9.14613 10.0305 9.16876" stroke="#703D29" stroke-width="0.0625" stroke-linecap="round"/>
<path d="M13.7529 8.98599C13.6029 9.15005 13.4482 9.20162 13.2232 9.21099C13.1529 9.21099 13.017 9.18755 12.942 9.1313C12.8951 9.0938 12.8342 9.03755 12.8717 8.92505C12.8951 8.85474 13.0123 8.65787 13.0123 8.51724C13.0217 8.3063 12.942 8.18912 12.8154 8.14693C12.5811 8.06256 12.3279 8.29693 12.1779 8.34849C12.1162 8.36996 12.051 8.3795 11.9857 8.37662C11.9107 8.37662 11.8686 8.37662 11.7889 8.34849C11.6389 8.29693 11.3857 8.06724 11.1514 8.14693C11.0248 8.19381 10.9451 8.30631 10.9545 8.52193C10.9545 8.65787 11.0717 8.85474 11.0951 8.92505C11.1326 9.03287 11.0764 9.0938 11.0248 9.1313C10.9401 9.18304 10.8428 9.2106 10.7436 9.21099C10.5139 9.20162 10.3686 9.15005 10.2139 8.98599" stroke="#703D29" stroke-width="0.0625"/>
<path d="M11.1514 14.7891C11.1795 14.8031 11.1561 14.7844 11.3482 14.8688C11.5264 14.9484 11.6576 15.0188 11.7701 15.1969C11.814 15.2821 11.8256 15.3803 11.8029 15.4734" stroke="#703D29" stroke-width="0.0625" stroke-linecap="round"/>
<path d="M11.1602 15.6001C11.198 15.6195 11.2395 15.6307 11.282 15.6329C11.4414 15.6376 11.5633 15.4923 11.5633 15.3376C11.5633 15.2344 11.507 15.1501 11.4273 15.0751" stroke="#703D29" stroke-width="0.0625"/>
<path d="M11.1983 15.3141C11.1561 15.4031 11.2124 15.4453 11.2686 15.4547C11.3483 15.4641 11.3905 15.3984 11.3999 15.3422C11.4019 15.3116 11.3956 15.281 11.3815 15.2538C11.3675 15.2265 11.3463 15.2036 11.3202 15.1875" stroke="#703D29" stroke-width="0.0625" stroke-linecap="round"/>
<path d="M14.6244 8.80322C14.7463 8.80322 14.8541 8.93916 14.8541 9.0751C14.8541 9.23447 14.7697 9.33291 14.7088 9.40322C14.6619 9.46416 14.6057 9.51572 14.54 9.58135" stroke="#703D29" stroke-width="0.0625"/>
<path d="M14.4838 8.67659C14.5286 8.69586 14.5663 8.72863 14.5916 8.77034C14.637 8.83778 14.657 8.91921 14.6478 9.00002C14.6431 9.1594 14.5306 9.26721 14.4275 9.33284M14.2494 8.67659L14.2728 8.70471C14.3008 8.7426 14.3204 8.78607 14.3301 8.83218C14.3398 8.87828 14.3394 8.92594 14.3291 8.9719C14.3215 9.01426 14.3051 9.05454 14.2809 9.09009C14.2566 9.12564 14.2251 9.15565 14.1885 9.17815M14.001 8.6344C14.0947 8.7094 14.1275 8.84065 14.0947 8.9719C14.0713 9.06565 14.0103 9.12659 13.94 9.16877M14.3572 10.711C14.3666 10.7438 14.3853 10.7578 14.4135 10.7813C14.4765 10.8463 14.5558 10.8933 14.6431 10.9172C14.6823 10.9285 14.7234 10.9314 14.7638 10.9257C14.8042 10.9201 14.8429 10.906 14.8775 10.8844M8.76501 12.9094C8.81189 12.9094 8.85876 12.9375 8.89158 12.9938C8.90072 13.0111 8.90554 13.0304 8.90564 13.05C8.90564 13.0828 8.89158 13.1157 8.86814 13.1344C8.81189 13.1672 8.71814 13.1531 8.72283 13.0547" stroke="#703D29" stroke-width="0.0625" stroke-linecap="round"/>
<path d="M9.05586 11.6719C9.24336 11.7094 9.4168 11.9297 9.47773 12.1734C9.51166 12.3212 9.51485 12.4744 9.48711 12.6234C9.45568 12.7823 9.3792 12.9287 9.2668 13.0453C9.24336 13.0734 9.21992 13.0922 9.18711 13.1156L9.14492 13.1437M8.84961 12.6891C8.92461 12.6891 8.99023 12.7594 8.99023 12.8391C8.98977 12.8739 8.97641 12.9073 8.95273 12.9328" stroke="#703D29" stroke-width="0.0625"/>
<path d="M8.79785 12.7782C8.87754 12.7782 8.95254 12.8532 8.95254 12.9329C8.9529 12.9554 8.94801 12.9778 8.93825 12.9981C8.92849 13.0185 8.91412 13.0362 8.89629 13.0501" stroke="#703D29" stroke-width="0.0625"/>
<path d="M9.52441 11.9813C9.59473 12.0751 9.64629 12.1641 9.66504 12.2719M9.66504 12.5907C9.65258 12.6428 9.63368 12.6932 9.60879 12.7407C9.57484 12.8053 9.5305 12.8639 9.47754 12.9141" stroke="#703D29" stroke-width="0.0625" stroke-linecap="round"/>
<path d="M9.53418 11.4141C9.59596 11.4578 9.64199 11.5202 9.66543 11.5922" stroke="#703D29" stroke-width="0.0625"/>
<path d="M9.66992 11.2313C9.64398 11.2994 9.60028 11.3592 9.54336 11.4047M9.20117 10.7578L9.28086 10.7391L9.32773 10.7016L9.36055 10.6547L9.38398 10.5891L9.39805 10.5328" stroke="#703D29" stroke-width="0.0625" stroke-linecap="round"/>
<path d="M9.037 10.4719L8.94325 10.5047C8.89023 10.5298 8.84491 10.5687 8.812 10.6172C8.76976 10.6862 8.74112 10.7625 8.72762 10.8422C8.71825 10.875 8.70887 10.9829 8.72762 11.0907C8.74411 11.1681 8.77599 11.2414 8.82137 11.3063L8.85887 11.3532C8.90575 11.4 8.95262 11.4329 9.02293 11.4188" stroke="#703D29" stroke-width="0.0625"/>
<path d="M9.4875 10.1157C9.47812 10.1626 9.45 10.2235 9.375 10.2188" stroke="#703D29" stroke-width="0.0625" stroke-linecap="round"/>
<path d="M9.21016 10.4438C9.13984 10.3735 8.98516 10.3547 8.83516 10.4531C8.81172 10.4625 8.79297 10.4813 8.77422 10.5C8.7549 10.5167 8.7376 10.5356 8.72266 10.5563L8.66641 10.65C8.65218 10.68 8.64118 10.7115 8.63359 10.7438C8.60547 10.8516 8.60547 10.9547 8.60547 10.9781L8.61953 11.0813C8.63348 11.1638 8.66206 11.2432 8.70391 11.3156C8.73267 11.3701 8.77408 11.4168 8.82466 11.4518C8.87523 11.4869 8.93349 11.5093 8.99453 11.5172C9.06016 11.5219 9.17734 11.4891 9.18203 11.4047" stroke="#703D29" stroke-width="0.0625"/>
<path d="M13.6406 8.89221C13.65 8.82659 13.725 8.81721 13.7531 8.85471C13.8 8.91096 13.7718 9.00471 13.6828 9.03284C13.6568 9.03837 13.6299 9.03646 13.605 9.02734C13.5801 9.01822 13.5583 9.00225 13.5421 8.98128C13.5 8.9344 13.5046 8.87815 13.5187 8.83128C13.5281 8.79846 13.5515 8.77503 13.5843 8.75159C13.6828 8.6719 13.8515 8.69065 13.9031 8.8219C13.9734 8.99065 13.8234 9.11721 13.6828 9.21096C13.5046 9.32815 13.3078 9.35159 13.1531 9.35159C12.8109 9.3469 12.5484 9.18284 12.3796 9.08909C12.3421 9.06565 12.3 9.07034 12.2812 9.09846C12.2578 9.12659 12.2578 9.16878 12.2906 9.1969" stroke="#703D29" stroke-width="0.0625" stroke-linecap="round"/>
<path d="M13.7102 8.8313C13.7477 8.8313 13.757 8.85005 13.7664 8.86411C13.8133 8.92036 13.7805 9.01411 13.6914 9.04224M14.3617 10.9735C14.2305 11.1141 14.3477 11.3625 14.4461 11.4188C14.4789 11.4422 14.493 11.4282 14.5211 11.4469" stroke="#703D29" stroke-width="0.0625" stroke-linecap="round"/>
<path d="M14.3672 10.7016C14.3203 10.7344 14.3109 10.7673 14.3063 10.8235C14.3046 10.8511 14.3087 10.8786 14.3184 10.9045C14.3281 10.9303 14.3431 10.9538 14.3625 10.9735C14.4557 11.0604 14.5773 11.1103 14.7047 11.1141C14.7863 11.1172 14.8667 11.0942 14.9344 11.0485C15.0046 11.0011 15.0547 10.9292 15.075 10.8469M14.2969 13.1719V13.2657C14.2781 13.3688 14.2641 13.4298 14.2172 13.5235C14.1779 13.6033 14.1238 13.6748 14.0578 13.7344C13.9945 13.7991 13.9198 13.8516 13.8375 13.8891C13.7606 13.9285 13.6785 13.9569 13.5938 13.9735C13.5088 13.9901 13.4225 13.9995 13.3359 14.0016H13.1016L12.8438 13.9688C12.7641 13.9594 12.7172 13.9548 12.6375 13.9548C12.4967 13.9508 12.3565 13.9747 12.225 14.0251C12.1394 14.0581 12.0601 14.1057 11.9906 14.1657C11.9625 14.1376 11.85 14.0626 11.7469 14.0251C11.6853 13.9986 11.6208 13.9797 11.5547 13.9688C11.4703 13.9548 11.4234 13.9548 11.3391 13.9548C11.2547 13.9548 11.2125 13.9594 11.1281 13.9688C11.0344 13.9782 10.9734 13.9923 10.875 13.9969C10.7812 14.0016 10.7344 14.0063 10.6406 14.0016C10.5375 14.0016 10.4812 13.9923 10.3781 13.9735C10.2933 13.9569 10.2113 13.9285 10.1344 13.8891C10.0406 13.8423 9.99375 13.8094 9.91406 13.7344C9.84976 13.6744 9.79729 13.6029 9.75937 13.5235C9.71653 13.4435 9.68947 13.356 9.67969 13.2657V9.35632H14.2969V13.1719Z" stroke="#703D29" stroke-width="0.0625"/>
<path d="M9.29453 13.7109C9.29453 13.686 9.30441 13.6622 9.32199 13.6446C9.33957 13.627 9.36342 13.6171 9.38828 13.6171C9.41315 13.6171 9.43699 13.627 9.45457 13.6446C9.47215 13.6622 9.48203 13.686 9.48203 13.7109C9.48203 13.7358 9.47215 13.7596 9.45457 13.7772C9.43699 13.7948 9.41315 13.8046 9.38828 13.8046C9.36342 13.8046 9.33957 13.7948 9.32199 13.7772C9.30441 13.7596 9.29453 13.7358 9.29453 13.7109ZM8.72266 13.05C8.72266 13.0031 8.75078 12.9656 8.78828 12.9656C8.82578 12.9656 8.85391 13.0031 8.85391 13.05C8.85391 13.0968 8.82578 13.1343 8.78828 13.1343C8.75078 13.1343 8.72266 13.0968 8.72266 13.05Z" fill="#C7B37F" stroke="#C7B37F" stroke-width="0.0375"/>
<path d="M9.0459 11.3859C9.0459 11.3484 9.07871 11.3156 9.11152 11.3156C9.14902 11.3156 9.17715 11.3484 9.17715 11.3859C9.17715 11.4234 9.14902 11.4516 9.11152 11.4516C9.07871 11.4516 9.05059 11.4234 9.05059 11.3859H9.0459ZM10.199 8.925C10.1943 8.88281 10.2178 8.85 10.2459 8.85C10.2787 8.84531 10.3115 8.87344 10.3162 8.91094C10.3162 8.94844 10.2975 8.98125 10.2646 8.98594C10.2318 8.98594 10.199 8.9625 10.199 8.925Z" fill="#C7B37F"/>
<path d="M8.97207 11.7751C8.96153 11.7794 8.95196 11.7858 8.94395 11.7939L8.92051 11.8267L8.91113 11.8736M9.08926 12.872L9.12207 12.8345L9.15019 12.797L9.16895 12.7642L9.19238 12.7173M9.14551 13.233L9.08926 13.2611L9.04707 13.2845C9.03098 13.2948 9.01534 13.3057 9.0002 13.3173L8.95332 13.3548M9.51582 11.9345L9.48769 11.9017L9.45488 11.8689L9.41738 11.8455" stroke="#C7B37F" stroke-width="0.0625" stroke-linecap="round"/>
<path d="M9.53008 11.4376L9.4832 11.4564C9.46654 11.4619 9.44918 11.4651 9.43164 11.4657" stroke="#C7B37F" stroke-width="0.0625"/>
<path d="M8.90625 10.8188C8.90625 10.8376 8.91094 10.8517 8.92031 10.8704L8.95312 10.936C8.97963 10.9762 9.01488 11.0099 9.05625 11.0345L9.1125 11.0673M9.07031 10.847L9.11719 10.8704C9.15267 10.8859 9.19097 10.8939 9.22969 10.8938L9.3 10.8892M9.56719 9.36572L9.49219 9.31885C9.4487 9.28973 9.41063 9.25324 9.37969 9.21104L9.34687 9.16416M9.62812 8.99541L9.65156 9.05635L9.70781 9.13603C9.74063 9.17353 9.76875 9.18291 9.81094 9.21104M9.8625 8.99072L9.88594 9.04697L9.91875 9.09385L9.96563 9.14072C9.99375 9.16416 10.0125 9.16885 10.0406 9.1876" stroke="#C7B37F" stroke-width="0.0625" stroke-linecap="round"/>
<path d="M12.496 8.68604C12.496 8.62041 12.4351 8.61572 12.4069 8.61572C12.3413 8.61572 12.3226 8.6626 12.2335 8.70947C12.1589 8.75528 12.0725 8.77811 11.9851 8.7751C11.8954 8.7792 11.8067 8.75457 11.7319 8.70478C11.6429 8.65791 11.6288 8.61572 11.5632 8.61572C11.5257 8.61572 11.4741 8.64854 11.4788 8.70947V8.74229C11.4788 8.74229 11.4882 8.74228 11.4882 8.75166C11.4882 8.71885 11.4929 8.70479 11.5069 8.68604C11.5142 8.67657 11.5234 8.66875 11.5339 8.66309C11.5444 8.65744 11.556 8.65407 11.5679 8.65322C11.6382 8.65322 11.6616 8.7001 11.7507 8.74697C11.8247 8.79443 11.9112 8.8189 11.9991 8.81729C12.0929 8.81729 12.1444 8.80322 12.2523 8.74697C12.3413 8.7001 12.3648 8.65322 12.4351 8.65322C12.4585 8.65322 12.4726 8.66728 12.4819 8.69072V8.72354H12.4913C12.4913 8.71885 12.5007 8.71416 12.496 8.68604Z" fill="#703D29" stroke="#703D29" stroke-width="0.0125"/>
<path d="M9.91367 14.0249C9.93242 14.0062 9.95117 14.0109 9.95117 14.0015L9.9418 13.9921L9.90898 13.9828L9.87617 13.9687C9.87617 13.9687 9.86211 13.9593 9.85742 13.9687C9.85742 13.9828 9.89961 13.9828 9.88086 14.0203C9.88086 14.0296 9.87617 14.0437 9.85273 14.0671L9.7543 14.1749L9.74492 14.1843V14.0156L9.74961 13.9499C9.75898 13.9312 9.77773 13.9499 9.78242 13.9359C9.78242 13.9265 9.78242 13.9265 9.77305 13.9218C9.76367 13.9218 9.7543 13.9218 9.72617 13.9078L9.69336 13.8937C9.68867 13.8937 9.67461 13.8843 9.66992 13.8937L9.67461 13.9031C9.68867 13.9124 9.69336 13.9171 9.69336 13.9359V14.2171C9.69336 14.2359 9.69805 14.2453 9.70273 14.2453L9.7168 14.2359L9.91367 14.0203V14.0249Z" fill="#703D29"/>
<path d="M10.0307 14.0671C10.0447 14.0296 10.0682 14.0531 10.0729 14.039L10.0588 14.0296L10.0119 14.0156L9.96504 13.9968H9.95098C9.95098 14.0156 9.99785 14.0156 9.98379 14.0578L9.91816 14.264C9.9041 14.3015 9.88066 14.2828 9.87598 14.2968V14.3015L9.92285 14.3156L9.9791 14.3343H9.99316C9.99785 14.3203 9.94629 14.325 9.96504 14.2734L10.0307 14.0718V14.0671ZM10.1713 14.114C10.176 14.0859 10.19 14.0859 10.2041 14.0906C10.2416 14.1046 10.251 14.1421 10.2416 14.1843C10.2322 14.2078 10.2229 14.2312 10.1666 14.2171C10.1525 14.2125 10.1385 14.2078 10.1432 14.1984L10.1713 14.1093V14.114ZM10.0635 14.2968C10.0447 14.3484 10.0166 14.325 10.0166 14.3437L10.026 14.3484L10.0869 14.3671L10.1197 14.3765H10.1338C10.1338 14.3578 10.0916 14.3671 10.1057 14.3203L10.1291 14.2453C10.1291 14.2312 10.1291 14.2265 10.1525 14.2312C10.1713 14.2406 10.176 14.2453 10.1807 14.264L10.1947 14.3437C10.1947 14.3718 10.2041 14.4046 10.2322 14.4093C10.2463 14.4187 10.2791 14.414 10.2791 14.4V14.3953H10.265L10.251 14.3812L10.2275 14.2406L10.2557 14.2312C10.2697 14.2218 10.2838 14.2125 10.2932 14.1843C10.2979 14.1656 10.3072 14.1046 10.2229 14.0765L10.1479 14.0578L10.101 14.0437H10.0916C10.0869 14.0625 10.1338 14.0578 10.1197 14.1046L10.0635 14.2921V14.2968ZM10.3775 14.3906C10.3682 14.4375 10.3307 14.4093 10.3213 14.4234C10.3213 14.4328 10.326 14.4375 10.3354 14.4375L10.3916 14.4468L10.4432 14.4656L10.4666 14.4609C10.4666 14.4468 10.415 14.4468 10.4291 14.3953L10.476 14.1984C10.476 14.175 10.4854 14.175 10.4994 14.1796L10.5322 14.189C10.5791 14.1984 10.5557 14.2406 10.5697 14.2453C10.5838 14.2453 10.5791 14.2312 10.5838 14.2218V14.1703L10.4619 14.1421L10.3447 14.114C10.3354 14.114 10.3354 14.114 10.3354 14.1234L10.3119 14.1796V14.1937C10.3354 14.1984 10.3354 14.1375 10.3775 14.1468L10.4104 14.1562C10.4291 14.1609 10.4338 14.1656 10.4291 14.1843L10.3822 14.3859L10.3775 14.3906ZM10.8557 14.264C10.8697 14.2406 10.8885 14.2453 10.8885 14.2359L10.8744 14.2265H10.8416L10.8088 14.2171C10.8041 14.2171 10.79 14.2125 10.79 14.2171C10.79 14.2359 10.8322 14.2265 10.8229 14.264C10.8229 14.2734 10.8182 14.2921 10.7994 14.3156L10.7197 14.4421L10.715 14.4515V14.4375L10.6869 14.2875C10.6823 14.2675 10.6807 14.2469 10.6822 14.2265C10.6822 14.2078 10.7057 14.2171 10.7104 14.2031L10.6963 14.1937L10.6494 14.189L10.6119 14.1796C10.6072 14.1796 10.5932 14.175 10.5932 14.1796L10.5979 14.189C10.6166 14.1984 10.6213 14.2031 10.6213 14.2218L10.6729 14.4984C10.6775 14.5171 10.6822 14.5218 10.6869 14.5218L10.6963 14.5125L10.8557 14.264ZM10.8791 14.5171L10.8838 14.5359L10.9494 14.564C11.001 14.5734 11.0432 14.5406 11.0572 14.4843C11.0666 14.4281 11.0432 14.4046 11.001 14.3765C10.9541 14.339 10.9307 14.3296 10.94 14.3015C10.94 14.2734 10.9635 14.2546 10.9869 14.264C11.0572 14.2734 11.0525 14.3578 11.0619 14.3578C11.0666 14.3578 11.0713 14.3578 11.0713 14.3437L11.076 14.2828V14.2687H11.0525C11.0385 14.2687 11.0291 14.25 10.9963 14.2453C10.9494 14.2359 10.9119 14.2687 10.9025 14.3203C10.8932 14.3671 10.9119 14.3859 10.9494 14.4093C11.0057 14.4515 11.0291 14.4562 11.0244 14.4984C11.015 14.5312 10.9869 14.55 10.9588 14.5453C10.9119 14.5359 10.8979 14.4937 10.8885 14.4515L10.8838 14.4375C10.8744 14.4375 10.8744 14.4515 10.8744 14.4562V14.5171H10.8791ZM11.4697 14.3531C11.4838 14.325 11.4979 14.3296 11.5025 14.3203C11.5025 14.3109 11.4932 14.3109 11.4885 14.3109H11.451L11.4182 14.3062L11.3994 14.3109C11.3994 14.3296 11.4463 14.3109 11.4369 14.3578C11.4369 14.3625 11.4369 14.3812 11.4229 14.4046L11.3572 14.5406L11.3479 14.55V14.5406L11.301 14.3906C11.2947 14.3709 11.2916 14.3503 11.2916 14.3296C11.2916 14.3109 11.3197 14.3156 11.3197 14.3062C11.3197 14.2968 11.3197 14.2968 11.3057 14.2968H11.2588L11.2213 14.2921C11.2166 14.2921 11.2025 14.2875 11.2025 14.2921L11.2072 14.3015C11.226 14.3109 11.2307 14.3156 11.2354 14.3296L11.315 14.6015C11.3197 14.6203 11.3244 14.625 11.3291 14.625L11.3385 14.6109L11.4697 14.3531Z" fill="#703D29"/>
<path d="M11.5307 14.5687C11.5307 14.6156 11.4932 14.6062 11.4932 14.6249H11.54L11.5869 14.6296L11.6057 14.6249C11.6057 14.6015 11.5541 14.6343 11.5541 14.5453V14.3859C11.5541 14.3859 11.5635 14.3859 11.5682 14.3953L11.7557 14.6296H11.7697V14.6203L11.7744 14.3718C11.7744 14.3249 11.8119 14.3343 11.8119 14.3203L11.8025 14.3156H11.7088V14.3203C11.7088 14.3343 11.7557 14.3296 11.7557 14.3671V14.5171L11.751 14.5359L11.7369 14.5218L11.5775 14.3249C11.5729 14.3156 11.5775 14.3109 11.5635 14.3109H11.4979L11.4932 14.3203C11.4932 14.339 11.54 14.3109 11.5354 14.3999V14.5687H11.5307ZM11.9244 14.3671C11.9244 14.3203 11.9525 14.339 11.9525 14.3249L11.9385 14.3203H11.8307C11.8307 14.339 11.8729 14.3249 11.8729 14.3671V14.5828C11.8729 14.6296 11.8447 14.6156 11.8447 14.6296V14.6343H11.9525L11.9666 14.6296C11.9666 14.6156 11.9197 14.6343 11.9197 14.5828V14.3671H11.9244ZM12.0932 14.5734C12.0932 14.6296 12.0463 14.6062 12.0463 14.6203C12.0463 14.6343 12.0557 14.6343 12.0604 14.6343H12.1729C12.1869 14.6343 12.1963 14.6343 12.1963 14.6249C12.1963 14.6109 12.1447 14.6249 12.1447 14.5687V14.3671C12.1447 14.3437 12.1447 14.3437 12.1588 14.3437H12.1963C12.2432 14.3437 12.2291 14.3906 12.2432 14.3906C12.2572 14.3906 12.2525 14.3718 12.2525 14.3671L12.2479 14.3249C12.2479 14.3249 12.2479 14.3156 12.2385 14.3156H11.9994C11.99 14.3156 11.99 14.3249 11.99 14.3296L11.9854 14.3859L11.99 14.4046C12.0088 14.4046 11.9947 14.3437 12.0416 14.3437H12.0744C12.0932 14.3437 12.0979 14.3437 12.0979 14.3671V14.5734H12.0932ZM12.3275 14.489H12.3135V14.4703L12.3416 14.3859H12.3463L12.3932 14.4656V14.4796L12.3838 14.4843L12.3275 14.489ZM12.3979 14.5078C12.4072 14.5078 12.4119 14.5078 12.426 14.5453L12.4354 14.5734C12.4354 14.6015 12.4072 14.6015 12.4072 14.6109C12.4072 14.6203 12.4166 14.6156 12.4213 14.6156H12.4682L12.515 14.6109C12.5291 14.6109 12.5338 14.6109 12.5338 14.6015C12.5338 14.5874 12.5104 14.6062 12.4963 14.5734L12.365 14.3109L12.3557 14.2968L12.3463 14.3156L12.2572 14.5921C12.2479 14.6156 12.2291 14.6156 12.2291 14.6249C12.2291 14.6343 12.2385 14.6296 12.2432 14.6296H12.3135C12.3229 14.6249 12.3369 14.6296 12.3369 14.6156C12.3369 14.6062 12.29 14.6156 12.29 14.5828L12.2947 14.5499C12.3041 14.5171 12.3088 14.5171 12.3182 14.5171L12.3979 14.5078ZM12.7072 14.3203C12.7072 14.2921 12.7072 14.2921 12.7541 14.2874C12.8291 14.2734 12.8057 14.3343 12.8244 14.3296C12.8338 14.3296 12.8291 14.3109 12.8291 14.3062L12.8244 14.2593H12.815L12.7213 14.2687L12.6182 14.2828C12.6088 14.2828 12.6088 14.2828 12.6088 14.2921C12.6088 14.3062 12.6557 14.2921 12.6557 14.3296L12.6838 14.5359C12.6932 14.5921 12.6604 14.5687 12.6604 14.5921H12.6697L12.7213 14.5874L12.7682 14.5828C12.7775 14.5828 12.7869 14.5828 12.7869 14.5734C12.7869 14.5593 12.74 14.5734 12.7354 14.5265L12.726 14.4609C12.726 14.4374 12.7213 14.4328 12.74 14.4281H12.7682C12.8104 14.4187 12.8057 14.4703 12.815 14.4656C12.8291 14.4656 12.8244 14.4515 12.8197 14.4421L12.8104 14.3671C12.8104 14.3531 12.801 14.3531 12.801 14.3531C12.7916 14.3531 12.7963 14.3999 12.7635 14.3999L12.7354 14.4046C12.7166 14.4046 12.7166 14.4046 12.7166 14.3859L12.7072 14.3249V14.3203ZM12.8572 14.4234C12.8713 14.5171 12.9369 14.564 13.0166 14.5499C13.1432 14.5265 13.1479 14.4093 13.1338 14.3531C13.1197 14.2593 13.0494 14.2124 12.9697 14.2265C12.876 14.2453 12.8385 14.3296 12.8572 14.4234ZM12.8994 14.3906C12.8854 14.3249 12.8994 14.264 12.965 14.2499C13.0119 14.2359 13.0729 14.2781 13.0916 14.3765C13.1057 14.4515 13.0916 14.5171 13.026 14.5265C12.9557 14.5406 12.9135 14.4562 12.8994 14.3906ZM13.2135 14.2359C13.2041 14.2078 13.2182 14.2031 13.2322 14.2031C13.2697 14.1937 13.3025 14.2171 13.3119 14.264C13.3166 14.2874 13.3213 14.3109 13.265 14.3249C13.251 14.3296 13.2369 14.3343 13.2322 14.3249L13.2135 14.2312V14.2359ZM13.2135 14.4468C13.2275 14.5031 13.19 14.4937 13.1947 14.5078C13.1947 14.5171 13.2041 14.5171 13.2088 14.5124L13.2697 14.4984L13.3025 14.4937C13.3119 14.4937 13.3119 14.4843 13.3119 14.4843C13.3119 14.4656 13.2744 14.4937 13.265 14.4468L13.2463 14.3718C13.2416 14.3578 13.2369 14.3531 13.2604 14.3484C13.2791 14.3484 13.2885 14.3484 13.3025 14.3624L13.3494 14.4234C13.3682 14.4468 13.3869 14.4703 13.4197 14.4656C13.4338 14.4609 13.4572 14.4421 13.4525 14.4328C13.4525 14.4281 13.4525 14.4234 13.4479 14.4281H13.4197L13.326 14.3203L13.3494 14.2968C13.3541 14.2828 13.3635 14.264 13.3588 14.2359C13.3541 14.2171 13.3307 14.1562 13.2416 14.1796L13.1666 14.1984L13.1197 14.2078L13.1104 14.2171C13.115 14.2359 13.1572 14.2078 13.1666 14.2546L13.2135 14.4468ZM13.5369 14.3765C13.551 14.4234 13.4994 14.4187 13.5041 14.4328C13.5041 14.4421 13.5135 14.4421 13.5182 14.4421L13.5744 14.4234L13.6307 14.4093C13.64 14.4093 13.6494 14.4093 13.6447 14.3999C13.6447 14.3859 13.5979 14.4093 13.5838 14.3578L13.5322 14.1609C13.5275 14.1421 13.5322 14.1374 13.5463 14.1328L13.5791 14.1234C13.626 14.1093 13.626 14.1609 13.64 14.1609C13.6494 14.1609 13.64 14.1421 13.64 14.1374L13.6213 14.0953C13.6213 14.0953 13.6213 14.0859 13.6119 14.0859L13.4947 14.1187L13.3775 14.1515C13.3682 14.1515 13.3729 14.1562 13.3729 14.1609L13.3822 14.2218C13.3822 14.2265 13.3822 14.2359 13.3916 14.2359C13.4057 14.2312 13.3822 14.1749 13.4244 14.1656L13.4572 14.1562C13.4713 14.1562 13.476 14.1562 13.4854 14.1749L13.5322 14.3765H13.5369ZM13.7432 14.0999C13.7291 14.0578 13.7619 14.0671 13.7572 14.0531H13.7432C13.7244 14.0531 13.7104 14.0624 13.6963 14.0671L13.6494 14.0765C13.6494 14.0765 13.6354 14.0765 13.64 14.0859C13.64 14.0999 13.6869 14.0765 13.6963 14.114L13.7525 14.3203C13.7619 14.3671 13.7338 14.3578 13.7385 14.3765L13.7854 14.3671L13.8463 14.3531C13.8557 14.3484 13.8557 14.3437 13.8557 14.339C13.8557 14.3249 13.8135 14.3578 13.7994 14.3062L13.7432 14.0999ZM13.8275 14.1984C13.8557 14.2874 13.926 14.3249 14.0057 14.3015C14.1275 14.2593 14.1135 14.1468 14.0947 14.0906C14.0666 13.9968 13.9869 13.964 13.9166 13.9874C13.8229 14.0203 13.7947 14.1093 13.8275 14.1984ZM13.865 14.1609C13.8463 14.0999 13.8463 14.0343 13.9119 14.0109C13.9588 13.9921 14.0197 14.0249 14.0525 14.1234C14.076 14.1937 14.076 14.2546 14.0057 14.2781C13.94 14.3015 13.8885 14.2218 13.865 14.1609ZM14.151 13.9593C14.1416 13.9312 14.151 13.9265 14.1697 13.9218C14.2072 13.9078 14.24 13.9312 14.2541 13.9687C14.2635 13.9968 14.2729 14.0156 14.2166 14.0437C14.2025 14.0437 14.1885 14.0531 14.1838 14.0437L14.151 13.9593ZM14.1838 14.1703C14.2025 14.2171 14.165 14.2171 14.1744 14.2312C14.1744 14.2406 14.1838 14.2359 14.1885 14.2312C14.2072 14.2312 14.226 14.2171 14.2447 14.2124L14.2775 14.1984C14.2869 14.1984 14.2869 14.1937 14.2869 14.189C14.2822 14.1749 14.2494 14.2031 14.2307 14.1609L14.2025 14.0906C14.2025 14.0718 14.1932 14.0718 14.2166 14.0624C14.2354 14.0578 14.24 14.0578 14.2588 14.0718L14.315 14.1281C14.3385 14.1468 14.3619 14.1656 14.39 14.1562C14.4041 14.1515 14.4229 14.1328 14.4182 14.1187C14.4182 14.1187 14.4182 14.114 14.4135 14.1187H14.3854L14.2822 14.0249L14.2963 14.0015C14.301 13.9874 14.3057 13.9687 14.2963 13.9406C14.2869 13.9218 14.2588 13.8656 14.1744 13.8984L14.0994 13.9312L14.0525 13.9453V13.9546C14.0572 13.9687 14.09 13.9359 14.1088 13.9828L14.1838 14.1703Z" fill="#703D29"/>
<path d="M9.90527 9.58325H11.8757V11.5513H9.90527V9.58325Z" fill="#D52B1E"/>
<path d="M10.8295 11.1312C10.8295 11.1312 10.8295 11.2032 10.8103 11.2584C10.7863 11.3232 10.7863 11.3232 10.7647 11.3544C10.7414 11.3925 10.7104 11.4252 10.6735 11.4504C10.6255 11.4792 10.5775 11.4936 10.5295 11.4888C10.3999 11.4792 10.3375 11.3352 10.3087 11.22C10.2775 11.0976 10.1887 11.028 10.1287 11.076C10.0951 11.1 10.0951 11.1432 10.1215 11.1864C10.1474 11.2176 10.1815 11.2409 10.2199 11.2536L10.1503 11.3424C10.1503 11.3424 9.99913 11.3232 9.97033 11.1648C9.95833 11.1048 9.98713 10.9944 10.0879 10.9608C10.2151 10.9176 10.2943 11.0088 10.3351 11.0856C10.3879 11.1912 10.4119 11.3832 10.5607 11.3544C10.6423 11.3376 10.6807 11.22 10.6807 11.1648L10.7383 11.1024L10.8271 11.1312H10.8295Z" fill="white"/>
<path d="M10.9517 11.1312C10.9517 11.1312 10.9517 11.2032 10.9709 11.2584C10.9949 11.3232 10.9949 11.3232 11.0165 11.3544C11.0398 11.3925 11.0709 11.4252 11.1077 11.4504C11.1557 11.4792 11.2037 11.4936 11.2517 11.4888C11.3813 11.4792 11.4437 11.3352 11.4725 11.22C11.5037 11.0976 11.5925 11.028 11.6525 11.076C11.6861 11.1 11.6861 11.1432 11.6597 11.1864C11.6339 11.2176 11.5998 11.2409 11.5613 11.2536L11.6309 11.3424C11.6309 11.3424 11.7821 11.3232 11.8109 11.1648C11.8229 11.1048 11.7941 10.9944 11.6933 10.9608C11.5661 10.9176 11.4869 11.0088 11.4461 11.0856C11.3933 11.1912 11.3693 11.3832 11.2205 11.3544C11.1389 11.3376 11.1005 11.22 11.1005 11.1648L11.0429 11.1024L10.9541 11.1312H10.9517Z" fill="white"/>
<path d="M11.0671 10.296L11.3263 10.0152C11.3263 10.0152 11.3647 9.98401 11.3647 9.93361L11.3119 9.94321L11.2999 9.91441L11.2975 9.88801L11.3695 9.87121V9.84001L11.3767 9.80881L11.2999 9.81361L11.3071 9.78001L11.3191 9.75601L11.3647 9.74641H11.4103C11.4535 9.66481 11.6311 9.59281 11.7559 9.72241C11.8471 9.81841 11.8279 9.99121 11.7079 10.0392C11.681 10.0511 11.6513 10.055 11.6223 10.0503C11.5934 10.0456 11.5664 10.0326 11.5447 10.0128L11.5927 9.91681C11.6575 9.95761 11.7127 9.90961 11.7079 9.85921C11.7031 9.79441 11.6599 9.75601 11.6047 9.75121C11.5495 9.74641 11.5087 9.77521 11.4847 9.82321C11.4703 9.85441 11.4775 9.87601 11.4727 9.90961C11.4679 9.94561 11.4727 9.96481 11.4607 10.0008C11.449 10.034 11.4292 10.0637 11.4031 10.0872L11.1391 10.3752L10.1071 11.4888L10.0303 11.4168L11.0671 10.296Z" fill="#FEDF00"/>
<path d="M10.3081 10.3921C10.3081 10.3921 10.3729 10.7137 10.5937 11.1961C10.7065 11.1553 10.7713 11.1289 10.8913 11.1289C11.0089 11.1289 11.0737 11.1529 11.1865 11.1961C11.3093 10.9387 11.4051 10.6693 11.4721 10.3921L10.8913 9.64807L10.3057 10.3921H10.3081Z" fill="white"/>
<path d="M10.9467 9.89771L11.3499 10.4185C11.3499 10.4185 11.2971 10.6705 11.1339 11.0497C11.0691 11.0353 11.0139 11.0233 10.9467 11.0185V9.89771ZM10.8339 9.89771L10.4307 10.4185C10.4307 10.4185 10.4835 10.6705 10.6467 11.0497C10.7115 11.0353 10.7667 11.0233 10.8339 11.0185V9.89771Z" fill="#FEDF00"/>
<path d="M12.084 9.5813H14.0621V11.55H12.0934L12.084 9.5813Z" fill="#FEDF00"/>
<path d="M12.3604 9.5813H12.6557V11.55H12.3604V9.5813ZM12.9229 9.5813H13.2182V11.55H12.9275L12.9229 9.5813ZM13.4854 9.5813H13.7807V11.55H13.49L13.4854 9.5813Z" fill="#D52B1E"/>
<path d="M9.90898 13.2563C9.91836 13.2938 9.92773 13.35 9.96055 13.4157C9.99805 13.4719 9.98398 13.4719 10.0637 13.5563C10.1505 13.6409 10.2593 13.6993 10.3777 13.725C10.5371 13.7719 10.6449 13.7719 10.7762 13.7672C10.8793 13.7625 10.959 13.7485 11.0246 13.7391C11.1184 13.7297 11.184 13.7204 11.2918 13.7157C11.3402 13.7134 11.3887 13.7134 11.4371 13.7157C11.4934 13.7157 11.5496 13.7297 11.6105 13.7391C11.7418 13.7672 11.873 13.8188 11.873 13.8188V11.761H9.9043V13.1672L9.90898 13.261V13.2563Z" fill="#FEDF00"/>
<path d="M10.1387 13.6172L10.2324 13.6735L10.359 13.7204V11.761H10.1387V13.6172ZM11.2355 13.711V11.761H11.0152V13.7391L11.2355 13.7157V13.711ZM11.6715 11.761H11.4559V13.7157C11.5286 13.7227 11.6007 13.7353 11.6715 13.7532V11.7657V11.761ZM10.7996 11.761V13.7625H10.5793V11.761H10.7996Z" fill="#D52B1E" stroke="#D52B1E" stroke-width="0.0375"/>
<path d="M14.0515 13.2576C14.043 13.313 14.0251 13.3665 13.9987 13.416C13.9627 13.4712 13.9747 13.4712 13.8955 13.56C13.8097 13.6447 13.7014 13.703 13.5835 13.728C13.4537 13.7622 13.3191 13.7752 13.1851 13.7664C13.0819 13.7616 13.0051 13.7496 12.9379 13.7424C12.8467 13.728 12.7771 13.7208 12.6739 13.7184C12.6244 13.716 12.5747 13.716 12.5251 13.7184C12.3754 13.7354 12.2281 13.7692 12.0859 13.8192V11.76H14.0587V13.164L14.0515 13.2552V13.2576Z" fill="#FEDF00"/>
<path d="M12.5895 11.928L12.5751 11.9328L12.5559 11.952C12.5463 11.9616 12.5391 11.964 12.5271 11.9712L12.5127 11.9832C12.5055 11.9904 12.5127 11.9976 12.5055 12.0072C12.5031 12.0168 12.4983 12.0216 12.4911 12.0312C12.4815 12.0408 12.4743 12.0432 12.4671 12.0552L12.4383 12.0792L12.4311 12.0816H12.4167C12.4071 12.0864 12.4047 12.096 12.3975 12.1008L12.4047 12.1152L12.4239 12.1488C12.4287 12.156 12.4287 12.1656 12.4359 12.168C12.4479 12.1728 12.4575 12.1728 12.4671 12.1704C12.4863 12.1752 12.4983 12.1752 12.5151 12.1824L12.5511 12.2016C12.5631 12.2088 12.5703 12.2112 12.5823 12.2136H12.6255V12.2208L12.6735 12.2448C12.6723 12.2479 12.6715 12.2511 12.6711 12.2544C12.6687 12.2616 12.6663 12.2712 12.6687 12.2736C12.6831 12.3192 12.6975 12.3456 12.7047 12.3504C12.7191 12.3552 12.7239 12.372 12.7311 12.3864L12.7239 12.3936C12.7095 12.408 12.6951 12.4176 12.6831 12.4368C12.6663 12.4656 12.6543 12.4656 12.6759 12.504L12.7119 12.5616C12.7215 12.5784 12.7263 12.5904 12.7311 12.6096C12.7359 12.6264 12.7383 12.6384 12.7383 12.6576L12.7623 12.6648L12.7791 12.6504L12.7935 12.6216V12.5976C12.7887 12.5952 12.7863 12.588 12.7887 12.5808C12.7887 12.5712 12.8007 12.5736 12.8055 12.5664C12.8127 12.5544 12.7959 12.5472 12.7887 12.54C12.7743 12.5232 12.7551 12.5184 12.7503 12.4944C12.7503 12.4896 12.7503 12.4848 12.7599 12.4776L12.8079 12.4344C12.8127 12.4368 12.8223 12.4392 12.8319 12.4368L12.8631 12.4464C12.8775 12.4512 12.8847 12.4464 12.8919 12.4464H12.9015L12.9039 12.4608C12.9063 12.4848 12.9015 12.5328 12.9087 12.5448L12.9159 12.5592L12.9207 12.5736V12.6216L12.9159 12.6624C12.9159 12.672 12.9111 12.6792 12.9039 12.6864C12.8991 12.696 12.8895 12.696 12.8799 12.7032V12.7272L12.9063 12.7392L12.9375 12.7464L12.9543 12.7392L12.9567 12.7248L12.9687 12.7128C12.9783 12.708 12.9879 12.7128 12.9903 12.7104C12.9951 12.7032 12.9903 12.7008 12.9903 12.6912C12.9903 12.6768 12.9855 12.6672 12.9831 12.6528C12.9796 12.6306 12.9788 12.608 12.9807 12.5856C12.9807 12.5712 12.9807 12.5616 12.9855 12.5496C12.9879 12.5256 12.9951 12.516 12.9999 12.4968C13.0071 12.4728 13.0071 12.4584 13.0095 12.4368C13.0904 12.449 13.173 12.4441 13.2519 12.4224C13.2711 12.4392 13.2927 12.4512 13.3167 12.4608V12.4848C13.3167 12.492 13.3167 12.4944 13.3215 12.5016L13.3287 12.5088C13.3359 12.5088 13.3407 12.5088 13.3455 12.504C13.3503 12.4992 13.3503 12.4944 13.3503 12.4872V12.4704H13.3935V12.4968C13.3959 12.504 13.4007 12.5064 13.4055 12.5064C13.4077 12.5075 13.4102 12.508 13.4127 12.508C13.4152 12.508 13.4176 12.5075 13.4199 12.5064C13.4271 12.5016 13.4247 12.492 13.4271 12.4824V12.4656L13.4511 12.456C13.4517 12.4632 13.4517 12.4704 13.4511 12.4776L13.4439 12.4992C13.4391 12.5136 13.4319 12.5184 13.4247 12.5328C13.4151 12.5472 13.4127 12.5568 13.4007 12.5688L13.3863 12.5856L13.3719 12.6072L13.3503 12.6312C13.3335 12.6456 13.3215 12.636 13.3023 12.6528L13.2951 12.6768L13.3287 12.6912L13.3599 12.696L13.3695 12.6912C13.3695 12.684 13.3695 12.6768 13.3767 12.672C13.3815 12.6648 13.3863 12.6648 13.3935 12.6624C13.4031 12.6624 13.4127 12.6624 13.4175 12.6576C13.4271 12.6504 13.4271 12.6336 13.4343 12.6216C13.4519 12.586 13.4764 12.5542 13.5063 12.528L13.5471 12.4944C13.5519 12.4848 13.5591 12.4824 13.5591 12.4704L13.5543 12.456L13.5495 12.432C13.5855 12.4488 13.5735 12.4488 13.5783 12.4656C13.5855 12.48 13.5783 12.4896 13.5807 12.5064C13.5831 12.5256 13.5927 12.5328 13.5927 12.552C13.5951 12.5736 13.5903 12.5856 13.5855 12.6072C13.5831 12.6264 13.5831 12.6384 13.5735 12.6552C13.5678 12.6692 13.5587 12.6816 13.5471 12.6912L13.5327 12.7032L13.5303 12.7272L13.5567 12.7368L13.5951 12.7464L13.6047 12.7392C13.6095 12.7224 13.6047 12.6984 13.6143 12.6984C13.6239 12.696 13.6311 12.6984 13.6335 12.6912V12.6744L13.6503 12.5664L13.6599 12.5208L13.6695 12.48C13.6863 12.432 13.6647 12.4248 13.6455 12.3936C13.6335 12.3768 13.6287 12.3696 13.6287 12.3576V12.288C13.6279 12.2656 13.6279 12.2432 13.6287 12.2208L13.6383 12.216C13.6671 12.1992 13.6791 12.1944 13.6959 12.156C13.701 12.1447 13.7034 12.1324 13.7031 12.12V12.096L13.6935 12.072C13.6897 12.0649 13.6848 12.0584 13.6791 12.0528C13.6623 12.0288 13.6383 12.0264 13.6143 12.0168C13.5783 12.0048 13.5543 12.0072 13.5183 12.0048C13.4751 12 13.4535 12 13.4127 12.0048C13.3647 12.0048 13.3383 12.0144 13.2903 12.0216L13.1727 12.0312C13.1175 12.0312 13.0671 12.0192 13.0335 12.0216C12.9759 12.0264 12.9735 12.0408 12.8847 12.048C12.8543 12.0505 12.8239 12.0521 12.7935 12.0528L12.7407 12.036C12.7623 12.0288 12.7671 12.024 12.7767 12.012C12.7839 12.0024 12.7815 11.9952 12.7911 11.9856L12.8079 11.9616C12.8015 11.9568 12.7941 11.9535 12.7863 11.952H12.7623C12.7523 11.9524 12.7425 11.9548 12.7335 11.9592L12.7143 11.9736L12.6615 11.9448C12.6389 11.9334 12.6146 11.9261 12.5895 11.9232V11.928Z" fill="#D52B1E"/>
<path d="M13.6499 12.2281L13.6307 12.2353C13.6091 12.2449 13.5923 12.2449 13.5683 12.2473C13.5059 12.2521 13.4651 12.2209 13.4003 12.2257C13.3667 12.2281 13.3523 12.2545 13.3163 12.2641C13.3029 12.267 13.2892 12.2686 13.2755 12.2689L13.2875 12.2449C13.2875 12.2449 13.2587 12.2521 13.2395 12.2521C13.2266 12.2519 13.2137 12.2503 13.2011 12.2473L13.2251 12.2233L13.1939 12.2185C13.1851 12.2142 13.177 12.2085 13.1699 12.2017C13.1836 12.1999 13.1972 12.1975 13.2107 12.1945C13.2467 12.1849 13.2587 12.1657 13.3043 12.1609C13.3307 12.1609 13.3763 12.1609 13.4867 12.1801C13.5587 12.1921 13.5923 12.1849 13.6187 12.1729C13.6379 12.1657 13.6427 12.1489 13.6451 12.1297C13.6475 12.1105 13.6355 12.0961 13.6259 12.0865C13.6235 12.0865 13.6139 12.0793 13.5995 12.0769" stroke="#FEDF00" stroke-width="0.064" stroke-linecap="round"/>
<path d="M12.5943 12.0145C12.5823 12.0145 12.5727 12.0145 12.5631 12.0217C12.5511 12.0289 12.5487 12.0385 12.5391 12.0481C12.5511 12.0505 12.5583 12.0577 12.5679 12.0553C12.5775 12.0553 12.5799 12.0505 12.5871 12.0433C12.5943 12.0337 12.5967 12.0265 12.5967 12.0145H12.5943Z" fill="#FCD900" stroke="#FEDF00" stroke-width="0.032"/>
<path d="M12.863 12.3313C12.8692 12.3504 12.8773 12.3689 12.887 12.3865C12.8918 12.4057 12.887 12.4153 12.8918 12.4345V12.4729M13.055 12.3049L13.0478 12.3361L13.0238 12.4201V12.4369M12.7598 12.3409C12.7814 12.3457 12.7742 12.4201 12.8054 12.4369" stroke="#FEDF00" stroke-width="0.064" stroke-linecap="round"/>
<path d="M13.4414 12.4753L13.451 12.4681C13.4753 12.4582 13.4973 12.4435 13.5158 12.4249" stroke="#FEDF00" stroke-width="0.064"/>
<path d="M13.2568 12.4321C13.3408 12.4105 13.3984 12.3697 13.4392 12.3625M13.3432 12.3265H13.3624C13.3984 12.3193 13.4032 12.3409 13.4272 12.3553C13.4728 12.3793 13.4776 12.4105 13.5304 12.4369L13.54 12.4393L13.5592 12.4489" stroke="#FEDF00" stroke-width="0.064" stroke-linecap="round"/>
<path d="M12.4238 12.1081H12.4406L12.4598 12.1033C12.467 12.1033 12.4718 12.1033 12.4766 12.1081C12.4814 12.1081 12.4814 12.1105 12.4838 12.1153C12.4838 12.1201 12.4886 12.1225 12.4862 12.1273C12.4862 12.1321 12.479 12.1369 12.4718 12.1369C12.467 12.1369 12.4622 12.1369 12.4598 12.1297C12.4592 12.1282 12.4588 12.1265 12.4588 12.1249C12.4588 12.1232 12.4592 12.1216 12.4598 12.1201C12.4565 12.1218 12.4528 12.1226 12.449 12.1226C12.4453 12.1226 12.4416 12.1218 12.4382 12.1201C12.4351 12.1191 12.4323 12.1176 12.4298 12.1155C12.4273 12.1135 12.4253 12.1109 12.4238 12.1081Z" fill="#FCD900" stroke="#FEDF00" stroke-width="0.032"/>
<path d="M12.6016 12.3409L12.5536 12.3193C12.5632 12.3145 12.5704 12.3145 12.5776 12.3073C12.5848 12.2977 12.5848 12.2881 12.5896 12.2761C12.5944 12.2641 12.5944 12.2521 12.6064 12.2425C12.6136 12.2377 12.6256 12.2377 12.6328 12.2401C12.6424 12.2401 12.652 12.2497 12.6544 12.2569C12.6544 12.2713 12.6496 12.2809 12.6472 12.2929C12.6472 12.3073 12.64 12.3145 12.6424 12.3265C12.6424 12.3361 12.6472 12.3409 12.652 12.3505L12.604 12.3409H12.6016ZM12.5776 12.3649C12.5772 12.3621 12.5776 12.3592 12.5788 12.3566C12.58 12.3541 12.5819 12.3519 12.5843 12.3504C12.5867 12.3489 12.5895 12.3482 12.5924 12.3483C12.5952 12.3484 12.5979 12.3493 12.6002 12.351C12.6025 12.3526 12.6043 12.3549 12.6053 12.3576C12.6063 12.3602 12.6065 12.3631 12.6059 12.3658C12.6053 12.3686 12.6039 12.3711 12.6018 12.3731C12.5998 12.375 12.5972 12.3764 12.5944 12.3769C12.5924 12.3772 12.5902 12.3771 12.5882 12.3765C12.5861 12.376 12.5843 12.375 12.5827 12.3736C12.5811 12.3722 12.5798 12.3705 12.5789 12.3686C12.578 12.3667 12.5776 12.3646 12.5776 12.3625V12.3649ZM12.5368 11.9665H12.532C12.5224 11.9569 12.5224 11.9473 12.5176 11.9377C12.5138 11.9285 12.5113 11.9188 12.5104 11.9089V11.8609C12.5104 11.8537 12.5104 11.8465 12.5056 11.8393C12.5056 11.8345 12.496 11.8321 12.4984 11.8297C12.4984 11.8273 12.5056 11.8297 12.508 11.8297C12.5176 11.8297 12.5224 11.8321 12.532 11.8393C12.5392 11.8465 12.544 11.8537 12.5464 11.8633L12.556 11.8993L12.5632 11.9185L12.5752 11.9329L12.5584 11.9521L12.5368 11.9665ZM12.6232 12.2209L12.676 12.2449C12.7122 12.2231 12.7413 12.1915 12.76 12.1537C12.7816 12.1105 12.784 12.0889 12.7936 12.0481L12.7504 12.0361H12.7408C12.7288 12.0793 12.724 12.1009 12.7024 12.1369C12.6832 12.1681 12.6616 12.1921 12.64 12.2089L12.6232 12.2209ZM12.7432 12.6577L12.7624 12.6265L12.796 12.6001H12.8056C12.8053 12.623 12.8013 12.6457 12.7936 12.6673L12.784 12.6913L12.772 12.7033C12.76 12.6841 12.7408 12.6721 12.7408 12.6553L12.7432 12.6577ZM13.5352 12.7009L13.5688 12.7153L13.6048 12.7369V12.7489L13.5688 12.7537C13.5584 12.7545 13.548 12.7545 13.5376 12.7537H13.5136L13.4992 12.7441C13.5112 12.7273 13.5184 12.7057 13.5328 12.7009H13.5352ZM13.3 12.6529L13.3336 12.6649L13.3696 12.6889C13.3696 12.6913 13.372 12.6961 13.3696 12.6985C13.3485 12.7041 13.3267 12.7066 13.3048 12.7057L13.2808 12.7033L13.264 12.6961C13.2784 12.6793 13.2856 12.6553 13.3 12.6529ZM12.8824 12.7033L12.9184 12.7153L12.9544 12.7393V12.7513C12.9324 12.7564 12.9097 12.758 12.8872 12.7561H12.8632L12.8488 12.7465C12.8608 12.7297 12.868 12.7081 12.8824 12.7033ZM12.6664 11.9881C12.652 11.9809 12.6424 11.9641 12.652 11.9497C12.6544 11.9449 12.6616 11.9449 12.6664 11.9401C12.6712 11.9329 12.6688 11.9281 12.6664 11.9209L12.664 11.8969L12.6592 11.8729C12.6592 11.8585 12.6592 11.8489 12.6688 11.8345C12.6736 11.8273 12.6856 11.8201 12.688 11.8201C12.6928 11.8225 12.688 11.8321 12.688 11.8393C12.688 11.8513 12.6904 11.8561 12.6952 11.8681L12.712 11.8993C12.7168 11.9137 12.7216 11.9185 12.7216 11.9329C12.7216 11.9449 12.7216 11.9497 12.7168 11.9617C12.7137 11.9692 12.7088 11.9758 12.7024 11.9809C12.6968 11.9855 12.6903 11.9888 12.6832 11.9905C12.6785 11.9918 12.6735 11.9918 12.6688 11.9905L12.6664 11.9881Z" fill="#0065BD"/>
<path d="M12.5895 11.928L12.5751 11.9328L12.5559 11.952C12.5463 11.9616 12.5391 11.964 12.5271 11.9712L12.5127 11.9832C12.5055 11.9904 12.5127 11.9976 12.5055 12.0072C12.5031 12.0168 12.4983 12.0216 12.4911 12.0312C12.4815 12.0408 12.4743 12.0432 12.4671 12.0552L12.4383 12.0792L12.4311 12.0816H12.4167C12.4071 12.0864 12.4047 12.096 12.3975 12.1008L12.4047 12.1152L12.4239 12.1488C12.4287 12.156 12.4287 12.1656 12.4359 12.168C12.4479 12.1728 12.4575 12.1728 12.4671 12.1704C12.4863 12.1752 12.4983 12.1752 12.5151 12.1824L12.5511 12.2016C12.5631 12.2088 12.5703 12.2112 12.5823 12.2136H12.6255V12.2208L12.6735 12.2448C12.6723 12.2479 12.6715 12.2511 12.6711 12.2544C12.6687 12.2616 12.6663 12.2712 12.6687 12.2736C12.6831 12.3192 12.6975 12.3456 12.7047 12.3504C12.7191 12.3552 12.7239 12.372 12.7311 12.3864L12.7239 12.3936C12.7095 12.408 12.6951 12.4176 12.6831 12.4368C12.6663 12.4656 12.6543 12.4656 12.6759 12.504L12.7119 12.5616C12.7215 12.5784 12.7263 12.5904 12.7311 12.6096C12.7359 12.6264 12.7383 12.6384 12.7383 12.6576L12.7623 12.6648L12.7791 12.6504L12.7935 12.6216V12.5976C12.7887 12.5952 12.7863 12.588 12.7887 12.5808C12.7887 12.5712 12.8007 12.5736 12.8055 12.5664C12.8127 12.5544 12.7959 12.5472 12.7887 12.54C12.7743 12.5232 12.7551 12.5184 12.7503 12.4944C12.7503 12.4896 12.7503 12.4848 12.7599 12.4776L12.8079 12.4344C12.8127 12.4368 12.8223 12.4392 12.8319 12.4368L12.8631 12.4464C12.8775 12.4512 12.8847 12.4464 12.8919 12.4464H12.9015L12.9039 12.4608C12.9063 12.4848 12.9015 12.5328 12.9087 12.5448L12.9159 12.5592L12.9207 12.5736V12.6216L12.9159 12.6624C12.9159 12.672 12.9111 12.6792 12.9039 12.6864C12.8991 12.696 12.8895 12.696 12.8799 12.7032V12.7272L12.9063 12.7392L12.9375 12.7464L12.9543 12.7392L12.9567 12.7248L12.9687 12.7128C12.9783 12.708 12.9879 12.7128 12.9903 12.7104C12.9951 12.7032 12.9903 12.7008 12.9903 12.6912C12.9903 12.6768 12.9855 12.6672 12.9831 12.6528C12.9796 12.6306 12.9788 12.608 12.9807 12.5856C12.9807 12.5712 12.9807 12.5616 12.9855 12.5496C12.9879 12.5256 12.9951 12.516 12.9999 12.4968C13.0071 12.4728 13.0071 12.4584 13.0095 12.4368C13.0904 12.449 13.173 12.4441 13.2519 12.4224C13.2711 12.4392 13.2927 12.4512 13.3167 12.4608V12.4848C13.3167 12.492 13.3167 12.4944 13.3215 12.5016L13.3287 12.5088C13.3359 12.5088 13.3407 12.5088 13.3455 12.504C13.3503 12.4992 13.3503 12.4944 13.3503 12.4872V12.4704H13.3935V12.4968C13.3959 12.504 13.4007 12.5064 13.4055 12.5064C13.4077 12.5075 13.4102 12.508 13.4127 12.508C13.4152 12.508 13.4176 12.5075 13.4199 12.5064C13.4271 12.5016 13.4247 12.492 13.4271 12.4824V12.4656L13.4511 12.456C13.4517 12.4632 13.4517 12.4704 13.4511 12.4776L13.4439 12.4992C13.4391 12.5136 13.4319 12.5184 13.4247 12.5328C13.4151 12.5472 13.4127 12.5568 13.4007 12.5688L13.3863 12.5856L13.3719 12.6072L13.3503 12.6312C13.3335 12.6456 13.3215 12.636 13.3023 12.6528L13.2951 12.6768L13.3287 12.6912L13.3599 12.696L13.3695 12.6912C13.3695 12.684 13.3695 12.6768 13.3767 12.672C13.3815 12.6648 13.3863 12.6648 13.3935 12.6624C13.4031 12.6624 13.4127 12.6624 13.4175 12.6576C13.4271 12.6504 13.4271 12.6336 13.4343 12.6216C13.4519 12.586 13.4764 12.5542 13.5063 12.528L13.5471 12.4944C13.5519 12.4848 13.5591 12.4824 13.5591 12.4704L13.5543 12.456L13.5495 12.432C13.5855 12.4488 13.5735 12.4488 13.5783 12.4656C13.5855 12.48 13.5783 12.4896 13.5807 12.5064C13.5831 12.5256 13.5927 12.5328 13.5927 12.552C13.5951 12.5736 13.5903 12.5856 13.5855 12.6072C13.5831 12.6264 13.5831 12.6384 13.5735 12.6552C13.5678 12.6692 13.5587 12.6816 13.5471 12.6912L13.5327 12.7032L13.5303 12.7272L13.5567 12.7368L13.5951 12.7464L13.6047 12.7392C13.6095 12.7224 13.6047 12.6984 13.6143 12.6984C13.6239 12.696 13.6311 12.6984 13.6335 12.6912V12.6744L13.6503 12.5664L13.6599 12.5208L13.6695 12.48C13.6863 12.432 13.6647 12.4248 13.6455 12.3936C13.6335 12.3768 13.6287 12.3696 13.6287 12.3576V12.288C13.6279 12.2656 13.6279 12.2432 13.6287 12.2208L13.6383 12.216C13.6671 12.1992 13.6791 12.1944 13.6959 12.156C13.701 12.1447 13.7034 12.1324 13.7031 12.12V12.096L13.6935 12.072C13.6897 12.0649 13.6848 12.0584 13.6791 12.0528C13.6623 12.0288 13.6383 12.0264 13.6143 12.0168C13.5783 12.0048 13.5543 12.0072 13.5183 12.0048C13.4751 12 13.4535 12 13.4127 12.0048C13.3647 12.0048 13.3383 12.0144 13.2903 12.0216L13.1727 12.0312C13.1175 12.0312 13.0671 12.0192 13.0335 12.0216C12.9759 12.0264 12.9735 12.0408 12.8847 12.048C12.8543 12.0505 12.8239 12.0521 12.7935 12.0528L12.7407 12.036C12.7623 12.0288 12.7671 12.024 12.7767 12.012C12.7839 12.0024 12.7815 11.9952 12.7911 11.9856L12.8079 11.9616C12.8015 11.9568 12.7941 11.9535 12.7863 11.952H12.7623C12.7523 11.9524 12.7425 11.9548 12.7335 11.9592L12.7143 11.9736L12.6615 11.9448C12.6389 11.9334 12.6146 11.9261 12.5895 11.9232V11.928Z" fill="#D52B1E"/>
<path d="M13.6499 12.2281L13.6307 12.2353C13.6091 12.2449 13.5923 12.2449 13.5683 12.2473C13.5059 12.2521 13.4651 12.2209 13.4003 12.2257C13.3667 12.2281 13.3523 12.2545 13.3163 12.2641C13.3029 12.267 13.2892 12.2686 13.2755 12.2689L13.2875 12.2449C13.2875 12.2449 13.2587 12.2521 13.2395 12.2521C13.2266 12.2519 13.2137 12.2503 13.2011 12.2473L13.2251 12.2233L13.1939 12.2185C13.1851 12.2142 13.177 12.2085 13.1699 12.2017C13.1836 12.1999 13.1972 12.1975 13.2107 12.1945C13.2467 12.1849 13.2587 12.1657 13.3043 12.1609C13.3307 12.1609 13.3763 12.1609 13.4867 12.1801C13.5587 12.1921 13.5923 12.1849 13.6187 12.1729C13.6379 12.1657 13.6427 12.1489 13.6451 12.1297C13.6475 12.1105 13.6355 12.0961 13.6259 12.0865C13.6235 12.0865 13.6139 12.0793 13.5995 12.0769" stroke="#FEDF00" stroke-width="0.064" stroke-linecap="round"/>
<path d="M12.5943 12.0145C12.5823 12.0145 12.5727 12.0145 12.5631 12.0217C12.5511 12.0289 12.5487 12.0385 12.5391 12.0481C12.5511 12.0505 12.5583 12.0577 12.5679 12.0553C12.5775 12.0553 12.5799 12.0505 12.5871 12.0433C12.5943 12.0337 12.5967 12.0265 12.5967 12.0145H12.5943Z" fill="#FCD900" stroke="#FEDF00" stroke-width="0.032"/>
<path d="M12.863 12.3313C12.8692 12.3504 12.8773 12.3689 12.887 12.3865C12.8918 12.4057 12.887 12.4153 12.8918 12.4345V12.4729M13.055 12.3049L13.0478 12.3361L13.0238 12.4201V12.4369M12.7598 12.3409C12.7814 12.3457 12.7742 12.4201 12.8054 12.4369" stroke="#FEDF00" stroke-width="0.064" stroke-linecap="round"/>
<path d="M13.4414 12.4753L13.451 12.4681C13.4753 12.4582 13.4973 12.4435 13.5158 12.4249" stroke="#FEDF00" stroke-width="0.064"/>
<path d="M13.2568 12.4321C13.3408 12.4105 13.3984 12.3697 13.4392 12.3625M13.3432 12.3265H13.3624C13.3984 12.3193 13.4032 12.3409 13.4272 12.3553C13.4728 12.3793 13.4776 12.4105 13.5304 12.4369L13.54 12.4393L13.5592 12.4489" stroke="#FEDF00" stroke-width="0.064" stroke-linecap="round"/>
<path d="M12.4238 12.1081H12.4406L12.4598 12.1033C12.467 12.1033 12.4718 12.1033 12.4766 12.1081C12.4814 12.1081 12.4814 12.1105 12.4838 12.1153C12.4838 12.1201 12.4886 12.1225 12.4862 12.1273C12.4862 12.1321 12.479 12.1369 12.4718 12.1369C12.467 12.1369 12.4622 12.1369 12.4598 12.1297C12.4592 12.1282 12.4588 12.1265 12.4588 12.1249C12.4588 12.1232 12.4592 12.1216 12.4598 12.1201C12.4565 12.1218 12.4528 12.1226 12.449 12.1226C12.4453 12.1226 12.4416 12.1218 12.4382 12.1201C12.4351 12.1191 12.4323 12.1176 12.4298 12.1155C12.4273 12.1135 12.4253 12.1109 12.4238 12.1081Z" fill="#FCD900" stroke="#FEDF00" stroke-width="0.032"/>
<path d="M12.6016 12.3409L12.5536 12.3193C12.5632 12.3145 12.5704 12.3145 12.5776 12.3073C12.5848 12.2977 12.5848 12.2881 12.5896 12.2761C12.5944 12.2641 12.5944 12.2521 12.6064 12.2425C12.6136 12.2377 12.6256 12.2377 12.6328 12.2401C12.6424 12.2401 12.652 12.2497 12.6544 12.2569C12.6544 12.2713 12.6496 12.2809 12.6472 12.2929C12.6472 12.3073 12.64 12.3145 12.6424 12.3265C12.6424 12.3361 12.6472 12.3409 12.652 12.3505L12.604 12.3409H12.6016ZM12.5776 12.3649C12.5772 12.3621 12.5776 12.3592 12.5788 12.3566C12.58 12.3541 12.5819 12.3519 12.5843 12.3504C12.5867 12.3489 12.5895 12.3482 12.5924 12.3483C12.5952 12.3484 12.5979 12.3493 12.6002 12.351C12.6025 12.3526 12.6043 12.3549 12.6053 12.3576C12.6063 12.3602 12.6065 12.3631 12.6059 12.3658C12.6053 12.3686 12.6039 12.3711 12.6018 12.3731C12.5998 12.375 12.5972 12.3764 12.5944 12.3769C12.5924 12.3772 12.5902 12.3771 12.5882 12.3765C12.5861 12.376 12.5843 12.375 12.5827 12.3736C12.5811 12.3722 12.5798 12.3705 12.5789 12.3686C12.578 12.3667 12.5776 12.3646 12.5776 12.3625V12.3649ZM12.5368 11.9665H12.532C12.5224 11.9569 12.5224 11.9473 12.5176 11.9377C12.5138 11.9285 12.5113 11.9188 12.5104 11.9089V11.8609C12.5104 11.8537 12.5104 11.8465 12.5056 11.8393C12.5056 11.8345 12.496 11.8321 12.4984 11.8297C12.4984 11.8273 12.5056 11.8297 12.508 11.8297C12.5176 11.8297 12.5224 11.8321 12.532 11.8393C12.5392 11.8465 12.544 11.8537 12.5464 11.8633L12.556 11.8993L12.5632 11.9185L12.5752 11.9329L12.5584 11.9521L12.5368 11.9665ZM12.6232 12.2209L12.676 12.2449C12.7122 12.2231 12.7413 12.1915 12.76 12.1537C12.7816 12.1105 12.784 12.0889 12.7936 12.0481L12.7504 12.0361H12.7408C12.7288 12.0793 12.724 12.1009 12.7024 12.1369C12.6832 12.1681 12.6616 12.1921 12.64 12.2089L12.6232 12.2209ZM12.7432 12.6577L12.7624 12.6265L12.796 12.6001H12.8056C12.8053 12.623 12.8013 12.6457 12.7936 12.6673L12.784 12.6913L12.772 12.7033C12.76 12.6841 12.7408 12.6721 12.7408 12.6553L12.7432 12.6577ZM13.5352 12.7009L13.5688 12.7153L13.6048 12.7369V12.7489L13.5688 12.7537C13.5584 12.7545 13.548 12.7545 13.5376 12.7537H13.5136L13.4992 12.7441C13.5112 12.7273 13.5184 12.7057 13.5328 12.7009H13.5352ZM13.3 12.6529L13.3336 12.6649L13.3696 12.6889C13.3696 12.6913 13.372 12.6961 13.3696 12.6985C13.3485 12.7041 13.3267 12.7066 13.3048 12.7057L13.2808 12.7033L13.264 12.6961C13.2784 12.6793 13.2856 12.6553 13.3 12.6529ZM12.8824 12.7033L12.9184 12.7153L12.9544 12.7393V12.7513C12.9324 12.7564 12.9097 12.758 12.8872 12.7561H12.8632L12.8488 12.7465C12.8608 12.7297 12.868 12.7081 12.8824 12.7033ZM12.6664 11.9881C12.652 11.9809 12.6424 11.9641 12.652 11.9497C12.6544 11.9449 12.6616 11.9449 12.6664 11.9401C12.6712 11.9329 12.6688 11.9281 12.6664 11.9209L12.664 11.8969L12.6592 11.8729C12.6592 11.8585 12.6592 11.8489 12.6688 11.8345C12.6736 11.8273 12.6856 11.8201 12.688 11.8201C12.6928 11.8225 12.688 11.8321 12.688 11.8393C12.688 11.8513 12.6904 11.8561 12.6952 11.8681L12.712 11.8993C12.7168 11.9137 12.7216 11.9185 12.7216 11.9329C12.7216 11.9449 12.7216 11.9497 12.7168 11.9617C12.7137 11.9692 12.7088 11.9758 12.7024 11.9809C12.6968 11.9855 12.6903 11.9888 12.6832 11.9905C12.6785 11.9918 12.6735 11.9918 12.6688 11.9905L12.6664 11.9881Z" fill="#0065BD"/>
<path d="M9.9043 9.5813H11.873V11.55H9.9043V9.5813ZM12.084 9.5813H14.0621V11.55H12.0934L12.084 9.5813ZM9.90898 13.2563C9.91836 13.2938 9.92773 13.35 9.96055 13.4157C9.99805 13.4719 9.98398 13.4719 10.0637 13.5563C10.1505 13.6409 10.2593 13.6993 10.3777 13.725C10.5371 13.7719 10.6449 13.7719 10.7762 13.7672C10.8793 13.7625 10.959 13.7485 11.0246 13.7391C11.1184 13.7297 11.184 13.7204 11.2918 13.7157C11.3402 13.7134 11.3887 13.7134 11.4371 13.7157C11.4934 13.7157 11.5496 13.7297 11.6105 13.7391C11.7418 13.7672 11.873 13.8188 11.873 13.8188V11.761H9.9043V13.1672L9.90898 13.261V13.2563ZM14.0527 13.2563C14.048 13.2938 14.034 13.35 14.0012 13.4157C13.9637 13.4719 13.9777 13.4719 13.898 13.5563C13.8112 13.6409 13.7024 13.6993 13.584 13.725C13.4544 13.7609 13.3198 13.7752 13.1855 13.7672C13.0824 13.7625 13.0027 13.7485 12.9371 13.7391C12.8501 13.7269 12.7624 13.7191 12.6746 13.7157C12.6246 13.7132 12.5746 13.7132 12.5246 13.7157C12.4684 13.7157 12.4121 13.7297 12.3512 13.7391C12.2199 13.7672 12.084 13.8188 12.084 13.8188V11.761H14.0621V13.1672L14.0574 13.261L14.0527 13.2563Z" stroke="#703D29" stroke-width="0.05"/>
</g>
<defs>
<clipPath id="clip0_208_9939">
<rect width="24" height="24" rx="12" fill="white"/>
</clipPath>
</defs>
</svg>
