<svg width="24" height="24" viewBox="0 0 24 24" fill="none" xmlns="http://www.w3.org/2000/svg">
<g clip-path="url(#clip0_208_24909)">
<path fill-rule="evenodd" clip-rule="evenodd" d="M0 0H24V24H0V0Z" fill="#CE1126"/>
<path fill-rule="evenodd" clip-rule="evenodd" d="M0 0H12V12H0V0Z" fill="#002B7F"/>
<path fill-rule="evenodd" clip-rule="evenodd" d="M6.89062 10.8469L5.97188 10.2235L5.08594 10.8563L5.36719 9.75474L4.52344 9.06567L5.61094 9.00474L5.97188 7.95474L6.37031 9.02349L7.43906 9.04692L6.58594 9.77349L6.89062 10.8469ZM6.73125 3.49692L6 3.02817L5.27812 3.49692L5.475 2.6063L4.83281 2.03911L5.69063 1.96411L6.00937 1.1438L6.34219 1.97349L7.18594 2.03911L6.52969 2.62505L6.73125 3.49692ZM3.48281 6.14067L2.77031 5.63442L2.04844 6.12192L2.26406 5.26411L1.59375 4.69692L2.44688 4.65942L2.76094 3.81099L3.07031 4.64536L3.92813 4.69692L3.25781 5.25942L3.48281 6.14067ZM9.99844 5.54536L9.30938 5.10005L8.63906 5.55474L8.82656 4.73911L8.21719 4.21411L9.02813 4.14849L9.30938 3.37974L9.61875 4.15786L10.4062 4.20474L9.7875 4.74849L9.99844 5.54536ZM8.07187 7.4813L7.61719 7.19067L7.16719 7.4813L7.28437 6.93755L6.87656 6.57661L7.41094 6.52974L7.61719 6.01411L7.82812 6.52974L8.35312 6.57661L7.95469 6.93755L8.07187 7.4813Z" fill="white"/>
</g>
<defs>
<clipPath id="clip0_208_24909">
<rect width="24" height="24" rx="12" fill="white"/>
</clipPath>
</defs>
</svg>
