<svg width="24" height="24" viewBox="0 0 24 24" fill="none" xmlns="http://www.w3.org/2000/svg">
<g clip-path="url(#clip0_208_22491)">
<mask id="mask0_208_22491" style="mask-type:luminance" maskUnits="userSpaceOnUse" x="0" y="0" width="25" height="25">
<path d="M0.00195312 0H24.0033V24.0013H0.00195312V0Z" fill="white"/>
</mask>
<g mask="url(#mask0_208_22491)">
<path fill-rule="evenodd" clip-rule="evenodd" d="M-6.08398 0H29.9163V24.0013H-6.08398V0Z" fill="#F41408"/>
<path fill-rule="evenodd" clip-rule="evenodd" d="M-6.08398 15.9987H29.9163V24.0014H-6.08398V15.9987Z" fill="#21873B"/>
<path fill-rule="evenodd" clip-rule="evenodd" d="M-6.08398 0H29.9163V7.99932H-6.08398V0Z" fill="black"/>
<path fill-rule="evenodd" clip-rule="evenodd" d="M7.51025 7.24745C8.01286 6.02371 8.98098 5.04973 10.2017 4.53973C11.4224 4.02974 12.7956 4.0255 14.0194 4.52795C14.6348 4.77013 15.1936 5.13664 15.661 5.60456C16.1283 6.07248 16.4941 6.63176 16.7355 7.24745H7.51025ZM6.29105 7.57935C5.4623 7.5159 4.64071 7.37991 3.83571 7.17295C3.64606 7.10521 3.6359 6.99007 3.6596 6.90201C3.67904 6.84464 3.71969 6.79689 3.77322 6.76855C3.82675 6.74021 3.8891 6.73343 3.94747 6.74961C4.21502 6.81735 5.29875 7.10521 6.29443 7.57935H6.29105ZM12.1364 3.13603C11.94 2.0523 11.8892 0.856803 11.9095 0.656989C11.9265 0.453789 12.0382 0.419922 12.1297 0.419922C12.1896 0.424211 12.2456 0.451069 12.2865 0.495071C12.3273 0.539073 12.35 0.596942 12.3498 0.656989C12.3498 0.934696 12.343 2.05568 12.1364 3.13603ZM12.6783 3.16313C12.6011 2.33429 12.5954 1.50034 12.6614 0.670536C12.6986 0.470722 12.8104 0.443629 12.9018 0.453789C12.9933 0.460562 13.1152 0.565549 13.1016 0.711176C13.0779 0.982109 12.9763 2.09971 12.6783 3.16313ZM13.166 3.23086C13.1524 2.1268 13.3015 0.941469 13.359 0.745042C13.4098 0.548615 13.525 0.531682 13.6164 0.548615C13.6746 0.563134 13.7251 0.599157 13.7578 0.649429C13.7905 0.699702 13.8029 0.76049 13.7925 0.819549C13.7451 1.09048 13.5521 2.19454 13.166 3.22747V3.23086ZM13.6842 3.34262C13.7688 2.24534 14.0228 1.07694 14.0906 0.887283C14.1583 0.697629 14.2768 0.690856 14.3649 0.714562C14.4215 0.733978 14.4687 0.774098 14.497 0.826866C14.5252 0.879634 14.5325 0.941144 14.5173 0.999043C14.4462 1.26659 14.1583 2.35032 13.6842 3.34262ZM14.1922 3.50518C14.3281 2.6849 14.5355 1.87806 14.8119 1.09387C14.9 0.910989 15.0151 0.914376 15.1032 0.944856C15.1587 0.96948 15.2026 1.01448 15.226 1.07056C15.2493 1.12665 15.2502 1.18954 15.2285 1.24627C15.1336 1.50366 14.7476 2.55691 14.1888 3.50518H14.1922ZM14.6663 3.70499C14.9372 2.63481 15.391 1.53075 15.496 1.35464C15.5976 1.17854 15.7128 1.19208 15.794 1.23272C15.8462 1.2615 15.8855 1.30882 15.9044 1.36529C15.9232 1.42176 15.9201 1.48324 15.8956 1.53752C15.7771 1.79152 15.3064 2.80753 14.6663 3.70499ZM15.1336 3.94883C15.4117 3.16458 15.7561 2.40547 16.1632 1.67976C16.2783 1.51382 16.3935 1.53752 16.4748 1.58494C16.5237 1.61925 16.5578 1.67075 16.5704 1.72914C16.5829 1.78754 16.573 1.84852 16.5425 1.8999C16.407 2.13696 15.8482 3.10894 15.1336 3.94883ZM15.5739 4.22993C15.9184 3.47298 16.3286 2.74771 16.7999 2.06246C16.9286 1.90667 17.0403 1.94054 17.1149 1.99472C17.1608 2.03256 17.1909 2.08632 17.199 2.1453C17.2072 2.20428 17.1929 2.26418 17.1589 2.31307C16.9997 2.53998 16.3596 3.45777 15.5739 4.22993ZM15.9871 4.55166C16.529 3.58985 17.2537 2.64158 17.3993 2.49595C17.5416 2.35371 17.6499 2.39435 17.7211 2.45531C17.7888 2.51627 17.8294 2.66867 17.7346 2.78043C17.5585 2.99041 16.8405 3.85062 15.9871 4.55166ZM16.3766 4.90726C16.847 4.22146 17.3762 3.57783 17.9581 2.98363C18.1139 2.85494 18.2189 2.90574 18.2833 2.97009C18.3229 3.01577 18.3436 3.07489 18.3411 3.13534C18.3385 3.19578 18.313 3.25297 18.2697 3.29521C17.6871 3.88825 17.0523 4.42777 16.3732 4.90726H16.3766ZM16.7288 5.29673C17.4298 4.44667 18.3103 3.63726 18.4763 3.52211C18.6456 3.40697 18.7405 3.46793 18.8014 3.53566C18.8368 3.58442 18.8523 3.64481 18.8447 3.70456C18.8372 3.76432 18.8071 3.81896 18.7608 3.85739C18.1267 4.39545 17.4467 4.87706 16.7288 5.29673ZM17.0336 5.69636C17.6149 5.10048 18.2473 4.55655 18.9233 4.07075C19.0994 3.96915 19.1943 4.04027 19.2451 4.11817C19.2993 4.19267 19.2993 4.34846 19.1773 4.43313C18.5025 4.91645 17.7862 5.33917 17.037 5.69636H17.0336ZM17.3113 6.12985C17.9415 5.58645 18.618 5.09917 19.3331 4.67358C19.516 4.58891 19.6041 4.66681 19.6515 4.7447C19.6955 4.8226 19.6853 4.98177 19.5566 5.05628C19.3196 5.19174 18.351 5.7607 17.3113 6.12985ZM17.5687 6.62431C18.2471 6.14288 18.9654 5.72027 19.7158 5.36108C19.9055 5.29334 19.9867 5.37801 20.024 5.46268C20.0449 5.51858 20.044 5.58032 20.0214 5.63557C19.9988 5.69081 19.9562 5.7355 19.9021 5.7607C19.1511 6.11651 18.3703 6.4055 17.5687 6.62431ZM17.7651 7.10183C18.4802 6.67796 19.2316 6.31868 20.0105 6.02825C20.2069 5.97745 20.2814 6.06889 20.3119 6.15356C20.3457 6.23822 20.3017 6.39062 20.1629 6.44142C19.3848 6.73236 18.5824 6.95336 17.7651 7.10183ZM17.9209 7.60983C18.6728 7.25085 19.4547 6.95848 20.2577 6.73606C20.4541 6.7022 20.5185 6.79702 20.5422 6.88846C20.5528 6.94661 20.5413 7.00662 20.51 7.05674C20.4787 7.10686 20.4297 7.14348 20.3728 7.1594C20.1019 7.23391 19.0215 7.52177 17.9209 7.60644V7.60983ZM11.6081 3.15297C11.385 2.35388 11.232 1.53685 11.1509 0.711176C11.1509 0.507975 11.2559 0.463949 11.3473 0.453789C11.408 0.452768 11.4667 0.475019 11.5114 0.515965C11.5561 0.556911 11.5835 0.613439 11.5878 0.673922C11.6149 0.944856 11.7131 2.06246 11.6081 3.15974V3.15297ZM11.0866 3.2207C10.7944 2.44254 10.5711 1.6402 10.4194 0.822936C10.4025 0.619735 10.5041 0.565549 10.5921 0.548615C10.6525 0.541708 10.7132 0.558236 10.7617 0.594787C10.8102 0.631338 10.8429 0.685124 10.8529 0.745042C10.9003 1.01598 11.0967 2.12003 11.0866 3.2207ZM10.5684 3.33585C10.2085 2.58511 9.91504 1.80433 9.69127 1.00243C9.6574 0.802616 9.75561 0.738269 9.84367 0.714562C9.90226 0.704078 9.96266 0.716022 10.0129 0.748022C10.0631 0.780022 10.0994 0.829735 10.1146 0.887283C10.1891 1.15483 10.4804 2.23518 10.5684 3.33585ZM10.0807 3.48825C9.659 2.77136 9.30091 2.0189 9.01055 1.2395C8.95975 1.04307 9.05119 0.968563 9.13585 0.938083C9.19379 0.92173 9.25577 0.928029 9.30923 0.955703C9.36269 0.983376 9.40362 1.03035 9.42372 1.0871C9.51855 1.34787 9.90124 2.39774 10.0807 3.48825ZM9.6066 3.68129C9.12368 3.00499 8.70098 2.28766 8.34337 1.53752C8.27564 1.34448 8.35692 1.26659 8.44158 1.22934C8.4979 1.20741 8.56046 1.20782 8.61649 1.23048C8.67251 1.25314 8.71776 1.29635 8.743 1.35126C8.85814 1.60187 9.32889 2.61787 9.60321 3.68806L9.6066 3.68129ZM9.12569 3.9319C8.58408 3.29943 8.09905 2.62061 7.6762 1.90328C7.59153 1.7204 7.66604 1.63235 7.74393 1.58832C7.79815 1.56134 7.86064 1.55613 7.91858 1.57376C7.97652 1.5914 8.02551 1.63054 8.0555 1.68315C8.19436 1.92022 8.75655 2.89219 9.12569 3.9319ZM8.68542 4.20961C8.09159 3.6258 7.54992 2.99121 7.06659 2.31307C6.96499 2.13696 7.03273 2.04214 7.11062 1.99134C7.16271 1.96144 7.224 1.95182 7.28275 1.96432C7.3415 1.97682 7.39356 2.01056 7.42897 2.05907C7.58814 2.28598 8.22822 3.20377 8.68542 4.20961ZM8.27564 4.51441C7.63406 3.985 7.04024 3.40024 6.50102 2.76689C6.38587 2.60094 6.44683 2.50272 6.51795 2.44515C6.56671 2.40979 6.6271 2.39431 6.68686 2.40185C6.74661 2.4094 6.80126 2.43941 6.83969 2.48579C7.0158 2.69577 7.73377 3.55598 8.27564 4.51779V4.51441ZM7.87601 4.87678C7.18982 4.40554 6.54616 3.8752 5.95238 3.29182C5.82369 3.13603 5.87449 3.03105 5.93883 2.9667C5.98452 2.92705 6.04364 2.90636 6.10408 2.90888C6.16453 2.9114 6.22172 2.93693 6.26395 2.98025C6.46038 3.17667 7.25286 3.96577 7.87601 4.87678ZM7.53057 5.24593C6.80761 4.83472 6.12201 4.36104 5.48163 3.8303C5.33939 3.68806 5.38342 3.57969 5.44438 3.50857C5.48645 3.46622 5.54295 3.4413 5.60259 3.43878C5.66224 3.43627 5.72063 3.45636 5.76611 3.49502C5.97947 3.67113 6.83291 4.39249 7.53057 5.24593ZM7.20206 5.66926C6.44511 5.32345 5.71986 4.9121 5.03459 4.4399C4.8788 4.30782 4.91267 4.19606 4.96686 4.12155C5.00481 4.07465 5.05923 4.04398 5.119 4.0358C5.17878 4.02762 5.23943 4.04255 5.28859 4.07753C5.97139 4.55159 6.61163 5.08418 7.20206 5.66926ZM6.90742 6.12308C6.12255 5.84794 5.36329 5.50457 4.63835 5.09692C4.46902 4.97838 4.49273 4.86662 4.54014 4.78534C4.57394 4.73589 4.62521 4.70107 4.68364 4.68787C4.74207 4.67468 4.80333 4.68409 4.8551 4.71422C5.09555 4.84969 6.06753 5.40849 6.90742 6.12308ZM6.66019 6.58705C5.59339 6.31612 4.48595 5.8623 4.30984 5.7607C4.13712 5.6591 4.14728 5.54396 4.18792 5.46268C4.21733 5.41032 4.26526 5.37085 4.3223 5.35205C4.37933 5.33325 4.44133 5.33647 4.49611 5.36108C4.74672 5.47622 5.76273 5.95036 6.66358 6.58705H6.66019ZM6.46377 7.05441C5.64293 6.91626 4.83599 6.70545 4.05246 6.42449C3.86958 6.33982 3.87296 6.22129 3.90344 6.13662C3.93731 6.05196 4.066 5.96052 4.20486 6.01132C4.46224 6.10614 5.5155 6.49222 6.46377 7.05441Z" fill="#F31509"/>
<path fill-rule="evenodd" clip-rule="evenodd" d="M6.29443 7.57932C5.19377 7.49465 4.02536 7.24404 3.83571 7.17292C3.64606 7.10518 3.6359 6.99004 3.6596 6.90198C3.67904 6.84461 3.71969 6.79686 3.77322 6.76852C3.82675 6.74018 3.8891 6.7334 3.94747 6.74958C4.21502 6.81732 5.29875 7.10518 6.29443 7.57932Z" fill="#F31509"/>
<path fill-rule="evenodd" clip-rule="evenodd" d="M3.23926 7.27124H21.1107V7.92487H3.23926V7.27124Z" fill="black"/>
</g>
</g>
<defs>
<clipPath id="clip0_208_22491">
<rect width="24" height="24" rx="12" fill="white"/>
</clipPath>
</defs>
</svg>
