<svg width="56" height="74" viewBox="0 0 56 74" fill="none" xmlns="http://www.w3.org/2000/svg">
<g clip-path="url(#clip0_937_1609)">
<path d="M38.8076 50.3071C39.1438 50.3105 39.4732 50.3508 39.8463 50.3475C39.4732 50.3475 39.1438 50.3105 38.8076 50.3071Z" fill="url(#paint0_linear_937_1609)"/>
<path d="M41.665 51.1273C41.8062 51.087 41.9407 51.0433 42.0684 50.9895C41.9407 51.0433 41.8062 51.0903 41.665 51.1273Z" fill="url(#paint1_linear_937_1609)"/>
<path d="M50.4689 46.9289L50.5126 46.8246L50.5193 46.8112L50.5261 46.7978C50.7446 46.2902 50.9631 45.7523 51.1984 45.154C51.4404 44.5254 51.6488 43.9606 51.8371 43.4329C54.7179 35.2981 55.3229 28.0675 55.3263 23.4353V4.55379C46.3713 1.95199 37.1036 0.634277 27.7822 0.634277H27.7385C18.4137 0.634277 9.14601 1.95199 0.194336 4.55379V23.432C0.197697 28.0641 0.802768 35.2947 3.68357 43.4262C3.87182 43.9573 4.08023 44.522 4.32562 45.1573C4.55756 45.7523 4.77942 46.2902 4.99456 46.7944L5.00128 46.8078L5.008 46.8213L5.0517 46.9255C8.96785 56.0789 15.0656 63.8372 23.1735 69.9753C24.2022 70.7484 25.2812 71.5149 26.3804 72.2443L26.3972 72.2544L27.762 73.1082L29.1268 72.2544L29.1436 72.2443C30.2428 71.5149 31.3218 70.7518 32.3538 69.9753C40.455 63.8372 46.5528 56.0822 50.4689 46.9289Z" fill="url(#paint2_linear_937_1609)"/>
<path d="M33.8927 38.1014L31.59 35.466C28.363 35.2441 25.4822 33.755 23.4384 31.4927C22.7157 32.0036 22.2249 32.6658 22.2249 32.6658L16.6011 32.5179L16.5003 34.75C16.5003 34.75 15.6733 34.7029 14.8027 34.75C13.9287 34.8038 13.8816 36.0139 13.8816 36.0139C13.8816 36.0139 13.2026 35.9668 12.4765 36.1584C11.7505 36.3534 11.8479 37.4694 11.8479 37.4694C11.8479 37.4694 9.95542 37.5198 9.32346 38.2459C8.69149 38.9754 8.59737 40.478 9.22933 41.352C9.85793 42.2259 13.448 47.3657 14.3691 49.4061C15.2531 51.3625 15.4246 57.8536 15.438 58.3948C18.1911 61.7798 21.3711 64.8556 24.9813 67.5885C25.8721 68.2608 26.8066 68.923 27.7613 69.565C28.7159 68.923 29.6504 68.2574 30.548 67.5851C31.2404 67.0607 31.9094 66.5195 32.5716 65.9716L23.3611 55.3425L23.3678 55.3358L23.9426 54.8383L24.1275 54.8282C24.1813 54.8248 24.2452 54.8215 24.309 54.8215C24.4637 54.8215 24.6116 54.8316 24.7695 54.8417C24.9477 54.8517 25.1326 54.8618 25.3276 54.8618H25.3477C25.8788 54.8618 26.6116 54.798 27.5596 54.2971C27.9092 54.1088 28.1647 53.8399 28.3395 53.4769C28.4974 53.1508 28.5781 52.7542 28.5748 52.3541C28.5781 51.9306 28.4773 51.5373 28.3731 51.3356C28.2151 51.0095 27.8554 50.7205 27.3646 50.5221C26.8705 50.3204 26.3831 50.2599 26.3293 50.2532C26.2856 50.2465 26.2688 50.2431 26.2688 50.2431H26.2385L25.704 50.149L25.7007 50.1456L23.9426 48.1859L23.9493 48.1792L24.746 47.4901L24.7527 47.4968L24.7595 47.5069L24.7628 47.5035L26.1881 49.1103C26.6654 49.1674 27.089 49.2481 27.5865 49.4397L25.3746 46.9455L26.0637 46.3471L26.0704 46.3539L26.0772 46.3639L26.0805 46.3606L38.4441 60.3209C38.629 60.1125 38.8072 59.9041 38.9887 59.6923L26.6957 45.8026L26.7024 45.7959L27.3848 45.2042L27.3915 45.211L27.3982 45.221L27.4016 45.2177L28.3327 46.2665L39.5971 58.9864C39.7786 58.7712 39.9501 58.5527 40.1282 58.3342L28.0168 44.6563L28.279 44.4311H28.2857C28.289 44.4311 28.6084 44.5218 29.1126 44.5588H29.116L29.1193 44.5622L29.1261 44.5689H29.1294L40.6963 57.6283C40.8711 57.4065 41.0392 57.1813 41.2073 56.956L30.2253 44.5521L30.2454 44.5487C30.5849 44.5218 30.9312 44.4613 31.2808 44.3706H31.2875L31.2909 44.3739L31.2976 44.3807H31.3009L31.8959 45.053L41.772 56.2031C41.9401 55.9745 42.1014 55.7392 42.2662 55.5072L32.138 44.068L32.1514 44.0613C32.4203 43.9168 32.6489 43.7218 32.8237 43.4831L32.8304 43.4731L32.8405 43.4831L32.8472 43.4932C32.8472 43.4932 32.8472 43.4932 32.8506 43.4899L33.691 44.4378L42.8074 54.7307C42.9687 54.4954 43.1233 54.2534 43.2813 54.0147L33.217 42.6495V42.6428C33.3447 42.1486 33.3447 41.6747 33.3212 41.3587L33.3178 41.3284L33.338 41.352L33.3481 41.362V41.3587L43.8192 53.1811C43.9738 52.9357 44.1251 52.6903 44.273 52.4415L32.7598 39.4393V38.0577L32.78 38.0779L32.7901 38.0879V38.0846L35.0389 40.6225L44.1923 50.9558L44.7705 51.6079C44.9184 51.3558 45.0629 51.1003 45.2041 50.8448L33.8927 38.1014Z" fill="white"/>
<path d="M26.1888 55.9072C26.1249 55.9173 26.061 55.9274 25.9971 55.9341L25.9568 55.9375C25.9366 55.9408 25.9165 55.9408 25.8963 55.9442C25.8627 55.9476 25.8257 55.9543 25.7921 55.9543C25.7383 55.9576 25.6812 55.961 25.6274 55.961H25.6072C25.5938 55.961 25.5837 55.961 25.5736 55.9644C25.5501 55.9644 25.5265 55.9644 25.503 55.9677C25.4929 55.9677 25.4795 55.9677 25.4694 55.9677H25.466C25.3618 55.9677 25.2509 55.961 25.1299 55.9509L33.3656 65.2959C33.574 65.1144 33.779 64.9295 33.9841 64.748L26.1888 55.9072Z" fill="white"/>
<path d="M29.2542 54.1123C29.1298 54.3476 28.9618 54.5762 28.75 54.7913L35.9335 62.943C36.1319 62.748 36.3235 62.5497 36.5184 62.3547L29.2542 54.1123Z" fill="white"/>
<path d="M29.5907 51.7053C29.6142 51.8734 29.631 52.0448 29.6344 52.223C29.6378 52.4751 29.621 52.7171 29.584 52.9491L37.2549 61.6117C37.4465 61.41 37.6348 61.2049 37.823 60.9999L29.5907 51.7053Z" fill="white"/>
<path d="M27.9975 55.3188C27.9639 55.339 27.9269 55.3558 27.8933 55.3726L27.8395 55.3995C27.7958 55.4197 27.7521 55.4399 27.7118 55.46H27.7084C27.7017 55.4634 27.6916 55.4668 27.6815 55.4701C27.6647 55.4768 27.6479 55.4869 27.6277 55.4936H27.6244C27.621 55.497 27.6143 55.497 27.6109 55.5004C27.6076 55.5004 27.6009 55.5037 27.5975 55.5071C27.5908 55.5105 27.5874 55.5105 27.5807 55.5138C27.5773 55.5138 27.5706 55.5172 27.5672 55.5172C27.4328 55.571 27.3084 55.6113 27.1807 55.6483L34.6634 64.1394C34.8684 63.9512 35.0634 63.7596 35.2651 63.5713L27.9975 55.3188Z" fill="white"/>
<path d="M55.3229 4.55037C46.3713 1.94857 37.1036 0.630859 27.7822 0.630859H27.7385C18.4137 0.630859 9.14601 1.94857 0.194336 4.55037V23.4286C0.197697 28.0607 0.802768 35.2913 3.68357 43.4227C3.87182 43.9539 4.08023 44.5186 4.32562 45.1539C4.55756 45.7489 4.77942 46.2867 4.99456 46.791L5.00128 46.8044L5.008 46.8179L5.0517 46.9221C8.96785 56.0754 15.0656 63.8338 23.1735 69.9719C24.2022 70.745 25.2812 71.5114 26.3804 72.2409L26.3972 72.251L27.762 73.1048L29.1268 72.251L29.1436 72.2409C30.2428 71.5114 31.3218 70.7484 32.3538 69.9719C40.4617 63.8338 46.5561 56.0788 50.4723 46.9254L50.516 46.8212L50.5227 46.8078L50.5294 46.7943C50.7479 46.2868 50.9664 45.7489 51.2017 45.1506C51.4438 44.522 51.6522 43.9572 51.8404 43.4295C54.7212 35.2946 55.3263 28.0641 55.3296 23.4319L55.3229 4.55037ZM33.3623 65.3027L25.1266 55.9578C25.251 55.9679 25.3619 55.9746 25.4661 55.9746H25.4694C25.4829 55.9746 25.493 55.9746 25.5031 55.9746C25.5266 55.9712 25.5501 55.9712 25.5737 55.9712C25.5837 55.9712 25.5972 55.9712 25.6073 55.9679H25.6274C25.6812 55.9645 25.7384 55.9645 25.7922 55.9611C25.8258 55.9578 25.8627 55.9544 25.8964 55.9511C25.9165 55.9477 25.9367 55.9477 25.9569 55.9443L25.9972 55.941C26.0611 55.9343 26.1283 55.9242 26.1888 55.9141L33.9808 64.7582C33.7757 64.9363 33.574 65.1212 33.3623 65.3027ZM34.6665 64.143L27.1838 55.6519C27.3116 55.6149 27.4393 55.5712 27.5737 55.5208C27.5771 55.5208 27.5838 55.5174 27.5872 55.5174C27.5939 55.5174 27.5973 55.5141 27.604 55.5107C27.6074 55.5073 27.6141 55.5073 27.6174 55.504C27.6208 55.5006 27.6275 55.5006 27.6309 55.4973H27.6343C27.6511 55.4905 27.6679 55.4804 27.688 55.4737C27.6948 55.4704 27.7048 55.467 27.7149 55.4636H27.7183C27.762 55.4435 27.8057 55.4233 27.846 55.4031L27.8998 55.3762C27.9334 55.3594 27.9704 55.3393 28.004 55.3225L35.2783 63.5749C35.0699 63.7632 34.8716 63.9548 34.6665 64.143ZM35.9304 62.9463L28.7435 54.7947C28.9553 54.5762 29.1234 54.3476 29.2478 54.109L36.5153 62.3547C36.3237 62.553 36.1321 62.7514 35.9304 62.9463ZM37.2515 61.6118L29.5738 52.9459C29.6108 52.7039 29.6276 52.4585 29.6243 52.2232C29.6209 52.0484 29.6075 51.8736 29.5806 51.6988L37.8162 61C37.6314 61.2051 37.4431 61.4101 37.2515 61.6118ZM44.7577 51.6282L32.7706 38.0914L32.7505 38.0712V39.4528L44.2636 52.4551C44.1123 52.7038 43.9611 52.9492 43.8064 53.198L33.3286 41.3655L33.3085 41.342L33.3118 41.3722C33.3354 41.6849 33.3387 42.1622 33.2076 42.6563V42.6631L43.2719 54.0283C43.114 54.2703 42.9593 54.509 42.798 54.7476L33.6749 44.4413L32.8345 43.4933L32.8244 43.4833L32.8177 43.4933C32.6429 43.732 32.4143 43.927 32.1454 44.0715L32.1319 44.0782L42.2601 55.5174C42.0954 55.7494 41.9341 55.9847 41.766 56.2133L31.2882 44.3808L31.2848 44.3774H31.2781C30.9285 44.4682 30.5823 44.5287 30.2428 44.5556L30.2226 44.5589L41.2046 56.9629C41.0332 57.1881 40.8651 57.4167 40.6903 57.6385L29.1167 44.5657L29.1133 44.5623H29.11C28.6024 44.522 28.2864 44.4346 28.283 44.4346H28.2763L28.0141 44.6598L40.1256 58.3377C39.9474 58.5562 39.7726 58.7747 39.5945 58.9932L27.3922 45.2144L27.3855 45.2077L26.7031 45.7993L26.6964 45.8061L38.9894 59.6958C38.8079 59.9075 38.6264 60.1193 38.4415 60.3244L26.0712 46.354L26.0644 46.3473L25.3753 46.9456L27.5872 49.4398C27.0897 49.2482 26.6661 49.1709 26.1854 49.1104L24.7534 47.4969L24.7467 47.4902L23.9501 48.1793L23.9433 48.186L25.7014 50.1457L25.7048 50.1491L26.2392 50.2432H26.2695C26.2695 50.2432 26.2863 50.2432 26.33 50.2533C26.3838 50.26 26.8746 50.3172 27.3653 50.5222C27.8561 50.7206 28.2124 51.0063 28.3738 51.3357C28.478 51.5374 28.5788 51.9341 28.5755 52.3543C28.5788 52.7543 28.4948 53.1509 28.3402 53.477C28.1654 53.84 27.9099 54.109 27.5603 54.2972C26.6124 54.7981 25.8796 54.8619 25.3484 54.8619H25.3283C25.1333 54.8619 24.9484 54.8518 24.7703 54.8418C24.6123 54.8317 24.4644 54.825 24.3097 54.8216C24.2425 54.8216 24.182 54.825 24.1282 54.8283L23.9433 54.8384L23.3685 55.3359L23.3618 55.3426L32.5723 65.9717C31.9101 66.5196 31.2411 67.0608 30.5487 67.5852C29.6545 68.2609 28.7167 68.9264 27.762 69.5651C26.8073 68.9231 25.8728 68.2609 24.982 67.5886C17.3044 61.7732 11.5293 54.4384 7.81822 45.7792L7.78796 45.7052L7.78124 45.6918L7.76779 45.6615L7.75435 45.6313L7.74762 45.6178C7.54257 45.1438 7.33752 44.6396 7.11566 44.0749C6.88372 43.4698 6.68539 42.9353 6.50723 42.4277C3.77097 34.6963 3.19279 27.8288 3.18943 23.4319V13.2567C11.1965 11.1322 19.4423 10.0565 27.7351 10.0565H27.7788C31.4496 10.0565 35.1102 10.2683 38.744 10.6885V12.9339C36.9053 11.8078 34.7438 11.1591 32.4311 11.1591C25.7283 11.1591 20.2961 16.6081 20.2961 23.3311C20.2961 29.7683 25.2812 35.0358 31.5874 35.4694L33.89 38.1049L45.188 50.8651C45.0502 51.1206 44.9023 51.3727 44.7577 51.6282ZM38.7474 33.7248V42.1924L32.8244 35.4896C34.9892 35.4224 37.0095 34.7871 38.7474 33.7248ZM45.6553 50.0113L42.3206 46.2397V30.3835C43.7358 28.3935 44.5695 25.9598 44.5695 23.3311C44.5695 20.7024 43.7358 18.2686 42.3206 16.2786V11.1692C43.4367 11.3406 44.546 11.5322 45.6553 11.744V50.0113ZM52.3245 23.4252C52.3211 27.822 51.7463 34.6896 49.0067 42.4311C49.0033 42.4446 48.9966 42.458 48.9932 42.4714V12.4364C50.1092 12.6886 51.2219 12.9608 52.3278 13.2567V23.4252H52.3245Z" fill="#1D1D1B"/>
<path d="M32.5144 14.6548L28.81 13.1724C27.0284 13.8144 25.4687 14.9103 24.2619 16.3154L24.4502 20.3895L21.6736 23.9561L21.5996 24.0502C21.7509 25.7578 22.2753 27.368 23.0955 28.7832L23.1123 28.7865L27.452 30.0975L29.8924 33.8792C30.8437 34.1145 31.8421 34.2254 32.8707 34.1885C33.6203 34.1616 34.3498 34.0607 35.049 33.8893L37.3415 30.3765L41.5837 29.237C42.488 27.8386 43.0796 26.2217 43.2578 24.4905L40.4643 20.8399L40.6391 16.228C39.4895 14.917 38.034 13.885 36.3868 13.2497L32.5144 14.6548ZM35.3381 27.3243L29.8286 27.3545L28.1075 22.0703L32.4573 18.8197L36.9146 22.1274L35.3381 27.3243Z" fill="white"/>
<path d="M6.2983 9.56905C6.05963 9.61948 5.82432 9.66654 5.58902 9.71696C5.53524 9.72705 5.49826 9.69679 5.48481 9.64637C5.42431 9.38081 5.3638 9.11189 5.30329 8.84633C4.95706 8.92029 4.61082 8.9976 4.26459 9.07828C4.20408 9.37073 4.14357 9.66654 4.08307 9.96235C4.07298 10.0161 4.03264 10.0666 3.98222 10.08C3.74692 10.1338 3.51161 10.1909 3.27295 10.2481C3.22252 10.2615 3.18555 10.238 3.18555 10.1876C3.18555 10.1842 3.19227 10.1708 3.19227 10.1607C3.44438 9.0413 3.69649 7.92192 3.94525 6.80254C4.0629 6.28487 4.43603 6.12016 4.78562 6.04284C5.13522 5.96553 5.50834 5.96217 5.626 6.42941C5.87475 7.4345 6.12686 8.43959 6.38233 9.44804C6.38233 9.45813 6.38906 9.46821 6.38569 9.47157C6.38569 9.51863 6.34872 9.55561 6.2983 9.56905ZM4.85285 6.82943C4.84277 6.77901 4.83268 6.75548 4.78562 6.76556C4.74192 6.77565 4.72511 6.8059 4.71503 6.85969C4.61082 7.35719 4.50998 7.85133 4.40577 8.34547C4.65788 8.29169 4.91 8.23118 5.16211 8.17739C5.0579 7.72695 4.9537 7.27651 4.85285 6.82943Z" fill="url(#paint3_linear_937_1609)"/>
<path d="M9.0441 5.932C8.69787 5.99587 8.355 6.05974 8.00876 6.12361C7.7701 6.16731 7.6827 6.26815 7.6827 6.53707C7.6827 6.6917 7.6827 6.84633 7.6827 6.9976C8.11969 6.91356 8.56005 6.82952 9.0004 6.74885C9.05755 6.73876 9.10125 6.77574 9.10125 6.83289C9.10125 6.9976 9.10125 7.15895 9.10125 7.3203C9.10125 7.37745 9.05419 7.43123 9.0004 7.44132C8.56005 7.52199 8.11969 7.60267 7.6827 7.69007C7.6827 8.18757 7.6827 8.68843 7.6827 9.1893C7.6827 9.24644 7.63564 9.30023 7.58185 9.31031C7.35999 9.35401 7.1415 9.39771 6.91964 9.44141C6.86249 9.45149 6.81543 9.41788 6.81543 9.35737C6.81543 8.4733 6.81543 7.59258 6.81543 6.70515C6.81543 5.77401 7.40033 5.48829 8.05582 5.36391C8.60711 5.2597 8.86258 5.25634 9.04074 5.24962C9.11133 5.24626 9.14495 5.26643 9.14159 5.33366C9.14159 5.49165 9.14159 5.653 9.14159 5.81099C9.14831 5.86477 9.10125 5.92192 9.0441 5.932Z" fill="url(#paint4_linear_937_1609)"/>
<path d="M11.9828 8.50345C11.8752 8.55724 11.5794 8.65136 11.2197 8.7085C10.4432 8.83288 9.70703 8.55051 9.70703 7.33029C9.70703 7.11515 9.70703 6.90002 9.70703 6.68488C9.70703 5.46466 10.4432 4.93018 11.2197 4.8058C11.576 4.74866 11.8752 4.75538 11.9828 4.77555C12.0567 4.78563 12.0937 4.79908 12.0971 4.86967C12.0971 5.03774 12.0971 5.20246 12.0971 5.36717C12.0971 5.42768 12.0668 5.47474 11.9996 5.48146C11.9962 5.48146 11.9895 5.48482 11.9828 5.48482C11.7878 5.49827 11.5088 5.51844 11.2264 5.56214C10.8735 5.61928 10.5911 5.84787 10.5911 6.53361C10.5911 6.74875 10.5911 6.96388 10.5911 7.17902C10.5911 7.8614 10.8735 7.99923 11.2264 7.94208C11.5088 7.89838 11.7878 7.82779 11.9828 7.78073C11.9861 7.78073 11.9929 7.78073 11.9996 7.77737C12.0668 7.76728 12.0971 7.80762 12.0971 7.86813C12.0971 8.03284 12.0971 8.19755 12.0971 8.36563C12.0971 8.44294 12.0534 8.4732 11.9828 8.50345Z" fill="url(#paint5_linear_937_1609)"/>
<path d="M15.2134 8.15373C14.8772 8.19407 14.4739 8.22096 14.2755 8.21088C14.0705 8.20079 13.9932 8.14365 13.9932 7.91506C13.9932 6.873 13.9932 5.83766 13.9932 4.79559C13.9932 4.56701 14.0638 4.48634 14.2654 4.42919C14.4402 4.38213 14.8571 4.29809 15.1831 4.25775C16.1546 4.1401 16.8067 4.33171 16.8067 5.14519C16.8067 5.17544 16.8067 5.20906 16.8067 5.23931C16.8067 5.57546 16.6454 5.878 16.3765 6.03935C16.6487 6.14019 16.8336 6.39567 16.8336 6.74862C16.8336 6.77552 16.8336 6.79905 16.8336 6.82594C16.8336 7.72682 16.1008 8.04616 15.2134 8.15373ZM15.9596 5.28973C15.9596 5.00737 15.7781 4.8998 15.2504 4.96031C15.1697 4.97039 14.931 5.00064 14.8604 5.01409C14.8604 5.30654 14.8604 5.60235 14.8604 5.90153C15.052 5.878 15.2436 5.85447 15.4352 5.83094C15.8386 5.78387 15.9596 5.58555 15.9596 5.36369C15.9596 5.34352 15.9596 5.31663 15.9596 5.28973ZM15.9798 6.83938C15.9798 6.594 15.8454 6.39567 15.4352 6.44609C15.2436 6.46962 15.052 6.49315 14.8604 6.51668C14.8604 6.83602 14.8604 7.15537 14.8604 7.47471C14.9411 7.46462 15.21 7.43773 15.2806 7.42765C15.8084 7.36714 15.9798 7.18226 15.9798 6.89653C15.9798 6.87636 15.9798 6.85619 15.9798 6.83938Z" fill="url(#paint6_linear_937_1609)"/>
<path d="M18.8636 7.77755C18.0131 7.8515 17.3408 7.46493 17.3408 6.2716C17.3408 6.06655 17.3408 5.86486 17.3408 5.6598C17.3408 4.46983 18.0165 3.94544 18.8636 3.87485C19.714 3.80426 20.3897 4.21436 20.3897 5.40433C20.3897 5.60602 20.3897 5.81107 20.3897 6.01612C20.3863 7.20609 19.7107 7.70696 18.8636 7.77755ZM19.4989 5.47156C19.4989 4.85641 19.2939 4.61102 18.8602 4.64463C18.4266 4.68161 18.2249 4.96397 18.2249 5.57577C18.2249 5.77746 18.2249 5.98251 18.2249 6.18756C18.2249 6.80271 18.4266 7.04474 18.8602 7.00777C19.2939 6.97079 19.4989 6.69515 19.4989 6.07999C19.4989 5.8783 19.4989 5.67325 19.4989 5.47156Z" fill="url(#paint7_linear_937_1609)"/>
<path d="M22.4868 7.53534C21.6666 7.57568 21.001 7.31349 21.001 6.14368C21.001 5.38398 21.001 4.62092 21.001 3.86123C21.001 3.80744 21.048 3.76038 21.1052 3.76038C21.3304 3.74357 21.5556 3.73013 21.7808 3.72004C21.838 3.71668 21.8851 3.75702 21.8851 3.8108C21.8851 4.5705 21.8851 5.3302 21.8851 6.09326C21.8851 6.61765 22.0262 6.82943 22.4868 6.8059C22.9506 6.78237 23.0952 6.55715 23.0952 6.03275C23.0952 5.27305 23.0952 4.50999 23.0952 3.7503C23.0952 3.69651 23.1423 3.64945 23.1994 3.64945C23.4246 3.63937 23.6465 3.62928 23.8717 3.62256C23.9288 3.62256 23.9793 3.65954 23.9793 3.71668C23.9793 4.47638 23.9793 5.23608 23.9793 5.99914C23.9793 7.16558 23.307 7.49501 22.4868 7.53534Z" fill="url(#paint8_linear_937_1609)"/>
<path d="M27.5701 7.35728C27.3046 7.35728 27.0424 7.35728 26.7768 7.36064C26.7197 7.36064 26.7029 7.31022 26.676 7.2598C26.444 6.82953 26.2121 6.39925 25.9835 5.97234C25.9667 5.97234 25.9465 5.97571 25.9264 5.97907C25.8188 5.97907 25.6575 5.97234 25.56 5.97571C25.56 6.40934 25.56 6.84297 25.56 7.27661C25.56 7.33375 25.5129 7.38081 25.4558 7.38081C25.2339 7.38754 25.0087 7.3909 24.7868 7.39762C24.733 7.39762 24.6826 7.35392 24.6826 7.30014C24.6826 6.15387 24.6826 5.00423 24.6826 3.85796C24.6826 3.68316 24.7566 3.6361 24.9146 3.60585C25.1532 3.56215 25.5902 3.52181 25.9633 3.51509C26.8407 3.50164 27.5197 3.79409 27.5164 4.7017C27.5164 4.72187 27.5164 4.7454 27.5164 4.76893C27.5164 5.31349 27.2273 5.64628 26.8508 5.79755C27.1096 6.27824 27.3685 6.75894 27.6307 7.23963C27.6407 7.2598 27.6475 7.27997 27.6475 7.29678C27.6475 7.33375 27.6273 7.35728 27.5701 7.35728ZM26.639 4.70842C26.639 4.3958 26.397 4.25462 25.9633 4.26134C25.8894 4.2647 25.6205 4.27815 25.56 4.28487C25.56 4.6143 25.56 4.94036 25.56 5.26979C25.6171 5.27315 25.8692 5.27315 25.9264 5.27315C26.4709 5.26307 26.639 5.12189 26.639 4.77565C26.639 4.75212 26.639 4.72859 26.639 4.70842Z" fill="url(#paint9_linear_937_1609)"/>
<path d="M31.0324 7.40759C30.8643 7.40086 30.6963 7.3975 30.5282 7.39414C30.4206 7.39078 30.3433 7.36725 30.2593 7.22943C29.866 6.54704 29.476 5.86466 29.0827 5.18563C29.0626 5.15202 29.0525 5.1453 29.0357 5.1453C29.0222 5.1453 29.0122 5.15538 29.0122 5.18563C29.0122 5.87474 29.0122 6.56721 29.0122 7.26304C29.0122 7.32019 28.9651 7.36389 28.908 7.36389C28.7063 7.36389 28.5012 7.36052 28.2995 7.36052C28.2424 7.36052 28.1953 7.31346 28.1953 7.25632C28.1953 6.08652 28.1953 4.91671 28.1953 3.74355C28.1953 3.63598 28.2827 3.54858 28.3903 3.54858C28.5651 3.54858 28.7399 3.55195 28.9113 3.55531C29.0155 3.55531 29.0659 3.60573 29.1298 3.71666C29.5366 4.42594 29.9467 5.13857 30.3534 5.85121C30.3702 5.88483 30.3803 5.89155 30.3937 5.89155C30.4038 5.89155 30.4206 5.88483 30.4206 5.84785C30.4206 5.12513 30.4206 4.4024 30.4206 3.67968C30.4206 3.62254 30.4677 3.5822 30.5248 3.58556C30.7265 3.58892 30.9316 3.59564 31.1333 3.60237C31.1904 3.60237 31.2375 3.64607 31.2375 3.70321C31.2375 4.87301 31.2375 6.04954 31.2375 7.21934C31.2341 7.33027 31.14 7.41431 31.0324 7.40759Z" fill="url(#paint10_linear_937_1609)"/>
<path d="M34.1921 7.53216C34.0106 7.54896 33.7484 7.56913 33.1904 7.54224C32.5248 7.50863 31.9365 7.31702 31.9365 6.38252C31.9365 5.81443 31.9365 5.24634 31.9365 4.6816C31.9365 3.74711 32.5315 3.60592 33.1971 3.6429C33.7551 3.66979 34.0139 3.72694 34.1921 3.76392C34.266 3.78072 34.2929 3.80761 34.2929 3.87148C34.2929 4.03284 34.2929 4.19083 34.2929 4.35218C34.2929 4.40932 34.2459 4.44966 34.1921 4.4463C33.8425 4.42613 33.4929 4.40596 33.1433 4.38579C32.9013 4.37235 32.8139 4.45302 32.8139 4.71858C32.8139 4.87321 32.8139 5.02784 32.8139 5.18583C33.2576 5.206 33.7047 5.22953 34.1484 5.25642C34.2055 5.25978 34.2526 5.3102 34.2526 5.36735C34.2526 5.5287 34.2526 5.69342 34.2526 5.85477C34.2526 5.91191 34.2055 5.95561 34.1484 5.94889C33.7047 5.922 33.2576 5.89847 32.8139 5.8783C32.8139 6.05982 32.8139 6.24134 32.8139 6.4195C32.8139 6.68842 32.8979 6.77246 33.1433 6.7859C33.4929 6.80271 33.8391 6.82624 34.1921 6.84641C34.2492 6.84977 34.2929 6.90019 34.2929 6.95398C34.2929 7.11197 34.2929 7.27332 34.2929 7.43131C34.2929 7.5019 34.266 7.52879 34.1921 7.53216Z" fill="url(#paint11_linear_937_1609)"/>
<path d="M38.3371 7.8916C38.1118 7.86807 37.8866 7.84454 37.658 7.82437C37.611 7.81765 37.5774 7.77059 37.5774 7.71344C37.5774 7.00081 37.5774 6.28817 37.5774 5.57553C37.5774 5.54192 37.5606 5.53183 37.5505 5.53183C37.537 5.53183 37.5236 5.54192 37.5101 5.56545C37.3555 5.83437 37.2009 6.09992 37.0496 6.36884C37.0126 6.42599 36.9622 6.44952 36.895 6.43944C36.7572 6.42599 36.6193 6.4159 36.4815 6.40582C36.4143 6.3991 36.3639 6.36884 36.3269 6.30498C36.1723 6.01253 36.0176 5.71671 35.863 5.4209C35.8496 5.39401 35.8361 5.38392 35.8227 5.38056C35.8126 5.38056 35.7958 5.38392 35.7958 5.4209C35.7958 6.13354 35.7958 6.84618 35.7958 7.55882C35.7958 7.61596 35.7588 7.65966 35.7117 7.6563C35.4832 7.63949 35.2579 7.62268 35.0327 7.60588C34.9924 7.60251 34.9453 7.58235 34.9453 7.52856C34.9453 6.33859 34.9453 5.14862 34.9453 3.96537C34.9453 3.8578 35.0226 3.79394 35.1302 3.80402C35.2915 3.8141 35.4529 3.82755 35.6142 3.841C35.7218 3.84772 35.7958 3.90486 35.8428 3.99563C36.105 4.50321 36.3672 5.0108 36.6328 5.52175C36.653 5.56208 36.6698 5.59234 36.6899 5.59234C36.7101 5.5957 36.7269 5.56881 36.7437 5.53183C37.0059 5.06794 37.2681 4.60406 37.5303 4.14353C37.5774 4.05949 37.648 4.01579 37.7589 4.02588C37.9202 4.04269 38.0816 4.05613 38.2429 4.07294C38.3505 4.08302 38.4278 4.1637 38.4278 4.27127C38.4278 5.45788 38.4278 6.64449 38.4278 7.8311C38.4245 7.88488 38.3774 7.89496 38.3371 7.8916Z" fill="url(#paint12_linear_937_1609)"/>
<path d="M40.5716 8.18759C39.7245 8.08339 39.0488 7.55563 39.0488 6.36566C39.0488 6.16061 39.0488 5.95892 39.0488 5.75387C39.0488 4.5639 39.7211 4.18069 40.5716 4.28489C41.4187 4.3891 42.091 4.94039 42.091 6.13036C42.091 6.33541 42.091 6.5371 42.091 6.74215C42.091 7.92876 41.4187 8.2918 40.5716 8.18759ZM41.2103 6.00934C41.2103 5.39419 41.0052 5.1051 40.5749 5.05468C40.1447 5.00089 39.943 5.23956 39.943 5.85471C39.943 6.05976 39.943 6.26145 39.943 6.46651C39.943 7.08166 40.1447 7.36403 40.5749 7.41781C41.0052 7.47159 41.2103 7.23629 41.2103 6.62114C41.2103 6.41945 41.2103 6.21439 41.2103 6.00934Z" fill="url(#paint13_linear_937_1609)"/>
<path d="M44.1788 8.69161C43.3653 8.56388 42.7065 8.16386 42.7031 6.99406C42.7031 6.23436 42.7031 5.4713 42.7031 4.7116C42.7031 4.65445 42.7502 4.62084 42.8073 4.62756C43.0326 4.66117 43.2544 4.69479 43.4796 4.72504C43.5368 4.73513 43.5838 4.78219 43.5838 4.83933C43.5838 5.59903 43.5838 6.36209 43.5838 7.12179C43.5838 7.64619 43.7217 7.88485 44.1822 7.95881C44.6427 8.03276 44.7873 7.83779 44.7873 7.3134C44.7873 6.55034 44.7873 5.79064 44.7873 5.03094C44.7873 4.97379 44.8343 4.94018 44.8915 4.95026C45.1133 4.98724 45.3352 5.02422 45.5537 5.06119C45.6108 5.07128 45.6612 5.11834 45.6612 5.17548C45.6612 5.93518 45.6612 6.69824 45.6612 7.45794C45.6579 8.63111 44.9923 8.82271 44.1788 8.69161Z" fill="url(#paint14_linear_937_1609)"/>
<path d="M48.7503 6.38557C48.4747 6.33179 48.199 6.27464 47.9268 6.22086C47.9268 7.21586 47.9268 8.21086 47.9268 9.20587C47.9268 9.26301 47.8831 9.29999 47.8259 9.28991C47.6041 9.24621 47.3822 9.20587 47.1603 9.16217C47.1032 9.15208 47.0595 9.0983 47.0595 9.04115C47.0595 8.04615 47.0595 7.05115 47.0595 6.0595C46.7839 6.00572 46.5048 5.95866 46.2292 5.90488C46.1721 5.89479 46.1284 5.84437 46.125 5.78722C46.125 5.61242 46.125 5.43427 46.125 5.25947C46.125 5.20232 46.1721 5.16871 46.2292 5.18215C47.0729 5.33342 47.9167 5.49141 48.7571 5.66285C48.8142 5.67293 48.8646 5.72672 48.8646 5.7805C48.8646 5.95866 48.8646 6.13346 48.8646 6.31162C48.8579 6.36876 48.8075 6.39902 48.7503 6.38557Z" fill="url(#paint15_linear_937_1609)"/>
<path d="M52.223 10.2414C52.0012 10.191 51.7793 10.1372 51.5608 10.0868C51.507 10.0734 51.46 10.0162 51.46 9.95906C51.46 9.46492 51.46 8.97078 51.46 8.47664C51.0431 8.37916 50.6263 8.2884 50.2061 8.19764C50.2061 8.69178 50.2061 9.18592 50.2061 9.68006C50.2061 9.7372 50.1591 9.77082 50.1053 9.76073C49.8834 9.71367 49.6616 9.66325 49.4397 9.61619C49.3826 9.60274 49.3389 9.54896 49.3389 9.49181C49.3389 8.2884 49.3389 7.08498 49.3389 5.88156C49.3389 5.82442 49.3826 5.79416 49.4397 5.80761C49.6616 5.85131 49.8834 5.90173 50.1053 5.94879C50.1624 5.96224 50.2061 6.01266 50.2061 6.06981C50.2061 6.52361 50.2061 6.98077 50.2061 7.43458C50.623 7.52534 51.0398 7.61946 51.46 7.71358C51.46 7.25978 51.46 6.80598 51.46 6.34881C51.46 6.29503 51.5037 6.26141 51.5608 6.27486C51.7827 6.32528 52.0045 6.37907 52.223 6.42949C52.2768 6.44293 52.3239 6.49672 52.3239 6.5505C52.3239 7.75392 52.3239 8.95734 52.3239 10.1608C52.3239 10.2179 52.2768 10.2549 52.223 10.2414Z" fill="url(#paint16_linear_937_1609)"/>
</g>
<defs>
<linearGradient id="paint0_linear_937_1609" x1="34.2992" y1="63.3853" x2="58.3268" y2="0.994361" gradientUnits="userSpaceOnUse">
<stop stop-color="#881002"/>
<stop offset="1" stop-color="#E20613"/>
</linearGradient>
<linearGradient id="paint1_linear_937_1609" x1="36.7559" y1="64.3318" x2="60.7849" y2="1.9393" gradientUnits="userSpaceOnUse">
<stop stop-color="#881002"/>
<stop offset="1" stop-color="#E20613"/>
</linearGradient>
<linearGradient id="paint2_linear_937_1609" x1="27.7586" y1="72.0106" x2="27.7586" y2="2.76673" gradientUnits="userSpaceOnUse">
<stop stop-color="#881002"/>
<stop offset="1" stop-color="#E20613"/>
</linearGradient>
<linearGradient id="paint3_linear_937_1609" x1="5.8533" y1="9.31409" x2="33.2739" y2="29.8155" gradientUnits="userSpaceOnUse">
<stop stop-color="#B3A06E"/>
<stop offset="0.4417" stop-color="#FFE9CF"/>
<stop offset="1" stop-color="#B3A06E"/>
</linearGradient>
<linearGradient id="paint4_linear_937_1609" x1="7.56209" y1="7.02868" x2="34.9791" y2="27.5273" gradientUnits="userSpaceOnUse">
<stop stop-color="#B3A06E"/>
<stop offset="0.4417" stop-color="#FFE9CF"/>
<stop offset="1" stop-color="#B3A06E"/>
</linearGradient>
<linearGradient id="paint5_linear_937_1609" x1="9.01317" y1="5.08911" x2="36.4241" y2="25.5832" gradientUnits="userSpaceOnUse">
<stop stop-color="#B3A06E"/>
<stop offset="0.4417" stop-color="#FFE9CF"/>
<stop offset="1" stop-color="#B3A06E"/>
</linearGradient>
<linearGradient id="paint6_linear_937_1609" x1="10.6816" y1="2.85292" x2="38.1023" y2="23.3543" gradientUnits="userSpaceOnUse">
<stop stop-color="#B3A06E"/>
<stop offset="0.4417" stop-color="#FFE9CF"/>
<stop offset="1" stop-color="#B3A06E"/>
</linearGradient>
<linearGradient id="paint7_linear_937_1609" x1="12.1862" y1="0.841961" x2="39.6" y2="21.3382" gradientUnits="userSpaceOnUse">
<stop stop-color="#B3A06E"/>
<stop offset="0.4417" stop-color="#FFE9CF"/>
<stop offset="1" stop-color="#B3A06E"/>
</linearGradient>
<linearGradient id="paint8_linear_937_1609" x1="13.7374" y1="-1.22622" x2="41.1404" y2="19.2619" gradientUnits="userSpaceOnUse">
<stop stop-color="#B3A06E"/>
<stop offset="0.4417" stop-color="#FFE9CF"/>
<stop offset="1" stop-color="#B3A06E"/>
</linearGradient>
<linearGradient id="paint9_linear_937_1609" x1="14.8383" y1="-2.69841" x2="42.2459" y2="17.7932" gradientUnits="userSpaceOnUse">
<stop stop-color="#B3A06E"/>
<stop offset="0.4417" stop-color="#FFE9CF"/>
<stop offset="1" stop-color="#B3A06E"/>
</linearGradient>
<linearGradient id="paint10_linear_937_1609" x1="16.2456" y1="-4.5894" x2="43.6627" y2="15.9094" gradientUnits="userSpaceOnUse">
<stop stop-color="#B3A06E"/>
<stop offset="0.4417" stop-color="#FFE9CF"/>
<stop offset="1" stop-color="#B3A06E"/>
</linearGradient>
<linearGradient id="paint11_linear_937_1609" x1="17.4988" y1="-6.25787" x2="44.9087" y2="14.2355" gradientUnits="userSpaceOnUse">
<stop stop-color="#B3A06E"/>
<stop offset="0.4417" stop-color="#FFE9CF"/>
<stop offset="1" stop-color="#B3A06E"/>
</linearGradient>
<linearGradient id="paint12_linear_937_1609" x1="18.5544" y1="-7.68541" x2="45.9759" y2="12.8166" gradientUnits="userSpaceOnUse">
<stop stop-color="#B3A06E"/>
<stop offset="0.4417" stop-color="#FFE9CF"/>
<stop offset="1" stop-color="#B3A06E"/>
</linearGradient>
<linearGradient id="paint13_linear_937_1609" x1="19.7732" y1="-9.31124" x2="47.1896" y2="11.187" gradientUnits="userSpaceOnUse">
<stop stop-color="#B3A06E"/>
<stop offset="0.4417" stop-color="#FFE9CF"/>
<stop offset="1" stop-color="#B3A06E"/>
</linearGradient>
<linearGradient id="paint14_linear_937_1609" x1="20.9336" y1="-10.8559" x2="48.3457" y2="9.63908" gradientUnits="userSpaceOnUse">
<stop stop-color="#B3A06E"/>
<stop offset="0.4417" stop-color="#FFE9CF"/>
<stop offset="1" stop-color="#B3A06E"/>
</linearGradient>
<linearGradient id="paint15_linear_937_1609" x1="21.8553" y1="-12.1026" x2="49.2742" y2="8.39754" gradientUnits="userSpaceOnUse">
<stop stop-color="#B3A06E"/>
<stop offset="0.4417" stop-color="#FFE9CF"/>
<stop offset="1" stop-color="#B3A06E"/>
</linearGradient>
<linearGradient id="paint16_linear_937_1609" x1="22.6028" y1="-13.082" x2="50.0121" y2="7.4109" gradientUnits="userSpaceOnUse">
<stop stop-color="#B3A06E"/>
<stop offset="0.4417" stop-color="#FFE9CF"/>
<stop offset="1" stop-color="#B3A06E"/>
</linearGradient>
<clipPath id="clip0_937_1609">
<rect width="55.1286" height="72.4773" fill="white" transform="translate(0.194336 0.630859)"/>
</clipPath>
</defs>
</svg>
