<svg width="63" height="74" viewBox="0 0 63 74" fill="none" xmlns="http://www.w3.org/2000/svg">
<path d="M31.7352 6.64563C25.5983 6.64563 14.2825 8.23333 8.51969 11.5844C0.932438 38.4838 11.2511 56.7761 31.7352 67.1584C52.2195 56.7761 62.5381 38.3933 54.9507 11.5845C49.1822 8.23333 37.8719 6.64563 31.7352 6.64563Z" fill="#9C824A" stroke="#9C824A" stroke-width="0.316535" stroke-miterlimit="282"/>
<path d="M31.7349 8.37512C25.7058 8.37512 18.9173 9.1463 10.0266 12.7752C3.40816 36.2556 11.0863 55.0752 31.7349 65.3325C52.3834 55.0752 60.0558 36.2554 53.4374 12.7752C44.5466 9.1463 37.7639 8.37512 31.7349 8.37512Z" fill="#023474" stroke="#023474" stroke-width="0.316535" stroke-miterlimit="282"/>
<path d="M31.7073 8.35242C25.7065 8.35242 19.2637 9.24255 13.4499 11.4427C7.4208 35.4845 11.8691 53.0394 31.7414 65.3156L31.7073 8.35242ZM31.7414 65.3156C51.6135 53.0394 56.0562 35.4845 50.0269 11.4427C44.2132 9.24255 37.776 8.35242 31.7754 8.35242L31.7414 65.3156Z" fill="white"/>
<path d="M31.7414 65.3156C11.8691 53.0394 7.4208 35.4845 13.4499 11.4427C19.2637 9.24255 25.7065 8.35242 31.7073 8.35242L31.7414 65.3156ZM31.7414 65.3156C51.6135 53.0394 56.0562 35.4845 50.0269 11.4427C44.2132 9.24255 37.776 8.35242 31.7754 8.35242L31.7414 65.3156Z" stroke="white" stroke-width="0.316535" stroke-miterlimit="282"/>
<path d="M31.7411 8.3468C25.7063 8.3468 19.5978 9.2596 14.634 10.9889C8.38956 36.1875 13.4043 53.2037 31.7467 64.8333L31.7411 8.3468Z" fill="#EF0107" stroke="#EF0107" stroke-width="0.316535" stroke-miterlimit="282"/>
<path d="M31.7527 8.3468C37.7873 8.3468 43.8959 9.2596 48.8653 10.9889C55.1098 36.1875 50.0949 53.2037 31.7471 64.8333L31.7527 8.3468Z" fill="#DB0007" stroke="#DB0007" stroke-width="0.316535" stroke-miterlimit="282"/>
<path d="M23.9441 46.3712C21.2809 48.1972 19.1616 48.8549 16.7023 49.507L15.2178 47.1992C17.4788 46.0539 19.819 44.4605 22.1763 42.1528C22.3746 44.3923 23.417 45.9798 23.9441 46.3712Z" fill="white"/>
<path d="M23.5812 46.2748C21.054 48.0098 17.535 49.2176 13.5062 49.8073L12.6846 48.56C16.1354 47.2668 19.4673 45.3392 22.0513 42.6289C22.4423 44.3638 23.0372 45.515 23.5812 46.2748Z" fill="#9C824A"/>
<path d="M16.8493 35.6772C16.8493 36.6468 16.0674 37.4293 15.0984 37.4293C14.1294 37.4293 13.3418 36.6468 13.3418 35.6772C13.3418 34.7075 14.1294 33.9252 15.0984 33.9252C16.0674 33.9252 16.8493 34.7075 16.8493 35.6772Z" fill="white"/>
<path d="M16.6621 32.2239V38.8354H21.8696C22.2095 36.6183 23.4675 34.2652 26.3177 32.2239H16.6621Z" fill="white"/>
<path d="M16.8727 38.8354C15.711 38.8523 14.7535 37.3951 14.7364 35.5693C14.7251 33.7434 15.6545 32.2465 16.8218 32.2239H16.8616" fill="white"/>
<path d="M16.1128 35.6772C16.1128 36.4257 15.5688 37.0268 14.9002 37.0268C14.2315 37.0268 13.6875 36.4258 13.6875 35.6772C13.6875 34.9287 14.2315 34.3277 14.9002 34.3277C15.5688 34.3275 16.1128 34.9287 16.1128 35.6772ZM16.8041 32.5699V38.5122H21.972C22.3799 36.539 23.383 34.4411 25.8875 32.5699H16.8041Z" fill="#9C824A"/>
<path d="M16.9962 38.5122C15.9025 38.535 15.0073 37.2195 14.9903 35.5807C14.979 33.9421 15.8573 32.5925 16.9509 32.5699H16.9849" fill="#9C824A"/>
<path d="M41.6231 40.3834C41.6231 45.9008 37.1581 50.3687 31.6446 50.3687C26.1368 50.3687 21.666 45.9008 21.666 40.3834C21.666 34.8664 26.1368 30.3982 31.6446 30.3982C37.1581 30.3982 41.6231 34.8664 41.6231 40.3834Z" fill="white"/>
<path d="M41.1024 40.3834C41.1024 45.6114 36.8694 49.8469 31.645 49.8469C26.4262 49.8469 22.1934 45.6114 22.1934 40.3834C22.1934 35.1612 26.4262 30.9199 31.645 30.9199C36.8694 30.9198 41.1024 35.1555 41.1024 40.3834Z" fill="#9C824A"/>
<path d="M39.5324 40.3835C39.5324 44.7439 36.0021 48.2767 31.6447 48.2767C27.2929 48.2767 23.7627 44.7439 23.7627 40.3835C23.7627 36.0231 27.2929 32.4905 31.6447 32.4905C36.0021 32.4905 39.5324 36.0231 39.5324 40.3835Z" fill="white"/>
<path d="M39.0115 40.3834C39.0115 44.4545 35.7134 47.7491 31.6449 47.7491C27.582 47.7491 24.2842 44.4545 24.2842 40.3834C24.2842 36.3123 27.582 33.0179 31.6449 33.0179C35.7134 33.0178 39.0115 36.3123 39.0115 40.3834Z" fill="#9C824A"/>
<path d="M34.7157 40.3834C34.7214 42.0789 33.3445 43.4568 31.6501 43.4624C29.9503 43.4624 28.5732 42.0846 28.5732 40.3892V40.3834C28.5732 38.6879 29.9446 37.3102 31.6444 37.3102C33.3386 37.3046 34.7155 38.6825 34.7155 40.3778L34.7157 40.3834Z" fill="white"/>
<path d="M34.3528 40.3835C34.3528 41.8807 33.1456 43.094 31.6498 43.094C30.1539 43.094 28.9413 41.8864 28.9355 40.3894V40.3837C28.9355 38.8868 30.1482 37.6732 31.6441 37.6732C33.14 37.6732 34.3528 38.8811 34.3528 40.3779V40.3835Z" fill="#9C824A"/>
<path d="M33.039 40.3834C33.039 41.1489 32.4157 41.7725 31.6451 41.7781C30.8802 41.7781 30.2568 41.1546 30.2568 40.3834C30.2568 39.6124 30.8802 38.9944 31.6451 38.9888C31.8282 38.9887 32.0096 39.0247 32.1788 39.0948C32.348 39.1649 32.5017 39.2676 32.6312 39.3972C32.7606 39.5267 32.8633 39.6805 32.9332 39.8497C33.0032 40.0189 33.0392 40.2003 33.039 40.3834Z" fill="white"/>
<path d="M32.6539 40.3835C32.6542 40.516 32.6282 40.6473 32.5776 40.7698C32.527 40.8923 32.4528 41.0036 32.3591 41.0974C32.2654 41.1912 32.1541 41.2655 32.0316 41.3162C31.9091 41.3668 31.7779 41.3929 31.6453 41.3927C31.5128 41.3929 31.3815 41.3668 31.259 41.3162C31.1365 41.2655 31.0253 41.1912 30.9316 41.0974C30.8379 41.0036 30.7636 40.8923 30.713 40.7698C30.6624 40.6473 30.6365 40.516 30.6367 40.3835C30.6367 39.828 31.09 39.3744 31.6453 39.3744C31.7779 39.3742 31.9091 39.4002 32.0316 39.4509C32.1541 39.5015 32.2654 39.5759 32.3591 39.6696C32.4528 39.7633 32.527 39.8746 32.5776 39.9971C32.6282 40.1196 32.6542 40.2509 32.6539 40.3835Z" fill="#9C824A"/>
<path d="M30.585 32.8478H32.6815V37.741H30.585V32.8478Z" fill="white"/>
<path d="M30.9141 32.1445H32.3589V38.3647H30.9141V32.1445Z" fill="#9C824A"/>
<path d="M37.4863 35.609L38.631 37.3668L34.5285 40.032L33.3896 38.2741L37.4863 35.609Z" fill="white"/>
<path d="M38.2523 35.5013L39.0399 36.7148L33.8267 40.1056L33.0391 38.8865L38.2523 35.5013Z" fill="#9C824A"/>
<path d="M28.7031 40.7804L29.8251 42.5495L25.6942 45.1693L24.5723 43.3944L28.7031 40.7804Z" fill="white"/>
<path d="M29.4064 40.6783L30.1827 41.9031L24.9356 45.2315L24.1592 44.0067L29.4064 40.6783Z" fill="#9C824A"/>
<path d="M30.585 43.1903H32.6815V48.0834H30.585V43.1903Z" fill="white"/>
<path d="M30.9141 42.4929H32.3589V48.7074H30.9141V42.4929Z" fill="#9C824A"/>
<path d="M29.599 42.6686C29.8824 42.9066 30.1939 43.1222 30.5849 43.2866L30.5736 47.6527C28.596 47.3975 27.1001 46.4223 25.9668 45.0332L29.6047 42.6686" fill="#EF0107"/>
<path d="M29.599 42.6686C29.8824 42.9066 30.1939 43.1222 30.5849 43.2866L30.5736 47.6527C28.596 47.3975 27.1001 46.4223 25.9668 45.0332L29.6047 42.6686" stroke="#EF0107" stroke-width="0.124139" stroke-miterlimit="282"/>
<path d="M33.6842 42.6857C33.3952 42.9181 33.0891 43.1393 32.6982 43.298L32.7038 47.6642C34.6814 47.409 36.1775 46.4338 37.3108 45.0446L33.6786 42.6858" fill="#DB0007"/>
<path d="M33.6842 42.6857C33.3952 42.9181 33.0891 43.1393 32.6982 43.298L32.7038 47.6642C34.6814 47.409 36.1775 46.4338 37.3108 45.0446L33.6786 42.6858" stroke="#DB0007" stroke-width="0.124139" stroke-miterlimit="282"/>
<path d="M34.6756 40.8541L39.0047 40.3323C39.0387 41.4151 38.778 42.3678 38.4096 43.2808L34.6641 40.8541" fill="#DB0007"/>
<path d="M34.6816 40.837C34.6986 40.769 34.693 40.7067 34.7214 40.5083L38.994 39.9526C39.0109 40.1511 38.9996 40.2247 38.994 40.3154L34.6816 40.837Z" fill="white" stroke="white" stroke-width="0.124139" stroke-miterlimit="282"/>
<path d="M41.0059 37.2366H46.6101C46.4343 37.8998 46.2642 38.5746 45.4595 38.8752C44.1733 39.3574 41.5045 39.8222 41.5045 39.8222C41.4534 39.0906 41.2891 38.0981 41.0059 37.2366Z" fill="white"/>
<path d="M37.1016 32.1277L51.7436 32.1446L51.228 37.4972L41.2267 38.019C40.6883 35.6261 38.8692 33.3411 37.1016 32.1277Z" fill="white"/>
<path d="M37.623 32.5076L56.3167 32.5245L55.6027 36.8851L41.0965 37.5996C40.5241 35.4334 39.2154 33.8515 37.623 32.5076Z" fill="#9C824A"/>
<path d="M41.0058 37.2367H46.1677C45.9978 37.8262 45.8787 38.3649 45.1195 38.6314C43.9126 39.0623 41.4817 39.4025 41.4817 39.4025C41.3797 38.694 41.2323 37.9737 41.0058 37.2367ZM35.3393 24.3539C35.3393 24.5921 35.2883 25.2441 35.2601 25.4255H38.1613C37.9854 24.6542 37.906 23.5827 37.8835 22.7548C37.8835 22.8115 37.8326 21.0933 37.8326 21.0933C37.8326 20.9742 37.8835 20.7929 37.9571 20.7362C38.0593 20.6171 38.1614 20.6171 38.286 20.6171C38.4106 20.5604 38.6373 20.5604 38.6656 21.0311L38.7393 22.8115C38.7676 23.6449 38.7676 24.7735 38.6656 25.4255H41.4592C41.4364 25.1873 41.3572 24.5919 41.3345 24.4161C41.6858 25.1873 42.4451 25.6012 43.4537 25.6012C44.0544 25.6012 44.5133 25.3685 44.8647 25.1305C44.8647 25.1871 45.0121 25.4255 45.0121 25.4255H50.2026C49.9759 24.6542 49.8285 23.5827 49.7493 22.7548L49.0182 16.9371L46.3493 16.4608C46.5761 17.232 46.7291 18.3604 46.8252 19.1316L47.2332 22.8739C47.3069 23.526 47.358 24.2405 47.358 25.0115V25.0682L47.2558 24.83C47.0519 24.3537 46.9555 23.7641 46.8761 22.8738L46.7799 21.683C46.6269 19.7835 45.5956 18.9554 43.3233 18.9554C42.9494 18.9554 41.9917 19.0121 41.4081 19.1937L41.5611 21.3257L42.1675 20.9741C42.6719 20.6736 43.0458 20.5545 43.4989 20.5545C43.8561 20.5545 44.0827 20.6738 44.1847 20.9118C43.7542 20.9741 43.278 21.0932 42.7455 21.3257C41.9408 21.6828 41.4364 22.2214 41.2098 22.8112V22.7545L41.1305 20.7925C41.0853 19.5451 40.275 18.7172 39.0395 18.7172C38.4899 18.7172 37.9854 18.893 37.5323 19.1935C37.504 19.1311 37.4813 19.0742 37.4529 19.012L37.3509 18.7737L35.0332 18.6546C35.1352 19.0742 35.2883 20.2594 35.311 20.6734C35.1862 20.0836 34.8576 19.4316 34.2512 18.9553C33.7754 18.6548 33.169 18.479 32.54 18.479C31.6842 18.479 30.8003 18.8362 30.2224 19.4316C29.6161 20.0212 29.3156 20.8548 29.2874 21.8018C29.0608 21.5636 28.7605 21.3311 28.409 21.2121L27.3494 20.6734H27.2984C27.0492 20.5542 27.0208 20.4975 27.0208 20.4408C27.0492 20.3217 27.2984 20.2026 27.6272 20.2026C28.0805 20.2026 28.7095 20.4408 29.2138 20.7357L29.2647 18.8362C28.885 18.6546 28.3581 18.5413 27.5988 18.5413C27.1964 18.5413 26.4428 18.598 25.7854 18.9551C25.6217 19.0673 25.4629 19.1865 25.3095 19.3125L25.3322 18.7736C24.7259 18.6602 24.0742 18.6602 23.2695 19.4314C23.2412 19.369 23.1901 19.0741 23.1392 18.9551L20.646 19.0742C20.8216 19.7831 20.8499 20.7924 20.799 21.6827L20.748 22.6352V22.7543C20.7196 23.2306 20.6971 23.7636 20.646 24.2399C20.442 23.582 20.221 22.6919 20.0396 21.9832L18.8044 16.4037L15.2798 16.9366C15.3025 16.9933 15.3535 17.1749 15.3819 17.3505C15.4047 17.5887 15.4047 18.065 15.076 19.0742C14.498 20.6734 13.6933 23.1115 12.9114 24.8295C12.8094 25.0677 12.6055 25.4249 12.6055 25.4249H15.3536C15.4047 25.0109 15.5803 24.2965 15.756 23.7634C16.1356 23.7634 17.116 23.7634 17.5691 23.701C17.6711 24.1206 17.7732 24.6535 17.8016 25.0107L17.8469 25.4247H23.3434C23.2187 24.5344 23.2696 23.3492 23.3151 22.6916C23.366 21.9204 23.519 21.3875 23.8478 21.0926C24.097 20.7921 24.3746 20.7354 24.5787 20.7354C24.5504 21.8013 25.2305 22.2777 25.8367 22.5725L26.9189 23.111C27.2986 23.3492 27.2986 23.4059 27.2986 23.525C27.2759 23.7008 26.9698 23.7633 26.6923 23.7633C26.1144 23.7633 25.3323 23.4059 24.4767 22.4591L24.4257 24.9483C25.1058 25.3055 25.9614 25.4812 26.7208 25.4812C27.9788 25.4812 29.3159 24.8914 29.6674 23.7631C30.2963 24.9481 31.5316 25.4812 32.7443 25.4812C33.8263 25.4822 34.6309 25.1305 35.3393 24.3539ZM16.4133 21.9212C16.5663 21.5074 16.6908 21.15 16.9175 20.498C17.0705 21.15 17.1441 21.564 17.2179 21.8645C16.9175 21.9212 16.7646 21.9212 16.4133 21.9212ZM31.8374 21.2691C31.8374 20.4413 32.1377 20.0841 32.4382 20.0841C32.5402 20.0841 32.7668 20.0217 32.8686 20.4413C32.9196 20.6171 32.9422 20.7362 32.9422 20.7929C32.9422 21.0311 32.8177 21.0933 32.6647 21.0933V21.15C32.6647 21.15 32.2397 21.2691 31.8374 21.4505V21.2691ZM34.7102 22.9929C34.1774 23.4636 33.7979 23.7641 33.169 23.7641C32.6647 23.7016 32.3643 23.4067 32.1886 22.9929C32.7157 22.8115 34.7555 22.0403 35.3391 21.8021C35.3391 22.2784 35.362 22.8113 35.362 22.8113V23.8207L34.7102 22.9929ZM44.1052 23.8209C43.6294 23.8209 43.5272 23.4636 43.5045 23.2311C43.5272 22.9929 43.6008 22.6357 44.36 22.3976C44.3738 22.5756 44.3908 22.7533 44.4109 22.9306V23.1687C44.4338 23.35 44.4338 23.5258 44.4563 23.7016C44.3602 23.7641 44.2356 23.7641 44.1052 23.8209Z" fill="#9C824A"/>
<path d="M28.834 19.1314C28.5847 19.0748 28.2051 18.9556 27.5988 18.9556C27.1228 18.9556 26.4938 19.0748 26.0121 19.313C25.4568 19.6701 25.0544 20.1408 25.0317 20.6795C24.9808 21.5074 25.4114 21.8646 26.0403 22.1595C26.4653 22.3977 26.8733 22.6358 27.1227 22.7549C27.4513 22.9307 27.7516 23.112 27.7289 23.526C27.7007 23.9401 27.321 24.2405 26.6921 24.2405C26.165 24.2405 25.4114 23.8834 24.8788 23.4069L24.8561 24.6544C25.3094 24.8926 26.0403 25.0116 26.7203 25.0116C27.8763 25.0116 29.3155 24.4786 29.3382 23.1687C29.3665 22.1595 28.6583 21.8021 28.2333 21.5697C27.8027 21.3883 27.3719 21.1502 27.1738 21.0934C26.9697 20.9743 26.5674 20.8553 26.5958 20.3789C26.6411 19.965 27.1228 19.7835 27.6271 19.7835C28.0521 19.7835 28.4827 19.9026 28.8113 20.084M18.4813 16.937L15.8068 17.2942C15.8579 17.6515 15.7559 18.3603 15.4782 19.1937C14.9286 20.7927 14.0219 23.4633 13.3135 25.0112H14.9796C15.0759 24.4727 15.2005 24.002 15.4555 23.3499L17.9262 23.2875C18.0225 23.7638 18.2038 24.535 18.2265 25.0112H20.4704C20.1928 24.3536 19.8415 22.9926 19.615 22.04L18.4813 16.937ZM15.8068 22.3351L17.0194 18.8365L17.7505 22.2784M24.8789 19.1314L24.828 20.3222C24.4256 20.2599 23.9214 20.3789 23.5191 20.7929C23.1676 21.1501 22.9411 21.6832 22.8901 22.6358C22.8391 23.4069 22.8164 24.2972 22.8617 25.0116H20.9747C21.0993 24.2972 21.1504 23.4692 21.173 22.6926L21.2239 21.7456C21.2748 20.9744 21.2748 20.2033 21.1503 19.4889L22.8162 19.4322C22.89 19.6705 22.9409 20.0843 22.9127 20.4982C23.6436 19.3695 24.3519 19.1314 24.8789 19.1314ZM48.644 17.2942L46.927 16.9937C47.1028 17.7706 47.1537 18.3036 47.2557 19.0746L47.6582 22.8114C47.7374 23.5826 47.8112 24.2971 47.7884 25.0114H49.6528C49.4714 24.2971 49.3978 23.5826 49.324 22.8114M40.9547 25.0114C40.8583 24.2971 40.8072 23.5826 40.7788 22.8114L40.7052 20.8552C40.6542 19.7835 40.048 19.1939 39.0392 19.1939C38.4897 19.1939 37.8322 19.3697 37.277 20.084C37.2544 19.9026 37.175 19.4319 37.0731 19.1939L35.5659 19.1314C35.6904 19.8459 35.7415 20.5547 35.764 21.3259L35.7925 22.8114C35.8151 23.5826 35.7925 24.2971 35.7415 25.0114H37.6284C37.532 24.2971 37.4811 23.5826 37.4527 22.8114L37.4017 21.1501C37.379 20.5547 37.8323 20.1407 38.2858 20.1407C38.8127 20.1407 39.0677 20.4978 39.0905 21.031L39.1697 22.8114C39.1925 23.5826 39.1925 24.2971 39.1414 25.0114M46.8534 25.0114C46.6268 24.416 46.5021 23.7017 46.451 22.9305L46.3488 21.7453C46.2468 20.3221 45.6465 19.3695 43.323 19.3695C42.9207 19.3695 42.3427 19.4319 41.8669 19.5453L41.9405 20.617C42.4163 20.3221 42.8982 20.084 43.5044 20.084C44.1333 20.084 44.6604 20.3789 44.7115 21.269C44.1051 21.3315 43.5498 21.4448 42.9208 21.7453C42.2183 22.0402 41.4872 22.6356 41.5608 23.5824C41.6344 24.6541 42.4447 25.1303 43.4535 25.1303C44.2354 25.1303 44.7624 24.7732 45.0627 24.416C45.1137 24.6541 45.193 24.8299 45.2666 25.0114H46.8534ZM44.1051 24.2402C43.5496 24.2402 43.0966 23.9397 43.0738 23.2877C43.0738 22.6356 43.4762 22.1026 44.7624 21.9211L44.8362 22.9305C44.8644 23.2877 44.8644 23.5259 44.9154 23.8208C44.7343 24.0588 44.4338 24.178 44.1051 24.2402ZM34.0018 19.3128C33.5714 19.0123 33.067 18.8932 32.5401 18.8932C31.3048 18.8932 29.6671 19.7835 29.718 22.0402C29.7407 24.3537 31.5087 25.0681 32.744 25.0681C33.8262 25.0681 34.4837 24.6541 35.0104 24.1211L34.6307 23.5824C34.3533 23.8206 33.8998 24.1778 33.1689 24.1778C32.3868 24.1211 31.8882 23.5824 31.6105 22.7545L35.0331 21.5071C34.9311 20.3789 34.5289 19.7268 34.0018 19.3128ZM32.8176 21.5072L31.4576 22.0402C31.4293 21.8021 31.4066 21.5639 31.4066 21.269C31.4066 19.9025 32.1603 19.6644 32.4151 19.6644C32.8176 19.6077 33.1689 19.8458 33.299 20.3221C33.4465 20.8552 33.3956 21.3315 32.8176 21.5072ZM24.7542 36.9644L25.9044 35.2122L29.9957 37.8885L28.8453 39.6462L24.7542 36.9644Z" fill="white"/>
<path d="M24.374 36.3632L25.1674 35.1498L30.3635 38.5575L29.5701 39.7711L24.374 36.3632Z" fill="#9C824A"/>
<path d="M33.4863 42.5439L34.6365 40.786L38.7276 43.4681L37.5774 45.226L33.4863 42.5439Z" fill="white"/>
<path d="M33.1064 41.9428L33.8998 40.7295L39.0961 44.1372L38.3027 45.3451L33.1064 41.9428Z" fill="#9C824A"/>
</svg>
