<svg width="85" height="74" viewBox="0 0 85 74" fill="none" xmlns="http://www.w3.org/2000/svg">
<g clip-path="url(#clip0_937_1707)">
<path fill-rule="evenodd" clip-rule="evenodd" d="M21.7395 73.3982H63.6583L84.6177 37.1595L63.6583 1.05678L21.8754 0.920898L0.916016 37.1595L21.7395 73.3982Z" fill="#050902"/>
<path fill-rule="evenodd" clip-rule="evenodd" d="M9.0293 37.1597L25.932 7.81689H59.4655L76.3682 37.0256L59.6014 66.5024H25.864L9.0293 37.1597Z" fill="white"/>
<path fill-rule="evenodd" clip-rule="evenodd" d="M26.4718 9.16846H59.1508L75.1971 37.2043L58.9702 65.3295H26.6971L10.3809 37.2043L26.4718 9.16846Z" fill="#F49728"/>
<path fill-rule="evenodd" clip-rule="evenodd" d="M38.9585 63.1681L34.1795 47.5723L19.3955 38.7366L34.9912 11.5125L39.4985 24.3137H47.8819L51.9386 11.4231L66.6332 39.6395L51.3522 47.5723L46.8896 63.2128L38.9585 63.1681Z" fill="#050902"/>
<path fill-rule="evenodd" clip-rule="evenodd" d="M32.9404 42.0727V35.0195L39.4305 42.0727H32.9404Z" fill="white"/>
<path fill-rule="evenodd" clip-rule="evenodd" d="M52.9412 42.0228V34.9678L46.4512 42.0228H52.9412Z" fill="white"/>
</g>
<defs>
<clipPath id="clip0_937_1707">
<rect width="83.7016" height="72.4773" fill="white" transform="translate(0.916016 0.920898)"/>
</clipPath>
</defs>
</svg>
