<svg width="73" height="73" viewBox="0 0 73 73" fill="none" xmlns="http://www.w3.org/2000/svg">
<g clip-path="url(#clip0_937_1489)">
<path d="M62.3615 62.3011C76.5138 48.1488 76.5138 25.2033 62.3615 11.051C48.2092 -3.10136 25.2637 -3.10136 11.1114 11.051C-3.04094 25.2033 -3.04094 48.1488 11.1114 62.3011C25.2637 76.4534 48.2092 76.4534 62.3615 62.3011Z" fill="#004E9E"/>
<path d="M10.7493 36.8985C10.8714 51.1497 22.4584 62.6644 36.7398 62.6644C51.0921 62.6644 62.7276 51.0289 62.7276 36.6766C62.7281 35.1143 62.5888 33.5551 62.3113 32.0177L62.3035 31.931C62.8839 32.0558 63.522 32.1936 64.1878 32.346C66.7681 32.9316 69.0069 33.3754 69.6123 33.2743C70.2176 33.1732 69.8749 32.8108 69.0069 32.367C67.4045 31.5924 65.7381 30.958 64.0263 30.4708C63.2384 30.2437 62.4505 30.0178 61.8189 29.8313L61.79 29.7342C58.7502 18.7513 48.6891 10.6875 36.7398 10.6875C23.3552 10.6875 12.3343 20.805 10.9069 33.8101L10.8819 33.9598C10.0941 34.0911 9.06197 34.2329 7.82633 34.3629C4.3781 34.7266 3.46286 34.6583 3.36963 34.8474C3.22781 35.1298 3.62568 35.8126 5.02284 36.2787C5.91181 36.5768 8.1139 36.8276 10.7401 36.7318L10.7493 36.8985ZM71.5951 36.6792C71.5951 55.9308 55.9887 71.5371 36.7372 71.5371C17.4856 71.5371 1.87793 55.9282 1.87793 36.6792C1.87793 17.4303 17.4843 1.81738 36.7398 1.81738C55.9953 1.81738 71.5951 17.4237 71.5951 36.6792Z" fill="white"/>
<path d="M51.7221 39.0007C52.229 38.9587 52.3275 38.5779 52.3275 38.5779C52.3275 38.5779 52.1056 38.1945 51.7025 38.1748C51.2993 38.1551 51.0564 38.5779 51.0564 38.5779C51.0564 38.5779 51.2389 39.0427 51.7221 39.0007ZM55.517 41.191C53.0379 41.5271 50.0361 42.6617 47.7237 43.3261C45.3036 44.0221 42.6722 44.9018 39.8293 44.7784C36.9864 44.655 33.6892 43.8106 30.9001 43.2959C28.111 42.7812 26.6049 42.4187 24.3674 42.9637C22.1298 43.5086 21.2527 44.1691 19.8608 44.1455C17.9026 44.1047 16.037 43.3042 14.6582 41.9132C13.1153 40.3375 12.7214 38.8576 13.2663 38.1918C13.8112 37.5261 15.257 37.857 18.1668 38.2023C21.7359 38.6265 24.6589 38.4046 26.4395 37.9607C28.22 37.5169 31.017 36.771 31.017 36.771C31.8442 37.4959 32.2263 37.3147 32.2263 37.3147C32.2263 37.3147 31.5816 36.6292 29.8063 35.7389C28.031 34.8486 25.0686 35.0942 22.2047 35.3358C19.3408 35.5774 15.777 36.1316 12.0819 36.364C9.06171 36.5964 6.18074 36.3193 5.12894 35.97C4.40541 35.7284 3.97471 35.4133 3.78825 35.2111C3.72391 35.1415 3.72785 35.0679 3.85128 35.0548C4.0535 35.0325 4.3437 35.0102 4.67591 34.9852C5.35348 34.934 6.38296 34.8657 7.86153 34.7003C13.3924 34.087 16.578 33.1994 19.9868 32.1712C24.2531 30.8844 29.0473 29.2482 31.4805 29.0657C33.5815 28.9108 34.1632 29.1471 36.7238 30.6795C39.4156 32.2907 41.4418 33.831 42.8954 34.7725C43.4719 35.1507 44.1914 35.6024 44.9097 36.0042C45.8158 36.5084 46.1322 36.2602 46.1322 36.2602C44.7495 35.6129 43.0096 34.456 42.2546 33.9387C42.2546 33.9387 44.1783 32.921 45.8565 32.074C47.5346 31.2271 50.5154 29.9113 52.6623 29.3822C53.8192 29.0972 54.7764 28.8897 56.2169 28.9593C57.5931 29.0499 59.1806 29.394 60.7761 29.8115C61.4484 29.9875 62.6801 30.3696 63.9459 30.7307C65.1719 31.0841 66.3763 31.5086 67.553 32.0018C68.1321 32.2447 68.5891 32.4522 68.878 32.6059C69.2719 32.8173 69.5345 32.9223 69.5345 33.0064C69.5345 33.0904 69.377 33.0628 68.4998 32.9302C67.5938 32.7989 66.1703 32.5152 64.2453 32.078C61.69 31.4989 59.5181 31.0721 59.4984 31.0682C58.3455 30.8515 57.0035 31.4057 55.6602 32.0268C53.99 32.8045 52.3777 33.701 50.8358 34.7095C50.3752 35.0216 49.8894 35.2948 49.3835 35.5262C51.319 35.496 53.0129 36.7973 53.9505 37.5235C54.8881 38.2496 55.4632 38.7053 55.978 38.8234L56.0725 38.8431L56.083 38.9232C56.101 39.0446 56.0862 39.1685 56.04 39.2822C55.9938 39.3958 55.918 39.495 55.8204 39.5693C55.3962 39.8516 54.5296 40.0538 53.8034 40.0538C53.3604 40.0565 52.9246 40.1669 52.5337 40.3755C52.5337 40.3755 53.5408 40.3362 54.267 40.5174C54.8093 40.6487 55.2163 40.822 55.4553 41.0833L55.517 41.1949" fill="white"/>
<path d="M56.0825 38.9195C56.1006 39.0408 56.0857 39.1647 56.0395 39.2784C55.9933 39.392 55.9175 39.4912 55.8199 39.5655C55.3958 39.8478 54.5291 40.05 53.803 40.05C53.3599 40.0527 52.9241 40.1632 52.5332 40.3718C52.5332 40.3718 53.5404 40.3324 54.2665 40.5136C54.8088 40.6449 55.2159 40.8182 55.4549 41.0795L55.5166 41.1911C55.6322 41.1754 55.7464 41.1609 55.8593 41.1491C58.4002 40.876 60.0337 41.4209 60.0337 41.4209C60.0337 41.4209 60.1243 40.3022 58.7337 39.6062C57.4206 38.9497 56.5973 38.9392 56.076 38.8394L56.0825 38.9195Z" fill="#F8AD00"/>
<path d="M25.5977 64.1234L24.4474 65.4365L25.4887 65.8606L25.5977 64.1234ZM25.3719 67.4744L25.427 66.6327L23.9379 66.0261L23.3838 66.6656L22.5303 66.3176L25.7592 62.7485L26.4 63.0112L26.2254 67.8224L25.3719 67.4757" fill="#004E9E"/>
<path d="M27.9053 68.3056L28.9453 63.9041L29.804 64.1076L28.9453 67.7423L30.9425 68.2137L30.7613 68.9805L27.9053 68.3056Z" fill="#004E9E"/>
<path d="M34.6769 65.6765L33.8155 65.6108L33.7354 66.6495L34.5968 66.7151C34.971 66.7427 35.1955 66.5497 35.2192 66.2398C35.2428 65.9299 35.0498 65.6988 34.6769 65.6765ZM34.5928 67.5148L33.6736 67.4439L33.5896 68.5535L34.5088 68.6231C34.9027 68.6533 35.1168 68.4143 35.1404 68.111C35.164 67.8077 34.992 67.545 34.5928 67.5148ZM34.5377 69.4149L32.6494 69.2705L32.9948 64.7612L34.8055 64.9004C35.6866 64.9674 36.162 65.5005 36.1029 66.2726C36.0893 66.4641 36.0235 66.6483 35.9126 66.805C35.8017 66.9617 35.65 67.0851 35.4739 67.1616C35.6614 67.2625 35.8137 67.418 35.9108 67.6075C36.0079 67.797 36.0451 68.0115 36.0175 68.2226C35.9532 69.0643 35.3413 69.4766 34.5377 69.4149Z" fill="#004E9E"/>
<path d="M38.566 64.9066L37.6846 64.9492L37.9031 69.4663L38.7845 69.4237L38.566 64.9066Z" fill="#004E9E"/>
<path d="M42.3859 65.4126C42.3022 65.3473 42.2053 65.3009 42.1019 65.2766C41.9986 65.2524 41.8912 65.2508 41.7871 65.2721C41.6806 65.2872 41.5785 65.325 41.4879 65.383C41.3973 65.441 41.3202 65.5178 41.2619 65.6083C41.1306 65.8263 41.1187 66.0403 41.2684 66.8978C41.4181 67.7552 41.4982 67.9482 41.7005 68.1111C41.7855 68.1763 41.8836 68.2224 41.988 68.2464C42.0924 68.2704 42.2008 68.2717 42.3058 68.2503C42.4107 68.2348 42.511 68.1969 42.5998 68.1391C42.6886 68.0813 42.7639 68.005 42.8205 67.9154C42.9519 67.6974 42.9702 67.4821 42.8205 66.6246C42.6709 65.7672 42.5829 65.5676 42.3859 65.4126ZM43.5677 68.3277C43.2998 68.6972 42.8986 68.9479 42.449 69.0266C41.9995 69.1053 41.5369 69.0058 41.1595 68.7492C40.6342 68.3789 40.5449 67.8196 40.4097 67.0501C40.2744 66.2806 40.1641 65.7251 40.541 65.196C40.8097 64.8322 41.2083 64.586 41.6538 64.5085C42.0994 64.4309 42.5577 64.5281 42.9335 64.7797C43.4587 65.1513 43.5533 65.7094 43.6885 66.4802C43.8238 67.251 43.9275 67.8051 43.5572 68.3343" fill="#004E9E"/>
<path d="M48.6641 67.2602L46.0445 65.2486L46.9781 67.863L46.1469 68.1597L44.625 63.9013L45.3669 63.6361L47.9853 65.6412L47.0529 63.0333L47.8841 62.7366L49.406 66.995L48.6641 67.2602Z" fill="#004E9E"/>
<path d="M11.7455 19.9857L11.2399 20.7552L12.1683 21.3657L12.6739 20.5963C12.8945 20.2627 12.7868 19.9633 12.532 19.7966C12.2773 19.6298 11.9648 19.6521 11.7455 19.9857ZM10.1803 19.0245L9.70491 19.7467L10.5755 20.3192L11.0509 19.597C11.257 19.2845 11.1966 18.9943 10.9366 18.8236C10.6766 18.6529 10.3864 18.7119 10.1803 19.0245ZM13.3816 20.9547L12.3416 22.537L8.5625 20.0526L9.55784 18.5334C10.0424 17.7967 10.7396 17.6391 11.387 18.0646C11.5477 18.1692 11.6767 18.3158 11.76 18.4884C11.8433 18.6611 11.8778 18.8533 11.8597 19.0442C12.0387 18.9291 12.2485 18.8712 12.4611 18.878C12.6738 18.8848 12.8794 18.956 13.0507 19.0822C13.7572 19.5471 13.8215 20.2811 13.379 20.9547" fill="#004E9E"/>
<path d="M13.3493 15.0128L12.7859 15.6261L13.6657 16.4323L14.229 15.8191C14.4917 15.5341 14.4798 15.1796 14.229 14.9432C13.9782 14.7069 13.6106 14.72 13.3493 15.0128ZM16.5651 17.0311L14.6387 16.4573L14.2093 16.926L15.5382 18.1446L14.9421 18.8012L11.6094 15.7377L12.8069 14.4246C13.4293 13.7457 14.2619 13.768 14.8199 14.2801C15.0166 14.4504 15.1535 14.6793 15.2105 14.9331C15.2674 15.187 15.2415 15.4524 15.1364 15.6904L17.2558 16.2655L16.5651 17.018" fill="#004E9E"/>
<path d="M15.8764 11.5252L15.2051 12.0979L18.1403 15.5383L18.8116 14.9655L15.8764 11.5252Z" fill="#004E9E"/>
<path d="M22.0169 12.0873C21.9736 12.3204 21.8817 12.5419 21.7474 12.7374C21.613 12.9328 21.4391 13.0978 21.2369 13.2218C21.0512 13.3516 20.8408 13.4418 20.6187 13.487C20.3967 13.5322 20.1678 13.5313 19.9461 13.4844C19.6876 13.4351 19.45 13.3088 19.2646 13.122C19.009 12.8452 18.7796 12.5454 18.5792 12.2265C18.3642 11.9178 18.1774 11.5903 18.0211 11.2482C17.9201 11.0043 17.8963 10.7353 17.9528 10.4774C17.996 10.2552 18.0842 10.0443 18.212 9.85749C18.3398 9.67072 18.5046 9.51211 18.696 9.39145C19.5535 8.82156 20.3794 9.06711 20.9152 9.65407L20.1733 10.1465C19.8411 9.84054 19.4957 9.80245 19.1307 10.0454C19.0399 10.1006 18.9625 10.1753 18.9042 10.2641C18.8458 10.3529 18.8079 10.4536 18.7932 10.5588C18.7709 10.8214 18.8208 10.9895 19.3184 11.7406C19.8161 12.4917 19.9409 12.6086 20.2048 12.6847C20.3072 12.7123 20.4146 12.7163 20.5188 12.6962C20.623 12.6762 20.7213 12.6328 20.8062 12.5692C20.9063 12.5087 20.9924 12.4275 21.0585 12.331C21.1246 12.2345 21.1694 12.125 21.1896 12.0098C21.2124 11.7913 21.154 11.5721 21.0255 11.3939L20.931 11.2508L20.2376 11.7104L19.8306 11.0972L21.2448 10.1544L21.6098 10.7046C21.9801 11.2495 22.0931 11.6395 22.0169 12.0873Z" fill="#004E9E"/>
<path d="M25.9 10.6783L25.1239 8.95157L23.7281 9.57924L24.5041 11.306L23.6992 11.6684L21.8438 7.54391L22.6487 7.18149L23.4077 8.86753L24.8035 8.23855L24.0445 6.55383L24.8508 6.19141L26.7049 10.3159L25.9 10.6783Z" fill="#004E9E"/>
<path d="M28.7522 5.7988L29.7357 9.40198L28.8835 9.6344L27.9 6.03122L26.7602 6.34242L26.5527 5.58213L29.6845 4.72729L29.892 5.48759L28.7522 5.7988Z" fill="#004E9E"/>
<path d="M33.4972 5.15519C33.4171 5.0853 33.3228 5.03361 33.2208 5.00369C33.1188 4.97376 33.0115 4.96632 32.9063 4.98186C32.7997 4.99188 32.6966 5.02461 32.6037 5.07784C32.5108 5.13106 32.4304 5.20355 32.3679 5.29044C32.2195 5.49922 32.2012 5.71326 32.3049 6.57729C32.4086 7.44132 32.4769 7.64354 32.6699 7.81293C32.7513 7.88241 32.8466 7.93371 32.9494 7.96337C33.0522 7.99304 33.1602 8.00039 33.2661 7.98495C33.3719 7.97527 33.4743 7.9428 33.5663 7.88976C33.6584 7.83671 33.7378 7.76436 33.7992 7.67768C33.9463 7.46758 33.9712 7.25354 33.8688 6.38951C33.7664 5.52548 33.6902 5.32326 33.4972 5.15519ZM34.507 8.12939C34.2192 8.484 33.8046 8.71262 33.3512 8.76679C32.8977 8.82096 32.441 8.69643 32.0777 8.41959C31.5696 8.02565 31.5157 7.45707 31.4212 6.68234C31.3266 5.9076 31.2478 5.3469 31.6483 4.83741C31.9363 4.48346 32.3505 4.2553 32.8036 4.20115C33.2567 4.147 33.713 4.27109 34.0763 4.54721C34.5845 4.94115 34.6462 5.50841 34.7328 6.28446C34.8195 7.06051 34.8996 7.62121 34.5004 8.12282" fill="#004E9E"/>
<path d="M38.9629 8.59837L37.2978 5.74497L37.1744 8.51827L36.292 8.47887L36.4942 3.96045L37.2821 3.9959L38.9471 6.84273L39.0705 4.076L39.953 4.11671L39.7507 8.63382L38.9629 8.59837Z" fill="#004E9E"/>
<path d="M45.5369 5.89831C45.4904 5.87982 45.4405 5.87162 45.3906 5.87429C45.3407 5.87696 45.2919 5.89044 45.2477 5.91379C45.2035 5.93713 45.1649 5.9698 45.1346 6.00952C45.1043 6.04925 45.0829 6.09508 45.072 6.14387C45.026 6.30275 45.114 6.49447 45.2138 6.71638C45.286 6.698 45.4331 6.64942 45.4331 6.64942C45.5135 6.63483 45.589 6.60057 45.6529 6.54971C45.7169 6.49884 45.7672 6.43295 45.7995 6.3579C45.8158 6.31053 45.8218 6.26021 45.8172 6.21031C45.8125 6.16042 45.7972 6.1121 45.7723 6.06858C45.7475 6.02507 45.7136 5.98737 45.673 5.95801C45.6324 5.92865 45.586 5.90829 45.5369 5.89831ZM44.7214 7.55021C44.4049 7.65526 44.1778 7.77344 44.0859 8.08334C44.0619 8.16743 44.0553 8.25553 44.0665 8.34225C44.0776 8.42898 44.1063 8.51254 44.1508 8.58783C44.1952 8.66313 44.2545 8.72859 44.3251 8.78024C44.3957 8.83189 44.476 8.86865 44.5612 8.88827C44.6799 8.92553 44.8048 8.93902 44.9287 8.92798C45.0526 8.91694 45.1732 8.88158 45.2834 8.82393L44.7214 7.55021ZM45.8021 9.99917L45.5973 9.52776C45.2086 9.71373 44.7631 9.74243 44.3537 9.60786C43.3991 9.32423 43.0721 8.68868 43.3138 7.86798C43.4792 7.31385 43.9874 7.07355 44.4391 6.93699C44.3222 6.68356 44.1568 6.30275 44.2802 5.8865C44.4562 5.2956 45.0129 5.00408 45.7378 5.21943C46.4193 5.42165 46.7173 5.98104 46.5414 6.57194C46.4416 6.90679 46.1987 7.0788 45.873 7.19436C45.873 7.19436 45.6275 7.28759 45.4961 7.32567L45.9689 8.40767C46.1833 8.22527 46.3384 7.98291 46.414 7.71172L47.1638 7.93495C46.9668 8.48646 46.7068 8.89221 46.3011 9.14302L46.8066 10.2933L45.8021 9.99523" fill="#004E9E"/>
<path d="M51.6301 12.774L52.5887 11.1418L51.269 10.367L50.3104 11.9992L49.5488 11.5515L51.8389 7.65283L52.6005 8.09929L51.6643 9.69341L52.9839 10.4681L53.9202 8.87403L54.6818 9.3218L52.3917 13.2217L51.6301 12.774Z" fill="#004E9E"/>
<path d="M57.4171 12.6702C57.4125 12.5643 57.385 12.4606 57.3365 12.3663C57.288 12.272 57.2196 12.1893 57.1361 12.124C57.0556 12.0535 56.9611 12.001 56.8587 11.97C56.7564 11.939 56.6486 11.9302 56.5426 11.9441C56.2891 11.9808 56.121 12.1148 55.5643 12.7832C55.0075 13.4515 54.9077 13.6419 54.9182 13.898C54.9237 14.0049 54.9519 14.1094 55.0011 14.2046C55.0502 14.2997 55.1191 14.3832 55.2032 14.4495C55.2836 14.5182 55.3779 14.5689 55.4796 14.5981C55.5813 14.6273 55.6881 14.6344 55.7928 14.6189C56.0462 14.5821 56.2195 14.4534 56.775 13.7837C57.3304 13.1141 57.4276 12.9263 57.4171 12.6702ZM55.9543 15.4527C55.4988 15.4881 55.0475 15.3445 54.6961 15.0525C54.3448 14.7605 54.1211 14.3431 54.0726 13.8888C54.0135 13.2441 54.3851 12.8186 54.8841 12.2172C55.3831 11.6158 55.735 11.1733 56.3797 11.1142C56.6061 11.0912 56.8347 11.1151 57.0514 11.1845C57.2681 11.2538 57.4681 11.3671 57.639 11.5173C57.8172 11.6573 57.9644 11.8327 58.0714 12.0325C58.1783 12.2323 58.2425 12.4522 58.2601 12.6781C58.3192 13.3228 57.9528 13.7535 57.4525 14.3536C56.9522 14.9537 56.5964 15.3936 55.953 15.4527" fill="#004E9E"/>
<path d="M57.9711 18.1958L57.5312 17.702L59.9146 13.5789L60.5225 14.2617L58.9271 16.901L61.7319 15.6181L62.3451 16.3049L57.9711 18.1958Z" fill="#004E9E"/>
<path d="M59.5195 20.0829L63.3 17.6011L64.9348 20.092L64.2756 20.5241L63.1253 18.7711L62.239 19.3541L63.2186 20.8458L62.5594 21.2778L61.5798 19.7861L60.6619 20.3888L61.8122 22.1405L61.1544 22.5738L59.5195 20.0829Z" fill="#004E9E"/>
</g>
<defs>
<clipPath id="clip0_937_1489">
<rect width="72.4773" height="72.4773" fill="white" transform="translate(0.49707 0.437256)"/>
</clipPath>
</defs>
</svg>
