<svg width="105" height="44" viewBox="0 0 105 44" fill="none" xmlns="http://www.w3.org/2000/svg">
<g clip-path="url(#clip0_1068_7148)">
<path d="M75.7209 5.00694C79.5059 1.93245 84.1895 0.174779 89.0627 0C89.1563 1.83597 89.2664 3.67469 89.2829 5.50516C86.8037 5.5966 84.3728 6.21793 82.1537 7.32737C80.2021 7.76778 78.2065 8.11461 76.3926 8.97892C74.7099 9.66636 73.1549 10.6323 71.793 11.8361C69.8097 13.7094 68.3949 16.104 67.7109 18.7451C67.8349 17.6846 68.074 16.6407 68.4239 15.6319C69.7924 11.4636 72.3289 7.77589 75.732 5.00694H75.7209Z" fill="#016CBA"/>
<path d="M65.3548 3.91389C66.9375 4.8883 68.6579 5.60672 70.2819 6.51507C68.7295 9.24839 68.1569 12.5129 68.4129 15.6316C68.0668 16.6408 67.8315 17.6847 67.711 18.7448C67.0091 21.9736 67.3284 25.4666 68.9442 28.3788C69.7699 30.0524 71.0857 31.3764 72.3711 32.6949C70.9208 31.6607 69.592 30.4658 68.4102 29.133C64.9527 25.1568 62.9835 20.1033 62.839 14.8361C62.7315 11.0381 63.6016 7.27622 65.3658 3.91113L65.3548 3.91389Z" fill="#01AB55"/>
<path d="M82.1537 7.33802C87.4332 6.68015 92.9631 7.73439 97.4663 10.6411C100.423 12.4468 102.828 15.0452 104.714 17.9189C103.139 18.8741 101.576 19.8457 100.018 20.8284C98.3664 18.3208 96.2056 16.116 93.5301 14.7232C92.5188 13.5298 91.3693 12.4608 90.1059 11.5385C87.804 9.63384 84.9613 8.5014 81.9803 8.30142C80.0865 8.13902 78.2175 8.57668 76.3926 9.01434C78.2065 8.13902 80.2021 7.79219 82.1537 7.36279V7.33802Z" fill="#2D3E50"/>
<path d="M76.3934 9.00109C78.2184 8.55241 80.0874 8.12576 81.9812 8.28817C84.9622 8.48815 87.8048 9.62058 90.1068 11.5252C90.6215 12.1473 91.2078 12.7033 91.7583 13.2979C94.5109 16.5817 95.4633 21.1565 94.643 25.3184C94.3626 26.826 93.9594 28.3081 93.4374 29.75C91.9357 33.4197 89.5238 36.6463 86.4293 39.1253C82.4234 42.3167 77.444 44.0374 72.3224 44.0001C72.3224 42.1724 72.2756 40.3392 72.3609 38.5115C75.0502 38.462 77.7752 37.8949 80.1562 36.615C80.6764 36.3397 81.1747 36.0232 81.6701 35.7011C78.323 35.891 75.0116 34.7157 72.3692 32.698C71.0837 31.3796 69.7625 30.0556 68.9422 28.382C67.3264 25.467 67.0154 21.974 67.709 18.748C68.3933 16.1056 69.8091 13.71 71.7939 11.8362C73.1574 10.6402 74.7123 9.68183 76.3934 9.00109ZM79.3359 13.9557C75.9007 14.7347 73.0408 17.8369 72.9417 21.4207C72.4545 25.7065 76.0466 29.8436 80.3021 30.1712C81.6842 30.3112 83.0792 30.0987 84.357 29.5536C85.6347 29.0085 86.7535 28.1485 87.6089 27.054C88.4643 25.9594 89.0285 24.6659 89.2487 23.2943C89.4689 21.9227 89.3379 20.5177 88.8681 19.2104C87.5689 15.4146 83.2391 13.0281 79.3359 13.9585V13.9557Z" fill="#582FF5"/>
<path d="M90.1071 11.5254C91.3705 12.4477 92.5199 13.5168 93.5313 14.7101C96.6814 18.3303 98.5894 22.864 98.9759 27.6473C99.3723 31.7458 98.4859 35.905 96.705 39.6045C95.114 38.798 93.5203 37.9942 91.8935 37.2648C91.9036 36.9279 91.9813 36.5966 92.122 36.2904C93.0055 34.2943 93.4818 32.1419 93.523 29.9594L93.4322 29.7778C93.9553 28.3287 94.3586 26.8391 94.6378 25.3241C95.4636 21.1622 94.5002 16.5874 91.7531 13.3036C91.2026 12.709 90.6218 12.153 90.1016 11.5309L90.1071 11.5254Z" fill="#EF0D19"/>
<path d="M34.9552 14.3303C34.2781 13.6366 35.0653 12.3787 35.9792 12.8632C36.7692 13.2678 36.4334 14.333 35.6737 14.5395L34.9552 14.3303ZM33.9506 14.6799C34.5506 13.9422 35.781 14.8368 35.3791 15.6625C35.1754 16.2516 34.4818 16.2131 34.0028 16.0562C33.7992 15.6405 33.4826 15.0377 33.9616 14.6799M36.0563 15.9488C35.2966 15.3295 36.2655 13.9725 37.072 14.5367C37.5454 14.7349 37.5151 15.2717 37.5564 15.6956C37.1573 16.0699 36.527 16.425 36.0563 15.9488ZM41.5945 14.6551C42.0899 14.0688 43.1414 14.6551 43.0258 15.3653C43.0135 15.5169 42.9622 15.6629 42.8769 15.7889C42.7916 15.9149 42.6752 16.0168 42.539 16.0846C42.4028 16.1525 42.2513 16.184 42.0994 16.1761C41.9474 16.1682 41.8 16.1212 41.6715 16.0396C41.5583 15.967 41.4639 15.8686 41.396 15.7524C41.3282 15.6362 41.2889 15.5055 41.2814 15.3712C41.2739 15.2368 41.2983 15.1026 41.3528 14.9796C41.4072 14.8565 41.49 14.7482 41.5945 14.6633M8.5635 16.8847H10.3664C10.4408 19.7474 10.1765 22.6376 10.5068 25.481C10.8802 25.5849 11.2786 25.5486 11.6271 25.3791C11.6106 22.5467 11.6271 19.7143 11.6271 16.8819C12.2523 16.8645 12.8781 16.8801 13.5016 16.9287C13.4438 19.0785 13.5016 21.231 13.4741 23.3808C13.4741 24.113 13.408 24.8727 13.6861 25.5828L14.4045 25.503C14.6632 24.6332 14.5641 23.7193 14.5724 22.8275C14.5724 20.8484 14.5724 18.8693 14.5724 16.8929H16.4028C16.4028 19.3345 16.4028 21.7733 16.4028 24.2148C16.4151 24.6643 16.4817 25.1107 16.601 25.5443L17.391 25.4727C17.5424 22.6266 17.4378 19.7721 17.4488 16.9232C18.0847 16.9012 18.7178 16.8929 19.3536 16.8929C19.3536 19.5189 19.3536 22.1449 19.3536 24.7736C19.3536 25.7783 18.8361 26.9041 17.8314 27.2509C17.0497 27.6087 16.1799 27.372 15.3954 27.1821C14.9365 27.356 14.446 27.4312 13.9561 27.4027C13.4661 27.3743 12.9877 27.2428 12.552 27.0169C11.4179 27.6197 9.75537 27.6528 8.97363 26.4664C7.94692 24.4983 9.31495 21.9797 7.87536 20.1603C7.40803 19.4702 6.69297 18.9866 5.87855 18.8098C5.06413 18.6329 4.2129 18.7765 3.5015 19.2106C1.64902 20.2704 1.21411 23.122 2.80785 24.5947C3.89237 25.7342 5.56043 25.6379 7.00829 25.6186C7.00829 26.2159 7.00829 26.8132 7.02205 27.4105C5.81367 27.4105 4.54473 27.5262 3.39966 27.0885C1.34073 26.3233 -0.142913 24.1928 -0.00253124 21.9714C-0.0190467 19.2684 2.44451 16.7911 5.17507 16.8654C6.40999 16.8339 7.61457 17.2504 8.56625 18.038C8.56625 17.6499 8.56625 17.2618 8.56625 16.8764M22.9622 16.9232C23.5904 16.8737 24.2207 16.8571 24.8505 16.8737C24.8505 19.4886 24.8257 22.1036 24.8505 24.7213C24.8505 26.6949 26.8957 28.2996 28.8142 27.9005C30.4328 27.6583 31.6604 26.0811 31.6687 24.4735C31.6687 21.9412 31.6687 19.406 31.6687 16.8737C32.3073 16.8737 32.9486 16.8737 33.5955 16.9177C33.5955 19.7694 33.4909 22.6266 33.6505 25.4727C33.9258 25.4507 34.4956 25.7232 34.5644 25.269C34.6552 22.4697 34.5176 19.6675 34.6277 16.8682C35.2388 16.8682 35.8526 16.8682 36.4637 16.8682C36.4637 19.4033 36.4637 21.9384 36.4637 24.4735C36.4336 24.902 36.5586 25.327 36.816 25.6709L37.5619 25.4177C37.5812 22.5743 37.5867 19.7308 37.5619 16.8847C38.195 16.8718 38.83 16.8718 39.4667 16.8847C39.4227 19.5106 39.4667 22.1394 39.4475 24.7653C39.4337 25.7755 38.919 26.8931 37.9143 27.2426C37.1353 27.5647 36.2627 27.3693 35.4892 27.1628C34.609 27.4926 33.6376 27.4828 32.7642 27.1353C32.3801 27.8561 31.8238 28.4707 31.1447 28.9246C30.4656 29.3784 29.6849 29.6573 28.872 29.7365C26.0534 30.1439 23.221 27.8537 23.0338 25.0131C22.9402 22.3155 23.0613 19.6152 22.9705 16.9177M41.2119 16.8406C41.8312 16.8654 42.4533 16.8737 43.0754 16.8737C43.0478 20.5098 43.0754 24.1487 43.0754 27.7849C43.0974 29.1006 42.4312 30.3008 41.5724 31.2559C41.0907 30.843 40.6173 30.4301 40.1549 29.9925C40.7527 29.3918 41.1126 28.5948 41.1678 27.7491C41.2339 24.1157 41.1265 20.474 41.2229 16.8406M44.9058 16.8682C45.5485 16.8503 46.1917 16.8668 46.8326 16.9177C46.7721 20.5291 46.8326 24.1405 46.8023 27.7546C46.7651 29.0543 46.2301 30.29 45.3077 31.2064C44.7985 30.8265 44.314 30.4191 43.8433 29.9952C44.5133 29.3372 44.8954 28.4405 44.9058 27.5014C44.9205 23.9561 44.9205 20.4117 44.9058 16.8682ZM50.9037 17.3196C52.1341 16.7085 53.5434 16.8737 54.8702 16.8984C54.8316 20.6089 54.8702 24.3304 54.8536 28.0326C54.8371 29.263 54.1875 30.3723 53.3673 31.2504C52.8911 30.8403 52.4176 30.4246 51.9579 30.0035C52.6287 29.3086 53.0011 28.379 52.9957 27.4133C50.2678 27.4794 47.8759 24.9745 47.9061 22.2797C47.7713 20.2043 49.0815 18.2334 50.9037 17.3251M49.9238 21.0714C49.098 23.078 50.7881 25.6461 52.9846 25.5773C52.9846 23.2899 52.9846 20.9998 52.9846 18.6959C51.5616 18.6518 50.433 19.8299 49.9238 21.0576M77.6202 18.3546L78.7213 17.8756C79.2112 19.1611 79.4039 20.5291 79.6599 21.8724C79.7315 22.4779 80.3425 22.6486 80.86 22.6981C81.7794 21.3769 80.6811 19.7804 80.6453 18.3408L81.8069 17.9472C82.129 19.1473 82.2749 20.3887 82.6107 21.5833C82.7428 22.0485 83.0814 22.5275 83.5961 22.6018C84.1659 22.566 84.3888 21.9522 84.3228 21.4567C84.1762 20.4386 83.8099 19.4646 83.2493 18.6023C83.6223 18.3585 84.0199 18.1546 84.4356 17.994C85.0412 19.1583 85.6192 20.3942 85.6826 21.7265C85.7199 22.2551 85.5554 22.7782 85.2224 23.1904C84.8894 23.6026 84.4125 23.8732 83.8879 23.9478C83.1584 24.0717 82.5501 23.5597 81.9941 23.1743C81.5014 23.9836 80.5628 24.0909 79.7425 23.7579C79.8573 24.7342 79.8978 25.7179 79.8636 26.7004H78.6387C78.6942 23.8843 78.3514 21.0746 77.6202 18.3546Z" fill="#582FF5"/>
<path d="M57.6016 27.5753C59.088 26.4523 60.7257 25.5494 62.2507 24.4814C63.76 26.8064 65.7984 28.741 68.199 30.127C69.3808 31.4598 70.7096 32.6547 72.16 33.6888C74.8024 35.7065 78.1138 36.8818 81.4609 36.6919C80.9655 37.0139 80.4672 37.3305 79.947 37.6058C72.3251 38.7261 64.1665 35.7505 59.2889 29.7471C58.6778 29.0617 58.1879 28.2855 57.6016 27.5753Z" fill="#FEF302"/>
</g>
<defs>
<clipPath id="clip0_1068_7148">
<rect width="104.716" height="44" fill="white"/>
</clipPath>
</defs>
</svg>
