<svg width="73" height="74" viewBox="0 0 73 74" fill="none" xmlns="http://www.w3.org/2000/svg">
<g clip-path="url(#clip0_937_1579)">
<path d="M72.9744 36.7727C72.9744 56.7886 56.7491 73.0111 36.7362 73.0111C16.7213 73.0115 0.49707 56.7883 0.49707 36.7727C0.49707 16.7595 16.7213 0.53418 36.7355 0.53418C56.7491 0.53418 72.9744 16.7595 72.9744 36.7727Z" fill="#DBA111"/>
<path d="M71.7643 36.7727C71.7643 56.1195 56.0815 71.8023 36.7344 71.8023C17.3872 71.8023 1.7041 56.1199 1.7041 36.7727C1.7041 17.4255 17.3876 1.74243 36.7347 1.74243C56.0812 1.74243 71.7643 17.4255 71.7643 36.7727Z" fill="#034694"/>
<path d="M61.6985 36.7727C61.6985 50.5601 50.5216 61.7346 36.7348 61.7346C22.9471 61.7346 11.7705 50.5598 11.7705 36.7727C11.7705 22.9842 22.9474 11.8083 36.7348 11.8083C50.5219 11.808 61.6985 22.9846 61.6985 36.7727Z" fill="#DBA111"/>
<path d="M60.9427 36.7728C60.9427 50.1433 50.1028 60.9811 36.7344 60.9811C23.3642 60.9811 12.5264 50.143 12.5264 36.7728C12.5264 23.403 23.3646 12.5645 36.7344 12.5645C50.1031 12.5648 60.9427 23.403 60.9427 36.7728Z" fill="white"/>
<path d="M15.9925 57.6578C16.26 57.9135 16.9195 58.5411 16.9195 58.5411L17.5512 57.8758L15.667 56.0801L15.4244 56.3337L12.8945 58.9861L13.8547 59.9009C13.8547 59.9009 14.6664 59.0501 14.9629 58.7401L15.8064 59.5431L16.4385 58.8795L15.596 58.0751C15.7535 57.9086 15.8334 57.8249 15.9925 57.6578ZM20.5364 60.6866C20.4513 60.1777 20.1655 59.7282 19.7337 59.422C19.5257 59.2719 19.29 59.1644 19.0403 59.1055C18.7906 59.0467 18.5317 59.0377 18.2785 59.0791C17.7308 59.1722 17.2385 59.4912 16.8918 59.977C16.5461 60.4652 16.4067 61.0347 16.4998 61.5845C16.5856 62.0917 16.8686 62.538 17.2997 62.8453C17.7308 63.1518 18.2508 63.2743 18.7591 63.1888C19.3068 63.0961 19.7991 62.7771 20.1444 62.2896C20.4209 61.9042 20.5652 61.4616 20.5652 61.0198C20.5652 60.9094 20.5558 60.7963 20.5364 60.6866ZM17.8308 62.0955C17.391 61.7841 17.754 61.1329 18.0111 60.7748C18.2664 60.414 18.7629 59.8562 19.2027 60.1673C19.6621 60.4956 19.2328 61.2059 19.0269 61.4945C18.8196 61.7855 18.2913 62.4242 17.8308 62.0955ZM23.4981 61.6924C22.484 61.1796 21.3118 61.5997 20.7728 62.6674C20.5032 63.2009 20.4503 63.7864 20.624 64.314C20.7845 64.8036 21.1326 65.2035 21.6045 65.4409C21.833 65.559 22.0828 65.6306 22.3392 65.6514C22.5956 65.6722 22.8536 65.6418 23.0982 65.562C23.6248 65.3907 24.0645 65.0011 24.3323 64.468C24.8735 63.3975 24.514 62.2052 23.4981 61.6924ZM22.3768 64.6593C22.2578 64.698 22.145 64.6859 22.0173 64.6226C21.8159 64.5199 21.7453 64.3368 21.7453 64.1323C21.7453 63.8497 21.8817 63.5161 21.9969 63.2885C22.1969 62.8927 22.6031 62.2685 23.0854 62.5117C23.2123 62.5768 23.2885 62.6608 23.3269 62.7785C23.4075 63.0217 23.3265 63.4217 23.1092 63.85C22.8927 64.2763 22.619 64.579 22.3768 64.6593ZM25.5921 63.1605L25.4052 63.6954C25.4052 63.6954 25.8824 63.8628 26.0273 63.9106L25.0029 66.8363L26.2526 67.2746C26.2526 67.2746 27.0961 64.8741 27.2781 64.3514L27.9016 64.5683L28.2043 63.7054L25.708 62.8297L25.5921 63.1605ZM30.7826 64.3202L29.0928 63.9638L29.0205 64.3071L28.2656 67.8922L29.9848 68.2573C30.5342 68.3707 30.8961 68.2358 31.1023 68.1026C31.3643 67.932 31.548 67.6511 31.6186 67.3165C31.6379 67.2252 31.6473 67.1369 31.6473 67.0501C31.6473 66.8082 31.5701 66.5899 31.4317 66.4024C31.6255 66.2488 31.7635 66.0318 31.821 65.7609C31.8355 65.6907 31.8438 65.6115 31.8438 65.5291C31.8448 65.0696 31.5826 64.4873 30.7826 64.3202ZM30.3173 67.0577C30.2993 67.1397 30.2668 67.248 30.2045 67.2885C30.1471 67.3255 30.0374 67.3303 29.8945 67.2996C29.8945 67.2996 29.8294 67.285 29.7526 67.2701C29.8073 67.0113 29.8443 66.839 29.8976 66.5802C29.9709 66.5975 30.0651 66.6162 30.0651 66.6162C30.2868 66.6629 30.3294 66.8266 30.3294 66.9456C30.3294 66.9937 30.3235 67.0342 30.3173 67.0577ZM30.2021 65.1388C30.3508 65.1727 30.4595 65.2267 30.5014 65.2904C30.522 65.3263 30.5319 65.3673 30.5301 65.4087C30.5301 65.4378 30.5263 65.4717 30.5187 65.5122C30.4962 65.6173 30.4654 65.763 30.1727 65.7031C30.1727 65.7031 30.1367 65.6938 30.0862 65.6827C30.1325 65.4651 30.1547 65.3572 30.2021 65.1388ZM33.9014 64.9042L32.0663 68.6614L33.1139 68.7416L33.5108 67.9047C33.7326 67.923 33.9547 67.9386 34.172 67.9559L34.4581 68.8434L35.8518 68.9517L34.2941 64.123L33.9014 64.9042ZM38.0388 67.9037L37.9104 64.8548L36.5863 64.9105L36.7538 68.9229L39.4072 68.8129L39.3674 67.85C39.3674 67.8497 38.4194 67.8898 38.0388 67.9037ZM41.671 67.5196C41.5852 66.9767 41.198 64.505 41.198 64.505L40.851 64.5603L39.8878 64.7105L40.5095 68.6797L43.1342 68.2676L42.984 67.3155C42.984 67.3148 42.0474 67.4622 41.671 67.5196ZM49.2693 64.8503C49.2586 65.1942 49.0559 65.4907 48.7396 65.6156C48.5642 65.6855 48.3971 65.6855 48.2289 65.6142C47.9719 65.5042 47.7328 65.2253 47.5895 64.8672C47.4217 64.4448 47.3868 64.0856 47.4972 63.8341C47.5733 63.6569 47.7217 63.5251 47.9497 63.4345C48.1968 63.3366 48.4306 63.4269 48.751 63.6151L49.0451 63.7888L49.534 63.0179L49.2437 62.8273C48.7109 62.4764 48.0511 62.4055 47.4799 62.6332C46.9501 62.8442 46.5391 63.2393 46.3218 63.7448C46.1014 64.2569 46.1014 64.844 46.3256 65.3997C46.7474 66.4539 47.9386 66.9736 48.9808 66.556C49.734 66.2557 50.1599 65.6838 50.2139 64.9022L50.2384 64.5534L49.2797 64.4825L49.2693 64.8503ZM52.3601 63.7542C52.0888 63.2722 50.8699 61.0862 50.8699 61.0862L50.5651 61.2585L49.7122 61.7346L51.6719 65.2406L53.988 63.9465L53.5195 63.1047C53.5198 63.1047 52.6908 63.567 52.3601 63.7542ZM54.937 58.3474L54.6533 58.555L54.1558 58.9214L55.7823 61.1381C55.8567 61.2381 55.8567 61.3049 55.8494 61.3443C55.8338 61.4589 55.7148 61.5824 55.61 61.6585C55.5266 61.7131 55.4265 61.7362 55.3276 61.7235C55.2439 61.7114 55.1775 61.6654 55.1187 61.5862L53.5112 59.3947L52.44 60.1787L54.0395 62.3598C54.2769 62.683 54.5713 62.8733 54.9152 62.9262C55.301 62.9864 55.7401 62.8553 56.1476 62.5539C56.9863 61.9412 56.9725 61.1267 56.6064 60.6278L54.937 58.3474ZM59.8165 57.5412C59.5695 57.2859 59.2654 57.1706 58.9464 57.1879C58.9286 56.9307 58.8198 56.6882 58.6395 56.5039C58.3042 56.1583 57.5555 55.8891 56.8659 56.5596L55.6255 57.7595L58.4205 60.6447L59.6819 59.422C60.0854 59.031 60.1739 58.6525 60.1784 58.4083C60.1854 58.0944 60.0567 57.7879 59.8165 57.5412ZM57.7053 57.4436C57.7468 57.4883 57.7984 57.5402 57.7984 57.6121C57.7984 57.6713 57.7658 57.7443 57.6693 57.8367L57.6074 57.899C57.451 57.7363 57.3766 57.6606 57.2178 57.4969C57.4974 57.2409 57.6136 57.3506 57.7053 57.4436ZM58.3672 58.4373C58.5935 58.219 58.8118 58.411 58.8741 58.4761C58.9343 58.5366 59.0024 58.6217 59.0024 58.6954V58.6982C59.001 58.7664 58.9436 58.8612 58.8395 58.9618C58.8395 58.9618 58.791 59.0089 58.7336 59.0625C58.5516 58.8736 58.4274 58.7466 58.2447 58.5588C58.2987 58.5041 58.3672 58.4373 58.3672 58.4373Z" fill="#DBA111"/>
<path d="M15.983 57.2854C16.0923 57.3906 16.9085 58.1691 16.9085 58.1691L17.1777 57.8854L15.674 56.4512L15.6131 56.5149L13.2666 58.9766L13.8448 59.5288C13.8448 59.5288 14.8447 58.4808 14.9523 58.3663L15.7968 59.1707L16.0664 58.8881L15.2215 58.0843C15.3197 57.9812 15.8865 57.3861 15.983 57.2854ZM19.5796 59.6358C19.2069 59.37 18.7609 59.2645 18.3229 59.3379C17.8423 59.4202 17.4112 59.7011 17.1061 60.1302C16.8002 60.5609 16.6774 61.0602 16.759 61.5387C16.8324 61.9781 17.0791 62.3656 17.4521 62.6293C17.6324 62.7598 17.8369 62.8533 18.0536 62.9043C18.2703 62.9553 18.4949 62.9628 18.7146 62.9265C19.1924 62.8466 19.6242 62.5646 19.9287 62.1383C20.1722 61.7941 20.301 61.4048 20.301 61.019C20.301 60.9232 20.2927 60.8249 20.2771 60.7291C20.2027 60.2911 19.9553 59.9025 19.5796 59.6358ZM19.2401 61.6477C18.9879 62.0006 18.3316 62.7756 17.6783 62.3106C17.0268 61.8487 17.5438 60.9751 17.7953 60.6198C18.0472 60.2651 18.7039 59.4908 19.354 59.953C20.0076 60.4198 19.492 61.2937 19.2401 61.6477ZM23.3789 61.9283C22.499 61.4837 21.4798 61.8536 21.0075 62.7881C20.7694 63.2579 20.7224 63.7693 20.8732 64.2333C21.012 64.6551 21.3133 64.999 21.7226 65.2052C22.133 65.4142 22.5921 65.4519 23.0156 65.3128C23.4761 65.1612 23.8602 64.8194 24.0986 64.3499C24.5701 63.4147 24.2612 62.3729 23.3789 61.9283ZM21.8977 64.8561C21.1853 64.4976 21.5645 63.5548 21.761 63.1676C21.9569 62.7787 22.49 61.9152 23.2018 62.2767C23.391 62.3708 23.5176 62.5123 23.5775 62.6967C23.7173 63.123 23.4907 63.6749 23.3426 63.9683C23.1952 64.2589 22.8848 64.7685 22.4572 64.909C22.2752 64.971 22.0859 64.9523 21.8977 64.8561ZM25.841 63.2465L25.7399 63.5323L26.3624 63.7513C26.307 63.9074 25.3369 66.6743 25.3369 66.6743L26.0911 66.9396C26.0911 66.9396 27.0627 64.1727 27.1163 64.016L27.7387 64.2333L27.8692 63.8659L25.8687 63.1638L25.841 63.2465ZM30.7288 64.5772L29.2967 64.2752L29.2774 64.3617L28.5778 67.6915L30.0389 67.9984C30.4105 68.0766 30.7195 68.0371 30.9585 67.8807C31.1654 67.7458 31.3042 67.5302 31.3609 67.2624C31.3755 67.1891 31.3838 67.1199 31.3838 67.0517C31.3838 66.7604 31.2395 66.5134 30.9814 66.3376C31.28 66.2518 31.4938 66.0321 31.563 65.7058C31.5747 65.6553 31.5817 65.5951 31.5817 65.5266C31.5813 65.1927 31.4059 64.7198 30.7288 64.5772ZM30.2281 64.8716C30.469 64.9222 30.6354 65.0145 30.7202 65.1457C30.7693 65.2201 30.7932 65.3073 30.7932 65.4083C30.7932 65.4578 30.7866 65.509 30.7752 65.5647C30.6821 66.0075 30.324 66.0034 30.1185 65.9584C30.1185 65.9584 29.9002 65.9134 29.7742 65.8868C29.8036 65.7501 29.9693 64.9599 29.9981 64.8239C30.0894 64.8422 30.2281 64.8716 30.2281 64.8716ZM30.1181 66.358C30.525 66.4435 30.5887 66.7646 30.5887 66.959C30.5887 67.0424 30.5755 67.1026 30.5741 67.1123C30.533 67.3047 30.4596 67.4351 30.3472 67.5074C30.2281 67.587 30.0565 67.6022 29.8396 67.5579C29.8396 67.5579 29.5791 67.5022 29.4396 67.4745L29.6939 66.2691C29.813 66.2933 30.1181 66.358 30.1181 66.358ZM34.1382 65.0197L32.4733 68.4291L32.9528 68.4651C32.9528 68.4651 33.3057 67.7233 33.3521 67.6292L34.3686 67.7084C34.4008 67.806 34.6548 68.5962 34.6548 68.5962L35.4813 68.6603L34.2441 64.8253L34.1382 65.0197ZM33.9555 66.3906C34.0354 66.648 34.1908 67.1445 34.2423 67.306C34.0773 67.2943 33.6988 67.2649 33.5358 67.2524L33.9555 66.3906ZM37.7853 68.1783L37.6562 65.1294L37.5715 65.1329L36.8584 65.1619L37.0047 68.6499L39.1322 68.5589L39.1132 68.1236C39.1139 68.1236 37.9393 68.1731 37.7853 68.1783ZM41.4514 67.8233C41.4251 67.6586 40.9774 64.8049 40.9774 64.8049L40.892 64.8187L40.1886 64.9298L40.729 68.3776L42.8323 68.0454L42.7652 67.6147C42.7652 67.6154 41.6023 67.7977 41.4514 67.8233ZM49.531 64.8561C49.5186 65.31 49.2518 65.6948 48.8363 65.8619C48.5944 65.9577 48.3557 65.955 48.1249 65.8553C47.7997 65.7179 47.5153 65.392 47.343 64.9644C47.1489 64.4762 47.1184 64.0489 47.2534 63.7285C47.3585 63.4873 47.5589 63.306 47.8516 63.1898C48.2339 63.0365 48.5861 63.2112 48.883 63.3877L48.9574 63.4309L49.1715 63.0943L49.0999 63.0458C48.6384 62.7435 48.0682 62.6801 47.5772 62.877C47.1119 63.0635 46.7503 63.4074 46.5631 63.8482C46.3704 64.2945 46.3721 64.8118 46.5697 65.2996C46.9368 66.2207 47.9734 66.6736 48.8837 66.3106C49.5438 66.0456 49.9023 65.5671 49.95 64.8827L49.9569 64.7948L49.5348 64.7658L49.531 64.8561ZM52.2578 64.1122C52.1758 63.9683 50.7676 61.446 50.7676 61.446L50.6901 61.4892L50.0697 61.8363L51.7699 64.8813L53.6289 63.8434L53.4179 63.4621C53.4182 63.4628 52.3889 64.0357 52.2578 64.1122ZM54.879 58.7144L54.8074 58.767L54.5223 58.9759L55.9935 60.9803C56.0921 61.1156 56.1305 61.2495 56.1097 61.3816C56.0744 61.62 55.8575 61.8041 55.7661 61.8684C55.627 61.9659 55.4561 62.0067 55.288 61.9826C55.133 61.9601 55.006 61.8778 54.9039 61.7411L53.4518 59.76L52.8086 60.2343L54.2517 62.2016C54.4462 62.467 54.6825 62.6237 54.9551 62.6635C55.3845 62.7286 55.7879 62.4895 55.9907 62.3414C56.6868 61.8297 56.6962 61.1893 56.3955 60.7817L54.879 58.7144ZM59.6267 57.7242C59.3568 57.4446 59.0115 57.3813 58.6534 57.519C58.6823 57.4375 58.6977 57.3518 58.6988 57.2654C58.6988 57.0578 58.6164 56.8557 58.45 56.6851C58.2258 56.454 57.6438 56.1686 57.0491 56.7471L55.998 57.7653L58.4251 60.2707L59.4997 59.2285C59.77 58.9683 59.9118 58.6881 59.9153 58.404C59.9194 58.1566 59.8187 57.9221 59.6267 57.7242ZM58.0594 57.6155C58.0594 57.7913 57.9452 57.9352 57.8525 58.0255C57.8525 58.0255 57.6912 58.1822 57.6002 58.2719C57.5023 58.1715 56.9397 57.5916 56.8432 57.4885C56.9086 57.4252 57.0114 57.3276 57.0114 57.3276C57.3397 57.0073 57.6279 56.9868 57.8926 57.2612C58.0147 57.3861 58.0594 57.5051 58.0594 57.6155ZM58.7282 59.4337C58.6285 59.3309 57.9725 58.6524 57.8718 58.5497C57.9587 58.4667 58.1829 58.248 58.1829 58.248C58.6109 57.8359 59.0451 58.2725 59.0634 58.293C59.1991 58.4321 59.2648 58.5642 59.2648 58.6954V58.7009C59.2631 58.8448 59.1797 58.9957 59.0212 59.1524C59.0219 59.1521 58.8129 59.3531 58.7282 59.4337Z" fill="white"/>
<path d="M20.6347 12.9L19.1701 13.2952L19.3383 13.8197C19.5407 14.456 19.3576 15.1223 18.8618 15.5569C18.5861 15.7987 18.2671 15.9098 17.9162 15.8856C17.3824 15.8496 16.7796 15.504 16.3049 14.9608C15.7458 14.3196 15.4663 13.7027 15.5022 13.1803C15.5265 12.7983 15.7119 12.4641 16.0679 12.1523C16.461 11.8081 16.9592 11.8216 17.6349 11.9558L18.1359 12.0548L18.4605 10.6518L17.956 10.5289C16.8706 10.2605 15.7392 10.5241 14.9317 11.231C13.3505 12.6146 13.2218 14.8736 14.6317 16.4862C15.9423 17.9844 18.2159 18.148 19.6984 16.8516C20.7658 15.9192 21.1378 14.7258 20.7748 13.4055L20.6347 12.9ZM24.6122 5.55289L23.1161 6.25733C23.1161 6.25733 23.9514 8.02743 24.2385 8.63741C23.8119 8.83809 23.3981 9.03322 22.9712 9.23494L21.8474 6.85486L19.8773 7.78489L22.8774 14.1491L24.8492 13.2194C24.8492 13.2194 23.9195 11.251 23.6206 10.6127C24.0472 10.4127 24.4607 10.2172 24.8887 10.0155L26.1169 12.6208L28.088 11.6908L25.0886 5.328L24.6122 5.55289ZM31.2829 9.49547C31.1871 9.02181 31.0892 8.53949 30.9944 8.06618L33.2208 7.61708L32.9364 6.2037L30.7089 6.65384C30.6214 6.22066 30.5487 5.85667 30.4605 5.42384L32.8236 4.94672L32.5382 3.53369L32.0199 3.63783L28.0386 4.44295L29.4305 11.3403L33.9657 10.4238L33.6813 9.01108C33.6813 9.01108 31.9192 9.36607 31.2829 9.49547ZM37.7159 3.37003L35.5345 3.32471L35.5237 3.85096L35.3874 10.3594L39.9659 10.4553L39.9991 8.9315C39.9991 8.9315 38.2412 8.89414 37.5987 8.88099L37.7159 3.37003ZM44.7846 6.91852C44.2185 6.50299 44.0531 6.33587 44.1102 6.1089C44.1386 5.99127 44.2666 5.61552 44.6731 5.7162C44.9178 5.77917 45.161 5.90823 45.27 6.43413L45.389 7.01817L46.8294 6.53136L46.7391 6.07742C46.5619 5.18718 45.809 4.42877 44.8631 4.1928C44.186 4.02465 43.5075 4.11426 42.9508 4.44883C42.6999 4.59731 42.481 4.79426 42.3069 5.02818C42.1329 5.26211 42.0072 5.52833 41.937 5.81135C41.5755 7.25379 42.5484 7.94819 43.1906 8.40836C43.8493 8.8796 44.0175 9.06402 43.9172 9.45776C43.9019 9.51793 43.8749 9.57446 43.8376 9.62406C43.8003 9.67366 43.7535 9.71534 43.6999 9.74666C43.5674 9.82416 43.4023 9.85219 43.2674 9.81724C42.9214 9.73178 42.7709 9.56813 42.6256 9.12007L42.4488 8.58344L41.0036 9.17439L41.143 9.63317C41.4139 10.5248 42.0606 11.0867 43.1193 11.3517C44.3088 11.6493 45.7516 11.1023 46.1111 9.67366C46.4861 8.16998 45.462 7.41606 44.7846 6.91852ZM49.9879 10.6711L52.014 11.6956L52.6649 10.4092C52.6649 10.4092 51.1923 9.66535 50.6394 9.38544C50.8373 8.99067 51.0058 8.65886 51.203 8.26547L53.3558 9.35292L54.0049 8.06652L49.909 5.99715L49.6724 6.46562L46.7346 12.2762L50.865 14.3618L51.5162 13.0761L49.3319 11.9731C49.5478 11.5417 49.771 11.1029 49.9879 10.6711ZM58.1447 11.3285L51.5816 14.7238L52.8372 15.8157C52.8372 15.8157 53.9208 15.2396 54.3146 15.0327L55.3269 15.9136C55.1858 16.3323 54.7851 17.5093 54.7851 17.5093L56.5144 19.0147L59.32 10.741L58.1447 11.3285Z" fill="#DBA111"/>
<path d="M20.3894 13.3279L19.6157 13.5379L19.6725 13.713C19.9181 14.4853 19.6963 15.2928 19.0919 15.8215C18.7449 16.126 18.3397 16.2657 17.8923 16.237C17.2581 16.1945 16.5845 15.8139 16.0399 15.1914C15.4178 14.479 15.1092 13.775 15.15 13.1546C15.1822 12.684 15.413 12.2571 15.8361 11.8869C16.3914 11.4014 17.0917 11.4904 17.7027 11.6108L17.8705 11.6433L18.0397 10.9105L17.8716 10.8686C16.8966 10.6292 15.8845 10.8627 15.1621 11.4956C13.7328 12.7474 13.618 14.7918 14.896 16.2543C16.0786 17.6068 18.129 17.7549 19.4673 16.5861C20.4378 15.735 20.7641 14.6974 20.435 13.4985L20.3894 13.3279ZM24.7623 5.86869L23.5853 6.4247L24.7066 8.80374C24.4548 8.92345 23.0566 9.58291 22.803 9.70159C22.6732 9.42445 21.6827 7.32221 21.6827 7.32221L20.3451 7.95226L23.0462 13.6801L24.3831 13.0508L23.1542 10.4451C23.4078 10.3258 24.8046 9.66768 25.0578 9.54762C25.1896 9.82822 26.2868 12.154 26.2868 12.154L27.6216 11.5229L24.9205 5.795L24.7623 5.86869ZM31.0078 9.90919C30.9528 9.63412 30.6362 8.06713 30.5819 7.79172L32.8077 7.34227L32.6617 6.6188L30.4345 7.06721C30.3812 6.79734 30.102 5.41856 30.0491 5.14903C30.3442 5.08848 32.4101 4.6726 32.4101 4.6726L32.2638 3.94879L28.453 4.71723L29.7066 10.9254L33.5533 10.1486L33.4073 9.42445L31.0078 9.90919ZM37.3578 3.7142L35.8801 3.68237L35.877 3.85675L35.7465 10.0144L39.6244 10.0967L39.6421 9.27464L37.2416 9.22412C37.2499 8.89577 37.3578 3.71455 37.3578 3.7142ZM44.7589 5.37669C45.2284 5.49433 45.5 5.80815 45.6149 6.36381L45.6551 6.55826L46.4259 6.29807L46.3969 6.14618C46.2446 5.38742 45.5955 4.73903 44.7793 4.53386C44.1936 4.38785 43.6092 4.46431 43.1331 4.7501C42.9219 4.87541 42.7377 5.04136 42.591 5.23836C42.4444 5.43535 42.3383 5.65948 42.2789 5.89776C41.9754 7.10769 42.7639 7.67096 43.3964 8.12318C44.0365 8.58092 44.4223 8.89405 44.2576 9.54313C44.2322 9.64869 44.1856 9.74798 44.1205 9.83495C44.0555 9.92191 43.9735 9.99473 43.8794 10.049C43.6699 10.1744 43.4198 10.2137 43.1819 10.1586C42.7145 10.0417 42.4747 9.79086 42.2924 9.23035L42.2328 9.05113L41.4329 9.37705L41.48 9.53032C41.7121 10.2943 42.2771 10.7783 43.2065 11.0115C44.2275 11.2662 45.4651 10.8043 45.7703 9.58811C46.0879 8.31243 45.2506 7.69588 44.5735 7.20076C43.9984 6.77623 43.6511 6.49252 43.7694 6.02404C43.8735 5.60505 44.2209 5.24176 44.7589 5.37669ZM51.0491 7.79414L53.1997 8.88055L53.5343 8.22075L50.0658 6.46864L49.9865 6.62503L47.2092 12.1221L50.7103 13.8912L51.0439 13.2321L48.8614 12.1284C48.9873 11.8775 49.7087 10.4524 49.8343 10.2012C50.101 10.3365 51.8601 11.225 51.8601 11.225L52.1953 10.5655C52.1953 10.5655 50.4342 9.67737 50.1675 9.54174L51.0491 7.79414ZM58.3069 11.6409L52.204 14.7991L52.8863 15.3921L54.3637 14.6091L55.7373 15.8042C55.6722 15.9973 55.1933 17.3985 55.1933 17.3985L56.3517 18.405L58.7093 11.452L58.3069 11.6409ZM55.0698 14.2455C55.3587 14.096 56.096 13.713 56.5465 13.4791C56.3791 13.9573 56.103 14.7448 55.9971 15.051C55.6886 14.7818 55.3795 14.5133 55.0698 14.2455Z" fill="white"/>
<path d="M54.0482 35.8219C53.5479 34.496 51.8241 33.9203 50.1949 34.5348C49.5157 34.7905 48.959 35.2181 48.5798 35.7222C49.6555 32.6519 54.0371 32.0004 54.0371 29.1439C54.0371 24.3564 47.2384 25.6975 48.2276 29.1446C48.2276 27.5804 50.7163 27.2939 50.7163 29.1446C50.7163 30.996 46.3762 32.2094 46.3762 35.3364C46.3762 38.7839 49.824 39.1029 49.4745 42.2552C49.4153 42.7991 48.8313 43.5136 47.9843 43.5136C42.7038 43.5136 44.5888 37.0128 42.7439 35.0344L42.8401 33.6989C43.9068 34.3535 46.737 32.8207 44.8739 30.485C44.8739 31.6336 42.482 31.5703 42.482 29.3996C42.482 26.4631 45.2278 27.9952 45.3607 28.6439C45.2292 27.5741 45.1794 26.8953 45.3555 26.2794C43.8757 26.7565 43.7369 25.9009 43.9241 25.5698C44.1386 25.1875 44.4251 24.7401 45.0019 24.7401C45.3133 24.7401 45.5005 24.7834 45.6108 24.8595C45.7952 24.9858 45.9302 24.6976 45.9039 24.9657C46.062 24.7249 45.9983 25.0259 46.152 24.784C46.3073 24.5439 46.5173 24.2723 46.8855 23.9104L46.8695 23.3693L47.3006 23.5274L47.7141 22.8576C47.2674 21.9313 46.6612 22.3773 46.2149 21.229C45.8416 21.1325 40.0258 21.7646 40.195 19.4447C39.721 19.4447 38.5979 19.7049 39.293 20.6491C38.7526 20.7142 38.363 20.1004 37.5482 21.7604C38.5689 21.5691 38.0405 22.7102 38.0405 23.0351C38.0405 25.138 35.2404 25.1031 35.2404 24.1177C34.5654 24.7737 34.9484 26.2075 35.9687 26.5607C35.9687 26.5607 35.5805 28.0945 34.6225 29.0671C33.2001 29.0103 30.9183 28.7633 29.6056 27.5226C29.0396 26.988 28.5901 26.696 28.2071 26.5469V25.8518C28.7676 25.5774 29.3821 25.092 30.0208 24.2806C30.5187 23.672 30.7889 22.8918 30.7162 22.0632C30.7067 21.9653 30.6929 21.8678 30.6747 21.7712C30.6692 21.7407 30.6619 21.7113 30.6546 21.6812C30.6409 21.6149 30.6243 21.5492 30.6048 21.4843C30.5958 21.4525 30.5868 21.4193 30.5768 21.3885C30.5555 21.3235 30.5318 21.2593 30.5055 21.1961C30.4948 21.1698 30.4868 21.1414 30.4744 21.1169C30.4388 21.0336 30.3995 20.952 30.3564 20.8723C30.3381 20.8397 30.3187 20.8096 30.3007 20.7795C30.2713 20.7314 30.2433 20.6827 30.2125 20.636C30.187 20.5985 30.161 20.5614 30.1346 20.5245C30.1076 20.4889 30.0789 20.4526 30.0509 20.4169C30.0201 20.3789 29.9893 20.3381 29.9564 20.3007C29.9346 20.2758 29.9117 20.2518 29.8879 20.2287C29.7497 20.0775 29.5967 19.9403 29.4312 19.8194L29.3869 19.7872C29.3281 19.7457 29.2679 19.7056 29.2049 19.6665C29.2011 19.6641 29.1977 19.6623 29.1949 19.6592C28.5707 19.2774 27.8414 19.1033 27.112 19.162C25.2755 19.3084 23.9102 20.8425 24.0635 22.5901C24.1829 23.9512 25.1862 25.0384 26.492 25.385C26.0343 25.64 25.6475 25.7881 25.5599 25.7881C25.5744 25.7971 25.5935 25.8082 25.6139 25.8217L25.6319 25.8307C25.6499 25.8421 25.6706 25.8539 25.6921 25.8656L25.7094 25.875L25.8031 25.9217L25.8204 25.9286C25.8606 25.9481 25.9017 25.9657 25.9436 25.9812C26.0232 26.0144 26.1135 26.0445 26.2118 26.0725C26.2259 26.0767 26.2405 26.0798 26.2522 26.0832C26.292 26.0933 26.3325 26.1026 26.3747 26.1127L26.4173 26.121C26.4695 26.13 26.5252 26.1396 26.5806 26.1462C26.5854 26.1462 26.5899 26.149 26.5944 26.149V26.5445C26.5737 26.549 26.555 26.5514 26.5356 26.5541C25.9381 26.6521 25.5499 26.8358 25.3745 27.3683C25.2001 27.9021 25.3797 28.0955 25.6592 28.4699C25.4229 28.8924 24.8036 29.0505 25.6118 29.9836C25.553 30.3362 25.6274 30.8977 26.1405 31.068C26.3076 31.1247 26.4474 31.1548 26.5944 31.1804L26.5937 38.1781C26.082 38.449 25.8298 38.7877 25.69 39.1026C25.69 39.1026 25.2793 38.1909 25.307 39.9973C25.7737 39.635 25.5897 40.4166 25.5897 40.4166C24.9541 41.2401 25.7613 41.1955 25.7613 41.1955C26.3086 40.6485 26.1969 41.4429 26.1969 41.4429C26.1969 42.4123 26.591 42.7908 26.5937 42.7926V48.1236L26.1291 48.1253L26.1336 49.5961L26.947 49.5948C26.491 49.7844 26.19 50.2349 26.2336 50.7324C26.2889 51.3597 26.8685 51.8268 27.529 51.7759C28.1888 51.723 28.679 51.1725 28.6226 50.5435C28.5853 50.1093 28.2977 49.755 27.9064 49.592L28.6565 49.5899L28.6534 48.1184L28.2061 48.1208L28.2067 43.3911C28.2991 43.4416 28.3988 43.4766 28.5071 43.5001C28.5503 43.5081 28.5932 43.514 28.6368 43.5171C28.6562 43.5198 28.6759 43.5198 28.6956 43.5209C28.5749 42.8988 28.9468 42.4871 28.9468 42.4871C29.1375 42.1999 29.4139 41.9757 29.7274 41.8176C30.6661 41.3474 31.9473 41.4657 32.3299 42.2324C34.756 41.593 36.8406 39.1545 36.8406 39.1545L38.0346 41.1868C35.503 42.0331 29.9879 46.8275 33.8163 48.4879C33.8149 48.9709 33.7502 52.5585 31.4501 52.2734C28.1376 51.8648 27.3113 53.2353 27.9473 54.776C27.6483 56.0755 28.6489 56.5267 28.6489 56.5267C28.4984 55.7763 28.8593 55.1545 30.228 55.1625C30.2211 56.5316 31.1055 56.7782 31.1055 56.7782C31.1117 55.606 31.9265 55.1718 32.65 55.1753C32.6444 56.1409 33.7672 56.5084 33.7672 56.5084C33.7672 56.5084 33.4828 55.395 34.7512 55.1753C37.963 54.6154 34.9463 51.3123 39.8307 50.402C39.8307 50.402 37.3991 50.0349 37.3991 48.7059C37.3991 47.496 39.6003 46.668 40.3583 46.668C41.9129 49.638 43.602 49.6615 44.0442 49.6826C44.732 50.4518 44.5016 53.0436 43.5075 52.9924C39.8698 52.7973 40.0026 55.0102 40.4106 55.4628C40.3639 56.3219 41.0327 56.818 41.0327 56.818C41.0327 55.8973 41.9084 55.6382 43.0318 55.6991C42.973 56.8243 43.6892 56.9921 43.6892 56.9921C43.7089 55.8603 44.5465 55.668 45.1413 55.6991C45.0977 56.4925 45.8848 56.7267 45.8848 56.7267C45.8848 56.7267 45.807 55.7199 46.8675 55.7199C48.8784 55.7185 45.9578 51.4091 49.8821 47.1472C46.435 48.7433 44.6009 44.7543 44.6009 43.9887C46.3727 46.0618 52.1179 46.476 52.1179 42.9341C52.1179 39.5506 48.3992 38.2898 50.1385 36.9955C51.1505 36.243 53.1406 37.7632 52.0023 39.3333C53.6351 38.7286 54.545 37.1474 54.0447 35.8229M32.0127 35.9284C30.7131 36.6924 29.8416 37.6591 28.6569 38.0822C28.477 38.1459 28.3334 38.1632 28.2088 38.1552V31.551C28.5226 31.5804 29.3375 31.6918 30.29 32.0855C31.2335 32.6003 31.2335 33.6643 30.0429 33.9165C30.7951 35.3572 33.4018 34.6517 33.9703 33.4785C34.2485 33.4539 34.4945 33.9508 34.7259 34.4203C34.3592 34.6102 33.6108 34.9877 32.0127 35.9284ZM46.5595 24.9799C46.417 25.1743 46.2758 25.3667 46.1523 25.5324C46.3182 25.8098 46.5592 26.0347 46.8474 26.1812C47.1356 26.3276 47.4593 26.3896 47.7812 26.36C48.2326 26.3171 48.6485 26.097 48.938 25.748C49.2274 25.3989 49.3667 24.9494 49.3254 24.4979C49.3195 24.4637 49.3154 24.4329 49.3109 24.3997C49.2105 24.8865 48.6369 25.2989 47.9065 25.3657C47.355 25.4172 46.8547 25.2584 46.5595 24.9799Z" fill="#D1D3D4"/>
<path d="M25.5607 21.0056C25.5607 21.0066 25.5583 21.009 25.5583 21.0115H25.5576C25.5586 21.0095 25.5597 21.0075 25.5607 21.0056ZM25.6206 48.7064C25.6219 48.7053 25.6244 48.7053 25.6251 48.7036C25.624 48.706 25.6223 48.706 25.6206 48.7064ZM25.0825 48.5441L25.896 48.5431C25.7987 48.5838 25.7076 48.6379 25.6254 48.7039C25.7057 48.6731 25.7915 48.6541 25.8828 48.6541C26.0785 48.6541 26.2663 48.7319 26.4047 48.8703C26.5431 49.0087 26.6208 49.1964 26.6208 49.3921C26.6208 49.5878 26.5431 49.7756 26.4047 49.914C26.2663 50.0524 26.0785 50.1301 25.8828 50.1301C25.7263 50.1302 25.574 50.0801 25.448 49.9872C25.3221 49.8943 25.2293 49.7634 25.1832 49.6139V49.6807C25.2389 50.3093 25.8174 50.7768 26.4786 50.7225C27.1377 50.6712 27.628 50.1194 27.5737 49.4914C27.5349 49.0589 27.2481 48.7043 26.8568 48.5413L27.6065 48.5382L27.6031 47.0667L27.1557 47.0695V42.3391C26.9378 42.2253 26.7625 42.0443 26.6558 41.8228C26.5491 41.6014 26.5168 41.3514 26.5637 41.1101C26.8436 41.1101 27.0941 41.1828 27.2616 41.2973C27.0031 41.8664 27.646 42.4688 27.646 42.4688C27.5256 41.8467 27.8965 41.4364 27.8965 41.4364C28.0892 41.1485 28.365 40.9243 28.6774 40.7659C29.6174 40.295 30.8976 40.4136 31.2799 41.18C33.706 40.5413 35.791 38.1021 35.791 38.1021L36.9857 40.1334C39.7861 40.1334 38.8108 38.036 38.6285 37.8529C39.2723 37.8529 40.1792 38.3273 40.1792 39.3774C40.1792 41.9568 32.6816 42.3245 32.6816 45.4547C32.6816 46.7691 33.9849 47.2691 33.9849 47.2691C33.9849 50.1232 32.0249 51.8186 30.6841 51.8186C28.5404 51.8186 26.8986 51.3843 26.8986 53.7219H27.646C26.936 54.4322 27.5986 55.4733 27.5986 55.4733C27.4488 54.7235 27.8107 54.1028 29.1794 54.1097H30.0337C29.4912 54.6519 29.8081 55.4753 30.0576 55.7269C30.0627 54.5529 30.8762 54.1194 31.6007 54.1232H32.2207C32.0522 54.2893 32.3228 55.0612 32.7182 55.4553C32.7182 55.4553 32.4324 54.3429 33.7026 54.1232C36.913 53.5637 33.8967 50.2606 38.7807 49.3489C38.7807 49.3489 36.3504 48.9828 36.3504 47.6521C36.3504 46.4443 38.5506 45.6146 39.3073 45.6146C39.9041 45.5295 40.4722 45.5506 40.958 45.6551C41.1556 47.5729 43.3575 47.4791 43.8367 47.4791C45.704 49.3468 43.362 52.3448 43.362 52.3448C40.4958 52.3448 39.3616 52.7406 39.3616 54.4097H39.9038C39.5997 54.7152 39.772 55.5553 39.982 55.7646C39.982 54.8436 40.8594 54.5861 41.9828 54.6457H42.5735C42.2856 54.9335 42.3358 55.6341 42.6413 55.9383C42.6579 54.8062 43.4969 54.6138 44.092 54.6457H44.5847C44.4003 54.8314 44.5847 55.4221 44.8373 55.6753C44.8373 55.6753 44.7591 54.6674 45.8189 54.6664C47.8298 54.6664 44.9079 50.3557 48.8352 46.0938C45.3881 47.6905 43.5519 43.7002 43.5519 42.9345C45.3241 45.0087 51.07 45.4226 51.07 41.8817C51.07 39.0245 48.4197 37.6817 48.6394 36.5541C48.677 36.1333 48.8708 35.7419 49.1826 35.4569C49.4944 35.1718 49.9016 35.0139 50.324 35.0141C50.7726 35.0144 51.2027 35.1928 51.5197 35.5101C51.8367 35.8275 52.0147 36.2578 52.0145 36.7063C52.015 37.0439 51.9144 37.3738 51.7255 37.6535C51.5367 37.9333 51.2683 38.15 50.9551 38.2757C50.9565 38.2757 50.9565 38.2744 50.9565 38.2744C50.9551 38.2757 50.953 38.2778 50.953 38.2806C52.5844 37.6758 53.4954 36.0943 52.9978 34.7698C52.4958 33.4443 50.7717 32.8669 49.1438 33.4813C48.4615 33.7388 47.908 34.1647 47.5284 34.6698C48.6024 31.5998 52.985 30.9494 52.985 28.0915C52.985 23.3043 46.186 24.6458 47.1751 28.0929C47.1751 28.0413 47.1783 27.9898 47.1841 27.9403C47.3575 25.9917 50.8406 25.5934 50.8406 28.1337C50.8406 30.3038 46.3794 31.5068 46.3794 34.4266C46.3794 37.4253 49.6742 38.1751 49.6742 41.3309C49.6742 41.7066 49.4756 43.3248 47.2866 43.3248C45.1746 43.3248 44.1591 42.1443 43.5824 40.6032C42.5067 38.5245 42.9015 35.2798 41.6898 33.9823L41.7856 32.6478C42.853 33.3032 45.6843 31.769 43.8246 29.4332C43.8246 30.5833 41.4306 30.5183 41.4306 28.3486C41.4306 25.4121 44.175 26.9442 44.3076 27.5922C44.1757 26.5235 44.1245 25.8425 44.3048 25.2288C42.8229 25.7045 42.6862 24.8495 42.8703 24.5177C43.0873 24.1344 43.3737 23.688 43.9495 23.688C44.7812 23.688 44.7286 23.9936 44.6847 24.4236C45.0027 23.943 45.093 23.5815 45.832 22.8587L45.8164 22.3158L46.2451 22.4753L46.662 21.8048C46.2161 20.8786 45.6095 21.3263 45.1611 20.1769C44.7895 20.0797 39.9003 19.6282 40.0692 17.3076C39.6367 17.3076 38.4589 18.7995 39.255 19.5981H38.2399C37.697 19.6628 36.4304 19.2836 35.6166 20.943C37.6189 18.9414 38.9181 23.7171 35.2308 23.7171V23.7157C34.6869 23.7171 34.2202 23.4901 34.1883 23.1064C33.8209 24.7181 36.1439 25.2198 36.1439 25.2198C36.1439 25.6986 34.9803 28.2911 34.4146 28.8561C34.7959 29.2378 34.9139 31.5393 33.1518 31.5393C33.7873 29.8208 31.9186 28.3648 30.1029 27.4016H30.1053C29.7766 27.277 29.4638 27.1248 29.1735 26.9421C28.0591 26.4325 27.153 26.146 27.153 26.146V24.7987C27.7135 24.524 28.3279 24.0382 28.9666 23.2272C29.4652 22.6193 29.734 21.8391 29.661 21.0097C29.6532 20.9115 29.6391 20.8138 29.6188 20.7174C29.6143 20.6873 29.6074 20.6585 29.6012 20.6284C29.587 20.5623 29.5702 20.4967 29.5507 20.4319C29.522 20.3338 29.4888 20.2371 29.4514 20.142C29.4406 20.1153 29.4313 20.0897 29.4202 20.0631C29.3841 19.9807 29.3447 19.8997 29.3019 19.8206C29.285 19.787 29.2645 19.7569 29.2469 19.7254C29.2175 19.6777 29.1891 19.6303 29.1583 19.5835C29.1327 19.5469 29.1078 19.5081 29.0801 19.4711C29.0531 19.4355 29.0258 19.3991 28.9971 19.3649C28.9668 19.3245 28.9351 19.2853 28.9019 19.2472C28.8801 19.2223 28.8575 19.1981 28.8341 19.1746C28.7504 19.084 28.6613 18.9985 28.5674 18.9186C28.558 18.9113 28.5501 18.9006 28.5407 18.894C28.4877 18.8494 28.4328 18.8069 28.3764 18.7667C28.3615 18.7573 28.3477 18.7449 28.3328 18.7341C28.2734 18.692 28.2127 18.6518 28.1508 18.6134C28.147 18.6117 28.1435 18.6085 28.1397 18.6068C27.5158 18.2244 26.7866 18.0502 26.0572 18.1093C25.8929 18.1224 25.733 18.1518 25.577 18.1854C24.5193 18.5906 23.7501 19.8285 23.7501 21.2934C23.7501 22.6739 24.4345 23.851 25.397 24.3209C25.4102 24.3243 25.424 24.3295 25.4379 24.3333C24.9791 24.5883 24.5923 24.7364 24.5044 24.7364C24.5193 24.7454 24.539 24.7565 24.5597 24.7707C24.5656 24.7731 24.5708 24.7762 24.5767 24.7793C24.5954 24.7897 24.6144 24.8008 24.6379 24.8132C24.6438 24.8163 24.6487 24.8194 24.6552 24.8215C24.6826 24.836 24.7148 24.8533 24.748 24.8696C24.754 24.8712 24.7597 24.8737 24.7649 24.8772C24.794 24.8911 24.8258 24.9032 24.8594 24.9174C24.9567 24.9575 25.0563 24.992 25.1576 25.0205L25.1984 25.0315C25.2368 25.0416 25.2777 25.0509 25.3195 25.0596C25.3337 25.0634 25.3483 25.0658 25.3631 25.0689C25.4157 25.0786 25.47 25.0883 25.5268 25.0952C25.5312 25.095 25.5356 25.0962 25.5392 25.0987C25.8894 25.1274 26.3035 25.0405 26.3035 25.0405V25.8221C26.2406 25.8221 25.6908 25.6446 25.5392 25.4938C25.5206 25.4965 25.5005 25.5004 25.4804 25.5038C24.8843 25.6014 24.4957 25.7848 24.3207 26.3176C24.1459 26.8514 24.3255 27.0445 24.6047 27.4192C24.3667 27.8403 23.7491 27.9991 24.5559 28.9329C24.4985 29.2848 24.5722 29.8474 25.0846 30.018C25.2521 30.0747 25.3922 30.1034 25.5386 30.1294C25.8423 30.1294 26.3029 30.3826 26.3029 31.0134V37.0274C26.5793 37.0433 26.8796 37.0807 27.1523 37.1046V30.4989C27.4664 30.529 28.2816 30.6408 29.2327 31.0331C29.2427 31.0384 29.2523 31.0444 29.2614 31.0511C29.2607 31.0504 29.2597 31.0504 29.2597 31.0494C29.3465 31.0601 29.4348 31.0791 29.5223 31.1051C30.1558 31.2995 30.5502 31.8493 30.4018 32.3365C30.2541 32.8219 29.6181 33.0589 28.986 32.8644C29.7368 34.3062 32.3449 33.6007 32.9134 32.4275C33.1902 32.4029 33.4365 32.8997 33.6683 33.3685C33.6683 33.3685 34.3216 33.619 35.9387 33.619C35.9387 33.619 29.3894 37.8004 27.4958 37.8004C26.6866 37.8004 24.8916 37.8004 24.8916 38.4124C24.3982 38.4124 23.6875 39.2508 23.6875 39.7303C24.1539 39.366 24.5334 39.366 24.5334 39.366C24.931 39.366 25.1548 39.485 25.1548 39.485C25.0092 39.6289 24.3556 40.3669 24.3556 40.9388C24.903 40.3908 25.1417 40.3932 25.1417 40.3932C25.1417 40.3932 25.7133 40.3192 25.9171 40.5247C25.7797 40.6617 25.5382 41.1572 25.5382 41.7433C25.5382 41.7433 25.8776 41.088 26.3022 41.088V47.3743C26.3022 47.5667 25.4348 47.7507 25.0773 47.7507M25.3493 29.5253C25.1874 29.5315 25.1113 29.3215 25.1099 29.2454C25.1061 29.1686 25.1666 28.9547 25.3275 28.9489C25.7112 28.9357 26.4786 29.1198 26.4814 29.1952C26.4845 29.2699 25.7327 29.5111 25.3493 29.5253ZM25.1019 28.4876C24.8791 28.4721 24.8061 28.1711 24.8137 28.0652C24.8206 27.9617 24.9372 27.6742 25.16 27.6908C25.6908 27.7303 26.7205 28.1008 26.7115 28.205C26.7049 28.3112 25.632 28.5267 25.1019 28.4876ZM25.0106 27.1583C24.775 27.0961 24.7559 26.7591 24.7839 26.6473C24.8137 26.5363 24.9957 26.2518 25.2324 26.3134C25.7939 26.4605 26.8253 27.0642 26.7966 27.175C26.7675 27.286 25.5725 27.3054 25.0106 27.1583ZM26.7499 23.4126C26.8474 23.1798 26.8267 22.8622 26.7661 22.5632L26.736 22.5639C26.5755 22.564 26.4165 22.5324 26.2681 22.471C26.1197 22.4096 25.9849 22.3195 25.8713 22.206C25.7578 22.0925 25.6677 21.9578 25.6062 21.8094C25.5447 21.6611 25.513 21.5021 25.513 21.3415C25.503 21.2295 25.5187 21.1167 25.5583 21.0115C25.5583 21.009 25.56 21.0066 25.561 21.0059C25.6339 20.7504 25.7879 20.5255 25.9999 20.3653C26.2119 20.2052 26.4703 20.1184 26.736 20.1181C27.0604 20.1185 27.3713 20.2476 27.6005 20.477C27.8297 20.7065 27.9584 21.0176 27.9584 21.3419C27.9584 22.1211 27.4097 22.8386 26.7499 23.4126Z" fill="#034694"/>
<path d="M45.1016 24.4804C45.267 24.758 45.5077 24.983 45.7958 25.1294C46.084 25.2758 46.4077 25.3374 46.7295 25.3073C47.181 25.2647 47.5973 25.0447 47.8868 24.6955C48.1762 24.3463 48.3152 23.8964 48.2733 23.4448C48.2698 23.4116 48.2636 23.3794 48.2594 23.3462C48.1594 23.8323 47.5834 24.2458 46.8547 24.3129C46.3004 24.3648 45.8015 24.206 45.5067 23.9278C45.3652 24.1226 45.2227 24.315 45.1016 24.4804Z" fill="#ED1C24"/>
<path d="M42.8178 21.3093L43.4084 21.3405L43.113 21.7456C43.113 21.746 42.7185 21.8705 42.8178 21.3093ZM41.4093 21.3093H42.2601C42.2601 21.3093 42.2293 21.9954 42.8507 22.0574L42.7185 22.276C42.7185 22.276 41.0491 21.8397 41.4093 21.3093Z" fill="white"/>
<path d="M26.7965 27.1752C26.8259 27.0645 25.7942 26.4607 25.2323 26.3137C24.9953 26.2524 24.8136 26.5368 24.7842 26.6479C24.7555 26.7593 24.7749 27.0967 25.0102 27.1589C25.5724 27.3053 26.7678 27.2859 26.7965 27.1752ZM26.7117 28.2052C26.7204 28.1007 25.6911 27.7305 25.1603 27.6911C24.9375 27.6745 24.8209 27.962 24.814 28.0654C24.8067 28.1717 24.8794 28.472 25.1025 28.4879C25.6322 28.5266 26.7052 28.3114 26.7117 28.2052ZM25.543 25.0989V25.4937C25.6942 25.6452 26.2443 25.822 26.3069 25.822V25.0404C26.3073 25.0408 25.8935 25.1276 25.543 25.0989ZM25.3278 28.9484C25.1665 28.955 25.106 29.1685 25.1101 29.2449C25.1115 29.321 25.1887 29.5307 25.3496 29.5248C25.7326 29.511 26.4844 29.2698 26.4813 29.1944C26.4785 29.1193 25.7111 28.9349 25.3278 28.9484ZM24.5379 39.3648C23.903 40.1873 24.36 40.9377 24.36 40.9377C24.36 40.3654 25.0136 39.6281 25.1596 39.4842C25.1593 39.4839 24.9354 39.3648 24.5379 39.3648ZM26.563 41.11C26.5055 41.4054 26.567 41.7115 26.734 41.9618C26.9011 42.212 27.1601 42.3863 27.4549 42.4466C27.5003 42.457 27.5428 42.4625 27.5871 42.4677L27.6452 42.4694C27.6452 42.4694 27.0024 41.8677 27.2608 41.2982C27.093 41.1827 26.8429 41.11 26.563 41.11ZM25.4011 24.3215C24.4389 23.8519 23.7542 22.6745 23.7542 21.294C23.7542 19.8291 24.5237 18.5911 25.581 18.186C23.9936 18.5382 22.8737 19.9485 23.0138 21.5386C23.1325 22.8863 24.1168 23.9634 25.4011 24.3215ZM35.6203 20.9428C36.642 20.7505 36.9884 21.6587 36.9884 21.9843C36.9884 23.2157 36.0296 23.7115 35.2346 23.7163V23.717C38.9225 23.7167 37.6229 18.9413 35.6203 20.9428ZM33.1555 31.5402C34.918 31.5402 34.7993 29.2383 34.4184 28.8564C34.9837 28.2914 36.1476 25.6989 36.1476 25.22C36.1476 25.22 33.8212 24.7183 34.1931 23.1043C34.1924 23.1032 34.1924 23.1025 34.1924 23.1011L34.1613 23.0956C33.5271 23.7644 33.9129 25.1595 34.9183 25.5075C34.9183 25.5075 34.5305 27.0413 33.5721 28.0142C32.6182 27.9772 31.2809 27.8516 30.1066 27.4022C31.922 28.3658 33.7911 29.822 33.1555 31.5402ZM26.2709 20.4879C26.7263 20.4515 27.128 20.7747 27.1667 21.21C27.2041 21.6431 26.865 22.0261 26.4086 22.0625C25.9512 22.0992 25.5496 21.776 25.5129 21.3411C25.5131 21.6653 25.642 21.9762 25.8714 22.2054C26.1007 22.4345 26.4117 22.5632 26.736 22.5631L26.7664 22.5624C26.827 22.8614 26.8477 23.1793 26.7501 23.4118C27.4099 22.8382 27.9587 22.1206 27.9587 21.3407C28.0056 21.1726 28.016 20.9965 27.9891 20.824C27.9623 20.6516 27.8988 20.4869 27.803 20.341C27.7072 20.1951 27.5813 20.0714 27.4338 19.9783C27.2862 19.8851 27.1204 19.8246 26.9475 19.8008C26.7746 19.777 26.5986 19.7906 26.4314 19.8404C26.2642 19.8903 26.1095 19.9754 25.9779 20.0901C25.8463 20.2047 25.7408 20.3461 25.6684 20.5049C25.596 20.6637 25.5584 20.8361 25.5582 21.0107C25.6648 20.728 25.935 20.5152 26.2709 20.4879ZM39.2588 19.5983C38.4613 18.8001 39.6394 17.3079 40.0726 17.3079C39.5989 17.3079 37.5468 18.6513 38.2436 19.5983H39.2588ZM28.9904 32.864C29.6226 33.0584 30.2585 32.8214 30.4062 32.336C30.5547 31.8492 30.1599 31.2998 29.5267 31.1046C29.4408 31.0792 29.353 31.0605 29.2641 31.0489C30.1786 31.5707 30.1679 32.6166 28.9904 32.864ZM27.1567 26.1466C27.1567 26.1466 28.0628 26.4334 29.1773 26.9427C28.9547 26.8061 28.7462 26.6478 28.5548 26.4701C27.9891 25.9355 27.539 25.6438 27.1567 25.4958V26.1466ZM27.5003 37.7996C29.3946 37.7996 35.9435 33.6183 35.9435 33.6183C34.3256 33.6183 33.6727 33.3678 33.6727 33.3678C33.3074 33.5584 32.558 33.9345 30.9609 34.8749C29.661 35.6399 28.7898 36.6073 27.6047 37.0297C27.4245 37.0951 27.2805 37.1103 27.157 37.1038C26.8844 37.0806 26.5841 37.0429 26.3076 37.0266V31.0133C26.3076 30.3825 25.8471 30.1289 25.5437 30.1289V37.1273C25.0316 37.3989 24.7794 37.7366 24.641 38.0518C24.641 38.0518 23.6646 37.9217 23.6923 39.7295C23.6923 39.2496 24.4036 38.4113 24.8963 38.4113C24.896 37.7996 26.691 37.7996 27.5003 37.7996ZM43.8366 47.4811C43.3567 47.4811 41.1552 47.5745 40.9579 45.657C40.4718 45.5522 39.903 45.5318 39.3072 45.6166C40.8635 48.5865 42.553 48.6101 42.9948 48.6333C43.6823 49.4007 43.4519 51.9918 42.4582 51.9402C38.8197 51.7458 38.9533 53.9601 39.3615 54.4127C39.3615 52.744 40.4954 52.3482 43.3619 52.3482C43.3615 52.3468 45.7039 49.3488 43.8366 47.4811ZM44.5846 54.6473H44.0919C44.0504 55.4427 44.8372 55.677 44.8372 55.677C44.5846 55.424 44.4002 54.8334 44.5846 54.6473ZM39.9805 55.7669C39.7715 55.5572 39.5985 54.7172 39.9023 54.4113H39.3605C39.3152 55.2718 39.9805 55.7669 39.9805 55.7669ZM50.8408 28.1339C50.8408 25.5933 47.3564 25.9929 47.1844 27.9433C47.338 26.5133 49.6662 26.3023 49.6662 28.0935C49.6662 29.9449 45.3244 31.1569 45.3244 34.2853C45.3244 37.7328 48.7711 38.0518 48.4224 41.2031C48.3636 41.7487 47.7795 42.4618 46.9325 42.4618C45.1178 42.4618 44.1466 41.6913 43.5823 40.6031C44.1591 42.1438 45.1745 43.3247 47.2868 43.3247C49.4759 43.3247 49.6745 41.7068 49.6745 41.3311C49.6745 38.1757 46.3789 37.4252 46.3789 34.4265C46.38 31.507 50.8408 30.304 50.8408 28.1339ZM25.1461 40.3921C25.1461 41.365 25.5426 41.7418 25.5426 41.7418C25.5426 41.1557 25.7838 40.6595 25.9215 40.5232C25.7181 40.3184 25.1461 40.3921 25.1461 40.3921ZM50.3246 35.0147C49.9021 35.0143 49.4948 35.1722 49.1829 35.4573C48.871 35.7423 48.6772 36.1338 48.6397 36.5547C48.6798 36.3474 48.8185 36.1461 49.0877 35.9444C50.1015 35.1911 52.0871 36.7083 50.9547 38.276C51.2679 38.1502 51.5362 37.9334 51.725 37.6537C51.9138 37.374 52.0145 37.0441 52.0141 36.7066C52.0144 36.2582 51.8366 35.8281 51.5197 35.5108C51.2029 35.1935 50.773 35.015 50.3246 35.0147ZM42.5727 54.6473H41.9821C41.9212 55.7711 42.6405 55.9399 42.6405 55.9399C42.3357 55.6361 42.2845 54.9351 42.5727 54.6473ZM25.8824 48.654C25.7907 48.654 25.7056 48.673 25.6246 48.7042C25.4836 48.8095 25.3698 48.947 25.2929 49.1054C25.2161 49.2637 25.1783 49.4382 25.1828 49.6141C25.229 49.7636 25.3218 49.8944 25.4477 49.9872C25.5736 50.08 25.726 50.1301 25.8824 50.13C25.9793 50.13 26.0753 50.1109 26.1648 50.0738C26.2544 50.0368 26.3357 49.9824 26.4042 49.9139C26.4728 49.8453 26.5271 49.764 26.5642 49.6744C26.6013 49.5849 26.6204 49.4889 26.6204 49.392C26.6204 49.2951 26.6013 49.1991 26.5642 49.1096C26.5271 49.0201 26.4728 48.9387 26.4042 48.8702C26.3357 48.8016 26.2544 48.7473 26.1648 48.7102C26.0753 48.6731 25.9793 48.654 25.8824 48.654ZM30.0329 54.111H29.179C29.1717 55.4797 30.0571 55.7282 30.0571 55.7282C29.807 55.4766 29.4904 54.6532 30.0329 54.111ZM32.6811 45.4553C32.6811 42.3248 40.1788 41.9573 40.1788 39.378C40.1788 38.3279 39.2723 37.8535 38.628 37.8535C38.81 38.0362 39.7857 40.134 36.9853 40.134C34.453 40.981 28.9382 45.775 32.7662 47.4361C32.7645 47.9184 32.6998 51.5053 30.4007 51.2233C27.0889 50.813 26.2626 52.1821 26.8982 53.7235C26.8982 51.3856 28.54 51.8202 30.6837 51.8202C32.0244 51.8202 33.9845 50.1252 33.9845 47.2704C33.9841 47.2697 32.6811 46.7701 32.6811 45.4553ZM26.3073 47.3742V41.0875C25.8824 41.0875 25.5433 41.7432 25.5433 41.7432V47.1064V47.0718L25.079 47.0732L25.0828 47.7506C25.4399 47.7503 26.3073 47.5659 26.3073 47.3742ZM27.5978 55.4745C27.5978 55.4745 26.9349 54.4331 27.6452 53.7231H26.8979C26.5976 55.0237 27.5978 55.4745 27.5978 55.4745ZM32.2199 54.1245H31.5999C31.5951 55.0908 32.7175 55.4569 32.7175 55.4569C32.3223 55.0628 32.0514 54.2906 32.2199 54.1245Z" fill="#6A7AB5"/>
<path d="M11.3714 43.688L11.3303 43.5611L11.3126 43.4292C11.2521 42.977 11.1427 42.1349 10.4926 41.984C10.3189 41.9439 10.1394 41.9643 9.94734 42.0432C9.99958 41.8432 9.9937 41.6619 9.93073 41.4962C9.6913 40.8727 8.84259 40.881 8.38657 40.8865H8.25267L8.1205 40.8623C7.67279 40.78 6.83756 40.6243 6.49469 41.1959C6.40231 41.3484 6.36598 41.5256 6.38155 41.7318C6.2082 41.6201 6.03313 41.5695 5.85668 41.5785C5.18891 41.6142 4.93426 42.4231 4.7976 42.8594L4.75573 42.9853L4.6938 43.1033C4.47513 43.5047 4.06963 44.2492 4.50766 44.7534C4.6246 44.8883 4.78203 44.9782 4.98305 45.026C4.82424 45.1575 4.72148 45.3073 4.67685 45.4799C4.50247 46.1235 5.19445 46.6158 5.56466 46.8802L5.6733 46.9597L5.76706 47.0542C6.08088 47.3867 6.66457 48.0008 7.2787 47.7406C7.44166 47.6708 7.57591 47.5493 7.68386 47.3732C7.76101 47.5652 7.87139 47.7078 8.02051 47.8057C8.57963 48.1683 9.26123 47.6631 9.62799 47.3936L9.73628 47.3144L9.85669 47.2552C10.2684 47.0584 11.0351 46.694 10.9774 46.029C10.9621 45.8501 10.8874 45.6872 10.7538 45.5305C10.9597 45.5183 11.1289 45.4557 11.2669 45.344C11.787 44.9246 11.5168 44.1205 11.3714 43.688Z" fill="white"/>
<path d="M8.44897 44.2272C12.1819 46.4336 11.0325 44.0068 10.9501 43.648C10.8675 43.2909 10.836 40.6071 8.44897 44.2272ZM8.21439 44.7794C7.27018 49.0098 9.22191 47.1681 9.53677 46.9802C9.85127 46.791 12.394 45.9315 8.21439 44.7794ZM7.61513 44.7278C3.29784 45.1357 5.65405 46.4235 5.93119 46.6647C6.20867 46.9045 7.81061 49.0579 7.61513 44.7278ZM7.4795 44.1407C5.75681 40.1618 5.25962 42.8003 5.11603 43.1387C4.97279 43.475 3.41963 45.6658 7.4795 44.1407Z" fill="#ED1C24"/>
<path d="M69.1371 43.1033L69.0752 42.9853L69.0333 42.859C68.8963 42.4227 68.6413 41.6131 67.9763 41.5781C67.7974 41.5698 67.623 41.6193 67.45 41.7297C67.466 41.5248 67.4279 41.348 67.3376 41.1955C66.9933 40.6235 66.1595 40.7792 65.7114 40.8616L65.5779 40.8858H65.4443C64.9904 40.8796 64.141 40.872 63.9022 41.4954C63.8372 41.6612 63.8324 41.8428 63.8832 42.0424C63.6943 41.9639 63.5147 41.9435 63.3397 41.9836C62.6902 42.1338 62.5788 42.9763 62.5214 43.4285L62.501 43.5603L62.4608 43.6873C62.3148 44.1198 62.0457 44.9239 62.565 45.3442C62.7027 45.4556 62.8715 45.5179 63.0781 45.5304C62.9442 45.6871 62.8695 45.8511 62.8546 46.0293C62.7971 46.6943 63.5628 47.0583 63.9752 47.2552L64.0946 47.3143L64.2026 47.3935C64.57 47.6634 65.2523 48.1679 65.81 47.8056C65.9612 47.7074 66.0706 47.5652 66.147 47.3728C66.2553 47.5489 66.3885 47.6696 66.5532 47.7402C67.1667 48.0004 67.7514 47.3863 68.0649 47.0541L68.1586 46.9597L68.2662 46.8797C68.6375 46.6158 69.3288 46.1231 69.1554 45.4799C69.1087 45.3076 69.0084 45.1567 68.8482 45.0259C69.0482 44.9782 69.2063 44.8882 69.3225 44.7533C69.7616 44.2488 69.3568 43.5046 69.1371 43.1033Z" fill="white"/>
<path d="M65.8375 43.832C62.5869 40.9644 65.2486 41.3066 65.6143 41.2741C65.9787 41.2437 68.5421 40.4434 65.8375 43.832ZM65.3849 44.2271C61.6524 46.4335 62.799 44.0067 62.8834 43.6479C62.9651 43.2909 62.9959 40.607 65.3849 44.2271ZM65.6188 44.7793C66.5637 49.0098 64.6116 47.1681 64.2961 46.9802C63.9816 46.7909 61.4403 45.9315 65.6188 44.7793ZM66.2174 44.7278C70.5343 45.1357 68.1799 46.4235 67.9017 46.6647C67.6263 46.9044 66.0219 49.0579 66.2174 44.7278ZM66.3516 44.1406C68.075 40.1617 68.5715 42.8003 68.7154 43.1386C68.8583 43.475 70.4115 45.6658 66.3516 44.1406Z" fill="#ED1C24"/>
<path d="M67.1902 44.2648C67.1861 44.2298 67.175 44.1997 67.1701 44.1658C67.5168 43.9115 67.8912 43.6389 67.8912 43.6389L67.8552 43.5582L66.9996 43.7081C66.8956 43.536 66.753 43.3906 66.583 43.2833C66.4131 43.1759 66.2204 43.1097 66.0204 43.0898C65.9329 42.8263 65.846 42.5627 65.7595 42.2988L65.6717 42.3061C65.6717 42.3061 65.6128 42.722 65.553 43.1296C65.2988 43.1981 65.0717 43.3429 64.9022 43.5444C64.8132 43.6542 64.7422 43.7774 64.6918 43.9094C64.2694 43.9094 63.8234 43.9112 63.8234 43.9112L63.8047 43.9983C63.8047 43.9983 64.2202 44.2007 64.6046 44.389C64.606 44.4243 64.6012 44.4585 64.6046 44.4938C64.6336 44.8285 64.7926 45.1386 65.0475 45.3574L64.761 46.2507L64.8354 46.2954C64.8354 46.2954 65.1859 45.9328 65.4976 45.6127C65.6606 45.6657 65.8339 45.6871 66.0093 45.6716C66.1858 45.6581 66.3533 45.6055 66.5055 45.5262C66.8671 45.7864 67.275 46.0812 67.275 46.0812L67.3414 46.0234C67.3414 46.0234 67.1099 45.5864 66.9041 45.1955C67.1167 44.9341 67.2193 44.6004 67.1902 44.2648Z" fill="white"/>
<path d="M65.831 43.6154C65.7304 43.6231 65.6325 43.6511 65.543 43.6976C65.4535 43.7441 65.3744 43.8082 65.3103 43.886C65.2292 43.9826 65.1732 44.0977 65.1473 44.2212C65.1214 44.3446 65.1263 44.4725 65.1616 44.5936C65.1969 44.7146 65.2616 44.8251 65.3498 44.9152C65.438 45.0053 65.5471 45.0723 65.6674 45.1101C65.7877 45.148 65.9155 45.1556 66.0395 45.1323C66.1634 45.1089 66.2797 45.0554 66.378 44.9764C66.4763 44.8974 66.5536 44.7953 66.603 44.6793C66.6524 44.5633 66.6725 44.4368 66.6614 44.3112C66.6527 44.2109 66.6243 44.1134 66.5779 44.0241C66.5314 43.9348 66.4678 43.8555 66.3906 43.7909C66.3135 43.7263 66.2243 43.6775 66.1283 43.6474C66.0323 43.6173 65.9312 43.6064 65.831 43.6154ZM7.99535 43.832C11.2466 40.9644 8.58388 41.3066 8.21886 41.2741C7.85315 41.2437 5.29004 40.4434 7.99535 43.832Z" fill="#ED1C24"/>
<path d="M9.22562 44.3873C9.61244 44.1994 10.0262 43.9963 10.0262 43.9963L10.0065 43.9094C10.0065 43.9094 9.56158 43.9077 9.13843 43.9077C9.08852 43.7756 9.01773 43.6524 8.92876 43.5427C8.75933 43.341 8.53203 43.1962 8.2776 43.1278L8.16031 42.3044L8.07105 42.2971C8.07105 42.2971 7.94165 42.6957 7.81328 43.0881C7.61283 43.1076 7.41971 43.1736 7.24925 43.2809C7.0788 43.3882 6.93571 43.5337 6.83136 43.706L5.97468 43.5565L5.94043 43.6371C5.94043 43.6371 6.3141 43.9098 6.66044 44.1641C6.6549 44.1983 6.64487 44.2291 6.64106 44.2627C6.61215 44.5984 6.71543 44.9321 6.92893 45.1927C6.72099 45.5837 6.48986 46.0207 6.48986 46.0207L6.55803 46.0781C6.55803 46.0781 6.96526 45.783 7.32647 45.5231C7.47802 45.6024 7.64548 45.6536 7.82193 45.6685C7.99476 45.6839 8.16891 45.6638 8.33365 45.6093L8.9945 46.2923L9.07165 46.2473L8.78379 45.3557C9.03806 45.1358 9.19687 44.8256 9.22666 44.4907C9.23116 44.4568 9.22562 44.4225 9.22562 44.3873Z" fill="white"/>
<path d="M8.52284 43.8859C8.45882 43.8078 8.37963 43.7436 8.29006 43.6971C8.2005 43.6506 8.10242 43.6228 8.00178 43.6153C7.90158 43.6064 7.80061 43.6174 7.70465 43.6475C7.60869 43.6777 7.51961 43.7265 7.44252 43.7911C7.36543 43.8557 7.30184 43.9349 7.25537 44.0241C7.20891 44.1134 7.18049 44.2109 7.17175 44.3111C7.15445 44.5166 7.21776 44.7131 7.3482 44.8712C7.44602 44.9869 7.57586 45.071 7.72138 45.1131C7.8669 45.1552 8.02161 45.1533 8.16605 45.1076C8.31049 45.062 8.43821 44.9747 8.53315 44.8566C8.6281 44.7386 8.68602 44.5952 8.69965 44.4443C8.71679 44.2421 8.65323 44.0413 8.52284 43.8859Z" fill="#ED1C24"/>
<path d="M8.47082 25.7927C6.65367 25.4717 4.91333 26.6916 4.59225 28.5091C4.27152 30.3277 5.4901 32.0677 7.3076 32.3884C9.12648 32.7095 10.8675 31.4898 11.1875 29.6717C11.5093 27.8542 10.29 26.1142 8.47082 25.7927Z" fill="white"/>
<path d="M9.22837 28.3253C9.18044 28.295 9.13292 28.2641 9.08583 28.2326C8.81111 28.0506 8.2724 27.6946 8.25752 27.6838C8.18313 27.6326 8.11048 27.5838 8.03886 27.5357C7.82517 27.39 7.60685 27.2512 7.38424 27.1195C7.30938 27.0766 7.23335 27.0358 7.15623 26.997C6.83619 26.8355 6.52929 26.7379 6.16739 26.7061C5.88691 26.9091 5.64407 27.1595 5.4498 27.4461C6.28226 27.7465 7.09534 28.2284 8.78793 29.2795C8.88515 29.0567 9.209 28.3672 9.22837 28.3253ZM8.44782 30.1203C8.48207 30.0359 8.6305 29.6594 8.6914 29.5145C6.95659 28.4371 6.15112 27.9603 5.31694 27.6651C5.18576 27.9025 5.08829 28.1569 5.02734 28.4211C5.50343 29.0751 6.77979 29.7172 8.44782 30.1203ZM8.25994 27.3821C8.90937 26.9981 9.64772 27.1026 10.2172 27.297C10.0046 27.0198 9.74423 26.7827 9.44842 26.5967C8.91006 26.4891 8.16722 26.4729 7.57557 26.9431C7.79078 27.069 8.01291 27.2164 8.25994 27.3821Z" fill="#ED1C24"/>
<path d="M5.66901 30.4855C5.75585 30.545 5.84512 30.6017 5.93923 30.655C6.13091 30.7605 6.33747 30.8519 6.55198 30.9301C6.64263 30.965 6.73467 30.9961 6.82774 31.0262C7.15262 31.1335 7.89996 31.3273 7.95532 31.3401L8.35252 30.3564C7.05921 30.0357 5.64306 29.4741 4.97045 28.7444C4.92955 29.0736 4.94523 29.4073 5.01682 29.7312C5.15902 30.0409 5.38668 30.2872 5.66901 30.4855ZM7.99892 31.6106L7.72905 31.5414C7.46165 31.4744 7.19585 31.4012 6.93188 31.3217C7.06647 31.6085 7.27787 31.8321 7.50346 32.005C7.79832 32.0444 8.09744 32.0387 8.39058 31.9881C8.18402 31.8265 7.99892 31.6106 7.99892 31.6106ZM10.7039 28.2365C10.6432 28.0362 10.5615 27.8429 10.4603 27.6597C9.94997 27.4328 9.17391 27.2103 8.49576 27.5421L9.43063 28.1597C9.62577 28.1424 9.80534 28.1369 9.96969 28.141C10.0593 28.1424 10.1427 28.1472 10.2219 28.1552C10.4056 28.1715 10.5617 28.2009 10.7039 28.2365ZM10.225 28.4078C10.1977 29.945 9.47284 31.1307 8.84833 31.8729C9.82575 31.5331 10.5966 30.6906 10.789 29.6025C10.8513 29.2428 10.8464 28.8747 10.7745 28.5168C10.5955 28.4618 10.4114 28.4253 10.225 28.4078ZM7.34257 26.8124C7.78025 26.4266 8.29716 26.2962 8.77429 26.2855C8.65234 26.2454 8.5277 26.2141 8.40131 26.1917C7.74771 26.0761 7.07424 26.1861 6.49143 26.5038C6.7921 26.5629 7.06405 26.6685 7.34257 26.8124Z" fill="#ED1C24"/>
<path d="M9.46684 28.4092C9.24436 28.8724 9.11358 29.1562 9.00494 29.4143C8.97138 29.4925 8.9392 29.5682 8.90633 29.6475C8.85443 29.7769 8.69458 30.1793 8.69458 30.1793L8.59978 30.4159L8.18667 31.4387C8.30085 31.5902 8.4389 31.7134 8.57453 31.8092C9.18797 31.1096 9.95192 29.9329 9.9751 28.3929C9.8201 28.3874 9.65021 28.3932 9.46684 28.4092ZM6.62209 31.22C6.41534 31.1503 6.21302 31.068 6.01626 30.9737C6.08892 31.1975 6.19341 31.3971 6.29825 31.5674C6.51864 31.7089 6.76049 31.82 7.0186 31.8995C6.85183 31.7117 6.70755 31.4885 6.62209 31.22ZM5.71317 30.8083C5.57571 30.726 5.44528 30.6325 5.32324 30.5287C5.45987 30.7724 5.63042 30.9955 5.82977 31.1913C5.78048 31.067 5.74148 30.9389 5.71317 30.8083Z" fill="#ED1C24"/>
<path d="M62.2817 29.6715C62.6031 31.4897 64.3424 32.7089 66.1603 32.3882C67.9788 32.0675 69.1967 30.3271 68.8777 28.5089C68.5566 26.6918 66.8166 25.4722 64.9981 25.7926C63.1796 26.114 61.961 27.854 62.2817 29.6715Z" fill="white"/>
<path d="M64.2408 28.3253L64.3844 28.2326C64.7342 28.0016 65.0832 27.7693 65.4314 27.5357C65.6445 27.3893 65.8629 27.2504 66.086 27.1195C66.1638 27.0756 66.2392 27.0341 66.3133 26.997C66.6326 26.8355 66.9406 26.7379 67.3021 26.7061C67.5827 26.9083 67.825 27.1589 68.0176 27.4461C67.1859 27.7465 66.3752 28.2284 64.6802 29.2795C64.5833 29.0567 64.2609 28.3672 64.2408 28.3253ZM65.0217 30.1203C64.9871 30.0359 64.8376 29.6594 64.7802 29.5145C66.5115 28.4371 67.3194 27.9603 68.1533 27.6651C68.282 27.8977 68.3795 28.1509 68.4432 28.4211C67.9661 29.0751 66.6894 29.7172 65.0217 30.1203ZM65.2096 27.3821C64.5595 26.9981 63.8218 27.1026 63.252 27.297C63.4653 27.0198 63.7262 26.7826 64.0225 26.5967C64.5601 26.4891 65.3023 26.4729 65.8933 26.9431C65.6612 27.0828 65.4332 27.2292 65.2096 27.3821Z" fill="#ED1C24"/>
<path d="M67.7989 30.4854C67.712 30.5466 67.6221 30.6032 67.5294 30.655C67.3387 30.7605 67.1325 30.8518 66.9183 30.93C66.8267 30.965 66.7339 30.9961 66.6412 31.0262C66.3174 31.1335 65.57 31.3272 65.514 31.34C65.5012 31.3113 65.2202 30.6193 65.1168 30.3564C66.4094 30.0357 67.8245 29.4741 68.4995 28.7444C68.5392 29.0737 68.5232 29.4072 68.4521 29.7312C68.3103 30.0408 68.083 30.2872 67.7989 30.4854ZM65.4711 31.6106L65.7389 31.5414C66.0072 31.4745 66.2739 31.4013 66.5388 31.3217C66.4018 31.6085 66.1914 31.832 65.9665 32.005C65.6719 32.0444 65.373 32.0387 65.0801 31.9881C65.2849 31.8265 65.4711 31.6106 65.4711 31.6106ZM62.7658 28.2365C62.8259 28.0358 62.908 27.8424 63.0107 27.6597C63.5193 27.4328 64.294 27.2103 64.9725 27.5421L64.0383 28.1597C63.859 28.1433 63.6789 28.137 63.4989 28.141C63.4144 28.1422 63.3301 28.147 63.246 28.1552C63.084 28.1695 62.9234 28.1967 62.7658 28.2365ZM63.2446 28.4078C63.2712 29.945 63.9982 31.1307 64.6227 31.8729C63.6425 31.5331 62.8709 30.6906 62.6806 29.6025C62.6173 29.2428 62.6225 28.8745 62.6959 28.5167C62.8746 28.4618 63.0584 28.4252 63.2446 28.4078ZM66.1278 26.8124C65.6897 26.4266 65.1714 26.2962 64.6953 26.2854C64.8174 26.2452 64.9421 26.2139 65.0687 26.1917C65.7219 26.0761 66.3951 26.1862 66.9775 26.5038C66.6779 26.5629 66.4056 26.6685 66.1278 26.8124Z" fill="#ED1C24"/>
<path d="M64.004 28.4092C64.1654 28.741 64.3201 29.0761 64.468 29.4143L64.5635 29.6475C64.6161 29.7769 64.7759 30.1793 64.7759 30.1793L64.87 30.4159L65.2838 31.4387C65.1743 31.5812 65.0436 31.7062 64.8963 31.8092C64.2829 31.1096 63.5179 29.9329 63.4961 28.3929C63.6504 28.3874 63.821 28.3932 64.004 28.4092ZM66.8484 31.22C67.0552 31.1501 67.2577 31.0679 67.4546 30.9737C67.3837 31.182 67.2886 31.3813 67.1712 31.5674C66.9476 31.71 66.7058 31.8218 66.4522 31.8995C66.6187 31.7117 66.7629 31.4885 66.8484 31.22ZM67.758 30.8083C67.8948 30.7253 68.025 30.6319 68.1473 30.5287C68.0107 30.7726 67.8401 30.9957 67.6404 31.1913C67.6892 31.0668 67.7286 30.9387 67.758 30.8083Z" fill="#ED1C24"/>
</g>
<defs>
<clipPath id="clip0_937_1579">
<rect width="72.4773" height="72.4773" fill="white" transform="translate(0.49707 0.533936)"/>
</clipPath>
</defs>
</svg>
