<svg width="72" height="73" viewBox="0 0 72 73" fill="none" xmlns="http://www.w3.org/2000/svg">
<g clip-path="url(#clip0_937_1886)">
<path fill-rule="evenodd" clip-rule="evenodd" d="M71.0964 45.7821C71.0827 45.7411 71.0552 45.7136 71.014 45.7136L66.6 44.0137C66.6823 43.6985 66.8466 43.2735 67.1484 42.8348L69.4239 43.8356C69.5061 43.8768 69.5746 43.8905 69.657 43.8905C69.8626 43.8905 70.0545 43.7807 70.1642 43.6025C70.2191 43.5066 70.3972 43.2188 70.548 42.8485C70.7675 42.259 70.8222 41.7244 70.685 41.2857C70.548 40.8198 70.2191 40.4633 69.7254 40.244L63.6524 37.461C63.6524 37.461 63.6252 37.4474 63.6115 37.4336C63.3784 37.3377 62.9397 37.2142 62.4052 37.3927C62.4052 37.2005 62.4052 37.0086 62.4052 36.8168C62.4052 36.3507 62.3914 35.8573 62.364 35.3636C62.3364 34.8566 62.2955 34.3357 62.2405 33.8011C61.8843 30.7304 61.1713 28.4682 60.8835 27.6459L60.7739 27.3716C59.5812 24.0541 58.6489 21.422 58.6764 18.2829C58.6902 15.9114 61.6512 12.5938 62.7888 11.5109L63.8583 10.4964L52.6309 0.25593L51.7398 0.845552C49.6836 2.20276 47.024 2.94297 44.2411 2.94297C41.3349 2.94297 38.5658 2.13404 36.482 0.667502L35.7006 0.119141L34.9193 0.667502C32.822 2.13404 30.0666 2.94297 27.1603 2.94297C24.3776 2.94297 21.718 2.20276 19.6618 0.845552L18.7708 0.25593L8.62626 9.5093L7.54334 10.4964L8.59876 11.5109C9.73674 12.5938 12.6978 15.9114 12.7252 18.2829C12.739 21.422 11.8067 24.0541 10.6141 27.3716L10.5181 27.6459C10.2303 28.4682 9.50367 30.7304 9.16083 33.8011C9.10615 34.3357 9.06501 34.8566 9.03742 35.3636C9.01029 35.8573 8.9827 36.3507 8.9827 36.8168C8.9827 37.0087 8.9827 37.2005 8.99645 37.3927C8.46193 37.2143 8.02326 37.3377 7.80391 37.4336H7.79011C7.77636 37.4473 7.76261 37.461 7.74898 37.461L1.67616 40.244C1.18252 40.4634 0.853473 40.8198 0.716269 41.2857C0.579438 41.7244 0.634204 42.259 0.853474 42.8485C1.00443 43.2188 1.18252 43.5066 1.251 43.6025C1.34715 43.7807 1.539 43.8905 1.7446 43.8905C1.82683 43.8905 1.89547 43.8769 1.97762 43.8356L4.25329 42.8348C4.55467 43.2735 4.70563 43.6985 4.80166 44.0137L0.387344 45.7136C0.346415 45.7136 0.318866 45.7411 0.305237 45.7821C0.291483 45.8233 0.291483 45.8508 0.305237 45.8918L0.565768 46.5636C3.32124 53.4452 8.00947 59.3536 14.1097 63.6034C19.785 67.5515 26.4338 69.8683 33.3292 70.2932L35.6048 72.5412C35.6322 72.5688 35.6598 72.5825 35.7006 72.5825C35.7282 72.5825 35.7694 72.5688 35.7965 72.5412L38.0724 70.2932C44.9678 69.8683 51.6164 67.5515 57.2782 63.6034C63.3921 59.3536 68.0804 53.4452 70.8358 46.5636L71.0964 45.8918C71.1098 45.8508 71.1098 45.8233 71.0964 45.7821Z" fill="white"/>
<path fill-rule="evenodd" clip-rule="evenodd" d="M7.28687 40.5765C7.06751 40.001 6.99912 39.4114 7.08118 38.8905C7.09494 38.863 7.09494 38.8218 7.10873 38.7809L7.16342 38.5066L1.96805 40.8921C1.66622 41.029 1.47441 41.2211 1.40606 41.4814C1.24131 42.0297 1.58411 42.7428 1.73494 43.0305L1.80342 43.1401L7.3418 40.6999L7.28687 40.5765Z" fill="#224589"/>
<path fill-rule="evenodd" clip-rule="evenodd" d="M64.1172 40.5765C64.3366 40.001 64.4053 39.4114 64.3229 38.8905C64.3094 38.863 64.3094 38.8218 64.2956 38.7809L64.2269 38.5066L69.4363 40.8921C69.7379 41.029 69.9297 41.2211 69.9984 41.4814C70.1628 42.0297 69.8201 42.7428 69.6694 43.0305L69.6007 43.1401L64.0625 40.6999L64.1172 40.5765Z" fill="#224589"/>
<path fill-rule="evenodd" clip-rule="evenodd" d="M17.7611 60.238L16.9521 60.8823L17.6515 61.3347L17.9255 60.3476C17.9528 60.2243 17.9804 60.1283 18.0076 60.0461C17.9255 60.1008 17.8431 60.1696 17.7611 60.238Z" fill="#224589"/>
<path fill-rule="evenodd" clip-rule="evenodd" d="M45.9664 63.3123C45.5553 63.4492 45.3906 63.9154 45.6374 64.6146C45.8843 65.3685 46.2541 65.6016 46.7066 65.4508C47.1316 65.3136 47.2962 64.8886 47.0357 64.1484C46.7888 63.3808 46.4189 63.1614 45.9664 63.3123Z" fill="#224589"/>
<path fill-rule="evenodd" clip-rule="evenodd" d="M49.1627 62.0704L48.9434 62.18L49.3954 63.1533C49.4642 63.1395 49.6149 63.0708 49.6561 63.0436C49.9851 62.8927 50.0948 62.6459 49.9438 62.3168C49.7795 61.9606 49.5052 61.9058 49.1627 62.0704Z" fill="#224589"/>
<path fill-rule="evenodd" clip-rule="evenodd" d="M41.6653 33.5576C41.6653 33.5441 41.021 33.3657 40.5549 33.2835C39.9791 33.1876 39.6363 33.1738 39.5266 33.1601C39.4032 33.1326 39.0879 33.1326 39.1017 32.9545C39.1017 32.8311 39.2388 32.8036 39.376 32.7899C39.5816 32.7764 40.1161 32.8311 40.4314 32.8723C41.1854 32.982 41.6653 33.1326 41.6653 33.1054V32.1593C41.6653 32.1319 40.6095 31.7756 39.472 31.6522C38.7042 31.5835 38.3477 31.5972 37.8954 31.5835C37.8132 31.5835 37.6351 31.611 37.6351 31.4604C37.6351 31.3095 37.7994 31.2957 37.8545 31.282C38.4299 31.2273 39.1705 31.2136 39.938 31.2683C40.7879 31.3232 41.6515 31.6248 41.6515 31.5973V30.5831C41.3225 30.4321 40.8425 30.2813 40.4452 30.2128C39.938 30.1307 39.2663 30.0894 39.1705 30.0894C39.0741 30.0894 39.0332 30.0347 39.0194 29.9935C39.0057 29.9251 39.047 29.8701 39.1429 29.8425C39.2936 29.8154 39.6638 29.8016 40.1161 29.8154C40.4452 29.8287 41.2404 29.9113 41.6377 29.966L41.6241 29.1846C40.8701 28.7872 39.705 28.5953 38.9511 28.4856C37.8132 28.3072 36.7712 28.28 36.593 28.28C36.4971 28.2664 36.4011 28.2664 36.3874 28.1704C36.3874 28.088 36.4422 28.0195 36.593 28.0195C36.7302 28.0195 37.6213 27.9919 39.0195 28.1154C39.6913 28.1704 41.021 28.4306 41.6241 28.5541L41.6104 27.7863C40.9387 27.4574 39.8831 27.2106 38.3615 26.9912C36.4972 26.7172 32.9328 26.8406 32.7409 26.8678C32.4807 26.8816 32.4394 26.8269 32.4257 26.7309C32.412 26.635 32.5079 26.58 32.7001 26.5388C32.8919 26.5116 35.3321 26.2785 37.3061 26.3744C38.8002 26.4428 40.9523 26.8678 41.6104 26.9911L41.5966 26.3881C40.4727 25.6205 38.6221 25.5383 38.4987 25.5383C38.3753 25.5246 38.293 25.4695 38.2793 25.4011C38.2657 25.3324 38.3477 25.2777 38.4437 25.264C38.5396 25.2503 38.8139 25.2228 39.3897 25.264C39.8556 25.2915 41.1032 25.5518 41.5966 25.6615L41.5831 25.0584C40.7467 24.5647 38.8139 24.277 37.3195 24.1398C37.3195 24.1398 37.1414 24.1261 36.8124 24.1127L36.785 24.5101C36.785 24.6334 36.6889 24.7157 36.5656 24.7157C35.6882 24.6744 35.3729 24.6744 34.4956 24.7157H34.4819C34.3722 24.7157 34.2763 24.6334 34.2763 24.5101L34.2488 24.1127C33.4539 24.1398 32.5216 24.2086 31.4799 24.3182C31.3289 24.3319 31.1781 24.3729 31.1647 24.2632C31.1371 24.1948 31.1781 24.1398 31.3703 24.0851C31.5209 24.0576 33.5908 23.7699 34.112 23.7149C34.1392 23.7149 34.1804 23.7149 34.2217 23.7149L34.0845 21.165C34.0845 21.1103 34.112 21.0553 34.1392 21.0006C34.1804 20.9594 34.2354 20.9322 34.2901 20.9322C35.3593 20.891 35.7295 20.891 36.7712 20.9322C36.8261 20.9322 36.8809 20.9594 36.9221 21.0006C36.9496 21.0419 36.9771 21.0966 36.9771 21.1378C37.4567 21.1515 37.9367 21.1788 38.3203 21.2062C39.1292 21.2475 41.0348 21.5214 41.5419 21.5902V21.0006C41.446 20.9322 41.3089 20.8911 41.1992 20.836C40.6646 20.6304 38.5946 20.2742 35.6473 20.2742C32.6864 20.2742 30.9179 20.6579 30.6435 20.7263C30.342 20.8088 30.0131 20.9185 30.0268 21.1103L30.068 27.7863C30.0268 28.2388 30.0815 30.0347 30.0953 30.4597C30.1089 31.1586 31.2057 31.5973 33.6046 32.4337C36.1132 33.352 39.2802 34.339 41.6654 34.997L41.6653 33.5576Z" fill="#224589"/>
<path fill-rule="evenodd" clip-rule="evenodd" d="M39.5613 34.9426C39.0814 34.8054 38.8345 34.7233 38.355 34.5723C38.3 34.5587 38.2588 34.5861 38.2588 34.6411C38.2588 35.4909 38.2588 35.9158 38.2588 36.7247C38.2588 36.7795 38.3 36.8206 38.3412 36.8479C38.8208 37.0125 39.0677 37.0947 39.5613 37.2593C39.6023 37.2866 39.6435 37.2456 39.6435 37.2043C39.6435 36.3957 39.6435 35.9434 39.6435 35.0659C39.6435 35.011 39.6023 34.9563 39.5613 34.9426Z" fill="#224589"/>
<path fill-rule="evenodd" clip-rule="evenodd" d="M37.5367 34.3243C37.0431 34.1734 36.81 34.105 36.3166 33.9403C36.2754 33.9266 36.2344 33.9541 36.2344 33.9954C36.2344 34.804 36.2344 35.2152 36.2344 36.0241C36.2344 36.0653 36.2754 36.12 36.3166 36.1338C36.7962 36.2984 37.0431 36.3942 37.5367 36.5587C37.5776 36.5724 37.6189 36.5587 37.6189 36.5039C37.6189 35.6951 37.6189 35.2701 37.6189 34.434C37.6189 34.3928 37.5776 34.3378 37.5367 34.3243Z" fill="#224589"/>
<path fill-rule="evenodd" clip-rule="evenodd" d="M33.4722 32.9832C32.9788 32.8186 32.7458 32.7365 32.2521 32.5446C32.2111 32.5309 32.1699 32.5583 32.1699 32.5993V34.5871C32.1699 34.6283 32.2111 34.6831 32.2521 34.6967C32.732 34.8611 32.9788 34.9574 33.4722 35.1354C33.5134 35.1492 33.5543 35.1217 33.5543 35.0804C33.5543 34.2718 33.5543 33.8744 33.5543 33.0929C33.5543 33.0517 33.5134 33.0104 33.4722 32.9832Z" fill="#224589"/>
<path fill-rule="evenodd" clip-rule="evenodd" d="M40.4344 18.2941C40.3932 18.2257 40.3659 18.1432 40.3109 18.0335C39.8311 17.8555 38.6247 17.554 37.7611 17.4717C37.5968 17.458 37.3499 17.4442 37.3499 17.3208C37.3499 17.2111 37.4458 17.1699 37.7202 17.1699C38.4191 17.1836 39.5433 17.362 40.0369 17.4579C39.8998 17.1562 39.7352 16.7999 39.5571 16.416C38.6247 16.0595 36.8566 15.9498 36.541 15.9226C36.1986 15.8814 36.0889 15.8402 36.1161 15.7305C36.1298 15.6208 36.3491 15.6345 36.8838 15.6208C37.5007 15.6074 38.8578 15.7171 39.2418 15.7579C39.1184 15.484 38.9812 15.1958 38.8441 14.8806C38.3232 14.5241 37.3362 14.4557 37.0622 14.4419C36.8016 14.4282 36.7056 14.3323 36.7194 14.2501C36.7331 14.1542 36.8701 14.1267 36.9798 14.1129C37.076 14.1129 38.2136 14.0992 38.3095 14.0854C38.3782 14.0854 38.4467 14.0445 38.392 13.9486C38.2823 13.7018 38.2136 13.5508 38.0902 13.3043C37.9121 13.2219 37.679 13.1534 37.4872 13.1259C37.3225 13.0985 36.7879 13.0712 36.5139 13.0438C36.3629 13.0026 36.3355 12.9754 36.3355 12.9203C36.3355 12.8519 36.3768 12.8107 36.5139 12.797C36.8566 12.7694 37.4872 12.797 37.6242 12.7832C37.7202 12.7832 37.8298 12.7423 37.7887 12.6597C37.7202 12.4955 37.6515 12.3582 37.5831 12.2076C37.4321 12.1389 37.199 12.0979 37.0073 12.0567C36.7605 12.0017 36.2945 11.9608 35.9105 11.947C35.8146 11.947 35.7324 11.8921 35.7324 11.8374C35.7324 11.7824 35.7734 11.7277 35.8831 11.7139C36.1437 11.6727 36.6921 11.6727 36.9113 11.6593C37.0894 11.6455 37.3089 11.618 37.2404 11.4671C37.117 11.2206 37.0485 11.0422 36.9251 10.8091C36.7605 10.8091 36.4727 10.7954 36.2671 10.7682C36.1849 10.7545 36.0753 10.7407 36.0753 10.6722C36.0615 10.6035 36.1712 10.5626 36.2671 10.5213C36.3355 10.4938 36.5686 10.4254 36.7332 10.3842C36.6508 10.2335 36.5961 10.0963 36.5276 9.94549C36.2945 9.93174 35.8697 9.90456 35.5407 9.90456C35.4035 9.90456 35.3348 9.83584 35.3348 9.78111C35.3348 9.7261 35.3624 9.68517 35.5132 9.65775C35.76 9.58902 36.1437 9.56172 36.3355 9.54805C36.1161 9.08184 35.9105 8.62946 35.7187 8.21826C34.2109 11.4399 31.4417 17.3755 30.9893 18.3215C32.5521 17.9513 34.6633 17.8141 35.6504 17.8141C36.6374 17.8141 38.8578 17.9652 40.4344 18.2941Z" fill="#224589"/>
<path fill-rule="evenodd" clip-rule="evenodd" d="M31.436 32.2539C30.9564 32.0759 30.7095 31.9937 30.2159 31.8018C30.175 31.7881 30.1338 31.8018 30.1338 31.8565V33.8718C30.1338 33.9265 30.175 33.9815 30.2159 33.9815C30.7095 34.1595 30.9564 34.2418 31.436 34.4202C31.491 34.4202 31.5185 34.4064 31.5185 34.3514V32.3636C31.5185 32.3226 31.4909 32.2815 31.436 32.2539Z" fill="#224589"/>
<path fill-rule="evenodd" clip-rule="evenodd" d="M35.5074 33.6755C35.014 33.5246 34.781 33.4287 34.2873 33.2643C34.2464 33.2506 34.2051 33.2778 34.2051 33.3191V35.3068C34.2051 35.3481 34.2464 35.4028 34.2873 35.4165C34.7672 35.5946 35.014 35.6771 35.5074 35.8414C35.5486 35.869 35.5898 35.8414 35.5898 35.8003C35.5898 34.9916 35.5898 34.5804 35.5898 33.7852C35.5898 33.7441 35.5486 33.6893 35.5074 33.6755Z" fill="#224589"/>
<path fill-rule="evenodd" clip-rule="evenodd" d="M31.5687 43.7899C31.5687 43.2687 31.1851 42.885 30.6779 42.885C29.965 42.885 29.6635 43.4197 29.6084 44.3383L30.8973 44.2971C31.3769 44.2971 31.5687 44.1461 31.5687 43.7899Z" fill="#224589"/>
<path fill-rule="evenodd" clip-rule="evenodd" d="M44.7074 42.8589C43.7754 42.8589 43.4189 43.7087 43.4189 45.0385C43.4189 46.615 43.8851 47.4511 44.7486 47.4511C45.6123 47.4511 46.0784 46.711 46.0784 45.2716C46.0784 43.7087 45.5848 42.8589 44.7074 42.8589Z" fill="#224589"/>
<path fill-rule="evenodd" clip-rule="evenodd" d="M38.8139 22.4756C38.9235 22.4618 39.4169 22.4618 40.0611 22.544C40.541 22.6128 41.2403 22.7633 41.5556 22.8321V22.2838C40.8975 22.0095 39.3896 21.7354 38.5808 21.6395C38.0872 21.5708 37.5116 21.516 36.9495 21.4749L36.8398 23.627C37.1275 23.6407 37.3194 23.6407 37.3194 23.6407C37.6896 23.6682 38.0599 23.682 38.4298 23.7232C39.8555 23.8601 41.0481 24.1344 41.5692 24.244V23.4764C40.7604 22.8046 38.896 22.7497 38.7863 22.7497C38.6767 22.7497 38.567 22.7224 38.567 22.6128C38.567 22.5031 38.7042 22.4893 38.8139 22.4756Z" fill="#224589"/>
<path fill-rule="evenodd" clip-rule="evenodd" d="M30.0571 20.2432C30.3036 20.1886 32.1954 19.5031 35.6502 19.5031C39.0908 19.5031 41.1471 20.257 41.3938 20.3667C41.6681 20.4901 41.9147 20.5723 42.0381 20.3667C42.1477 20.1611 42.0109 19.9006 41.8187 19.7771C41.0648 19.2976 38.419 18.6942 35.6502 18.7354C32.8672 18.7492 30.0842 19.3659 29.7006 19.5306C29.3028 19.6812 29.1385 19.9143 29.262 20.1337C29.4675 20.5039 29.8103 20.3117 30.0571 20.2432Z" fill="#224589"/>
<path fill-rule="evenodd" clip-rule="evenodd" d="M41.5828 35.5433C41.1029 35.3925 40.8561 35.324 40.3765 35.1869C40.3215 35.1731 40.294 35.2006 40.294 35.2553C40.2803 36.1601 40.2803 36.6125 40.2803 37.4211C40.2803 37.4761 40.3215 37.5174 40.3627 37.5446C40.8561 37.7092 41.1029 37.7913 41.5828 37.9695C41.6238 37.9833 41.665 37.956 41.665 37.9148V35.6664C41.665 35.6118 41.6237 35.5569 41.5828 35.5433Z" fill="#224589"/>
<path fill-rule="evenodd" clip-rule="evenodd" d="M34.94 24.2745C35.5705 24.2608 36.3657 24.2745 36.3657 24.2745L36.5163 21.4919C35.8583 21.4507 34.7754 21.5056 34.7754 21.5056L34.94 24.2745Z" fill="#224589"/>
<path fill-rule="evenodd" clip-rule="evenodd" d="M50.6558 61.9401C50.9987 62.6669 50.6147 63.2836 49.9156 63.5989C49.8607 63.6264 49.71 63.6948 49.6551 63.7086L50.0938 64.6409C50.135 64.723 50.1213 64.7777 50.0115 64.8327L49.5592 65.0383C49.477 65.0796 49.4083 65.0658 49.3673 64.9699L48.01 62.091C47.9553 61.9813 47.9826 61.9401 48.0787 61.8855L48.8052 61.5565C49.3261 61.3096 49.7373 61.2412 50.0938 61.3781C50.3406 61.4877 50.5462 61.6933 50.6558 61.9401ZM63.2266 48.7389C63.1855 48.6564 63.1718 48.588 63.2266 48.492L63.4187 48.1906C63.4596 48.1081 63.5146 48.0944 63.5968 48.1493L66.4206 49.6984C66.5166 49.7531 66.5303 49.8219 66.4757 49.8903L66.2014 50.3152C66.1467 50.4248 66.0646 50.4248 65.9549 50.3564L64.4467 49.4929H64.433L65.5847 51.0966C65.6531 51.1788 65.6259 51.2476 65.5847 51.3022L65.4887 51.4531C65.4475 51.5353 65.3927 51.5765 65.2831 51.5628L63.2816 51.3434L63.2679 51.3572L64.762 52.3167C64.8855 52.3851 64.8717 52.4539 64.8032 52.5361L64.5838 52.8926C64.5292 52.9885 64.4605 53.016 64.3645 52.9472L61.7325 51.1651C61.6366 51.0829 61.6366 51.0283 61.6777 50.9458L61.8696 50.6442C61.9381 50.5345 61.993 50.5208 62.1027 50.5345L64.6251 50.7952L64.6389 50.7814L63.2266 48.7389ZM61.9517 53.6464C62.5551 54.1398 62.5551 54.4964 62.267 54.8391C61.9655 55.1957 61.6227 55.2641 61.0059 54.757L59.6624 53.6603C59.5803 53.5916 59.539 53.6052 59.4706 53.6878L59.1554 54.0577C59.1004 54.1263 59.0729 54.2086 59.1554 54.2771L60.5398 55.415C61.3621 56.0868 62.1027 56.0868 62.7606 55.2915C63.3912 54.565 63.3638 53.7972 62.5001 53.0707L61.1157 51.933C61.0332 51.8644 60.9785 51.8918 60.9101 51.9602L60.5945 52.3443C60.5398 52.4127 60.5261 52.4811 60.5945 52.5497L61.9517 53.6464ZM58.0036 55.4287C57.9762 55.3462 57.99 55.264 58.0721 55.1818L58.3189 54.9488C58.4011 54.8803 58.4561 54.8938 58.5108 54.9488L60.8276 57.1834C60.8276 57.1971 60.8413 57.1971 60.8413 57.1971C60.8963 57.2656 60.8963 57.3339 60.8276 57.389L60.4576 57.7317C60.3617 57.8277 60.293 57.8002 60.1971 57.6905L58.977 56.4704L59.6487 58.3209C59.6899 58.4169 59.6487 58.4719 59.6074 58.5131L59.4706 58.6363C59.3882 58.705 59.3472 58.7324 59.2374 58.6912L57.3594 57.951L57.3457 57.9645L58.5383 59.2805C58.6342 59.3904 58.5933 59.4314 58.5108 59.5136L58.2092 59.7879C58.1271 59.8701 58.0587 59.8838 57.99 59.8016L57.9762 59.7879L55.92 57.3752C55.8378 57.2793 55.8516 57.2242 55.92 57.1558L56.1943 56.9091C56.2764 56.8268 56.3449 56.8268 56.4408 56.8679L58.7988 57.7864L58.8125 57.7726L58.0036 55.4287ZM56.5096 60.4185L55.0426 58.4445L55.262 58.2938C55.3304 58.2388 55.3304 58.1839 55.2895 58.1155L55.1248 57.8961C55.0839 57.8413 55.0151 57.8413 54.9604 57.8823L53.8637 58.6775C53.8088 58.7188 53.8088 58.7872 53.85 58.8419L54.001 59.0477C54.042 59.1024 54.1107 59.1299 54.179 59.0887L54.3984 58.9243L55.8653 60.8983L55.6732 61.0352C55.6185 61.0765 55.6048 61.1451 55.6595 61.2136L55.8104 61.4329C55.8517 61.4739 55.9201 61.4877 55.9885 61.4467L57.0305 60.679C57.0852 60.6378 57.0852 60.5694 57.0442 60.5281L56.8933 60.3087C56.8524 60.254 56.7837 60.2265 56.7152 60.2812L56.5096 60.4185ZM53.9322 62.6255L52.534 60.3088L53.3017 59.8563C53.3976 59.8017 53.4388 59.7467 53.3976 59.6645L53.2196 59.2942V59.2806C53.1783 59.2258 53.1371 59.2121 53.0548 59.2534L52.8355 59.3904L50.7244 60.6378C50.6421 60.679 50.6147 60.7337 50.6697 60.8159L50.8615 61.1314C50.9027 61.2273 50.9712 61.2411 51.0533 61.1861L51.8485 60.7199L53.2468 63.0505C53.3155 63.1326 53.3291 63.1464 53.4114 63.0918L53.9048 62.8036C53.9872 62.7488 54.0009 62.7352 53.9322 62.6255ZM45.762 62.6668C44.816 62.9821 44.4732 63.8866 44.8298 64.9011C45.1724 65.9293 45.9401 66.4228 46.8997 66.1074C47.8045 65.806 48.2157 64.9286 47.8457 63.8594C47.5305 62.8999 46.7763 62.3378 45.762 62.6668ZM42.0058 66.7654L42.2526 66.7245C42.3347 66.7245 42.3895 66.7654 42.4033 66.8342L42.4445 67.0945C42.4582 67.1632 42.4169 67.2179 42.3485 67.2317L41.0735 67.451C41.005 67.4647 40.9366 67.4234 40.9366 67.3688L40.8816 67.0945C40.8679 67.0124 40.9091 66.9574 40.9776 66.9439L41.2106 66.9027L40.7994 64.49L40.5251 64.5312C40.443 64.5447 40.402 64.49 40.3882 64.4215L40.3333 64.161C40.3333 64.106 40.3608 64.0513 40.4292 64.0376L41.7727 63.8044C41.8411 63.7907 41.8962 63.8457 41.9098 63.8866L41.9508 64.1609C41.9646 64.2431 41.9236 64.2981 41.8549 64.3118L41.5809 64.3528L42.0058 66.7654ZM37.9206 65.2301C37.9481 65.3948 38.1537 65.4632 38.2771 65.5182L38.8802 65.7375C39.2916 65.8744 39.5657 66.1213 39.6069 66.5874C39.6616 67.3001 39.1132 67.7663 38.4281 67.8213C38.099 67.8485 37.7012 67.8075 37.3586 67.7253C37.2763 67.7116 37.2489 67.6703 37.2489 67.6291C37.2489 67.6019 37.2489 67.5744 37.2625 67.547L37.3722 67.122C37.3722 67.0807 37.3997 67.026 37.4681 67.026C37.4819 67.026 37.5232 67.026 37.5506 67.0399C37.8109 67.122 38.099 67.1495 38.3455 67.1357C38.5649 67.122 38.8117 66.9848 38.7979 66.738C38.7842 66.5461 38.6199 66.4777 38.4552 66.4092L37.77 66.1486C37.3722 66.0116 37.112 65.7238 37.0707 65.2989C37.0158 64.668 37.6329 64.2431 38.2221 64.2021C38.5924 64.1746 38.9077 64.2159 39.2366 64.3253C39.3188 64.3528 39.3463 64.3803 39.3601 64.4353C39.3601 64.4486 39.3464 64.4762 39.3464 64.5174L39.2092 64.9149C39.1957 64.9833 39.1682 64.997 39.127 65.0107C39.0995 65.0107 39.0723 64.997 39.0311 64.997C38.8117 64.9286 38.5378 64.8602 38.3318 64.8874C38.1262 64.901 37.9068 64.997 37.9206 65.2301ZM7.14498 49.4378L5.47243 50.4661C5.37644 50.5208 5.32147 50.4936 5.26679 50.4111L5.02014 50.0137C4.95166 49.9177 4.95166 49.8627 5.04752 49.7943L7.77553 48.1356C7.8989 48.0671 7.94007 48.108 8.00855 48.1906L8.22795 48.5467C8.26912 48.643 8.28267 48.6977 8.24178 48.7798L7.30936 51.1104L8.99558 50.0821C9.0916 50.0274 9.15996 50.0549 9.20126 50.1371L9.46183 50.562C9.53018 50.6717 9.47546 50.713 9.40686 50.7539L6.67877 52.4127C6.56919 52.4811 6.52789 52.454 6.47317 52.3717L6.25381 52.0015C6.19888 51.933 6.19888 51.8505 6.22647 51.7684L7.14502 49.4517L7.14498 49.4378ZM8.62527 54.3729L8.46097 54.1674L10.4212 52.687L10.5993 52.8926C10.6405 52.9472 10.709 52.9747 10.7777 52.9063L10.9971 52.7554C11.038 52.7142 11.0519 52.6458 10.9971 52.591L10.1744 51.5215C10.1335 51.4669 10.0648 51.4669 10.0237 51.5078L9.80439 51.6587C9.74941 51.7 9.7219 51.7684 9.77696 51.8368L9.94126 52.0424L7.981 53.5506L7.83025 53.3584C7.78912 53.3037 7.72068 53.29 7.65208 53.345L7.43264 53.5094C7.40505 53.5368 7.37788 53.6052 7.43264 53.674L8.21398 54.7019C8.25529 54.7432 8.33743 54.7432 8.37861 54.7158L8.58425 54.5513C8.63902 54.5101 8.66644 54.4417 8.62527 54.3729ZM11.1205 56.9503C11.1889 57.0188 11.1752 57.0872 11.1068 57.1559L10.8325 57.4164C10.7503 57.4848 10.6818 57.4711 10.6132 57.4028L9.31083 56.0042C9.24239 55.9221 9.22877 55.8674 9.32454 55.7849L11.6823 53.619C11.7511 53.5643 11.8195 53.5643 11.8881 53.6327L12.2306 54.0029C12.2994 54.0851 12.3131 54.1398 12.2306 54.2085L10.2566 56.0179L11.1205 56.9503ZM14.5887 59.1437L14.2596 58.4719C14.0678 58.1017 14.0816 57.718 14.3419 57.389C14.753 56.8816 15.4798 57.005 15.9458 57.3753C16.2199 57.6084 16.4256 57.8552 16.5902 58.1567C16.6311 58.2388 16.6311 58.2801 16.6038 58.3073C16.5902 58.3348 16.5626 58.3485 16.5353 58.3623L16.1652 58.5679C16.1102 58.5954 16.069 58.5954 16.0281 58.5679C16.0143 58.5542 16.0005 58.5267 15.973 58.4995C15.8771 58.2938 15.7127 58.0744 15.5482 57.9511C15.3974 57.814 15.1644 57.7318 15.0135 57.9099C14.9176 58.0471 15.0135 58.2389 15.0685 58.3761L15.3563 58.9381C15.5482 59.3219 15.5756 59.6921 15.2878 60.0486C14.8355 60.6104 14.1225 60.5695 13.5741 60.1445C13.3273 59.9387 13.0532 59.6371 12.8752 59.3493C12.8202 59.2672 12.8202 59.2259 12.8614 59.1984C12.8752 59.1712 12.9023 59.1575 12.9299 59.1438L13.2864 58.9106C13.341 58.8831 13.3823 58.8557 13.437 58.8969C13.4507 58.9244 13.4645 58.9381 13.4782 58.9653C13.6155 59.1984 13.8073 59.4178 13.9991 59.5824C14.1638 59.7192 14.4378 59.8018 14.6025 59.6098C14.7122 59.459 14.657 59.2943 14.5887 59.1437ZM17.3442 61.8579L17.4948 61.9676L17.3442 62.5572C17.3304 62.6393 17.3304 62.7077 17.4401 62.7765L17.9062 63.0918C17.9747 63.1326 18.0158 63.1054 18.0569 63.0505C18.0707 63.0368 18.0707 63.023 18.0844 62.9821L18.8108 59.6508C18.8245 59.5823 18.8108 59.5136 18.7149 59.4589L18.2762 59.1711C18.2077 59.1299 18.1393 59.1437 18.0707 59.1845L15.288 61.2273C15.2742 61.2411 15.2606 61.2545 15.2467 61.2683C15.2331 61.3095 15.2331 61.3507 15.2742 61.3779L15.7538 61.6932C15.8363 61.7482 15.9048 61.7206 15.9595 61.6797L16.4531 61.282L16.604 61.3779L17.3442 61.8579ZM19.6335 60.8024C19.5513 60.7474 19.5376 60.6928 19.5784 60.6103L19.7569 60.2678C19.7978 60.1991 19.8527 60.1717 19.935 60.2265L22.1145 61.3508L22.3476 61.4739C22.4298 61.5152 22.4434 61.5701 22.4026 61.6248V61.6386L22.1833 61.9813C22.1145 62.0635 22.046 62.0498 21.9639 61.9951L21.1687 61.5973L19.9074 63.9828C19.8526 64.0787 19.8389 64.0924 19.743 64.0512L19.2359 63.7772C19.1397 63.736 19.1397 63.7222 19.1947 63.6263L20.4558 61.2273L19.6335 60.8024ZM23.3897 65.1067L23.1566 65.0107L24.0749 62.7352L24.3355 62.8311C24.404 62.8586 24.4588 62.8449 24.5001 62.7627L24.6098 62.5159C24.6232 62.4475 24.596 62.3925 24.5273 62.365L23.2663 61.8579C23.1975 61.8304 23.1428 61.8716 23.1291 61.9263L23.0195 62.1732C22.9919 62.2281 23.0059 62.2965 23.088 62.3378L23.3348 62.4337L22.4027 64.7093L22.1971 64.6271C22.1146 64.5996 22.06 64.6133 22.0325 64.6955L21.9228 64.9561C21.9092 64.997 21.9365 65.0658 22.005 65.1068L23.1975 65.5729C23.2663 65.6142 23.3348 65.5729 23.3485 65.5182L23.4582 65.2714C23.4719 65.2027 23.4581 65.1342 23.3897 65.1067ZM26.2274 64.2293L26.7206 64.6408C27.0497 64.9286 27.2144 65.2714 27.0772 65.71C26.8716 66.3956 26.1862 66.6286 25.5282 66.4364C25.2128 66.3406 24.8564 66.1624 24.5685 65.9569C24.5001 65.9157 24.4864 65.8744 24.5001 65.8335C24.5001 65.806 24.5273 65.7784 24.5412 65.7513L24.7878 65.4085C24.8154 65.3536 24.8563 65.3261 24.9251 65.3398C24.9387 65.3536 24.966 65.3536 24.9935 65.3949C25.2128 65.5454 25.4598 65.6826 25.7064 65.7648C25.912 65.8197 26.1998 65.7923 26.2683 65.5592C26.3232 65.3673 26.2135 65.244 26.0765 65.1343L25.5143 64.6409C25.2128 64.3666 25.0619 63.9966 25.1852 63.5989C25.3774 62.9821 26.1039 62.8174 26.6661 62.9958C27.0087 63.0918 27.2965 63.2423 27.5571 63.4617C27.6256 63.5304 27.6392 63.5714 27.6256 63.6126C27.6256 63.6264 27.6118 63.6539 27.5843 63.6673L27.3241 63.9966C27.2829 64.065 27.2552 64.0788 27.2005 64.065C27.1869 64.0514 27.1593 64.0376 27.1184 64.0101C26.9538 63.8733 26.707 63.7223 26.5151 63.6673C26.3232 63.5989 26.0765 63.6126 26.0081 63.8457C25.9668 63.9966 26.1314 64.1471 26.2274 64.2293ZM33.3559 64.49L32.958 67.6291C32.9447 67.7525 32.876 67.78 32.7937 67.7663L32.3688 67.7116C32.2728 67.6978 32.2041 67.6566 32.1632 67.5744L30.9156 65.4219H30.9019L30.6551 67.355C30.6416 67.4647 30.5866 67.4922 30.4907 67.4784L30.0245 67.4234C29.9149 67.4098 29.8602 67.3825 29.8874 67.2592L30.2713 64.1059C30.2851 63.9828 30.3536 63.9552 30.4633 63.9828L30.8744 64.0236C30.9842 64.0375 31.0254 64.0787 31.0665 64.1609L32.3139 66.3267H32.3276L32.5744 64.3802C32.5881 64.2705 32.6428 64.243 32.7388 64.2568L33.2325 64.3118C33.3559 64.3252 33.3559 64.4078 33.3559 64.49ZM70.5609 46.4495L70.7803 45.9147L62.418 42.7071C62.1986 42.6109 61.9655 42.6934 61.8422 42.8852L61.8285 42.8989C61.7737 42.9811 61.6503 43.1595 61.4994 43.2964C61.4309 43.5157 61.3488 43.7349 61.2801 43.9543C61.7188 43.7763 62.034 43.3651 62.1573 43.1867L62.1849 43.132C62.1986 43.1183 62.2261 43.1045 62.2396 43.1045C62.267 43.1045 62.267 43.1045 62.2808 43.1045L62.8704 43.3376L63.1444 43.4472L63.0897 43.5569C63.0759 43.6116 63.0485 43.6666 63.0347 43.6941C62.7879 44.3108 62.5139 44.9004 62.2395 45.4897C62.1986 45.5721 62.1437 45.6681 62.1027 45.7502L61.8422 45.6544L60.7317 45.2566C60.677 45.3938 60.6083 45.5172 60.5536 45.6406L61.6365 46.0381L61.9105 46.134C61.8696 46.2165 61.8284 46.2986 61.7737 46.3809C59.5803 50.5483 56.4137 54.1263 52.5065 56.8678C48.065 59.9522 42.9244 61.7206 37.5232 62.0635L37.057 62.5158C42.7185 62.269 48.1197 60.4459 52.7533 57.2106C57.5925 53.8383 61.3075 49.1775 63.5008 43.7213L63.5422 43.5981L70.2045 46.1615L70.1632 46.2849C67.4627 53.0568 62.8566 58.8419 56.8657 63.023C51.2317 66.9439 44.6241 69.2195 37.7562 69.5894L35.6997 71.6321L35.6039 71.5362L33.6435 69.5894C26.7757 69.2195 20.168 66.9439 14.5337 63.023C8.54312 58.8419 3.9508 53.0568 1.25029 46.2849L1.19532 46.1615L7.85764 43.5981L7.91269 43.7213C10.0922 49.1776 13.8073 53.8383 18.6464 57.2106C23.2663 60.4459 28.6809 62.269 34.3428 62.5158L33.8766 62.0635C28.4754 61.7207 23.3348 59.9523 18.8933 56.8678C14.9861 54.1263 11.8333 50.5483 9.62613 46.3809C9.57144 46.2986 9.53014 46.2165 9.48897 46.134L9.76329 46.0381L10.8462 45.6406C10.7915 45.5172 10.7228 45.3939 10.6544 45.2566L9.55769 45.6544L9.29708 45.7502C9.25607 45.6681 9.21489 45.5722 9.15987 45.4897C8.88588 44.9004 8.61164 44.3109 8.36507 43.6941C8.35135 43.6666 8.33752 43.6116 8.31009 43.5569L8.26904 43.4472L8.5294 43.3376L9.11907 43.1045C9.1327 43.1045 9.14641 43.1045 9.14641 43.1045C9.17367 43.1045 9.20122 43.1183 9.21489 43.132L9.2424 43.1867C9.36576 43.3651 9.68106 43.7763 10.1197 43.9407C10.0372 43.735 9.96881 43.5157 9.90033 43.2964C9.73578 43.1457 9.62609 42.9812 9.5714 42.899L9.55769 42.8852C9.4342 42.6934 9.20118 42.6109 8.98186 42.7072L0.619453 45.9147L0.838847 46.4496C3.56677 53.2901 8.2279 59.1438 14.2735 63.3658C19.9212 67.3001 26.5425 69.6031 33.3967 70.0146C33.4379 70.0146 33.4654 70.0281 33.4929 70.0555L35.6997 72.2489L37.9068 70.0555C37.9343 70.0281 37.9618 70.0146 38.0027 70.0146C44.8709 69.6031 51.4786 67.3001 57.1263 63.3658C63.1855 59.1437 67.8327 53.29 70.5609 46.4495ZM4.41705 42.5837L4.3482 42.474L1.86713 43.5844C1.71617 43.6392 1.56563 43.5844 1.49686 43.4472C1.44226 43.3788 1.26384 43.1046 1.12693 42.7481C0.989764 42.3781 0.852725 41.8435 0.989764 41.3635C1.09946 40.9796 1.3735 40.6781 1.78503 40.5L7.87147 37.717C7.88523 37.717 7.8989 37.7033 7.91273 37.7033C8.02243 37.6486 8.2279 37.5799 8.46101 37.5799C8.62531 37.5799 8.80369 37.6211 8.99553 37.6896C9.00937 37.8679 9.00937 38.0185 9.02308 38.1831C8.83091 38.0736 8.63914 38.0048 8.44726 38.0048C8.32381 38.0048 8.20048 38.0323 8.09078 38.0872L8.04977 38.101C7.77553 38.2378 7.58372 38.5535 7.50149 38.9784C7.41901 39.4579 7.50149 40.02 7.74802 40.5684L7.78924 40.6781C7.84392 40.8152 7.77553 40.9661 7.63828 41.0345L4.74598 42.3093L4.84196 42.4465C5.18464 42.9264 5.36277 43.3922 5.47243 43.7488L5.06131 43.9135C4.96529 43.5569 4.77311 43.0634 4.41705 42.5837ZM33.5751 61.7619C28.3385 61.378 23.3621 59.6233 19.0577 56.6213C15.2054 53.9342 12.0801 50.3976 9.88674 46.2849L10.9835 45.901C11.0108 45.9696 11.0519 46.0243 11.0793 46.0931C11.3261 46.5317 11.5864 46.9704 11.8745 47.3816C11.9017 47.4229 11.9429 47.4776 11.9979 47.5462L12.0114 47.5872C16.9056 54.9075 24.0886 59.4726 32.2728 60.4459L33.5751 61.7619ZM35.8644 67.3551C35.9465 67.3551 35.9878 67.4098 35.9878 67.4785V67.7525C35.9878 67.8075 35.9465 67.8621 35.8782 67.8621L34.576 67.8485C34.4935 67.8485 34.4525 67.7937 34.4525 67.7388V67.4648C34.4525 67.3688 34.5073 67.3414 34.576 67.3414H34.8225L34.8499 64.8874L34.5897 64.8739C34.5073 64.8739 34.4663 64.8189 34.4663 64.7505V64.49C34.4663 64.4215 34.5072 64.3665 34.576 64.3665L35.9329 64.394C36.0152 64.394 36.0562 64.4487 36.0562 64.5036V64.7777C36.0562 64.8602 36.0016 64.9011 35.9329 64.9011H35.6588L35.6177 67.3551H35.8644ZM60.4164 45.901C60.3889 45.9697 60.348 46.0244 60.3068 46.0932C60.0737 46.5318 59.7997 46.9705 59.5253 47.3679C59.4844 47.4229 59.4432 47.4776 59.402 47.5462L59.3747 47.5872C54.4943 54.9075 47.3112 59.4726 39.127 60.4459L37.8247 61.7619C43.0613 61.378 48.0376 59.6233 52.3422 56.6213C56.2078 53.9342 59.3335 50.3976 61.5131 46.2849L60.4164 45.901ZM9.46179 35.3865C9.43424 35.8664 9.42049 36.3601 9.42049 36.8259C9.40686 40.3353 10.0922 43.3923 11.463 45.8875C11.6961 46.3125 11.9567 46.7374 12.2306 47.1348C12.2582 47.176 12.2995 47.2307 12.3541 47.3132L12.3678 47.3404C17.1933 54.5786 24.308 59.0887 32.3962 60.0348H32.4647L35.6997 63.2699L38.9351 60.0348H39.0035C47.0917 59.0887 54.1927 54.5786 59.0182 47.3404L59.0457 47.3132C59.1005 47.2307 59.1416 47.176 59.1688 47.121C59.4431 46.7373 59.7037 46.3124 59.9366 45.8875C61.3075 43.3923 61.993 40.3353 61.9792 36.8259C61.9792 36.3601 61.9517 35.8664 61.938 35.3865C61.9105 34.8794 61.8558 34.3723 61.8008 33.8512C61.4718 30.8079 60.7591 28.6008 60.4714 27.7922L60.3752 27.5178C59.1688 24.1594 58.223 21.4998 58.2505 18.2782C58.2642 15.7696 61.3212 12.3152 62.5001 11.2047L63.2266 10.5055L52.5753 0.799943L51.9719 1.19739C49.8469 2.59557 47.0918 3.37695 44.2404 3.37695C41.2381 3.37695 38.4005 2.52717 36.2345 1.0193L35.6997 0.648985L35.1652 1.0193C32.9992 2.52713 30.1479 3.37695 27.1593 3.37695C24.2942 3.37695 21.5525 2.59557 19.414 1.19739L18.8108 0.799943L8.91339 9.83375L8.17293 10.5055L8.89967 11.191C10.0785 12.3152 13.1355 15.7696 13.1492 18.2782C13.1768 21.4998 12.2306 24.1594 11.0243 27.5178L10.9283 27.7922C10.6405 28.6008 9.92763 30.8078 9.59858 33.8512C9.5301 34.3723 9.48896 34.8794 9.46179 35.3865ZM62.3905 37.7033C62.596 37.6211 62.7879 37.5799 62.9388 37.5799C63.1719 37.5799 63.3638 37.6486 63.487 37.7033C63.5008 37.7033 63.5146 37.717 63.5284 37.717L69.6148 40.5C70.026 40.6781 70.3003 40.9796 70.4099 41.3635C70.5609 41.8435 70.4099 42.3781 70.2728 42.7481C70.1357 43.1046 69.9575 43.3788 69.9029 43.4472C69.8342 43.5844 69.6698 43.6392 69.5463 43.5844L67.0515 42.474L66.9827 42.5837C66.6262 43.0633 66.4344 43.5569 66.3385 43.9135L65.941 43.7488C66.037 43.3923 66.2151 42.9265 66.5578 42.4465L66.6537 42.3094L63.7613 41.0346C63.6242 40.9662 63.5555 40.8152 63.6104 40.6781L63.6517 40.5684C63.8982 40.0201 63.9806 39.458 63.8982 38.9784C63.8298 38.5535 63.6242 38.2379 63.3499 38.101L63.3227 38.0872C63.1992 38.0323 63.0758 38.0049 62.9524 38.0049C62.7605 38.0049 62.5685 38.0736 62.3766 38.197C62.3904 38.0186 62.3905 37.868 62.3905 37.7033ZM71.0955 45.7778C71.0818 45.7503 71.0544 45.7228 71.0268 45.7091L66.6128 44.0094C66.695 43.7076 66.8456 43.2689 67.1475 42.8302L69.423 43.8447C69.5052 43.8722 69.574 43.8859 69.6561 43.8859C69.8617 43.8859 70.0535 43.7763 70.1632 43.5981C70.2182 43.5019 70.3963 43.228 70.5472 42.8439C70.7665 42.2546 70.8212 41.7335 70.684 41.2814C70.5472 40.8152 70.2182 40.4587 69.7245 40.2393L63.6518 37.4702C63.6518 37.4568 63.6381 37.443 63.6105 37.443C63.3774 37.3333 62.9389 37.2099 62.4042 37.3879V36.8259C62.4042 36.3463 62.3905 35.8527 62.363 35.3592C62.3357 34.8519 62.2945 34.331 62.2396 33.8102C61.8834 30.7257 61.1704 28.4774 60.8689 27.6549L60.7729 27.3806C59.5942 24.0497 58.648 21.4176 58.6755 18.2919C58.6892 15.9204 61.6503 12.5891 62.7879 11.5062L63.8573 10.4917L52.63 0.265336L51.7388 0.840913C49.6826 2.19812 47.0231 2.93833 44.2404 2.93833C41.334 2.93833 38.5649 2.12977 36.4811 0.66278L35.6997 0.114502L34.9186 0.66278C32.8211 2.12977 30.0657 2.93833 27.1593 2.93833C24.3767 2.93833 21.717 2.19812 19.6609 0.840913L18.7699 0.265336L8.62527 9.5047L7.54246 10.4917L8.59813 11.5062C9.73582 12.5891 12.6969 15.9204 12.7243 18.2919C12.7381 21.4176 11.8057 24.0497 10.6132 27.3806L10.5173 27.6549C10.2294 28.4774 9.50268 30.7257 9.15991 33.8102C9.10519 34.3311 9.06401 34.8519 9.03684 35.3592C9.00937 35.8527 8.98186 36.3463 8.98186 36.8259C8.98186 37.018 8.98186 37.1961 8.99549 37.3879C8.46097 37.2099 8.02239 37.3333 7.80295 37.443H7.7892C7.77549 37.443 7.76182 37.4567 7.74798 37.4702L1.67525 40.2393C1.18157 40.4587 0.852642 40.8152 0.715438 41.2814C0.578566 41.7335 0.633331 42.2546 0.852642 42.8439C1.00356 43.228 1.18157 43.5019 1.25029 43.5981C1.34628 43.7763 1.53812 43.8859 1.74364 43.8859C1.82583 43.8859 1.89468 43.8722 1.97675 43.8447L4.25234 42.8302C4.55384 43.2689 4.70476 43.7076 4.8007 44.0094L0.386388 45.7091C0.345459 45.7228 0.317994 45.7503 0.304323 45.7778C0.290486 45.8187 0.290486 45.8599 0.304323 45.8875L0.564895 46.5589C3.32025 53.4547 8.00851 59.3492 14.1088 63.5989C19.7842 67.5606 26.4328 69.8774 33.3282 70.2887L35.6039 72.5507C35.6312 72.5642 35.6588 72.5917 35.6997 72.5917C35.7409 72.5917 35.7822 72.5642 35.796 72.5507L38.0714 70.2887C44.9668 69.8774 51.6154 67.5606 57.2909 63.5989C63.3911 59.3492 68.0794 53.4547 70.8349 46.5589L71.0955 45.8875C71.1093 45.8599 71.1093 45.8187 71.0955 45.7778Z" fill="#224589"/>
<path fill-rule="evenodd" clip-rule="evenodd" d="M33.8132 52.9177C34.115 52.7392 34.4303 52.5199 34.4303 52.0951C34.4303 51.725 34.1559 51.437 33.7722 51.437C33.402 51.437 33.1143 51.7113 33.1143 52.0812C33.1143 52.4789 33.4295 52.6983 33.8132 52.9177Z" fill="#224589"/>
<path fill-rule="evenodd" clip-rule="evenodd" d="M54.4796 14.3919C54.1231 14.6113 53.7531 14.6937 53.4925 14.6387C53.575 14.3509 53.8216 14.0357 54.1781 13.8026C54.5208 13.5832 54.9045 13.5008 55.165 13.5558C55.083 13.8573 54.8361 14.1725 54.4796 14.3919ZM53.7806 15.6807C53.4379 15.9136 53.0676 15.996 52.7936 15.9273C52.8758 15.6394 53.1226 15.3242 53.4788 15.1048C53.8353 14.8718 54.2055 14.7896 54.4796 14.8581C54.3836 15.1458 54.1368 15.4614 53.7806 15.6807ZM53.1089 16.8184C52.7112 16.9005 52.3274 16.832 52.0944 16.6677C52.259 16.4346 52.6015 16.229 52.9992 16.1465C53.3966 16.0644 53.7669 16.1329 54 16.2975C53.8353 16.5305 53.5063 16.7361 53.1089 16.8184ZM52.7937 47.882C52.4233 47.882 52.0531 47.8957 51.8475 47.8957C51.9572 47.2787 51.9985 46.5659 51.9985 45.7299V44.7291C51.9985 44.0711 51.9434 43.2897 50.9977 43.2897C50.6687 43.2897 50.3397 43.4269 50.0791 43.6733C49.7913 43.9615 49.7092 44.208 49.7092 44.921V45.7299C49.7092 46.7853 49.7776 47.4159 49.9422 47.8957C49.7639 47.8957 49.3939 47.882 49.0374 47.882C48.6534 47.882 48.2972 47.8957 48.105 47.8957C48.201 47.2787 48.2423 46.5659 48.2423 45.7299V44.3314C48.2423 43.7693 48.1875 42.9332 47.9954 42.3301C48.5028 42.3301 49.2017 42.3301 49.6954 42.2889L49.6542 43.2759L50.1204 42.8785C50.6825 42.4124 51.1349 42.2068 51.7104 42.2068C53.0265 42.2068 53.4789 42.9607 53.4789 44.2492V45.7299C53.4789 46.7853 53.5476 47.4159 53.7119 47.8957C53.5202 47.8957 53.1498 47.882 52.7937 47.882ZM44.6232 48.074C42.8547 48.074 41.813 47.0459 41.813 45.2637C41.813 43.509 42.8823 42.2205 44.8837 42.2205C46.6656 42.2205 47.6801 43.2348 47.6801 44.9757C47.6801 46.8814 46.4875 48.074 44.6232 48.074ZM41.6895 42.4261C41.6483 42.5904 41.5249 43.0566 41.4565 43.2485C41.0178 43.2076 40.7573 43.1938 40.4558 43.1938H39.9486C39.9349 43.5776 39.9212 44.0299 39.9212 44.3589V45.6475C39.9212 46.511 40.0171 47.1556 40.771 47.1556C41.0041 47.1556 41.1959 47.1007 41.4977 46.9497C41.5525 46.9225 41.6621 46.9225 41.6208 47.0869C41.5525 47.3337 41.484 47.5667 41.4153 47.8547C40.73 48.033 40.442 48.074 40.0856 48.074C39.0987 48.074 38.4679 47.6628 38.4679 46.2646V44.5236C38.4679 43.9752 38.4679 43.5637 38.4543 43.1801C38.1527 43.1801 37.8238 43.221 37.6728 43.2485C37.6456 43.2485 37.5634 43.2485 37.6044 43.1251C37.6044 43.0842 37.7553 42.563 37.81 42.3849C37.9471 42.3986 38.2214 42.4124 38.4955 42.4124C38.4955 41.96 38.468 41.727 38.4544 41.3842C38.852 41.2607 39.5785 40.9318 39.8937 40.7399C40.0172 40.6577 40.0721 40.7674 40.0583 40.8908C40.0446 41.0277 39.9624 41.3979 39.9487 42.4125H40.7436C41.0179 42.4125 41.3194 42.3987 41.6075 42.3303C41.6623 42.3166 41.7171 42.3436 41.6895 42.4261ZM39.455 55.6411C38.701 55.6411 38.1802 55.1885 38.1802 54.5306C38.1802 53.9685 38.523 53.6533 39.0988 53.3243C38.7423 53.1049 38.3858 52.8172 38.3858 52.2825C38.3858 51.6656 38.9204 51.1721 39.606 51.1721C40.2639 51.1721 40.7574 51.5971 40.7574 52.1729C40.7574 52.7075 40.3874 52.9816 39.9896 53.2009C40.4695 53.4751 40.8944 53.8042 40.8944 54.3938C40.8944 55.1202 40.2913 55.6411 39.455 55.6411ZM36.3433 55.4904C36.3842 54.9283 36.5898 54.38 37.1382 53.3792C37.4809 52.7759 37.8649 52.0907 38.194 51.7204L38.2077 51.7067L38.194 51.693C38.1802 51.6383 38.139 51.364 38.139 51.3093V51.2681L38.0981 51.2817C37.9196 51.2817 37.8238 51.2817 37.6318 51.2817H36.1102C35.9318 51.2817 35.7675 51.2817 35.6166 51.2817H35.5893V51.3093C35.5619 51.4327 35.507 51.7617 35.4385 51.9535L35.4247 51.981L35.5206 52.0357L35.5482 52.0221C35.7675 51.8577 36.028 51.8301 36.2337 51.8301H37.5634L35.4523 55.4355L35.507 55.5451H35.5207C35.8087 55.5175 36.3021 55.5175 36.3021 55.5175H36.3296L36.3433 55.4904ZM35.3973 47.8957C35.2192 47.8957 34.8489 47.882 34.5062 47.882C34.15 47.882 33.7935 47.8957 33.5742 47.8957C33.6838 47.2515 33.7113 46.6894 33.7113 45.8805V44.5098C33.7113 43.9752 33.6701 42.9882 33.4782 42.3848C33.9031 42.3848 34.5749 42.3711 35.0273 42.3436L35.0136 43.6462L35.4247 43.1113C35.9318 42.426 36.2883 42.2204 36.8229 42.2204C37.0148 42.2204 37.1109 42.2339 37.3166 42.3301C37.1519 42.9057 36.9876 43.5089 36.8916 43.8655C36.8642 43.9339 36.7954 44.0435 36.6995 43.9202C36.4801 43.6872 36.4392 43.5913 36.1786 43.5913C35.8496 43.5913 35.5893 43.7693 35.3973 44.0849C35.2329 44.3451 35.1779 44.5645 35.1779 45.099V46.0177C35.1779 47.0047 35.2329 47.4159 35.3973 47.8957ZM33.6288 55.5588C32.8749 55.5588 32.3541 55.0927 32.3541 54.4484C32.3541 53.8863 32.7106 53.5711 33.2726 53.2284C32.9161 53.0227 32.5597 52.7211 32.5597 52.2003C32.5597 51.5694 33.0942 51.0899 33.7935 51.0899C34.4516 51.0899 34.9315 51.5148 34.9315 52.0907C34.9315 52.6253 34.5612 52.8994 34.1635 53.1187C34.6434 53.3792 35.0683 53.7081 35.0683 54.2975C35.0683 55.0242 34.4653 55.5588 33.6288 55.5588ZM31.7645 55.4492C31.696 55.4355 31.5589 55.4217 31.4221 55.4217C31.312 55.4217 31.2027 55.4355 31.0655 55.4492H31.0105L31.0242 55.4079C31.0792 55.0652 31.0926 54.7227 31.0926 54.3388V52.3921C31.0926 51.8439 31.0518 51.7889 30.8732 51.7889C30.8324 51.7889 30.7502 51.8027 30.654 51.8164L30.3525 51.8848C30.2565 51.9124 30.2019 51.9261 30.1331 51.9674H30.1194L30.0373 51.8985L30.0509 51.8713C30.0922 51.7889 30.1469 51.652 30.1743 51.5286L30.1881 51.5011H30.2018C30.3662 51.4875 30.4758 51.4737 30.654 51.4327L31.2985 51.2955C31.422 51.2681 31.5589 51.2405 31.6685 51.1996H31.6821L31.7644 51.2681L31.7506 51.2817C31.6959 51.652 31.6821 52.0631 31.6821 52.2962V54.4071C31.6821 54.8324 31.7234 55.1748 31.7918 55.3942L31.8055 55.4492H31.7645ZM28.0495 45.195C28.0495 43.4403 29.16 42.234 30.764 42.234C32.1621 42.234 33.0258 43.0566 33.0258 44.4001C33.0258 44.5098 33.0258 45.0032 32.8202 45.0032H31.3945C30.805 45.0032 29.9826 45.0169 29.6124 45.0307C29.6399 46.3742 30.3526 47.1418 31.5589 47.1418C32.0388 47.1418 32.3266 47.0322 32.7243 46.7716C32.8202 46.7033 32.9299 46.758 32.875 46.9363C32.7653 47.3337 32.7381 47.4297 32.6419 47.7586C32.1348 47.9367 31.4767 48.1014 30.8871 48.1014C29.1462 48.1014 28.0495 46.9225 28.0495 45.195ZM26.3636 46.7441L27.4327 44.263C27.7204 43.5775 28.0357 42.9057 28.4197 42.4124C28.4744 42.3573 28.502 42.2614 28.3375 42.2752C28.1729 42.3027 27.8027 42.3302 27.5834 42.3302C27.3368 42.3302 27.0487 42.3302 26.8843 42.3165C26.8981 42.5084 26.8843 42.6592 26.8843 42.8099C26.8432 43.2623 26.6925 43.7147 26.5828 44.0163L25.9386 45.7024C25.8561 45.9081 25.7603 46.155 25.6918 46.4015C25.6918 46.4015 25.4724 45.6475 25.3628 45.3047L24.9513 43.879C24.787 43.3582 24.6773 42.8236 24.6225 42.2752C23.9096 42.3302 23.3338 42.3574 22.5936 42.3302C23.0873 42.9058 23.3475 43.6462 23.5806 44.3315L24.3208 46.5936C24.4855 47.1007 24.5814 47.4022 24.6636 47.8958C24.8691 47.8958 25.1573 47.8821 25.3765 47.8821C25.6368 47.8821 25.8973 47.8821 26.0207 47.8958C26.1167 47.4434 26.1989 47.1418 26.3636 46.7441ZM22.991 46.7304C22.9088 47.0047 22.6757 47.8683 22.6485 47.9505C21.3872 47.8958 20.551 47.8958 19.8106 47.8958C18.8785 47.8958 18.2752 47.8958 17.7682 47.8958C17.8503 47.3063 17.9191 46.6207 17.9191 45.7709V42.2477C17.9191 41.6721 17.8915 40.5889 17.6997 40.0818C18.0697 40.1093 18.344 40.1093 18.618 40.1093H20.7292C21.4832 40.1093 21.7847 40.0818 22.6073 40.0818C22.4564 40.6164 22.3059 41.1785 22.237 41.3978C22.1824 41.6172 22.059 41.4528 22.0452 41.4252C21.7025 40.9179 21.017 40.8632 20.3864 40.8632C20.1808 40.8632 19.9478 40.877 19.66 40.877C19.6462 41.0688 19.6188 41.6034 19.6188 42.0971V43.2347H20.551C21.2364 43.2347 21.9218 43.18 22.1961 43.1388C22.3058 43.1388 22.2783 43.2209 22.2783 43.2209C22.1961 43.5364 22.0864 43.9338 22.0177 44.1945C21.2912 44.1258 20.9073 44.112 20.4002 44.112H19.6049V45.7023C19.6049 46.7303 19.7145 47.0731 20.9484 47.0731C21.634 47.0731 22.0177 47.0731 22.7715 46.511C22.895 46.4014 23.0597 46.4563 22.991 46.7304ZM17.3979 16.2975C17.631 16.1329 18.015 16.0644 18.4124 16.1466C18.8098 16.229 19.1391 16.4347 19.3172 16.6678C19.0704 16.8321 18.7004 16.9005 18.3027 16.8184C17.9053 16.7362 17.5763 16.5306 17.3979 16.2975ZM16.932 14.8581C17.2061 14.7896 17.5763 14.8718 17.919 15.1049C18.2752 15.3242 18.5221 15.6395 18.6043 15.9273C18.344 15.996 17.9737 15.9136 17.6172 15.6808C17.2745 15.4614 17.0142 15.1458 16.932 14.8581ZM16.2328 13.5558C16.507 13.5008 16.877 13.5833 17.2335 13.8026C17.59 14.0357 17.8365 14.351 17.919 14.6387C17.6447 14.6937 17.2745 14.6113 16.9183 14.392C16.5755 14.1726 16.3287 13.8573 16.2328 13.5558ZM16.3971 10.4713C16.6577 10.581 16.932 10.8689 17.1238 11.2665C17.3158 11.664 17.3844 12.0752 17.3158 12.3769C17.0551 12.2673 16.7811 11.9793 16.5893 11.5818C16.3971 11.1843 16.3287 10.7728 16.3971 10.4713ZM17.1785 9.41595C17.0279 9.67615 16.9728 10.0877 17.0417 10.5398C17.11 10.9784 17.2882 11.3487 17.5075 11.5406C17.6447 11.2803 17.7132 10.8689 17.6447 10.4167C17.5763 9.97798 17.3844 9.60776 17.1785 9.41595ZM17.59 9.16909C17.6037 8.70292 17.7543 8.31923 17.9462 8.09992C18.1108 8.34636 18.2205 8.74414 18.193 9.21035C18.1655 9.64898 18.0287 10.0327 17.8364 10.252C17.6721 10.019 17.5625 9.60776 17.59 9.16909ZM18.0423 12.7469C17.8915 13.0075 17.8365 13.4187 17.8915 13.8573C17.9599 14.3097 18.1383 14.68 18.3577 14.8718C18.5082 14.6113 18.5633 14.2 18.4945 13.7476C18.4261 13.3089 18.2481 12.9391 18.0423 12.7469ZM17.631 13.8164C17.631 13.5009 17.4938 13.1172 17.2335 12.7606C16.9868 12.4179 16.6577 12.1985 16.3836 12.1576C16.37 12.4591 16.5071 12.8428 16.7674 13.1993C17.028 13.5421 17.357 13.7615 17.631 13.8164ZM17.4528 12.7606C17.4116 12.4866 17.4803 12.1301 17.6721 11.7874C17.8641 11.4446 18.1247 11.1977 18.3578 11.1156C18.4125 11.3899 18.3302 11.7599 18.1384 12.1026C17.96 12.4454 17.686 12.6922 17.4528 12.7606ZM18.3165 10.1698C18.0287 10.4301 17.8503 10.7456 17.8094 11.0197C18.0559 11.0334 18.3712 10.8962 18.6455 10.6494C18.9332 10.3891 19.1117 10.0739 19.1526 9.79956C18.906 9.78581 18.5905 9.92301 18.3165 10.1698ZM18.6867 8.71663C18.9198 8.34632 19.2213 8.09988 19.4816 8.0174C19.5228 8.33286 19.4131 8.7441 19.1801 9.10062C18.9607 9.48426 18.6455 9.73112 18.3849 9.79952C18.3577 9.49802 18.4537 9.08686 18.6867 8.71663ZM19.4816 16.4756C19.5503 16.1878 19.4952 15.7767 19.3172 15.3652C19.1253 14.9677 18.8511 14.68 18.6043 14.5703C18.5358 14.8581 18.5771 15.283 18.7688 15.6807C18.9608 16.0782 19.2214 16.3659 19.4816 16.4756ZM20.3589 17.1749C20.1671 17.408 19.8243 17.586 19.4268 17.641C19.0157 17.6957 18.6455 17.5998 18.4261 17.4216C18.6042 17.2023 18.9607 17.0239 19.3584 16.9692C19.7559 16.9143 20.1259 16.9968 20.3589 17.1749ZM20.7155 16.4347C20.3589 16.1879 20.0027 16.0782 19.7285 16.1194C19.7971 16.4209 20.03 16.7637 20.3727 16.9968C20.7154 17.257 21.0719 17.3667 21.3459 17.3121C21.2774 17.0239 21.0445 16.695 20.7155 16.4347ZM21.4969 17.5176H21.4831C21.25 17.4216 20.9348 17.3942 20.592 17.4901C20.1945 17.586 19.8656 17.8053 19.7146 18.0522C19.9478 18.2031 20.3317 18.2441 20.7291 18.1481C21.1132 18.0522 21.4147 17.8466 21.5928 17.5998C21.6341 17.6548 21.6887 17.6957 21.7299 17.7369C21.2913 17.9972 20.9073 18.34 20.5783 18.7786C20.7017 18.9842 20.7704 19.0804 20.9073 19.286C21.1541 18.724 21.4693 18.2441 21.8396 17.8466C22.1961 18.2441 22.4563 18.7102 22.7168 19.286C22.8541 19.0804 22.9088 18.9708 23.0459 18.7649C22.7032 18.3262 22.3605 17.9972 21.9356 17.7369C21.9904 17.6957 22.0315 17.6547 22.0865 17.6135C22.2508 17.8466 22.566 18.0521 22.9362 18.1481C23.3474 18.244 23.7177 18.2031 23.9507 18.0521C23.7861 17.8053 23.4708 17.586 23.0734 17.4901C22.7444 17.3941 22.4291 17.4216 22.1961 17.5176C21.9631 17.5997 21.8396 17.6819 21.8396 17.6819C21.7299 17.6272 21.6202 17.586 21.5105 17.5313C21.5105 17.5313 21.5105 17.5176 21.4969 17.5176ZM22.9362 16.4347C23.2791 16.1879 23.6352 16.0782 23.9096 16.1194C23.8411 16.4209 23.6081 16.7637 23.2791 16.9968C22.9362 17.257 22.566 17.3667 22.3058 17.3121C22.3605 17.0239 22.5936 16.695 22.9362 16.4347ZM24.2933 16.9693C24.6909 17.024 25.0338 17.2024 25.2255 17.4217C24.9925 17.5998 24.6225 17.6957 24.2111 17.641C23.8137 17.5861 23.4709 17.408 23.2928 17.1749C23.5122 16.9969 23.882 16.9143 24.2933 16.9693ZM24.3345 15.3652C24.5264 14.9677 24.7869 14.68 25.0475 14.5703C25.1158 14.8581 25.0611 15.283 24.869 15.6807C24.6909 16.0782 24.4167 16.3659 24.1564 16.4756C24.1014 16.1878 24.1426 15.7767 24.3345 15.3652ZM24.1564 8.01744C24.4304 8.09988 24.732 8.34636 24.9651 8.71667C25.1844 9.0869 25.294 9.49806 25.2531 9.79956C24.9925 9.73117 24.6909 9.48431 24.4579 9.10066C24.2249 8.7441 24.1289 8.3329 24.1564 8.01744ZM25.8423 11.0197C25.8015 10.7457 25.623 10.4301 25.3353 10.1698C25.0475 9.92305 24.7321 9.78581 24.4855 9.7996C24.5264 10.0739 24.7048 10.3892 24.9926 10.6495C25.2806 10.8962 25.5958 11.0335 25.8423 11.0197ZM25.6918 8.09988C25.8973 8.31919 26.0345 8.70288 26.048 9.16905C26.0892 9.60771 25.9795 10.0189 25.8152 10.2519C25.623 10.0326 25.4724 9.64893 25.445 9.21031C25.4312 8.7441 25.5271 8.34632 25.6918 8.09988ZM26.4732 9.41591C26.2539 9.60772 26.0753 9.97794 26.007 10.4166C25.9385 10.8688 25.9933 11.2802 26.1441 11.5405C26.3497 11.3487 26.5416 10.9784 26.6101 10.5398C26.6788 10.0876 26.6237 9.67611 26.4732 9.41591ZM27.2408 10.4713C27.3092 10.7728 27.2545 11.1843 27.0624 11.5817C26.8706 11.9792 26.5828 12.2672 26.336 12.3769C26.2673 12.0752 26.3222 11.664 26.514 11.2665C26.706 10.8688 26.9803 10.5809 27.2408 10.4713ZM25.7327 14.6387C25.8152 14.351 26.0617 14.0357 26.4183 13.8026C26.7747 13.5832 27.1312 13.5008 27.4053 13.5558C27.3231 13.8573 27.0762 14.1726 26.7197 14.392C26.3636 14.6113 25.9933 14.6937 25.7327 14.6387ZM25.6093 12.7469C25.39 12.9391 25.2119 13.3089 25.1434 13.7476C25.0747 14.2 25.1434 14.6113 25.2806 14.8718C25.4999 14.68 25.678 14.3097 25.7464 13.8573C25.8152 13.4187 25.7464 13.0074 25.6093 12.7469ZM26.4044 12.7606C26.1441 13.1171 26.0207 13.5008 26.0207 13.8163C26.2947 13.7614 26.6101 13.5421 26.8705 13.1993C27.1311 12.8428 27.268 12.4591 27.2545 12.1576C26.9803 12.1985 26.6649 12.4178 26.4044 12.7606ZM26.1989 12.7606C25.952 12.6922 25.6918 12.4454 25.4999 12.1025C25.3077 11.7599 25.2393 11.3899 25.2806 11.1156C25.5133 11.1977 25.7739 11.4446 25.9658 11.7873C26.1579 12.13 26.2401 12.4866 26.1989 12.7606ZM26.2401 16.2975C26.007 16.1329 25.6368 16.0644 25.2393 16.1465C24.8281 16.229 24.4991 16.4346 24.3345 16.6677C24.5676 16.832 24.9378 16.9005 25.3353 16.8184C25.7464 16.7362 26.0753 16.5305 26.2401 16.2975ZM26.0207 15.6807C26.3772 15.4614 26.6237 15.1458 26.706 14.8581C26.4456 14.7896 26.0753 14.8718 25.7192 15.1048C25.3627 15.3242 25.1159 15.6394 25.0337 15.9273C25.294 15.996 25.6779 15.9136 26.0207 15.6807ZM29.4341 18.8611L35.0545 6.92072C34.8489 6.46855 35.1917 5.90643 35.6303 5.90643C36.069 5.90643 36.4801 6.46859 36.2745 6.90721L41.9364 18.7786C42.8959 19.2449 43.3209 19.8344 43.2662 20.2318C43.2249 20.6568 42.9234 20.9174 42.5669 21.0546C42.5943 23.2066 42.4982 30.8422 42.5257 35.2018C43.0056 35.3115 43.0056 35.8186 42.9643 37.4636C42.9369 39.0402 43.0741 39.5748 42.0324 39.5748C41.8951 39.5748 41.6208 39.561 41.6208 39.561V39.0264C41.6074 38.7521 41.6074 38.6699 41.4565 38.6149C41.0178 38.4369 40.5516 38.286 40.0445 38.0804C39.688 37.9569 28.968 34.1186 28.968 34.1186C28.968 34.1186 28.4744 33.9817 28.4744 33.5018C28.4744 33.4606 28.4607 33.0493 28.4607 32.9123V31.3769C28.4607 30.9794 28.7213 30.8423 28.9543 30.8698C28.9681 30.8698 28.968 30.8285 28.968 30.8013C28.9543 29.3894 28.9406 22.0003 28.9406 21.2189C28.4472 21.068 28.31 20.7256 28.31 20.7256C28.077 20.2182 28.3238 19.4504 29.4341 18.8611ZM44.9933 13.8026C45.3361 14.0357 45.5963 14.3509 45.6789 14.6387C45.4046 14.6937 45.0344 14.6112 44.6915 14.3919C44.3353 14.1725 44.0748 13.8573 43.9926 13.5558C44.2666 13.5008 44.6368 13.5832 44.9933 13.8026ZM44.1569 10.4712C44.4174 10.5809 44.6915 10.8688 44.8837 11.2664C45.0756 11.664 45.1439 12.0751 45.0756 12.3769C44.815 12.2672 44.5409 11.9792 44.3491 11.5817C44.1569 11.1842 44.0885 10.7727 44.1569 10.4712ZM44.9383 9.41587C44.7877 9.67607 44.7327 10.0876 44.8014 10.5397C44.8699 10.9783 45.0479 11.3487 45.2673 11.5405C45.4183 11.2802 45.4729 10.8688 45.4045 10.4166C45.3361 9.9779 45.1576 9.60767 44.9383 9.41587ZM45.3495 9.16901C45.377 8.70284 45.5142 8.31915 45.706 8.09984C45.8844 8.34628 45.9803 8.74406 45.9528 9.21027C45.9254 9.64889 45.7882 10.0326 45.5963 10.2519C45.4183 10.0189 45.3223 9.60767 45.3495 9.16901ZM46.0625 10.1697C45.7882 10.4301 45.5963 10.7456 45.5554 11.0196C45.8019 11.0334 46.131 10.8962 46.419 10.6494C46.693 10.3891 46.8714 10.0738 46.9261 9.79952C46.6656 9.78577 46.3503 9.92297 46.0625 10.1697ZM46.4462 8.71659C46.6792 8.34628 46.9811 8.09984 47.2414 8.01736C47.2826 8.33282 47.1729 8.74406 46.9536 9.10057C46.7068 9.48422 46.419 9.73108 46.1447 9.79948C46.1175 9.49798 46.2134 9.08682 46.4462 8.71659ZM47.2414 16.4755C46.9811 16.3659 46.7068 16.0781 46.5287 15.6807C46.3368 15.283 46.2819 14.858 46.3503 14.5703C46.6109 14.68 46.8849 14.9677 47.0633 15.3652C47.2552 15.7766 47.3101 16.1878 47.2414 16.4755ZM46.1722 16.1465C45.7747 16.0644 45.4045 16.1329 45.1576 16.2975C45.3361 16.5305 45.6651 16.7361 46.0625 16.8184C46.46 16.9005 46.8302 16.832 47.0633 16.6677C46.8987 16.4346 46.5696 16.229 46.1722 16.1465ZM46.3777 15.9272C46.2818 15.6394 46.0351 15.3241 45.6788 15.1048C45.3361 14.8718 44.9658 14.7895 44.6915 14.858C44.774 15.1458 45.0208 15.4613 45.377 15.6807C45.7335 15.9135 46.1038 15.996 46.3777 15.9272ZM45.802 12.7468C45.6513 13.0074 45.5963 13.4186 45.6651 13.8572C45.7198 14.3097 45.8982 14.68 46.1175 14.8718C46.2681 14.6112 46.3231 14.2 46.2543 13.7475C46.1997 13.3088 46.0213 12.939 45.802 12.7468ZM45.377 13.8163C45.3908 13.5008 45.2536 13.1171 44.9933 12.7606C44.7327 12.4178 44.4174 12.1984 44.1434 12.1575C44.1297 12.4591 44.2666 12.8427 44.5272 13.1992C44.7878 13.542 45.1167 13.7614 45.377 13.8163ZM45.2127 12.7606C45.1714 12.4865 45.2401 12.13 45.432 11.7873C45.6239 11.4446 45.8845 11.1977 46.131 11.1156C46.1722 11.3898 46.09 11.7598 45.8982 12.1025C45.706 12.4453 45.4458 12.6921 45.2127 12.7606ZM48.105 17.1748C47.9269 17.4079 47.5841 17.5859 47.1867 17.6409C46.7755 17.6956 46.419 17.5997 46.1859 17.4216C46.3777 17.2022 46.7068 17.0239 47.1179 16.9691C47.5157 16.9142 47.8856 16.9967 48.105 17.1748ZM48.4752 16.4346C48.1325 16.1878 47.7623 16.0781 47.4882 16.1193C47.5566 16.4208 47.7897 16.7636 48.1325 16.9967C48.4751 17.2569 48.8317 17.3666 49.1057 17.312C49.0373 17.0239 48.8042 16.6949 48.4752 16.4346ZM49.572 17.6818C49.572 17.6818 49.4347 17.5997 49.2154 17.5175C48.9689 17.4216 48.6533 17.3941 48.3243 17.49C47.9269 17.5859 47.6116 17.8053 47.447 18.0521C47.6938 18.2031 48.064 18.244 48.4615 18.148C48.8455 18.0521 49.147 17.8465 49.3251 17.6135C49.3664 17.6547 49.421 17.6956 49.4623 17.7369C49.0373 17.9971 48.6945 18.3262 48.3655 18.7649C48.4889 18.9707 48.5574 19.0804 48.6807 19.286C48.9414 18.7102 49.2154 18.244 49.5719 17.8466C49.9421 18.244 50.2574 18.7239 50.5042 19.286C50.6411 19.0804 50.6961 18.9842 50.8329 18.7786C50.5042 18.34 50.1202 17.9972 49.6679 17.7369C49.7228 17.6957 49.7638 17.6547 49.8187 17.5998C49.9831 17.8466 50.2984 18.0522 50.6824 18.1481C51.0661 18.244 51.45 18.2031 51.6968 18.0521C51.5322 17.8053 51.2032 17.586 50.8057 17.4901C50.4768 17.3941 50.1615 17.4216 49.9146 17.5176C49.9009 17.5176 49.9009 17.5313 49.8871 17.5313C49.7775 17.586 49.6679 17.6272 49.572 17.6818ZM50.6961 16.4346C51.0388 16.1878 51.3951 16.0781 51.6694 16.1193C51.6009 16.4208 51.3679 16.7636 51.0388 16.9967C50.6961 17.2569 50.3259 17.3666 50.0518 17.312C50.1202 17.0239 50.3534 16.6949 50.6961 16.4346ZM52.0531 16.9692C52.4508 17.0239 52.7936 17.2023 52.9717 17.4216C52.7523 17.5997 52.3821 17.6956 51.9847 17.641C51.5736 17.586 51.2307 17.4079 51.0523 17.1748C51.2717 16.9968 51.6419 16.9142 52.0531 16.9692ZM52.0944 15.3651C51.9024 15.7766 51.8475 16.1878 51.9297 16.4755C52.1765 16.3658 52.4508 16.0781 52.6426 15.6807C52.8208 15.2829 52.8757 14.858 52.807 14.5703C52.5467 14.6799 52.2862 14.9677 52.0944 15.3651ZM51.9162 8.01736C52.1902 8.09979 52.4918 8.34628 52.7249 8.71659C52.9579 9.08682 53.0538 9.49798 53.0264 9.79948C52.7523 9.73108 52.4508 9.48422 52.2177 9.10057C51.9847 8.74402 51.8887 8.33282 51.9162 8.01736ZM53.6022 11.0196C53.5613 10.7456 53.3829 10.43 53.0952 10.1697C52.8071 9.92297 52.4918 9.78572 52.2453 9.79952C52.2863 10.0738 52.4647 10.3891 52.7524 10.6494C53.0401 10.8962 53.3557 11.0334 53.6022 11.0196ZM53.465 8.09979C53.6572 8.31911 53.7944 8.7028 53.8216 9.16897C53.8353 9.60763 53.7394 10.0188 53.5751 10.2519C53.3692 10.0325 53.2323 9.64885 53.2185 9.21023C53.1911 8.74402 53.2869 8.34624 53.465 8.09979ZM54.233 9.41583C54.0136 9.60763 53.8353 9.97786 53.7669 10.4166C53.6981 10.8687 53.7532 11.2801 53.9037 11.5405C54.1097 11.3486 54.3015 10.9783 54.3699 10.5397C54.4386 10.0876 54.3699 9.67603 54.233 9.41583ZM54.1643 12.7605C53.9037 13.117 53.7669 13.5007 53.7806 13.8163C54.0546 13.7613 54.3699 13.542 54.6304 13.1992C54.891 12.8427 55.0279 12.4591 55.0142 12.1575C54.7401 12.1984 54.4249 12.4177 54.1643 12.7605ZM53.5063 13.8572C53.5751 13.4185 53.5063 13.0073 53.3691 12.7468C53.1497 12.939 52.9717 13.3088 52.9032 13.7475C52.8345 14.2 52.9032 14.6112 53.0401 14.8718C53.2594 14.6799 53.4379 14.3096 53.5063 13.8572ZM53.2594 12.1025C53.0676 11.7598 52.9992 11.3898 53.0401 11.1155C53.2732 11.1976 53.5338 11.4445 53.7257 11.7872C53.9175 12.13 54 12.4864 53.945 12.7605C53.7119 12.692 53.4517 12.4453 53.2594 12.1025ZM55.0004 10.4712C55.0692 10.7727 55.0142 11.1842 54.8085 11.5816C54.6168 11.9791 54.3425 12.2671 54.0959 12.3768C54.0272 12.075 54.0821 11.6639 54.274 11.2663C54.4658 10.8687 54.7401 10.5808 55.0004 10.4712ZM61.8548 10.5125L52.4918 1.98543C50.2849 3.42487 47.4061 4.3022 44.2394 4.3022C40.9357 4.3022 37.9333 3.34272 35.6988 1.77979C33.4645 3.34272 30.4621 4.3022 27.1584 4.3022C23.9917 4.3022 21.1131 3.42487 18.9197 1.98543L9.54297 10.5125C9.54297 10.5125 14.0669 14.8032 14.0943 18.2714C14.1078 21.7533 13.0798 24.5638 11.8047 28.1141C11.3388 29.4439 10.7904 31.5413 10.5299 33.9678C10.4749 34.4339 10.4202 34.9411 10.3927 35.4482C10.3655 35.9005 10.3655 36.3667 10.3518 36.8329C10.3381 39.7115 10.8314 42.7821 12.2847 45.4418C12.504 45.8395 12.737 46.2232 12.9976 46.5934C13.7516 47.6763 19.8793 57.8205 32.8886 59.1503L32.9436 59.1914L35.6988 61.947L38.4679 59.1914L38.5092 59.1503C51.5185 57.8205 57.6462 47.6763 58.4004 46.5934C58.6607 46.2232 58.9075 45.8395 59.113 45.4418C60.5664 42.7821 61.0596 39.7115 61.0459 36.8329C61.0459 36.3667 61.0324 35.9005 61.005 35.4482C60.9775 34.9411 60.9225 34.4339 60.8816 33.9678C60.6072 31.5413 60.0727 29.4439 59.593 28.1141C58.3316 24.5638 57.2899 21.7533 57.3172 18.2714C57.3309 14.8032 61.8548 10.5125 61.8548 10.5125Z" fill="#224589"/>
<path fill-rule="evenodd" clip-rule="evenodd" d="M39.6347 53.0033C39.9362 52.8249 40.2515 52.6056 40.2515 52.1807C40.2515 51.8107 39.9772 51.5227 39.5934 51.5227C39.2232 51.5227 38.9492 51.7969 38.9492 52.1668C38.9492 52.5646 39.2507 52.7839 39.6347 53.0033Z" fill="#224589"/>
<path fill-rule="evenodd" clip-rule="evenodd" d="M39.4551 53.5288C38.948 53.7753 38.7012 54.1044 38.7012 54.5021C38.7012 54.9408 39.0302 55.2698 39.4963 55.2698C39.9625 55.2698 40.3187 54.9408 40.3187 54.5021C40.3187 54.0772 40.031 53.8441 39.4551 53.5288Z" fill="#224589"/>
<path fill-rule="evenodd" clip-rule="evenodd" d="M33.6309 53.4431C33.1238 53.6896 32.877 54.0186 32.877 54.4164C32.877 54.855 33.206 55.1841 33.6721 55.1841C34.1383 55.1841 34.4946 54.8413 34.4946 54.4164C34.4946 53.9915 34.2068 53.7583 33.6309 53.4431Z" fill="#224589"/>
</g>
<defs>
<clipPath id="clip0_937_1886">
<rect width="70.8128" height="72.4773" fill="white" transform="translate(0.293945 0.114502)"/>
</clipPath>
</defs>
</svg>
