<svg width="73" height="74" viewBox="0 0 73 74" fill="none" xmlns="http://www.w3.org/2000/svg">
<path fill-rule="evenodd" clip-rule="evenodd" d="M41.6733 54.3782C39.2045 56.1556 36.6518 56.7106 34.072 56.0447C32.7124 55.7111 31.4362 55.0167 30.2435 53.962C28.9395 52.823 28.024 51.5179 27.525 50.0741C26.9979 48.6024 26.9422 47.0747 27.4141 45.4642C27.8582 43.8531 28.8568 42.2144 30.4101 40.604C31.6584 39.3271 32.9624 38.3547 34.2942 37.6885C34.8708 37.3975 35.4748 37.1647 36.0976 36.9936H36.0697L33.6283 34.5499L27.9691 40.0204L25.084 37.1609L35.9866 25.9417L33.7393 23.4976L28.0236 29.1073L25.2216 26.0526L38.4822 12.5288L48.1365 22.026L45.6676 24.6084L39.1763 18.0824L36.3465 20.9983L48.2203 33.0504L45.6124 35.4663L38.9815 29.0794L36.1243 31.8562L41.2007 37.0771C42.449 37.4655 43.5868 38.1603 44.6404 39.1041C45.8338 40.1314 46.6659 41.2977 47.1653 42.5754C48.22 45.1582 47.8865 47.5466 46.1666 49.7402L43.0322 46.9908C43.5868 46.0192 43.7812 45.0476 43.6147 44.0753C43.4199 43.1308 42.9766 42.3261 42.2276 41.6591C41.0627 40.6318 39.6756 40.243 38.1494 40.5758C36.5961 40.8811 35.1256 41.77 33.7107 43.2424C32.4623 44.4915 31.7133 45.7966 31.3802 47.1574C30.9643 48.7957 31.3524 50.1846 32.6285 51.295C34.4593 52.934 36.457 53.0449 38.5657 51.6285L41.6733 54.3782Z" fill="#CF4037" stroke="black" stroke-width="1.92891" stroke-miterlimit="2.613"/>
<path d="M13.4881 8.36349C21.2556 6.58611 29.495 5.64196 37.2076 5.66979C45.0311 5.69761 52.3271 6.69703 60.0668 8.58533V43.52C55.6834 54.6832 48.6927 63.6803 37.041 68.263C25.0288 64.4582 17.5662 54.9611 13.2109 43.52L13.4881 8.36349Z" stroke="black" stroke-width="1.92891" stroke-miterlimit="2.613"/>
<path fill-rule="evenodd" clip-rule="evenodd" d="M13.4873 8.36357L18.037 7.44725L23.0304 6.64185L23.0025 59.7936C19.1466 55.794 16.0115 50.1291 13.1816 43.6863L13.4873 8.36357ZM59.9552 8.52977L55.3221 7.586L50.1903 6.80842L50.1625 59.6819C54.1019 55.6553 57.4036 50.2957 60.2883 43.8528L59.9552 8.52977Z" fill="black" stroke="black" stroke-width="0.00376005" stroke-miterlimit="2.613"/>
</svg>
