<svg width="73" height="73" viewBox="0 0 73 73" fill="none" xmlns="http://www.w3.org/2000/svg">
<path d="M71.0067 36.289C71.0067 45.3745 67.3828 54.0977 60.9634 60.5171C54.544 66.9365 45.8208 70.5604 36.7353 70.5604C27.6497 70.5604 18.9266 66.9365 12.5071 60.5171C6.08773 54.0977 2.46387 45.3745 2.46387 36.289C2.46387 27.2034 6.08773 18.4803 12.5071 12.0609C18.9266 5.64144 27.6497 2.01758 36.7353 2.01758C45.8208 2.01758 54.544 5.64144 60.9634 12.0609C67.3828 18.4803 71.0067 27.2034 71.0067 36.289Z" fill="white"/>
<mask id="mask0_937_1166" style="mask-type:luminance" maskUnits="userSpaceOnUse" x="0" y="0" width="73" height="73">
<path d="M72.9734 0.050293H0.496094V72.5276H72.9734V0.050293Z" fill="white"/>
</mask>
<g mask="url(#mask0_937_1166)">
<path d="M71.0067 36.289C71.0067 45.3745 67.3828 54.0977 60.9634 60.5171C54.544 66.9365 45.8208 70.5604 36.7353 70.5604C27.6497 70.5604 18.9266 66.9365 12.5071 60.5171C6.08773 54.0977 2.46387 45.3745 2.46387 36.289C2.46387 27.2034 6.08773 18.4803 12.5071 12.0609C18.9266 5.64144 27.6497 2.01758 36.7353 2.01758C45.8208 2.01758 54.544 5.64144 60.9634 12.0609C67.3828 18.4803 71.0067 27.2034 71.0067 36.289Z" stroke="#FF0000" stroke-width="0.323234"/>
</g>
<path d="M36.7344 1.448C27.4936 1.448 18.6151 5.12363 12.0921 11.6466C5.54331 18.1954 1.89355 27.048 1.89355 36.2889C1.89355 45.5297 5.56919 54.4082 12.0921 60.9312C18.641 67.4541 27.4936 71.1297 36.7344 71.1297C45.9753 71.1297 54.8538 67.4541 61.3767 60.9312C67.9256 54.3823 71.5753 45.5297 71.5753 36.2889C71.5753 27.048 67.8997 18.1695 61.3767 11.6466C54.8538 5.12363 45.9753 1.448 36.7344 1.448ZM36.7344 2.58693C45.6647 2.58693 54.2325 6.13314 60.5743 12.449C66.8902 18.7649 70.4364 27.3328 70.4364 36.2889C70.4364 45.2191 66.8902 53.787 60.5743 60.1287C54.2584 66.4446 45.6905 69.9908 36.7344 69.9908C27.8042 69.9908 19.2363 66.4446 12.8946 60.1287C6.57869 53.8129 3.03249 45.245 3.03249 36.2889C3.03249 27.3586 6.57869 18.7908 12.8946 12.449C19.2363 6.13314 27.8042 2.58693 36.7344 2.58693Z" fill="#002E60"/>
<mask id="mask1_937_1166" style="mask-type:luminance" maskUnits="userSpaceOnUse" x="0" y="0" width="73" height="73">
<path d="M72.9734 0.050293H0.496094V72.5276H72.9734V0.050293Z" fill="white"/>
</mask>
<g mask="url(#mask1_937_1166)">
<path d="M36.7344 1.448C27.4936 1.448 18.6151 5.12363 12.0921 11.6466C5.54331 18.1954 1.89355 27.048 1.89355 36.2889C1.89355 45.5297 5.56919 54.4082 12.0921 60.9312C18.641 67.4541 27.4936 71.1297 36.7344 71.1297C45.9753 71.1297 54.8538 67.4541 61.3767 60.9312C67.9256 54.3823 71.5753 45.5297 71.5753 36.2889C71.5753 27.048 67.8997 18.1695 61.3767 11.6466C54.8538 5.12363 45.9753 1.448 36.7344 1.448ZM36.7344 2.58693C45.6647 2.58693 54.2325 6.13314 60.5743 12.449C66.8902 18.7649 70.4364 27.3328 70.4364 36.2889C70.4364 45.2191 66.8902 53.787 60.5743 60.1287C54.2584 66.4446 45.6905 69.9908 36.7344 69.9908C27.8042 69.9908 19.2363 66.4446 12.8946 60.1287C6.57869 53.8129 3.03249 45.245 3.03249 36.2889C3.03249 27.3586 6.57869 18.7908 12.8946 12.449C19.2363 6.13314 27.8042 2.58693 36.7344 2.58693Z" stroke="#002E60" stroke-width="0.775964"/>
</g>
<path d="M36.7344 1.448C27.4936 1.448 18.6151 5.12363 12.0921 11.6466C5.54331 18.1954 1.89355 27.048 1.89355 36.2889C1.89355 45.5297 5.56919 54.4082 12.0921 60.9312C18.641 67.4541 27.4936 71.1297 36.7344 71.1297C45.9753 71.1297 54.8538 67.4541 61.3767 60.9312C67.9256 54.3823 71.5753 45.5297 71.5753 36.2889C71.5753 27.048 67.8997 18.1695 61.3767 11.6466C54.8538 5.12363 45.9753 1.448 36.7344 1.448ZM36.7344 2.58693C45.6647 2.58693 54.2325 6.13314 60.5743 12.449C66.8902 18.7649 70.4364 27.3328 70.4364 36.2889C70.4364 45.2191 66.8902 53.787 60.5743 60.1287C54.2584 66.4446 45.6905 69.9908 36.7344 69.9908C27.8042 69.9908 19.2363 66.4446 12.8946 60.1287C6.57869 53.8129 3.03249 45.245 3.03249 36.2889C3.03249 27.3586 6.57869 18.7908 12.8946 12.449C19.2363 6.13314 27.8042 2.58693 36.7344 2.58693Z" fill="#7BB1DD"/>
<path d="M58.4013 36.4186C58.4013 42.1391 56.1235 47.6267 52.0854 51.6647C48.0474 55.7027 42.5599 57.9806 36.8393 57.9806C31.1188 57.9806 25.6312 55.7027 21.5932 51.6647C17.5552 47.6267 15.2773 42.1391 15.2773 36.4186C15.2773 30.698 17.5552 25.2105 21.5932 21.1724C25.6312 17.1344 31.1188 14.8566 36.8393 14.8566C42.5599 14.8566 48.0474 17.1344 52.0854 21.1724C56.1235 25.2105 58.4013 30.698 58.4013 36.4186Z" stroke="#002E60" stroke-width="0.359154"/>
<path d="M56.8997 36.3926C56.8997 41.7249 54.7772 46.85 50.998 50.6292C47.2188 54.4084 42.0936 56.5309 36.7614 56.5309C31.4291 56.5309 26.3039 54.4084 22.5248 50.6292C18.7456 46.85 16.623 41.7249 16.623 36.3926C16.623 31.0603 18.7456 25.9352 22.5248 22.156C26.3039 18.3768 31.4291 16.2543 36.7614 16.2543C42.0936 16.2543 47.2188 18.3768 50.998 22.156C54.7772 25.9352 56.8997 31.0603 56.8997 36.3926Z" fill="#7BB1DD"/>
<path fill-rule="evenodd" clip-rule="evenodd" d="M20.117 19.7486C18.6675 25.8833 18.6675 31.3967 18.7193 35.1759C18.6157 52.3375 31.3251 57.6698 36.7092 59.3005C42.0932 57.6698 54.8026 52.3375 54.6991 35.1759C54.7508 31.3967 54.7508 25.8833 53.3013 19.7486C44.9664 18.2991 39.893 18.4285 36.7092 18.4026C33.5253 18.4285 28.4778 18.2991 20.117 19.7486Z" fill="#002E60"/>
<path fill-rule="evenodd" clip-rule="evenodd" d="M21.8516 20.9653C20.9456 25.0292 20.4797 28.6789 20.2985 31.7333C20.2209 35.0466 20.195 38.4116 20.7127 41.3883C20.9974 42.9414 21.4374 44.5721 22.2658 46.2547C24 49.5161 26.485 52.3893 28.7369 53.9165C31.7137 56.1944 34.794 57.4369 36.7353 58.0581C38.6767 57.4369 41.7311 56.1944 44.7337 53.9165C46.9857 52.3893 49.4706 49.4902 51.2049 46.2547C52.0332 44.5721 52.4991 42.9414 52.758 41.3883C53.2757 38.4116 53.2498 35.0466 53.1721 31.7333C52.9909 28.6789 52.525 25.0292 51.6191 20.9653C44.1384 19.5934 39.6085 19.7228 36.7353 19.6969C33.8621 19.7228 29.3323 19.5934 21.8516 20.9653Z" fill="#FFBB59"/>
<path d="M31.7389 62.096C31.6612 62.0443 31.5059 61.8631 31.3765 61.7854C30.1599 61.0089 28.7362 61.7595 28.6586 63.235C28.6068 64.1409 29.2798 64.8916 30.0046 65.0469C30.7552 65.1763 31.2988 64.8398 31.8165 64.3998L32.5931 65.2022C32.2048 65.6164 31.713 66.0046 30.8588 66.1858C30.7035 66.2117 30.4705 66.2376 30.2117 66.2376C28.6068 66.0823 27.7008 65.2281 27.442 63.8821C27.2867 63.1573 27.4161 62.4066 27.8044 61.7595C28.2703 61.0089 28.9433 60.5688 29.8234 60.3876C30.8588 60.1806 31.9201 60.517 32.5672 61.2159L31.7389 62.096Z" fill="#002E60"/>
<path d="M35.0794 60.3877H33.7852V66.0823H35.0794V60.3877Z" fill="#002E60"/>
<path d="M40.9542 61.5784H39.2199V66.0823H37.9257V61.5784H36.1914V60.3877H40.9542V61.5784Z" fill="#002E60"/>
<path d="M47.1155 60.3877L44.8894 63.8045V66.0823H43.647V63.8045L41.4727 60.3877H42.9481L44.2941 62.7173L45.666 60.3877H47.1155Z" fill="#002E60"/>
<path fill-rule="evenodd" clip-rule="evenodd" d="M14.7854 26.401L14.216 27.4623L9.29785 24.8997L9.91908 23.7349L12.7146 23.5537L11.291 21.0946L11.8863 19.9298L16.8303 22.5442L16.2608 23.6054L12.9994 21.8971L14.423 24.4596L11.5498 24.7444L14.7854 26.401Z" fill="#002E60"/>
<path d="M21.4629 17.3931L20.5569 18.3249L19.2886 17.8331L17.6578 19.5674L18.2273 20.8099L17.3731 21.6899L14.9141 16.0988L15.6906 15.2705L21.4629 17.3931ZM18.2273 17.4189L16.3636 16.6942L17.1919 18.5061L18.2273 17.4189Z" fill="#002E60"/>
<path fill-rule="evenodd" clip-rule="evenodd" d="M22.2653 16.7978L19.3662 12.0609L20.3239 11.4397L24.362 13.0445L22.5759 10.0936L23.6113 9.47241L26.4845 14.2352L25.6044 14.7788L21.437 13.148L23.3007 16.1766L22.2653 16.7978Z" fill="#002E60"/>
<path d="M30.6778 8.77344C30.6001 8.74755 30.3931 8.61812 30.2378 8.56635C28.8918 8.17808 27.7269 9.26524 28.0634 10.663C28.2705 11.5172 29.0988 12.0608 29.8236 11.9831C30.5743 11.9055 30.9884 11.4396 31.3508 10.896L32.2826 11.4396C32.0238 11.9314 31.6873 12.4491 30.9108 12.8373C30.7555 12.915 30.5743 12.9926 30.2895 13.0444C28.7364 13.3292 27.6493 12.7856 27.028 11.569C26.6915 10.9219 26.588 10.1712 26.7951 9.47232C27.0281 8.64401 27.5457 8.04866 28.3223 7.6345C29.2541 7.16857 30.3413 7.19446 31.1437 7.66039L30.6778 8.77344Z" fill="#002E60"/>
<path d="M55.9674 14.9082L54.6214 13.8728L51.9294 17.419L50.9199 16.6683L53.6378 13.148L52.2918 12.1126L52.9907 11.2067L56.6663 14.0281L55.9674 14.9082Z" fill="#002E60"/>
<path fill-rule="evenodd" clip-rule="evenodd" d="M33.5771 6.59915L33.7066 12.1644L34.8973 12.1385L34.8455 9.88652L37.1492 9.83474L37.201 12.0867L38.3917 12.0608L38.2882 6.46973L37.0457 6.49561L37.0975 8.7217L34.8196 8.77348L34.7678 6.57327L33.5771 6.59915Z" fill="#002E60"/>
<path fill-rule="evenodd" clip-rule="evenodd" d="M41.2913 6.83215L45.407 7.73812L45.1481 8.79939L42.249 8.15227L41.9902 9.2912L44.3975 9.78301L43.828 10.7666L41.7572 10.3266L41.4984 11.4914L44.4751 12.1385L44.2421 13.1739L40.1006 12.2938L41.2913 6.83215Z" fill="#002E60"/>
<path fill-rule="evenodd" clip-rule="evenodd" d="M48.7717 11.4915C48.047 10.9479 48.047 10.6373 48.2282 10.3784C48.4094 10.1713 48.6423 10.1713 48.8753 10.249C49.2636 10.3784 49.5742 10.6373 49.8071 10.9479C49.9366 11.1032 50.0401 11.2844 50.1436 11.4397L51.1014 10.8444C50.9461 10.5596 50.5578 9.78308 49.4189 9.29127C48.8753 9.05831 47.581 8.82535 47.0116 10.1714C46.7786 10.7408 46.8822 11.1032 47.0116 11.3621C47.3222 11.8797 47.8399 12.2421 48.2799 12.6304C48.4611 12.7857 48.6682 12.9669 48.7459 13.1999C48.7976 13.3811 48.7459 13.5364 48.6164 13.6658C47.9434 14.2353 46.7527 13.0187 46.5198 12.3457L45.4844 12.8375C46.028 13.8988 46.9598 14.8565 48.4094 14.9083C48.9271 14.8824 49.5483 14.5976 49.833 13.9505C50.0142 13.4328 50.066 12.9669 49.8071 12.5527C49.5483 12.1386 49.1082 11.7244 48.7717 11.4915Z" fill="#002E60"/>
<path fill-rule="evenodd" clip-rule="evenodd" d="M58.375 15.6588L61.0411 18.8944L60.2128 19.5933L58.2973 17.2896L57.3914 18.0143L59.048 19.9816L57.935 20.344L56.5889 18.7132L55.6571 19.4639L57.6243 21.7935L56.796 22.4924L54.0781 19.2309L58.375 15.6588Z" fill="#002E60"/>
<path d="M62.5949 23.7866L62.0254 22.6477L60.6018 23.3725L61.1454 24.4596C61.4301 25.055 61.896 25.1326 62.2584 25.0032C62.6726 24.8738 62.9055 24.3561 62.5949 23.7866ZM59.644 27.8764L58.9969 26.6081L60.0582 24.7444L59.5923 23.8643L58.0133 24.6667L57.4697 23.5795L62.4396 21.0687L63.5009 23.1913C63.6562 23.476 63.7079 23.6572 63.7856 23.8902C63.9409 24.3302 63.9409 24.7444 63.8115 25.0809C63.3456 26.1939 61.8701 26.7634 60.8089 25.7797L59.644 27.8764Z" fill="#002E60"/>
<path d="M62.6196 36.8584C62.1536 37.2725 61.4289 37.169 61.0406 36.7548C60.8594 36.5736 60.7559 36.3148 60.7559 36.0301C60.7817 35.823 60.8335 35.6418 60.9112 35.4606C61.0147 35.2535 61.17 35.0982 61.3512 35.0205C61.7654 34.7876 62.3348 34.7876 62.7231 35.0205C63.0078 35.2017 63.189 35.4865 63.2667 35.823C63.3185 36.0301 63.3443 36.263 63.3443 36.5219C63.3443 37.1949 63.1373 37.8161 62.6455 38.1267C62.516 38.2044 62.3348 38.2561 62.1278 38.282C61.5842 38.3338 61.17 38.1785 60.8335 37.9196L61.1959 37.3502C62.1536 38.1008 62.6196 37.3761 62.6196 36.8584ZM62.6713 36.0042C62.6713 35.7194 62.4384 35.5382 62.2054 35.4865C62.1019 35.4606 61.9724 35.4606 61.8689 35.4865C61.7654 35.5124 61.6618 35.59 61.6101 35.6677C61.3512 35.9783 61.5324 36.3924 61.7654 36.4701C61.843 36.496 61.9724 36.5219 62.1019 36.5477C62.5678 36.5219 62.6713 36.1336 62.6713 36.0042Z" fill="#7BB1DD"/>
<path d="M66.8654 37.5056H66.4254V38.2563H65.7524V37.5056H64.0957L63.9922 36.9879L65.8041 34.8395H66.4254V36.9103H66.8654V37.5056ZM65.7782 36.9361V35.8749L64.8205 36.9361H65.7782Z" fill="#7BB1DD"/>
<path d="M7.43363 35.7454L7.27832 35.176L8.18429 34.8912H8.72787V38.2563H8.02898V35.5642L7.43363 35.7454Z" fill="#7BB1DD"/>
<path d="M11.5498 36.4961C11.938 36.6514 12.1451 36.962 12.1451 37.3503C12.1451 37.8162 11.8086 38.1268 11.3945 38.2304C11.2392 38.2821 11.058 38.2821 10.8509 38.2821C10.3073 38.2563 9.58253 38.0233 9.55664 37.3503C9.58253 36.8844 9.68606 36.7032 10.0743 36.4961C9.66018 36.2372 9.50487 35.7972 9.76372 35.3313C9.81549 35.2277 9.91903 35.1242 10.0226 35.0724C10.1261 34.9948 10.2555 34.943 10.385 34.9171C10.5144 34.8912 10.6697 34.8654 10.825 34.8654C11.4203 34.8654 11.938 35.1501 11.9898 35.7454C12.0157 35.9007 11.9898 36.0819 11.8863 36.2114C11.8604 36.3149 11.731 36.4184 11.5498 36.4961ZM11.2133 36.1596C11.2909 36.0819 11.3427 35.9784 11.3427 35.8749C11.3427 35.7454 11.2909 35.6678 11.2133 35.5901C11.1356 35.5125 11.0062 35.4866 10.8768 35.4866C10.7215 35.4866 10.6179 35.5125 10.5403 35.5901C10.4626 35.6678 10.4108 35.7454 10.4108 35.8749C10.4108 35.9784 10.4626 36.0819 10.5403 36.1596C10.6956 36.289 10.9803 36.3149 11.2133 36.1596ZM11.4203 37.2468C11.4203 36.9103 11.0321 36.8067 10.7732 36.8326C10.5144 36.8585 10.2555 37.0138 10.2555 37.2468C10.2555 37.5574 10.592 37.7127 10.8509 37.7127C11.1615 37.7127 11.4203 37.5056 11.4203 37.2468Z" fill="#7BB1DD"/>
<path fill-rule="evenodd" clip-rule="evenodd" d="M36.7354 58.0321C38.6767 57.4109 41.7311 56.1684 44.7337 53.8905C46.9857 52.3633 49.4706 49.4642 51.2049 46.2287C52.0332 44.5461 52.4992 42.9154 52.758 41.3623C53.2757 38.3856 53.2498 35.0206 53.1722 31.7073C52.991 28.6529 52.525 25.0032 51.6191 20.9393C44.1384 19.5674 39.6086 19.6968 36.7354 19.6709" fill="#E9AB00"/>
<path fill-rule="evenodd" clip-rule="evenodd" d="M51.9297 38.308C51.2308 46.8758 47.2187 52.8034 36.7354 56.5309C26.252 52.7776 22.2399 46.8758 21.541 38.308H51.9297Z" fill="#7BB1DD"/>
<path fill-rule="evenodd" clip-rule="evenodd" d="M21.4368 37.0396C21.3591 35.383 21.4109 33.6487 21.5145 31.785C21.6698 28.9118 21.851 25.5727 22.7052 21.7676C29.3575 20.5769 33.8615 20.6028 36.7088 20.4993C39.5561 20.5769 44.0601 20.551 50.7125 21.7676C51.5667 25.5986 51.7478 28.9377 51.9032 31.785C52.0326 33.6487 52.0585 35.383 51.9808 37.0655L21.4368 37.0396Z" fill="white"/>
<path fill-rule="evenodd" clip-rule="evenodd" d="M46.8558 50.5256C46.0534 51.3539 45.1215 52.1304 44.0861 52.8811L32.0239 38.3339H36.7349L46.8558 50.5256ZM51.1527 42.9155C50.7644 44.365 50.2208 45.7369 49.4961 47.0053L42.3001 38.308H47.3476L51.1527 42.9155ZM40.2811 55.0813C39.1939 55.599 38.0032 56.0908 36.709 56.5567L21.5146 38.3339H26.4586L40.2811 55.0813Z" fill="#A8C9E8"/>
<path fill-rule="evenodd" clip-rule="evenodd" d="M40.4626 34.7358C42.5851 34.6323 44.7594 34.2958 45.7689 34.037C45.5619 35.6936 43.8794 35.5124 44.8371 37.0655H42.6887C41.8862 36.7807 41.032 36.4442 40.3073 36.3925C40.1002 36.3666 39.919 36.3666 39.7378 36.4442C37.4858 37.2984 35.6739 36.3148 33.9914 36.2889C33.9396 36.496 33.5772 36.729 32.8525 36.8066C31.6359 36.9619 30.7817 36.4442 29.8239 36.4184C29.4874 36.4184 29.1509 36.5219 28.8662 37.0655C28.3744 36.3925 28.0897 35.8748 27.4167 35.0465C26.4072 34.5547 25.4753 34.1664 24.5693 33.8299L24.6211 33.6487C27.5202 34.5288 29.6945 34.8653 31.6618 35.0465C34.069 35.15 36.6834 35.3053 39.0389 35.1241C39.7119 34.8653 39.9708 34.7617 40.4626 34.7358Z" fill="#FBC24E"/>
<path fill-rule="evenodd" clip-rule="evenodd" d="M45.4582 34.27C45.1994 35.3313 43.6204 35.7454 44.6817 37.0656H43.4133C42.6109 36.7808 41.2131 36.1596 39.66 36.1596C39.0906 36.5996 38.0552 36.8067 36.4762 36.4443C35.7514 36.289 34.7419 36.0302 33.7065 36.0561C33.4736 37.0397 30.2121 36.6514 29.0473 35.1242L27.5719 34.7618L27.2354 34.503C29.5909 34.9948 31.9723 35.2795 33.2147 35.3313C35.4408 35.4089 37.5375 35.4089 39.0388 35.3572C39.5306 35.2019 39.6342 35.1501 39.893 35.0466C40.2554 34.8654 40.6695 34.8913 41.0319 34.8913C43.0768 34.7359 44.3969 34.4512 45.4582 34.27Z" fill="#EAAA00"/>
<path fill-rule="evenodd" clip-rule="evenodd" d="M35.4674 34.71C35.7522 34.2958 36.2181 34.0629 36.7617 33.9593L36.7358 35.1759C36.8652 35.1759 37.0205 35.1759 37.1499 35.1759L37.1241 33.8817C38.6513 33.6746 40.282 33.9335 41.6021 34.2441V34.6841C41.7574 34.6841 41.8868 34.6582 42.0163 34.6582V34.1405L46.3131 32.6392C45.0966 31.0344 45.2001 29.1448 45.5107 27.2293C45.2778 28.187 44.7083 29.9731 43.2587 31.6038C42.0939 32.8981 42.2234 33.1828 42.0163 33.5452L41.9386 24.8479L40.955 25.1844C40.7479 25.2362 40.8773 25.3397 40.6961 25.4174L39.7125 25.8056L40.8515 25.7539C41.0068 25.7539 40.9032 25.5209 41.0585 25.495L41.6798 25.4433L41.6021 34.037C40.9291 32.9757 39.7384 31.7074 40.2302 29.0412C39.0395 33.5711 35.1827 33.0793 35.4674 34.71ZM33.7849 29.8954C32.7495 33.4416 29.6692 33.0016 29.8504 34.4253C30.3164 34.0111 30.7823 33.9852 31.2223 33.8558V34.943C31.3518 34.9688 31.4812 34.9688 31.6106 34.9688L31.6365 33.804C32.7495 33.6746 33.7332 33.804 34.7427 33.9076C33.9402 32.5874 33.4225 31.2673 33.7849 29.8954Z" fill="#EAAA00"/>
<path fill-rule="evenodd" clip-rule="evenodd" d="M45.5359 27.2034C45.3029 28.1611 44.7335 29.9472 43.2839 31.5779C42.1191 32.8721 42.2485 33.1569 42.0415 33.5192L41.9897 28.4458L45.5359 27.2034ZM34.8455 30.8272L40.2554 28.9635C39.0388 33.571 35.182 33.0533 35.4926 34.6841C34.5608 33.8557 33.6807 32.225 34.8455 30.8272ZM29.3062 31.4485L33.7842 29.8954C32.7488 33.4416 29.6685 33.0016 29.8497 34.4252C28.8143 33.3898 28.7885 32.1474 29.3062 31.4485Z" fill="#FFBB59"/>
<path fill-rule="evenodd" clip-rule="evenodd" d="M37.1489 23.7608V22.2078L36.1653 22.5443C35.9582 22.596 36.0877 22.6996 35.9065 22.7772L34.9229 23.1655L36.0618 23.1137C36.2171 23.1137 36.1136 22.8808 36.2689 22.8549L36.8901 22.8031V23.8903L37.1489 23.7608Z" fill="#EAAA00"/>
<path fill-rule="evenodd" clip-rule="evenodd" d="M31.585 27.5917V25.7021L30.6013 26.0386C30.3943 26.0904 30.5237 26.194 30.3425 26.2716L29.3848 26.634L30.4978 26.6081C30.6531 26.6081 30.5496 26.3752 30.7049 26.3493L31.3261 26.2975V27.6953L31.585 27.5917Z" fill="#EAAA00"/>
<path fill-rule="evenodd" clip-rule="evenodd" d="M36.0362 23.0878C36.1915 23.0878 36.0879 22.8548 36.2432 22.8289L36.1397 22.5183C35.9326 22.5701 36.0621 22.6736 35.8809 22.7513L36.0362 23.0878Z" fill="#FFBB59"/>
<path fill-rule="evenodd" clip-rule="evenodd" d="M38.8585 23.1653C37.2795 26.2197 35.1311 25.702 34.8722 27.1774C34.0439 26.5044 34.4063 25.1325 34.924 24.5372L38.8585 23.1653Z" fill="#FFBB59"/>
<path fill-rule="evenodd" clip-rule="evenodd" d="M39.3243 25.8055C38.7807 25.1584 38.4183 24.3819 38.8583 23.1653C37.2794 26.2197 35.1309 25.702 34.8721 27.1774C35.778 25.9608 38.4959 25.8573 39.3243 25.8055Z" fill="#EAAA00"/>
<path fill-rule="evenodd" clip-rule="evenodd" d="M34.8978 30.5684C33.9659 29.1966 34.0436 27.7988 34.8719 27.4105C36.3473 26.8928 38.2369 26.2975 39.2982 25.8315C38.5734 28.6789 35.2343 28.9377 34.8978 30.5684Z" fill="#FFBB59"/>
<path fill-rule="evenodd" clip-rule="evenodd" d="M39.3233 25.8057C38.5726 28.6789 35.2594 28.9377 34.9229 30.5685C35.6217 29.6366 37.2266 29.0154 40.2551 28.9118C39.5821 28.0576 39.1162 27.0999 39.3233 25.8057Z" fill="#EAAA00"/>
<path fill-rule="evenodd" clip-rule="evenodd" d="M33.0335 27.074C31.7393 27.5658 30.6003 27.9541 29.5908 28.2906C29.1249 28.7565 28.5555 30.0507 29.4097 31.1379C29.2543 29.8695 31.9464 29.4036 33.0335 27.074Z" fill="#FFBB59"/>
<path fill-rule="evenodd" clip-rule="evenodd" d="M29.4097 31.1379C29.2544 29.8695 31.9723 29.4036 33.0336 27.074C32.9818 27.6434 32.7747 28.86 33.7842 29.8695C32.2053 29.9472 30.1604 30.1801 29.4097 31.1379Z" fill="#EAAA00"/>
<path fill-rule="evenodd" clip-rule="evenodd" d="M30.4707 26.608C30.626 26.608 30.5225 26.3751 30.6778 26.3492L30.5743 26.0386C30.3672 26.0903 30.4966 26.1939 30.3154 26.2715L30.4707 26.608Z" fill="#FFBB59"/>
<path fill-rule="evenodd" clip-rule="evenodd" d="M28.9697 28.4459C27.8567 29.2484 25.8376 30.7497 24.7764 33.2864C25.4753 33.2087 26.1741 33.2087 27.1837 33.4158C26.3812 32.8722 26.2259 32.251 28.9697 28.4459Z" fill="#FFBB59"/>
<path fill-rule="evenodd" clip-rule="evenodd" d="M27.9867 33.5969L27.1584 33.4416C26.356 32.898 26.2007 32.2767 28.9445 28.4717C28.4009 29.4553 27.5208 31.2672 27.9867 33.5969Z" fill="#EAAA00"/>
<path fill-rule="evenodd" clip-rule="evenodd" d="M40.8506 25.7022C41.0059 25.7022 40.9024 25.4692 41.0577 25.4433L40.9542 25.1327C40.7471 25.1845 40.8765 25.288 40.6953 25.3657L40.8506 25.7022Z" fill="#FFBB59"/>
<path fill-rule="evenodd" clip-rule="evenodd" d="M37.02 40.4046L37.6671 41.207C37.7448 41.3105 37.7189 41.4141 37.7189 41.4917C38.1589 41.4659 38.6766 41.6212 38.9614 42.0353C39.272 42.5012 39.5049 42.7342 39.7638 42.9154C40.1003 43.1742 40.4368 43.2778 40.7474 43.3813C41.1875 43.5107 41.5239 43.7955 41.731 44.3908C41.8087 44.3908 41.8605 44.3391 42.0934 44.4167L42.9476 44.7014C42.9994 44.7273 43.077 44.7532 43.1288 44.805C43.1806 44.8826 43.2065 44.9344 43.2065 45.0121C43.2065 45.0897 43.2065 45.1674 43.1806 45.245L42.5335 46.151C42.4817 46.2286 42.3523 46.2545 42.3264 46.2545C42.5076 46.6687 42.5335 47.2123 42.1711 47.6782C41.731 48.2477 41.6534 48.4289 41.5498 48.7395C41.4722 48.9724 41.4463 49.4125 41.4463 49.9043C41.4463 50.2926 41.2392 50.6549 40.8251 50.9138C40.8251 50.9397 40.8509 50.9914 40.8509 51.0691V52.001C40.8509 52.1304 40.851 52.2339 40.7992 52.3374C40.7215 52.4669 40.618 52.5186 40.4627 52.5186C40.3333 52.5445 40.2297 52.5186 40.2038 52.4928L39.272 52.1821C39.1684 52.1304 39.1684 52.0786 39.1684 52.0786C38.2366 52.8293 37.46 52.1563 36.7094 52.1304C35.9587 52.1563 35.1822 52.8293 34.2503 52.0786C34.2503 52.0786 34.2245 52.1304 34.1468 52.1821L33.2149 52.4928C33.1891 52.4928 33.0855 52.5186 32.9561 52.5186C32.8267 52.4928 32.7231 52.441 32.6196 52.3374C32.5678 52.2598 32.5419 52.1304 32.5678 52.001V51.0691C32.5678 50.9914 32.5937 50.9397 32.5937 50.9138C32.1537 50.6549 31.9725 50.2926 31.9725 49.9043C31.9725 49.4125 31.9466 48.9724 31.8689 48.7395C31.7654 48.403 31.6877 48.2477 31.2477 47.6782C30.8853 47.2123 30.9371 46.6687 31.0924 46.2545C31.0665 46.2545 30.963 46.2286 30.8853 46.151L30.2382 45.245C30.1864 45.1674 30.1864 45.0638 30.2123 45.0121C30.2123 44.9344 30.2382 44.8568 30.29 44.805C30.3417 44.7532 30.4194 44.7273 30.4712 44.7014L31.3254 44.4167C31.5583 44.3391 31.6101 44.3908 31.6877 44.3908C31.8948 43.7696 32.2313 43.4849 32.6714 43.3813C32.982 43.3037 33.3185 43.1742 33.655 42.9154C33.9138 42.7342 34.1209 42.4754 34.4574 42.0353C34.768 41.6212 35.2598 41.4659 35.6999 41.4917C35.6999 41.4141 35.6481 41.3105 35.7517 41.207L36.3988 40.4046C36.5023 40.2752 36.6317 40.2752 36.6835 40.2493C36.8129 40.2752 36.9165 40.2752 37.02 40.4046Z" fill="#002E60"/>
<path fill-rule="evenodd" clip-rule="evenodd" d="M36.476 43.5367C36.2689 43.3296 35.9065 43.1743 35.5183 43.4849C35.4665 43.5108 35.4147 43.5626 35.363 43.6143C35.0265 43.9249 34.9747 44.2097 34.6123 44.3909C34.1205 44.6238 33.2404 44.6238 33.5251 45.5816C33.6287 45.8663 33.6287 45.8145 33.3698 45.7628C32.9039 45.6592 32.5156 45.4004 32.4639 44.9086C32.438 44.4426 32.6709 44.0803 33.0592 43.9508C33.3181 43.8732 33.6028 43.8473 34.1205 43.4849C34.7417 43.0707 34.8194 42.5272 35.2853 42.2942C35.57 42.1907 35.8289 42.1907 36.1136 42.2942C36.5537 42.5013 36.6572 42.9672 36.6054 43.5108C36.6054 43.6661 36.5278 43.5884 36.476 43.5367Z" fill="#E41819"/>
<path fill-rule="evenodd" clip-rule="evenodd" d="M36.5796 46.0734V44.4685C36.6055 44.1061 36.4502 43.8473 36.1396 43.7696C36.0102 43.7437 35.8548 43.7437 35.7254 43.8214C35.5442 43.9249 35.4407 44.1061 35.2854 44.2873C35.1301 44.4685 34.9489 44.6497 34.7418 44.7274C34.5606 44.805 34.3535 44.8309 34.1723 44.9344C33.9653 45.038 33.8099 45.1933 33.8358 45.478C33.8358 45.6333 33.9135 45.7886 34.0429 45.8922C34.1723 45.9957 34.3276 46.0475 34.5088 46.0993L35.8807 46.5393C35.9843 46.5652 36.036 46.5393 36.0878 46.4616C36.2431 46.2287 36.3725 46.2028 36.502 46.1769C36.5796 46.2028 36.5796 46.1251 36.5796 46.0734Z" fill="#E41819"/>
<path fill-rule="evenodd" clip-rule="evenodd" d="M37.0723 43.5367C37.2794 43.3296 37.6418 43.1743 38.03 43.4849C38.0818 43.5108 38.1336 43.5626 38.1853 43.6143C38.5218 43.9249 38.5736 44.2097 38.936 44.3909C39.4278 44.6238 40.3079 44.6238 40.0232 45.5816C39.9196 45.8663 39.9196 45.8145 40.1785 45.7628C40.6444 45.6592 41.0327 45.4004 41.0844 44.9086C41.1103 44.4426 40.8774 44.0803 40.4891 43.9508C40.2302 43.8732 39.9455 43.8473 39.4278 43.4849C38.8066 43.0707 38.7289 42.5272 38.263 42.2942C37.9783 42.1907 37.7194 42.1907 37.4347 42.2942C36.9946 42.5013 36.8911 42.9672 36.9429 43.5108C36.9429 43.6661 37.0205 43.5884 37.0723 43.5367Z" fill="#E41819"/>
<path fill-rule="evenodd" clip-rule="evenodd" d="M36.9682 46.0734V44.4685C36.9423 44.1061 37.0976 43.8473 37.4082 43.7696C37.5376 43.7437 37.6929 43.7437 37.8224 43.8214C38.0036 43.9249 38.1071 44.1061 38.2624 44.2873C38.4177 44.4685 38.5989 44.6497 38.806 44.7274C38.9872 44.805 39.1943 44.8309 39.3754 44.9344C39.5825 45.038 39.7378 45.1933 39.7119 45.478C39.7119 45.6333 39.6343 45.7886 39.5049 45.8922C39.3754 45.9957 39.2201 46.0475 39.0389 46.0993L37.6671 46.5393C37.6412 46.5652 37.5894 46.5652 37.5635 46.5652C37.5376 46.5652 37.5376 46.5652 37.5117 46.5393C37.3047 46.2287 37.2011 46.2287 37.0199 46.1769C36.9682 46.1769 36.9423 46.1251 36.9682 46.0734Z" fill="#E41819"/>
<path fill-rule="evenodd" clip-rule="evenodd" d="M39.0655 49.6973C39.3503 49.7491 39.7385 49.6456 39.868 49.1796C39.8938 49.1279 39.8938 49.0502 39.9197 48.9726C39.9974 48.5325 39.868 48.2478 40.075 47.8854C40.3339 47.3936 41.0587 46.8759 40.2562 46.2805C40.0233 46.1252 40.0233 46.1511 40.2821 46.0476C40.7222 45.8664 41.1881 45.8405 41.5246 46.2029C41.8093 46.5653 41.8611 46.9794 41.6022 47.3418C41.4469 47.5748 41.2399 47.756 41.0328 48.3513C40.7998 49.0502 41.0328 49.542 40.7739 50.008C40.6186 50.2668 40.3857 50.4221 40.1009 50.4739C39.6091 50.5774 39.2726 50.2409 38.9879 49.775C38.9102 49.6456 39.0138 49.6714 39.0655 49.6973Z" fill="#E41819"/>
<path fill-rule="evenodd" clip-rule="evenodd" d="M37.4858 47.7299L38.4436 49.0242C38.6248 49.3348 38.9095 49.4642 39.2201 49.3348C39.3495 49.283 39.4531 49.2054 39.5048 49.05C39.5825 48.8689 39.5825 48.6359 39.5825 48.4029C39.6084 48.17 39.6343 47.9111 39.7637 47.7299C39.8672 47.5746 39.9966 47.3934 40.1002 47.2381C40.2037 47.031 40.2296 46.824 40.0484 46.591C39.9449 46.4616 39.8155 46.3839 39.6343 46.358C39.4531 46.358 39.3236 46.4098 39.1424 46.4616L37.7706 46.9275C37.6929 46.9534 37.6411 47.0052 37.667 47.0828C37.6929 47.3934 37.5635 47.5229 37.4599 47.6005C37.4341 47.6264 37.4599 47.6782 37.4858 47.7299Z" fill="#E41819"/>
<path fill-rule="evenodd" clip-rule="evenodd" d="M34.4575 49.6973C34.1728 49.7491 33.7845 49.6456 33.6551 49.1796C33.6292 49.1279 33.6292 49.0502 33.6033 48.9726C33.5257 48.5325 33.6551 48.2478 33.448 47.8854C33.1892 47.3936 32.4644 46.8759 33.2668 46.2805C33.4998 46.1252 33.4998 46.1511 33.2409 46.0476C32.8009 45.8664 32.335 45.8405 31.9985 46.2029C31.7137 46.5653 31.662 46.9794 31.9208 47.3418C32.0761 47.5748 32.2832 47.756 32.4903 48.3513C32.7232 49.0502 32.4903 49.542 32.7491 50.008C32.9044 50.2668 33.1374 50.4221 33.4221 50.4739C33.9139 50.5774 34.2504 50.2409 34.5352 49.775C34.6387 49.6456 34.5352 49.6714 34.4575 49.6973Z" fill="#E41819"/>
<path fill-rule="evenodd" clip-rule="evenodd" d="M36.0363 47.7299L35.0786 49.0242C34.8974 49.3348 34.6126 49.4642 34.302 49.3348C34.1726 49.283 34.0691 49.2054 34.0173 49.05C33.9396 48.8689 33.9396 48.6359 33.9396 48.4029C33.9137 48.17 33.8879 47.9111 33.7584 47.7299C33.6549 47.5746 33.4996 47.3934 33.4219 47.2381C33.3184 47.031 33.2925 46.824 33.4737 46.591C33.5772 46.4616 33.7067 46.3839 33.8879 46.358C34.0691 46.358 34.1985 46.4098 34.3797 46.4616L35.7516 46.9275C35.8292 46.9534 35.8551 46.9793 35.881 47.031C35.8292 47.264 35.9328 47.4193 36.0622 47.5746C36.0881 47.6264 36.0881 47.6782 36.0363 47.7299Z" fill="#E41819"/>
<path fill-rule="evenodd" clip-rule="evenodd" d="M38.5991 50.0078C38.5474 50.2925 38.3662 50.629 37.8485 50.629C37.7708 50.629 37.7191 50.629 37.6414 50.6032C37.2014 50.5514 36.9684 50.3443 36.5801 50.422C36.0365 50.5255 35.3118 51.0432 35.0012 50.1114C34.9235 49.8266 34.9494 49.8525 34.7682 50.0596C34.4576 50.422 34.2764 50.862 34.5611 51.2762C34.82 51.6644 35.2082 51.8197 35.6224 51.6903C35.8812 51.6127 36.1142 51.4574 36.7613 51.4315C37.512 51.4056 37.9002 51.7939 38.3921 51.6903C38.6768 51.6127 38.9097 51.4574 39.0392 51.1985C39.2721 50.7585 39.0651 50.3443 38.7027 49.9302C38.5991 49.8266 38.5991 49.9302 38.5991 50.0078Z" fill="#E41819"/>
<path fill-rule="evenodd" clip-rule="evenodd" d="M37.2006 47.8853L38.1584 49.1796C38.3913 49.4384 38.4431 49.749 38.2101 50.0079C38.1066 50.1114 38.0031 50.1891 37.8478 50.2149C37.6407 50.2408 37.4336 50.1632 37.2006 50.0855C36.9677 50.0338 36.7347 49.982 36.5018 50.0338C36.3206 50.0855 36.1135 50.1632 35.9323 50.1891C35.6993 50.215 35.4922 50.1891 35.3369 49.9561C35.2334 49.8267 35.2075 49.6714 35.2593 49.4902C35.3111 49.309 35.4146 49.2054 35.5181 49.0501L36.3723 47.8853C36.4241 47.8335 36.45 47.7818 36.5276 47.8077C36.7865 47.9371 36.9936 47.8594 37.0971 47.8077C37.123 47.8077 37.1748 47.8594 37.2006 47.8853Z" fill="#E41819"/>
<path d="M37.3303 47.0311C37.3303 47.3159 37.0974 47.5747 36.7867 47.5747C36.502 47.5747 36.2432 47.3417 36.2432 47.0311C36.2432 46.7464 36.4761 46.4875 36.7867 46.4875C37.0715 46.4875 37.3303 46.7464 37.3303 47.0311Z" fill="#FEBE53"/>
<path fill-rule="evenodd" clip-rule="evenodd" d="M36.2705 41.7765C36.2187 41.7248 36.2187 41.6989 36.2963 41.6471C36.4516 41.4659 36.5811 41.2588 36.7364 41C36.8917 41.233 37.047 41.44 37.1764 41.6471C37.2282 41.7248 37.2541 41.7248 37.2023 41.7765C37.0211 41.9319 36.8399 42.113 36.7364 42.4495C36.6587 42.113 36.4517 41.9319 36.2705 41.7765Z" fill="#E41819"/>
<path fill-rule="evenodd" clip-rule="evenodd" d="M41.6017 44.9862C41.6276 44.9086 41.6534 44.9344 41.7311 44.9603C41.9641 45.038 42.197 45.1156 42.4818 45.1933C42.3006 45.4004 42.1453 45.6074 41.99 45.8145C41.9382 45.8922 41.9382 45.9181 41.8605 45.8663C41.6534 45.7369 41.4205 45.6075 41.084 45.6333C41.3946 45.4263 41.4981 45.1933 41.6017 44.9862Z" fill="#E41819"/>
<path fill-rule="evenodd" clip-rule="evenodd" d="M31.6364 45.8404C31.5587 45.8922 31.5587 45.8663 31.5069 45.7887C31.3775 45.5816 31.2222 45.4004 31.041 45.1674C31.3257 45.0898 31.5587 45.0121 31.7917 44.9345C31.8693 44.9086 31.8952 44.8827 31.9211 44.9603C31.9987 45.1674 32.1282 45.4263 32.4129 45.6075C32.0764 45.5816 31.8176 45.7369 31.6364 45.8404Z" fill="#E41819"/>
<path fill-rule="evenodd" clip-rule="evenodd" d="M40.2033 50.9397C40.281 50.9397 40.281 50.9656 40.281 51.0692C40.281 51.3021 40.281 51.561 40.3068 51.8457C40.048 51.7422 39.7891 51.6645 39.5562 51.6128C39.4785 51.5869 39.4526 51.5869 39.4526 51.5092C39.5044 51.2762 39.5562 51.0174 39.4268 50.7068C39.7115 50.888 39.9703 50.9139 40.2033 50.9397Z" fill="#E41819"/>
<path fill-rule="evenodd" clip-rule="evenodd" d="M34.0685 51.4575C34.0944 51.5351 34.0685 51.5351 33.965 51.561C33.732 51.6387 33.4991 51.7163 33.2402 51.8199C33.2661 51.5351 33.2661 51.2763 33.2402 51.0433C33.2402 50.9657 33.2402 50.9398 33.3179 50.9139C33.5508 50.888 33.8097 50.8621 34.0685 50.6292C33.965 50.9657 34.0168 51.2504 34.0685 51.4575Z" fill="#E41819"/>
</svg>
