<svg width="73" height="74" viewBox="0 0 73 74" fill="none" xmlns="http://www.w3.org/2000/svg">
<path fill-rule="evenodd" clip-rule="evenodd" d="M36.7495 73.2373C56.6942 73.2373 72.9748 56.9563 72.9748 36.9853C72.9748 17.041 56.6938 0.76001 36.7495 0.76001C16.7785 0.76001 0.49707 17.041 0.49707 36.9853C0.49707 56.9563 16.778 73.2373 36.7495 73.2373Z" fill="#F2D639"/>
<path fill-rule="evenodd" clip-rule="evenodd" d="M36.6673 69.2758C54.5224 69.2758 69.094 54.7306 69.094 36.9036C69.094 19.0485 54.5224 4.50415 36.6673 4.50415C18.7855 4.50415 4.21387 19.0485 4.21387 36.9036C4.21428 54.7311 18.7855 69.2758 36.6673 69.2758Z" fill="#962D35"/>
<path fill-rule="evenodd" clip-rule="evenodd" d="M36.5059 57.9601C48.2823 57.9601 57.861 48.3814 57.861 36.6322C57.861 24.8831 48.2823 15.304 36.5059 15.304C24.7291 15.304 15.1504 24.8827 15.1504 36.6322C15.1504 48.3818 24.7291 57.9601 36.5059 57.9601Z" fill="#B5D4E6" stroke="#F2D639" stroke-width="2.06145" stroke-miterlimit="2.613"/>
<path fill-rule="evenodd" clip-rule="evenodd" d="M49.0686 63.9303C49.0146 63.7943 48.9057 63.7402 48.716 63.713C48.5807 63.713 48.4447 63.713 48.3094 63.7679C48.1762 63.8106 48.0552 63.8849 47.9568 63.9844C47.8755 64.1205 47.8479 64.2285 47.9019 64.337C48.0108 64.5811 48.2545 64.636 48.6624 64.4999C48.7977 64.4458 48.9065 64.3646 48.9878 64.2557C49.0962 64.1469 49.1235 64.0388 49.0686 63.9303Z" fill="black"/>
<path fill-rule="evenodd" clip-rule="evenodd" d="M49.5582 63.7403C49.6663 63.9844 49.6395 64.2285 49.4493 64.4731C49.2994 64.6754 49.0912 64.8269 48.8526 64.9073C48.5536 65.0154 48.2823 65.0426 48.0109 64.9614C47.7127 64.9073 47.5226 64.744 47.4142 64.5271C47.3053 64.283 47.3329 64.0388 47.4954 63.7943C47.6453 63.592 47.8536 63.4405 48.0921 63.36C48.3635 63.2788 48.6076 63.252 48.879 63.2788C49.2052 63.3332 49.4221 63.4961 49.5582 63.7403ZM45.1344 60.4296L44.2123 61.4605C43.2894 60.9723 42.3669 60.8362 41.4175 60.9991C40.6847 61.1352 40.0875 61.4605 39.6261 61.922C39.1106 62.4375 38.9205 63.0342 39.0842 63.7126C39.3007 64.6084 39.8978 65.1779 40.9297 65.3952C41.4179 65.5041 41.9334 65.5041 42.4761 65.4224C42.9916 65.3136 43.4259 65.1511 43.8061 64.9069C44.1315 64.7168 44.4569 64.4178 44.7823 64.0112L46.0582 64.6896C45.5967 65.2323 45.1085 65.6393 44.6198 65.9379C44.0771 66.2361 43.4535 66.4534 42.7207 66.5887C41.4996 66.8336 40.4414 66.7248 39.4916 66.3173C38.4058 65.8831 37.755 65.0962 37.4837 64.0112C37.1847 62.6812 37.7002 61.569 39.0302 60.6733C39.6545 60.239 40.3874 59.9677 41.1742 59.8052C42.665 59.5338 43.9682 59.7516 45.1344 60.4296Z" fill="#F2D639"/>
<path fill-rule="evenodd" clip-rule="evenodd" d="M36.3969 66.1008C36.3969 65.992 36.3429 65.8835 36.2072 65.8018C36.0715 65.7202 35.9358 65.6938 35.8001 65.6938C35.6373 65.6666 35.5016 65.6938 35.3659 65.7478C35.2302 65.8291 35.149 65.9107 35.149 66.0468C35.1222 66.2909 35.3119 66.4534 35.7189 66.4811C35.8676 66.4828 36.0152 66.4552 36.1532 66.3998C36.216 66.375 36.2714 66.3345 36.314 66.2821C36.3567 66.2298 36.3852 66.1674 36.3969 66.1008Z" fill="black"/>
<path fill-rule="evenodd" clip-rule="evenodd" d="M36.912 66.1285C36.8852 66.3999 36.7223 66.6168 36.451 66.7529C36.2114 66.8861 35.9369 66.9429 35.6641 66.9158C35.3655 66.8885 35.1214 66.8069 34.9045 66.6444C34.6871 66.4815 34.5787 66.2642 34.6059 66.02C34.6331 65.7487 34.7956 65.5309 35.0674 65.3957C35.3115 65.2604 35.5561 65.2056 35.827 65.2328C36.0984 65.26 36.3425 65.3416 36.5598 65.4769C36.8308 65.6394 36.9396 65.8835 36.912 66.1285ZM30.5628 59.4526L35.0942 60.2671L34.7956 61.4606L31.974 60.9727L31.5938 62.3015L33.7646 62.7093L33.4388 63.8764L31.2956 63.4962L30.5628 66.2361L28.8262 65.9107L30.5628 59.4526Z" fill="#F2D639"/>
<path fill-rule="evenodd" clip-rule="evenodd" d="M30.0473 38.0162C29.8844 38.2064 29.7215 38.4229 29.5586 38.7219C28.636 37.935 29.3144 37.7173 28.3647 36.8492C27.2797 36.8492 26.9807 38.8571 26.4384 39.3186C24.2948 37.935 27.1168 35.167 23.7793 37.2566C22.585 35.6013 26.9267 32.5079 23.345 34.0271C23.4263 31.1507 27.9849 35.0041 30.0473 34.8952C30.1829 34.8952 30.3186 34.8684 30.4271 34.814C34.7688 34.0812 33.9275 33.2943 32.4623 33.376C32.4623 31.2868 35.3115 29.7939 34.8504 28.0033C34.3077 28.0033 31.3228 29.3873 31.4585 28.0033C31.4585 26.8094 33.2763 27.3249 34.2533 26.4568C34.2533 24.0958 32.6524 25.2357 31.1599 24.2319C31.1599 21.6268 35.203 25.1544 36.6415 24.2319C36.6415 22.4681 34.1993 24.7474 33.8194 22.3592C34.4978 19.971 36.5602 24.0146 40.9019 21.6808L39.8709 23.1461C40.9019 24.0142 42.6113 24.747 42.1771 28.2474C42.0682 28.0033 40.956 27.4061 40.7658 27.6235C41.3362 28.4375 42.5024 29.6314 42.5024 30.7709C41.7428 30.7709 41.1461 30.1197 40.3052 30.4995C40.3052 31.4761 41.7428 31.9375 41.7428 33.1042C41.3362 33.43 41.1461 33.2399 40.6306 33.2399C40.6306 36.0347 45.2972 43.3341 46.7633 40.7834C47.0074 36.3877 40.9019 30.1737 47.9296 28.654C50.5079 29.3869 51.1586 29.2784 51.783 29.5766C50.2093 29.5766 50.5619 29.7667 49.721 30.4991C47.0074 27.8668 43.507 31.747 46.9262 35.6817C47.2516 35.4103 47.6318 35.0305 47.9572 34.7864C47.4145 36.9572 48.0925 39.2637 47.8211 41.4614C47.8211 43.6867 44.538 41.8416 44.2667 42.0858C44.2667 45.4509 41.3366 45.2059 42.7474 48.4899C46.1394 51.8278 40.0066 50.2805 40.4681 53.2382C39.1657 51.0673 39.1657 51.8278 37.0761 52.6687C35.6649 51.8278 39.1653 49.4936 35.7734 49.8198C36.5602 47.1875 40.9019 50.2805 40.9019 48.2461C40.3052 45.8579 37.3199 44.8534 39.4367 41.842C39.4367 40.8923 38.2424 38.7219 36.8856 39.1013C36.8856 39.1013 35.0133 37.7449 34.8504 37.2566L34.6875 35.9539C34.1993 36.1436 33.9007 36.659 33.5481 36.9576L33.0866 36.5778C32.6524 36.8488 32.0284 37.6356 31.7571 38.0435C31.4585 37.8261 30.9966 36.8764 30.0473 38.0162ZM35.2571 46.0208C34.2529 48.7616 31.3224 44.8538 30.5623 48.3278C30.3726 48.2189 30.1825 48.0836 30.0469 47.9203C28.6633 46.7265 28.5816 45.0987 27.8216 47.1607C26.9535 45.6142 27.8488 45.3429 28.5 44.7185C28.5 43.7688 27.8488 44.203 27.0075 44.2302C27.6315 42.3575 28.7441 42.7918 30.0464 43.7687C30.4535 44.0941 30.8877 44.4744 31.322 44.8538C35.6637 44.8538 31.322 40.2143 34.1168 38.4505C34.3065 38.6406 37.4539 41.2453 37.4539 40.8115C34.9045 43.0631 35.2571 43.3345 35.2571 46.0208ZM30.0473 29.3601C30.7529 29.6586 31.4853 29.9028 32.2453 30.1741C32.2453 31.314 31.0783 31.8839 31.0783 33.0506C30.9426 32.9421 30.7797 32.6708 30.7797 32.3722C30.4271 32.0736 30.2374 32.2637 30.0473 32.4807C29.7759 32.7248 29.5046 33.0234 28.8534 32.5619C28.8534 31.1511 28.3107 31.5309 26.9807 31.7206L26.6281 30.6896C24.5661 31.2051 25.4342 31.2051 23.2361 31.2051C26.1126 29.3601 24.4028 28.6272 23.0732 29.1699C23.0732 27.9761 23.8873 27.7315 24.8643 27.3789C24.5117 27.0803 23.9145 27.0531 23.4803 27.0531C23.4803 25.5334 26.9807 25.5334 27.2252 27.3789C28.0661 28.3019 29.0159 28.8986 30.0473 29.3601ZM30.0473 25.4254C30.7529 25.3442 31.1871 24.6113 32.2726 25.5066C32.2726 25.6155 32.5983 25.9681 32.5983 26.1578C31.5129 26.2395 30.7529 26.6733 30.0473 26.5921C29.3417 26.5108 28.6905 25.9137 27.822 24.0146C28.9074 25.2625 29.5318 25.5066 30.0473 25.4254Z" fill="#803033"/>
<path fill-rule="evenodd" clip-rule="evenodd" d="M8.90837 26.7822C8.79991 26.9179 8.69145 27.0808 8.63701 27.2437C8.58258 27.4066 8.6098 27.5695 8.69104 27.7864C8.74547 27.9221 8.82672 28.0305 8.90796 28.1122C8.98961 28.1934 9.09807 28.2479 9.20653 28.3019C9.42345 28.3831 9.74925 28.1662 10.1835 27.6507C10.8347 26.8911 11.2689 26.4296 11.5131 26.2399C12.1102 25.7784 12.7069 25.67 13.3041 25.9141C13.9825 26.1583 14.444 26.6738 14.6877 27.4338C14.9322 28.1394 14.959 28.8174 14.7149 29.4962C14.2806 30.7441 13.4394 31.5041 12.191 31.7483L12.0281 30.0929C12.7882 29.9032 13.2765 29.5234 13.4662 28.9803C13.5474 28.7361 13.5206 28.492 13.4394 28.2206C13.3037 27.8949 13.0868 27.6779 12.7882 27.5695C12.5168 27.4882 12.1638 27.7052 11.73 28.2206C11.0524 29.0071 10.6182 29.4686 10.4553 29.6042C9.93977 30.0113 9.42428 30.1469 8.90878 30.0385C8.82754 30.0113 8.74589 29.9845 8.66464 29.9568C8.09471 29.7399 7.68809 29.2784 7.44395 28.5732C7.19982 27.9221 7.1726 27.2977 7.38952 26.7278C7.63366 25.9954 8.14915 25.371 8.9092 24.8827C9.07209 24.8015 9.23499 24.693 9.39788 24.6114L9.83214 26.1851C9.42428 26.348 9.1257 26.5381 8.90837 26.7822ZM64.129 38.1788L65.4313 37.582L64.129 36.9304L62.8806 36.2793L62.8534 38.7755L64.129 38.1788ZM64.129 35.1398L67.1947 36.6863L67.1683 38.5041L64.1294 39.9154L59.7056 41.9773H59.6792L59.7056 41.5707V40.1055L61.4154 39.4271L61.4694 35.6009L59.8141 34.814L59.8413 32.9418L64.129 35.1398ZM64.129 25.2898L64.8886 24.9912L65.4853 26.6465L64.129 27.162L59.923 28.7629L60.9539 31.6666L59.7056 32.1281L59.5703 32.1825L57.915 27.6239L59.7052 26.9451L64.129 25.2898ZM59.7052 18.3161L60.438 17.7194L61.469 19.1574L59.7052 20.541L56.7475 22.8203L58.5389 25.2893L57.3719 26.2119L56.3409 24.8283L54.4954 22.3589L56.3409 20.9204L59.7052 18.3161ZM56.3409 14.68L56.8836 14.0561L58.1587 15.25L56.3409 17.3392L53.1931 20.9481L53.1658 20.9208L51.9175 19.7542L53.1658 18.3161L56.3409 14.68ZM53.1658 10.9895L54.4142 11.6139L53.1658 12.7261L48.2274 17.0406L46.7349 16.281L47.1152 7.92336L48.7157 8.73743L48.4443 14.68L52.8405 10.7998L53.1658 10.9895ZM21.3091 17.4208C21.7978 17.3664 22.2861 17.2039 22.7203 16.8781C23.3175 16.4711 23.6973 15.9284 23.887 15.25C24.0771 14.5172 23.9686 13.8392 23.5344 13.1876C23.1274 12.5092 22.5302 12.1566 21.7978 12.0749C21.636 12.0481 21.4709 12.0481 21.3091 12.0749C20.7936 12.1022 20.3326 12.2651 19.8983 12.5904C19.2739 12.9975 18.8941 13.5402 18.704 14.2186C18.5143 14.951 18.6228 15.6294 19.0566 16.3078C19.5181 17.0134 20.1692 17.3932 20.9833 17.4204L21.3091 17.4208ZM21.3091 10.5825C21.5708 10.5552 21.8347 10.5552 22.0964 10.5825C23.263 10.6909 24.1856 11.2609 24.8372 12.2919C25.5155 13.296 25.6784 14.3815 25.3258 15.5209C25.0273 16.5791 24.4305 17.4204 23.5076 18.072C22.802 18.5603 22.0696 18.8316 21.3095 18.8861C21.0479 18.9133 20.7842 18.9133 20.5227 18.8861C18.6158 18.7562 17.1307 17.0423 17.1307 15.1683C17.0755 13.675 17.9485 12.2127 19.1387 11.3697C19.8171 10.9083 20.5495 10.6369 21.3091 10.5825ZM27.6047 7.2994L29.2329 7.05527L33.8459 11.397L33.0859 6.40368L34.7953 6.13232L35.9623 13.7299L34.307 14.0012L29.7212 9.63274L30.4808 14.6256L28.771 14.897L27.6047 7.2994ZM17.6462 22.6034L18.1617 23.0104L17.6462 23.7156L17.1035 24.4485L12.2735 20.7035L11.1064 22.3316L9.99421 21.4635L13.4134 16.7692L14.526 17.6373L13.3317 19.2655L17.6462 22.6034ZM8.90837 35.0586L13.2229 32.8605L13.2497 34.7328L11.5675 35.4924L11.6487 39.3182L13.3309 40.051L13.3581 41.8957L8.90796 39.8337L5.89623 38.4225L5.8418 36.6047L8.90837 35.0586ZM8.90837 38.0703L10.2111 38.667L10.1567 36.1712L8.90837 36.8224L7.63324 37.4736L8.90837 38.0703Z" fill="#F2D639"/>
</svg>
