<svg width="59" height="73" viewBox="0 0 59 73" fill="none" xmlns="http://www.w3.org/2000/svg">
<path fill-rule="evenodd" clip-rule="evenodd" d="M7.25602 60.8768L7.30108 61.7908C7.11856 61.7145 6.99858 61.6513 6.84652 61.6341C6.6947 61.617 6.53597 61.6349 6.39322 61.6846C6.12217 61.7788 6.08929 61.8585 5.96417 62.091C5.84215 62.3178 5.84687 62.557 5.90789 62.8662C5.96474 63.1543 6.06908 63.3681 6.29342 63.5082C6.45096 63.6065 6.50801 63.6612 6.78782 63.672C6.93652 63.6777 7.06589 63.6132 7.20066 63.556C7.33853 63.4976 7.48232 63.4255 7.60952 63.2863L7.87726 64.1266C7.73694 64.2326 7.44388 64.3593 7.29274 64.4147C7.13395 64.4729 7.03142 64.4917 6.87333 64.5193C6.67627 64.5537 6.631 64.5628 6.45609 64.5491C6.28114 64.5353 6.10848 64.5286 5.95053 64.4619C5.64717 64.3339 5.39748 64.1483 5.2032 63.9027C5.00833 63.6563 4.91572 63.3516 4.84837 63.0097C4.79418 62.7348 4.79825 62.4832 4.84313 62.2401C4.8879 61.9974 4.97104 61.7924 5.11384 61.5734C5.24975 61.3651 5.39897 61.1926 5.60141 61.073C5.79386 60.9593 5.86304 60.9154 6.12442 60.8639C6.28192 60.8328 6.44441 60.7928 6.60583 60.8002C6.7667 60.8076 7.0861 60.8318 7.25602 60.8768Z" fill="white"/>
<path fill-rule="evenodd" clip-rule="evenodd" d="M19.1475 67.7433L21.9338 65.0459L23.0126 65.5478L22.5759 69.2377L21.5007 68.9319L21.6285 68.23L20.5733 67.7513L20.1538 68.1928L19.1475 67.7433Z" fill="white"/>
<path fill-rule="evenodd" clip-rule="evenodd" d="M21.0771 67.1456L21.7591 67.453L21.9528 66.2329L21.0771 67.1456Z" fill="#004990"/>
<path fill-rule="evenodd" clip-rule="evenodd" d="M23.1104 69.5977L24.2445 66.1506L25.1947 66.4615L24.3805 69.0691L25.3532 69.3762L25.2349 70.27L23.1104 69.5977Z" fill="white"/>
<path fill-rule="evenodd" clip-rule="evenodd" d="M17.6309 66.8586L18.8856 64.4049L18.0637 63.9704L18.4582 63.2234L21.0103 64.5353L20.7259 65.3679L19.8473 64.8983L18.5926 67.3521L17.6309 66.8586Z" fill="white"/>
<path fill-rule="evenodd" clip-rule="evenodd" d="M14.7732 64.2929C14.9035 64.4792 15.1778 64.7398 15.3115 64.8393C15.4331 64.9298 15.5348 65.0121 15.6632 65.0756C15.7808 65.1336 15.8765 65.1701 15.9668 65.1558C16.0735 65.1389 16.134 65.1293 16.1744 65.027C16.2189 64.9143 16.1799 64.7967 16.115 64.7216C16.0504 64.6468 15.8925 64.4802 15.7161 64.3175C15.4345 64.0576 15.2845 63.8966 15.2117 63.6949C15.1396 63.4958 15.1254 63.278 15.2187 63.0239C15.3397 62.6943 15.5592 62.4682 15.8618 62.3559C16.1671 62.2426 16.4866 62.2797 16.8338 62.4079C17.0236 62.478 17.1887 62.5537 17.3369 62.6706C17.4853 62.7878 17.7546 62.9856 17.865 63.1479L17.3955 63.871C17.3011 63.7453 16.9895 63.4393 16.8928 63.3525C16.8005 63.2698 16.7013 63.2207 16.5987 63.1647C16.4906 63.1054 16.4179 63.0861 16.3272 63.113C16.2364 63.14 16.2035 63.1696 16.1791 63.2558C16.1547 63.3422 16.1728 63.3925 16.2138 63.4679C16.2777 63.5859 16.3979 63.6841 16.4987 63.7738C16.8033 64.0452 17.0007 64.2775 17.0911 64.4381C17.1526 64.5474 17.217 64.6788 17.2128 64.8121C17.2085 64.9463 17.2005 65.0903 17.1439 65.2331C17.0009 65.5946 16.7564 65.8507 16.359 65.9448C16.017 66.0257 15.729 65.9705 15.3349 65.8105C15.1037 65.7165 14.9288 65.5794 14.7458 65.445C14.5646 65.312 14.4612 65.2224 14.2842 65.0308L14.7732 64.2929Z" fill="white"/>
<path fill-rule="evenodd" clip-rule="evenodd" d="M12.2023 64.6909L12.5438 63.4517L11.9131 60.9976L13.0758 61.1203L13.3545 62.6853L14.3755 61.5198L15.4459 61.8266L13.5807 63.7143L13.2168 64.9636L12.2023 64.6909Z" fill="white"/>
<path fill-rule="evenodd" clip-rule="evenodd" d="M8.4248 64.2666L8.61678 60.657L9.78818 60.7052C10.1961 60.7219 10.4818 60.7918 10.6402 60.8371C10.7988 60.8824 10.9348 60.9525 11.0474 61.0461C11.1739 61.1524 11.2692 61.2855 11.3324 61.4434C11.3957 61.6022 11.4223 61.7746 11.4131 61.9616C11.3992 62.2449 11.3456 62.466 11.2098 62.6396C11.0698 62.8177 10.9638 62.8768 10.7199 63.0271L11.4562 64.2899L10.3225 64.3987L9.72223 63.1756L9.5497 63.1772L9.50576 64.3095L8.4248 64.2666Z" fill="white"/>
<path fill-rule="evenodd" clip-rule="evenodd" d="M9.57129 62.472C9.77219 62.4733 10.0012 62.5297 10.1794 62.4256C10.2858 62.3633 10.3716 62.2051 10.3791 62.049C10.388 61.8655 10.344 61.7232 10.2646 61.6367C10.1166 61.4753 9.82748 61.5108 9.61395 61.5017L9.57129 62.472Z" fill="#004990"/>
<path fill-rule="evenodd" clip-rule="evenodd" d="M53.3675 64.1303C53.4117 63.9956 53.494 63.8975 53.6159 63.8359C53.7369 63.774 53.8649 63.7647 54.0005 63.8091C54.1385 63.8544 54.2379 63.9382 54.3003 64.0603C54.3619 64.1821 54.3712 64.3102 54.327 64.4449C54.2829 64.5798 54.1993 64.6783 54.0752 64.7411C53.9522 64.8041 53.8223 64.8136 53.6858 64.7689C53.5518 64.725 53.4553 64.6411 53.3934 64.5174C53.3323 64.394 53.3233 64.2651 53.3675 64.1303Z" fill="white"/>
<path fill-rule="evenodd" clip-rule="evenodd" d="M53.3022 60.9908L53.1033 61.8841C52.9475 61.7621 52.8486 61.6694 52.7065 61.6125C52.5647 61.5557 52.4068 61.531 52.256 61.5409C51.9697 61.5599 51.9169 61.628 51.7346 61.819C51.5568 62.0053 51.4979 62.2373 51.4748 62.5515C51.4532 62.8445 51.4971 63.0782 51.6763 63.2728C51.8021 63.4094 51.8426 63.4772 52.1095 63.5619C52.2514 63.6068 52.3932 63.5789 52.5383 63.5595C52.6868 63.5397 52.8445 63.5084 53.0041 63.4078L53.0395 64.289C52.876 64.3541 52.5598 64.3985 52.3994 64.4119C52.2309 64.4259 52.127 64.4168 51.9673 64.4015C51.7682 64.3824 51.7221 64.3792 51.5571 64.3196C51.3921 64.2599 51.2274 64.2077 51.0928 64.1015C50.8342 63.8977 50.6427 63.6524 50.5205 63.3641C50.3979 63.0749 50.3894 62.7565 50.4151 62.409C50.4358 62.1296 50.5064 61.8881 50.6141 61.6656C50.7217 61.4434 50.8562 61.2678 51.0519 61.0945C51.2382 60.9298 51.4279 60.803 51.6548 60.7413C51.8705 60.6827 51.9488 60.6588 52.2145 60.6783C52.3746 60.6902 52.5419 60.6947 52.6956 60.7447C52.8487 60.7944 53.1503 60.9024 53.3022 60.9908Z" fill="white"/>
<path fill-rule="evenodd" clip-rule="evenodd" d="M41.5717 63.2502L41.874 64.114C41.6774 64.0926 41.5444 64.0659 41.3937 64.0926C41.2433 64.1192 41.0961 64.1814 40.9733 64.2695C40.7401 64.4366 40.7311 64.5224 40.677 64.7808C40.6243 65.0329 40.6966 65.261 40.8428 65.5402C40.979 65.8004 41.1396 65.9758 41.3945 66.0465C41.5734 66.0962 41.6436 66.1325 41.915 66.0635C42.0592 66.0269 42.165 65.9283 42.2781 65.8353C42.3937 65.7402 42.5112 65.6303 42.5937 65.4607L43.0886 66.1907C42.9841 66.3321 42.739 66.5367 42.6097 66.6326C42.474 66.7334 42.381 66.7806 42.2372 66.8519C42.0579 66.9407 42.0171 66.9623 41.8455 66.9986C41.6738 67.035 41.5063 67.0775 41.336 67.0584C41.0088 67.0216 40.7167 66.9144 40.4608 66.7339C40.2041 66.5529 40.0289 66.2869 39.8674 65.9781C39.7375 65.7299 39.6701 65.4874 39.6442 65.2416C39.6184 64.9961 39.64 64.7759 39.7149 64.5255C39.7862 64.2872 39.8803 64.0795 40.0406 63.9074C40.1929 63.7438 40.2468 63.6821 40.4829 63.5586C40.6251 63.4842 40.7696 63.3997 40.9265 63.3611C41.0829 63.3225 41.396 63.2553 41.5717 63.2502Z" fill="white"/>
<path fill-rule="evenodd" clip-rule="evenodd" d="M49.1793 63.8466C49.1584 63.7062 49.1884 63.5818 49.2698 63.4721C49.3502 63.3626 49.4605 63.297 49.6017 63.2761C49.7454 63.2548 49.8717 63.2853 49.9822 63.3666C50.0919 63.448 50.1575 63.5583 50.1782 63.6986C50.199 63.839 50.1684 63.9645 50.0855 64.0761C50.0036 64.1875 49.8917 64.2542 49.7497 64.2753C49.6102 64.2959 49.4863 64.2641 49.3755 64.1812C49.2658 64.0982 49.2 63.9869 49.1793 63.8466Z" fill="white"/>
<path fill-rule="evenodd" clip-rule="evenodd" d="M47.1602 64.7408L46.4297 61.2217L48.6281 60.7654L48.7918 61.5535L47.6325 61.7874L47.7617 62.41L48.6113 62.2388L48.9604 63.0419L47.9357 63.2483L48.1994 64.5183L47.1602 64.7408Z" fill="white"/>
<path fill-rule="evenodd" clip-rule="evenodd" d="M43.5807 66.1212L42.2051 62.8138L44.4128 61.9026L44.7218 62.6457L43.4493 63.1682L43.6689 63.6879L44.6173 63.2989L45.0318 63.9768L43.9703 64.4123L44.2117 65.001L45.4841 64.4786L45.7884 65.2099L43.5807 66.1212Z" fill="white"/>
<path fill-rule="evenodd" clip-rule="evenodd" d="M37.1121 69.2325L36.8291 65.3648L37.906 64.8589L40.4573 67.5601L39.5333 68.1891L39.0766 67.6408L38.0326 68.1436L38.1024 68.7486L37.1121 69.2325Z" fill="white"/>
<path fill-rule="evenodd" clip-rule="evenodd" d="M37.8918 67.3685L38.565 67.0423L37.7529 66.1113L37.8918 67.3685Z" fill="#004990"/>
<path fill-rule="evenodd" clip-rule="evenodd" d="M30.1602 70.7462L30.9891 66.9577L32.1654 66.7791L33.8429 70.0944L32.7781 70.4346L32.4962 69.779L31.3523 69.9641L31.2471 70.564L30.1602 70.7462Z" fill="white"/>
<path fill-rule="evenodd" clip-rule="evenodd" d="M31.4375 69.1808L32.1757 69.0595L31.662 67.936L31.4375 69.1808Z" fill="#004990"/>
<path fill-rule="evenodd" clip-rule="evenodd" d="M34.6064 69.997L33.543 66.5274L34.4983 66.2329L35.3384 68.8322L36.31 68.5216L36.7294 69.3198L34.6064 69.997Z" fill="white"/>
<path fill-rule="evenodd" clip-rule="evenodd" d="M28.3171 70.6495L27.2939 70.6234L27.4173 67.04L28.4716 67.0577C28.8821 67.0646 29.1448 67.1134 29.3119 67.1777C29.4702 67.2384 29.6068 67.3015 29.7188 67.4016C29.8496 67.5183 29.9441 67.6526 30.0089 67.8224C30.074 67.9929 30.1043 68.1825 30.0893 68.3869C30.0727 68.6146 30.031 68.7721 29.9555 68.9354C29.8797 69.0993 29.7702 69.2198 29.6299 69.3216C29.5241 69.3983 29.4298 69.4563 29.2905 69.4941C28.9465 69.5871 28.6958 69.6114 28.3537 69.588L28.3171 70.6495Z" fill="white"/>
<path fill-rule="evenodd" clip-rule="evenodd" d="M28.374 68.8172C28.5775 68.842 28.8426 68.8028 28.9809 68.6442C29.0468 68.5685 29.0905 68.4775 29.0958 68.3187C29.101 68.1652 29.0727 68.0768 28.9991 67.9967C28.9226 67.9133 28.8489 67.8112 28.6127 67.8166L28.3853 67.8219L28.374 68.8172Z" fill="#004990"/>
<path fill-rule="evenodd" clip-rule="evenodd" d="M8.37272 67.3487C7.55159 67.328 6.77352 67.361 5.97318 67.5131C5.09406 67.68 4.10752 67.8062 3.96957 67.3345L3.50284 67.5716C3.46419 67.589 3.41029 67.5693 3.38095 67.5388C3.56081 68.1449 4.51305 68.4537 6.02596 68.086C6.00919 68.5624 6.03152 69.0045 6.11254 69.4759C6.78283 68.8921 7.68185 68.9764 8.52439 69.2071C9.21059 69.395 9.92297 69.4571 10.0205 68.5753C10.0719 68.1103 9.82341 67.8556 9.54842 67.6208C9.05212 67.1968 8.59477 66.6989 8.28977 66.1905C8.06667 66.2005 7.8441 66.2168 7.62213 66.2399C7.85962 66.6856 8.02767 66.9093 8.39638 67.3019C8.43051 67.3382 8.42482 67.3501 8.37272 67.3487ZM6.72045 67.9893C8.59735 67.7966 9.45462 68.0164 9.4637 68.4572C9.46704 68.6178 9.31558 68.7951 9.14164 68.7619C8.96038 68.7273 8.7339 68.6444 8.53505 68.5963C7.85595 68.4324 7.29635 68.446 6.6948 68.5418C6.64853 68.5491 6.60749 68.5464 6.61148 68.4852C6.62066 68.3437 6.6321 68.2023 6.62058 68.0589C6.65385 68.0357 6.64991 67.9965 6.72045 67.9893ZM3.86445 66.7294C3.68846 64.0803 2.46714 62.1403 1.76253 61.2904C1.73445 61.2473 1.76926 61.2104 1.79935 61.1972C3.75018 60.3417 5.79828 59.8491 7.85328 59.5637C13.2886 58.8088 17.2841 61.3599 21.5146 63.372C24.0641 64.5846 26.5707 65.7393 29.81 65.8384C32.4196 65.9182 35.4231 65.2161 39.1239 63.2529C41.5306 61.9762 41.9617 61.2216 45.0135 60.3265C49.2502 59.0838 54.4526 59.1032 57.7776 61.3525C57.8037 61.3739 57.7818 61.4079 57.7665 61.4278C56.9517 62.4885 55.85 64.5857 55.5918 66.8997C55.5877 66.941 55.5387 66.9421 55.5089 66.9235C51.0595 64.1498 46.7419 65.8236 40.0542 69.1463C36.45 70.937 33.1504 71.841 29.8074 71.9328C26.252 72.0305 22.8929 71.2778 17.9801 68.2413C12.2578 65.2722 7.48442 64.9232 3.90305 66.7466C3.88456 66.7561 3.86445 66.7395 3.86445 66.7294ZM4.11793 67.2592C5.247 66.6858 6.42513 66.3646 7.62213 66.2399C7.8441 66.2168 8.06667 66.2005 8.28977 66.1905C11.5304 66.0458 14.8668 67.2527 17.7064 68.7239C21.1787 70.868 24.6116 72.3914 28.7462 72.4897C29.1049 72.4983 29.4639 72.4968 29.8226 72.487C33.5472 72.3847 36.984 71.2907 40.3009 69.6429C42.3778 68.6109 44.5626 67.5341 46.7668 66.8072C48.1705 66.3443 49.6523 66.0127 51.1351 66.0754C51.3477 66.0843 51.5603 66.1014 51.7728 66.1274C51.809 66.1318 51.8452 66.1365 51.8814 66.1415C53.1181 66.3105 54.2366 66.7682 55.2851 67.438L55.4989 67.5745L55.9608 67.8696C55.9919 67.888 56.0386 67.8723 56.0441 67.8425L56.1346 67.0324C56.3298 65.2824 57.1291 63.1069 58.2417 61.721L58.5888 61.2884C58.6016 61.2728 58.5974 61.2339 58.5787 61.2177L58.12 60.9147C54.4674 58.4437 48.9339 58.5988 44.8574 59.7945C43.5767 60.1702 42.4888 60.6008 41.3453 61.2873C40.5119 61.7876 39.7278 62.3049 38.8641 62.7632C36.1004 64.2293 33.0001 65.3813 29.8269 65.2843C26.8075 65.1919 24.4126 64.1365 21.7527 62.8714C20.1446 62.1065 18.5734 61.2659 16.9398 60.5547C13.9365 59.2471 11.0697 58.5572 7.77698 59.0145C5.59944 59.317 3.4976 59.8165 1.48747 60.7297L0.858715 61.0016C0.810002 61.0279 0.80304 61.0713 0.844816 61.1061L1.28996 61.5883C2.44615 62.9829 3.1946 65.0084 3.31367 66.8016L3.35078 67.3586C3.35086 67.3597 3.35086 67.3607 3.35094 67.3616L3.3525 67.386C3.3568 67.4388 3.36637 67.4898 3.38095 67.5388C3.41029 67.5693 3.46419 67.589 3.50284 67.5716L3.96957 67.3345L4.11793 67.2592ZM49.8786 67.7296C49.6049 67.9374 49.2958 68.1037 49.2967 68.6366C49.2983 69.5697 50.0738 69.5443 50.744 69.3798C51.5732 69.1761 52.4455 69.1548 53.2083 69.7905L53.287 68.3628C54.9005 68.9131 56.01 68.4609 56.0441 67.8425C56.0386 67.8723 55.9919 67.888 55.9608 67.8696L55.4989 67.5745C55.4776 68.2328 54.2903 68.0377 53.4288 67.815C52.6344 67.6096 51.7891 67.5273 51.0037 67.5559C50.9515 67.5577 50.9167 67.525 50.9499 67.4874C51.3024 67.088 51.6207 66.6296 51.7728 66.1274C51.5603 66.1014 51.3477 66.0843 51.1351 66.0754C50.9232 66.714 50.3946 67.3379 49.8786 67.7296ZM52.7439 68.3355C52.7195 68.4773 52.7181 68.6191 52.7145 68.7609C52.713 68.8223 52.672 68.8213 52.6265 68.8098C52.036 68.66 51.4288 68.6601 50.773 68.8049C50.5731 68.8489 50.3603 68.9334 50.1765 68.9515C50.0002 68.9691 49.8654 68.7788 49.8832 68.6191C49.9321 68.1809 50.7988 67.896 52.6507 68.2572C52.7204 68.2708 52.7128 68.3094 52.7439 68.3355Z" fill="#C41230"/>
<path fill-rule="evenodd" clip-rule="evenodd" d="M3.90378 66.7466C7.48515 64.9231 12.2586 65.2721 17.9808 68.2412C22.8936 71.2778 26.2528 72.0304 29.8081 71.9328C33.1511 71.841 36.4508 70.9369 40.0549 69.1463C46.7426 65.8236 51.0603 64.1497 55.5097 66.9235C55.5394 66.9421 55.5884 66.9409 55.5926 66.8997C55.8507 64.5857 56.9525 62.4884 57.7673 61.4278C57.7825 61.4079 57.8044 61.3739 57.7783 61.3525C54.4534 59.1032 49.2509 59.0837 45.0142 60.3265C41.9625 61.2216 41.5313 61.9761 39.1247 63.2528C35.4238 65.2161 32.4203 65.9182 29.8107 65.8384C26.5714 65.7393 24.0649 64.5846 21.5153 63.372C17.2849 61.3599 13.2894 58.8088 7.85402 59.5636C5.79901 59.849 3.75092 60.3417 1.80009 61.1972C1.77 61.2103 1.73518 61.2473 1.76327 61.2903C2.46788 62.1403 3.68919 64.0802 3.86519 66.7294C3.86519 66.7394 3.88529 66.7561 3.90378 66.7466ZM4.84383 62.24C4.88863 61.9972 4.97179 61.7923 5.11454 61.5732C5.25048 61.365 5.39964 61.1925 5.6021 61.0729C5.79458 60.9591 5.86379 60.9152 6.12509 60.8637C6.2827 60.8327 6.44508 60.7926 6.60661 60.8001C6.76737 60.8074 7.08687 60.8317 7.25667 60.8767L7.30183 61.7907C7.11924 61.7144 6.99933 61.6511 6.84722 61.634C6.69545 61.6169 6.53667 61.6348 6.39394 61.6845C6.12295 61.7786 6.09004 61.8583 5.96489 62.0908C5.84285 62.3176 5.8476 62.5569 5.90857 62.866C5.96549 63.1542 6.06973 63.3679 6.29415 63.508C6.45168 63.6064 6.50874 63.6611 6.7886 63.6719C6.93724 63.6776 7.06653 63.6131 7.20143 63.5559C7.33922 63.4974 7.48302 63.4254 7.6103 63.2861L7.87796 64.1264C7.73767 64.2325 7.44458 64.3591 7.29349 64.4146C7.1347 64.4728 7.03217 64.4915 6.87406 64.5193C6.67699 64.5535 6.63175 64.5627 6.45685 64.5489C6.28181 64.5352 6.10921 64.5285 5.95123 64.4618C5.64792 64.3338 5.39815 64.1482 5.2039 63.9024C5.0091 63.6562 4.9165 63.3515 4.84907 63.0096C4.7949 62.7347 4.79897 62.483 4.84383 62.24ZM8.42535 64.2667L8.61731 60.6571L9.78873 60.7054C10.1967 60.7221 10.4823 60.7919 10.6407 60.8373C10.7993 60.8826 10.9354 60.9527 11.0479 61.0463C11.1744 61.1526 11.2697 61.2856 11.3329 61.4436C11.3962 61.6023 11.4228 61.7748 11.4136 61.9618C11.3997 62.2451 11.3462 62.4662 11.2104 62.6398C11.0703 62.8179 10.9643 62.877 10.7204 63.0272L11.4567 64.29L10.323 64.3988L9.72278 63.1757L9.55026 63.1773L9.50629 64.3097L8.42535 64.2667ZM12.2035 64.6909L12.545 63.4517L11.9143 60.9976L13.077 61.1203L13.3558 62.6854L14.3767 61.5199L15.4471 61.8266L13.582 63.7143L13.218 64.9636L12.2035 64.6909ZM14.2852 65.0308L14.7742 64.293C14.9044 64.4793 15.1788 64.7399 15.3125 64.8394C15.4341 64.9299 15.5358 65.0122 15.6642 65.0756C15.7817 65.1337 15.8775 65.1702 15.9678 65.1558C16.0745 65.139 16.1349 65.1294 16.1754 65.0271C16.2199 64.9144 16.1809 64.7967 16.116 64.7217C16.0514 64.6469 15.8934 64.4803 15.7171 64.3176C15.4355 64.0577 15.2855 63.8967 15.2126 63.695C15.1406 63.4959 15.1264 63.278 15.2196 63.024C15.3407 62.6944 15.5601 62.4682 15.8628 62.356C16.1681 62.2427 16.4876 62.2798 16.8348 62.408C17.0246 62.4781 17.1897 62.5538 17.3378 62.6707C17.4863 62.7879 17.7556 62.9857 17.8659 63.148L17.3965 63.8711C17.3021 63.7454 16.9905 63.4393 16.8938 63.3526C16.8015 63.2698 16.7023 63.2208 16.5997 63.1647C16.4916 63.1055 16.4189 63.0862 16.3282 63.1131C16.2374 63.14 16.2045 63.1697 16.1801 63.2559C16.1557 63.3423 16.1738 63.3926 16.2148 63.468C16.2787 63.586 16.3988 63.6842 16.4997 63.7739C16.8043 64.0453 17.0017 64.2776 17.0921 64.4381C17.1536 64.5475 17.2179 64.6789 17.2137 64.8122C17.2095 64.9464 17.2015 65.0904 17.1449 65.2332C17.0019 65.5947 16.7574 65.8508 16.3599 65.9449C16.018 66.0258 15.73 65.9706 15.3358 65.8106C15.1046 65.7166 14.9298 65.5795 14.7468 65.445C14.5656 65.312 14.4622 65.2225 14.2852 65.0308ZM18.8861 64.4048L18.0642 63.9704L18.4587 63.2233L21.0108 64.5353L20.7264 65.3678L19.8478 64.8982L18.5931 67.352L17.6314 66.8585L18.8861 64.4048ZM19.1477 67.7433L21.9341 65.0459L23.0128 65.5479L22.5761 69.2378L21.5009 68.932L21.6288 68.23L20.5735 67.7513L20.154 68.1929L19.1477 67.7433ZM23.1108 69.5977L24.245 66.1507L25.1951 66.4614L24.381 69.069L25.3536 69.3762L25.2354 70.27L23.1108 69.5977ZM27.2945 70.6233L27.4178 67.0399L28.4722 67.0576C28.8827 67.0645 29.1453 67.1133 29.3125 67.1776C29.4708 67.2383 29.6073 67.3014 29.7193 67.4015C29.8501 67.5182 29.9446 67.6525 30.0095 67.8223C30.0745 67.9928 30.1048 68.1824 30.0899 68.3868C30.0733 68.6145 30.0315 68.772 29.956 68.9352C29.8803 69.0992 29.7707 69.2197 29.6304 69.3215C29.5246 69.3982 29.4304 69.4562 29.2911 69.4939C28.9471 69.5869 28.6964 69.6113 28.3543 69.5878L28.3177 70.6495L27.2945 70.6233ZM33.5432 66.5277L34.4984 66.2332L35.3386 68.8325L36.3101 68.5219L36.7296 69.3201L34.6066 69.9973L33.5432 66.5277ZM30.1609 70.7461L30.9898 66.9576L32.166 66.7789L33.8437 70.0943L32.7788 70.4344L32.497 69.7788L31.3531 69.964L31.2479 70.5638L30.1609 70.7461ZM37.113 69.2322L36.83 65.3645L37.9068 64.8586L40.4582 67.5598L39.5341 68.1888L39.0774 67.6405L38.0334 68.1433L38.1032 68.7484L37.113 69.2322ZM40.4841 63.5586C40.6264 63.4841 40.7708 63.3997 40.9277 63.3611C41.0841 63.3225 41.3973 63.2553 41.5729 63.2502L41.8752 64.114C41.6785 64.0926 41.5456 64.0659 41.3949 64.0926C41.2445 64.1192 41.0973 64.1814 40.9745 64.2694C40.7413 64.4366 40.7324 64.5224 40.6782 64.7808C40.6255 65.0328 40.6978 65.2609 40.844 65.5402C40.9802 65.8004 41.1408 65.9758 41.3956 66.0465C41.5746 66.0962 41.6448 66.1325 41.9163 66.0635C42.0605 66.0268 42.1662 65.9283 42.2793 65.8353C42.3949 65.7401 42.5123 65.6303 42.5949 65.4607L43.0898 66.1907C42.9853 66.3321 42.7402 66.5367 42.611 66.6326C42.4752 66.7335 42.3822 66.7805 42.2384 66.8519C42.0591 66.9407 42.0184 66.9622 41.8467 66.9986C41.675 67.035 41.5076 67.0776 41.3372 67.0584C41.01 67.0216 40.7179 66.9143 40.462 66.7338C40.2053 66.5529 40.0301 66.2869 39.8686 65.978C39.7387 65.7298 39.6713 65.4874 39.6454 65.2416C39.6195 64.9961 39.6412 64.7759 39.716 64.5255C39.7874 64.2872 39.8815 64.0795 40.0418 63.9074C40.1941 63.7437 40.248 63.6821 40.4841 63.5586ZM43.581 66.1209L42.2053 62.8135L44.4129 61.9023L44.722 62.6454L43.4495 63.1679L43.6691 63.6876L44.6174 63.2986L45.0319 63.9764L43.9704 64.412L44.2119 65.0007L45.4843 64.4783L45.7886 65.2096L43.581 66.1209ZM47.1612 64.7406L46.4307 61.2216L48.6291 60.7653L48.7928 61.5534L47.6335 61.7873L47.7627 62.4099L48.6123 62.2386L48.9615 63.0417L47.9368 63.2482L48.2005 64.5181L47.1612 64.7406ZM49.1797 63.8468C49.1588 63.7064 49.1888 63.5819 49.2702 63.4723C49.3506 63.3628 49.4609 63.2972 49.6021 63.2763C49.7458 63.255 49.8721 63.2855 49.9826 63.3668C50.0923 63.4482 50.1579 63.5585 50.1786 63.6988C50.1994 63.8392 50.1688 63.9647 50.0859 64.0763C50.004 64.1877 49.8921 64.2544 49.7501 64.2754C49.6106 64.2961 49.4867 64.2643 49.3759 64.1813C49.2662 64.0983 49.2005 63.9871 49.1797 63.8468ZM50.4158 62.4091C50.4365 62.1298 50.5071 61.8882 50.6148 61.6658C50.7224 61.4436 50.8569 61.2679 51.0527 61.0947C51.239 60.9299 51.4286 60.8031 51.6555 60.7415C51.8712 60.6828 51.9495 60.6589 52.2152 60.6785C52.3753 60.6903 52.5426 60.6948 52.6963 60.7448C52.8494 60.7945 53.151 60.9026 53.3029 60.991L53.104 61.8843C52.9482 61.7623 52.8493 61.6695 52.7072 61.6127C52.5654 61.5559 52.4076 61.5312 52.2568 61.5411C51.9705 61.5601 51.9176 61.6282 51.7353 61.8192C51.5575 62.0055 51.4986 62.2375 51.4755 62.5517C51.4539 62.8447 51.4978 63.0784 51.677 63.2729C51.8028 63.4096 51.8433 63.4774 52.1103 63.5621C52.2521 63.607 52.394 63.5791 52.539 63.5597C52.6875 63.5399 52.8452 63.5086 53.0048 63.408L53.0402 64.2892C52.8767 64.3543 52.5606 64.3987 52.4002 64.412C52.2316 64.4261 52.1277 64.417 51.968 64.4017C51.7689 64.3826 51.7228 64.3794 51.5578 64.3198C51.3928 64.2601 51.2281 64.2078 51.0935 64.1017C50.8349 63.8978 50.6434 63.6526 50.5212 63.3643C50.3986 63.0751 50.3901 62.7567 50.4158 62.4091ZM53.3678 64.1303C53.412 63.9955 53.4943 63.8975 53.6162 63.8358C53.7372 63.7739 53.8653 63.7647 54.0008 63.8091C54.1388 63.8543 54.2382 63.9381 54.3007 64.0603C54.3622 64.182 54.3715 64.3101 54.3273 64.4449C54.2832 64.5797 54.1996 64.6783 54.0756 64.741C53.9525 64.804 53.8226 64.8136 53.6861 64.7689C53.5521 64.7249 53.4556 64.6411 53.3937 64.5174C53.3326 64.3939 53.3236 64.2651 53.3678 64.1303Z" fill="#004990"/>
<path fill-rule="evenodd" clip-rule="evenodd" d="M53.6214 44.0932C53.94 44.0757 54.2563 44.0748 54.5698 44.0952L54.5696 43.7987C54.5696 43.7675 54.5424 43.7075 54.4919 43.7075L53.6869 43.708C53.6468 43.7108 53.6211 43.7681 53.6211 43.8075L53.6214 44.0932Z" fill="#A7A9AC"/>
<path fill-rule="evenodd" clip-rule="evenodd" d="M53.6165 44.2909C53.9503 44.2681 54.2637 44.2661 54.5689 44.294C55.1856 44.8915 55.8073 45.4982 56.424 46.0957C54.8928 45.4313 53.341 45.4085 51.7666 46.0916C52.3833 45.4913 52.9998 44.8911 53.6165 44.2909Z" fill="#A7A9AC"/>
<path fill-rule="evenodd" clip-rule="evenodd" d="M53.9046 46.441C54.028 46.4367 54.1512 46.4367 54.2742 46.4408C54.4717 46.4476 54.6688 46.4653 54.8656 46.4936C55.0013 46.5132 55.1368 46.5379 55.2721 46.5677C55.4572 46.6084 55.642 46.6587 55.8265 46.7183C55.8761 46.7344 55.9257 46.7512 55.9753 46.7685C56.1234 46.8206 56.2713 46.8787 56.4191 46.9428L56.4188 46.3529C54.8877 45.6885 53.3356 45.6731 51.761 46.3555L51.7607 46.9435C51.8966 46.8846 52.0321 46.8309 52.1675 46.7824C52.2292 46.7603 52.2908 46.7393 52.3523 46.7193C52.5374 46.6594 52.7222 46.6091 52.9067 46.5685C53.0424 46.5385 53.1779 46.5138 53.3133 46.4942C53.5107 46.4656 53.7079 46.4478 53.9046 46.441Z" fill="#A7A9AC"/>
<path fill-rule="evenodd" clip-rule="evenodd" d="M55.9756 47.1016V47.4503C56.1236 47.3981 56.2716 47.3399 56.4191 47.2757C56.2715 47.2116 56.1236 47.1535 55.9756 47.1016Z" fill="#A7A9AC"/>
<path fill-rule="evenodd" clip-rule="evenodd" d="M52.1673 47.4524V47.1152C52.0319 47.1637 51.8964 47.2174 51.7607 47.2762V47.2918C51.8964 47.3506 52.0319 47.4041 52.1673 47.4524Z" fill="#A7A9AC"/>
<path fill-rule="evenodd" clip-rule="evenodd" d="M55.9756 49.7258V50.0746C56.1238 50.0224 56.2718 49.9642 56.4194 49.9C56.2717 49.8359 56.1237 49.7778 55.9756 49.7258Z" fill="#A7A9AC"/>
<path fill-rule="evenodd" clip-rule="evenodd" d="M52.1673 50.0775V49.7395C52.0319 49.7879 51.8964 49.8415 51.7607 49.9003V49.9171C51.8964 49.9759 52.0319 50.0294 52.1673 50.0775Z" fill="#A7A9AC"/>
<path fill-rule="evenodd" clip-rule="evenodd" d="M55.2715 46.9004V48.3773C55.4566 48.4181 55.6414 48.4685 55.8259 48.5283V47.0511C55.6414 46.9914 55.4566 46.9412 55.2715 46.9004Z" fill="#A7A9AC"/>
<path fill-rule="evenodd" clip-rule="evenodd" d="M54.8658 48.3033V46.8264C54.669 46.798 54.4718 46.7804 54.2744 46.7737V48.2505C54.4718 48.2572 54.669 48.2748 54.8658 48.3033Z" fill="#A7A9AC"/>
<path fill-rule="evenodd" clip-rule="evenodd" d="M53.9039 48.2507V46.7737C53.7071 46.7805 53.51 46.7982 53.3125 46.8268V48.3042C53.51 48.2754 53.7071 48.2576 53.9039 48.2507Z" fill="#A7A9AC"/>
<path fill-rule="evenodd" clip-rule="evenodd" d="M52.906 48.379V46.9014C52.7215 46.9421 52.5367 46.9924 52.3516 47.0523V48.5304C52.5367 48.4703 52.7215 48.4199 52.906 48.379Z" fill="#A7A9AC"/>
<path fill-rule="evenodd" clip-rule="evenodd" d="M53.9039 52.4653C53.7071 52.4721 53.51 52.4898 53.3125 52.5183V55.2226C53.5099 55.194 53.707 55.1764 53.9039 55.1693V52.4653Z" fill="#A7A9AC"/>
<path fill-rule="evenodd" clip-rule="evenodd" d="M52.906 55.2965V52.5928C52.7215 52.6334 52.5367 52.6837 52.3516 52.7436V55.4462C52.5365 55.3868 52.7213 55.337 52.906 55.2965Z" fill="#A7A9AC"/>
<path fill-rule="evenodd" clip-rule="evenodd" d="M54.2744 52.4653V55.1686C54.4719 55.175 54.6691 55.1921 54.8658 55.2199V52.5182C54.669 52.4897 54.4718 52.4721 54.2744 52.4653Z" fill="#A7A9AC"/>
<path fill-rule="evenodd" clip-rule="evenodd" d="M55.2715 52.5923V55.2927C55.4567 55.3329 55.6416 55.3827 55.8259 55.4419V52.743C55.6414 52.6833 55.4566 52.633 55.2715 52.5923Z" fill="#A7A9AC"/>
<path fill-rule="evenodd" clip-rule="evenodd" d="M55.8259 55.7853C55.6416 55.7259 55.4568 55.6757 55.2715 55.635V59.0728C55.4582 59.1267 55.643 59.1848 55.8259 59.2467V55.7853Z" fill="#A7A9AC"/>
<path fill-rule="evenodd" clip-rule="evenodd" d="M54.8658 58.9629V55.5614C54.6691 55.533 54.4719 55.5151 54.2744 55.5081V58.826C54.473 58.8677 54.6704 58.9131 54.8658 58.9629Z" fill="#A7A9AC"/>
<path fill-rule="evenodd" clip-rule="evenodd" d="M53.9039 58.7534V55.5073C53.707 55.5137 53.5099 55.5307 53.3125 55.5585V58.6563C53.5108 58.6849 53.7079 58.7174 53.9039 58.7534Z" fill="#A7A9AC"/>
<path fill-rule="evenodd" clip-rule="evenodd" d="M52.906 58.6028V55.6311C52.7213 55.6709 52.5364 55.7204 52.3516 55.7794V58.5464C52.5369 58.5623 52.7218 58.5809 52.906 58.6028Z" fill="#A7A9AC"/>
<path fill-rule="evenodd" clip-rule="evenodd" d="M52.3516 52.4477C52.5367 52.3877 52.7215 52.3375 52.906 52.2968V49.5261C52.7215 49.5667 52.5367 49.6169 52.3516 49.6767V52.4477Z" fill="#A7A9AC"/>
<path fill-rule="evenodd" clip-rule="evenodd" d="M53.3125 49.4517V52.2225C53.51 52.1938 53.7071 52.1762 53.9039 52.1694V49.3987C53.7071 49.4055 53.51 49.4231 53.3125 49.4517Z" fill="#A7A9AC"/>
<path fill-rule="evenodd" clip-rule="evenodd" d="M54.2744 49.3984V52.1693C54.4718 52.1762 54.669 52.1938 54.8658 52.2223V49.451C54.669 49.4227 54.4719 49.4052 54.2744 49.3984Z" fill="#A7A9AC"/>
<path fill-rule="evenodd" clip-rule="evenodd" d="M55.2715 49.5249V52.2965C55.4566 52.3373 55.6414 52.3875 55.8259 52.4472V49.6754C55.6415 49.6158 55.4567 49.5656 55.2715 49.5249Z" fill="#A7A9AC"/>
<path fill-rule="evenodd" clip-rule="evenodd" d="M51.7608 49.5685C53.3352 48.8854 54.8878 48.9028 56.419 49.5672L56.4187 49.0083C54.8876 48.3439 53.3352 48.331 51.7607 49.0141L51.7608 49.5685Z" fill="#A7A9AC"/>
<path fill-rule="evenodd" clip-rule="evenodd" d="M5.16731 44.0932C5.48597 44.0757 5.80226 44.0748 6.11569 44.0952L6.11548 43.7987C6.11548 43.7675 6.08826 43.7075 6.03777 43.7075L5.23279 43.708C5.19273 43.7108 5.16699 43.7681 5.16699 43.8075L5.16731 44.0932Z" fill="#A7A9AC"/>
<path fill-rule="evenodd" clip-rule="evenodd" d="M5.16333 44.2909C5.49715 44.2681 5.81049 44.2661 6.11578 44.294C6.73244 44.8915 7.35417 45.4982 7.97083 46.0957C6.43972 45.4313 4.8879 45.4085 3.31348 46.0916C3.93013 45.4913 4.54668 44.8911 5.16333 44.2909Z" fill="#A7A9AC"/>
<path fill-rule="evenodd" clip-rule="evenodd" d="M5.45049 46.441C5.57387 46.4367 5.69703 46.4367 5.82012 46.4408C6.01755 46.4476 6.21469 46.4653 6.41147 46.4936C6.54718 46.5132 6.68268 46.5379 6.81802 46.5677C7.00312 46.6084 7.18793 46.6587 7.37243 46.7183C7.42203 46.7344 7.47162 46.7512 7.52115 46.7685C7.66929 46.8206 7.81721 46.8787 7.96499 46.9428L7.96472 46.3529C6.43361 45.6885 4.88151 45.6731 3.30688 46.3555L3.30664 46.9435C3.44243 46.8846 3.578 46.8309 3.71342 46.7824C3.77507 46.7603 3.83664 46.7393 3.89823 46.7193C4.08333 46.6594 4.26812 46.6091 4.45264 46.5685C4.58835 46.5385 4.72384 46.5138 4.85919 46.4942C5.05662 46.4656 5.25371 46.4478 5.45049 46.441Z" fill="#A7A9AC"/>
<path fill-rule="evenodd" clip-rule="evenodd" d="M7.52051 47.1016V47.4503C7.66858 47.3981 7.81649 47.3399 7.96403 47.2757C7.81641 47.2116 7.66858 47.1535 7.52051 47.1016Z" fill="#A7A9AC"/>
<path fill-rule="evenodd" clip-rule="evenodd" d="M3.71319 47.4524V47.1152C3.57785 47.1637 3.44235 47.2174 3.30664 47.2762V47.2918C3.44227 47.3506 3.57785 47.4041 3.71319 47.4524Z" fill="#A7A9AC"/>
<path fill-rule="evenodd" clip-rule="evenodd" d="M7.52051 49.7258V50.0746C7.66873 50.0224 7.81672 49.9642 7.96435 49.9C7.81665 49.8359 7.66865 49.7778 7.52051 49.7258Z" fill="#A7A9AC"/>
<path fill-rule="evenodd" clip-rule="evenodd" d="M3.71319 50.0775V49.7395C3.57785 49.7879 3.44227 49.8415 3.30664 49.9003V49.9171C3.44227 49.9759 3.57777 50.0294 3.71319 50.0775Z" fill="#A7A9AC"/>
<path fill-rule="evenodd" clip-rule="evenodd" d="M6.81836 46.9004V48.3773C7.00346 48.4181 7.18827 48.4685 7.37276 48.5283V47.0511C7.18827 46.9914 7.00346 46.9412 6.81836 46.9004Z" fill="#A7A9AC"/>
<path fill-rule="evenodd" clip-rule="evenodd" d="M6.41167 48.3033V46.8264C6.21489 46.798 6.01774 46.7804 5.82031 46.7737V48.2505C6.01774 48.2572 6.21489 48.2748 6.41167 48.3033Z" fill="#A7A9AC"/>
<path fill-rule="evenodd" clip-rule="evenodd" d="M5.45073 48.2507V46.7737C5.25395 46.7805 5.05681 46.7982 4.85938 46.8268V48.3042C5.05689 48.2754 5.25395 48.2576 5.45073 48.2507Z" fill="#A7A9AC"/>
<path fill-rule="evenodd" clip-rule="evenodd" d="M4.45285 48.379V46.9014C4.26832 46.9421 4.08354 46.9924 3.89844 47.0523V48.5304C4.08361 48.4703 4.2684 48.4199 4.45285 48.379Z" fill="#A7A9AC"/>
<path fill-rule="evenodd" clip-rule="evenodd" d="M5.45073 52.4653C5.25395 52.4721 5.05681 52.4898 4.85938 52.5183V55.2226C5.05676 55.194 5.2539 55.1764 5.45073 55.1693V52.4653Z" fill="#A7A9AC"/>
<path fill-rule="evenodd" clip-rule="evenodd" d="M4.45285 55.2965V52.5928C4.26832 52.6334 4.08354 52.6837 3.89844 52.7436V55.4462C4.08338 55.3868 4.26819 55.337 4.45285 55.2965Z" fill="#A7A9AC"/>
<path fill-rule="evenodd" clip-rule="evenodd" d="M5.82031 52.4653V55.1686C6.01782 55.175 6.21497 55.1921 6.41167 55.2199V52.5182C6.21489 52.4897 6.01774 52.4721 5.82031 52.4653Z" fill="#A7A9AC"/>
<path fill-rule="evenodd" clip-rule="evenodd" d="M6.81836 52.5923V55.2927C7.00361 55.3329 7.18847 55.3827 7.37276 55.4419V52.743C7.18827 52.6833 7.00346 52.633 6.81836 52.5923Z" fill="#A7A9AC"/>
<path fill-rule="evenodd" clip-rule="evenodd" d="M7.37276 55.7853C7.18847 55.7259 7.00369 55.6757 6.81836 55.635V58.6922C7.00273 58.6609 7.18751 58.6311 7.37276 58.603V55.7853Z" fill="#A7A9AC"/>
<path fill-rule="evenodd" clip-rule="evenodd" d="M6.41167 58.7647V55.5614C6.21497 55.533 6.01782 55.5151 5.82031 55.5081V58.8806C6.01678 58.8398 6.21393 58.8012 6.41167 58.7647Z" fill="#A7A9AC"/>
<path fill-rule="evenodd" clip-rule="evenodd" d="M5.45073 58.96V55.5073C5.2539 55.5137 5.05676 55.5307 4.85938 55.5585V59.0283C5.0288 59.0038 5.19802 58.9873 5.367 58.9788L5.45073 58.96Z" fill="#A7A9AC"/>
<path fill-rule="evenodd" clip-rule="evenodd" d="M4.45285 59.1026V55.6311C4.26819 55.6709 4.0833 55.7204 3.89844 55.7794V59.2536C4.08354 59.1936 4.26832 59.1434 4.45285 59.1026Z" fill="#A7A9AC"/>
<path fill-rule="evenodd" clip-rule="evenodd" d="M3.89844 52.4477C4.08354 52.3877 4.26832 52.3375 4.45285 52.2968V49.5261C4.26832 49.5667 4.08354 49.6169 3.89844 49.6767V52.4477Z" fill="#A7A9AC"/>
<path fill-rule="evenodd" clip-rule="evenodd" d="M4.85938 49.4517V52.2225C5.05681 52.1938 5.25395 52.1762 5.45073 52.1694V49.3987C5.25395 49.4055 5.05681 49.4231 4.85938 49.4517Z" fill="#A7A9AC"/>
<path fill-rule="evenodd" clip-rule="evenodd" d="M5.82031 49.3984V52.1693C6.01774 52.1762 6.21489 52.1938 6.41167 52.2223V49.451C6.21489 49.4227 6.01782 49.4052 5.82031 49.3984Z" fill="#A7A9AC"/>
<path fill-rule="evenodd" clip-rule="evenodd" d="M6.81836 49.5249V52.2965C7.00346 52.3373 7.18827 52.3875 7.37276 52.4472V49.6754C7.18834 49.6158 7.00354 49.5656 6.81836 49.5249Z" fill="#A7A9AC"/>
<path fill-rule="evenodd" clip-rule="evenodd" d="M3.30666 49.5685C4.88109 48.8854 6.43372 48.9028 7.96483 49.5672L7.96457 49.0083C6.43345 48.3439 4.88107 48.331 3.30664 49.0141L3.30666 49.5685Z" fill="#A7A9AC"/>
<path fill-rule="evenodd" clip-rule="evenodd" d="M40.3646 57.4986V55.9463H36.3359V57.4986H37.223H37.5926H38.2209H38.5536H39.1819L39.5884 57.4986H40.3646Z" fill="#A7A9AC"/>
<path fill-rule="evenodd" clip-rule="evenodd" d="M45.8942 59.0508H42.8047L42.8048 60.0525C43.4521 59.7717 44.1176 59.5403 44.8232 59.3333C45.1709 59.2313 45.5285 59.1368 45.8942 59.0508Z" fill="#A7A9AC"/>
<path fill-rule="evenodd" clip-rule="evenodd" d="M37.224 63.0916V60.5295H36.3369V63.4778C36.6355 63.3549 36.9312 63.2258 37.224 63.0916Z" fill="#A7A9AC"/>
<path fill-rule="evenodd" clip-rule="evenodd" d="M37.5928 60.5295V62.9188C37.804 62.8182 38.0135 62.7151 38.2211 62.6099V60.5295H37.5928Z" fill="#A7A9AC"/>
<path fill-rule="evenodd" clip-rule="evenodd" d="M38.5537 60.5295V62.4389C38.6227 62.4029 38.6915 62.3668 38.76 62.3304C38.9019 62.2551 39.0424 62.1777 39.182 62.0986V60.5295H38.5537Z" fill="#A7A9AC"/>
<path fill-rule="evenodd" clip-rule="evenodd" d="M39.5889 60.5295V61.8625C39.8493 61.7081 40.1073 61.5496 40.365 61.3906V60.5295H39.5889Z" fill="#A7A9AC"/>
<path fill-rule="evenodd" clip-rule="evenodd" d="M40.7715 59.0509L40.7716 61.1396C40.9221 61.047 41.0729 60.9548 41.2245 60.8639C41.2829 60.8288 41.3414 60.7943 41.3999 60.7604L41.3998 59.0508L40.7715 59.0509Z" fill="#A7A9AC"/>
<path fill-rule="evenodd" clip-rule="evenodd" d="M41.8057 59.0508L41.8057 60.534C42.0141 60.4226 42.2233 60.318 42.4341 60.2192L42.434 59.0508H41.8057Z" fill="#A7A9AC"/>
<path fill-rule="evenodd" clip-rule="evenodd" d="M39.1819 57.4986L39.5884 57.4986H40.3646V55.9463H36.3359V57.4986H37.223H37.5926H38.2209H38.5536H39.1819Z" fill="#A7A9AC"/>
<path fill-rule="evenodd" clip-rule="evenodd" d="M55.2715 55.2927C55.4567 55.3329 55.6416 55.3827 55.8259 55.4419V52.743C55.6414 52.6833 55.4566 52.633 55.2715 52.5923V55.2927Z" fill="#A7A9AC"/>
<path fill-rule="evenodd" clip-rule="evenodd" d="M54.8658 55.2201V52.5184C54.669 52.49 54.4718 52.4723 54.2744 52.4656V55.1688C54.4719 55.1752 54.6691 55.1924 54.8658 55.2201Z" fill="#A7A9AC"/>
<path fill-rule="evenodd" clip-rule="evenodd" d="M53.9049 55.1695V52.4656C53.7081 52.4724 53.5109 52.4901 53.3135 52.5186V55.2228C53.5109 55.1943 53.708 55.1766 53.9049 55.1695Z" fill="#A7A9AC"/>
<path fill-rule="evenodd" clip-rule="evenodd" d="M52.9069 55.2965V52.5928C52.7224 52.6334 52.5376 52.6837 52.3525 52.7436V55.4462C52.5375 55.3868 52.7223 55.337 52.9069 55.2965Z" fill="#A7A9AC"/>
<path fill-rule="evenodd" clip-rule="evenodd" d="M52.3525 52.4477C52.5376 52.3877 52.7224 52.3375 52.9069 52.2968V49.5261C52.7224 49.5667 52.5376 49.6169 52.3525 49.6767V52.4477Z" fill="#A7A9AC"/>
<path fill-rule="evenodd" clip-rule="evenodd" d="M53.3135 49.4519V52.2227C53.5109 52.1941 53.7081 52.1765 53.9049 52.1697V49.3989C53.7081 49.4057 53.5109 49.4234 53.3135 49.4519Z" fill="#A7A9AC"/>
<path fill-rule="evenodd" clip-rule="evenodd" d="M54.2744 49.3984V52.1693C54.4718 52.1762 54.669 52.1938 54.8658 52.2223V49.451C54.669 49.4227 54.4719 49.4052 54.2744 49.3984Z" fill="#A7A9AC"/>
<path fill-rule="evenodd" clip-rule="evenodd" d="M55.2715 49.5251V52.2967C55.4566 52.3375 55.6414 52.3878 55.8259 52.4475V49.6756C55.6415 49.6161 55.4567 49.5659 55.2715 49.5251Z" fill="#A7A9AC"/>
<path fill-rule="evenodd" clip-rule="evenodd" d="M51.7608 49.5685C53.3352 48.8854 54.8878 48.9028 56.419 49.5672L56.4187 49.0083C54.8876 48.3439 53.3352 48.331 51.7607 49.0141L51.7608 49.5685Z" fill="#A7A9AC"/>
<path fill-rule="evenodd" clip-rule="evenodd" d="M52.9069 48.379V46.9014C52.7224 46.9421 52.5376 46.9924 52.3525 47.0523V48.5304C52.5377 48.4703 52.7225 48.4199 52.9069 48.379Z" fill="#A7A9AC"/>
<path fill-rule="evenodd" clip-rule="evenodd" d="M53.3135 46.8268V48.3042C53.511 48.2754 53.7081 48.2576 53.9049 48.2507V46.7737C53.7081 46.7805 53.5109 46.7982 53.3135 46.8268Z" fill="#A7A9AC"/>
<path fill-rule="evenodd" clip-rule="evenodd" d="M54.2744 46.7737V48.2505C54.4718 48.2572 54.669 48.2748 54.8658 48.3033V46.8264C54.669 46.798 54.4718 46.7804 54.2744 46.7737Z" fill="#A7A9AC"/>
<path fill-rule="evenodd" clip-rule="evenodd" d="M55.2715 46.9006V48.3776C55.4566 48.4184 55.6414 48.4687 55.8259 48.5285V47.0514C55.6414 46.9916 55.4566 46.9414 55.2715 46.9006Z" fill="#A7A9AC"/>
<path fill-rule="evenodd" clip-rule="evenodd" d="M54.2742 46.4411C54.4717 46.4478 54.6688 46.4655 54.8656 46.4939C55.0013 46.5135 55.1368 46.5382 55.2721 46.5679C55.4572 46.6087 55.642 46.6589 55.8265 46.7186L55.9753 46.7688C56.1234 46.8208 56.2713 46.8789 56.4191 46.943L56.4188 46.3531C54.8877 45.6887 53.3356 45.6733 51.761 46.3557L51.7607 46.9437C51.8966 46.8848 52.0321 46.8311 52.1675 46.7826L52.3523 46.7196C52.5374 46.6596 52.7222 46.6094 52.9067 46.5687C53.0424 46.5388 53.1779 46.514 53.3133 46.4944C53.5107 46.4658 53.7079 46.4482 53.9047 46.4414C54.028 46.4371 54.1512 46.4369 54.2742 46.4411Z" fill="#A7A9AC"/>
<path fill-rule="evenodd" clip-rule="evenodd" d="M51.7666 46.0918C53.341 45.4087 54.8928 45.4316 56.424 46.096L54.5689 44.2942C54.2637 44.2664 53.9503 44.2683 53.6165 44.2911L51.7666 46.0918Z" fill="#A7A9AC"/>
<path fill-rule="evenodd" clip-rule="evenodd" d="M53.6214 44.0932C53.94 44.0757 54.2563 44.0748 54.5698 44.0952L54.5696 43.7987C54.5696 43.7675 54.5424 43.7075 54.4919 43.7075L53.6869 43.708C53.6468 43.7108 53.6211 43.7681 53.6211 43.8075L53.6214 44.0932Z" fill="#A7A9AC"/>
<path fill-rule="evenodd" clip-rule="evenodd" d="M52.1673 47.1155C52.0319 47.164 51.8964 47.2176 51.7607 47.2765V47.292C51.8964 47.3508 52.0319 47.4044 52.1673 47.4526V47.1155Z" fill="#A7A9AC"/>
<path fill-rule="evenodd" clip-rule="evenodd" d="M55.9756 47.1016V47.4503C56.1236 47.3981 56.2716 47.3399 56.4191 47.2757C56.2715 47.2116 56.1236 47.1535 55.9756 47.1016Z" fill="#A7A9AC"/>
<path fill-rule="evenodd" clip-rule="evenodd" d="M35.9291 56.363C35.9291 52.9604 33.1708 50.2021 29.7682 50.2021C26.3657 50.2021 23.6074 52.9604 23.6074 56.363L23.6075 57.4986L35.9291 57.4985V56.363Z" fill="#A7A9AC"/>
<path fill-rule="evenodd" clip-rule="evenodd" d="M35.9291 57.8679L23.6074 57.868L23.6075 63.1831C25.6165 64.0707 27.5858 64.7372 29.9069 64.8081C31.9688 64.8712 34.0031 64.3906 35.9291 63.6404L35.9291 57.8679Z" fill="#A7A9AC"/>
<path fill-rule="evenodd" clip-rule="evenodd" d="M25.1357 55.3506C25.7384 57.1631 27.6592 58.626 29.8836 58.9916C30.0247 59.0148 30.078 58.9487 30.0772 58.7854C30.0777 58.1711 30.0446 57.588 29.8999 57.0363C29.8638 56.8984 29.8429 56.8027 29.6452 56.6991C27.9408 55.8055 26.6974 54.8712 26.2307 53.7653C26.15 53.5739 26.0037 53.5429 25.8633 53.7323C25.5254 54.213 25.2749 54.7601 25.1357 55.3506Z" fill="#C41230"/>
<path fill-rule="evenodd" clip-rule="evenodd" d="M26.4486 53.0486C26.1477 53.35 26.8419 54.2849 27.431 54.8355C27.5167 54.9157 27.5917 54.8779 27.6633 54.7826C28.5616 53.5847 29.6693 52.6808 31.135 52.2888C31.3434 52.237 31.4211 52.051 31.1732 51.9623C30.7316 51.8181 30.261 51.7375 29.772 51.7313C28.4857 51.7151 27.3134 52.2171 26.4538 53.0436C26.4522 53.0454 26.4503 53.0469 26.4486 53.0486Z" fill="#C41230"/>
<path fill-rule="evenodd" clip-rule="evenodd" d="M32.1921 55.1151C31.5026 55.4237 30.846 55.8914 30.2325 56.5694C30.1509 56.6529 30.1316 56.7557 30.1592 56.8383C30.6161 58.6424 30.4477 59.899 29.8616 60.7904C29.727 60.9958 29.8876 61.1333 30.1179 61.1193C30.5517 61.0823 30.9691 60.9863 31.3618 60.8392C32.4986 59.8197 33.336 58.0674 32.4733 55.2333C32.4265 55.0717 32.3124 55.0608 32.1921 55.1151Z" fill="#C41230"/>
<path fill-rule="evenodd" clip-rule="evenodd" d="M32.7547 55.0724C33.2926 56.8344 33.242 58.351 32.6486 59.6359C32.5542 59.8401 32.7745 60.0034 32.9549 59.8403C33.8405 58.9973 34.3987 57.8119 34.4153 56.493C34.4236 55.8333 34.2955 55.2036 34.0573 54.6306C33.6448 54.6529 33.2556 54.7359 32.9177 54.8565C32.7967 54.8997 32.7177 54.9509 32.7547 55.0724Z" fill="#C41230"/>
<path fill-rule="evenodd" clip-rule="evenodd" d="M29.885 59.313C27.917 58.948 26.4386 58.012 25.4131 56.5829C25.25 56.3554 25.0106 56.3747 25.0188 56.7201C25.1561 59.0098 26.9361 60.8665 29.2073 61.1096C29.6009 60.6751 29.8787 60.1762 30.0113 59.5412C30.0358 59.4241 30.021 59.3382 29.885 59.313Z" fill="#C41230"/>
<path fill-rule="evenodd" clip-rule="evenodd" d="M26.2302 53.7652C26.6969 54.8711 27.9403 55.8054 29.6447 56.699C29.8424 56.8026 29.8632 56.8983 29.8994 57.0362C30.0441 57.5879 30.0771 58.171 30.0766 58.7853C30.0774 58.9486 30.0242 59.0147 29.883 58.9915C27.6587 58.6259 25.7379 57.163 25.1352 55.3505C25.2744 54.76 25.5248 54.2129 25.8628 53.7322C26.0032 53.5428 26.1495 53.5738 26.2302 53.7652ZM27.4307 54.8355C26.8416 54.2849 26.1474 53.3499 26.4483 53.0486C26.4501 53.0467 26.4517 53.0452 26.4535 53.0435C27.3131 52.2171 28.4854 51.7151 29.7717 51.7313C30.2607 51.7374 30.7313 51.8181 31.1729 51.9622C31.4208 52.0509 31.3431 52.2369 31.1347 52.2887C29.669 52.6807 28.5613 53.5847 27.663 54.7825C27.5914 54.8779 27.5164 54.9157 27.4307 54.8355ZM25.4126 56.5828C26.4381 58.0119 27.9165 58.9479 29.8845 59.3129C30.0205 59.3381 30.0353 59.424 30.0108 59.5411C29.8781 60.1761 29.6004 60.6751 29.2068 61.1096C26.9356 60.8664 25.1556 59.0097 25.0183 56.72C25.0101 56.3746 25.2495 56.3553 25.4126 56.5828ZM29.7778 51.2509C26.9154 51.2148 24.5657 53.5061 24.5297 56.3686C24.4937 59.231 26.785 61.5806 29.6474 61.6166C32.5098 61.6527 34.8595 59.3614 34.8955 56.4989C34.9315 53.6365 32.6402 51.2869 29.7778 51.2509ZM33.8142 54.1318C33.8448 54.1844 33.849 54.23 33.8319 54.2666C33.8321 54.2663 33.8322 54.2658 33.8325 54.2655C33.8476 54.23 33.8432 54.1852 33.8142 54.1318ZM29.8615 60.7905C30.4475 59.8991 30.6159 58.6425 30.159 56.8384C30.1315 56.7558 30.1508 56.653 30.2323 56.5695C30.8458 55.8915 31.5024 55.4238 32.1919 55.1152C32.3122 55.0609 32.4263 55.0718 32.4731 55.2334C33.3358 58.0675 32.4984 59.8197 31.3616 60.8392C30.9689 60.9864 30.5516 61.0824 30.1177 61.1194C29.8875 61.1334 29.7268 60.9959 29.8615 60.7905ZM32.6484 59.6357C33.2418 58.3508 33.2924 56.8342 32.7545 55.0723C32.7175 54.9508 32.7965 54.8995 32.9175 54.8563C33.2554 54.7358 33.6446 54.6528 34.0571 54.6305C34.2953 55.2034 34.4234 55.8331 34.4151 56.4929C34.3985 57.8118 33.8403 58.9972 32.9547 59.8401C32.7744 60.0032 32.5541 59.8399 32.6484 59.6357Z" fill="white"/>
<path fill-rule="evenodd" clip-rule="evenodd" d="M32.268 52.4854C30.4755 52.5069 29.0899 53.4833 27.9274 54.9828C27.8588 55.0737 27.8015 55.1659 27.9478 55.2803C28.5062 55.6836 29.0671 56.0567 29.7449 56.3803C29.8736 56.4417 29.9177 56.4445 30.0209 56.3284C31.0485 55.1728 32.2852 54.5481 33.6648 54.3591C33.8109 54.3391 33.8839 54.2613 33.815 54.1331C33.8148 54.1328 33.8148 54.1323 33.8145 54.132C33.44 53.4663 32.9078 52.9003 32.268 52.4854Z" fill="#C41230"/>
<path fill-rule="evenodd" clip-rule="evenodd" d="M39.1819 57.4981L39.5884 57.4981H40.3646V55.9458H36.3359V57.4981H37.223H37.5926H38.2209H38.5536H39.1819Z" fill="#A7A9AC"/>
<path fill-rule="evenodd" clip-rule="evenodd" d="M37.223 63.0911V60.5291H36.3359V63.4774C36.6345 63.3544 36.9303 63.2253 37.223 63.0911Z" fill="#A7A9AC"/>
<path fill-rule="evenodd" clip-rule="evenodd" d="M37.5928 60.5291V62.9184C37.804 62.8177 38.0135 62.7146 38.2211 62.6094V60.5291H37.5928Z" fill="#A7A9AC"/>
<path fill-rule="evenodd" clip-rule="evenodd" d="M38.5537 60.5291V62.4384L38.76 62.3299C38.9019 62.2546 39.0424 62.1772 39.182 62.0981V60.5291H38.5537Z" fill="#A7A9AC"/>
<path fill-rule="evenodd" clip-rule="evenodd" d="M39.5889 60.5291V61.8621C39.8493 61.7076 40.1073 61.5491 40.365 61.3901V60.5291H39.5889Z" fill="#A7A9AC"/>
<path fill-rule="evenodd" clip-rule="evenodd" d="M40.7715 59.0509L40.7716 61.1396C40.9221 61.047 41.0729 60.9549 41.2245 60.8639C41.2829 60.8288 41.3414 60.7943 41.3999 60.7604L41.3998 59.0508L40.7715 59.0509Z" fill="#A7A9AC"/>
<path fill-rule="evenodd" clip-rule="evenodd" d="M41.8057 59.0508L41.8057 60.534C42.0141 60.4226 42.2233 60.318 42.4341 60.2192L42.434 59.0508H41.8057Z" fill="#A7A9AC"/>
<path fill-rule="evenodd" clip-rule="evenodd" d="M42.8037 59.0508L42.8038 60.0525C43.4511 59.7717 44.1166 59.5403 44.8222 59.3333C45.1699 59.2313 45.5275 59.1368 45.8932 59.0508H42.8037Z" fill="#A7A9AC"/>
<path fill-rule="evenodd" clip-rule="evenodd" d="M36.3359 57.8679L36.336 60.1595H37.2231L37.223 57.8679H36.3359Z" fill="#A7A9AC"/>
<path fill-rule="evenodd" clip-rule="evenodd" d="M37.5928 57.8679L37.5929 60.1595H38.2212L38.2211 57.8679H37.5928Z" fill="#A7A9AC"/>
<path fill-rule="evenodd" clip-rule="evenodd" d="M38.5537 57.8679L38.5538 60.1595H39.1821L39.182 57.8679H38.5537Z" fill="#A7A9AC"/>
<path fill-rule="evenodd" clip-rule="evenodd" d="M39.5889 57.8679L39.5889 60.1595H40.3651L40.365 57.8679H39.5889Z" fill="#A7A9AC"/>
<path fill-rule="evenodd" clip-rule="evenodd" d="M40.7715 57.8683V58.6814L47.8771 58.6813C49.0678 58.5161 50.3028 58.4451 51.527 58.4941L51.5269 53.3645C51.032 53.7193 50.5443 54.0799 50.0486 54.434V55.8723L49.3093 55.8724V54.9503C47.9879 55.8483 46.5603 56.6623 44.7563 57.1784C46.8123 56.0455 48.257 55.0704 49.3093 54.1963L49.3093 52.3728C46.7359 54.6715 43.8486 56.4375 40.7715 57.8683Z" fill="#D1D2D4"/>
<path fill-rule="evenodd" clip-rule="evenodd" d="M50.0479 51.6891L50.0479 53.5395C50.7005 52.9164 51.1618 52.3426 51.5263 51.7938V50.166C51.0474 50.6972 50.5543 51.2044 50.0479 51.6891Z" fill="#D1D2D4"/>
<path fill-rule="evenodd" clip-rule="evenodd" d="M20.4642 57.4981L20.0606 57.4981H19.29V55.9458H23.2894V57.4981H22.4088H22.0419H21.4182H21.0879H20.4642Z" fill="#A7A9AC"/>
<path fill-rule="evenodd" clip-rule="evenodd" d="M22.4092 62.6305V60.5291H23.2898V63.0405C22.9979 62.9076 22.7048 62.7707 22.4092 62.6305Z" fill="#A7A9AC"/>
<path fill-rule="evenodd" clip-rule="evenodd" d="M22.0417 60.5291V62.4556L21.9901 62.4309C21.799 62.3393 21.6083 62.2466 21.418 62.1531V60.5291H22.0417Z" fill="#A7A9AC"/>
<path fill-rule="evenodd" clip-rule="evenodd" d="M21.0876 60.5291V61.9903C20.8795 61.8872 20.6716 61.7834 20.4639 61.6793V60.5291H21.0876Z" fill="#A7A9AC"/>
<path fill-rule="evenodd" clip-rule="evenodd" d="M20.0606 60.5291V61.4772C19.8039 61.3488 19.5473 61.2205 19.29 61.0933V60.5291H20.0606Z" fill="#A7A9AC"/>
<path fill-rule="evenodd" clip-rule="evenodd" d="M18.8865 59.0509L18.8864 60.8952C18.6791 60.7939 18.4712 60.6937 18.2627 60.5948L18.2628 59.0508L18.8865 59.0509Z" fill="#A7A9AC"/>
<path fill-rule="evenodd" clip-rule="evenodd" d="M17.8592 59.0508L17.8591 60.4058C17.652 60.3101 17.4442 60.2162 17.2354 60.1243L17.2354 59.0508H17.8592Z" fill="#A7A9AC"/>
<path fill-rule="evenodd" clip-rule="evenodd" d="M16.8682 59.0508L16.8681 59.9659C16.0192 59.6056 15.1787 59.2968 14.335 59.0508H16.8682Z" fill="#A7A9AC"/>
<path fill-rule="evenodd" clip-rule="evenodd" d="M23.2898 57.8679L23.2898 60.1595H22.4092L22.4092 57.8679H23.2898Z" fill="#A7A9AC"/>
<path fill-rule="evenodd" clip-rule="evenodd" d="M22.0418 57.8679L22.0417 60.1595H21.418L21.418 57.8679H22.0418Z" fill="#A7A9AC"/>
<path fill-rule="evenodd" clip-rule="evenodd" d="M21.0877 57.8679L21.0876 60.1595H20.4639L20.4639 57.8679H21.0877Z" fill="#A7A9AC"/>
<path fill-rule="evenodd" clip-rule="evenodd" d="M20.0607 57.8679L20.0606 60.1595H19.29L19.2901 57.8679H20.0607Z" fill="#A7A9AC"/>
<path fill-rule="evenodd" clip-rule="evenodd" d="M18.8864 57.8683V58.6814L12.8248 58.6813C11.3738 58.3964 9.89254 58.3138 8.3225 58.4899L8.20898 58.4941L8.20912 53.3645C8.70044 53.7193 9.18454 54.0799 9.67673 54.434V55.8723L10.4105 55.8724V54.9503C11.7224 55.8483 13.1397 56.6623 14.9305 57.1784C12.8894 56.0455 11.4553 55.0704 10.4105 54.1963L10.4106 52.3728C12.9653 54.6715 15.8317 56.4375 18.8864 57.8683Z" fill="#D1D2D4"/>
<path fill-rule="evenodd" clip-rule="evenodd" d="M9.67665 51.6891L9.6766 53.5395C9.02875 52.9164 8.57078 52.3426 8.20898 51.7938V50.166C8.68438 50.6972 9.1739 51.2044 9.67665 51.6891Z" fill="#D1D2D4"/>
<path d="M27.3773 62.6499H27.3051V62.1899C27.2877 62.2064 27.2649 62.223 27.2365 62.2396C27.2085 62.2562 27.1832 62.2686 27.1607 62.2769V62.2071C27.2011 62.1881 27.2364 62.1651 27.2666 62.1381C27.2968 62.1111 27.3182 62.0849 27.3308 62.0595H27.3773V62.6499ZM27.5734 62.5139L27.6428 62.5075C27.6487 62.5401 27.6599 62.5638 27.6765 62.5785C27.6931 62.5932 27.7144 62.6006 27.7403 62.6006C27.7625 62.6006 27.7819 62.5955 27.7984 62.5853C27.8153 62.5752 27.8291 62.5617 27.8398 62.5448C27.8505 62.5277 27.8594 62.5047 27.8666 62.4758C27.8738 62.447 27.8775 62.4175 27.8775 62.3876C27.8775 62.3844 27.8773 62.3796 27.8771 62.3732C27.8626 62.3962 27.8428 62.4149 27.8177 62.4293C27.7928 62.4435 27.7658 62.4506 27.7367 62.4506C27.688 62.4506 27.6468 62.4329 27.6131 62.3976C27.5795 62.3623 27.5626 62.3158 27.5626 62.258C27.5626 62.1984 27.5801 62.1504 27.6152 62.1141C27.6504 62.0777 27.6946 62.0595 27.7475 62.0595C27.7857 62.0595 27.8206 62.0698 27.8522 62.0904C27.884 62.111 27.9081 62.1404 27.9244 62.1786C27.941 62.2166 27.9493 62.2717 27.9493 62.3439C27.9493 62.419 27.9411 62.4789 27.9248 62.5236C27.9085 62.5679 27.8841 62.6018 27.8518 62.625C27.8197 62.6483 27.782 62.6599 27.7387 62.6599C27.6927 62.6599 27.6551 62.6472 27.626 62.6218C27.5968 62.5962 27.5793 62.5602 27.5734 62.5139ZM27.869 62.2544C27.869 62.213 27.8579 62.1801 27.8357 62.1558C27.8138 62.1314 27.7873 62.1193 27.7563 62.1193C27.7242 62.1193 27.6963 62.1324 27.6725 62.1586C27.6487 62.1848 27.6368 62.2187 27.6368 62.2605C27.6368 62.2979 27.648 62.3284 27.6705 62.3519C27.6932 62.3752 27.7212 62.3868 27.7543 62.3868C27.7877 62.3868 27.8152 62.3752 27.8365 62.3519C27.8582 62.3284 27.869 62.2959 27.869 62.2544ZM28.0198 62.3599C28.0198 62.2904 28.0269 62.2345 28.0411 62.1923C28.0555 62.1498 28.0768 62.117 28.1049 62.094C28.1332 62.071 28.1688 62.0595 28.2116 62.0595C28.2431 62.0595 28.2708 62.0659 28.2946 62.0788C28.3184 62.0913 28.338 62.1096 28.3535 62.1337C28.369 62.1575 28.3812 62.1867 28.39 62.2211C28.3989 62.2554 28.4033 62.3016 28.4033 62.3599C28.4033 62.4289 28.3962 62.4847 28.382 62.5272C28.3678 62.5694 28.3466 62.6022 28.3182 62.6254C28.2902 62.6484 28.2546 62.6599 28.2116 62.6599C28.1549 62.6599 28.1104 62.6396 28.078 62.599C28.0392 62.55 28.0198 62.4704 28.0198 62.3599ZM28.094 62.3599C28.094 62.4564 28.1053 62.5208 28.1277 62.5528C28.1505 62.5847 28.1784 62.6006 28.2116 62.6006C28.2447 62.6006 28.2725 62.5845 28.295 62.5524C28.3177 62.5204 28.3291 62.4562 28.3291 62.3599C28.3291 62.2631 28.3177 62.1988 28.295 62.167C28.2725 62.1352 28.2444 62.1193 28.2108 62.1193C28.1776 62.1193 28.1511 62.1333 28.1313 62.1614C28.1065 62.1972 28.094 62.2634 28.094 62.3599ZM28.4771 62.4959L28.5529 62.4895C28.5585 62.5264 28.5715 62.5542 28.5918 62.5729C28.6124 62.5913 28.6371 62.6006 28.666 62.6006C28.7007 62.6006 28.7302 62.5875 28.7542 62.5613C28.7783 62.5351 28.7903 62.5003 28.7903 62.457C28.7903 62.4158 28.7787 62.3833 28.7554 62.3595C28.7324 62.3357 28.7022 62.3238 28.6648 62.3238C28.6415 62.3238 28.6205 62.3292 28.6018 62.3399C28.5831 62.3503 28.5684 62.3639 28.5577 62.3808L28.4899 62.372L28.5469 62.0699H28.8392V62.1389H28.6046L28.5729 62.297C28.6082 62.2724 28.6453 62.2601 28.684 62.2601C28.7354 62.2601 28.7787 62.2778 28.814 62.3134C28.8493 62.349 28.8669 62.3947 28.8669 62.4506C28.8669 62.5038 28.8514 62.5498 28.8204 62.5885C28.7827 62.6361 28.7312 62.6599 28.666 62.6599C28.6125 62.6599 28.5688 62.645 28.5348 62.615C28.5011 62.5851 28.4819 62.5454 28.4771 62.4959Z" fill="black"/>
<path fill-rule="evenodd" clip-rule="evenodd" d="M41.3065 42.497C41.3467 42.5226 41.3559 42.5594 41.3405 42.5887C41.2212 42.8143 40.922 43.0076 40.7488 43.0287C41.26 43.4718 42.7223 43.2349 43.1329 42.5152C43.2393 42.3286 43.2916 42.1465 43.2888 41.9263C43.2821 41.4061 43.1108 40.8268 43.0259 40.2659C42.9835 39.9862 42.9779 39.9453 43.0845 39.6499C43.1661 39.3824 43.2713 39.1217 43.3296 38.8476C43.3753 38.6324 43.3995 38.4361 43.3688 38.2022C43.1061 36.2024 41.3324 34.2678 39.9658 32.8139C39.9918 33.1681 39.9782 33.5337 40.044 33.8798C37.9966 32.7383 35.2916 30.774 34.3534 29.7777C31.8858 27.1573 29.9314 24.4021 28.955 22.2523C28.5834 21.3314 28.0087 20.6041 26.96 20.0031C20.5692 16.3404 17.8195 10.1624 20.0562 0.337683C20.1423 -0.0408834 20.0383 0.0342134 19.8874 0.225074C17.3285 3.46199 15.71 7.04691 15.829 11.2655C14.1074 7.85205 13.2284 4.1725 13.5996 0.107707C13.6081 0.0146362 13.5484 -0.0234416 13.4529 0.0783647C13.1787 0.237594 12.726 1.15677 12.1437 2.5201C11.0131 5.16717 10.1602 8.7475 10.9593 13.065C10.1798 12.4445 9.43412 11.4662 8.63886 9.46601C8.13953 8.21012 7.79153 6.51652 7.21725 4.24429C6.52336 5.8545 6.57791 14.0342 11.4291 19.1134C11.4535 19.1389 11.4334 19.19 11.3887 19.1801C9.75396 18.8163 8.11043 18.4826 6.50781 18.2259C7.86079 19.2621 9.15877 20.4082 10.417 21.6217C13.2815 21.8296 17.1852 23.3088 19.1207 24.8491C16.6882 23.6635 14.1213 23.1257 11.7865 22.9424C13.1235 24.1824 14.4581 25.4031 15.8351 26.6273C14.8999 26.5781 13.8823 26.4431 12.9045 26.3388C14.2686 27.4838 15.6787 28.6012 17.0673 29.7095C19.0312 29.6582 20.9646 29.8412 22.7979 30.7852C21.4438 30.4132 19.9797 30.4109 18.3972 30.8047C19.3556 31.5805 20.3139 32.3564 21.2723 33.1322C22.0481 33.1518 22.8239 33.1713 23.5997 33.1909C20.3112 35.3417 17.0319 34.6469 13.5272 31.9978C13.9298 33.1338 15.0061 33.9878 15.8351 34.8924C13.4596 34.7595 10.9129 34.0278 8.67193 32.9048C9.7924 34.7987 11.3138 36.6229 13.0969 37.8652C13.2845 37.9959 13.5081 38.0874 13.7227 38.0999C15.6767 38.2136 17.4261 37.9262 19.3286 37.3079C19.3943 37.2866 19.4327 37.3435 19.375 37.3788C17.361 38.6147 15.2971 39.5775 12.857 39.3408C14.4135 39.9755 16.2801 40.287 18.0185 40.5057C18.245 40.5342 18.4857 40.4717 18.6835 40.3883C20.0842 39.798 21.451 39.1134 22.8055 38.3447C22.8435 38.3231 22.9068 38.3812 22.8739 38.4083C21.8726 39.2339 20.8696 40.0582 19.8672 40.8826C19.8318 40.9116 19.8651 40.9428 19.8966 40.9461C21.7611 41.151 23.5867 41.1973 25.0595 40.6338C25.1328 40.6077 25.2058 40.6499 25.0911 40.7094C24.7595 40.921 24.3943 41.1357 24.0576 41.3495C24.0039 41.3846 24.0129 41.4511 24.0478 41.4961C24.2662 41.9003 24.4632 42.3107 24.703 42.7088C24.7291 42.7569 24.6867 42.8049 24.6394 42.7798C24.4164 42.6852 24.2023 42.5743 23.9965 42.4497C23.9643 42.4303 23.9239 42.4563 23.9427 42.4888C24.3362 43.1709 24.3449 43.5272 25.3803 44.2709C25.4121 44.437 25.4643 44.6059 25.5367 44.7795C25.5529 44.8182 25.5208 44.8676 25.4829 44.848C25.1014 44.6505 24.7494 44.3999 24.4121 44.1243C24.3469 44.071 24.3302 44.12 24.3415 44.172C24.4756 44.7888 24.7995 45.2465 25.346 45.591C25.6133 45.7808 25.9009 46.0317 26.0012 46.344C26.1824 46.9081 26.4054 47.4783 26.6075 48.0455C26.7067 48.3774 26.6306 48.7588 26.4987 48.9984C26.3463 49.275 25.8724 49.688 25.6088 49.8375C25.0949 50.129 24.1995 50.6805 24.9914 52.033C25.0124 52.0763 25.0714 52.0876 25.0794 52.0233C25.4023 51.1048 25.9177 50.4478 27.0158 50.5514C27.2585 50.5743 27.4685 50.4977 27.6172 50.3657C28.6255 49.47 30.3209 49.343 31.6024 50.1506C31.4417 49.8613 31.2943 49.6518 31.0744 49.4661C30.9389 49.3518 30.7886 49.2586 30.6343 49.2021C30.2897 49.0756 29.9757 48.9943 29.6334 48.8965C29.5787 48.8745 29.6005 48.8282 29.7093 48.8368C31.0245 48.895 31.8921 49.3759 32.6489 50.5834C32.6741 50.5866 32.6993 50.5899 32.7246 50.5932C32.7563 49.8884 32.3453 49.2556 31.7249 48.6568C31.3168 48.455 29.5279 48.2765 28.4195 48.207C28.2261 48.1949 28.0565 48.0959 27.9208 47.9625C27.7164 47.7225 27.5896 47.4698 27.5003 47.1509C27.4718 47.0489 27.5472 47.0251 27.6127 47.0751C27.8291 47.2402 28.1498 47.3184 28.4366 47.3365C28.4868 47.3397 28.5133 47.2989 28.5051 47.2632C28.3972 46.7946 28.2987 46.2974 28.1378 45.8428C28.1087 45.7603 28.1841 45.729 28.2558 45.7718C28.3932 45.8539 28.5581 45.9005 28.7153 45.9381C28.7694 45.951 28.8088 45.8993 28.7936 45.8501C28.418 44.6969 28.1538 43.5573 28.9134 42.5741C28.9304 42.5522 28.9603 42.5349 28.9965 42.5668C29.2149 42.7412 29.4352 42.9132 29.6517 43.0899C29.7237 43.1486 29.703 43.2364 29.7201 43.3099C29.9675 44.371 29.9709 44.1658 30.7079 44.8942C30.7429 44.9289 30.7514 44.9806 30.6883 44.9627C30.3298 44.8608 29.9759 44.7423 29.6175 44.64C29.5594 44.6234 29.5361 44.6426 29.5539 44.6839C29.7917 45.2366 30.2232 45.691 30.6346 46.009C30.6929 46.054 30.7591 46.1087 30.8253 46.1263C31.5229 46.3116 32.1903 46.714 32.1308 47.6129C32.1262 47.6818 32.0457 47.7298 31.9987 47.7009C31.3094 47.2745 30.7981 47.3975 30.0038 48.0089C29.9502 48.0502 29.9605 48.0916 30.0185 48.0872C30.7005 48.0341 31.4377 48.1609 32.0086 48.4294C32.1515 48.4967 32.2306 48.5644 32.3068 48.6641C32.5784 49.0187 32.8241 49.3618 33.3043 49.6127C33.7364 49.8386 34.0734 50.3724 34.0477 50.8989C34.0382 51.0919 34.0309 51.2821 34.0232 51.4784C34.0214 51.5264 34.0763 51.5463 34.099 51.5175C34.5233 50.979 34.5345 50.3006 34.3852 49.6497C34.3738 49.6 34.4455 49.5597 34.4904 49.6301C35.0342 50.4834 35.0519 51.3612 34.7925 52.2435C34.7741 52.3061 34.8161 52.3426 34.8549 52.307C35.5637 51.655 35.9425 50.9085 35.6277 49.9746C35.5586 49.7694 35.4041 49.5906 35.2463 49.4661C34.3235 48.738 33.8089 48.3238 33.5253 47.6668C33.3693 47.3052 33.2287 46.9284 33.1146 46.5373C33.0998 46.4861 33.0983 46.4426 33.1853 46.4715C33.3336 46.5209 33.4894 46.5478 33.6378 46.5617C33.6753 46.5652 33.6987 46.5247 33.6867 46.4884C33.4496 45.7787 33.3714 45.0494 33.2424 44.3221C33.2355 44.283 33.265 44.2375 33.2947 44.2607C33.4644 44.3929 33.6297 44.5303 33.8557 44.5763C33.6276 44.0385 33.4314 43.5006 33.2277 42.9628C33.2889 42.5459 33.3332 42.1998 33.4983 41.7891C33.5227 41.7299 33.5706 41.7367 33.5692 41.7979C33.5576 42.2909 33.8275 42.6032 34.0687 42.8845C34.0916 42.9113 34.1488 42.8987 34.1497 42.8604C34.181 41.6896 35.153 40.7406 36.1615 40.1317C36.1968 40.1104 36.2106 40.1584 36.2103 40.1855C36.208 40.3984 36.2286 40.6169 36.3468 40.7645C36.372 40.796 36.3982 40.7988 36.4157 40.7527C36.5967 40.2756 37.0164 40.0548 37.4817 39.8921C37.5843 39.8562 37.6537 39.8929 37.7457 39.9361C38.2445 40.1706 38.9687 40.4481 39.2657 40.5638C39.3663 40.6029 39.4003 40.6859 39.418 40.7772C39.4947 41.1737 39.6957 41.4241 40.0316 41.6697C40.4582 41.9434 40.8791 42.2248 41.3065 42.497Z" fill="#004990"/>
<path fill-rule="evenodd" clip-rule="evenodd" d="M40.2182 40.6609C40.6681 41.05 41.0211 41.4681 41.2807 42.0055C41.2995 42.0443 41.2763 42.0954 41.2172 42.0495C40.956 41.8465 40.6918 41.6467 40.4348 41.4383C40.3836 41.3967 40.3625 41.3411 40.3518 41.2868C40.314 41.095 40.2532 40.9323 40.1757 40.7428C40.145 40.6673 40.1694 40.614 40.2182 40.6609Z" fill="white"/>
<path fill-rule="evenodd" clip-rule="evenodd" d="M42.5344 40.3724C42.7316 40.9127 42.8739 41.4778 42.9061 42.074C42.9268 42.4596 42.1807 42.9359 41.4149 43.0274C41.3758 43.0307 41.3427 42.9863 41.3855 42.9492C42.6633 42.2012 40.4648 40.5974 39.6743 39.9421C39.6335 39.903 39.6404 39.8369 39.7134 39.8541C40.0185 39.9319 40.7175 40.4424 41.2634 40.6999C41.3486 40.74 41.4298 40.7476 41.5079 40.7292C41.8792 40.6422 42.2436 40.5305 42.5344 40.3724Z" fill="white"/>
<path fill-rule="evenodd" clip-rule="evenodd" d="M40.9012 40.1766C40.6563 39.9563 40.4086 39.7133 40.2937 39.4052C40.5548 39.5048 40.7962 39.6395 41.0688 39.6093C40.5391 39.3062 40.392 38.9495 40.536 38.4798C40.5537 38.4222 40.5277 38.3549 40.4871 38.2891C40.2925 37.9736 39.8547 37.246 40.1987 36.8126C40.6519 37.8067 41.2384 38.761 41.5523 39.782C41.8179 39.5245 41.9786 38.8897 41.9005 38.5385C41.8881 38.4827 41.8239 38.4447 41.881 38.3722C42.0139 38.4545 42.4351 39.5881 42.2428 39.9613C42.2413 39.9956 42.3045 40.0188 42.3406 39.976C42.7509 39.4908 42.8355 38.9938 42.8008 38.4945C42.262 37.0505 41.4135 35.727 40.4049 34.4656C40.4245 34.8795 40.4441 35.2936 40.4636 35.7075C39.4695 34.6936 38.2701 33.5136 36.9825 32.8713C36.9499 33.5428 36.9553 34.1721 36.864 34.8241C36.6472 34.1667 36.1766 33.1521 35.4178 32.353C35.496 33.5982 35.6257 33.6136 35.5645 34.0643C34.9258 32.0205 27.8131 24.1483 27.1938 21.8894C27.153 21.8128 27.0774 21.7713 26.9982 21.7182C20.0208 17.0393 16.8426 10.9018 18.5494 4.60505C15.4017 12.5864 18.4235 17.9076 22.0113 20.8481C15.6138 17.3646 12.2644 8.35895 12.9754 2.65918C11.1636 8.36344 11.9742 18.1558 23.1068 24.3687C27.9461 27.0694 30.8911 29.6184 32.8567 34.2016C29.8476 31.0024 26.1862 28.9241 19.4499 27.1068C22.0967 28.4172 25.3597 30.0747 27.9089 32.0306C27.0776 32.1903 25.9628 32.5163 25.4543 33.1894C27.1763 32.8317 28.8485 33.0103 30.4026 33.9192C28.8819 33.5377 26.8874 34.015 25.3369 34.891C24.3542 35.4461 23.152 35.9162 22.1391 36.045C22.0184 36.0603 21.9134 36.0654 21.8262 36.1819C22.4436 36.2414 23.0992 36.3367 23.782 36.3579C25.3125 36.4052 26.5544 35.5337 28.5838 35.566C29.5718 35.5818 30.52 35.669 31.3516 36.153C29.1342 35.8975 26.96 36.6836 24.9023 38.1236C26.3594 38.2344 27.8165 38.3453 29.2736 38.4561C28.2664 39.1618 27.2592 39.8675 26.2521 40.5732C26.1845 41.8095 26.3288 42.9848 26.9589 44.0767C26.9715 44.0984 27.024 44.1174 27.0298 44.0767C27.1799 43.0275 27.3543 41.9383 28.0594 41.0744C28.8557 41.3188 30.18 41.3678 31.0644 40.7224C30.6424 41.7117 31.0737 43.7278 32.2165 44.9616C31.8271 44.0341 32.247 39.8502 34.9087 39.1331C34.9609 39.1152 34.9616 39.0434 34.8891 39.0206C33.9657 38.7443 32.6121 38.155 32.3831 37.4877C33.2266 37.9464 34.1586 38.1708 35.1777 38.2625C35.4761 38.2893 35.7264 38.3383 36.0157 38.4418C36.0536 38.4517 36.0579 38.4227 36.0384 38.4044C35.5184 37.9203 34.9986 37.4362 34.4786 36.9521C35.4196 37.083 36.5561 37.6346 37.683 38.2253C37.2397 37.7103 36.7816 37.2294 36.353 36.6802C36.9137 36.9418 37.4645 37.2204 38.0203 37.5163C38.1972 37.8789 38.398 38.2272 38.5875 38.5822C38.6224 38.6476 38.6715 38.7172 38.7342 38.7632C39.3837 39.2392 40.0525 39.7762 40.7347 40.1655C40.8019 40.2037 40.8399 40.2079 40.9012 40.1766Z" fill="white"/>
<path fill-rule="evenodd" clip-rule="evenodd" d="M38.6784 32.4805C38.1135 32.1394 37.6574 31.708 37.1749 31.3437C37.3312 25.1712 40.4801 16.7912 42.4799 13.8667C42.4896 13.8525 42.4616 13.814 42.4433 13.83C39.1284 17.0661 37.0587 22.4313 35.9341 27.197C35.8973 27.1889 35.8578 27.165 35.8363 27.1358C35.5368 26.8038 35.2465 26.4533 34.9378 26.1396C34.9165 26.119 34.8755 26.1297 34.8738 26.1622C34.8839 27.1462 34.891 28.1077 34.9012 29.0917C33.2791 27.3407 31.8436 25.3691 30.5801 23.1941C30.7113 22.5216 30.896 21.8373 30.9164 21.1589C31.5922 22.3191 32.3279 23.3613 33.2527 24.0423C33.2794 24.062 33.3135 24.0407 33.2924 24.0087C32.3902 22.639 31.6553 21.2026 31.0193 19.7244C31.2005 18.1598 31.1955 16.4575 31.5173 15.0091C31.7659 13.583 32.2377 12.2393 32.8407 10.8989C32.4875 15.3312 33.3535 18.2705 34.6468 20.7789C34.0795 18.9336 33.8362 17.3145 33.6784 15.4814C35.509 9.4241 40.5465 4.84244 44.5238 2.99368C44.6419 2.93876 44.7621 3.03405 44.6828 3.12816C43.8911 4.06708 43.1466 5.04321 42.6169 6.0741C39.4407 9.14556 37.2865 13.1694 37.2231 16.3224C37.2216 16.3557 37.2811 16.3682 37.2842 16.3331C38.0275 13.5264 40.5334 9.58643 42.558 7.98634C45.1719 5.92049 48.0398 5.02089 51.3181 5.24982C51.3954 5.2552 51.4988 5.4182 51.4327 5.44384C48.3757 6.63198 46.0987 8.3399 44.7099 10.6147C44.6727 10.6756 44.7002 10.7306 44.7465 10.7003C47.8626 8.66521 52.9679 8.8736 53.8658 9.17255C54.0254 9.2257 53.9794 9.37219 53.878 9.41707C47.6626 12.1992 43.8359 16.5424 43.4023 21.5861C41.8581 23.0551 40.8027 25.0066 39.8272 26.7691C39.0338 28.2027 38.6358 29.7324 38.2059 31.2935C38.1806 31.3856 38.1775 31.5062 38.2197 31.6037C38.351 31.9075 38.4888 32.1958 38.6784 32.4805Z" fill="#004990"/>
</svg>
