<svg width="64" height="73" viewBox="0 0 64 73" fill="none" xmlns="http://www.w3.org/2000/svg">
<path fill-rule="evenodd" clip-rule="evenodd" d="M33.7734 25.6211L35.2057 22.9289L36.7375 22.5698L47.7761 25.1728L48.8534 27.0575L46.1612 29.3013L46.7009 35.6758L48.3158 37.6498H34.7615L33.7734 25.6211Z" fill="#004996"/>
<path fill-rule="evenodd" clip-rule="evenodd" d="M47.1494 25.3078L47.9237 24.4319L49.2147 26.3395L47.9008 26.5076L47.1494 25.3078Z" fill="#FFDF00"/>
<path fill-rule="evenodd" clip-rule="evenodd" d="M47.5869 26.6465C47.5869 26.6465 47.1344 25.5692 46.8771 25.4405C46.6197 25.3118 47.2922 25.0088 47.2922 25.0088C47.2922 25.0088 47.8423 26.0466 48.1785 26.3891C48.2844 26.4971 47.5932 26.6465 47.5932 26.6465H47.5869Z" fill="#1D1D1B"/>
<path fill-rule="evenodd" clip-rule="evenodd" d="M29.5577 37.9133H15.7314L17.9774 33.5211L17.1678 28.0454L16.0905 27.0573L17.2592 24.5437L19.4137 25.1726L25.3378 23.018L28.6589 22.6589L29.5556 24.5437L29.5577 37.9133Z" fill="#E52713"/>
<path fill-rule="evenodd" clip-rule="evenodd" d="M14.9238 42.1377H29.3769V59.283L25.2463 57.1284L23.812 54.7953L21.207 55.1544L17.8859 53.9879L15.9119 49.8572L14.9238 42.1377Z" fill="#004996"/>
<path fill-rule="evenodd" clip-rule="evenodd" d="M48.5856 42.0481H34.4023V59.1934L37.4557 58.2054L39.9673 54.795L43.5583 54.9735L46.4331 52.6404L48.2265 49.0494L48.048 45.1015L48.5856 42.0481Z" fill="#E52713"/>
<path fill-rule="evenodd" clip-rule="evenodd" d="M28.9554 37.0499H16.1358L13.7529 38.6814L15.5526 42.6668H28.9554V59.1478L31.6538 61.0782L35.1949 58.6995V42.6668H48.4172L50.3455 39.576L48.0622 37.0458H35.2053V24.1411H28.9554C28.9388 24.1411 28.9554 37.0499 28.9554 37.0499Z" fill="white"/>
<path d="M28.9551 37.0499H16.1356L13.7568 38.6814L15.5523 42.6709H28.9551V59.1478L31.6639 61.0782L35.2051 58.6995V42.6709H48.4065L50.3349 39.5802L48.0474 37.0499H35.2051V24.1411H28.9551V37.0499Z" stroke="#1D1D1B" stroke-width="0.187716"/>
<path fill-rule="evenodd" clip-rule="evenodd" d="M30.3623 23.2882L30.4536 24.7246L32.2263 24.4776L34.0882 24.7246L34.1546 23.2197L32.2263 23.4231L30.3623 23.2882Z" fill="#FFDF00"/>
<path fill-rule="evenodd" clip-rule="evenodd" d="M16.2486 23.9629L17.0124 25.0838L16.3378 26.4973L15.0156 26.3188L16.2486 23.9629Z" fill="#FFDF00"/>
<path fill-rule="evenodd" clip-rule="evenodd" d="M30.2051 23.0702C30.2051 23.0702 32.3161 23.6306 34.3004 23.0059L34.1282 23.421C34.1282 23.421 31.9715 23.7012 30.4189 23.4646L30.2113 23.0764L30.2051 23.0702Z" fill="#1D1D1B"/>
<path fill-rule="evenodd" clip-rule="evenodd" d="M30.2471 25.0527C30.2471 25.0527 32.1339 24.1228 34.085 24.9884C34.0871 24.8083 34.0732 24.6284 34.0435 24.4508C32.8971 24.2238 31.7173 24.2238 30.5709 24.4508C30.5501 24.4508 30.2471 25.0527 30.2471 25.0527Z" fill="#1D1D1B"/>
<path fill-rule="evenodd" clip-rule="evenodd" d="M16.0156 26.4102L16.7919 24.9011L17.2237 25.2042L16.6197 26.626L16.0156 26.4102Z" fill="#1D1D1B"/>
<path fill-rule="evenodd" clip-rule="evenodd" d="M14.7207 26.3658C14.7207 26.3658 15.9661 24.2112 16.1446 23.437C16.3231 22.6628 16.4518 24.2112 16.4518 24.2112C16.4518 24.2112 15.5012 25.8054 15.3289 26.2371L14.7249 26.3658H14.7207Z" fill="#1D1D1B"/>
<path fill-rule="evenodd" clip-rule="evenodd" d="M31.9943 63.7826C31.9943 63.7826 33.5241 63.7618 33.5241 62.6223C33.5241 61.6508 32.5755 61.5201 31.93 61.4993C31.2844 61.4786 30.3545 61.7069 30.3545 62.5559C30.3545 62.8797 30.5911 63.7826 31.9943 63.7826Z" fill="#1D1D1B"/>
<path fill-rule="evenodd" clip-rule="evenodd" d="M30.9592 62.5354C30.9592 62.5354 30.7662 63.2453 31.9971 63.2453C33.0972 63.2453 32.9665 62.5562 32.9665 62.5562C32.9665 62.5562 32.927 61.9521 31.9286 61.9521C30.8285 61.9521 30.9572 62.5354 30.9572 62.5354H30.9592Z" fill="#FFDF00"/>
<path fill-rule="evenodd" clip-rule="evenodd" d="M37.3639 47.6716C37.3639 47.6716 37.0671 46.1127 37.7936 45.3883C37.6804 45.9009 37.6953 46.4335 37.8372 46.9389C37.8372 46.9389 38.354 46.615 38.6135 46.615C38.6135 46.615 38.462 47.3706 38.6135 47.8231C38.6135 47.8231 38.9373 47.4329 39.066 47.4993C39.0847 47.5097 39.1324 48.4458 39.2383 48.7696C39.2383 48.7987 39.6057 48.3835 39.8859 48.4686C40.1661 48.5537 40.0167 49.1163 40.0167 49.1163C40.1263 49.1712 40.2152 49.2601 40.2702 49.3697C40.3252 49.4793 40.3433 49.6037 40.3218 49.7244C40.2554 50.1562 40.2554 50.2226 40.4297 50.3285C40.6041 50.4343 40.5584 50.5651 40.5169 50.8246C40.4754 51.084 40.4297 51.4701 40.4297 51.4701C40.4297 51.4701 40.9196 51.3788 41.096 51.5573C41.1179 50.9628 41.0234 50.3698 40.8179 49.8116C40.4941 48.8423 40.8615 48.6721 40.71 48.5205C40.6871 48.4977 39.176 47.8771 39.3089 46.6898C39.3187 46.481 39.3762 46.2772 39.477 46.0941C39.5777 45.911 39.719 45.7533 39.8901 45.6332C39.8398 45.2186 39.6671 44.8284 39.394 44.5124C39.394 44.5124 39.1138 44.3048 39.286 44.0599C39.4583 43.8149 39.2653 43.7381 39.6742 43.6447C40.1996 43.5258 40.7332 43.446 41.2704 43.406C41.6357 43.406 42.0675 43.406 43.124 44.008C43.124 44.008 43.5786 44.2674 43.1676 44.7428C42.9152 45.0389 42.7247 45.3827 42.6072 45.7536C42.8186 46.0245 42.9326 46.3586 42.931 46.7022C42.9102 47.2398 42.5864 48.2299 41.615 48.4458C41.5683 48.8203 41.5901 49.2001 41.6793 49.5667L41.7873 49.1785C41.7873 49.1785 41.8267 48.8962 42.1111 49.1785C42.2396 48.9339 42.3546 48.6823 42.4556 48.4251C42.4556 48.4251 42.5864 48.1241 42.8023 48.4022C43.0181 48.6804 43.0804 48.4458 43.124 48.2299C43.1948 47.8392 43.3414 47.4662 43.5558 47.1319C43.8152 46.7873 43.9232 47.026 43.9024 47.1755C43.8816 47.3249 44.0083 47.6072 44.11 47.1319C44.2117 46.6566 44.4338 46.7022 44.4338 46.7022C44.4338 46.7022 44.6413 46.723 44.5645 47.1174C44.4877 47.5117 44.6268 47.5325 44.7991 47.4827C44.9714 47.4329 45.5547 47.1174 45.7062 47.0675C45.8577 47.0177 46.0736 46.9804 46.1213 47.1298C46.1691 47.2793 45.5837 47.6052 45.4529 47.8625C45.3222 48.1199 44.9153 48.7468 45.6917 48.4852C45.6917 48.4852 45.0689 49.2387 45.5609 49.8863C45.5609 49.8863 44.1598 49.5625 44.6766 50.9408C44.6766 50.9408 44.0083 50.0586 44.0311 51.2646C44.0311 51.2646 43.4271 50.7042 43.5993 51.5012C43.5993 51.5012 42.8666 51.028 42.8874 51.7379C42.8874 51.7379 42.2833 51.1152 42.1111 52.1904C41.9388 53.2656 41.3783 53.6766 40.6871 53.4835C40.6871 53.4835 41.2061 53.1805 41.0774 52.7508C41.0307 52.5439 40.9115 52.3607 40.7412 52.2342C40.571 52.1078 40.361 52.0466 40.1495 52.0617C39.6949 52.1053 39.1989 52.6636 39.1989 52.6636C39.1989 52.6636 39.4168 51.9745 38.7484 52.1468C38.7484 52.1468 39.066 51.4286 37.7542 52.0824C37.7127 52.1053 38.5533 51.1359 36.9135 51.522C36.9135 51.522 37.6483 50.6398 37.9929 50.4842C37.9929 50.4842 37.5611 49.8075 36.3759 49.903C36.351 49.903 36.571 49.5563 37.1958 49.2553C37.1373 49.0869 37.0302 48.9395 36.8879 48.832C36.7457 48.7245 36.5747 48.6616 36.3967 48.6513C36.5484 48.5415 36.727 48.4748 36.9135 48.4583C36.9363 48.4583 36.7827 47.7463 36.9363 47.4889C37.0633 47.582 37.2119 47.6413 37.3681 47.6612L37.3639 47.6716Z" fill="#1D1D1B"/>
<path fill-rule="evenodd" clip-rule="evenodd" d="M37.7736 29.6627C37.7736 29.6627 37.8172 28.9943 38.8114 28.3488C38.8114 28.3488 39.2432 27.4002 40.1938 27.2715C40.1938 27.2715 40.2789 26.4412 40.8601 26.4308C41.4413 26.4205 41.6593 26.8833 41.6593 27.2715C41.6593 27.2715 43.0604 27.5517 43.2327 28.4131C43.2327 28.4131 45.3084 29.5112 44.8289 32.9797C44.7645 33.4529 44.7645 34.2936 41.68 34.2251C38.5955 34.1566 36.7627 34.3351 36.7627 32.631C36.7627 31.4042 37.1965 30.9704 37.1965 30.9704C37.1965 30.9704 37.2816 29.9575 37.7777 29.6565L37.7736 29.6627Z" fill="#1D1D1B"/>
<path fill-rule="evenodd" clip-rule="evenodd" d="M39.6064 27.9604C39.6064 27.9604 39.2618 28.305 39.8015 28.2178C40.2009 28.1619 40.6044 28.1404 41.0075 28.1535C41.1798 28.1535 42.3463 28.2614 42.3463 28.2614C42.3463 28.2614 42.9483 28.3258 42.4314 28.004C42.0115 27.7339 41.5244 27.5866 41.0252 27.5789C40.5259 27.5712 40.0345 27.7034 39.6064 27.9604Z" fill="#FFDF00"/>
<path fill-rule="evenodd" clip-rule="evenodd" d="M40.706 33.9281C40.706 33.9281 43.8548 34.0568 43.832 33.4756C43.8091 32.8944 40.7184 32.9151 40.7184 32.9151C40.7184 32.9151 37.6152 32.8944 37.6152 33.4756C37.6152 34.0568 40.6977 33.9281 40.6977 33.9281H40.706Z" fill="#FFDF00"/>
<path fill-rule="evenodd" clip-rule="evenodd" d="M44.5436 32.7532C44.5436 32.7532 44.5229 32.4999 44.0475 32.2654C43.2449 31.8868 42.3694 31.6878 41.482 31.6821C41.4591 31.6821 41.1353 31.6178 41.3512 32.0495C41.5671 32.4813 41.482 32.4107 42.0673 32.4958C42.6527 32.5809 42.8187 32.475 43.3127 32.6473C43.8068 32.8196 44.4772 33.27 44.5416 32.7532H44.5436Z" fill="#FFDF00"/>
<path fill-rule="evenodd" clip-rule="evenodd" d="M37.1699 32.6913C37.1699 32.6913 37.1928 32.438 37.666 32.1993C38.4699 31.8224 39.3458 31.6241 40.2337 31.6181C40.2523 31.6181 40.5762 31.5538 40.3624 31.9855C40.1486 32.4173 40.2337 32.3446 39.6483 32.4318C39.063 32.519 38.8948 32.4111 38.4029 32.5833C37.9628 32.7349 37.2405 33.2268 37.1741 32.6913H37.1699Z" fill="#FFDF00"/>
<path fill-rule="evenodd" clip-rule="evenodd" d="M37.5575 31.8732C37.5575 31.8732 37.1693 32.1576 37.3644 31.5743C37.5595 30.9911 38.5496 30.6486 41.0073 30.5842C41.3768 30.5842 44.1976 30.8894 44.3076 31.7466C44.3284 31.9189 44.2641 31.9812 44.0482 31.9542C43.8323 31.9272 42.2589 31.2235 40.7063 31.2879C39.1537 31.3522 38.0971 31.5889 37.5575 31.8691V31.8732Z" fill="#FFDF00"/>
<path fill-rule="evenodd" clip-rule="evenodd" d="M38.571 29.5897C38.571 29.5897 37.8009 29.8077 37.7096 30.3225C37.6452 30.6878 37.7947 30.7376 37.967 30.667C38.946 30.3773 39.968 30.2607 40.9871 30.3225C41.8987 30.3652 42.8032 30.5043 43.6855 30.7376C43.6855 30.7376 43.9886 30.9742 44.1816 30.694C44.3747 30.4138 43.9886 29.7454 42.8034 29.5088C41.6181 29.2722 39.9783 29.3157 38.5752 29.596L38.571 29.5897Z" fill="#FFDF00"/>
<path fill-rule="evenodd" clip-rule="evenodd" d="M38.55 29.3618C38.55 29.3618 38.1826 29.4469 38.4628 29.1024C38.743 28.7578 39.2619 28.326 40.964 28.4132C41.4829 28.4402 42.7076 28.3115 43.4237 29.1024C43.6168 29.3099 43.6313 29.5549 43.1643 29.3618C42.6972 29.1688 39.9303 28.9467 38.55 29.3618Z" fill="#FFDF00"/>
<path fill-rule="evenodd" clip-rule="evenodd" d="M49.5506 28.8113C49.7032 28.7987 49.8517 28.7555 49.9872 28.6842C50.1228 28.613 50.2425 28.5152 50.3394 28.3966C50.4363 28.278 50.5082 28.1411 50.551 27.9941C50.5938 27.8471 50.6066 27.693 50.5885 27.541C50.5241 26.3557 49.2953 26.2478 49.013 26.2478C48.7307 26.2478 45.1543 25.7725 45.1543 32.2362C45.1543 36.5952 48.0271 39.9807 50.6113 39.2583C51.9003 38.8971 52.0124 38.4675 52.0124 37.687C52.0124 36.9065 51.342 36.5018 50.6321 36.5018C50.3519 36.5018 49.8495 36.3295 49.424 37.3632C49.424 37.3819 48.8906 38.2267 48.8636 36.5454C48.8407 35.2522 49.3389 35.4494 49.7914 34.6918C49.7914 34.6918 49.3389 33.8511 48.4318 34.0462C48.4318 34.0462 48.3343 33.1412 48.0437 33.1412C47.8015 33.2768 47.5782 33.4436 47.3794 33.6373C47.3794 33.6373 47.9835 32.4521 48.1142 31.8688C48.245 31.2855 48.6519 30.4781 48.0478 30.5777C47.9015 30.6121 47.7573 30.6551 47.6161 30.7064C47.6161 30.7064 47.3753 30.6006 48.2388 30.2539C48.5605 30.1252 48.9072 29.9093 48.737 29.7599C48.5668 29.6104 48.3882 29.2638 47.3545 29.1995C47.4191 28.9709 47.5312 28.7587 47.6836 28.5766C47.836 28.3945 48.0252 28.2467 48.2388 28.1429C48.326 28.1014 48.3675 28.8549 49.5548 28.8113H49.5506Z" fill="#1D1D1B"/>
<path fill-rule="evenodd" clip-rule="evenodd" d="M11.8312 40.3255C11.8312 40.3255 11.1088 39.3562 12.8233 38.5591L13.2551 38.8185L14.376 38.9472C14.376 38.9472 15.4553 39.8938 15.584 40.3691C15.7127 40.8444 16.4517 42.5216 16.6592 44.3275C16.8668 46.1333 16.9748 46.7394 16.9623 47.6486C16.9187 50.6189 18.0894 53.7678 20.929 54.1102C23.0856 54.3676 24.2937 53.336 24.2937 53.336C24.2937 53.336 24.6382 55.6608 26.3694 56.8232C28.1005 57.9856 29.3023 57.9441 30.0787 58.3758C30.855 58.8076 31.8472 59.6212 31.9343 60.0115C31.9343 60.0115 33.1798 58.245 34.6494 57.7718C36.119 57.2985 37.024 57.5642 38.1428 55.9618C39.2616 54.3593 39.5667 53.4709 39.5667 53.4709C39.5667 53.4709 39.739 54.2452 42.2402 54.158C43.6309 54.1102 46.512 52.7818 46.7694 48.7736C47.0268 44.7654 46.2733 41.1496 49.831 38.8227C49.831 38.8227 51.2965 38.6919 51.7282 39.296C51.8535 39.459 51.9351 39.6514 51.9652 39.8548C51.9954 40.0582 51.9731 40.266 51.9005 40.4583C51.9005 40.4583 50.9104 39.9851 50.3936 40.3297C50.0882 40.5281 49.8712 40.8367 49.7875 41.1911C50.0662 41.1431 50.353 41.1888 50.6031 41.3209C50.8532 41.4531 51.0525 41.6644 51.1699 41.9217C51.2114 42.0089 50.0905 43.217 50.0033 43.7338C49.9161 44.2507 49.7958 45.0249 49.5737 45.3695C49.3516 45.714 48.8824 46.2745 48.8409 46.9221C49.3143 46.6989 49.8256 46.5672 50.3479 46.5339C50.4351 46.5339 50.5555 47.0487 50.5555 47.3082C50.5555 47.3082 52.6706 47.0798 52.6706 49.0746C52.6706 49.1618 51.3339 48.948 50.8606 49.936C50.8606 49.936 51.8071 50.3242 51.3754 51.2728C51.3754 51.2728 50.7298 51.1005 50.3853 51.3163C50.0407 51.5322 49.8663 51.9619 49.2187 52.1342C48.5711 52.3065 47.7097 52.4767 47.4502 52.7382C47.4502 52.7382 48.6956 52.925 49.0049 53.6432C49.0277 53.6951 49.09 53.9878 48.6583 54.2452C48.8579 54.4882 48.9876 54.7811 49.0333 55.0923C49.079 55.4036 49.0391 55.7214 48.9177 56.0116C48.9177 56.0116 47.992 56.3354 47.3215 55.968C47.2696 55.9389 47.3215 57.0058 46.8047 57.0889C46.2878 57.1719 46.1571 56.4413 45.7253 56.3997C45.2936 56.3582 44.3076 56.1922 43.9153 55.667C43.3971 55.8827 42.8349 55.9716 42.2755 55.9265C41.0695 55.8829 40.7665 55.5798 40.7665 55.5798C40.7665 55.5798 40.206 57.0889 39.0436 57.8216C39.0436 57.8216 40.1188 58.4671 40.289 58.984L39.6995 59.2829C39.6995 59.2829 40.3908 60.0986 40.3036 60.6612C40.2398 61.0206 40.0918 61.3599 39.8718 61.6513C39.8718 61.6513 39.3135 60.9185 38.7094 60.9185C38.1054 60.9185 37.8792 60.7463 37.8792 60.7463C37.8792 60.7463 37.9497 60.9352 37.3644 61.5205C37.3208 61.5662 37.408 60.877 36.1542 60.877C35.8723 60.7436 35.623 60.5502 35.4236 60.3104C35.1205 59.9679 34.776 60.1028 34.5186 60.2668C34.1737 60.4971 33.8555 60.7651 33.57 61.0659C33.3956 61.2735 32.9224 62.2927 31.9717 62.2055C31.021 62.1183 30.8508 61.6035 30.6142 61.1676C30.3464 60.6861 30.0973 60.1547 29.2131 60.1298C28.6028 60.1173 28.5655 60.5636 28.3496 60.6487C28.1337 60.7338 27.5733 60.6487 27.401 60.821C27.1608 61.1037 26.9442 61.4057 26.7534 61.7239C26.6247 61.9315 25.9771 61.2943 25.9356 60.6487C25.7293 60.6874 25.5271 60.7451 25.3315 60.821C24.9849 60.9497 24.3352 60.931 23.9512 61.122C23.864 61.1656 23.1956 59.8516 23.9948 59.0463C24.0384 59.0027 23.5672 58.8221 23.3887 58.3571C23.3658 58.3011 24.0799 57.7531 24.6341 57.668C24.2283 57.4294 23.8743 57.112 23.5931 56.7344C23.3118 56.3569 23.1089 55.9269 22.9964 55.4698C21.9886 55.8407 20.8952 55.9128 19.8475 55.6774C19.7602 55.8357 19.6415 55.9746 19.4988 56.0855C19.356 56.1965 19.1922 56.2773 19.0172 56.3229C18.3803 56.4594 17.7592 56.6611 17.1636 56.9249C16.955 56.6035 16.8354 56.2325 16.817 55.8497C16.817 55.8061 15.9992 55.7625 15.6089 55.7625C15.3419 55.7728 15.0789 55.8311 14.8326 55.9348C14.6891 55.6113 14.6495 55.2513 14.7194 54.9043C14.7893 54.5574 14.9652 54.2408 15.2229 53.9982C15.2519 53.9649 14.6749 53.6515 14.6188 53.0932C14.6188 53.0496 15.7646 53.0682 15.9992 52.4019C16.0179 52.348 15.4802 52.3584 14.9613 51.9702C14.4424 51.582 13.7533 50.9323 13.4087 50.9323C13.0641 50.9323 12.3293 51.1046 12.6324 50.2847C12.9354 49.4648 12.9334 49.552 12.9334 49.552C12.7677 49.2929 12.5802 49.0485 12.3729 48.8214C12.1155 48.564 11.7274 48.5204 11.3351 48.5204C10.9428 48.5204 11.3122 47.5282 11.7876 47.441C12.2629 47.3538 12.7715 47.14 13.5125 47.3974C13.554 47.412 13.17 46.5671 13.4481 46.3596C13.6204 46.2288 14.9572 46.7892 14.9572 46.7892C14.9572 46.7892 14.569 45.2387 14.1269 44.4624C13.8283 43.9057 13.6661 43.286 13.6536 42.6544C13.6536 42.4469 13.1347 41.7058 12.6158 41.5336C12.6158 41.5336 12.786 41.1039 14.0397 41.1039C14.0833 41.1039 13.7802 39.7671 11.7959 40.284L11.8312 40.3255Z" fill="#1D1D1B"/>
<path fill-rule="evenodd" clip-rule="evenodd" d="M33.6963 23.9856C33.6963 23.9856 33.9039 22.1362 36.2203 21.8746C37.1048 21.8056 37.9926 21.9539 38.8067 22.3064C38.8067 22.3064 38.7195 21.4014 39.0018 21.1648C39.2841 20.9281 40.9862 22.4994 40.9862 22.4994C40.9862 22.4994 40.6188 21.2872 41.8289 21.3578C42.1942 21.3786 42.4827 20.5607 43.6389 20.9696C43.8818 21.0568 43.7967 21.6671 43.724 21.9826C43.8529 21.9156 43.994 21.8754 44.1388 21.8643C44.2836 21.8533 44.4292 21.8716 44.5667 21.9182C44.5854 21.9182 44.4131 23.4252 44.739 23.8134C45.0649 24.2015 45.0836 24.3738 45.8142 24.3738C45.8371 24.3738 45.1043 23.9441 45.2351 23.2529C45.3659 22.5617 45.752 22.24 46.5698 22.2836C47.3876 22.3272 47.9086 23.2114 48.0228 23.4044C48.137 23.5975 48.3902 25.6026 46.1692 25.7957C43.9482 25.9887 43.2632 25.6649 40.9799 24.7578C38.6967 23.8507 37.7667 23.1408 36.9053 23.228C36.0439 23.3152 35.826 23.4003 35.6329 23.6431C35.7485 23.7342 35.8388 23.8534 35.8952 23.9893C35.9515 24.1252 35.972 24.2733 35.9547 24.4195C35.8924 24.9135 35.6765 25.2497 34.8566 25.2497C34.0367 25.2497 33.6921 24.627 33.7129 23.9773L33.6963 23.9856Z" fill="#1D1D1B"/>
<path fill-rule="evenodd" clip-rule="evenodd" d="M15.9727 23.5021C15.9727 23.5021 15.9727 22.101 17.2451 22.1446C18.3452 22.1819 18.4095 22.813 18.4095 23.0932C18.4095 23.3734 18.258 23.8674 17.8055 23.9546C17.9812 24.1139 18.2014 24.2158 18.4366 24.2466C18.6717 24.2774 18.9107 24.2356 19.1215 24.1269C19.8542 23.7387 19.8314 22.6178 19.875 22.3812C19.9186 22.1446 19.875 21.9951 20.5226 21.9951C20.5434 21.9951 20.6077 20.3138 22.0524 20.9573C22.7976 21.2894 23.111 21.8851 22.8287 22.595C22.8287 22.595 23.6922 21.6049 24.1883 21.3496C24.6844 21.0943 25.1805 21.142 25.332 21.306C25.4337 21.4243 25.4171 21.9287 25.2241 22.1674C25.031 22.4061 25.6766 21.7377 26.9697 21.5862C28.2629 21.4347 29.8757 21.937 30.6354 23.3734C30.7267 23.5519 30.8949 24.3012 30.5711 24.7745C30.2473 25.2478 29.8383 25.3972 29.2551 25.4429C28.6718 25.4885 27.854 25.0755 27.8332 24.3448C27.8123 24.1165 27.8819 23.889 28.0272 23.7116C28.1724 23.5341 28.3816 23.4209 28.6095 23.3962C28.7583 23.3883 28.9067 23.4175 29.0413 23.4813C29.0413 23.4813 28.7175 22.9209 27.4658 23.0517C26.2142 23.1824 23.6922 24.3863 22.5485 24.9198C21.4048 25.4532 20.6949 25.8227 18.7977 25.8227C16.9005 25.8227 16.1449 24.5088 15.9727 23.4979V23.5021Z" fill="#1D1D1B"/>
<path fill-rule="evenodd" clip-rule="evenodd" d="M14.656 28.7808C14.656 28.7808 13.4708 28.5857 13.5351 27.4005C13.5995 26.2152 14.8283 26.1094 15.1106 26.1094C15.3929 26.1094 19.1873 26.1301 19.098 32.0978C19.0337 36.4568 16.0571 39.9605 13.5144 39.1199C11.6462 38.4972 11.9825 37.3099 12.2191 36.8781C12.4558 36.4464 13.2757 35.888 13.9233 36.189C14.5709 36.49 14.546 37.1376 14.3114 37.6544C14.3114 37.6731 15.1417 37.9139 15.1417 36.2326C15.1417 34.5513 14.2367 34.682 14.4297 33.8621C14.4297 33.8621 14.7536 33.5404 15.5091 34.0136C15.5091 34.0136 15.7769 33.1086 16.0696 33.1086C16.3188 33.1859 16.5473 33.3186 16.7379 33.4968C16.7379 33.4968 15.9616 32.2514 15.8308 31.666C15.7001 31.0807 15.4655 30.3376 16.0696 30.4372C16.2157 30.473 16.3598 30.5167 16.5013 30.568C16.5013 30.568 16.5428 30.3314 15.6586 30.0283C14.7743 29.7252 14.8615 29.6401 15.0359 29.4907C15.2102 29.3412 15.5548 28.9074 16.5885 28.8452C16.5885 28.8452 16.5262 27.9817 15.7914 27.6163C15.7042 27.5727 15.8329 28.8223 14.6477 28.7808H14.656Z" fill="#1D1D1B"/>
<path fill-rule="evenodd" clip-rule="evenodd" d="M37.3208 49.631C37.3208 49.631 38.0743 49.8572 38.3587 50.4073C38.3712 50.426 37.9062 50.9885 37.9062 50.9885C37.9062 50.9885 38.3815 51.1172 38.4023 51.3538C38.4023 51.3538 39.1578 51.2687 39.353 51.8271C39.601 51.7726 39.8529 51.7372 40.1064 51.7212C40.1272 51.7212 39.0686 50.3741 39.0686 50.3741L40.0836 51.0321C40.0836 51.0321 40.2912 50.8577 40.1272 50.1914C39.9632 49.5251 39.7598 49.5438 39.7598 49.0062C39.669 49.0284 39.5855 49.074 39.5178 49.1385C39.4501 49.2029 39.4004 49.284 39.3737 49.3736C39.3737 49.3736 38.7904 48.8983 38.834 48.2735C38.834 48.2735 38.5746 48.3606 38.5538 48.5744C38.5538 48.5744 37.9871 48.0763 38.2736 47.0447C38.2736 47.0177 38.066 47.0447 37.9519 47.3477C37.8358 47.3363 37.7187 47.344 37.6052 47.3705C37.5488 47.6574 37.5951 47.955 37.736 48.2112C37.736 48.2299 37.3208 48.1676 37.1299 48.1863C37.1299 48.1863 37.5616 48.7488 37.6052 49.0498C37.6488 49.3508 37.5824 49.5251 37.325 49.631H37.3208Z" fill="#009879"/>
<path fill-rule="evenodd" clip-rule="evenodd" d="M41.3076 52.9269C41.4581 52.8068 41.5821 52.6568 41.6717 52.4864C41.7614 52.316 41.8148 52.1288 41.8286 51.9368C41.8473 51.3141 41.9552 51.4407 42.1296 51.1169C42.304 50.7931 42.6672 50.4506 42.6672 49.9545C42.6672 49.4584 42.6444 48.6406 42.279 49.2654C41.9137 49.8901 41.9552 49.9317 41.9137 50.2555C41.8722 50.5793 41.7394 50.6706 41.5878 50.9882C41.4357 51.3214 41.3409 51.6779 41.3076 52.0427V52.9269Z" fill="#009879"/>
<path fill-rule="evenodd" clip-rule="evenodd" d="M42.5181 50.9882C42.5181 50.9882 42.5825 51.2456 43.0558 50.9674C43.7532 50.5523 43.8985 50.7598 44.2638 50.3198C44.2262 50.2119 44.2162 50.0963 44.2347 49.9836C44.2532 49.8708 44.2996 49.7645 44.3697 49.6742C44.58 49.5565 44.8279 49.5252 45.0609 49.5871C45.0609 49.5871 44.9301 49.093 45.1045 48.8336C45.1169 48.8149 44.3697 48.5118 45.256 47.6276C45.2768 47.6068 44.4444 47.8352 44.3074 47.4761C44.2703 47.5383 44.2156 47.5881 44.1502 47.6191C44.0848 47.6501 44.0116 47.6611 43.94 47.6504C43.9192 47.6504 43.9566 48.1071 43.7013 48.3603C43.6805 48.3832 43.3588 48.1009 43.3152 48.5326C43.3048 48.6548 43.2687 48.7734 43.2094 48.8807C43.15 48.988 43.0686 49.0816 42.9706 49.1553C42.9706 49.1553 42.842 49.585 43.0765 49.6286C43.3111 49.6722 43.3588 49.4355 43.529 49.091C43.6992 48.7464 43.639 49.0266 43.8757 48.8543C44.1123 48.6821 44.2202 48.4869 44.3074 48.5534C44.3946 48.6198 44.3489 48.7879 44.1351 48.9415C43.9213 49.0951 43.7013 49.1138 43.72 49.3068C43.7387 49.4999 43.7636 49.4999 43.3962 49.722C43.0288 49.9441 43.0101 50.1101 43.0288 50.2617C43.0474 50.4132 42.9873 50.5211 42.7714 50.627C42.5555 50.7329 42.4704 50.9072 42.514 50.9944L42.5181 50.9882Z" fill="#009879"/>
<path fill-rule="evenodd" clip-rule="evenodd" d="M41.3745 50.3845C41.3745 50.3845 40.7912 49.2865 41.0299 48.2299C41.0299 48.2299 39.5395 47.9289 39.6267 46.8309C39.7139 45.7328 40.2743 46.6379 40.2743 46.6379C40.2743 46.6379 40.1664 45.9321 40.814 46.3348C40.8348 46.3473 40.7269 45.8408 41.1358 45.7764C41.1885 45.7657 41.243 45.7663 41.2955 45.7783C41.348 45.7903 41.3974 45.8134 41.4402 45.846C41.4831 45.8786 41.5185 45.9201 41.544 45.9675C41.5695 46.0149 41.5846 46.0673 41.5883 46.121C41.5883 46.121 41.9785 45.5585 42.0864 46.1418C42.0864 46.1418 42.6676 45.7536 42.6033 46.6586C42.5389 47.5636 42.4725 47.7359 41.3952 48.2112C41.3765 48.2112 41.2458 49.1785 41.3745 49.6103C41.5032 50.042 41.526 50.0835 41.3745 50.3845Z" fill="#009879"/>
<path fill-rule="evenodd" clip-rule="evenodd" d="M12.1548 39.7441C12.1548 39.7441 12.4143 38.947 13.558 39.1214C14.4796 39.2604 15.368 40.4996 16.0156 43.773C16.6633 47.0464 16.2232 50.4526 16.8771 51.4863C17.5309 52.52 18.467 54.465 20.9309 54.7161C23.044 54.9237 23.951 54.2014 23.951 54.2014C24.2011 55.0604 24.6514 55.8478 25.2648 56.4991C25.8782 57.1504 26.6373 57.6469 27.4797 57.948C30.4106 59.0253 30.9711 59.2847 32.0089 60.9204C32.0089 60.9204 33.1713 59.1125 34.2486 58.552C35.3259 57.9916 36.6232 57.9916 37.5697 57.2589C38.5163 56.5261 39.469 55.2766 39.77 54.1142C39.77 54.1142 40.4591 54.6725 42.0989 54.631C43.7387 54.5895 47.2736 53.2818 47.3608 48.1258C47.3982 45.9774 46.846 43.5156 48.4402 41.0165C48.82 40.4166 49.3369 39.0882 50.5159 39.2065C51.3773 39.2937 51.4417 39.852 51.4417 39.852C51.4417 39.852 49.5735 39.0363 48.8761 42.2661C48.8761 42.2661 50.0405 41.2967 50.4723 42.0294C50.1062 42.2642 49.8264 42.6117 49.6752 43.0195C49.4158 43.7087 49.3929 44.3127 49.2206 44.6573C49.0484 45.0018 48.3904 45.9712 48.3156 46.5254C48.2195 47.0225 48.2124 47.5328 48.2949 48.0324C48.2949 48.0552 49.6088 46.762 49.9762 47.1274C50.3436 47.4927 49.8683 48.2254 49.8683 48.2254C50.064 48.1635 50.2671 48.1279 50.4723 48.1195C50.4723 48.1195 50.8189 47.7044 51.1199 47.7044C51.4209 47.7044 51.8755 47.7044 52.1329 48.4786C52.1536 48.5451 51.5932 48.4579 51.2901 48.7153C51.0314 48.8973 50.8001 49.1154 50.6031 49.3629C50.3955 49.6639 49.9098 49.778 49.8247 50.052C50.1235 50.0168 50.4258 50.0771 50.6882 50.2243C50.7777 50.2804 50.8495 50.3606 50.8954 50.4557C50.9413 50.5508 50.9594 50.657 50.9476 50.7619C50.8147 50.734 50.6775 50.7331 50.5441 50.7591C50.4108 50.7851 50.284 50.8376 50.1713 50.9134C49.8039 51.1729 49.5216 51.3867 49.1771 51.6005C48.8325 51.8143 48.079 51.7749 47.6473 52.0322C47.1993 52.2925 46.8504 52.694 46.6551 53.1739C46.6551 53.1739 47.2778 52.9808 47.6929 53.1552C48.1081 53.3296 48.4257 53.5703 48.4257 53.7779C48.4257 53.9855 48.297 53.9294 48.0583 53.9294C47.8195 53.9294 47.4023 53.7053 46.8959 53.973C47.0614 53.9352 47.2338 53.941 47.3965 53.9897C47.5591 54.0385 47.7063 54.1285 47.8237 54.2512C48.3177 54.7037 48.7495 55.1354 48.3821 55.5236C48.0147 55.9117 47.1366 55.7311 46.2918 55.0275C46.2524 54.9943 46.3126 55.3077 46.5264 55.4571C46.7402 55.6066 47.0764 56.0923 46.7007 56.4265C46.4932 56.6216 46.2856 55.974 45.7293 55.974C45.173 55.974 44.5669 55.7332 43.9401 55.1769C43.9131 55.152 42.8171 55.8764 40.9863 55.2641C40.9407 55.2475 40.4051 54.7909 40.0606 55.5443C39.716 56.2978 38.8774 57.5204 38.1198 57.9791C38.0098 58.0435 37.9662 58.2593 38.2464 58.2593C38.5266 58.2593 39.3486 58.1722 39.4545 58.5832C39.5603 58.9941 39.1099 59.0336 39.1099 59.0336C39.1099 59.0336 38.9376 59.0772 38.9604 59.2059C38.9833 59.3346 39.1099 59.3782 39.2614 59.4425C39.413 59.5068 39.6766 59.7123 39.8198 60.5426C39.8634 60.8 39.8011 60.7792 39.5852 60.8C39.3694 60.8208 39.002 60.4783 38.5702 60.5198C38.1385 60.5613 37.8728 60.3122 37.6445 59.8535C37.6237 59.8099 37.686 60.5841 37.1691 60.607C36.6523 60.6298 36.4572 60.607 35.9237 60.1109C35.3902 59.6148 35.4484 59.6148 35.1246 59.6148C34.8007 59.6148 34.0016 59.8742 33.2274 60.8228C32.4531 61.7714 32.5797 61.7963 32.0421 61.813C31.2637 61.8337 31.1351 60.9079 30.8984 60.6277C30.6969 60.3478 30.4259 60.1252 30.1121 59.9818C29.7984 59.8384 29.4527 59.7791 29.1092 59.8099C28.0713 59.8971 28.5695 59.8307 28.3308 59.9386C28.0921 60.0465 28.009 60.2416 27.7932 60.2832C27.5773 60.3247 27.0376 60.5655 26.9297 60.7149C26.8217 60.8644 26.4211 61.13 26.3692 60.5073C26.3485 60.25 26.5394 60.0424 26.2841 59.9054C26.0288 59.7684 25.9603 60.2915 25.3355 60.3558C24.7108 60.4202 24.7128 60.5509 24.1711 60.5073C24.1482 60.5073 24.0195 59.2806 24.9474 59.0647C24.9681 59.0647 24.8955 58.7554 24.4949 58.6766C24.3849 58.6537 24.3205 58.5666 24.3205 58.4171C24.3205 58.2677 24.4721 58.0518 25.6801 58.0933C25.7009 58.0933 24.0445 56.7669 23.3512 55.1666C23.3512 55.1541 21.8836 55.7477 19.6855 55.2288C19.4763 55.5095 19.2121 55.7447 18.9092 55.92C18.4338 56.1774 17.7883 56.0051 17.3981 56.1567C17.3981 56.1567 16.8791 55.837 17.6804 55.0358C17.7011 55.015 17.809 54.8407 17.7011 54.7784C17.5932 54.7161 17.4624 54.9507 17.3358 55.0565C17.2092 55.1624 17.205 55.4447 16.4079 55.4011C16.0177 55.362 15.6236 55.3915 15.2435 55.4883C15.2435 55.4883 14.8989 54.3031 16.4079 53.8941C16.4079 53.8941 15.5445 54 15.5777 53.5267C15.6109 53.0535 16.1589 52.8376 16.8916 52.9684C16.9144 52.9684 16.547 51.8683 15.7271 51.7832C14.9072 51.6981 14.82 51.559 14.5191 51.202C14.2506 50.935 13.9035 50.7611 13.5289 50.7059C13.4606 50.6552 13.4107 50.5835 13.3871 50.5017C13.3635 50.42 13.3674 50.3327 13.3982 50.2534C13.4854 49.9296 13.8465 49.6452 14.6436 50.0147C14.4959 49.7906 14.2763 49.6237 14.0209 49.5414C13.6763 49.4771 13.4397 49.3712 13.0951 48.9415C12.7506 48.5119 12.5347 48.3811 12.3188 48.3354C12.1029 48.2898 12.0386 48.1652 12.0593 48.0116C12.0801 47.858 12.5554 47.6484 12.8564 47.6691C13.1574 47.6899 13.4189 47.6048 14.216 48.2275C14.2658 48.0186 14.2431 47.799 14.1517 47.6048C14.0613 47.4017 14.031 47.1769 14.0645 46.9572C14.0645 46.9572 14.9072 46.9572 15.5963 48.1424C15.6235 47.411 15.5165 46.6807 15.2808 45.9878C14.8948 44.7839 14.5045 44.2234 14.3758 43.6609C14.2471 43.0984 14.1828 42.3698 14.0084 42.1747C13.9127 42.0874 13.8365 41.9809 13.7846 41.8622C13.7328 41.7435 13.7065 41.6151 13.7075 41.4856C13.8801 41.4668 14.0543 41.5047 14.2035 41.5935C14.5232 41.7554 14.4402 41.8302 14.764 41.853C14.764 41.853 14.9363 39.441 12.1548 39.742V39.7441Z" fill="#FFDF00"/>
<path fill-rule="evenodd" clip-rule="evenodd" d="M50.7005 36.9545C50.7005 36.9545 51.564 36.9545 51.4768 37.7723C51.3897 38.5901 50.7856 39.0177 49.7519 39.0655C48.7182 39.1132 45.8268 36.9794 45.6109 32.1928C45.395 27.4062 48.0893 26.5531 48.9092 26.5324C49.7291 26.5116 50.0301 27.3253 50.0301 27.4976C50.0301 27.6699 49.9886 28.3818 49.343 28.3818C48.6975 28.3818 48.6518 28.2075 48.6518 27.9065C48.6518 27.6055 49.0669 27.2609 49.0669 27.2609C48.7317 27.312 48.41 27.4291 48.1204 27.6055C47.6015 27.9065 47.342 28.1867 46.9975 29.0481C46.6529 29.9095 46.437 30.5156 46.437 30.5156C46.437 30.5156 47.2984 29.4384 47.7323 29.4778C48.1661 29.5172 48.4857 29.7788 47.8381 30.1669C47.1905 30.5551 46.437 30.9848 46.437 32.4938C46.437 32.5374 46.7422 31.4746 47.3213 31.1363C47.8381 30.8332 48.054 30.9412 47.8153 31.5224C47.6409 31.9541 46.9477 33.3677 46.8895 33.8056C46.7837 34.5944 46.682 35.2482 47.2362 35.8502C47.2362 35.8502 47.2133 34.6235 47.3856 34.2789C47.5579 33.9343 47.9668 33.7828 47.9668 34.2145C47.9567 34.4351 47.9942 34.6553 48.0768 34.8601L48.4214 34.6235C48.4214 34.6235 49.2828 34.2083 48.8096 34.9037C48.3363 35.599 48.1868 36.0889 48.3155 36.6058C48.4442 37.1226 48.7618 38.2663 49.9304 38.3058C50.5531 38.3286 50.7296 37.8906 50.7296 37.8906C50.7296 37.8906 50.576 37.9778 50.1899 37.8055C49.8038 37.6332 49.8868 36.9005 50.7067 36.9441L50.7005 36.9545Z" fill="#FFDF00"/>
<path fill-rule="evenodd" clip-rule="evenodd" d="M13.3378 36.533C13.3378 36.533 12.3 36.7924 12.3892 37.6123C12.4785 38.4322 13.2527 38.8183 14.2864 38.8578C15.3201 38.8972 18.2988 36.8319 18.5146 32.0495C18.7305 27.267 15.9262 26.4451 15.1084 26.4451C14.84 26.4476 14.581 26.5438 14.376 26.717C14.1709 26.8902 14.0328 27.1295 13.9854 27.3937C13.9854 27.5659 14.0726 28.2987 14.7182 28.2987C15.3637 28.2987 15.206 28.1368 15.206 27.8316C15.206 27.5265 14.8178 27.184 14.8178 27.184C14.9823 27.1101 15.1617 27.0756 15.3419 27.0832C15.522 27.0908 15.6979 27.1402 15.8557 27.2276C16.3746 27.5307 16.8063 28.0475 17.1509 28.9069C17.4955 29.7662 17.7113 30.3723 17.7113 30.3723C17.7113 30.3723 16.8478 29.2971 16.4182 29.3344C15.9885 29.3718 15.426 29.3344 16.0715 29.7226C16.7171 30.1108 17.84 31.2732 17.84 32.7822C17.84 32.8237 17.2796 31.2316 16.634 31.0573C15.9885 30.8829 16.03 30.9286 16.2023 31.3603C16.3746 31.7921 17.2796 33.1703 17.1945 33.7723C17.1094 34.3742 17.1945 35.2793 16.634 35.8833C16.634 35.8833 16.7191 34.5486 16.5469 34.204C16.3746 33.8595 16.0155 33.7412 16.0155 34.1563C16.0329 34.3655 15.9874 34.5751 15.8847 34.7583L15.4135 34.422C15.4135 34.422 14.6787 34.0359 15.1541 34.725C15.3571 35.0083 15.5001 35.3301 15.5743 35.6706C15.6486 36.0111 15.6525 36.3632 15.5858 36.7053C15.4571 37.2221 15.2392 38.1292 14.0768 38.2579C13.9802 38.2779 13.8805 38.2779 13.7838 38.258C13.6872 38.2381 13.5956 38.1987 13.5148 38.1421C13.4339 38.0855 13.3655 38.0131 13.3136 37.9291C13.2618 37.8451 13.2276 37.7515 13.2133 37.6539C13.4087 37.6676 13.6038 37.6228 13.7737 37.5252C14.1619 37.3508 14.1619 36.4873 13.342 36.533H13.3378Z" fill="#FFDF00"/>
<path fill-rule="evenodd" clip-rule="evenodd" d="M34.7964 24.8158C34.7964 24.8158 33.9661 24.6436 34.1924 23.6742C34.4186 22.7048 35.4233 22.2212 36.1103 22.1216C36.7974 22.0219 37.7086 22.0365 39.1948 22.6841C39.1316 22.3716 39.0962 22.0542 39.089 21.7355C39.1097 21.4553 39.2177 21.3473 39.7345 21.7563C40.2514 22.1652 41.8289 23.8901 41.8289 23.8901C41.8289 23.8901 41.0401 21.9078 41.5258 21.9078C41.5466 21.9078 41.9555 21.7998 42.0635 22.8335C42.0635 22.8335 42.2586 21.173 43.0764 21.1958C43.0764 21.1958 43.7448 20.7661 42.8418 23.5663C42.8418 23.5663 43.6721 21.8434 44.1973 22.1444C44.1973 22.1444 43.8548 24.5294 45.5797 24.6643C46.958 24.7722 46.9144 23.998 46.9144 23.998C46.9144 23.998 46.7068 24.1475 46.2481 24.0188C45.7893 23.8901 45.8142 23.4583 45.8142 23.2632C45.853 23.0876 45.9521 22.9312 46.0944 22.8212C46.2366 22.7112 46.4129 22.6546 46.5926 22.6613C47.0451 22.7048 47.5412 22.9851 47.5412 23.587C47.5412 24.189 47.3918 25.5693 45.1479 25.4821C42.9041 25.395 40.1227 23.9337 38.8939 23.3296C38.1646 22.968 37.3579 22.7905 36.5442 22.8128C36.5442 22.8128 35.2074 22.8771 34.9044 23.9337C35.0372 23.8645 35.1868 23.8343 35.3361 23.8465C35.5084 23.8901 35.6163 24.0541 35.5727 24.3633C35.5291 24.6726 35.251 24.8594 34.7964 24.8158Z" fill="#FFDF00"/>
<path fill-rule="evenodd" clip-rule="evenodd" d="M17.0288 23.4786C17.2435 23.5566 17.469 23.6007 17.6972 23.6094C17.9339 23.5865 18.129 23.3707 18.0646 22.9638C18.0003 22.557 17.6972 22.4034 17.2343 22.4677C16.7715 22.5321 16.4041 23.1776 16.5224 23.7381C16.6407 24.2985 16.8877 25.3986 18.8285 25.4401C20.7693 25.4816 21.8694 24.7282 23.121 24.1677C24.3727 23.6073 27.0649 22.3162 28.4037 22.8331C29.7425 23.3499 29.6118 24.1906 29.6118 24.1906C29.6118 24.1906 29.1966 23.7754 28.877 23.846C28.8048 23.8572 28.7358 23.8832 28.6742 23.9224C28.6126 23.9616 28.5599 24.0132 28.5193 24.0739C28.4787 24.1346 28.4512 24.2031 28.4384 24.275C28.4257 24.3468 28.428 24.4206 28.4452 24.4915C28.4919 24.6652 28.5967 24.8175 28.7421 24.9233C28.8876 25.029 29.0648 25.0818 29.2444 25.0727C29.6595 25.052 30.4524 24.6846 30.3445 23.9975C30.2365 23.3105 29.5142 21.8824 26.959 21.9509C26.1391 21.9716 24.2419 22.9887 24.2419 22.9887C24.2419 22.9887 25.3192 21.6541 25.0597 21.4589C24.8003 21.2638 24.3063 21.5876 23.6379 22.2124C22.9695 22.8372 22.818 23.4412 22.0624 23.7422C22.0624 23.7422 22.6229 22.7521 22.5378 22.2124C22.4527 21.6727 22.4091 21.7392 22.3011 21.7392C22.1932 21.7392 22.106 21.8471 22.0417 22.063C21.9773 22.2788 21.805 22.7293 21.805 22.7293C21.805 22.7293 21.6971 21.8243 21.5456 21.5669C21.3941 21.3095 21.338 21.0915 21.1574 21.1787C21.0464 21.2308 20.9562 21.3186 20.9012 21.4282C20.8462 21.5378 20.8297 21.6627 20.8544 21.7827C20.9 22.1252 21.1782 22.5134 20.7921 23.4827C20.7921 23.4827 20.6613 22.256 20.2524 22.3639C19.8435 22.4719 20.186 23.1942 19.9722 23.5907C19.7584 23.9871 19.5197 24.421 18.5919 24.4749C17.664 24.5289 17.2551 24.0868 17.0392 23.4827L17.0288 23.4786Z" fill="#FFDF00"/>
<path fill-rule="evenodd" clip-rule="evenodd" d="M38.2051 49.3091C38.2591 49.4753 38.3467 49.6286 38.4625 49.7595C38.614 49.8903 38.7655 50.0169 38.8776 49.8903C38.9897 49.7637 38.8548 49.6101 38.6825 49.4751C38.5377 49.3874 38.3768 49.3296 38.2092 49.3049L38.2051 49.3091Z" fill="#1D1D1B"/>
<path fill-rule="evenodd" clip-rule="evenodd" d="M39.93 45.9692C39.93 45.9692 39.8636 46.2702 40.1666 46.2058C40.1966 46.1462 40.243 46.0963 40.3004 46.0621C40.3578 46.0279 40.4237 46.0108 40.4904 46.0128C40.5133 46.0128 40.3617 45.5167 39.93 45.9692Z" fill="#009879"/>
<path fill-rule="evenodd" clip-rule="evenodd" d="M28.1084 38.2268C28.2955 37.9753 28.5397 37.7719 28.8208 37.6333C29.1019 37.4947 29.412 37.4249 29.7254 37.4297C30.0263 37.4297 30.1571 37.6373 30.5224 37.7099C30.6631 37.7473 30.8089 37.762 30.9542 37.7535C30.9542 37.7535 31.1182 37.1079 30.9106 36.8485C30.8981 36.8319 31.1057 36.7405 31.2344 37.2802C31.2344 37.2802 31.6226 37.602 31.6226 36.697C31.6226 36.6762 32.0543 37.7867 32.2702 36.5454C32.2702 36.5247 32.3138 37.7307 33.2188 36.5683C33.2188 36.5683 32.3553 37.7099 33.3475 37.6227C34.3397 37.5355 35.1907 37.8635 35.527 38.4634C35.6204 38.6336 34.8358 38.9823 34.6406 38.9595C34.4455 38.9366 35.0558 39.3891 34.9852 39.7358C34.9146 40.0824 33.9204 40.2796 33.2084 39.9247C33.1648 39.9039 33.7149 40.7902 33.5862 40.921C33.5633 40.9397 33.335 40.5598 33.0444 40.5972C33.0133 40.5972 32.6583 42.4342 31.9671 42.4653C31.0372 42.5131 30.8649 40.9874 30.8006 40.5142C30.8006 40.5142 30.5204 40.4498 30.4145 40.8733C30.4041 40.921 30.4353 40.2381 30.7591 40.236C30.7923 40.236 30.7176 40.0285 30.7404 39.8583C30.7404 39.8583 30.0886 40.2028 30.0658 40.3087C29.935 40.9646 29.6942 40.1779 29.7897 40.3087C29.5531 39.9828 28.3969 40.1447 28.3014 39.6652C28.2599 39.4576 28.6688 39.2355 28.7768 39.1069C28.8847 38.9782 28.8619 38.8474 28.6688 38.7187C28.4407 38.6069 28.247 38.4355 28.1084 38.2226V38.2268Z" fill="#1D1D1B"/>
<path fill-rule="evenodd" clip-rule="evenodd" d="M20.6904 28.0369C20.6904 28.0369 21.3816 28.4521 21.3816 27.6716C21.3816 27.628 22.0043 27.7152 21.5892 27.1983C21.5892 27.1983 22.1517 27.134 21.7407 26.7458C21.869 26.6939 21.9829 26.6119 22.0728 26.5068C22.1628 26.4017 22.2261 26.2765 22.2576 26.1418C22.4091 25.6457 22.5606 25.6685 22.7973 25.7972C23.0339 25.9259 23.036 25.6685 23.0567 25.4527C23.0775 25.2368 23.337 25.3883 23.337 25.3883C23.337 25.3883 23.53 25.0437 23.6815 25.0873C23.833 25.1309 23.8766 25.5025 24.1133 25.5025C24.3499 25.5025 24.5014 24.9856 24.5014 24.9856C24.5014 24.9856 24.6945 24.8341 24.8896 25.0936C25.0164 25.2817 25.104 25.4935 25.147 25.7163C25.147 25.7163 25.2985 25.9093 25.4064 25.9238C25.5144 25.9384 25.5351 26.0982 25.6866 26.119C25.8382 26.1397 25.8942 25.8595 26.0748 25.8595C26.2554 25.8595 26.4899 25.8823 26.463 26.1833C26.436 26.4843 26.4214 26.8724 26.4214 26.8724C26.5456 26.909 26.6623 26.9673 26.766 27.0447C26.9383 27.1734 27.1106 27.1734 27.0877 27.3249C27.0649 27.4765 27.0026 27.5201 26.8096 27.6903C26.6166 27.8605 26.355 28.122 26.6581 28.1054C26.9611 28.0888 27.3908 28.1469 27.2808 28.3628C27.1708 28.5787 26.9777 28.7779 27.0732 28.9232C27.1644 29.0382 27.2838 29.1276 27.4199 29.1827C27.4199 29.1827 27.5693 29.3114 27.3534 29.4193C27.1078 29.5223 26.887 29.6766 26.7058 29.8718C26.6 30.0441 26.4692 30.2164 26.4048 30.3015C26.3321 30.3863 26.253 30.4654 26.1682 30.5381C26.1682 30.5381 25.9959 30.8412 26.2326 30.6897C26.4692 30.5381 26.6477 30.4323 26.6477 30.2745C26.6455 30.2459 26.6517 30.2172 26.6654 30.192C26.6791 30.1668 26.6997 30.146 26.7249 30.1322C26.7501 30.1184 26.7787 30.1122 26.8074 30.1142C26.836 30.1163 26.8634 30.1265 26.8864 30.1438C26.9715 30.2102 27.2517 30.3825 26.9715 30.5319C26.6913 30.6814 26.519 30.7914 26.4547 30.9201C26.3662 31.0569 26.2458 31.1702 26.1039 31.2501C25.9959 31.3144 25.9731 31.4867 26.1039 31.6383C26.2346 31.7898 26.5564 32.0243 26.4484 32.3046C26.3405 32.5848 26.1682 32.5848 26.1246 32.9729C26.1001 33.4037 26.2057 33.8318 26.4277 34.2017C26.6 34.4093 26.8573 34.8037 26.5335 34.976C26.2097 35.1483 23.8185 36.2463 21.5103 34.8473C21.0682 34.5775 21.4667 34.2433 21.5954 33.9859C21.7241 33.7285 22.1995 32.9086 22.05 32.672C21.9006 32.4353 21.747 32.3481 21.8424 32.0908C21.9379 31.8334 22.2078 31.7462 22.1434 31.5075C22.0791 31.2688 21.884 30.7748 21.583 30.561C21.282 30.3472 20.9354 30.1728 21.0225 29.9569C21.1097 29.7411 21.1741 29.6331 21.3235 29.7639C21.473 29.8947 21.4958 30.0877 21.6681 30.0877C21.7067 30.0869 21.7448 30.0784 21.78 30.0626C21.8153 30.0469 21.847 30.0242 21.8733 29.9959C21.8997 29.9676 21.9201 29.9344 21.9333 29.8981C21.9465 29.8618 21.9523 29.8232 21.9504 29.7847C21.9275 29.656 21.884 29.6996 21.6909 29.5771C21.5184 29.4309 21.3724 29.256 21.2592 29.0602C21.1305 28.888 21.2799 28.7385 21.0516 28.5662C20.9624 28.5072 20.8859 28.4308 20.8267 28.3417C20.7675 28.2526 20.7268 28.1525 20.707 28.0473L20.6904 28.0369Z" fill="#1D1D1B"/>
<path fill-rule="evenodd" clip-rule="evenodd" d="M33.8867 38.4841C33.8867 38.4841 33.9511 38.8744 34.1254 38.9159C34.2998 38.9574 34.4243 38.9159 34.4036 38.81C34.3828 38.7042 34.059 38.6585 33.8867 38.4841Z" fill="white"/>
<path fill-rule="evenodd" clip-rule="evenodd" d="M32.8951 38.6794C32.8951 38.6794 33.8001 39.1963 34.3605 39.1112C34.3605 39.1112 34.7923 39.8647 34.0388 39.8232C33.2853 39.7816 32.7456 39.5201 32.8951 38.6794Z" fill="white"/>
<path fill-rule="evenodd" clip-rule="evenodd" d="M32.7878 38.0775C32.7878 38.0775 34.1266 37.214 34.8801 38.4428C34.8801 38.4428 34.4483 38.8746 33.7156 38.1833C33.671 38.264 33.6511 38.3561 33.6585 38.448C33.6659 38.54 33.7002 38.6277 33.7571 38.7002C33.7571 38.7002 33.0929 38.7708 32.8521 38.5279C32.7969 38.3846 32.7749 38.2306 32.7878 38.0775Z" fill="white"/>
<path fill-rule="evenodd" clip-rule="evenodd" d="M28.7129 39.6485C28.7129 39.6485 28.798 38.9822 30.2219 39.0673C30.2219 39.0673 29.9293 39.3559 29.9832 39.6257C29.9936 39.6568 30.3278 39.0237 30.7824 39.0237C30.8052 39.0237 30.3672 38.8515 30.3672 38.8515C30.3672 38.8515 30.4399 38.5505 30.6246 38.5505C30.6474 38.5505 30.2593 38.6356 30.1949 38.8099L29.3647 38.8743C29.2148 38.8436 29.0759 38.7736 28.9621 38.6715C28.8483 38.5693 28.7637 38.4387 28.717 38.2931C28.717 38.2703 28.9973 37.7306 29.4498 37.8178C29.4498 37.8178 29.4498 38.3574 29.6241 38.5277C29.6241 38.5277 29.6345 38.0544 30.0766 38.0959C30.0183 37.9847 29.9532 37.8773 29.8815 37.7742C30.2151 37.9632 30.6034 38.0321 30.9816 37.9693C30.9816 37.9693 30.8529 38.5277 31.2847 38.7228C31.1436 39.0033 30.9769 39.2701 30.7865 39.5198C30.7865 39.5198 30.3091 40.3128 29.8172 39.8229C29.7964 39.8001 29.5577 40.3605 28.6963 39.6485H28.7129Z" fill="white"/>
<path fill-rule="evenodd" clip-rule="evenodd" d="M30.4154 38.0337L30.0459 38.4052L30.6728 38.0171L30.4154 38.0337Z" fill="#1D1D1B"/>
<path fill-rule="evenodd" clip-rule="evenodd" d="M31.4071 38.1007C31.6195 38.1897 31.8455 38.2416 32.0755 38.2543C32.4636 38.275 32.6152 38.1443 32.6359 37.974C32.6376 37.9048 32.6256 37.8359 32.6006 37.7713C32.5756 37.7067 32.5382 37.6477 32.4903 37.5976C32.4425 37.5474 32.3853 37.5072 32.322 37.4792C32.2586 37.4512 32.1904 37.436 32.1211 37.4344C31.7309 37.4136 31.2784 37.6066 31.4071 38.1007Z" fill="#FFDF00"/>
<path fill-rule="evenodd" clip-rule="evenodd" d="M31.6436 38.5506C31.6806 38.6221 31.7366 38.682 31.8054 38.7237C31.8743 38.7655 31.9533 38.7874 32.0338 38.7872C32.3348 38.81 32.5299 38.7 32.5735 38.5796C32.6171 38.4592 32.3348 38.343 31.6436 38.5589V38.5506Z" fill="#FFDF00"/>
<path fill-rule="evenodd" clip-rule="evenodd" d="M31.0414 39.7999C31.0414 40.3312 31.8717 40.1112 31.853 40.2856C31.8343 40.4599 31.1265 40.242 31.1472 40.5969C31.1618 40.8045 31.4275 40.9207 31.9464 40.9394C32.4653 40.9581 32.7767 40.8336 32.7767 40.6613C32.8099 40.298 31.9277 40.3956 31.9298 40.2586C31.9319 40.1216 32.9676 40.2295 32.9282 39.7355C32.9054 39.4345 31.6018 39.6068 31.5914 39.4595C31.5811 39.3121 32.648 39.4117 32.6293 39.2187C32.6106 39.0256 32.156 38.9592 31.9609 38.9364C31.7658 38.9135 30.6968 39.1439 31.4129 39.4345C31.6579 39.5342 31.0352 39.503 31.0352 39.7999H31.0414Z" fill="#FFDF00"/>
<path fill-rule="evenodd" clip-rule="evenodd" d="M31.3428 41.1345C31.739 41.2966 32.1794 41.3157 32.5882 41.1885C32.5882 41.1885 32.4782 41.9731 31.9177 41.9731C31.3573 41.9731 31.3511 41.1428 31.3511 41.1428L31.3428 41.1345Z" fill="#FFDF00"/>
<path fill-rule="evenodd" clip-rule="evenodd" d="M21.703 28.6205C21.6785 28.6868 21.6714 28.7582 21.6823 28.8281C21.6847 28.9588 21.67 29.0893 21.6387 29.2162C21.6387 29.2162 21.7902 29.3241 21.8981 29.0875C22.0061 28.8509 22.0268 28.635 21.703 28.6143V28.6205Z" fill="#FFDF00"/>
<path fill-rule="evenodd" clip-rule="evenodd" d="M22.1792 28.1887C22.1792 28.1887 21.9716 28.3818 22.1148 28.4482C22.1592 28.467 22.2068 28.4767 22.255 28.4767C22.3031 28.4767 22.3507 28.467 22.3951 28.4482L22.3722 28.168L22.1792 28.1887Z" fill="#FFDF00"/>
<path fill-rule="evenodd" clip-rule="evenodd" d="M21.7258 28.0811C21.7258 28.0811 21.4871 28.3613 21.6822 28.4049C21.8773 28.4485 21.8752 28.3613 21.8752 28.2533C21.8752 28.1454 21.8337 28.0811 21.7258 28.0811Z" fill="#FFDF00"/>
<path fill-rule="evenodd" clip-rule="evenodd" d="M23.7522 25.5611L23.9889 25.8413C24.1196 25.9928 24.1632 25.9492 24.2691 25.7126C24.3749 25.476 24.5285 25.368 24.6365 25.4324C24.7115 25.4574 24.7758 25.5072 24.8188 25.5736C24.8618 25.64 24.8809 25.719 24.8731 25.7977C24.8731 26.0572 24.7652 26.3581 24.9167 26.5097C25.0682 26.6612 25.2613 26.6591 25.2613 26.5097C25.2613 26.3602 25.3485 26.3146 25.5207 26.4225C25.693 26.5304 26.0168 26.6301 25.8238 26.7671C25.6307 26.9041 25.3277 27.1552 25.5851 27.3067C25.8425 27.4583 26.0168 27.4998 26.1455 27.3275C26.2742 27.1552 26.1455 27.1199 26.2119 27.0037C26.2784 26.8874 26.4693 27.0265 26.5565 27.2113C26.6437 27.396 26.5773 27.4686 26.4693 27.5787C26.3614 27.6887 26.1891 27.5558 26.1455 27.6638C26.1019 27.7717 26.1891 27.944 26.104 28.0519C26.0189 28.1599 25.6889 28.2242 25.6494 28.3529C25.61 28.4816 25.4419 28.548 25.5643 28.6767C25.6868 28.8054 25.7366 28.9341 25.8238 28.849C25.911 28.7639 25.8238 28.6414 25.7802 28.5252C25.7366 28.4089 25.693 28.4401 25.9089 28.3965C26.1248 28.3529 26.2119 28.245 26.2763 28.3321C26.3047 28.3956 26.3558 28.4461 26.4195 28.4738C26.4833 28.5015 26.5551 28.5042 26.6209 28.4816C26.8575 28.4401 26.8575 28.548 26.8803 28.6767C26.9032 28.8054 26.9447 28.8054 26.7495 28.9569C26.5544 29.1084 26.2119 29.2579 26.1455 29.4302C26.0612 29.6077 26.0032 29.7964 25.9732 29.9906C25.9961 30.0778 26.0168 30.0778 26.104 30.055C26.1912 30.0321 26.1684 29.9055 26.1891 29.7748C26.2099 29.644 26.1684 29.5174 26.3178 29.5672C26.4673 29.617 26.4693 29.6979 26.4486 29.8038C26.4229 29.932 26.3634 30.0509 26.2763 30.1484C26.2162 30.2177 26.1716 30.2991 26.1455 30.3871C26.1404 30.427 26.1261 30.4652 26.1037 30.4987C26.0814 30.5321 26.0517 30.56 26.0168 30.5801C25.9089 30.6237 25.8238 30.6237 25.8093 30.5365C25.7947 30.4494 25.7657 30.3642 25.7657 30.3642C25.7657 30.3642 25.6162 30.4078 25.6577 30.5365C25.6992 30.6652 25.8528 30.6445 25.8528 30.7732C25.8528 30.9019 25.8528 31.0326 25.7449 31.0119C25.6434 31.0026 25.5411 31.0096 25.4419 31.0326C25.4568 30.8805 25.4427 30.727 25.4003 30.5801C25.336 30.495 25.1928 30.4078 25.1201 30.5365C25.0475 30.6652 25.1201 30.7316 25.2052 30.796C25.246 30.8382 25.2753 30.89 25.2906 30.9467C25.3058 31.0033 25.3065 31.0629 25.2924 31.1198C25.2696 31.2277 25.1409 31.2049 24.9686 31.1406C24.7963 31.0762 24.6012 30.8603 24.5368 30.4514C24.4725 30.0425 24.3002 30.0363 24.3002 30.0363C24.1831 30.0006 24.0781 29.9331 23.9972 29.8412C23.9121 29.7125 23.827 29.6481 23.9557 29.4758C24.0843 29.3036 24.1632 29.1956 24.1632 29.0441C24.1632 28.8926 23.9681 28.8075 23.8394 28.9798C23.7644 29.0805 23.7154 29.1981 23.6966 29.3223C23.6777 29.4464 23.6897 29.5733 23.7315 29.6917C23.8187 30.0135 23.9245 30.057 23.939 30.2729C23.9536 30.4888 23.8519 30.4805 23.9806 30.7898C24.0153 30.9087 24.082 31.0158 24.1736 31.0993C24.2651 31.1827 24.3779 31.2394 24.4995 31.263C24.6614 31.2889 24.82 31.332 24.9727 31.3917C25.1035 31.4581 25.3401 31.5993 25.1035 31.6304C24.8669 31.6616 24.6074 31.6719 24.3272 31.7155C24.047 31.7591 23.1835 31.8235 23.1835 31.8235C23.1835 31.8235 22.6189 32.1037 22.2992 31.0056C22.2992 30.9745 21.9111 30.8541 21.9111 30.5739C21.9111 30.2937 21.8675 30.2086 22.019 30.0799C22.1705 29.9512 22.2557 29.8848 22.2557 29.7332C22.2284 29.5925 22.1695 29.4597 22.0834 29.3451C22.0834 29.3451 21.9983 29.2828 22.1498 29.0877C22.3013 28.8926 22.3428 29.0026 22.4944 28.6559C22.6459 28.3093 22.6666 28.2408 22.6002 28.1183C22.5338 27.9959 22.3636 27.9253 22.2557 27.7738C22.1477 27.6222 22.0626 27.6222 22.127 27.4707C22.1913 27.3192 22.1913 27.0846 22.43 26.9331C22.6687 26.7816 22.7517 26.6757 22.731 26.4163C22.7102 26.1568 22.6231 26.1153 22.7746 26.0945C22.9261 26.0738 22.8389 26.2004 22.9676 26.2004C23.0963 26.2004 22.9884 26.0074 23.1399 26.0281C23.2914 26.0489 23.2271 26.0945 23.3143 26.2876C23.4014 26.4806 23.4865 26.6757 23.5716 26.3955C23.6568 26.1153 23.4865 25.5984 23.7439 25.5652L23.7522 25.5611Z" fill="#FFDF00"/>
<path fill-rule="evenodd" clip-rule="evenodd" d="M22.4706 32.0806C22.4706 32.0806 22.3627 32.5103 23.0103 32.5103C23.6579 32.5103 23.6143 32.4231 23.9381 32.4459C24.226 32.463 24.5149 32.4483 24.7996 32.4024C25.1441 32.3588 25.2313 32.4231 25.3828 32.3152C25.5343 32.2072 25.5551 32.2093 25.663 32.2093C25.771 32.2093 25.964 32.4024 25.9869 32.2301C26.0097 32.0578 25.7274 31.844 25.4243 31.8004C25.1213 31.7568 24.8867 31.9063 24.4986 31.9291C24.1104 31.9519 23.8945 32.0578 23.3985 32.037C22.9024 32.0163 22.7093 31.9499 22.4706 32.0806Z" fill="#FFDF00"/>
<path fill-rule="evenodd" clip-rule="evenodd" d="M21.9413 34.4572C21.9413 34.4572 22.0908 34.478 22.2215 34.0919C22.3199 33.8161 22.4422 33.5494 22.5869 33.2948C22.5289 33.6832 22.4351 34.0654 22.3066 34.4364C22.1779 34.6731 22.2423 35.0176 22.4374 35.0592C22.6325 35.1007 22.7591 34.9927 22.8027 34.7146C22.8463 34.4364 22.8899 34.1106 22.8899 34.1106C22.8899 34.1106 23.0414 33.766 23.0975 34.1977C23.1535 34.6295 23.0539 35.0799 23.1826 35.165C23.3113 35.2501 23.442 35.2314 23.6579 35.2729C23.8738 35.3145 24.1333 35.4037 24.0876 34.8578C24.0549 34.607 24.0626 34.3526 24.1104 34.1043L24.3471 34.1915C24.3471 34.1915 24.3471 33.8241 24.154 33.6954C23.961 33.5667 24.3263 33.5231 24.4986 33.7598C24.6709 33.9964 24.5629 34.1479 24.5401 34.4281C24.5173 34.7084 24.5193 35.246 24.7788 35.2252C25.0383 35.2044 25.1234 35.0176 25.1234 34.6855C25.1234 34.6648 25.167 35.1007 25.4036 35.1007C25.6402 35.1007 25.6112 34.6502 25.3185 34.0898C25.2956 34.0462 25.663 34.4074 25.9412 34.1541C25.9578 34.1396 26.1488 32.7759 25.7461 32.7759C25.7253 32.7759 25.0362 32.7095 24.5816 32.6887C24.127 32.6679 23.9589 32.56 23.7513 32.5808C23.5438 32.6015 23.579 32.7883 23.3217 32.861C23.0643 32.9336 22.7176 32.7095 22.5225 32.8174C22.3274 32.9253 22.371 33.1204 22.3295 33.3135C22.288 33.5065 21.6818 34.2185 21.9413 34.4551V34.4572Z" fill="#FFDF00"/>
<path fill-rule="evenodd" clip-rule="evenodd" d="M25.3482 29.7829C25.3482 29.7829 25.0887 30.0859 25.3046 30.0631C25.3692 30.0632 25.4331 30.0499 25.4924 30.0242C25.5517 29.9985 25.605 29.9609 25.6491 29.9137C25.7571 29.8265 25.8007 29.5899 25.6491 29.567C25.4976 29.5442 25.3482 29.7746 25.3482 29.7746V29.7829Z" fill="#1D1D1B"/>
<path fill-rule="evenodd" clip-rule="evenodd" d="M25.4336 29.2014C25.4336 29.2014 25.2613 29.2222 25.3049 29.3301C25.3485 29.438 25.3921 29.4816 25.4772 29.4588C25.5623 29.436 25.6723 29.3945 25.6723 29.3094C25.6723 29.2242 25.5208 29.2014 25.4336 29.2014Z" fill="#1D1D1B"/>
<path fill-rule="evenodd" clip-rule="evenodd" d="M24.7879 29.3306C24.7879 29.3306 24.5077 29.3098 24.5284 29.094C24.5492 28.8781 24.572 28.9217 24.7007 28.7702C24.8294 28.6186 24.8523 28.6415 24.9809 28.6622C25.0338 28.6654 25.0835 28.6887 25.1197 28.7272C25.156 28.7658 25.1762 28.8168 25.1761 28.8698C25.1761 28.9777 25.0245 29.0649 24.9809 29.15C24.9374 29.2351 24.9166 29.343 24.7879 29.3223V29.3306Z" fill="#1D1D1B"/>
<path fill-rule="evenodd" clip-rule="evenodd" d="M22.7828 29.1579C22.7828 29.1579 22.652 29.3945 22.7828 29.4817C22.9136 29.5689 22.9115 29.5897 22.9115 29.7827C22.9115 29.9757 22.8472 30.0858 23.1191 30.0629C23.391 30.0401 23.5716 30.0193 23.5716 30.1065C23.5716 30.1937 23.3785 30.148 23.4221 30.3639C23.4657 30.5798 23.528 31.4204 23.3785 31.4412C23.2291 31.4619 23.3142 31.2689 23.1834 31.0261C23.0527 30.7832 22.9883 30.7666 23.0547 30.53C23.1211 30.2933 22.9883 30.2497 22.9883 30.2497C22.9883 30.2497 23.0111 30.4013 22.8824 30.4013C22.7538 30.4013 22.7309 30.2933 22.6001 30.1418C22.4694 29.9903 22.3926 29.9924 22.3926 29.9924C22.3926 29.9924 22.3926 29.9073 22.5649 29.8637C22.7371 29.8201 22.6936 29.7329 22.6728 29.5834C22.652 29.434 22.4652 29.3759 22.4777 29.2389C22.4901 29.1019 22.6292 29.0666 22.7807 29.1517L22.7828 29.1579Z" fill="#1D1D1B"/>
<path fill-rule="evenodd" clip-rule="evenodd" d="M22.9114 28.6207C22.8874 28.6816 22.8807 28.748 22.8921 28.8124C22.9035 28.8769 22.9324 28.937 22.9758 28.986C23.0769 29.1315 23.1299 29.305 23.1273 29.4821C23.1481 29.5901 23.1688 29.8039 23.2996 29.8039C23.4304 29.8039 23.4304 29.4593 23.364 29.2227C23.2975 28.986 23.3224 29.0504 23.1917 28.9217C23.0609 28.793 23.0194 28.5771 22.9114 28.6207Z" fill="#1D1D1B"/>
<path fill-rule="evenodd" clip-rule="evenodd" d="M24.0962 27.9521C24.0962 27.9521 23.8887 27.9957 23.924 28.276C23.9592 28.5562 24.034 28.77 24.1627 28.7264C24.2914 28.6828 24.3349 28.4254 24.3121 28.2967C24.2893 28.168 24.3349 27.9521 24.1045 27.9521H24.0962Z" fill="#1D1D1B"/>
<path fill-rule="evenodd" clip-rule="evenodd" d="M23.9245 26.8915C23.9245 26.8915 23.7315 27.1302 23.8394 27.2153C23.9474 27.3004 24.0117 27.2589 24.1197 27.0866C24.2276 26.9143 24.3127 26.9579 24.4206 27.1073C24.5286 27.2568 24.4642 27.3876 24.485 27.5391C24.5057 27.6906 24.5722 27.7965 24.6926 27.5598C24.8129 27.3232 24.9728 27.1073 24.7569 26.8915C24.6348 26.8025 24.4876 26.7546 24.3366 26.7546C24.1855 26.7546 24.0384 26.8025 23.9162 26.8915H23.9245Z" fill="#1D1D1B"/>
<path fill-rule="evenodd" clip-rule="evenodd" d="M22.6792 27.3272C22.6611 27.4446 22.6755 27.5648 22.7209 27.6746C22.7662 27.7844 22.8409 27.8796 22.9366 27.95C23.1109 28.0579 23.0881 28.1575 23.1442 28.3381C23.2002 28.5187 23.2521 28.6827 23.4036 28.6391C23.5551 28.5955 23.468 28.554 23.4036 28.2509C23.3439 28.0784 23.3219 27.8951 23.3393 27.7133C23.36 27.4746 23.3829 27.2982 23.2749 27.1965C23.167 27.0948 23.1234 27.0242 23.0155 27.1529C22.9075 27.2816 22.6917 27.2172 22.6709 27.3252L22.6792 27.3272Z" fill="#1D1D1B"/>
<path fill-rule="evenodd" clip-rule="evenodd" d="M25.2194 33.2078C25.2194 33.2078 25.0886 33.7246 25.2402 33.8118C25.3917 33.899 25.4996 33.9405 25.5412 33.7039C25.5546 33.5965 25.5298 33.4878 25.4709 33.3971C25.412 33.3063 25.3229 33.2392 25.2194 33.2078Z" fill="#1D1D1B"/>
<path fill-rule="evenodd" clip-rule="evenodd" d="M25.0472 27.3483C25.234 27.3878 25.3482 27.7884 25.0472 27.6929C25.0472 27.6929 24.7981 27.2985 25.0472 27.3483Z" fill="#1D1D1B"/>
<path fill-rule="evenodd" clip-rule="evenodd" d="M19.8711 52.8747C19.8711 52.8747 19.8296 50.2241 22.5882 51.1083L23.2358 50.9775L23.7319 51.4965L22.6526 51.6044C22.6526 51.6044 22.8249 54.1243 19.8711 52.8747Z" fill="#1D1D1B"/>
<path fill-rule="evenodd" clip-rule="evenodd" d="M19.4613 48.0286C19.4613 48.0286 19.3533 51.605 22.99 50.5485C22.99 50.5485 22.4524 48.1365 19.4613 48.0286Z" fill="#1D1D1B"/>
<path fill-rule="evenodd" clip-rule="evenodd" d="M26.3837 49.4917C26.3837 49.4917 27.2244 49.6453 27.569 49.9234C27.9135 50.2016 28.0443 50.5275 28.173 50.6562C28.3017 50.7849 28.4968 51.1315 28.173 51.2166C27.9336 51.2932 27.7027 51.3941 27.4839 51.5176C27.3172 51.627 27.1228 51.6868 26.9234 51.6899C26.7158 51.6691 26.3609 51.4823 26.0392 51.3474C25.7174 51.2125 25.6718 51.3038 25.4559 51.281C25.24 51.2581 24.9349 51.3245 24.7003 51.0879C24.6858 51.0713 25.7569 50.1393 25.7569 50.1393L26.3796 49.4917H26.3837Z" fill="#1D1D1B"/>
<path fill-rule="evenodd" clip-rule="evenodd" d="M24.2481 51.0441C24.2481 51.0441 23.7312 49.7095 24.2045 49.0639C24.667 48.4952 25.2395 48.0257 25.8879 47.6836C26.3176 47.4469 26.9008 47.1667 26.8365 47.9202C26.7721 48.6737 26.7057 49.2134 26.7057 49.2134C26.6282 49.5119 26.4546 49.7767 26.2117 49.9668C25.8194 50.2833 25.4446 50.6208 25.0887 50.9777C25.0136 51.066 24.9163 51.1327 24.8069 51.171C24.6975 51.2093 24.5798 51.2178 24.466 51.1957C24.1215 51.0877 24.2585 51.0441 24.2585 51.0441H24.2481Z" fill="#1D1D1B"/>
<path fill-rule="evenodd" clip-rule="evenodd" d="M23.4511 48.6532C23.4511 48.6532 23.256 49.4067 23.4303 49.7512C23.6711 50.1647 23.9603 50.5479 24.2917 50.8929C24.4993 51.1005 24.8958 51.7232 25.1532 51.9307C25.4105 52.1383 25.643 52.9686 26.685 53.4813C26.7207 53.8954 26.7353 54.3111 26.7286 54.7267C26.7286 54.7267 26.492 54.789 25.7364 53.9504C24.9809 53.1118 24.765 52.8731 24.4204 52.4206C24.0759 51.9681 22.8242 51.0631 22.8242 49.9298V48.6387L23.4469 48.6594L23.4511 48.6532Z" fill="#1D1D1B"/>
<path fill-rule="evenodd" clip-rule="evenodd" d="M20.7987 47.7692C20.7987 47.7692 20.7593 48.0494 21.2139 48.0494C21.2367 48.0494 21.2782 48.805 22.5091 48.8258C23.74 48.8465 24.1261 48.4812 24.1261 48.4812C24.1261 48.4812 24.6222 48.5248 24.6222 48.1366C24.6222 48.1159 26.0025 47.9 25.6351 45.7662C25.6351 45.7662 25.8614 45.3261 25.4275 45.2493C25.3507 45.2369 25.4794 44.1969 24.6076 43.7216C23.7026 43.2255 23.2709 43.4185 23.1837 43.4414C23.0965 43.4642 22.8391 42.9889 21.7826 43.267C20.7261 43.5452 20.1013 44.3858 20.1013 44.884C20.1013 44.9068 19.7339 44.884 19.6862 45.6582C19.6384 46.4325 19.6426 46.995 19.9643 47.2752C20.286 47.5554 20.4396 47.8564 20.807 47.7692H20.7987Z" fill="#1D1D1B"/>
<path fill-rule="evenodd" clip-rule="evenodd" d="M20.842 45.4441C20.842 45.4441 20.2587 45.029 20.5825 44.5163C20.9063 44.0036 20.9707 44.0866 21.3588 43.8936C21.747 43.7005 22.2431 43.3975 22.4154 43.4182C22.5589 43.463 22.6824 43.5562 22.7649 43.6819C22.8474 43.8075 22.8838 43.9579 22.8679 44.1074C22.8679 44.1074 23.1917 43.5054 23.6027 43.5926C24.0136 43.6798 24.3561 44.0202 24.5284 44.1738C24.7533 44.385 24.9303 44.6419 25.0474 44.9273C25.0889 45.1224 25.1968 45.6579 24.2482 45.6579C24.4748 45.7457 24.7215 45.768 24.9602 45.7223C25.284 45.6372 25.477 45.7659 25.3753 46.264C25.2736 46.7622 25.2259 46.8224 25.1823 47.059C25.1387 47.2957 24.5782 48.3937 24.0614 47.6195C24.0614 47.6195 24.3873 48.8234 22.4652 48.5452C20.8274 48.3086 21.5581 47.3393 21.5581 47.3393C21.5581 47.3393 20.1404 48.1093 20.0283 46.2848C19.9411 44.9065 20.8586 45.4441 20.8586 45.4441H20.842Z" fill="white"/>
<path fill-rule="evenodd" clip-rule="evenodd" d="M21.5101 47.3621C21.5101 47.3621 21.4229 47.9204 21.7031 47.964C21.9833 48.0076 22.2428 47.8768 22.5334 47.9204C22.824 47.964 23.0731 48.0927 23.3326 48.0927C23.592 48.0927 23.8722 48.2006 24.0653 47.6402C24.0749 47.7219 24.066 47.8046 24.039 47.8823C24.0121 47.96 23.9679 48.0306 23.9098 48.0887C23.8516 48.1469 23.7811 48.1911 23.7034 48.218C23.6257 48.2449 23.5429 48.2539 23.4612 48.2442C22.7929 48.2442 22.7493 48.0927 22.5127 48.0927C22.2913 48.1274 22.0681 48.1496 21.8443 48.1591C21.5412 48.1363 21.1551 47.8353 21.4997 47.3621H21.5101Z" fill="#1D1D1B"/>
<path fill-rule="evenodd" clip-rule="evenodd" d="M24.7551 45.6163C24.8264 45.7801 24.8693 45.9549 24.8817 46.1332C24.8609 46.2847 24.6243 46.4778 24.5807 46.65C24.5371 46.8223 24.6015 47.0652 24.5371 47.2727C24.5197 47.377 24.4632 47.4707 24.3791 47.5347C24.2951 47.5987 24.1897 47.6283 24.0846 47.6173C24.0639 47.6173 24.5579 47.7896 24.6679 47.4658C24.7779 47.142 24.7094 47.0154 24.7966 46.7995C24.8838 46.5836 24.9834 46.5919 25.0768 46.2619C25.2325 45.6828 24.7551 45.6143 24.7551 45.6143V45.6163Z" fill="#1D1D1B"/>
<path fill-rule="evenodd" clip-rule="evenodd" d="M22.8678 44.1073C22.8678 44.1073 23.3224 43.935 23.5154 44.0865C23.7085 44.238 23.6877 44.5598 23.8828 44.6905C24.0779 44.8213 24.3561 44.7777 24.5055 44.8981C24.6127 45.0277 24.6842 45.1829 24.7131 45.3485C24.7131 45.3485 24.821 44.7694 24.518 44.6387C24.3536 44.588 24.2001 44.507 24.0655 44.4C23.9368 44.2941 23.8579 44.0346 23.6337 43.9495C23.506 43.8852 23.3606 43.865 23.2201 43.892C23.0797 43.9191 22.9522 43.9918 22.8574 44.099L22.8678 44.1073Z" fill="#1D1D1B"/>
<path fill-rule="evenodd" clip-rule="evenodd" d="M20.7539 44.8628C20.9342 44.5903 21.212 44.3972 21.5302 44.3231C21.6346 44.1533 21.7804 44.0129 21.954 43.9148C22.1275 43.8168 22.3231 43.7645 22.5224 43.7627C22.5224 43.7627 21.8104 44.1924 21.8333 44.5598C21.4505 44.5443 21.0727 44.6504 20.7539 44.8628Z" fill="#1D1D1B"/>
<path fill-rule="evenodd" clip-rule="evenodd" d="M21.7672 45.249C21.7672 45.249 22.4376 45.9174 21.5098 46.3056C21.5098 46.3056 22.6306 46.3699 22.6306 47.2521C22.6306 47.2521 22.8673 46.1976 23.7951 46.6294C23.7951 46.6294 22.9109 45.8344 23.6021 45.1453C23.6021 45.1453 22.5435 45.5749 21.7672 45.2511V45.249Z" fill="#1D1D1B"/>
<path fill-rule="evenodd" clip-rule="evenodd" d="M22.6791 45.5522C22.796 45.572 22.902 45.6328 22.9781 45.7237C23.0542 45.8147 23.0954 45.9298 23.0942 46.0483C23.0735 46.4635 22.8576 46.4365 22.6417 46.4365C22.5336 46.4259 22.4322 46.3791 22.3538 46.3038C22.2755 46.2285 22.2248 46.129 22.21 46.0214C22.2151 45.8986 22.2661 45.7822 22.353 45.6953C22.4399 45.6084 22.5563 45.5573 22.6791 45.5522Z" fill="#FFDF00"/>
<path fill-rule="evenodd" clip-rule="evenodd" d="M20.2793 52.6822C20.2793 52.6822 20.4101 50.8141 22.1142 51.196C22.0177 51.3281 21.8906 51.4349 21.7439 51.5072C21.5971 51.5795 21.435 51.6152 21.2715 51.6112C21.2507 51.6112 21.3815 51.9557 20.7339 52.1924L21.0992 52.5805C21.0992 52.5805 21.1428 51.825 21.7904 51.825C21.8112 51.825 21.998 51.3102 22.2637 51.2874C22.2637 51.2874 22.438 53.5706 20.2793 52.6885V52.6822Z" fill="#009879"/>
<path fill-rule="evenodd" clip-rule="evenodd" d="M19.8291 48.5225C19.8291 48.5225 22.1788 48.5453 22.4383 50.3761C22.4383 50.3761 19.9786 50.9988 19.8291 48.5225Z" fill="#009879"/>
<path fill-rule="evenodd" clip-rule="evenodd" d="M26.1246 50.3322C26.1246 50.3322 25.9959 49.9669 26.1681 49.8382C26.3404 49.7095 26.4276 49.7946 26.6414 49.8382C26.9407 49.8914 27.2224 50.0176 27.4613 50.2056C27.7623 50.4401 28.2604 50.8926 27.7851 51.0649C27.3098 51.2372 27.0088 51.5403 26.3612 51.2393C25.7509 50.9528 25.5849 50.9777 25.4562 51.0213C25.3275 51.0649 24.9393 50.9362 25.4333 50.7619C25.9274 50.5875 26.0166 50.5543 26.2761 50.5917C26.4559 50.6153 26.6225 50.6986 26.7493 50.8283C26.8365 50.9155 27.1396 50.9362 26.9237 50.7204C26.7078 50.5045 27.1167 50.656 27.1167 50.656C27.1167 50.656 27.5319 50.6353 27.1396 50.463C26.8194 50.3279 26.4685 50.2827 26.1246 50.3322Z" fill="#009879"/>
<path fill-rule="evenodd" clip-rule="evenodd" d="M24.4 50.8286C24.3077 50.634 24.2598 50.4213 24.2598 50.2059C24.2598 49.9905 24.3077 49.7778 24.4 49.5832C24.6986 49.0133 25.1556 48.5419 25.716 48.2257C26.3179 47.8396 26.5462 47.5677 26.4923 48.1634C26.4736 48.4518 26.4376 48.7388 26.3843 49.0228C26.2856 49.3042 26.1396 49.5667 25.9526 49.7991C25.6495 50.1665 24.8525 50.8971 24.8525 50.8971C24.8525 50.8971 24.6594 51.2853 24.4 50.8328V50.8286Z" fill="#009879"/>
<path fill-rule="evenodd" clip-rule="evenodd" d="M22.9968 48.9104C22.9968 48.9104 22.8681 49.9483 23.1275 50.4402C23.3847 50.891 23.7119 51.2981 24.0969 51.6462C24.3563 51.8849 24.6594 52.3353 24.896 52.5948C25.1327 52.8542 25.1036 53.0452 25.4336 53.2839C25.7428 53.5331 26.038 53.7992 26.3179 54.081L26.3407 53.587C26.09 53.3939 25.8585 53.177 25.6495 52.9394C25.2613 52.5076 25.1327 52.1859 24.896 51.97C24.6594 51.7541 24.5079 51.3473 24.1633 51.0442C23.8482 50.7489 23.5788 50.4082 23.3642 50.0334C23.1671 49.6711 23.1137 49.248 23.2147 48.8481L23.0071 48.9104H22.9968Z" fill="#009879"/>
<path fill-rule="evenodd" clip-rule="evenodd" d="M20.4974 49.1497C20.4974 49.1497 20.6469 49.5357 20.3895 49.5648C20.1321 49.5939 21.2945 49.4569 21.5747 50.0173C21.5747 50.0173 22.1974 49.9737 22.3718 50.2747C22.3718 50.2747 21.8757 49.845 21.7906 49.542C21.7906 49.515 21.6598 49.845 21.1679 49.4776C20.6759 49.1102 20.4995 49.1559 20.4995 49.1559L20.4974 49.1497Z" fill="#1D1D1B"/>
<path fill-rule="evenodd" clip-rule="evenodd" d="M24.5721 50.6128C24.5369 50.5422 24.5203 50.4637 24.5239 50.3849C24.5276 50.306 24.5513 50.2294 24.5929 50.1624C24.6827 50.046 24.8025 49.9563 24.9395 49.9029C24.9395 49.9029 24.8731 49.2802 25.0038 49.1494C25.1346 49.0186 25.4564 49.0415 25.4564 49.0415C25.4564 49.0415 25.693 48.6761 25.7573 48.5682C25.8217 48.4603 26.2119 48.3939 26.0811 48.6533C26.0007 48.8518 25.8663 49.0236 25.693 49.1494C25.5242 49.2958 25.3661 49.4539 25.2197 49.6227C25.2197 49.6227 25.1118 49.8614 25.1761 49.9672C25.2405 50.0731 25.1533 50.2059 25.0246 50.3346C24.9717 50.409 24.9043 50.4719 24.8266 50.5197C24.7489 50.5674 24.6623 50.5991 24.5721 50.6128Z" fill="#1D1D1B"/>
<path fill-rule="evenodd" clip-rule="evenodd" d="M20.9387 47.8558C20.8996 47.5371 20.8379 47.2214 20.754 46.9114C20.6677 46.7321 20.5982 46.5452 20.5464 46.353C20.5257 46.2015 20.4385 45.7926 20.6979 46.1579C20.9574 46.5232 20.8287 46.3655 20.8931 46.6312C20.9574 46.8969 20.8931 47.0214 20.9782 47.1709C21.0633 47.3203 21.2376 47.5507 21.5386 47.3431L20.9387 47.8558Z" fill="#1D1D1B"/>
<path fill-rule="evenodd" clip-rule="evenodd" d="M40.2102 45.4523C40.3953 45.4881 40.5855 45.4881 40.7706 45.4523C40.9707 45.3832 41.1855 45.3682 41.3933 45.4087C41.6735 45.4523 41.8084 45.3506 41.933 45.3651C42.2775 45.4087 42.3481 45.4523 42.4934 45.1576C42.6177 44.8584 42.669 44.5339 42.6429 44.211C42.6242 44.0388 42.1281 44.4684 42.0409 44.5784C41.9537 44.6885 42.1489 43.9557 41.7815 43.7793C41.7815 43.7793 41.3497 43.9308 41.221 44.1944C41.221 44.1944 40.8059 43.4596 40.3368 44.402C40.3243 44.4207 39.4318 43.7336 39.7535 44.5743C40.0752 45.415 40.2081 45.4565 40.2081 45.4565L40.2102 45.4523Z" fill="#8577B6"/>
<path fill-rule="evenodd" clip-rule="evenodd" d="M48.861 26.3453C48.6013 25.7067 48.2356 25.1166 47.7796 24.5996C47.655 24.4647 48.0619 23.5618 48.0619 23.5618C48.0619 23.5618 48.5372 25.7558 50.1978 26.6421C49.7771 26.4525 49.3223 26.3501 48.861 26.3411V26.3453Z" fill="#1D1D1B"/>
<path fill-rule="evenodd" clip-rule="evenodd" d="M33.2238 18.7421C37.7904 17.5714 41.097 14.9145 40.6196 12.8035C40.1422 10.6925 36.053 9.93278 31.4865 11.1014C26.9199 12.27 23.6133 14.929 24.0908 17.0379C24.5682 19.1468 28.6573 19.9107 33.2238 18.7421Z" fill="#FFDF00"/>
<path d="M33.2238 18.7421C37.7904 17.5714 41.097 14.9145 40.6196 12.8035C40.1422 10.6925 36.053 9.93278 31.4865 11.1014C26.9199 12.27 23.6133 14.929 24.0908 17.0379C24.5682 19.1468 28.6573 19.9107 33.2238 18.7421Z" stroke="#1D1D1B" stroke-width="0.0971196"/>
<path fill-rule="evenodd" clip-rule="evenodd" d="M37.1051 10.6177L37.6448 13.0255C37.9624 14.4245 35.7766 16.1889 32.742 16.9693C29.7073 17.7498 27.0047 17.2392 26.6871 15.8401L26.1475 13.4303C26.465 14.8293 29.1759 15.3357 32.2002 14.5594C35.2245 13.7831 37.4164 12.0188 37.1051 10.6177Z" fill="#134395"/>
<path d="M37.1051 10.6177L37.6448 13.0255C37.9624 14.4245 35.7766 16.1889 32.742 16.9693C29.7073 17.7498 27.0047 17.2392 26.6871 15.8401L26.1475 13.4303C26.465 14.8293 29.1759 15.3357 32.2002 14.5594C35.2245 13.7831 37.4164 12.0188 37.1051 10.6177Z" stroke="#1D1D1B" stroke-width="0.0971196"/>
<path fill-rule="evenodd" clip-rule="evenodd" d="M32.1995 14.5554C35.2258 13.7812 37.4219 12.0189 37.1044 10.6116C36.7868 9.20427 34.0759 8.7061 31.0516 9.48241C28.0273 10.2587 25.8291 12.021 26.1467 13.4262C26.4643 14.8315 29.1752 15.3317 32.1995 14.5554Z" fill="#FFDF00"/>
<path d="M32.1995 14.5554C35.2258 13.7812 37.4219 12.0189 37.1043 10.6116C36.7868 9.20427 34.0759 8.7061 31.0516 9.48241C28.0273 10.2587 25.8291 12.021 26.1467 13.4262C26.4643 14.8315 29.1752 15.3317 32.1995 14.5554Z" stroke="#1D1D1B" stroke-width="0.0971196"/>
<path fill-rule="evenodd" clip-rule="evenodd" d="M37.3213 11.6597C40.2377 11.6597 44.4804 11.805 44.4804 11.805L43.1436 12.328L44.333 13.3659C41.5993 12.6145 37.6783 13.2206 37.6783 13.2206L37.3213 11.6555V11.6597Z" fill="#134395" stroke="#1D1D1B" stroke-width="0.0971196"/>
<path fill-rule="evenodd" clip-rule="evenodd" d="M37.6774 13.2252C37.6774 13.1837 41.5361 10.4915 42.1838 10.3877L40.9093 10.367L40.4817 9.8335C40.4817 9.8335 37.3017 11.6601 37.3204 11.6601L37.6774 13.2252Z" fill="#F3912D"/>
<path d="M37.6779 13.2252C37.6779 13.2252 41.5367 10.4936 42.1905 10.3877L40.916 10.367L40.4884 9.8335L37.3271 11.6601L37.6842 13.2252H37.6779Z" stroke="#1D1D1B" stroke-width="0.0971196"/>
<path fill-rule="evenodd" clip-rule="evenodd" d="M9.35058 14.4707L6.17683 17.7586L5.93605 17.5282L6.01285 17.4473C6.42799 17.0114 6.42799 16.8245 5.99417 16.3969L3.7275 14.2175C3.29161 13.8023 3.10479 13.8023 2.6772 14.2382L2.61285 14.3046L2.37207 14.0742L4.37927 11.9985L4.62006 12.2227L4.51835 12.3265C4.10321 12.7624 4.10321 12.9492 4.5391 13.3643L6.83691 15.5916C7.20431 15.9465 7.27073 15.9507 7.54264 15.6684L8.18196 15.0042C8.49124 14.6845 8.58257 14.5018 8.58465 14.2548C8.57855 13.9132 8.54173 13.5728 8.47463 13.2377L8.71957 12.9845L9.34228 14.4707H9.35058Z" fill="#1D1D1B"/>
<path fill-rule="evenodd" clip-rule="evenodd" d="M10.0023 7.2596L11.7874 5.95605L11.995 6.22382L11.9452 6.25911C11.4366 6.63273 11.4179 6.86729 11.8663 7.47962L12.7962 8.7541C13.3255 9.47852 13.4625 9.76912 13.4978 10.2486C13.5435 10.9772 13.1532 11.6746 12.3686 12.2475C11.2249 13.0778 10.1289 13.1442 9.41903 12.4053C9.30695 12.2766 9.1824 12.123 9.01635 11.8967L7.78961 10.2154C7.40768 9.69232 7.28314 9.66533 6.7995 10.0182L6.75176 10.0535L6.55664 9.78573L8.70084 8.21027L8.90841 8.47803L8.87312 8.50294C8.40194 8.83298 8.3708 9.04055 8.7216 9.52626L9.96702 11.2263C10.3822 11.7929 10.571 11.9382 10.9426 12.015C11.168 12.0463 11.3974 12.0305 11.6164 11.9687C11.8354 11.9069 12.0392 11.8004 12.215 11.6559C12.9623 11.1163 13.1698 10.3648 12.7796 9.66326C12.6534 9.45515 12.5148 9.25483 12.3645 9.06338L11.4968 7.8574C11.0028 7.18279 10.7641 7.1143 10.2514 7.48792L10.1953 7.52736L9.98778 7.2596H10.0023Z" fill="#1D1D1B"/>
<path fill-rule="evenodd" clip-rule="evenodd" d="M17.4394 7.86593C17.6968 8.41807 17.8795 8.47619 18.4316 8.2105L18.6163 8.12125L18.7616 8.42015L15.9947 9.76728L15.8474 9.46838L16.0404 9.37497C16.5842 9.1072 16.6465 8.92662 16.3808 8.38278L14.7203 4.97863L13.9149 5.37094C13.232 5.70305 13.1822 5.83382 13.4354 6.7243L13.1303 6.8779L12.5615 5.37924L12.8065 5.26093C12.9787 5.31905 13.014 5.31697 13.2382 5.21111L13.4333 5.12601L16.8665 3.44884L16.989 3.38864C17.0446 3.36694 17.0932 3.33058 17.1298 3.28343C17.1663 3.23628 17.1894 3.1801 17.1966 3.12088L17.4415 3.00049L18.2718 4.37045L17.9729 4.51575C17.4041 3.77888 17.2858 3.73114 16.688 4.02381L15.7892 4.46178L17.4498 7.86593H17.4394Z" fill="#1D1D1B"/>
<path fill-rule="evenodd" clip-rule="evenodd" d="M21.3423 1.75052C23.0734 1.25443 24.5783 1.98508 25.0204 3.52732C25.4771 5.11731 24.5139 6.65333 22.7371 7.16395C20.9894 7.6642 19.4409 6.93563 19.0009 5.42867C18.538 3.81169 19.5157 2.27152 21.336 1.75052H21.3423ZM22.8139 6.75712C23.8393 6.46444 24.2566 5.43904 23.8788 4.1272C23.7633 3.71737 23.5718 3.33291 23.3142 2.99387C22.7454 2.21548 22.0356 1.93111 21.2385 2.16359C20.2006 2.46041 19.7606 3.44637 20.1155 4.68556C20.568 6.26102 21.6495 7.09546 22.8139 6.76127V6.75712Z" fill="#1D1D1B"/>
<path fill-rule="evenodd" clip-rule="evenodd" d="M27.1388 4.92422C27.1907 5.54693 27.3464 5.6694 28.0438 5.62166L28.0708 5.9517L26.0138 6.11983L25.9847 5.78772H26.0636C26.5638 5.7462 26.6738 5.6092 26.6261 5.03839L26.321 1.30212C26.1059 1.19508 25.8644 1.15255 25.6256 1.17966L25.5986 0.845468L27.3505 0.704321L31.1138 4.03582L30.9062 1.4661C30.8564 0.862074 30.7277 0.76244 30.0469 0.818484H29.9555L29.9265 0.488448L32.1205 0.307861L32.1475 0.639974H32.0541C31.4417 0.689791 31.3712 0.770743 31.4314 1.36647L31.7821 5.6694L31.313 5.71922L26.8835 1.78784L27.1388 4.92422Z" fill="#1D1D1B"/>
<path fill-rule="evenodd" clip-rule="evenodd" d="M37.9952 5.18783C37.9018 5.7877 38.0077 5.9413 38.6179 6.03679L38.8255 6.06792L38.7736 6.39796L35.7223 5.92677L35.7742 5.59881L35.9818 5.63203C36.5796 5.72543 36.7353 5.61127 36.8266 5.00931L37.414 1.27305L36.5298 1.13398C35.7805 1.01774 35.6642 1.09454 35.3612 1.96426L35.0166 1.91029L35.4068 0.357666L35.6767 0.39918C35.7825 0.544479 35.822 0.569388 36.0586 0.60675L36.2662 0.646189L40.0419 1.23776L40.1747 1.25852C40.2326 1.27119 40.2928 1.26805 40.3491 1.24942C40.4053 1.2308 40.4555 1.19737 40.4944 1.15266L40.7663 1.19625L40.6625 2.79454L40.3325 2.74265C40.2889 1.81066 40.2183 1.7048 39.5624 1.60309L38.5744 1.44949L37.989 5.18575L37.9952 5.18783Z" fill="#1D1D1B"/>
<path fill-rule="evenodd" clip-rule="evenodd" d="M45.1524 2.56632C46.8462 3.17243 47.6432 4.64203 47.1077 6.15314C46.5514 7.71199 44.8742 8.40112 43.1307 7.77841C41.4182 7.16816 40.5838 5.67573 41.1089 4.19783C41.6735 2.61407 43.3673 1.93116 45.1524 2.56632ZM43.4358 7.49612C44.4404 7.85314 45.3766 7.26364 45.8353 5.97878C45.9793 5.57962 46.0496 5.15764 46.0429 4.73336C46.0325 3.76816 45.6277 3.12469 44.8493 2.84862C43.8281 2.4833 42.8982 3.03128 42.4664 4.24557C41.9164 5.78781 42.3108 7.09758 43.442 7.50027L43.4358 7.49612Z" fill="#1D1D1B"/>
<path fill-rule="evenodd" clip-rule="evenodd" d="M48.6246 5.18807L48.6516 4.96597C48.6931 4.55083 48.6143 4.35364 48.3154 4.17305L48.2489 4.13361L48.4171 3.85132L50.3578 5.02824L50.1876 5.30431C49.9801 5.20468 49.8742 5.21505 49.7995 5.33752C49.764 5.3957 49.7413 5.46082 49.7331 5.52849L49.7206 5.66133L49.3677 9.25645L50.4056 8.586L50.6401 6.25291C50.6879 5.76512 50.6401 5.59906 50.4429 5.46414L50.6132 5.17977L53.8139 7.12262L53.6416 7.407C53.3344 7.30114 53.1766 7.33435 52.7677 7.59589L51.5784 8.35144L51.4019 10.3711L54.0028 8.40541C54.092 8.34598 54.1688 8.26986 54.229 8.18123C54.3577 7.97366 54.2809 7.80346 53.9779 7.61042L54.1501 7.32604L55.6239 8.2186L55.4516 8.50297C55.0863 8.31408 54.8289 8.37012 54.3577 8.72922L50.6422 11.5314L50.1606 11.2408L50.3558 9.16512L48.6246 10.3068L48.1348 10.012L48.6246 5.18807ZM52.556 7.19528C52.6267 7.15888 52.689 7.10795 52.7387 7.04582C52.7968 6.95034 52.7387 6.85278 52.5311 6.73032L52.1533 6.49576C51.9561 6.37537 51.8482 6.37122 51.788 6.47293C51.7753 6.48933 51.7668 6.50856 51.7631 6.52897V6.6037L51.7465 6.67635L51.6552 7.76609L52.5685 7.19528H52.556Z" fill="#1D1D1B"/>
<path fill-rule="evenodd" clip-rule="evenodd" d="M54.3606 12.8038C53.931 13.2563 53.9455 13.4535 54.4416 13.9434L54.2133 14.1841L52.7188 12.7581L52.9471 12.5194L53.0031 12.5713C53.3684 12.918 53.5428 12.9097 53.9372 12.4945L56.5256 9.77743C56.4622 9.5457 56.3341 9.33687 56.1561 9.17547L56.3865 8.93677L57.6568 10.1469L57.6755 15.1743L59.4544 13.3061C59.8695 12.8681 59.8695 12.7042 59.3672 12.2351L59.2987 12.1707L59.5291 11.9279L61.1233 13.4473L60.8949 13.6881L60.8244 13.6237C60.3802 13.2086 60.2722 13.2086 59.8592 13.6237L56.8826 16.7622L56.5484 16.4446L56.5318 10.5247L54.3606 12.808V12.8038Z" fill="#1D1D1B"/>
<path fill-rule="evenodd" clip-rule="evenodd" d="M2.06084 51.6068C1.47342 51.86 1.4153 51.9866 1.6457 52.5346L1.66231 52.5741L1.35718 52.7048L0.352539 50.3468L0.657667 50.2161L0.682576 50.2721C0.863162 50.6872 1.00431 50.764 1.36133 50.6208L1.55645 50.5357L4.53508 49.255C5.0291 49.0474 5.12043 48.8668 4.93777 48.4413L4.92116 48.404L5.22629 48.2732L6.92421 52.217L5.82617 52.6903L5.70578 52.4225L5.80541 52.3706C6.24131 52.1361 6.30773 52.0053 6.1396 51.5943L6.01506 51.3037L5.50858 50.1289L3.7214 50.8969L4.13654 51.8538C4.43752 52.5512 4.56414 52.6259 5.06231 52.4308L5.1993 52.7443L3.63838 53.4147L3.50346 53.1013L3.54289 53.0847C3.95803 52.902 3.99955 52.7194 3.72971 52.0946L3.29589 51.0837L2.06499 51.6109L2.06084 51.6068Z" fill="#1D1D1B"/>
<path fill-rule="evenodd" clip-rule="evenodd" d="M9.03879 55.2333C10.0766 56.7112 9.86907 58.3738 8.54269 59.2871C7.18518 60.2316 5.42914 59.8143 4.3643 58.2949C3.29947 56.7755 3.51534 55.1025 4.80435 54.2058C6.1847 53.2468 7.95942 53.6765 9.03879 55.2436V55.2333ZM4.77114 58.2347C5.3814 59.1127 6.4836 59.175 7.60655 58.3966C7.9557 58.153 8.25747 57.8477 8.49703 57.4958C9.04916 56.707 9.09068 55.9432 8.62157 55.2706C7.99886 54.3801 6.92987 54.2847 5.87334 55.0195C4.52828 55.9535 4.08616 57.2488 4.77114 58.2347Z" fill="#1D1D1B"/>
<path fill-rule="evenodd" clip-rule="evenodd" d="M13.3612 60.0884C14.7 61.2924 14.8806 62.9571 13.8075 64.1506C12.7011 65.3794 10.889 65.3794 9.51284 64.1506C8.13665 62.9218 7.95606 61.2446 9.00429 60.0718C10.1272 58.8264 11.9539 58.8264 13.3633 60.0968L13.3612 60.0884ZM9.89684 63.9949C10.6898 64.709 11.7795 64.518 12.6928 63.503C12.9775 63.1862 13.2013 62.8196 13.3529 62.4215C13.7099 61.5269 13.5729 60.7734 12.9647 60.2254C12.1594 59.501 11.0966 59.6546 10.231 60.6136C9.13506 61.832 9.00222 63.1916 9.89684 63.9949Z" fill="#1D1D1B"/>
<path fill-rule="evenodd" clip-rule="evenodd" d="M16.6429 67.7224C16.344 68.2517 16.3876 68.4344 16.9231 68.7353L17.1016 68.837L16.9377 69.1256L14.2559 67.6103L14.4198 67.3218L14.6046 67.4276C15.1339 67.7224 15.3186 67.6726 15.6175 67.1453L17.4857 63.8491L16.7073 63.407C16.0451 63.0334 15.9102 63.0645 15.3186 63.7806L15.0156 63.6084L15.9268 62.2903L16.1634 62.4231C16.2132 62.5975 16.2423 62.6307 16.4499 62.7511L16.6305 62.8653L19.9516 64.7438L20.0699 64.8102C20.1194 64.8427 20.1767 64.8613 20.2358 64.8643C20.2949 64.8672 20.3537 64.8542 20.4062 64.8268L20.6449 64.9576L19.9848 66.4106L19.6963 66.2466C19.9806 65.3602 19.9537 65.2357 19.3745 64.9098L18.5048 64.4179L16.6367 67.7141L16.6429 67.7224Z" fill="#1D1D1B"/>
<path fill-rule="evenodd" clip-rule="evenodd" d="M21.3188 65.3938C22.6389 65.6782 22.7552 65.7031 23.3945 65.8837L23.5336 65.9252C24.0914 66.0605 24.6221 66.29 25.1028 66.6039C25.6362 66.9672 25.8666 67.5069 25.7255 68.0071C25.5843 68.5074 25.1651 68.7274 24.4427 68.6755V68.6921C25.1754 69.0969 25.5241 69.786 25.327 70.4481C25.0986 71.2182 24.2767 71.623 23.272 71.4673C23.0158 71.4275 22.7626 71.3699 22.5144 71.295L19.6084 70.4253L19.7039 70.1077H19.7371C20.4325 70.3153 20.7417 70.2011 20.8891 69.703L21.792 66.66C21.9747 66.0373 21.9187 65.9231 21.2897 65.7363L21.0946 65.6803L21.188 65.3606L21.3333 65.3855L21.3188 65.3938ZM22.0557 69.8586C21.8605 70.5125 21.9685 70.7221 22.5559 70.8965C23.2928 71.1144 23.8241 70.8259 24.04 70.0994C24.2123 69.5182 24.0213 68.9536 23.5709 68.7046C23.3398 68.5857 23.0961 68.4931 22.8444 68.4285C22.7033 68.387 22.6368 68.3683 22.5061 68.3351L22.0557 69.8586ZM22.6078 67.9905C22.8008 68.059 22.9129 68.1005 23.0686 68.1462C23.3069 68.2256 23.5564 68.2663 23.8075 68.2666C23.9798 68.2484 24.1421 68.1768 24.2716 68.0618C24.4011 67.9467 24.4914 67.7941 24.5299 67.6252C24.7229 66.9713 24.3742 66.5043 23.5232 66.2511C23.4004 66.2134 23.2747 66.1856 23.1475 66.168L22.6078 67.9905Z" fill="#1D1D1B"/>
<path fill-rule="evenodd" clip-rule="evenodd" d="M27.5846 70.3963L27.13 71.3574C27.077 71.4524 27.0379 71.5544 27.0138 71.6604C26.991 71.8805 27.2214 72.0071 27.7278 72.059H27.8482L27.815 72.389L25.5566 72.1648L25.5899 71.8348L25.7165 71.8472C26.1316 71.8867 26.3392 71.7206 26.6277 71.1394L28.4917 67.2537L28.4232 67.0005L29.6686 67.123L30.9369 71.6065C31.1029 72.1794 31.2814 72.3683 31.7277 72.4534L31.6945 72.7855L28.9276 72.5115L28.9608 72.1794L29.2493 72.2084C29.6126 72.2437 29.7662 72.1648 29.789 71.9365C29.7916 71.8097 29.7726 71.6834 29.733 71.5629L29.4361 70.5811L27.5929 70.3963H27.5846ZM28.6993 68.0321L27.7963 69.9397L29.2825 70.085L28.6993 68.0321Z" fill="#1D1D1B"/>
<path fill-rule="evenodd" clip-rule="evenodd" d="M37.0297 72.3332L32.4756 72.7317L32.4465 72.4017L32.5565 72.3913C33.1606 72.3394 33.283 72.1837 33.2311 71.588L32.9571 68.4516C32.9032 67.8476 32.7496 67.723 32.1518 67.777H32.0584L32.0293 67.4449L34.9124 67.1917L34.9415 67.5258L34.7962 67.5362C34.1922 67.5902 34.0676 67.7438 34.1216 68.3416L34.3997 71.5195C34.4433 72.0301 34.4911 72.0779 34.8813 72.0426L35.8008 71.9616C36.243 71.9243 36.4236 71.8454 36.5958 71.6627C36.8155 71.4004 37.0114 71.1191 37.1812 70.8221L37.5299 70.7909L37.0297 72.3249V72.3332Z" fill="#1D1D1B"/>
<path fill-rule="evenodd" clip-rule="evenodd" d="M42.6206 70.9858L38.2014 72.1606L38.1163 71.8389L38.2242 71.8119C38.8096 71.6562 38.905 71.4881 38.7494 70.9027L37.9419 67.8598C37.7862 67.2744 37.6202 67.1789 37.0348 67.3325L36.9435 67.3574L36.8584 67.0357L39.6544 66.2947L39.7395 66.6164L39.5983 66.6517C39.013 66.8074 38.9175 66.9755 39.0732 67.5588L39.891 70.6433C40.0218 71.1394 40.0778 71.1767 40.4556 71.0771L41.3461 70.8405C41.7757 70.7263 41.9501 70.6184 42.0809 70.4066C42.2506 70.1108 42.395 69.8011 42.5126 69.4809L42.851 69.3896L42.6206 70.9858Z" fill="#1D1D1B"/>
<path fill-rule="evenodd" clip-rule="evenodd" d="M50.7519 65.1697C50.9416 65.6803 51.0685 66.2122 51.1297 66.7534C50.9651 66.7957 50.8077 66.8621 50.6627 66.9506C50.5366 67.0315 50.4179 67.1232 50.3077 67.2246L50.0877 67.4052C49.8996 67.5677 49.6982 67.7142 49.4857 67.8432C47.9912 68.7357 46.2061 68.3912 45.4153 67.0648C44.6244 65.7384 45.2181 63.9243 46.7915 62.984C47.1893 62.7396 47.6355 62.5845 48.0992 62.5294C48.1939 62.5204 48.2864 62.4958 48.3732 62.4567C48.4396 62.4173 48.4562 62.3779 48.4728 62.2865L48.6555 62.1765L49.4857 63.4219L49.1993 63.5921C48.533 63.0068 47.7671 62.9072 47.0634 63.3265C46.0255 63.9492 45.7702 65.1718 46.4635 66.33C47.1568 67.4882 48.5164 67.9366 49.5625 67.3097C50.2351 66.907 50.5589 66.1972 50.4551 65.344L50.7498 65.1697H50.7519Z" fill="#1D1D1B"/>
<path fill-rule="evenodd" clip-rule="evenodd" d="M56.0671 62.4942L52.6899 65.5766L52.4679 65.3296L52.5488 65.257C52.9951 64.8418 53.0034 64.655 52.5965 64.2067L50.4752 61.8819C50.06 61.4356 49.8732 61.4252 49.4373 61.8341L49.3668 61.8964L49.1426 61.6515L51.2785 59.7024L51.5026 59.9494L51.3989 60.0449C50.9484 60.46 50.9422 60.6468 51.349 61.0827L53.4995 63.4407C53.844 63.8206 53.9146 63.8289 54.199 63.5653L54.8798 62.9426C55.2078 62.6437 55.3136 62.4672 55.3302 62.2202C55.3465 61.8785 55.3319 61.536 55.2867 61.1969L55.5461 60.9623L56.0775 62.4838L56.0671 62.4942Z" fill="#1D1D1B"/>
<path fill-rule="evenodd" clip-rule="evenodd" d="M55.2261 55.1087L56.5442 53.3381L56.8119 53.5353L56.7746 53.5831C56.3989 54.0895 56.4508 54.3199 57.061 54.7745L58.3272 55.7148C59.0454 56.2483 59.2633 56.4849 59.4398 56.9333C59.6992 57.6141 59.5332 58.3862 58.952 59.1771C58.1092 60.3125 57.0838 60.6986 56.183 60.2004C55.9974 60.0885 55.8186 59.9659 55.6475 59.833L53.9765 58.5876C53.4555 58.1994 53.331 58.2119 52.974 58.6914L52.9366 58.7391L52.6709 58.5419L54.263 56.3977L54.5307 56.6053L54.5058 56.6385C54.1633 57.0972 54.1945 57.3007 54.674 57.6577L56.3636 58.9135C56.9282 59.3286 57.1523 59.4137 57.5301 59.3764C57.7545 59.3399 57.9689 59.2573 58.1597 59.1336C58.3505 59.01 58.5136 58.8481 58.6385 58.6582C59.1928 57.9109 59.1699 57.1408 58.5866 56.5825C58.4067 56.4223 58.2182 56.2719 58.0221 56.132L56.8306 55.2457C56.1581 54.7455 55.909 54.7538 55.5333 55.2602L55.4918 55.3142L55.2261 55.1066V55.1087Z" fill="#1D1D1B"/>
<path fill-rule="evenodd" clip-rule="evenodd" d="M56.7207 52.9003C57.1628 51.6216 57.2023 51.5075 57.4597 50.8931L57.5157 50.7623C57.7159 50.2234 58.0081 49.7234 58.3792 49.2844C58.7943 48.7987 59.3672 48.6347 59.8426 48.8402C60.3179 49.0457 60.4943 49.4837 60.3553 50.1956H60.3698C60.8597 49.5148 61.5862 49.2512 62.2192 49.5252C62.9582 49.8448 63.2571 50.7125 62.9831 51.6901C62.9149 51.9395 62.8289 52.1837 62.7257 52.4208L61.4948 55.2126L61.1918 55.0818L61.2042 55.0507C61.4907 54.3865 61.4118 54.0647 60.9385 53.8572L58.0326 52.5972C57.4368 52.3398 57.3164 52.3896 57.057 52.9833L56.976 53.1701L56.6709 53.0393L56.7124 52.9003H56.7207ZM59.4627 51.9309C59.554 51.7441 59.608 51.6403 59.6703 51.4909C59.7759 51.2635 59.8459 51.0213 59.8779 50.7727C59.8811 50.599 59.8297 50.4286 59.7311 50.2856C59.6324 50.1426 59.4913 50.0342 59.3278 49.9756C58.7051 49.7078 58.1965 49.9984 57.8416 50.8059C57.7887 50.9232 57.7456 51.0447 57.7129 51.1691L59.4586 51.9247L59.4627 51.9309ZM61.2478 52.7031C61.8705 52.9729 62.0968 52.892 62.3396 52.3274C62.6448 51.6258 62.4247 51.0633 61.7273 50.7623C61.171 50.5215 60.5877 50.6419 60.2868 51.0591C60.1402 51.2741 60.019 51.5054 59.9256 51.7483C59.8753 51.8536 59.8309 51.9617 59.7928 52.0721L61.2457 52.6948L61.2478 52.7031Z" fill="#1D1D1B"/>
</svg>
