<svg width="73" height="73" viewBox="0 0 73 73" fill="none" xmlns="http://www.w3.org/2000/svg">
<path fill-rule="evenodd" clip-rule="evenodd" d="M39.9907 67.1547C39.7301 67.9361 38.8811 69.8499 36.8322 69.8499C34.5051 69.8499 33.6929 67.3288 33.6535 67.2254L33.5869 66.9836C33.5869 66.9836 35.5925 67.1502 36.6969 67.1502C37.8012 67.1502 39.6876 67.0431 39.9967 66.9836L39.9907 67.1547Z" fill="black"/>
<path fill-rule="evenodd" clip-rule="evenodd" d="M46.0993 65.9116L46.5802 65.9755C46.0095 67.4626 44.9852 69.1298 42.9728 69.1298C41.0251 69.1298 40.0596 68.0011 39.6475 67.2419L39.3109 67.0355C39.3113 67.0351 42.6799 66.9242 46.0993 65.9116ZM27.6345 65.9116L27.1543 65.9755C27.7239 67.4626 28.7489 69.1298 30.7621 69.1298C32.7094 69.1298 33.7615 67.9379 34.1931 67.2419L34.4229 67.0355C34.4225 67.0351 31.0546 66.9242 27.6345 65.9116Z" fill="black"/>
<path fill-rule="evenodd" clip-rule="evenodd" d="M38.4652 67.3097C38.1501 67.7665 37.9395 67.7451 37.559 67.7451C37.3687 67.7451 37.083 67.903 37.092 68.1888C37.098 68.4129 37.2807 68.6001 37.5913 68.6001C38.2787 68.6001 38.8024 67.6394 38.9498 67.2333C38.9498 67.2333 39.3567 67.2157 39.4755 67.204C39.4755 67.204 38.7464 69.3739 36.8574 69.3739C34.9642 69.3739 34.1934 67.2273 34.1934 67.2273C34.1934 67.2273 35.7861 67.3258 36.6991 67.3258C37.612 67.3258 38.1918 67.3217 38.4652 67.3097ZM45.8476 66.355C44.6125 66.6877 43.7356 66.9566 41.6623 67.2089C41.6623 67.2089 41.727 67.4232 42.1778 67.3992C42.3512 67.3905 42.3734 67.3476 42.4377 67.336C42.5655 67.3127 42.7621 67.4469 42.7388 67.6725C42.7219 67.8297 42.5869 68.0286 42.1278 68.0286C41.6687 68.0286 41.1322 67.6526 40.8626 67.3044C40.8626 67.3044 40.5866 67.3676 40.3016 67.3837C40.3016 67.3837 41.1837 68.6197 42.9242 68.6197C44.8396 68.62 45.5465 66.9088 45.8476 66.355Z" fill="#FFF22D"/>
<path fill-rule="evenodd" clip-rule="evenodd" d="M44.5635 67.5633C44.5635 67.2636 44.471 66.9861 44.3138 66.7563C43.6434 66.9143 42.8768 67.059 41.7536 67.1985C41.7456 67.232 41.7382 67.2656 41.7314 67.2993C41.7991 67.3542 41.9304 67.4132 42.1781 67.4001C42.3515 67.3914 42.3737 67.3486 42.438 67.3369C42.5658 67.3136 42.7625 67.4478 42.7391 67.6734C42.7222 67.8306 42.5872 68.0295 42.1281 68.0295C42.0101 68.0295 41.8856 68.0047 41.763 67.9611C41.8232 68.1698 41.9296 68.3585 42.0706 68.5157C42.3496 68.5862 42.6364 68.6214 42.9241 68.6206C43.5382 68.6206 44.0273 68.445 44.4195 68.1874C44.5145 67.9931 44.5638 67.7796 44.5635 67.5633Z" fill="#FADE2F"/>
<path fill-rule="evenodd" clip-rule="evenodd" d="M44.5441 67.5633C44.5445 67.2766 44.4571 66.9967 44.2937 66.7612C43.6319 66.9154 42.8758 67.0579 41.7756 67.1951C41.7651 67.2337 41.7566 67.2727 41.75 67.3121C41.8218 67.3628 41.9512 67.4121 42.179 67.3993C42.3524 67.3907 42.3745 67.3478 42.4388 67.3361C42.5667 67.3128 42.7633 67.4471 42.74 67.6727C42.7231 67.8298 42.5881 68.0287 42.129 68.0287C42.0181 68.0287 41.9019 68.0066 41.7868 67.9686C41.85 68.1788 41.9602 68.3675 42.1065 68.5239C42.3539 68.5841 42.6272 68.6202 42.9254 68.6202C43.5225 68.6202 44.0019 68.4544 44.3884 68.2081C44.4907 68.0085 44.5441 67.7875 44.5441 67.5633Z" fill="#FBE02F"/>
<path fill-rule="evenodd" clip-rule="evenodd" d="M44.5244 67.5631C44.5244 67.2665 44.432 66.9912 44.2733 66.7656C43.6213 66.9175 42.8734 67.0578 41.7969 67.1931C41.7852 67.2356 41.7747 67.2796 41.7676 67.324C41.8424 67.3702 41.9687 67.4105 42.1789 67.3996C42.3523 67.3909 42.3744 67.3481 42.4387 67.3364C42.5666 67.3131 42.7632 67.4473 42.7399 67.6729C42.723 67.8301 42.588 68.029 42.1289 68.029C42.0203 68.0275 41.9126 68.0096 41.8093 67.976C41.8747 68.1869 41.9894 68.3768 42.1406 68.5321C42.3793 68.587 42.6407 68.6201 42.9249 68.6201C43.5051 68.6201 43.9744 68.4629 44.3549 68.2287C44.4667 68.0247 44.525 67.7957 44.5244 67.5631Z" fill="#FCE22F"/>
<path fill-rule="evenodd" clip-rule="evenodd" d="M27.8882 66.3551C29.1226 66.6879 29.9998 66.9567 32.0731 67.209C32.0731 67.209 32.0084 67.4234 31.5576 67.3993C31.3839 67.3906 31.3617 67.3478 31.2974 67.3361C31.1699 67.3128 30.9729 67.447 30.997 67.6726C31.0135 67.8298 31.1481 68.0287 31.6072 68.0287C32.0663 68.0287 32.6029 67.6527 32.8721 67.3045C32.8721 67.3045 33.1492 67.3677 33.4342 67.3839C33.4342 67.3839 32.5518 68.6198 30.8112 68.6198C28.8959 68.6202 28.1886 66.909 27.8882 66.3551ZM36.675 56.1744C43.2743 56.1744 50.5865 52.1237 55.7133 46.2836C56.2679 45.6526 57.2094 44.4558 59.441 44.4558C61.6722 44.4558 64.6389 46.4892 64.2896 50.1922C64.0354 52.8919 60.1765 58.976 53.5772 62.7267C46.978 66.4773 40.901 67.2842 36.6754 67.2842C32.4499 67.2842 26.3729 66.4773 19.7732 62.7267C13.1739 58.976 9.31538 52.8919 9.06045 50.1922C8.71114 46.4892 11.6778 44.4558 13.9094 44.4558C16.141 44.4558 17.0829 45.653 17.6371 46.2836C22.764 52.1237 30.0758 56.1744 36.675 56.1744Z" fill="#FFF22D"/>
<path d="M36.675 55.9371C39.8725 55.9371 43.2434 54.9723 46.4481 53.3073C49.7874 51.5728 52.9428 49.081 55.5354 46.1279C55.8212 45.8034 56.2051 45.3326 56.8191 44.9352C57.4369 44.5351 58.2716 44.2185 59.441 44.2185C59.562 44.2185 59.6914 44.2253 59.8271 44.2377C60.9029 44.3396 62.0854 44.8596 62.9976 45.765C63.9105 46.6712 64.5554 47.9616 64.5554 49.6014C64.5554 49.7947 64.546 49.9988 64.5253 50.2147C64.379 51.7649 63.0912 54.3838 60.8153 57.0474C59.0292 59.1369 56.6307 61.2636 53.6945 62.9319C50.3721 64.8198 47.1813 65.9678 44.2898 66.6427C39.2809 67.8133 34.0695 67.8133 29.0605 66.6427C26.1694 65.9678 22.9786 64.8198 19.6562 62.9319C16.72 61.2632 14.3214 59.1365 12.5354 57.0474C10.2595 54.3838 8.97127 51.7649 8.825 50.2147C8.8054 50.0108 8.79536 49.8062 8.79492 49.6014C8.79492 47.9616 9.43977 46.6712 10.3531 45.765C11.2649 44.8596 12.4471 44.3396 13.5224 44.2377C13.6589 44.2253 13.7883 44.2185 13.9093 44.2185C15.078 44.2185 15.9138 44.5351 16.5309 44.9352C17.1453 45.3326 17.5295 45.8034 17.8149 46.1279C20.4075 49.081 23.5637 51.5724 26.9022 53.3073C30.1069 54.9723 33.477 55.9371 36.675 55.9371ZM36.675 56.4116C33.3992 56.4116 29.9539 55.4276 26.683 53.7288C23.2948 51.9684 20.0913 49.4378 17.4585 46.4399C17.1896 46.1339 16.826 45.6902 16.2729 45.3319C15.7228 44.9758 14.9719 44.6938 13.909 44.6938C13.7947 44.6937 13.6806 44.6988 13.5668 44.7092C12.5922 44.8009 11.5183 45.2755 10.6866 46.1008C9.85601 46.9254 9.26944 48.1019 9.26944 49.6018C9.26944 49.792 9.27809 49.9815 9.29576 50.1703C9.43413 51.6375 10.6832 54.1522 12.8949 56.7402C14.6493 58.7928 17.0058 60.8823 19.8897 62.5213C23.167 64.3837 26.3149 65.5155 29.168 66.1814C31.6289 66.7565 34.1478 67.047 36.675 67.0473C39.2022 67.0471 41.721 66.7565 44.1819 66.1814C47.0358 65.5155 50.1833 64.3837 53.4602 62.5213C56.3442 60.8823 58.701 58.7928 60.4554 56.7395C62.6675 54.1514 63.9166 51.6378 64.0546 50.1703C64.0722 49.9823 64.0809 49.792 64.0809 49.6018C64.0809 48.1023 63.4939 46.9257 62.6633 46.1008C61.832 45.2755 60.7577 44.8009 59.7831 44.7092C59.6694 44.6988 59.5552 44.6937 59.441 44.6938C58.3784 44.6938 57.6271 44.9758 57.077 45.3319C56.5239 45.6902 56.1599 46.1339 55.8919 46.4399C53.2591 49.4378 50.0559 51.9683 46.6673 53.7281C43.3968 55.4276 39.9511 56.4116 36.675 56.4116Z" fill="black"/>
<path fill-rule="evenodd" clip-rule="evenodd" d="M16.8958 46.8636L16.8187 46.7764C16.2934 46.1733 15.5737 45.3464 13.855 45.3464C12.8526 45.3464 11.7174 45.8826 10.9632 46.7117C10.3992 47.3306 9.75957 48.4192 9.91674 50.0834C10.1311 52.3571 13.7415 58.254 20.1708 61.9083C25.3529 64.8532 30.8873 66.3471 36.621 66.3471C42.3547 66.3471 47.8888 64.8532 53.0713 61.9083C59.5002 58.254 63.111 52.3571 63.3253 50.0834C63.4817 48.4192 62.8429 47.331 62.2781 46.7117C61.5246 45.8826 60.3887 45.3464 59.387 45.3464C57.6687 45.3464 56.949 46.1733 56.423 46.7764L56.3466 46.8636C50.8212 53.1564 43.2628 57.065 36.621 57.065C29.9796 57.065 22.4208 53.1568 16.8958 46.8636Z" fill="#C23227"/>
<path fill-rule="evenodd" clip-rule="evenodd" d="M57.875 39.4413C57.875 36.275 60.4409 33.708 63.6076 33.708C66.7743 33.708 69.3409 36.275 69.3409 39.4413C69.3409 42.6073 66.7743 45.1739 63.6076 45.1739C60.4409 45.1739 57.875 42.6073 57.875 39.4413Z" fill="#FFF22D"/>
<path d="M57.6367 39.4412C57.6367 37.7924 58.3049 36.2997 59.3859 35.219C60.4654 34.1384 61.9585 33.4702 63.6073 33.4702C65.2561 33.4702 66.7488 34.1384 67.8295 35.219C68.9101 36.2997 69.5779 37.7924 69.5779 39.4412C69.5779 41.09 68.9097 42.5823 67.8295 43.6626C66.7492 44.7429 65.2561 45.411 63.6073 45.411C61.9585 45.411 60.4662 44.7429 59.3859 43.6626C58.8305 43.109 58.39 42.451 58.0898 41.7265C57.7896 41.0021 57.6356 40.2254 57.6367 39.4412ZM58.1116 39.4412C58.1116 40.9584 58.7271 42.3323 59.7213 43.3268C60.7155 44.3214 62.0898 44.9365 63.6069 44.9365C65.1241 44.9365 66.498 44.321 67.4933 43.3268C68.0044 42.8171 68.4097 42.2115 68.6859 41.5446C68.9621 40.8778 69.1039 40.163 69.103 39.4412C69.104 38.7193 68.9622 38.0044 68.686 37.3375C68.4097 36.6706 68.0044 36.0649 67.4933 35.5552C66.4984 34.5606 65.1241 33.9455 63.6069 33.9455C62.0898 33.9455 60.7158 34.5606 59.7213 35.5552C59.2101 36.0648 58.8047 36.6705 58.5285 37.3374C58.2522 38.0044 58.1105 38.7193 58.1116 39.4412Z" fill="black"/>
<path fill-rule="evenodd" clip-rule="evenodd" d="M4.12988 39.4504C4.12988 36.2848 6.69687 33.7178 9.86321 33.7178C13.0292 33.7178 15.5962 36.2848 15.5962 39.4504C15.5962 42.6171 13.0292 45.1837 9.86321 45.1837C6.69687 45.1837 4.12988 42.6171 4.12988 39.4504Z" fill="#FFF22D"/>
<path d="M3.89258 39.4503C3.89258 37.8023 4.56074 36.3095 5.64138 35.2289C6.19523 34.6737 6.85331 34.2335 7.57782 33.9334C8.30233 33.6334 9.07898 33.4795 9.86317 33.4805C11.5116 33.4805 13.0043 34.149 14.0846 35.2289C14.6397 35.7827 15.08 36.4407 15.3801 37.1651C15.6801 37.8896 15.834 38.6662 15.833 39.4503C15.833 41.0991 15.1648 42.5918 14.0846 43.6725C13.5309 44.2277 12.8729 44.6681 12.1484 44.9683C11.424 45.2685 10.6473 45.4225 9.86317 45.4216C8.21438 45.4216 6.72202 44.7527 5.64138 43.6725C4.56074 42.5922 3.89258 41.0987 3.89258 39.4503ZM4.3671 39.4503C4.36611 40.1722 4.50781 40.8872 4.78406 41.5542C5.0603 42.2211 5.46564 42.8269 5.97678 43.3367C6.48652 43.8478 7.09225 44.2531 7.75914 44.5293C8.42604 44.8056 9.14095 44.9473 9.86279 44.9464C11.3804 44.9464 12.7539 44.3309 13.7484 43.3367C14.2596 42.8269 14.6649 42.2211 14.9412 41.5542C15.2174 40.8872 15.3591 40.1722 15.3581 39.4503C15.3581 37.9331 14.743 36.5592 13.7484 35.5647C12.7539 34.5701 11.3804 33.955 9.86279 33.955C9.14095 33.9541 8.42604 34.0958 7.75914 34.372C7.09225 34.6483 6.48652 35.0536 5.97678 35.5647C5.46576 36.0744 5.0605 36.6801 4.78426 37.3469C4.50802 38.0137 4.36625 38.7285 4.3671 39.4503Z" fill="black"/>
<path fill-rule="evenodd" clip-rule="evenodd" d="M65.177 24.0212L65.2086 22.486C65.6771 22.8398 66.5694 22.8538 67.0917 22.2958C67.3319 22.0408 67.4662 21.6517 67.4447 21.2448C67.4152 20.769 67.2125 20.3205 66.8747 19.9841C64.9439 18.1025 63.2372 16.2218 63.2372 16.2218C63.0646 15.9435 62.7804 15.7378 62.6255 15.6687C62.3837 15.5611 61.549 15.1791 60.912 16.1477C60.3348 17.0257 60.4206 18.268 60.5243 18.7192L62.3359 21.1805C62.9537 21.9637 64.695 23.6332 65.177 24.0212ZM26.5752 8.05643C28.8515 7.29352 30.929 6.66371 33.7298 6.41479L26.5752 8.05643Z" fill="black"/>
<path fill-rule="evenodd" clip-rule="evenodd" d="M26.5753 8.06301C28.8517 7.29897 30.9291 6.67029 33.73 6.421L34.1567 6.17998C32.5907 4.94894 31.037 4.11157 29.4905 4.11157C28.5193 4.11157 26.5452 4.77033 26.1016 8.25214L26.5753 8.06301ZM46.7807 8.06301C44.504 7.29897 42.4273 6.67029 39.6265 6.421L39.1997 6.17998C40.7654 4.94894 42.3187 4.11157 43.8652 4.11157C44.8368 4.11157 46.8116 4.77033 47.2545 8.25214L46.7807 8.06301ZM34.8098 6.07094C35.2727 6.04725 36.3409 6.02356 36.7685 6.02356C37.1952 6.02356 38.3755 6.07996 38.6338 6.09951L34.8098 6.07094Z" fill="black"/>
<path fill-rule="evenodd" clip-rule="evenodd" d="M34.1045 6.30248C35.2494 4.10774 36.2985 3.30835 36.8787 3.30835C37.6044 3.30835 38.4541 4.46344 39.12 5.94979L39.261 6.28443L38.6816 6.23668C38.2872 6.16599 37.1953 6.15396 36.7685 6.15396C36.341 6.15396 35.4152 6.15396 34.8573 6.20133L34.1045 6.30248Z" fill="black"/>
<path fill-rule="evenodd" clip-rule="evenodd" d="M31.8645 58.271L30.8395 62.095L28.9287 57.4848L27.7394 57.166L26.2903 62.5733L27.5803 62.9192L28.6132 59.0644L30.5545 63.716L31.7134 64.0266L33.1621 58.6185L31.8645 58.271ZM36.3187 58.9542L34.8489 58.8772L34.5564 64.4672L36.0258 64.5443L36.3187 58.9542ZM37.6385 58.9065L37.7415 59.6431L39.3094 59.422L39.9851 64.2292L41.4425 64.0243L40.7665 59.2178L42.3107 59.0005L42.2081 58.2647L37.6385 58.9065ZM52.8035 56.6275C53.5153 57.8751 53.372 58.7828 52.2741 59.4167L51.7533 59.7172L49.6947 56.153L50.2572 55.8278C51.5714 55.0694 52.3125 55.7443 52.8035 56.6275ZM49.9402 55.1495L48.0433 56.2444L50.8517 61.1091L52.7347 60.0221C54.6941 58.8903 54.8753 57.1829 54.1071 55.8191C53.1795 54.1966 51.6567 54.1587 49.9402 55.1495ZM46.3866 62.0371L45.8279 60.318L47.4868 59.7788L47.2541 59.0637L45.5955 59.6025L45.1183 58.1346L46.8228 57.5814L46.593 56.8738L43.482 57.8849L45.2116 63.2084L48.6426 62.0943L48.4099 61.3791L46.3866 62.0371ZM25.0889 55.8691L23.4311 58.8595C22.931 59.7612 22.4155 60.3319 21.5721 59.845C20.7351 59.3818 20.9288 58.6899 21.4409 57.7653L23.1021 54.7674L21.7635 54.0256L20.0087 57.1908C19.0409 58.9373 20.2614 60.0131 21.2074 60.5372C22.226 61.102 23.7052 61.522 24.6648 59.7905L26.4271 56.6106L25.0889 55.8691ZM24.1406 22.9871V49.1984L36.6748 57.2555L49.2085 49.1984L49.2247 23.0284C48.8273 22.6727 47.9925 21.894 47.3353 21.4917H25.9567C25.4104 21.8745 24.326 22.7855 24.1406 22.9871Z" fill="#FFF22D"/>
<path d="M24.3772 22.9871V49.0694L36.6741 56.9742L48.971 49.0694L48.9864 23.0284H49.4617L49.4455 49.1984V49.327L49.3361 49.3977L36.802 57.4551L36.6741 57.5374L36.5459 57.4551L24.0121 49.3977L23.9023 49.327V22.9871H24.3772Z" fill="black"/>
<path d="M49.0661 23.2059C48.953 23.1044 49.0383 23.18 48.9184 23.0717H48.9169C48.4894 22.6852 47.7727 22.0377 47.2109 21.694L47.4584 21.2898C48.0648 21.6617 48.7984 22.3242 49.2365 22.7194H49.235L49.3835 22.8517L49.0661 23.2059Z" fill="black"/>
<path d="M47.3346 21.7289H25.9561V21.2544H47.3346V21.7289Z" fill="black"/>
<path d="M26.0925 21.6864C25.8364 21.8661 25.4751 22.1504 25.1446 22.4223C24.7577 22.7411 24.4084 23.0449 24.3144 23.1476L23.9658 22.8268C24.0703 22.7122 24.4396 22.3899 24.8442 22.0568C25.1957 21.7673 25.5706 21.4713 25.8195 21.2969L26.0925 21.6864Z" fill="black"/>
<path fill-rule="evenodd" clip-rule="evenodd" d="M37.5603 34.1982C37.4731 34.1599 37.161 34.4114 37.0185 34.637C36.876 34.8626 36.8343 35.1533 37.0362 35.2601C37.2381 35.3668 37.4923 35.2285 37.5532 34.8747C37.5882 34.6667 37.6558 34.2396 37.5603 34.1982ZM35.161 34.8743C35.2133 35.23 35.4754 35.3668 35.6773 35.2597C35.8792 35.1529 35.8378 34.8622 35.6953 34.6366C35.5525 34.411 35.2588 34.1595 35.1712 34.1978C35.0761 34.2396 35.1313 34.6727 35.161 34.8743ZM36.4192 38.361C36.8403 37.6699 37.0155 36.9517 37.0155 36.9517H35.8108C35.8108 36.9517 36.0037 37.6875 36.4192 38.361ZM36.6267 33.1691L37.5998 31.4756L38.3593 33.1691H39.6182C38.8583 33.8816 38.5496 34.9574 38.5496 35.6699V36.4531C38.5496 36.7859 38.3838 37.3315 38.3838 37.3315C38.3838 37.3315 39.4734 38.1643 39.6419 38.3046C39.713 38.364 39.7882 38.3986 39.7367 38.5426C39.6502 38.7877 38.9136 39.116 38.835 39.1829C38.6692 39.3254 38.624 39.4187 38.6726 39.5634C38.7203 39.7052 38.8583 39.7293 39.1433 39.6341C39.4283 39.5394 40.0217 39.2311 40.521 39.0171C41.0188 38.8035 41.6836 38.8505 41.6836 38.8505V37.9019H39.8088V34.863L39.4761 34.3325L40.3074 32.8604L41.1373 34.3407L40.8053 34.8626V36.4531H41.7667V34.8626L41.4347 34.3407L42.2653 32.8683L43.0959 34.3407L42.7639 34.8626V36.4531H43.7253V34.8626L43.3933 34.3407L44.2239 32.8683L45.0545 34.3407L44.7217 34.8626L44.7319 37.8992L42.8466 37.9V39.2953C43.2741 39.6984 43.6779 40.6076 43.6779 41.1532C43.6779 41.6995 43.3219 41.9368 43.3219 41.9368C43.4399 42.3643 43.4166 42.5418 43.3689 42.934C43.3204 43.334 42.8225 43.9541 42.8225 43.9541V51.1922C42.8225 51.6851 41.6836 51.6381 41.6836 51.2162V44.1206C41.0425 43.4088 39.2858 42.8625 39.2858 42.8625C38.6447 43.5028 38.2417 44.6192 38.2417 44.6192C38.5267 44.8095 38.9542 44.6192 39.12 44.4289C39.2858 44.2394 39.6186 44.1917 39.8088 44.3101C39.9984 44.429 40.0461 44.4767 39.9747 44.7617C39.9036 45.046 39.7844 45.519 39.7844 45.8506C39.7844 46.1834 40.1649 46.1112 40.4492 46.1356C41.0192 46.1834 41.114 46.8237 41.067 47.1798C41.0192 47.5359 40.8534 48.2962 40.8534 48.7703C40.8534 49.2444 40.8767 49.7197 40.9244 49.9814C40.9715 50.242 41.067 50.527 41.0425 50.8598C41.0102 51.3098 40.7342 51.382 40.4492 51.097C40.1649 50.812 36.1999 46.5865 36.1999 46.5865C35.939 47.4404 37.0305 48.9132 37.387 49.364C37.7431 49.8156 37.719 50.1476 37.4111 50.4559C37.102 50.7643 36.5086 50.9305 36.3902 51.2158C36.2714 51.5009 36.6752 52.3548 37.5058 53.4226C38.3364 54.4912 36.556 55.2034 35.4878 55.4173C34.4196 55.6309 34.4196 54.8943 34.491 54.4912C34.5617 54.0874 34.5617 53.8501 34.5384 53.4941C34.5147 53.1387 34.1823 52.6402 33.7311 52.0457C33.2799 51.4531 33.2799 50.9068 33.4701 49.5298C33.66 48.1537 33.6126 47.2746 33.6126 47.2746C33.6126 47.2746 33.1378 47.2986 32.4493 47.2746C31.7608 47.2512 31.1912 46.85 31.1438 45.1881C31.0964 43.5262 31.0569 39.5627 30.946 39.1506C30.8355 38.7392 30.3922 38.6599 30.2023 38.6129C30.0124 38.5651 29.9985 38.2801 30.1884 38.1854C30.6828 37.938 31.2784 37.3307 31.0569 36.951C30.8355 36.5708 29.965 36.6498 29.3796 36.9348C28.7941 37.2198 28.1767 37.8364 28.0184 38.0113C27.8601 38.1854 27.7334 38.1854 27.7492 37.9951C27.765 37.8049 27.6387 36.9032 27.5597 36.5866C27.4808 36.27 27.1954 35.6692 27.1006 35.5109C27.0059 35.3526 27.1006 35.2894 27.2589 35.3526C27.4172 35.4161 27.7654 35.5586 28.0978 35.6534C28.4302 35.7481 28.7464 35.5902 28.9047 35.2736C29.063 34.957 29.3634 34.2768 29.5217 33.976C29.68 33.6752 29.9334 33.7384 30.1391 33.7861C30.3452 33.8335 30.535 33.9602 30.7246 34.0392C30.9144 34.1185 31.0727 34.1027 31.1359 34.0076C31.1994 33.9128 31.2788 33.8809 31.3893 33.6432C31.4999 33.406 31.6424 33.5169 31.6582 33.6117C32.2256 37.0164 33.6999 37.1728 33.6999 37.1728C33.4784 37.7421 32.9561 38.6445 32.8298 38.8663C32.7031 39.0874 32.6557 39.3878 32.6241 39.6259C32.5925 39.8631 32.7031 42.1094 32.8614 42.9336C33.0201 43.7563 33.5265 43.4404 33.6845 43.187C33.8424 42.9336 34.3335 41.8894 34.3335 41.8894C34.3335 41.8894 34.4602 41.6044 34.4602 41.3664C34.4602 41.1291 34.0484 40.6069 33.9533 40.4486C33.8586 40.2906 33.5104 39.974 33.5104 39.1825C33.5104 38.3914 34.2225 37.8372 34.476 37.6315C34.729 37.4259 34.729 37.1416 34.6974 36.9675C34.5861 36.355 33.9375 35.0679 33.6213 34.5772C33.3047 34.0869 32.6877 33.1529 32.6877 33.1529H33.9695L34.7926 31.4436L35.6946 33.1608L36.6267 33.1691ZM41.6832 41.7943V40.8212C41.6832 40.8212 41.4219 40.4173 40.7808 40.4173C40.1405 40.4173 39.7607 40.6076 39.7607 40.7734C39.7607 41.0351 40.3304 41.7943 41.6832 41.7943ZM25.1221 29.5248H48.2464V31.1022H25.1221V29.5248ZM25.1221 28.7142V22.4319H48.2464V28.7142H25.1221Z" fill="#C23227"/>
<path fill-rule="evenodd" clip-rule="evenodd" d="M43.695 28.9012V27.8289H42.0154V27.1374H43.3863V24.0989H42.1278L41.7003 23.2683L41.2728 24.0989H40.0151V27.1374H41.3852V27.8289H38.0952V27.1374H39.4657V24.0989H38.2076L37.7801 23.2683L37.3529 24.0989H36.0948V27.1374H37.465V27.8289H34.1106V27.1374H35.4812V24.0989H34.2227L33.7955 23.2683L33.3684 24.0989H32.1099V27.1374H33.4801V27.8289L30.8281 27.836L28.1855 27.2186L28.7183 28.9012H43.695Z" fill="#FFF22D"/>
<path fill-rule="evenodd" clip-rule="evenodd" d="M29.0975 27.0822L30.8696 27.5176L31.8202 24.8494L31.8206 24.1768L29.0975 27.0822ZM33.3738 6.24545C30.6286 6.48948 28.9392 7.07304 26.708 7.82092C26.8738 6.86098 27.0972 6.29208 27.4848 5.72694C27.4536 6.22327 27.859 6.75193 28.6655 6.75193C29.472 6.75193 29.921 6.28682 29.921 6.00744C29.921 5.72882 29.7514 5.32499 29.3171 5.32499C28.8828 5.32499 28.79 5.6352 28.8208 5.75928C28.852 5.88374 28.7587 5.91457 28.635 5.94578C28.5106 5.97661 28.1695 5.79011 28.2936 5.3562C28.4297 4.87905 29.0069 4.61961 29.689 4.61961C29.6886 4.61886 31.3122 4.55418 33.3738 6.24545ZM46.6671 7.84009C44.4359 7.09147 42.6706 6.50828 39.9253 6.26388C41.1891 5.38327 42.3694 4.6354 43.6662 4.6354C44.3483 4.6354 44.9258 4.89484 45.0616 5.37199C45.1857 5.80628 44.8443 5.99203 44.7202 5.96082C44.5968 5.92961 44.5036 5.89878 44.5344 5.7747C44.5653 5.65099 44.472 5.34041 44.0381 5.34041C43.6042 5.34041 43.4346 5.74349 43.4346 6.02286C43.4346 6.30223 43.8832 6.76735 44.6897 6.76735C45.4962 6.76735 45.9016 6.23831 45.8707 5.74236C46.258 6.30787 46.5013 6.88015 46.6671 7.84009ZM35.0655 5.73522C34.9918 5.8529 34.9271 5.94051 34.8481 6.07174C35.4875 6.04466 36.1273 6.02899 36.7673 6.02474C37.1865 6.02474 38.3424 6.08076 38.5958 6.09919C38.1867 5.15203 37.4148 3.84428 36.8756 3.84428C36.7692 3.84428 36.5338 3.78901 36.0908 4.29887C36.0908 4.29887 36.022 4.5241 36.3033 4.48086C36.6597 4.42634 36.7947 4.79445 36.7684 4.97756C36.706 5.40358 36.21 5.81493 35.7133 5.81493C35.2174 5.81493 35.0655 5.73522 35.0655 5.73522Z" fill="#FFF22D"/>
<path fill-rule="evenodd" clip-rule="evenodd" d="M11.1544 21.1806L12.966 18.7193C13.0701 18.2681 13.1559 17.0258 12.5783 16.1478C11.9414 15.1792 11.1059 15.5612 10.8641 15.6688C10.7092 15.738 10.4257 15.9436 10.2523 16.2219C10.2523 16.2219 8.51444 18.1425 6.59155 20.0327C6.32421 20.2951 6.02265 20.7922 5.99821 21.2446C5.97565 21.6514 6.13545 22.0571 6.37459 22.312C6.89762 22.8693 7.81357 22.84 8.28132 22.4861L8.3129 24.0214C8.79644 23.6333 10.537 21.9639 11.1544 21.1806Z" fill="black"/>
<path fill-rule="evenodd" clip-rule="evenodd" d="M36.6745 17.5939C46.9932 17.5939 52.869 27.2836 54.1463 28.9858C56.4257 32.0243 59.2092 34.4882 62.4391 33.67C67.1862 32.4676 66.9335 25.4333 66.9335 25.4333C65.7946 24.6098 63.8401 23.5732 60.2865 18.5328C56.8047 13.5955 48.9232 6.26978 36.6745 6.26978C24.425 6.26978 16.5435 13.5955 13.0621 18.5328C9.50845 23.5728 7.55473 24.6098 6.41543 25.4333C6.41543 25.4333 6.16238 32.4676 10.9102 33.67C14.1397 34.4882 16.924 32.0243 19.203 28.9858C20.4795 27.2836 26.3561 17.5939 36.6745 17.5939Z" fill="#FFF22D"/>
<path d="M36.6746 17.3566C46.2695 17.3566 52.0514 25.5972 53.9325 28.2785C54.1029 28.5214 54.2416 28.7188 54.3356 28.8436C55.4591 30.3423 56.7056 31.6982 58.0641 32.5747C59.3955 33.4342 60.8386 33.8309 62.3814 33.4403C66.5968 32.3724 66.7054 26.459 66.6975 25.5558C66.6073 25.4915 66.5073 25.4227 66.4024 25.3505C65.2082 24.5263 63.2887 23.202 60.0926 18.6689C58.0945 15.8346 54.633 12.2065 49.7164 9.65303C46.1398 7.79556 41.7924 6.50699 36.6743 6.50699C31.5561 6.50699 27.208 7.79556 23.6318 9.65303C18.7151 12.2065 15.2544 15.8342 13.2559 18.6689C10.0591 23.2028 8.13996 24.5267 6.94502 25.3509C6.84049 25.4231 6.74123 25.4915 6.65061 25.5554C6.64271 26.4582 6.75138 32.3716 10.9671 33.4399C12.5103 33.8309 13.9526 33.4339 15.2844 32.5743C16.6426 31.6978 17.889 30.342 19.0133 28.8432C19.1069 28.7184 19.2457 28.521 19.416 28.2785C21.2979 25.5975 27.0801 17.3566 36.6746 17.3566ZM36.6746 17.8315C27.326 17.8315 21.6502 25.9198 19.804 28.5514C19.6694 28.7453 19.5322 28.9373 19.3923 29.1275C18.2376 30.6672 16.952 32.0629 15.5413 32.9736C14.1038 33.9012 12.5392 34.3276 10.8528 33.9001C5.9174 32.6499 6.17759 25.4475 6.17834 25.4265L6.18173 25.3103L6.27761 25.2407C6.40733 25.1471 6.53668 25.0576 6.67693 24.9613C7.84442 24.1556 9.72032 22.8621 12.869 18.3963C14.9005 15.5153 18.4184 11.8275 23.4156 9.23228C27.0534 7.34285 31.4745 6.03247 36.675 6.03247C41.8752 6.03247 46.2962 7.34285 49.9345 9.23228C54.9312 11.8275 58.4495 15.5149 60.481 18.3963C63.6293 22.861 65.5049 24.1556 66.672 24.9606C66.8122 25.0572 66.9423 25.1471 67.072 25.2407L67.1683 25.3103L67.1713 25.4265C67.1721 25.4471 67.4319 32.6499 62.4968 33.9001C60.8108 34.3272 59.2462 33.9009 57.8092 32.9736C56.3976 32.0629 55.1124 30.6672 53.9574 29.1275C53.8412 28.9729 53.7092 28.7834 53.5453 28.5514C51.6987 25.9198 46.0233 17.8315 36.6746 17.8315Z" fill="black"/>
<path fill-rule="evenodd" clip-rule="evenodd" d="M36.6743 16.68C46.6216 16.68 52.5414 25.1179 54.4883 27.8906C54.6153 28.0746 54.7448 28.2569 54.8768 28.4373C57.5088 31.9462 59.9096 33.3682 62.2141 32.7843C65.5474 31.9398 65.9573 27.3525 66.0035 25.9665L66.005 25.9143L65.9625 25.885C64.7905 25.0762 62.8267 23.7229 59.5396 19.0597C57.575 16.2739 50.1203 7.18433 36.6743 7.18433C23.2284 7.18433 15.7741 16.2739 13.8095 19.0597C10.5442 23.6898 8.49537 25.1044 7.39443 25.8647L7.35156 25.894L7.35307 25.9462C7.40082 27.3375 7.8148 31.9428 11.1342 32.7843C13.4395 33.3686 15.8395 31.9462 18.4708 28.4373C18.5671 28.3094 18.7028 28.1158 18.8603 27.8909C20.8062 25.1179 26.7264 16.68 36.6743 16.68Z" fill="#C23227"/>
<path fill-rule="evenodd" clip-rule="evenodd" d="M15.2727 20.5667L14.2341 21.8041L16.1815 25.8292L12.0029 24.4636L11.1084 25.5292L15.3971 29.1275L16.045 28.3556L13.0174 25.8052L17.0782 27.1246L17.505 26.6162L15.5701 22.7377L18.6153 25.2923L19.561 24.165L15.2727 20.5667ZM20.6943 19.724L19.7231 20.7652L18.7281 18.8423L20.6943 19.724ZM18.4319 17.183L17.4772 18.2065L20.1588 23.5397L20.8135 22.8381L20.0852 21.4262L21.3831 20.0342L22.8477 20.6561L23.9279 19.498L18.4319 17.183ZM24.98 12.1159L27.0781 15.4733L22.4028 13.7264L21.3579 14.3791L24.325 19.1266L25.4575 18.4193L23.3429 15.0345L28.0689 16.7874L29.086 16.1512L26.1197 11.4042L24.98 12.1159ZM42.6974 14.8649L43.2858 13.156L44.9346 13.7241L45.1798 13.0127L43.531 12.4453L44.0326 10.9857L45.7268 11.5692L45.9694 10.8657L42.876 9.80124L41.0538 15.0939L44.4646 16.2682L44.709 15.5575L42.6974 14.8649ZM52.2731 14.5111L51.7685 15.0582L52.9458 16.1178L49.6978 19.7259L50.7913 20.7103L54.0392 17.1029L55.1988 18.1459L55.6962 17.5936L52.2731 14.5111ZM53.8801 22.9167L55.2642 21.756L56.3851 23.0912L56.9608 22.6076L55.8406 21.272L57.0224 20.2801L58.1745 21.6529L58.7438 21.1747L56.6419 18.6686L52.3532 22.2673L54.6716 25.0302L55.2473 24.547L53.8801 22.9167ZM60.367 24.3425C60.7569 24.776 60.7584 25.2919 60.3125 25.6931C59.8665 26.0943 59.3055 26.0082 58.8776 25.5326L58.6257 25.2532L60.0402 23.98L60.367 24.3425ZM59.6214 27.1009C59.6323 27.1129 60.4881 27.537 61.433 26.6858C62.2233 25.974 61.9575 24.9975 61.1333 24.0819L59.6078 22.3888L55.4477 26.1345L56.4325 27.228L58.0843 25.7401L58.5719 26.2808L57.5187 28.638L58.7693 29.6438L59.6214 27.1009ZM38.5666 9.33199L38.5263 11.6185L36.3271 11.5805L36.3673 9.29326L34.896 9.26807L34.7986 14.8649L36.2696 14.8909L36.3143 12.3318L38.5128 12.3705L38.4681 14.9288L39.9405 14.9548L40.0375 9.35718L38.5666 9.33199ZM46.5353 17.6515C47.5787 18.2783 48.7195 18.1779 49.2504 17.2943C49.6411 16.6769 49.6441 16.1666 49.1793 15.2537C49.0545 14.989 48.9011 14.8025 48.7958 14.5682C48.5924 14.181 48.4021 13.8677 48.5822 13.5688C48.7747 13.2485 49.2241 13.2255 49.6347 13.4722C50.0656 13.7313 50.2434 14.1603 50.3303 14.4584L51.0082 14.1652C50.8003 13.6136 50.4927 13.1161 49.7971 12.6984C48.5999 11.9791 47.6242 12.1689 47.2188 12.8443C46.809 13.526 46.9252 14.0888 47.2297 14.6694C47.2297 14.6694 47.4256 15.0052 47.5396 15.2251C47.8069 15.6793 48.1197 16.246 47.9024 16.6077C47.6351 17.0529 47.1688 17.1518 46.7199 16.8728C46.1442 16.5073 46.0096 16.0858 45.8885 15.6726L45.1459 15.9933C45.3099 16.5551 45.6938 17.1458 46.5353 17.6515ZM31.2743 9.62527C29.4413 10.0156 28.2407 11.3605 28.6366 13.1838C28.8622 14.1678 29.7444 15.9873 32.5257 15.3958C33.295 15.2488 33.7161 14.9367 34.1218 14.5528L33.6097 13.9685C33.4236 14.1813 33.134 14.4908 32.4945 14.6265C31.1514 14.9123 30.349 13.8192 30.1493 12.8788C29.8538 11.4888 30.6641 10.5235 31.5887 10.3273C32.2369 10.1893 32.6366 10.3607 32.8893 10.4634L32.8972 10.4619L33.0675 9.74823C32.6249 9.56962 32.0963 9.45118 31.2743 9.62527ZM60.9513 18.9348C60.8742 18.6028 60.7656 17.1849 61.304 16.4366C61.8011 15.747 62.2542 15.9805 62.4974 16.0884C62.6069 16.1369 62.9351 16.3498 62.9998 16.7694C63.0344 16.9946 62.9637 17.3277 62.7896 17.5721C62.4489 18.0147 61.674 18.3084 61.674 18.3084C61.674 18.3084 62.667 20.2538 64.7715 22.1857L64.764 23.4987C61.8827 20.7201 60.9513 18.9348 60.9513 18.9348Z" fill="#FFF22D"/>
<path fill-rule="evenodd" clip-rule="evenodd" d="M62.3967 18.5332C62.6817 19.0242 63.4051 20.2256 65.216 21.9225C65.5164 22.2041 66.2654 22.4387 66.6884 21.9638C66.8508 21.7811 66.9542 21.5205 66.9381 21.2175C66.9189 20.8693 66.7046 20.4628 66.4981 20.2857C66.1368 19.9759 64.5798 18.4034 63.4638 17.1683C63.4397 17.3935 63.2427 17.7699 63.2427 17.7699C63.093 17.9812 62.9058 18.2846 62.3967 18.5332ZM8.72529 23.4197L8.71777 22.1797C10.823 20.2474 11.8172 18.3083 11.8172 18.3083C11.8172 18.3083 11.0422 18.0146 10.7016 17.5721C10.5271 17.3277 10.456 16.9942 10.491 16.7693C10.5564 16.3497 10.8839 16.1373 10.993 16.0884C11.2363 15.9805 11.6893 15.7466 12.1857 16.4366C12.7245 17.1848 12.5835 18.5929 12.5068 18.925C12.5075 18.925 11.5262 20.6343 8.72529 23.4197Z" fill="#FFF22D"/>
<path fill-rule="evenodd" clip-rule="evenodd" d="M11.0583 18.5331C10.774 19.0242 10.0502 20.2255 8.23938 21.9224C7.93896 22.2041 7.18995 22.4387 6.7677 21.9638C6.60489 21.781 6.50111 21.5205 6.51728 21.2174C6.53608 20.8692 6.75078 20.4628 6.95721 20.2857C7.31855 19.9758 8.87559 18.4034 9.99082 17.1682C10.0153 17.3934 10.2123 17.7698 10.2123 17.7698C10.3623 17.9811 10.5499 18.2846 11.0583 18.5331Z" fill="#FFF22D"/>
<path fill-rule="evenodd" clip-rule="evenodd" d="M5.20898 39.4981C5.20898 36.9224 7.29694 34.8345 9.8722 34.8345C12.4482 34.8345 14.5358 36.9224 14.5358 39.4981C14.5358 42.0745 12.4478 44.1613 9.8722 44.1613C7.29694 44.1613 5.20898 42.0741 5.20898 39.4981Z" fill="#C23227"/>
<path fill-rule="evenodd" clip-rule="evenodd" d="M12.381 36.1207C12.4611 36.1846 12.6634 36.3508 12.6634 36.3508C13.0676 36.7126 13.4315 37.1356 13.6425 37.6417C13.9094 38.2782 13.0871 39.2352 12.8465 39.46C11.7587 40.4749 11.0826 40.4579 10.6942 40.514C10.3054 40.5689 10.0607 40.329 10.0689 40.0379C10.0937 39.1818 10.7006 37.7225 10.8717 37.4529C10.9838 37.2766 11.1766 37.1641 11.1766 37.1641C11.5778 37.0517 11.967 36.8791 12.1689 36.6505C12.3716 36.4223 12.381 36.1207 12.381 36.1207ZM8.4788 35.5052C8.921 35.3563 9.38425 35.2793 9.85085 35.2773C10.5795 35.2773 11.2737 35.4135 11.864 35.7872C12.0136 35.8816 12.0588 36.0015 12.0588 36.1707C12.0588 36.7193 11.1936 36.9062 10.6175 36.9062C10.0422 36.9062 9.33572 36.6772 8.83563 36.5215C8.33517 36.3648 8.22387 36.0726 8.22387 35.9436C8.22312 35.8154 8.31938 35.5586 8.4788 35.5052ZM6.63412 42.2248C6.0468 41.6446 5.62793 40.602 5.62793 39.501C5.62793 39.0742 5.69072 38.6629 5.80804 38.2745C5.80804 38.2745 5.90693 38.0974 6.00318 38.2489C6.07162 38.3561 6.16449 38.4662 6.24796 38.6133C6.33219 38.7603 6.78828 39.1066 6.74579 39.3799C6.58524 40.4109 6.73 41.7871 6.77813 42.0127C6.82663 42.2372 6.75595 42.3451 6.63412 42.2248ZM6.74617 38.6885C6.53824 38.5738 6.29045 38.0444 6.20961 37.8864C6.15208 37.7733 6.15547 37.4574 6.23405 37.3187C6.57734 36.7114 7.06653 36.1583 7.70047 35.8647C7.77304 35.8312 7.88547 35.8278 7.88547 36.0075C7.88547 36.1076 7.9351 36.2655 7.93698 36.3629C7.93924 36.4584 7.98248 36.6656 7.85351 36.8265C7.72529 36.9867 7.15714 37.9816 7.01877 38.5441C6.98757 38.6723 6.9541 38.8039 6.74617 38.6885ZM9.94109 43.7228C9.91101 43.7213 9.88093 43.7236 9.85085 43.7236C9.07364 43.7236 8.22312 43.4291 7.7189 43.1471C7.19813 42.8557 7.00298 41.5228 7.00298 40.8411C7.00298 38.6415 7.90953 37.3191 8.05392 37.0619C8.1983 36.8054 8.51941 36.7731 8.76043 36.837C9.00145 36.9017 9.09432 36.9502 9.37069 37.0337C9.52034 37.0792 9.82001 37.1416 10.0449 37.1901C10.2697 37.2386 10.51 37.2863 10.366 37.7041C10.2216 38.1211 9.73729 39.1318 9.68428 40.3267C9.63615 41.4055 9.78053 42.4812 10.0253 43.1407C10.1844 43.5686 10.1817 43.7307 9.94109 43.7228ZM11.0484 43.5517C10.807 43.6295 10.6957 43.4577 10.5833 43.3284C10.1498 42.8335 10.0377 41.5014 10.0377 41.325C10.0377 41.1472 10.1016 40.955 10.225 40.952C11.2789 40.9257 12.0283 40.6177 12.7153 40.053C13.4022 39.4882 13.6996 38.8501 13.7624 38.7253C13.8248 38.6005 13.9602 38.6227 13.9929 38.8031C14.0196 38.9502 14.0741 39.2168 14.0741 39.5006C14.0738 41.4168 12.7829 42.9892 11.0484 43.5517Z" fill="#FFF22D"/>
<path fill-rule="evenodd" clip-rule="evenodd" d="M68.3235 39.4981C68.3235 36.9224 66.2356 34.8345 63.6603 34.8345C61.0839 34.8345 58.9971 36.9224 58.9971 39.4981C58.9971 42.0745 61.0843 44.1613 63.6603 44.1613C66.2356 44.1613 68.3235 42.0741 68.3235 39.4981Z" fill="#C23227"/>
<path fill-rule="evenodd" clip-rule="evenodd" d="M61.3621 36.6501C61.564 36.8788 61.9532 37.0513 62.3544 37.1638C62.3544 37.1638 62.5476 37.2762 62.6593 37.4525C62.8304 37.7221 63.4369 39.1814 63.4628 40.0376C63.4707 40.3282 63.2263 40.5685 62.8372 40.5136C62.4488 40.4579 61.7723 40.4745 60.6853 39.4597C60.4443 39.2348 59.6219 38.2779 59.8893 37.6413C60.0995 37.1352 60.4642 36.7122 60.8688 36.3505C60.8688 36.3505 61.0699 36.1843 61.1508 36.1203C61.1504 36.1207 61.1602 36.4223 61.3621 36.6501ZM65.3087 35.9436C65.3087 36.0726 65.197 36.3648 64.6969 36.5215C64.1961 36.6772 63.4903 36.9062 62.9146 36.9062C62.3382 36.9062 61.473 36.7197 61.473 36.1707C61.473 36.0015 61.5185 35.8816 61.6678 35.7872C62.2581 35.4135 62.9522 35.2773 63.6809 35.2773C64.1618 35.2773 64.6217 35.3623 65.0533 35.5052C65.2116 35.5586 65.3087 35.8154 65.3087 35.9436ZM66.7533 42.0124C66.801 41.7867 66.9458 40.4106 66.7856 39.3796C66.7431 39.1062 67.1992 38.7599 67.2834 38.6129C67.3673 38.4659 67.4598 38.3557 67.5278 38.2485C67.6241 38.0974 67.7234 38.2741 67.7234 38.2741C67.8434 38.6719 67.9042 39.0852 67.9038 39.5006C67.9038 40.6016 67.4846 41.6442 66.8969 42.2244C66.7758 42.3451 66.7048 42.2372 66.7533 42.0124ZM66.5122 38.5445C66.3743 37.982 65.8057 36.9867 65.6771 36.8269C65.5485 36.6659 65.5918 36.4588 65.5933 36.3632C65.5963 36.2659 65.6456 36.1079 65.6456 36.0079C65.6456 35.8282 65.758 35.8316 65.8298 35.865C66.4645 36.1583 66.954 36.7114 67.297 37.3191C67.3756 37.4578 67.3793 37.7736 67.321 37.8868C67.2409 38.0447 66.9928 38.5742 66.7848 38.6888C66.5777 38.8039 66.5438 38.6723 66.5122 38.5445ZM63.5065 43.1411C63.7509 42.4816 63.8956 41.4059 63.8471 40.3271C63.7941 39.1322 63.3102 38.1218 63.1658 37.7045C63.021 37.2867 63.2621 37.239 63.4869 37.1905C63.7118 37.142 64.0114 37.0795 64.1618 37.034C64.4371 36.9502 64.5299 36.9017 64.7713 36.8374C65.0116 36.7735 65.3331 36.8058 65.4779 37.0622C65.6226 37.3194 66.5288 38.6418 66.5288 40.8415C66.5288 41.5228 66.334 42.8557 65.8129 43.1475C65.309 43.4295 64.4585 43.7239 63.6809 43.7239C63.6508 43.7239 63.6208 43.7217 63.5914 43.7232C63.35 43.7307 63.347 43.5686 63.5065 43.1411ZM59.458 39.5006C59.458 39.2164 59.5125 38.9498 59.5396 38.8031C59.5719 38.6227 59.7069 38.6005 59.7693 38.7253C59.8325 38.8501 60.1299 39.4882 60.8165 40.053C61.5038 40.6177 62.2529 40.9253 63.3068 40.952C63.4294 40.955 63.494 41.1475 63.494 41.325C63.494 41.5014 63.3824 42.8335 62.9485 43.3284C62.836 43.4577 62.7251 43.6295 62.483 43.5517C60.7481 42.9892 59.458 41.4168 59.458 39.5006Z" fill="#FFF22D"/>
<path d="M59.0156 39.4737C59.0149 38.858 59.1359 38.2482 59.3715 37.6794C59.6072 37.1106 59.9529 36.594 60.3888 36.1592C61.2371 35.3109 62.4091 34.7864 63.7029 34.7864C64.9967 34.7864 66.1691 35.3109 67.017 36.1592C67.8653 37.0071 68.3894 38.1791 68.3894 39.4737C68.3894 40.7682 67.8649 41.9399 67.017 42.7878C66.1691 43.6357 64.9975 44.1602 63.7029 44.1602C63.0872 44.1609 62.4775 44.04 61.9086 43.8045C61.3398 43.569 60.823 43.2235 60.3881 42.7878C59.9523 42.3529 59.6068 41.8363 59.3713 41.2676C59.1358 40.6989 59.0149 40.0892 59.0156 39.4737ZM59.0634 39.4737C59.0634 40.7551 59.5826 41.9147 60.4219 42.7543C61.2619 43.5943 62.4215 44.1136 63.7033 44.1136C64.9851 44.1136 66.1443 43.5943 66.9847 42.7551C67.8239 41.9151 68.3432 40.7555 68.3432 39.4737C68.3432 38.1919 67.8239 37.0326 66.9839 36.1926C66.5536 35.7612 66.0422 35.419 65.4792 35.1858C64.9162 34.9526 64.3127 34.833 63.7033 34.8338C63.0939 34.8331 62.4903 34.9528 61.9273 35.1861C61.3643 35.4193 60.853 35.7615 60.4226 36.193C59.9911 36.6233 59.6489 37.1347 59.4156 37.6977C59.1823 38.2607 59.0626 38.8642 59.0634 39.4737Z" fill="#FDE62F"/>
</svg>
