<svg width="102" height="73" viewBox="0 0 102 73" fill="none" xmlns="http://www.w3.org/2000/svg">
<path fill-rule="evenodd" clip-rule="evenodd" d="M45.7403 3.83496C45.7501 3.83496 45.7925 3.92954 45.8316 4.0437C45.8707 4.15803 46.1023 4.83007 46.7876 6.81704L48.3373 6.82682C49.352 6.83335 49.8838 6.84313 49.8805 6.85618C49.8773 6.86922 49.3161 7.28361 47.3879 8.68967L47.8805 10.2557C48.1512 11.1171 48.3667 11.8283 48.3569 11.8348C48.3504 11.8446 47.7599 11.4434 47.0452 10.9443C46.3341 10.4483 45.7435 10.0405 45.7338 10.0405C45.724 10.0405 45.1365 10.4483 44.4254 10.9443C43.7142 11.4434 43.1269 11.8446 43.1204 11.8348C43.1106 11.8283 43.3226 11.1236 43.5902 10.2688C43.8577 9.41734 44.0762 8.70924 44.0762 8.69946C44.0762 8.68641 43.5151 8.2722 42.83 7.77301C42.1449 7.27383 41.587 6.85944 41.5935 6.84639C41.6 6.83335 42.1383 6.82682 44.6832 6.82682L44.7126 6.73876C44.7289 6.6931 44.9539 6.03718 45.2183 5.28034C45.4792 4.52331 45.7011 3.89041 45.7077 3.87084C45.7175 3.85127 45.7305 3.83496 45.7403 3.83496ZM55.5738 3.83496C55.5869 3.83496 55.7923 4.4059 56.0339 5.10078C56.272 5.7991 56.5035 6.47114 56.6342 6.82682H58.1709C59.1725 6.82682 59.7076 6.83335 59.7141 6.84639C59.7206 6.85944 59.1627 7.27709 58.4774 7.77954C57.7924 8.27872 57.2312 8.69619 57.2312 8.70272C57.2312 8.7125 57.4497 9.41734 57.7173 10.2688C57.988 11.1236 58.2002 11.8283 58.1904 11.8348C58.1806 11.8413 57.5901 11.4434 56.8755 10.9443C56.1643 10.4483 55.5706 10.0405 55.5608 10.0437C55.5477 10.0437 54.9603 10.4483 54.2524 10.9475C53.5445 11.4434 52.9572 11.8413 52.9474 11.8348C52.9409 11.8283 53.1529 11.1171 53.4203 10.2557C53.6912 9.39451 53.9032 8.68315 53.8934 8.67663C53.8836 8.66684 53.3225 8.25916 52.6472 7.76323C51.9686 7.27057 51.4205 6.85944 51.4238 6.84639C51.4303 6.83335 51.9654 6.82682 54.507 6.82682L55.0192 5.34557C55.3029 4.5331 55.5379 3.85779 55.5445 3.85127C55.5477 3.84148 55.5608 3.83496 55.5738 3.83496ZM50.5232 14.7843C50.6961 14.7843 50.9311 14.7908 51.0485 14.8039C51.1659 14.8136 51.3486 14.8397 51.4564 14.856C51.5608 14.8723 51.7532 14.9147 51.8806 14.9441C52.0078 14.9769 52.223 15.0421 52.3567 15.0878C52.4906 15.1334 52.7548 15.2476 52.9442 15.3422C53.1333 15.4335 53.404 15.587 53.5412 15.6816C53.6814 15.7729 53.8641 15.9066 53.9491 15.9718C54.0306 16.0372 54.2165 16.2068 54.36 16.3471C54.5037 16.4873 54.6994 16.6995 54.794 16.8169C54.8885 16.9343 55.0257 17.1237 55.2344 17.4368L55.3975 17.4042C55.4856 17.3846 55.6488 17.3585 55.7565 17.3487C55.8674 17.3357 56.0697 17.3259 56.2133 17.3259C56.3568 17.3259 56.5689 17.3389 56.6831 17.3552C56.8005 17.3715 56.9734 17.4009 57.0714 17.4237C57.166 17.4466 57.3421 17.4987 57.466 17.5411C57.5869 17.5805 57.7793 17.6555 57.8902 17.7044C58.0011 17.7566 58.1741 17.8446 58.2752 17.9033C58.3763 17.9653 58.5361 18.0697 58.6309 18.1416C58.7255 18.2101 58.8951 18.3601 59.006 18.4743C59.1203 18.5852 59.2703 18.7582 59.3388 18.8528C59.4073 18.9474 59.515 19.1106 59.5737 19.2183C59.6324 19.3259 59.7206 19.502 59.763 19.6162C59.8087 19.7272 59.8674 19.9001 59.8967 20.0012C59.9261 20.1023 59.9685 20.2949 59.9946 20.4286C60.0304 20.6374 60.037 20.7484 60.037 21.1922C60.0402 21.5901 60.0305 21.7631 60.0044 21.9327C59.9848 22.0567 59.9457 22.2558 59.9196 22.3732C59.8935 22.4906 59.8772 22.5917 59.8837 22.5982C59.8902 22.6048 59.9717 22.6341 60.0598 22.6667C60.1479 22.6961 60.3176 22.7713 60.4351 22.83C60.5525 22.8887 60.7288 22.9931 60.8299 23.0583C60.931 23.1235 61.081 23.2344 61.1625 23.3031C61.2475 23.3716 61.4171 23.5281 61.5411 23.6553C61.6617 23.7827 61.8217 23.9653 61.8935 24.0599C61.9652 24.1545 62.0663 24.3015 62.1185 24.3863C62.1707 24.4711 62.2524 24.6178 62.2981 24.7124C62.347 24.8072 62.4155 24.9637 62.4546 25.0616C62.4905 25.1594 62.546 25.3357 62.5753 25.4499C62.6177 25.6162 62.6308 25.7238 62.6373 25.9849C62.6438 26.2263 62.6405 26.3437 62.6177 26.4515C62.6014 26.5298 62.5884 26.595 62.5916 26.595C62.5916 26.5983 62.6797 26.6439 62.7875 26.6961C62.8919 26.7483 63.0321 26.8298 63.1006 26.8757C63.1658 26.9181 63.2899 27.0127 63.3747 27.0844C63.4563 27.1562 63.5802 27.2768 63.6487 27.3551C63.7139 27.4368 63.8185 27.5803 63.8804 27.6782C63.9424 27.776 64.0272 27.9393 64.0696 28.0371C64.112 28.1382 64.174 28.3209 64.2033 28.445C64.2359 28.5689 64.2718 28.7646 64.2849 28.882C64.3014 29.0192 64.3079 29.241 64.3014 29.5021C64.2948 29.7271 64.2751 29.998 64.2588 30.1024C64.2425 30.21 64.2196 30.3339 64.2001 30.4611L64.3601 30.5787C64.4481 30.6472 64.6014 30.7711 64.7025 30.8592C64.8004 30.944 64.9343 31.0681 64.9962 31.1333C65.0615 31.1986 65.1593 31.3127 65.2213 31.3845C65.2832 31.4595 65.3911 31.6032 65.4628 31.7108C65.5313 31.8184 65.6389 32.0011 65.6976 32.1187C65.7563 32.2361 65.8346 32.4285 65.8772 32.5459C65.9163 32.6635 65.9718 32.869 66.0011 33.0027C66.0403 33.1953 66.0533 33.3291 66.0631 33.6456C66.0696 33.8902 66.0664 34.1185 66.0501 34.2426C66.0403 34.3568 66.0077 34.5525 65.9816 34.6831C65.9555 34.8103 65.8935 35.0353 65.8444 35.179C65.7955 35.3258 65.7009 35.5574 65.6324 35.6978C65.5639 35.838 65.4432 36.05 65.365 36.1674C65.2898 36.285 65.156 36.4644 65.0712 36.5623C64.9897 36.6634 64.8299 36.8331 64.7188 36.9408C64.6079 37.0484 64.4188 37.2115 64.2948 37.303C64.174 37.3943 63.9718 37.5248 63.8511 37.5965C63.727 37.665 63.5117 37.7696 63.3747 37.8283C63.2343 37.887 63.0027 37.9685 62.856 38.0076C62.7123 38.0468 62.4709 38.099 62.3209 38.1218C62.1218 38.1479 61.9391 38.1609 61.6552 38.1609C61.4204 38.1609 61.1723 38.1479 61.0288 38.1283C60.8951 38.112 60.6896 38.0761 60.5655 38.05C60.3796 38.0076 60.3405 38.0044 60.3242 38.0272C60.3111 38.0435 60.2426 38.1414 60.1709 38.2457C60.0989 38.3503 59.9293 38.546 59.7956 38.6862C59.6619 38.8266 59.4758 38.9995 59.3812 39.0778C59.2867 39.1528 59.1169 39.2767 59.006 39.3519C58.8951 39.4269 58.6603 39.5574 58.4872 39.6422C58.3144 39.7302 58.0828 39.8348 57.9717 39.8739C57.8608 39.9163 57.6782 39.975 57.5673 40.0077C57.4562 40.0435 57.2671 40.0892 57.1497 40.112C57.0321 40.1348 56.8657 40.1642 56.7744 40.1805C56.6733 40.1968 56.4187 40.2033 56.0958 40.2033C55.6423 40.2033 55.5543 40.2001 55.3779 40.1609C55.2671 40.1348 55.0681 40.0827 54.9407 40.0403C54.8135 40.0011 54.6048 39.9229 54.4743 39.8674C54.347 39.8118 54.1839 39.7335 53.9882 39.6259V45.5281L54.0534 45.4887C54.0893 45.4659 54.2654 45.3681 54.4448 45.2702C54.6244 45.1724 55.0029 44.9765 55.2866 44.833C55.5706 44.6895 55.9228 44.5199 56.0665 44.4512C56.21 44.386 56.4513 44.2784 56.6048 44.2131C56.7548 44.1512 57.006 44.0468 57.1594 43.9848C57.316 43.9227 57.6032 43.8183 57.7989 43.7531C57.9946 43.6879 58.3078 43.5868 58.5003 43.5346C58.6896 43.4791 59.0027 43.4007 59.1986 43.3615C59.3943 43.3191 59.6913 43.267 59.8576 43.2474C60.0565 43.218 60.3437 43.2017 60.6994 43.1919C61.0549 43.1854 61.3225 43.1887 61.4987 43.205C61.6422 43.218 61.887 43.2539 62.037 43.28C62.187 43.3061 62.4285 43.3615 62.572 43.4039C62.7188 43.4433 62.9473 43.5183 63.081 43.5672C63.2147 43.6194 63.4204 43.7074 63.5345 43.7694C63.652 43.8281 63.8217 43.926 63.9098 43.9848C64.0011 44.0435 64.1479 44.1642 64.409 44.4186V45.7922C64.409 46.546 64.4025 47.1724 64.3927 47.1789C64.3829 47.1887 64.3144 47.1333 64.2359 47.0581C64.1577 46.983 64.024 46.8722 63.9424 46.8167C63.8576 46.758 63.7009 46.6634 63.5965 46.608C63.4921 46.5525 63.3095 46.4643 63.1919 46.4154C63.0745 46.3664 62.8592 46.2882 62.7156 46.2392C62.5688 46.1936 62.3405 46.1284 62.2066 46.0957C62.0729 46.0631 61.8315 46.014 61.6715 45.9847C61.5084 45.9586 61.2573 45.926 61.1136 45.9129C60.9506 45.8966 60.6699 45.8933 60.3829 45.8999C60.0989 45.9031 59.8348 45.9227 59.7043 45.9423C59.5867 45.9618 59.3682 46.0042 59.2182 46.037C59.068 46.0697 58.7907 46.1414 58.6016 46.1968C58.409 46.2523 58.1187 46.3469 57.9522 46.4056C57.7858 46.4676 57.528 46.5688 57.3845 46.6308C57.2377 46.6928 56.9962 46.8004 56.8462 46.8754C56.6961 46.9472 56.3633 47.1235 56.1056 47.267C55.851 47.4105 55.4432 47.6227 55.2051 47.7433C54.9636 47.8607 54.6048 48.0303 54.4057 48.1153C54.2035 48.2001 53.9065 48.3208 53.7467 48.3828C53.5836 48.4415 53.3225 48.5361 53.1692 48.5882C53.0127 48.6406 52.7385 48.7221 52.5591 48.7743C52.3796 48.8232 52.1089 48.8917 51.6684 48.9798L51.6619 42.4253C51.6586 38.8201 51.6619 35.8609 51.6684 35.8478C51.6749 35.8315 51.7597 35.8967 51.8871 36.0174C52.0012 36.125 52.1937 36.2785 52.3176 36.3633C52.4385 36.4448 52.6341 36.559 52.7516 36.621C52.869 36.6797 53.0616 36.7679 53.179 36.8136C53.2964 36.8592 53.4955 36.9277 53.6227 36.9669C53.7532 37.006 53.9719 37.0614 54.1089 37.0908C54.2491 37.1169 54.4874 37.156 54.6374 37.1723C54.7874 37.1919 55.0714 37.205 55.2671 37.205C55.4595 37.205 55.7402 37.1919 55.8837 37.1723C56.0273 37.156 56.2328 37.1234 56.3405 37.1038C56.4448 37.081 56.6146 37.0386 56.7157 37.0125C56.8168 36.9832 56.9734 36.931 57.0714 36.8951C57.166 36.8625 57.329 36.794 57.4334 36.7418C57.541 36.6927 57.7043 36.6047 57.7989 36.5492C57.8935 36.4938 58.0533 36.3829 58.1546 36.3079C58.2557 36.2328 58.4155 36.0892 58.5133 35.9913C58.6113 35.8935 58.7451 35.7369 58.8136 35.6487C58.8788 35.5574 58.9799 35.3943 59.0353 35.2834C59.0908 35.1692 59.1529 35.019 59.1758 34.9473C59.1986 34.8723 59.2279 34.7744 59.2377 34.7288C59.2508 34.6798 59.2671 34.644 59.2769 34.6472C59.2867 34.6472 59.3519 34.7255 59.4236 34.8136C59.4954 34.9049 59.6324 35.0386 59.7271 35.1169C59.8315 35.2019 59.9815 35.2964 60.1218 35.3649C60.2426 35.4236 60.4122 35.4921 60.4938 35.515C60.5786 35.5378 60.7353 35.5671 60.8397 35.5769C60.9766 35.5932 61.0941 35.5932 61.2345 35.5769C61.3454 35.5671 61.5052 35.5378 61.59 35.515C61.6748 35.4921 61.8152 35.4367 61.9033 35.3976C61.9946 35.3552 62.125 35.2801 62.1968 35.2312C62.272 35.1823 62.3959 35.0777 62.4775 34.9995C62.559 34.9179 62.6732 34.7875 62.7319 34.7027C62.7875 34.6177 62.869 34.4775 62.9114 34.3861C62.9506 34.2981 63.006 34.1448 63.0321 34.05C63.0745 33.9 63.0778 33.8315 63.0778 33.5215C63.0778 33.1953 63.0745 33.1529 63.0223 32.9832C62.993 32.882 62.9343 32.732 62.8951 32.6472C62.856 32.5622 62.7777 32.4318 62.7253 32.3502C62.6699 32.272 62.5688 32.1513 62.497 32.0795C62.4285 32.0076 62.3144 31.9065 62.2492 31.8576C62.1805 31.8087 62.05 31.7271 61.9555 31.6815C61.8609 31.6325 61.7239 31.5771 61.6519 31.551C61.5769 31.528 61.4856 31.5052 61.4465 31.4954C61.4106 31.4888 61.3552 31.4725 61.2867 31.4465L61.3552 31.3486C61.391 31.2964 61.4595 31.179 61.5052 31.091C61.5476 30.9994 61.603 30.869 61.6259 30.794C61.6487 30.7222 61.6813 30.6081 61.6943 30.5396C61.7076 30.4742 61.7206 30.3046 61.7174 30.1643C61.7174 29.9587 61.7076 29.8706 61.6617 29.7075C61.6324 29.5934 61.5737 29.4334 61.5313 29.3519C61.4889 29.2671 61.4269 29.1562 61.3943 29.1072C61.3584 29.0551 61.2834 28.9605 61.2214 28.8951C61.1625 28.8266 61.0451 28.7222 60.9603 28.6602C60.8788 28.5983 60.7418 28.5135 60.6568 28.4711C60.5753 28.4319 60.4514 28.3796 60.3829 28.3567C60.3176 28.3339 60.1904 28.3013 60.1055 28.285C60.0174 28.2654 59.8869 28.2524 59.8119 28.2524C59.7369 28.2524 59.6684 28.2459 59.6586 28.2361C59.6521 28.2295 59.6619 28.1969 59.6815 28.1708C59.7043 28.1415 59.7532 28.0567 59.7891 27.9784C59.8282 27.9 59.8804 27.776 59.9033 27.7075C59.9293 27.639 59.9587 27.5379 59.9685 27.489C59.9783 27.4401 59.9978 27.316 60.0076 27.2181C60.0174 27.1105 60.0174 26.9605 60.0076 26.8364C59.9978 26.7255 59.9685 26.5559 59.9391 26.4613C59.913 26.3667 59.8609 26.223 59.825 26.1447C59.7924 26.0665 59.7108 25.9262 59.6489 25.8315C59.5867 25.7303 59.4563 25.5738 59.3421 25.4629C59.2345 25.3553 59.0614 25.2116 58.9538 25.1398C58.8494 25.0713 58.6896 24.9768 58.6016 24.9344C58.5101 24.892 58.3666 24.8333 58.2752 24.8039C58.1872 24.7711 58.0337 24.732 57.9359 24.7091C57.838 24.6896 57.6521 24.6602 57.5215 24.6504C57.391 24.6374 57.2312 24.6341 57.1725 24.6439C57.1105 24.6504 57.0451 24.6504 57.0255 24.6439C56.9929 24.6309 57.006 24.608 57.1007 24.4841C57.1594 24.4026 57.2573 24.2491 57.3127 24.1415C57.3682 24.0371 57.4432 23.8512 57.4823 23.7336C57.5215 23.6162 57.5673 23.4466 57.5869 23.3585C57.6032 23.2705 57.626 23.0942 57.6358 22.9735C57.6423 22.8496 57.6423 22.6472 57.6358 22.5232C57.6293 22.4026 57.6064 22.2232 57.5869 22.1284C57.5673 22.0338 57.5247 21.8708 57.4921 21.7729C57.4595 21.6716 57.3943 21.5053 57.3453 21.4042C57.2964 21.3031 57.1986 21.1366 57.1301 21.0289C57.0486 20.9083 56.9146 20.7517 56.7777 20.6113C56.6505 20.4841 56.4774 20.3373 56.3796 20.2721C56.285 20.2101 56.1448 20.1251 56.0665 20.086C55.988 20.0469 55.8478 19.9882 55.7532 19.9555C55.6586 19.9229 55.5021 19.8773 55.4073 19.8577C55.2703 19.8251 55.1497 19.8186 54.8396 19.8186C54.5363 19.8186 54.4057 19.8283 54.2719 19.8544C54.1774 19.874 54.0176 19.9197 53.9163 19.9523C53.8184 19.9882 53.6847 20.0403 53.6227 20.073C53.564 20.1056 53.5053 20.1349 53.4955 20.1349C53.489 20.1349 53.4727 20.073 53.4597 19.9947C53.4499 19.9197 53.4073 19.7664 53.3714 19.6555C53.3355 19.5444 53.2736 19.3911 53.2377 19.3194C53.2018 19.2476 53.1235 19.1106 53.0583 19.0159C52.9964 18.918 52.8527 18.7484 52.7418 18.6375C52.6309 18.5232 52.4809 18.3895 52.4091 18.3373C52.3339 18.2884 52.2034 18.2036 52.1121 18.1547C52.0241 18.1025 51.8641 18.0273 51.7597 17.9881C51.6521 17.9457 51.4662 17.887 51.3421 17.8577C51.1431 17.812 51.0779 17.8055 50.7059 17.8055C50.3765 17.8055 50.2524 17.812 50.1186 17.8414C50.0208 17.8609 49.8642 17.9033 49.763 17.936C49.6618 17.9686 49.4923 18.0403 49.3879 18.0927C49.2801 18.1481 49.1268 18.2362 49.042 18.2916C48.9604 18.3471 48.7843 18.5004 48.6537 18.6278C48.4971 18.7843 48.3797 18.9246 48.3014 19.0452C48.236 19.1465 48.148 19.2998 48.1088 19.3911C48.0664 19.4792 48.0077 19.6359 47.9784 19.737C47.949 19.8381 47.9197 19.9555 47.9132 19.9979C47.9034 20.0403 47.8903 20.073 47.8838 20.073C47.874 20.073 47.7957 20.0436 47.7108 20.011C47.6227 19.9751 47.4629 19.9229 47.3487 19.8968C47.1953 19.8577 47.0713 19.8414 46.8235 19.8349C46.5689 19.8251 46.4515 19.8316 46.2851 19.8577C46.1675 19.8773 45.9816 19.9229 45.8707 19.9588C45.7599 19.9979 45.5999 20.0599 45.5151 20.1023C45.4335 20.1449 45.29 20.2264 45.202 20.2851C45.1137 20.3471 44.98 20.4449 44.9082 20.5102C44.8365 20.5721 44.7223 20.6865 44.6571 20.7615C44.5917 20.8365 44.4841 20.98 44.4156 21.0811C44.3504 21.1791 44.2623 21.3357 44.2199 21.427C44.1775 21.5151 44.1123 21.6781 44.0795 21.786C44.0436 21.8968 44.0012 22.0697 43.9816 22.1741C43.9621 22.2917 43.949 22.471 43.949 22.6569C43.949 22.8398 43.9621 23.0224 43.9816 23.1333C43.9979 23.2344 44.0371 23.4009 44.0664 23.502C44.0958 23.6031 44.1612 23.7697 44.2101 23.8773C44.2623 23.9849 44.3308 24.1154 44.3667 24.1708C44.3993 24.2295 44.4873 24.3471 44.5558 24.4384C44.6245 24.5265 44.6767 24.6048 44.6702 24.6146C44.6604 24.6211 44.5721 24.6243 44.471 24.6178C44.3699 24.6113 44.1808 24.6146 44.0469 24.6309C43.9131 24.6439 43.7011 24.6798 43.5803 24.7091C43.4563 24.7418 43.2704 24.8039 43.1661 24.8463C43.0583 24.892 42.9082 24.967 42.83 25.0094C42.7517 25.055 42.6147 25.1496 42.5265 25.2149C42.4351 25.2833 42.3014 25.4009 42.2297 25.476C42.1547 25.5542 42.0438 25.6847 41.9849 25.7695C41.9262 25.8545 41.8381 26.0012 41.7924 26.0958C41.7468 26.1904 41.6848 26.347 41.6587 26.4417C41.6294 26.5363 41.5968 26.7092 41.5837 26.8266C41.5641 26.9866 41.5641 27.0942 41.5805 27.2442C41.5935 27.3551 41.6229 27.5216 41.6457 27.6097C41.6685 27.701 41.7305 27.8641 41.7827 27.9784C41.8381 28.0893 41.9294 28.2459 41.9849 28.3241C42.0438 28.4024 42.0894 28.4711 42.0894 28.4809C42.0894 28.4906 42.024 28.4906 41.9425 28.4809C41.8609 28.4711 41.6816 28.4678 41.5413 28.4678C41.3748 28.4711 41.2182 28.4874 41.078 28.5167C40.9604 28.5396 40.7941 28.5885 40.7125 28.6178C40.6277 28.6505 40.5005 28.7124 40.4286 28.7548C40.3536 28.7972 40.2166 28.9081 40.1122 29.0159C39.9753 29.1529 39.9131 29.2344 39.8544 29.3519C39.812 29.4334 39.7598 29.5771 39.737 29.6651C39.7109 29.7728 39.6979 29.8967 39.6979 30.0273C39.6979 30.135 39.7109 30.2883 39.7272 30.3633C39.7435 30.4383 39.7696 30.5461 39.7892 30.6015C39.8087 30.657 39.8609 30.7875 39.9098 30.8853C39.9588 30.9864 40.0503 31.1464 40.1155 31.2377C40.1807 31.329 40.3014 31.4758 40.3829 31.5673C40.4743 31.6684 40.5201 31.7336 40.5038 31.7402C40.4908 31.7467 40.396 31.776 40.2949 31.8021C40.197 31.8315 40.0242 31.9 39.9098 31.9554C39.799 32.0076 39.6359 32.1056 39.5478 32.1741C39.4565 32.2394 39.3096 32.3731 39.2215 32.4677C39.1334 32.5655 39.016 32.7157 38.9638 32.8038C38.9115 32.8918 38.8397 33.0256 38.8104 33.104C38.7778 33.1823 38.7354 33.3127 38.7125 33.391C38.6832 33.4986 38.6766 33.6032 38.6766 33.8478C38.6766 34.0859 38.6832 34.1937 38.7125 34.2948C38.7321 34.3666 38.7908 34.5199 38.8462 34.6307C38.8984 34.7418 38.9932 34.8984 39.0552 34.9766C39.1204 35.0549 39.2182 35.1595 39.2769 35.2116C39.3356 35.2606 39.463 35.3519 39.5576 35.4106C39.6522 35.4693 39.8022 35.5443 39.8903 35.5737C39.9785 35.6063 40.1253 35.6487 40.2166 35.6683C40.3145 35.6913 40.4743 35.7043 40.631 35.7043C40.7712 35.7076 40.9539 35.6945 41.0356 35.6815C41.1204 35.665 41.2704 35.6259 41.3715 35.5932C41.4694 35.5606 41.6359 35.4921 41.737 35.4367C41.8348 35.3845 41.9718 35.2997 42.0405 35.2508C42.1057 35.2019 42.2199 35.1038 42.2916 35.0321C42.3666 34.9636 42.4286 34.9049 42.4351 34.9049C42.4417 34.9049 42.4743 34.9832 42.5102 35.0843C42.546 35.1823 42.6277 35.3486 42.6897 35.4563C42.7517 35.5606 42.856 35.7108 42.918 35.7891C42.98 35.8674 43.0845 35.9848 43.1432 36.0468C43.2052 36.1087 43.3161 36.2068 43.3879 36.2687C43.4596 36.3274 43.6163 36.4416 43.7305 36.5199C43.8479 36.5949 44.0632 36.719 44.2068 36.7875C44.3536 36.8592 44.608 36.9636 44.7745 37.0191C44.9441 37.0745 45.1857 37.143 45.3128 37.1723C45.44 37.2017 45.6553 37.2377 45.7892 37.2541C45.9229 37.2736 46.1741 37.2932 46.3471 37.2997C46.5265 37.3062 46.7843 37.303 46.9441 37.2899C47.1007 37.2769 47.3422 37.2475 47.4825 37.2213C47.6227 37.1984 47.8414 37.1528 47.9686 37.1202C48.0958 37.0875 48.3015 37.0223 48.4254 36.9767C48.5461 36.931 48.7483 36.8462 48.8691 36.7875C48.9931 36.7255 49.1757 36.6275 49.2768 36.5623C49.3748 36.5003 49.5314 36.3894 49.6195 36.3209C49.7108 36.2492 49.8708 36.0989 49.9817 35.9881C50.0893 35.8739 50.1839 35.7858 50.1871 35.7956C50.1937 35.8054 50.2002 38.7645 50.1969 48.9439L50.1219 48.9341C50.0795 48.9244 49.9229 48.8917 49.7727 48.8591C49.6227 48.8265 49.3618 48.758 49.1953 48.7091C49.0289 48.6602 48.7254 48.5654 48.5265 48.4969C48.3243 48.4284 47.998 48.3045 47.7957 48.223C47.5966 48.1414 47.3129 48.0206 47.1692 47.9586C47.0224 47.8934 46.7224 47.7466 46.5004 47.6324C46.2753 47.5181 45.9327 47.3355 45.7403 47.2246C45.5444 47.1137 45.2183 46.9439 45.0191 46.8461C44.8169 46.7515 44.4939 46.608 44.2982 46.5295C44.1057 46.4512 43.7892 46.3371 43.6 46.2751C43.4107 46.2132 43.0911 46.1186 42.8919 46.0696C42.6897 46.0205 42.4156 45.9586 42.2818 45.9357C42.1481 45.9129 41.9392 45.8836 41.8153 45.8705C41.6783 45.8542 41.4563 45.851 41.228 45.8575C41.0291 45.864 40.7549 45.8836 40.6212 45.9031C40.4875 45.9194 40.2753 45.9521 40.1546 45.9749C40.0307 45.9977 39.8218 46.0436 39.6881 46.0794C39.5543 46.112 39.3454 46.174 39.2215 46.2132C39.1008 46.2523 38.9082 46.3208 38.7973 46.3632C38.6832 46.4088 38.4875 46.4969 38.3601 46.5623C38.2329 46.6243 38.0372 46.7352 37.9263 46.8102C37.812 46.8852 37.6685 46.9961 37.6 47.0581C37.5348 47.1235 37.4728 47.1659 37.463 47.1593C37.4532 47.1496 37.4467 46.523 37.4467 44.386L37.5739 44.2719C37.6457 44.2099 37.7989 44.0957 37.9133 44.0175C38.0307 43.939 38.246 43.8151 38.3895 43.7466C38.5364 43.6748 38.7745 43.5737 38.918 43.5215C39.0617 43.4693 39.3193 43.3909 39.4859 43.3485C39.6522 43.3061 39.9066 43.2506 40.0535 43.2246C40.2949 43.1822 40.3764 43.1756 40.9865 43.1756C41.4139 43.1756 41.7305 43.1854 41.8675 43.2017C41.9849 43.218 42.184 43.2474 42.3145 43.267C42.4417 43.2898 42.6701 43.3354 42.8202 43.3713C42.9702 43.4039 43.2378 43.4726 43.4172 43.5248C43.5968 43.577 43.887 43.6683 44.0664 43.7303C44.246 43.7922 44.5656 43.9096 44.7745 43.9946C44.9865 44.0794 45.3161 44.2164 45.5053 44.2979C45.6946 44.3827 46.1251 44.5884 46.458 44.7547C46.7941 44.9178 47.2411 45.1528 47.4564 45.2702C47.6716 45.3876 47.8512 45.4855 47.8577 45.4855C47.861 45.4855 47.8675 44.1642 47.8675 39.6063L47.6488 39.74C47.5281 39.8118 47.3487 39.9131 47.2476 39.962C47.1496 40.0109 46.98 40.0827 46.8724 40.1251C46.768 40.1642 46.5819 40.2229 46.458 40.2555C46.3373 40.2881 46.1545 40.3305 46.0534 40.3503C45.9523 40.3666 45.7109 40.3862 45.5151 40.3927C45.2933 40.3992 45.0811 40.3959 44.9474 40.3796C44.83 40.3666 44.6408 40.3372 44.5232 40.3142C44.4058 40.2914 44.1971 40.236 44.0566 40.1903C43.9164 40.1446 43.7109 40.0696 43.6 40.0174C43.489 39.9685 43.2835 39.8609 43.1432 39.7759C43.0061 39.6944 42.7908 39.5443 42.6669 39.4432C42.546 39.3454 42.3536 39.1691 42.2394 39.0549C42.1286 38.9375 41.962 38.7417 41.8707 38.6177C41.7794 38.497 41.662 38.3177 41.6098 38.2229C41.5544 38.1316 41.5085 38.05 41.502 38.0468C41.4955 38.0435 41.4041 38.0696 41.2998 38.1087C41.1922 38.1446 41.0128 38.2001 40.8952 38.2294C40.7778 38.2588 40.5756 38.2981 40.4482 38.3177C40.2916 38.3405 40.0927 38.3503 39.8414 38.3535C39.6326 38.3535 39.378 38.3405 39.2737 38.3274C39.1661 38.3111 38.9736 38.2785 38.8462 38.249C38.719 38.2196 38.5103 38.1609 38.3797 38.1185C38.2525 38.0729 38.0209 37.975 37.8642 37.8967C37.7076 37.8217 37.5087 37.7107 37.4174 37.652C37.3291 37.5933 37.1823 37.4889 37.0943 37.4204C37.003 37.3519 36.8397 37.2082 36.7321 37.1038C36.6212 36.9962 36.4614 36.8234 36.3766 36.7157C36.2916 36.6112 36.1709 36.4448 36.109 36.3503C36.047 36.2557 35.9491 36.0892 35.8937 35.9848C35.835 35.8772 35.75 35.6847 35.6978 35.5574C35.6456 35.4269 35.5837 35.2345 35.5543 35.1299C35.525 35.0223 35.4826 34.8364 35.4597 34.7125C35.4304 34.5557 35.4141 34.3698 35.4076 34.0924C35.401 33.8511 35.4043 33.613 35.4173 33.4921C35.4304 33.378 35.4597 33.1921 35.4858 33.0745C35.5087 32.9571 35.5674 32.7385 35.6163 32.5853C35.6652 32.435 35.7631 32.1937 35.835 32.0467C35.9067 31.9 36.0274 31.6847 36.1057 31.5673C36.1807 31.4497 36.3014 31.2866 36.3701 31.2018C36.4353 31.117 36.5984 30.944 36.7321 30.8135C36.8627 30.6831 37.0649 30.5102 37.3782 30.2752L37.3422 30.1252C37.3226 30.0404 37.2965 29.8804 37.2835 29.7662C37.2704 29.6521 37.2671 29.4727 37.2737 29.3519C37.2802 29.2344 37.2998 29.0583 37.3193 28.9637C37.3356 28.869 37.3782 28.7092 37.4108 28.6081C37.4434 28.507 37.5152 28.3339 37.5706 28.223C37.6294 28.1089 37.7337 27.9328 37.8087 27.8249C37.8837 27.7206 38.0307 27.5445 38.1383 27.4368C38.2427 27.329 38.4223 27.1725 38.5331 27.0909C38.644 27.0061 38.8169 26.8952 38.9147 26.8364C39.0128 26.7809 39.091 26.7352 39.091 26.7352C39.091 26.7352 39.0649 26.657 39.0323 26.5624C38.9997 26.4678 38.9541 26.3078 38.9312 26.2067C38.9082 26.1056 38.8789 25.923 38.8658 25.7988C38.8528 25.6684 38.8462 25.489 38.856 25.3618C38.8626 25.2442 38.8821 25.0811 38.8984 24.9963C38.9147 24.9115 38.9508 24.7711 38.9801 24.6798C39.0095 24.5917 39.0649 24.4482 39.1041 24.3667C39.1432 24.2817 39.2345 24.1219 39.3096 24.011C39.3878 23.8903 39.5217 23.7271 39.6359 23.6129C39.7435 23.502 39.9131 23.3618 40.0242 23.29C40.1285 23.2181 40.2851 23.1268 40.3666 23.0844C40.4514 23.042 40.5821 22.9833 40.6604 22.9539C40.7386 22.9246 40.9082 22.8757 41.0356 22.843C41.1628 22.8104 41.3324 22.7745 41.4074 22.7648C41.5185 22.7517 41.5413 22.7419 41.5315 22.7189C41.5217 22.6994 41.4857 22.5819 41.4465 22.4547C41.4107 22.3243 41.3617 22.1088 41.3389 21.9751C41.3194 21.8414 41.2965 21.626 41.29 21.4955C41.2802 21.3683 41.2867 21.1496 41.2998 21.0094C41.3096 20.8691 41.3422 20.6406 41.3715 20.5037C41.3976 20.3667 41.4531 20.1579 41.4955 20.0371C41.5348 19.9164 41.6131 19.7175 41.6718 19.5933C41.7305 19.4727 41.8283 19.2933 41.887 19.1987C41.9457 19.1039 42.0438 18.9572 42.109 18.8724C42.171 18.7908 42.2982 18.6408 42.3927 18.5395C42.4873 18.4384 42.6473 18.2916 42.7484 18.2101C42.8495 18.1286 43.0126 18.011 43.1139 17.9457C43.215 17.8805 43.4139 17.7696 43.5607 17.7011C43.7044 17.6294 43.9294 17.5411 44.0566 17.4987C44.184 17.4596 44.3797 17.4074 44.4906 17.3846C44.6441 17.352 44.8006 17.3389 45.1202 17.3324C45.414 17.3259 45.6064 17.3324 45.9392 17.3781L46.073 17.1824C46.1447 17.078 46.2656 16.9115 46.3406 16.8169C46.4156 16.7223 46.595 16.5234 46.7419 16.3797C46.8854 16.2329 47.0844 16.0503 47.179 15.9751C47.2737 15.9001 47.4596 15.7631 47.5933 15.675C47.7271 15.5837 47.9784 15.44 48.1512 15.3552C48.3243 15.2672 48.5558 15.1628 48.6667 15.1237C48.7778 15.0813 48.98 15.016 49.1137 14.9802C49.2475 14.9408 49.4662 14.8887 49.5999 14.8658C49.7336 14.843 49.9262 14.8136 50.0273 14.8039C50.1252 14.7973 50.3504 14.7875 50.5232 14.7843ZM41.2802 46.9048C41.44 46.908 41.6979 46.9276 41.8479 46.9439C41.9979 46.9602 42.2166 46.9928 42.334 47.0157C42.4514 47.0352 42.6571 47.0843 42.7908 47.1169C42.9245 47.1496 43.1335 47.2115 43.2541 47.2507C43.3781 47.2898 43.6066 47.3713 43.7631 47.4333C43.9197 47.4953 44.2003 47.6194 44.3895 47.714C44.5787 47.8086 44.8365 47.9423 44.9572 48.014C45.0811 48.0858 45.3128 48.2262 45.4759 48.3273C45.6357 48.4284 45.8936 48.5784 46.0436 48.6667C46.1938 48.7515 46.5037 48.9113 46.7321 49.0222C46.9604 49.1365 47.2966 49.2866 47.4825 49.3583C47.6651 49.4301 47.949 49.5344 48.1088 49.5834C48.2721 49.6355 48.5461 49.714 48.7189 49.7597C48.892 49.8021 49.1333 49.8575 49.254 49.8771C49.3781 49.8999 49.5738 49.9325 49.6912 49.9488C49.8088 49.9651 50.0306 49.9912 50.1871 50.0043C50.3634 50.0173 50.6896 50.0238 51.0485 50.0173C51.4042 50.0108 51.7336 49.9945 51.9001 49.9716C52.0502 49.9553 52.298 49.9162 52.4482 49.8901C52.5983 49.8608 52.869 49.8021 53.0453 49.7597C53.2246 49.714 53.5151 49.6323 53.6945 49.5736C53.8739 49.5149 54.1774 49.404 54.3731 49.3257C54.5689 49.2474 54.9016 49.1005 55.1138 48.9961C55.3258 48.895 55.613 48.745 55.7532 48.6667C55.8902 48.5882 56.21 48.3958 56.4611 48.2425C56.7124 48.0891 57.0649 47.8868 57.241 47.7923C57.4204 47.7009 57.6978 47.567 57.8608 47.4985C58.0207 47.43 58.3013 47.3257 58.4774 47.267C58.657 47.205 58.9179 47.13 59.0549 47.0941C59.1953 47.0613 59.4204 47.0157 59.5541 46.9928C59.688 46.97 59.8772 46.9406 59.9783 46.9309C60.0794 46.9211 60.3013 46.9048 60.4742 46.8982C60.6568 46.8917 60.9147 46.895 61.0941 46.908C61.2606 46.9211 61.5117 46.9504 61.6519 46.9733C61.7891 46.9961 61.9946 47.0352 62.1055 47.0648C62.2196 47.0941 62.3861 47.1398 62.4807 47.1691C62.5753 47.1985 62.7484 47.2604 62.8658 47.3061C62.9832 47.355 63.1658 47.4366 63.2736 47.4888C63.378 47.5409 63.5411 47.6324 63.6357 47.6911C63.7335 47.7466 63.8772 47.8444 63.962 47.9064C64.0435 47.9716 64.174 48.0793 64.3894 48.2849L64.3862 51.0907L64.262 50.9668C64.1903 50.8983 64.0566 50.7776 63.962 50.6961C63.8674 50.6143 63.6813 50.4741 63.5476 50.3828C63.4106 50.2947 63.1658 50.1543 62.9995 50.0728C62.8331 49.9912 62.5884 49.8901 62.4612 49.8444C62.334 49.7988 62.1087 49.7368 61.9652 49.7009C61.8185 49.6651 61.5998 49.6225 61.4791 49.6062C61.3552 49.5866 61.0908 49.5638 60.8918 49.554C60.6896 49.5409 60.4155 49.5377 60.2818 49.5442C60.1479 49.5507 59.9196 49.5703 59.7761 49.5899C59.6291 49.6062 59.3943 49.6421 59.2475 49.6683C59.1038 49.6977 58.8657 49.7499 58.7222 49.789C58.5753 49.8281 58.3405 49.8999 58.1937 49.9488C58.05 49.9977 57.8445 50.0728 57.7402 50.1152C57.6325 50.1576 57.4171 50.2523 57.2638 50.3273C57.1073 50.4023 56.7907 50.5719 56.5624 50.7058C56.3339 50.8363 55.975 51.0353 55.763 51.1429C55.551 51.254 55.2508 51.4007 55.0942 51.4692C54.9375 51.5377 54.6635 51.6519 54.4841 51.7238C54.3078 51.7923 54.0208 51.8966 53.8478 51.9521C53.6749 52.0075 53.4106 52.0858 53.2573 52.1249C53.1072 52.1673 52.8527 52.2261 52.6928 52.2589C52.5298 52.2915 52.2687 52.3371 52.1121 52.36C51.9588 52.3828 51.7075 52.4121 51.5575 52.4252C51.4042 52.4382 51.0648 52.4513 50.7972 52.4513C50.5298 52.4513 50.1969 52.4382 50.0567 52.4252C49.9164 52.4121 49.6847 52.386 49.5379 52.3632C49.3944 52.3404 49.1431 52.298 48.9833 52.2621C48.8202 52.2293 48.5591 52.1641 48.4058 52.1217C48.2493 52.076 47.9849 51.9912 47.8153 51.9358C47.6488 51.8771 47.3585 51.7629 47.1692 51.6812C46.9767 51.5997 46.6211 51.4333 46.3765 51.3094C46.1317 51.1853 45.7338 50.9765 45.4955 50.8493C45.2574 50.7189 44.918 50.5491 44.7452 50.4676C44.5721 50.3893 44.2884 50.2654 44.1188 50.1969C43.9457 50.1249 43.6326 50.014 43.427 49.9456C43.2215 49.8771 42.9017 49.7857 42.7191 49.7401C42.533 49.6944 42.2688 49.6388 42.1318 49.616C41.9914 49.5931 41.7598 49.567 41.6131 49.554C41.4237 49.5377 41.2346 49.5377 40.9343 49.554C40.706 49.5638 40.4221 49.5899 40.3079 49.6062C40.1905 49.6257 39.9883 49.6618 39.8609 49.6912C39.7337 49.7205 39.5185 49.7792 39.3846 49.8249C39.2508 49.8705 39.0584 49.9423 38.9573 49.988C38.8593 50.0304 38.7027 50.1054 38.6147 50.1543C38.5234 50.2034 38.3568 50.3078 38.2394 50.386C38.122 50.461 37.9655 50.5752 37.8937 50.6306C37.8218 50.6895 37.6978 50.8004 37.6196 50.8787C37.5413 50.957 37.4728 51.0124 37.463 51.0059C37.4532 50.9961 37.4467 50.3665 37.4467 48.223L37.6033 48.0891C37.6913 48.014 37.812 47.9195 37.874 47.8738C37.9361 47.8281 38.047 47.7564 38.122 47.7075C38.197 47.6618 38.3666 47.567 38.4973 47.5018C38.6277 47.4366 38.8299 47.342 38.9475 47.2963C39.0649 47.2507 39.2704 47.1822 39.4041 47.143C39.538 47.1039 39.7566 47.0483 39.8903 47.0222C40.0242 46.9961 40.2101 46.9635 40.3079 46.9504C40.4025 46.9374 40.5919 46.9178 40.7321 46.9113C40.8723 46.9015 41.1171 46.8982 41.2802 46.9048ZM60.5264 50.5622C60.8821 50.5687 61.081 50.5817 61.2769 50.6111C61.4204 50.6339 61.6226 50.6698 61.7206 50.6895C61.8217 50.7124 62.0044 50.7613 62.1283 50.7972C62.2492 50.833 62.4546 50.9015 62.5818 50.9537C62.7123 51.0026 62.931 51.1037 63.0745 51.1755C63.218 51.2474 63.4171 51.3583 63.5215 51.4203C63.6226 51.4855 63.7956 51.6029 63.9 51.6845C64.0076 51.7662 64.1609 51.8901 64.3862 52.0989L64.3894 55.2016L64.0468 54.8657C63.8609 54.6796 63.6259 54.4611 63.5248 54.3763C63.4269 54.2913 63.2704 54.1674 63.1821 54.0989C63.0908 54.0304 62.9277 53.9162 62.8168 53.8445C62.7058 53.7693 62.5166 53.6584 62.3992 53.5964C62.285 53.5344 62.0859 53.4431 61.9652 53.3942C61.8413 53.342 61.6552 53.2801 61.5508 53.2505C61.4432 53.2212 61.2801 53.182 61.1854 53.1657C61.0908 53.1462 60.8462 53.1266 60.6373 53.1201C60.4122 53.1135 60.1546 53.1201 59.9881 53.1364C59.838 53.1494 59.5835 53.182 59.4204 53.2081C59.2606 53.2375 59.0125 53.2866 58.8723 53.3192C58.7353 53.3551 58.5166 53.4138 58.3861 53.4529C58.2589 53.4953 58.0207 53.5768 57.8608 53.6388C57.6978 53.7008 57.4399 53.8119 57.2834 53.8869C57.1268 53.9619 56.807 54.1347 56.5722 54.2685C56.3404 54.4056 55.9978 54.5948 55.8119 54.6894C55.6293 54.784 55.3551 54.9211 55.2051 54.9896C55.0551 55.0581 54.8135 55.1625 54.6668 55.2212C54.5233 55.2799 54.298 55.3649 54.1708 55.4105C54.0436 55.4562 53.8315 55.5279 53.7043 55.5671C53.5771 55.6095 53.3518 55.6714 53.2083 55.7106C53.0648 55.7465 52.807 55.8052 52.6407 55.841C52.4743 55.8738 52.2002 55.9195 52.0338 55.9423C51.8641 55.9652 51.5738 55.9945 51.3846 56.0076C51.1725 56.0206 50.8626 56.0271 50.5819 56.0173C50.3341 56.0108 50.0045 55.9912 49.8545 55.9749C49.7042 55.9586 49.4531 55.9228 49.2966 55.8934C49.1398 55.8673 48.9115 55.8215 48.7909 55.7921C48.6667 55.7628 48.4286 55.6975 48.2623 55.6486C48.0958 55.5997 47.8088 55.5018 47.6227 55.4334C47.4401 55.3649 47.1692 55.2571 47.0257 55.1918C46.8822 55.1266 46.6015 54.9929 46.4091 54.895C46.2134 54.797 45.8903 54.6274 45.6881 54.5198C45.489 54.4121 45.215 54.2652 45.0811 54.2C44.9474 54.1315 44.7191 54.0238 44.5721 53.9619C44.4286 53.8967 44.1644 53.7856 43.9849 53.7171C43.8055 53.6453 43.5411 53.5508 43.3976 53.5018C43.2541 53.4562 42.98 53.3779 42.7908 53.329C42.5984 53.2801 42.3047 53.2179 42.1318 53.1853C41.9033 53.1462 41.7142 53.1298 41.44 53.1201C41.2019 53.1135 40.9832 53.1201 40.8332 53.1364C40.706 53.1494 40.5005 53.1853 40.3764 53.2179C40.2557 53.2473 40.0633 53.3094 39.9522 53.3485C39.8414 53.3909 39.6359 53.4823 39.4956 53.554C39.3552 53.6258 39.1334 53.7562 38.9997 53.8445C38.8658 53.9325 38.6636 54.076 38.5527 54.1641C38.4418 54.2522 38.2492 54.4121 38.1285 54.5198C38.0046 54.6307 37.8087 54.8166 37.6913 54.9342C37.5739 55.0516 37.4728 55.1429 37.463 55.1396C37.4565 55.1331 37.4467 54.4448 37.4467 52.0891L37.6228 51.9358C37.7174 51.851 37.8707 51.7303 37.9622 51.6649C38.0535 51.5997 38.2101 51.4953 38.3112 51.4333C38.409 51.3681 38.6375 51.2474 38.8169 51.1592C38.9997 51.0711 39.2867 50.9537 39.4761 50.8885C39.6587 50.8265 39.9131 50.7515 40.0438 50.7254C40.1709 50.6961 40.396 50.6535 40.5397 50.6306C40.7028 50.6046 40.9637 50.585 41.2182 50.5785C41.4726 50.5719 41.7403 50.5752 41.9066 50.5915C42.0568 50.6046 42.3079 50.6372 42.4645 50.6633C42.6212 50.6895 42.8463 50.7352 42.9604 50.7645C43.078 50.7939 43.3031 50.8624 43.4596 50.9113C43.6131 50.9635 43.8512 51.0516 43.9849 51.107C44.1188 51.1624 44.4025 51.2964 44.6145 51.404C44.8267 51.5116 45.1759 51.7106 45.3944 51.8477C45.6129 51.9814 45.9131 52.1608 46.0632 52.2458C46.2134 52.3306 46.5134 52.4872 46.7321 52.5948C46.9507 52.6992 47.2639 52.8396 47.4303 52.9081C47.5999 52.9766 47.8773 53.0777 48.0501 53.1364C48.223 53.1918 48.5232 53.2801 48.7189 53.329C48.9148 53.3779 49.2083 53.4399 49.3781 53.4692C49.5444 53.4986 49.8088 53.5377 49.9653 53.554C50.1219 53.5703 50.4352 53.5899 50.6635 53.5964C50.9115 53.6029 51.2116 53.5997 51.4042 53.5866C51.5836 53.5736 51.8412 53.5475 51.9817 53.5312C52.1219 53.5149 52.4124 53.466 52.6309 53.4203C52.8494 53.3779 53.1529 53.3061 53.3095 53.2603C53.4662 53.2146 53.7304 53.1331 53.8967 53.0744C54.0632 53.019 54.3241 52.9211 54.4743 52.8559C54.6244 52.7939 54.9049 52.6698 55.0942 52.5785C55.2834 52.4872 55.5738 52.3339 55.7434 52.2425C55.9098 52.1478 56.21 51.9684 56.4122 51.8445C56.6113 51.7203 56.882 51.5573 57.0092 51.4888C57.1366 51.417 57.3388 51.3127 57.4562 51.2605C57.5706 51.205 57.776 51.1135 57.9098 51.0613C58.0435 51.0059 58.2557 50.9309 58.3763 50.8917C58.5003 50.8493 58.6864 50.7939 58.794 50.7678C58.8984 50.7385 59.0712 50.6993 59.179 50.6763C59.2834 50.6535 59.4856 50.6241 59.6226 50.6046C59.763 50.5882 59.913 50.5687 59.9587 50.5654C60.0044 50.5589 60.2589 50.5589 60.5264 50.5622ZM43.3879 57.3092C43.5053 57.3092 43.6816 57.3158 43.7827 57.3288C43.8838 57.3386 44.0436 57.368 44.1384 57.3908C44.2329 57.4136 44.3797 57.4595 44.4612 57.4921C44.546 57.5279 44.6767 57.5964 44.7517 57.6454C44.8267 57.6943 44.9311 57.7726 44.98 57.8215C45.0322 57.8671 45.1137 57.9586 45.1628 58.0206C45.2085 58.0826 45.2868 58.2033 45.3292 58.2946C45.3748 58.3826 45.4335 58.5361 45.4629 58.6307C45.489 58.7253 45.5248 58.8883 45.5444 58.9962C45.5607 59.1038 45.5836 59.3256 45.5966 59.4953C45.6064 59.6682 45.6162 60.7155 45.6162 61.8965C45.6162 63.0775 45.6064 64.1248 45.5966 64.2979C45.5836 64.4642 45.5607 64.6894 45.5444 64.7938C45.5248 64.9014 45.489 65.0645 45.4596 65.1623C45.4335 65.2571 45.3813 65.3974 45.3422 65.4756C45.3031 65.5539 45.2248 65.6844 45.1661 65.7628C45.1039 65.8411 44.993 65.9585 44.9148 66.0237C44.8332 66.0922 44.6897 66.1835 44.5721 66.2424C44.458 66.2979 44.2819 66.3631 44.1677 66.3925C44.0566 66.4218 43.8414 66.4544 43.6914 66.4675C43.4824 66.4838 43.3552 66.4838 43.153 66.4675C43.0093 66.4544 42.8137 66.4251 42.7191 66.4022C42.6245 66.3794 42.4775 66.3305 42.3927 66.2979C42.3112 66.2653 42.1775 66.1933 42.0992 66.1444C42.0207 66.0922 41.9099 66.0042 41.8479 65.9455C41.7892 65.89 41.7011 65.7889 41.6555 65.7204C41.6065 65.655 41.5413 65.5441 41.5053 65.4756C41.4726 65.4104 41.4237 65.2767 41.3944 65.1821C41.365 65.0873 41.3259 64.9275 41.3096 64.8264C41.2933 64.7253 41.2704 64.536 41.2606 64.4088C41.2476 64.2685 41.2378 63.244 41.2378 61.8965C41.2378 60.5394 41.2476 59.5182 41.2606 59.3712C41.2704 59.2375 41.2965 59.032 41.3194 58.9144C41.3422 58.797 41.3813 58.6372 41.4074 58.5589C41.4335 58.4807 41.4955 58.3402 41.5446 58.2457C41.6033 58.1348 41.6848 58.0173 41.7761 57.9193C41.8544 57.8378 41.9718 57.7302 42.0405 57.6812C42.1057 57.6356 42.2297 57.5638 42.3145 57.5247C42.396 57.4855 42.556 57.4301 42.6669 57.4006C42.7778 57.3712 42.9376 57.3386 43.0224 57.3288C43.1074 57.319 43.2704 57.3125 43.3879 57.3092ZM43.29 58.9471C43.2672 58.9503 43.2117 58.9864 43.1726 59.0222C43.1237 59.0646 43.0911 59.1201 43.0715 59.1886C43.0452 59.2766 43.042 59.6976 43.0485 61.9357L43.0517 64.5816C43.1237 64.7155 43.1726 64.771 43.2085 64.7938C43.2476 64.8134 43.3128 64.8395 43.3585 64.846C43.4009 64.8558 43.4759 64.8558 43.5248 64.8492C43.577 64.8395 43.6359 64.8134 43.675 64.7775C43.7109 64.7449 43.7598 64.6796 43.7827 64.6305C43.8218 64.5425 43.8218 64.4903 43.8283 62.0074C43.8349 60.2685 43.8283 59.4234 43.812 59.3125C43.8022 59.2212 43.7729 59.1201 43.7501 59.0842C43.7305 59.0451 43.6783 58.9994 43.6359 58.9798C43.5935 58.9568 43.5281 58.9373 43.489 58.9307C43.4498 58.9242 43.4009 58.9242 43.3781 58.9275C43.3552 58.934 43.3161 58.9405 43.29 58.9471ZM53.1725 57.3288C53.3192 57.3288 53.5314 57.3386 53.639 57.3484C53.7467 57.3614 53.9228 57.394 54.0306 57.4203C54.135 57.4497 54.3176 57.5182 54.435 57.5736C54.6178 57.6649 54.6733 57.7041 54.8331 57.8639C54.9898 58.0239 55.0322 58.0793 55.1105 58.2424C55.1725 58.3696 55.2214 58.5165 55.254 58.66C55.2899 58.8133 55.3127 58.9994 55.3258 59.2506C55.3388 59.4625 55.3453 60.1804 55.3356 62.324L52.8722 62.3337L52.8788 63.4658C52.882 64.5555 52.8853 64.6044 52.9246 64.6796C52.9474 64.7253 52.9931 64.7808 53.0257 64.8036C53.0714 64.8362 53.117 64.846 53.2214 64.846C53.329 64.846 53.3682 64.8362 53.4138 64.8036C53.4466 64.7775 53.489 64.7384 53.5086 64.7123C53.5249 64.6862 53.551 64.611 53.564 64.5523C53.5738 64.4903 53.5836 64.1674 53.5836 63.2277H55.3453L55.3388 63.9976C55.3323 64.4185 55.3192 64.8297 55.3062 64.9079C55.2964 64.9862 55.2671 65.1167 55.2475 65.2017C55.2247 65.2865 55.1823 65.4104 55.1529 65.4756C55.1236 65.5441 55.0649 65.6485 55.0225 65.7106C54.9801 65.7726 54.8755 65.89 54.7874 65.9715C54.6668 66.0857 54.5787 66.1477 54.4252 66.2229C54.3078 66.2783 54.135 66.3435 54.0176 66.3729C53.9065 66.399 53.7108 66.4349 53.5836 66.4446C53.4531 66.4577 53.2214 66.4642 53.0551 66.4577C52.8951 66.4512 52.6863 66.4316 52.5885 66.4153C52.4939 66.3957 52.3502 66.3599 52.2654 66.3305C52.1806 66.3011 52.0599 66.249 51.9915 66.2162C51.9262 66.1803 51.8347 66.1248 51.7891 66.0922C51.7434 66.0564 51.6684 65.9911 51.6195 65.9455C51.5738 65.8998 51.502 65.8215 51.4662 65.7726C51.427 65.7204 51.3651 65.6126 51.3225 65.5278C51.2801 65.443 51.2246 65.293 51.2018 65.1919C51.1757 65.0906 51.1431 64.9047 51.1301 64.7742C51.1137 64.6044 51.1105 63.7595 51.1235 58.9242L51.1692 58.722C51.1953 58.6111 51.2409 58.4479 51.2736 58.3663C51.3062 58.2815 51.3683 58.1576 51.414 58.0891C51.4629 58.0239 51.5379 57.9291 51.5836 57.8802C51.6292 57.8313 51.7238 57.753 51.7891 57.7041C51.8575 57.6551 51.9784 57.5834 52.0632 57.5443C52.148 57.5019 52.3013 57.4497 52.4091 57.4203C52.5135 57.394 52.67 57.3614 52.7516 57.3516C52.8364 57.3419 53.0257 57.3321 53.1725 57.3288ZM52.9605 59.0679C52.9376 59.1005 52.9083 59.169 52.8951 59.2212C52.882 59.2734 52.8755 59.616 52.8755 60.05L52.8722 60.7873H53.5836C53.5836 59.7073 53.5738 59.3386 53.564 59.2701C53.551 59.2049 53.5282 59.1266 53.5086 59.1005C53.489 59.0744 53.4466 59.032 53.4138 59.0092C53.3779 58.9799 53.3192 58.9634 53.2507 58.9601C53.1953 58.9568 53.117 58.9666 53.0779 58.9798C53.0387 58.9962 52.9866 59.0353 52.9605 59.0679ZM58.0272 57.3516C58.1252 57.3484 58.2948 57.3582 58.4024 57.3712C58.5101 57.381 58.6864 57.4136 58.794 57.4431C58.8984 57.4692 59.0777 57.5345 59.1888 57.5899C59.2997 57.6454 59.453 57.7432 59.528 57.8052C59.603 57.8671 59.7206 57.988 59.7891 58.0761C59.8576 58.1609 59.9424 58.2978 59.9783 58.3761C60.0174 58.4546 60.0663 58.5948 60.0892 58.6894C60.112 58.7872 60.1381 58.9471 60.1511 59.0483C60.1611 59.1462 60.1774 59.4921 60.2002 60.399H58.409L58.4024 59.815C58.3959 59.2766 58.3926 59.2245 58.3568 59.1494C58.3339 59.1038 58.285 59.0451 58.2459 59.019C58.1839 58.9798 58.1546 58.9733 58.037 58.9798C57.9065 58.9864 57.8935 58.9896 57.8282 59.0614C57.7891 59.1038 57.75 59.1788 57.7369 59.2245C57.7239 59.2799 57.7173 59.4921 57.7206 59.8084C57.7271 60.275 57.7304 60.3142 57.7728 60.399C57.7989 60.4511 57.8445 60.5231 57.8771 60.5622C57.9098 60.6013 58.0011 60.6861 58.0861 60.7481C58.1676 60.8101 58.4122 60.9764 58.6309 61.1136C58.8494 61.2506 59.094 61.4071 59.179 61.4626C59.2606 61.5213 59.4041 61.6226 59.4921 61.691C59.5802 61.7628 59.7174 61.8867 59.7956 61.9715C59.8739 62.0563 59.9685 62.1739 60.0044 62.2326C60.0402 62.2946 60.0924 62.4022 60.1218 62.474C60.1511 62.549 60.197 62.6959 60.2198 62.8003C60.2589 62.9797 60.2622 63.058 60.2622 63.8704C60.2622 64.6403 60.2589 64.7644 60.2263 64.9275C60.2035 65.0286 60.1611 65.1821 60.1283 65.2734C60.0957 65.3615 60.0305 65.4985 59.9848 65.5767C59.9359 65.655 59.8348 65.7889 59.7565 65.8704C59.6782 65.952 59.5508 66.0629 59.4726 66.1151C59.3943 66.164 59.2606 66.2359 59.179 66.2718C59.094 66.3077 58.9473 66.3566 58.8527 66.3794C58.7581 66.4022 58.5949 66.4316 58.4872 66.4446C58.3763 66.4577 58.1839 66.4642 58.0239 66.4577C57.8706 66.4512 57.6749 66.4316 57.5869 66.4153C57.4986 66.3957 57.3617 66.3598 57.2834 66.3338C57.2051 66.3077 57.0779 66.2522 56.9994 66.2129C56.9212 66.1738 56.8005 66.102 56.7353 66.0498C56.6668 66.0009 56.5689 65.9096 56.5133 65.8509C56.4579 65.7889 56.3731 65.6778 56.3241 65.5996C56.272 65.5213 56.2067 65.3843 56.1741 65.2995C56.1415 65.2114 56.1024 65.0645 56.0861 64.9732C56.06 64.8427 56.0502 64.6273 56.0371 63.2277H57.7989L57.8054 63.9161C57.8087 64.5751 57.8119 64.6044 57.8543 64.6829C57.8772 64.7286 57.9261 64.7808 57.9652 64.8036C58.0043 64.8264 58.0728 64.8427 58.135 64.8427C58.2002 64.846 58.2589 64.8297 58.3046 64.8036C58.3437 64.7808 58.3992 64.722 58.4285 64.6731C58.4774 64.5816 58.4774 64.5751 58.484 64.0433C58.4905 63.7041 58.484 63.4528 58.4677 63.3713C58.4546 63.2995 58.4253 63.2016 58.3992 63.156C58.3731 63.1136 58.3013 63.0286 58.2426 62.9732C58.1839 62.9145 57.9946 62.7775 57.825 62.6666C57.6554 62.5555 57.3943 62.3859 57.2475 62.2913C57.1007 62.1968 56.9049 62.0661 56.8168 61.9976C56.7287 61.9324 56.5885 61.815 56.5035 61.7334C56.422 61.6552 56.3176 61.5343 56.2687 61.4691C56.2198 61.4006 56.1513 61.2832 56.1187 61.2082C56.0828 61.1331 56.0371 60.996 56.0176 60.9047C55.9946 60.8101 55.9652 60.6307 55.9554 60.5001C55.9456 60.3729 55.9358 60.0565 55.9358 59.7987C55.9358 59.541 55.9456 59.2408 55.9554 59.1299C55.9652 59.0157 55.9946 58.8459 56.0176 58.7514C56.0404 58.6568 56.1024 58.4872 56.1578 58.3761C56.21 58.262 56.3013 58.1185 56.3535 58.05C56.4089 57.9847 56.5166 57.8769 56.595 57.8117C56.6733 57.7432 56.8233 57.6486 56.9375 57.5899C57.0551 57.5312 57.2247 57.4692 57.3421 57.4399C57.4562 57.4104 57.613 57.381 57.6978 57.3712C57.7826 57.3614 57.9293 57.3516 58.0272 57.3516ZM46.2297 57.3843L47.5379 57.394C48.6276 57.4006 48.8822 57.4071 49.042 57.4366C49.1496 57.4529 49.29 57.4823 49.3585 57.5019C49.4238 57.5182 49.5379 57.5573 49.6097 57.5867C49.6814 57.616 49.7956 57.6747 49.8642 57.7138C49.9295 57.7562 50.0404 57.8508 50.1089 57.9193C50.1806 57.9978 50.2589 58.1087 50.3045 58.2033C50.3471 58.2881 50.3993 58.4283 50.4254 58.5165C50.4678 58.6731 50.4711 58.7122 50.4711 59.5671C50.4711 60.4185 50.4678 60.4577 50.4254 60.6144C50.3993 60.7025 50.3471 60.846 50.3078 60.9275C50.2524 61.0384 50.1904 61.1234 50.0893 61.2277C49.9914 61.3256 49.8969 61.3941 49.7988 61.4462C49.7173 61.4854 49.5836 61.5376 49.5053 61.5606C49.4238 61.5834 49.2966 61.6062 49.2214 61.616C49.1431 61.6258 49.0844 61.6356 49.0844 61.6421C49.0844 61.6454 49.1724 61.6617 49.2801 61.678C49.3911 61.691 49.5347 61.7171 49.5999 61.7367C49.6684 61.753 49.776 61.7921 49.8447 61.8215C49.9099 61.8541 50.011 61.9161 50.0665 61.9585C50.1219 62.0041 50.2034 62.0956 50.2491 62.1609C50.2915 62.2261 50.3471 62.3403 50.3732 62.4153C50.3993 62.487 50.4352 62.6372 50.4515 62.7514C50.4743 62.9145 50.4808 63.1756 50.4808 64.089C50.4808 64.7808 50.4906 65.2832 50.5037 65.381C50.5167 65.4658 50.5591 65.6387 50.5983 65.7628C50.6407 65.89 50.7189 66.0596 50.7744 66.1575C50.8298 66.2522 50.9409 66.3957 51.0224 66.4805C51.1007 66.5653 51.2312 66.6827 51.316 66.7416C51.3977 66.7971 51.5216 66.8721 51.5901 66.908C51.6619 66.9438 51.776 66.9928 51.8445 67.0188C51.9164 67.0482 52.0762 67.0939 52.2034 67.12C52.3339 67.1493 52.5526 67.1852 52.6928 67.1982C52.8396 67.2113 53.0648 67.2145 53.5216 67.195V69.0286L53.4368 69.0384C53.3877 69.0417 53.1464 69.0515 52.8951 69.058C52.5298 69.071 52.3861 69.0645 52.1839 69.0384C52.0469 69.0189 51.8249 68.983 51.6977 68.9536C51.5705 68.9243 51.3453 68.859 51.2018 68.8101C51.055 68.7578 50.8463 68.6762 50.7352 68.6208C50.6243 68.5686 50.445 68.474 50.3406 68.4088C50.2328 68.3436 50.073 68.2325 49.9849 68.1673C49.8969 68.0988 49.7173 67.9389 49.5901 67.8085C49.4629 67.6778 49.3063 67.4985 49.2409 67.4104C49.179 67.3191 49.0746 67.1493 49.0159 67.0319C48.9539 66.9145 48.8724 66.7219 48.8333 66.6045C48.7941 66.487 48.7418 66.2783 48.7157 66.1379C48.6733 65.8933 48.67 65.8313 48.657 64.3664C48.6472 63.2245 48.6374 62.8329 48.6178 62.771C48.6048 62.7253 48.5722 62.6535 48.5461 62.6079C48.52 62.562 48.4743 62.5001 48.4417 62.4707C48.4091 62.4414 48.3439 62.399 48.2917 62.3761C48.2426 62.3533 48.1578 62.3305 48.0077 62.3142V66.4022H46.2264L46.2297 57.3843ZM48.0077 60.7873C48.4123 60.7873 48.458 60.7807 48.5363 60.7416C48.5982 60.709 48.6406 60.6666 48.6733 60.6144C48.6961 60.5687 48.7287 60.4674 48.7385 60.3892C48.7548 60.2978 48.7613 60.0793 48.7548 59.7791C48.7483 59.4006 48.7385 59.2929 48.7091 59.2212C48.6928 59.169 48.6569 59.107 48.6309 59.081C48.608 59.0549 48.5558 59.019 48.52 59.0027C48.4776 58.9864 48.3765 58.9766 48.2328 58.9766H48.0077V60.7873ZM40.8234 57.4399L40.8332 58.9766H39.2313V60.7873H40.6701L40.6604 62.324L39.2313 62.3337V66.3827H37.4467L37.4434 61.9193C37.4434 59.4658 37.45 57.4497 37.4598 57.4431C37.4695 57.4366 38.2296 57.4301 40.8234 57.4399ZM60.4155 57.4301H64.409V58.9766H63.2932V66.3827H61.528V58.9766H60.4155V57.4301Z" fill="#DD0000"/>
</svg>
