<svg width="195" height="196" viewBox="0 0 195 196" fill="none" xmlns="http://www.w3.org/2000/svg">
<g clip-path="url(#clip0_937_1020)">
<path d="M97.7195 0.949829C151.112 0.949829 194.7 44.5374 194.7 98.077C194.847 151.753 151.112 195.057 97.1526 195.057C44.1904 195.057 0.739258 151.323 0.739258 97.9301C0.739258 44.5374 44.1904 1.0968 97.7195 0.949829ZM53.565 13.3059C52.7147 13.7364 52.1478 13.8728 51.7174 14.1563C43.0566 19.5522 35.2461 25.9455 28.7164 33.756C16.7802 47.8128 9.8305 64.1371 8.2663 82.5925C7.13252 95.3686 7.269 108.292 10.6808 120.784C26.0184 177.862 89.909 204.988 141.601 176.444C142.168 176.161 142.598 175.878 143.449 175.447C142.882 178.145 142.315 180.413 141.748 182.974C142.745 182.544 143.165 182.407 143.732 182.124C158.786 172.749 170.712 160.404 178.522 144.352C188.884 123.052 190.312 100.618 185.483 78.0364C172.843 19.6782 107.105 -9.86308 54.7093 18.8279C53.9955 19.2583 53.1451 19.6782 52.0113 20.2451C52.5677 17.7046 52.9982 15.7205 53.565 13.3059Z" fill="#3B2050"/>
<path d="M53.7018 13.3059C53.1349 15.7204 52.7045 17.7046 52.1376 20.2661C53.2714 19.6992 54.1217 19.2688 54.8356 18.8488C107.231 -9.83162 172.833 19.8461 185.609 78.0574C190.574 100.775 189.021 123.209 178.649 144.373C170.838 160.414 158.912 172.634 143.858 182.145C143.428 182.428 142.861 182.575 141.874 182.995C142.441 180.297 143.008 178.166 143.575 175.468C142.725 175.898 142.158 176.182 141.727 176.465C90.0458 205.009 26.1446 177.883 10.8071 120.805C7.39526 108.166 7.25878 95.3895 8.39257 82.6135C9.95676 64.1581 16.7699 47.8232 28.8426 33.7665C35.3724 25.956 43.1828 19.5627 51.8437 14.1667C52.2846 13.8728 52.8515 13.7258 53.7018 13.3059Z" fill="white"/>
<path d="M117.602 150.609C116.888 148.194 116.321 146.21 115.901 144.499C111.072 146.483 106.673 148.761 101.981 150.178C93.4565 152.729 85.0791 152.163 76.9851 148.478C75.2845 147.764 74.854 146.777 75.1375 144.93C76.8382 136.689 77.552 128.605 75.4209 120.364C75.274 119.934 75.1375 119.367 74.9905 118.947C74.9905 118.8 74.7071 118.664 74.4236 118.097C70.1615 124.343 65.6158 130.169 59.5165 134.998C54.6874 124.49 54.6874 113.698 56.1047 102.339C53.1233 103.19 50.4253 104.04 47.2969 104.89C48.4307 94.9487 52.1259 86.5713 57.9418 78.6243C56.0942 78.1939 54.53 77.9105 52.6928 77.627C56.3881 70.1 61.5006 64.0006 68.4503 58.7412C67.3165 64.1371 67.5999 68.6827 72.282 71.9476C71.8516 70.3834 71.4317 68.8192 71.1483 67.1185C71.0013 65.8378 71.0013 64.5675 71.1483 63.4233C71.9986 58.8776 75.2635 57.03 79.6726 58.3108C80.523 58.5942 81.3733 58.8776 82.5176 59.4445C81.2368 56.3161 79.1057 55.0459 76.5547 53.9016C76.5547 53.6182 76.5547 53.4712 76.4077 53.1877C80.5229 51.907 84.5017 50.3428 88.7639 49.356C92.4591 48.5056 96.4274 48.5056 100.27 48.0752C103.965 47.6448 106.799 49.0725 109.214 51.7705C110.064 52.6208 110.915 53.4712 111.912 54.3215C112.059 54.1745 112.342 54.1746 112.479 54.0381C112.195 52.6209 111.912 51.3401 111.628 49.7759C112.059 49.7759 112.479 49.7759 112.909 49.9229C117.308 51.2036 121.57 52.9043 125.118 55.8857C125.685 56.3161 126.536 56.883 126.683 57.5864C127.533 60.4313 128.247 63.4128 129.097 66.1107C124.982 63.2658 120.72 60.2844 116.174 57.1665C115.46 59.2976 115.04 60.8618 114.473 62.5624C111.209 60.5783 108.364 58.7307 105.382 57.1665C104.248 56.5996 102.684 56.3161 101.403 56.5996C96.4379 57.4499 91.7453 59.2976 87.4831 62.8459C88.197 63.4128 88.9003 63.8432 90.0341 64.6935C86.9057 66.2577 84.2077 67.6749 82.0872 70.8033C85.7824 70.2364 86.2024 72.651 87.3361 74.7821C89.1838 78.4774 92.4486 80.325 96.5638 80.4615C101.529 80.6084 106.505 80.4615 111.618 80.4615C110.201 78.8973 108.49 77.3331 106.936 75.6324C105.235 73.6483 103.104 72.9344 100.543 73.2179C96.9943 73.5013 93.5824 72.651 90.748 70.3729C94.7267 65.6908 98.4115 65.5439 106.369 69.806C107.65 69.0922 108.92 68.5253 110.201 67.8219C110.348 68.2523 110.484 68.3888 110.484 68.3888C108.783 71.9371 108.783 71.9371 111.618 74.7821C113.319 76.4827 114.883 78.3304 116.447 80.031C118.578 79.6006 120.709 79.0337 122.84 79.0337C124.971 78.8868 127.102 79.3172 129.517 79.4642C126.389 76.0523 123.271 72.9344 120.142 69.6696C120.289 69.3861 120.573 69.1027 120.709 68.8192C121.843 69.5331 122.977 70.1 124.257 70.8033C125.675 70.5199 126.525 67.6749 128.52 69.6696C129.937 71.0868 129.8 72.5145 128.373 74.3517C129.506 75.6324 130.787 76.7662 132.068 78.3304C132.351 77.3331 132.498 76.9132 132.782 76.3463H133.212C143.437 90.8335 146.419 106.454 140.592 123.913C139.175 122.348 137.894 121.068 136.33 119.514C135.333 126.191 133.632 132.007 130.367 137.266C127.26 142.662 122.998 147.061 117.602 150.609ZM101.834 92.2507C103.535 95.5156 105.246 98.497 106.663 101.478C107.377 103.043 108.364 103.326 109.791 102.896C114.757 101.615 118.599 98.497 122.567 95.3686C122.714 95.2216 122.998 94.9382 122.998 94.6547C122.998 92.5236 123.281 90.3925 122.851 88.4084C122.704 87.5581 120.867 87.1277 119.869 86.4243C119.155 85.9939 118.589 85.427 117.885 85.2905C116.888 85.0071 115.754 84.5767 114.757 84.8601C109.928 86.2878 105.96 89.1328 101.834 92.2507ZM110.789 109.289C111.355 110.57 112.353 112.134 113.056 113.835C113.623 115.115 114.337 115.399 115.471 114.832C117.602 113.698 119.733 112.701 122.147 111.567L122.998 118.38C123.281 118.38 123.565 118.38 123.712 118.233C126.976 115.682 129.108 112.27 129.391 108.292C129.538 106.444 128.257 103.746 126.693 102.749C125.412 101.898 122.578 102.318 121.014 103.179C117.602 104.607 114.337 107.021 110.789 109.289ZM131.942 84.8706C130.378 85.8679 129.244 86.7183 127.963 87.5686C127.533 87.852 127.113 88.4189 127.113 88.8493C125.832 94.3923 129.097 97.9406 132.509 101.772C134.787 96.0825 134.073 90.55 131.942 84.8706Z" fill="#3B2050"/>
<path d="M108.941 28.6434C109.225 32.9056 109.508 36.5904 109.939 40.7161C112.353 38.0181 114.337 35.887 116.468 33.6195L116.899 34.0499C116.048 38.1651 115.051 42.4273 114.054 46.6894C99.85 43.1411 86.2236 44.7053 73.1641 51.655C71.3165 47.5398 69.3324 43.708 67.2013 39.0154C70.1827 40.8631 72.7442 42.5637 75.7257 44.4114C75.1588 40.4327 74.5919 36.7479 73.878 32.6222C78.4236 35.7506 82.4024 38.4485 86.654 41.43C88.0713 37.1678 89.499 33.1891 91.0527 28.6539C93.6037 32.6327 95.8818 36.181 98.2963 40.1597C101.981 36.307 105.246 32.7586 108.941 28.6434ZM21.3252 124.343C21.0417 123.493 20.7583 122.926 20.4748 122.212C23.1728 121.078 25.7238 120.081 28.5688 118.947C29.4191 121.215 30.2694 123.493 31.2667 126.044C31.6972 126.894 32.5475 128.028 32.684 129.308C32.8309 131.156 31.1198 131.723 29.7025 132.29C28.2853 132.857 27.0046 133.424 25.4404 133.991C25.1569 133.277 24.8735 132.71 24.4431 131.859C26.0073 131.146 27.5715 130.726 28.9887 129.875C29.5556 129.592 29.839 128.595 30.1225 128.028C29.4086 127.744 28.5583 127.177 27.8549 127.314C26.4377 127.597 25.01 128.311 23.3093 129.015C23.0258 128.448 22.7424 127.734 22.312 127.03C23.8762 126.317 25.4404 125.897 26.7106 125.046C27.2775 124.616 27.561 123.766 27.8444 123.062C27.1305 122.915 26.2802 122.348 25.5768 122.495C24.4536 123.062 23.0363 123.776 21.3252 124.343ZM51.8533 147.061C52.5671 147.627 53.134 148.058 53.8374 148.625C51.5698 151.47 49.4387 154.168 47.0242 157.149C48.4414 158.283 49.7222 159.417 51.2864 160.697C50.856 161.264 50.436 161.831 49.8691 162.545L43.4759 157.433C46.3208 154.021 49.0188 150.609 51.8533 147.061ZM89.7719 169.075C91.4726 168.791 92.1865 169.358 91.7561 170.922L91.3256 173.904C90.8952 176.455 89.0581 178.019 86.6435 177.599C84.0925 177.316 82.6648 175.615 82.8118 172.917C82.9588 171.353 83.2422 169.789 83.3787 167.951C84.229 168.098 84.7959 168.235 85.6462 168.382C85.3628 169.946 85.0793 171.51 85.0793 172.928C85.0793 173.778 85.7932 174.912 86.4966 175.195C87.6303 175.762 88.4807 174.765 88.7641 173.631C89.205 172.193 89.4885 170.639 89.7719 169.075ZM24.59 109.005C23.3093 104.323 20.0444 107.441 17.4934 106.591C17.4934 106.16 17.3464 105.457 17.21 104.607C20.1914 104.323 23.0363 103.893 25.7343 103.609C26.0178 105.457 26.1647 106.874 26.3012 108.575C25.8708 108.722 25.3039 108.722 24.59 109.005ZM36.3793 150.042C35.9488 149.612 35.6654 149.045 35.0985 148.478L41.4918 142.935C42.6256 144.216 43.7593 145.486 45.0401 146.914C44.7566 147.197 44.1897 147.627 43.7593 148.047C40.0745 144.793 38.9303 149.339 36.3793 150.042ZM27.8549 138.116C27.4245 137.402 27.141 136.836 26.7211 136.132C29.2721 134.715 31.6867 133.287 34.3846 131.87C34.8151 132.584 35.0985 133.151 35.6654 133.854C32.9674 135.282 30.4164 136.552 27.8549 138.116ZM37.3766 129.308C38.0904 130.306 38.7938 130.873 38.6573 131.44C38.5103 132.006 37.807 132.437 37.3766 132.857C36.9461 132.426 36.0958 131.859 35.9593 131.44C35.8124 130.873 36.6627 130.306 37.3766 129.308Z" fill="#3B2050"/>
<path d="M101.834 92.2507C105.949 89.1223 109.928 86.2878 114.757 85.0071C115.754 84.7236 116.888 85.154 117.885 85.4375C118.599 85.7209 119.166 86.1514 119.87 86.5713C120.867 87.1382 122.714 87.7051 122.851 88.5554C123.281 90.5395 122.998 92.6706 122.998 94.8017C122.998 95.0851 122.714 95.3686 122.567 95.5155C118.736 98.6439 114.904 101.762 109.791 103.043C108.227 103.473 107.377 103.043 106.663 101.625C105.246 98.497 103.545 95.5155 101.834 92.2507ZM110.789 109.289C114.337 107.021 117.602 104.743 121.014 102.896C122.714 102.045 125.412 101.615 126.693 102.465C128.257 103.463 129.538 106.16 129.391 108.008C129.108 111.987 126.977 115.388 123.712 117.95C123.565 118.097 123.281 118.097 122.998 118.097L122.148 111.283C119.733 112.417 117.602 113.551 115.471 114.548C114.337 115.115 113.623 114.832 113.056 113.551C112.342 112.134 111.492 110.433 110.789 109.289ZM131.942 84.8706C134.073 90.55 134.924 95.946 132.509 101.909C129.097 98.0771 125.832 94.3818 127.113 88.9858C127.26 88.5554 127.68 87.9885 127.963 87.7051C129.097 86.7182 130.378 86.0044 131.942 84.8706Z" fill="white"/>
<path d="M79.117 167.227C77.4163 165.81 75.7051 165.81 73.868 166.944C72.1673 167.941 71.4535 170.209 72.0203 172.34C72.5872 174.187 74.1514 175.321 76.2825 175.321H77.4163C76.2825 177.736 74.8653 177.736 71.7369 175.321C71.3065 175.751 70.8866 176.035 70.3197 176.602C73.0177 180.297 77.8467 180.581 79.2639 177.169C80.5447 174.187 81.1116 171.059 82.1089 167.941C80.9646 167.647 79.8308 167.794 79.117 167.227ZM79.4004 171.342C78.4031 171.909 77.5528 172.907 76.5555 173.043C75.1382 173.19 74.2879 172.046 74.4244 170.628C74.5714 169.211 75.4217 168.214 76.6919 168.497C77.6893 168.781 78.5396 169.778 79.3899 170.345V171.342H79.4004ZM30.2699 93.2479H17.0635V95.5155C18.4807 95.5155 19.9084 95.6625 21.3257 95.6625C21.3257 96.6598 21.3257 97.5101 21.4726 98.2135C21.7561 100.628 23.4567 102.192 25.8713 102.192C28.1388 102.192 29.9865 100.775 30.2699 98.4969C30.4169 96.7962 30.2699 95.0956 30.2699 93.2479ZM27.0051 99.2108C26.7216 99.4942 25.1574 99.6412 25.0209 99.2108C24.3071 98.3604 24.0236 97.0797 23.4567 95.6625H28.2858C27.7189 97.0797 27.5719 98.3604 27.0051 99.2108ZM69.1859 163.679C67.7687 162.398 66.2045 162.115 64.5038 162.681C62.6562 163.395 61.6589 164.949 61.5224 166.944C61.5224 168.644 62.2362 170.356 63.9369 171.059C65.5011 171.773 67.0653 172.193 68.9024 172.76C70.0362 170.345 71.17 167.794 72.3143 165.233C71.17 164.529 70.0362 164.382 69.1859 163.679ZM66.4879 169.211C65.6376 169.211 64.3568 168.077 64.2204 167.227C63.9369 165.946 64.9342 164.676 66.3514 164.813C67.3488 164.96 68.1991 165.81 69.1964 166.377V167.374C68.1886 168.077 67.3382 169.211 66.4879 169.211ZM60.3781 164.949C62.0788 162.818 62.0788 160.687 60.5251 158.986C58.9609 157.286 56.2629 157.002 54.4152 158.419C52.5676 159.837 52.0007 162.535 53.1345 164.382C54.4153 166.366 56.8298 167.364 59.3808 166.083C58.5305 165.516 57.9636 164.949 57.2497 164.666C55.8325 164.235 54.6987 163.532 54.9821 161.537C56.8298 162.965 58.5305 163.962 60.3781 164.949ZM59.5278 162.545C58.1105 161.695 57.1132 160.981 55.9795 160.277C58.1 159.27 59.0973 159.847 59.5278 162.545ZM98.8532 175.888C97.289 176.738 96.3021 176.171 95.5883 174.471H101.835C101.835 171.342 100.701 169.642 98.2863 169.222C96.3022 168.791 94.1711 169.936 93.3207 171.92C92.4704 174.051 93.1738 176.465 94.8849 177.746C96.7326 179.027 99.4305 178.596 101.131 176.896C100.564 175.604 99.9974 175.321 98.8532 175.888ZM99.4305 172.623H95.5988C96.869 170.639 97.7194 170.639 99.4305 172.623ZM39.0777 139.114C38.0804 136.982 35.9493 135.985 33.6818 136.563C31.5507 137.129 29.9865 139.114 30.2699 141.392C30.4169 143.659 32.1176 145.507 35.2355 145.654C34.6686 144.656 34.5216 143.953 33.9547 143.523C32.3905 142.242 32.1071 141.539 33.1044 139.827C34.3851 141.528 35.5189 143.092 36.7997 144.793C39.3612 143.229 40.075 141.245 39.0777 139.114ZM36.5267 141.812C35.8128 140.814 35.246 139.827 34.5426 138.967C34.6896 138.82 34.826 138.683 34.973 138.4C35.6869 138.83 36.5372 139.114 36.9571 139.68C37.3875 140.247 37.2406 141.098 37.3875 141.812H36.5267ZM27.8554 114.548C27.7084 112.417 26.2912 110.717 24.1601 110.286C21.8925 109.856 19.7615 111 18.9111 112.837C17.9138 115.105 18.7641 117.519 21.1787 119.083C21.4621 118.653 21.8925 118.086 22.176 117.666C21.0422 116.102 19.9084 114.685 21.8925 112.837C22.4594 115.105 23.0263 116.952 23.5932 119.083C26.7216 118.38 28.0024 116.963 27.8554 114.548ZM24.5905 116.396C24.3071 114.979 24.0236 113.845 23.7402 112.417C26.1547 113.551 26.3017 114.685 24.5905 116.396Z" fill="#3B2050"/>
</g>
<defs>
<clipPath id="clip0_937_1020">
<rect width="193.971" height="194.107" fill="white" transform="translate(0.739258 0.949707)"/>
</clipPath>
</defs>
</svg>
