<svg width="73" height="73" viewBox="0 0 73 73" fill="none" xmlns="http://www.w3.org/2000/svg">
<g clip-path="url(#clip0_937_2194)">
<path d="M72.7059 36.6057C72.7059 56.5451 56.5407 72.7097 36.6016 72.7097C16.6615 72.7095 0.49707 56.545 0.49707 36.6057C0.49707 16.6661 16.6615 0.501709 36.6014 0.501709C56.5407 0.501709 72.7059 16.6661 72.7059 36.6057Z" fill="white"/>
<path d="M70.8978 36.6057C70.8978 55.546 55.5429 70.9022 36.6015 70.9022C17.6601 70.9022 2.30469 55.546 2.30469 36.6057C2.30469 17.6648 17.6599 2.30908 36.6013 2.30908C55.5428 2.30908 70.8978 17.6647 70.8978 36.6057Z" fill="#EC2227"/>
<path d="M61.1226 36.6057C61.1226 50.149 50.144 61.1266 36.6015 61.1266C23.0585 61.1266 12.0801 50.149 12.0801 36.6057C12.0801 23.0627 23.0585 12.0842 36.6015 12.0842C50.144 12.0841 61.1226 23.0627 61.1226 36.6057Z" fill="white"/>
<path d="M36.6017 59.3724C49.1755 59.3724 59.3685 49.1794 59.3685 36.6056C59.3685 24.0319 49.1755 13.8389 36.6017 13.8389C24.028 13.8389 13.835 24.0319 13.835 36.6056C13.835 49.1794 24.028 59.3724 36.6017 59.3724Z" fill="#010101"/>
<path d="M35.5707 26.7796C35.204 27.306 34.1849 28.9754 33.5186 29.8745C33.8826 31.2954 34.9812 30.2802 36.5151 30.2148C37.9703 30.152 38.6235 31.3549 39.545 29.8225C38.9421 28.8194 37.8721 27.1962 37.5125 26.7244C37.2319 26.9238 36.8891 27.044 36.5189 27.0475C36.171 27.0525 35.8473 26.9509 35.5707 26.7796Z" fill="white"/>
<path d="M36.3745 23.5334L36.3753 23.5322C36.3753 23.5322 36.2841 20.8707 36.2798 19.5319C35.1368 18.6147 34.7434 20.173 33.5553 21.1444C32.4274 22.0642 31.0639 21.5832 31.2436 23.3603C32.3623 23.8177 34.4042 24.4102 34.9029 24.5517C35.1629 23.9828 35.7156 23.5807 36.3745 23.5334Z" fill="white"/>
<path d="M34.8002 24.8395C34.4073 24.7155 32.2754 24.0572 31.0464 23.8186C29.9219 25.2073 31.3284 25.5496 31.7652 26.9403C32.228 28.403 31.7034 29.9238 33.1609 29.7792C33.7947 28.8214 35.0149 27.0831 35.3472 26.6113C34.9814 26.2926 34.7421 25.8301 34.7354 25.3055C34.7342 25.1434 34.7606 24.9889 34.8002 24.8395Z" fill="white"/>
<path d="M36.6321 23.5337C37.291 23.5811 37.8436 23.9832 38.1036 24.5521C38.602 24.4105 40.6434 23.8182 41.7631 23.3608C41.9426 21.5837 40.5789 22.0645 39.4514 21.1449C38.2628 20.1735 37.869 18.6152 36.7267 19.5324C36.7227 20.8712 36.6309 23.5327 36.6309 23.5327L36.6321 23.5337Z" fill="white"/>
<path d="M38.2056 24.8396C38.2453 24.9891 38.2723 25.1435 38.2714 25.3056C38.2639 25.8303 38.0585 26.2687 37.6924 26.5878C38.0246 27.0593 39.2123 28.6713 39.8461 29.6294C41.3033 29.7734 40.7783 28.403 41.2418 26.9403C41.678 25.5496 43.0847 25.2073 41.9602 23.8186C40.7304 24.0574 38.5994 24.7159 38.2056 24.8396Z" fill="white"/>
<path d="M30.3659 23.8271C30.349 23.8411 30.1022 24.5818 30.2486 25.3253C30.3311 25.7483 31.0746 26.0395 31.3553 26.8077C31.7784 27.9668 31.1815 30.1198 32.7565 30.0574C29.704 32.1987 27.1528 24.7295 30.3659 23.8271Z" fill="white"/>
<path d="M42.4779 23.6794C45.7718 24.1623 43.5303 30.1289 42.1647 30.4274C41.626 30.6025 40.9275 30.4122 40.5146 30.2355C41.826 29.8035 41.3223 28.6569 41.6993 26.954C41.9185 25.9695 42.8763 25.7355 42.8986 24.8985C42.9443 24.3016 42.5023 24.2024 42.4779 23.6794Z" fill="white"/>
<path d="M33.1688 30.4604C33.9019 31.8582 34.88 30.763 36.8482 30.8242C38.1655 30.8651 39.418 31.5236 39.9732 30.5129C40.9448 33.7489 32.4626 34.2773 33.1688 30.4604Z" fill="white"/>
<path d="M36.1023 19.0255C34.6718 18.3555 34.5571 19.8185 32.9521 20.9612C31.8792 21.7248 30.4813 21.9579 30.6503 23.0984C27.9198 21.1081 34.3561 15.5578 36.1023 19.0255Z" fill="white"/>
<path d="M36.876 19.0255C38.3064 18.3555 38.4211 19.8185 40.0261 20.9612C41.0992 21.7248 42.4964 21.9579 42.3276 23.0984C45.058 21.1081 38.6223 15.5578 36.876 19.0255Z" fill="white"/>
<path d="M37.2376 17.7032C37.2376 17.7032 36.4759 18.2412 36.4956 18.8376C36.4651 18.2097 35.7236 17.7213 35.7236 17.7213C35.7236 17.7213 36.496 17.1801 36.4675 16.5881C36.5246 17.3923 37.2376 17.7032 37.2376 17.7032Z" fill="white"/>
<path d="M43.9872 23.7372C43.9872 23.7372 43.2096 23.2592 42.6621 23.3083C43.3284 23.1138 43.6397 22.3154 43.6397 22.3154C43.6397 22.3154 44.1396 22.8384 44.9668 22.7436C44.448 22.8629 43.9872 23.7372 43.9872 23.7372Z" fill="white"/>
<path d="M40.5045 32.0213C40.5045 32.0213 40.7399 31.2232 40.4375 30.6196C40.8203 31.1213 41.7763 31.0427 41.7763 31.0427C41.7763 31.0427 41.4613 31.9572 41.8438 32.4462C41.4619 31.9679 40.5045 32.0213 40.5045 32.0213Z" fill="white"/>
<path d="M31.4733 30.887C31.4733 30.887 32.2729 31.169 32.8155 30.541C32.4625 31.1165 32.7626 31.9256 32.7626 31.9256C32.7626 31.9256 31.9404 31.817 31.4189 32.2723C31.8284 31.5912 31.4733 30.887 31.4733 30.887Z" fill="white"/>
<path d="M29.4149 22.4299C29.4082 22.9981 30.2112 23.4368 30.2112 23.4368C30.2112 23.4368 29.5833 23.294 29.0368 23.955C28.88 23.2626 28.2363 22.9461 28.2363 22.9461C28.2363 22.9461 29.1812 22.9394 29.4149 22.4299Z" fill="white"/>
<path d="M38.0138 25.273C38.0237 26.1033 37.3567 26.786 36.5227 26.7952C35.6886 26.8059 35.0043 26.1408 34.9952 25.3099C34.9853 24.4804 35.652 23.7989 36.4847 23.7877C37.3192 23.7783 38.0034 24.4434 38.0138 25.273Z" fill="white"/>
<path d="M36.5059 26.152C36.4225 26.2727 36.2937 26.3444 36.1502 26.3444C35.8084 26.3395 35.4723 26.012 35.4603 25.6694C35.4574 25.5257 35.5265 25.3965 35.6441 25.3091C35.5239 25.2266 35.4521 25.0986 35.4521 24.9552C35.4556 24.6126 35.7828 24.2761 36.1251 24.2637C36.2688 24.262 36.3992 24.3284 36.4854 24.4462C36.5693 24.3264 36.6965 24.2558 36.8408 24.2546C37.1835 24.2596 37.5194 24.5874 37.531 24.9293C37.5351 25.0738 37.4668 25.2029 37.3483 25.2884C37.4688 25.3732 37.5394 25.501 37.5402 25.6455C37.5365 25.9861 37.2089 26.3223 36.8661 26.3354H36.8632C36.7198 26.3369 36.5915 26.2701 36.5059 26.152Z" fill="#010101"/>
<path d="M36.1304 24.5634C35.9536 24.5697 35.7527 24.7761 35.751 24.9576C35.751 25.0084 35.7852 25.0427 35.8134 25.0625L36.1589 25.3003L35.8215 25.55C35.7927 25.5711 35.7585 25.6081 35.7597 25.6632C35.766 25.8399 35.971 26.0409 36.1519 26.0446C36.2051 26.0438 36.2395 26.0104 36.2584 25.9828L36.4983 25.6326L36.7476 25.9756C36.7764 26.0157 36.8138 26.0356 36.8571 26.0356C37.0364 26.0289 37.2384 25.8229 37.2397 25.6425C37.2397 25.6013 37.2183 25.5633 37.1765 25.5339L36.8311 25.2933L37.1717 25.0459C37.2125 25.0166 37.2327 24.98 37.2315 24.9374C37.2254 24.7582 37.0185 24.5567 36.8369 24.5547C36.7979 24.5547 36.7604 24.5762 36.7309 24.6179L36.4907 24.9602L36.2439 24.6237C36.2233 24.5961 36.187 24.5634 36.1304 24.5634Z" fill="white"/>
<path d="M37.0393 24.8835C37.0068 24.8695 36.9688 24.8599 36.9241 24.8603C36.9205 24.7534 36.8643 24.6791 36.8276 24.6419C36.7376 24.5557 36.6105 24.5218 36.4867 24.5212C36.3633 24.5238 36.2365 24.5613 36.1487 24.651C36.1115 24.6873 36.0596 24.7633 36.0575 24.8705C36.0142 24.8722 35.975 24.8816 35.9423 24.8961C35.7931 24.9631 35.7161 25.1281 35.7188 25.3084C35.7205 25.4889 35.8027 25.6531 35.9534 25.716C35.9856 25.7299 36.0227 25.7378 36.0672 25.7381C36.0722 25.8467 36.1267 25.919 36.1651 25.9578C36.2551 26.0432 36.3831 26.0783 36.5056 26.0768C36.629 26.0751 36.7548 26.0379 36.8438 25.9488C36.8805 25.9096 36.9342 25.8356 36.9359 25.7279C36.9795 25.7267 37.0175 25.716 37.0501 25.7028C37.1992 25.6358 37.2768 25.4695 37.2744 25.2891C37.2722 25.1085 37.1917 24.9441 37.0393 24.8835Z" fill="#010101"/>
<path d="M36.9344 25.4341L36.9236 25.4353C36.9023 25.4378 36.8532 25.4187 36.7949 25.3758C36.8019 25.348 36.8063 25.3212 36.8063 25.2919C36.8055 25.265 36.8002 25.2387 36.7949 25.2147C36.8519 25.1709 36.8989 25.1503 36.9187 25.1537L36.9311 25.154C36.9403 25.154 36.9836 25.2072 36.9816 25.2931C36.9853 25.3787 36.9424 25.4329 36.9344 25.4341Z" fill="white"/>
<path d="M36.6332 25.7448C36.6175 25.7625 36.5609 25.7852 36.5011 25.7852C36.4424 25.7869 36.3841 25.7654 36.369 25.7475L36.3599 25.7249C36.3546 25.6988 36.3877 25.6415 36.4247 25.5911C36.4511 25.5977 36.4758 25.6027 36.5043 25.6018C36.5292 25.6015 36.5519 25.5969 36.5761 25.5914C36.6124 25.6413 36.6471 25.6957 36.6425 25.7215L36.6332 25.7448Z" fill="white"/>
<path d="M36.0708 25.4464L36.0613 25.4443C36.0509 25.4443 36.0096 25.3906 36.011 25.3044C36.0072 25.2202 36.0481 25.1644 36.0565 25.1644L36.0676 25.1636L36.0729 25.1619C36.094 25.1627 36.1426 25.1833 36.2029 25.2258C36.1966 25.2493 36.1929 25.2732 36.1929 25.2989C36.1929 25.3265 36.1983 25.3526 36.2056 25.3773C36.1446 25.4269 36.0931 25.4475 36.0708 25.4464Z" fill="white"/>
<path d="M36.3559 24.8547C36.3745 24.835 36.4306 24.8135 36.4897 24.8135C36.5495 24.8131 36.6056 24.8324 36.6227 24.8515L36.6322 24.8733C36.6366 24.8973 36.6073 24.9493 36.5727 24.9972C36.5478 24.9928 36.5216 24.9877 36.4959 24.9882C36.4653 24.9885 36.4386 24.9948 36.4134 25.0015C36.3759 24.9548 36.3453 24.9016 36.3489 24.8769L36.3559 24.8547Z" fill="white"/>
<path d="M36.4945 25.3988C36.5492 25.3988 36.5936 25.3544 36.5936 25.2997C36.5936 25.245 36.5492 25.2007 36.4945 25.2007C36.4398 25.2007 36.3955 25.245 36.3955 25.2997C36.3955 25.3544 36.4398 25.3988 36.4945 25.3988Z" fill="white"/>
<path d="M31.4995 52.3334C31.798 52.8857 31.7497 53.4746 31.2303 53.6908C30.7118 53.9081 29.8568 53.6702 29.4977 53.1179C28.0384 50.9113 28.8487 48.2785 27.6111 46.073C27.3143 45.5211 27.3626 44.9337 27.8831 44.717C28.3996 44.5012 29.257 44.7383 29.6144 45.2906C31.073 47.4958 30.2635 50.1288 31.4995 52.3334Z" fill="white"/>
<path d="M45.5341 46.0743C45.83 45.521 45.7817 44.9337 45.2624 44.7159C44.7457 44.5001 43.891 44.7382 43.5299 45.2898C42.0726 47.4984 42.8825 50.1299 41.6451 52.3354C41.3503 52.8858 41.3946 53.4747 41.9156 53.6907C42.4325 53.908 43.2907 53.6687 43.6483 53.1178C45.1076 50.9126 44.2976 48.2803 45.5341 46.0743Z" fill="white"/>
<path d="M23.1464 48.931C23.4461 49.0215 23.6154 49.3386 23.525 49.6384L23.0483 51.2221C22.9603 51.5221 22.6424 51.6915 22.3439 51.6017C22.0438 51.5119 21.8738 51.1962 21.9633 50.8959L22.4389 49.3115C22.5297 49.0123 22.8447 48.8409 23.1464 48.931Z" fill="#FCEE23"/>
<path d="M24.656 48.8847C24.9582 48.9752 25.1275 49.2912 25.0369 49.5892L24.5602 51.1746C24.4697 51.4752 24.1552 51.645 23.8555 51.5554C23.5554 51.4648 23.3849 51.1488 23.4737 50.8476L23.951 49.2643C24.0406 48.9648 24.3567 48.7947 24.656 48.8847Z" fill="#FCEE23"/>
<path d="M26.2407 48.7195C26.5388 48.81 26.7096 49.126 26.6193 49.4265L26.1449 51.0092C26.0532 51.3089 25.7378 51.4797 25.4378 51.3881C25.1382 51.2995 24.9676 50.9826 25.0588 50.683L25.5335 49.0989C25.6252 48.7991 25.9402 48.6287 26.2407 48.7195Z" fill="#FCEE23"/>
<path d="M27.7757 48.6009C28.0768 48.6915 28.2459 49.0085 28.1559 49.3076L27.68 50.892C27.5891 51.1907 27.2746 51.3615 26.9741 51.2716C26.6736 51.1811 26.5038 50.8648 26.5931 50.5658L27.0694 48.9814C27.1594 48.68 27.4752 48.5106 27.7757 48.6009Z" fill="#FCEE23"/>
<path d="M50.0463 48.931C49.747 49.0215 49.5773 49.3386 49.6662 49.6384L50.1426 51.2221C50.2321 51.5221 50.5495 51.6915 50.8485 51.6017C51.1482 51.5119 51.3196 51.1948 51.2284 50.8959L50.7517 49.3115C50.6613 49.0123 50.3469 48.8409 50.0463 48.931Z" fill="#FCEE23"/>
<path d="M48.5332 48.8847C48.2356 48.9752 48.0641 49.2912 48.1536 49.5905L48.6311 51.1746C48.7206 51.4759 49.0386 51.645 49.3378 51.5567C49.6371 51.4648 49.8053 51.1495 49.7164 50.8476L49.2416 49.2656C49.151 48.9648 48.8349 48.7947 48.5332 48.8847Z" fill="#FCEE23"/>
<path d="M46.9532 48.7194C46.6536 48.8089 46.4824 49.1259 46.5731 49.4252L47.0482 51.0093C47.1404 51.3089 47.4544 51.4797 47.7563 51.3882C48.0556 51.2995 48.2247 50.9827 48.1352 50.683L47.6584 49.098C47.5688 48.7976 47.2526 48.6285 46.9532 48.7194Z" fill="#FCEE23"/>
<path d="M45.4172 48.6009C45.1179 48.6914 44.9466 49.0084 45.0368 49.3076L45.5135 50.892C45.6027 51.1906 45.919 51.3614 46.2195 51.2705C46.5194 51.1811 46.6885 50.8647 46.5993 50.5657L46.1225 48.9813C46.0325 48.6807 45.7179 48.5105 45.4172 48.6009Z" fill="#FCEE23"/>
<path d="M46.4657 28.7823C45.5814 36.4103 41.6361 40.8728 36.959 44.7087C37.7308 45.239 38.5161 45.7241 39.3004 46.1743C46.4876 42.0893 52.2796 36.6126 52.726 25.7886C50.5826 26.7297 48.5814 27.8154 46.4657 28.7823Z" fill="white"/>
<path d="M30.8604 48.1374C30.9963 48.6474 30.9682 49.1695 31.104 49.4967C32.768 48.8495 34.75 48.3688 36.256 47.5638C35.4477 47.2239 34.6399 46.8547 33.8386 46.4502C32.9981 47.095 31.9759 47.6144 30.8369 47.962C30.8453 48.0204 30.8526 48.0784 30.8604 48.1374Z" fill="white"/>
<path d="M42.1867 48.9613C42.2196 48.6666 42.2528 48.3683 42.2941 48.0699C34.41 44.3049 28.1252 39.0397 26.735 28.7828C24.6188 27.8156 22.62 26.7301 20.4766 25.7891C21.2509 40.0046 30.874 46.0299 42.1495 49.2944C42.1621 49.1838 42.1744 49.0728 42.1867 48.9613Z" fill="white"/>
<path d="M8.10674 34.9761C8.80662 35.0422 9.13066 34.5229 9.18912 33.9041C9.22747 33.499 9.16799 32.8691 8.63037 32.8182C8.0631 32.7645 7.89282 33.5436 7.61344 34.2975C7.33338 35.0588 6.95668 35.8185 5.96975 35.7251C4.89418 35.6233 4.47469 34.558 4.56452 33.6079C4.66833 32.5103 5.24259 31.5464 6.45793 31.6614L6.35208 32.781C5.71509 32.758 5.51054 33.192 5.45838 33.7444C5.42344 34.1128 5.53781 34.5546 5.9798 34.5963C6.38497 34.6347 6.46014 34.3891 6.92378 33.1025C7.05571 32.7285 7.41026 31.5728 8.60361 31.6858C9.56855 31.777 10.2188 32.6041 10.0835 34.0332C9.97338 35.197 9.29583 36.2329 8.00071 36.0955L8.10674 34.9761Z" fill="white"/>
<path d="M5.17969 29.884L5.50014 28.7674L7.44878 29.3268L8.03872 27.2716L6.09009 26.7122L6.41054 25.5957L11.4882 27.0534L11.1676 28.1699L8.97725 27.5413L8.3873 29.5966L10.5778 30.2253L10.2572 31.3417L5.17969 29.884Z" fill="white"/>
<path d="M7.08594 23.9588L8.85474 20.4265L9.72781 20.8637L8.47906 23.3575L9.49122 23.8644L10.6372 21.5755L11.4441 21.9797L10.298 24.2684L11.4557 24.8479L12.7309 22.3013L13.604 22.7386L11.8087 26.3237L7.08594 23.9588Z" fill="white"/>
<path d="M9.80566 18.9416L12.0108 15.9546L12.7961 16.5343L11.2806 18.5871L12.2624 19.3119L13.5759 17.5327L14.3019 18.0686L12.9887 19.8479L14.7439 21.1437L14.0544 22.078L9.80566 18.9416Z" fill="white"/>
<path d="M12.7744 15.1069L15.4037 12.4841L16.0932 13.1755L14.2863 14.9781L15.1485 15.8423L16.7146 14.28L17.352 14.9191L15.7858 16.4813L17.3273 18.0263L16.5048 18.8465L12.7744 15.1069Z" fill="white"/>
<path d="M16.2803 11.8155L17.1912 11.095L20.468 15.2377L19.5571 15.9582L16.2803 11.8155Z" fill="white"/>
<path d="M18.4268 10.139L21.8074 8.09473L22.3128 8.93047L19.9259 10.3737L20.5116 11.3424L22.7021 10.0178L23.1693 10.7903L20.9788 12.1149L21.6487 13.2229L24.0862 11.7491L24.5914 12.5848L21.16 14.6593L18.4268 10.139Z" fill="white"/>
<path d="M23.4443 7.32537L24.5274 6.90503L26.0854 10.9201L28.486 9.98855L28.8394 10.8991L25.3556 12.251L23.4443 7.32537Z" fill="white"/>
<path d="M28.6094 5.48359L30.8503 5.07331C32.1964 4.827 33.3623 5.48581 33.6778 7.2103C33.9536 8.71644 33.3874 9.97814 31.8015 10.2684L29.5605 10.6787L28.6094 5.48359ZM30.527 9.50922L31.5456 9.32274C32.2078 9.20155 32.7663 8.67825 32.5557 7.52871C32.364 6.48092 31.8777 5.87803 30.7426 6.08598L29.9277 6.23513L30.527 9.50922Z" fill="white"/>
<path d="M42.0875 8.27532C41.9281 9.69385 41.0126 10.2906 39.6089 10.1329C38.1976 9.97442 37.4512 9.19834 37.6112 7.77231L37.9777 4.50879L39.1318 4.6385L38.7654 7.90203C38.7008 8.47527 38.7843 9.05788 39.7179 9.16271C40.541 9.2551 40.8461 8.92476 40.9337 8.14561L41.3002 4.88208L42.4542 5.0118L42.0875 8.27532Z" fill="white"/>
<path d="M44.011 5.33984L45.113 5.68297L46.164 9.72172L46.1782 9.72598L47.2319 6.3428L48.2701 6.66615L46.6996 11.709L45.5908 11.3637L44.5444 7.33433L44.5302 7.3299L43.4787 10.7061L42.4404 10.3829L44.011 5.33984Z" fill="white"/>
<path d="M49.7367 7.36157L50.7869 7.85725L48.5326 12.6331L47.4824 12.1374L49.7367 7.36157Z" fill="white"/>
<path d="M52.5024 9.89957L51.1579 9.06315L51.6738 8.23389L55.3492 10.5205L54.8332 11.35L53.4888 10.5134L51.214 14.1698L50.2275 13.5562L52.5024 9.89957Z" fill="white"/>
<path d="M56.1577 11.1467L59.1426 13.7335L58.5032 14.4713L56.3962 12.645L55.6547 13.5002L57.5887 15.1763L56.9976 15.8581L55.0638 14.182L54.2158 15.1601L56.3679 17.025L55.7285 17.7629L52.6992 15.1374L56.1577 11.1467Z" fill="white"/>
<path d="M60.4562 15.0903L61.8619 16.8833C62.706 17.9603 62.6653 19.2989 61.2856 20.3804C60.0807 21.3251 58.7001 21.4108 57.7052 20.1418L56.2998 18.3487L60.4562 15.0903ZM57.7848 18.6603L58.4235 19.4754C58.8389 20.0052 59.562 20.2561 60.4817 19.5349C61.3199 18.8778 61.6274 18.1669 60.9152 17.2587L60.4042 16.6067L57.7848 18.6603Z" fill="white"/>
<path d="M65.6249 22.8987L67.0335 26.3344L66.1303 26.7046L65.1621 24.3435L64.0328 24.8064L64.8718 26.8527L64.0369 27.195L63.1979 25.1487L61.1787 25.9764L60.7383 24.9019L65.6249 22.8987Z" fill="white"/>
<path d="M63.1407 27.9429L63.4777 29.0544L62.3874 29.3847L62.0508 28.2734L63.1407 27.9429Z" fill="white"/>
<path d="M66.6752 32.8978C67.1813 32.7389 67.4934 32.1772 67.3988 31.6081C67.2282 30.5791 66.2883 30.3374 65.3762 30.4885C64.5075 30.6324 63.696 31.1644 63.8664 32.1934C63.9827 32.8942 64.5299 33.2085 65.2304 33.1822L65.414 34.2917C64.0955 34.3903 63.1147 33.6304 62.903 32.3532C62.6358 30.7401 63.6829 29.5918 65.1864 29.3426C66.7335 29.086 68.0951 29.8354 68.3624 31.4484C68.5522 32.5943 68.0404 33.6689 66.8595 34.0071L66.6752 32.8978Z" fill="white"/>
<path d="M64.472 35.1165L64.509 36.2776L63.3702 36.3137L63.333 35.1526L64.472 35.1165Z" fill="white"/>
<path d="M30.6821 68.0855L29.6549 67.8651L30.3592 64.5807L29.0859 64.3077L29.252 63.5336C29.9651 63.7017 30.6759 63.5969 30.9505 62.8462L31.768 63.0212L30.6821 68.0855Z" fill="white"/>
<path d="M34.2151 63.2344C35.4973 63.3483 35.8611 64.2718 35.8166 64.7728C35.7714 65.2814 35.4695 65.6704 34.9674 65.8042L34.9686 65.7895L34.968 65.7969L34.9674 65.8042C35.5667 65.9987 35.8784 66.5017 35.8208 67.1501C35.7245 68.2333 34.704 68.6849 33.7461 68.5996C32.7511 68.5113 31.8303 67.9245 31.9292 66.8116C31.9875 66.156 32.3972 65.7242 33.0146 65.6307L33.016 65.616C32.5273 65.4312 32.3061 64.9957 32.3512 64.4874C32.4334 63.5588 33.375 63.1596 34.2151 63.2344ZM33.8159 67.8115C34.3169 67.8558 34.7316 67.5365 34.7775 67.0204C34.8213 66.5267 34.4529 66.1594 33.9665 66.1165C33.458 66.0711 33.0271 66.3225 32.9799 66.8532C32.9328 67.3836 33.3148 67.7668 33.8159 67.8115ZM34.0213 65.4157C34.4488 65.4537 34.8162 65.2487 34.8554 64.8062C34.8791 64.5411 34.7937 64.0804 34.1451 64.0228C33.7251 63.9854 33.3337 64.2106 33.293 64.6676C33.2531 65.1171 33.6013 65.3781 34.0213 65.4157Z" fill="white"/>
<path d="M38.2608 63.2875C39.5461 63.2089 40.0431 64.0682 40.074 64.5702C40.105 65.0798 39.8645 65.5097 39.3881 65.7168L39.387 65.7022L39.3875 65.7095L39.3881 65.7168C40.0095 65.8198 40.3931 66.2708 40.4328 66.9206C40.4991 68.0062 39.5571 68.6052 38.597 68.6638C37.5998 68.7247 36.6016 68.2817 36.5335 67.1664C36.4934 66.5093 36.8341 66.0211 37.4307 65.8363L37.4299 65.8217C36.919 65.7121 36.6352 65.3142 36.604 64.8046C36.5471 63.874 37.4186 63.3388 38.2608 63.2875ZM38.3945 65.4738C38.8227 65.4475 39.1554 65.1898 39.1285 64.7469C39.1121 64.4807 38.9588 64.0378 38.3091 64.0774C37.8881 64.1033 37.5345 64.3844 37.5628 64.8424C37.5899 65.2929 37.9735 65.4993 38.3945 65.4738ZM38.5486 67.8734C39.0506 67.8427 39.4128 67.465 39.3816 66.9479C39.3512 66.4528 38.9321 66.1448 38.4444 66.1748C37.9351 66.2059 37.5465 66.5188 37.5788 67.0505C37.6114 67.5821 38.0462 67.9044 38.5486 67.8734Z" fill="white"/>
<path d="M42.2597 66.7793C42.3976 67.1056 42.7201 67.3389 43.0746 67.2631C43.8197 67.103 43.8057 66.0845 43.7137 65.5139L43.6959 65.5026C43.4992 65.961 43.166 66.2068 42.6741 66.3123C42.2401 66.4052 41.7553 66.2973 41.3979 66.0409C41.0636 65.7873 40.8505 65.394 40.765 64.9962C40.5432 63.9619 41.0842 62.991 42.1402 62.7643C43.6736 62.4353 44.3731 63.685 44.6478 64.9658C44.9131 66.2027 44.6656 67.7311 43.2262 68.04C42.3507 68.2278 41.5898 67.8535 41.283 66.9886L42.2597 66.7793ZM43.3699 64.3696C43.2688 63.8995 42.8641 63.4943 42.3507 63.6046C41.8588 63.7101 41.6776 64.2407 41.7752 64.6965C41.8777 65.174 42.2261 65.5987 42.754 65.4852C43.3037 65.3674 43.4769 64.8687 43.3699 64.3696Z" fill="white"/>
</g>
<defs>
<clipPath id="clip0_937_2194">
<rect width="72.4773" height="72.4773" fill="white" transform="translate(0.49707 0.501465)"/>
</clipPath>
</defs>
</svg>
