<svg width="36" height="74" viewBox="0 0 36 74" fill="none" xmlns="http://www.w3.org/2000/svg">
<g clip-path="url(#clip0_937_1162)">
<path d="M9.90615 49.8674C9.70473 49.817 9.53077 49.6921 9.39649 49.5046C8.71549 50.5551 8.42835 51.4944 8.67875 52.3373C9.72638 55.8748 12.8473 58.4871 16.585 58.835C13.0127 57.7499 10.369 54.0277 9.90615 49.8674ZM9.17463 47.7769C8.9496 47.6165 8.75682 47.4663 8.6197 47.3355C8.37526 48.2375 8.27072 49.1718 8.30971 50.1056C8.31737 50.2995 8.33125 50.4915 8.3505 50.6816C8.48871 50.1148 8.76098 49.5226 9.15112 48.9187C9.07567 48.5651 9.0877 48.1632 9.17463 47.7769ZM9.35078 47.237C9.44515 47.0226 9.56335 46.8248 9.70408 46.6581C9.81725 46.5245 9.93786 46.4187 10.0659 46.3399C10.4059 44.7557 11.1158 43.3444 12.1536 42.2777C10.6041 43.3794 9.4165 44.9502 8.79214 46.773C8.87502 46.8866 9.09535 47.0578 9.35078 47.237ZM22.7554 55.37C21.9819 55.2842 20.947 55.0798 20.4952 54.9232C19.9909 54.7487 19.5423 54.3276 19.2956 53.7952C19.1694 53.5227 19.0982 53.228 19.0863 52.9279C19.078 52.7157 19.0982 52.4818 19.1604 52.2286C16.3245 51.3637 13.3205 50.1625 11.2293 49.0457C11.158 49.1777 11.0735 49.3022 10.9772 49.4173C10.8199 49.6035 10.6432 49.7385 10.4614 49.8156C10.6578 51.5555 11.262 53.2606 12.2241 54.7462C13.5004 56.7167 15.2387 58.0671 17.1163 58.4923C17.782 58.6422 18.6521 58.8295 19.4306 58.657C22.3169 58.018 24.6697 56.0216 25.8196 53.3954C25.6849 53.4194 25.5335 53.4333 25.3709 53.4387C24.7125 55.3655 23.3276 55.4332 22.7554 55.37ZM26.5745 49.3622C26.5335 48.3475 26.3288 47.3785 25.9865 46.4795C25.5654 45.3769 24.1586 44.5951 22.3053 44.1752C18.879 43.4006 14.3783 44.6802 11.5145 47.0894C11.6245 47.529 11.5919 48.053 11.4442 48.5312C13.5077 49.6407 16.5088 50.8418 19.3403 51.7036C20.0066 50.1734 21.2825 49.8817 22.2775 50.1302C22.7765 50.2556 23.2785 50.3684 23.7831 50.4687L24.1511 50.5465C24.6241 50.6571 25.039 50.9713 25.2879 51.4091C25.4643 51.7185 25.6263 52.2079 25.5158 52.8816C25.8637 52.8611 26.0321 52.8028 26.071 52.7567C26.4425 51.6973 26.6233 50.5513 26.5745 49.3622ZM24.9508 52.8813C25.0648 52.3169 24.9416 51.9239 24.8043 51.6837C24.6325 51.3804 24.3474 51.163 24.0252 51.0876L23.6725 51.0135C23.1599 50.9112 22.6498 50.7965 22.1428 50.6693C21.1715 50.4268 20.3382 50.8716 19.8782 51.8633C20.3403 51.9979 20.8047 52.1245 21.2712 52.2431C21.3444 51.8899 21.36 51.6446 21.36 51.6404C21.3645 51.5668 21.398 51.4981 21.4531 51.4492C21.5082 51.4003 21.5804 51.3752 21.6539 51.3793C21.6904 51.3814 21.726 51.3907 21.7589 51.4066C21.7918 51.4225 21.8211 51.4447 21.8454 51.472C21.8696 51.4993 21.8882 51.5311 21.9002 51.5656C21.9121 51.6001 21.9171 51.6366 21.9148 51.673C21.9139 51.6929 21.896 51.974 21.8117 52.3748C21.9016 52.3959 21.9917 52.4174 22.0802 52.4369C22.1711 52.4578 22.2608 52.4777 22.3488 52.4963C22.428 52.1055 22.4789 51.7734 22.4804 51.7665C22.4922 51.6943 22.532 51.6295 22.5912 51.5864C22.6504 51.5433 22.7243 51.5253 22.7967 51.5363C22.8691 51.5473 22.9342 51.5864 22.978 51.6452C23.0217 51.7039 23.0406 51.7775 23.0304 51.8501C23.0263 51.8768 22.9747 52.2095 22.8932 52.6083C23.0796 52.6446 23.2563 52.6764 23.4238 52.705C23.4854 52.3678 23.5006 52.0998 23.5006 52.0949C23.5024 52.0584 23.5114 52.0227 23.527 51.9897C23.5426 51.9567 23.5645 51.9271 23.5916 51.9026C23.6186 51.878 23.6503 51.8591 23.6846 51.8468C23.719 51.8345 23.7555 51.8291 23.7919 51.8309C23.8284 51.8327 23.8641 51.8415 23.8971 51.8571C23.9301 51.8726 23.9597 51.8945 23.9842 51.9215C24.0087 51.9485 24.0277 51.9801 24.04 52.0144C24.0523 52.0487 24.0577 52.0852 24.0559 52.1216C24.0549 52.1444 24.0399 52.4259 23.9739 52.7881C24.3591 52.8403 24.6826 52.8689 24.9508 52.8813ZM19.8001 53.5609C20.0171 54.0299 20.3955 54.3009 20.6771 54.3978C21.0432 54.5247 22.0117 54.7281 22.8162 54.8164C23.6986 54.914 24.3884 54.423 24.7817 53.431C24.4864 53.4141 24.1703 53.3795 23.8431 53.334C23.7818 53.5337 23.7038 53.7327 23.603 53.9096C23.5664 53.9736 23.5059 54.0204 23.4348 54.0398C23.3637 54.0592 23.2878 54.0495 23.2238 54.013C23.1599 53.9764 23.113 53.9159 23.0936 53.8448C23.0742 53.7737 23.0839 53.6978 23.1205 53.6338C23.187 53.5166 23.2422 53.3835 23.2879 53.2464C23.1154 53.2169 22.9417 53.1843 22.7699 53.1512C22.711 53.3816 22.6434 53.6007 22.5724 53.7645C22.5428 53.832 22.4876 53.8851 22.4189 53.912C22.3503 53.9388 22.2737 53.9374 22.2061 53.9079C22.1727 53.8934 22.1424 53.8724 22.1171 53.8461C22.0918 53.8198 22.0719 53.7888 22.0586 53.7549C22.0452 53.7209 22.0388 53.6846 22.0395 53.6482C22.0402 53.6117 22.048 53.5757 22.0627 53.5423C22.1201 53.4105 22.175 53.232 22.2254 53.0385C22.1353 53.0186 22.0459 52.9989 21.9576 52.979C21.8642 52.9581 21.7685 52.9354 21.6732 52.9124C21.6213 53.0814 21.5609 53.2478 21.4924 53.4109C21.4333 53.552 21.2693 53.6182 21.1281 53.5587C20.9869 53.4992 20.9202 53.336 20.98 53.1948C21.0374 53.0595 21.0882 52.9214 21.132 52.7811C20.6505 52.6586 20.1712 52.5276 19.6944 52.3879C19.5765 52.8999 19.6786 53.2999 19.8001 53.5609ZM10.6428 46.6343C10.5196 46.6119 10.2751 46.6137 10.0308 46.8793C9.64383 47.2985 9.46221 47.8668 9.4902 48.5671C9.49796 48.7457 9.52289 48.8456 9.57341 48.9895C9.66362 49.2438 9.88034 49.4121 10.0387 49.4408C10.2269 49.4753 10.4393 49.3654 10.6377 49.1305C11.071 48.6164 11.2579 47.6738 11.0453 47.0722C10.9571 46.8212 10.8144 46.6657 10.6428 46.6343Z" fill="#002156"/>
<path d="M13.4816 0.953613C9.90077 0.953613 9.05193 2.78962 9.05193 2.78962C9.05193 2.78962 13.1836 2.491 13.1836 6.57164C13.1836 8.40808 12.1842 9.65286 11.1264 10.9701C9.89749 12.5 8.50531 14.2341 8.50531 17.1431C8.50531 21.9585 11.5989 24.2176 14.3282 26.2105C16.7061 27.9471 18.9518 29.5871 18.9518 32.6751C18.9518 35.7802 17.5899 38.1875 16.9683 38.8088C15.9257 39.8514 14.9862 40.0411 14.232 40.1935C13.4573 40.3499 12.7253 40.5002 12.5716 41.613C9.70461 43.3348 7.96777 46.4016 7.96777 49.7289C7.96777 49.8586 7.97051 49.989 7.97565 50.1193C8.07865 52.6481 9.16029 54.9853 11.021 56.7003C12.8816 58.4155 15.299 59.303 17.8273 59.1998C20.3559 59.0969 22.6927 58.015 24.4081 56.1548C26.1234 54.2942 27.0109 51.8767 26.9073 49.3487C26.7507 45.4885 24.3011 42.1431 20.6673 40.8258L20.6812 40.831C20.6647 40.8243 20.6482 40.8176 20.6316 40.8111C20.6032 40.8009 20.5746 40.7909 20.546 40.781C20.0865 40.6224 19.5651 40.4421 19.5651 39.2603C19.5651 38.1149 20.0849 38.0198 21.1199 37.8298C21.735 37.7169 22.4877 37.5789 23.2257 37.1279C24.5395 36.3261 24.786 35.3587 24.5467 35.1199C24.2212 34.7941 23.8625 35.4786 22.54 35.8769C22.0635 36.0208 21.5837 36.1045 21.2595 36.1045C20.99 36.1045 20.7888 36.0818 20.6413 36.055C21.3357 34.754 22.1137 33.6889 22.1223 33.6779L22.2918 33.4472L22.0892 33.2445C21.8205 32.976 21.6659 32.4172 21.6659 31.668C21.6659 30.7436 21.901 29.5297 22.4467 28.2117C23.0922 26.6543 25.6542 21.5716 31.5305 21.5716H31.8641V21.238C31.8641 19.1372 31.6721 17.2051 31.294 15.4954L31.2203 15.1632C31.2203 15.1632 30.6497 15.3251 30.1746 15.4312C30.118 15.4437 29.6735 15.5529 29.6534 15.4591C29.6354 15.3762 29.9787 15.2037 30.0973 15.1443C30.5435 14.9223 31.0998 14.6887 31.0998 14.6887L31.0231 14.4214C30.6039 12.9586 30.1821 12.2594 30.1641 12.2302L30.028 12.0074L29.7796 12.086C24.8862 13.6275 23.8399 16.8748 23.2147 18.8145C22.9104 19.7572 22.7222 20.2905 22.3819 20.2905C21.3719 20.2905 20.5364 19.4552 20.2617 19.1806C17.2109 16.1295 17.4444 13.9298 17.7989 10.5997C17.9243 9.42455 18.0661 8.09295 18.0661 6.57207C18.0657 2.73889 16.6091 0.953613 13.4816 0.953613Z" fill="white"/>
<path d="M19.2861 32.6749C19.2861 35.7674 17.9671 38.2822 17.205 39.0443C14.8434 41.4061 12.8954 39.6862 12.8743 42.0557C11.8026 43.0264 11.0316 44.5019 10.6533 46.1871C10.6768 46.1894 10.7002 46.1929 10.7232 46.1972C10.945 46.2375 11.1355 46.3643 11.2809 46.5644C14.2804 44.1198 18.8987 42.8344 22.4286 43.6327C23.5509 43.8864 24.5028 44.3007 25.2237 44.9346C24.1396 43.1814 22.4826 41.8283 20.5238 41.1261C20.0588 40.9593 19.2323 40.7684 19.2323 39.26C19.2323 36.4444 22.3126 38.6335 24.3421 35.5668C24.4414 35.4153 24.2985 35.2831 24.1793 35.4022C23.5656 36.0156 22.0578 36.4378 21.2604 36.4378C20.462 36.4378 20.1618 36.2561 20.1618 36.2561C20.9155 34.7563 21.8541 33.4799 21.8541 33.4799C19.9701 31.5959 23.1411 21.2375 31.5313 21.2375C31.5313 18.8346 31.2774 16.9605 30.969 15.5667C30.7693 15.6154 29.1889 15.988 29.1167 15.6557C29.0527 15.3613 30.2808 14.7229 30.7036 14.5129C30.2913 13.0766 29.8806 12.4035 29.8806 12.4035C22.6891 14.6692 24.1344 20.6233 22.3826 20.6233C21.2423 20.6233 20.3466 19.7357 20.0267 19.4158C15.7313 15.1211 17.7332 12.2786 17.7332 6.57139C17.7332 2.72672 16.2401 1.28687 13.4827 1.28687C10.7254 1.28687 9.74023 2.4808 9.74023 2.4808C9.74023 2.4808 13.5182 2.60316 13.5182 6.57139C13.5182 10.7258 8.83978 11.8725 8.83978 17.1427C8.83956 25.916 19.2861 25.7512 19.2861 32.6749ZM14.3059 6.57161C14.3059 6.06228 14.2511 5.60237 14.1517 5.1873C14.1517 5.1873 14.974 5.14433 14.974 4.14361C14.974 3.31871 14.4237 2.75624 14.2762 2.75624C14.1571 2.75624 14.1276 2.88264 13.8699 2.88264C13.2419 2.88264 13.1959 2.08016 13.1959 2.08016C13.2888 2.07699 13.3844 2.07557 13.4823 2.07557C15.2804 2.07557 16.9446 2.62 16.9446 6.57172C16.9446 8.03311 16.8062 9.33344 16.6842 10.4807C16.5632 11.6137 16.4515 12.6677 16.4836 13.6968C16.4836 13.6968 13.3525 13.3278 13.3525 10.9722C13.3525 9.44256 14.3059 9.07035 14.3059 6.57161ZM9.90655 49.8674C9.70513 49.817 9.53117 49.692 9.39689 49.5046C8.71589 50.5551 8.42875 51.4944 8.67915 52.3373C9.72678 55.8748 12.8477 58.4871 16.5854 58.835C13.0131 57.7499 10.3694 54.0277 9.90655 49.8674ZM9.17503 47.7769C8.95 47.6165 8.75722 47.4663 8.62011 47.3354C8.37567 48.2375 8.27112 49.1718 8.31011 50.1056C8.31777 50.2994 8.33165 50.4915 8.3509 50.6816C8.48911 50.1148 8.76138 49.5226 9.15152 48.9186C9.07607 48.5651 9.0881 48.1632 9.17503 47.7769ZM9.35119 47.237C9.44555 47.0226 9.56375 46.8248 9.70448 46.658C9.81765 46.5245 9.93826 46.4187 10.0663 46.3399C10.4063 44.7557 11.1162 43.3444 12.154 42.2777C10.6045 43.3793 9.4169 44.9502 8.79254 46.773C8.87543 46.8866 9.09576 47.0578 9.35119 47.237ZM22.7558 55.37C21.9823 55.2841 20.9474 55.0798 20.4956 54.9232C19.9913 54.7487 19.5427 54.3276 19.296 53.7952C19.1698 53.5227 19.0986 53.2279 19.0867 52.9279C19.0784 52.7156 19.0986 52.4817 19.1608 52.2286C16.3249 51.3637 13.3209 50.1624 11.2297 49.0457C11.1584 49.1777 11.0739 49.3022 10.9776 49.4173C10.8203 49.6035 10.6436 49.7385 10.4618 49.8156C10.6582 51.5555 11.2624 53.2606 12.2245 54.7462C13.5008 56.7167 15.2391 58.0671 17.1167 58.4923C17.7824 58.6422 18.6525 58.8295 19.431 58.657C22.3173 58.018 24.6701 56.0216 25.82 53.3954C25.6853 53.4194 25.5339 53.4333 25.3713 53.4387C24.7129 55.3655 23.328 55.4332 22.7558 55.37ZM25.9869 46.4795C25.5658 45.3769 24.159 44.595 22.3057 44.1752C18.8794 43.4006 14.3787 44.6802 11.5149 47.0894C11.6249 47.529 11.5923 48.053 11.4446 48.5312C13.5081 49.6406 16.5092 50.8418 19.3407 51.7035C20.007 50.1734 21.2829 49.8816 22.2779 50.1302C22.7769 50.2555 23.2789 50.3684 23.7835 50.4687L24.1515 50.5465C24.6245 50.6571 25.0394 50.9713 25.2883 51.4091C25.4647 51.7185 25.6267 52.2078 25.5162 52.8816C25.8641 52.8611 26.0325 52.8028 26.0714 52.7566C26.4428 51.6973 26.6237 50.5516 26.5748 49.3625C26.5362 48.376 26.3376 47.4023 25.9869 46.4795ZM19.8005 53.5609C20.0175 54.0299 20.3959 54.3009 20.6776 54.3978C21.0436 54.5246 22.0121 54.7281 22.8166 54.8164C23.699 54.914 24.3888 54.4229 24.7821 53.431C24.4868 53.4141 24.1707 53.3795 23.8435 53.334C23.7822 53.5336 23.7042 53.7327 23.6034 53.9096C23.5853 53.9413 23.5611 53.9691 23.5323 53.9914C23.5034 54.0137 23.4704 54.0302 23.4352 54.0398C23.4 54.0494 23.3633 54.052 23.3271 54.0474C23.2909 54.0428 23.2559 54.0311 23.2242 54.013C23.1926 53.9949 23.1648 53.9707 23.1424 53.9418C23.1201 53.913 23.1036 53.88 23.094 53.8448C23.0844 53.8096 23.0819 53.7728 23.0865 53.7366C23.0911 53.7004 23.1028 53.6655 23.1209 53.6338C23.1875 53.5166 23.2426 53.3835 23.2883 53.2464C23.1158 53.2169 22.9421 53.1843 22.7703 53.1512C22.7114 53.3815 22.6438 53.6007 22.5728 53.7645C22.5432 53.832 22.488 53.885 22.4193 53.9119C22.3507 53.9388 22.2741 53.9374 22.2065 53.9079C22.1731 53.8934 22.1428 53.8723 22.1175 53.8461C22.0922 53.8198 22.0723 53.7888 22.059 53.7549C22.0456 53.7209 22.0392 53.6846 22.0399 53.6482C22.0406 53.6117 22.0484 53.5757 22.0631 53.5423C22.1205 53.4105 22.1754 53.232 22.2258 53.0385C22.1357 53.0186 22.0463 52.9988 21.958 52.9789C21.8646 52.9581 21.7689 52.9354 21.6736 52.9123C21.6217 53.0814 21.5613 53.2478 21.4928 53.4109C21.4337 53.552 21.2697 53.6182 21.1285 53.5587C20.9873 53.4992 20.9206 53.3359 20.9804 53.1948C21.0378 53.0595 21.0886 52.9214 21.1324 52.7811C20.6509 52.6586 20.1716 52.5275 19.6948 52.3879C19.5769 52.8999 19.679 53.2999 19.8005 53.5609ZM24.9512 52.8813C25.0652 52.3169 24.942 51.9239 24.8047 51.6836C24.6329 51.3804 24.3478 51.1629 24.0256 51.0876L23.6729 51.0135C23.1603 50.9112 22.6502 50.7965 22.1432 50.6693C21.1719 50.4268 20.3386 50.8715 19.8786 51.8633C20.3407 51.9979 20.8051 52.1245 21.2716 52.243C21.3448 51.8899 21.3604 51.6446 21.3604 51.6403C21.3649 51.5668 21.3984 51.4981 21.4535 51.4492C21.5086 51.4003 21.5808 51.3751 21.6543 51.3793C21.6908 51.3814 21.7264 51.3907 21.7593 51.4066C21.7922 51.4225 21.8215 51.4447 21.8458 51.472C21.87 51.4993 21.8886 51.5311 21.9006 51.5656C21.9125 51.6001 21.9175 51.6366 21.9152 51.673C21.9143 51.6929 21.8964 51.974 21.8121 52.3748C21.902 52.3959 21.9921 52.4173 22.0806 52.4369C22.1715 52.4578 22.2612 52.4777 22.3492 52.4963C22.4284 52.1055 22.4793 51.7734 22.4808 51.7665C22.4926 51.6942 22.5324 51.6295 22.5916 51.5864C22.6508 51.5433 22.7247 51.5253 22.7971 51.5363C22.8695 51.5473 22.9346 51.5864 22.9784 51.6452C23.0221 51.7039 23.041 51.7775 23.0308 51.8501C23.0267 51.8767 22.9751 52.2095 22.8936 52.6083C23.08 52.6446 23.2567 52.6764 23.4242 52.705C23.4859 52.3678 23.5011 52.0998 23.5011 52.0949C23.5028 52.0584 23.5118 52.0227 23.5274 51.9897C23.543 51.9567 23.5649 51.9271 23.592 51.9025C23.619 51.878 23.6507 51.8591 23.685 51.8468C23.7194 51.8345 23.7559 51.8291 23.7923 51.8309C23.8288 51.8326 23.8645 51.8415 23.8975 51.8571C23.9305 51.8726 23.9601 51.8945 23.9846 51.9215C24.0091 51.9485 24.0281 51.9801 24.0404 52.0144C24.0527 52.0487 24.0581 52.0851 24.0563 52.1216C24.0553 52.1444 24.0403 52.4259 23.9743 52.7881C24.3595 52.8403 24.683 52.8689 24.9512 52.8813ZM10.6432 46.6343C10.52 46.6119 10.2755 46.6137 10.0312 46.8793C9.64423 47.2985 9.46261 47.8667 9.4906 48.5671C9.49836 48.7457 9.52329 48.8456 9.57381 48.9895C9.66402 49.2438 9.88074 49.4121 10.0391 49.4408C10.2273 49.4753 10.4397 49.3654 10.6381 49.1304C11.0714 48.6164 11.2583 47.6738 11.0457 47.0721C10.9575 46.8212 10.8148 46.6657 10.6432 46.6343ZM3.45379 57.7311C4.1549 58.1935 4.89746 58.6094 4.89746 58.6094L4.63755 59.283C4.54045 58.8749 4.13566 58.6534 3.61332 58.3301L1.90317 60.8029C1.69432 61.1013 1.28712 61.7541 1.25432 62.0084C1.25432 62.0084 0.973628 61.8303 0.717543 61.6394C0.449758 61.4398 0.195312 61.2551 0.195312 61.2551C0.450195 61.193 0.890417 60.5437 1.15591 60.1839L2.8197 57.8099C2.19654 57.3281 1.95325 57.2337 1.51292 57.2108L2.10513 56.7666C2.10513 56.7666 2.67427 57.2173 3.45379 57.7311ZM30.5539 66.1082L30.6056 66.1648C30.5573 66.1623 30.5172 66.1872 30.4652 66.2165L30.6153 66.5051C30.6447 66.5585 30.6861 66.6395 30.7133 66.6454C30.7133 66.6454 30.6812 66.6638 30.6428 66.6832C30.6092 66.6996 30.5774 66.7128 30.5774 66.7128C30.5778 66.6769 30.5663 66.6482 30.5263 66.5662L30.3692 66.2636C30.3165 66.29 30.2589 66.3163 30.2434 66.359L30.23 66.2753C30.23 66.2753 30.3077 66.2376 30.3914 66.1946C30.4459 66.1663 30.5 66.1375 30.5539 66.1082ZM4.56068 63.8651C3.37276 63.2982 3.21487 61.9894 3.79975 60.7642C4.38726 59.5338 5.50706 58.8415 6.68962 59.4066C7.87164 59.971 8.03817 61.2768 7.45023 62.5072C6.86534 63.7327 5.7486 64.4326 4.56068 63.8651ZM6.5197 59.7617C5.76009 59.3991 5.16284 60.2571 4.71245 61.2005C4.26206 62.1436 3.96749 63.1537 4.72721 63.5166C5.48683 63.8787 6.08724 63.0149 6.53774 62.0718C6.98814 61.1285 7.27943 60.1241 6.5197 59.7617ZM9.8767 60.6717C10.3597 60.8081 10.8455 60.9343 11.3338 61.0503L11.2643 61.7694C11.049 61.4584 10.9501 61.3824 10.2644 61.2077L9.43308 64.003C9.36638 64.2588 9.03463 65.2269 9.14091 65.4088C9.14091 65.4088 8.90998 65.3597 8.53722 65.2563C8.1181 65.1402 7.92117 65.0615 7.92117 65.0615C8.13615 64.9202 8.40656 64.0926 8.49502 63.7562L9.33052 60.9423C8.62011 60.7052 8.455 60.6888 8.11548 60.8466L8.52727 60.2333C8.52716 60.2336 8.991 60.4207 9.8767 60.6717ZM13.1907 61.4142C13.7016 61.4901 14.2143 61.5526 14.7284 61.6015L14.7584 62.323C14.4625 62.0599 14.3511 61.9746 13.5694 61.8762L13.1167 64.747C13.0849 65.01 12.9166 66.0085 13.0467 66.174C13.0467 66.174 12.7725 66.1437 12.3938 66.0907C12.0152 66.0369 11.7825 65.9835 11.7825 65.9835C11.9674 65.8392 12.1211 64.8937 12.1533 64.6304L12.6171 61.724C11.9397 61.5889 11.8005 61.6407 11.4752 61.8295L11.7701 61.1468C11.77 61.1467 12.4026 61.295 13.1907 61.4142ZM16.1265 64.1436L16.0669 66.0728C17.0785 66.0862 17.771 66.0221 18.0794 65.5832L17.9246 66.4597C17.9246 66.4597 17.3643 66.4711 16.544 66.4597C15.6423 66.4469 14.9347 66.388 14.9347 66.388C15.0848 66.2396 15.122 65.2993 15.1237 65.0351L15.2062 63.1417C15.2098 62.6375 15.2558 61.8227 15.0865 61.6514C15.8194 61.702 15.7261 61.7012 16.3991 61.7272C17.2803 61.7622 17.7795 61.7359 17.7795 61.7359L17.8904 62.4597C17.5464 62.1726 17.0306 62.1389 16.1885 62.1339L16.1421 63.7532L17.4354 63.7604C17.5518 63.7618 17.5591 63.8266 17.5588 63.9563C17.5574 64.0842 17.5557 64.1523 17.4327 64.151L16.1265 64.1436ZM21.775 64.7243C21.8497 65.4263 21.9236 65.9307 22.0838 66.0228C22.0437 66.0954 21.9169 66.1906 21.7486 66.2086C21.5457 66.2301 21.3923 66.1304 21.2516 65.9675L18.9583 63.337L19.0448 65.0105C19.0726 65.2736 19.1028 66.2705 19.2665 66.4037L18.5024 66.4383C18.6354 66.2741 18.6 65.3242 18.5718 65.0603L18.4638 63.1718C18.4358 62.9088 18.3866 61.8642 18.2222 61.7322L18.9229 61.7068L21.2732 64.4981L21.0775 62.892C21.0495 62.6281 20.9066 61.6711 20.7484 61.538C20.7484 61.538 20.8327 61.5297 21.1181 61.491C21.4028 61.4523 21.5064 61.4316 21.5064 61.4316C21.3744 61.5963 21.5275 62.578 21.5559 62.8414L21.775 64.7243ZM26.0836 63.7291C26.165 64.0556 26.3266 64.8942 26.5663 65.0585C26.5663 65.0585 26.2036 65.1636 25.9819 65.2317C25.7845 65.2924 25.3497 65.4051 25.3497 65.4051C25.4523 65.224 25.2238 64.2173 25.1606 63.9659L24.9428 63.0898L23.4856 63.4474L23.6514 64.3381C23.6993 64.626 23.851 65.5951 24.0474 65.7135C24.0474 65.7135 23.8436 65.7555 23.419 65.8427C23.0633 65.916 22.8156 65.955 22.8156 65.955C22.9247 65.7737 22.7783 64.875 22.7332 64.5884L22.38 62.7052C22.3156 62.3541 22.1537 61.4661 21.9586 61.3621C21.9586 61.3621 22.1477 61.3262 22.5636 61.2453C22.98 61.1644 23.1838 61.1093 23.1838 61.1093C23.0813 61.3201 23.2621 62.1722 23.3113 62.4705L23.4233 63.0683L24.8571 62.7187L24.7025 62.1081C24.6182 61.7846 24.4402 61.0085 24.2409 60.8646C24.2409 60.8646 24.4378 60.8076 24.8367 60.6941C25.2356 60.5816 25.4077 60.5171 25.4077 60.5171C25.3285 60.7324 25.5505 61.4884 25.6423 61.8779L26.0836 63.7291ZM28.7457 62.6128L27.324 63.1695L27.3732 63.9504C27.4049 64.217 27.406 64.4617 27.4643 64.5998C27.4885 64.659 27.5326 64.7079 27.589 64.7382C27.589 64.7382 27.4409 64.792 27.1965 64.8713C26.9522 64.9503 26.8178 64.9892 26.8178 64.9892C26.903 64.842 26.9238 64.6398 26.9162 64.3871L26.7909 60.6856C26.7792 60.5512 26.7629 60.425 26.7183 60.3193C26.6789 60.2249 26.6121 60.1719 26.5657 60.1324C26.7274 60.0275 26.9301 59.9124 27.1361 59.8261C27.4627 59.6883 27.6005 59.6939 27.8389 59.9718L29.9247 62.5589C30.304 63.0527 30.6393 63.385 30.8574 63.4509C30.8574 63.4509 30.6443 63.5493 30.2432 63.7279C29.8424 63.906 29.577 64.0072 29.577 64.0072C29.6008 63.9235 29.6036 63.8347 29.5514 63.7012C29.4955 63.5573 29.2903 63.3133 29.1579 63.1287L28.7457 62.6128ZM28.4876 62.3063L27.2241 60.5557L27.3131 62.7545L28.4876 62.3063ZM34.703 61.2708C34.417 61.4637 34.2028 61.6112 34.2028 61.6112C34.182 61.3297 33.6384 60.6338 33.4789 60.4229L32.2534 58.8244L33.2392 61.9755C33.2008 62.038 33.131 62.1256 33.0661 62.1747C32.8716 62.3226 32.6823 62.2935 32.5095 62.1574L30.1761 60.223L30.9928 61.7272C31.1927 62.1081 31.5777 62.9009 31.8368 62.9791C31.8368 62.9791 31.6758 63.0651 31.4718 63.164C31.3634 63.2165 31.2547 63.2685 31.1457 63.3197C31.1908 63.0983 30.8117 62.4404 30.591 62.0192L29.6822 60.3099C29.4065 59.7956 29.1025 59.2719 28.8412 59.1675C29.0434 59.0697 29.1043 59.0396 29.3933 58.8969C29.6344 58.7782 29.8467 58.6618 29.8467 58.6618L32.4737 60.8966L31.4404 57.7326C31.4404 57.7326 31.5788 57.6387 31.8414 57.4633C32.1034 57.2879 32.3398 57.1137 32.3398 57.1137C32.3597 57.3967 32.9069 58.1181 33.1061 58.3763L34.2375 59.8319C34.4774 60.1315 34.9262 60.7983 35.2456 60.8745C35.245 60.8745 34.9892 61.077 34.703 61.2708ZM31.1379 65.9666L31.2669 66.1317C31.3048 66.1778 31.3429 66.2348 31.3833 66.2518C31.3833 66.2518 31.3496 66.2759 31.3171 66.2979C31.2845 66.3194 31.2603 66.3366 31.2603 66.3366C31.2513 66.2922 31.1966 66.223 31.1787 66.1991L31.0416 66.0178L31.1537 66.3753C31.1484 66.3839 31.1417 66.3915 31.1338 66.3977C31.1042 66.4204 31.0827 66.4076 31.063 66.3919L30.7928 66.176L30.8983 66.347C30.9234 66.3912 30.9688 66.4727 31.0046 66.4895L30.9604 66.5155C30.9467 66.5235 30.9327 66.5312 30.9186 66.5386C30.9235 66.4953 30.869 66.4102 30.8526 66.3808L30.7367 66.1867C30.71 66.1425 30.6682 66.078 30.6308 66.0671C30.6308 66.0671 30.667 66.0483 30.7026 66.0284C30.725 66.016 30.7474 66.0015 30.761 65.9942L31.0599 66.243L30.9448 65.8883C30.956 65.8832 30.9732 65.8724 31.0001 65.856C31.0345 65.8349 31.0631 65.8157 31.0631 65.8157C31.0632 65.8588 31.1133 65.9332 31.1379 65.9666ZM7.81763 67.0242C8.06114 67.1134 8.37528 67.2225 8.37528 67.2225C8.11078 67.4143 7.86781 68.1771 7.71003 68.5913L7.09989 70.284C6.93663 70.7435 6.65824 71.4094 6.75151 71.6472C6.75151 71.6472 6.41583 71.5311 6.14421 71.4349C5.91186 71.352 5.77988 71.3079 5.53374 71.2026C5.8328 71.1233 6.11469 70.1286 6.20643 69.8783L6.4857 69.0883L5.02343 68.4788L4.60059 69.3824C4.46293 69.6961 4.13358 70.4069 4.21187 70.6296C4.21187 70.6296 3.9536 70.5243 3.57549 70.3502C3.13013 70.1452 3.03314 70.091 3.03314 70.091C3.34696 69.9368 3.53273 69.4302 3.77165 68.9185L4.5363 67.2249C4.79468 66.6453 5.02802 66.1428 5.01053 65.8124C5.01053 65.8124 5.1471 65.8938 5.52313 66.0627C5.82274 66.1974 5.97582 66.2648 6.14389 66.3322C5.90595 66.427 5.57475 67.2813 5.3999 67.6647L5.17586 68.1433L6.60434 68.7319L6.82346 68.1895C6.92603 67.9125 7.28031 67.0843 7.20387 66.8009C7.20387 66.8006 7.49703 66.9068 7.81763 67.0242ZM9.46939 72.5179C8.19596 72.1828 7.79095 70.9496 8.12871 69.6651C8.46823 68.3736 9.43254 67.5082 10.6997 67.8418C11.9664 68.1748 12.3799 69.4027 12.041 70.6942C11.7028 71.9795 10.743 72.8527 9.46939 72.5179ZM10.6019 68.2142C9.78791 68.0002 9.36737 68.9332 9.10702 69.9225C8.84601 70.9113 8.75219 71.9377 9.56561 72.1521C10.3796 72.3657 10.8024 71.4259 11.0623 70.4371C11.3232 69.4481 11.4156 68.4284 10.6019 68.2142ZM12.9188 72.9723C12.9188 72.9723 12.9998 72.8847 13.055 72.7064C13.1329 72.4556 13.183 71.9734 13.2429 71.5975L13.5994 68.8406C12.8398 68.7454 12.6469 68.8 12.3133 68.9974L12.6263 68.2916C12.8628 68.3441 13.3869 68.4007 14.0245 68.4812C14.4511 68.5343 15.7218 68.6493 15.7218 68.6493L15.765 69.3551C15.4848 69.0309 15.194 69.0017 14.5609 68.9518L14.2058 71.7179C14.1739 71.9754 14.0327 72.869 14.1727 73.1336C14.02 73.1161 13.767 73.0874 13.5547 73.0663C13.3348 73.044 13.0453 72.9938 12.9188 72.9723ZM18.9718 72.0149C18.9806 72.8448 18.3055 73.4458 17.2672 73.4304C16.4597 73.4186 16.0374 73.0863 15.8758 72.9511L16.0438 72.1635C16.2946 72.6654 16.7101 73.0302 17.1779 73.0376C17.6665 73.0444 18.0511 72.7568 18.0591 72.2724C18.0641 71.9204 17.8702 71.7077 17.0552 71.2836C16.2739 70.8802 15.9832 70.4776 15.9832 69.8775C15.9832 69.0604 16.6939 68.6454 17.5291 68.6452C18.1433 68.6445 18.5717 68.8327 18.8408 68.9766L18.6674 69.6983C18.2947 69.2009 17.9575 69.0164 17.5507 69.0108C17.15 69.0042 16.8662 69.2229 16.8689 69.6347C16.8716 70.0834 17.3653 70.3262 18.031 70.698C18.7965 71.1262 18.9673 71.5557 18.9718 72.0149ZM22.7529 69.4724C22.7825 69.5698 22.8005 69.6881 22.8097 69.781C22.8175 69.8666 22.8216 69.9802 22.8115 70.0875C22.7895 70.3566 22.6619 70.669 22.4508 70.889C22.1283 71.2257 21.7081 71.3932 21.1509 71.4191C20.936 71.4323 20.8845 71.3667 20.8703 71.2117L20.869 71.178C20.869 71.178 20.8643 71.1179 20.9113 71.115L20.9652 71.1094C21.1299 71.0891 21.3741 71.0377 21.5701 70.7993C21.758 70.5541 21.8223 70.2282 21.7895 69.8775C21.7547 69.5134 21.6453 69.251 21.4003 69.0623C21.1879 68.899 20.9379 68.846 20.6808 68.8663C20.6808 68.8663 20.5777 68.875 20.4632 68.8932C20.4632 68.8932 20.3961 68.899 20.4018 68.9647L20.6778 71.8241C20.7017 72.0759 20.7704 72.9619 20.9767 73.1447C20.9767 73.1447 20.7418 73.1696 20.2991 73.2059C19.9615 73.2336 19.6984 73.2402 19.6984 73.2402C19.7872 73.0209 19.7724 72.6964 19.7503 72.3186L19.5363 70.0638C19.512 69.8057 19.4684 68.9213 19.258 68.7028C19.258 68.7028 19.824 68.6191 20.8711 68.5202C21.4187 68.4683 21.8672 68.5382 22.2541 68.8C22.5072 68.9706 22.6813 69.2189 22.7529 69.4724ZM27.0373 70.3944C27.2613 71.3855 26.7962 72.2293 25.765 72.4871C25.0403 72.6682 23.9968 72.4024 23.7056 71.1313L23.3509 69.6303C23.2575 69.2102 23.1049 68.4662 22.8611 68.2724C22.8611 68.2724 23.1333 68.2337 23.5601 68.1544C23.9865 68.0746 24.1848 68.0273 24.1848 68.0273C24.0727 68.2039 24.1904 68.8993 24.3017 69.41L24.7546 71.3179C24.8353 71.6675 24.9495 71.907 25.1456 72.0481C25.2908 72.153 25.485 72.1819 25.687 72.1449C25.8711 72.1108 26.0625 72.0067 26.1628 71.8205C26.2692 71.6251 26.2687 71.3421 26.1868 70.9927L25.6785 69.085C25.5396 68.5598 25.3794 67.9025 25.2073 67.7925C25.2073 67.7925 25.4144 67.7363 25.8068 67.624C26.1039 67.5395 26.2807 67.488 26.4089 67.4427C26.2916 67.73 26.5708 68.6108 26.6301 68.8627L27.0373 70.3944ZM31.6677 70.0034C31.7676 70.0416 31.8751 70.0679 31.9655 70.0294C31.9553 70.0917 31.8969 70.2158 31.799 70.3162C31.3822 70.7435 30.9906 70.6701 30.8582 70.6176C30.1393 70.3433 28.9369 69.2777 28.8874 69.1615C28.8874 69.1615 28.875 69.131 28.9062 69.1182L28.9497 69.099C29.1374 69.0208 29.3506 68.8086 29.4348 68.6076C29.5691 68.3131 29.5464 68.0487 29.4098 67.7247C29.2685 67.388 29.0211 67.1758 28.8273 67.1189C28.5408 67.0341 28.327 67.1014 28.1965 67.1532C28.1965 67.1532 28.0245 67.2209 27.9734 67.2724C27.9734 67.2724 27.9389 67.301 27.9789 67.4182L28.8874 70.0127C29.0254 70.3943 29.2649 71.1388 29.4821 71.2641C29.4821 71.2641 29.2367 71.3609 28.8647 71.4952C28.4925 71.6295 28.2661 71.6921 28.2661 71.6921C28.3419 71.4023 28.0553 70.6146 27.983 70.3936L27.3956 68.6418C27.2487 68.2194 26.9806 67.4625 26.7624 67.3414C26.7624 67.3414 27.1912 67.2213 28.1552 66.8164C28.6678 66.6011 29.1645 66.509 29.6125 66.6403C29.8846 66.7201 30.0683 66.8568 30.2186 67.0747C30.2761 67.1589 30.3184 67.2417 30.3549 67.3275C30.3883 67.4072 30.4114 67.4987 30.4266 67.5838C30.4741 67.8486 30.4342 68.1299 30.2812 68.3956C30.2812 68.3956 30.143 68.6627 29.8483 68.8724C29.8483 68.8723 30.795 69.6745 31.6677 70.0034Z" fill="#002156"/>
</g>
<defs>
<clipPath id="clip0_937_1162">
<rect width="35.05" height="72.4773" fill="white" transform="translate(0.195312 0.953613)"/>
</clipPath>
</defs>
</svg>
