<svg width="66" height="73" viewBox="0 0 66 73" fill="none" xmlns="http://www.w3.org/2000/svg">
<g clip-path="url(#clip0_937_1240)">
<mask id="mask0_937_1240" style="mask-type:luminance" maskUnits="userSpaceOnUse" x="-78" y="-76" width="221" height="222">
<path d="M-77.5098 145.048H142.684V-75.1459H-77.5098V145.048Z" fill="white"/>
</mask>
<g mask="url(#mask0_937_1240)">
<path d="M64.9829 2.86906C55.1909 1.38353 44.2691 0.546608 32.7615 0.546608C21.2538 0.546608 10.332 1.38353 0.540039 2.86906V29.7761C0.540039 52.4984 13.7215 65.2824 32.2384 72.0824L32.7615 72.2498L33.2845 72.0824C51.8014 65.2615 64.9829 52.4775 64.9829 29.7551V2.86906Z" fill="#2DAFE5"/>
<path d="M62.7562 5.09402C53.6338 3.7131 43.4861 2.93895 32.7526 2.93895C22.04 2.93895 11.8715 3.7131 2.74902 5.09402V30.5573C2.74902 51.7105 15.0308 63.6157 32.2505 69.9344L32.7317 70.1018L33.2129 69.9344C50.4953 63.6157 62.7562 51.7314 62.7562 30.5782V5.09402Z" fill="#7C2C3B"/>
<path d="M47.5674 58.4362C48.0487 58.9174 48.8019 58.4153 49.576 57.6202C50.3502 56.846 50.8523 56.0719 50.392 55.6116L20.6395 26.6123C20.1583 26.1311 19.3214 26.2148 18.7355 26.7797C18.1706 27.3446 18.0869 28.2024 18.5682 28.6837L47.5674 58.4362Z" fill="#D6A93A"/>
<path d="M21.5669 26.1744L23.994 23.3079C23.994 23.3079 24.2241 22.9941 23.8684 22.5756C22.9269 21.4248 21.0438 19.7719 21.0438 19.7719C20.7718 19.5627 20.5835 19.6255 20.2906 19.8975C18.8051 21.3202 15.018 24.9818 14.7878 25.2328C14.4949 25.5258 14.3694 25.735 14.4531 26.2371C14.5368 26.7393 14.8088 27.5971 14.3485 28.4131L11.7959 32.4513C11.482 32.9534 11.3774 33.3719 11.6285 33.623C11.754 33.7485 12.0888 33.895 12.7374 33.4347C13.0512 33.2254 16.5454 30.8611 17.6543 29.9614C18.3029 29.4174 18.8051 28.9362 18.8051 28.9362L20.8974 26.8648C20.8974 26.8648 21.3367 26.4254 21.5669 26.1744Z" fill="#F8D742"/>
<path d="M12.7544 33.1599C12.0221 33.662 12.0221 33.7248 12.1267 33.7039C12.2941 33.662 12.4824 33.5783 12.7334 33.4109C13.0473 33.2017 16.5414 30.8374 17.6503 29.9377C18.1106 29.5611 18.4873 29.2054 18.6756 29.038C18.1106 29.1636 17.3783 29.4356 16.939 29.8122C16.3322 30.2934 13.8005 32.4485 12.7544 33.1599Z" fill="#D6A93A"/>
<path d="M21.5663 26.1745L23.9934 23.308C23.9934 23.308 24.1398 23.1197 24.0143 22.8268C24.0143 22.8268 23.8051 22.5966 23.1146 23.4126C22.5288 24.1031 22.2568 24.3751 21.7546 24.9819C21.378 25.4422 21.0851 26.1954 20.9805 26.7812C21.1269 26.6348 21.3989 26.3628 21.5663 26.1745Z" fill="#D6A93A"/>
<path d="M18.0241 58.4364C17.5428 58.9177 16.7896 58.4155 16.0155 57.6204C15.2413 56.8463 14.7392 56.0721 15.1995 55.6118L44.952 26.6125C45.4332 26.1313 46.2701 26.215 46.856 26.7799C47.4209 27.3448 47.5046 28.2027 47.0234 28.6839L18.0241 58.4364Z" fill="#D6A93A"/>
<path d="M17.7349 58.1501L45.4998 29.632C45.981 29.1508 45.8973 28.3139 45.3324 27.728C45.0395 27.4351 44.6628 27.2677 44.3071 27.2468L15.2242 55.5975C14.7429 56.0578 15.1823 56.7901 15.9146 57.5224C16.626 58.1919 17.2955 58.5895 17.7349 58.1501Z" fill="#F8D742"/>
<path d="M44.0374 26.1631L41.6103 23.2967C41.6103 23.2967 41.3802 22.9828 41.7359 22.5644C42.6774 21.4136 44.5605 19.7607 44.5605 19.7607C44.8325 19.5515 45.0208 19.6142 45.3137 19.8862C46.7993 21.309 50.5863 24.9705 50.8165 25.2216C51.1094 25.5145 51.2349 25.7238 51.1512 26.2259C51.0675 26.7281 50.7955 27.5859 51.2559 28.4019L53.8085 32.44C54.1223 32.9422 54.2269 33.3607 53.9758 33.6117C53.8503 33.7373 53.5155 33.8837 52.8669 33.4234C52.5531 33.1933 49.0589 30.8499 47.95 29.9293C47.3014 29.3853 46.7993 28.9041 46.7993 28.9041L44.707 26.8327C44.707 26.8536 44.2676 26.4142 44.0374 26.1631Z" fill="#F8D742"/>
<path d="M52.8499 33.1481C53.5822 33.6503 53.5822 33.7131 53.4776 33.6921C53.3102 33.6712 53.1219 33.5875 52.8708 33.3992C52.557 33.19 49.0629 30.8257 47.9539 29.926C47.4936 29.5494 47.117 29.1937 46.9287 29.0263C47.4936 29.1519 48.2259 29.4239 48.6653 29.8005C49.2721 30.2817 51.8038 32.4368 52.8499 33.1481Z" fill="#D6A93A"/>
<path d="M44.0369 26.1632L41.6099 23.2967C41.6099 23.2967 41.4634 23.1084 41.5889 22.8155C41.5889 22.8155 41.7982 22.5853 42.4886 23.4013C43.0745 24.0918 43.3674 24.3638 43.8486 24.9496C44.2252 25.41 44.5181 26.1632 44.6228 26.749C44.4763 26.6235 44.2043 26.3515 44.0369 26.1632Z" fill="#D6A93A"/>
<path d="M48.7229 26.9924C48.4928 27.2226 48.1162 27.2226 47.886 26.9924L46.6306 25.737C46.4005 25.5069 46.4005 25.1303 46.6306 24.9001C46.8608 24.67 47.2374 24.67 47.4675 24.9001L48.7229 26.1555C48.9531 26.3857 48.9531 26.7623 48.7229 26.9924Z" fill="#D6A93A"/>
<path d="M46.8136 25.7458C46.5835 25.5156 46.5835 25.139 46.8136 24.9088C46.8973 24.8252 47.0229 24.7624 47.1484 24.7415C46.9601 24.7205 46.7927 24.7833 46.6462 24.9088C46.4161 25.139 46.4161 25.5156 46.6462 25.7458L47.9016 27.0011C48.0481 27.1476 48.2155 27.1895 48.4038 27.1685C48.2782 27.1476 48.1527 27.0848 48.069 27.0011L46.8136 25.7458Z" fill="#CDA938"/>
<path d="M47.3621 26.2033C47.3412 26.2242 47.2993 26.2242 47.2784 26.2033C47.2575 26.1824 47.2575 26.1405 47.2784 26.1196L47.8433 25.5547C47.8642 25.5338 47.9061 25.5338 47.927 25.5547C47.9479 25.5756 47.9479 25.6175 47.927 25.6384L47.3621 26.2033Z" fill="#D6A93A"/>
<path d="M47.5506 26.393C47.5296 26.4139 47.4878 26.4139 47.4669 26.393C47.4459 26.3721 47.4459 26.3302 47.4669 26.3093C47.4878 26.2884 47.5296 26.2884 47.5506 26.3093C47.5715 26.3302 47.5715 26.3721 47.5506 26.393Z" fill="#D6A93A"/>
<path d="M47.159 26.0009C47.138 26.0218 47.0962 26.0218 47.0753 26.0009C47.0543 25.98 47.0543 25.9381 47.0753 25.9172C47.0962 25.8963 47.138 25.8963 47.159 25.9172C47.1799 25.9381 47.1799 25.98 47.159 26.0009Z" fill="#D6A93A"/>
<path d="M47.6195 25.2272L47.4312 25.0389C47.4103 25.0179 47.3684 25.0179 47.3475 25.0389C47.3266 25.0598 47.3266 25.1016 47.3475 25.1226L47.3684 25.1435C47.3894 25.1644 47.3894 25.1644 47.3684 25.1853L46.8663 25.6875C46.8454 25.7084 46.8454 25.7502 46.8663 25.7712C46.8872 25.7921 46.929 25.7921 46.95 25.7712L47.4521 25.269H47.494L47.5358 25.3109C47.5567 25.3318 47.5986 25.3318 47.6195 25.3109C47.6404 25.2899 47.6404 25.2481 47.6195 25.2272Z" fill="#D6A93A"/>
<path d="M48.6655 26.2819C48.6446 26.2609 48.6027 26.24 48.5818 26.2609L48.247 26.512C48.2261 26.5329 48.2052 26.512 48.2052 26.512C48.1843 26.4911 48.1843 26.4911 48.2052 26.4702L48.268 26.3446C48.2889 26.3237 48.268 26.3028 48.268 26.2819C48.247 26.2609 48.2261 26.2609 48.2052 26.2819L48.0378 26.3028H47.996V26.2609L48.2261 25.9262C48.247 25.9052 48.247 25.8634 48.2261 25.8425C48.2052 25.8216 48.1634 25.8216 48.1424 25.8634L47.6612 26.512C47.6403 26.5329 47.6403 26.5748 47.6612 26.5957C47.6821 26.6166 47.703 26.6166 47.724 26.5957L47.975 26.4911H48.0169C48.0378 26.512 48.0378 26.512 48.0169 26.5329L47.9123 26.7631C47.8914 26.784 47.9123 26.8049 47.9123 26.8259C47.9332 26.8468 47.975 26.8468 47.996 26.8259L48.6446 26.3446C48.6864 26.3446 48.6864 26.3028 48.6655 26.2819Z" fill="#D6A93A"/>
<path d="M21.4817 27.4341C21.126 27.4341 20.7284 27.5805 20.4146 27.8944C19.8915 28.4175 19.8078 29.2125 20.2472 29.6519L32.1524 41.8291L34.1819 39.7996L21.4817 27.4341Z" fill="#F8D742"/>
<path d="M50.3897 55.6144L35.3879 41.0101C35.1577 41.1148 34.9276 41.2612 34.7393 41.4495C33.9651 42.2237 33.9023 43.4581 34.551 44.316L47.9626 58.0624C48.402 58.5018 49.1134 58.0415 49.8248 57.3092C49.9712 57.1836 50.0758 57.0581 50.1804 56.9326C50.578 56.4304 50.7244 55.9492 50.3897 55.6144Z" fill="#F8D742"/>
<path d="M47.3347 26.1757C47.3138 26.1966 47.272 26.1966 47.251 26.1757C47.2301 26.1548 47.2301 26.1129 47.251 26.092L47.816 25.5271C47.8369 25.5062 47.8787 25.5062 47.8997 25.5271C47.9206 25.548 47.9206 25.5899 47.8997 25.6108L47.3347 26.1757Z" fill="#F8D742"/>
<path d="M47.5242 26.3657C47.5033 26.3866 47.4614 26.3866 47.4405 26.3657C47.4196 26.3447 47.4196 26.3029 47.4405 26.282C47.4614 26.261 47.5033 26.261 47.5242 26.282C47.5451 26.3029 47.5451 26.3447 47.5242 26.3657Z" fill="#F8D742"/>
<path d="M47.1316 25.9733C47.1107 25.9942 47.0688 25.9942 47.0479 25.9733C47.027 25.9524 47.027 25.9106 47.0479 25.8896C47.0688 25.8687 47.1107 25.8687 47.1316 25.8896C47.1525 25.9106 47.1525 25.9524 47.1316 25.9733Z" fill="#F8D742"/>
<path d="M47.5922 25.1996L47.4039 25.0113C47.3829 24.9904 47.3411 24.9904 47.3202 25.0113C47.2992 25.0322 47.2992 25.074 47.3202 25.095L47.3411 25.1159C47.362 25.1368 47.362 25.1368 47.3411 25.1577L46.8389 25.6599C46.818 25.6808 46.818 25.7227 46.8389 25.7436C46.8599 25.7645 46.9017 25.7645 46.9226 25.7436L47.4248 25.2414H47.4666L47.5085 25.2833C47.5294 25.3042 47.5712 25.3042 47.5922 25.2833C47.6131 25.2624 47.6131 25.2205 47.5922 25.1996Z" fill="#F8D742"/>
<path d="M48.6382 26.2543C48.6172 26.2334 48.5754 26.2124 48.5545 26.2334L48.2197 26.4844C48.1988 26.5054 48.1779 26.4844 48.1779 26.4844C48.1569 26.4844 48.1569 26.4635 48.1779 26.4426L48.2406 26.317C48.2615 26.2961 48.2406 26.2752 48.2406 26.2543C48.2197 26.2334 48.1988 26.2334 48.1779 26.2543L48.0105 26.2752H47.9686V26.2334L48.1988 25.8986C48.2197 25.8777 48.2197 25.8358 48.1988 25.8149C48.1779 25.794 48.136 25.794 48.1151 25.8358L47.6339 26.4844C47.6129 26.5054 47.6129 26.5472 47.6339 26.5681C47.6548 26.589 47.6757 26.589 47.6966 26.5681L47.9477 26.4635H47.9895C48.0105 26.4844 48.0105 26.4844 47.9895 26.5054L47.8849 26.7355C47.864 26.7564 47.8849 26.7773 47.8849 26.7983C47.9059 26.8192 47.9477 26.8192 47.9686 26.7983L48.6172 26.317C48.6591 26.317 48.6591 26.2752 48.6382 26.2543Z" fill="#F8D742"/>
<path d="M18.9573 24.9272C19.1875 25.1574 19.1875 25.534 18.9573 25.7641L17.7019 27.0195C17.4718 27.2497 17.0952 27.2497 16.865 27.0195C16.6348 26.7894 16.6348 26.4128 16.865 26.1826L18.1204 24.9272C18.3505 24.6971 18.7271 24.6971 18.9573 24.9272Z" fill="#D6A93A"/>
<path d="M16.9847 26.2781L18.2401 25.0227C18.4493 24.8135 18.7841 24.8135 19.0142 24.9809L18.9514 24.9181C18.7213 24.6879 18.3447 24.6879 18.1145 24.9181L16.8591 26.1735C16.629 26.4036 16.629 26.7802 16.8591 27.0104C16.8801 27.0313 16.901 27.0522 16.9219 27.0522C16.7545 26.8221 16.7754 26.4873 16.9847 26.2781Z" fill="#CDA938"/>
<path d="M18.1399 26.3784C18.1608 26.3993 18.1608 26.4412 18.1399 26.4621C18.119 26.483 18.0771 26.483 18.0562 26.4621L17.4913 25.8972C17.4704 25.8762 17.4704 25.8344 17.4913 25.8135C17.5122 25.7926 17.554 25.7926 17.575 25.8135L18.1399 26.3784Z" fill="#D6A93A"/>
<path d="M18.3299 26.1894C18.3508 26.2104 18.3508 26.2522 18.3299 26.2731C18.3089 26.294 18.2671 26.294 18.2462 26.2731C18.2252 26.2522 18.2252 26.2104 18.2462 26.1894C18.2671 26.1685 18.3089 26.1685 18.3299 26.1894Z" fill="#D6A93A"/>
<path d="M17.9373 26.582C17.9582 26.6029 17.9582 26.6448 17.9373 26.6657C17.9164 26.6866 17.8745 26.6866 17.8536 26.6657C17.8327 26.6448 17.8327 26.6029 17.8536 26.582C17.8745 26.5611 17.9164 26.5611 17.9373 26.582Z" fill="#D6A93A"/>
<path d="M17.164 26.1212L16.9757 26.3095C16.9547 26.3304 16.9547 26.3723 16.9757 26.3932C16.9966 26.4141 17.0384 26.4141 17.0593 26.3932L17.1012 26.3723C17.1221 26.3514 17.1221 26.3514 17.143 26.3723L17.6452 26.8744C17.6661 26.8954 17.708 26.8954 17.7289 26.8744C17.7498 26.8535 17.7498 26.8117 17.7289 26.7908L17.2267 26.2886V26.2468L17.2686 26.2258C17.2895 26.2049 17.2895 26.1631 17.2686 26.1421C17.2267 26.1003 17.1849 26.1003 17.164 26.1212Z" fill="#D6A93A"/>
<path d="M18.2188 25.075C18.1978 25.0959 18.1769 25.1377 18.1978 25.1587L18.4489 25.4934V25.5353C18.428 25.5562 18.4071 25.5562 18.4071 25.5562L18.2606 25.4725C18.2397 25.4725 18.2188 25.4725 18.1978 25.4934C18.1769 25.5144 18.1769 25.5353 18.1978 25.5562L18.2397 25.7027V25.7445H18.1978L17.8631 25.5144C17.8421 25.4934 17.8003 25.4934 17.7794 25.5144C17.7584 25.5353 17.7584 25.5771 17.8003 25.598L18.4489 26.0793C18.4698 26.1002 18.5117 26.1002 18.5326 26.0793C18.5535 26.0584 18.5535 26.0374 18.5326 26.0165L18.428 25.7654V25.7236C18.4489 25.7027 18.4489 25.7027 18.4698 25.7236L18.7 25.8282C18.7209 25.8491 18.7418 25.8282 18.7627 25.8282C18.7837 25.8073 18.7837 25.7654 18.7627 25.7445L18.3024 25.0959C18.2815 25.0541 18.2397 25.0541 18.2188 25.075Z" fill="#D6A93A"/>
<path d="M18.1399 26.3154C18.1608 26.3363 18.1608 26.3782 18.1399 26.3991C18.119 26.42 18.0771 26.42 18.0562 26.3991L17.4913 25.8342C17.4704 25.8133 17.4704 25.7714 17.4913 25.7505C17.5122 25.7296 17.554 25.7296 17.575 25.7505L18.1399 26.3154Z" fill="#F8D742"/>
<path d="M18.3299 26.1267C18.3508 26.1476 18.3508 26.1895 18.3299 26.2104C18.3089 26.2313 18.2671 26.2313 18.2462 26.2104C18.2252 26.1895 18.2252 26.1476 18.2462 26.1267C18.2671 26.1058 18.3089 26.1058 18.3299 26.1267Z" fill="#F8D742"/>
<path d="M17.9373 26.5188C17.9582 26.5397 17.9582 26.5815 17.9373 26.6025C17.9164 26.6234 17.8745 26.6234 17.8536 26.6025C17.8327 26.5815 17.8327 26.5397 17.8536 26.5188C17.8745 26.4979 17.9164 26.4979 17.9373 26.5188Z" fill="#F8D742"/>
<path d="M17.164 26.0582L16.9757 26.2465C16.9547 26.2675 16.9547 26.3093 16.9757 26.3302C16.9966 26.3512 17.0384 26.3512 17.0593 26.3302L17.1012 26.3093C17.1221 26.2884 17.1221 26.2884 17.143 26.3093L17.6452 26.8115C17.6661 26.8324 17.708 26.8324 17.7289 26.8115C17.7498 26.7905 17.7498 26.7487 17.7289 26.7278L17.2267 26.2256V26.1838L17.2686 26.1628C17.2895 26.1419 17.2895 26.1001 17.2686 26.0792C17.2267 26.0373 17.1849 26.0373 17.164 26.0582Z" fill="#F8D742"/>
<path d="M18.2188 25.0122C18.1978 25.0332 18.1769 25.075 18.1978 25.0959L18.4489 25.4307V25.4725C18.428 25.4935 18.4071 25.4935 18.4071 25.4935L18.2606 25.4098C18.2397 25.4098 18.2188 25.4098 18.1978 25.4307C18.1769 25.4516 18.1769 25.4725 18.1978 25.4935L18.2397 25.6399V25.6818H18.1978L17.8631 25.4307C17.8421 25.4307 17.8003 25.4307 17.7794 25.4516C17.7584 25.4725 17.7584 25.5144 17.8003 25.5353L18.4489 26.0165C18.4698 26.0375 18.5117 26.0375 18.5326 26.0165C18.5535 25.9956 18.5535 25.9747 18.5326 25.9538L18.428 25.7027V25.6608C18.4489 25.6399 18.4489 25.6399 18.4698 25.6608L18.7 25.7655C18.7209 25.7864 18.7418 25.7655 18.7627 25.7655C18.7837 25.7445 18.7837 25.7027 18.7627 25.6818L18.3024 25.0332C18.2815 24.9913 18.2397 24.9913 18.2188 25.0122Z" fill="#F8D742"/>
<path d="M21.0666 17.7918C19.9368 17.8965 18.8697 17.1432 18.8488 15.9715C18.8069 14.8835 18.786 13.7955 18.7441 12.7076C19.2463 12.6657 19.5183 12.6448 20.0204 12.6029C20.0414 13.6909 20.0832 14.7789 20.1041 15.8669C20.1251 16.4109 20.4808 16.662 21.0247 16.6411C21.1084 16.6411 21.1294 16.6411 21.2131 16.6202C21.7571 16.5992 22.1127 16.2854 22.0918 15.7414C22.0709 14.6534 22.05 13.5654 22.0081 12.4774C22.5103 12.4565 22.7823 12.4356 23.2844 12.4146L23.3472 15.6786C23.389 16.8503 22.4057 17.7291 21.2549 17.7709C21.1712 17.7918 21.1503 17.7918 21.0666 17.7918Z" fill="white"/>
<path d="M24.2705 12.3638C24.8564 12.3429 25.1702 12.322 25.756 12.3011C26.4256 13.3681 27.0951 14.4561 27.7437 15.5232H27.7647C27.7437 14.4352 27.7437 13.3263 27.7228 12.2383C28.225 12.2174 28.497 12.2174 28.9991 12.2174C29.02 13.9331 29.02 15.6697 29.041 17.3854C28.4551 17.4063 28.1622 17.4063 27.5763 17.4272C26.9277 16.3601 26.2582 15.2721 25.5887 14.2051H25.5677C25.5887 15.293 25.6096 16.402 25.6096 17.49C25.1074 17.5109 24.8564 17.5318 24.3542 17.5527C24.3333 15.8161 24.3124 14.0795 24.2705 12.3638Z" fill="white"/>
<path d="M29.9443 12.1885C30.4465 12.1885 30.7185 12.1675 31.2206 12.1675C31.2206 13.8832 31.2416 15.6198 31.2416 17.3355C30.7394 17.3355 30.4883 17.3355 29.9862 17.3564C29.9653 15.6408 29.9653 13.9041 29.9443 12.1885Z" fill="white"/>
<path d="M33.8004 13.2526H32.1475V12.1646C33.6748 12.1646 35.2022 12.1855 36.7296 12.2065V13.2945C36.081 13.2735 35.7462 13.2735 35.0767 13.2735C35.0767 14.6335 35.0558 15.9935 35.0558 17.3535C34.5536 17.3535 34.3025 17.3535 33.8004 17.3326V13.2526Z" fill="white"/>
<path d="M37.6614 12.2287C38.8122 12.2705 39.9629 12.3124 41.1346 12.3542C41.1346 12.7936 41.1137 13.0028 41.1137 13.4422C40.2349 13.4004 39.7955 13.3795 38.9168 13.3585V14.3001C39.6282 14.321 39.9839 14.3419 40.6952 14.3628C40.6952 14.8022 40.6743 15.0115 40.6743 15.4508C39.9629 15.409 39.6072 15.3881 38.8959 15.3671C38.8959 15.7647 38.8959 15.953 38.8749 16.3505C39.7746 16.3715 40.2349 16.3924 41.1346 16.4342C41.1346 16.8736 41.1137 17.0828 41.1137 17.5222C39.9629 17.4804 38.7912 17.4385 37.5986 17.3967L37.6614 12.2287Z" fill="white"/>
<path d="M42.0988 12.3932C42.9148 12.4351 43.3332 12.456 44.1492 12.5188C45.6347 12.5815 46.8064 13.7951 46.7646 15.2806C46.7227 16.7452 45.4674 17.8332 44.0237 17.6867C43.2077 17.6449 42.8101 17.603 41.9941 17.5612C42.036 15.8455 42.0569 14.1089 42.0988 12.3932ZM43.9818 16.5778C44.8606 16.6406 45.4046 16.1594 45.4255 15.1551C45.4464 14.1717 44.9024 13.6277 44.0446 13.5649C43.7726 13.5649 43.6471 13.5649 43.3541 13.544C43.3332 14.5483 43.3123 15.5526 43.2914 16.536C43.5634 16.5569 43.7098 16.5778 43.9818 16.5778Z" fill="white"/>
<path d="M8.03223 6.35086L9.70607 6.14163C9.99899 7.60624 10.3128 9.07085 10.6058 10.5355H10.6267C10.9614 9.00808 11.2962 7.45978 11.631 5.9324C12.1959 5.86963 12.4888 5.8487 13.0747 5.78594C13.4094 7.25055 13.7442 8.71516 14.079 10.2007H14.0999C14.4137 8.65239 14.7276 7.12501 15.0624 5.59763C15.711 5.53486 16.0457 5.51394 16.6944 5.45117C16.1504 7.66901 15.6064 9.86592 15.0624 12.0838C14.2882 12.1465 13.9116 12.1884 13.1374 12.2721C12.8654 11.0376 12.6144 9.78223 12.3424 8.54777H12.3214C12.0494 9.845 11.7984 11.1422 11.5264 12.4395C10.7522 12.5231 10.3547 12.565 9.58053 12.6487C9.07838 10.5564 8.5553 8.44316 8.03223 6.35086Z" fill="white"/>
<path d="M49.8369 5.54846C50.5483 5.61123 50.9039 5.63215 51.6153 5.71584C52.0966 7.11768 52.5569 8.4986 53.0381 9.90044H53.059C53.5193 8.60322 54.0006 7.30599 54.4818 6.00876C55.1932 6.09245 55.5489 6.1343 56.2393 6.21799C56.6369 8.43583 57.0135 10.6327 57.411 12.8506C56.7624 12.7669 56.4276 12.725 55.779 12.6414C55.5907 11.1977 55.4024 9.75398 55.1932 8.31029H55.1722C54.7119 9.69121 54.2516 11.0512 53.7704 12.4321C53.2055 12.3694 52.9126 12.3484 52.3267 12.2857C51.8455 10.8211 51.3852 9.35644 50.9039 7.89183H50.883C50.7156 9.29367 50.5483 10.6955 50.3809 12.1183C49.7113 12.0555 49.3766 12.0346 48.707 11.9718C49.1046 9.81675 49.4603 7.6826 49.8369 5.54846Z" fill="white"/>
<path d="M17.3359 5.41963C18.8005 5.31501 20.2652 5.2104 21.7298 5.12671C21.6879 5.67071 21.6879 5.94271 21.6461 6.4867C20.7464 6.52855 19.8258 6.59132 18.9261 6.65409V7.82578C19.8049 7.76301 20.2652 7.74208 21.1439 7.67931V9.03931C20.2652 9.08116 19.8049 9.123 18.9261 9.18577V10.4202C19.8676 10.3575 20.8301 10.2947 21.7716 10.2528V11.6128C20.2861 11.6965 18.8215 11.8011 17.3359 11.9058V5.41963Z" fill="white"/>
<path d="M29.1921 6.23592C28.3761 6.25685 27.9576 6.25685 27.1416 6.27777V4.91777C29.0456 4.87593 30.9287 4.85501 32.8327 4.85501V6.215H30.7822V11.3411C30.1545 11.3411 29.8197 11.3411 29.1921 11.3621V6.23592Z" fill="white"/>
<path d="M35.4795 4.86113C36.1072 4.86113 36.442 4.88206 37.0696 4.88206V7.47651C37.9903 7.49743 38.9109 7.51835 39.8315 7.5602V4.96575C40.4592 4.98667 40.7939 5.00759 41.4216 5.02852V11.5146C40.7939 11.4937 40.4592 11.4728 39.8315 11.4519V8.9202C38.9109 8.87835 37.9903 8.85743 37.0696 8.8365V11.3682C36.442 11.3682 36.1072 11.3682 35.4795 11.3473V4.86113Z" fill="white"/>
<path d="M46.1831 10.4149C45.3043 10.3522 44.8649 10.3312 44.0071 10.2894C43.8606 10.8334 43.7769 11.0845 43.6095 11.6285C42.9609 11.5866 42.6262 11.5866 41.9775 11.5448C42.6262 9.41063 43.2957 7.27648 43.9443 5.14233C44.8021 5.18418 45.2206 5.22602 46.0784 5.26787L48.2126 11.9214C47.564 11.8795 47.2292 11.8586 46.5806 11.7958C46.4132 11.2519 46.3504 10.9799 46.1831 10.4149ZM45.0951 6.69064C44.8649 7.46479 44.6138 8.23894 44.3837 9.03401C44.9695 9.07586 45.2415 9.07586 45.8274 9.1177C45.5763 8.30171 45.3461 7.50663 45.0951 6.69064Z" fill="white"/>
<path d="M24.7281 4.88389C23.5355 4.92573 22.1964 5.65804 22.1964 6.99711C22.1755 9.02664 25.2302 8.48264 25.4185 9.59156C25.4604 9.90541 25.1256 10.1565 24.6862 10.1565C23.8702 10.1565 23.2216 9.9891 22.5521 9.65433C22.5102 10.2193 22.4893 10.5122 22.4684 11.0143C23.1589 11.4746 23.8702 11.5792 24.6444 11.6002C25.7952 11.6211 27.1551 10.8469 27.1761 9.50787C27.197 7.49926 24.1632 7.93865 23.9539 6.8925C23.8912 6.6205 24.2259 6.3485 24.7072 6.32757C25.4604 6.28573 26.0044 6.47404 26.4019 6.64142C26.4438 5.99281 26.4438 5.90911 26.4856 5.28142C26.1299 5.07219 25.565 4.86296 24.7281 4.88389Z" fill="white"/>
</g>
<path d="M23.3672 58.5066L24.1414 58.8414L23.0534 61.3312L24.3506 61.8961L24.0577 62.5657L21.9863 61.666L23.3672 58.5066Z" fill="white"/>
</g>
<defs>
<clipPath id="clip0_937_1240">
<rect width="65.2875" height="72.4773" fill="white" transform="translate(0.120117 0.146973)"/>
</clipPath>
</defs>
</svg>
